<svg width="25" height="25" viewBox="0 0 25 25" fill="none" xmlns="http://www.w3.org/2000/svg">
<path d="M19.4538 20.7416L12.8913 24.8865C12.6549 25.0361 12.3501 25.0391 12.109 24.8865L5.54653 20.7416C5.09189 20.4543 5.09194 19.7908 5.54653 19.5035L12.0143 15.4186C12.2505 15.2695 12.5524 15.2682 12.7882 15.4138L19.4459 19.4987C19.9077 19.7813 19.9115 20.4522 19.4538 20.7416Z" fill="#59C36A"/>
<path d="M19.4539 20.7419L12.8914 24.8869C12.7717 24.9625 12.636 25.0001 12.5002 25.0001V15.312C12.7218 15.3412 12.259 15.0893 19.446 19.4989C19.9078 19.7816 19.9116 20.4525 19.4539 20.7419Z" fill="#00A66C"/>
<path d="M19.8395 10.3799C19.2126 12.1946 18.0685 13.7432 16.9626 15.2406C15.8727 16.7161 16.3001 16.1543 13.1007 20.7242C12.8099 21.1417 12.1904 21.1417 11.8996 20.7242C8.92829 16.4932 9.29479 16.9424 8.03776 15.2406C6.9318 13.7432 5.78776 12.1946 5.16081 10.3799C4.25358 7.75283 4.64567 5.15361 6.2653 3.06064C7.74821 1.14438 10.0793 0 12.5002 0C14.9211 0 17.2521 1.14438 18.735 3.06064C20.4205 5.23857 20.7091 7.86187 19.8395 10.3799Z" fill="#FF4D4D"/>
<path d="M19.8396 10.3799C19.2127 12.1946 18.0686 13.7432 16.9627 15.2406C15.8728 16.7161 16.3002 16.1543 13.1008 20.7242C12.9641 20.9205 12.7395 21.0376 12.5002 21.0376V0C14.9211 0 17.2522 1.14438 18.7351 3.06064C20.4206 5.23857 20.7091 7.86187 19.8396 10.3799Z" fill="#CD0000"/>
<path d="M15.9041 7.87793C15.9041 9.75415 14.3772 11.2808 12.5002 11.2808C10.6233 11.2808 9.09644 9.7541 9.09644 7.87793C9.09644 6.00122 10.6233 4.47461 12.5002 4.47461C14.3772 4.47461 15.9041 6.00122 15.9041 7.87793Z" fill="#F0F7FF"/>
<path d="M15.9041 7.87793C15.9041 9.75415 14.3772 11.2808 12.5002 11.2808V4.47461C14.3772 4.47461 15.9041 6.00122 15.9041 7.87793Z" fill="#DFE7F4"/>
</svg>
