<svg width="46" height="46" viewBox="0 0 46 46" fill="none" xmlns="http://www.w3.org/2000/svg">
<g clip-path="url(#clip0)">
<path d="M41.567 23.4941C36.0085 23.0889 30.4499 23.0889 24.8913 23.4941C23.3311 23.6079 22.0749 24.8302 21.9333 26.3881C21.5115 31.0278 21.5115 35.6676 21.9333 40.3074C22.0749 41.8653 23.3311 43.0877 24.8913 43.2014C30.4499 43.6066 36.0085 43.6066 41.567 43.2014C43.1272 43.0877 44.3835 41.8653 44.5251 40.3074C44.9469 35.6676 44.9469 31.0279 44.5251 26.3881C44.3835 24.8302 43.1272 23.6079 41.567 23.4941Z" fill="#ECECEC"/>
<path d="M22.2074 15.7472L19.7494 22.3072L18.8735 24.6443C18.4444 25.7868 17.2949 26.4931 16.0818 26.3572L10.6439 25.748L10.6386 21.5435L10.6316 15.7472H22.2074Z" fill="#DB5B6F"/>
<path d="M22.2074 15.7472L19.7494 22.3072C17.0432 22.1978 13.8145 21.9779 10.6386 21.5435L10.6316 15.7472H22.2074Z" fill="#D54653"/>
<path d="M15.7576 21.2434C12.1615 26.7881 11.6052 33.4638 11.6052 33.4638L12.4184 34.276C12.9853 34.8438 13.2873 35.6022 13.2873 36.3748C13.2873 36.7465 13.2175 37.1208 13.0736 37.4793C12.5562 38.7684 11.2133 39.5241 9.84219 39.3025C7.04603 38.8505 5.0171 37.7062 3.95755 36.9778C3.43045 36.6158 3.11615 36.0163 3.12494 35.3771C3.22382 28.6493 4.34068 23.1099 5.1645 19.9023C5.65802 17.9784 6.04651 16.8934 6.04651 16.8934L18.145 18.2663C17.2286 19.1827 16.4383 20.1927 15.7576 21.2434Z" fill="#407093"/>
<path d="M18.1451 18.2662C17.2286 19.1827 16.4385 20.1927 15.7577 21.2434C12.3876 21.0298 8.57789 20.6325 5.16455 19.9023C5.65807 17.9784 6.04656 16.8933 6.04656 16.8933L18.1451 18.2662Z" fill="#365E7D"/>
<path d="M18.1445 18.2665C17.8081 18.6028 17.4885 18.9516 17.1857 19.311L7.72701 18.2373C7.72701 18.2373 4.96347 25.9601 4.80544 36.722C4.80104 37.046 4.87962 37.3603 5.0279 37.6384C4.60319 37.4027 4.24477 37.1749 3.95779 36.978C3.4307 36.616 3.11639 36.0165 3.12518 35.3773C3.28321 24.6155 6.04676 16.8935 6.04676 16.8935L18.1445 18.2665Z" fill="#365E7D"/>
<path d="M32.0491 7.2121C31.9081 9.59937 31.5354 13.1258 30.5629 16.5484C30.188 17.8678 28.9843 18.7777 27.6127 18.7694C23.8791 18.7468 16.2014 18.4998 10.4689 16.9823C9.3725 16.6921 8.53119 15.8119 8.28517 14.7047C7.97306 13.2999 7.57878 11.1607 7.39921 8.69486C7.28882 7.17879 8.31849 5.81618 9.80547 5.50055C13.5945 4.69633 21.2 3.41862 29.2328 3.99599C30.8934 4.11553 32.1472 5.55021 32.0491 7.2121Z" fill="#DB5B6F"/>
<path d="M30.6728 16.149C30.6375 16.2823 30.6004 16.4157 30.5624 16.548C30.1881 17.868 28.9838 18.7774 27.6126 18.7694C23.8788 18.7465 16.201 18.5001 10.4682 16.9824C9.37256 16.6919 8.53115 15.8117 8.28479 14.7045C7.97312 13.2998 7.57848 11.1604 7.39926 8.69449C7.33123 7.76388 7.69327 6.89066 8.32724 6.28235C8.29367 6.50129 8.284 6.72647 8.30079 6.95517C8.48088 9.4212 8.87464 11.5604 9.18719 12.9651C9.43268 14.0723 10.2741 14.9526 11.3706 15.2422C17.1034 16.7599 24.7811 17.0072 28.5142 17.0292C29.344 17.0345 30.1121 16.7035 30.6728 16.149Z" fill="#D54653"/>
<path d="M28.9719 6.68766C28.8129 9.38045 28.3925 13.3581 27.2956 17.2187C26.8727 18.7069 25.5149 19.7332 23.9678 19.7239C19.7563 19.6984 11.0962 19.4198 4.63005 17.7082C3.39331 17.3808 2.44441 16.3879 2.16693 15.139C1.81492 13.5545 1.37018 11.1416 1.16758 8.36018C1.04304 6.65013 2.20446 5.11313 3.88173 4.75717C8.15563 3.85002 16.7345 2.40883 25.7951 3.06012C27.6682 3.19468 29.0826 4.81298 28.9719 6.68766Z" fill="#407093"/>
<path d="M9.90217 18.7591C8.07539 18.489 6.28131 18.1456 4.63032 17.7085C3.3934 17.3809 2.44424 16.3886 2.16702 15.1392C1.81475 13.5552 1.36974 11.1422 1.16759 8.36021C1.04304 6.65095 2.20402 5.11378 3.88156 4.75799C4.97284 4.52666 6.34398 4.25999 7.93239 4.0022C7.48563 4.09053 7.0698 4.17614 6.68571 4.25735C4.88011 4.64057 3.62992 6.29428 3.76413 8.13512C3.9822 11.129 4.46077 13.7265 4.84039 15.4324C5.13878 16.7762 6.16037 17.8454 7.4909 18.1977C8.26876 18.4033 9.0757 18.5896 9.90217 18.7591Z" fill="#365E7D"/>
<path d="M23.5721 12.4457H6.66829C6.04671 12.4457 5.54272 11.9418 5.54272 11.3201C5.54272 10.6986 6.04662 10.1946 6.66829 10.1946H23.5721C24.1937 10.1946 24.6977 10.6985 24.6977 11.3201C24.6976 11.9418 24.1937 12.4457 23.5721 12.4457Z" fill="#ECECEC"/>
<path d="M36.4133 11.2893V11.4719C36.4133 12.116 36.912 12.6501 37.5545 12.6941L39.5309 12.8296C40.2388 12.8782 40.8398 12.317 40.8398 11.6075V11.1537C40.8398 10.4441 40.2388 9.88292 39.5309 9.93152L37.5545 10.0671C36.912 10.1112 36.4133 10.6453 36.4133 11.2893Z" fill="#CA7967"/>
<path d="M34.8882 17.1639L34.7968 17.322C34.4748 17.8798 34.6397 18.5916 35.1741 18.9511L36.8179 20.0567C37.4067 20.4528 38.2078 20.2672 38.5625 19.6528L38.7894 19.2598C39.1442 18.6452 38.9043 17.8588 38.267 17.5469L36.4875 16.6762C35.9091 16.393 35.2102 16.6061 34.8882 17.1639Z" fill="#CA7967"/>
<path d="M34.7968 5.43924L34.8882 5.59736C35.2102 6.15513 35.9091 6.36827 36.4875 6.08517L38.2669 5.21441C38.9043 4.90248 39.1442 4.11601 38.7894 3.50154L38.5625 3.10857C38.2077 2.49402 37.4067 2.30857 36.8179 2.70462L35.1741 3.81023C34.6397 4.16962 34.4748 4.88156 34.7968 5.43924Z" fill="#CA7967"/>
<path d="M45.1822 26.3284C45.0109 24.4431 43.511 22.9749 41.616 22.8372C36.051 22.4315 30.4082 22.4314 24.8443 22.8372C22.9491 22.9749 21.4493 24.4431 21.278 26.3284C20.9639 29.7808 20.8816 33.282 21.0333 36.7348C21.0493 37.0986 21.3594 37.3805 21.7208 37.3645C22.0845 37.3485 22.3665 37.0407 22.3505 36.677C22.2013 33.2831 22.2823 29.8415 22.5911 26.4478C22.7036 25.2083 23.6915 24.2429 24.94 24.1521C30.4405 23.7512 36.019 23.7512 41.5204 24.1521C42.7688 24.2428 43.7567 25.2083 43.8694 26.4478C44.2857 31.0264 44.2857 35.6695 43.8694 40.2481C43.7567 41.4876 42.7689 42.453 41.5203 42.5438C36.0189 42.9448 30.4405 42.9448 24.9399 42.5438C23.6915 42.4531 22.7036 41.4876 22.591 40.2475C22.5617 39.9286 22.5344 39.6037 22.5101 39.2817C22.4827 38.9187 22.1666 38.6468 21.8032 38.674C21.4402 38.7015 21.1681 39.018 21.1955 39.381C21.2204 39.7101 21.2481 40.0423 21.278 40.3675C21.4493 42.2527 22.9491 43.721 24.8442 43.8587C27.6266 44.0615 30.4276 44.1629 33.2298 44.1629C36.0313 44.1629 38.8338 44.0615 41.6159 43.8588C43.5111 43.721 45.0109 42.2528 45.1822 40.3676C45.6057 35.7096 45.6057 30.9862 45.1822 26.3284Z" fill="black"/>
<path d="M26.5318 39.3429V27.3526C26.5318 26.9886 26.2367 26.6934 25.8726 26.6934C25.5084 26.6934 25.2134 26.9886 25.2134 27.3526V39.3428C25.2134 39.7068 25.5084 40.002 25.8726 40.002C26.2367 40.002 26.5318 39.7069 26.5318 39.3429Z" fill="black"/>
<path d="M28.3252 37.9875C28.6894 37.9875 28.9844 37.6924 28.9844 37.3283V27.3526C28.9844 26.9886 28.6894 26.6934 28.3252 26.6934C27.9611 26.6934 27.666 26.9886 27.666 27.3526V37.3283C27.666 37.6924 27.9611 37.9875 28.3252 37.9875Z" fill="black"/>
<path d="M30.7776 37.9875C31.1418 37.9875 31.4368 37.6924 31.4368 37.3283V27.3526C31.4368 26.9886 31.1418 26.6934 30.7776 26.6934C30.4135 26.6934 30.1184 26.9886 30.1184 27.3526V37.3283C30.1184 37.6924 30.4136 37.9875 30.7776 37.9875Z" fill="black"/>
<path d="M33.23 37.9875C33.5942 37.9875 33.8892 37.6924 33.8892 37.3283V27.3526C33.8892 26.9886 33.5942 26.6934 33.23 26.6934C32.8659 26.6934 32.5708 26.9886 32.5708 27.3526V37.3283C32.5708 37.6924 32.8659 37.9875 33.23 37.9875Z" fill="black"/>
<path d="M27.666 39.3429C27.666 39.7069 27.9611 40.0021 28.3252 40.0021C28.6893 40.0021 28.9844 39.7069 28.9844 39.3429V39.2972C28.9844 38.9331 28.6893 38.638 28.3252 38.638C27.9611 38.638 27.666 38.9331 27.666 39.2972V39.3429Z" fill="black"/>
<path d="M30.1184 39.3429C30.1184 39.7069 30.4135 40.0021 30.7776 40.0021C31.1417 40.0021 31.4368 39.7069 31.4368 39.3429V39.2972C31.4368 38.9331 31.1417 38.638 30.7776 38.638C30.4135 38.638 30.1184 38.9331 30.1184 39.2972V39.3429Z" fill="black"/>
<path d="M32.5708 39.3429C32.5708 39.7069 32.8658 40.0021 33.23 40.0021C33.5941 40.0021 33.8892 39.7069 33.8892 39.3429V39.2972C33.8892 38.9331 33.5941 38.638 33.23 38.638C32.8658 38.638 32.5708 38.9331 32.5708 39.2972V39.3429Z" fill="black"/>
<path d="M37.4758 39.3429C37.4758 39.7069 37.7709 40.0021 38.135 40.0021C38.4991 40.0021 38.7942 39.7069 38.7942 39.3429V39.2972C38.7942 38.9331 38.4991 38.638 38.135 38.638C37.7709 38.638 37.4758 38.9331 37.4758 39.2972V39.3429Z" fill="black"/>
<path d="M39.9285 39.3429C39.9285 39.7069 40.2235 40.0021 40.5876 40.0021C40.9518 40.0021 41.2468 39.7069 41.2468 39.3429V39.2972C41.2468 38.9331 40.9518 38.638 40.5876 38.638C40.2235 38.638 39.9285 38.9331 39.9285 39.2972V39.3429Z" fill="black"/>
<path d="M36.3416 39.3429V27.3526C36.3416 26.9886 36.0465 26.6934 35.6824 26.6934C35.3183 26.6934 35.0232 26.9886 35.0232 27.3526V39.3428C35.0232 39.7068 35.3183 40.002 35.6824 40.002C36.0465 40.002 36.3416 39.7069 36.3416 39.3429Z" fill="black"/>
<path d="M38.135 37.9875C38.4992 37.9875 38.7942 37.6924 38.7942 37.3283V27.3526C38.7942 26.9886 38.4992 26.6934 38.135 26.6934C37.7709 26.6934 37.4758 26.9886 37.4758 27.3526V37.3283C37.4758 37.6924 37.771 37.9875 38.135 37.9875Z" fill="black"/>
<path d="M40.5877 37.9875C40.9518 37.9875 41.2469 37.6924 41.2469 37.3283V27.3526C41.2469 26.9886 40.9518 26.6934 40.5877 26.6934C40.2235 26.6934 39.9285 26.9886 39.9285 27.3526V37.3283C39.9285 37.6924 40.2235 37.9875 40.5877 37.9875Z" fill="black"/>
<path d="M23.9644 20.3831C23.9729 20.3831 23.9812 20.3832 23.9898 20.3832C24.9751 20.3832 25.9003 20.0248 26.6218 19.4178C26.9378 19.4226 27.2629 19.4263 27.6097 19.4288H27.6309C29.2804 19.4287 30.7455 18.321 31.1983 16.7282C32.189 13.2404 32.5661 9.6494 32.7082 7.25097C32.8269 5.23874 31.2895 3.4835 29.2803 3.33822C28.8475 3.30745 28.4485 3.28364 28.0654 3.26509C27.4459 2.77737 26.6818 2.4628 25.8431 2.40259C18.8978 1.90345 12.2379 2.63885 7.87382 3.34367C7.51442 3.40176 7.27008 3.74015 7.32817 4.09955C7.38627 4.45903 7.7251 4.70329 8.08406 4.64519C12.379 3.95154 18.9301 3.22756 25.7486 3.71765C27.2528 3.82567 28.4042 5.14047 28.3151 6.64863C28.1595 9.28165 27.7464 13.2215 26.662 17.0388C26.3209 18.2393 25.2118 19.0743 23.9725 19.0647C19.5235 19.0378 11.1166 18.743 4.79992 17.0713C3.79838 16.8058 3.0366 16.0109 2.81168 14.9963C2.47321 13.4745 2.02741 11.0796 1.82543 8.31254C1.72594 6.94 2.6693 5.68884 4.01943 5.40239C4.53193 5.29393 5.01869 5.19523 5.50764 5.10057C5.8651 5.03139 6.09872 4.68553 6.02955 4.32807C5.96038 3.9707 5.61425 3.7369 5.25705 3.80616C4.76054 3.90232 4.26641 4.00252 3.74608 4.11265C1.75477 4.53506 0.363678 6.3817 0.510636 8.40817C0.718416 11.2549 1.17687 13.7178 1.52475 15.282C1.85663 16.7795 2.98229 17.9534 4.46241 18.3457C4.59882 18.3819 4.73655 18.4171 4.87472 18.4519C4.06144 21.3145 2.58105 27.5558 2.4667 35.368C2.45484 36.227 2.87303 37.032 3.58497 37.5209C4.60594 38.2228 6.76302 39.4722 9.73786 39.9532C9.93676 39.9854 10.1347 40.001 10.3303 40.001C11.7952 40.001 13.1251 39.123 13.6863 37.7249C13.8596 37.2934 13.9474 36.8391 13.9474 36.3748C13.9474 35.4066 13.5704 34.496 12.8853 33.8097L12.2954 33.2203C12.3973 32.3619 12.7716 29.7599 13.8252 26.7679L16.0093 27.0122C16.1344 27.0263 16.2588 27.0331 16.3823 27.0331C17.7539 27.0331 18.9998 26.1856 19.4918 24.8757L21.1935 20.3356C22.2221 20.3646 23.1578 20.3782 23.9644 20.3831ZM29.6312 6.72642C29.675 5.98565 29.5147 5.27706 29.201 4.65468C30.4864 4.75576 31.4681 5.88229 31.3919 7.17327C31.2539 9.50596 30.8883 12.9946 29.93 16.3679C29.6398 17.3884 28.7066 18.0996 27.6537 18.1094C27.7661 17.8844 27.8596 17.6473 27.9302 17.399C29.0472 13.4672 29.4718 9.42501 29.6312 6.72642ZM11.1404 33.9302L11.9529 34.7419C12.3889 35.1786 12.629 35.7584 12.629 36.3748C12.629 36.67 12.5731 36.959 12.4627 37.2338C12.0579 38.2425 11.0242 38.8254 9.94827 38.6518C7.22789 38.2119 5.2618 37.0738 4.33171 36.4344C3.98365 36.1954 3.7793 35.8035 3.78502 35.3868C3.89805 27.6687 5.36815 21.5242 6.15972 18.7535C9.23265 19.4239 12.6253 19.8242 15.7683 20.0603C11.6277 25.8082 10.9764 33.0848 10.9494 33.4091C10.9332 33.6025 11.0031 33.7931 11.1404 33.9302ZM18.2573 24.4127C17.9337 25.2744 17.0696 25.8045 16.1559 25.7022L14.3074 25.4953C15.0391 23.6976 16.0224 21.8314 17.3392 20.1665C18.192 20.218 19.0173 20.258 19.803 20.2889L18.2573 24.4127Z" fill="black"/>
<path d="M4.88452 11.3203C4.88452 12.3044 5.68514 13.105 6.66928 13.105H23.5731C24.5571 13.105 25.3579 12.3044 25.3579 11.3203C25.3579 10.3361 24.5572 9.53552 23.5731 9.53552H6.66928C5.68514 9.53543 4.88452 10.3361 4.88452 11.3203ZM6.66928 10.8538H23.5731C23.8303 10.8538 24.0395 11.063 24.0395 11.3202C24.0395 11.5774 23.8303 11.7866 23.5731 11.7866H6.66928C6.41211 11.7866 6.20292 11.5774 6.20292 11.3202C6.20292 11.063 6.41211 10.8538 6.66928 10.8538Z" fill="black"/>
<path d="M39.4868 9.274L37.5104 9.40953C36.5262 9.47703 35.7551 10.3028 35.7551 11.2894V11.472C35.7551 12.4586 36.5261 13.2844 37.5104 13.3519L39.4868 13.4874C39.5294 13.4903 39.5721 13.4918 39.6145 13.4918C40.0895 13.4918 40.5527 13.3107 40.9017 12.9848C41.282 12.6298 41.5001 12.1279 41.5001 11.6077V11.1539C41.5001 10.6337 41.282 10.1317 40.9018 9.77675C40.5217 9.42157 40.0056 9.23823 39.4868 9.274ZM40.002 10.7403C40.1179 10.8484 40.1817 10.9954 40.1817 11.1539V11.6077C40.1817 11.7662 40.1179 11.9131 40.002 12.0213C39.8861 12.1295 39.7348 12.183 39.5772 12.1722L37.6008 12.0367C37.3052 12.0164 37.0736 11.7684 37.0736 11.4721V11.2895C37.0736 10.9932 37.3052 10.7452 37.6008 10.7249L39.5771 10.5894C39.5904 10.5885 39.6039 10.588 39.6171 10.588C39.7606 10.5879 39.896 10.6413 40.002 10.7403Z" fill="black"/>
<path d="M34.807 19.4981L36.4509 20.6037C36.7637 20.8142 37.1323 20.9242 37.5046 20.9242C37.6459 20.9242 37.7879 20.9083 37.9275 20.876C38.4343 20.7587 38.8742 20.433 39.1343 19.9824L39.3612 19.5894C39.6212 19.1389 39.6834 18.5952 39.5316 18.0975C39.3798 17.6 39.0247 17.1835 38.5575 16.9548L36.7781 16.0841C35.8919 15.6503 34.8114 15.98 34.3181 16.8343L34.2268 16.9925C33.7335 17.847 33.9885 18.9476 34.807 19.4981ZM35.3686 17.6517L35.4599 17.4936C35.564 17.3135 35.7548 17.211 35.9515 17.211C36.0349 17.211 36.1194 17.2295 36.1987 17.2684L37.9781 18.1391C38.1204 18.2087 38.2243 18.3306 38.2706 18.4823C38.3168 18.6339 38.2986 18.793 38.2194 18.9303L37.9926 19.3232C37.9133 19.4605 37.7846 19.5559 37.6301 19.5916C37.4755 19.6275 37.3182 19.5983 37.1867 19.5099L35.5428 18.4043C35.297 18.2388 35.2205 17.9083 35.3686 17.6517Z" fill="black"/>
<path d="M34.227 5.76897L34.3183 5.92709C34.6646 6.52696 35.3004 6.86807 35.9551 6.86807C36.233 6.86807 36.5143 6.80664 36.7783 6.67743L38.5577 5.80668C39.0249 5.57798 39.38 5.16154 39.5318 4.66397C39.6836 4.16641 39.6214 3.62261 39.3614 3.17216L39.1345 2.7791C38.8743 2.32865 38.4345 2.00292 37.9277 1.88558C37.4208 1.76815 36.8827 1.86747 36.4511 2.15778L34.8072 3.26339C33.9887 3.81387 33.7338 4.91447 34.227 5.76897C34.227 5.76897 34.227 5.76888 34.227 5.76897ZM35.543 4.35723L37.1869 3.25162C37.3184 3.1632 37.4757 3.1341 37.6304 3.16988C37.7848 3.20565 37.9135 3.30093 37.9928 3.43821L38.2196 3.83127C38.2988 3.96856 38.317 4.12765 38.2708 4.27927C38.2245 4.43088 38.1207 4.55279 37.9783 4.6224L36.1989 5.49325C35.9326 5.62333 35.6082 5.52445 35.4601 5.26789L35.3688 5.10986C35.2207 4.85321 35.2972 4.52255 35.543 4.35723Z" fill="black"/>
</g>
<defs>
<clipPath id="clip0">
<rect width="45" height="45" fill="white" transform="translate(0.5 0.5)"/>
</clipPath>
</defs>
</svg>
