<svg width="46" height="46" viewBox="0 0 46 46" fill="none" xmlns="http://www.w3.org/2000/svg">
<g clip-path="url(#clip0)">
<path d="M40.9738 37.7753V19.1476C40.9738 17.8497 40.3189 16.6394 39.2324 15.9295L35.0558 13.2002H29.1379L24.9613 15.9295C23.8748 16.6394 23.22 17.8497 23.22 19.1476V23.7031V44.8408H40.9739V37.7753H40.9738Z" fill="#FCEFDE"/>
<path d="M39.2322 15.9295L35.0557 13.2002H32.1553L36.3318 15.9295C37.4183 16.6394 38.0732 17.8497 38.0732 19.1476V37.7753V44.8408H40.9736V37.7753V19.1476C40.9736 17.8497 40.3187 16.6394 39.2322 15.9295Z" fill="#FCE4C6"/>
<path d="M23.2197 22.5605H40.9736V32.9316H23.2197V22.5605Z" fill="#A2E1F8"/>
<path d="M38.0732 22.5605H40.9736V32.9316H38.0732V22.5605Z" fill="#82D5F2"/>
<path d="M10.6923 8.30231H3.97876V2.53159C3.97876 1.77362 4.5932 1.15918 5.35117 1.15918H9.31996C10.0779 1.15918 10.6924 1.77362 10.6924 2.53159V8.30231H10.6923Z" fill="#EF75A7"/>
<path d="M9.32007 1.15918H5.80444C6.56241 1.15918 7.17685 1.77362 7.17685 2.53159V8.30231H10.6925V2.53159C10.6924 1.77362 10.0779 1.15918 9.32007 1.15918Z" fill="#EB5793"/>
<path d="M14.0205 11.6932C13.1458 10.9048 12.01 10.4684 10.8324 10.4684H3.6377C2.2688 10.4684 1.15918 11.578 1.15918 12.9469V42.6968C1.15918 43.8809 2.11912 44.8408 3.30327 44.8408H25.5113C26.6954 44.8408 27.6554 43.8809 27.6554 42.6968V42.3416C27.6553 30.6557 22.7003 19.5179 14.0205 11.6932ZM18.2766 25.3393C17.6248 25.3751 17.0117 25.0323 16.6987 24.4594C15.4266 22.1312 13.8061 19.9859 11.8747 18.1084C11.4275 17.6736 11.2574 17.0273 11.4304 16.4282L11.4394 16.397C11.8023 15.1408 13.3904 14.7547 14.2931 15.7008C16.3547 17.8612 18.1458 20.2423 19.6415 22.7877C20.2848 23.8824 19.5443 25.2697 18.2766 25.3393Z" fill="#FCE4C6"/>
<path d="M14.0203 11.6932C13.1456 10.9048 12.0098 10.4684 10.8323 10.4684H7.93188C9.10944 10.4684 10.2453 10.9048 11.1199 11.6932C19.7998 19.5178 24.7548 30.6557 24.7548 42.3416V42.6968C24.7548 43.8809 23.7948 44.8408 22.6107 44.8408H25.5111C26.6952 44.8408 27.6552 43.8809 27.6552 42.6968V42.3416C27.6552 30.6557 22.7001 19.5179 14.0203 11.6932Z" fill="#F8D9B4"/>
<path d="M2.68091 7.33551H11.9904V10.4684H2.68091V7.33551Z" fill="#E7387F"/>
<path d="M6.25877 14.2726C7.47456 14.2726 8.46017 15.2582 8.46017 16.4739V18.6C8.46017 19.0502 8.59824 19.4897 8.85576 19.859L14.4954 27.9471C14.907 28.5376 15.5813 28.8894 16.3012 28.8894H20.3599C21.315 28.8894 22.1621 29.5046 22.4546 30.4137C23.0533 32.2739 23.9973 35.5805 24.3486 38.878C24.4868 40.1757 23.4634 41.305 22.1584 41.305H6.25877C5.04298 41.305 4.05737 40.3194 4.05737 39.1037V16.4739C4.05737 15.2582 5.04298 14.2726 6.25877 14.2726Z" fill="#EF75A7"/>
<path d="M35.0135 13.2002H29.1802V8.83502C29.1802 7.99364 29.8623 7.31152 30.7037 7.31152H33.49C34.3314 7.31152 35.0135 7.99364 35.0135 8.83502V13.2002Z" fill="#A2E1F8"/>
<path d="M33.4898 7.31152H30.7035C30.6843 7.31152 30.6656 7.31372 30.6465 7.31442C31.4612 7.34466 32.1129 8.01289 32.1129 8.83502V13.2002H35.0133V8.83502C35.0133 7.99364 34.3313 7.31152 33.4898 7.31152Z" fill="#82D5F2"/>
<path d="M30.4909 44.8408H44.1614C44.5366 44.8408 44.8408 44.5366 44.8408 44.1614V43.1472C44.8408 42.772 44.5366 42.4678 44.1614 42.4678H30.4909C30.1157 42.4678 29.8115 42.772 29.8115 43.1472V44.1613C29.8115 44.5366 30.1157 44.8408 30.4909 44.8408Z" fill="#E7C33C"/>
<path d="M43.0389 42.4238C43.5335 41.9551 43.8406 41.2466 43.8406 40.5015C43.8406 39.0362 42.6527 37.8483 41.1873 37.8483C40.5464 37.8483 39.9585 38.0756 39.4999 38.4539C39.2636 37.5954 38.4793 36.9639 37.5457 36.9639C36.4483 36.9639 35.555 37.8352 35.5185 38.9236C35.0833 38.6629 34.5742 38.5127 34.03 38.5127C32.4282 38.5127 31.1296 39.8112 31.1296 41.413C31.1296 41.7686 31.1936 42.1091 31.3106 42.4238H43.0389Z" fill="#CBF4FF"/>
<path d="M16.1202 24.7755C17.5976 27.4797 21.7801 25.1266 20.21 22.4539C18.6804 19.8507 16.8501 17.4256 14.7701 15.2457C13.517 13.9324 11.2902 14.524 10.7973 16.2452C10.5559 17.0808 10.7927 17.9758 11.4153 18.5811C13.2843 20.398 14.8673 22.4821 16.1202 24.7755ZM12.0642 16.61C12.2814 15.8498 13.2546 15.5673 13.8164 16.1558C15.8264 18.2623 17.595 20.6059 19.0733 23.1217C19.7666 24.3018 17.9285 25.3363 17.2772 24.1434C15.9609 21.7341 14.2979 19.5446 12.3343 17.6357C12.0614 17.3706 11.9578 16.978 12.0642 16.61Z" fill="black"/>
<path d="M6.25877 13.6134C4.68148 13.6134 3.39819 14.8966 3.39819 16.4739V39.1037C3.39819 40.681 4.68148 41.9642 6.25877 41.9642H22.1584C23.8269 41.9642 25.1813 40.4702 25.0042 38.8081C24.6405 35.3947 23.6438 31.9571 23.0822 30.2117C22.7007 29.0265 21.6068 28.2302 20.3599 28.2302H16.3011C15.7972 28.2302 15.3243 27.9834 15.036 27.5701L9.39637 19.4819C9.21505 19.222 9.11934 18.917 9.11934 18.5999V16.4739C9.11943 14.8966 7.83623 13.6134 6.25877 13.6134ZM13.9547 28.3242C14.4893 29.0909 15.3665 29.5487 16.3012 29.5487H20.36C21.0322 29.5487 21.6218 29.9775 21.8272 30.6158C22.3734 32.3128 23.3421 35.652 23.6932 38.9479C23.7884 39.8415 23.0558 40.6459 22.1584 40.6459H6.25877C5.40834 40.6459 4.71655 39.9541 4.71655 39.1038V16.474C4.71655 14.4887 7.80107 14.4854 7.80107 16.474V18.6C7.80107 19.188 7.97879 19.7538 8.31514 20.2361L13.9547 28.3242Z" fill="black"/>
<path d="M44.8408 41.8086H44.2404C44.4094 41.4019 44.4999 40.9572 44.4999 40.5016C44.4999 38.8262 43.2493 37.4382 41.6328 37.22V30.8223C41.6328 29.9759 40.3145 29.9746 40.3145 30.8223V32.2725H27.1309C27.1147 32.2725 27.0988 32.2738 27.083 32.2749C26.337 29.2666 25.261 26.3533 23.8789 23.5893V23.2197H40.3145V27.1309C40.3145 27.9772 41.6328 27.9785 41.6328 27.1309V19.1476C41.6328 17.6217 40.8702 16.2124 39.5929 15.3776L35.6726 12.8158V8.83502C35.6726 7.63153 34.6934 6.65234 33.4899 6.65234H30.7035C29.5 6.65234 28.5208 7.63153 28.5208 8.83502V12.8158L24.6006 15.3776C23.3233 16.2124 22.5606 17.6216 22.5606 19.1476V21.1562C20.4071 17.4762 17.6867 14.1107 14.4619 11.2037C13.929 10.7233 13.3126 10.3597 12.6496 10.1238V7.33543C12.6496 6.97139 12.3546 6.67625 11.9905 6.67625H11.3516V2.53159C11.3516 1.41134 10.4403 0.5 9.32009 0.5H5.35121C4.23104 0.5 3.31971 1.41134 3.31971 2.53159V6.67634H2.68092C2.31679 6.67634 2.02174 6.97147 2.02174 7.33552V10.2585C1.11066 10.8081 0.5 11.8074 0.5 12.9469V17.1113C0.5 17.9577 1.81836 17.9589 1.81836 17.1113V12.9469C1.81836 11.9437 2.63451 11.1276 3.6377 11.1276H10.8323C11.8486 11.1276 12.8241 11.5023 13.5791 12.1829C22.1058 19.8694 26.996 30.8618 26.996 42.3416C27.0231 43.264 26.5692 44.1816 25.5111 44.1816H3.30327C2.48448 44.1816 1.81836 43.5155 1.81836 42.6968V20.8027C1.81836 19.9563 0.5 19.9551 0.5 20.8027V42.6968C0.5 44.2425 1.75754 45.5 3.30327 45.5H32.0527C32.8991 45.5 32.9004 44.1816 32.0527 44.1816H30.4707V43.127H44.1816V44.1816H35.9199C35.0735 44.1816 35.0723 45.5 35.9199 45.5H44.8408C45.205 45.5 45.5 45.2049 45.5 44.8408V42.4678C45.5 42.1037 45.205 41.8086 44.8408 41.8086ZM4.63807 2.53159C4.63807 2.13828 4.95799 1.81836 5.35121 1.81836H9.32C9.71331 1.81836 10.0331 2.13828 10.0331 2.53159V6.58678H4.63807V2.53159ZM3.6377 9.8092H3.3401V7.99461H11.3312V9.8092H10.8323H3.6377ZM43.1815 40.5016C43.1815 40.9651 43.0235 41.4211 42.7509 41.7646H31.8164C31.7982 41.6492 31.7891 41.5317 31.7891 41.4131C31.7891 40.1773 32.7944 39.1719 34.0303 39.1719C34.4361 39.1719 34.8336 39.2816 35.1799 39.4891C35.3803 39.6092 35.6291 39.6141 35.834 39.5026C36.039 39.3909 36.1696 39.1792 36.1775 38.9458C36.2024 38.2041 36.8035 37.6232 37.5458 37.6232C38.1592 37.6232 38.7015 38.0368 38.8646 38.629C38.9239 38.8445 39.0884 39.0152 39.3014 39.0826C39.5146 39.1499 39.7472 39.1046 39.9196 38.9625C40.2752 38.6692 40.7254 38.5076 41.1875 38.5076C42.287 38.5075 43.1815 39.4021 43.1815 40.5016ZM29.8391 8.83502C29.8391 8.35848 30.2268 7.9707 30.7034 7.9707H33.4898C33.9665 7.9707 34.3541 8.35848 34.3541 8.83502V12.541H29.8391V8.83502ZM25.3216 16.4812L29.3339 13.8594H34.8593L38.8716 16.4812C39.7751 17.0716 40.3145 18.0684 40.3145 19.1476V21.9014H23.8789V19.1476C23.8789 18.0684 24.4183 17.0716 25.3216 16.4812ZM29.8115 41.8086C29.4474 41.8086 29.1523 42.1037 29.1523 42.4678V44.1816H27.8872C28.1575 43.7507 28.3144 43.2419 28.3144 42.6968V42.3416C28.3144 39.3781 27.9987 36.4459 27.3877 33.5908H40.3145V37.3073C40.1314 37.3574 39.9527 37.4224 39.7809 37.5029C39.2918 36.7711 38.459 36.3048 37.5459 36.3048C36.407 36.3048 35.4376 37.0014 35.0451 38.001C34.7174 37.9036 34.3757 37.8535 34.0303 37.8535C32.0675 37.8535 30.4707 39.4503 30.4707 41.4131C30.4707 41.546 30.4789 41.6778 30.4933 41.8086H29.8115Z" fill="black"/>
</g>
<defs>
<clipPath id="clip0">
<rect width="45" height="45" fill="white" transform="translate(0.5 0.5)"/>
</clipPath>
</defs>
</svg>
