<svg width="50" height="50" viewBox="0 0 50 50" fill="none" xmlns="http://www.w3.org/2000/svg">
<path d="M40.5172 49.9999H4.3103V3.44824H28.4482L40.5172 15.5172V49.9999Z" fill="#FCF05A"/>
<path d="M45.6897 44.8276H9.48267V0H33.6207L45.6897 12.069V44.8276Z" fill="#FDBD40"/>
<path d="M33.6206 12.069H45.6896L33.6206 0V12.069Z" fill="#F49E21"/>
<path d="M16.3794 37.9309H14.6553C14.1792 37.9309 13.7932 37.5449 13.7932 37.0689C13.7932 36.5928 14.1792 36.2068 14.6553 36.2068H16.3794C16.8555 36.2068 17.2415 36.5928 17.2415 37.0689C17.2415 37.5449 16.8555 37.9309 16.3794 37.9309Z" fill="#E9686A"/>
<path d="M40.5175 37.9309H19.8279C19.3518 37.9309 18.9658 37.5449 18.9658 37.0689C18.9658 36.5928 19.3518 36.2068 19.8279 36.2068H40.5175C40.9936 36.2068 41.3796 36.5928 41.3796 37.0689C41.3796 37.5449 40.9936 37.9309 40.5175 37.9309Z" fill="#E9686A"/>
<path d="M16.3794 32.7586H14.6553C14.1792 32.7586 13.7932 32.3726 13.7932 31.8965C13.7932 31.4204 14.1792 31.0344 14.6553 31.0344H16.3794C16.8555 31.0344 17.2415 31.4204 17.2415 31.8965C17.2415 32.3726 16.8555 32.7586 16.3794 32.7586Z" fill="#E9686A"/>
<path d="M40.5175 32.7586H19.8279C19.3518 32.7586 18.9658 32.3726 18.9658 31.8965C18.9658 31.4204 19.3518 31.0344 19.8279 31.0344H40.5175C40.9936 31.0344 41.3796 31.4204 41.3796 31.8965C41.3796 32.3726 40.9936 32.7586 40.5175 32.7586Z" fill="#E9686A"/>
<path d="M16.3794 27.5862H14.6553C14.1792 27.5862 13.7932 27.2002 13.7932 26.7241C13.7932 26.2481 14.1792 25.8621 14.6553 25.8621H16.3794C16.8555 25.8621 17.2415 26.2481 17.2415 26.7241C17.2415 27.2002 16.8555 27.5862 16.3794 27.5862Z" fill="#E9686A"/>
<path d="M40.5175 27.5862H19.8279C19.3518 27.5862 18.9658 27.2002 18.9658 26.7241C18.9658 26.2481 19.3518 25.8621 19.8279 25.8621H40.5175C40.9936 25.8621 41.3796 26.2481 41.3796 26.7241C41.3796 27.2002 40.9936 27.5862 40.5175 27.5862Z" fill="#E9686A"/>
<path d="M16.3794 22.4138H14.6553C14.1792 22.4138 13.7932 22.0278 13.7932 21.5518C13.7932 21.0757 14.1792 20.6897 14.6553 20.6897H16.3794C16.8555 20.6897 17.2415 21.0757 17.2415 21.5518C17.2415 22.0278 16.8555 22.4138 16.3794 22.4138Z" fill="#E9686A"/>
<path d="M40.5175 22.4138H19.8279C19.3518 22.4138 18.9658 22.0278 18.9658 21.5518C18.9658 21.0757 19.3518 20.6897 19.8279 20.6897H40.5175C40.9936 20.6897 41.3796 21.0757 41.3796 21.5518C41.3796 22.0278 40.9936 22.4138 40.5175 22.4138Z" fill="#E9686A"/>
<path d="M16.3794 17.2412H14.6553C14.1792 17.2412 13.7932 16.8552 13.7932 16.3792C13.7932 15.9031 14.1792 15.5171 14.6553 15.5171H16.3794C16.8555 15.5171 17.2415 15.9031 17.2415 16.3792C17.2415 16.8552 16.8555 17.2412 16.3794 17.2412Z" fill="#E9686A"/>
<path d="M40.5175 17.2412H19.8279C19.3518 17.2412 18.9658 16.8552 18.9658 16.3792C18.9658 15.9031 19.3518 15.5171 19.8279 15.5171H40.5175C40.9936 15.5171 41.3796 15.9031 41.3796 16.3792C41.3796 16.8552 40.9936 17.2412 40.5175 17.2412Z" fill="#E9686A"/>
<path d="M14.6553 7.75854H19.8277V12.931H14.6553V7.75854Z" fill="#E9686A"/>
</svg>
