<svg width="30" height="30" viewBox="0 0 30 30" fill="none" xmlns="http://www.w3.org/2000/svg">
<g clip-path="url(#clip0)">
<path d="M24.2666 14.6452L24.6201 14.9987L24.2666 15.3523L13.5709 26.0505L13.5708 26.0505C12.7818 26.8395 12.7818 28.1193 13.5708 28.9083C14.3598 29.6972 15.6396 29.6972 16.4286 28.9083L28.908 16.4289C29.697 15.6399 29.697 14.3601 28.908 13.5711L16.4286 1.09175C15.6396 0.302749 14.3598 0.30275 13.5708 1.09175L13.2173 0.738198L13.5708 1.09176C12.7818 1.88071 12.7818 3.16044 13.5708 3.94944L24.2666 14.6452ZM9.20728 14.6321L9.55885 14.985L9.2073 15.3379L1.10088 23.4755L1.10065 23.4757C0.299818 24.2786 0.299829 25.5828 1.10064 26.3856C1.89794 27.1848 3.18675 27.1877 3.98759 26.3942L13.7374 15.5562L13.7463 15.5464L13.7556 15.537C14.233 15.0596 14.406 14.7391 14.4279 14.4946C14.447 14.281 14.3591 13.9872 13.9038 13.5307L13.9036 13.5305L3.99624 3.58568C3.9962 3.58564 3.99616 3.5856 3.99612 3.58556C3.19593 2.78353 1.90079 2.78355 1.10065 3.58566C0.299818 4.38854 0.299831 5.6927 1.10065 6.49552L1.10085 6.49573L9.20728 14.6321Z" fill="white" stroke="#32449C"/>
</g>
<defs>
<clipPath id="clip0">
<rect width="30" height="30" fill="white" transform="matrix(-1 0 0 1 30 0)"/>
</clipPath>
</defs>
</svg>
