<svg width="25" height="25" viewBox="0 0 25 25" fill="none" xmlns="http://www.w3.org/2000/svg">
<path d="M12.5001 0.0517578C5.59655 0.0517578 0 5.6483 0 12.5518C0 18.7435 4.50652 23.8712 10.4153 24.8642V15.1597H7.39993V11.6674H10.4153V9.09239C10.4153 6.10459 12.2402 4.47642 14.9059 4.47642C16.1826 4.47642 17.2798 4.57155 17.5983 4.61345V7.7365L15.7494 7.73739C14.3 7.73739 14.0206 8.426 14.0206 9.43684V11.6656H17.479L17.0279 15.1579H14.0206V24.9477C20.2052 24.195 25 18.9366 25 12.5483C25 5.6483 19.4035 0.0517578 12.5001 0.0517578Z" fill="#010002"/>
</svg>
