<svg width="46" height="46" viewBox="0 0 46 46" fill="none" xmlns="http://www.w3.org/2000/svg">
<path d="M10.047 13.7944C8.68947 12.4053 6.46285 12.3798 5.07374 13.7374C4.42264 14.3737 4.04366 15.2377 4.01659 16.1478C2.67116 16.924 2.20973 18.6439 2.98598 19.9894C3.76223 21.3348 5.48217 21.7962 6.82759 21.02C7.33921 20.7248 7.74482 20.2761 7.98714 19.7375C8.55254 19.6634 9.09139 19.4531 9.55748 19.1246C10.9857 19.7353 12.6386 19.0725 13.2492 17.6443C13.8599 16.2161 13.1971 14.5632 11.7689 13.9525C11.2258 13.7203 10.6233 13.665 10.047 13.7944Z" fill="#02A437"/>
<path d="M8.80949 20.2297C8.51972 20.2298 8.25956 20.0521 8.15427 19.7821L6.87616 16.507C6.73501 16.1452 6.91387 15.7375 7.27563 15.5963C7.63738 15.4552 8.04511 15.634 8.18626 15.9958L9.46463 19.2708C9.60587 19.6326 9.42719 20.0403 9.06543 20.1816C8.98396 20.2134 8.89721 20.2297 8.80976 20.2297H8.80949Z" fill="#027E2A"/>
<path d="M10.1204 19.7185C10.0989 19.7185 10.0772 19.7174 10.0553 19.7155C9.66859 19.68 9.38391 19.3376 9.41951 18.9509V18.9508C9.52911 17.7836 10.0119 16.6828 10.7963 15.8116C11.0544 15.5214 11.4987 15.4953 11.789 15.7534C12.0792 16.0114 12.1053 16.4558 11.8472 16.746C11.8447 16.7489 11.842 16.7518 11.8394 16.7547C11.2585 17.3999 10.9011 18.2151 10.8199 19.0794C10.7867 19.4411 10.4836 19.718 10.1204 19.7185Z" fill="#027E2A"/>
<path d="M7.49931 20.7412C7.32511 20.7414 7.15706 20.6767 7.02795 20.5596C6.38284 19.9788 5.56765 19.6212 4.70333 19.5401C4.31661 19.5046 4.03194 19.1623 4.06744 18.7755C4.10295 18.3888 4.44529 18.1041 4.83201 18.1396C5.99893 18.2493 7.09958 18.7319 7.97076 19.5161C8.25904 19.7763 8.2818 20.2209 8.02165 20.5092C7.88823 20.657 7.69847 20.7413 7.49931 20.7412Z" fill="#027E2A"/>
<path d="M17.0534 32.9141L11.8133 34.9593L6.76281 24.8353C5.81315 22.9313 6.58677 20.6178 8.49092 19.6682C8.59498 19.6162 8.70141 19.5691 8.80969 19.5267C10.7918 18.7532 13.0257 19.7329 13.7993 21.7151C13.8417 21.8237 13.879 21.934 13.9114 22.0459L17.0534 32.9141Z" fill="#FD9226"/>
<path d="M24.4062 2.60938H27.2188V22.2969H24.4062V2.60938Z" fill="#026A23"/>
<path d="M25.7343 16.8424C25.6675 16.4196 25.5561 16.0051 25.402 15.6058L22.2969 7.53125L20.1875 8.23438L23.1995 16.0654C23.5325 16.9312 23.7033 17.8509 23.7031 18.7786V21.2738L25.7343 16.8424Z" fill="#027226"/>
<path d="M28.8281 29.1304C29.5409 30.0809 29.5409 31.3878 28.8281 32.3384L28.8184 32.3516C28.2541 33.104 27.3684 33.5469 26.4278 33.5469H25.1973C24.2567 33.5469 23.3711 33.104 22.8067 32.3516L22.797 32.3384C22.0843 31.3878 22.0843 30.0809 22.797 29.1304L23.7032 27.9219V21.2738L25.7344 16.8424L25.8126 16.6719L29.3282 7.53125L31.4376 8.23438L28.4256 16.0654C28.0925 16.9312 27.9218 17.8509 27.922 18.7786V27.9219L28.8281 29.1304Z" fill="#027E2A"/>
<path d="M28.8281 32.3384L28.8184 32.3516C28.5229 32.7462 28.1338 33.0612 27.6864 33.2683L23.4826 33.0055C23.2239 32.825 22.9958 32.6042 22.8067 32.3516L22.797 32.3384C22.0843 31.3879 22.0843 30.0809 22.797 29.1304L22.8594 29.0469L23.7032 28.625L27.9219 18.7786V27.9219L28.8281 29.1304C29.5409 30.0809 29.5409 31.3879 28.8281 32.3384Z" fill="#027E2A"/>
<path d="M7.57949 26.7481C7.19119 26.7486 6.87593 26.4342 6.87549 26.0458C6.87514 25.7555 7.0532 25.4948 7.32373 25.3896L8.63374 24.8784C8.9955 24.7373 9.40323 24.916 9.54447 25.2778C9.68571 25.6396 9.50685 26.0473 9.145 26.1885L7.83543 26.6998C7.75387 26.7317 7.66703 26.7481 7.57949 26.7481Z" fill="#E78244"/>
<path d="M11.5096 25.2142C11.1213 25.2146 10.8061 24.9001 10.8057 24.5119C10.8053 24.2217 10.9833 23.9611 11.2537 23.8558L12.5638 23.3447C12.9256 23.2035 13.3333 23.3824 13.4745 23.7441C13.6156 24.1059 13.4368 24.5136 13.075 24.6548L11.7654 25.166C11.6839 25.1978 11.5971 25.2142 11.5096 25.2142Z" fill="#E78244"/>
<path d="M8.70986 29.3042C8.32156 29.3047 8.0063 28.9903 8.00586 28.6019C8.00551 28.3116 8.18357 28.0509 8.4541 27.9457L10.3112 27.2426C10.673 27.1015 11.0808 27.2803 11.2219 27.6421C11.3631 28.0038 11.1842 28.4116 10.8225 28.5528L8.96527 29.2559C8.88389 29.2877 8.79723 29.3041 8.70986 29.3042Z" fill="#E78244"/>
<path d="M13.1872 27.579C12.7989 27.5794 12.4838 27.2649 12.4834 26.8766C12.4831 26.5864 12.6611 26.3259 12.9315 26.2206L13.5865 25.965C13.9483 25.8238 14.356 26.0027 14.4971 26.3645C14.6383 26.7263 14.4594 27.134 14.0976 27.2752L13.4425 27.5308C13.3612 27.5626 13.2746 27.5789 13.1872 27.579Z" fill="#E78244"/>
<path d="M17.1113 18.0781H18.7801C19.9121 18.0781 20.9471 18.7179 21.4531 19.7305L22.0332 20.8906H20.3644C19.2326 20.8906 18.1978 20.2511 17.6917 19.2387L17.1113 18.0781Z" fill="#02A437"/>
<path d="M20.5068 24.9336C20.1185 24.9336 19.8037 24.6187 19.8037 24.2304C19.809 21.853 21.486 19.8073 23.8163 19.3359L23.8847 19.3222C24.2655 19.2461 24.6359 19.493 24.712 19.8739C24.7881 20.2547 24.5411 20.6251 24.1603 20.7012L24.092 20.7148C22.4182 21.0534 21.2137 22.5228 21.21 24.2304C21.21 24.6187 20.8951 24.9336 20.5068 24.9336Z" fill="#8F6934"/>
<path d="M28.8281 32.3384L28.8184 32.3516C28.5229 32.7462 28.1338 33.0612 27.6864 33.2683L23.4826 33.0055C23.2239 32.825 22.9958 32.6042 22.8067 32.3516L22.797 32.3384C22.0843 31.3879 22.0843 30.0809 22.797 29.1304L22.8594 29.0469L23.7032 28.625L27.9219 18.7786V27.9219L28.8281 29.1304C29.5409 30.0809 29.5409 31.3879 28.8281 32.3384Z" fill="#CBCBCB"/>
<path d="M17.9892 22.8242C18.6836 22.8242 19.332 23.1712 19.7171 23.7489C20.0079 24.1851 20.5972 24.303 21.0334 24.0121C21.1377 23.9426 21.2271 23.8532 21.2967 23.7489C21.6818 23.1712 22.3302 22.8242 23.0244 22.8242C23.6552 22.8242 24.2518 23.1109 24.6459 23.6035L24.8111 23.8099C26.0235 25.3254 26.1465 27.4414 25.1179 29.0872L23.7459 31.2824C23.4806 31.707 23.0152 31.9648 22.5146 31.9648C22.1294 31.9648 21.7601 31.8118 21.4878 31.5395C20.9461 30.9978 20.0677 30.9978 19.5259 31.5395C19.2536 31.8118 18.8843 31.9648 18.4992 31.9648C17.9986 31.9648 17.5332 31.707 17.2678 31.2824L15.8959 29.0872C14.8673 27.4414 14.9902 25.3254 16.2027 23.8099L16.3678 23.6035C16.7619 23.111 17.3585 22.8242 17.9892 22.8242Z" fill="#E82F3E"/>
<path d="M18.4825 28.625C18.296 28.6253 18.117 28.5511 17.9853 28.4191C17.3503 27.7856 17.1929 26.8165 17.5948 26.0147L17.8532 25.4978C18.0296 25.1518 18.4531 25.0144 18.799 25.1908C19.1412 25.3652 19.2801 25.7819 19.111 26.1267L18.8526 26.6436C18.722 26.904 18.7731 27.2187 18.9793 27.4244C19.254 27.6988 19.2543 28.1441 18.9798 28.4188C18.848 28.5508 18.669 28.625 18.4825 28.625Z" fill="#FF6268"/>
<path d="M2.60938 34.9531H43.3906V39.1719H2.60938V34.9531Z" fill="#EA9D2D"/>
<path d="M6.82812 37.7656H5.42188C5.03357 37.7656 4.71875 37.4508 4.71875 37.0625C4.71875 36.6742 5.03357 36.3594 5.42188 36.3594H6.82812C7.21643 36.3594 7.53125 36.6742 7.53125 37.0625C7.53125 37.4508 7.21643 37.7656 6.82812 37.7656Z" fill="#C38325"/>
<path d="M40.5781 37.7656H39.1719C38.7836 37.7656 38.4688 37.4508 38.4688 37.0625C38.4688 36.6742 38.7836 36.3594 39.1719 36.3594H40.5781C40.9664 36.3594 41.2812 36.6742 41.2812 37.0625C41.2812 37.4508 40.9664 37.7656 40.5781 37.7656Z" fill="#C38325"/>
<path d="M2.60938 39.1719H43.3906V43.3906H2.60938V39.1719Z" fill="#FBB540"/>
<path d="M6.82812 41.9844H5.42188C5.03357 41.9844 4.71875 41.6696 4.71875 41.2812C4.71875 40.8929 5.03357 40.5781 5.42188 40.5781H6.82812C7.21643 40.5781 7.53125 40.8929 7.53125 41.2812C7.53125 41.6696 7.21643 41.9844 6.82812 41.9844Z" fill="#C38325"/>
<path d="M23.7031 37.7656H22.2969C21.9086 37.7656 21.5938 37.4508 21.5938 37.0625C21.5938 36.6742 21.9086 36.3594 22.2969 36.3594H23.7031C24.0914 36.3594 24.4062 36.6742 24.4062 37.0625C24.4062 37.4508 24.0914 37.7656 23.7031 37.7656Z" fill="#C38325"/>
<path d="M23.7031 41.9844H22.2969C21.9086 41.9844 21.5938 41.6696 21.5938 41.2812C21.5938 40.8929 21.9086 40.5781 22.2969 40.5781H23.7031C24.0914 40.5781 24.4062 40.8929 24.4062 41.2812C24.4062 41.6696 24.0914 41.9844 23.7031 41.9844Z" fill="#C38325"/>
<path d="M40.5781 41.9844H39.1719C38.7836 41.9844 38.4688 41.6696 38.4688 41.2812C38.4688 40.8929 38.7836 40.5781 39.1719 40.5781H40.5781C40.9664 40.5781 41.2812 40.8929 41.2812 41.2812C41.2812 41.6696 40.9664 41.9844 40.5781 41.9844Z" fill="#C38325"/>
<path d="M31.4375 26.5156L32.0553 27.1334C33.0103 28.0884 33.5469 29.3838 33.5469 30.7344H35.6562V30.0312C35.6562 28.6806 35.1197 27.3853 34.1647 26.4303L33.5469 25.8125L31.4375 26.5156Z" fill="#027E2A"/>
<path d="M39.875 26.5156L39.2572 27.1334C38.3022 28.0884 37.7656 29.3838 37.7656 30.7344H35.6562V30.0312C35.6562 28.6806 36.1928 27.3853 37.1478 26.4303L37.7656 25.8125L39.875 26.5156Z" fill="#027E2A"/>
<path d="M43.3905 21.0664C43.3912 20.283 43.0427 19.54 42.4399 19.0395C42.777 17.6235 41.9023 16.2023 40.4863 15.8653C40.3431 15.8312 40.1974 15.8092 40.0506 15.7994C38.5987 13.2756 35.3756 12.4066 32.8518 13.8585C32.0448 14.3228 31.3751 14.9924 30.9109 15.7994C29.4585 15.8957 28.3591 17.151 28.4553 18.6034C28.4651 18.7504 28.487 18.8963 28.5211 19.0395C27.4075 19.9653 27.2494 21.6161 28.1672 22.7364C27.2456 24.4453 27.8838 26.5778 29.5928 27.4994C30.8188 28.1605 32.3194 28.0356 33.4192 27.1807C34.1673 27.083 34.8774 26.7933 35.4803 26.3399C36.0832 26.7934 36.7933 27.0831 37.5414 27.1809C39.0743 28.3726 41.283 28.0961 42.4747 26.5632C43.3298 25.4634 43.4548 23.9624 42.7934 22.7364C43.1802 22.2659 43.3913 21.6755 43.3905 21.0664Z" fill="#02A437"/>
<path d="M37.4698 18.0781C37.1718 18.0781 36.9061 17.8902 36.8069 17.6092C36.5475 16.8766 35.7434 16.493 35.0109 16.7524C34.6107 16.8941 34.2958 17.2089 34.1541 17.6092C34.0248 17.9753 33.623 18.1672 33.2569 18.0378C32.8907 17.9084 32.6988 17.5067 32.8282 17.1405C33.3464 15.6757 34.954 14.9084 36.4189 15.4267C37.2197 15.7099 37.8495 16.3398 38.1328 17.1405C38.2622 17.5066 38.0705 17.9084 37.7044 18.0379C37.6291 18.0645 37.5497 18.0781 37.4698 18.0781Z" fill="#027E2A"/>
<path d="M31.9648 23C30.7999 23 29.8555 22.0556 29.8555 20.8906C29.8555 19.7256 30.7999 18.7812 31.9648 18.7812C32.3531 18.7812 32.668 19.0961 32.668 19.4844C32.668 19.8727 32.3531 20.1875 31.9648 20.1875C31.5765 20.1875 31.2617 20.5023 31.2617 20.8906C31.2617 21.2789 31.5765 21.5938 31.9648 21.5938C32.3531 21.5938 32.668 21.9086 32.668 22.2969C32.668 22.6852 32.3531 23 31.9648 23Z" fill="#027E2A"/>
<path d="M2.60938 30.7344H43.3906V34.9531H2.60938V30.7344Z" fill="#FBB540"/>
<path d="M6.82812 33.5469H5.42188C5.03357 33.5469 4.71875 33.2321 4.71875 32.8438C4.71875 32.4554 5.03357 32.1406 5.42188 32.1406H6.82812C7.21643 32.1406 7.53125 32.4554 7.53125 32.8438C7.53125 33.2321 7.21643 33.5469 6.82812 33.5469Z" fill="#C38325"/>
<path d="M40.5781 33.5469H39.1719C38.7836 33.5469 38.4688 33.2321 38.4688 32.8438C38.4688 32.4554 38.7836 32.1406 39.1719 32.1406H40.5781C40.9664 32.1406 41.2812 32.4554 41.2812 32.8438C41.2812 33.2321 40.9664 33.5469 40.5781 33.5469Z" fill="#C38325"/>
<path d="M23.7031 33.5469H22.2969C21.9086 33.5469 21.5938 33.2321 21.5938 32.8438C21.5938 32.4554 21.9086 32.1406 22.2969 32.1406H23.7031C24.0914 32.1406 24.4062 32.4554 24.4062 32.8438C24.4062 33.2321 24.0914 33.5469 23.7031 33.5469Z" fill="#C38325"/>
<path d="M5.42188 37.7656H6.82812C7.21643 37.7656 7.53125 37.4508 7.53125 37.0625C7.53125 36.6742 7.21643 36.3594 6.82812 36.3594H5.42188C5.03357 36.3594 4.71875 36.6742 4.71875 37.0625C4.71875 37.4508 5.03357 37.7656 5.42188 37.7656Z" fill="black"/>
<path d="M39.1719 37.7656H40.5781C40.9664 37.7656 41.2812 37.4508 41.2812 37.0625C41.2812 36.6742 40.9664 36.3594 40.5781 36.3594H39.1719C38.7836 36.3594 38.4688 36.6742 38.4688 37.0625C38.4688 37.4508 38.7836 37.7656 39.1719 37.7656Z" fill="black"/>
<path d="M5.42188 41.9844H6.82812C7.21643 41.9844 7.53125 41.6696 7.53125 41.2812C7.53125 40.8929 7.21643 40.5781 6.82812 40.5781H5.42188C5.03357 40.5781 4.71875 40.8929 4.71875 41.2812C4.71875 41.6696 5.03357 41.9844 5.42188 41.9844Z" fill="black"/>
<path d="M22.2969 37.7656H23.7031C24.0914 37.7656 24.4062 37.4508 24.4062 37.0625C24.4062 36.6742 24.0914 36.3594 23.7031 36.3594H22.2969C21.9086 36.3594 21.5938 36.6742 21.5938 37.0625C21.5938 37.4508 21.9086 37.7656 22.2969 37.7656Z" fill="black"/>
<path d="M22.2969 41.9844H23.7031C24.0914 41.9844 24.4062 41.6696 24.4062 41.2812C24.4062 40.8929 24.0914 40.5781 23.7031 40.5781H22.2969C21.9086 40.5781 21.5938 40.8929 21.5938 41.2812C21.5938 41.6696 21.9086 41.9844 22.2969 41.9844Z" fill="black"/>
<path d="M39.1719 41.9844H40.5781C40.9664 41.9844 41.2812 41.6696 41.2812 41.2812C41.2812 40.8929 40.9664 40.5781 40.5781 40.5781H39.1719C38.7836 40.5781 38.4688 40.8929 38.4688 41.2812C38.4688 41.6696 38.7836 41.9844 39.1719 41.9844Z" fill="black"/>
<path d="M13.4744 23.7441C13.3332 23.3824 12.9256 23.2035 12.5637 23.3447L11.2537 23.8558C10.8919 23.997 10.713 24.4048 10.8542 24.7666C10.9953 25.1283 11.4032 25.3072 11.7649 25.166L13.0749 24.6548C13.4367 24.5136 13.6155 24.106 13.4744 23.7441Z" fill="black"/>
<path d="M43.1954 18.7876C43.3841 17.0465 42.1949 15.4556 40.4715 15.1438C38.658 12.3873 34.9533 11.6229 32.1968 13.4364C31.5174 13.8835 30.9364 14.4644 30.4894 15.1438C30.094 15.2155 29.7149 15.3587 29.3708 15.5663L32.0938 8.4868C32.2332 8.12434 32.0525 7.71749 31.69 7.5781C31.6801 7.57423 31.67 7.57063 31.6599 7.56729L29.5505 6.86416C29.1937 6.74507 28.8065 6.92779 28.6716 7.27883L27.9219 9.22877V2.60938C27.9219 2.22107 27.607 1.90625 27.2188 1.90625H24.4062C24.018 1.90625 23.7031 2.22107 23.7031 2.60938V9.22912L22.9532 7.27892C22.8182 6.92788 22.431 6.74507 22.0742 6.86416L19.9649 7.56729C19.5964 7.69007 19.3974 8.08821 19.5201 8.45665C19.5235 8.46676 19.5271 8.47687 19.531 8.4868L22.5431 16.3179C22.8458 17.103 23.0007 17.9373 23.0001 18.7788V19.5732C22.7659 19.663 22.539 19.7702 22.321 19.8941L22.0819 19.4157C21.4603 18.1617 20.1798 17.3703 18.7801 17.375H17.1113C16.723 17.375 16.4082 17.6898 16.4082 18.0781C16.4082 18.1873 16.4336 18.295 16.4825 18.3926L17.0625 19.5528C17.6841 20.807 18.9647 21.5985 20.3644 21.5938H20.5542C20.2931 22.0146 20.0964 22.472 19.9704 22.951C18.8935 21.8568 17.1335 21.8427 16.0393 22.9197C15.961 22.9967 15.8873 23.0784 15.8186 23.1643L15.6536 23.3707C15.4908 23.5745 15.3434 23.79 15.2126 24.0156L14.5867 21.8503C14.2907 20.832 13.6496 19.9484 12.7733 19.3512C14.0352 18.4034 14.5113 16.7312 13.9378 15.2609C13.3525 13.7833 11.8542 12.877 10.2739 13.0446C8.50209 11.5303 5.83812 11.739 4.32377 13.5109C3.78263 14.144 3.441 14.923 3.34177 15.7499C2.06604 16.6975 1.57771 18.3789 2.1476 19.8623C2.71748 21.3358 4.20318 22.2455 5.77467 22.0831C5.53481 23.1158 5.66173 24.1999 6.13379 25.1492L8.56897 30.0312H2.60938C2.22107 30.0312 1.90625 30.3461 1.90625 30.7344V43.3906C1.90625 43.7789 2.22107 44.0938 2.60938 44.0938H43.3906C43.7789 44.0938 44.0938 43.7789 44.0938 43.3906V30.7344C44.0938 30.3461 43.7789 30.0312 43.3906 30.0312H38.9873C39.0673 29.5358 39.232 29.0579 39.4743 28.6185C39.5488 28.6224 39.6237 28.625 39.699 28.625C42.0295 28.6244 43.9183 26.7346 43.9177 24.4041C43.9175 23.8565 43.8108 23.314 43.6034 22.8072C44.3856 21.5277 44.2186 19.8837 43.1952 18.7876H43.1954ZM35.5358 28.8554C35.4334 28.3589 35.2657 27.8781 35.0371 27.4256C35.1885 27.3533 35.3367 27.2741 35.4805 27.1873C35.6526 27.2907 35.8308 27.384 36.014 27.4664C35.796 27.9071 35.6353 28.374 35.5358 28.8554ZM33.6771 27.864C34.0534 28.5243 34.2509 29.2713 34.25 30.0312H33.5044C33.4289 29.4159 33.2547 28.8168 32.9885 28.2569C33.2299 28.1478 33.4605 28.0164 33.6771 27.864ZM31.5932 28.6123C31.8373 29.0534 32.0033 29.5335 32.0836 30.0312H29.9912C29.8897 29.5519 29.6846 29.1005 29.3905 28.7086L28.6405 27.7081C29.3849 28.3024 30.3092 28.6257 31.2617 28.625C31.3731 28.625 31.4836 28.6208 31.5932 28.6123ZM25.7141 29.46C26.6029 28.0346 26.7606 26.2715 26.1388 24.7111L27.1116 22.3139C27.18 22.4848 27.2623 22.6498 27.3577 22.8072C26.9929 23.698 26.9438 24.6869 27.2188 25.6095V27.9219C27.2188 28.074 27.2681 28.222 27.3594 28.3437L28.2656 29.5524C28.3754 29.699 28.4642 29.8602 28.5293 30.0313H25.3564L25.7141 29.46ZM29.7432 8.41077L30.5171 8.66873L27.7693 15.8129C27.467 16.5989 27.2872 17.4267 27.2363 18.2673L25.2307 23.209L25.1949 23.1643C24.9767 22.8915 24.7092 22.6621 24.4062 22.4883V21.4272L29.7432 8.41077ZM25.1094 12.8047V3.3125H26.5156V12.6134C26.5157 12.6802 26.5254 12.7467 26.5442 12.8108L25.8125 14.7137L25.1059 12.8768C25.1083 12.8529 25.1095 12.8288 25.1094 12.8047ZM21.1079 8.66873L21.8813 8.41077L24.7457 15.859C24.8568 16.1485 24.9426 16.4471 25.0021 16.7515L24.378 18.1138C24.3155 17.3258 24.1396 16.5508 23.8557 15.813L21.1079 8.66873ZM23 21.2737V22.1218C22.533 22.1257 22.0746 22.2472 21.6671 22.4753C21.982 21.9139 22.4424 21.4479 23 21.1263V21.2737ZM18.3205 18.9242L18.249 18.7812H18.7801C19.6465 18.7783 20.4392 19.2683 20.824 20.0445L20.8955 20.1875H20.3644C19.498 20.1905 18.7053 19.7005 18.3205 18.9242ZM16.7516 24.2492L16.9167 24.0428C17.3906 23.4506 18.255 23.3547 18.8472 23.8286C18.9574 23.9168 19.0533 24.0215 19.1316 24.1389C19.6377 24.8982 20.6637 25.1034 21.423 24.5971C21.6045 24.4761 21.7602 24.3204 21.8812 24.1389C22.2284 23.6189 22.8827 23.3986 23.4736 23.6028C23.478 23.6042 23.4824 23.6061 23.4868 23.6075C23.7266 23.6931 23.9377 23.8439 24.0965 24.0429L24.2616 24.2492C25.2859 25.5321 25.39 27.3217 24.5212 28.7147L23.6986 30.0312H17.315L16.4921 28.7146C15.6232 27.3217 15.7271 25.5321 16.7516 24.2492ZM14.507 26.3937C14.5054 26.389 14.504 26.3843 14.5023 26.3796L14.5073 26.3852C14.5071 26.3884 14.5071 26.3912 14.507 26.3941V26.3937ZM3.45761 19.3508C3.08398 18.3802 3.46912 17.2818 4.36719 16.7572C4.57874 16.6355 4.71198 16.4128 4.71928 16.1688C4.76463 14.6158 6.06049 13.3936 7.61343 13.439C8.34257 13.4603 9.03488 13.764 9.54447 14.286C9.71507 14.4605 9.96397 14.534 10.2021 14.4802C11.2181 14.258 12.2454 14.8051 12.6279 15.7722C13.0535 16.8526 12.5228 18.0735 11.4425 18.4991C11.2887 18.5597 11.1284 18.602 10.9648 18.625C10.9403 18.6209 10.9159 18.6162 10.8914 18.6122C11.0395 17.9209 11.3664 17.2805 11.8394 16.7549C12.1022 16.469 12.0835 16.0243 11.7976 15.7614C11.5117 15.4986 11.067 15.5173 10.8041 15.8032C10.8015 15.8061 10.7988 15.809 10.7962 15.8119C10.1334 16.5487 9.68378 17.452 9.49543 18.4249C9.38205 18.4351 9.2728 18.4728 9.17727 18.5348L8.18639 15.9958C8.04523 15.6341 7.63751 15.4552 7.27575 15.5964C6.91399 15.7375 6.73514 16.1452 6.87629 16.507L7.86717 19.046C7.75493 19.0652 7.64911 19.1115 7.55867 19.1806C6.76106 18.5926 5.81844 18.2327 4.83187 18.1396C4.44515 18.1041 4.10281 18.3888 4.0673 18.7755C4.0318 19.1623 4.31647 19.5046 4.70319 19.5401C5.40711 19.6063 6.08141 19.8561 6.65867 20.2643C6.64303 20.2837 6.62844 20.304 6.61314 20.3236C5.65725 20.983 4.34768 20.7426 3.68823 19.7867C3.59463 19.651 3.51737 19.5049 3.45787 19.3511L3.45761 19.3508ZM9.6343 29.0166L10.8226 28.5529C11.1849 28.4131 11.3651 28.0061 11.2253 27.6438C11.0855 27.2815 10.6784 27.1012 10.3162 27.2411C10.3146 27.2417 10.3129 27.2423 10.3113 27.243L9.00403 27.7532L8.37368 26.4893L9.1451 26.1883C9.50686 26.0472 9.68571 25.6394 9.54456 25.2776C9.40341 24.9158 8.99568 24.737 8.63384 24.8782L7.74333 25.2257L7.39177 24.5213C6.99239 23.7305 6.94871 22.8073 7.27145 21.9823C8.04277 20.1591 10.3024 19.7714 11.6045 20.2918C12.4005 20.68 12.9936 21.3889 13.2354 22.2409L14.3545 26.1119C14.3589 26.1273 14.3645 26.142 14.3699 26.1569C14.1751 25.9343 13.8617 25.8576 13.5861 25.9648L12.9311 26.2205C12.5693 26.3616 12.3905 26.7694 12.5316 27.1311C12.6728 27.4929 13.0805 27.6717 13.4422 27.5306L14.0973 27.275C14.2871 27.2009 14.4354 27.048 14.5034 26.8559C14.5355 27.7787 14.81 28.6769 15.2992 29.46L15.6562 30.0313H10.1405L9.6343 29.0166ZM42.6875 38.4688H3.3125V35.6562H42.6875V38.4688ZM42.6875 42.6875H3.3125V39.875H42.6875V42.6875ZM42.6875 34.25H3.3125V31.4375H42.6875V34.25ZM37.5667 30.0312H36.8212C36.8206 29.2924 37.0073 28.5656 37.3636 27.9184C37.5846 28.0663 37.8191 28.1928 38.0641 28.2963C37.8083 28.8449 37.6404 29.4304 37.5667 30.0312ZM42.2499 22.2906C42.0688 22.5114 42.0392 22.8198 42.1751 23.071C42.9121 24.4389 42.4007 26.1452 41.0329 26.8821C40.623 27.103 40.1648 27.2187 39.6992 27.2188C39.0738 27.2207 38.4659 27.0119 37.9737 26.6262C37.8748 26.5492 37.7572 26.5 37.6329 26.4837C37.0051 26.401 36.4092 26.1579 35.9028 25.7777C35.6526 25.5898 35.3083 25.5898 35.0582 25.7777C34.5517 26.1579 33.9558 26.401 33.328 26.4837C33.2038 26.5 33.0862 26.5492 32.9873 26.6262C32.495 27.0119 31.8871 27.2207 31.2617 27.2188C29.708 27.2183 28.4488 25.9584 28.4492 24.4047C28.4493 23.9391 28.5651 23.4809 28.7858 23.071C28.9217 22.8198 28.8921 22.5114 28.711 22.2906C28.1985 21.6654 28.1297 20.787 28.5388 20.0896L28.5405 20.0866C28.6538 19.8941 28.7996 19.7227 28.9712 19.5798C29.1762 19.4091 29.2669 19.1371 29.2054 18.8776C28.9578 17.8394 29.5987 16.7971 30.6368 16.5495C30.742 16.5244 30.8492 16.5082 30.9571 16.501C31.1915 16.4856 31.4027 16.3542 31.52 16.1507C32.7779 13.9632 35.571 13.2097 37.7585 14.4676C38.4584 14.87 39.0392 15.4508 39.4416 16.1507C39.5589 16.3542 39.7701 16.4856 40.0046 16.501C41.0693 16.5717 41.8753 17.4921 41.8047 18.557C41.7975 18.665 41.7813 18.7721 41.7562 18.8774C41.6947 19.137 41.7854 19.4091 41.9904 19.5798C42.4325 19.9469 42.6881 20.4918 42.6875 21.0664C42.6893 21.5131 42.5345 21.9463 42.2499 22.2906Z" fill="black"/>
<path d="M35.4805 15.2656C34.2888 15.2668 33.2268 16.0176 32.8282 17.1407C32.6988 17.5068 32.8907 17.9086 33.2569 18.038C33.623 18.1673 34.0247 17.9755 34.1541 17.6093C34.4135 16.8767 35.2176 16.4932 35.9501 16.7526C36.3502 16.8942 36.6652 17.2091 36.8068 17.6093C36.9362 17.9755 37.338 18.1673 37.7041 18.038C38.0703 17.9086 38.2621 17.5068 38.1327 17.1407C37.7342 16.0176 36.6722 15.2668 35.4805 15.2656Z" fill="black"/>
<path d="M31.9648 20.1875C32.3531 20.1875 32.668 19.8727 32.668 19.4844C32.668 19.0961 32.3531 18.7812 31.9648 18.7812C30.7999 18.7812 29.8555 19.7256 29.8555 20.8906C29.8555 22.0556 30.7999 23 31.9648 23C32.3531 23 32.668 22.6852 32.668 22.2969C32.668 21.9086 32.3531 21.5938 31.9648 21.5938C31.5765 21.5938 31.2617 21.2789 31.2617 20.8906C31.2617 20.5023 31.5765 20.1875 31.9648 20.1875Z" fill="black"/>
<path d="M6.82812 32.1406H5.42188C5.03357 32.1406 4.71875 32.4554 4.71875 32.8438C4.71875 33.2321 5.03357 33.5469 5.42188 33.5469H6.82812C7.21643 33.5469 7.53125 33.2321 7.53125 32.8438C7.53125 32.4554 7.21643 32.1406 6.82812 32.1406Z" fill="black"/>
<path d="M39.1719 33.5469H40.5781C40.9664 33.5469 41.2812 33.2321 41.2812 32.8438C41.2812 32.4554 40.9664 32.1406 40.5781 32.1406H39.1719C38.7836 32.1406 38.4688 32.4554 38.4688 32.8438C38.4688 33.2321 38.7836 33.5469 39.1719 33.5469Z" fill="black"/>
<path d="M23.7031 32.1406H22.2969C21.9086 32.1406 21.5938 32.4554 21.5938 32.8438C21.5938 33.2321 21.9086 33.5469 22.2969 33.5469H23.7031C24.0914 33.5469 24.4062 33.2321 24.4062 32.8438C24.4062 32.4554 24.0914 32.1406 23.7031 32.1406Z" fill="black"/>
<path d="M18.4825 28.625C18.8708 28.625 19.1856 28.3103 19.1856 27.9219C19.1856 27.7354 19.1115 27.5565 18.9797 27.4247C18.7735 27.2189 18.7224 26.9043 18.8529 26.6439L19.1113 26.127C19.2823 25.7783 19.1382 25.3571 18.7896 25.1861C18.4448 25.017 18.028 25.1559 17.8536 25.498L17.5948 26.0147C17.193 26.8164 17.3503 27.7853 17.9849 28.4188C18.1167 28.551 18.2958 28.6253 18.4825 28.625Z" fill="black"/>
</svg>
