<svg width="20" height="20" viewBox="0 0 20 20" fill="none" xmlns="http://www.w3.org/2000/svg">
<path fill-rule="evenodd" clip-rule="evenodd" d="M0 9.59677C0 4.29662 4.29662 0 9.59677 0C14.8969 0 19.1935 4.29662 19.1935 9.59677C19.1935 14.8969 14.8969 19.1935 9.59677 19.1935C4.29662 19.1935 0 14.8969 0 9.59677ZM7.30326 7.1499H5.12842V13.6844H7.30326V7.1499ZM7.44668 5.1287C7.43257 4.488 6.9744 4 6.2304 4C5.4864 4 5 4.488 5 5.1287C5 5.75613 5.47202 6.25818 6.20217 6.25818H6.21607C6.9744 6.25818 7.44668 5.75613 7.44668 5.1287ZM15.1468 9.93784C15.1468 7.93072 14.0739 6.99658 12.6427 6.99658C11.4881 6.99658 10.9711 7.63082 10.6824 8.07575V7.1502H8.50732C8.53599 7.76336 8.50732 13.6847 8.50732 13.6847H10.6824V10.0353C10.6824 9.83999 10.6965 9.64518 10.754 9.50535C10.9112 9.1152 11.2691 8.71125 11.87 8.71125C12.6573 8.71125 12.972 9.31045 12.972 10.1886V13.6845H15.1467L15.1468 9.93784Z" fill="#3EC9FE"/>
</svg>
