<svg width="50" height="50" viewBox="0 0 50 50" fill="none" xmlns="http://www.w3.org/2000/svg">
<path d="M45.2711 34.5215H4.72876V7.19927C4.72876 6.82075 5.0356 6.51392 5.41411 6.51392H44.5858C44.9643 6.51392 45.2711 6.82075 45.2711 7.19927V34.5215Z" fill="#DFEAEF"/>
<path d="M44.5858 6.51392H39.4883C39.8668 6.51392 40.1737 6.82075 40.1737 7.19927V30.4934C40.1737 30.9383 39.813 31.299 39.3681 31.299H4.72876V34.5216H45.2712V31.299V7.19937C45.2711 6.82085 44.9643 6.51392 44.5858 6.51392Z" fill="#BFCFD6"/>
<path d="M7.7561 29.3507V9.95737C7.7561 9.72759 7.94243 9.54126 8.17222 9.54126H41.8278C42.0576 9.54126 42.2439 9.72759 42.2439 9.95737V29.3507C42.2439 29.5805 42.0576 29.7668 41.8278 29.7668H8.17222C7.94233 29.7668 7.7561 29.5806 7.7561 29.3507Z" fill="#35E5E5"/>
<path d="M41.8277 9.54126H40.1737V27.4C40.1737 27.6298 39.9874 27.8162 39.7576 27.8162H7.7561V29.3507C7.7561 29.5805 7.94243 29.7668 8.17222 29.7668H41.8278C42.0576 29.7668 42.2439 29.5805 42.2439 29.3507V9.95727C42.2438 9.72749 42.0576 9.54126 41.8277 9.54126Z" fill="#28CEC9"/>
<path d="M48.316 43.4861H1.68398C1.1584 43.4861 0.732422 43.06 0.732422 42.5345V40.6765H49.2676V42.5345C49.2676 43.0601 48.8415 43.4861 48.316 43.4861Z" fill="#6F98A3"/>
<path d="M49.2676 40.6766H0.732422L4.72881 32.7939H45.2712L49.2676 40.6766Z" fill="#9EBECC"/>
<path d="M45.2712 32.7939H39.542L42.1683 37.974C42.4618 38.553 42.0411 39.2381 41.3919 39.2381H1.46162L0.732422 40.6766H49.2676L45.2712 32.7939Z" fill="#86AEBC"/>
<path d="M31.4256 40.6768L30.4696 37.2104C30.3923 36.9299 30.1371 36.7356 29.8462 36.7356H20.1541C19.8632 36.7356 19.608 36.9299 19.5307 37.2104L18.5747 40.6768H31.4256Z" fill="#DFEAEF"/>
<path d="M18.9711 39.238L18.5745 40.6765H31.4254L31.0288 39.238H18.9711Z" fill="#BFCFD6"/>
<path d="M49.9977 40.6313C49.9972 40.624 49.9973 40.6168 49.9966 40.6094C49.9939 40.5804 49.9897 40.552 49.9838 40.5242C49.9832 40.5214 49.9823 40.5187 49.9816 40.516C49.9759 40.4904 49.9688 40.4654 49.9604 40.441C49.9581 40.4344 49.9557 40.4281 49.9532 40.4216C49.945 40.3995 49.9357 40.3779 49.9255 40.3569C49.9237 40.3532 49.9226 40.3494 49.9207 40.3457L46.0035 32.6193V7.19937C46.0035 6.41753 45.3675 5.78149 44.5856 5.78149H5.41416C4.63232 5.78149 3.99629 6.41753 3.99629 7.19937V32.6191L0.0791992 40.3455C0.0773437 40.3492 0.0761719 40.353 0.0744141 40.3567C0.0641602 40.3777 0.0549805 40.3993 0.0466797 40.4213C0.0442383 40.4278 0.0417969 40.4342 0.0395508 40.4408C0.03125 40.4653 0.0240234 40.4904 0.0182617 40.516C0.0176758 40.5186 0.0167969 40.5212 0.0162109 40.5239C0.0102539 40.5518 0.00605469 40.5802 0.00341797 40.6092C0.00273437 40.6165 0.00273437 40.6238 0.00234375 40.631C0.00136719 40.6463 0 40.6613 0 40.6768V42.5348C0 43.4634 0.755371 44.2188 1.68398 44.2188H48.316C49.2446 44.2188 50 43.4634 50 42.5348V40.6768C50 40.6613 49.9986 40.6463 49.9977 40.6313ZM5.46123 7.24644H44.5388V32.0618H5.46123V7.24644ZM5.17861 33.5266H44.8213L48.075 39.9443H31.9832L31.1755 37.0157C31.011 36.4195 30.4644 36.0031 29.8459 36.0031H20.1539C19.5354 36.0031 18.9887 36.4195 18.8243 37.0156L18.0166 39.9443H1.9249L5.17861 33.5266ZM30.4637 39.9444H19.5363L20.2192 37.468H29.7808L30.4637 39.9444ZM48.5352 42.5347C48.5352 42.6555 48.4368 42.7539 48.316 42.7539H1.68398C1.56318 42.7539 1.46484 42.6555 1.46484 42.5347V41.4091H18.5745H31.4255H48.5352V42.5347Z" fill="black"/>
<path d="M42.2438 20.8745C41.8392 20.8745 41.5114 21.2023 41.5114 21.6069V29.0342H8.48853V21.6069C8.48853 21.2023 8.16069 20.8745 7.7561 20.8745C7.35151 20.8745 7.02368 21.2023 7.02368 21.6069V29.3505C7.02368 29.9838 7.53882 30.499 8.17222 30.499H41.8278C42.4611 30.499 42.9763 29.9839 42.9763 29.3505V21.6069C42.9762 21.2024 42.6484 20.8745 42.2438 20.8745Z" fill="black"/>
<path d="M41.8277 8.80884H8.17222C7.53892 8.80884 7.02368 9.32397 7.02368 9.95737V17.7009C7.02368 18.1055 7.35151 18.4334 7.7561 18.4334C8.16069 18.4334 8.48853 18.1055 8.48853 17.7009V10.2737H41.5114V17.7009C41.5114 18.1055 41.8392 18.4334 42.2438 18.4334C42.6484 18.4334 42.9762 18.1055 42.9762 17.7009V9.95737C42.9762 9.32397 42.4611 8.80884 41.8277 8.80884Z" fill="black"/>
</svg>
