<svg width="98" height="263" viewBox="0 0 98 263" fill="none" xmlns="http://www.w3.org/2000/svg">
<path d="M97.3237 3C-28.5481 3.94891 -27.6695 260.438 97.3237 259.5" stroke="#32449C" stroke-width="6"/>
<g clip-path="url(#clip0)">
<path d="M17.1518 61.2453L17.3063 61.7208L17.7818 61.5664L32.1697 56.8933L32.1698 56.8933C33.231 56.5485 34.3712 57.1294 34.716 58.1906C35.0608 59.2518 34.4798 60.3921 33.4186 60.7369L16.6339 66.1906C15.5727 66.5354 14.4324 65.9545 14.0876 64.8932L8.63394 48.1085C8.28913 47.0473 8.87012 45.907 9.93133 45.5622L9.77682 45.0867L9.93134 45.5622C10.9925 45.2174 12.1327 45.7984 12.4775 46.8596L17.1518 61.2453ZM23.9769 47.8214L24.1317 48.2949L24.6057 48.1419L35.5366 44.6134L35.5369 44.6133C36.6159 44.2643 37.7779 44.8563 38.1297 45.9343C38.4798 47.0076 37.8973 48.1572 36.8267 48.5105L22.7436 52.2774L22.7308 52.2808L22.7183 52.2848C22.0761 52.4935 21.712 52.5021 21.4843 52.4106C21.2852 52.3307 21.0634 52.119 20.8634 51.506L20.8633 51.5057L16.5002 38.1634C16.5002 38.1633 16.5002 38.1633 16.5002 38.1632C16.1488 37.0862 16.7368 35.9322 17.8148 35.5834C18.8937 35.2344 20.0557 35.8264 20.4075 36.9044L20.4076 36.9047L23.9769 47.8214Z" fill="white" stroke="#32449C"/>
</g>
<g clip-path="url(#clip1)">
<path d="M30.8075 224.88L31.3012 224.958L31.3795 224.464L33.7477 209.523L33.7478 209.523C33.9223 208.421 34.9576 207.669 36.0597 207.843C37.1618 208.018 37.914 209.053 37.7395 210.155L34.9786 227.586C34.8041 228.688 33.7688 229.441 32.6667 229.266L15.2354 226.505C14.1333 226.331 13.3811 225.295 13.5557 224.193L13.0618 224.115L13.5557 224.193C13.7302 223.091 14.7655 222.339 15.8676 222.514L30.8075 224.88ZM21.9452 212.704L22.4373 212.781L22.5162 212.289L24.3348 200.948L24.3349 200.948C24.5137 199.828 25.5688 199.061 26.689 199.237C27.8043 199.413 28.5641 200.454 28.3929 201.568L25.3556 215.826L25.3528 215.839L25.3507 215.852C25.2451 216.519 25.0875 216.847 24.9026 217.009C24.741 217.15 24.4516 217.251 23.8147 217.151L23.8144 217.151L9.94549 214.981C9.94544 214.981 9.94538 214.981 9.94533 214.981C8.82613 214.805 8.06488 213.758 8.24349 212.639C8.42232 211.519 9.47741 210.752 10.5976 210.928L10.5979 210.928L21.9452 212.704Z" fill="white" stroke="#32449C"/>
</g>
<defs>
<clipPath id="clip0">
<rect width="30" height="30" fill="white" transform="translate(1.5 59.7051) rotate(-63)"/>
</clipPath>
<clipPath id="clip1">
<rect width="30" height="30" fill="white" transform="translate(22.3291 238.126) rotate(-126)"/>
</clipPath>
</defs>
</svg>
