<svg width="99" height="242" viewBox="0 0 99 242" fill="none" xmlns="http://www.w3.org/2000/svg">
<path d="M0.5 3C126.372 3.94891 125.493 239.438 0.5 238.5" stroke="#32449C" stroke-width="6"/>
<g clip-path="url(#clip0)">
<path d="M82.6719 61.2453L82.5175 61.7208L82.042 61.5664L67.654 56.8933L67.654 56.8933C66.5928 56.5485 65.4525 57.1294 65.1077 58.1906C64.7629 59.2518 65.3439 60.3921 66.4051 60.7369L83.1898 66.1906C84.251 66.5354 85.3913 65.9545 85.7361 64.8932L91.1898 48.1085C91.5346 47.0473 90.9536 45.907 89.8924 45.5622L90.0469 45.0867L89.8924 45.5622C88.8312 45.2174 87.691 45.7984 87.3462 46.8596L82.6719 61.2453ZM75.8469 47.8214L75.6921 48.2949L75.218 48.1419L64.2871 44.6134L64.2868 44.6133C63.2078 44.2643 62.0458 44.8563 61.6941 45.9343C61.3439 47.0076 61.9264 48.1572 62.997 48.5105L77.0801 52.2774L77.0929 52.2808L77.1054 52.2848C77.7476 52.4935 78.1117 52.5021 78.3395 52.4106C78.5385 52.3307 78.7604 52.119 78.9604 51.506L78.9605 51.5057L83.3235 38.1634C83.3235 38.1633 83.3236 38.1633 83.3236 38.1632C83.6749 37.0862 83.0869 35.9322 82.009 35.5834C80.93 35.2344 79.768 35.8264 79.4163 36.9044L79.4162 36.9047L75.8469 47.8214Z" fill="white" stroke="#32449C"/>
</g>
<g clip-path="url(#clip1)">
<path d="M67.0163 206.88L66.5225 206.958L66.4442 206.464L64.076 191.523L64.076 191.523C63.9014 190.421 62.8661 189.669 61.764 189.843C60.662 190.018 59.9098 191.053 60.0843 192.155L62.8451 209.586C63.0196 210.688 64.055 211.441 65.1571 211.266L82.5883 208.505C83.6904 208.331 84.4426 207.295 84.2681 206.193L84.7619 206.115L84.2681 206.193C84.0935 205.091 83.0582 204.339 81.9561 204.514L67.0163 206.88ZM75.8785 194.704L75.3864 194.781L75.3075 194.289L73.4889 182.948L73.4888 182.948C73.31 181.828 72.2549 181.061 71.1347 181.237C70.0195 181.413 69.2596 182.454 69.4308 183.568L72.4682 197.826L72.4709 197.839L72.473 197.852C72.5786 198.519 72.7362 198.847 72.9212 199.009C73.0827 199.15 73.3721 199.251 74.009 199.151L74.0093 199.151L87.8782 196.981C87.8783 196.981 87.8783 196.981 87.8784 196.981C88.9976 196.805 89.7588 195.758 89.5802 194.639C89.4014 193.519 88.3463 192.752 87.2261 192.928L87.2258 192.928L75.8785 194.704Z" fill="white" stroke="#32449C"/>
</g>
<defs>
<clipPath id="clip0">
<rect width="30" height="30" fill="white" transform="matrix(-0.45399 -0.891006 -0.891006 0.45399 98.3237 59.7051)"/>
</clipPath>
<clipPath id="clip1">
<rect width="30" height="30" fill="white" transform="matrix(0.587785 -0.809017 -0.809017 -0.587785 75.4946 220.126)"/>
</clipPath>
</defs>
</svg>
