<svg width="46" height="46" viewBox="0 0 46 46" fill="none" xmlns="http://www.w3.org/2000/svg">
<g clip-path="url(#clip0)">
<path d="M40.5805 19.9602H31.422L28.4191 13.4534C26.918 10.2007 27.6373 6.35454 30.2125 3.86425L30.3297 3.75087C33.5963 0.591913 38.7795 0.591913 42.0462 3.75087C44.6782 6.29609 45.3655 10.2497 43.7472 13.5339L40.5805 19.9602Z" fill="#FFC8E9"/>
<path d="M37.5241 44.6183H34.4783C32.7955 44.6183 31.4314 43.2542 31.4314 41.5714V19.9602H40.5709V41.5715C40.5709 43.2542 39.2069 44.6183 37.5241 44.6183Z" fill="#B3BEFF"/>
<path d="M40.5711 19.96H31.4316V27.3058H40.5711V19.96Z" fill="white"/>
<path d="M11.3969 29.503H2.96045V24.7575C2.96045 24.2722 3.35385 23.8787 3.83927 23.8787H10.5181C11.0034 23.8787 11.3969 24.2721 11.3969 24.7575V29.503Z" fill="#D2D8FF"/>
<path d="M11.2214 44.6183H3.13645C2.1657 44.6183 1.37891 43.8315 1.37891 42.8608V30.3819C1.37891 29.8966 1.7723 29.5031 2.25772 29.5031H12.1002C12.5856 29.5031 12.979 29.8965 12.979 30.3819V42.8608C12.979 43.8314 12.1921 44.6183 11.2214 44.6183Z" fill="#5770FF"/>
<path d="M10.3425 23.8787H4.01514V16.2107C4.01514 14.8824 5.43202 14.0341 6.60281 14.6615L9.41495 16.1683C9.98597 16.4743 10.3425 17.0696 10.3425 17.7175V23.8787Z" fill="#FE80CC"/>
<path d="M23.0388 44.6183C25.1959 41.0595 26.3363 36.9777 26.3363 32.8163V22.9999H16.4939V32.8163C16.4939 36.9777 17.6344 41.0595 19.7914 44.6183H23.0388Z" fill="#FEE891"/>
<path d="M42.657 3.1191C40.9123 1.43196 38.6148 0.502869 36.1878 0.502869C33.7608 0.502869 31.4633 1.43205 29.7185 3.11919L29.6015 3.23248C26.7615 5.9788 25.9654 10.2343 27.621 13.8216L30.5528 20.1743V41.5714C30.5528 43.7361 32.3138 45.4971 34.4784 45.4971H37.5243C39.6888 45.4971 41.4498 43.7361 41.4498 41.5714V20.1837L44.5354 13.9222C46.3292 10.2819 45.5744 5.94039 42.657 3.1191ZM33.6434 20.8389C33.6447 20.8389 33.6459 20.8391 33.6472 20.8391C33.6486 20.8391 33.65 20.8389 33.6513 20.8389H38.6071C38.6085 20.8389 38.6099 20.8391 38.6112 20.8391C38.6125 20.8391 38.6138 20.8389 38.615 20.8389H39.6921V26.4272H32.3103V20.8389H33.6434ZM37.5242 43.7394H34.4783C33.2829 43.7394 32.3103 42.7668 32.3103 41.5714V28.1848H36.1788V33.849C36.1788 34.3342 36.5722 34.7278 37.0576 34.7278C37.543 34.7278 37.9364 34.3343 37.9364 33.849V28.1848H39.6921V41.5714C39.6922 42.7668 38.7197 43.7394 37.5242 43.7394ZM42.9587 13.1454L40.0336 19.0812H39.6476L40.3558 14.8317C40.4356 14.3531 40.1122 13.9002 39.6335 13.8204C39.1548 13.7408 38.7019 14.064 38.6221 14.5428L37.8657 19.0812H36.88V14.6872C36.88 14.202 36.4866 13.8084 36.0012 13.8084C35.5158 13.8084 35.1224 14.2019 35.1224 14.6872V19.0812H34.3926L33.6362 14.5428C33.5565 14.0642 33.1036 13.7408 32.6248 13.8204C32.1461 13.9002 31.8226 14.353 31.9024 14.8318L32.6108 19.0812H31.9839L29.2167 13.0851C27.8739 10.1753 28.5194 6.72358 30.8233 4.49582L30.9404 4.38253C33.8829 1.53734 38.4927 1.53734 41.4351 4.38253C43.8016 6.67102 44.4139 10.1925 42.9587 13.1454Z" fill="black"/>
<path d="M12.2758 28.6332V24.7576C12.2758 24.0385 11.8413 23.4197 11.2213 23.1478V17.7177C11.2213 16.7441 10.6883 15.8538 9.8301 15.3939L7.01796 13.8871C6.19319 13.4453 5.22156 13.4681 4.4186 13.949C3.61572 14.4295 3.13645 15.275 3.13645 16.2108V23.1477C2.51647 23.4196 2.08194 24.0384 2.08194 24.7576V28.6331C1.19495 28.7216 0.5 29.4719 0.5 30.3818V42.8607C0.5 44.3144 1.68265 45.4971 3.13636 45.4971H11.2212C12.6749 45.4971 13.8576 44.3144 13.8576 42.8607V30.3818C13.8577 29.472 13.1627 28.7217 12.2758 28.6332ZM3.8394 24.7576H4.01518H10.3425H10.5183V28.6243H3.83949V24.7576H3.8394ZM4.894 16.2108C4.894 15.7613 5.19291 15.5338 5.32132 15.4568C5.44981 15.3799 5.79153 15.224 6.18774 15.4362L8.99989 16.943C9.28597 17.0963 9.4636 17.3931 9.4636 17.7176V22.9999H4.894V16.2108ZM12.1 42.8608C12.1 43.3453 11.7059 43.7396 11.2212 43.7396H9.63938V37.0608C9.63938 36.5756 9.24598 36.182 8.76056 36.182C8.27514 36.182 7.88174 36.5755 7.88174 37.0608V43.7396H3.13636C2.65182 43.7396 2.25755 43.3454 2.25755 42.8608V30.3819H12.1V42.8608Z" fill="black"/>
<path d="M8.76065 32.8425C8.5295 32.8425 8.30283 32.9364 8.13935 33.1C7.97588 33.2635 7.88184 33.4901 7.88184 33.7213C7.88184 33.9524 7.97588 34.1791 8.13935 34.3425C8.30283 34.506 8.5295 34.6001 8.76065 34.6001C8.99268 34.6001 9.21847 34.5061 9.38195 34.3425C9.54543 34.1791 9.63947 33.9524 9.63947 33.7213C9.63947 33.4901 9.54543 33.2635 9.38195 33.1C9.21847 32.9365 8.99268 32.8425 8.76065 32.8425Z" fill="black"/>
<path d="M26.3365 22.1212H22.294V13.509H23.789C24.2744 13.509 24.6679 13.1155 24.6679 12.6302C24.6679 12.1449 24.2745 11.7514 23.789 11.7514H22.294V10.6969H23.789C24.2744 10.6969 24.6679 10.3034 24.6679 9.81805C24.6679 9.33272 24.2745 8.93924 23.789 8.93924H22.294V7.88473H23.789C24.2744 7.88473 24.6679 7.49124 24.6679 7.00591C24.6679 6.52058 24.2745 6.12709 23.789 6.12709H22.294V5.07258H23.789C24.2744 5.07258 24.6679 4.6791 24.6679 4.19377C24.6679 3.70844 24.2745 3.31495 23.789 3.31495H22.294V2.26044H23.789C24.2744 2.26044 24.6679 1.86696 24.6679 1.38162C24.6679 0.896293 24.2745 0.502808 23.789 0.502808H19.0416C18.5562 0.502808 18.1627 0.896293 18.1627 1.38162C18.1627 1.86696 18.5561 2.26044 19.0416 2.26044H20.5365V3.31495H19.0415C18.5561 3.31495 18.1626 3.70844 18.1626 4.19377C18.1626 4.6791 18.556 5.07258 19.0415 5.07258H20.5365V6.12709H19.0415C18.5561 6.12709 18.1626 6.52058 18.1626 7.00591C18.1626 7.49124 18.556 7.88473 19.0415 7.88473H20.5365V8.93924H19.0415C18.5561 8.93924 18.1626 9.33272 18.1626 9.81805C18.1626 10.3034 18.556 10.6969 19.0415 10.6969H20.5365V11.7514H19.0415C18.5561 11.7514 18.1626 12.1449 18.1626 12.6302C18.1626 13.1155 18.556 13.509 19.0415 13.509H20.5365V22.1212H16.4941C16.0087 22.1212 15.6152 22.5147 15.6152 23V32.8164C15.6152 37.139 16.7995 41.3775 19.04 45.0738C19.1993 45.3366 19.4842 45.497 19.7915 45.497H23.039C23.3463 45.497 23.6313 45.3365 23.7905 45.0738C26.031 41.3774 27.2153 37.1388 27.2153 32.8164V23C27.2152 22.5146 26.8218 22.1212 26.3365 22.1212ZM25.4576 32.8163C25.4576 36.6534 24.4493 40.4194 22.5375 43.7395H20.2928C18.3811 40.4193 17.3727 36.6534 17.3727 32.8163V27.7454H22.6684C23.1537 27.7454 23.5472 27.3519 23.5472 26.8666C23.5472 26.3813 23.1538 25.9878 22.6684 25.9878H17.3727V23.8787H25.4576V32.8163H25.4576Z" fill="black"/>
<path d="M37.0575 36.0456C36.8264 36.0456 36.5997 36.1395 36.4362 36.3031C36.2728 36.4666 36.1787 36.6932 36.1787 36.9244C36.1787 37.1556 36.2728 37.3822 36.4362 37.5456C36.5997 37.71 36.8264 37.8032 37.0575 37.8032C37.2887 37.8032 37.5154 37.71 37.6788 37.5456C37.8423 37.3822 37.9363 37.1563 37.9363 36.9244C37.9363 36.6932 37.8423 36.4666 37.6788 36.3031C37.5154 36.1396 37.2887 36.0456 37.0575 36.0456Z" fill="black"/>
</g>
<defs>
<clipPath id="clip0">
<rect width="45" height="45" fill="white" transform="translate(0.5 0.5)"/>
</clipPath>
</defs>
</svg>
