<svg width="45" height="51" viewBox="0 0 45 51" fill="none" xmlns="http://www.w3.org/2000/svg">
<path d="M33.083 8.11982C33.083 10.5322 32.6 12.843 31.4665 14.9863C31.2552 15.387 31.2058 15.6176 31.5406 16.01C32.2212 16.8059 32.2953 17.8048 32.1581 18.8093C32.0401 19.6601 31.7492 20.4422 31.0933 21.0378C30.9561 21.1613 30.8051 21.2848 30.6404 21.3616C30.4346 21.4604 30.3166 21.5949 30.2343 21.8089C29.5235 23.634 28.5849 25.3273 27.3197 26.8285C27.2566 26.9053 27.2182 27.0261 27.2182 27.1249C27.2099 27.7451 27.2099 28.3653 27.2209 28.9856C27.2237 29.0761 27.284 29.2024 27.3581 29.2435C27.7341 29.4549 28.1211 29.647 28.5053 29.8391C30.2041 30.6953 31.9001 31.5488 33.5989 32.4051C36.0716 33.6483 38.5416 34.897 41.0171 36.132C41.3629 36.3049 41.5742 36.5409 41.6592 36.9224C42.0874 38.8545 42.5292 40.781 42.9656 42.7104C43.4239 44.7385 43.8877 46.7666 44.3405 48.7947C44.3844 48.9951 44.4064 49.2091 44.3927 49.4122C44.368 49.7662 44.0579 50.027 43.7066 50.0297C43.1138 50.0324 42.521 50.0379 41.9282 50.0379C31.2909 50.0379 20.6508 50.0407 10.0135 50.0407C8.31468 50.0407 6.61589 50.0407 4.91435 50.0407C3.86873 50.0407 2.82311 50.0434 1.77749 50.0379C1.15726 50.0352 0.825184 49.5769 0.967893 48.9813C1.23136 47.8836 1.47286 46.7803 1.72261 45.6798C2.07663 44.132 2.43066 42.5869 2.78195 41.039C3.08932 39.6805 3.40218 38.3248 3.69309 36.9636C3.77817 36.5601 3.98949 36.3131 4.35449 36.132C6.28656 35.1715 8.21039 34.1999 10.1342 33.2284C12.1816 32.1965 14.2261 31.1619 16.2707 30.1272C16.8223 29.8473 17.3767 29.5674 17.9338 29.2957C18.0903 29.2188 18.1506 29.1228 18.1479 28.9444C18.1369 28.3324 18.1506 27.7204 18.1397 27.1084C18.1369 27.0014 18.0903 26.8751 18.0217 26.7928C16.7098 25.2395 15.741 23.4885 15.0275 21.5894C14.9644 21.4192 14.8683 21.3122 14.7092 21.2244C13.938 20.8017 13.5181 20.0992 13.2793 19.2896C12.961 18.2138 12.9445 17.1434 13.4934 16.1225C13.573 15.9743 13.6635 15.8179 13.787 15.7109C13.9599 15.5627 13.9297 15.4337 13.8639 15.2471C13.444 14.056 13.0021 12.8704 12.6399 11.6601C12.2666 10.4169 12.1075 9.13525 12.1898 7.83166C12.2502 6.90954 12.4889 6.04505 13.0653 5.29583C13.4714 4.7689 13.9929 4.38194 14.6213 4.19532C15.0824 4.0581 15.4254 3.80012 15.7657 3.49C17.2011 2.18641 18.8093 1.15726 20.6535 0.526041C21.4083 0.268067 22.1849 0.125357 22.9808 0.0457695C25.6264 -0.220438 27.8659 0.690706 29.8501 2.35931C31.0027 3.32808 31.9687 4.46701 32.7756 5.73219C32.9814 6.05603 33.0253 6.50062 33.0747 6.89856C33.1214 7.30199 33.083 7.71365 33.083 8.11982ZM14.8025 17.0639C14.4567 17.7856 14.679 19.0975 15.2498 19.6546C15.3651 19.7671 15.527 19.8577 15.6807 19.8961C16.0018 19.9784 16.1939 20.165 16.2982 20.4724C16.8663 22.1273 17.6182 23.6889 18.6693 25.094C19.3554 26.0106 20.1294 26.8394 21.1558 27.3856C22.0203 27.8466 22.9067 27.9372 23.8288 27.553C24.8058 27.1468 25.5551 26.4497 26.2219 25.6593C27.4789 24.1664 28.3434 22.4511 28.9883 20.6206C29.1091 20.2803 29.3314 20.1047 29.6799 20.0223C29.8528 19.9812 30.0586 19.8714 30.1519 19.7314C30.6459 18.9795 30.7502 18.1589 30.4895 17.2971C30.4483 17.1599 30.3468 17.0419 30.27 16.9074C29.6305 17.4618 28.8511 17.127 28.8209 16.3366C28.8182 16.2954 28.8099 16.2515 28.8017 16.2103C28.6343 15.1208 28.4614 14.0285 28.2995 12.939C28.272 12.7634 28.2144 12.7195 28.0333 12.7496C26.4744 13.0186 24.9074 13.1558 23.3211 13.0405C21.5976 12.9171 19.9263 12.5795 18.3318 11.8934C17.9915 11.7479 17.6594 11.5915 17.2971 11.4268C17.2011 11.7891 17.1105 12.1349 17.0227 12.4779C16.6796 13.809 16.3421 15.1428 15.9963 16.4738C15.8892 16.891 15.6121 17.1352 15.2333 17.1352C15.0989 17.138 14.9561 17.0913 14.8025 17.0639ZM14.9699 13.8035C14.9946 13.798 15.022 13.7953 15.0467 13.7898C15.0632 13.7623 15.0851 13.7376 15.0934 13.7074C15.2937 12.9253 15.4941 12.1459 15.6944 11.3637C15.8261 10.856 15.9414 10.3401 16.1033 9.84057C16.2213 9.47831 16.5452 9.33834 16.9019 9.47282C17.234 9.59906 17.5578 9.75275 17.8735 9.91467C19.7067 10.8505 21.647 11.4021 23.6998 11.5064C25.3108 11.5888 26.9081 11.4186 28.4751 11.0454C29.1832 10.878 29.518 10.8862 29.732 11.8605C29.743 11.9099 29.7513 11.962 29.7567 12.0114C29.8418 12.5987 29.9214 13.1887 30.0092 13.7761C30.0257 13.8913 30.0669 14.0038 30.1108 14.1767C30.1712 14.0752 30.1959 14.0395 30.2123 14.0038C31.2826 11.8495 31.6586 9.56613 31.4857 7.18123C31.4638 6.87386 31.4555 6.56649 31.2525 6.28656C30.4072 5.12842 29.4796 4.04986 28.3297 3.18537C27.1907 2.32912 25.931 1.75005 24.4957 1.59911C23.1372 1.4564 21.8419 1.71711 20.5932 2.23581C18.9548 2.91368 17.5441 3.93185 16.2844 5.16684C16.0868 5.36169 15.881 5.4797 15.6121 5.53459C14.8601 5.68828 14.2865 6.08073 13.9874 6.81623C13.6388 7.67248 13.6361 8.57265 13.7953 9.45086C13.9956 10.5569 14.303 11.6464 14.5829 12.7387C14.6845 13.1037 14.8436 13.4495 14.9699 13.8035ZM32.4655 39.7985C32.8826 40.331 33.2476 40.8332 33.6483 41.3052C33.9749 41.6894 33.9914 42.0627 33.7746 42.5018C32.9677 44.1457 32.1746 45.8006 31.3787 47.45C31.2223 47.7738 31.0713 48.1004 30.9012 48.4626C34.8339 48.4626 38.7172 48.4626 42.6225 48.4626C42.6116 48.3638 42.6088 48.2897 42.5924 48.2184C42.4853 47.7299 42.3755 47.2414 42.263 46.7529C41.5961 43.8136 40.921 40.8771 40.2651 37.9351C40.1937 37.614 40.0483 37.4274 39.7546 37.2819C37.5838 36.1979 35.4185 35.0974 33.2531 34.0023C33.1763 33.9639 33.0939 33.9337 32.9458 33.8706C33.0089 34.0188 33.0391 34.0929 33.072 34.167C33.6456 35.38 34.2192 36.5903 34.79 37.8034C35.0123 38.2781 34.8586 38.7008 34.3866 38.9258C34.0957 39.0658 33.7993 39.192 33.5056 39.3265C33.1708 39.4747 32.8332 39.6311 32.4655 39.7985ZM12.4121 33.8679C12.2996 33.909 12.2447 33.9228 12.1953 33.9475C9.93114 35.0946 7.66974 36.2418 5.4056 37.3835C5.24094 37.4658 5.16684 37.5783 5.12842 37.7457C4.39566 40.9814 3.66016 44.2198 2.9274 47.4554C2.8533 47.782 2.78469 48.1114 2.70785 48.4709C6.63235 48.4709 10.5212 48.4709 14.4539 48.4709C14.2014 47.9412 13.9736 47.4637 13.7431 46.9834C12.9994 45.4411 12.2556 43.896 11.5119 42.3536C11.3527 42.0243 11.372 41.7169 11.608 41.426C11.7946 41.1954 11.9785 40.9622 12.1596 40.7289C12.3929 40.4325 12.6234 40.1334 12.8649 39.8178C12.7881 39.7711 12.7442 39.7354 12.692 39.7107C12.1212 39.45 11.5476 39.1975 10.9768 38.9341C10.4828 38.7063 10.3263 38.2699 10.5569 37.7732C10.9575 36.9224 11.3637 36.0716 11.7699 35.2236C11.9785 34.79 12.1816 34.3536 12.4121 33.8679ZM33.0034 37.8116C32.9979 37.7485 33.0006 37.7293 32.9952 37.7155C32.224 36.0716 31.45 34.4305 30.6761 32.7893C30.6542 32.7454 30.6212 32.696 30.5801 32.6741C30.1712 32.46 29.7567 32.2487 29.3012 32.0154C28.4065 37.5207 27.5173 42.9793 26.6309 48.438C26.6967 48.4599 26.7269 48.4791 26.7571 48.4791C27.5036 48.4819 28.2528 48.4873 28.9993 48.4764C29.0706 48.4764 29.1694 48.3776 29.2079 48.3007C29.4631 47.793 29.7046 47.2798 29.9516 46.7666C30.6569 45.2983 31.354 43.8273 32.0785 42.3673C32.2048 42.1121 32.1554 41.9639 31.9962 41.769C31.5296 41.1982 31.0713 40.6164 30.6212 40.0318C30.2535 39.5543 30.3962 39.0054 30.9423 38.7474C31.0796 38.6816 31.2195 38.6212 31.3595 38.5581C31.9111 38.3083 32.4572 38.0613 33.0034 37.8116ZM16.0484 32.0181C15.6368 32.224 15.269 32.3941 14.915 32.589C14.8052 32.6494 14.7037 32.7591 14.646 32.8689C14.4759 33.19 14.3332 33.5276 14.1767 33.8542C13.5922 35.0891 13.0076 36.3214 12.4148 37.5536C12.327 37.7347 12.3297 37.8308 12.5438 37.9104C12.9006 38.0449 13.2436 38.2178 13.5894 38.3742C13.8666 38.5004 14.1465 38.6239 14.4237 38.7529C14.926 38.9889 15.0796 39.5461 14.7476 39.9852C14.2673 40.6136 13.7761 41.2311 13.2821 41.8431C13.1586 41.9941 13.1311 42.1203 13.2299 42.2987C13.4056 42.6198 13.5538 42.9519 13.7129 43.2812C14.5198 44.9471 15.3239 46.6102 16.1253 48.2788C16.1911 48.416 16.268 48.4873 16.4326 48.4846C17.1215 48.4764 17.8076 48.4819 18.4964 48.4791C18.5596 48.4791 18.6254 48.4626 18.716 48.4489C17.8268 42.9766 16.9431 37.5207 16.0484 32.0181ZM20.7304 35.9866C21.1448 36.4339 21.5208 36.8483 21.9077 37.2517C22.1712 37.5262 22.2398 37.8335 22.1163 38.1876C22.0861 38.2754 22.045 38.3605 22.0148 38.4483C21.2628 40.4682 20.5081 42.4881 19.7644 44.5107C19.7177 44.6369 19.7204 44.7961 19.7397 44.9333C19.9153 46.0476 20.1047 47.1618 20.2776 48.2788C20.3023 48.4434 20.3654 48.4873 20.5218 48.4873C21.9407 48.4819 23.3595 48.4791 24.7784 48.4873C24.987 48.4873 25.0501 48.4105 25.0775 48.2129C25.1901 47.4417 25.3163 46.6705 25.4535 45.9021C25.5798 45.1995 25.6374 44.5409 25.3465 43.8246C24.6027 42.0023 23.9523 40.1443 23.2662 38.3001C23.1208 37.9104 23.14 37.5591 23.4501 37.2435C23.6395 37.0514 23.8069 36.8346 23.9825 36.626C24.1719 36.4037 24.3612 36.1787 24.5561 35.9509C24.5012 35.907 24.4792 35.885 24.4518 35.8658C23.8947 35.4788 23.3431 35.0864 22.7777 34.7104C22.7146 34.6692 22.5637 34.6967 22.4896 34.7433C22.1932 34.9409 21.916 35.1605 21.6278 35.3691C21.3396 35.5694 21.046 35.767 20.7304 35.9866ZM25.6429 28.3653C23.6422 29.7101 21.6882 29.6909 19.704 28.3379C19.704 28.637 19.7122 28.8621 19.7012 29.0871C19.6903 29.2682 19.7451 29.4027 19.8741 29.5372C20.412 30.1025 20.9362 30.6789 21.4686 31.2497C21.8611 31.6696 22.259 32.0813 22.6597 32.5039C22.7064 32.4655 22.742 32.4435 22.7695 32.4133C23.6971 31.4254 24.6274 30.4346 25.5523 29.4439C25.5962 29.3972 25.6374 29.3286 25.6374 29.271C25.6484 28.9938 25.6429 28.7166 25.6429 28.3653ZM27.0617 35.7204C27.0919 35.638 27.1194 35.5859 27.1276 35.531C27.3472 34.1753 27.564 32.8168 27.789 31.461C27.8137 31.3183 27.7808 31.2442 27.6518 31.1784C27.4871 31.096 27.3307 30.9945 27.1715 30.8984C26.6693 30.5883 26.554 30.613 26.1918 31.0686C26.0189 31.2854 25.813 31.472 25.6209 31.6751C25.3794 31.9331 25.1352 32.1883 24.8964 32.4463C24.6961 32.6603 24.4957 32.8771 24.2981 33.094C24.1582 33.2449 24.0182 33.3958 23.8755 33.5495C24.9485 34.2823 25.9969 34.9931 27.0617 35.7204ZM21.4604 33.555C20.53 32.5588 19.6299 31.5982 18.7434 30.6459C18.3949 30.8243 18.093 30.9945 17.7774 31.1372C17.5935 31.2195 17.5331 31.3128 17.5688 31.5241C17.7582 32.6439 17.9311 33.7691 18.1122 34.8888C18.1561 35.1577 18.2138 35.424 18.2714 35.7341C19.3554 34.9931 20.3901 34.2878 21.4604 33.555ZM26.1122 41.3958C26.1341 41.3903 26.1588 41.3876 26.1808 41.3821C26.1972 41.2778 26.211 41.1707 26.2274 41.0665C26.4086 39.944 26.5952 38.8215 26.7708 37.6963C26.7846 37.6085 26.7763 37.4685 26.7242 37.4246C26.4607 37.2161 26.178 37.0349 25.8926 36.8373C25.5605 37.2215 25.2394 37.5838 24.9321 37.9543C24.8937 38.001 24.8964 38.1135 24.9211 38.1793C25.1544 38.827 25.3931 39.4692 25.6346 40.1142C25.7911 40.5423 25.953 40.9704 26.1122 41.3958ZM19.3993 36.8867C19.177 37.0377 18.9822 37.1886 18.7681 37.3094C18.587 37.4137 18.5321 37.5317 18.5678 37.7402C18.7489 38.8023 18.9136 39.8672 19.0865 40.9292C19.1112 41.0857 19.1523 41.2421 19.188 41.3985C19.6409 40.32 20.0388 39.2497 20.434 38.1766C20.4532 38.1245 20.4532 38.0311 20.4203 37.9955C20.0854 37.6222 19.7451 37.26 19.3993 36.8867Z" fill="black"/>
<path d="M14.9697 13.8034C14.8408 13.4494 14.6843 13.1036 14.591 12.7386C14.3083 11.6463 14.0037 10.5595 13.8034 9.45076C13.6442 8.5753 13.6497 7.67513 13.9955 6.81613C14.2946 6.08063 14.8682 5.68818 15.6202 5.53449C15.8891 5.4796 16.095 5.36159 16.2925 5.16674C17.5522 3.9345 18.9629 2.91358 20.6013 2.23571C21.85 1.71976 23.1453 1.45904 24.5038 1.59901C25.9391 1.74995 27.1961 2.32628 28.3378 3.18528C29.4877 4.04976 30.4153 5.12832 31.2606 6.28646C31.4636 6.56364 31.4719 6.87376 31.4938 7.18114C31.664 9.56603 31.2907 11.8494 30.2204 14.0037C30.2012 14.0394 30.1793 14.0751 30.1189 14.1766C30.075 14.0037 30.0338 13.8912 30.0173 13.776C29.9295 13.1886 29.8472 12.5986 29.7649 12.0113C29.7566 11.9619 29.7511 11.9098 29.7402 11.8604C29.5261 10.8861 29.1885 10.8751 28.4832 11.0453C26.9134 11.4185 25.3189 11.5887 23.7079 11.5063C21.6524 11.402 19.7121 10.8504 17.8816 9.91457C17.566 9.75265 17.2421 9.59896 16.91 9.47272C16.5533 9.33824 16.2294 9.47821 16.1114 9.84047C15.9495 10.34 15.8342 10.8532 15.7025 11.3636C15.4994 12.1458 15.3018 12.9252 15.1015 13.7073C15.0932 13.7375 15.0713 13.7622 15.0548 13.7897C15.0219 13.7952 14.9972 13.8007 14.9697 13.8034Z" fill="white"/>
<path d="M32.4649 39.7985C32.8327 39.6283 33.1675 39.4719 33.5051 39.3182C33.7987 39.1837 34.0951 39.0575 34.386 38.9175C34.8553 38.6925 35.0118 38.2698 34.7895 37.795C34.2214 36.582 33.645 35.3717 33.0715 34.1587C33.0358 34.0846 33.0083 34.0105 32.9452 33.8623C33.0934 33.9254 33.1758 33.9556 33.2526 33.994C35.4207 35.0891 37.5833 36.1896 39.7541 37.2736C40.0478 37.4191 40.1932 37.6057 40.2646 37.9268C40.9205 40.8688 41.5956 43.8053 42.2625 46.7446C42.3723 47.2331 42.482 47.7216 42.5918 48.2101C42.6083 48.2814 42.611 48.3583 42.622 48.4543C38.7167 48.4543 34.8334 48.4543 30.9006 48.4543C31.0708 48.0921 31.2217 47.7655 31.3782 47.4416C32.174 45.7923 32.9672 44.1401 33.774 42.4935C33.9908 42.0544 33.9716 41.6811 33.6478 41.2969C33.2471 40.8331 32.8821 40.3336 32.4649 39.7985Z" fill="white"/>
<path d="M12.4119 33.8679C12.1814 34.3537 11.9783 34.7873 11.7725 35.2209C11.3691 36.0717 10.9629 36.9197 10.5595 37.7705C10.3262 38.2645 10.4826 38.7008 10.9794 38.9314C11.5502 39.1948 12.1238 39.45 12.6946 39.708C12.7468 39.73 12.7907 39.7684 12.8675 39.8151C12.626 40.1279 12.3955 40.4271 12.1622 40.7262C11.9783 40.9595 11.7972 41.1927 11.6106 41.4233C11.3745 41.7142 11.3553 42.0216 11.5145 42.3509C12.2583 43.8932 13.002 45.4383 13.7457 46.9807C13.9762 47.4582 14.204 47.9385 14.4565 48.4682C10.5238 48.4682 6.63495 48.4682 2.71045 48.4682C2.78729 48.1087 2.8559 47.7793 2.93 47.4527C3.66276 44.2171 4.39826 40.9787 5.13102 37.743C5.16944 37.5756 5.24354 37.4631 5.4082 37.3808C7.67509 36.2391 9.93648 35.0919 12.1979 33.9448C12.2445 33.9228 12.2994 33.9091 12.4119 33.8679Z" fill="white"/>
<path d="M33.0031 37.8116C32.4569 38.0613 31.9081 38.3111 31.3619 38.5581C31.222 38.6212 31.0847 38.6843 30.9448 38.7474C30.3986 39.0054 30.2559 39.5543 30.6237 40.0318C31.0738 40.6164 31.5293 41.1982 31.9986 41.769C32.1578 41.9639 32.2072 42.1121 32.081 42.3673C31.3564 43.8273 30.6593 45.2983 29.954 46.7666C29.707 47.2798 29.4655 47.793 29.2103 48.3007C29.1719 48.3776 29.0731 48.4736 29.0017 48.4763C28.2552 48.4873 27.506 48.4818 26.7595 48.4791C26.7294 48.4791 26.6964 48.4599 26.6333 48.4379C27.5225 42.9766 28.4089 37.5207 29.3036 32.0154C29.7592 32.2487 30.1736 32.46 30.5825 32.674C30.6237 32.696 30.6566 32.7454 30.6786 32.7893C31.4525 34.4305 32.2264 36.0744 32.9976 37.7155C33.0031 37.7292 33.0003 37.7485 33.0031 37.8116Z" fill="white"/>
<path d="M16.0484 32.0181C16.943 37.5206 17.8267 42.9765 18.7159 48.4516C18.6254 48.4653 18.5595 48.4818 18.4964 48.4818C17.8075 48.4845 17.1214 48.479 16.4326 48.4873C16.2679 48.49 16.1938 48.4187 16.1252 48.2814C15.3238 46.6156 14.517 44.9497 13.7129 43.2839C13.5537 42.9545 13.4028 42.6225 13.2299 42.3014C13.1311 42.123 13.1612 41.9967 13.282 41.8458C13.7787 41.231 14.27 40.6136 14.7475 39.9878C15.0823 39.5515 14.9259 38.9916 14.4237 38.7556C14.1465 38.6266 13.8693 38.5004 13.5894 38.3769C13.2408 38.2204 12.9005 38.0475 12.5438 37.9131C12.3269 37.8307 12.3269 37.7374 12.4148 37.5563C13.0048 36.324 13.5894 35.0918 14.1767 33.8568C14.3331 33.5275 14.4786 33.1927 14.646 32.8716C14.7036 32.7618 14.8051 32.652 14.9149 32.5916C15.2717 32.394 15.6367 32.2212 16.0484 32.0181Z" fill="white"/>
<path d="M20.73 35.9864C21.0456 35.7696 21.3393 35.572 21.6275 35.3662C21.9156 35.1604 22.1955 34.9381 22.4892 34.7405C22.5633 34.6911 22.7142 34.6636 22.7774 34.7075C23.3427 35.0835 23.8943 35.476 24.4515 35.8629C24.4789 35.8822 24.5036 35.9041 24.5557 35.948C24.3609 36.1758 24.1743 36.4008 23.9822 36.6231C23.8065 36.829 23.6391 37.0458 23.4497 37.2406C23.1396 37.5562 23.1204 37.9075 23.2659 38.2972C23.9547 40.1415 24.6024 42.0022 25.3461 43.8217C25.637 44.538 25.5794 45.1967 25.4532 45.8993C25.3159 46.6677 25.1897 47.4389 25.0772 48.21C25.047 48.4076 24.9866 48.4872 24.778 48.4845C23.3592 48.479 21.9403 48.479 20.5215 48.4845C20.365 48.4845 20.3019 48.4406 20.2772 48.2759C20.1043 47.1589 19.9149 46.0475 19.7393 44.9305C19.7173 44.7933 19.7146 44.6341 19.764 44.5078C20.5077 42.4852 21.2624 40.4653 22.0144 38.4454C22.0473 38.3576 22.0858 38.2725 22.116 38.1847C22.2395 37.8307 22.1681 37.5233 21.9074 37.2489C21.5232 36.8482 21.1472 36.4338 20.73 35.9864Z" fill="white"/>
<path d="M27.0616 35.7203C25.994 34.9958 24.9484 34.2822 23.8726 33.5495C24.0153 33.3958 24.1552 33.2449 24.2952 33.0939C24.4955 32.8771 24.6931 32.6603 24.8935 32.4462C25.135 32.1883 25.3765 31.9303 25.618 31.6751C25.8074 31.4747 26.0159 31.2853 26.1888 31.0685C26.5538 30.613 26.6664 30.5883 27.1686 30.8984C27.325 30.9944 27.4815 31.096 27.6489 31.1783C27.7779 31.2414 27.8108 31.3183 27.7861 31.461C27.561 32.8167 27.347 34.1752 27.1247 35.5309C27.1192 35.5858 27.0918 35.638 27.0616 35.7203Z" fill="white"/>
<path d="M21.4602 33.5551C20.3899 34.2851 19.3553 34.9904 18.2685 35.7341C18.2081 35.424 18.1532 35.1578 18.1093 34.8889C17.9282 33.7664 17.758 32.6439 17.5659 31.5242C17.5302 31.3129 17.5906 31.2196 17.7745 31.1372C18.0901 30.9945 18.3947 30.8244 18.7405 30.646C19.6297 31.5983 20.5299 32.5616 21.4602 33.5551Z" fill="white"/>
<path d="M26.1122 41.3958C25.9531 40.9704 25.7912 40.5423 25.632 40.1169C25.3932 39.472 25.1517 38.8298 24.9184 38.1821C24.8937 38.1162 24.891 38.0037 24.9294 37.9571C25.2368 37.5838 25.5579 37.2243 25.89 36.8401C26.1754 37.0377 26.458 37.2216 26.7215 37.4274C26.7764 37.4713 26.7846 37.6113 26.7682 37.6991C26.5925 38.8216 26.4059 39.944 26.2248 41.0692C26.2083 41.1735 26.1918 41.2805 26.1781 41.3848C26.1589 41.3876 26.1369 41.3903 26.1122 41.3958Z" fill="white"/>
<path d="M19.3995 36.8865C19.7453 37.2597 20.0883 37.6247 20.4204 37.9952C20.4533 38.0309 20.4533 38.1242 20.4341 38.1764C20.0389 39.2494 19.6382 40.3197 19.1881 41.3983C19.1552 41.2419 19.1113 41.0882 19.0866 40.929C18.9137 39.8669 18.749 38.8021 18.5679 37.74C18.5322 37.5314 18.5871 37.4107 18.7682 37.3091C18.9796 37.1884 19.1772 37.0374 19.3995 36.8865Z" fill="white"/>
</svg>
