<svg width="25" height="25" viewBox="0 0 25 25" fill="none" xmlns="http://www.w3.org/2000/svg">
<g clip-path="url(#clip0)">
<path d="M19.8242 1.51367H16.8945H13.9648C11.1381 1.51367 8.78906 3.81392 8.78906 6.64062C8.78906 9.21914 10.7512 11.3592 13.2324 11.7154V13.9648C13.2324 14.2609 13.4105 14.5285 13.6845 14.6415C13.9546 14.7542 14.2715 14.6938 14.4827 14.4827L16.8945 12.0708L17.1978 11.7676H19.8242C22.6509 11.7676 25 9.46733 25 6.64062C25 3.81392 22.6509 1.51367 19.8242 1.51367Z" fill="#FED843"/>
<path d="M19.8242 11.7676C22.6509 11.7676 25 9.46733 25 6.64062C25 3.81392 22.6509 1.51367 19.8242 1.51367H16.8945V12.0708L17.1978 11.7676H19.8242Z" fill="#FABE2C"/>
<path d="M18.6523 18.3594V21.2891C18.6523 22.5635 17.6118 23.4863 16.4653 23.4863C12.2461 23.4863 8.12988 21.4917 5.06836 18.4424C2.00684 15.3931 0 11.2891 0 7.06982C0 5.85791 0.98584 4.88281 2.19727 4.88281H5.12695C5.44238 4.88281 5.72217 5.08447 5.82129 5.3833L7.28613 9.76758C7.35791 9.98242 7.32617 10.2178 7.20117 10.4058L5.95898 12.2695C6.42969 13.2568 7.2627 14.3359 8.22461 15.2861C9.18701 16.2358 10.2783 17.0566 11.2656 17.5273L13.1294 16.2852C13.3184 16.1606 13.5527 16.1279 13.7676 16.2002L18.1621 17.665C18.4609 17.7642 18.6523 18.0439 18.6523 18.3594Z" fill="#FF641A"/>
<path d="M18.6524 18.3594V21.2891C18.6524 22.5635 17.6118 23.4863 16.4653 23.4863C12.2461 23.4863 8.12989 21.4917 5.06836 18.4424L8.22461 15.2861C9.18702 16.2358 10.2783 17.0566 11.2656 17.5273L13.1294 16.2852C13.3184 16.1606 13.5527 16.1279 13.7676 16.2002L18.1621 17.665C18.461 17.7642 18.6524 18.0439 18.6524 18.3594Z" fill="#F03800"/>
<path d="M13.9648 7.37304C14.3693 7.37304 14.6973 7.04512 14.6973 6.64062C14.6973 6.23612 14.3693 5.9082 13.9648 5.9082C13.5603 5.9082 13.2324 6.23612 13.2324 6.64062C13.2324 7.04512 13.5603 7.37304 13.9648 7.37304Z" fill="#613D5C"/>
<path d="M16.8945 7.37305C17.299 7.37305 17.627 7.04513 17.627 6.64062C17.627 6.23612 17.299 5.9082 16.8945 5.9082C16.49 5.9082 16.1621 6.23612 16.1621 6.64062C16.1621 7.04513 16.49 7.37305 16.8945 7.37305Z" fill="#613D5C"/>
<path d="M17.627 6.64062C17.627 6.23613 17.299 5.9082 16.8945 5.9082V7.37305C17.299 7.37305 17.627 7.04512 17.627 6.64062Z" fill="#4B2746"/>
<path d="M19.8242 7.37304C20.2287 7.37304 20.5566 7.04512 20.5566 6.64062C20.5566 6.23612 20.2287 5.9082 19.8242 5.9082C19.4197 5.9082 19.0918 6.23612 19.0918 6.64062C19.0918 7.04512 19.4197 7.37304 19.8242 7.37304Z" fill="#4B2746"/>
</g>
<defs>
<clipPath id="clip0">
<rect width="25" height="25" fill="white"/>
</clipPath>
</defs>
</svg>
