<svg width="53" height="70" viewBox="0 0 53 70" fill="none" xmlns="http://www.w3.org/2000/svg">
<path d="M26.4678 69.1527C26.3991 69.1527 26.3268 69.1527 26.2581 69.1527C26.1026 69.084 25.9507 69.0008 25.7879 68.943C21.5856 67.3807 17.4882 65.5941 13.6077 63.3338C10.7109 61.6486 7.96243 59.7608 5.59004 57.3739C4.37853 56.1552 3.29721 54.8316 2.55945 53.262C1.9989 52.0722 2.07123 51.461 3.03321 50.5786C3.78543 49.8915 4.58828 49.2405 5.44177 48.6836C7.55377 47.3057 9.91532 46.4776 12.3094 45.7362C13.8392 45.2624 15.3689 44.7851 16.8878 44.2715C17.3869 44.1052 17.8462 43.8195 18.3163 43.5916C17.6871 42.7345 17.0614 41.9353 16.4973 41.0963C15.2026 39.1651 14.5227 36.9771 13.8862 34.7711C13.8139 34.5252 13.6511 34.225 13.4414 34.1093C12.6674 33.6862 12.2081 33.0243 11.8827 32.2468C11.3655 31.0028 11.1594 29.6972 11.1883 28.3591C11.2028 27.719 11.2462 27.0644 11.6114 26.5111C11.8718 26.1133 11.9297 25.701 11.9008 25.249C11.8574 24.5619 11.8067 23.8783 11.7995 23.1912C11.7669 20.6054 11.7416 18.0197 11.7308 15.4375C11.7308 15.1555 11.644 15.0361 11.3872 14.9349C8.68572 13.8644 5.99147 12.7831 3.29721 11.6945C2.37501 11.3256 1.46367 10.9206 0.548706 10.5264C0.548706 10.5047 0.548706 10.4794 0.548706 10.4577C0.559555 10.4577 0.574021 10.4613 0.584871 10.4577C8.99312 7.26797 17.4014 4.08188 25.806 0.877701C26.24 0.711344 26.6089 0.722193 27.0356 0.884933C35.122 3.94084 43.212 6.98589 51.302 10.0382C51.6853 10.1828 52.0687 10.342 52.5388 10.5264C52.264 10.6494 52.0832 10.7398 51.8915 10.8157C50.557 11.3618 49.2189 11.897 47.8917 12.454C47.7723 12.5046 47.6132 12.6601 47.6132 12.7686C47.6168 14.6998 47.6421 16.6346 47.6566 18.5658C47.6566 18.7502 47.7145 18.8479 47.9098 18.8515C48.2353 18.8623 48.445 19.0468 48.5824 19.3288C48.6656 19.4952 48.756 19.6579 48.832 19.8279C49.5336 21.4372 50.2279 23.0502 50.9404 24.6523C51.0308 24.862 50.9621 24.9669 50.8282 25.1043C49.4793 26.5039 48.1304 27.9071 46.7814 29.3066C46.72 29.3717 46.6476 29.4224 46.5644 29.4911C45.2806 28.1421 44.0257 26.7932 42.7346 25.484C42.3513 25.0971 42.3043 24.7354 42.5032 24.2725C43.1397 22.7753 43.7617 21.2709 44.4054 19.7773C44.6152 19.2927 44.7779 18.7213 45.5121 18.8732C45.5121 17.0288 45.5121 15.2314 45.5121 13.4087C45.3674 13.4593 45.2444 13.4955 45.1287 13.5425C43.9606 14.0054 42.7997 14.4792 41.628 14.9276C41.3495 15.0361 41.2483 15.1663 41.2446 15.4773C41.2229 18.1426 41.1796 20.808 41.1398 23.4733C41.1217 24.7282 41.0132 25.9578 41.3531 27.2308C41.7112 28.5761 41.5231 30.0155 41.1796 31.3825C40.9228 32.4059 40.4237 33.3173 39.5268 33.9357C39.1073 34.225 38.8723 34.5939 38.7493 35.0821C38.0007 38.0621 36.8181 40.8287 34.7495 43.1613C34.3879 43.5699 34.3987 43.6531 34.9267 43.8701C36.0116 44.3113 37.093 44.7814 38.2177 45.1069C40.6516 45.8157 43.089 46.5065 45.3783 47.624C47.1069 48.4666 48.7054 49.4828 50.0001 50.933C50.5751 51.5768 50.6981 52.2096 50.3183 53.0016C49.7071 54.271 48.9224 55.4174 47.9929 56.4698C45.9786 58.7518 43.5773 60.56 41.024 62.1838C36.8181 64.86 32.3156 66.9322 27.6504 68.6717C27.249 68.8164 26.862 68.99 26.4678 69.1527ZM15.5461 29.7044C15.4232 29.2307 15.3111 28.8329 15.2134 28.4315C14.9784 27.4803 14.8482 27.3827 13.8645 27.4405C13.8428 27.4405 13.8175 27.4442 13.7958 27.4442C13.416 27.4839 13.2822 27.6105 13.2605 27.9975C13.2027 28.9812 13.3039 29.9467 13.5824 30.8979C13.8247 31.7224 14.1719 32.4204 15.1809 32.4746C15.4557 32.4891 15.5931 32.6844 15.6402 32.9629C15.7197 33.4222 15.8101 33.8778 15.9222 34.3299C16.4936 36.6625 17.2965 38.8975 18.7684 40.8323C19.9691 42.4163 21.459 43.6242 23.4445 44.0364C24.967 44.3511 26.5221 44.2932 28.0735 44.2209C29.6178 44.1486 30.9739 43.6169 32.1746 42.6622C33.6067 41.5194 34.641 40.0656 35.3968 38.4165C36.1852 36.6987 36.7313 34.8977 37.0713 33.0352C37.1327 32.6953 37.281 32.4891 37.6499 32.4566C38.2936 32.3987 38.6842 32.0262 38.9627 31.4548C39.5702 30.1927 39.2954 28.8546 39.4039 27.5237C38.9084 27.5237 38.46 27.5237 38.0115 27.5237C37.8235 28.2289 37.639 28.9197 37.4401 29.6719C36.3841 29.1294 35.3715 28.6231 34.8725 27.5454C34.5723 26.8981 34.377 26.1965 34.1564 25.513C33.9756 24.9488 33.9575 24.9199 33.3861 25.0284C31.2452 25.4406 29.0934 25.73 26.909 25.7625C24.4788 25.7987 22.0811 25.513 19.6978 25.0537C18.9709 24.9126 18.9998 24.9343 18.7684 25.6649C18.5478 26.3701 18.3091 27.0825 17.98 27.7443C17.4882 28.7208 16.5009 29.133 15.5461 29.7044ZM48.4486 52.2386C47.747 51.4972 46.9406 50.8571 46.0147 50.3797C45.8701 50.3038 45.6242 50.3399 45.4542 50.405C44.5862 50.7377 43.7291 51.0958 42.8648 51.4429C37.4763 53.6128 32.0842 55.7791 26.6957 57.9526C26.4606 58.0466 26.2617 58.0394 26.0302 57.9453C24.392 57.2835 22.7501 56.6398 21.1119 55.978C16.5009 54.1191 11.8863 52.2566 7.27892 50.3869C7.00046 50.2748 6.77624 50.2676 6.53393 50.4448C5.91552 50.9005 5.28626 51.3381 4.67508 51.8046C4.30982 52.0831 4.27004 52.2169 4.5268 52.6038C5.06927 53.4284 5.59727 54.271 6.23015 55.0232C7.94073 57.0557 10.0347 58.6433 12.2479 60.0826C16.3707 62.7624 20.8262 64.7732 25.3793 66.5959C26.0664 66.8707 26.6957 66.8816 27.3647 66.5959C29.1476 65.8292 30.9558 65.1168 32.717 64.3067C36.4456 62.5961 40.0331 60.6324 43.2699 58.0828C45.3349 56.4553 47.1575 54.6073 48.4486 52.2386ZM6.19399 10.5951C6.56287 10.7578 6.84495 10.888 7.13065 11.0002C13.4811 13.5534 19.828 16.1102 26.1821 18.6526C26.3521 18.7213 26.5944 18.7249 26.7644 18.6562C28.5509 17.9582 30.3266 17.2421 32.1059 16.5261C36.8253 14.6202 41.5448 12.7144 46.2607 10.8049C46.4089 10.7434 46.5536 10.6674 46.7489 10.5698C46.55 10.4866 46.4234 10.4288 46.2932 10.3817C40.0151 8.00211 33.7297 5.63334 27.4587 3.22839C26.7246 2.94631 26.0989 2.95354 25.3684 3.23563C19.4194 5.53208 13.4522 7.79236 7.49591 10.0671C7.08725 10.2226 6.68583 10.3962 6.19399 10.5951ZM13.8826 16.0017C13.8573 16.2006 13.8175 16.3597 13.8175 16.5152C13.8066 17.6327 13.8066 18.7502 13.7885 19.8677C13.7849 20.1281 13.8645 20.2836 14.0815 20.4391C15.8608 21.7121 17.8607 22.4788 19.9727 22.9634C23.9038 23.8675 27.8602 23.929 31.8274 23.231C34.3842 22.7826 36.8 21.9435 38.9229 20.3993C39.0422 20.3125 39.1688 20.1389 39.1724 20.0051C39.1905 18.8985 39.1833 17.7919 39.1724 16.6852C39.1688 16.4718 39.1254 16.2585 39.0965 16.0017C38.9048 16.0668 38.7746 16.1066 38.648 16.1572C34.6953 17.7304 30.7461 19.3035 26.7969 20.8839C26.5727 20.9743 26.3919 20.9707 26.1713 20.8803C22.2257 19.2963 18.2729 17.7231 14.3238 16.1464C14.1972 16.0957 14.0634 16.0596 13.8826 16.0017ZM24.2618 55.0413C24.2871 55.0015 24.3124 54.9654 24.3377 54.9256C24.3016 54.8062 24.269 54.6797 24.222 54.5639C23.8061 53.5152 23.3468 52.4845 22.9852 51.4176C22.7356 50.6835 22.3053 50.2351 21.5965 49.9132C19.7376 49.0669 17.9077 48.152 16.0705 47.2515C15.6582 47.049 15.2568 47.0309 14.8228 47.1647C13.5679 47.5516 12.3094 47.9205 11.0581 48.3147C10.5301 48.4811 10.0166 48.6908 9.49581 48.8825C9.48858 48.9295 9.48134 48.9765 9.47411 49.0272C14.4033 51.0307 19.3326 53.0342 24.2618 55.0413ZM43.3494 48.991C43.1975 48.9042 43.1505 48.8644 43.0999 48.8499C41.3206 48.2785 39.5413 47.7071 37.762 47.1357C37.3642 47.0056 36.9953 47.0707 36.6192 47.2551C34.5361 48.2822 32.4422 49.2948 30.3591 50.3182C30.247 50.3725 30.1385 50.4954 30.0915 50.6112C29.5563 51.9348 29.0355 53.2656 28.5147 54.5965C28.4677 54.7194 28.4424 54.8496 28.3737 55.0811C33.4006 53.0378 38.3262 51.0343 43.3494 48.991ZM34.3155 45.9134C33.8237 45.6241 33.3933 45.3782 32.9774 45.1142C32.7677 44.9803 32.6013 44.9876 32.3735 45.0888C31.596 45.4252 30.8256 45.8013 30.0156 46.0183C28.6775 46.3727 27.2888 46.2714 25.9181 46.2678C24.7681 46.2642 23.6036 46.3076 22.4933 45.9496C21.7664 45.7181 21.0721 45.3818 20.3596 45.1033C20.2258 45.0527 20.0378 44.9767 19.9401 45.0274C19.394 45.3167 18.866 45.6458 18.2946 45.9785C18.4574 46.0617 18.5586 46.1159 18.6635 46.1665C20.4139 47.0309 22.1642 47.8916 23.9074 48.7704C24.0629 48.8499 24.2184 49.0163 24.2835 49.179C24.8368 50.5099 25.372 51.848 25.9145 53.1825C26.0375 53.479 26.1749 53.7683 26.3376 54.1336C26.4317 53.9564 26.5004 53.8515 26.5474 53.7394C27.1766 52.2386 27.8095 50.7414 28.4243 49.2369C28.5328 48.9693 28.6919 48.8102 28.9487 48.6836C30.3953 47.9675 31.8383 47.2406 33.2776 46.5101C33.6067 46.3365 33.9213 46.1412 34.3155 45.9134ZM46.6187 26.5617C47.295 25.8204 47.8953 25.173 48.4776 24.5076C48.5318 24.4461 48.4992 24.2689 48.4595 24.164C48.1123 23.3142 47.7543 22.4679 47.3962 21.6253C47.0852 20.8875 47.0852 20.8839 46.2896 20.949C46.2028 20.9562 46.0798 21.0177 46.0509 21.0828C45.6061 22.1424 45.1721 23.2093 44.7454 24.2762C44.7128 24.3557 44.7309 24.5004 44.7852 24.5619C45.371 25.2164 45.9713 25.8602 46.6187 26.5617ZM13.8573 22.8657C13.8826 23.6035 13.9006 24.2617 13.944 24.9199C13.9477 24.9886 14.0887 25.0971 14.1719 25.1043C15.0688 25.1875 15.9403 25.3177 16.5117 26.1856C16.6781 25.6757 16.7902 25.1947 16.9168 24.7174C17.0036 24.3919 16.8698 24.2255 16.5804 24.0989C15.8608 23.7807 15.1483 23.4335 14.4323 23.1044C14.2551 23.0212 14.0742 22.9525 13.8573 22.8657ZM39.0567 25.0754C39.0567 24.4172 39.0603 23.806 39.0567 23.1912C39.0567 22.9742 38.9735 22.8549 38.7312 22.9742C37.9103 23.3757 37.0857 23.7735 36.2684 24.1785C36.1925 24.2183 36.0948 24.3195 36.0984 24.3955C36.1021 24.985 36.1816 25.56 36.4782 26.1929C37.0821 25.2128 38.0586 25.1911 39.0567 25.0754Z" fill="black"/>
<path d="M48.4489 52.2384C47.1578 54.6072 45.3351 56.4552 43.2701 58.0789C40.0334 60.6285 36.4459 62.5923 32.7173 64.3029C30.9561 65.113 29.1479 65.8254 27.365 66.5921C26.6959 66.8814 26.0667 66.8669 25.3795 66.5921C20.83 64.7694 16.3746 62.7586 12.2482 60.0788C10.0349 58.6395 7.93739 57.0519 6.23043 55.0194C5.59755 54.2672 5.06955 53.4246 4.52708 52.6C4.27393 52.2131 4.31009 52.0829 4.67535 51.8008C5.28292 51.3343 5.91579 50.8967 6.53421 50.441C6.77651 50.2638 7.00073 50.2674 7.2792 50.3831C11.8866 52.2528 16.4975 54.1153 21.1121 55.9742C22.7504 56.636 24.3923 57.2797 26.0305 57.9415C26.262 58.0355 26.4609 58.0428 26.6959 57.9488C32.0844 55.7753 37.473 53.609 42.8651 51.4391C43.7258 51.092 44.5865 50.7339 45.4545 50.4012C45.6244 50.3361 45.8667 50.3 46.015 50.3759C46.9408 50.8569 47.7473 51.497 48.4489 52.2384Z" fill="white"/>
<path d="M6.19409 10.595C6.68593 10.3961 7.08736 10.2261 7.4924 10.0706C13.4523 7.79587 19.4158 5.53559 25.3649 3.23914C26.0954 2.95706 26.7211 2.94982 27.4552 3.23191C33.7261 5.63685 40.0079 8.00562 46.2897 10.3853C46.4199 10.4359 46.5465 10.4901 46.7454 10.5733C46.5501 10.6673 46.4054 10.7469 46.2572 10.8084C41.5377 12.7179 36.8218 14.6237 32.1024 16.5296C30.3267 17.2457 28.5474 17.9617 26.7609 18.6597C26.5909 18.7248 26.3486 18.7212 26.1786 18.6561C19.8245 16.1137 13.4776 13.5569 7.12714 11.0037C6.84505 10.8843 6.56297 10.7541 6.19409 10.595Z" fill="white"/>
<path d="M13.8827 16.002C14.0635 16.0634 14.1973 16.0996 14.3203 16.1502C18.2694 17.727 22.2222 19.3002 26.1678 20.8842C26.3884 20.971 26.5692 20.9782 26.7934 20.8878C30.7426 19.3074 34.6917 17.7342 38.6445 16.1611C38.7711 16.1104 38.9013 16.0707 39.093 16.0056C39.1219 16.2623 39.1653 16.4757 39.1689 16.6891C39.1798 17.7957 39.187 18.9023 39.1689 20.009C39.1653 20.1428 39.0387 20.3164 38.9194 20.4032C36.7965 21.951 34.3843 22.7864 31.8239 23.2349C27.8566 23.9328 23.9002 23.8714 19.9692 22.9672C17.8572 22.4826 15.8573 21.7159 14.078 20.443C13.861 20.2874 13.7814 20.1319 13.785 19.8716C13.8067 18.7541 13.8031 17.6366 13.814 16.5191C13.8176 16.3564 13.8574 16.2009 13.8827 16.002Z" fill="white"/>
<path d="M24.2618 55.0412C19.3325 53.0377 14.4033 51.0305 9.47046 49.027C9.47769 48.98 9.48492 48.933 9.49216 48.8823C10.0129 48.6907 10.5265 48.4809 11.0545 48.3146C12.3058 47.9204 13.5643 47.5515 14.8192 47.1645C15.2532 47.0307 15.6546 47.0524 16.0669 47.2513C17.904 48.1482 19.734 49.0632 21.5928 49.913C22.3016 50.2349 22.7284 50.6833 22.9815 51.4175C23.3432 52.4843 23.8025 53.515 24.2184 54.5638C24.2654 54.6795 24.2943 54.8061 24.3341 54.9254C24.3124 54.9652 24.2871 55.0014 24.2618 55.0412Z" fill="white"/>
<path d="M43.3494 48.9911C38.3262 51.0344 33.4006 53.0379 28.3773 55.0812C28.4424 54.8497 28.4677 54.7159 28.5184 54.5966C29.0391 53.2657 29.5635 51.9385 30.0951 50.6113C30.1421 50.4955 30.2506 50.3762 30.3628 50.3183C32.4458 49.2913 34.5398 48.2823 36.6228 47.2552C36.9989 47.0708 37.3642 47.0057 37.7656 47.1359C39.5449 47.7073 41.3242 48.2786 43.1035 48.85C43.1505 48.8645 43.1975 48.9043 43.3494 48.9911Z" fill="white"/>
<path d="M34.3162 45.9134C33.9184 46.1413 33.6038 46.3366 33.2747 46.5065C31.8354 47.2371 30.3924 47.964 28.9458 48.68C28.689 48.8066 28.5299 48.9657 28.4214 49.2333C27.8066 50.7378 27.1738 52.235 26.5445 53.7358C26.4975 53.8479 26.4288 53.9528 26.3347 54.13C26.172 53.7684 26.0346 53.4791 25.9116 53.1789C25.3691 51.8444 24.8339 50.5063 24.2806 49.1755C24.2119 49.0127 24.06 48.8464 23.9045 48.7668C22.1614 47.888 20.4074 47.0309 18.6606 46.163C18.5557 46.1123 18.4545 46.0581 18.2917 45.9749C18.8631 45.6386 19.3911 45.3131 19.9372 45.0238C20.0385 44.9695 20.2229 45.0455 20.3567 45.0997C21.0692 45.3782 21.7635 45.7145 22.4904 45.946C23.6007 46.3004 24.7652 46.2606 25.9152 46.2642C27.2859 46.2678 28.6746 46.3691 30.0127 46.0147C30.8228 45.8013 31.5967 45.4216 32.3706 45.0853C32.602 44.9876 32.7684 44.9768 32.9745 45.1106C33.3977 45.3782 33.828 45.6241 34.3162 45.9134Z" fill="white"/>
<path d="M46.6187 26.5618C45.9714 25.8602 45.371 25.2164 44.7816 24.5619C44.7273 24.5004 44.7128 24.3557 44.7418 24.2762C45.1685 23.2093 45.6025 22.1425 46.0473 21.0828C46.0762 21.0141 46.2028 20.9526 46.286 20.949C47.0816 20.8839 47.0816 20.8875 47.3926 21.6253C47.747 22.4715 48.1087 23.3178 48.4559 24.164C48.4993 24.2689 48.5318 24.4425 48.474 24.5076C47.8989 25.173 47.2986 25.8204 46.6187 26.5618Z" fill="white"/>
<path d="M13.8575 22.8657C14.0745 22.9561 14.259 23.0212 14.4326 23.1044C15.1486 23.4371 15.8574 23.7807 16.5807 24.0989C16.87 24.2291 17.0039 24.3919 16.9171 24.7173C16.7905 25.1947 16.6784 25.6757 16.512 26.1856C15.9406 25.3177 15.0691 25.1875 14.1722 25.1043C14.089 25.0971 13.948 24.9886 13.9443 24.9199C13.9009 24.2617 13.8829 23.6035 13.8575 22.8657Z" fill="white"/>
<path d="M39.0568 25.0756C38.0587 25.1914 37.0859 25.2131 36.4747 26.1931C36.1818 25.5603 36.0986 24.9852 36.095 24.3958C36.095 24.3234 36.189 24.2186 36.2649 24.1788C37.0823 23.7701 37.9068 23.3759 38.7277 22.9745C38.9701 22.8551 39.0496 22.9745 39.0532 23.1915C39.0605 23.8027 39.0568 24.4175 39.0568 25.0756Z" fill="white"/>
</svg>
