<svg width="35" height="62" viewBox="0 0 35 62" fill="none" xmlns="http://www.w3.org/2000/svg">
<path d="M2.35315 24.2323L2.60644 9.04746L4.75784 7.53411H6.51167L7.6531 5.89571L10.6093 2.24378L15.1782 0.855469L19.6445 1.42298L25.6049 3.9431L29.616 6.65239L31.5269 10.9359L32.0175 15.3959V21.9623V24.7357H29.616L29.4492 20.1988L24.2808 19.8846L17.6662 18.2462L12.4978 16.0403L8.84582 13.5587L7.6531 12.7956L5.47605 15.9794L4.75784 20.6413L4.55906 24.2323L2.35315 25.1782V24.2323Z" fill="white"/>
<path d="M17.0929 33.0622C17.1603 33.1359 17.2148 33.2 17.2725 33.2641C18.058 34.1298 19.0391 34.5819 20.2094 34.5947C21.4887 34.6076 22.768 34.6012 24.0505 34.598C24.5956 34.598 24.9226 34.2645 24.929 33.7226C24.9483 31.7989 23.3644 30.029 21.4438 29.8687C20.7449 29.811 20.0395 29.8367 19.3373 29.827C19.2571 29.827 19.177 29.827 19.0904 29.827C19.0968 29.7789 19.0936 29.7629 19.1 29.7469C19.2828 29.298 19.2026 28.9165 18.8692 28.6792C18.5293 28.4355 18.167 28.4772 17.7823 28.7818C17.6572 28.8812 17.5097 28.9678 17.3558 29.0159C16.9679 29.1345 16.6408 29.003 16.3491 28.7369C16.1022 28.5125 15.8104 28.4612 15.4994 28.5798C15.1852 28.7016 15.0089 28.9453 14.9928 29.2756C14.9832 29.4519 15.0473 29.6315 15.0826 29.8238C14.9191 29.8238 14.7556 29.8206 14.592 29.8238C13.9829 29.8334 13.3737 29.8142 12.7677 29.8623C10.8535 30.0162 9.26965 31.7572 9.26003 33.6778C9.25683 34.2645 9.58387 34.5947 10.1674 34.5947C11.4307 34.5947 12.6971 34.5979 13.9604 34.5947C14.5952 34.5947 15.1948 34.4473 15.7623 34.1587C16.2849 33.8958 16.721 33.5239 17.0929 33.0622Z" fill="white"/>
<path d="M28.7053 25.2743C28.654 25.2647 28.6315 25.2583 28.6091 25.2551C28.1378 25.2326 28.1474 25.2358 28.0192 25.6879C27.4869 27.5636 26.291 28.8237 24.4089 29.3302C22.5461 29.8336 20.882 29.3623 19.4969 28.0189C18.6729 27.2173 18.1984 26.2202 18.0477 25.0723C18.0349 24.9793 17.9483 24.8575 17.8649 24.819C17.3551 24.5946 16.8325 24.601 16.3227 24.819C16.2458 24.8511 16.1592 24.9665 16.1496 25.0499C15.8482 27.5283 13.7994 29.4008 11.26 29.513C8.84893 29.6188 6.64302 27.9002 6.13322 25.502C6.08834 25.2936 6.01139 25.2262 5.8126 25.2487C5.7132 25.2583 5.61381 25.2519 5.53045 25.2519C5.508 25.2936 5.49518 25.3064 5.49518 25.3192C5.46312 27.2173 5.42143 29.1122 6.03704 30.9494C6.62057 32.6968 7.54398 34.2326 8.83931 35.544C9.07978 35.7876 9.18238 36.0634 9.09581 36.3936C9.01244 36.6982 8.80724 36.8906 8.50265 36.9643C8.19805 37.0381 7.93514 36.9483 7.71391 36.7271C6.8899 35.9063 6.19094 34.9893 5.61381 33.9825C5.52724 33.8318 5.4535 33.7901 5.26753 33.8254C4.39222 34.0018 3.57783 33.7869 2.86604 33.29C1.08978 32.0588 0.0990425 30.3627 0.0894237 28.1824C0.0830112 26.9512 0.528681 25.8643 1.43605 24.9922C1.50659 24.9248 1.54186 24.787 1.54186 24.6844C1.54827 20.0674 1.54507 15.4536 1.54507 10.8397C1.54507 8.74926 2.8949 7.0275 4.92126 6.5658C5.32525 6.47282 5.75488 6.47602 6.1749 6.47282C6.33842 6.46961 6.39934 6.43114 6.46026 6.28686C7.44138 3.97514 9.04771 2.23414 11.2953 1.11837C13.9116 -0.183376 16.6241 -0.35972 19.3719 0.647045C21.4111 1.3941 23.4566 2.15078 25.4413 3.0325C29.5004 4.83442 31.8955 7.97976 32.6875 12.3499C32.8574 13.2925 32.8285 14.248 32.8285 15.1971C32.8285 15.5241 32.835 15.8543 32.8253 16.1814C32.8157 16.5822 32.4983 16.9028 32.1007 16.938C31.6711 16.9733 31.2959 16.7008 31.2254 16.2968C31.2062 16.191 31.2062 16.0788 31.203 15.9698C31.1805 15.0111 31.219 14.046 31.126 13.0937C30.8984 10.7564 29.9365 8.73323 28.3462 7.01468C27.224 5.80271 25.8774 4.92419 24.3384 4.32783C22.5268 3.62887 20.7281 2.90105 18.9134 2.21491C14.3605 0.486732 9.29459 2.89143 7.74918 7.50523C7.62093 7.88678 7.43497 8.18817 6.99571 8.22985C6.88349 8.23947 6.75844 8.23305 6.64943 8.19779C5.08478 7.68799 3.17064 8.82301 3.17064 10.859C3.17064 15.2003 3.17064 19.5415 3.17064 23.8828C3.17064 23.9341 3.18026 23.9886 3.18667 24.0527C3.41111 24.0207 3.62593 23.9886 3.85678 23.9533C3.85678 23.854 3.85678 23.7706 3.85678 23.6872C3.85998 22.4143 3.82472 21.1415 3.87281 19.8686C3.98182 16.9958 4.95332 14.4308 6.72959 12.1703C6.84181 12.0293 6.95082 11.8882 7.07266 11.7567C7.39008 11.4169 7.92873 11.388 8.24294 11.7279C10.8432 14.5077 14.1136 16.1685 17.6533 17.3773C20.3273 18.2879 23.0751 18.8746 25.8742 19.2337C26.6853 19.3363 27.5029 19.4133 28.3173 19.4966C28.4328 19.5095 28.5482 19.4998 28.7021 19.4998C28.7021 19.2498 28.7021 18.9965 28.7021 18.74C28.7021 18.2013 29.0452 17.8262 29.5293 17.8326C30.0038 17.839 30.3341 18.2077 30.3341 18.7368C30.3341 20.3848 30.3341 22.0328 30.3341 23.6808C30.3341 23.7674 30.3341 23.8507 30.3341 23.9501C30.6162 23.9982 30.8888 24.0463 31.203 24.1008C31.203 24.0014 31.203 23.9149 31.203 23.8251C31.203 22.1162 31.203 20.404 31.203 18.6951C31.203 18.0795 31.6583 17.6915 32.2194 17.8198C32.5977 17.9063 32.8253 18.2206 32.8285 18.6534C32.8285 20.699 32.8317 22.7446 32.8253 24.7902C32.8253 24.9729 32.8734 25.1076 32.9953 25.2487C33.97 26.3741 34.2874 27.6983 34.0341 29.1347C33.7231 30.8885 32.8221 32.296 31.3312 33.29C30.5777 33.7901 29.7473 34.0082 28.8335 33.8126C28.7694 33.7998 28.6508 33.8767 28.6123 33.944C27.9999 34.9957 27.2657 35.9512 26.4 36.8072C25.0534 38.1378 23.4983 39.1382 21.7221 39.7923C21.5265 39.8628 21.4688 39.9526 21.472 40.1578C21.4848 40.985 21.4816 41.8122 21.4752 42.6394C21.472 42.7997 21.5265 42.8895 21.6643 42.9697C24.2518 44.4638 26.8328 45.9675 29.4235 47.4552C29.773 47.6572 29.9782 47.9105 30.0776 48.3081C30.4976 49.985 32.3187 58.3084 32.7804 59.9757C32.9696 60.6554 32.5079 61.1588 31.8699 61.1588C22.9212 61.1524 11.555 61.1524 2.60634 61.1588C2.04845 61.1588 1.60919 60.6041 1.75347 60.0686C2.228 58.3084 3.70929 49.8952 4.17099 48.1285C4.24474 47.8432 4.42749 47.6636 4.67758 47.5194C7.20411 46.0605 9.72103 44.5856 12.2572 43.1428C12.6259 42.9312 12.7638 42.7196 12.7413 42.2964C12.6996 41.5653 12.7253 40.8279 12.7349 40.0937C12.7381 39.9333 12.6868 39.866 12.5361 39.8115C11.555 39.4588 10.6348 38.9875 9.76912 38.4104C9.32986 38.1186 9.21123 37.6377 9.47735 37.2369C9.74027 36.8393 10.234 36.7591 10.6701 37.0477C12.7509 38.4232 15.0498 39.1157 17.5347 38.9779C21.9914 38.731 25.3002 36.5924 27.4324 32.6776C28.3398 31.0103 28.7245 29.1924 28.7149 27.2943C28.7021 26.6306 28.7053 25.9605 28.7053 25.2743ZM3.52653 59.7448C11.9013 59.7448 22.6551 59.7448 31.0042 59.7448C30.9881 59.6679 30.9817 59.5973 30.9625 59.53C30.629 58.2571 28.9041 50.3344 28.577 49.0583C28.5354 48.8916 28.452 48.7922 28.3077 48.7089C27.2336 48.0901 26.1595 47.468 25.0886 46.846C24.675 46.6056 24.2582 46.3683 23.8222 46.115C23.726 46.5895 23.633 47.032 23.5464 47.4745C23.3284 48.5582 23.1168 49.6451 22.8923 50.7288C22.7673 51.3188 22.1325 51.5624 21.6291 51.2322C21.5457 51.1777 21.4656 51.1136 21.3822 51.0526C20.7666 50.6006 20.151 50.1517 19.5162 49.6868C19.4584 49.7669 19.4103 49.8343 19.3623 49.9048C18.846 50.6679 18.333 51.431 17.8104 52.1909C11.3434 61.6109 22.8442 61.6205 16.3772 52.1877C16.0694 51.7356 15.7648 51.2835 15.457 50.8314C15.1973 50.4531 14.9408 50.0715 14.6747 49.6836C13.9854 50.1902 13.3152 50.6839 12.6387 51.1745C12.0712 51.5881 11.4171 51.3444 11.2761 50.6647C11.0965 49.7862 10.9266 48.9077 10.7502 48.0291C10.6252 47.3975 10.4969 46.7691 10.3687 46.131C10.3238 46.1471 10.3014 46.1535 10.2821 46.1631C8.7848 47.032 7.28427 47.8977 5.79015 48.773C5.71641 48.8179 5.65549 48.9205 5.62984 49.0071C5.47594 49.5553 5.33486 50.1036 5.19058 50.6551C4.98218 51.463 3.74456 58.9176 3.52653 59.7448ZM28.6925 21.1799C28.654 21.1671 28.6348 21.1575 28.6123 21.1575C26.836 21.0421 25.0726 20.8176 23.322 20.5034C20.3434 19.968 17.4385 19.1888 14.6523 17.9961C12.2123 16.9509 9.95188 15.6171 7.99927 13.7959C7.9159 13.719 7.82933 13.642 7.74277 13.5619C7.7107 13.6003 7.68826 13.6228 7.66902 13.6484C6.3769 15.4568 5.63305 17.4735 5.51762 19.6922C5.45029 20.9459 5.49197 22.2059 5.48556 23.4596C5.48556 23.5109 5.50159 23.5622 5.51121 23.6327C5.62343 23.6327 5.72603 23.6231 5.82222 23.6359C6.021 23.6616 6.09795 23.5846 6.14605 23.3858C6.3769 22.4464 6.96044 21.7923 7.83254 21.3851C8.58601 21.0324 9.39078 20.9042 10.2148 20.8657C11.2921 20.8144 12.3694 20.8112 13.4275 21.0613C14.6138 21.3467 15.5532 21.943 15.9957 23.1486C15.9989 23.1614 16.0181 23.1678 16.047 23.187C16.7459 22.9786 17.4641 22.9883 18.1791 23.1935C18.2016 23.1422 18.2208 23.1069 18.2336 23.0716C18.5222 22.2989 19.0544 21.7571 19.7887 21.4044C20.555 21.0356 21.3758 20.9042 22.2158 20.8657C23.3637 20.8144 24.5115 20.8048 25.6305 21.1158C26.7783 21.4364 27.6568 22.0713 28.0192 23.2672C28.0544 23.3858 28.0833 23.5045 28.1153 23.6231C28.3141 23.6231 28.4969 23.6231 28.6957 23.6231C28.6925 22.7991 28.6925 21.9975 28.6925 21.1799ZM23.2899 22.4721C23.0559 22.4721 22.8218 22.4624 22.5877 22.4753C21.8952 22.5137 21.1994 22.549 20.5518 22.8376C20.0965 23.0396 19.7887 23.373 19.6957 23.8732C19.3206 25.9156 20.9558 27.9996 23.2322 27.8746C25.2297 27.7656 26.5924 26.2202 26.5411 24.2644C26.5218 23.5205 26.1916 23.0524 25.499 22.7831C24.7904 22.5105 24.037 22.4977 23.2899 22.4721ZM7.65299 24.4407C7.65299 26.342 9.21123 27.9002 11.1061 27.8906C12.9145 27.8842 14.4374 26.4382 14.5432 24.6267C14.6106 23.4788 14.1745 22.8889 13.0459 22.6484C12.6291 22.5586 12.1995 22.5073 11.773 22.4849C10.8689 22.4336 9.9647 22.4464 9.07657 22.658C8.06019 22.8985 7.65299 23.4179 7.65299 24.4407ZM14.3637 40.3502C14.3605 40.4463 14.3541 40.5137 14.3541 40.5842C14.3541 41.498 14.3509 42.4086 14.3541 43.3224C14.3573 44.8582 15.5757 46.0797 17.0954 46.0797C18.6152 46.0797 19.84 44.8517 19.8432 43.3256C19.8464 42.4118 19.8432 41.5012 19.8432 40.5874C19.8432 40.5137 19.8368 40.4399 19.8304 40.3502C17.9964 40.7253 16.1848 40.7221 14.3637 40.3502ZM4.75774 32.2543C4.65834 31.9658 4.56216 31.6933 4.47559 31.4207C4.29924 30.866 4.15817 30.2953 3.94014 29.7567C3.73173 29.2437 3.46241 28.7756 2.78589 28.7082C2.38511 28.6698 2.17349 28.2465 2.22159 27.8105C2.26327 27.445 2.58389 27.134 2.97185 27.1372C3.26041 27.1372 3.55218 27.2013 3.83434 27.2366C3.83434 26.7107 3.83434 26.1721 3.83434 25.6142C3.7125 25.6366 3.61631 25.6527 3.52012 25.6815C2.42679 25.9957 1.70538 26.9576 1.72141 28.2145C1.74065 29.7919 2.4845 31.0103 3.74135 31.9273C4.02992 32.1389 4.36978 32.2543 4.75774 32.2543ZM30.3469 27.2237C30.6739 27.1949 30.9914 27.1307 31.3024 27.15C31.7096 27.1756 31.9885 27.5444 31.9757 27.9676C31.9661 28.3684 31.6679 28.7178 31.2735 28.7435C30.9785 28.7627 30.7701 28.9038 30.613 29.1282C30.4719 29.3302 30.3212 29.5419 30.2411 29.7727C29.9621 30.5807 29.7089 31.3983 29.4491 32.2127C29.4459 32.2223 29.462 32.2351 29.4908 32.2928C29.7153 32.2223 29.9654 32.1838 30.1802 32.0716C31.1645 31.5714 31.748 30.7218 32.1713 29.7406C32.5015 28.9776 32.572 28.192 32.3476 27.3872C32.0751 26.419 31.2382 25.6815 30.3437 25.6334C30.3469 26.1689 30.3469 26.7075 30.3469 27.2237ZM18.9999 47.2821C19.856 47.9105 20.6864 48.5197 21.5457 49.1481C21.8054 47.8528 22.0587 46.5992 22.3056 45.3487C22.3152 45.307 22.2896 45.2333 22.2575 45.2141C21.9401 45.0217 21.6162 44.8357 21.2796 44.6401C20.8724 45.8296 20.1285 46.6953 18.9999 47.2821ZM12.8888 44.653C12.5906 44.8261 12.3117 44.9928 12.0231 45.1499C11.8885 45.2205 11.8628 45.3006 11.8949 45.4513C12.0552 46.2048 12.1995 46.9615 12.3502 47.7181C12.4431 48.1862 12.5393 48.6544 12.6419 49.1513C13.5044 48.5165 14.3348 47.9073 15.1749 47.2885C13.9693 46.5703 13.7641 46.3298 12.8888 44.653ZM15.9989 48.7185C16.3644 49.2571 16.7235 49.783 17.0986 50.3344C17.477 49.7766 17.8297 49.2571 18.1952 48.7185C17.8232 48.446 17.4641 48.1798 17.0986 47.9105C16.7235 48.183 16.3676 48.446 15.9989 48.7185Z" fill="black"/>
<path d="M17.0925 33.0621C16.7206 33.5238 16.2845 33.8925 15.7651 34.1619C15.2008 34.4504 14.5981 34.5979 13.9632 34.5979C12.7 34.6011 11.4335 34.6011 10.1702 34.5979C9.58667 34.5979 9.25963 34.2645 9.26284 33.6809C9.26925 31.7604 10.8564 30.0226 12.7705 29.8655C13.3765 29.8174 13.9857 29.8366 14.5949 29.827C14.7584 29.8238 14.9219 29.827 15.0854 29.827C15.0501 29.6346 14.986 29.4551 14.9956 29.2787C15.0117 28.9485 15.1912 28.7048 15.5022 28.583C15.8132 28.4643 16.105 28.5156 16.3519 28.7401C16.6436 29.0062 16.9707 29.1377 17.3586 29.019C17.5093 28.9709 17.66 28.8844 17.7851 28.785C18.1698 28.4772 18.5321 28.4355 18.872 28.6824C19.2022 28.9196 19.2856 29.3012 19.1028 29.7501C19.0964 29.7629 19.0996 29.7789 19.0932 29.8302C19.1766 29.8302 19.26 29.8302 19.3401 29.8302C20.0423 29.843 20.7477 29.8142 21.4466 29.8719C23.3672 30.0322 24.9511 31.8021 24.9318 33.7258C24.9254 34.2677 24.5984 34.5979 24.0533 34.6011C22.774 34.6043 21.4915 34.6139 20.2122 34.5979C19.0451 34.5851 18.064 34.133 17.2753 33.2673C17.2144 33.2032 17.1599 33.1391 17.0925 33.0621ZM18.0768 31.459C18.0897 31.5071 18.0929 31.5391 18.1025 31.5648C18.4199 32.3599 19.292 32.9531 20.1513 32.9563C21.0779 32.9595 22.0077 32.9563 22.9343 32.9563C22.992 32.9563 23.0498 32.9499 23.1363 32.9467C22.8638 32.2894 22.4245 31.8309 21.7801 31.6193C21.4402 31.5071 21.0651 31.475 20.7028 31.4654C19.8339 31.4462 18.9618 31.459 18.0768 31.459ZM16.1306 31.4686C15.0694 31.4686 14.0562 31.4333 13.043 31.4782C12.1677 31.5199 11.5265 31.9944 11.1257 32.7768C11.1 32.8281 11.0904 32.8858 11.0648 32.9595C12.0459 32.9595 12.9981 32.9627 13.9504 32.9563C14.1139 32.9563 14.2806 32.9435 14.4377 32.9082C15.2393 32.7319 15.7876 32.2477 16.1306 31.4686Z" fill="black"/>
<path d="M3.52649 59.7446C3.74131 58.9173 4.98213 51.4596 5.19054 50.6548C5.33482 50.1033 5.4759 49.5551 5.6298 49.0068C5.65545 48.9202 5.71636 48.8176 5.79011 48.7727C7.28423 47.8974 8.78475 47.0317 10.2821 46.1628C10.3013 46.15 10.3238 46.1468 10.3686 46.1308C10.4969 46.7688 10.6251 47.3973 10.7502 48.0289C10.9265 48.9074 11.0965 49.7859 11.276 50.6644C11.4171 51.3474 12.068 51.5878 12.6387 51.1742C13.312 50.6837 13.9853 50.1867 14.6747 49.6833C14.9408 50.0713 15.1973 50.4496 15.457 50.8312C15.7648 51.2832 16.0694 51.7353 16.3772 52.1874C22.8442 61.6202 11.3433 61.6106 17.8104 52.1906C18.333 51.4307 18.846 50.6676 19.3622 49.9045C19.4103 49.834 19.4584 49.7667 19.5161 49.6865C20.1509 50.1514 20.7665 50.6035 21.3821 51.0524C21.4655 51.1133 21.5425 51.1742 21.629 51.2319C22.1324 51.5622 22.7673 51.3185 22.8923 50.7286C23.1199 49.6448 23.3283 48.5611 23.5464 47.4742C23.6361 47.0317 23.7259 46.5893 23.8221 46.1147C24.2582 46.3648 24.675 46.6053 25.0886 46.8458C26.1627 47.4678 27.2336 48.093 28.3077 48.7086C28.452 48.792 28.5353 48.8914 28.577 49.0581C28.904 50.3342 30.629 58.2536 30.9625 59.5297C30.9785 59.5971 30.9881 59.6644 31.0041 59.7446C22.6582 59.7446 11.9012 59.7446 3.52649 59.7446Z" fill="white"/>
<path d="M23.2899 22.472C24.0369 22.4976 24.7872 22.5104 25.499 22.783C26.1915 23.0491 26.5186 23.5204 26.541 24.2643C26.5955 26.2201 25.2297 27.7655 23.2322 27.8745C20.9589 27.9996 19.3237 25.9155 19.6957 23.8731C19.7886 23.3729 20.0964 23.0395 20.5517 22.8375C21.1994 22.5489 21.8951 22.5104 22.5877 22.4752C22.8218 22.4624 23.0558 22.472 23.2899 22.472Z" fill="white"/>
<path d="M7.65295 24.4406C7.65295 23.4178 8.06015 22.8984 9.07653 22.658C9.96467 22.4496 10.8688 22.4335 11.773 22.4848C12.1994 22.5105 12.6291 22.5618 13.0459 22.6483C14.1745 22.8888 14.6073 23.4788 14.5432 24.6266C14.4406 26.4381 12.9176 27.8874 11.1061 27.8938C9.2112 27.9002 7.65295 26.342 7.65295 24.4406Z" fill="white"/>
<path d="M19.0006 47.2821C20.1292 46.6953 20.8731 45.8296 21.2803 44.6433C21.6169 44.8389 21.9408 45.0249 22.2582 45.2172C22.2902 45.2365 22.3159 45.3102 22.3063 45.3519C22.0594 46.6023 21.8061 47.856 21.5464 49.1513C20.6871 48.5197 19.8567 47.9105 19.0006 47.2821Z" fill="white"/>
<path d="M12.8894 44.6526C13.7615 46.3295 13.9699 46.5699 15.1787 47.2849C14.3354 47.9037 13.5082 48.5129 12.6457 49.1478C12.5431 48.6508 12.4469 48.1827 12.3539 47.7146C12.2032 46.9579 12.059 46.2012 11.8987 45.4477C11.8666 45.3003 11.8922 45.2201 12.0269 45.1463C12.3123 44.9924 12.5944 44.8257 12.8894 44.6526Z" fill="white"/>
<path d="M15.9995 48.7181C16.3714 48.4456 16.7273 48.1827 17.0961 47.9133C17.4616 48.1827 17.8207 48.4456 18.1926 48.7213C17.8271 49.2568 17.4744 49.7794 17.0961 50.3373C16.7241 49.7826 16.365 49.2568 15.9995 48.7181Z" fill="white"/>
<path d="M18.0769 31.4593C18.9618 31.4593 19.8339 31.4464 20.706 31.4657C21.0683 31.4753 21.4435 31.5074 21.7833 31.6196C22.4278 31.8312 22.8671 32.2897 23.1396 32.947C23.053 32.9502 22.9953 32.9566 22.9376 32.9566C22.011 32.9566 21.0812 32.9598 20.1546 32.9566C19.2921 32.9534 18.4232 32.3602 18.1058 31.5651C18.0929 31.5394 18.0865 31.5106 18.0769 31.4593Z" fill="white"/>
<path d="M16.1308 31.4687C15.7878 32.2478 15.2395 32.732 14.4379 32.9115C14.2808 32.9468 14.1141 32.9564 13.9506 32.9596C12.9983 32.9628 12.0493 32.9628 11.0649 32.9628C11.0874 32.8891 11.1002 32.8313 11.1259 32.78C11.5266 31.9945 12.1679 31.5232 13.0432 31.4815C14.0564 31.4302 15.0696 31.4687 16.1308 31.4687Z" fill="white"/>
<path d="M32.8289 15.3958H31.2034V19.1022H32.8289V15.3958Z" fill="black"/>
</svg>
