<svg width="56" height="56" viewBox="0 0 56 56" fill="none" xmlns="http://www.w3.org/2000/svg">
<circle cx="27.9146" cy="27.9627" r="27.9146" fill="#2DA5D8"/>
<path d="M9.40489 28.4265C12.6033 26.7551 16.1736 25.3601 19.5096 23.958C25.2487 21.6614 31.0106 19.4047 36.8306 17.3037C37.963 16.9457 39.9976 16.5956 40.1971 18.1876C40.0879 20.4411 39.6385 22.6814 39.3302 24.9217C38.5478 29.8484 37.6436 34.7582 36.7618 39.6686C36.4579 41.3042 34.2982 42.1509 32.9162 41.1042C29.5951 38.9759 26.2485 36.8685 22.9698 34.6909C21.8958 33.6555 22.8917 32.1687 23.8509 31.4294C26.5863 28.872 29.4872 26.6991 32.0796 24.0096C32.7789 22.4075 30.7127 23.7577 30.0312 24.1714C26.2864 26.6195 22.6333 29.2172 18.6852 31.3688C16.6685 32.422 14.318 31.522 12.3022 30.9342C10.4948 30.2243 7.8463 29.5091 9.40471 28.4266L9.40489 28.4265Z" fill="white"/>
</svg>
