<svg width="39" height="39" viewBox="0 0 39 39" fill="none" xmlns="http://www.w3.org/2000/svg">
<circle cx="19.1176" cy="19.1506" r="19.1176" fill="white"/>
<path d="M6.44101 19.4681C8.63148 18.3234 11.0767 17.3681 13.3613 16.4078C17.2918 14.835 21.2379 13.2895 25.2238 11.8506C25.9993 11.6054 27.3927 11.3656 27.5294 12.4559C27.4546 13.9993 27.1468 15.5336 26.9357 17.0679C26.3999 20.4419 25.7806 23.8044 25.1766 27.1674C24.9686 28.2876 23.4894 28.8675 22.543 28.1506C20.2685 26.693 17.9765 25.2497 15.7311 23.7584C14.9955 23.0493 15.6776 22.031 16.3345 21.5247C18.2078 19.7732 20.1946 18.2851 21.97 16.4432C22.4489 15.3459 21.0339 16.2706 20.5671 16.554C18.0025 18.2306 15.5007 20.0097 12.7967 21.4832C11.4156 22.2045 9.80582 21.5881 8.42528 21.1856C7.18746 20.6994 5.37359 20.2096 6.44088 19.4682L6.44101 19.4681Z" fill="#3EC9FE"/>
</svg>
