<svg width="50" height="50" viewBox="0 0 50 50" fill="none" xmlns="http://www.w3.org/2000/svg">
<g clip-path="url(#clip0)">
<path d="M12.593 3.90742L14.876 3.83789C15.3439 3.82363 15.5556 3.24609 15.2076 2.93281L13.7538 1.62393C13.1194 1.05273 13.5234 0 14.3771 0H20.1816H30.0146C33.8873 0 37.0266 3.13936 37.0266 7.01201V16.9135H13.1696V8.77461C13.1696 8.14863 13.0222 7.53145 12.739 6.97305L11.8337 5.18711C11.5416 4.61113 11.9475 3.92715 12.593 3.90742Z" fill="#365E7D"/>
<path d="M30.0145 0H27.8359C31.7086 0 34.8479 3.13936 34.8479 7.01201V16.9135H37.0265V7.01201C37.0265 3.13936 33.8871 0 30.0145 0V0Z" fill="#2B4D66"/>
<path d="M38.9939 49.9869H11.0061C10.5984 49.9869 10.2681 49.6564 10.2681 49.2489V35.1067C10.2681 29.7054 14.6468 25.3267 20.0481 25.3267H29.9519C35.3532 25.3267 39.7319 29.7054 39.7319 35.1067V49.2489C39.7319 49.6565 39.4016 49.9869 38.9939 49.9869Z" fill="#61A2F9"/>
<path d="M29.9518 25.3267H27.1833C32.5847 25.3267 36.9634 29.7054 36.9634 35.1067V49.9869H38.9939C39.4015 49.9869 39.7319 49.6564 39.7319 49.2489V35.1067C39.7319 29.7054 35.3532 25.3267 29.9518 25.3267Z" fill="#5490F9"/>
<path d="M25.0001 32.8805L22.2761 34.8684C22.0217 35.054 21.6604 34.9415 21.5562 34.6443L18.2412 25.1832L20.2278 23.2393L21.5723 26.9434L25.0001 32.8805Z" fill="#F6F1F1"/>
<path d="M25 32.8805L27.724 34.8684C27.9784 35.054 28.3397 34.9415 28.4438 34.6443L31.7589 25.1832L29.7723 23.2393L28.4278 26.9434L25 32.8805Z" fill="#F6F1F1"/>
<path d="M25 32.8806L28.4277 26.9436H21.5723L25 32.8806Z" fill="#E2A770"/>
<path d="M25.0001 28.7116C19.7412 28.7116 15.478 24.4484 15.478 19.1896V10.9443C15.478 10.265 15.662 9.63497 15.9799 9.0965C16.9708 7.41798 19.2351 7.04025 20.7833 8.22443C23.6245 10.3975 26.7288 11.0973 30.1631 9.94884C32.2185 9.26154 34.4212 10.6695 34.5184 12.8346C34.5208 12.8894 34.5221 12.9444 34.5221 12.9997V19.1896C34.5222 24.4484 30.259 28.7116 25.0001 28.7116Z" fill="#F1D0A5"/>
<path d="M34.5184 12.8347C34.4211 10.6696 32.2185 9.26159 30.1631 9.94899C30.1452 9.95495 30.1275 9.96012 30.1097 9.96598C31.2979 10.3849 32.2144 11.4557 32.2763 12.8347C32.2787 12.8895 32.28 12.9446 32.28 12.9999V19.1897C32.28 24.0693 28.6095 28.0909 23.8789 28.6458C24.2467 28.6889 24.6206 28.7118 24.9999 28.7118C30.2588 28.7118 34.522 24.4486 34.522 19.1897V12.9999C34.5221 12.9445 34.5209 12.8895 34.5184 12.8347Z" fill="#F1B986"/>
<path d="M20.6327 16.9428C20.2161 16.9428 19.8784 16.6051 19.8784 16.1885V15.1381C19.8784 14.7215 20.2161 14.3838 20.6327 14.3838C21.0493 14.3838 21.387 14.7215 21.387 15.1381V16.1885C21.387 16.6051 21.0493 16.9428 20.6327 16.9428Z" fill="#2B4D66"/>
<path d="M29.3673 16.9428C28.9507 16.9428 28.613 16.6051 28.613 16.1885V15.1381C28.613 14.7215 28.9507 14.3838 29.3673 14.3838C29.7839 14.3838 30.1216 14.7215 30.1216 15.1381V16.1885C30.1217 16.6051 29.784 16.9428 29.3673 16.9428Z" fill="#2B4D66"/>
<path d="M24.9999 24.219C24.3071 24.219 23.6145 24.0105 22.9408 23.5935C22.5866 23.3742 22.4773 22.9094 22.6966 22.5551C22.9159 22.2008 23.3809 22.0916 23.7351 22.3108C24.5981 22.8451 25.402 22.8449 26.2649 22.3108C26.619 22.0919 27.0842 22.2009 27.3034 22.5551C27.5228 22.9094 27.4133 23.3742 27.0592 23.5935C26.3855 24.0104 25.6927 24.219 24.9999 24.219Z" fill="#DD636E"/>
<path d="M15.4778 18.3011H13.9511C12.8919 18.3011 12.0332 17.4424 12.0332 16.3832C12.0332 15.324 12.8919 14.4653 13.9511 14.4653H15.4778V18.3011Z" fill="#E2A770"/>
<path d="M35.0248 23.7555H28.5465C28.1299 23.7555 27.7922 23.4178 27.7922 23.0012C27.7922 22.5846 28.1299 22.2469 28.5465 22.2469H35.0248C35.3246 22.2469 35.5683 22.0031 35.5683 21.7035V18.0902C35.5683 17.6736 35.906 17.3359 36.3226 17.3359C36.7392 17.3359 37.0769 17.6736 37.0769 18.0902V21.7035C37.077 22.835 36.1563 23.7555 35.0248 23.7555Z" fill="#2B4D66"/>
<path d="M28.6577 24.1584H26.683C26.1727 24.1584 25.759 23.7447 25.759 23.2345V22.8136C25.759 22.3033 26.1727 21.8896 26.683 21.8896H28.6577C29.1679 21.8896 29.5816 22.3033 29.5816 22.8136V23.2345C29.5816 23.7448 29.1679 24.1584 28.6577 24.1584Z" fill="#365E7D"/>
<path d="M35.3579 49.9999H14.642L12.8056 40.1482C12.6272 39.1909 13.3619 38.3066 14.3357 38.3066H35.6642C36.638 38.3066 37.3727 39.1909 37.1943 40.1482L35.3579 49.9999Z" fill="#365E7D"/>
<path d="M35.6642 38.3066H33.6215C34.5954 38.3066 35.33 39.1909 35.1516 40.1482L33.3152 50H35.3579L37.1943 40.1482C37.3727 39.1909 36.638 38.3066 35.6642 38.3066Z" fill="#2B4D66"/>
<path d="M25 48.2067C26.1837 48.2067 27.1432 47.2471 27.1432 46.0634C27.1432 44.8797 26.1837 43.9202 25 43.9202C23.8163 43.9202 22.8567 44.8797 22.8567 46.0634C22.8567 47.2471 23.8163 48.2067 25 48.2067Z" fill="#F6F1F1"/>
<path d="M24.9999 43.9202C24.7149 43.9202 24.4436 43.9769 24.1948 44.0779C24.9793 44.3962 25.533 45.1647 25.533 46.0634C25.533 46.9622 24.9792 47.7305 24.1948 48.049C24.4436 48.15 24.7149 48.2067 24.9999 48.2067C26.1836 48.2067 27.1432 47.2471 27.1432 46.0634C27.1432 44.8797 26.1836 43.9202 24.9999 43.9202Z" fill="#DAE4EA"/>
<path d="M34.8237 38.3065H29.6689V36.6676C29.6689 36.1804 30.064 35.7854 30.5512 35.7854H33.9414C34.4286 35.7854 34.8236 36.1804 34.8236 36.6676V38.3065H34.8237Z" fill="#F6F1F1"/>
<path d="M34.522 19.0959H36.3225C37.7412 19.0959 38.8914 17.9458 38.8914 16.527V16.2394C38.8914 14.8206 37.7413 13.6704 36.3225 13.6704H34.522V19.0959Z" fill="#61A2F9"/>
<path d="M36.3225 13.6707H34.522V13.6711C35.9312 13.6823 37.0703 14.8277 37.0703 16.2395V16.5271C37.0703 17.9389 35.9312 19.0844 34.522 19.0955V19.0959H36.3225C37.7412 19.0959 38.8914 17.9458 38.8914 16.527V16.2394C38.8914 14.8208 37.7412 13.6707 36.3225 13.6707Z" fill="#5490F9"/>
</g>
<defs>
<clipPath id="clip0">
<rect width="50" height="50" fill="white"/>
</clipPath>
</defs>
</svg>
