<svg width="46" height="46" viewBox="0 0 46 46" fill="none" xmlns="http://www.w3.org/2000/svg">
<path d="M44.0936 25.7773V27.2539C44.0936 29.743 43.0529 32.1055 41.2459 33.807L38.5107 33.3922C39.3897 31.9437 39.8748 30.2562 39.8748 28.5125V25.925C39.8748 24.4695 39.5373 23.0563 38.9186 21.7906C38.4615 20.8484 37.8357 19.9906 37.0693 19.2523L37.0764 19.2453C37.4701 18.5281 38.2225 18.0781 39.0592 18.0781C39.5443 18.0781 40.0154 18.2328 40.4092 18.5211C42.7295 20.2367 44.0936 22.9227 44.0936 25.7773Z" fill="#FCD770"/>
<path d="M36.2469 18.5281C36.5422 18.7531 36.8234 18.9922 37.0695 19.2523C37.8359 19.9906 38.4617 20.8484 38.9187 21.7906C39.5375 23.0563 39.875 24.4695 39.875 25.925V28.5125C39.875 30.2562 39.3898 31.9437 38.5109 33.3922L31.9156 32.3797V32.3727C31.5992 31.1562 31.4375 29.9117 31.4375 28.6461V25.7914C31.4375 24.8141 31.5359 23.8367 31.7258 22.8805C32.0703 22.9578 32.443 23 32.8438 23C34.3977 23 35.6562 22.3672 35.6562 21.5937C35.6562 21.0945 35.1359 20.6586 34.3555 20.4125L34.5664 18.1063C34.6789 18.0852 34.7984 18.0781 34.918 18.0781C35.3961 18.0781 35.8672 18.2398 36.2469 18.5281Z" fill="#FCD770"/>
<path d="M27.7602 18.3805C28.1328 18.5914 28.4352 18.9008 28.6391 19.2875V19.2945C26.8461 21.0172 25.8125 23.4078 25.8125 25.925V28.5125C25.8125 29.5461 25.9883 30.5586 26.3188 31.5148L22.3742 30.9102C21.868 29.7711 21.5938 28.5336 21.5938 27.2539V25.7773C21.5938 25.25 21.643 24.7227 21.7344 24.2094C21.7625 24.0617 21.7906 23.9141 21.8258 23.7664C22.3039 21.6922 23.5133 19.8289 25.2781 18.5211C25.6719 18.2328 26.143 18.0781 26.6281 18.0781C27.0359 18.0781 27.4227 18.1836 27.7602 18.3805Z" fill="#FCD770"/>
<path d="M31.1211 18.0922L31.332 20.4125C30.5516 20.6586 30.0312 21.0945 30.0312 21.5938C30.0312 22.1703 30.7273 22.6625 31.7258 22.8805C31.5359 23.8367 31.4375 24.8141 31.4375 25.7914V28.6461C31.4375 29.9117 31.5992 31.1563 31.9156 32.3727L27.5 31.6977L26.3188 31.5148C25.9883 30.5586 25.8125 29.5461 25.8125 28.5125V25.925C25.8125 23.4078 26.8461 21.0172 28.6391 19.2945V19.2875C28.9203 19.0133 29.2156 18.7602 29.532 18.5281C29.9258 18.2398 30.4039 18.0781 30.8961 18.0781C30.9734 18.0781 31.0438 18.0852 31.1141 18.0922H31.1211Z" fill="#FCD770"/>
<path d="M35.6562 21.5938C35.6562 22.3672 34.3977 23 32.8438 23C32.443 23 32.0703 22.9578 31.7258 22.8805C30.7273 22.6625 30.0312 22.1703 30.0312 21.5938C30.0312 21.0945 30.5516 20.6586 31.332 20.4125L31.1211 18.0922L30.7414 13.9508C30.7344 13.8875 30.7344 13.8313 30.7344 13.768C30.7344 12.65 31.6344 11.75 32.7523 11.75H32.9352C33.4906 11.75 33.9969 11.975 34.3625 12.3406C34.7281 12.7063 34.9531 13.2125 34.9531 13.768C34.9531 13.8313 34.9531 13.8875 34.9461 13.9508L34.5664 18.1063L34.3555 20.4125C35.1359 20.6586 35.6562 21.0945 35.6562 21.5938Z" fill="#CF9E76"/>
<path d="M17.3117 4.81016C17.5578 4.75391 17.818 4.71875 18.0781 4.71875C19.2242 4.71875 20.2508 5.26719 20.8906 6.125L20.8766 6.19531C20.6516 6.14609 20.4266 6.125 20.1875 6.125C18.732 6.125 17.4875 7.00391 16.9531 8.2625C16.8617 8.25547 16.7703 8.23438 16.6719 8.23438C14.907 8.23438 13.4586 9.54219 13.2055 11.2367C11.1523 11.8273 9.64062 13.7188 9.64062 15.9688C9.64062 17.8883 10.7375 19.5406 12.3406 20.3563C11.968 20.9117 11.75 21.5797 11.75 22.2969C11.75 23.5484 12.4109 24.6383 13.3953 25.2641C13.2477 25.6508 13.1562 26.0727 13.1562 26.5156C13.1562 28.4562 14.7312 30.0523 16.6719 30.0523C16.4891 30.0383 16.3133 30.0312 16.1375 30.0312H15.9688C14.5977 30.0312 13.318 30.425 12.2352 31.107L10.3438 25.8125C8.40312 25.8125 6.82812 24.2375 6.82812 22.2969C6.82812 21.8539 6.91953 21.432 7.06719 21.0453C6.08281 20.4195 5.42188 19.3297 5.42188 18.0781C5.42188 17.3609 5.63984 16.693 6.0125 16.1375C4.40938 15.3219 3.3125 13.6695 3.3125 11.75C3.3125 9.5 4.82422 7.60859 6.87734 7.01797C7.13047 5.32344 8.57891 4.01562 10.3438 4.01562C10.4422 4.01562 10.5336 4.03672 10.625 4.04375C11.1594 2.78516 12.4039 1.90625 13.8594 1.90625C15.5891 1.90625 17.0234 3.15781 17.3117 4.81016Z" fill="#8CC152"/>
<path d="M26.9094 14.9141C27.5352 15.5469 27.9219 16.4187 27.9219 17.375C27.9219 17.7055 27.8727 18.0289 27.7883 18.3313L27.7602 18.3805C27.4227 18.1836 27.0359 18.0781 26.6281 18.0781C26.143 18.0781 25.6719 18.2328 25.2781 18.5211C23.5133 19.8289 22.3039 21.6922 21.8258 23.7664C21.7906 23.9141 21.7625 24.0617 21.7344 24.2094C21.643 24.7227 21.5938 25.25 21.5938 25.7773V27.2539C21.5938 28.5336 21.868 29.7711 22.3742 30.9102L17.2063 30.1156C17.0234 30.0875 16.8477 30.0664 16.6719 30.0523C14.7312 30.0523 13.1562 28.4562 13.1562 26.5156C13.1562 26.0727 13.2477 25.6508 13.3953 25.2641C12.4109 24.6383 11.75 23.5484 11.75 22.2969C11.75 21.5797 11.968 20.9117 12.3406 20.3562C10.7375 19.5406 9.64062 17.8883 9.64062 15.9688C9.64062 13.7188 11.1523 11.8273 13.2055 11.2367C13.4586 9.54219 14.907 8.23438 16.6719 8.23438C16.7703 8.23438 16.8617 8.25547 16.9531 8.2625C17.4875 7.00391 18.732 6.125 20.1875 6.125C20.4266 6.125 20.6516 6.14609 20.8766 6.19531C22.2898 6.47656 23.3938 7.60156 23.6398 9.02891C23.8859 8.97266 24.1461 8.9375 24.4062 8.9375C26.3469 8.9375 27.9219 10.5125 27.9219 12.4531C27.9219 13.4094 27.5352 14.2812 26.9094 14.9141Z" fill="#B4DD7F"/>
<path d="M5.28125 35.6562H9.07812C8.98672 36.1062 8.9375 36.5773 8.9375 37.0625C8.9375 37.5477 8.98672 38.0187 9.07812 38.4688H5.28125H3.3125C2.92578 38.4688 2.57422 38.3141 2.32109 38.0539C2.06094 37.8008 1.90625 37.4492 1.90625 37.0625C1.90625 36.2891 2.53906 35.6562 3.3125 35.6562H5.28125Z" fill="#B4DD7F"/>
<path d="M5.55547 32.8719L9.73906 33.807C9.43672 34.3836 9.21172 35.0023 9.07813 35.6562H5.28125C4.58516 35.6562 4.01562 35.0867 4.01562 34.3906V34.1094C4.01562 33.4133 4.58516 32.8438 5.28125 32.8438C5.37266 32.8438 5.46406 32.8508 5.55547 32.8719Z" fill="#B4DD7F"/>
<path d="M9.73906 40.318L5.55547 41.2531C5.46406 41.2742 5.37266 41.2812 5.28125 41.2812C4.58516 41.2812 4.01562 40.7117 4.01562 40.0156V39.7344C4.01562 39.0383 4.58516 38.4688 5.28125 38.4688H9.07813C9.21172 39.1227 9.43672 39.7414 9.73906 40.318Z" fill="#B4DD7F"/>
<path d="M43.3063 34.925C42.807 34.3484 42.1109 33.9406 41.3164 33.8211L41.2461 33.807L38.5109 33.3922L31.9156 32.3797V32.3727L27.5 31.6977L26.3188 31.5148L22.3742 30.9102L17.2063 30.1156C17.0234 30.0875 16.8477 30.0664 16.6719 30.0523C16.4891 30.0383 16.3133 30.0312 16.1375 30.0312H15.9688C14.5977 30.0312 13.318 30.425 12.2352 31.107C11.1805 31.768 10.3156 32.7031 9.73906 33.807C9.43672 34.3836 9.21172 35.0023 9.07812 35.6562C8.98672 36.1062 8.9375 36.5773 8.9375 37.0625C8.9375 37.5477 8.98672 38.0188 9.07812 38.4688C9.21172 39.1227 9.43672 39.7414 9.73906 40.318C10.0695 40.9508 10.4984 41.5344 10.9977 42.0336C12.2703 43.3062 14.0281 44.0938 15.9688 44.0938H16.1375C16.4891 44.0938 16.8477 44.0656 17.2063 44.0094L27.5 42.4273L41.3164 40.3039C42.9125 40.0578 44.0938 38.6797 44.0938 37.0625C44.0938 36.2539 43.7984 35.5016 43.3063 34.925Z" fill="#FF826E"/>
<path d="M44.7969 25.7766C44.7969 22.7152 43.3126 19.7916 40.8263 17.9565C40.3194 17.581 39.6908 17.375 39.0573 17.375C38.2641 17.375 37.5209 17.6921 36.9753 18.2314C36.8734 18.1463 36.7805 18.0528 36.6751 17.972C36.2848 17.6738 35.8166 17.4966 35.3356 17.4235L35.6457 14.0141C35.6527 13.9325 35.6562 13.8502 35.6562 13.768C35.6562 12.2675 34.4356 11.0469 32.9352 11.0469H32.7523C31.2519 11.0469 30.0312 12.2675 30.0312 13.768C30.0312 13.8502 30.0348 13.9325 30.0425 14.0148L30.354 17.439C29.9082 17.5234 29.4772 17.6956 29.113 17.967C28.9871 18.0612 28.8753 18.1695 28.7544 18.2687C28.6918 18.204 28.6257 18.1435 28.5575 18.0852C28.5976 17.851 28.625 17.6141 28.625 17.375C28.625 16.482 28.3466 15.6277 27.8305 14.9141C28.3466 14.2004 28.625 13.3468 28.625 12.4531C28.625 10.0456 26.588 8.09445 24.1609 8.24211C23.7095 6.94836 22.6569 5.97312 21.3631 5.59695C20.5067 4.52891 19.2158 3.93617 17.8327 4.02336C17.2505 2.35484 15.6741 1.20312 13.8594 1.20312C12.3371 1.20312 10.9513 2.01734 10.2045 3.31461C8.34266 3.37719 6.7332 4.69133 6.27195 6.48148C4.09508 7.29359 2.60938 9.40086 2.60938 11.75C2.60938 13.6337 3.53609 15.3556 5.06961 16.3962C4.83828 16.9243 4.71875 17.4952 4.71875 18.0781C4.71875 19.3438 5.28125 20.5201 6.24664 21.3167C6.16578 21.643 6.125 21.9713 6.125 22.2969C6.125 24.4513 7.74922 26.2344 9.8375 26.4854L11.3928 30.8412C10.5962 31.4284 9.91766 32.1631 9.39523 33.0069L5.71156 32.1884C5.57164 32.1561 5.4275 32.1406 5.28266 32.1406C4.19633 32.1406 3.3125 33.0245 3.3125 34.1108V34.3892C3.3125 34.5861 3.35047 34.7731 3.40461 34.9531H3.3125C2.14953 34.9531 1.20312 35.8995 1.20312 37.0625C1.20312 38.2255 2.14953 39.1719 3.3125 39.1719H3.40461C3.35047 39.3519 3.3125 39.5389 3.3125 39.7358V40.0142C3.3125 41.1005 4.19633 41.9844 5.28266 41.9844C5.4275 41.9844 5.57164 41.9689 5.71016 41.9373L9.39523 41.1181C10.76 43.3217 13.1921 44.7969 15.9688 44.7969H16.134C16.5249 44.7969 16.9208 44.7666 17.3096 44.7069L41.4205 40.9979C43.3766 40.6963 44.7969 39.0418 44.7969 37.0625C44.7969 35.4798 43.8807 34.1178 42.5166 33.4759C43.9735 31.7356 44.7969 29.5278 44.7969 27.2546V25.7766ZM35.8201 19.0892C37.9189 20.6938 39.1719 23.2496 39.1719 25.9278V28.5104C39.1719 29.9518 38.8126 31.363 38.1355 32.6223L32.4971 31.7546C32.2651 30.7344 32.1406 29.6923 32.1406 28.6461V25.7914C32.1406 25.0827 32.2116 24.3746 32.3192 23.6729C32.4915 23.6877 32.663 23.7031 32.8438 23.7031C34.8484 23.7031 36.3594 22.7961 36.3594 21.5938C36.3594 20.93 35.9002 20.3408 35.105 19.9541L35.2084 18.8164C35.4277 18.8607 35.6387 18.9493 35.8201 19.0892ZM32.7523 12.4531H32.9359C33.6608 12.4531 34.2507 13.043 34.2507 13.768C34.2507 13.808 34.2493 13.8481 34.2451 13.8875L33.6066 20.9096L34.1431 21.0819C34.7591 21.2787 34.9531 21.5382 34.9531 21.5938C34.9531 21.7688 34.205 22.2969 32.8438 22.2969C31.4825 22.2969 30.7344 21.7688 30.7344 21.5938C30.7344 21.5382 30.9284 21.2787 31.5444 21.0812L32.0809 20.9089L31.4424 13.8875C31.4389 13.8474 31.4375 13.8073 31.4375 13.768C31.4375 13.043 32.0274 12.4531 32.7523 12.4531ZM30.4812 18.8396L30.5825 19.9541C29.7873 20.3408 29.3281 20.93 29.3281 21.5938C29.3281 22.3686 29.9602 23.0162 30.9425 23.3818C30.8166 24.1798 30.7344 24.9856 30.7344 25.7914V28.6461C30.7344 29.6122 30.8272 30.5769 31.0072 31.5254L26.8623 30.8877C26.6366 30.1149 26.5156 29.3183 26.5156 28.5097V25.9271C26.5156 23.2531 27.8009 20.698 29.9539 19.0934C30.1107 18.9767 30.2914 18.8909 30.4812 18.8396ZM22.8826 30.2752C22.5008 29.3091 22.2969 28.2973 22.2969 27.2546V25.7759C22.2969 23.1589 23.5681 20.6586 25.6965 19.0864C25.9637 18.8895 26.2955 18.7812 26.6302 18.7812C27.0549 18.7812 27.4459 18.9521 27.732 19.2383C26.0741 21.0552 25.1094 23.4416 25.1094 25.9278V28.5104C25.1094 29.2353 25.1959 29.9525 25.3527 30.6556L22.8826 30.2752ZM22.9487 9.14914L23.0766 9.87266L23.7938 9.71305C24.0118 9.66453 24.2122 9.64062 24.4062 9.64062C25.9573 9.64062 27.2188 10.902 27.2188 12.4531C27.2188 13.1921 26.9319 13.891 26.4116 14.4212L25.9278 14.9141L26.4116 15.407C26.9319 15.9371 27.2188 16.636 27.2188 17.375C27.2188 17.3961 27.2145 17.4172 27.2145 17.439C27.024 17.401 26.8299 17.375 26.6302 17.375C25.9967 17.375 25.3681 17.581 24.8612 17.9558C23.5815 18.9001 22.5739 20.1355 21.8905 21.527C21.624 20.6973 21.3441 19.9027 21.0559 19.1483C21.7063 15.7128 24.1187 13.7244 24.1433 13.704L23.7031 13.1562L23.2637 12.6071C23.1659 12.6852 21.264 14.2384 20.1959 17.0403C18.7327 13.6808 17.3518 11.5074 17.2632 11.3696L16.0798 12.1304C16.0988 12.1592 17.1711 13.846 18.4191 16.5312C16.3161 15.7395 13.9262 15.9582 13.7891 15.9723L13.929 17.3715C14.9865 17.2653 17.9818 17.3166 19.381 18.7447C19.8739 19.9562 20.3598 21.2844 20.7887 22.7075C18.6512 21.6113 16.1009 21.5938 15.9688 21.5938V23C16.0018 23 19.1321 23.0211 20.9848 24.4941C20.9272 24.9174 20.8906 25.3449 20.8906 25.7766V27.2553C20.8906 28.2052 21.0369 29.1341 21.3083 30.0341L17.3096 29.4188C17.0987 29.3865 16.8856 29.3647 16.6719 29.3492C15.1208 29.3492 13.8594 28.078 13.8594 26.5163C13.8594 26.1887 13.9248 25.8526 14.0527 25.5158L14.258 24.9779L13.7708 24.6699C12.946 24.1482 12.4531 23.2616 12.4531 22.2969C12.4531 21.7435 12.6155 21.207 12.9228 20.7444L13.3609 20.0863L12.6563 19.7284C11.2297 19.0027 10.3438 17.5627 10.3438 15.9688C10.3438 14.0977 11.6009 12.4313 13.4016 11.9159L13.8383 11.7908L13.9037 11.3415C14.1041 9.97109 15.2945 8.9375 16.6719 8.9375C16.6979 8.9375 16.7232 8.94312 16.7485 8.94664C16.7977 8.95367 16.8477 8.96 16.8976 8.96352L17.4017 9.0043L17.6 8.53883C18.0437 7.49961 19.059 6.82812 20.1875 6.82812C21.5502 6.82812 22.711 7.80406 22.9487 9.14914ZM10.8395 25.1094H10.3438C8.79266 25.1094 7.53125 23.848 7.53125 22.2969C7.53125 21.9685 7.59664 21.6324 7.72461 21.297L7.93062 20.7591L7.44336 20.4512C6.61789 19.9295 6.125 19.0428 6.125 18.0781C6.125 17.5248 6.28742 16.9883 6.59469 16.5256L7.03273 15.8675L6.3282 15.5096C4.90156 14.784 4.01562 13.344 4.01562 11.75C4.01562 9.87898 5.27281 8.21258 7.07281 7.69719L7.50945 7.57203L7.57484 7.12273C7.77594 5.75234 8.96633 4.71875 10.3438 4.71875C10.3705 4.71875 10.3965 4.72438 10.4225 4.72789C10.4703 4.73422 10.5181 4.74055 10.5673 4.74477L11.0736 4.78695L11.2726 4.31938C11.7155 3.28086 12.7309 2.60938 13.8594 2.60938C15.222 2.60938 16.3829 3.58531 16.6205 4.93039L16.7485 5.65391L17.4657 5.4943C17.6837 5.44578 17.8841 5.42188 18.0781 5.42188C18.4016 5.42188 18.7088 5.49289 19.0027 5.59555C17.9691 5.89789 17.079 6.58414 16.5327 7.53336C14.6708 7.59594 13.0613 8.91008 12.6001 10.7002C10.4232 11.5123 8.9375 13.6196 8.9375 15.9688C8.9375 17.8524 9.86422 19.5744 11.3977 20.615C11.1664 21.143 11.0469 21.714 11.0469 22.2969C11.0469 23.5625 11.6094 24.7388 12.5748 25.5362C12.4939 25.8624 12.4531 26.1901 12.4531 26.5156C12.4531 27.751 12.9847 28.8612 13.8263 29.6361C13.4087 29.757 13.0072 29.9138 12.6219 30.1002L10.8395 25.1094ZM4.71875 34.3892V34.1108C4.71875 33.7578 5.06047 33.4857 5.4057 33.5602L8.75187 34.3041C8.67031 34.5165 8.59719 34.7323 8.53461 34.9531H5.28266C4.97187 34.9531 4.71875 34.7 4.71875 34.3892ZM2.60938 37.0625C2.60938 36.6751 2.92508 36.3594 3.3125 36.3594H5.28266H8.26953C8.24914 36.5914 8.23438 36.8248 8.23438 37.0625C8.23438 37.3002 8.24914 37.5336 8.27023 37.7656H5.28266H3.3125C2.92508 37.7656 2.60938 37.4499 2.60938 37.0625ZM5.4043 40.5648C5.07102 40.6365 4.71875 40.3665 4.71875 40.0142V39.7358C4.71875 39.425 4.97187 39.1719 5.28266 39.1719H8.53391C8.59648 39.3927 8.67031 39.6085 8.75117 39.8209L5.4043 40.5648ZM43.3906 37.0625C43.3906 38.3429 42.4723 39.413 41.2074 39.6078L17.0973 43.3168C16.778 43.366 16.4539 43.3906 16.134 43.3906H15.9688C12.4798 43.3906 9.64062 40.5514 9.64062 37.0625C9.64062 33.5736 12.4798 30.7344 15.9688 30.7344H16.134C16.4539 30.7344 16.778 30.759 17.0966 30.8075L41.2067 34.5165C42.4723 34.712 43.3906 35.7821 43.3906 37.0625ZM43.3906 27.2546C43.3906 29.4174 42.5152 31.5099 40.9923 33.061L39.5952 32.8459C40.2371 31.4973 40.5781 30.0186 40.5781 28.5097V25.9271C40.5781 23.4282 39.6261 21.0298 37.9906 19.2102C38.2747 18.9423 38.6516 18.7812 39.0573 18.7812C39.3927 18.7812 39.7238 18.8895 39.991 19.0878C42.1194 20.6586 43.3906 23.1596 43.3906 25.7766V27.2546Z" fill="black"/>
<path d="M15.2656 33.5469H16.6719V40.5781H15.2656V33.5469Z" fill="black"/>
<path d="M20.8906 33.5469H22.2969V40.5781H20.8906V33.5469Z" fill="black"/>
<path d="M26.5156 33.5469H27.9219V40.5781H26.5156V33.5469Z" fill="black"/>
<path d="M32.1406 34.9531H33.5469V39.1719H32.1406V34.9531Z" fill="black"/>
<path d="M37.7656 35.6562H39.1719V38.4688H37.7656V35.6562Z" fill="black"/>
</svg>
