<svg width="25" height="25" viewBox="0 0 25 25" fill="none" xmlns="http://www.w3.org/2000/svg">
<g opacity="0.5">
<path d="M16.2418 5.781C13.759 5.30868 11.241 5.30868 8.75765 5.781C7.67148 6.02292 6.305 7.33235 6.03785 8.3856C5.5935 10.4235 5.5935 12.4895 6.03785 14.5274C6.305 15.5806 7.67148 16.8901 8.75765 17.132C8.75793 17.132 8.7582 17.1321 8.75847 17.1322C8.80686 17.1416 8.84213 17.1836 8.84213 17.2329V20.2183C8.84213 20.3675 9.02426 20.441 9.12794 20.3329L10.546 18.8776C10.546 18.8776 11.676 17.7176 11.8792 17.509C11.899 17.4886 11.9265 17.4776 11.9549 17.4784C13.3866 17.518 14.8198 17.4024 16.2418 17.132C17.3279 16.8901 18.695 15.5807 18.9616 14.5274C19.4065 12.4895 19.4065 10.4236 18.9616 8.38566C18.6949 7.33235 17.3285 6.02292 16.2418 5.781ZM16.2796 14.6794C16.0624 15.1406 15.7463 15.5244 15.2903 15.7693C15.1617 15.8384 15.0079 15.8607 14.8627 15.9054C14.6958 15.8548 14.5366 15.8207 14.3888 15.7594C12.8574 15.124 11.4481 14.3043 10.3317 13.0478C9.6968 12.3333 9.19985 11.5267 8.77987 10.673C8.58068 10.2681 8.41282 9.84743 8.24172 9.42948C8.08565 9.04833 8.3155 8.65457 8.55748 8.36739C8.78453 8.09788 9.0767 7.89162 9.39311 7.73961C9.64008 7.62095 9.8837 7.68936 10.0641 7.89869C10.454 8.35126 10.8122 8.82698 11.1022 9.35158C11.2805 9.67425 11.2316 10.0687 10.9084 10.2883C10.8298 10.3416 10.7582 10.4043 10.6851 10.4646C10.6209 10.5174 10.5605 10.5708 10.5165 10.6423C10.4361 10.7731 10.4322 10.9276 10.484 11.0699C10.8826 12.1652 11.5544 13.017 12.6569 13.4758C12.8334 13.5492 13.0105 13.6346 13.2138 13.6109C13.5542 13.5712 13.6644 13.1978 13.9029 13.0027C14.136 12.8121 14.434 12.8096 14.6851 12.9685C14.9363 13.1275 15.1798 13.2982 15.4218 13.4706C15.6594 13.6399 15.896 13.8055 16.1151 13.9985C16.3257 14.184 16.3983 14.4275 16.2796 14.6794ZM14.3024 11.1099C14.2073 11.1116 14.2447 11.1097 14.2808 11.1087C14.1276 11.1033 14.0443 11.0131 14.0278 10.8665C14.0158 10.7594 14.0063 10.6508 13.9807 10.5466C13.9304 10.3413 13.8213 10.1511 13.6486 10.0253C13.5671 9.96587 13.4747 9.92253 13.378 9.89466C13.255 9.85917 13.1274 9.86893 13.0047 9.83887C12.8715 9.80629 12.7979 9.69838 12.8188 9.57342C12.8378 9.4597 12.9484 9.37094 13.0727 9.37994C13.8493 9.436 14.4043 9.8375 14.4836 10.7518C14.4892 10.8163 14.4957 10.8844 14.4814 10.9462C14.4582 11.0465 14.3865 11.0987 14.314 11.1082C14.3199 11.1083 14.3188 11.1088 14.3024 11.1099ZM13.8195 9.01882C13.5812 8.90214 13.3234 8.82962 13.0622 8.78639C12.9481 8.76752 12.8327 8.75605 12.718 8.74009C12.579 8.72078 12.5048 8.63218 12.5113 8.49521C12.5175 8.36684 12.6113 8.27452 12.7512 8.28242C13.2109 8.30853 13.6549 8.40788 14.0636 8.62429C14.8947 9.0644 15.3694 9.75911 15.508 10.6867C15.5143 10.7288 15.5243 10.7704 15.5275 10.8126C15.5354 10.9167 15.5403 11.021 15.5483 11.1583C15.545 11.1833 15.5432 11.2421 15.5286 11.2975C15.4755 11.4986 15.1706 11.5238 15.1004 11.3208C15.0796 11.2606 15.0765 11.1921 15.0763 11.1272C15.0756 10.703 14.9834 10.2792 14.7695 9.91002C14.5496 9.53074 14.2135 9.2118 13.8195 9.01882ZM16.3874 11.8857C16.2269 11.8876 16.1546 11.7533 16.1442 11.6093C16.1236 11.3242 16.1093 11.0379 16.07 10.7553C15.8626 9.26309 14.6728 8.02859 13.1876 7.76369C12.9641 7.72381 12.7353 7.71333 12.5089 7.68958C12.3658 7.67455 12.1784 7.66588 12.1467 7.48798C12.1201 7.33882 12.2459 7.22006 12.388 7.21243C12.4266 7.21035 12.4654 7.2121 12.5042 7.21227C14.4278 7.26619 12.6216 7.21644 12.5094 7.21254C14.5101 7.27086 16.1528 8.59949 16.5051 10.5781C16.5652 10.9155 16.5866 11.2605 16.6133 11.603C16.6245 11.747 16.5429 11.8838 16.3874 11.8857Z" fill="black"/>
<path d="M12.5 0C5.59644 0 0 5.59644 0 12.5C0 19.4036 5.59644 25 12.5 25C19.4036 25 25 19.4036 25 12.5C25 5.59644 19.4036 0 12.5 0ZM20.4066 14.8542L20.4016 14.874C20.0023 16.4884 18.2019 18.2208 16.5485 18.5812L16.5298 18.585C15.193 18.8401 13.8462 18.9674 12.5 18.9674C11.7451 18.9674 11.0105 19.2458 10.4871 19.7898L9.48564 20.8309C9.03362 21.3015 8.23874 20.9812 8.23874 20.3289C8.23874 19.2622 7.49999 18.3431 6.64724 17.7023C5.66483 16.964 4.85096 15.8956 4.59789 14.8739L4.5935 14.8542C4.09979 12.5995 4.09979 10.3131 4.5935 8.05848L4.59789 8.03873C4.9978 6.42429 6.7982 4.69191 8.45104 4.3315L8.47024 4.32766C11.144 3.81749 13.8555 3.81749 16.5298 4.32766L16.5485 4.3315C18.2019 4.69191 20.0023 6.42429 20.4016 8.03873L20.4066 8.05848C20.9003 10.3132 20.9003 12.5996 20.4066 14.8542Z" fill="black"/>
</g>
</svg>
