<svg width="46" height="46" viewBox="0 0 46 46" fill="none" xmlns="http://www.w3.org/2000/svg">
<path d="M34.25 15.2656H40.5781V30.7344H34.25V15.2656Z" fill="#3A4C63"/>
<path d="M26.5155 10.2545L23.7537 15.2656L27.2693 18.0781L29.4827 12.5445L30.0818 11.0469L26.5155 10.2545Z" fill="#59AAE2"/>
<path d="M35.8031 16.3442L35.7068 14.5625L29.4827 12.5446L27.2693 18.0781L23.7537 15.2656V43.3906H33.5974V40.5781H37.113L35.8031 16.3442Z" fill="#59AAE2"/>
<path d="M28.0183 16.3442L28.2384 20.416L28.8318 20.8906L31.8616 13.3159L29.4829 12.5446L28.012 16.2226L28.0183 16.3442Z" fill="#4380AA"/>
<path d="M15.9688 15.2656L12.4531 13.1562L13.8594 11.75L12.4531 13.1562L15.9688 15.2656L19.4844 13.1562L18.0781 11.75L19.4844 13.1562L15.9688 15.2656L19.4844 18.0781L21.6978 12.5445L22.2969 11.0469L15.9688 9.64062L9.64062 11.0469L10.2341 12.5312L12.4531 18.0781L15.9688 15.2656Z" fill="white"/>
<path d="M28.0182 16.3442L27.9219 14.5625L21.6978 12.5446L19.4844 18.0781L15.9688 15.2656V43.3906H25.8125V40.5781H29.3281L28.0182 16.3442Z" fill="white"/>
<path d="M12.4531 18.0781L10.2341 12.5312L4.01562 14.5625L2.60938 40.5781H6.125V43.3906H15.9688V15.2656L12.4531 18.0781Z" fill="white"/>
<path d="M43.3906 6.82812V2.60938C42.2255 2.60938 41.2812 3.55367 41.2812 4.71875C41.2812 5.88383 42.2255 6.82812 43.3906 6.82812Z" fill="#904C2A"/>
<path d="M2.60938 2.60938V6.82812C3.77445 6.82812 4.71875 5.88383 4.71875 4.71875C4.71875 3.55367 3.77445 2.60938 2.60938 2.60938Z" fill="#904C2A"/>
<path d="M18.0781 11.75H13.8594L12.4531 13.1562L15.9688 15.2656L19.4844 13.1562L18.0781 11.75Z" fill="#F0F0F0"/>
<path d="M24.0766 13.3159L21.698 12.5445L19.4845 18.0781L15.9689 15.2656L12.4533 18.0781L10.2342 12.5312L7.85767 13.3074L10.8909 20.8906L15.9689 16.828V43.3906H18.0783V18.5155L21.0469 20.8906L24.0766 13.3159Z" fill="#F0F0F0"/>
<path d="M2.60947 7.53125C3.91658 7.53125 5.00783 6.63125 5.32213 5.42188H17.8828C17.6388 5.84023 17.1902 6.125 16.672 6.125H15.9688C15.58 6.125 15.2657 6.44 15.2657 6.82812V9.07672L9.48814 10.3606C9.28705 10.4049 9.11549 10.5364 9.01846 10.7185C8.92213 10.9006 8.91158 11.1165 8.98752 11.3077L9.30252 12.0945L3.79705 13.8931C3.52072 13.9831 3.32877 14.2334 3.3133 14.5231L1.90705 40.5387C1.8965 40.7314 1.96611 40.9198 2.099 41.0605C2.2319 41.2018 2.41682 41.2812 2.60947 41.2812H5.42197V43.3906C5.42197 43.7788 5.73627 44.0938 6.1251 44.0938H25.8126C26.2014 44.0938 26.5157 43.7788 26.5157 43.3906V41.2812H29.3282C29.5209 41.2812 29.7058 41.2018 29.8387 41.0619C29.9716 40.9212 30.0412 40.7328 30.0306 40.5402L28.7285 16.4532L29.8781 13.4284L34.9799 15.0821L36.3201 39.875H32.1695L32.8431 23.0281L31.4383 22.9719L30.7352 40.55C30.7274 40.7412 30.7985 40.9276 30.9306 41.0654C31.0628 41.2032 31.2463 41.2812 31.4376 41.2812H37.0626C37.2553 41.2812 37.4402 41.2018 37.5731 41.0619C37.706 40.9212 37.7756 40.7328 37.765 40.5402L36.4368 15.9688H39.8751V30.0312H37.7657V31.4375H40.5782C40.967 31.4375 41.2813 31.1225 41.2813 30.7344V15.9688H43.3907C43.6347 15.9688 43.8604 15.8422 43.9891 15.6355C44.1178 15.428 44.129 15.1693 44.02 14.9513L41.9106 10.7326C41.8157 10.5434 41.6406 10.407 41.4339 10.3606L35.6563 9.07672V7.53125C36.9635 7.53125 38.0547 6.63125 38.369 5.42188H40.6781C40.9924 6.63125 42.0836 7.53125 43.3907 7.53125C43.7795 7.53125 44.0938 7.21625 44.0938 6.82812V2.60938C44.0938 2.22125 43.7795 1.90625 43.3907 1.90625C42.0836 1.90625 40.9924 2.80625 40.6781 4.01562H38.369C38.0547 2.80625 36.9635 1.90625 35.6563 1.90625H33.547V3.3125H35.6563C36.1745 3.3125 36.6231 3.59727 36.8671 4.01562H27.119C26.8047 2.80625 25.7135 1.90625 24.4063 1.90625H22.297V3.3125H24.4063C24.9246 3.3125 25.3731 3.59727 25.6171 4.01562H19.3846C19.0703 2.80625 17.9791 1.90625 16.672 1.90625H14.5626V3.3125H16.672C17.1902 3.3125 17.6388 3.59727 17.8828 4.01562H5.32213C5.00783 2.80625 3.91658 1.90625 2.60947 1.90625C2.22065 1.90625 1.90635 2.22125 1.90635 2.60938V6.82812C1.90635 7.21625 2.22065 7.53125 2.60947 7.53125ZM42.6876 3.50164V5.93656C42.2671 5.69258 41.9845 5.23836 41.9845 4.71875C41.9845 4.19914 42.2671 3.74492 42.6876 3.50164ZM19.3846 5.42188H25.6171C25.3731 5.84023 24.9246 6.125 24.4063 6.125H23.7032C23.3144 6.125 23.0001 6.44 23.0001 6.82812V9.64062C23.0001 9.97039 23.2286 10.2559 23.5506 10.3269L25.4547 10.7502L24.5104 12.7175L22.6303 12.1079L22.9502 11.3077C23.0261 11.1165 23.0156 10.9006 22.9192 10.7185C22.8222 10.5357 22.6506 10.4049 22.4495 10.3606L16.672 9.07672V7.53125C17.9791 7.53125 19.0703 6.63125 19.3846 5.42188ZM15.9688 10.3606L21.3372 11.5538L19.1835 16.937L17.1979 15.3486L19.8466 13.7595C20.0322 13.6484 20.156 13.4572 20.1827 13.2427C20.2094 13.0276 20.1356 12.8131 19.9823 12.6598L18.576 11.2536L17.5818 12.2478L18.3517 13.017L15.9688 14.4458L13.5867 13.0163L14.3566 12.2471L13.3624 11.2529L11.9561 12.6591C11.8028 12.8124 11.729 13.0269 11.7557 13.242C11.7817 13.4572 11.9062 13.6477 12.0918 13.7588L14.7405 15.3479L12.7549 16.9362L10.6012 11.5531L15.9688 10.3606ZM6.82822 41.2812H8.23447C8.42572 41.2812 8.60854 41.2032 8.74143 41.0654C8.87432 40.9276 8.94463 40.7412 8.93689 40.55L8.23377 22.9719L6.82893 23.0281L7.50252 39.875H3.35197L4.69213 15.0814L9.82635 13.4037L11.8007 18.339C11.8837 18.5457 12.0588 18.7011 12.2746 18.7573C12.4905 18.8157 12.719 18.7658 12.8934 18.6266L15.2664 16.7281V42.6875H6.82822V41.2812ZM24.4352 39.875L25.1088 23.0281L23.7039 22.9719L23.0008 40.55C22.9931 40.7412 23.0641 40.9276 23.1963 41.0654C23.3285 41.2032 23.512 41.2812 23.7032 41.2812H25.1095V42.6875H16.672V16.7288L19.045 18.6273C19.1716 18.7278 19.3263 18.7812 19.4845 18.7812C19.5442 18.7812 19.6047 18.7735 19.6638 18.758C19.8796 18.7011 20.0547 18.5464 20.1377 18.3397L22.1071 13.4171L27.2463 15.0835L28.5857 39.875H24.4352ZM28.1878 13.9184C28.1709 13.9114 28.1568 13.8995 28.1385 13.8938L25.8597 13.1548L26.8638 11.063L29.0849 11.5566L28.1878 13.9184ZM35.6563 6.125H34.9532C34.5644 6.125 34.2501 6.44 34.2501 6.82812V9.07672L31.6366 9.6575L31.9417 11.03L34.9532 10.3606L40.8018 11.6607L42.2531 14.5625H36.3609L36.3588 14.5245C36.3433 14.2341 36.1499 13.9831 35.8736 13.8938L30.3787 12.1128L30.6888 11.2972C30.7619 11.1066 30.7471 10.8936 30.6501 10.7136C30.5531 10.5343 30.3829 10.4056 30.1839 10.3613L24.4063 9.07672V7.53125C25.7135 7.53125 26.8047 6.63125 27.119 5.42188H36.8671C36.6231 5.84023 36.1745 6.125 35.6563 6.125ZM3.3126 3.50164C3.73307 3.74492 4.01572 4.19914 4.01572 4.71875C4.01572 5.23836 3.73307 5.69258 3.3126 5.93586V3.50164Z" fill="black"/>
<path d="M26.5156 37.0625H27.9219V38.4688H26.5156V37.0625Z" fill="black"/>
<path d="M4.01562 37.0625H5.42188V38.4688H4.01562V37.0625Z" fill="black"/>
<path d="M12.4531 21.5938H13.8594V23H12.4531V21.5938Z" fill="black"/>
<path d="M12.4531 28.625H13.8594V30.0312H12.4531V28.625Z" fill="black"/>
<path d="M12.4531 35.6562H13.8594V37.0625H12.4531V35.6562Z" fill="black"/>
</svg>
