<svg width="39" height="39" viewBox="0 0 39 39" fill="none" xmlns="http://www.w3.org/2000/svg">
<path d="M19.6802 37.8917C29.6999 37.8917 37.8226 29.6589 37.8226 19.5031C37.8226 9.34736 29.6999 1.1145 19.6802 1.1145C9.66041 1.1145 1.53778 9.34736 1.53778 19.5031C1.53778 24.5695 4.73938 28.1566 3.67223 34.6467C6.87371 33.565 14.659 37.8917 19.6802 37.8917Z" fill="white"/>
<path fill-rule="evenodd" clip-rule="evenodd" d="M19.6604 38.6387H19.6683C30.1647 38.6344 38.7017 29.9795 38.7059 19.3428C38.7079 14.187 36.7295 9.339 33.1352 5.69183C29.5409 2.04446 24.7609 0.0349426 19.6681 0.0327148C9.17469 0.0327148 0.63437 8.68848 0.630194 19.3276C0.628765 22.7284 1.50541 26.0479 3.17142 28.9743L0.470581 38.9733L10.5628 36.29C13.3434 37.8273 16.4742 38.6376 19.6604 38.6387ZM11.6083 33.1444L11.0304 32.7969L5.04161 34.3892L6.64012 28.4709L6.26389 27.864C4.67994 25.3106 3.84338 22.3593 3.84461 19.3288C3.84807 10.4861 10.9465 3.29199 19.6746 3.29199C23.901 3.29347 27.8739 4.96381 30.8614 7.99536C33.8489 11.0269 35.4932 15.0563 35.4916 19.3418C35.4881 28.1852 28.3898 35.38 19.6684 35.38H19.662C16.8226 35.3789 14.0377 34.6057 11.6083 33.1444Z" fill="white"/>
<path d="M29.2593 23.9315C29.1405 23.7304 28.8234 23.6098 28.3477 23.3683C27.872 23.127 25.5333 21.9608 25.0972 21.7997C24.6613 21.6389 24.344 21.5585 24.0269 22.041C23.7099 22.5236 22.7982 23.6098 22.5207 23.9315C22.2432 24.2532 21.9657 24.2936 21.4902 24.0522C21.0146 23.8109 19.4818 23.3018 17.6648 21.6591C16.2507 20.3806 15.296 18.8018 15.0185 18.3191C14.7411 17.8364 14.989 17.5756 15.2271 17.3352C15.4411 17.1191 15.7028 16.7719 15.9406 16.4904C16.1785 16.209 16.2577 16.0077 16.4163 15.6862C16.5749 15.3642 16.4956 15.0828 16.3767 14.8414C16.2577 14.6001 15.3064 12.2269 14.91 11.2615C14.5239 10.3213 14.1317 10.4487 13.8398 10.4338C13.5626 10.4197 13.2451 10.4167 12.9281 10.4167C12.611 10.4167 12.0956 10.5374 11.6596 11.0201C11.2235 11.5028 9.99469 12.6693 9.99469 15.0423C9.99469 17.4155 11.6992 19.7082 11.937 20.0299C12.1749 20.3518 15.2913 25.2217 20.0632 27.3101C21.1981 27.8069 22.0841 28.1036 22.775 28.3257C23.9145 28.6928 24.9516 28.641 25.7711 28.5168C26.6851 28.3784 28.5855 27.3505 28.982 26.2243C29.3782 25.0979 29.3782 24.1326 29.2593 23.9315Z" fill="#3EC9FE"/>
</svg>
