<svg width="57" height="57" viewBox="0 0 57 57" fill="none" xmlns="http://www.w3.org/2000/svg">
<path d="M28.967 55.3277C43.5974 55.3277 55.4577 43.3065 55.4577 28.4776C55.4577 13.6487 43.5974 1.62744 28.967 1.62744C14.3366 1.62744 2.47638 13.6487 2.47638 28.4776C2.47638 35.8753 7.1512 41.113 5.593 50.5895C10.2676 49.0101 21.6353 55.3277 28.967 55.3277Z" fill="#25D366"/>
<path fill-rule="evenodd" clip-rule="evenodd" d="M28.9382 56.4184H28.9497C44.2761 56.412 56.7413 43.7746 56.7474 28.2435C56.7504 20.7152 53.8616 13.6364 48.6134 8.311C43.3651 2.98531 36.3857 0.0511017 28.9494 0.0478516C13.6275 0.0478516 1.15731 12.6866 1.15121 28.2213C1.14912 33.187 2.42916 38.0339 4.86178 42.3069L0.918152 56.907L15.6542 52.989C19.7144 55.2337 24.2858 56.4168 28.9382 56.4184ZM17.1808 48.3962L16.3371 47.8887L7.59248 50.2137L9.92654 41.5721L9.37719 40.686C7.06439 36.9576 5.84288 32.6482 5.84467 28.2233C5.84972 15.3116 16.2145 4.80713 28.9588 4.80713C35.1301 4.8093 40.9311 7.24823 45.2933 11.6747C49.6555 16.1013 52.0564 21.9848 52.054 28.2423C52.0489 41.1549 41.6843 51.6605 28.9498 51.6605H28.9404C24.7945 51.6588 20.7281 50.5298 17.1808 48.3962Z" fill="#25D366"/>
<path d="M42.954 34.9438C42.7805 34.6502 42.3175 34.474 41.6229 34.1215C40.9283 33.7691 37.5135 32.0662 36.8767 31.831C36.2402 31.5962 35.7769 31.4789 35.314 32.1834C34.851 32.8881 33.5199 34.474 33.1147 34.9438C32.7095 35.4135 32.3043 35.4725 31.61 35.12C30.9154 34.7677 28.6774 34.0243 26.0243 31.6258C23.9595 29.759 22.5655 27.4537 22.1603 26.7489C21.7552 26.044 22.1171 25.6632 22.4649 25.3121C22.7774 24.9966 23.1595 24.4897 23.5068 24.0787C23.854 23.6677 23.9698 23.3739 24.2013 22.9044C24.4328 22.4343 24.3171 22.0233 24.1434 21.6709C23.9698 21.3185 22.5807 17.8533 22.0019 16.4436C21.4381 15.0709 20.8655 15.2568 20.4391 15.2351C20.0345 15.2145 19.5709 15.2102 19.1079 15.2102C18.6449 15.2102 17.8924 15.3864 17.2557 16.0912C16.6191 16.796 14.8248 18.4993 14.8248 21.9642C14.8248 25.4295 17.3136 28.7771 17.6609 29.2469C18.0082 29.7169 22.5586 36.8276 29.5263 39.8771C31.1834 40.6025 32.4771 41.0356 33.4859 41.36C35.1497 41.896 36.6641 41.8203 37.8607 41.639C39.1952 41.437 41.9701 39.9361 42.5491 38.2917C43.1276 36.6469 43.1276 35.2374 42.954 34.9438Z" fill="#FDFDFD"/>
</svg>
