<svg width="65" height="80" viewBox="0 0 65 80" fill="none" xmlns="http://www.w3.org/2000/svg">
<g clip-path="url(#clip0_12_270)">
<path d="M0.721924 79.999H64.0224V-0.000160217H0.721924L0.722921 79.999H0.721924Z" fill="white"/>
<path d="M54.4855 54.0308H9.99295V9.54073H54.4855V54.0308Z" fill="#FCD0AF"/>
<path d="M21.3726 32.7587C21.3726 34.8597 21.9331 35.0935 24.327 35.183V35.9513H14.8116V35.183C16.7911 35.0935 17.3525 34.8597 17.3525 32.7587V19.0484C17.3525 16.9474 16.7911 16.7111 14.8708 16.6241V15.8558H31.6553L31.7748 20.2867H30.9471C30.2382 18.0414 29.4689 17.3328 25.5386 17.3328H22.4932C21.5794 17.3328 21.3725 17.5391 21.3725 18.3671V24.7225H22.8721C26.0053 24.7225 26.6853 24.1581 27.069 22.0595H27.8373V29.1533H27.069C26.6562 26.7887 25.4732 26.1994 22.8721 26.1994H21.3725V32.7587H21.3726ZM50.663 15.8558H33.049L32.6401 20.2891H33.6505C34.2952 18.1185 35.2433 17.3328 37.3635 17.3328H39.8462V32.7587C39.8462 34.8597 39.2848 35.0935 37.0099 35.183V35.9513H46.7033V35.183C44.4275 35.0935 43.8663 34.8597 43.8663 32.7587V17.3328H46.3478C48.469 17.3328 49.418 18.1185 50.0618 20.2891H51.071L50.663 15.8558Z" fill="#3E474F"/>
<path d="M11.5939 61.4946C11.5939 62.0317 11.7386 62.0914 12.3505 62.1162V62.3077H9.91454V62.1162C10.4205 62.0914 10.5652 62.0317 10.5652 61.4946V57.9837C10.5652 57.4442 10.4205 57.3845 9.92796 57.3621V57.1657H14.2288L14.2579 58.2995H14.0463C13.8645 57.7252 13.6683 57.5436 12.6613 57.5436H11.8813C11.6471 57.5436 11.5939 57.5959 11.5939 57.8097V59.4358H12.4728C13.275 59.4358 13.4488 59.2916 13.547 58.7545H13.7442V60.5721H13.547C13.4411 59.9654 13.138 59.8138 12.4728 59.8138H11.5939V61.4946ZM16.6657 61.4946C16.6657 62.0317 16.8085 62.0914 17.4224 62.1162V62.3077H14.8785V62.1162C15.4934 62.0914 15.6351 62.0317 15.6351 61.4946V57.9837C15.6351 57.4442 15.4934 57.3845 14.8785 57.3621V57.1657H17.4224V57.3621C16.8085 57.3845 16.6657 57.4442 16.6657 57.9837V61.4946ZM22.7285 58.128C22.7285 57.6282 22.5914 57.4243 22.031 57.3621V57.1657H23.8474V57.3621C23.2879 57.4243 23.1519 57.6282 23.1519 58.128V62.4345H22.8945L19.3834 58.3766V61.3504C19.3834 61.8502 19.5184 62.0541 20.0789 62.1162V62.3077H18.2615V62.1162C18.822 62.0541 18.958 61.8502 18.958 61.3504V57.8868C18.7842 57.5809 18.5791 57.4367 18.2615 57.3621V57.1657H19.6622L22.7285 60.7089V58.128ZM25.4752 60.4652L26.2473 58.4288L27.0126 60.4652H25.4752ZM29.1611 62.3077V62.1162C28.7755 62.1237 28.6775 61.9571 28.4805 61.4722L26.6708 57.0439H26.4222L24.537 61.6314C24.4079 61.9496 24.2339 62.0466 23.9086 62.1162V62.3077H25.5432V62.1162C25.1877 62.1162 25.0139 62.0391 25.0139 61.7905C25.0139 61.5791 25.2491 61.0098 25.3083 60.8432H27.1711C27.2313 61.0098 27.4809 61.5791 27.4809 61.7905C27.4809 62.0391 27.2925 62.1162 26.9361 62.1162V62.3077H29.1611ZM34.1495 58.128C34.1495 57.6282 34.0137 57.4243 33.4541 57.3621V57.1657H35.2703V57.3621C34.7099 57.4243 34.5731 57.6282 34.5731 58.128V62.4345H34.3165L30.8042 58.3766L30.8043 61.3504C30.8043 61.8502 30.9403 62.0541 31.5008 62.1162V62.3077H29.6834V62.1162C30.2439 62.0541 30.3809 61.8502 30.3809 61.3504V57.8868C30.2061 57.5809 30.0012 57.4367 29.6834 57.3621V57.1657H31.084L34.1493 60.7089L34.1496 58.128H34.1495ZM40.6483 61.0993C40.1102 62.0168 39.4061 62.4345 38.3386 62.4345C36.666 62.4345 35.6744 61.3355 35.6744 59.6919C35.6744 58.5208 36.5981 57.0439 38.3921 57.0439C38.9292 57.0439 39.6925 57.3472 39.8071 57.3472C39.9578 57.3472 40.0033 57.2652 40.1259 57.0439H40.3822L40.4889 58.762H40.2616C39.9578 57.9663 39.4217 57.392 38.5204 57.392C37.309 57.392 36.7799 58.7023 36.7799 59.6919C36.7799 61.0794 37.3771 62.0093 38.6571 62.0093C39.6557 62.0093 40.2084 61.2683 40.4434 60.9426L40.6483 61.0993ZM43.1407 61.4946C43.1407 62.0317 43.2854 62.0914 43.8981 62.1162V62.3077H41.3544V62.1162C41.9683 62.0914 42.1121 62.0317 42.1121 61.4946V57.9837C42.1121 57.4442 41.9683 57.3845 41.3544 57.3621V57.1657H43.8981V57.3621C43.2854 57.3845 43.1407 57.4442 43.1407 57.9837V61.4946ZM46.0058 60.4652L46.7779 58.4288L47.5425 60.4652H46.0058ZM49.6927 62.3077V62.1162C49.3061 62.1237 49.2081 61.9571 49.012 61.4722L47.2023 57.0439H46.9529L45.0677 61.6314C44.9384 61.9496 44.7646 62.0466 44.4391 62.1162V62.3077H46.0737V62.1162C45.7184 62.1162 45.5446 62.0391 45.5446 61.7905C45.5446 61.5791 45.7796 61.0098 45.8397 60.8432H47.7016C47.7618 61.0098 48.0114 61.5791 48.0114 61.7905C48.0114 62.0391 47.8222 62.1162 47.4666 62.1162V62.3077H49.6927ZM50.1425 62.3077V62.1162C50.6349 62.0938 50.7786 62.0317 50.7786 61.4946V57.9837C50.7786 57.4442 50.6349 57.3845 50.1425 57.3621V57.1657H52.5191V57.3621C51.9519 57.3845 51.8072 57.4442 51.8072 57.9837V61.5941C51.8072 61.9049 51.8985 62.0093 52.4736 62.0093C53.3973 62.0093 53.9421 61.8427 54.3812 60.9352H54.5784L54.2305 62.3077H50.1425ZM11.0431 70.4185C11.6277 70.3936 11.7704 70.3339 11.7704 69.7969V65.8459H11.1354C10.5371 65.8459 10.3019 66.0871 10.1358 66.7833H9.90857L10.0299 65.4679H14.5406L14.6619 66.7833H14.4337C14.2686 66.0871 14.0336 65.8459 13.4363 65.8459H12.8001V69.7969C12.8001 70.3339 12.9438 70.3936 13.5256 70.4185V70.6099H11.0431V70.4185ZM16.9775 69.7969C16.9775 70.3339 17.1223 70.3936 17.7352 70.416V70.6099H15.1913V70.416C15.8062 70.3936 15.9489 70.3339 15.9489 69.7969V66.2835C15.9489 65.7464 15.8062 65.6868 15.1913 65.6644V65.4655H17.7352V65.6644C17.1223 65.6868 16.9775 65.7464 16.9775 66.2835V69.7969ZM23.1382 65.4679H24.9098V65.6644C24.4175 65.6868 24.2748 65.7464 24.2748 66.2835V69.7969C24.2748 70.3339 24.4175 70.3936 24.9098 70.4185V70.6099H22.5934V70.4185C23.1004 70.3936 23.2451 70.3339 23.2451 69.7969V66.1791H23.2295L21.5113 70.6746H21.2764L19.597 66.1791H19.5816V69.6526C19.5816 70.1524 19.7174 70.3563 20.2778 70.4185V70.6099H18.4617V70.4185C19.0212 70.3563 19.1572 70.1524 19.1572 69.6526V66.1567C19.1572 65.8011 19.0065 65.6644 18.4617 65.6644V65.4679H20.3313L21.7008 69.0385L23.1382 65.4679ZM25.6403 70.6099V70.4185C26.1317 70.3936 26.2754 70.3339 26.2754 69.7969V66.2835C26.2754 65.7464 26.1317 65.6868 25.6403 65.6644V65.4679H29.9389L29.9691 66.6018H29.7583C29.5758 66.0274 29.3786 65.8459 28.3724 65.8459H27.5934C27.3575 65.8459 27.306 65.8981 27.306 66.1095V67.7381H28.183C28.9852 67.7381 29.159 67.5939 29.2582 67.0568H29.4552V68.8719H29.2582C29.1513 68.2677 28.8492 68.116 28.183 68.116H27.306V69.8963C27.306 70.2046 27.3963 70.3116 28.3046 70.3116C29.2272 70.3116 29.7729 70.145 30.2118 69.2349H30.4082L30.0604 70.6099H25.6405H25.6403ZM31.0774 68.9937H31.2756C31.4942 69.675 32.1459 70.3861 32.9035 70.3861C33.5532 70.3861 33.7883 69.9336 33.7883 69.5308C33.7883 68.3497 31.1241 68.1309 31.1241 66.6639C31.124 65.9528 31.8127 65.3461 32.5994 65.3461C33.3714 65.3461 33.6436 65.6171 33.9855 65.6171C34.1292 65.6171 34.2197 65.5052 34.2575 65.3461H34.4547V66.9797H34.2575C34.0456 66.2388 33.5164 65.6942 32.819 65.6942C32.2448 65.6942 32.0313 66.0647 32.0313 66.4153C32.0313 67.4646 34.6967 67.4969 34.6967 69.3045C34.6965 70.1126 34.0311 70.7343 33.1063 70.7343C32.1982 70.7343 31.964 70.4185 31.6077 70.4185C31.4727 70.4185 31.3804 70.508 31.3511 70.6746H31.0773L31.0773 68.9937H31.0774Z" fill="#3E474F"/>
</g>
<defs>
<clipPath id="clip0_12_270">
<rect width="63.299" height="80" fill="white" transform="translate(0.721924 -0.000244141)"/>
</clipPath>
</defs>
</svg>
