<svg width="141" height="40" viewBox="0 0 141 40" fill="none" xmlns="http://www.w3.org/2000/svg">
<g clip-path="url(#clip0_12_237)">
<path d="M4.21224 15.5314H0.0209961V10.5745H4.21224V7.8895C4.21224 6.62274 4.41973 5.50743 4.8347 4.54359C5.24969 3.55221 5.81681 2.72605 6.53611 2.06514C7.25539 1.37668 8.08535 0.867216 9.02595 0.536754C9.99422 0.178756 11.0317 -0.000244141 12.1383 -0.000244141C12.9405 -0.000244141 13.6183 0.0410637 14.1717 0.123679C14.7525 0.206294 15.2782 0.316446 15.7486 0.454139V5.45236C15.0845 5.20452 14.31 5.08059 13.4247 5.08059C12.1798 5.08059 11.2806 5.35597 10.7273 5.90674C10.1741 6.42997 9.8974 7.32497 9.8974 8.59173V10.5745H15.7486V15.5314H9.8974V31.2283H4.21224V15.5314ZM21.9317 7.18728C21.4337 7.18728 20.9634 7.09088 20.5207 6.89812C20.1058 6.70535 19.7323 6.4575 19.4003 6.15459C19.0683 5.82412 18.8055 5.43859 18.6118 4.99797C18.4182 4.55736 18.3214 4.08921 18.3214 3.59352C18.3214 3.09783 18.4182 2.62967 18.6118 2.18905C18.8055 1.74845 19.0683 1.37668 19.4003 1.07375C19.7323 0.743292 20.1058 0.481678 20.5207 0.288909C20.9634 0.0961406 21.4337 -0.000244141 21.9317 -0.000244141C22.9552 -0.000244141 23.8128 0.357754 24.5045 1.07375C25.2238 1.76221 25.5834 2.60214 25.5834 3.59352C25.5834 4.5849 25.2238 5.43859 24.5045 6.15459C23.8128 6.84305 22.9552 7.18728 21.9317 7.18728ZM19.1099 10.5745H24.7949V31.2283H19.1099V10.5745Z" fill="white"/>
<path d="M30.6736 10.5745H36.3588V12.929C36.912 12.1029 37.7005 11.4282 38.7241 10.905C39.7477 10.3817 40.9374 10.1201 42.2929 10.1201C43.5378 10.1201 44.6582 10.3404 45.6541 10.781C46.6502 11.2217 47.4939 11.8413 48.1856 12.6399C48.8772 13.411 49.4029 14.3472 49.7625 15.4488C50.122 16.5503 50.3019 17.7758 50.3019 19.1251V31.2284H44.6168V20.0753C44.6168 18.5882 44.2987 17.4178 43.6623 16.5641C43.0537 15.7105 42.1546 15.2836 40.965 15.2836C39.6371 15.2836 38.5305 15.7655 37.6451 16.7293C36.7875 17.6931 36.3588 19.1665 36.3588 21.1492V31.2284H30.6736V10.5745Z" fill="white"/>
<path d="M82.0738 20.1992C82.0738 18.6571 81.811 17.4591 81.2853 16.6054C80.7875 15.7241 79.9713 15.2836 78.837 15.2836C77.6197 15.2836 76.6377 15.7379 75.8907 16.6467C75.1438 17.5555 74.7427 18.9599 74.6873 20.86V31.2284H69.0021V20.1992C69.0021 18.6571 68.7393 17.4591 68.2137 16.6054C67.7158 15.7241 66.8996 15.2836 65.7654 15.2836C64.5204 15.2836 63.5107 15.7655 62.7361 16.7293C61.989 17.6931 61.6156 19.1665 61.6156 21.1492V31.2284H55.9304V10.5745H61.6156V12.929C62.1689 12.1304 62.902 11.4695 63.8149 10.9463C64.7555 10.3955 65.8621 10.1201 67.1348 10.1201C68.6286 10.1201 69.9151 10.4644 70.9941 11.1528C72.073 11.8137 72.9306 12.7363 73.5669 13.9204C73.8989 13.287 74.3 12.7363 74.7703 12.2681C75.2683 11.8 75.8077 11.4144 76.3887 11.1115C76.9697 10.781 77.5645 10.5332 78.1731 10.368C78.8094 10.2027 79.418 10.1201 79.999 10.1201C82.4889 10.1201 84.3977 10.9463 85.7256 12.5986C87.0813 14.2233 87.759 16.4402 87.759 19.2491V31.2284H82.0738V20.1992Z" fill="white"/>
<path d="M101.809 31.6827C100.426 31.6827 99.1394 31.3936 97.9498 30.8153C96.7602 30.2369 95.7228 29.4658 94.8376 28.502C93.9799 27.5106 93.3021 26.3678 92.8042 25.0734C92.3061 23.7516 92.0571 22.3609 92.0571 20.9015C92.0571 19.4419 92.3061 18.065 92.8042 16.7706C93.3021 15.4488 93.9799 14.306 94.8376 13.3421C95.7228 12.3507 96.7602 11.5659 97.9498 10.9876C99.1394 10.4093 100.426 10.1201 101.809 10.1201C103.248 10.1201 104.479 10.423 105.502 11.0289C106.554 11.6072 107.314 12.2268 107.785 12.8877V10.5745H113.47V31.2284H107.785V28.9151C107.314 29.576 106.554 30.2093 105.502 30.8153C104.479 31.3936 103.248 31.6827 101.809 31.6827ZM103.012 26.5192C104.589 26.5192 105.848 25.996 106.789 24.9495C107.757 23.8755 108.241 22.5261 108.241 20.9015C108.241 19.2767 107.757 17.941 106.789 16.8946C105.848 15.8206 104.589 15.2836 103.012 15.2836C101.436 15.2836 100.163 15.8206 99.1947 16.8946C98.2542 17.941 97.7839 19.2767 97.7839 20.9015C97.7839 22.5261 98.2542 23.8755 99.1947 24.9495C100.163 25.996 101.436 26.5192 103.012 26.5192Z" fill="white"/>
<path d="M119.412 39.8616V10.5745H125.097V12.8877C125.567 12.2268 126.328 11.6072 127.379 11.0289C128.431 10.423 129.676 10.1201 131.114 10.1201C132.497 10.1201 133.784 10.4093 134.973 10.9876C136.163 11.5659 137.187 12.3507 138.044 13.3421C138.93 14.306 139.621 15.4488 140.119 16.7706C140.617 18.065 140.866 19.4419 140.866 20.9015C140.866 22.3609 140.617 23.7516 140.119 25.0734C139.621 26.3678 138.93 27.5106 138.044 28.502C137.187 29.4658 136.163 30.2369 134.973 30.8153C133.784 31.3936 132.497 31.6827 131.114 31.6827C129.676 31.6827 128.431 31.3936 127.379 30.8153C126.328 30.2093 125.567 29.576 125.097 28.9151V39.8616H119.412ZM129.869 26.5192C131.446 26.5192 132.705 25.996 133.646 24.9495C134.614 23.8755 135.098 22.5261 135.098 20.9015C135.098 19.2767 134.614 17.941 133.646 16.8946C132.705 15.8206 131.446 15.2836 129.869 15.2836C128.292 15.2836 127.02 15.8206 126.051 16.8946C125.111 17.941 124.641 19.2767 124.641 20.9015C124.641 22.5261 125.111 23.8755 126.051 24.9495C127.02 25.996 128.292 26.5192 129.869 26.5192Z" fill="white"/>
</g>
<defs>
<clipPath id="clip0_12_237">
<rect width="140.845" height="40" fill="white" transform="translate(0.0209961 -0.000244141)"/>
</clipPath>
</defs>
</svg>
