<svg width="251" height="30" viewBox="0 0 251 30" fill="none" xmlns="http://www.w3.org/2000/svg">
<g clip-path="url(#clip0_12_275)">
<path d="M56.7856 8.03901H62.8641V29.5423H56.7856V8.03901ZM68.6157 8.03901H74.6941V11.1109C75.0209 10.6534 75.4131 10.1959 75.8706 9.80371C76.2628 9.41156 76.7203 9.0194 77.2432 8.6926C77.766 8.3658 78.2889 8.10437 78.9425 7.90829C79.5307 7.71221 80.2497 7.64685 81.034 7.64685C83.387 7.64685 85.1517 8.3658 86.4588 9.80371C87.7007 11.2416 88.3543 13.137 88.3543 15.6207V29.5423H82.2758V17.5815C82.2758 16.1436 81.949 15.0325 81.2955 14.3135C80.6419 13.5946 79.7268 13.2024 78.5504 13.2024C77.3739 13.2024 76.4588 13.5946 75.7399 14.3135C75.0863 15.0325 74.6941 16.1436 74.6941 17.5815V29.5423H68.6157V8.03901Z" fill="#4267CF"/>
<path d="M42.2758 13.2678H39.7268V8.2351H42.2758V6.86255C42.2758 4.50961 42.8641 2.81027 43.9752 1.63379C45.0863 0.522684 46.7203 -0.0655518 48.8771 -0.0655518C49.8575 -0.0655518 50.6418 -0.000192277 51.3608 0.130527C52.0144 0.261246 52.668 0.391965 53.2562 0.588043V5.62072C52.7987 5.49 52.3412 5.35929 51.949 5.22857C51.4915 5.16321 51.034 5.09785 50.5111 5.09785C49.0079 5.09785 48.2889 5.88216 48.2889 7.45079V8.30046H53.1909V13.2678H48.3543V29.5423H42.2758V13.2678Z" fill="#4267CF"/>
<path d="M91.6221 8.03901H97.7005V11.1109C98.0273 10.6534 98.4195 10.1959 98.877 9.80371C99.2691 9.41156 99.7266 9.0194 100.25 8.6926C100.772 8.3658 101.295 8.10437 101.949 7.90829C102.602 7.71221 103.256 7.64685 104.04 7.64685C105.478 7.64685 106.655 7.97365 107.701 8.56188C108.746 9.15012 109.531 9.99979 110.053 11.1109C110.968 9.99979 112.014 9.15012 113.191 8.56188C114.367 7.97365 115.674 7.71221 117.112 7.71221C119.4 7.71221 121.165 8.3658 122.472 9.73835C123.779 11.0455 124.367 13.0717 124.367 15.6207V29.6076H118.289V17.6468C118.289 16.2089 117.962 15.0978 117.374 14.3789C116.785 13.6599 115.87 13.2678 114.694 13.2678C113.517 13.2678 112.668 13.6599 112.014 14.3789C111.361 15.0978 111.034 16.2089 111.034 17.6468V29.6076H104.955V17.6468C104.955 16.2089 104.629 15.0978 104.04 14.3789C103.452 13.6599 102.537 13.2678 101.361 13.2678C100.184 13.2678 99.3345 13.6599 98.6809 14.3789C98.0273 15.0978 97.7005 16.2089 97.7005 17.6468V29.6076H91.6221V8.10437V8.03901ZM137.635 25.6861C139.073 25.6861 140.25 25.3593 141.099 24.6403C141.949 23.9214 142.406 23.0063 142.406 21.8952V20.7841C141.884 20.5227 141.295 20.3266 140.642 20.1959C139.988 20.0652 139.269 19.9998 138.55 19.9998C137.243 19.9998 136.197 20.2612 135.478 20.7841C134.759 21.307 134.367 22.0259 134.367 23.0063V23.0717C134.367 23.9214 134.694 24.5096 135.282 24.9671C135.87 25.4246 136.72 25.6207 137.701 25.6207L137.635 25.6861ZM135.805 29.8691C134.759 29.8691 133.844 29.7384 132.929 29.4769C132.014 29.2155 131.23 28.758 130.576 28.2351C129.923 27.6469 129.4 26.9933 129.008 26.1436C128.616 25.3593 128.419 24.3789 128.419 23.3331V23.2678C128.419 22.0913 128.616 21.0455 129.073 20.1959C129.531 19.3462 130.119 18.6272 130.838 18.039C131.622 17.4508 132.537 17.0586 133.583 16.7972C134.629 16.5357 135.805 16.405 137.112 16.405C138.223 16.405 139.138 16.4704 139.988 16.6665C140.838 16.7972 141.622 17.0586 142.406 17.3201V16.9279C142.406 15.6207 142.014 14.6403 141.23 13.9867C140.446 13.3331 139.334 13.0063 137.766 13.0063C136.589 13.0063 135.544 13.137 134.694 13.3331C133.779 13.5292 132.864 13.7906 131.884 14.1828L130.38 9.54227C131.557 9.0194 132.799 8.62724 134.04 8.30044C135.348 7.97365 136.851 7.84293 138.681 7.84293C140.38 7.84293 141.818 8.03901 142.995 8.49652C144.171 8.88868 145.151 9.47691 145.936 10.2612C146.72 11.0455 147.308 12.0259 147.701 13.2024C148.093 14.3789 148.289 15.6861 148.289 17.124V29.6076H142.406V27.2547C141.687 28.1044 140.772 28.758 139.727 29.2155C138.681 29.7384 137.439 29.9344 135.936 29.9344L135.805 29.8691ZM160.968 29.8691C159.465 29.8691 157.897 29.6076 156.328 29.0848C154.759 28.5619 153.191 27.7122 151.753 26.6011L154.367 22.6142C155.544 23.4638 156.72 24.1174 157.897 24.5096C159.073 24.9671 160.119 25.1632 161.165 25.1632C162.08 25.1632 162.668 25.0325 163.125 24.7057C163.518 24.3789 163.779 24.0521 163.779 23.5292V23.4638C163.779 23.137 163.648 22.8756 163.387 22.6142C163.125 22.3527 162.799 22.1567 162.406 21.9606C162.014 21.7645 161.491 21.6338 160.968 21.4377C160.446 21.2416 159.857 21.1109 159.269 20.9148C158.485 20.7187 157.766 20.4573 156.982 20.1305C156.197 19.8037 155.544 19.4116 154.89 18.954C154.302 18.4312 153.779 17.8429 153.387 17.124C152.995 16.405 152.799 15.49 152.799 14.4442V14.3789C152.799 13.2678 152.995 12.2874 153.452 11.5031C153.844 10.6534 154.433 9.93443 155.151 9.3462C155.87 8.75796 156.72 8.30044 157.635 8.03901C158.616 7.71221 159.596 7.58149 160.707 7.58149C162.08 7.58149 163.452 7.77757 164.89 8.23508C166.263 8.6926 167.57 9.28084 168.746 10.0652L166.393 14.2482C165.348 13.6599 164.302 13.137 163.256 12.8102C162.21 12.4181 161.361 12.2874 160.576 12.2874C159.857 12.2874 159.269 12.4181 158.877 12.6795C158.485 12.941 158.289 13.3331 158.289 13.7253V13.7906C158.289 14.1174 158.419 14.3789 158.681 14.575C158.942 14.771 159.269 15.0325 159.661 15.2285C160.053 15.4246 160.511 15.6207 161.034 15.8168C161.557 16.0129 162.145 16.2089 162.733 16.405C163.452 16.6665 164.236 16.9279 165.021 17.2547C165.805 17.5815 166.524 17.9736 167.112 18.4965C167.701 18.954 168.223 19.5423 168.616 20.2612C169.008 20.9802 169.204 21.8299 169.204 22.8102V22.8756C169.204 24.0521 169.008 25.0978 168.55 26.0129C168.158 26.8625 167.57 27.5815 166.785 28.1697C166.067 28.758 165.151 29.1501 164.171 29.4116C163.191 29.673 162.08 29.8037 160.968 29.8037V29.8691ZM180.772 29.8037C179.857 29.8037 179.008 29.673 178.223 29.4769C177.439 29.2808 176.785 28.954 176.263 28.4312C175.74 27.9083 175.282 27.2547 174.955 26.4704C174.629 25.6207 174.498 24.6403 174.498 23.3331V13.137H171.949V7.90829H174.498V2.41809H180.576V7.90829H185.609V13.137H180.576V22.3527C180.576 23.7253 181.23 24.4442 182.537 24.4442C183.583 24.4442 184.629 24.1828 185.544 23.6599V28.5619C184.89 28.954 184.171 29.2155 183.387 29.4769C182.602 29.7384 181.687 29.8037 180.707 29.8037H180.772ZM204.236 16.9933C204.04 15.6207 203.583 14.5096 202.799 13.6599C202.014 12.8102 200.968 12.4181 199.727 12.4181C198.419 12.4181 197.439 12.8102 196.589 13.6599C195.805 14.5096 195.282 15.6207 195.021 16.9933H204.171H204.236ZM200.315 29.8691C198.681 29.8691 197.243 29.6076 195.87 29.0848C194.498 28.5619 193.321 27.7776 192.276 26.7972C191.295 25.8168 190.511 24.6403 189.923 23.2678C189.334 21.8952 189.073 20.3919 189.073 18.758V18.6926C189.073 17.1893 189.334 15.7514 189.857 14.3789C190.38 13.0063 191.099 11.8299 192.014 10.7841C192.929 9.73835 194.04 8.95404 195.348 8.3658C196.655 7.77757 198.093 7.45077 199.661 7.45077C201.426 7.45077 202.995 7.77757 204.302 8.43116C205.609 9.08476 206.72 9.93443 207.57 11.0455C208.419 12.1567 209.073 13.3985 209.465 14.771C209.857 16.2089 210.119 17.6468 210.119 19.1501C210.119 19.4116 210.119 19.673 210.119 19.9344C210.119 20.1959 210.053 20.4573 210.053 20.7841H195.086C195.413 22.1567 196.001 23.2024 196.916 23.9214C197.831 24.6403 199.008 24.9671 200.315 24.9671C201.361 24.9671 202.276 24.771 203.06 24.4442C203.844 24.1174 204.694 23.5292 205.544 22.7449L209.008 25.8168C207.962 27.0586 206.785 28.039 205.348 28.758C203.91 29.4769 202.21 29.8037 200.25 29.8037L200.315 29.8691ZM214.694 7.90829H220.772V12.222C221.361 10.7187 222.21 9.54227 223.321 8.6926C224.367 7.77757 225.805 7.38541 227.635 7.51613V13.856H227.308C225.282 13.856 223.714 14.4442 222.537 15.6861C221.361 16.9279 220.772 18.8233 220.772 21.4377V29.3462H214.694V7.84293V7.90829ZM239.008 29.8037C237.504 29.8037 235.936 29.5423 234.367 29.0194C232.799 28.4965 231.23 27.6469 229.792 26.5357L232.406 22.5488C233.583 23.3985 234.759 24.0521 235.936 24.4442C237.112 24.9018 238.158 25.0978 239.204 25.0978C240.119 25.0978 240.707 24.9671 241.165 24.6403C241.557 24.3135 241.818 23.9867 241.818 23.4638V23.3985C241.818 23.0717 241.687 22.8102 241.426 22.5488C241.165 22.2874 240.838 22.0913 240.446 21.8952C240.053 21.6991 239.531 21.5684 239.008 21.3723C238.485 21.1763 237.897 21.0455 237.308 20.8495C236.589 20.6534 235.805 20.3919 235.021 20.0652C234.236 19.7384 233.583 19.3462 232.929 18.8887C232.341 18.3658 231.818 17.7776 231.426 17.0586C231.034 16.3397 230.838 15.4246 230.838 14.3789V14.3135C230.838 13.2024 231.034 12.222 231.491 11.4377C231.884 10.588 232.472 9.86907 233.191 9.28084C233.91 8.6926 234.759 8.23508 235.674 7.97365C236.655 7.64685 237.635 7.51613 238.746 7.51613C240.119 7.51613 241.491 7.71221 242.864 8.16972C244.302 8.62724 245.544 9.21548 246.72 9.99979L244.367 14.1828C243.321 13.5946 242.276 13.0717 241.23 12.7449C240.184 12.3527 239.335 12.222 238.55 12.222C237.831 12.222 237.243 12.3527 236.851 12.6142C236.459 12.8756 236.263 13.2678 236.263 13.6599V13.7253C236.263 14.0521 236.393 14.3135 236.655 14.5096C236.916 14.7057 237.243 14.9671 237.635 15.1632C238.027 15.3593 238.485 15.5553 239.008 15.7514C239.531 15.9475 240.053 16.1436 240.642 16.3397C241.426 16.6011 242.145 16.8625 242.929 17.1893C243.714 17.5161 244.367 17.9083 245.021 18.4312C245.609 18.8887 246.132 19.4769 246.524 20.1959C246.916 20.9148 247.112 21.7645 247.112 22.7449V22.8102C247.112 23.9867 246.916 25.0325 246.459 25.9475C246.067 26.7972 245.478 27.5161 244.694 28.1044C243.91 28.6926 243.06 29.0848 242.08 29.3462C241.099 29.6076 239.988 29.7384 238.877 29.7384L239.008 29.8037Z" fill="#4267CF"/>
<path d="M59.792 6.27427C61.5247 6.27427 62.9293 4.86967 62.9293 3.13701C62.9293 1.40435 61.5247 -0.000244141 59.792 -0.000244141C58.0594 -0.000244141 56.6548 1.40435 56.6548 3.13701C56.6548 4.86967 58.0594 6.27427 59.792 6.27427Z" fill="#4267CF"/>
<path d="M32.4065 -0.000244141H3.32153C3.06885 -0.000244141 2.86401 0.263118 2.86401 0.587991V7.25466C2.86401 7.57953 3.06885 7.84289 3.32153 7.84289H32.4065C32.6592 7.84289 32.864 7.57953 32.864 7.25466V0.587991C32.864 0.263118 32.6592 -0.000244141 32.4065 -0.000244141Z" fill="#00143D"/>
<path d="M10.2496 20.588H2.99473C2.92254 20.588 2.86401 20.8514 2.86401 21.1762V27.8429C2.86401 28.1678 2.92254 28.4312 2.99473 28.4312H10.2496C10.3218 28.4312 10.3804 28.1678 10.3804 27.8429V21.1762C10.3804 20.8514 10.3218 20.588 10.2496 20.588Z" fill="#4267CF"/>
<path d="M21.2954 10.2612H3.19081C3.01033 10.2612 2.86401 10.5246 2.86401 10.8495V17.5161C2.86401 17.841 3.01033 18.1044 3.19081 18.1044H21.2954C21.4759 18.1044 21.6222 17.841 21.6222 17.5161V10.8495C21.6222 10.5246 21.4759 10.2612 21.2954 10.2612Z" fill="#294285"/>
</g>
<defs>
<clipPath id="clip0_12_275">
<rect width="250" height="30" fill="white" transform="translate(0.0209961 -0.000244141)"/>
</clipPath>
</defs>
</svg>
