<svg width="153" height="40" viewBox="0 0 153 40" fill="none" xmlns="http://www.w3.org/2000/svg">
<g clip-path="url(#clip0_12_218)">
<path d="M14.7028 3.72683H18.0484C20.0858 3.42668 22.1666 3.69057 24.0645 4.48985C26.4457 5.92245 28.1728 8.22878 28.8775 10.9169C29.3764 12.3255 29.3764 12.3255 30.5796 11.8266H31.5187V0.674738H0.0293265V2.64099H1.3206C1.88173 2.6371 2.4366 2.75898 2.94445 2.99767C3.45229 3.23636 3.90021 3.58579 4.2553 4.0203C5.45853 5.9572 5.66396 8.12888 5.66396 19.4275C5.66396 31.4304 5.39983 34.3651 4.2553 35.8618C3.97274 36.2466 3.60692 36.5626 3.18515 36.7862C2.76337 37.0098 2.29654 37.1352 1.8195 37.1531C0.0293265 37.4759 0.0293265 37.4466 0.0293265 38.2389C-0.0696713 38.5039 -0.0696713 38.7957 0.0293265 39.0606H19.8973C20.0287 38.8014 20.0973 38.5149 20.0973 38.2243C20.0973 37.9336 20.0287 37.6471 19.8973 37.3879C19.4161 37.254 18.9256 37.1559 18.4299 37.0944C17.8937 37.0306 17.3636 36.9227 16.8452 36.7716C16.1027 36.2296 15.5146 35.5032 15.1389 34.6642C14.7632 33.8253 14.6129 32.9028 14.7028 31.988C14.4094 30.0511 14.2626 26.5001 14.2626 23.5654V21.247H15.4365C16.899 21.2023 18.3607 21.3603 19.7799 21.7166C20.4598 22.1367 21.0385 22.7017 21.4748 23.3714C21.911 24.041 22.1941 24.7987 22.3037 25.5904L22.5678 26.5001H24.358V13.4994H22.7146L22.4505 14.7613C22.3393 15.5709 22.0398 16.3431 21.576 17.0159C21.1122 17.6887 20.497 18.2433 19.7799 18.6351C19.0854 18.8418 18.3537 18.8919 17.6375 18.7819H14.2626V15.6124C14.2626 12.3255 14.4387 5.39961 14.5561 4.31377L14.7028 3.72683ZM152.047 26.999C150.66 24.7663 148.496 23.1253 145.972 22.3915C144.037 21.7867 142.248 20.7875 140.719 19.4568C140.375 19.1239 140.117 18.7119 139.969 18.2566C139.821 17.8014 139.786 17.3167 139.868 16.845C139.87 15.9196 140.24 15.033 140.895 14.3798C141.339 13.9145 141.902 13.5787 142.522 13.4081C143.142 13.2375 143.797 13.2386 144.417 13.4113C145.7 13.777 146.86 14.4828 147.774 15.4541C148.689 16.4254 149.323 17.626 149.611 18.9286C150.081 20.2492 150.139 20.2492 150.99 19.897L151.519 19.6916V12.3842L151.137 12.2081C148.248 11.1934 145.183 10.7741 142.128 10.9755C139.496 11.0422 136.985 12.0888 135.084 13.9102C134.223 14.717 133.548 15.7023 133.106 16.7973C132.665 17.8923 132.469 19.0704 132.531 20.2492C132.548 22.0515 133.263 23.777 134.527 25.0621C135.923 26.4356 137.637 27.4435 139.516 27.9968C144.065 29.787 145.385 30.9315 145.385 33.0152C145.405 33.8938 145.125 34.753 144.591 35.4517C144.058 36.1503 143.303 36.6468 142.45 36.8596C141.426 37.0847 140.364 37.0847 139.34 36.8596C137.998 36.3389 136.8 35.5054 135.846 34.4283C134.891 33.3513 134.208 32.0619 133.852 30.6674L133.47 29.7283H132.942C132.69 29.7471 132.442 29.8065 132.208 29.9044H131.915V38.2389H132.414C134.396 38.8985 136.442 39.3509 138.518 39.5889H141.453C142.725 39.6823 144.005 39.5633 145.238 39.2367C146.805 38.9477 148.268 38.2539 149.483 37.2242C150.698 36.1946 151.622 34.8649 152.164 33.3673C152.515 32.5309 152.694 31.6329 152.693 30.7261C152.808 29.4486 152.586 28.1632 152.047 26.999ZM124.402 11.8266C122.643 11.0883 120.749 10.7301 118.842 10.7756C116.935 10.8211 115.06 11.2693 113.338 12.0907C111.72 12.8822 110.286 14.0041 109.129 15.3841C107.971 16.7641 107.116 18.3715 106.618 20.1025C105.983 21.9908 105.714 23.9828 105.825 25.9719C105.804 27.0541 105.893 28.1356 106.089 29.2C106.563 31.8172 107.827 34.2267 109.71 36.1048C111.594 37.9829 114.007 39.2397 116.625 39.7063C118.33 39.9211 120.056 39.9211 121.761 39.7063C123.53 39.3944 125.224 38.7469 126.75 37.7987C128.012 37.091 129.081 36.0831 129.861 34.864C129.811 34.6728 129.722 34.4936 129.601 34.3372C129.48 34.1809 129.329 34.0506 129.156 33.9543C128.821 34.0756 128.505 34.2435 128.217 34.4532C126.757 35.4152 125.034 35.8974 123.287 35.8325C122.127 35.9109 120.965 35.7303 119.884 35.304C118.803 34.8776 117.83 34.2161 117.036 33.3673C116.422 32.7969 115.915 32.121 115.539 31.3717C114.627 29.5473 114.136 27.5417 114.101 25.5023V24.3578H130.359V23.7708C130.395 23.1845 130.395 22.5964 130.359 22.01C130.354 19.9378 129.799 17.9041 128.753 16.1155C127.707 14.3269 126.205 12.8472 124.402 11.8266ZM116.214 21.9807H114.16V20.2492C114.835 15.8178 116.508 13.1766 118.562 13.1766C120.616 13.1766 121.497 15.7885 121.878 20.572V21.922H120.117L116.214 21.9807ZM74.0132 10.8582C72.9991 10.8188 71.9911 11.0305 71.0785 11.4744C69.095 12.4377 67.4929 14.0398 66.5297 16.0232L66.1482 16.7276V10.8582H66.0014C65.6493 10.8582 54.7909 13.0298 54.4387 13.1766C54.0866 13.3233 54.2039 13.3527 54.2039 13.8809C54.2039 14.4091 54.2039 14.4972 54.4387 14.5265L55.5833 14.7613C55.9038 14.7692 56.2184 14.8499 56.5031 14.9973C56.7878 15.1448 57.0353 15.3551 57.2267 15.6124C57.9604 16.5808 58.1071 18.283 58.1071 25.5317C58.2521 28.7949 58.1146 32.0646 57.6962 35.3042C57.5978 35.7927 57.3501 36.2386 56.9873 36.5803C56.6246 36.922 56.1648 37.1426 55.6713 37.2118L54.6735 37.4172H54.292V38.2389C54.1855 38.5126 54.1855 38.8163 54.292 39.09H70.697V38.2389C70.7539 37.9581 70.7539 37.6687 70.697 37.3879C69.7092 37.3494 68.727 37.2217 67.7623 37.0064C67.2369 36.7316 66.8071 36.3041 66.5295 35.7802C66.2518 35.2564 66.1393 34.6607 66.2069 34.0717C65.9721 32.3695 65.8547 27.3805 65.9134 23.5654C65.9721 19.7503 65.9134 19.5155 66.2362 19.2514C67.2182 18.4985 68.4334 18.1142 69.6698 18.1656C70.8352 18.191 71.9795 18.4821 73.0154 19.0166C73.3745 19.216 73.7597 19.3642 74.1599 19.4568C74.1599 19.4568 77.0946 12.3549 77.0946 12.032C76.7191 11.5956 76.2406 11.2598 75.7026 11.0548C75.1646 10.8498 74.5839 10.7822 74.0132 10.8582ZM54.2333 23.1839C54.1309 21.0868 53.5288 19.0445 52.4772 17.2272C51.4256 15.4099 49.955 13.8702 48.1878 12.7364C46.0877 11.6034 43.7512 10.9787 41.366 10.9125C38.9807 10.8462 36.6131 11.3402 34.4534 12.3549C31.3998 13.9651 29.0942 16.7023 28.0264 19.9851C26.9234 23.6605 26.9234 27.5789 28.0264 31.2543C28.6046 33.2631 29.6853 35.0912 31.1665 36.5662C33.0113 38.3662 35.3899 39.5195 37.9457 39.853C39.5863 39.9902 41.2354 39.9902 42.876 39.853C43.4797 39.7612 44.0775 39.6338 44.6662 39.4715C47.0549 38.8033 49.2039 37.4686 50.8618 35.6236C52.5197 33.7786 53.6179 31.4996 54.0279 29.0533C54.3208 27.1112 54.3898 25.1418 54.2333 23.1839ZM42.0249 37.8574C39.0902 38.7378 36.8892 35.8912 36.1555 29.9044C35.8861 26.77 35.8861 23.6183 36.1555 20.484C36.7425 15.6711 38.2392 13.2353 40.5576 13.2353C41.0253 13.2063 41.4932 13.2897 41.9221 13.4786C42.351 13.6676 42.7284 13.9564 43.0227 14.3211C44.989 16.2874 45.9574 20.1905 45.9574 26.0599C46.2016 29.3817 45.6795 32.7151 44.4314 35.8031C43.8803 36.7037 43.0276 37.3797 42.0249 37.7107V37.8574ZM94.8496 11.4451C94.0215 11.3385 93.1832 11.3385 92.3551 11.4451C90.7655 11.4437 89.1942 11.784 87.7476 12.4429L86.8378 12.8244V6.4561C86.9968 4.30692 86.9968 2.14893 86.8378 -0.000244141C86.4857 -0.000244141 75.2751 2.14209 75.099 2.23013C75.0125 2.4468 75.0125 2.68844 75.099 2.90511C75.099 3.5214 75.099 3.49205 76.4196 3.78552C76.7904 3.86868 77.1466 4.00718 77.4761 4.19638C78.049 4.73507 78.4303 5.44609 78.562 6.22133C78.8961 8.4547 79.0043 10.7161 78.8848 12.9711V38.7378L79.6772 38.9139C80.851 39.178 84.1673 39.7356 85.2531 39.853C87.4214 40.0255 89.5999 40.0255 91.7681 39.853C94.1748 39.6072 96.4688 38.7093 98.4029 37.2562C100.337 35.803 101.838 33.8496 102.744 31.6065C103.284 30.1668 103.658 28.6702 103.859 27.1458C104.034 25.0808 103.965 23.0024 103.654 20.9535C103.339 18.6569 102.325 16.5127 100.75 14.8117C99.1753 13.1108 97.1153 11.9354 94.8496 11.4451ZM87.1607 37.3585C87.1607 36.977 86.8672 24.123 86.9259 18.9873V14.9667L87.7769 14.7613C88.3512 14.679 88.9342 14.679 89.5084 14.7613C90.1435 14.6967 90.7823 14.841 91.3279 15.1722C92.4239 15.9286 93.334 16.9237 93.9897 18.0827C94.6455 19.2417 95.0298 20.5343 95.1137 21.8633C95.3275 24.0003 95.3275 26.1533 95.1137 28.2903C94.938 31.3962 93.7413 34.3572 91.7094 36.7129C91.1328 37.2607 90.4085 37.6279 89.6258 37.7694C89.0335 37.8724 88.4279 37.8724 87.8356 37.7694C87.278 37.7694 87.278 37.5933 87.278 37.3585H87.1607Z" fill="white"/>
</g>
<defs>
<clipPath id="clip0_12_218">
<rect width="152.722" height="40" fill="white" transform="translate(0 -0.000244141)"/>
</clipPath>
</defs>
</svg>
