<svg width="202" height="40" viewBox="0 0 202 40" fill="none" xmlns="http://www.w3.org/2000/svg">
<g clip-path="url(#clip0_12_244)">
<path d="M19.7117 36.5955C28.9556 36.5955 36.4493 29.1019 36.4493 19.8579C36.4493 10.614 28.9556 3.12036 19.7117 3.12036C10.4678 3.12036 2.97412 10.614 2.97412 19.8579C2.97412 29.1019 10.4678 36.5955 19.7117 36.5955Z" fill="#118B4E"/>
<path d="M19.7117 3.26219C28.9316 3.26219 36.3074 10.6381 36.3074 19.8579C36.3074 29.0778 28.9316 36.4537 19.7117 36.4537C10.4918 36.4537 3.11595 29.0778 3.11595 19.8579C3.11595 10.6381 10.4918 3.26219 19.7117 3.26219ZM19.7117 1.9856C14.889 1.9856 10.4918 3.82957 7.08758 7.23382C3.68333 10.6381 1.83936 15.0352 1.83936 19.8579C1.83936 24.6806 3.68333 29.0778 7.08758 32.482C10.4918 35.8863 14.889 37.7303 19.7117 37.7303C24.5344 37.7303 28.9316 35.8863 32.3358 32.482C35.7401 29.0778 37.584 24.6806 37.584 19.8579C37.584 15.0352 35.7401 10.6381 32.3358 7.23382C28.9316 3.82957 24.3925 1.9856 19.7117 1.9856Z" fill="white"/>
<path d="M19.7117 1.70189C24.5344 1.70189 29.0734 3.54586 32.4776 6.95011C35.8819 10.3544 37.7259 14.8934 37.7259 19.7161C37.7259 24.5388 35.8819 29.0778 32.4776 32.482C29.0734 35.8863 24.5344 37.7303 19.7117 37.7303C14.889 37.7303 10.35 35.8863 6.94572 32.482C3.54146 29.0778 1.55565 24.6806 1.55565 19.8579C1.55565 15.0352 3.39962 10.4962 6.80387 7.09196C10.2081 3.6877 14.889 1.70189 19.7117 1.70189ZM19.7117 0.283447C8.93153 0.283447 0.137207 9.07777 0.137207 19.8579C0.137207 30.6381 8.93153 39.4324 19.7117 39.4324C30.4918 39.4324 39.2861 30.6381 39.2861 19.8579C39.2861 9.07777 30.4918 0.283447 19.7117 0.283447Z" fill="black"/>
<path d="M35.0309 26.6664V13.0493C33.6124 9.78693 31.2011 7.23374 28.2224 5.38977L19.7117 18.0139L11.2011 5.38977C8.22237 7.0919 5.95286 9.78693 4.39258 12.9075V26.9501C5.52733 29.5032 7.3713 31.6309 9.49896 33.333V12.1983L16.5912 22.6947L17.0167 23.2621L17.3004 23.8295L18.8607 26.099L19.8536 27.5174L20.7046 26.099L22.2649 23.8295L22.5486 23.2621L22.9741 22.6947L30.0663 12.1983V33.1912C32.194 31.4891 33.8961 29.2196 35.0309 26.6664Z" fill="white"/>
<path d="M56.733 26.2409V17.4466C56.733 17.3048 56.733 17.0211 56.733 17.0211C56.733 17.0211 56.5912 17.1629 56.5912 17.3048L52.9032 22.2693H52.194L48.3642 17.3048C48.3642 17.3048 48.2224 17.1629 48.2224 17.0211C48.2224 17.0211 48.2224 17.3048 48.2224 17.4466V26.0991H46.6621V14.1842H48.0805L52.6196 19.9998L57.0167 14.1842H58.4352V26.0991H56.733V26.2409Z" fill="#118B4E"/>
<path d="M60.7046 26.2409V14.326H62.2649V26.2409H60.7046Z" fill="#118B4E"/>
<path d="M64.6763 26.2409V14.326H66.2366V24.6807H70.7756V26.2409H64.6763Z" fill="#118B4E"/>
<path d="M72.3359 26.2409V14.326H73.8962V24.6807H78.4352V26.2409H72.3359Z" fill="#118B4E"/>
<path d="M79.8535 26.2409V14.326H86.5202V15.8863H81.5556V19.7161H86.5202V21.2764H81.5556V24.8225H86.9457V26.3828H79.8535V26.2409Z" fill="#118B4E"/>
<path d="M96.7331 26.2409L90.4919 17.5885C90.4919 17.4466 90.3501 17.3048 90.3501 17.3048C90.3501 17.3048 90.3501 17.5885 90.3501 17.7303V26.2409H88.7898V14.326H90.2082L96.3075 22.8367L96.4494 23.1204C96.4494 23.1204 96.4494 22.8367 96.4494 22.6948V14.326H98.0097V26.2409H96.7331Z" fill="#118B4E"/>
<path d="M108.364 26.2409L102.265 17.5885C102.265 17.4466 102.123 17.3048 102.123 17.3048C102.123 17.3048 102.123 17.5885 102.123 17.7303V26.2409H100.563V14.326H101.981L108.08 22.8367L108.222 23.1204C108.222 23.1204 108.222 22.8367 108.222 22.6948V14.326H109.783V26.2409H108.364Z" fill="#118B4E"/>
<path d="M112.052 26.2409V14.326H113.613V26.2409H112.052Z" fill="#118B4E"/>
<path d="M123.542 26.2409L122.123 22.4112H118.293L116.875 26.2409H115.173L119.712 14.326H120.705L125.244 26.2409H123.542ZM120.279 17.4466C120.279 17.3048 120.137 17.1629 120.137 17.1629L119.996 17.4466L118.719 20.8509H121.414L120.279 17.4466Z" fill="#118B4E"/>
<path d="M126.804 26.2409V14.326H128.364V24.6807H132.903V26.2409H126.804Z" fill="#118B4E"/>
<path d="M146.804 26.2409V17.4466C146.804 17.3048 146.804 17.0211 146.804 17.0211C146.804 17.0211 146.662 17.1629 146.662 17.3048L142.974 22.2693H142.265L138.435 17.3048C138.435 17.3048 138.293 17.1629 138.293 17.0211C138.293 17.0211 138.293 17.3048 138.293 17.4466V26.0991H136.733V14.1842H138.152L142.691 19.9998L147.088 14.1842H148.506V26.0991H146.804V26.2409Z" fill="#118B4E"/>
<path d="M156.308 26.3828C152.903 26.3828 150.208 23.8296 150.208 20.2835C150.208 16.8792 152.761 14.1842 156.166 14.1842C159.854 14.1842 162.265 16.8792 162.265 20.2835C162.265 23.6877 159.712 26.3828 156.308 26.3828ZM156.166 15.7445C153.613 15.7445 151.769 17.5885 151.769 20.2835C151.769 22.9785 153.896 24.8225 156.166 24.8225C158.435 24.8225 160.563 23.1204 160.563 20.2835C160.705 17.5885 158.861 15.7445 156.166 15.7445Z" fill="#118B4E"/>
<path d="M172.194 26.2409L165.953 17.5885C165.953 17.4466 165.811 17.3048 165.811 17.3048C165.811 17.3048 165.811 17.5885 165.811 17.7303V26.2409H164.251V14.326H165.669L171.768 22.8367L171.91 23.1204C171.91 23.1204 171.91 22.8367 171.91 22.6948V14.326H173.471V26.2409H172.194Z" fill="#118B4E"/>
<path d="M175.74 26.2409V14.326H182.407V15.8863H177.442V19.7161H182.407V21.2764H177.442V24.8225H182.832V26.3828H175.74V26.2409Z" fill="#118B4E"/>
<path d="M189.499 20.709V26.2409H187.939V20.709L183.825 14.326H185.669L188.506 18.7232C188.506 18.8651 188.648 19.0069 188.648 19.0069C188.648 19.0069 188.79 18.7232 188.79 18.5814L191.627 14.1842H193.471L189.499 20.709Z" fill="#118B4E"/>
<path d="M197.726 21.7019C195.882 21.7019 194.322 20.1417 194.322 18.2977C194.322 16.4537 195.882 14.8934 197.726 14.8934C199.57 14.8934 201.13 16.4537 201.13 18.2977C201.13 20.1417 199.57 21.7019 197.726 21.7019ZM197.726 15.319C196.166 15.319 194.747 16.5956 194.747 18.2977C194.747 19.858 196.024 21.2764 197.726 21.2764C199.428 21.2764 200.705 19.9998 200.705 18.2977C200.705 16.7374 199.286 15.319 197.726 15.319ZM198.719 20.1417L197.158 18.2977V20.1417H196.591V16.17H197.868C198.577 16.17 199.144 16.7374 199.144 17.3048C199.144 17.8722 198.577 18.4395 198.009 18.4395L199.428 20.1417H198.719ZM197.868 16.7374H197.158V18.014H197.726C198.151 18.014 198.435 17.7303 198.435 17.3048C198.435 17.1629 198.151 16.7374 197.868 16.7374Z" fill="#118B4E"/>
</g>
<defs>
<clipPath id="clip0_12_244">
<rect width="201.418" height="40" fill="white" transform="translate(0.137207 -0.000244141)"/>
</clipPath>
</defs>
</svg>
