                        <svg width="1386" height="632" class="animate svgFile" id="my-svg" viewBox="0 0 1386 632"
                            fill="none" xmlns="http://www.w3.org/2000/svg">
                            <style type="text/css">
                                .st0 {
                                    display: none;
                                    fill: none;
                                    stroke: #E5B049;
                                    stroke-width: 1.5;
                                }

                                .st1 {
                                    fill: none;
                                    stroke: #E5B049;
                                    stroke-width: 1.5;
                                }

                                .st2 {
                                    fill: #D6A443;
                                }

                                .st3 {
                                    font-family: "Noto Sans KR";
                                }

                                .st4 {
                                    font-size: 26.6482px;
                                    font-weight: 300;
                                }
                            </style>
                            <path fill-rule="evenodd"
                                d="M297.121 479.53L301.591 475.061L300.53 474L295 479.53L300.53 485.061L301.591 484L297.121 479.53Z"
                                fill="#E5B049" />
                            <path fill-rule="evenodd"
                                d="M607.121 478.53L611.591 474.061L610.53 473L605 478.53L610.53 484.061L611.591 483L607.121 478.53Z"
                                fill="#E5B049" />
                            <path fill-rule="evenodd"
                                d="M942.121 479.6L946.497 475.039L945.415 474L940 479.643L945.643 485.058L946.682 483.976L942.121 479.6Z"
                                fill="#E5B049" />
                            <path fill-rule="evenodd"
                                d="M954.933 70.6532L950.633 66.0205L951.732 65L957.053 70.7321L951.321 76.053L950.3 74.9536L954.933 70.6532Z"
                                fill="#E5B049" />
                            <path fill-rule="evenodd"
                                d="M612.939 70.5303L608.47 66.0607L609.53 65L615.061 70.5303L609.53 76.0606L608.47 75L612.939 70.5303Z"
                                fill="#E5B049" />
                            <path fill-rule="evenodd"
                                d="M311.939 70L307.47 65.5304L308.53 64.4697L314.061 70L308.53 75.5304L307.47 74.4697L311.939 70Z"
                                fill="#E5B049" />

                            <path
                                d="M145 59.5L133.929 38.2096C133.154 36.7186 134.451 34.9942 136.099 35.3263L224.5 53.1486L153 59.5M152.5 76.5L169.414 110.405C170.039 111.658 171.724 111.898 172.674 110.868L225.206 53.9036C225.554 53.5253 225.173 52.9303 224.684 53.089L152.5 76.5Z"
                                stroke="#E5B049" stroke-width="1.5" />
                            <path
                                d="M144 57.5L145.054 59.8712C145.639 61.187 145.471 62.7155 144.615 63.8734L130.988 82.3099C130.398 83.1085 131.207 84.1861 132.139 83.8425L153 76.1489"
                                stroke="#E5B049" stroke-width="1.5" />
                            <path d="M155.5 83L132 84" stroke="#E5B049" stroke-width="1.5" />
                            <path
                                d="M121 37.6667L117.181 34.5147C111.436 29.773 102.961 30.4606 98.056 36.0666V36.0666C92.6855 42.2039 83.4596 43.0854 77.0241 38.0761L74 35.7222"
                                stroke="#E5B049" stroke-width="1.5" />
                            <path
                                d="M121 66.6667L117.181 63.5147C111.436 58.773 102.961 59.4606 98.056 65.0666V65.0666C92.6855 71.2039 83.4596 72.0854 77.0241 67.0761L74 64.7222"
                                stroke="#E5B049" stroke-width="1.5" />
                            <path
                                d="M121 98.6667L117.181 95.5147C111.436 90.773 102.961 91.4606 98.056 97.0666V97.0666C92.6855 103.204 83.4596 104.085 77.0241 99.0761L74 96.7222"
                                stroke="#E5B049" stroke-width="1.5" />
                            <path d="M71 33L67 29.5" stroke="#E5B049" stroke-width="1.5" />
                            <path d="M71 62.5L67 59" stroke="#E5B049" stroke-width="1.5" />
                            <path d="M71 94.5L67 91" stroke="#E5B049" stroke-width="1.5" />
                            <path d="M507 39L460.166 70.0527C457.474 71.8374 453.973 71.8286 451.291 70.0303L405 39"
                                stroke="#E5B049" stroke-width="1.5" />
                            <path d="M507 38L460.273 3.53827C457.427 1.43881 453.539 1.45795 450.713 3.58535L405 38"
                                stroke="#E5B049" stroke-width="1.5" />
                            <path d="M458.916 71L506 109M452.601 71L406 109" stroke="#E5B049" stroke-width="1.5" />
                            <path
                                d="M478.775 36.5345L453.923 25.789C452.913 25.3525 451.74 25.8132 451.298 26.8202L436.5 60.5"
                                stroke="#E5B049" stroke-width="1.6" />
                            <path
                                d="M493.5 47L484.101 35.491C483.421 34.6584 482.204 34.5123 481.346 35.1602L442.5 64.5"
                                stroke="#E5B049" stroke-width="1.6" />
                            <path
                                d="M450.727 29.0191L425.196 29.1789C424.097 29.1858 423.209 30.0792 423.209 31.1788L423.209 51.5"
                                stroke="#E5B049" stroke-width="1.6" />
                            <path d="M447.5 34.5H431C429.895 34.5 429 35.3954 429 36.5V54.5" stroke="#E5B049"
                                stroke-width="1.5" />
                            <path
                                d="M472.898 41.3109L457.679 34.7638C456.689 34.3378 455.539 34.7733 455.08 35.7484L442 63.5"
                                stroke="#E5B049" stroke-width="1.5" />
                            <path d="M488 51.5L483.066 45.366C482.39 44.5258 481.17 44.3726 480.308 45.0195L449 68.5"
                                stroke="#E5B049" stroke-width="1.5" />
                            <path d="M405 38V107C405 108.105 405.895 109 407 109H505C506.105 109 507 108.105 507 107V38"
                                stroke="#E5B049" stroke-width="1.5" stroke-linecap="round" />
                            <path
                                d="M798.5 112.085H726C716.611 112.085 709 104.473 709 95.0845V16.8594C709 15.4943 710.337 14.5303 711.632 14.962L715.868 16.3737C716.278 16.5106 716.722 16.5106 717.132 16.3737L723.435 14.2729C723.804 14.15 724.2 14.1372 724.576 14.2362L733.004 16.4539C733.329 16.5396 733.671 16.5417 733.998 16.4601L743.002 14.209C743.329 14.1273 743.671 14.1295 743.996 14.2151L752.491 16.4506C752.825 16.5384 753.175 16.5384 753.509 16.4506L761.961 14.2263C762.314 14.1336 762.685 14.1389 763.035 14.2417L770.376 16.4009C770.781 16.5203 771.215 16.5079 771.613 16.3657L778 14.0845C778.667 13.9179 780 13.8845 780 15.0845"
                                stroke="#E5B049" stroke-width="1.5" />
                            <path d="M781 49.0845H829.5" stroke="#E5B049" stroke-width="1.5" />
                            <path d="M814 66.0845L847 66.0845C847.5 66.0845 848.4 65.7845 848 64.5845" stroke="#E5B049"
                                stroke-width="1.5" />
                            <!-- <path
                                d="M728.57 41.0845C729.451 40.3446 730 39.3036 730 38.1505C730 35.9049 727.92 34.0845 725.353 34.0845C724.035 34.0845 722.846 34.5645 722 35.3356"
                                stroke="#E5B049" stroke-width="1.5" />
                            <path
                                d="M720 44.6007C720 47.6293 722.462 50.0845 725.5 50.0845C728.538 50.0845 731 47.6293 731 44.6007C731 42.7276 730.058 41.0738 728.621 40.0845"
                                stroke="#E5B049" stroke-width="1.5" />
                            <path
                                d="M749.25 42.0845C749.25 46.7747 746.106 50.3345 742.5 50.3345C738.894 50.3345 735.75 46.7747 735.75 42.0845C735.75 37.3943 738.894 33.8345 742.5 33.8345C746.106 33.8345 749.25 37.3943 749.25 42.0845Z"
                                stroke="#E5B049" stroke-width="1.5" />
                            <circle cx="757" cy="36.0845" r="3.25" stroke="#E5B049" stroke-width="1.5" />
                            <circle cx="767" cy="47.0845" r="3.25" stroke="#E5B049" stroke-width="1.5" />
                            <path d="M767 33.5845L757 50.5845M763 62.5845H720M753 70.5845H720M763 79.0845H720"
                                stroke="#E5B049" stroke-width="1.5" /> -->
                            <path class="st0"
                                d="M728.6,41.1c0.9-0.7,1.4-1.8,1.4-2.9c0-2.2-2.1-4.1-4.6-4.1c-1.3,0-2.5,0.5-3.4,1.3" />
                            <path class="st0" d="M720,44.6c0,3,2.5,5.5,5.5,5.5s5.5-2.5,5.5-5.5c0-1.9-0.9-3.5-2.4-4.5" />
                            <path class="st0"
                                d="M749.3,42.1c0,4.7-3.1,8.3-6.8,8.3s-6.8-3.6-6.8-8.3s3.1-8.3,6.8-8.3S749.3,37.4,749.3,42.1z" />
                            <circle class="st1" cx="757" cy="36.1" r="3.3" />
                            <circle class="st1" cx="767" cy="47.1" r="3.3" />
                            <path class="st1" d="M767,33.6l-10,17 M763,62.6h-43 M753,70.6h-33 M763,79.1h-43" />
                            <text transform="matrix(1.2088 0 0 1 715.9792 52.2622)" class="st2 st3 st4">50</text>
                            <path
                                d="M780 15.0845V95.0845C780 104.473 787.611 112.085 797 112.085V112.085C806.389 112.085 814 104.473 814 95.0845V66.0845"
                                stroke="#E5B049" stroke-width="1.5" />
                            <path
                                d="M814 91.5845V66.0845C814 56.6957 821.611 49.0845 831 49.0845H832C840.837 49.0845 848 56.248 848 65.0845V65.0845"
                                stroke="#E5B049" stroke-width="1.5" />
                            <path
                                d="M1067.5 153H1023C1022.45 153 1022 153.448 1022 154V237C1022 237.552 1022.45 238 1023 238H1047"
                                stroke="#E5B049" stroke-width="1.5" />
                            <path
                                d="M1067.5 160H1031C1030.45 160 1030 160.448 1030 161V218C1030 218.552 1030.45 219 1031 219H1046.5"
                                stroke="#E5B049" stroke-width="1.5" />
                            <path d="M1030 198.5L1039.5 189C1041.43 187.067 1044.57 187.067 1046.5 189V189"
                                stroke="#E5B049" stroke-width="1.5" />
                            <path
                                d="M1067 168.5V147C1067 146.448 1067.45 146 1068 146H1137C1137.55 146 1138 146.448 1138 147V230C1138 230.552 1137.55 231 1137 231H1117"
                                stroke="#E5B049" stroke-width="1.5" />
                            <path
                                d="M1075 168.5V154C1075 153.448 1075.45 153 1076 153H1129C1129.55 153 1130 153.448 1130 154V211C1130 211.552 1129.55 212 1129 212H1116"
                                stroke="#E5B049" stroke-width="1.5" />
                            <rect x="1046.75" y="168.75" width="69.5" height="83.5" rx="1.25" stroke="#E5B049"
                                stroke-width="1.5" />
                            <rect x="1054.75" y="175.75" width="53.5" height="57.5" rx="1.25" stroke="#E5B049"
                                stroke-width="1.5" />
                            <path
                                d="M1108 207.5L1095.95 195.45C1093.22 192.716 1088.78 192.716 1086.05 195.45L1075.41 206.086C1074.63 206.867 1073.37 206.867 1072.59 206.086L1071.95 205.45C1069.22 202.716 1064.78 202.716 1062.05 205.45L1055 212.5"
                                stroke="#E5B049" stroke-width="1.5" />
                            <circle cx="1072" cy="189" r="4.25" stroke="#E5B049" stroke-width="1.5" />
                            <path
                                d="M1135.31 388.308V315C1135.31 313.895 1134.41 313 1133.31 313H1030C1028.9 313 1028 313.895 1028 315V409.077C1028 410.181 1028.9 411.077 1030 411.077H1113.5"
                                stroke="#E5B049" stroke-width="1.5" />
                            <path
                                d="M1126 387.472V324.308C1126 323.203 1125.1 322.308 1124 322.308H1039C1037.9 322.308 1037 323.203 1037 324.308V400.308C1037 401.412 1037.9 402.308 1039 402.308H1112.11"
                                stroke="#E5B049" stroke-width="1.5" />
                            <path
                                d="M1127.23 345.308C1121.27 346.525 1110.94 349.632 1100.25 354.891M1074.14 374.154C1081.28 366.474 1091.2 359.337 1100.25 354.891M1046.46 374.154C1053.46 367.819 1074.46 354.175 1100.25 354.891"
                                stroke="#E5B049" stroke-width="1.5" />
                            <path d="M1126.08 374.154H1037M1126.08 382.417H1047.14M1121 390.308H1090.67"
                                stroke="#E5B049" stroke-width="1.5" />
                            <circle cx="1052.62" cy="339.923" r="4.25" stroke="#E5B049" stroke-width="1.5" />
                            <circle cx="1130.12" cy="404.731" r="17.1346" stroke="#E5B049" stroke-width="1.5" />
                            <circle cx="1130.12" cy="404.731" r="12.5192" stroke="#E5B049" stroke-width="1.5" />
                            <path d="M1136 399.308L1130.06 408.308L1126 404.308" stroke="#E5B049" stroke-width="1.5" />
                            <path
                                d="M801 518H813C814.105 518 815 517.105 815 516V401C815 399.895 814.105 399 813 399H712C710.895 399 710 399.895 710 401V516C710 517.105 710.895 518 712 518H793.5"
                                stroke="#E5B049" stroke-width="1.5" />
                            <path
                                d="M790 508H804C804.552 508 805 507.552 805 507V410C805 409.448 804.552 409 804 409H721C720.448 409 720 409.448 720 410V507C720 507.552 720.448 508 721 508H783.506"
                                stroke="#E5B049" stroke-width="1.5" />
                            <path d="M710.5 399.5L715.5 404.5L720.5 409.5M814.5 399.5L809.5 404.5L804.5 409.5"
                                stroke="#E5B049" stroke-width="1.5" />
                            <path
                                d="M710.5 517.5L715.5 512.5C715.5 512.5 718.547 509.453 720.5 507.5M814.5 517.5L809.5 512.5L804.5 507.5"
                                stroke="#E5B049" stroke-width="1.5" />
                            <path
                                d="M757.75 461.385C757.75 461.034 758.034 460.75 758.385 460.75H767.615C767.966 460.75 768.25 461.034 768.25 461.385V463C768.25 465.899 765.899 468.25 763 468.25C760.101 468.25 757.75 465.899 757.75 463V461.385Z"
                                stroke="#E5B049" stroke-width="1.5" />
                            <circle cx="763" cy="459" r="24.25" stroke="#E5B049" stroke-width="1.5" />
                            <path
                                d="M801.839 518.454L778.534 498.027L776.061 500.5L798.078 522.475C799.172 523.567 800.95 523.545 802.017 522.426C803.098 521.292 803.017 519.487 801.839 518.454Z"
                                stroke="#E5B049" stroke-width="1.5" />
                            <path
                                d="M769.196 493.677L769.194 493.703L769.189 493.73L769.181 493.774C768.765 496.103 768.506 497.555 769.626 499.051C770.66 500.431 771.984 501.016 773.294 501.009C774.622 501.002 776.008 500.386 777.118 499.222C779.251 496.985 779.06 493.187 776.494 490.74C775.254 489.558 773.106 488.797 770.917 488.665C768.814 488.539 766.92 489.004 765.876 489.96C765.878 489.962 765.879 489.964 765.881 489.966C766.088 490.209 766.465 490.504 766.96 490.874C767.005 490.907 767.05 490.941 767.096 490.975C767.524 491.293 768.008 491.654 768.384 492.015C768.595 492.217 768.803 492.448 768.955 492.704C769.108 492.959 769.237 493.294 769.196 493.677Z"
                                stroke="#E5B049" stroke-width="1.5" />
                            <path d="M732 459C732 441.879 745.879 428 763 428" stroke="#E5B049" stroke-width="1.5" />
                            <path d="M794 459C794 471.083 787.087 481.552 777 486.666" stroke="#E5B049"
                                stroke-width="1.5" />
                            <path d="M763 490C755.841 490 749.248 487.573 744 483.497" stroke="#E5B049"
                                stroke-width="1.5" />
                            <path d="M777 431.334C782.462 434.103 786.993 438.442 790 443.757" stroke="#E5B049"
                                stroke-width="1.5" />
                            <rect x="748.75" y="454.75" width="4.5" height="4.5" rx="2.25" stroke="#E5B049"
                                stroke-width="1.5" />
                            <rect x="772.75" y="454.75" width="4.5" height="4.5" rx="2.25" stroke="#E5B049"
                                stroke-width="1.5" />
                            <rect x="393.059" y="475.222" width="93.7472" height="71.3377" rx="6.25"
                                transform="rotate(-48.4545 393.059 475.222)" stroke="#E5B049" stroke-width="1.5" />
                            <rect x="472.059" y="457.038" width="18.678" height="13.9305" rx="1.25"
                                transform="rotate(-48.4545 472.059 457.038)" stroke="#E5B049" stroke-width="1.5" />
                            <path d="M417 520L488 520" stroke="#E5B049" stroke-width="1.5" />
                            <path d="M465.5 414L403.183 484.5" stroke="#E5B049" stroke-width="1.5" />
                            <path d="M471.683 420L410.183 489.5" stroke="#E5B049" stroke-width="1.5" />
                            <path d="M451.5 481L432.186 502.5" stroke="#E5B049" stroke-width="1.5" />
                            <path d="M463.387 481L439.072 508.5" stroke="#E5B049" stroke-width="1.5" />
                            <path d="M459.958 478L435.5 505.5" stroke="#E5B049" stroke-width="1.5" />
                            <path
                                d="M208 417.25C212.28 417.25 215.75 420.72 215.75 425V494C215.75 498.28 212.28 501.75 208 501.75H141.859L127.363 519.76C126.328 521.047 124.25 520.314 124.25 518.663V501.75H101C96.7198 501.75 93.25 498.28 93.25 494V425C93.25 420.72 96.7198 417.25 101 417.25H208ZM125.5 501H125.75V518.663C125.75 518.899 126.047 519.003 126.195 518.819L140.916 500.53L141 500.598V500.25H208C211.452 500.25 214.25 497.452 214.25 494V425C214.25 421.548 211.452 418.75 208 418.75H101C97.5482 418.75 94.75 421.548 94.75 425V494C94.75 497.452 97.5482 500.25 101 500.25H125.5V501Z"
                                stroke="#E5B049" stroke-width="1" />
                            <path d="M156 509L213 509C218.523 509 223 504.523 223 499L223 494" stroke="#E5B049"
                                stroke-width="1.5" />
                            <path
                                d="M119 410.204L96.0932 410.204C90.5703 410.204 86.0932 414.682 86.0932 420.204L86.0932 425.204"
                                stroke="#E5B049" stroke-width="1.5" />
                            <path
                                d="M114.613 458.174C114.584 458.154 114.553 458.133 114.52 458.11C114.27 457.936 113.91 457.677 113.477 457.339C112.61 456.661 111.454 455.673 110.3 454.428C107.976 451.92 105.75 448.471 105.75 444.5C105.75 439.668 109.668 435.75 114.5 435.75C119.332 435.75 123.25 439.668 123.25 444.5C123.25 448.477 121.018 452.053 118.694 454.622C117.54 455.897 116.388 456.897 115.533 457.542C115.147 457.833 114.833 458.044 114.613 458.174Z"
                                stroke="#E5B049" stroke-width="1.5" />
                            <circle cx="114.5" cy="444.5" r="3.75" stroke="#E5B049" stroke-width="1.5" />
                            <path d="M106 471H205" stroke="#E5B049" stroke-width="1.5" />
                            <path d="M106 479H205" stroke="#E5B049" stroke-width="1.5" />
                            <path d="M106 487H168" stroke="#E5B049" stroke-width="1.5" />
                            <rect x="134.75" y="435.75" width="69.5" height="23.5" rx="1.25" stroke="#E5B049"
                                stroke-width="1.5" />
                            <path d="M149 453V445.281C149 444.409 147.963 443.955 147.323 444.545L145 446.684"
                                stroke="#E5B049" stroke-width="1.5" />
                            <path d="M158 453V445.281C158 444.409 156.963 443.955 156.323 444.545L154 446.684"
                                stroke="#E5B049" stroke-width="1.5" />
                            <path d="M167 453V445.281C167 444.409 165.963 443.955 165.323 444.545L163 446.684"
                                stroke="#E5B049" stroke-width="1.5" />
                            <path d="M175 453V445.281C175 444.409 173.963 443.955 173.323 444.545L171 446.684"
                                stroke="#E5B049" stroke-width="1.5" />
                            <path d="M184 453V445.281C184 444.409 182.963 443.955 182.323 444.545L180 446.684"
                                stroke="#E5B049" stroke-width="1.5" />
                            <path d="M193 453V445.281C193 444.409 191.963 443.955 191.323 444.545L189 446.684"
                                stroke="#E5B049" stroke-width="1.5" />
                            <path fill-rule="evenodd" clip-rule="evenodd"
                                d="M241.984 72H240V70H241.984V72ZM253.792 72H251.824V70H253.792V72ZM265.599 72H263.631V70H265.599V72ZM277.407 72H275.439V70H277.407V72ZM289.215 72H287.247V70H289.215V72ZM301.022 72H299.054V70H301.022V72ZM324.638 72H322.67V70H324.638V72ZM336.446 72H334.478V70H336.446V72ZM348.253 72H346.285V70H348.253V72ZM360.061 72H358.093V70H360.061V72ZM371.869 72H369.901V70H371.869V72ZM383.676 72H381.708V70H383.676V72ZM521.469 72H519.5V70H521.469V72ZM533.103 72H531.164V70H533.103V72ZM544.736 72H542.797V70H544.736V72ZM556.369 72H554.431V70H556.369V72ZM568.003 72H566.064V70H568.003V72ZM579.636 72H577.697V70H579.636V72ZM591.269 72H589.331V70H591.269V72ZM602.903 72H600.964V70H602.903V72ZM626.169 72H624.231V70H626.169V72ZM637.803 72H635.864V70H637.803V72ZM649.436 72H647.497V70H649.436V72ZM661.069 72H659.131V70H661.069V72ZM672.703 72H670.764V70H672.703V72ZM684.336 72H682.397V70H684.336V72ZM696 72H694.031V70H696V72ZM873.69 72H871.738V70H873.69V72ZM885.405 72H883.452V70H885.405V72ZM897.119 72H895.167V70H897.119V72ZM908.833 72H906.881V70H908.833V72ZM920.548 72H918.595V70H920.548V72ZM932.262 72H930.31V70H932.262V72ZM943.976 72H942.024V70H943.976V72ZM967.405 72H965.452V70H967.405V72ZM979.119 72H977.167V70H979.119V72ZM990.833 72H988.881V70H990.833V72ZM1002.55 72H1000.6V70H1002.55V72ZM1014.26 72H1012.31V70H1014.26V72ZM1025 72H1024.02V70H1025C1025.36 70 1025.71 70.0029 1026.07 70.0086L1026.04 72.0083C1025.69 72.0028 1025.35 72 1025 72ZM1038.31 73.4076C1037.64 73.2636 1036.96 73.1303 1036.29 73.0077L1036.64 71.0396C1037.34 71.1661 1038.04 71.3037 1038.73 71.4523L1038.31 73.4076ZM1050.06 77.1828C1049.44 76.9096 1048.8 76.6464 1048.16 76.3934L1048.9 74.5336C1049.56 74.7947 1050.21 75.0663 1050.86 75.3482L1050.06 77.1828ZM1060.86 83.1914C1060.29 82.8001 1059.72 82.4177 1059.14 82.0445L1060.23 80.3646C1060.82 80.7497 1061.41 81.1441 1061.99 81.5479L1060.86 83.1914ZM1070.27 91.1872C1069.79 90.6933 1069.31 90.2073 1068.81 89.7292L1070.2 88.2922C1070.71 88.7853 1071.21 89.2867 1071.71 89.7962L1070.27 91.1872ZM1077.96 100.858C1077.58 100.28 1077.2 99.7092 1076.81 99.1447L1078.45 98.0051C1078.86 98.5874 1079.25 99.1766 1079.64 99.7725L1077.96 100.858ZM1083.61 111.839C1083.35 111.2 1083.09 110.565 1082.82 109.936L1084.65 109.139C1084.93 109.789 1085.21 110.443 1085.47 111.104L1083.61 111.839ZM1086.99 123.715C1086.87 123.037 1086.74 122.364 1086.59 121.694L1088.55 121.273C1088.7 121.965 1088.83 122.66 1088.96 123.359L1086.99 123.715ZM1088 135C1088 134.654 1088 134.309 1087.99 133.965L1089.99 133.933C1090 134.288 1090 134.644 1090 135V135.75H1088V135ZM1088 270.719V268.531H1090V270.719H1088ZM1088 283.844V281.656H1090V283.844H1088ZM1088 296.969V294.781H1090V296.969H1088Z"
                                fill="#B2B2B2" />
                            <path fill-rule="evenodd" clip-rule="evenodd"
                                d="M237.729 478.057H235.771V480H237.729V478.057ZM249.478 478.057H247.52V480H249.478V478.057ZM261.228 478.057H259.27V480H261.228V478.057ZM272.978 478.057H271.02V480H272.978V478.057ZM284.727 478.057H282.769V480H284.727V478.057ZM308.227 478.057H306.269V480H308.227V478.057ZM319.976 478.057H318.018V480H319.976V478.057ZM331.726 478.057H329.768V480H331.726V478.057ZM343.476 478.057H341.518V480H343.476V478.057ZM355.225 478.057H353.267V480H355.225V478.057ZM366.975 478.057H365.017V480H366.975V478.057ZM378.725 478.057H376.767V480H378.725V478.057ZM504.342 478.057H502.365V480H504.342V478.057ZM516.202 478.057H514.226V480H516.202V478.057ZM528.063 478.057H526.086V480H528.063V478.057ZM539.924 478.057H537.947V480H539.924V478.057ZM551.785 478.057H549.808V480H551.785V478.057ZM563.646 478.057H561.669V480H563.646V478.057ZM575.506 478.057H573.529V480H575.506V478.057ZM587.367 478.057H585.39V480H587.367V478.057ZM599.228 478.057H597.251V480H599.228V478.057ZM622.949 478.057H620.973V480H622.949V478.057ZM634.81 478.057H632.833V480H634.81V478.057ZM646.671 478.057H644.694V480H646.671V478.057ZM658.532 478.057H656.555V480H658.532V478.057ZM670.393 478.057H668.416V480H670.393V478.057ZM682.253 478.057H680.276V480H682.253V478.057ZM694.114 478.057H692.137V480H694.114V478.057ZM833.238 478.057H831.199V480H833.238V478.057ZM845.473 478.057H843.434V480H845.473V478.057ZM857.708 478.057H855.669V480H857.708V478.057ZM869.943 478.057H867.903V480H869.943V478.057ZM882.178 478.057H880.138V480H882.178V478.057ZM894.413 478.057H892.373V480H894.413V478.057ZM906.647 478.057H904.608V480H906.647V478.057ZM918.882 478.057H916.843V480H918.882V478.057ZM931.117 478.057H929.078V480H931.117V478.057ZM955.587 478.057H953.548V480H955.587V478.057ZM967.822 478.057H965.783V480H967.822V478.057ZM980.057 478.057H978.018V480H980.057V478.057ZM992.292 478.057H990.253V480H992.292V478.057ZM1004.53 478.057H1002.49V480H1004.53V478.057ZM1016.76 478.057H1014.72V480H1016.76V478.057ZM1027.98 478.057H1026.96V480H1027.98C1028.31 480 1028.65 479.997 1028.98 479.992L1028.95 478.049C1028.62 478.054 1028.3 478.057 1027.98 478.057ZM1040.44 476.776C1039.81 476.907 1039.18 477.028 1038.55 477.14L1038.9 479.052C1039.56 478.937 1040.21 478.811 1040.86 478.676L1040.44 476.776ZM1051.45 473.341C1050.86 473.589 1050.27 473.829 1049.67 474.059L1050.4 475.866C1051.02 475.628 1051.64 475.38 1052.25 475.123L1051.45 473.341ZM1061.56 467.873C1061.03 468.23 1060.49 468.577 1059.95 468.917L1061.04 470.549C1061.6 470.198 1062.15 469.838 1062.69 469.47L1061.56 467.873ZM1070.37 460.598C1069.92 461.047 1069.47 461.489 1069.01 461.924L1070.4 463.321C1070.88 462.871 1071.35 462.414 1071.81 461.949L1070.37 460.598ZM1077.57 451.798C1077.22 452.324 1076.86 452.843 1076.5 453.357L1078.14 454.464C1078.52 453.933 1078.89 453.396 1079.25 452.853L1077.57 451.798ZM1082.86 441.806C1082.62 442.388 1082.38 442.965 1082.12 443.538L1083.96 444.312C1084.22 443.72 1084.48 443.123 1084.72 442.521L1082.86 441.806ZM1086.03 431C1085.92 431.617 1085.79 432.23 1085.66 432.839L1087.61 433.248C1087.75 432.617 1087.88 431.983 1088 431.346L1086.03 431Z"
                                fill="#B2B2B2" />
                        </svg>