<svg width="50" height="50" viewBox="0 0 50 50" fill="none" xmlns="http://www.w3.org/2000/svg">
<g clip-path="url(#clip0)">
<path d="M24.4701 26.0781C24.6313 26.1826 24.8159 26.2344 25.0004 26.2344C25.185 26.2344 25.3696 26.1826 25.5308 26.0781C25.899 25.8398 34.56 20.1768 34.56 14.5107C34.56 11.127 31.8917 8.37305 28.6121 8.37305C27.3044 8.37305 26.0308 8.8252 25.0004 9.63477C23.9701 8.82422 22.6975 8.37305 21.3888 8.37305C18.1091 8.37305 15.4409 11.126 15.4409 14.5107C15.4399 20.1768 24.1009 25.8398 24.4701 26.0781ZM21.3888 10.3262C22.4904 10.3262 23.5169 10.7861 24.2787 11.6221C24.4633 11.8252 24.726 11.9404 25.0004 11.9404C25.2749 11.9404 25.5376 11.8252 25.7222 11.6221C26.484 10.7861 27.5105 10.3262 28.6121 10.3262C30.8145 10.3262 32.6067 12.2031 32.6067 14.5107C32.6067 18.0635 27.5339 22.3213 25.0004 24.082C22.467 22.3223 17.3942 18.0635 17.3942 14.5107C17.3933 12.2031 19.1854 10.3262 21.3888 10.3262Z" fill="#D6A443"/>
<path d="M24.9991 4.42383C25.5382 4.42383 25.9758 3.98633 25.9758 3.44727V0.976562C25.9758 0.4375 25.5382 0 24.9991 0C24.46 0 24.0225 0.4375 24.0225 0.976562V3.44727C24.0225 3.98633 24.46 4.42383 24.9991 4.42383Z" fill="#D6A443"/>
<path d="M24.9991 27.9141C24.46 27.9141 24.0225 28.3516 24.0225 28.8906V31.3652C24.0225 31.9043 24.46 32.3418 24.9991 32.3418C25.5382 32.3418 25.9758 31.9043 25.9758 31.3652V28.8906C25.9758 28.3506 25.5392 27.9141 24.9991 27.9141Z" fill="#D6A443"/>
<path d="M36.748 16.1709C36.748 16.71 37.1856 17.1475 37.7247 17.1475H40.1956C40.7348 17.1475 41.1723 16.71 41.1723 16.1709C41.1723 15.6318 40.7348 15.1943 40.1956 15.1943H37.7247C37.1856 15.1943 36.748 15.6309 36.748 16.1709Z" fill="#D6A443"/>
<path d="M9.8043 17.1475H12.2791C12.8183 17.1475 13.2558 16.71 13.2558 16.1709C13.2558 15.6318 12.8183 15.1943 12.2791 15.1943H9.8043C9.26518 15.1943 8.82764 15.6318 8.82764 16.1709C8.82764 16.71 9.2642 17.1475 9.8043 17.1475Z" fill="#D6A443"/>
<path d="M34.6879 24.4766C34.306 24.0957 33.6888 24.0957 33.3069 24.4766C32.925 24.8584 32.925 25.4766 33.3069 25.8574L35.4849 28.0352C35.6753 28.2256 35.9253 28.3213 36.1754 28.3213C36.4254 28.3213 36.6754 28.2256 36.8659 28.0352C37.2477 27.6543 37.2477 27.0361 36.8659 26.6543L34.6879 24.4766Z" fill="#D6A443"/>
<path d="M15.3141 7.86622C15.5045 8.05665 15.7546 8.15235 16.0046 8.15235C16.2546 8.15235 16.5046 8.05665 16.6951 7.86622C17.076 7.48536 17.076 6.86719 16.6951 6.48535L14.5445 4.33496C14.1636 3.9541 13.5454 3.9541 13.1635 4.33496C12.7826 4.7168 12.7816 5.33496 13.1635 5.71582L15.3141 7.86622Z" fill="#D6A443"/>
<path d="M15.3115 24.4766L13.1023 26.6865C12.7204 27.0684 12.7204 27.6856 13.1023 28.0674C13.2928 28.2578 13.5428 28.3535 13.7928 28.3535C14.0428 28.3535 14.2929 28.2578 14.4833 28.0674L16.6925 25.8584C17.0744 25.4766 17.0744 24.8584 16.6925 24.4775C16.3116 24.0957 15.6934 24.0957 15.3115 24.4766Z" fill="#D6A443"/>
<path d="M33.9945 8.15235C34.2445 8.15235 34.4945 8.05665 34.685 7.86622L36.8356 5.71582C37.2165 5.33399 37.2165 4.71582 36.8356 4.33496C36.4537 3.9541 35.8355 3.9541 35.4546 4.33496L33.304 6.48535C32.9221 6.86719 32.9221 7.48438 33.304 7.86622C33.4944 8.05762 33.7454 8.15235 33.9945 8.15235Z" fill="#D6A443"/>
<path d="M46.7019 15.8711C44.8834 15.8711 43.4037 17.3506 43.4037 19.1689V27.4668C43.4037 28.9678 43.0844 30.4404 42.4837 31.7949C42.1575 31.1738 41.6643 30.6475 41.0461 30.2812C39.5508 29.3945 37.6415 29.627 36.4021 30.8457L32.5609 34.623C30.2306 36.9141 28.8945 40.1025 28.8945 43.3701V49.0234C28.8945 49.5625 29.3321 50 29.8712 50C30.4103 50 30.8478 49.5625 30.8478 49.0234V43.3701C30.8478 40.623 31.971 37.9424 33.9302 36.0156L37.7714 32.2373C38.3798 31.6396 39.3164 31.5254 40.0499 31.96C40.5265 32.2422 40.8527 32.7178 40.9455 33.2647C41.0383 33.8105 40.8859 34.3672 40.5285 34.791L36.4597 39.6191C36.112 40.0313 36.1648 40.6475 36.5769 40.9951C36.9891 41.3428 37.6053 41.29 37.953 40.8779L42.3597 35.6377C44.2925 33.3574 45.3571 30.4561 45.3571 27.4678V19.1699C45.3571 18.4287 45.9606 17.8252 46.7019 17.8252C47.4432 17.8252 48.0468 18.4287 48.0468 19.1699V21.9268C48.0468 22.4658 48.4843 22.9033 49.0234 22.9033C49.5625 22.9033 50.0001 22.4658 50.0001 21.9268V19.1699C50.0001 17.3506 48.5204 15.8711 46.7019 15.8711Z" fill="#D6A443"/>
<path d="M49.0232 29.7373C48.4841 29.7373 48.0466 30.1748 48.0466 30.7139V33.9307C48.0466 35.6973 47.5778 37.4375 46.688 38.9648L41.1406 48.5332C40.8701 49 41.0293 49.5967 41.4961 49.8672C41.6504 49.9561 41.8184 49.999 41.9844 49.999C42.3214 49.999 42.6486 49.8242 42.8302 49.5127L48.3777 39.9453C49.4383 38.1201 49.9999 36.041 49.9999 33.9297V30.7129C49.9999 30.1748 49.5623 29.7373 49.0232 29.7373Z" fill="#D6A443"/>
<path d="M13.598 30.8457C12.3586 29.627 10.4493 29.3945 8.954 30.2812C8.33578 30.6475 7.84256 31.1738 7.51636 31.7949C6.91669 30.4414 6.59635 28.9678 6.59635 27.4668V19.1689C6.59635 17.3506 5.11671 15.8711 3.29817 15.8711C1.47964 15.8711 0 17.3506 0 19.1689V33.9307C0 36.041 0.560602 38.1211 1.62125 39.9453L7.16867 49.5137C7.35033 49.8262 7.67751 50.001 8.01445 50.001C8.18049 50.001 8.34945 49.958 8.50376 49.8691C8.9706 49.5986 9.1298 49.001 8.85829 48.5352L3.31087 38.9639C2.42211 37.4375 1.95332 35.6963 1.95332 33.9307V19.1689C1.95332 18.4277 2.55689 17.8242 3.29817 17.8242C4.03946 17.8242 4.64303 18.4277 4.64303 19.1689V27.4658C4.64303 30.4551 5.70759 33.3564 7.64039 35.6357L12.0471 40.876C12.3948 41.2891 13.011 41.3408 13.4232 40.9932C13.8353 40.6455 13.8881 40.0293 13.5404 39.6172L9.47163 34.79C9.11417 34.3662 8.96279 33.8096 9.05459 33.2637C9.14738 32.7178 9.47358 32.2422 9.95019 31.96C10.6837 31.5244 11.6213 31.6387 12.2287 32.2373L16.0699 36.0156C18.0291 37.9424 19.1523 40.623 19.1523 43.3701V49.0234C19.1523 49.5625 19.5898 50 20.1289 50C20.668 50 21.1056 49.5625 21.1056 49.0234V43.3701C21.1056 40.1025 19.7695 36.9141 17.4392 34.6231L13.598 30.8457Z" fill="#D6A443"/>
<path d="M49.023 25.3438C48.4839 25.3438 48.0464 25.7813 48.0464 26.3203V26.3525C48.0464 26.8916 48.4839 27.3291 49.023 27.3291C49.5622 27.3291 49.9997 26.8916 49.9997 26.3525V26.3203C49.9997 25.7813 49.5622 25.3438 49.023 25.3438Z" fill="#D6A443"/>
</g>
<defs>
<clipPath id="clip0">
<rect width="50" height="50" fill="white"/>
</clipPath>
</defs>
</svg>
