<svg width="50" height="50" viewBox="0 0 50 50" fill="none" xmlns="http://www.w3.org/2000/svg">
<path d="M48.4375 20.2148H45.4375C45.3887 20.2148 45.3457 20.1836 45.3359 20.1396C44.8252 17.9941 43.9775 15.9502 42.8174 14.0645C42.792 14.0225 42.7969 13.9707 42.8291 13.9375L44.9561 11.8105C45.251 11.5156 45.4141 11.123 45.4141 10.7061C45.4141 10.2891 45.252 9.89648 44.9561 9.60156L40.3984 5.04395C40.1035 4.74902 39.7109 4.58594 39.2939 4.58594C38.877 4.58594 38.4844 4.74805 38.1895 5.04395L36.0625 7.1709C36.0293 7.2041 35.9775 7.20898 35.9355 7.18262C34.0498 6.02246 32.0059 5.1748 29.8603 4.66406C29.8164 4.65332 29.7852 4.61133 29.7852 4.5625V1.5625C29.7852 0.701172 29.084 0 28.2227 0H21.7773C20.916 0 20.2148 0.701172 20.2148 1.5625V4.5625C20.2148 4.61133 20.1836 4.6543 20.1396 4.66406C17.9941 5.1748 15.9502 6.02246 14.0645 7.18262C14.0225 7.20801 13.9707 7.20312 13.9375 7.1709L11.8105 5.04395C11.5156 4.74902 11.123 4.58594 10.7061 4.58594C10.2891 4.58594 9.89648 4.74805 9.60156 5.04395L5.04297 9.60156C4.74805 9.89648 4.58496 10.2891 4.58496 10.7061C4.58496 11.123 4.74707 11.5156 5.04297 11.8105L7.16992 13.9375C7.20312 13.9707 7.20801 14.0225 7.18164 14.0645C6.02148 15.9502 5.17383 17.9941 4.66309 20.1396C4.65234 20.1836 4.61035 20.2148 4.56152 20.2148H1.5625C0.701172 20.2148 0 20.916 0 21.7773V28.2227C0 29.084 0.701172 29.7852 1.5625 29.7852H4.5625C4.61133 29.7852 4.6543 29.8164 4.66406 29.8603C5.1748 32.0059 6.02246 34.0498 7.18262 35.9355C7.20801 35.9775 7.20312 36.0293 7.1709 36.0625L5.04395 38.1895C4.74902 38.4844 4.58594 38.877 4.58594 39.2939C4.58594 39.7109 4.74805 40.1035 5.04395 40.3984L9.60156 44.9561C9.89648 45.251 10.2891 45.4141 10.7061 45.4141C11.123 45.4141 11.5156 45.252 11.8105 44.9561L13.9375 42.8291C13.9697 42.7959 14.0225 42.791 14.0645 42.8174C15.9502 43.9775 17.9941 44.8242 20.1396 45.3359C20.1826 45.3467 20.2148 45.3896 20.2148 45.4375V48.4375C20.2148 49.2988 20.916 50 21.7773 50H28.2227C29.084 50 29.7852 49.2988 29.7852 48.4375V45.4375C29.7852 45.3887 29.8164 45.3457 29.8603 45.3359C32.0059 44.8252 34.0498 43.9775 35.9355 42.8174C35.9775 42.791 36.0293 42.7969 36.0625 42.8291L38.1895 44.9561C38.4844 45.251 38.877 45.4141 39.2939 45.4141C39.7109 45.4141 40.1035 45.252 40.3984 44.9561L41.4736 43.8809C41.7588 43.5957 41.7588 43.1328 41.4736 42.8477C41.1885 42.5625 40.7256 42.5625 40.4404 42.8477L39.3652 43.9229C39.3408 43.9473 39.3135 43.9521 39.2939 43.9521C39.2744 43.9521 39.2471 43.9473 39.2227 43.9229L37.0957 41.7959C36.582 41.2822 35.79 41.1904 35.1699 41.5723C33.416 42.6514 31.5156 43.4385 29.5225 43.9141C28.8174 44.082 28.3242 44.709 28.3242 45.4375V48.4375C28.3242 48.4932 28.2793 48.5381 28.2236 48.5381H21.7773C21.7217 48.5381 21.6768 48.4932 21.6768 48.4375V45.4375C21.6768 44.708 21.1846 44.082 20.4785 43.9141C18.4844 43.4395 16.584 42.6514 14.8311 41.5723C14.21 41.1904 13.4189 41.2822 12.9053 41.7959L10.7783 43.9229C10.7539 43.9473 10.7266 43.9521 10.707 43.9521C10.6875 43.9521 10.6602 43.9473 10.6357 43.9229L6.07715 39.3652C6.05273 39.3408 6.04785 39.3135 6.04785 39.2939C6.04785 39.2744 6.05273 39.2471 6.07715 39.2227L8.2041 37.0957C8.71777 36.582 8.80957 35.79 8.42773 35.1699C7.34863 33.416 6.56152 31.5156 6.08594 29.5225C5.91797 28.8174 5.29102 28.3242 4.5625 28.3242H1.5625C1.50684 28.3242 1.46191 28.2793 1.46191 28.2236V21.7773C1.46191 21.7217 1.50684 21.6768 1.5625 21.6768H4.5625C5.29199 21.6768 5.91797 21.1846 6.08594 20.4785C6.56055 18.4844 7.34863 16.584 8.42773 14.8311C8.80957 14.21 8.71777 13.418 8.2041 12.9053L6.07715 10.7783C6.05273 10.7539 6.04785 10.7266 6.04785 10.707C6.04785 10.6875 6.05273 10.6602 6.07715 10.6357L10.6348 6.07715C10.6592 6.05273 10.6865 6.04785 10.7061 6.04785C10.7256 6.04785 10.7529 6.05273 10.7773 6.07715L12.9043 8.2041C13.418 8.7168 14.21 8.80957 14.8301 8.42773C16.584 7.34863 18.4844 6.56152 20.4775 6.08594C21.1826 5.91797 21.6758 5.29102 21.6758 4.5625V1.5625C21.6758 1.50684 21.7207 1.46191 21.7764 1.46191H28.2227C28.2783 1.46191 28.3232 1.50684 28.3232 1.5625V4.5625C28.3232 5.29199 28.8154 5.91797 29.5215 6.08594C31.5156 6.56055 33.416 7.34863 35.1689 8.42773C35.79 8.80957 36.5811 8.71777 37.0947 8.2041L39.2217 6.07715C39.2461 6.05273 39.2734 6.04785 39.293 6.04785C39.3125 6.04785 39.3398 6.05273 39.3643 6.07715L43.9219 10.6348C43.9463 10.6592 43.9512 10.6865 43.9512 10.7061C43.9512 10.7256 43.9463 10.7529 43.9219 10.7773L41.7949 12.9043C41.2812 13.418 41.1895 14.21 41.5713 14.8301C42.6504 16.584 43.4375 18.4844 43.9131 20.4775C44.0811 21.1826 44.708 21.6758 45.4365 21.6758H48.4375C48.4932 21.6758 48.5381 21.7207 48.5381 21.7764V28.2227C48.5381 28.2783 48.4932 28.3232 48.4375 28.3232H45.4375C44.708 28.3232 44.082 28.8154 43.9141 29.5215C43.4395 31.5156 42.6514 33.416 41.5723 35.1689C41.1904 35.79 41.2822 36.582 41.7959 37.0947L43.9229 39.2217C43.9473 39.2461 43.9521 39.2734 43.9521 39.293C43.9521 39.3125 43.9473 39.3398 43.9229 39.3643L42.835 40.4521C42.5498 40.7373 42.5498 41.2002 42.835 41.4854C43.1201 41.7705 43.583 41.7705 43.8682 41.4854L44.9561 40.3975C45.251 40.1025 45.4141 39.71 45.4141 39.293C45.4141 38.876 45.252 38.4834 44.9561 38.1885L42.8291 36.0615C42.7959 36.0293 42.791 35.9766 42.8174 35.9346C43.9775 34.0488 44.8242 32.0049 45.3359 29.8594C45.3467 29.8154 45.3896 29.7842 45.4375 29.7842H48.4375C49.2988 29.7842 50 29.083 50 28.2217V21.7773C50 20.916 49.2988 20.2148 48.4375 20.2148Z" fill="#D6A443"/>
<path d="M10.3271 22.0732C9.92773 22.0137 9.55664 22.29 9.49707 22.6895C9.38477 23.4492 9.32812 24.2266 9.32812 25C9.32812 33.6416 16.3584 40.6719 25 40.6719C33.6416 40.6719 40.6719 33.6416 40.6719 25C40.6719 16.3584 33.6416 9.32812 25 9.32812C21.8008 9.32812 18.7236 10.2861 16.1016 12.0977C13.54 13.8672 11.5811 16.3262 10.4326 19.209L10.4033 19.2842C10.2549 19.6592 10.4395 20.084 10.8145 20.2324C11.1895 20.3809 11.6143 20.1963 11.7627 19.8213L11.791 19.748C12.8311 17.1348 14.6084 14.9053 16.9316 13.2998C19.3086 11.6572 22.0986 10.7891 24.999 10.7891C32.834 10.7891 39.209 17.1641 39.209 24.999C39.209 32.834 32.835 39.21 25 39.21C17.165 39.21 10.79 32.835 10.79 25C10.79 24.2979 10.8418 23.5928 10.9434 22.9033C11.0029 22.5039 10.7266 22.1328 10.3271 22.0732Z" fill="#D6A443"/>
<path d="M22.9237 32.5869C22.954 32.5869 22.9842 32.5869 23.0135 32.5859C23.8573 32.5615 24.6688 32.1924 25.2401 31.5732L33.4266 22.706C33.9979 22.0869 34.2948 21.2832 34.2606 20.4414C34.2274 19.5996 33.868 18.8213 33.2489 18.25C31.9715 17.0703 29.9725 17.1504 28.7928 18.4277L22.7948 24.9238L21.0799 23.2666C19.8299 22.0586 17.829 22.0927 16.6209 23.3427C15.4129 24.5927 15.4471 26.5927 16.6971 27.8017L20.7313 31.7011C21.3231 32.2724 22.1014 32.5869 22.9237 32.5869ZM17.6727 24.3584C18.0038 24.0156 18.4471 23.8427 18.8895 23.8427C19.3133 23.8427 19.7372 24.0009 20.0653 24.3174L22.3172 26.4941C22.4588 26.6308 22.6502 26.7041 22.8456 26.6992C23.0418 26.6933 23.2284 26.6093 23.3622 26.4648L29.868 19.4189C30.5008 18.7334 31.5731 18.6914 32.2586 19.3232C32.5907 19.6299 32.7831 20.0468 32.8016 20.499C32.8192 20.9502 32.661 21.3818 32.3543 21.7138L24.1678 30.581C23.8612 30.9131 23.4256 31.1113 22.9725 31.124C22.5145 31.1367 22.078 30.9668 21.7489 30.6494L17.7147 26.75C17.0428 26.1025 17.0243 25.0293 17.6727 24.3584Z" fill="#D6A443"/>
</svg>
