<svg width="50" height="50" viewBox="0 0 50 50" fill="none" xmlns="http://www.w3.org/2000/svg">
<path d="M47.7062 4.61104L39.0041 0.350369C38.05 -0.11679 36.9553 -0.11679 36.0002 0.350369L31.8224 2.39577C31.4494 2.57827 31.2726 3.08216 31.4279 3.52177C31.5832 3.96138 32.0119 4.16798 32.3859 3.98548L36.5637 1.94008C37.1603 1.64854 37.8439 1.64854 38.4406 1.94008L47.1418 6.20075C47.9885 6.61511 48.5353 7.54828 48.5353 8.57787V45.3939C48.5353 46.8252 47.4894 47.9902 46.2033 47.9902H45.0158C44.6115 47.9902 44.2834 48.3759 44.2834 48.8511C44.2834 49.3262 44.6115 49.7119 45.0158 49.7119H46.2033C48.2971 49.7119 50.0002 47.7744 50.0002 45.3939V8.57787C50.0002 6.85156 49.0998 5.29513 47.7062 4.61104Z" fill="#D6A443"/>
<path d="M41.8232 47.9902H29.5166C30.0234 47.3129 30.3008 46.4544 30.3008 45.5453C30.3008 44.6385 30.0215 43.8064 29.5586 43.1625C29.8496 42.988 30.1201 42.7584 30.3584 42.4795C30.9531 41.7805 31.2812 40.8508 31.2812 39.8614C31.2812 38.9179 30.9795 38.057 30.4834 37.4028C30.7285 37.2398 30.957 37.0366 31.1621 36.7956C31.7568 36.0965 32.0849 35.1668 32.0849 34.1774C32.0849 33.2374 31.7851 32.3776 31.292 31.7245C31.541 31.5604 31.7734 31.3549 31.9824 31.1105C32.5771 30.4103 32.9043 29.4806 32.9043 28.4923C32.9043 26.4504 31.4912 24.7883 29.7539 24.7883H26.4697V8.57781C26.4697 7.54938 27.0166 6.61621 27.8623 6.2007L29.1943 5.54874C29.5674 5.36624 29.7441 4.86235 29.5889 4.42274C29.4336 3.98428 29.0049 3.77538 28.6308 3.95903L27.2978 4.61098C25.9043 5.29393 25.0039 6.85151 25.0039 8.57667V24.786H21.9433C22.9619 21.0006 22.876 17.0509 21.6865 12.4666C21.5058 11.7722 21.1465 11.1776 20.6465 10.7472C20.1504 10.319 19.5615 10.0929 18.9443 10.0929C18.1494 10.0929 17.4101 10.466 16.8633 11.1432C16.3164 11.8204 16.0381 12.7065 16.0791 13.6397C16.3086 18.8163 14.2764 20.5977 11.4648 23.0632C10.5391 23.8747 9.52734 24.7631 8.5332 25.8523V24.7241C8.5332 24.2489 8.20507 23.8632 7.80078 23.8632H0.732422C0.328125 23.8632 0 24.2489 0 24.7241V49.1391C0 49.6143 0.328125 50 0.732422 50H7.80273C8.20703 50 8.53515 49.6143 8.53515 49.1391V46.9732C9.92675 47.1293 10.9424 47.4541 11.9297 48.3437C12.5781 48.9279 13.3769 49.2493 14.1787 49.2493H27.0957C27.623 49.5512 28.208 49.7119 28.8017 49.7119H41.8232C42.2275 49.7119 42.5556 49.3262 42.5556 48.851C42.5556 48.3758 42.2275 47.9902 41.8232 47.9902ZM12.8203 46.9766C11.4394 45.7324 9.96289 45.3869 8.53515 45.2423V35.1898C8.53515 34.7146 8.20703 34.3289 7.80273 34.3289C7.39843 34.3289 7.07031 34.7146 7.07031 35.1898V48.2771H1.46484V25.5849H7.07031V31.4399C7.07031 31.9151 7.39843 32.3007 7.80273 32.3007C8.20703 32.3007 8.53515 31.9151 8.53515 31.4399V28.2983C9.76074 26.7086 11.0723 25.5585 12.3428 24.444C15.1562 21.9762 17.8135 19.6461 17.5439 13.5513C17.5234 13.0944 17.6601 12.6617 17.9277 12.33C18.1953 11.9983 18.5576 11.8158 18.9463 11.8158C19.249 11.8158 19.5381 11.9271 19.7812 12.1372C20.0244 12.3472 20.1992 12.6353 20.2861 12.9716C21.4971 17.6409 21.4785 21.571 20.2266 25.3358C20.1387 25.601 20.168 25.8994 20.3037 26.1347C20.4394 26.37 20.666 26.51 20.9082 26.51H29.7529C30.6826 26.51 31.4385 27.3996 31.4385 28.4923C31.4385 29.0215 31.2627 29.5185 30.9453 29.8926C30.626 30.2668 30.2021 30.4734 29.7529 30.4734H26.7441C26.3398 30.4734 26.0117 30.8591 26.0117 31.3343C26.0117 31.8095 26.3398 32.1951 26.7441 32.1951H28.9336C29.8633 32.1951 30.6191 33.0847 30.6191 34.1774C30.6191 34.7066 30.4443 35.2047 30.126 35.5789C29.8076 35.9531 29.3848 36.1585 28.9336 36.1585H26.7441C26.3398 36.1585 26.0117 36.5442 26.0117 37.0194C26.0117 37.4946 26.3398 37.8802 26.7441 37.8802H28.1299C29.0596 37.8802 29.8154 38.7687 29.8154 39.8614C29.8154 40.3905 29.6396 40.8887 29.3223 41.2628C29.0029 41.6382 28.5801 41.8436 28.1299 41.8436H27.1494H25.9404C25.5361 41.8436 25.208 42.2293 25.208 42.7045C25.208 43.1797 25.5361 43.5653 25.9404 43.5653H27.1494C28.0791 43.5653 28.8349 44.4538 28.8349 45.5465C28.8349 46.0756 28.6592 46.5738 28.3418 46.9479C28.0439 47.2969 27.5742 47.5196 27.2226 47.5264C27.1982 47.5264 14.1777 47.5287 14.1777 47.5287C13.6963 47.5276 13.2139 47.3313 12.8203 46.9766Z" fill="#D6A443"/>
<path d="M40.1455 8.96C40.1455 7.15106 38.8936 5.67957 37.3545 5.67957C35.8154 5.67957 34.5635 7.15106 34.5635 8.96C34.5635 10.7689 35.8154 12.2404 37.3545 12.2404C38.8936 12.2404 40.1455 10.7689 40.1455 8.96ZM36.0283 8.96C36.0283 8.10029 36.623 7.40128 37.3545 7.40128C38.0859 7.40128 38.6807 8.10029 38.6807 8.96C38.6807 9.81971 38.0859 10.5187 37.3545 10.5187C36.623 10.5187 36.0283 9.81971 36.0283 8.96Z" fill="#D6A443"/>
<path d="M38.8417 38.6232H37.2945C36.4801 38.6232 35.8163 37.9501 35.8163 37.1243C35.8163 36.6413 35.4298 36.2494 34.9536 36.2494C34.4773 36.2494 34.0908 36.6413 34.0908 37.1243C34.0908 38.8857 35.4804 40.3228 37.2048 40.3706V42.307C37.2048 42.7899 37.5913 43.1818 38.0675 43.1818C38.5438 43.1818 38.9303 42.7899 38.9303 42.307V40.3706C40.6558 40.3228 42.0454 38.8857 42.0454 37.1243V35.9135C42.0454 34.7901 41.3379 33.8021 40.2831 33.4545L36.3857 32.1702C36.0452 32.0582 35.8163 31.7386 35.8163 31.3747V29.6401C35.8163 28.9694 36.3547 28.4223 37.0161 28.4223H39.1189C39.7804 28.4223 40.3187 28.9682 40.3187 29.6401C40.3187 30.123 40.7052 30.515 41.1815 30.515C41.6577 30.515 42.0442 30.123 42.0442 29.6401C42.0442 28.0047 40.7317 26.6725 39.1189 26.6725H38.9303V24.7385C38.9303 24.2556 38.5438 23.8636 38.0675 23.8636C37.5913 23.8636 37.2048 24.2556 37.2048 24.7385V26.6725H37.0161C35.4033 26.6725 34.0908 28.0035 34.0908 29.6401V31.3747C34.0908 32.498 34.7983 33.486 35.8531 33.8336L39.7505 35.1179C40.091 35.2299 40.3199 35.5495 40.3199 35.9135V37.1243C40.3199 37.9501 39.6561 38.6232 38.8417 38.6232Z" fill="#D6A443"/>
</svg>
