<svg width="86" height="122" viewBox="0 0 86 122" fill="none" xmlns="http://www.w3.org/2000/svg">
<g clip-path="url(#clip0)">
<path d="M85.6156 11.032H0.384277V91.4011H85.6156V11.032Z" stroke="#D6A443" stroke-miterlimit="10"/>
<path d="M0.4375 83.4774L85.6688 83.1001" stroke="#D6A443" stroke-miterlimit="10"/>
<path d="M31.1623 11.032V4.31881C31.1623 3.18685 32.0693 2.25928 33.1762 2.25928H52.5393C53.6462 2.25928 54.5532 3.18685 54.5532 4.31881V11.2206" stroke="#D6A443" stroke-miterlimit="10"/>
<path d="M44.1683 123.473H41.8315C40.3941 123.473 39.218 122.271 39.218 120.801V91.4011H46.7818V120.801C46.7818 122.271 45.6058 123.473 44.1683 123.473Z" stroke="#D6A443" stroke-miterlimit="10"/>
<path d="M21.8536 122.506L19.6782 121.626C18.3407 121.084 17.6796 119.527 18.21 118.159L28.5334 91.4011H36.9658L25.2511 120.997C24.7207 122.365 23.1911 123.041 21.8536 122.506Z" stroke="#D6A443" stroke-miterlimit="10"/>
<path d="M62.7089 122.506L64.8843 121.626C66.2218 121.084 66.8828 119.527 66.3524 118.159L56.0367 91.4011H47.7581L59.3267 120.997C59.8494 122.365 61.3714 123.041 62.7089 122.506Z" stroke="#D6A443" stroke-miterlimit="10"/>
<path d="M37.5346 27.917C37.8037 27.8777 38.0804 27.8698 38.3571 27.8855C40.4172 28.0192 48.4576 29.1983 45.9132 39.4724C45.9132 39.4724 44.6065 45.6667 39.2488 47.7027C38.4032 48.025 37.4501 47.8913 36.7198 47.3411C35.267 46.2405 32.9763 45.3444 31.1622 39.4724C31.1622 39.4724 28.8178 29.2769 37.5346 27.917Z" stroke="#D6A443" stroke-miterlimit="10"/>
<path d="M18.0255 74.7047C18.0255 74.7047 20.8619 64.0926 33.1762 56.1689C33.1762 56.1689 37.5577 53.0245 36.9581 47.522" stroke="#D6A443" stroke-miterlimit="10"/>
<path d="M25.6739 62.3474C25.6739 62.3474 34.5598 73.0067 43.6918 65.3659C43.6918 65.3659 46.7742 62.9605 46.7742 57.5837L46.3975 35.2275" stroke="#D6A443" stroke-miterlimit="10"/>
<path d="M25.6739 62.3473C25.6739 62.3473 24.5977 60.838 28.6103 55.8857C28.6103 55.8857 29.7479 54.4078 28.2874 51.46C27.488 49.8486 27.0421 48.0799 27.1036 46.2719C27.2574 41.744 29.5404 36.8546 31.1392 31.8315" stroke="#D6A443" stroke-miterlimit="10"/>
<path d="M31.2007 32.5864C31.2007 32.5864 29.8247 21.2746 39.8791 19.9854C40.1866 19.9461 40.494 19.9304 40.8015 19.9304C43.1306 19.9619 51.9166 20.803 52.2779 31.9653C52.693 44.8414 53.3848 51.2086 53.3848 51.2086C53.3848 51.2086 53.3848 55.1626 58.9501 57.741C59.6726 58.0711 60.3183 58.5428 60.8641 59.1324C63.1009 61.5378 67.5285 68.2509 67.2134 74.6968" stroke="#D6A443" stroke-miterlimit="10"/>
<path d="M42.8539 75.6951C42.8539 75.6951 48.6805 59.376 58.8501 57.7017" stroke="#D6A443" stroke-miterlimit="10"/>
</g>
<defs>
<clipPath id="clip0">
<rect width="86" height="122" fill="white"/>
</clipPath>
</defs>
</svg>
