<svg width="93" height="108" viewBox="0 0 93 108" fill="none" xmlns="http://www.w3.org/2000/svg">
<g clip-path="url(#clip0)">
<path d="M46.0552 65.775C52.3262 65.775 57.4099 60.6979 57.4099 54.435C57.4099 48.1721 52.3262 43.095 46.0552 43.095C39.7842 43.095 34.7006 48.1721 34.7006 54.435C34.7006 60.6979 39.7842 65.775 46.0552 65.775Z" stroke="#D6A443" stroke-miterlimit="10" stroke-linecap="round"/>
<path d="M39.8607 53.1936C39.8607 52.3595 40.5468 51.6743 41.382 51.6743C42.2172 51.6743 42.9032 52.3595 42.9032 53.1936" stroke="#D6A443" stroke-miterlimit="10" stroke-linecap="round"/>
<path d="M48.4613 56.7783C48.4613 58.1089 47.3875 59.1814 46.0552 59.1814C44.7228 59.1814 43.649 58.1089 43.649 56.7783" stroke="#D6A443" stroke-miterlimit="10" stroke-linecap="round"/>
<path d="M49.197 53.1936C49.197 52.3595 49.8831 51.6743 50.7183 51.6743C51.5535 51.6743 52.2395 52.3595 52.2395 53.1936" stroke="#D6A443" stroke-miterlimit="10" stroke-linecap="round"/>
<path d="M16.1564 79.811V17.7707C16.1564 16.8922 16.88 16.176 17.7793 16.176H73.4945C74.3938 16.176 75.1174 16.8922 75.1174 17.7707V89.8758C75.1174 90.7543 74.3938 91.4705 73.4945 91.4705H17.7896C16.8903 91.4705 16.1667 90.7543 16.1667 89.8758V86.1994" stroke="#D6A443" stroke-miterlimit="10" stroke-linecap="round"/>
<path d="M46.5362 107.522C45.823 107.522 45.1821 107.064 44.9753 106.386C44.965 106.338 43.4041 101.459 39.8483 100.227C37.9257 99.5585 35.6412 100.093 33.0467 101.803C28.6122 104.734 23.6506 105.422 19.4332 103.684C16.8386 102.614 14.7713 100.695 13.7996 98.5559C10.2231 98.9951 7.19441 97.8779 5.1684 95.3283C1.36447 90.5537 1.95366 81.7209 6.66723 72.8211C8.86897 68.6577 9.38581 64.9718 8.20741 61.8588C6.48117 57.2943 1.59188 55.3463 1.54019 55.3272C0.919986 55.0885 0.506515 54.4965 0.516852 53.8376C0.516852 53.1787 0.930323 52.5962 1.55053 52.3575C1.59188 52.3384 6.48117 50.3904 8.21775 45.8259C9.39614 42.7129 8.87931 39.0174 6.67757 34.8636C4.39314 30.5569 3.20441 26.1644 3.23542 22.1442C3.26644 18.4964 4.31045 15.1829 6.19174 12.8148C8.18674 10.3129 10.988 9.02377 13.903 9.2052C14.947 7.04711 17.0867 5.18504 19.7639 4.17284C22.2034 3.25613 27.1651 2.29167 33.0467 6.17815C35.6412 7.89698 37.936 8.42218 39.8586 7.75374C43.3731 6.52191 44.9547 1.64234 44.9753 1.59459C45.1821 0.916607 45.8126 0.458252 46.5362 0.458252C47.2494 0.458252 47.8903 0.916607 48.097 1.59459C48.1074 1.64234 49.6682 6.52191 53.2241 7.75374C55.1467 8.42218 57.4312 7.88743 60.0257 6.17815C65.8866 2.30122 70.838 3.24658 73.2671 4.15374C75.9753 5.16594 78.1357 7.04711 79.1797 9.23385C81.6192 9.2052 84.007 10.2461 85.8883 12.175C89.3304 15.7177 90.5192 21.5235 89.0617 27.7113C88.8653 28.5707 87.9867 29.1055 87.108 28.9049C86.2294 28.7044 85.6816 27.8545 85.8883 26.9951C87.6766 19.375 84.5342 15.4121 83.5315 14.3808C82.043 12.8434 80.2031 12.175 78.3631 12.4996C77.5258 12.6429 76.7092 12.1368 76.5025 11.3251C76.1407 9.92138 74.6316 8.07841 72.099 7.13305C70.2591 6.44552 66.4758 5.74844 61.8346 8.82324C58.3305 11.1437 55.064 11.793 52.1077 10.7617C49.4615 9.83544 47.6629 7.7251 46.5362 5.86303C45.4095 7.71555 43.6109 9.83544 40.9647 10.7617C38.0083 11.793 34.7419 11.1437 31.2378 8.82324C26.5759 5.73889 22.7823 6.44552 20.9423 7.1426C18.4098 8.09751 16.9213 9.94048 16.5699 11.3442C16.3528 12.1941 15.4845 12.7193 14.6162 12.5092C12.4455 12.0031 10.3161 12.8243 8.77594 14.7628C6.2641 17.914 4.972 24.6747 9.58221 33.3644C12.2388 38.3776 12.8073 42.9421 11.2671 46.9527C9.975 50.314 7.48384 52.5198 5.51985 53.8185C7.48384 55.1171 9.98534 57.3325 11.2671 60.6842C12.8073 64.6853 12.2388 69.2593 9.58221 74.2726C5.51985 81.95 4.78594 89.6084 7.7526 93.3421C9.64423 95.7198 12.4972 95.6434 14.5542 95.1564C14.9883 95.0514 15.4432 95.1277 15.8153 95.3665C16.1874 95.6052 16.4458 95.9872 16.5285 96.4169C16.7973 97.811 18.1824 99.6827 20.7046 100.714C22.5755 101.487 26.4415 102.299 31.2378 99.1288C34.7419 96.8179 38.0083 96.159 40.9647 97.1903C43.6109 98.1166 45.4095 100.227 46.5362 102.089C47.6629 100.237 49.4615 98.1166 52.1077 97.1903C55.0537 96.159 58.3305 96.8084 61.8346 99.1288C66.6205 102.29 70.4658 101.487 72.3368 100.724C74.859 99.7018 76.2648 97.8301 76.5335 96.436C76.6989 95.6052 77.4948 95.0418 78.3528 95.1564C81.4642 95.567 83.9036 94.6885 85.3921 92.5972C88.1417 88.7585 87.3871 81.7399 83.4281 74.2535C80.7716 69.2402 80.2031 64.6758 81.7433 60.6651C83.0354 57.3039 85.5265 55.098 87.4905 53.7994C85.5265 52.5007 83.025 50.2853 81.7433 46.9336C80.2134 42.9325 80.7716 38.3585 83.4281 33.3453C83.8416 32.5622 84.8236 32.2567 85.6195 32.6673C86.4155 33.0779 86.7256 34.0328 86.3121 34.8158C84.1104 38.9792 83.5935 42.6651 84.7719 45.7781C86.5085 50.3426 91.3978 52.2906 91.4392 52.3097C92.0594 52.5484 92.4728 53.1405 92.4625 53.7994C92.4625 54.4583 92.049 55.0407 91.4288 55.2795C91.3875 55.2986 86.4982 57.2466 84.7616 61.811C83.5832 64.924 84.1 68.6195 86.3018 72.7734C90.8913 81.4439 91.5425 89.532 88.0384 94.4211C86.064 97.1712 82.9837 98.5559 79.2728 98.4222C78.3218 100.609 76.2131 102.576 73.5669 103.655C71.0964 104.658 66.0417 105.756 59.9947 101.755C57.4001 100.036 55.1054 99.5108 53.1827 100.179C49.6682 101.411 48.0867 106.291 48.0764 106.338C47.88 107.064 47.2494 107.522 46.5362 107.522Z" stroke="#D6A443" stroke-miterlimit="10" stroke-linecap="round"/>
</g>
<defs>
<clipPath id="clip0">
<rect width="93" height="108" fill="white"/>
</clipPath>
</defs>
</svg>
