<svg width="93" height="108" viewBox="0 0 93 108" fill="none" xmlns="http://www.w3.org/2000/svg">
<path d="M92.4385 0.570801H27.6462V97.2252H92.4385V0.570801Z" stroke="#D6A443" stroke-miterlimit="10"/>
<path d="M21.9081 13.9709L19.6959 14.5188" stroke="#D6A443" stroke-miterlimit="10"/>
<path d="M13.9241 15.9226L0.662476 19.1756L18.8425 107.361L92.4385 97.2251" stroke="#D6A443" stroke-miterlimit="10"/>
<path d="M92.4384 97.2251L23.1657 102.795L13.9241 15.9226L12.9359 6.63156L27.6461 5.98096" stroke="#D6A443" stroke-miterlimit="10"/>
<path d="M84.7802 9.81619C85.7043 9.81619 86.4533 9.05476 86.4533 8.11549C86.4533 7.17622 85.7043 6.41479 84.7802 6.41479C83.8561 6.41479 83.1071 7.17622 83.1071 8.11549C83.1071 9.05476 83.8561 9.81619 84.7802 9.81619Z" fill="#D6A443"/>
<path d="M35.6638 9.81619C36.5879 9.81619 37.337 9.05476 37.337 8.11549C37.337 7.17622 36.5879 6.41479 35.6638 6.41479C34.7398 6.41479 33.9907 7.17622 33.9907 8.11549C33.9907 9.05476 34.7398 9.81619 35.6638 9.81619Z" fill="#D6A443"/>
<path d="M20.5044 14.7471C21.4285 14.7471 22.1776 13.9857 22.1776 13.0464C22.1776 12.1071 21.4285 11.3457 20.5044 11.3457C19.5804 11.3457 18.8313 12.1071 18.8313 13.0464C18.8313 13.9857 19.5804 14.7471 20.5044 14.7471Z" fill="#D6A443"/>
<path d="M7.36626 25.0083C8.29031 25.0083 9.03941 24.2469 9.03941 23.3076C9.03941 22.3684 8.29031 21.6069 7.36626 21.6069C6.44221 21.6069 5.69312 22.3684 5.69312 23.3076C5.69312 24.2469 6.44221 25.0083 7.36626 25.0083Z" fill="#D6A443"/>
<path d="M92.4385 86.2678H83.8257C83.3878 86.2678 83.0172 86.5988 82.9611 87.044C82.7253 89.2811 82.8937 96.2665 77.2342 97.2253" stroke="#D6A443" stroke-miterlimit="10"/>
<path d="M53.2823 18.8446C53.2823 18.8446 69.8454 8.37794 75.1568 27.0171" stroke="#D6A443" stroke-miterlimit="10"/>
<path d="M47.9709 29.8022L48.611 47.4598C48.611 47.4598 51.8226 57.7553 59.391 60.7001C59.391 60.7001 59.8739 61.522 64.2196 61.3508" stroke="#D6A443" stroke-miterlimit="10"/>
<path d="M52.3167 34.3791C52.3167 34.3791 57.4596 31.6055 60.6824 35.3607" stroke="#D6A443" stroke-miterlimit="10"/>
<path d="M74.0227 34.3792C74.0227 34.3792 68.7113 30.624 65.9826 35.3608C65.9826 35.3608 65.1741 38.6253 65.9826 41.5701C65.9826 41.5701 68.5541 47.7793 62.9282 46.9689L59.3911 45.5878" stroke="#D6A443" stroke-miterlimit="10"/>
<path d="M76.2797 41.4102C76.2797 41.4102 76.7626 46.4781 75.1568 48.7609C75.1568 48.7609 79.6597 49.9023 80.6254 41.4102C80.6254 41.4102 81.7483 34.3792 79.0196 34.3792" stroke="#D6A443" stroke-miterlimit="10" stroke-linejoin="round"/>
<path d="M47.971 34.3793C47.971 34.3793 42.0195 32.2562 43.4681 39.1275C44.9166 45.9988 48.611 47.4598 48.611 47.4598" stroke="#D6A443" stroke-miterlimit="10"/>
<path d="M48.6223 47.4597L48.0945 55.0957C48.0945 55.0957 51.3397 67.7539 61.8727 70.2765C63.6469 70.6988 65.5334 70.2308 66.8809 68.9867C68.7562 67.2631 70.8223 63.9416 70.171 57.9264" stroke="#D6A443" stroke-miterlimit="10"/>
<path d="M48.1169 54.8789C48.1169 54.8789 43.8948 55.7121 40.7618 57.4927C38.7069 58.657 37.8198 61.1909 38.7181 63.4052C40.964 68.9296 47.286 80.5492 61.4909 83.2657" stroke="#D6A443" stroke-miterlimit="10"/>
<path d="M76.4369 58.8967C76.4369 58.8967 85.2855 64.6152 77.2454 75.2417" stroke="#D6A443" stroke-miterlimit="10"/>
<path d="M58.4253 50.2334C58.4253 50.2334 64.2195 53.8288 67.5883 50.2334" stroke="#D6A443" stroke-miterlimit="10"/>
<path d="M56.6624 40.9994C57.5058 40.9994 58.1895 40.3044 58.1895 39.4471C58.1895 38.5898 57.5058 37.8948 56.6624 37.8948C55.8189 37.8948 55.1352 38.5898 55.1352 39.4471C55.1352 40.3044 55.8189 40.9994 56.6624 40.9994Z" fill="#D6A443"/>
<path d="M70.2833 40.9994C71.1268 40.9994 71.8105 40.3044 71.8105 39.4471C71.8105 38.5898 71.1268 37.8948 70.2833 37.8948C69.4399 37.8948 68.7562 38.5898 68.7562 39.4471C68.7562 40.3044 69.4399 40.9994 70.2833 40.9994Z" fill="#D6A443"/>
</svg>
