<svg width="93" height="108" viewBox="0 0 93 108" fill="none" xmlns="http://www.w3.org/2000/svg">
<g clip-path="url(#clip0)">
<path d="M46.9952 7.14303C48.8362 7.14303 50.3287 5.67682 50.3287 3.86815C50.3287 2.05948 48.8362 0.593262 46.9952 0.593262C45.1541 0.593262 43.6617 2.05948 43.6617 3.86815C43.6617 5.67682 45.1541 7.14303 46.9952 7.14303Z" stroke="#D6A443" stroke-miterlimit="10"/>
<path d="M44.0965 2.26636L37.6469 14.832" stroke="#D6A443" stroke-miterlimit="10"/>
<path d="M49.8939 2.26636L54.9666 14.832" stroke="#D6A443" stroke-miterlimit="10"/>
<path d="M92.3961 104.381V17.3473C92.3961 16.1489 91.4178 15.1877 90.1979 15.1877H2.80206C1.58219 15.1877 0.603882 16.1489 0.603882 17.3473V105.247C0.603882 105.828 0.833362 106.351 1.20778 106.73C1.60635 107.146 2.17401 107.407 2.80206 107.407H80.2215H89.3162C91.0192 107.407 92.3961 106.042 92.3961 104.381Z" stroke="#D6A443" stroke-miterlimit="10"/>
<path d="M83.8449 87.3776V95.9682C83.8449 97.2734 82.7579 98.3413 81.4293 98.3413H40.5818H8.76855V73.4237V22.5918H83.8449V51.3064V69.6386V87.3776Z" stroke="#D6A443" stroke-miterlimit="10"/>
<path d="M8.76855 73.4238H19.0106H31.9702H83.8449" stroke="#D6A443" stroke-miterlimit="10"/>
<path d="M18.914 79.8311H31.4992H83.8449" stroke="#D6A443" stroke-miterlimit="10"/>
<path d="M24.2766 51.3063C26.2777 51.3063 27.9 49.7126 27.9 47.7467C27.9 45.7807 26.2777 44.187 24.2766 44.187C22.2755 44.187 20.6532 45.7807 20.6532 47.7467C20.6532 49.7126 22.2755 51.3063 24.2766 51.3063Z" stroke="#D6A443" stroke-miterlimit="10"/>
<path d="M61.6819 58.7104H61.6699" stroke="#D6A443" stroke-miterlimit="10"/>
<path d="M18.914 73.5306C18.914 73.5306 18.9382 73.495 19.0106 73.4238C19.7232 72.5932 24.9771 66.8503 36.7531 62.7804C36.7531 62.7804 49.8093 58.7106 60.136 59.1496" stroke="#D6A443" stroke-miterlimit="10"/>
<path d="M61.6819 58.7104H61.6699" stroke="#D6A443" stroke-miterlimit="10"/>
<path d="M83.8449 51.3064C79.0741 52.398 74.7623 53.6558 70.8853 55.0084C70.8853 55.0084 52.5269 59.2919 43.396 73.5305" stroke="#D6A443" stroke-miterlimit="10"/>
<path d="M1.21985 15.7336L9.04634 22.8411" stroke="#D6A443" stroke-miterlimit="10"/>
<path d="M83.8449 22.5918L91.7076 15.781" stroke="#D6A443" stroke-miterlimit="10"/>
<path d="M1.20776 106.73L8.76854 98.3413" stroke="#D6A443" stroke-miterlimit="10"/>
<path d="M55.2806 85.4199H83.8449" stroke="#D6A443" stroke-miterlimit="10"/>
<path d="M83.1565 97.6177L91.7077 106.683" stroke="#D6A443" stroke-miterlimit="10"/>
</g>
<defs>
<clipPath id="clip0">
<rect width="93" height="108" fill="white"/>
</clipPath>
</defs>
</svg>
