<svg width="43" height="50" viewBox="0 0 43 50" fill="none" xmlns="http://www.w3.org/2000/svg">
<g clip-path="url(#clip0)">
<path d="M42.1088 27.5951L38.2124 18.6778C37.8616 17.875 37.191 17.3765 36.4622 17.3765C35.1484 17.3765 7.84885 17.3765 6.53735 17.3765C5.80853 17.3765 5.138 17.875 4.7872 18.6778L0.890827 27.5951C0.684814 28.0666 0.70413 28.6389 0.941302 29.0882C1.16117 29.5049 1.53457 29.7535 1.94004 29.7535H5.11255V47.6916C5.11255 48.9647 5.93736 50.0007 6.95131 50.0007C7.36728 50.0007 35.6326 50.0007 36.0486 50.0007C37.0625 50.0007 37.8874 48.9648 37.8874 47.6916V39.991C37.8874 39.5864 37.6054 39.2585 37.2574 39.2585C36.9094 39.2585 36.6274 39.5863 36.6274 39.991V47.6917C36.6274 48.1492 36.3624 48.5358 36.0485 48.5358H22.1298V21.1677L25.4153 28.6866C25.7027 29.3448 26.2549 29.7537 26.8559 29.7537H36.6273V36.5729C36.6273 36.9775 36.9092 37.3055 37.2572 37.3055C37.6053 37.3055 37.8872 36.9776 37.8872 36.5729V29.7537H41.0597C41.4652 29.7537 41.8385 29.505 42.0585 29.0884C42.2955 28.6388 42.3149 28.0667 42.1088 27.5951ZM2.00799 28.2888C2.00799 28.2795 2.00958 28.2691 2.01403 28.2588L5.91041 19.3415C6.04512 19.0331 6.2854 18.8415 6.53743 18.8415H20.4732C19.9917 19.9436 17.1111 26.5357 16.4613 28.0231V28.0232C16.3896 28.187 16.268 28.2888 16.1438 28.2888C15.7884 28.2888 2.39163 28.2888 2.00799 28.2888ZM20.8699 48.5357H6.95122C6.63746 48.5358 6.3724 48.1493 6.3724 47.6917V29.7536H16.1437C16.747 29.7536 17.2979 29.3425 17.5844 28.6866L20.8699 21.1676V48.5357ZM26.8559 28.2887C26.7317 28.2887 26.61 28.1869 26.5385 28.023L22.5265 18.8414H36.4623C36.7143 18.8414 36.9545 19.033 37.0893 19.3414L40.9857 28.2587C40.9903 28.269 40.9918 28.2794 40.9918 28.2887C40.6075 28.2887 27.2114 28.2887 26.8559 28.2887Z" fill="#D6A443"/>
<path d="M21.4992 2.27744C20.0952 -0.341994 16.9446 -0.784376 15.0475 1.4248C14.2638 2.3374 13.8328 3.54883 13.8339 4.83603C13.8371 8.55556 15.9788 12.1562 19.7097 14.7147C19.8102 14.7837 19.9203 14.8164 20.0291 14.8164C20.2447 14.8164 20.4547 14.6876 20.5722 14.456C20.7489 14.1076 20.6493 13.6584 20.3497 13.4529C18.7707 12.37 15.0976 9.3626 15.0935 4.83457C15.0918 2.81719 16.6201 1.23125 18.3654 1.50449C19.9253 1.74892 20.4655 3.17412 20.5855 3.31963C21.1418 3.99453 21.901 3.99687 22.4244 3.29941C22.5643 3.11142 23.2396 1.4666 25.0168 1.46445C26.6077 1.46445 27.9036 2.96943 27.9054 4.81933C27.9092 9.13047 24.6111 12.0775 22.645 13.4506C22.3467 13.6589 22.2502 14.1088 22.4293 14.4557C22.6085 14.8025 22.9953 14.9145 23.2936 14.7064C27.0832 12.0601 29.1686 8.54814 29.1653 4.81777C29.1608 0.102537 23.8316 -1.90459 21.4992 2.27744Z" fill="#D6A443"/>
</g>
<defs>
<clipPath id="clip0">
<rect width="43" height="50" fill="white"/>
</clipPath>
</defs>
</svg>
