<svg width="29" height="29" viewBox="0 0 29 29" fill="none" xmlns="http://www.w3.org/2000/svg">
<path d="M14.9634 22.8794H18.2003M28 17.2922H24.5163C24.2753 17.2922 24.0801 17.5009 24.0801 17.7586V18.225H23.4632L21.905 15.3071V12.6378C21.905 12.38 21.7098 12.1714 21.4688 12.1714H20.1631C19.2965 12.1714 18.8575 12.7973 18.8575 14.0338V17.7586H11.2358C11.2358 17.7586 11.2358 17.7586 11.233 17.7586C10.3922 17.7586 9.70923 18.4888 9.70923 19.3878C9.70923 20.2868 10.3922 21.017 11.233 21.017H14.6564C14.5617 21.2288 14.5043 21.465 14.5043 21.7135C14.5043 22.1707 14.6822 22.5818 14.9663 22.8764C14.6822 23.174 14.5043 23.5851 14.5043 24.0392C14.5043 24.4933 14.6822 24.9075 14.9663 25.2021C14.6822 25.4997 14.5043 25.9108 14.5043 26.3649C14.5043 27.2639 15.1873 27.9942 16.0281 27.9942C16.0309 27.9942 16.0309 27.9942 16.0338 27.9942H17.3251C17.328 27.9942 17.3309 27.9942 17.3309 27.9942C17.3366 27.9942 17.3395 27.9942 17.3423 27.9942H21.9021H21.905C21.9681 27.9942 22.0284 27.9758 22.0858 27.9481C22.0886 27.9451 22.0944 27.9481 22.0972 27.9451L23.7473 27.0614H24.0801V27.5278C24.0801 27.7855 24.2753 27.9942 24.5163 27.9942H28V17.2922Z" stroke="#D6A443" stroke-miterlimit="10" stroke-linecap="round"/>
<path d="M1 11.7081H4.48368C4.72473 11.7081 4.91986 11.4994 4.91986 11.2417V10.7753H5.53682L7.09501 13.6932V16.3625C7.09501 16.6203 7.29014 16.8289 7.53118 16.8289H8.83685C9.70346 16.8289 10.1425 16.203 10.1425 14.9665V11.2417H17.7641C17.7641 11.2417 17.7641 11.2417 17.767 11.2417C18.6078 11.2417 19.2908 10.5115 19.2908 9.61247C19.2908 8.71349 18.6078 7.98325 17.767 7.98325H14.3436C14.4383 7.77155 14.4957 7.53529 14.4957 7.28677C14.4957 6.8296 14.3178 6.41846 14.0337 6.12392C14.3178 5.8263 14.4957 5.41516 14.4957 4.96106C14.4957 4.50697 14.3178 4.09276 14.0337 3.79821C14.3178 3.50059 14.4957 3.08945 14.4957 2.63536C14.4957 1.73637 13.8127 1.00614 12.9719 1.00614C12.9691 1.00614 12.9691 1.00614 12.9662 1.00614H7.09788C7.09214 1.00614 7.08927 1.0092 7.08353 1.0092C7.05483 1.0092 7.02901 1.01841 7.00318 1.02761C6.97448 1.03375 6.94292 1.03989 6.91709 1.05216C6.91135 1.05523 6.90848 1.05216 6.90561 1.05523L5.2556 1.93887H4.92273V1.46637C4.92273 1.20864 4.7276 1 4.48655 1H1V11.7081Z" stroke="#D6A443" stroke-miterlimit="10"/>
<path d="M28 17.292V28.0001" stroke="#D6A443" stroke-miterlimit="10"/>
<path d="M14.9636 25.2083H18.2005" stroke="#D6A443" stroke-miterlimit="10" stroke-linecap="round"/>
<path d="M14.6565 21.0168H18.2004" stroke="#D6A443" stroke-miterlimit="10" stroke-linecap="round"/>
</svg>
