<svg width="31" height="31" viewBox="0 0 31 31" fill="none" xmlns="http://www.w3.org/2000/svg">
<path d="M22.6086 0H8.39142C3.76431 0 0 3.76431 0 8.39142V22.6088C0 27.2357 3.76431 31 8.39142 31H22.6088C27.2357 31 31 27.2357 31 22.6088V8.39142C31 3.76431 27.2357 0 22.6086 0V0ZM15.5 23.9763C10.8261 23.9763 7.02367 20.1739 7.02367 15.5C7.02367 10.8261 10.8261 7.02367 15.5 7.02367C20.1739 7.02367 23.9763 10.8261 23.9763 15.5C23.9763 20.1739 20.1739 23.9763 15.5 23.9763ZM24.179 9.02267C22.7978 9.02267 21.6744 7.89924 21.6744 6.51801C21.6744 5.13679 22.7978 4.01312 24.179 4.01312C25.5602 4.01312 26.6839 5.13679 26.6839 6.51801C26.6839 7.89924 25.5602 9.02267 24.179 9.02267Z" fill="#404040"/>
<path d="M15.5008 8.84106C11.8292 8.84106 8.8418 11.8282 8.8418 15.5C8.8418 19.1716 11.8292 22.159 15.5008 22.159C19.1726 22.159 22.1598 19.1716 22.1598 15.5C22.1598 11.8282 19.1726 8.84106 15.5008 8.84106Z" fill="#404040"/>
<path d="M24.1795 5.83057C23.8006 5.83057 23.4922 6.13898 23.4922 6.51787C23.4922 6.89676 23.8006 7.20517 24.1795 7.20517C24.5586 7.20517 24.867 6.897 24.867 6.51787C24.867 6.13874 24.5586 5.83057 24.1795 5.83057Z" fill="black"/>
</svg>
