<svg width="27" height="20" viewBox="0 0 27 20" fill="none" xmlns="http://www.w3.org/2000/svg">
<path d="M0.562898 1.62271C4.26854 4.72224 10.7708 10.1753 12.6819 11.8755C12.9384 12.105 13.2136 12.2217 13.4993 12.2217C13.7844 12.2217 14.059 12.1061 14.315 11.8777C16.2277 10.1758 22.73 4.72224 26.4357 1.62271C26.6664 1.43011 26.7016 1.09156 26.5148 0.856094C26.083 0.311979 25.4392 0 24.7493 0H2.24929C1.55937 0 0.915532 0.31198 0.483796 0.856147C0.297011 1.09156 0.332185 1.43011 0.562898 1.62271Z" fill="white"/>
<path d="M26.6737 3.30277C26.4743 3.2111 26.2398 3.24308 26.0739 3.38308C21.9644 6.82381 16.7195 11.2341 15.0694 12.7027C14.1432 13.5285 12.8578 13.5285 11.9295 12.7016C10.1706 11.1364 4.28077 6.19121 0.926121 3.38303C0.759111 3.24303 0.524021 3.21215 0.326268 3.30272C0.127459 3.39392 0 3.59032 0 3.80678V17.7781C0 19.0038 1.00907 20.0004 2.25002 20.0004H24.75C25.9909 20.0004 27 19.0038 27 17.7781V3.80678C27 3.59032 26.8725 3.3934 26.6737 3.30277Z" fill="white"/>
</svg>
