<svg width="31" height="31" viewBox="0 0 31 31" fill="none" xmlns="http://www.w3.org/2000/svg">
<path d="M23.2254 0H7.75C3.49365 0 0 3.49365 0 7.7746V23.25C0 27.5063 3.49365 31 7.75 31H23.2254C27.5063 31 31 27.5063 31 23.2254V7.7746C31 3.49365 27.5063 0 23.2254 0ZM17.05 19.8056C15.8198 19.8056 14.6389 19.1659 14.2452 18.4278C14.2452 18.4278 13.581 20.9865 13.4333 21.4786C12.9413 23.2254 11.4651 24.9722 11.3667 25.1198C11.2929 25.2183 11.1206 25.1937 11.096 25.046C11.0714 24.8246 10.7024 22.6103 11.1206 20.8143C11.3421 19.904 12.5968 14.7619 12.5968 14.7619C12.5968 14.7619 12.2278 14.0484 12.2278 13.0151C12.2278 11.3667 13.2119 10.1365 14.4421 10.1365C15.4754 10.1365 15.9921 10.8992 15.9921 11.8095C15.9921 12.8183 15.3278 14.3437 14.9833 15.746C14.6881 16.927 15.5984 17.8865 16.804 17.8865C18.969 17.8865 20.4452 15.1802 20.4452 11.9817C20.4452 9.54603 18.7476 7.7254 15.6722 7.7254C12.2032 7.7254 10.0135 10.2349 10.0135 13.0397C10.0135 13.9992 10.3087 14.6881 10.7762 15.2294C10.9976 15.4754 11.0222 15.5738 10.9484 15.8444C10.8992 16.0413 10.7762 16.5333 10.7024 16.7302C10.6286 17.0008 10.3825 17.1238 10.1365 17.0008C8.5373 16.3611 7.79921 14.6635 7.79921 12.7444C7.79921 9.59524 10.5548 5.80635 15.9921 5.80635C20.3714 5.80635 23.25 8.88175 23.25 12.1786C23.2254 16.5579 20.7405 19.8056 17.05 19.8056Z" fill="#404040"/>
</svg>
