<svg width="918" height="584" viewBox="0 0 918 584" fill="none" xmlns="http://www.w3.org/2000/svg">
<path d="M120.508 282.483C117.415 284.012 114.292 285.564 111.193 287.145" stroke="#D6A443" stroke-width="3" stroke-miterlimit="10"/>
<path d="M93.0472 296.584C71.4431 308.341 50.9027 321.83 35.0714 340.37C12.6233 366.692 1.96858 406.09 18.8443 436.304C33.2665 462.126 63.3804 474.925 92.2303 482.076C159.158 498.65 230.084 494.412 296.973 477.95C363.864 461.462 427.169 433.123 488.306 401.63C516.45 387.121 544.57 371.8 569.195 351.793C596.79 329.379 612.07 298.103 630.644 268.196C636.872 258.145 643.037 244.743 635.699 235.432C631.706 230.343 624.748 228.418 618.263 228.514C605.402 228.693 592.888 236.098 586.619 247.267C580.354 258.41 580.549 272.875 587.113 283.887C596.164 299.035 615.477 305.884 633.174 304.533C644.016 303.699 654.374 300.322 664.255 295.759" stroke="#D6A443" stroke-width="3" stroke-miterlimit="10" stroke-dasharray="7.87 7.87"/>
<path d="M673.408 291.128C676.462 289.489 679.479 287.741 682.469 285.989" stroke="#D6A443" stroke-width="3" stroke-miterlimit="10"/>
<path d="M760.744 234.01L700.663 276.791" stroke="#D6A443" stroke-width="3" stroke-miterlimit="10" stroke-linecap="round" stroke-linejoin="round"/>
<path d="M916.223 111.583L737.194 217.471L736.224 218.049L700.662 276.791L711.477 196.758L711.313 195.797" stroke="#D6A443" stroke-width="3" stroke-miterlimit="10" stroke-linecap="round" stroke-linejoin="round"/>
<path d="M666.632 167.993L712.166 196.326L916.224 111.583L667.636 162.301C664.877 162.882 664.221 166.504 666.632 167.993Z" stroke="#D6A443" stroke-width="3" stroke-miterlimit="10" stroke-linecap="round" stroke-linejoin="round"/>
<path d="M916.224 111.583L736.224 218.049L795.011 256.332C796.927 257.574 799.504 257.178 800.919 255.404L916.224 111.583Z" stroke="#D6A443" stroke-width="3" stroke-miterlimit="10" stroke-linecap="round" stroke-linejoin="round"/>
</svg>
