<svg width="88" height="106" viewBox="0 0 88 106" fill="none" xmlns="http://www.w3.org/2000/svg">
<path d="M56.6677 23.9078C56.7337 23.2558 56.7601 22.5966 56.7601 21.9302C56.7601 10.609 48.3066 1.43018 37.88 1.43018C27.4534 1.43018 19 10.609 19 21.9302C19 33.2514 27.4534 42.4302 37.88 42.4302C42.737 42.4302 47.1716 40.4382 50.5173 37.1637" stroke="#D6A443" stroke-miterlimit="10"/>
<path d="M27.2554 17.373C27.2554 15.0586 28.9843 13.1885 31.1092 13.1885C33.2408 13.1885 34.9631 15.0658 34.9631 17.373" stroke="#D6A443" stroke-miterlimit="10" stroke-linecap="round"/>
<path d="M40.2822 16.9216C40.2822 14.6072 42.0112 12.7371 44.1361 12.7371C46.2676 12.7371 47.99 14.6144 47.99 16.9216" stroke="#D6A443" stroke-miterlimit="10" stroke-linecap="round"/>
<path d="M36 24.4302C36 24.4302 41.5464 24.5395 39.3636 28.1621C39.3636 28.1621 42.0825 31.5974 36.2808 32.4302" stroke="#D6A443" stroke-miterlimit="10" stroke-linecap="round"/>
<path d="M52.3914 26.1934C52.3914 26.1934 50.095 22.6394 47.1254 24.5598C45.403 25.6704 44.6837 27.949 45.1456 30.0627C45.7198 32.6996 47.4355 36.3324 52.3914 37.9302C52.3914 37.9302 57.8951 35.6732 59.7494 29.9624C60.4885 27.6767 59.5515 25.0685 57.4793 24.1513C56.1199 23.5494 54.358 23.7071 52.3914 26.1934Z" stroke="#D6A443" stroke-miterlimit="10"/>
<path d="M21.5 104.919C32.8218 104.919 42 95.4202 42 83.7034C42 71.9866 32.8218 62.4883 21.5 62.4883C10.1782 62.4883 1 71.9866 1 83.7034C1 95.4202 10.1782 104.919 21.5 104.919Z" stroke="#D6A443" stroke-miterlimit="10"/>
<path d="M10.2144 78.9428C10.2144 76.5477 12.0917 74.6123 14.3989 74.6123C16.7061 74.6123 18.5835 76.5551 18.5835 78.9428" stroke="#D6A443" stroke-miterlimit="10" stroke-linecap="round"/>
<path d="M24.3589 78.4755C24.3589 76.0804 26.2362 74.145 28.5434 74.145C30.8578 74.145 32.728 76.0878 32.728 78.4755" stroke="#D6A443" stroke-miterlimit="10" stroke-linecap="round"/>
<path d="M21.5 84.7638H36.4182C36.4182 93.232 29.6828 100.202 21.5 100.202C13.3172 100.202 6.58179 93.232 6.58179 84.7638H21.5Z" stroke="#D6A443" stroke-miterlimit="10"/>
<path d="M51.9033 52.8857C55.5128 48.6145 60.7136 45.9302 66.4999 45.9302C72.2862 45.9302 77.4869 48.6145 81.0964 52.8857" stroke="#D6A443" stroke-miterlimit="10"/>
<path d="M86.1665 65.9885C86.1941 66.3667 86.2009 66.7597 86.2009 67.1453C86.2009 78.8615 77.3838 88.3604 66.5 88.3604C55.6163 88.3604 46.7922 78.8615 46.7922 67.1453C46.7922 66.8042 46.7991 66.4705 46.8198 66.1368" stroke="#D6A443" stroke-miterlimit="10"/>
<path d="M61.3199 67.0118H48.7967C47.2537 67.0118 46 65.6622 46 64.0012V55.9037C46 54.2426 47.2537 52.8931 48.7967 52.8931H61.3268C62.8698 52.8931 64.1235 54.2426 64.1235 55.9037V59.9524V61.1611V62.2289V64.0012C64.1235 65.6622 62.8698 67.0118 61.3199 67.0118Z" stroke="#D6A443" stroke-miterlimit="10"/>
<path d="M83.9691 67.012H71.9005C70.2267 67.012 68.8696 65.5512 68.8696 63.7493V56.1486C68.8696 54.3467 70.2267 52.8859 71.9005 52.8859H83.9691C85.643 52.8859 87 54.3467 87 56.1486V63.7493C87 65.5512 85.643 67.012 83.9691 67.012Z" stroke="#D6A443" stroke-miterlimit="10"/>
<path d="M68.8696 63.6453C68.8696 63.6453 66.7135 62.0288 64.0684 63.7566" stroke="#D6A443" stroke-miterlimit="10"/>
<path d="M68.8696 60.9016C68.8696 60.9016 66.7135 59.285 64.0684 61.0128" stroke="#D6A443" stroke-miterlimit="10"/>
<path d="M59.7009 75.6135C59.7009 75.6135 66.734 84.2153 75.3446 75.6135" stroke="#D6A443" stroke-miterlimit="10" stroke-linejoin="round"/>
</svg>
