<svg width="87" height="102" viewBox="0 0 87 102" fill="none" xmlns="http://www.w3.org/2000/svg">
<path d="M84.3909 1H1.43035C0.640083 1 0 1.74428 0 2.6632V99.1289C0 100.048 0.640083 100.792 1.43035 100.792H84.3909C85.1811 100.792 85.8212 100.048 85.8212 99.1289V2.6632C85.8212 1.74428 85.1811 1 84.3909 1ZM40.0499 97.4657H2.86071V60.8753H40.0499V97.4657ZM40.0499 57.5489H2.86071V4.3264H40.0499V57.5489ZM82.9605 97.4657H42.9106V37.5904H82.9605V97.4657ZM82.9605 34.264H42.9106V4.3264H82.9605V34.264Z" stroke="#D6A443" stroke-miterlimit="10"/>
<path d="M52.9231 92.4761H50.0624V95.8025H52.9231V92.4761Z" stroke="#D6A443" stroke-miterlimit="10"/>
<path d="M47.2016 92.4761H44.3409V95.8025H47.2016V92.4761Z" stroke="#D6A443" stroke-miterlimit="10"/>
<path d="M58.6445 92.4761H55.7838V95.8025H58.6445V92.4761Z" stroke="#D6A443" stroke-miterlimit="10"/>
<path d="M64.366 92.4761H61.5052V95.8025H64.366V92.4761Z" stroke="#D6A443" stroke-miterlimit="10"/>
<path d="M70.0873 92.4761H67.2266V95.8025H70.0873V92.4761Z" stroke="#D6A443" stroke-miterlimit="10"/>
<path d="M75.8087 92.4761H72.948V95.8025H75.8087V92.4761Z" stroke="#D6A443" stroke-miterlimit="10"/>
<path d="M81.5301 92.4761H78.6694V95.8025H81.5301V92.4761Z" stroke="#D6A443" stroke-miterlimit="10"/>
<path d="M10.5011 18.474C11.8818 18.474 13.0011 17.3547 13.0011 15.974C13.0011 14.5933 11.8818 13.474 10.5011 13.474C9.12039 13.474 8.0011 14.5933 8.0011 15.974C8.0011 17.3547 9.12039 18.474 10.5011 18.474Z" stroke="#D6A443" stroke-miterlimit="10"/>
<path d="M76.0386 15.4178C77.1431 15.4178 78.0386 14.5224 78.0386 13.4178C78.0386 12.3133 77.1431 11.4178 76.0386 11.4178C74.934 11.4178 74.0386 12.3133 74.0386 13.4178C74.0386 14.5224 74.934 15.4178 76.0386 15.4178Z" stroke="#D6A443" stroke-miterlimit="10"/>
<path d="M40.0499 40.6321C39.4688 39.7319 38.9307 37.0416 33.4238 31.9626C31.4213 30.1165 28.2388 29.1976 24.8649 32.2828C22.3493 34.5822 21.4482 36.8254 20.8617 37.6612C20.3557 38.3805 19.9338 38.9564 19.5279 39.4034C18.8574 40.1435 17.8186 40.1934 17.0588 39.5822C16.6011 39.2142 16.1469 38.8067 15.2011 38.3847C12.7391 37.2849 10.0143 38.5801 9.12745 39.3473C6.40263 41.7049 3.01984 46.8213 2.86072 47.5489" stroke="#D6A443" stroke-miterlimit="10"/>
<path d="M62.6484 68.9833C66.2383 68.9833 69.1484 66.0731 69.1484 62.4833C69.1484 58.8934 66.2383 55.9833 62.6484 55.9833C59.0586 55.9833 56.1484 58.8934 56.1484 62.4833C56.1484 66.0731 59.0586 68.9833 62.6484 68.9833Z" stroke="#D6A443" stroke-miterlimit="10"/>
<path d="M42.9106 23.84C43.5364 22.9398 44.1157 20.2495 50.0463 15.1705C52.2026 13.3244 55.6301 12.4055 59.2649 15.4907C61.9737 17.7901 62.9427 20.0333 63.5757 20.8691C64.1192 21.5884 64.5751 22.1643 65.0114 22.6113C65.7337 23.3514 66.8512 23.4013 67.6701 22.7901C68.1635 22.4221 68.6534 22.0146 69.6708 21.5926C72.3223 20.4928 75.2581 21.788 76.2128 22.5551C79.1451 24.9127 82.7871 30.0292 82.9587 30.7547" stroke="#D6A443" stroke-miterlimit="10"/>
<path d="M2.86072 80.8939C3.4418 79.9937 3.97997 77.3035 9.48683 72.2245C11.4893 70.3783 14.6719 69.4594 18.0457 72.5447C20.5613 74.844 21.4625 77.0873 22.0489 77.923C22.5549 78.6424 22.9769 79.2183 23.3827 79.6652C24.0532 80.4054 25.092 80.4553 25.8519 79.844C26.3096 79.476 26.7637 79.0686 27.7095 78.6465C30.1715 77.5467 32.8964 78.8419 33.7832 79.6091C36.5062 81.9667 39.8872 87.0831 40.0481 87.8087" stroke="#D6A443" stroke-miterlimit="10"/>
<path d="M47.2017 90.5801C47.2017 90.5801 61.4748 46.9086 78.6694 90.5801" stroke="#D6A443" stroke-miterlimit="10"/>
</svg>
