<svg width="86" height="100" viewBox="0 0 86 100" fill="none" xmlns="http://www.w3.org/2000/svg">
<g clip-path="url(#clip0)">
<path d="M14.9403 73.8992V16.4545C14.9403 15.641 15.6094 14.9779 16.441 14.9779H67.9626C68.7943 14.9779 69.4634 15.641 69.4634 16.4545V83.2184C69.4634 84.0318 68.7943 84.695 67.9626 84.695H16.4506C15.619 84.695 14.9499 84.0318 14.9499 83.2184V79.8143" stroke="#D6A443" stroke-miterlimit="10" stroke-linecap="round"/>
<path d="M43.0335 99.5579C42.3739 99.5579 41.7813 99.1335 41.5901 98.5058C41.5805 98.4616 40.1372 93.9434 36.849 92.8029C35.071 92.1839 32.9586 92.6791 30.5593 94.2618C26.4586 96.9762 21.8704 97.6128 17.9705 96.0036C15.5712 95.0133 13.6595 93.2361 12.7609 91.2556C9.45362 91.6623 6.65291 90.6278 4.77939 88.2671C1.26177 83.8462 1.80662 75.6676 6.16541 67.4271C8.20142 63.5721 8.67936 60.1592 7.58966 57.2768C5.99335 53.0504 1.47207 51.2467 1.42427 51.229C0.850749 51.008 0.4684 50.4598 0.477958 49.8497C0.477958 49.2396 0.860308 48.7003 1.43383 48.4793C1.47207 48.4616 5.99335 46.6579 7.59922 42.4315C8.68892 39.5491 8.21098 36.1274 6.17497 32.2812C4.06249 28.2936 2.96323 24.2264 2.99191 20.504C3.02058 17.1265 3.98602 14.0584 5.72571 11.8656C7.57054 9.54911 10.161 8.35547 12.8565 8.52347C13.822 6.52524 15.8006 4.8011 18.2763 3.86387C20.5322 3.01507 25.1204 2.12205 30.5593 5.72064C32.9586 7.31215 35.0806 7.79844 36.8585 7.17952C40.1085 6.03894 41.571 1.52081 41.5901 1.4766C41.7813 0.848842 42.3644 0.424438 43.0335 0.424438C43.693 0.424438 44.2857 0.848842 44.4768 1.4766C44.4864 1.52081 45.9298 6.03894 49.218 7.17952C50.9959 7.79844 53.1084 7.30331 55.5076 5.72064C60.9274 2.13089 65.5061 3.00622 67.7524 3.84619C70.2568 4.78341 72.2545 6.52523 73.22 8.54999C75.4758 8.52347 77.6839 9.48722 79.4236 11.2732C82.6067 14.5535 83.7059 19.9293 82.3581 25.6587C82.1765 26.4545 81.364 26.9496 80.5515 26.764C79.739 26.5783 79.2324 25.7914 79.4236 24.9956C81.0773 17.9399 78.1714 14.2706 77.2442 13.3157C75.8677 11.8922 74.1663 11.2732 72.4648 11.5739C71.6906 11.7065 70.9354 11.2379 70.7443 10.4863C70.4097 9.1866 69.0141 7.48014 66.6722 6.60481C64.9708 5.96821 61.4723 5.32276 57.1804 8.1698C53.94 10.3183 50.9194 10.9196 48.1856 9.96467C45.7386 9.10702 44.0754 7.153 43.0335 5.42886C41.9916 7.14416 40.3284 9.10702 37.8813 9.96467C35.1475 10.9196 32.127 10.3183 28.8865 8.1698C24.5755 5.31392 21.0675 5.96821 19.366 6.61365C17.0241 7.49783 15.6477 9.20428 15.3227 10.504C15.122 11.2909 14.319 11.7772 13.5161 11.5827C11.5087 11.1141 9.53964 11.8745 8.11539 13.6694C5.79262 16.5871 4.59778 22.8471 8.86097 30.8931C11.3176 35.535 11.8433 39.7613 10.419 43.4748C9.22421 46.5871 6.92055 48.6296 5.10439 49.832C6.92055 51.0345 9.23377 53.0858 10.419 56.1893C11.8433 59.8939 11.3176 64.1291 8.86097 68.771C5.10439 75.8798 4.42572 82.9709 7.16908 86.428C8.91833 88.6296 11.5565 88.5588 13.4587 88.1079C13.8602 88.0106 14.2808 88.0814 14.6249 88.3024C14.969 88.5235 15.208 88.8771 15.2844 89.275C15.533 90.5659 16.8138 92.2989 19.1462 93.2538C20.8763 93.97 24.4513 94.7215 28.8865 91.7861C32.127 89.6464 35.1475 89.0363 37.8813 89.9912C40.3284 90.8488 41.9916 92.8029 43.0335 94.527C44.0754 92.8117 45.7386 90.8488 48.1856 89.9912C50.9099 89.0363 53.94 89.6375 57.1804 91.7861C61.6061 94.7127 65.162 93.97 66.8921 93.2626C69.2244 92.3166 70.5244 90.5836 70.7729 89.2927C70.9259 88.5235 71.6619 88.0018 72.4553 88.1079C75.3325 88.4881 77.5883 87.6747 78.9648 85.7383C81.5074 82.1839 80.8096 75.6853 77.1486 68.7534C74.692 64.1114 74.1663 59.8851 75.5906 56.1716C76.7854 53.0593 79.089 51.0168 80.9052 49.8144C79.089 48.6119 76.7758 46.5606 75.5906 43.4572C74.1759 39.7525 74.692 35.5173 77.1486 30.8754C77.531 30.1503 78.4391 29.8674 79.1751 30.2476C79.9111 30.6278 80.1979 31.512 79.8155 32.237C77.7795 36.092 77.3016 39.5049 78.3913 42.3873C79.9971 46.6137 84.5184 48.4174 84.5566 48.435C85.1302 48.6561 85.5125 49.2043 85.503 49.8144C85.503 50.4244 85.1206 50.9638 84.5471 51.1848C84.5089 51.2025 79.9876 53.0062 78.3817 57.2326C77.292 60.115 77.7699 63.5367 79.806 67.3829C84.05 75.4112 84.6522 82.9001 81.4118 87.4271C79.5861 89.9735 76.7376 91.2556 73.306 91.1318C72.4266 93.1565 70.4766 94.9779 68.0296 95.9771C65.745 96.9054 61.0708 97.9222 55.479 94.2175C53.0797 92.626 50.9577 92.1397 49.1797 92.7587C45.9298 93.8992 44.4673 98.4174 44.4577 98.4616C44.2761 99.1335 43.693 99.5579 43.0335 99.5579Z" stroke="#D6A443" stroke-miterlimit="10" stroke-linecap="round"/>
</g>
<defs>
<clipPath id="clip0">
<rect width="86" height="100" fill="white"/>
</clipPath>
</defs>
</svg>
