<svg width="88" height="101" viewBox="0 0 88 101" fill="none" xmlns="http://www.w3.org/2000/svg">
<path d="M67.656 64.1243H80.3306C83.2378 64.1243 85.6013 61.4484 85.6013 58.1391V26.2181C85.6013 22.9088 83.2378 20.2329 80.3306 20.2329H67.656H19.9691H7.29445C4.38026 20.2329 2.0238 22.9088 2.0238 26.2181V58.1391C2.0238 61.4484 4.38026 64.1243 7.29445 64.1243H19.9691" stroke="#D6A443" stroke-miterlimit="10"/>
<path d="M19.9692 20.2333V3.13281H67.6561V20.2333" stroke="#D6A443" stroke-miterlimit="10"/>
<path d="M67.6561 52.9856V64.1246V83.8218V100.036H19.9692V92.4828V64.1246V52.748" stroke="#D6A443" stroke-miterlimit="10"/>
<path d="M14.7963 52.7241L72.8292 53.0082" stroke="#D6A443" stroke-miterlimit="10"/>
<path d="M31.5633 73.5616C33.1574 73.5616 34.4496 72.0941 34.4496 70.284C34.4496 68.4738 33.1574 67.0063 31.5633 67.0063C29.9692 67.0063 28.677 68.4738 28.677 70.284C28.677 72.0941 29.9692 73.5616 31.5633 73.5616Z" stroke="#D6A443" stroke-miterlimit="10"/>
<path d="M67.6561 37.2227C69.2501 37.2227 70.5424 35.7553 70.5424 33.9451C70.5424 32.1349 69.2501 30.6675 67.6561 30.6675C66.062 30.6675 64.7698 32.1349 64.7698 33.9451C64.7698 35.7553 66.062 37.2227 67.6561 37.2227Z" stroke="#D6A443" stroke-miterlimit="10"/>
<path d="M67.6562 80.7737C66.9102 79.6495 66.22 76.2769 59.1576 69.9197C56.592 67.608 52.5065 66.46 48.1841 70.3235C44.9561 73.2052 43.8058 76.0078 43.0528 77.0607C42.4045 77.9632 41.8607 78.6837 41.3448 79.2458C40.4872 80.172 39.1556 80.2354 38.1796 79.4674C37.594 79.0083 37.0083 78.4937 35.7952 77.9632C32.637 76.5857 29.1442 78.2087 28.0078 79.1666C24.5149 82.1196 20.1785 88.5243 19.9763 89.4348" stroke="#D6A443" stroke-miterlimit="10"/>
<path d="M54.6956 33.9451H61.0538" stroke="#D6A443" stroke-miterlimit="10"/>
<path d="M19.9692 100.036H28.7885H35.3629H53.2176H53.3709H67.6561" stroke="#D6A443" stroke-miterlimit="10"/>
<line y1="-0.5" x2="131.456" y2="-0.5" transform="matrix(0.65421 0.756313 -0.785461 0.618911 1 1.57788)" stroke="#D6A443"/>
<line y1="-0.5" x2="131.456" y2="-0.5" transform="matrix(-0.65421 0.756313 0.785461 0.618911 86.9999 1)" stroke="#D6A443"/>
</svg>
