<svg width="87" height="101" viewBox="0 0 87 101" fill="none" xmlns="http://www.w3.org/2000/svg">
<path d="M47.5052 2.77202C47.706 2.7411 47.9068 2.71019 48.1075 2.67928C53.9396 1.83946 59.9103 3.00902 64.9776 6.21373C70.2073 9.51634 74.3854 14.8077 68.8162 22.4485C68.8162 22.4485 52.7206 19.1202 46.6543 18.5946" stroke="#D6A443" stroke-miterlimit="10"/>
<path d="M40.9084 3.91028C21.7533 7.74869 15.5675 14.0138 13.6266 18.1923C12.5367 20.5262 13.5454 23.3703 15.7922 24.375C24.177 28.1464 37.5096 23.1127 46.6545 18.5993C47.2855 18.285 47.8974 17.9759 48.4901 17.6719C53.3853 15.1473 56.6885 13.004 56.6885 13.004" stroke="#D6A443" stroke-miterlimit="10"/>
<path d="M21.3089 25.6474L21.2897 30.707C21.2897 31.3252 21.806 31.7889 22.3701 31.6756C27.2748 30.676 47.9883 26.9922 66.7418 31.7374C67.454 31.9177 68.1472 31.3819 68.2093 30.5988L68.8212 22.453" stroke="#D6A443" stroke-miterlimit="10"/>
<path d="M66.7514 36.6682L67.0343 31.8148" stroke="#D6A443" stroke-miterlimit="10"/>
<path d="M23.9811 47.251C23.9811 47.251 24.7794 61.5226 42.1323 65.4229C43.9919 65.8402 45.9088 65.8711 47.7827 65.5311C53.1224 64.5625 63.3812 60.9301 64.6097 47.2973" stroke="#D6A443" stroke-miterlimit="10"/>
<path d="M22.2063 31.7123L22.1643 36.7459" stroke="#D6A443" stroke-miterlimit="10"/>
<path d="M16.2318 99.402L33.2118 99.4688L74.6723 99.6333C74.7201 99.6333 74.744 99.6333 74.744 99.6333" stroke="#D6A443" stroke-miterlimit="10"/>
<path d="M51.827 64.4441C51.3394 67.2418 54.093 67.7158 54.093 67.7158C62.7455 70.7144 67.8079 77.742 70.7622 84.4502V84.4554" stroke="#D6A443" stroke-miterlimit="10"/>
<path d="M71.9609 87.4912C71.9469 87.4446 71.9283 87.398 71.9142 87.3514" stroke="#D6A443" stroke-miterlimit="10"/>
<path d="M37.0794 63.8311C37.0794 63.8311 37.2276 66.5927 34.9282 67.5716C34.9282 67.5716 25.5443 70.5032 20.0899 82.8428C20.066 82.9046 20.0373 82.9613 20.0134 83.018" stroke="#D6A443" stroke-miterlimit="10"/>
<path d="M6.59475 99.3664C6.59475 99.3664 -5.46621 81.9725 3.03335 78.2011C4.20455 77.6807 5.49525 77.5776 6.7525 77.7734C11.4038 78.4999 26.0032 82.1219 33.212 99.4746L6.59475 99.3664Z" stroke="#D6A443" stroke-miterlimit="10"/>
<path d="M60.0821 93.4359L60.0588 99.6185" stroke="#D6A443" stroke-miterlimit="10"/>
<path d="M73.984 82.7091C71.0201 82.3896 70.3843 84.399 70.9341 86.3775C71.087 86.9133 71.5173 87.1967 71.914 87.3512C72.1148 87.4234 72.3108 87.4646 72.4542 87.4852C72.2821 87.4698 72.1196 87.4698 71.9619 87.4904C69.8872 87.6295 69.194 90.3705 69.4665 91.7049C69.7581 93.1321 71.1874 93.4464 71.1874 93.4464C69.108 92.6787 68.453 94.5798 68.453 94.5798C66.8851 99.7681 74.744 99.6445 74.744 99.6445C81.0637 100.149 81.8907 90.0304 81.8907 90.0304C82.0437 85.9756 79.7348 84.1929 77.8991 83.4149" stroke="#D6A443" stroke-miterlimit="10" stroke-linejoin="round"/>
<path d="M73.9841 82.7087C74.4909 82.7035 75.0693 82.7448 75.7242 82.822C75.7242 82.822 76.7138 82.9045 77.9041 83.4043" stroke="#D6A443" stroke-miterlimit="10"/>
<path d="M82.8087 62.739L77.8992 83.4046C76.7089 82.9048 75.7193 82.8224 75.7193 82.8224C75.0644 82.74 74.486 82.7039 73.9792 82.709L76.7089 62.301L82.8087 62.739Z" stroke="#D6A443" stroke-miterlimit="10"/>
<path d="M82.6941 46.8852C84.501 48.8276 89.0711 55.0258 82.804 62.7387L76.709 62.3008C76.709 62.3008 72.5931 58.1635 75.8963 53.7222C76.4891 52.9288 77.2492 52.3054 78.0762 51.8005C79.0275 51.2183 80.7293 49.8529 81.7667 47.0913C81.9196 46.6843 82.4072 46.5761 82.6941 46.8852Z" stroke="#D6A443" stroke-miterlimit="10"/>
<path d="M47.7732 3.69744C47.7777 2.39992 46.2404 1.34186 44.3395 1.33419C42.4386 1.32652 40.894 2.37215 40.8894 3.66967C40.8849 4.96719 42.4223 6.02526 44.3232 6.03293C46.224 6.0406 47.7687 4.99496 47.7732 3.69744Z" stroke="#D6A443" stroke-miterlimit="10"/>
<path d="M24.2295 47.2514C21.4713 47.2411 18.1106 44.8195 18.1202 41.8467C18.1298 38.8738 20.3718 36.478 23.1301 36.4883" stroke="#D6A443" stroke-miterlimit="10"/>
<path d="M65.5754 36.663C68.3337 36.6733 70.5566 39.0897 70.5471 42.0625C70.5375 45.0354 67.1195 47.426 64.3612 47.4157" stroke="#D6A443" stroke-miterlimit="10"/>
<path d="M51.1383 53.3467C51.124 56.9635 48.3514 59.9311 44.9955 59.9157C41.6397 59.9002 38.8862 56.912 38.9005 53.2951C38.9005 53.2642 38.9005 53.2333 38.9005 53.2024" stroke="#D6A443" stroke-miterlimit="10"/>
<path d="M8.99451 85.0787C9.39607 85.3724 9.74505 85.7331 10.0128 86.0989C11.1505 87.6703 11.2127 89.6591 10.1562 90.5504C9.84544 90.8132 9.47256 90.9472 9.071 90.9729" stroke="#D6A443" stroke-miterlimit="10"/>
<path d="M7.38837 90.4734C6.95336 90.1952 6.53268 89.8036 6.17893 89.3141C5.04119 87.7427 4.97905 85.754 6.03552 84.8626C6.44663 84.5174 6.90077 84.3938 7.36447 84.4195" stroke="#D6A443" stroke-miterlimit="10"/>
<path d="M19.8222 89.1027C19.9942 89.2727 20.1568 89.4633 20.305 89.6694C21.3949 91.1739 21.457 93.0906 20.4388 93.9407C19.7074 94.559 18.6127 94.4508 17.6519 93.7758" stroke="#D6A443" stroke-miterlimit="10"/>
<path d="M16.0455 91.6789C15.5675 90.4321 15.7109 89.144 16.4949 88.4845C16.8199 88.2115 17.2167 88.0775 17.6422 88.0775" stroke="#D6A443" stroke-miterlimit="10"/>
<path d="M46.884 79.7259C46.8553 79.9166 46.8266 80.0248 46.8266 80.0248H46.8218C46.5589 80.1484 46.2912 80.2515 46.0283 80.3391H46.0235C42.2852 81.555 38.4227 79.4941 36.6157 78.2576C35.2724 77.3405 34.2159 75.9751 33.7522 74.3315C32.3754 69.4936 36.6061 66.2786 36.6061 66.2786C34.9425 73.2856 40.0671 74.3006 42.1418 74.4294C43.0549 74.4861 43.9584 74.7437 44.728 75.2796C44.8284 75.3517 44.924 75.4187 45.0148 75.4959" stroke="#D6A443" stroke-miterlimit="10"/>
<path d="M49.2837 72.6107H49.2789C49.2024 72.5643 49.1594 72.5385 49.1594 72.5385C52.7734 70.7919 52.4197 66.8092 52.4197 66.8092C56.4974 70.1994 54.2314 74.7952 52.9551 76.7428V76.7479" stroke="#D6A443" stroke-miterlimit="10" stroke-linejoin="round"/>
<path d="M52.2236 75.8417C52.2236 75.836 52.2236 75.836 52.2236 75.8303" stroke="#D6A443" stroke-miterlimit="10" stroke-linejoin="round"/>
<path d="M46.4395 80.2822C45.4739 81.8537 43.098 86.7638 48.0553 90.9681C48.0553 90.9681 52.1473 86.2589 50.5506 80.4574C50.5124 80.308 50.4694 80.1586 50.4216 80.0092" stroke="#D6A443" stroke-miterlimit="10"/>
<path d="M50.4407 80.009C50.5506 80.1585 50.6701 80.4212 50.7944 80.5603C54.3988 84.7594 59.8389 84.136 59.8389 84.136C58.9115 77.9636 54.7813 77.4072 52.9552 76.7477V76.7425C52.6922 76.6498 52.4962 76.588 52.3863 76.5519C52.3194 76.5313 52.2811 76.521 52.2811 76.521" stroke="#D6A443" stroke-miterlimit="10"/>
<path d="M46.8839 79.7257C46.9843 78.9941 47.0273 77.0569 45.0148 75.4957C45.4354 73.7903 46.8743 72.5383 48.5857 72.5383C48.8248 72.5383 49.0542 72.5641 49.2789 72.6105H49.2837C50.7847 72.9196 51.9607 74.2077 52.2236 75.8306C52.2236 75.8358 52.2236 75.8358 52.2236 75.8409C52.2619 76.0625 52.281 76.2892 52.281 76.521C52.281 78.0203 51.5113 79.329 50.3736 80.0091C50.3067 80.0503 50.2398 80.0864 50.168 80.1225C49.69 80.3646 49.1546 80.5037 48.5857 80.5037C47.9499 80.5037 47.3476 80.3286 46.8265 80.0246H46.8218" stroke="#D6A443" stroke-miterlimit="10"/>
</svg>
