<svg width="87" height="99" viewBox="0 0 87 99" fill="none" xmlns="http://www.w3.org/2000/svg">
<path d="M40.4344 5.98745C42.0184 5.98745 43.3025 4.79019 43.3025 3.3133C43.3025 1.83641 42.0184 0.63916 40.4344 0.63916C38.8504 0.63916 37.5663 1.83641 37.5663 3.3133C37.5663 4.79019 38.8504 5.98745 40.4344 5.98745Z" stroke="#D6A443" stroke-miterlimit="10"/>
<path d="M37.9404 2.00525L32.3912 12.2658" stroke="#D6A443" stroke-miterlimit="10"/>
<path d="M42.9285 2.00525L47.293 12.2658" stroke="#D6A443" stroke-miterlimit="10"/>
<path d="M79.4971 85.3881V14.3199C79.4971 13.3413 78.6554 12.5565 77.6058 12.5565H2.4109C1.36133 12.5565 0.519592 13.3413 0.519592 14.3199V86.0954C0.519592 86.5702 0.717036 86.9965 1.03918 87.3065C1.38211 87.6456 1.87052 87.8588 2.4109 87.8588H69.0222" stroke="#D6A443" stroke-miterlimit="10"/>
<path d="M72.1397 78.5187V71.5039" stroke="#D6A443" stroke-miterlimit="10"/>
<path d="M34.9164 80.4565H7.54443V60.1098V18.6024H72.1397V42.0496V57.019" stroke="#D6A443" stroke-miterlimit="10"/>
<path d="M27.507 60.1097H16.3567H7.54443" stroke="#D6A443" stroke-miterlimit="10"/>
<path d="M27.1018 65.3418H16.2735" stroke="#D6A443" stroke-miterlimit="10"/>
<path d="M20.8875 42.0496C22.6093 42.0496 24.005 40.7482 24.005 39.1429C24.005 37.5376 22.6093 36.2362 20.8875 36.2362C19.1657 36.2362 17.77 37.5376 17.77 39.1429C17.77 40.7482 19.1657 42.0496 20.8875 42.0496Z" stroke="#D6A443" stroke-miterlimit="10"/>
<path d="M53.0705 48.0955H53.0605" stroke="#D6A443" stroke-miterlimit="10"/>
<path d="M16.2735 60.197C16.2735 60.197 16.2943 60.1679 16.3567 60.1098C16.9698 59.4316 21.4902 54.7421 31.6222 51.4188" stroke="#D6A443" stroke-miterlimit="10"/>
<path d="M53.0705 48.0955H53.0605" stroke="#D6A443" stroke-miterlimit="10"/>
<path d="M72.1398 42.0496C68.035 42.9409 64.3251 43.968 60.9894 45.0725" stroke="#D6A443" stroke-miterlimit="10"/>
<path d="M1.04956 13.0022L7.78343 18.8059" stroke="#D6A443" stroke-miterlimit="10"/>
<path d="M72.1397 18.6025L78.9048 13.041" stroke="#D6A443" stroke-miterlimit="10"/>
<path d="M1.03918 87.3065L7.54444 80.4564" stroke="#D6A443" stroke-miterlimit="10"/>
<path d="M63.0366 63.1714C62.3923 63.1714 61.8727 63.6558 61.8727 64.2565C61.8727 64.8573 62.3923 65.3417 63.0366 65.3417C63.6809 65.3417 64.2004 64.8573 64.2004 64.2565C64.2004 63.6558 63.6809 63.1714 63.0366 63.1714Z" stroke="#D6A443" stroke-miterlimit="10"/>
<path d="M85.1191 90.6201L69.6353 76.1836C72.1605 72.6375 73.4907 68.5391 73.4907 64.2566C73.4907 52.3295 63.0781 42.6212 50.2858 42.6212C37.4935 42.6212 27.0706 52.3295 27.0706 64.2566C27.0706 76.1836 37.4832 85.8919 50.2754 85.8919C54.8686 85.8919 59.2643 84.6517 63.0677 82.2973L67.3491 86.2892L78.5619 96.7435C79.4348 97.5574 80.609 98.0128 81.8457 98.0128C83.0823 98.0128 84.2462 97.5671 85.1295 96.7435C86.0024 95.9296 86.4908 94.8445 86.4908 93.6818C86.4908 92.5191 86.0024 91.4437 85.1191 90.6201ZM62.5273 80.0204C58.9422 82.4427 54.7127 83.7313 50.2858 83.7313C38.7717 83.7313 29.3983 74.9919 29.3983 64.2566C29.3983 53.5213 38.7717 44.7818 50.2858 44.7818C61.7999 44.7818 71.1733 53.5213 71.1733 64.2566C71.1733 68.3841 69.8016 72.3371 67.1933 75.6701C65.8839 77.3463 64.3147 78.8093 62.5273 80.0204Z" fill="white" stroke="#D6A443" stroke-miterlimit="10"/>
<path d="M63.2755 59.6156C62.2779 57.1934 60.5321 55.1199 58.2459 53.6182C55.8974 52.0873 53.1436 51.2734 50.2754 51.2734C49.6311 51.2734 49.1115 51.7579 49.1115 52.3586C49.1115 52.9593 49.6311 53.4438 50.2754 53.4438C55.0453 53.4438 59.3994 56.2342 61.1141 60.3907C61.2907 60.817 61.7272 61.0883 62.1948 61.0883C62.3299 61.0883 62.4754 61.0689 62.6105 61.0205C63.2132 60.7977 63.5146 60.1679 63.2755 59.6156Z" stroke="#D6A443" stroke-miterlimit="10"/>
<path d="M66.1852 85.2137L72.8672 79.2065" stroke="#D6A443" stroke-miterlimit="10"/>
</svg>
