<svg width="80" height="100" viewBox="0 0 80 100" fill="none" xmlns="http://www.w3.org/2000/svg">
<g clip-path="url(#clip0)">
<path d="M79.6424 7.51294H0.357422V73.3892H79.6424V7.51294Z" stroke="#D6A443" stroke-miterlimit="10"/>
<path d="M0 66.8945L79.285 66.5852" stroke="#D6A443" stroke-miterlimit="10"/>
<path d="M28.988 7.51299V2.01041C28.988 1.08257 29.8318 0.322266 30.8615 0.322266H48.8736C49.9033 0.322266 50.7471 1.08257 50.7471 2.01041V7.66763" stroke="#D6A443" stroke-miterlimit="10"/>
<path d="M40.6049 99.6781H38.4312C37.094 99.6781 36 98.6922 36 97.4873V73.3894H43.0361V97.4873C43.0361 98.6922 41.9421 99.6781 40.6049 99.6781Z" stroke="#D6A443" stroke-miterlimit="10"/>
<path d="M20.5598 98.8855L18.5362 98.1639C17.292 97.7193 16.677 96.4435 17.1704 95.3224L26.7736 73.3894H34.6177L23.7203 97.6484C23.2269 98.7695 21.804 99.3237 20.5598 98.8855Z" stroke="#D6A443" stroke-miterlimit="10"/>
<path d="M58.9078 98.8855L60.9314 98.1639C62.1755 97.7193 62.7905 96.4435 62.2971 95.3224L52.7011 73.3894H45L55.7615 97.6484C56.2478 98.7695 57.6636 99.3237 58.9078 98.8855Z" stroke="#D6A443" stroke-miterlimit="10"/>
<path d="M34.916 21.3533C35.1663 21.3211 35.4237 21.3146 35.6811 21.3275C37.5975 21.437 45.0769 22.4035 42.7101 30.8249C42.7101 30.8249 41.4945 35.9023 36.5106 37.5711C35.724 37.8352 34.8374 37.7257 34.1581 37.2747C32.8066 36.3726 30.6758 35.6381 28.9882 30.8249C28.9882 30.8249 26.8073 22.468 34.916 21.3533Z" stroke="#D6A443" stroke-miterlimit="10"/>
<path d="M16.7678 59.7038C16.7678 59.7038 19.4064 51.0053 30.8615 44.5105C30.8615 44.5105 34.9373 41.9332 34.3796 37.4229" stroke="#D6A443" stroke-miterlimit="10"/>
<path d="M23.8826 49.5748C23.8826 49.5748 32.1486 58.312 40.6434 52.0491C40.6434 52.0491 43.5107 50.0774 43.5107 45.6702L43.1604 27.3455" stroke="#D6A443" stroke-miterlimit="10"/>
<path d="M23.8828 49.5749C23.8828 49.5749 22.8817 48.3378 26.6143 44.2785C26.6143 44.2785 27.6725 43.0672 26.3139 40.6509C25.5703 39.3301 25.1556 37.8803 25.2128 36.3984C25.3558 32.687 27.4795 28.6793 28.9668 24.562" stroke="#D6A443" stroke-miterlimit="10"/>
<path d="M29.0239 25.1806C29.0239 25.1806 27.744 15.9087 37.0969 14.852C37.3829 14.8198 37.6689 14.8069 37.9549 14.8069C40.1216 14.8327 48.2946 15.5221 48.6307 24.6716C49.0168 35.2257 49.6603 40.4448 49.6603 40.4448C49.6603 40.4448 49.6603 43.6857 54.8373 45.7992C55.5095 46.0698 56.1101 46.4564 56.6178 46.9396C58.6986 48.9113 62.8173 54.4138 62.5241 59.6973" stroke="#D6A443" stroke-miterlimit="10"/>
<path d="M39.864 60.5156C39.864 60.5156 45.2841 47.1393 54.7442 45.7668" stroke="#D6A443" stroke-miterlimit="10"/>
</g>
<defs>
<clipPath id="clip0">
<rect width="80" height="100" fill="white"/>
</clipPath>
</defs>
</svg>
