<svg width="86" height="100" viewBox="0 0 86 100" fill="none" xmlns="http://www.w3.org/2000/svg">
<path d="M43.458 6.61392C45.1604 6.61392 46.5406 5.25631 46.5406 3.58162C46.5406 1.90692 45.1604 0.549316 43.458 0.549316C41.7555 0.549316 40.3754 1.90692 40.3754 3.58162C40.3754 5.25631 41.7555 6.61392 43.458 6.61392Z" stroke="#D6A443" stroke-miterlimit="10"/>
<path d="M40.7774 2.09839L34.8132 13.7332" stroke="#D6A443" stroke-miterlimit="10"/>
<path d="M46.1384 2.09839L50.8293 13.7332" stroke="#D6A443" stroke-miterlimit="10"/>
<path d="M85.4416 96.649V16.0623C85.4416 14.9527 84.5369 14.0627 83.4089 14.0627H2.5912C1.46315 14.0627 0.558472 14.9527 0.558472 16.0623V97.451C0.558472 97.9894 0.770679 98.4728 1.11691 98.8243C1.48548 99.2089 2.01042 99.4506 2.5912 99.4506H74.1834H82.5935C84.1683 99.4506 85.4416 98.1871 85.4416 96.649Z" stroke="#D6A443" stroke-miterlimit="10"/>
<path d="M77.5341 80.9053V88.8596C77.5341 90.0681 76.5289 91.0569 75.3003 91.0569H37.5273H8.10864V67.985V20.9185H77.5341V47.506V64.4803V80.9053Z" stroke="#D6A443" stroke-miterlimit="10"/>
<path d="M8.10864 67.9849H17.5798H29.564H77.5341" stroke="#D6A443" stroke-miterlimit="10"/>
<path d="M17.4905 73.9177H29.1284H77.5341" stroke="#D6A443" stroke-miterlimit="10"/>
<path d="M22.4494 47.506C24.2999 47.506 25.8001 46.0304 25.8001 44.21C25.8001 42.3897 24.2999 40.9141 22.4494 40.9141C20.5989 40.9141 19.0988 42.3897 19.0988 44.21C19.0988 46.0304 20.5989 47.506 22.4494 47.506Z" stroke="#D6A443" stroke-miterlimit="10"/>
<path d="M57.0392 54.3616H57.0281" stroke="#D6A443" stroke-miterlimit="10"/>
<path d="M17.4905 68.0837C17.4905 68.0837 17.5128 68.0508 17.5798 67.9849C18.2388 67.2158 23.0972 61.8983 33.9868 58.1299C33.9868 58.1299 46.0604 54.3615 55.6097 54.768" stroke="#D6A443" stroke-miterlimit="10"/>
<path d="M57.0392 54.3616H57.0281" stroke="#D6A443" stroke-miterlimit="10"/>
<path d="M77.534 47.5059C73.1224 48.5166 69.1351 49.6812 65.5499 50.9337C65.5499 50.9337 48.5733 54.8998 40.1296 68.0838" stroke="#D6A443" stroke-miterlimit="10"/>
<path d="M1.12805 14.5681L8.36545 21.1491" stroke="#D6A443" stroke-miterlimit="10"/>
<path d="M77.5341 20.9184L84.805 14.6121" stroke="#D6A443" stroke-miterlimit="10"/>
<path d="M1.11694 98.8244L8.10863 91.0569" stroke="#D6A443" stroke-miterlimit="10"/>
<path d="M51.1198 79.0925H77.534" stroke="#D6A443" stroke-miterlimit="10"/>
<path d="M76.8973 90.3867L84.8049 98.7805" stroke="#D6A443" stroke-miterlimit="10"/>
</svg>
