<svg width="88" height="100" viewBox="0 0 88 100" fill="none" xmlns="http://www.w3.org/2000/svg">
<path d="M48.5052 2.45146C48.706 2.42055 48.9068 2.38963 49.1075 2.35872C54.9396 1.5189 60.9103 2.68847 65.9776 5.89318C71.2073 9.19578 75.3854 14.4872 69.8162 22.128C69.8162 22.128 53.7206 18.7996 47.6543 18.2741" stroke="#D6A443" stroke-miterlimit="10"/>
<path d="M41.9084 3.58984C22.7533 7.42826 16.5675 13.6934 14.6266 17.8718C13.5367 20.2058 14.5454 23.0498 16.7922 24.0545C25.177 27.826 38.5096 22.7922 47.6545 18.2789C48.2855 17.9646 48.8974 17.6554 49.4901 17.3515C54.3853 14.8269 57.6885 12.6835 57.6885 12.6835" stroke="#D6A443" stroke-miterlimit="10"/>
<path d="M22.3089 25.327L22.2898 30.3865C22.2898 31.0048 22.8061 31.4685 23.3702 31.3552C28.2749 30.3556 48.9883 26.6717 67.7418 31.417C68.4541 31.5973 69.1473 31.0615 69.2094 30.2783L69.8213 22.1326" stroke="#D6A443" stroke-miterlimit="10"/>
<path d="M67.7513 36.3478L68.0342 31.4944" stroke="#D6A443" stroke-miterlimit="10"/>
<path d="M24.9811 46.9304C24.9811 46.9304 25.7794 61.2021 43.1323 65.1023C44.9919 65.5196 46.9088 65.5506 48.7827 65.2105C54.1224 64.2419 64.3812 60.6096 65.6097 46.9768" stroke="#D6A443" stroke-miterlimit="10"/>
<path d="M23.2063 31.3918L23.1643 36.4254" stroke="#D6A443" stroke-miterlimit="10"/>
<path d="M17.2318 99.0815L34.2118 99.1484L75.6723 99.3129C75.7201 99.3129 75.744 99.3129 75.744 99.3129" stroke="#D6A443" stroke-miterlimit="10"/>
<path d="M52.827 64.1235C52.3394 66.9212 55.093 67.3952 55.093 67.3952C63.7455 70.3938 68.8079 77.4215 71.7622 84.1297V84.1348" stroke="#D6A443" stroke-miterlimit="10"/>
<path d="M72.9609 87.1708C72.9469 87.1242 72.9282 87.0776 72.9142 87.031" stroke="#D6A443" stroke-miterlimit="10"/>
<path d="M38.0794 63.5107C38.0794 63.5107 38.2276 66.2723 35.9282 67.2513C35.9282 67.2513 26.5442 70.1829 21.0898 82.5225C21.0659 82.5843 21.0372 82.641 21.0133 82.6977" stroke="#D6A443" stroke-miterlimit="10"/>
<path d="M7.59475 99.046C7.59475 99.046 -4.46621 81.6521 4.03335 77.8806C5.20455 77.3603 6.49525 77.2572 7.7525 77.453C12.4038 78.1795 27.0032 81.8015 34.212 99.1542L7.59475 99.046Z" stroke="#D6A443" stroke-miterlimit="10"/>
<path d="M61.0822 93.1155L61.0588 99.2981" stroke="#D6A443" stroke-miterlimit="10"/>
<path d="M74.9839 82.3886C72.0201 82.0692 71.3843 84.0786 71.934 86.057C72.087 86.5929 72.5172 86.8762 72.914 87.0308C73.1148 87.1029 73.3108 87.1442 73.4542 87.1648C73.2821 87.1493 73.1195 87.1493 72.9618 87.1699C70.8871 87.309 70.1939 90.05 70.4664 91.3845C70.758 92.8116 72.1874 93.1259 72.1874 93.1259C70.1079 92.3582 69.453 94.2594 69.453 94.2594C67.885 99.4477 75.744 99.3241 75.744 99.3241C82.0637 99.829 82.8907 89.71 82.8907 89.71C83.0436 85.6552 80.7347 83.8725 78.899 83.0945" stroke="#D6A443" stroke-miterlimit="10" stroke-linejoin="round"/>
<path d="M74.9841 82.3881C75.4909 82.383 76.0693 82.4242 76.7242 82.5015C76.7242 82.5015 77.7138 82.5839 78.9041 83.0837" stroke="#D6A443" stroke-miterlimit="10"/>
<path d="M83.8087 62.4184L78.8992 83.084C77.7089 82.5843 76.7193 82.5018 76.7193 82.5018C76.0644 82.4194 75.486 82.3833 74.9792 82.3885L77.7089 61.9805L83.8087 62.4184Z" stroke="#D6A443" stroke-miterlimit="10"/>
<path d="M83.694 46.5648C85.501 48.5072 90.0711 54.7053 83.8039 62.4183L77.7089 61.9803C77.7089 61.9803 73.593 57.8431 76.8963 53.4018C77.489 52.6084 78.2491 51.9849 79.0761 51.48C80.0274 50.8978 81.7292 49.5325 82.7666 46.7709C82.9196 46.3638 83.4072 46.2556 83.694 46.5648Z" stroke="#D6A443" stroke-miterlimit="10"/>
<path d="M48.7731 3.37713C48.7776 2.07961 47.2403 1.02155 45.3394 1.01388C43.4385 1.00621 41.8939 2.05184 41.8894 3.34936C41.8849 4.64688 43.4222 5.70495 45.3231 5.71262C47.224 5.72028 48.7686 4.67465 48.7731 3.37713Z" stroke="#D6A443" stroke-miterlimit="10"/>
<path d="M25.2295 46.9308C22.4712 46.9205 19.1106 44.4989 19.1201 41.5261C19.1297 38.5532 21.3717 36.1575 24.13 36.1678" stroke="#D6A443" stroke-miterlimit="10"/>
<path d="M66.5754 36.3425C69.3337 36.3528 71.5566 38.7692 71.5471 41.7421C71.5375 44.715 68.1195 47.1056 65.3612 47.0953" stroke="#D6A443" stroke-miterlimit="10"/>
<path d="M52.1384 53.0261C52.1241 56.6429 49.3514 59.6106 45.9956 59.5951C42.6397 59.5797 39.8862 56.5914 39.9006 52.9746C39.9006 52.9437 39.9006 52.9127 39.9006 52.8818" stroke="#D6A443" stroke-miterlimit="10"/>
<path d="M9.99451 84.7583C10.3961 85.052 10.7451 85.4126 11.0128 85.7785C12.1505 87.3499 12.2127 89.3387 11.1562 90.23C10.8454 90.4928 10.4726 90.6267 10.071 90.6525" stroke="#D6A443" stroke-miterlimit="10"/>
<path d="M8.38837 90.1531C7.95336 89.8749 7.53268 89.4833 7.17893 88.9938C6.04119 87.4224 5.97905 85.4337 7.03552 84.5423C7.44663 84.1971 7.90077 84.0735 8.36447 84.0992" stroke="#D6A443" stroke-miterlimit="10"/>
<path d="M20.8222 88.7822C20.9942 88.9523 21.1568 89.1429 21.305 89.349C22.3949 90.8535 22.457 92.7701 21.4388 93.6202C20.7074 94.2385 19.6127 94.1303 18.6519 93.4554" stroke="#D6A443" stroke-miterlimit="10"/>
<path d="M17.0456 91.3584C16.5676 90.1116 16.711 88.8236 17.4949 88.1641C17.82 87.891 18.2168 87.7571 18.6422 87.7571" stroke="#D6A443" stroke-miterlimit="10"/>
<path d="M47.884 79.4056C47.8553 79.5963 47.8266 79.7045 47.8266 79.7045H47.8218C47.5589 79.8281 47.2912 79.9312 47.0283 80.0187H47.0235C43.2852 81.2347 39.4227 79.1738 37.6157 77.9372C36.2724 77.0201 35.2159 75.6548 34.7522 74.0112C33.3754 69.1733 37.6061 65.9583 37.6061 65.9583C35.9425 72.9653 41.0671 73.9803 43.1418 74.1091C44.0549 74.1658 44.9584 74.4234 45.728 74.9592C45.8284 75.0314 45.924 75.0983 46.0148 75.1756" stroke="#D6A443" stroke-miterlimit="10"/>
<path d="M50.2837 72.2902H50.2789C50.2024 72.2438 50.1594 72.2181 50.1594 72.2181C53.7734 70.4715 53.4197 66.4888 53.4197 66.4888C57.4974 69.879 55.2314 74.4748 53.9551 76.4223V76.4275" stroke="#D6A443" stroke-miterlimit="10" stroke-linejoin="round"/>
<path d="M53.2236 75.5212C53.2236 75.5155 53.2236 75.5155 53.2236 75.5098" stroke="#D6A443" stroke-miterlimit="10" stroke-linejoin="round"/>
<path d="M47.4395 79.9618C46.4739 81.5332 44.098 86.4434 49.0553 90.6476C49.0553 90.6476 53.1473 85.9384 51.5506 80.137C51.5124 79.9876 51.4694 79.8381 51.4216 79.6887" stroke="#D6A443" stroke-miterlimit="10"/>
<path d="M51.4407 79.6887C51.5506 79.8381 51.6701 80.1009 51.7944 80.24C55.3988 84.4391 60.8389 83.8156 60.8389 83.8156C59.9115 77.6433 55.7813 77.0869 53.9552 76.4274V76.4222C53.6922 76.3295 53.4962 76.2677 53.3863 76.2316C53.3194 76.211 53.2811 76.2007 53.2811 76.2007" stroke="#D6A443" stroke-miterlimit="10"/>
<path d="M47.8839 79.4054C47.9843 78.6738 48.0273 76.7366 46.0148 75.1754C46.4354 73.47 47.8743 72.218 49.5857 72.218C49.8248 72.218 50.0542 72.2438 50.2789 72.2901H50.2837C51.7847 72.5993 52.9607 73.8874 53.2236 75.5103C53.2236 75.5155 53.2236 75.5155 53.2236 75.5206C53.2619 75.7422 53.281 75.9689 53.281 76.2007C53.281 77.7 52.5113 79.0087 51.3736 79.6888C51.3067 79.73 51.2398 79.7661 51.168 79.8022C50.69 80.0443 50.1546 80.1834 49.5857 80.1834C48.9499 80.1834 48.3476 80.0083 47.8265 79.7043H47.8218" stroke="#D6A443" stroke-miterlimit="10"/>
</svg>
