<?xml version="1.0" standalone="no"?>
<!DOCTYPE svg PUBLIC "-//W3C//DTD SVG 20010904//EN"
 "http://www.w3.org/TR/2001/REC-SVG-20010904/DTD/svg10.dtd">
<svg version="1.0" xmlns="http://www.w3.org/2000/svg"
 width="388.000000pt" height="388.000000pt" viewBox="0 0 388.000000 388.000000"
 preserveAspectRatio="xMidYMid meet">
<metadata>
Created by potrace 1.11, written by Peter Selinger 2001-2013
</metadata>
<g transform="translate(0.000000,388.000000) scale(0.100000,-0.100000)"
fill="#000000" stroke="none">
<path d="M3026 3863 c-1 -2 -43 -5 -92 -8 -150 -9 -208 -15 -244 -27 -42 -15
-34 -13 -95 -23 -27 -4 -69 -16 -93 -26 -24 -11 -52 -19 -62 -19 -37 0 -200
-80 -304 -149 -81 -53 -226 -187 -226 -207 0 -8 -4 -14 -9 -14 -9 0 -41 -48
-71 -105 -9 -16 -23 -43 -32 -60 -33 -64 -57 -124 -63 -161 -4 -22 -14 -64
-23 -94 -12 -41 -16 -101 -16 -235 -1 -199 4 -251 30 -310 19 -42 21 -48 23
-67 1 -9 4 -8 10 2 5 8 12 62 15 120 9 134 13 150 38 150 19 0 59 -17 68 -30
3 -4 34 -23 70 -44 36 -20 94 -55 129 -76 34 -22 67 -40 72 -40 4 0 13 -19 19
-42 6 -24 13 -50 16 -59 8 -28 67 -63 107 -63 52 -1 109 55 109 107 0 92 -59
132 -165 112 -31 -6 -44 -3 -75 18 -33 23 -120 76 -251 156 -81 49 -92 60 -85
89 4 15 15 46 25 69 11 23 19 46 19 50 0 4 16 37 35 73 19 36 41 79 49 96 8
17 22 36 30 44 9 7 16 18 16 26 0 7 6 17 13 21 8 4 22 20 32 36 20 32 52 35
86 9 22 -16 108 -69 134 -82 6 -3 35 -21 65 -41 30 -20 111 -70 180 -112 69
-42 130 -80 136 -86 6 -5 15 -27 19 -48 4 -22 20 -52 38 -70 25 -27 39 -33 73
-33 104 0 151 120 77 195 -27 26 -31 27 -96 21 -67 -6 -69 -6 -139 36 -39 24
-82 51 -97 60 -14 10 -43 28 -65 40 -47 28 -49 29 -159 98 -48 30 -97 60 -108
66 -33 19 -41 31 -35 52 7 22 142 126 178 138 13 3 34 15 47 25 13 11 31 19
40 19 9 0 27 7 39 16 12 8 50 21 84 29 35 7 92 20 127 29 48 11 107 14 232 12
l167 -3 69 55 c96 77 151 122 192 158 20 17 51 41 69 53 23 16 30 27 23 34 -8
8 -110 21 -148 18 -19 -1 -29 -1 -141 2 -56 2 -104 2 -106 0z"/>
<path d="M2558 3341 c-60 -52 -57 -129 7 -179 21 -17 35 -19 73 -15 78 10 89
7 160 -38 95 -61 103 -66 142 -89 19 -11 55 -34 80 -49 25 -16 79 -49 120 -74
122 -73 116 -67 96 -118 -30 -75 -176 -239 -289 -323 -50 -39 -71 -33 -220 60
-67 41 -131 81 -142 87 -11 7 -33 21 -50 32 -16 12 -60 39 -97 60 -67 40 -88
66 -88 109 0 12 -14 35 -30 51 -26 25 -39 29 -82 29 -44 0 -54 -4 -79 -32 -23
-26 -29 -42 -29 -80 0 -41 5 -53 31 -78 28 -27 35 -29 112 -29 80 0 84 -1 145
-42 35 -24 65 -43 68 -43 3 0 35 -19 72 -43 111 -72 126 -81 162 -99 62 -32
85 -54 73 -70 -17 -19 -179 -98 -202 -98 -7 0 -25 -7 -41 -15 -16 -8 -55 -22
-87 -31 -161 -46 -244 -67 -308 -80 -38 -8 -90 -21 -115 -29 -25 -8 -70 -19
-100 -24 -30 -5 -82 -16 -115 -24 -33 -9 -74 -18 -90 -20 -17 -3 -53 -12 -80
-21 -28 -8 -84 -25 -125 -37 -41 -11 -97 -30 -125 -41 -27 -11 -63 -23 -80
-28 -28 -7 -99 -39 -135 -61 -8 -5 -33 -18 -55 -29 -22 -11 -52 -28 -66 -38
-14 -9 -44 -29 -67 -44 -56 -38 -161 -137 -197 -188 -16 -23 -42 -57 -57 -75
-16 -18 -28 -40 -28 -48 0 -9 -4 -19 -10 -22 -10 -6 -70 -127 -70 -141 0 -4
-9 -26 -19 -48 -19 -40 -47 -138 -58 -202 -5 -33 5 -46 41 -51 10 -2 38 -17
63 -33 24 -17 46 -30 49 -30 2 0 37 -21 77 -47 65 -42 105 -67 162 -100 149
-87 185 -118 185 -156 0 -20 27 -66 50 -84 22 -18 101 -16 128 3 53 37 66 107
30 161 -25 36 -83 59 -121 47 -38 -12 -76 -6 -109 18 -18 13 -44 29 -58 37
-50 28 -76 43 -117 69 -23 15 -90 56 -149 92 -140 84 -164 104 -156 133 18 72
166 244 283 329 59 43 89 41 172 -13 73 -48 94 -61 272 -169 129 -78 155 -100
155 -133 0 -28 39 -83 68 -96 55 -26 123 -4 147 45 25 53 25 67 1 110 -30 54
-57 65 -136 58 -56 -5 -69 -3 -92 15 -14 12 -29 21 -33 21 -3 0 -25 12 -48 28
-23 15 -51 32 -62 39 -155 93 -285 179 -285 188 0 6 28 24 63 40 34 15 78 36
98 46 20 11 44 19 53 19 8 0 35 9 58 19 51 23 171 61 213 68 17 3 68 16 114
29 46 13 92 24 103 24 11 0 50 8 86 19 37 10 92 24 122 30 170 36 163 34 375
96 44 13 91 27 105 31 14 4 34 13 45 20 11 8 26 14 35 14 23 0 215 99 295 151
159 105 336 324 385 476 7 21 16 43 21 49 5 5 15 35 23 65 7 30 21 77 30 103
20 58 14 84 -22 97 -29 11 -137 75 -237 139 -33 22 -73 46 -90 55 -16 8 -68
39 -115 68 -77 48 -86 58 -95 94 -16 64 -55 104 -108 110 -38 5 -48 1 -79 -26z"/>
<path d="M1477 2372 c-28 -14 -69 -33 -90 -43 -22 -11 -42 -19 -47 -19 -11 0
-162 -84 -249 -139 -77 -48 -261 -221 -261 -245 0 -4 -14 -25 -31 -46 -17 -21
-28 -43 -24 -49 3 -6 -1 -11 -9 -11 -15 0 -17 -4 -20 -37 -1 -7 -9 -22 -19
-33 -9 -11 -14 -20 -10 -20 4 0 0 -6 -9 -12 -8 -7 -18 -23 -21 -34 -7 -33 18
-24 51 19 17 20 40 46 53 57 13 10 21 19 16 20 -9 0 69 78 104 103 43 31 123
82 152 96 15 8 27 18 27 22 0 4 14 11 32 14 17 4 45 16 62 26 17 10 37 19 44
19 8 0 28 7 45 14 48 22 143 54 227 76 77 21 115 48 106 79 -3 9 -8 43 -12 76
-6 62 -23 92 -49 92 -9 0 -39 -12 -68 -25z"/>
<path d="M3193 2253 c-10 -26 -68 -95 -149 -177 -91 -91 -118 -113 -219 -174
-53 -31 -164 -82 -181 -82 -11 0 -30 -7 -42 -16 -12 -8 -43 -21 -69 -28 -27
-8 -61 -19 -78 -24 -16 -6 -63 -21 -104 -34 -40 -12 -76 -29 -79 -36 -3 -8 0
-36 7 -63 16 -61 19 -79 20 -106 1 -35 36 -38 99 -8 137 64 281 137 327 165
28 17 57 33 65 37 66 28 288 256 294 303 0 3 11 14 24 25 13 11 24 30 25 43 1
12 5 22 10 22 4 0 6 4 3 9 -3 5 1 11 8 14 8 3 21 25 28 49 7 24 18 49 25 56
16 16 17 42 3 42 -6 0 -14 -8 -17 -17z"/>
<path d="M655 1609 c-4 -6 -5 -12 -2 -15 2 -3 7 2 10 11 7 17 1 20 -8 4z"/>
<path d="M1559 1602 c-9 -4 -30 -19 -47 -34 -64 -53 -45 -151 34 -184 30 -13
44 -13 83 -3 47 12 48 12 117 -33 38 -25 122 -78 188 -118 l118 -73 -5 -36
c-2 -20 -14 -56 -25 -81 -11 -25 -23 -56 -27 -69 -12 -40 -105 -195 -146 -244
-23 -26 -47 -47 -56 -47 -8 0 -60 28 -115 63 -55 34 -115 71 -134 82 -307 182
-333 203 -334 261 0 12 -16 36 -35 53 -50 44 -111 44 -154 0 -26 -26 -31 -38
-31 -81 0 -43 4 -54 32 -80 32 -30 35 -30 103 -25 62 6 74 4 105 -17 49 -32
91 -59 115 -72 28 -16 228 -141 241 -151 14 -11 72 -43 112 -62 36 -17 41 -38
13 -67 -95 -97 -215 -160 -416 -219 -90 -27 -95 -27 -300 -29 l-190 -1 -161
-132 c-194 -159 -193 -158 -162 -174 26 -14 371 -19 473 -7 33 4 98 10 145 14
47 3 101 12 120 20 19 7 52 15 73 18 33 5 110 30 244 80 46 17 150 71 173 90
8 7 22 15 30 19 46 17 179 146 280 274 18 22 110 212 110 226 0 8 9 39 19 70
26 76 35 162 34 349 -1 173 -8 253 -24 295 l-11 28 -15 -29 c-16 -31 -16 -31
-27 -91 -17 -103 -28 -145 -37 -145 -5 0 -42 20 -82 45 -39 25 -117 74 -172
108 -94 59 -100 65 -113 109 -21 76 -88 123 -143 100z"/>
</g>
</svg>
