<svg width="31" height="31" viewBox="0 0 31 31" fill="none" xmlns="http://www.w3.org/2000/svg">
<path d="M28.7642 0H2.23575C1.0009 0 0 1.0009 0 2.23575V28.7642C0 29.9991 1.0009 31 2.23575 31H28.7642C29.9991 31 31 29.9991 31 28.7642V2.23575C31 1.0009 29.9991 0 28.7642 0V0ZM23.265 11.8647V13.9604C22.2767 13.9608 21.3165 13.7671 20.411 13.385C19.8287 13.1392 19.2862 12.8224 18.79 12.4397L18.8049 18.8905C18.7987 20.3431 18.224 21.7079 17.1839 22.7358C16.3375 23.5726 15.2649 24.1047 14.1024 24.2769C13.8292 24.3174 13.5512 24.3381 13.2701 24.3381C12.0257 24.3381 10.8442 23.935 9.87774 23.1912C9.69586 23.0512 9.52197 22.8994 9.35631 22.7358C8.22911 21.6218 7.64786 20.1117 7.7457 18.5233C7.82042 17.3141 8.30449 16.1609 9.11152 15.2571C10.1793 14.061 11.673 13.3971 13.2701 13.3971C13.5512 13.3971 13.8292 13.4182 14.1024 13.4587V14.2336V16.3891C13.8434 16.3037 13.5668 16.2567 13.2788 16.2567C11.8196 16.2567 10.6391 17.4472 10.6609 18.9074C10.6747 19.8417 11.1851 20.6584 11.9378 21.1086C12.2916 21.3202 12.6986 21.4512 13.1329 21.4751C13.4731 21.4937 13.7998 21.4464 14.1024 21.3465C15.1449 21.0021 15.8969 20.0229 15.8969 18.868L15.9004 14.5482V6.66185H18.7865C18.7893 6.94781 18.8183 7.22687 18.8723 7.49722C19.0901 8.5916 19.707 9.5411 20.5655 10.1884C21.3141 10.7531 22.2463 11.0878 23.2567 11.0878C23.2574 11.0878 23.2657 11.0878 23.265 11.0871V11.8647H23.265Z" fill="#404040"/>
</svg>
