<svg width="37" height="37" viewBox="0 0 37 37" fill="none" xmlns="http://www.w3.org/2000/svg">
<path d="M18.2932 0.993408H18.2842C8.34565 0.993408 0.263672 9.06641 0.263672 18.9934C0.263672 22.9309 1.53444 26.5804 3.69519 29.5437L1.44882 36.2307L8.37719 34.0189C11.2274 35.9044 14.6274 36.9934 18.2932 36.9934C28.2318 36.9934 36.3138 28.9182 36.3138 18.9934C36.3138 9.06866 28.2318 0.993408 18.2932 0.993408ZM28.7815 26.4117C28.3467 27.6379 26.6208 28.6549 25.2441 28.9519C24.3023 29.1522 23.0721 29.3119 18.9309 27.5974C13.6337 25.4059 10.2225 20.0307 9.95664 19.6819C9.70203 19.3332 7.81616 16.8357 7.81616 14.2527C7.81616 11.6697 9.12974 10.4119 9.65922 9.87191C10.0941 9.42866 10.8128 9.22616 11.5023 9.22616C11.7253 9.22616 11.9259 9.23741 12.1061 9.24641C12.6356 9.26891 12.9015 9.30041 13.2507 10.1352C13.6856 11.1814 14.7445 13.7644 14.8707 14.0299C14.9991 14.2954 15.1276 14.6554 14.9473 15.0042C14.7783 15.3642 14.6296 15.5239 14.3638 15.8299C14.0979 16.1359 13.8455 16.3699 13.5797 16.6984C13.3363 16.9842 13.0615 17.2902 13.3679 17.8189C13.6743 18.3364 14.7333 20.0622 16.2924 21.4482C18.3045 23.2369 19.9357 23.8084 20.5193 24.0514C20.9542 24.2314 21.4724 24.1887 21.7901 23.8512C22.1934 23.4169 22.6913 22.6969 23.1983 21.9882C23.5588 21.4797 24.0139 21.4167 24.4916 21.5967C24.9783 21.7654 27.5536 23.0367 28.0831 23.2999C28.6126 23.5654 28.9618 23.6914 29.0902 23.9142C29.2164 24.1369 29.2164 25.1832 28.7815 26.4117Z" fill="#404040"/>
</svg>
