<svg width="40" height="31" viewBox="0 0 40 31" fill="none" xmlns="http://www.w3.org/2000/svg">
<path d="M39.1759 4.85076C38.7149 2.95396 37.3638 1.45874 35.6505 0.947992C32.5203 0 19.9995 0 19.9995 0C19.9995 0 7.47926 0 4.34913 0.912051C2.66871 1.42226 1.28467 2.95423 0.823732 4.85076C0 8.3152 0 15.5 0 15.5C0 15.5 0 22.721 0.823732 26.1492C1.28516 28.0458 2.63575 29.541 4.34937 30.0517C7.51222 31 20 31 20 31C20 31 32.5203 31 35.6505 30.0879C37.3641 29.5775 38.7149 28.0822 39.1763 26.1857C39.9998 22.721 39.9998 15.5365 39.9998 15.5365C39.9998 15.5365 40.0328 8.3152 39.1759 4.85076ZM16.0132 22.1376V8.86243L26.4249 15.5L16.0132 22.1376Z" fill="#404040"/>
</svg>
