<svg width="405" height="199" viewBox="0 0 405 199" fill="none" xmlns="http://www.w3.org/2000/svg">
<path fill-rule="evenodd" clip-rule="evenodd" d="M188.166 11.8706H155.618V62.9718L172.054 37.1672V25.6336H179.4L188.166 11.8706ZM172.054 85.0182V97.927H191.408C202.16 97.927 210.352 94.8014 215.984 88.55C221.719 82.1979 224.586 73.2747 224.586 61.7803C224.586 50.2859 221.719 41.4131 215.984 35.1618C213.675 32.5572 210.935 30.4865 207.765 28.9499L215.771 16.3801C220.587 18.4795 224.805 21.3119 228.426 24.8774C237.335 33.4477 241.79 45.7487 241.79 61.7803C241.79 77.8119 237.335 90.1633 228.426 98.8345C219.62 107.405 207.28 111.69 191.408 111.69H155.618V110.823L172.054 85.0182Z" fill="#7E9CEE"/>
<path d="M203.345 3.21976L210.636 3.21978L194.064 31.8348L186.773 31.8349L203.345 3.21976Z" fill="white"/>
<path fill-rule="evenodd" clip-rule="evenodd" d="M383.205 180.434L383.216 180.452V198.308H388.731V180.452L405 152.631H398.451L394.335 159.926L383.205 180.434ZM383.492 170.359L382.32 168.272L373.496 152.631H366.947L380.518 175.838L383.492 170.359ZM240.229 199C235.909 199 232.164 198.054 228.993 196.162C225.868 194.225 223.432 191.502 221.685 187.996C219.985 184.489 219.135 180.314 219.135 175.469C219.135 170.625 220.031 166.449 221.823 162.943C223.662 159.436 226.212 156.737 229.475 154.845C232.738 152.907 236.484 151.938 240.712 151.938C245.216 151.938 248.87 152.792 251.673 154.499C254.522 156.206 256.82 158.836 258.567 162.389L253.534 165.157C252.523 162.527 250.915 160.543 248.709 159.205C246.549 157.821 243.883 157.129 240.712 157.129C237.633 157.129 234.898 157.867 232.508 159.344C230.165 160.774 228.303 162.873 226.925 165.642C225.592 168.364 224.925 171.64 224.925 175.469C224.925 181.19 226.235 185.689 228.855 188.965C231.52 192.195 235.381 193.809 240.436 193.809C242.964 193.809 245.239 193.394 247.261 192.564C249.283 191.687 250.892 190.372 252.087 188.619C253.282 186.866 253.879 184.674 253.879 182.044V180.452H239.402V175.262H258.911V198.308H254.568L254.362 192.148C252.983 194.363 251.099 196.07 248.709 197.27C246.365 198.423 243.538 199 240.229 199ZM14.6837 152.631C21.8072 152.631 27.3911 154.615 31.4354 158.582C35.5257 162.504 37.5709 168.133 37.5709 175.469C37.5709 182.805 35.5257 188.457 31.4354 192.425C27.3911 196.347 21.8072 198.308 14.6837 198.308H0V152.631H14.6837ZM15.2352 193.117C20.4284 193.117 24.4728 191.572 27.3681 188.48C30.3095 185.343 31.7801 181.006 31.7801 175.469C31.7801 169.933 30.3095 165.619 27.3681 162.527C24.4728 159.39 20.4284 157.821 15.2352 157.821H5.51499V193.117H15.2352ZM92.7692 152.631C97.411 152.631 101.134 153.83 103.937 156.229C106.741 158.629 108.142 161.881 108.142 165.988C108.142 169.264 107.223 171.963 105.385 174.085C103.546 176.207 101.065 177.661 97.9395 178.445L110.9 198.308H104.351L91.942 179.345H85.3552V174.154H92.7003C99.1344 174.154 102.352 171.432 102.352 165.988C102.352 160.543 99.1344 157.821 92.7003 157.821H81.0499V173.02H81.0392V174.351V179.675H81.0499V198.308H75.5349V152.631H92.7692ZM182.046 181.283V152.631H176.531V179.899C176.531 184.651 175.52 188.157 173.498 190.418C171.521 192.679 168.419 193.809 164.191 193.809C159.963 193.809 156.838 192.679 154.816 190.418C152.839 188.157 151.851 184.651 151.851 179.899V152.631H146.336V181.283C146.336 187.142 147.876 191.572 150.955 194.571C154.08 197.524 158.492 199 164.191 199C169.936 199 174.348 197.524 177.427 194.571C180.506 191.572 182.046 187.142 182.046 181.283ZM327.134 154.845C324.009 152.907 320.286 151.938 315.966 151.938C311.646 151.938 307.901 152.907 304.73 154.845C301.604 156.737 299.169 159.436 297.422 162.943C295.722 166.449 294.871 170.625 294.871 175.469C294.871 180.314 295.722 184.489 297.422 187.996C299.169 191.502 301.604 194.225 304.73 196.162C307.901 198.054 311.646 199 315.966 199C320.286 199 324.009 198.054 327.134 196.162C330.305 194.225 332.741 191.502 334.442 187.996C336.188 184.489 337.061 180.314 337.061 175.469C337.061 170.625 336.188 166.449 334.442 162.943C332.741 159.436 330.305 156.737 327.134 154.845ZM304.73 161.974C307.487 158.744 311.233 157.129 315.966 157.129C320.7 157.129 324.423 158.744 327.134 161.974C329.892 165.203 331.27 169.702 331.27 175.469C331.27 181.19 329.892 185.689 327.134 188.965C324.423 192.195 320.7 193.809 315.966 193.809C311.233 193.809 307.487 192.195 304.73 188.965C302.018 185.689 300.662 181.19 300.662 175.469C300.662 169.702 302.018 165.203 304.73 161.974Z" fill="white"/>
</svg>
