<svg width="225" height="111" viewBox="0 0 225 111" fill="none" xmlns="http://www.w3.org/2000/svg">
<path fill-rule="evenodd" clip-rule="evenodd" d="M104.537 6.62109H86.4551V35.1249L95.586 20.7313V14.2979H99.6671L104.537 6.62109ZM95.586 47.4221V54.6224H106.338C112.312 54.6224 116.863 52.8789 119.992 49.392C123.178 45.8489 124.771 40.8716 124.771 34.4602C124.771 28.0487 123.178 23.0996 119.992 19.6127C118.709 18.1598 117.187 17.0049 115.426 16.1478L119.873 9.13645C122.549 10.3075 124.892 11.8874 126.904 13.8761C131.854 18.6566 134.328 25.5179 134.328 34.4602C134.328 43.4024 131.854 50.2919 126.904 55.1286C122.011 59.909 115.156 62.2992 106.338 62.2992H86.4551V61.8157L95.586 47.4221Z" fill="#7E9CEE"/>
<path d="M112.969 1.79595L117.02 1.79596L107.813 17.7571L103.763 17.7571L112.969 1.79595Z" fill="white"/>
<path fill-rule="evenodd" clip-rule="evenodd" d="M212.892 100.644L212.898 100.655V110.614H215.962V100.655L225 85.136H221.362L219.074 89.2066L212.892 100.644ZM213.051 95.0245L212.4 93.8604L207.498 85.136H203.859L211.399 98.081L213.051 95.0245ZM133.461 111C131.061 111 128.98 110.473 127.218 109.418C125.482 108.337 124.129 106.818 123.159 104.862C122.214 102.907 121.741 100.577 121.741 97.8752C121.741 95.173 122.239 92.8439 123.235 90.888C124.256 88.932 125.673 87.4265 127.486 86.3713C129.299 85.2904 131.38 84.75 133.729 84.75C136.231 84.75 138.261 85.2261 139.818 86.1783C141.401 87.1306 142.678 88.5975 143.648 90.5791L140.852 92.1233C140.291 90.6563 139.397 89.5497 138.172 88.8034C136.972 88.0313 135.491 87.6453 133.729 87.6453C132.018 87.6453 130.499 88.057 129.171 88.8806C127.869 89.6784 126.835 90.8494 126.069 92.3935C125.329 93.9119 124.959 95.7391 124.959 97.8752C124.959 101.066 125.686 103.576 127.142 105.403C128.622 107.204 130.767 108.105 133.576 108.105C134.98 108.105 136.244 107.874 137.367 107.41C138.491 106.921 139.384 106.188 140.048 105.21C140.712 104.232 141.044 103.009 141.044 101.543V100.655H133.001V97.7594H143.84V110.614H141.427L141.312 107.179C140.546 108.414 139.499 109.366 138.172 110.035C136.869 110.679 135.299 111 133.461 111ZM8.15759 85.136C12.1151 85.136 15.2173 86.2427 17.4641 88.4559C19.7365 90.6435 20.8727 93.7832 20.8727 97.8752C20.8727 101.967 19.7365 105.12 17.4641 107.333C15.2173 109.521 12.1151 110.614 8.15759 110.614H0V85.136H8.15759ZM8.46398 107.719C11.3491 107.719 13.596 106.857 15.2045 105.133C16.8386 103.383 17.6556 100.963 17.6556 97.8752C17.6556 94.7869 16.8386 92.3806 15.2045 90.6563C13.596 88.9063 11.3491 88.0313 8.46398 88.0313H3.06388V107.719H8.46398ZM51.5385 85.136C54.1172 85.136 56.1853 85.8052 57.7428 87.1434C59.3003 88.4817 60.079 90.296 60.079 92.5865C60.079 94.4137 59.5684 95.9193 58.5471 97.1031C57.5258 98.287 56.147 99.0976 54.4109 99.5351L61.611 110.614H57.9726L51.0789 100.037H47.4196V97.1417H51.5002C55.0747 97.1417 56.8619 95.6233 56.8619 92.5865C56.8619 89.5497 55.0747 88.0313 51.5002 88.0313H45.0277V96.509H45.0218V97.2514V100.221H45.0277V110.614H41.9638V85.136H51.5385ZM101.137 101.118V85.136H98.0727V100.346C98.0727 102.997 97.511 104.953 96.3875 106.214C95.2896 107.475 93.5662 108.105 91.2172 108.105C88.8683 108.105 87.1321 107.475 86.0086 106.214C84.9107 104.953 84.3618 102.997 84.3618 100.346V85.136H81.2979V101.118C81.2979 104.386 82.1532 106.857 83.8639 108.53C85.6001 110.177 88.0512 111 91.2172 111C94.4088 111 96.8599 110.177 98.5706 108.53C100.281 106.857 101.137 104.386 101.137 101.118ZM181.741 86.3713C180.005 85.2904 177.937 84.75 175.537 84.75C173.137 84.75 171.056 85.2904 169.294 86.3713C167.558 87.4265 166.205 88.932 165.235 90.888C164.29 92.8439 163.817 95.173 163.817 97.8752C163.817 100.577 164.29 102.907 165.235 104.862C166.205 106.818 167.558 108.337 169.294 109.418C171.056 110.473 173.137 111 175.537 111C177.937 111 180.005 110.473 181.741 109.418C183.503 108.337 184.856 106.818 185.801 104.862C186.771 102.907 187.256 100.577 187.256 97.8752C187.256 95.173 186.771 92.8439 185.801 90.888C184.856 88.932 183.503 87.4265 181.741 86.3713ZM169.294 90.3475C170.826 88.546 172.907 87.6453 175.537 87.6453C178.167 87.6453 180.235 88.546 181.741 90.3475C183.273 92.149 184.039 94.6582 184.039 97.8752C184.039 101.066 183.273 103.576 181.741 105.403C180.235 107.204 178.167 108.105 175.537 108.105C172.907 108.105 170.826 107.204 169.294 105.403C167.788 103.576 167.035 101.066 167.035 97.8752C167.035 94.6582 167.788 92.149 169.294 90.3475Z" fill="white"/>
</svg>
