<svg width="46" height="66" viewBox="0 0 46 66" fill="none" xmlns="http://www.w3.org/2000/svg">
<path fill-rule="evenodd" clip-rule="evenodd" d="M11.5336 13.5326H33.5645C33.3024 7.67541 28.4709 3.00727 22.5491 3.00727C16.6272 3.00727 11.7957 7.67541 11.5336 13.5326ZM36.5742 13.5326H42.1036C43.7604 13.5326 45.1036 14.8757 45.1036 16.5326V49.627C45.1036 51.2839 43.7604 52.627 42.1036 52.627H34.3248V26.8655H39.9384V23.5575H24.6514V26.8655H30.265V52.627H15.8319V33.8825H21.4455V30.5745H6.15851V33.8825H11.7721V52.627H3.99701C2.34016 52.627 0.997009 51.2839 0.997009 49.627V16.5326C0.997009 14.8757 2.34016 13.5326 3.99701 13.5326H8.52394C8.78793 6.01405 14.9662 0 22.5491 0C30.132 0 36.3102 6.01405 36.5742 13.5326Z" fill="white"/>
<path d="M6.18065 65.8554C9.09971 65.8554 10.5312 64.3958 10.5312 62.6837C10.5312 59.0629 4.9597 60.1857 4.9597 58.684C4.9597 58.1928 5.38072 57.7999 6.54554 57.7999C7.4016 57.7999 8.32784 58.0525 9.26811 58.5577L10.1242 56.4947C9.15584 55.9334 7.83666 55.6387 6.55957 55.6387C3.64052 55.6387 2.20906 57.0701 2.20906 58.8244C2.20906 62.4732 7.79455 61.3364 7.79455 62.8942C7.79455 63.3714 7.34547 63.6941 6.19469 63.6941C5.05794 63.6941 3.82296 63.3012 2.95285 62.7258L2.04065 64.7747C2.96689 65.4203 4.56675 65.8554 6.18065 65.8554Z" fill="white"/>
<path d="M18.3826 55.8351V59.5261H14.5934V55.8351H11.8147V65.6589H14.5934V61.8276H18.3826V65.6589H21.1613V55.8351H18.3826Z" fill="white"/>
<path d="M28.0753 65.8554C31.2189 65.8554 33.5345 63.6941 33.5345 60.747C33.5345 57.7999 31.2189 55.6387 28.0753 55.6387C24.9317 55.6387 22.6161 57.7999 22.6161 60.747C22.6161 63.6941 24.9317 65.8554 28.0753 65.8554ZM28.0753 63.5538C26.5877 63.5538 25.4229 62.4451 25.4229 60.747C25.4229 59.0489 26.5877 57.9402 28.0753 57.9402C29.5629 57.9402 30.7277 59.0489 30.7277 60.747C30.7277 62.4451 29.5629 63.5538 28.0753 63.5538Z" fill="white"/>
<path d="M39.4807 55.8351H34.9899V65.6589H37.7686V63.0907H39.4807C42.1612 63.0907 43.8453 61.7013 43.8453 59.4699C43.8453 57.2245 42.1612 55.8351 39.4807 55.8351ZM39.3123 60.9014H37.7686V58.0244H39.3123C40.4631 58.0244 41.0385 58.5577 41.0385 59.4699C41.0385 60.3681 40.4631 60.9014 39.3123 60.9014Z" fill="white"/>
</svg>
