<svg width="34" height="44" viewBox="0 0 34 44" fill="none" xmlns="http://www.w3.org/2000/svg">
<path fill-rule="evenodd" clip-rule="evenodd" d="M12.8725 4.65283H0.0947266V24.6822L6.54722 14.5678V10.0474H9.43106L12.8725 4.65283ZM6.54722 33.3235V38.3835H14.1455C18.3667 38.3835 21.5829 37.1584 23.7941 34.7081C26.0454 32.2183 27.1711 28.7208 27.1711 24.2154C27.1711 19.7101 26.0454 16.2323 23.7941 13.782C22.8874 12.7611 21.8117 11.9495 20.567 11.3472L23.7101 6.42032C25.6008 7.2432 27.257 8.35342 28.6787 9.75096C32.1763 13.1102 33.9251 17.9317 33.9251 24.2154C33.9251 30.4992 32.1763 35.3404 28.6787 38.7392C25.2213 42.0984 20.3769 43.778 14.1455 43.778H0.0947266V43.4379L6.54722 33.3235Z" fill="white"/>
<path d="M18.832 1.26202L21.6945 1.26202L15.1886 12.4779L12.3261 12.478L18.832 1.26202Z" fill="white"/>
</svg>
