<svg width="50" height="50" viewBox="0 0 50 50" fill="none" xmlns="http://www.w3.org/2000/svg">
<rect width="50" height="50" rx="9" fill="white"/>
<path d="M5.34574 12.8352C7.68759 11.5428 10.3017 10.4642 12.7443 9.38005C16.9464 7.60431 21.1652 5.85935 25.4265 4.23481C26.055 4.02499 27.0631 3.81867 27.5778 4.26727C27.9488 4.59067 27.884 5.16571 27.8436 5.65624C27.7206 7.15021 27.4505 8.63773 27.2567 10.1252C26.6839 13.9346 26.0218 17.731 25.3761 21.5278C25.1537 22.7925 23.5723 23.4472 22.5605 22.6379C20.3566 21.1464 18.1374 19.6682 15.9538 18.1508C15.5034 17.8378 14.9755 17.4938 14.94 16.9466C14.8967 16.2812 15.4168 15.5691 15.9229 15.1571C17.5478 13.5528 19.2524 12.1443 20.8515 10.5593C21.5945 9.82278 21.9789 8.62372 21.0751 9.15081C20.8299 9.29382 20.595 9.45084 20.4481 9.54504C17.7062 11.438 15.0315 13.4466 12.1407 15.1103C10.6641 15.9246 8.94308 15.2287 7.46714 14.7742C6.14377 14.2253 4.20456 13.6723 5.34561 12.8353L5.34574 12.8352Z" fill="#2DA5D8"/>
<path d="M12.18 34H13.54L10.38 27H9.1L5.95 34H7.29L7.98 32.38H11.48L12.18 34ZM8.42 31.36L9.73 28.3L11.05 31.36H8.42ZM19.3602 27V31.74L15.5002 27H14.4302V34H15.7202V29.26L19.5802 34H20.6502V27H19.3602ZM27.7659 34H29.1259L25.9659 27H24.6859L21.5359 34H22.8759L23.5659 32.38H27.0659L27.7659 34ZM24.0059 31.36L25.3159 28.3L26.6359 31.36H24.0059ZM30.0162 34H34.9762V32.9H31.3162V27H30.0162V34ZM41.0301 27H39.7501L37.6801 30.41L35.6301 27H34.2401L36.9901 31.55V34H38.2901V31.53L41.0301 27ZM8.36 44H9.66V38.1H11.98V37H6.04V38.1H8.36V44ZM12.9556 44H14.2556V37H12.9556V44ZM19.389 44.1C20.539 44.1 21.519 43.69 22.169 42.93L21.329 42.13C20.819 42.69 20.189 42.96 19.459 42.96C18.009 42.96 16.959 41.94 16.959 40.5C16.959 39.06 18.009 38.04 19.459 38.04C20.189 38.04 20.819 38.31 21.329 38.86L22.169 38.07C21.519 37.31 20.539 36.9 19.399 36.9C17.249 36.9 15.649 38.41 15.649 40.5C15.649 42.59 17.249 44.1 19.389 44.1ZM25.5455 44.1C27.4655 44.1 28.3755 43.14 28.3755 42.02C28.3755 39.45 24.2255 40.42 24.2255 38.93C24.2255 38.4 24.6655 37.98 25.7455 37.98C26.3555 37.98 27.0455 38.16 27.6755 38.53L28.0855 37.52C27.4755 37.12 26.5955 36.9 25.7555 36.9C23.8355 36.9 22.9355 37.86 22.9355 38.99C22.9355 41.59 27.0955 40.6 27.0955 42.11C27.0955 42.63 26.6355 43.02 25.5455 43.02C24.6855 43.02 23.7955 42.7 23.2355 42.25L22.7855 43.26C23.3655 43.76 24.4555 44.1 25.5455 44.1Z" fill="black"/>
</svg>
