<svg width="50" height="51" viewBox="0 0 50 51" fill="none" xmlns="http://www.w3.org/2000/svg">
<rect y="0.0771484" width="50" height="50" rx="9" fill="white"/>
<path d="M10.3762 34H11.7362L8.57623 27H7.29623L4.14623 34H5.48623L6.17623 32.38H9.67623L10.3762 34ZM6.61623 31.36L7.92623 28.3L9.24623 31.36H6.61623ZM15.7688 34.1C16.9188 34.1 17.8988 33.69 18.5488 32.93L17.7088 32.13C17.1988 32.69 16.5688 32.96 15.8388 32.96C14.3888 32.96 13.3388 31.94 13.3388 30.5C13.3388 29.06 14.3888 28.04 15.8388 28.04C16.5688 28.04 17.1988 28.31 17.7088 28.86L18.5488 28.07C17.8988 27.31 16.9188 26.9 15.7788 26.9C13.6288 26.9 12.0288 28.41 12.0288 30.5C12.0288 32.59 13.6288 34.1 15.7688 34.1ZM24.8879 34H26.2479L23.0879 27H21.8079L18.6579 34H19.9979L20.6879 32.38H24.1879L24.8879 34ZM21.1279 31.36L22.4379 28.3L23.7579 31.36H21.1279ZM27.1382 34H30.1982C32.4682 34 34.0182 32.6 34.0182 30.5C34.0182 28.4 32.4682 27 30.1982 27H27.1382V34ZM28.4382 32.9V28.1H30.1382C31.6982 28.1 32.7082 29.05 32.7082 30.5C32.7082 31.95 31.6982 32.9 30.1382 32.9H28.4382ZM6.43623 42.91V40.98H9.81623V39.91H6.43623V38.09H10.2462V37H5.13623V44H10.3862V42.91H6.43623ZM19.4954 44L19.4854 37H18.4154L15.6854 41.64L12.9054 37H11.8354V44H13.0754V39.42L15.3754 43.2H15.9554L18.2554 39.36L18.2654 44H19.4954ZM27.1462 37H25.8662L23.7962 40.41L21.7462 37H20.3562L23.1062 41.55V44H24.4062V41.53L27.1462 37Z" fill="black"/>
<path d="M4.54197 13.8352C6.88382 12.5428 9.49797 11.4642 11.9405 10.38C16.1426 8.60431 20.3614 6.85935 24.6228 5.23481C25.2513 5.02499 26.2593 4.81867 26.774 5.26727C27.145 5.59067 27.0803 6.16571 27.0399 6.65624C26.9168 8.15021 26.6468 9.63773 26.453 11.1252C25.8801 14.9346 25.218 18.731 24.5724 22.5278C24.3499 23.7925 22.7685 24.4472 21.7567 23.6379C19.5528 22.1464 17.3336 20.6682 15.15 19.1508C14.6996 18.8378 14.1718 18.4938 14.1362 17.9466C14.0929 17.2812 14.613 16.5691 15.1192 16.1571C16.744 14.5528 18.4486 13.1443 20.0477 11.5593C20.7908 10.8228 21.1751 9.62372 20.2714 10.1508C20.0262 10.2938 19.7913 10.4508 19.6443 10.545C16.9024 12.438 14.2277 14.4466 11.3369 16.1103C9.86031 16.9246 8.13931 16.2287 6.66337 15.7742C5.34 15.2253 3.40078 14.6723 4.54183 13.8353L4.54197 13.8352Z" fill="#2DA5D8"/>
</svg>
