<svg width="50" height="51" viewBox="0 0 50 51" fill="none" xmlns="http://www.w3.org/2000/svg">
<rect y="0.0771484" width="50" height="50" rx="9" fill="white"/>
<path d="M6.33252 34H9.39252C11.6625 34 13.2125 32.6 13.2125 30.5C13.2125 28.4 11.6625 27 9.39252 27H6.33252V34ZM7.63252 32.9V28.1H9.33252C10.8925 28.1 11.9025 29.05 11.9025 30.5C11.9025 31.95 10.8925 32.9 9.33252 32.9H7.63252ZM19.4942 31.36C19.4942 29.69 18.3542 28.6 16.7942 28.6C15.2042 28.6 14.0342 29.74 14.0342 31.33C14.0342 32.92 15.1942 34.07 16.9842 34.07C17.9042 34.07 18.6542 33.77 19.1342 33.2L18.4642 32.43C18.0842 32.82 17.6142 33.01 17.0142 33.01C16.0842 33.01 15.4342 32.51 15.2842 31.73H19.4742C19.4842 31.61 19.4942 31.46 19.4942 31.36ZM16.7942 29.6C17.6142 29.6 18.2042 30.13 18.3042 30.9H15.2742C15.3942 30.12 15.9842 29.6 16.7942 29.6ZM25.9249 28.09V27H20.8149V34H22.1149V31.32H25.4949V30.22H22.1149V28.09H25.9249ZM27.5945 27.78C28.0645 27.78 28.3945 27.44 28.3945 27C28.3945 26.59 28.0545 26.28 27.5945 26.28C27.1345 26.28 26.7945 26.61 26.7945 27.03C26.7945 27.45 27.1345 27.78 27.5945 27.78ZM26.9645 34H28.2145V28.66H26.9645V34ZM6.33252 44H11.2925V42.9H7.63252V37H6.33252V44ZM14.55 44.07C16.21 44.07 17.4 42.93 17.4 41.33C17.4 39.73 16.21 38.6 14.55 38.6C12.91 38.6 11.71 39.73 11.71 41.33C11.71 42.93 12.91 44.07 14.55 44.07ZM14.55 43C13.65 43 12.97 42.35 12.97 41.33C12.97 40.31 13.65 39.66 14.55 39.66C15.46 39.66 16.14 40.31 16.14 41.33C16.14 42.35 15.46 43 14.55 43ZM22.7053 38.66V39.37C22.2653 38.84 21.6053 38.6 20.8553 38.6C19.3253 38.6 18.1553 39.62 18.1553 41.17C18.1553 42.72 19.3253 43.76 20.8553 43.76C21.5753 43.76 22.2053 43.53 22.6453 43.05V43.33C22.6453 44.41 22.1253 44.95 20.9453 44.95C20.2053 44.95 19.4453 44.7 18.9753 44.31L18.4153 45.25C19.0253 45.75 20.0153 46.01 21.0153 46.01C22.8853 46.01 23.8953 45.13 23.8953 43.19V38.66H22.7053ZM21.0453 42.7C20.0953 42.7 19.4153 42.08 19.4153 41.17C19.4153 40.27 20.0953 39.66 21.0453 39.66C21.9853 39.66 22.6653 40.27 22.6653 41.17C22.6653 42.08 21.9853 42.7 21.0453 42.7Z" fill="black"/>
<path d="M5.73826 13.8352C8.08011 12.5428 10.6943 11.4642 13.1368 10.38C17.3389 8.60431 21.5577 6.85935 25.8191 5.23481C26.4475 5.02499 27.4556 4.81867 27.9703 5.26727C28.3413 5.59067 28.2766 6.16571 28.2361 6.65624C28.1131 8.15021 27.8431 9.63773 27.6492 11.1252C27.0764 14.9346 26.4143 18.731 25.7686 22.5278C25.5462 23.7925 23.9648 24.4472 22.953 23.6379C20.7491 22.1464 18.5299 20.6682 16.3463 19.1508C15.8959 18.8378 15.3681 18.4938 15.3325 17.9466C15.2892 17.2812 15.8093 16.5691 16.3155 16.1571C17.9403 14.5528 19.6449 13.1443 21.244 11.5593C21.9871 10.8228 22.3714 9.62372 21.4677 10.1508C21.2224 10.2938 20.9875 10.4508 20.8406 10.545C18.0987 12.438 15.424 14.4466 12.5332 16.1103C11.0566 16.9246 9.3356 16.2287 7.85966 15.7742C6.53629 15.2253 4.59707 14.6723 5.73812 13.8353L5.73826 13.8352Z" fill="#2DA5D8"/>
</svg>
