<svg width="27" height="27" viewBox="0 0 27 27" fill="none" xmlns="http://www.w3.org/2000/svg">
<circle cx="13.3382" cy="13.3611" r="13.3382" fill="black"/>
<path d="M4.49394 13.5826C6.02221 12.784 7.72818 12.1174 9.32216 11.4475C12.0644 10.3501 14.8176 9.27181 17.5985 8.26791C18.1396 8.09685 19.1118 7.92957 19.2071 8.69027C19.1549 9.76704 18.9402 10.8375 18.7929 11.908C18.419 14.262 17.987 16.608 17.5656 18.9543C17.4204 19.7358 16.3885 20.1404 15.7281 19.6403C14.1412 18.6234 12.5421 17.6164 10.9755 16.5759C10.4623 16.0812 10.9382 15.3707 11.3965 15.0175C12.7035 13.7955 14.0897 12.7573 15.3284 11.4721C15.6625 10.7066 14.6752 11.3518 14.3496 11.5494C12.5603 12.7192 10.8148 13.9604 8.92827 14.9885C7.96465 15.4918 6.84153 15.0617 5.87835 14.7809C5.01473 14.4417 3.74921 14.0999 4.49385 13.5827L4.49394 13.5826Z" fill="white"/>
</svg>
