<?xml version="1.0" ?><svg enable-background="new 0 0 512 512" version="1.1" viewBox="0 0 512 512" xml:space="preserve" xmlns="http://www.w3.org/2000/svg" xmlns:xlink="http://www.w3.org/1999/xlink"><g id="Layer_4"><path d="   M323,435.99c-20.86,7.77-43.43,12.01-67,12.01c-106.04,0-192-85.96-192-192S149.96,64,256,64s192,85.96,192,192   c0,69.82-37.27,130.94-93,164.54" fill="none" stroke="#fff" stroke-linecap="round" stroke-linejoin="round" stroke-miterlimit="10" stroke-width="15"/><path d="   M292.75,342.23c2.47,1.88,5.3,2.74,8.08,2.74c5.85,0,11.48-3.84,13.07-10.18l39.9-159.58c1.08-4.32-2.3-8.17-6.35-8.17   c-0.77,0-1.56,0.14-2.36,0.44L259,200.18 M235,209.3l-93.75,35.62c-5.76,2.19-5.61,10.39,0.23,12.36l26.52,8.96l10,3.38l10.74,3.63   l28.5,57.04c0.01,0.02,0.02,0.03,0.02,0.05l0.08,0.15l0.02-0.01c0.52,1.05,1.59,1.73,2.74,1.73c0.67,0,1.36-0.23,1.96-0.73   l26.7-22.64l-29.81-22.62L225,326l-25.15-54.44l113.9-68.42L289,224.84l-10,8.76l-6,5.26l-54.05,47.36L272.69,327" fill="none" stroke="#fff" stroke-linecap="round" stroke-linejoin="round" stroke-miterlimit="10" stroke-width="15"/></g><g id="Layer_1"/></svg>