<svg width="604" height="70" viewBox="0 0 604 70" fill="none" xmlns="http://www.w3.org/2000/svg">
<path fill-rule="evenodd" clip-rule="evenodd" d="M357.898 70C351.462 70 345.881 68.5931 341.157 65.7794C336.501 62.8971 332.872 58.848 330.27 53.6324C327.737 48.4167 326.47 42.2059 326.47 35C326.47 27.7941 327.805 21.5833 330.476 16.3676C333.215 11.152 337.015 7.13726 341.876 4.32353C346.737 1.44118 352.317 0 358.617 0C365.327 0 370.77 1.26961 374.947 3.80882C379.192 6.34804 382.615 10.2598 385.217 15.5441L377.72 19.6618C376.213 15.75 373.817 12.799 370.53 10.8088C367.312 8.75 363.341 7.72059 358.617 7.72059C354.029 7.72059 349.955 8.81863 346.395 11.0147C342.903 13.1422 340.13 16.2647 338.076 20.3824C336.09 24.4314 335.097 29.3039 335.097 35C335.097 43.5098 337.049 50.201 340.952 55.0735C344.923 59.8774 350.674 62.2794 358.206 62.2794C361.972 62.2794 365.361 61.6618 368.374 60.4265C371.386 59.1225 373.783 57.1667 375.563 54.5588C377.343 51.951 378.233 48.6912 378.233 44.7794V42.4118H356.665V34.6912H385.731V68.9706H379.26L378.952 59.8088C376.898 63.1029 374.091 65.6422 370.53 67.4265C367.038 69.1422 362.828 70 357.898 70ZM21.8759 1.02941C32.4887 1.02941 40.8077 3.98039 46.833 9.88235C52.9268 15.7157 55.9737 24.0882 55.9737 35C55.9737 45.9118 52.9268 54.3186 46.833 60.2206C40.8077 66.0539 32.4887 68.9706 21.8759 68.9706H0V1.02941H21.8759ZM22.6976 61.25C30.4346 61.25 36.4599 58.951 40.7735 54.3529C45.1555 49.6863 47.3465 43.2353 47.3465 35C47.3465 26.7647 45.1555 20.348 40.7735 15.75C36.4599 11.0833 30.4346 8.75 22.6976 8.75H8.21632V61.25H22.6976ZM138.209 1.02941C145.124 1.02941 150.671 2.81372 154.847 6.38235C159.024 9.95098 161.112 14.7892 161.112 20.8971C161.112 25.7696 159.743 29.7843 157.004 32.9412C154.265 36.098 150.568 38.2598 145.912 39.4265L165.22 68.9706H155.463L136.977 40.7647H120.749V68.9706H112.533V1.02941H138.209ZM138.106 33.0441C147.692 33.0441 152.485 28.9951 152.485 20.8971C152.485 12.799 147.692 8.75 138.106 8.75H120.749V33.0441H138.106ZM271.215 43.6471V1.02941H262.998V41.5882C262.998 48.6569 261.492 53.8726 258.479 57.2353C255.535 60.598 250.914 62.2794 244.614 62.2794C238.315 62.2794 233.659 60.598 230.647 57.2353C227.703 53.8726 226.23 48.6569 226.23 41.5882V1.02941H218.014V43.6471C218.014 52.3627 220.308 58.951 224.895 63.4118C229.551 67.8039 236.124 70 244.614 70C253.173 70 259.746 67.8039 264.334 63.4118C268.921 58.951 271.215 52.3627 271.215 43.6471ZM487.37 4.32353C482.714 1.44118 477.168 0 470.732 0C464.296 0 458.715 1.44118 453.991 4.32353C449.335 7.13726 445.706 11.152 443.104 16.3676C440.571 21.5833 439.304 27.7941 439.304 35C439.304 42.2059 440.571 48.4167 443.104 53.6324C445.706 58.848 449.335 62.8971 453.991 65.7794C458.715 68.5931 464.296 70 470.732 70C477.168 70 482.714 68.5931 487.37 65.7794C492.094 62.8971 495.723 58.848 498.256 53.6324C500.858 48.4167 502.159 42.2059 502.159 35C502.159 27.7941 500.858 21.5833 498.256 16.3676C495.723 11.152 492.094 7.13726 487.37 4.32353ZM453.991 14.9265C458.099 10.1225 463.679 7.72059 470.732 7.72059C477.784 7.72059 483.33 10.1225 487.37 14.9265C491.478 19.7304 493.532 26.4216 493.532 35C493.532 43.5098 491.478 50.201 487.37 55.0735C483.33 59.8774 477.784 62.2794 470.732 62.2794C463.679 62.2794 458.099 59.8774 453.991 55.0735C449.951 50.201 447.931 43.5098 447.931 35C447.931 26.4216 449.951 19.7304 453.991 14.9265ZM603.375 1.02941L579.137 42.4118V68.9706H570.921V42.4118L546.683 1.02941H556.44L569.586 24.2941L575.029 33.9706L580.472 24.2941L593.619 1.02941H603.375Z" fill="white"/>
</svg>
