<svg width="198" height="168" viewBox="0 0 198 168" fill="none" xmlns="http://www.w3.org/2000/svg">
<path fill-rule="evenodd" clip-rule="evenodd" d="M170.306 35.7925L97.902 72.9681C97.5202 73.14 97.1765 73.2927 96.8328 73.4264V73.4837C95.038 74.0756 93.8732 74.152 92.0784 73.4837V56.0701H87.6868V4.87961H92.0784V0.488034C93.5295 -0.0847806 95.3053 -0.199343 96.7755 0.392565C97.0428 0.46894 97.3292 0.564409 97.6156 0.678972C123.373 10.4168 149.15 20.1738 174.926 29.9116C175.633 30.5035 175.671 31.0954 175.671 31.6873V65.5597L177.924 66.8199V81.1212C176.072 82.6105 174.831 82.8778 173.38 82.9542C171.776 83.0306 169.962 82.7442 168.129 81.1212L168.148 66.8581L170.344 65.5788L170.306 35.7925ZM92.4412 9.80581H96.4891V51.1439H92.4412V9.80581Z" fill="#FDFDFD"/>
<path fill-rule="evenodd" clip-rule="evenodd" d="M148.577 52.7471C131.603 61.4538 114.609 70.1415 97.6346 78.8483C95.1524 79.8603 93.7204 79.7457 91.3909 78.8101L42.1671 52.7471V76.5952C51.6567 88.6434 73.1182 95.7845 94.6178 96.0709C116.748 96.3764 138.935 89.4454 148.329 76.5952L148.577 52.7471Z" fill="#FDFDFD"/>
<path fill-rule="evenodd" clip-rule="evenodd" d="M59.1798 14.4835H54.7883V49.3106H59.1798V56.7381L64.1061 59.2585V49.3106H68.4976V14.4835H64.1061V10.9512L59.1798 12.8224V14.4835ZM59.7145 19.4097H63.7624V44.3844H59.7145V19.4097Z" fill="#FDFDFD"/>
<path fill-rule="evenodd" clip-rule="evenodd" d="M75.1994 47.2676H70.8078V62.6954L84.5172 69.7792V47.2676H80.1256V4.91748L75.1994 6.78867V47.2676ZM75.734 52.0028H79.7819V65.0248H75.734V52.0028Z" fill="#FDFDFD"/>
<path fill-rule="evenodd" clip-rule="evenodd" d="M75.1994 47.2676H70.8078V62.6954L84.5172 69.7792V47.2676H80.1256V4.91748L75.1994 6.78867V47.2676ZM75.734 52.0028H79.7819V65.0248H75.734V52.0028Z" fill="#FDFDFD"/>
<path fill-rule="evenodd" clip-rule="evenodd" d="M33.6897 43.6206V27.7728H29.2981V24.0876L24.3528 25.9207V27.7728H19.9612V36.5368L33.6897 43.6206ZM24.8874 32.508H28.9353V41.1575L24.8874 39.0763V32.508Z" fill="#FDFDFD"/>
<path fill-rule="evenodd" clip-rule="evenodd" d="M41.7666 39.2674H37.375V45.5111L51.1034 52.6331V39.2674H46.6928V17.5195L41.7666 19.3907V39.2674Z" fill="#FDFDFD"/>
<path d="M0 115.608H5.20822V133.104H9.1764V115.608H14.5199V111.752H0V115.608Z" fill="#FDFDFD"/>
<path d="M33.2108 131.863C34.8793 130.894 36.2321 129.564 37.2016 127.918C38.1936 126.249 38.6896 124.423 38.6896 122.461C38.6896 120.545 38.1936 118.696 37.2016 117.028C36.2095 115.359 34.8567 114.006 33.2108 113.014C31.5424 112.022 29.7161 111.526 27.7771 111.526C25.8156 111.526 23.9668 112.022 22.2984 113.014C20.6299 114.006 19.2771 115.359 18.3077 117.005C17.3382 118.674 16.8421 120.5 16.8421 122.461C16.8421 124.445 17.3382 126.294 18.3077 127.94C19.2771 129.586 20.6074 130.916 22.2758 131.886C23.9443 132.855 25.7705 133.329 27.7546 133.329C29.7161 133.329 31.5424 132.833 33.2108 131.863ZM27.7546 115.382C28.9947 115.382 30.1445 115.697 31.1817 116.329C32.2188 116.96 33.053 117.817 33.6843 118.899C34.3156 119.981 34.6087 121.176 34.6087 122.461C34.6087 123.747 34.2931 124.941 33.7069 126.001C33.0981 127.083 32.2864 127.918 31.2493 128.549C30.2347 129.158 29.0848 129.473 27.8448 129.473C26.5822 129.473 25.4098 129.158 24.3726 128.526C23.313 127.895 22.4787 127.038 21.87 125.979C21.2612 124.919 20.9456 123.724 20.9456 122.461C20.9456 121.176 21.2612 119.981 21.8474 118.899C22.4562 117.817 23.2904 116.96 24.305 116.329C25.3421 115.697 26.492 115.382 27.7546 115.382Z" fill="#FDFDFD"/>
<path d="M46.5135 125.912H49.1514C50.8649 125.912 52.2854 125.574 53.3901 124.875C54.4949 124.199 55.3066 123.297 55.8026 122.192C56.2986 121.11 56.5466 119.938 56.5466 118.72C56.5466 116.556 55.8477 114.82 54.4498 113.58C53.0745 112.362 51.1355 111.731 48.723 111.731H42.5228V133.082H46.5135V125.912ZM49.1514 122.057H46.5135V115.609H49.2416C50.4591 115.609 51.3159 115.947 51.7893 116.578C52.3079 117.255 52.5559 117.976 52.5559 118.788C52.5559 119.261 52.4432 119.757 52.2177 120.253C52.0148 120.749 51.6541 121.178 51.1355 121.538C50.662 121.877 49.9856 122.057 49.1514 122.057Z" fill="#FDFDFD"/>
<path d="M72.8476 133.104H76.8157V115.608H82.1592V111.752H67.6619V115.608H72.8476V133.104Z" fill="#FDFDFD"/>
<path d="M89.7799 125.912H92.5757L97.2428 133.104H101.887L96.7242 124.92C97.7839 124.311 98.5731 123.477 99.0916 122.439C99.6553 121.312 99.9484 120.072 99.9484 118.742C99.9484 116.555 99.2043 114.841 97.7388 113.601C96.2959 112.384 94.3569 111.752 91.9669 111.752H85.8118V133.104H89.8025V125.912H89.7799ZM95.8449 118.855C95.8449 119.689 95.5744 120.433 95.0333 121.109C94.5147 121.763 93.6354 122.079 92.4179 122.079H89.8025V115.608H92.5306C93.3423 115.608 93.9961 115.788 94.4921 116.126C94.9882 116.487 95.3489 116.893 95.5293 117.366C95.7322 117.863 95.8449 118.359 95.8449 118.855Z" fill="#FDFDFD"/>
<path d="M115.641 128.256L117.535 133.126H122.089L112.732 111.098L112.665 110.896H112.011L102.564 133.104H106.577L108.561 128.234H115.641V128.256ZM114.265 124.739H110.004L112.169 119.441L114.265 124.739Z" fill="#FDFDFD"/>
<path d="M137.375 131.841C138.998 130.985 140.306 129.767 141.276 128.189C142.245 126.611 142.741 124.784 142.741 122.71C142.741 120.839 142.335 119.08 141.546 117.412C140.735 115.743 139.449 114.368 137.713 113.331C135.977 112.271 133.745 111.752 131.107 111.752H124.884V133.104H132.099C133.971 133.104 135.752 132.676 137.375 131.841ZM128.853 129.248V115.585H131.987C133.069 115.585 134.128 115.833 135.143 116.329C136.158 116.803 136.992 117.569 137.646 118.607C138.3 119.644 138.638 120.951 138.638 122.507C138.638 123.928 138.322 125.168 137.736 126.182C137.15 127.197 136.293 127.963 135.233 128.482C134.151 129 132.888 129.271 131.468 129.271H128.853V129.248Z" fill="#FDFDFD"/>
<path d="M161.365 129.248H150.565V124.311H159.832V120.433H150.565V115.608H160.959V111.752H146.552V133.104H161.365V129.248Z" fill="#FDFDFD"/>
<path d="M178.636 122.418C179.199 121.29 179.492 120.05 179.492 118.72C179.492 116.533 178.748 114.82 177.283 113.58C175.84 112.362 173.901 111.731 171.511 111.731H165.356V133.082H169.346V125.912H172.142L176.809 133.105H181.454L176.291 124.898C177.328 124.312 178.117 123.477 178.636 122.418ZM175.389 118.855C175.389 119.69 175.118 120.434 174.577 121.11C174.059 121.764 173.179 122.08 171.962 122.08H169.346V115.609H172.075C172.886 115.609 173.54 115.789 174.036 116.127C174.532 116.488 174.893 116.894 175.073 117.367C175.299 117.863 175.389 118.359 175.389 118.855Z" fill="#FDFDFD"/>
<path d="M194.666 121.898C193.922 121.424 193.02 120.996 191.983 120.635C190.675 120.139 189.638 119.621 188.917 119.124C188.263 118.674 187.947 118.11 187.947 117.456C187.947 116.757 188.195 116.239 188.714 115.855C189.255 115.449 189.999 115.247 190.946 115.247C192.276 115.247 193.809 115.697 195.545 116.599L195.861 116.757L197.394 113.646L197.146 113.488C196.244 112.902 195.23 112.451 194.17 112.135C193.11 111.819 191.87 111.662 190.472 111.662C188.533 111.752 186.932 112.338 185.737 113.42C184.52 114.502 183.911 115.968 183.911 117.749C183.911 118.967 184.204 120.004 184.813 120.838C185.399 121.65 186.098 122.281 186.932 122.732C187.722 123.16 188.714 123.611 189.909 124.04C190.923 124.423 191.78 124.874 192.389 125.392C192.952 125.866 193.223 126.43 193.223 127.128C193.223 128.008 192.907 128.662 192.231 129.067C190.946 129.879 189.255 129.969 187.226 129.225C186.301 128.887 185.489 128.459 184.836 127.94L184.52 127.715L182.694 130.894L182.942 131.074C183.911 131.773 185.039 132.337 186.279 132.72C187.519 133.126 188.804 133.329 190.066 133.329C191.532 133.329 192.84 133.058 193.922 132.495C195.027 131.931 195.861 131.187 196.447 130.24C197.033 129.293 197.326 128.233 197.326 127.083C197.326 125.821 197.078 124.739 196.56 123.904C196.064 123.07 195.432 122.394 194.666 121.898Z" fill="#FDFDFD"/>
<path d="M38.9336 144.987H38.2797L28.8328 167.195H32.846L34.8301 162.325H41.9097L43.8036 167.195H48.358L39.0012 145.189L38.9336 144.987ZM40.5569 158.83H36.2956L38.4601 153.532L40.5569 158.83Z" fill="#FDFDFD"/>
<path d="M65.2003 162.031C64.6817 162.482 64.0279 162.843 63.2613 163.136C62.4947 163.429 61.6154 163.564 60.6685 163.564C59.3382 163.564 58.1433 163.248 57.1287 162.662C56.1141 162.054 55.325 161.219 54.7839 160.16C54.2427 159.077 53.9496 157.86 53.9496 156.485C53.9496 155.199 54.2427 154.004 54.8515 152.945C55.4602 151.885 56.2494 151.028 57.2414 150.397C59.5412 148.954 62.382 149.202 64.9523 151.028L65.2905 151.276L66.8687 147.534L66.6207 147.376C65.8091 146.88 64.8621 146.451 63.8024 146.113C62.7427 145.775 61.5703 145.617 60.3303 145.617C58.3011 145.617 56.4748 146.091 54.8966 147.038C53.2958 147.985 52.0557 149.315 51.1539 150.983C50.2746 152.652 49.8236 154.568 49.8236 156.687C49.8236 158.626 50.2746 160.43 51.1539 162.054C52.0332 163.677 53.3183 165.007 54.9642 165.954C56.6101 166.924 58.5491 167.397 60.7361 167.397C62.0438 167.397 63.2613 167.194 64.3661 166.788C65.4709 166.382 66.3276 165.954 66.9589 165.503L67.1844 165.345L65.4934 161.738L65.2003 162.031Z" fill="#FDFDFD"/>
<path d="M78.7279 144.985H78.0741L68.6271 167.194H72.6404L74.6245 162.324H81.704L83.5979 167.194H88.1523L78.7955 145.188L78.7279 144.985ZM80.3287 158.829H76.0674L78.2319 153.53L80.3287 158.829Z" fill="#FDFDFD"/>
<path d="M103.755 147.42C102.019 146.36 99.7865 145.842 97.1485 145.842H90.9257V167.193H98.1406C100.034 167.193 101.816 166.765 103.439 165.908C105.062 165.051 106.37 163.834 107.34 162.255C108.309 160.677 108.805 158.851 108.805 156.777C108.805 154.905 108.399 153.147 107.61 151.478C106.776 149.855 105.491 148.479 103.755 147.42ZM104.702 156.574C104.702 157.994 104.386 159.234 103.8 160.249C103.214 161.263 102.357 162.03 101.297 162.548C100.215 163.067 98.9523 163.338 97.5318 163.338H94.9165V149.674H98.0504C99.1326 149.674 100.192 149.922 101.207 150.418C102.221 150.892 103.056 151.659 103.71 152.696C104.363 153.71 104.702 155.018 104.702 156.574Z" fill="#FDFDFD"/>
<path d="M116.628 158.4H125.895V154.544H116.628V149.697H127.022V145.842H112.615V167.216H127.428V163.338H116.628V158.4Z" fill="#FDFDFD"/>
<path d="M152.41 145.098L142.084 159.46L132.05 145.255L131.915 145.098H131.397V167.216H135.297V156.439L141.745 165.389L141.926 165.525H142.264L149.005 155.965V167.216H152.973V145.436L152.906 145.098H152.41Z" fill="#FDFDFD"/>
<path d="M165.622 155.649L160.481 145.842H155.634L163.525 160.249V167.216H167.493V160.249L175.475 145.842H170.627L165.622 155.649Z" fill="#FDFDFD"/>
</svg>
