<svg width="57" height="41" viewBox="0 0 57 41" fill="none" xmlns="http://www.w3.org/2000/svg">
<path d="M56.6328 30.3813H0V30.9713H56.6328V30.3813Z" fill="white"/>
<path d="M4.13432 34.3799V35.5436H2.64252V40.4979H1.43327V35.5436H3.05176e-05V34.3799H4.13432Z" fill="white"/>
<path d="M4.92926 35.8939C5.21034 35.412 5.58951 35.028 6.07117 34.7432C6.55135 34.4571 7.07253 34.314 7.63324 34.314C8.19394 34.314 8.71512 34.4571 9.19531 34.7432C9.67549 35.028 10.0591 35.412 10.346 35.8939C10.6329 36.3757 10.7749 36.8941 10.7749 37.4489C10.7749 38.014 10.6329 38.5353 10.346 39.0113C10.0591 39.4873 9.67549 39.8655 9.19531 40.1458C8.71366 40.4247 8.19394 40.5649 7.63324 40.5649C7.06667 40.5649 6.54403 40.4247 6.06677 40.1458C5.58952 39.8655 5.21034 39.4873 4.92926 39.0113C4.64817 38.5353 4.50909 38.014 4.50909 37.4489C4.50909 36.8941 4.64964 36.3757 4.92926 35.8939ZM6.01261 38.4287C6.18243 38.728 6.41374 38.9645 6.70507 39.1398C6.99787 39.315 7.31994 39.4011 7.67569 39.4011C8.01973 39.4011 8.33449 39.315 8.61703 39.1398C8.89958 38.9645 9.12211 38.7295 9.28461 38.4331C9.44565 38.1366 9.52617 37.8096 9.52617 37.4489C9.52617 37.0824 9.44272 36.751 9.27583 36.4516C9.10893 36.1523 8.88202 35.9158 8.59654 35.7405C8.3096 35.5653 7.99191 35.4792 7.64202 35.4792C7.29213 35.4792 6.97444 35.5653 6.6875 35.7405C6.40056 35.9158 6.17511 36.1523 6.00821 36.4516C5.84132 36.751 5.75787 37.0824 5.75787 37.4489C5.75934 37.8023 5.84425 38.1293 6.01261 38.4287Z" fill="white"/>
<path d="M15.3763 34.9323C15.7877 35.3003 15.9926 35.804 15.9926 36.4406C15.9926 36.8057 15.9224 37.1488 15.7804 37.4671C15.6384 37.7854 15.4085 38.0468 15.0879 38.2527C14.7687 38.4586 14.3559 38.5608 13.8508 38.5608H12.9842V40.497H11.7749V34.3789H13.6327C14.3837 34.3789 14.9649 34.5643 15.3763 34.9323ZM14.3925 37.235C14.5316 37.1313 14.6311 37.0116 14.6926 36.8728C14.7541 36.7341 14.7834 36.6013 14.7834 36.4742C14.7834 36.2581 14.7204 36.0493 14.5916 35.8464C14.4642 35.6449 14.2168 35.5441 13.8508 35.5441H12.9842V37.3897H13.842C14.0704 37.3883 14.2534 37.3372 14.3925 37.235Z" fill="white"/>
<path d="M23.0856 34.3789V35.5426H21.5938V40.497H20.3846V35.5426H18.9514V34.3789H23.0856Z" fill="white"/>
<path d="M27.3517 40.497L26.0605 38.552H25.2523V40.497H24.0431V34.3789H25.9009C26.6622 34.3789 27.2521 34.5629 27.6723 34.9323C28.0925 35.3003 28.3018 35.804 28.3018 36.4406C28.3018 36.8174 28.2228 37.1707 28.0646 37.4993C27.9065 37.8293 27.6621 38.0892 27.3356 38.2775L28.76 40.497H27.3517ZM25.2523 37.3883H26.1102C26.4382 37.3883 26.6768 37.2919 26.8276 37.1021C26.9769 36.9108 27.0516 36.7049 27.0516 36.483C27.0516 36.261 26.9886 36.0493 26.8598 35.8464C26.7324 35.6449 26.485 35.5441 26.119 35.5441H25.2523V37.3883Z" fill="white"/>
<path d="M32.9177 39.3013H30.8843L30.3836 40.4986H29.1919L31.9588 34.1396H32.0247L34.7916 40.4986H33.3921L32.9177 39.3013ZM32.5181 38.2879L31.9266 36.8L31.3103 38.2879H32.5181Z" fill="white"/>
<path d="M35.4767 34.3789H37.3097C38.0929 34.3789 38.737 34.5293 39.2421 34.8316C39.7472 35.1338 40.1161 35.5251 40.346 36.0041C40.5758 36.4844 40.6915 36.997 40.6915 37.546C40.6915 38.133 40.5524 38.6513 40.2742 39.0996C39.9961 39.5479 39.6228 39.8939 39.1543 40.1348C38.6843 40.3758 38.169 40.497 37.6083 40.497H35.4753V34.3789H35.4767ZM37.4019 39.3332C38.0299 39.3332 38.5277 39.1726 38.8937 38.8514C39.2612 38.5301 39.4442 38.0673 39.4442 37.4628C39.4442 36.9751 39.3431 36.5881 39.1396 36.299C38.9361 36.0099 38.7004 35.8113 38.4311 35.7003C38.1617 35.5894 37.907 35.5339 37.6683 35.5339H36.6845V39.3332H37.4019Z" fill="white"/>
<path d="M45.8769 34.3804V35.5441H42.9021V36.848H45.5344V38.0118H42.9021V39.3332H45.9941V40.4969H41.6943V34.3789H45.8769V34.3804Z" fill="white"/>
<path d="M50.3435 40.497L49.0523 38.552H48.2442V40.497H47.0349V34.3789H48.8927C49.654 34.3789 50.244 34.5629 50.6641 34.9323C51.0843 35.3003 51.2936 35.804 51.2936 36.4406C51.2936 36.8174 51.2146 37.1707 51.0565 37.4993C50.8984 37.8293 50.6539 38.0892 50.3274 38.2775L51.7519 40.497H50.3435ZM48.2442 37.3883H49.1021C49.43 37.3883 49.6686 37.2919 49.8194 37.1021C49.9687 36.9108 50.0434 36.7049 50.0434 36.483C50.0434 36.261 49.9805 36.0493 49.8516 35.8464C49.7243 35.6449 49.4768 35.5441 49.1108 35.5441H48.2442V37.3883Z" fill="white"/>
<path d="M54.4281 35.4189C54.1616 35.4189 53.9538 35.4715 53.8074 35.5766C53.6595 35.6817 53.5863 35.8394 53.5863 36.0497C53.5863 36.2439 53.6932 36.4147 53.9069 36.5607C54.1207 36.7082 54.4061 36.8469 54.7619 36.9798C55.0503 37.0849 55.2977 37.2061 55.5027 37.3419C55.7076 37.4777 55.8789 37.6646 56.015 37.9026C56.1512 38.1406 56.22 38.4429 56.22 38.8079C56.22 39.1233 56.138 39.4153 55.9741 39.684C55.8101 39.9541 55.57 40.1659 55.2523 40.325C54.9361 40.4827 54.5569 40.5616 54.1192 40.5616C53.7532 40.5616 53.3887 40.5075 53.0285 40.3995C52.6669 40.2914 52.3317 40.1264 52.0198 39.9045L52.5527 38.9656C52.7635 39.1204 53.0051 39.2474 53.2774 39.3482C53.5497 39.4475 53.7942 39.4971 54.0109 39.4971C54.2671 39.4971 54.4881 39.4431 54.677 39.335C54.8658 39.227 54.9595 39.0518 54.9595 38.8079C54.9595 38.4925 54.6623 38.218 54.0679 37.9844C53.7181 37.8457 53.4253 37.7128 53.1925 37.5858C52.9582 37.4587 52.7577 37.2762 52.5879 37.0367C52.418 36.7987 52.3346 36.4994 52.3346 36.1388C52.3346 35.6131 52.5073 35.1882 52.8558 34.867C53.2027 34.5457 53.6654 34.3705 54.2436 34.3428C54.6989 34.3428 55.0796 34.3939 55.3855 34.4975C55.69 34.5998 55.9872 34.7458 56.2771 34.9341L55.8189 35.857C55.286 35.5664 54.8234 35.4189 54.4281 35.4189Z" fill="white"/>
<path d="M10.2068 14.4424H8.43396V26.0769H10.2068V14.4424Z" fill="white"/>
<path d="M22.4384 7.03857H20.6655V19.5696H22.4384V7.03857Z" fill="white"/>
<path d="M28.593 19.5679H26.8201V26.9065H28.593V19.5679Z" fill="white"/>
<path d="M28.593 0.222168H26.8201V3.06755H28.593V0.222168Z" fill="white"/>
<path d="M34.7477 6.77441H32.9748V19.5697H34.7477V6.77441Z" fill="white"/>
<path d="M30.2122 20.506H25.1995V1.85986H30.2122V20.506ZM26.9709 18.7378H28.4393V3.62811H26.9709V18.7378Z" fill="white"/>
<path d="M24.0591 26.9609H19.045V18.7402H24.0577V26.9609H24.0591ZM20.8179 25.1941H22.2862V20.507H20.8179V25.1941Z" fill="white"/>
<path d="M10.9403 22.9492H7.69904V26.0769H10.9403V22.9492Z" fill="white"/>
<path d="M11.826 26.9589H6.81329V22.063H11.826V26.9589ZM8.58618 25.1921H10.0546V23.8312H8.58618V25.1921Z" fill="white"/>
<path d="M36.3669 26.9609H31.3542V18.7402H36.3669V26.9609ZM33.1257 25.1941H34.594V20.507H33.1257V25.1941Z" fill="white"/>
<path d="M16.5839 18.4307H14.811V26.9075H16.5839V18.4307Z" fill="white"/>
<path d="M16.5839 5.91113H14.811V8.18744H16.5839V5.91113Z" fill="white"/>
<path d="M3.82827 22.9839H2.05539V26.9081H3.82827V22.9839Z" fill="white"/>
<path d="M3.82827 13.3086H2.05539V15.5849H3.82827V13.3086Z" fill="white"/>
<path d="M5.44884 23.7868H0.436157V14.7397H5.44884V23.7868ZM2.20758 22.0201H3.67595V16.5065H2.20758V22.0201Z" fill="white"/>
<path d="M47.8445 14.4424H46.0717V26.0769H47.8445V14.4424Z" fill="white"/>
<path d="M54.2216 22.9839H52.4487V26.9081H54.2216V22.9839Z" fill="white"/>
<path d="M54.2216 13.3086H52.4487V16.154H54.2216V13.3086Z" fill="white"/>
<path d="M41.4674 18.9995H39.6945V26.9073H41.4674V18.9995Z" fill="white"/>
<path d="M41.4674 5.91113H39.6945V7.61836H41.4674V5.91113Z" fill="white"/>
<path d="M55.8422 23.8779H50.8295V14.7388H55.8422V23.8779ZM52.6009 22.1096H54.0693V16.507H52.6009V22.1096Z" fill="white"/>
<path d="M43.0864 19.6741H38.0737V6.99561H43.0864V19.6741ZM39.8452 17.9059H41.3135V8.76385H39.8452V17.9059Z" fill="white"/>
<path d="M18.2032 19.6741H13.1906V6.99561H18.2032V19.6741ZM14.9634 17.9059H16.4318V8.76385H14.9634V17.9059Z" fill="white"/>
<path d="M48.5779 22.9492H45.3367V26.0769H48.5779V22.9492Z" fill="white"/>
<path d="M49.4651 26.9589H44.4524V22.063H49.4651V26.9589ZM46.2238 25.1921H47.6922V23.8312H46.2238V25.1921Z" fill="white"/>
</svg>
