<svg width="53" height="60" viewBox="0 0 53 60" fill="none" xmlns="http://www.w3.org/2000/svg">
<path d="M13.4107 24.4969L26.807 37.8932L30.211 34.4892L19.9991 24.2773L29.9914 14.285L26.807 11.1006L13.4107 24.4969Z" fill="white"/>
<path d="M39.6543 14.1754L26.258 27.5717L22.854 24.1677L33.066 13.9558L23.0736 3.96342L26.258 0.779053L39.6543 14.1754Z" fill="white"/>
<path d="M1.83595 45.3428H0V44.7753H4.4814V45.3428H2.65379V50.1914H1.83595V45.3428Z" fill="white"/>
<path d="M7.50205 50.2749C5.98878 50.2749 5.23214 49.7853 5.23214 48.8061V46.2441C5.23214 45.2093 5.98878 44.6919 7.50205 44.6919C9.03201 44.6919 9.79699 45.2065 9.79699 46.2358V48.8061C9.79699 49.3291 9.58558 49.7046 9.16275 49.9327C8.73993 50.1608 8.18636 50.2749 7.50205 50.2749ZM7.51874 49.7324C8.5146 49.7324 9.01254 49.4209 9.01254 48.7978V46.2191C9.01254 45.5515 8.51182 45.2176 7.51039 45.2176C7.02637 45.2176 6.65361 45.2928 6.39213 45.443C6.13621 45.5932 6.00825 45.8519 6.00825 46.2191V48.7978C6.00825 49.4209 6.51175 49.7324 7.51874 49.7324Z" fill="white"/>
<path d="M11.0464 44.7753H12.8156C13.0659 44.7753 13.2662 44.7809 13.4164 44.792C13.5722 44.8032 13.7363 44.8282 13.9088 44.8671C14.0868 44.9061 14.2287 44.9645 14.3344 45.0424C14.4457 45.1203 14.5402 45.226 14.6181 45.3595C14.6905 45.4875 14.7266 45.6488 14.7266 45.8435V46.9701C14.7266 47.4208 14.5514 47.7463 14.2009 47.9465C13.8559 48.1413 13.3441 48.2386 12.6653 48.2386H11.8559V50.1914H11.0464V44.7753ZM12.7738 47.7296C13.1243 47.7296 13.4053 47.6656 13.6167 47.5376C13.8281 47.4097 13.9338 47.2066 13.9338 46.9284V45.9437C13.9338 45.7935 13.8949 45.6711 13.817 45.5765C13.7391 45.4763 13.6278 45.4068 13.4832 45.3679C13.3441 45.3345 13.2273 45.3122 13.1327 45.3011C13.0381 45.29 12.9129 45.2844 12.7571 45.2844H11.8475V47.7296H12.7738Z" fill="white"/>
<path d="M19.0643 45.3428H17.2284V44.7753H21.7098V45.3428H19.8822V50.1914H19.0643V45.3428Z" fill="white"/>
<path d="M22.6107 44.7753H24.5134C24.9919 44.7753 25.3646 44.8059 25.6317 44.8671C25.9043 44.9228 26.1018 45.0257 26.2242 45.1759C26.3522 45.3261 26.4162 45.5459 26.4162 45.8352V46.7699C26.4162 47.0925 26.2826 47.3429 26.0156 47.5209C25.7541 47.6934 25.4203 47.7796 25.0141 47.7796L26.75 50.1914H25.7569L24.2047 47.8798H23.4202V50.1914H22.6107V44.7753ZM24.4801 47.3457C24.8806 47.3457 25.1671 47.2984 25.3396 47.2038C25.5176 47.1037 25.6067 46.9256 25.6067 46.6697V45.9186C25.6067 45.5125 25.2562 45.3094 24.5552 45.3094H23.4202V47.3457H24.4801Z" fill="white"/>
<path d="M29.4608 44.7753H30.3955L32.4985 50.1914H31.6556L31.038 48.5474H28.7181L28.1089 50.1914H27.3077L29.4608 44.7753ZM30.8378 47.9883L29.9198 45.5431H29.8447L28.9267 47.9883H30.8378Z" fill="white"/>
<path d="M33.3275 44.7753H35.4806C36.9994 44.7753 37.7588 45.2928 37.7588 46.3276V48.7226C37.7588 49.7018 37.0022 50.1914 35.4889 50.1914H33.3275V44.7753ZM35.4305 49.6406C36.4653 49.6406 36.9827 49.3291 36.9827 48.706V46.3192C36.9827 46.1189 36.941 45.9492 36.8575 45.8102C36.7741 45.6711 36.6573 45.5681 36.507 45.5014C36.3568 45.4402 36.2011 45.3985 36.0397 45.3762C35.8784 45.3484 35.6892 45.3345 35.4722 45.3345H34.137V49.6406H35.4305Z" fill="white"/>
<path d="M38.9915 44.7753H42.63V45.3428H39.801V47.112H42.3546V47.6795H39.801V49.6239H42.7135V50.1914H38.9915V44.7753Z" fill="white"/>
<path d="M43.8324 44.7753H45.7351C46.2136 44.7753 46.5863 44.8059 46.8534 44.8671C47.126 44.9228 47.3235 45.0257 47.4459 45.1759C47.5739 45.3261 47.6378 45.5459 47.6378 45.8352V46.7699C47.6378 47.0925 47.5043 47.3429 47.2373 47.5209C46.9758 47.6934 46.642 47.7796 46.2358 47.7796L47.9717 50.1914H46.9786L45.4263 47.8798H44.6419V50.1914H43.8324V44.7753ZM45.7017 47.3457C46.1023 47.3457 46.3888 47.2984 46.5613 47.2038C46.7393 47.1037 46.8284 46.9256 46.8284 46.6697V45.9186C46.8284 45.5125 46.4779 45.3094 45.7769 45.3094H44.6419V47.3457H45.7017Z" fill="white"/>
<path d="M50.6658 50.2749C50.204 50.2749 49.6532 50.2304 49.0134 50.1413V49.4654C49.6588 49.6045 50.2263 49.674 50.7159 49.674C51.1276 49.674 51.428 49.6295 51.6172 49.5405C51.8063 49.4459 51.9009 49.2734 51.9009 49.0231V48.3221C51.9009 48.0884 51.8341 47.9243 51.7006 47.8297C51.5671 47.7351 51.3334 47.6878 50.9996 47.6878H50.3654C49.8368 47.6878 49.4613 47.5821 49.2388 47.3707C49.0162 47.1593 48.9049 46.8311 48.9049 46.386V45.952C48.9049 45.6572 48.9689 45.4179 49.0969 45.2343C49.2304 45.0507 49.4502 44.9144 49.7562 44.8254C50.0677 44.7364 50.4933 44.6919 51.033 44.6919C51.3946 44.6919 51.8592 44.7225 52.4266 44.7837V45.3929C51.7924 45.2983 51.3084 45.251 50.9746 45.251C50.4572 45.251 50.115 45.3011 49.9481 45.4012C49.7756 45.5069 49.6894 45.6822 49.6894 45.927V46.5445C49.6894 46.7337 49.7562 46.8728 49.8897 46.9618C50.0288 47.0453 50.2652 47.087 50.599 47.087H51.25C51.6227 47.087 51.912 47.1315 52.1179 47.2205C52.3293 47.3095 52.4767 47.4458 52.5602 47.6294C52.6492 47.8075 52.6937 48.0495 52.6937 48.3555V48.7477C52.6937 49.1316 52.6214 49.4348 52.4767 49.6573C52.3376 49.8799 52.1207 50.0384 51.8258 50.133C51.5309 50.2276 51.1443 50.2749 50.6658 50.2749Z" fill="white"/>
<path d="M4.75617 54.4383H8.88706V55.3646H6.05803V56.608H8.61167V57.5343H6.05803V58.928H8.97052V59.8543H4.75617V54.4383Z" fill="white"/>
<path d="M11.3435 57.092L9.43244 54.4383H10.9346L12.0946 56.2408L13.2462 54.4383H14.7484L12.8373 57.092L14.8402 59.8543H13.3297L12.0946 57.9349L10.8511 59.8543H9.34899L11.3435 57.092Z" fill="white"/>
<path d="M17.8925 59.9378C17.6477 59.9378 17.4279 59.9266 17.2332 59.9044C17.0441 59.8821 16.8354 59.8404 16.6073 59.7792C16.3514 59.7125 16.14 59.6262 15.9731 59.5205C15.8062 59.4092 15.6671 59.2562 15.5558 59.0615C15.439 58.8668 15.3806 58.6359 15.3806 58.3689V55.9905C15.3806 54.9 16.2179 54.3548 17.8925 54.3548C18.3209 54.3548 18.8939 54.416 19.6116 54.5384V55.5148C18.9662 55.359 18.3988 55.2811 17.9092 55.2811C17.7033 55.2811 17.542 55.2867 17.4252 55.2978C17.3139 55.3089 17.1971 55.3368 17.0747 55.3813C16.8132 55.4703 16.6824 55.6678 16.6824 55.9738V58.2771C16.6824 58.7667 17.1303 59.0115 18.026 59.0115C18.4099 59.0115 18.9496 58.9308 19.645 58.7694V59.7542C19.0497 59.8766 18.4655 59.9378 17.8925 59.9378Z" fill="white"/>
<path d="M20.4768 54.4383H21.7787V56.608H24.082V54.4383H25.3839V59.8543H24.082V57.5343H21.7787V59.8543H20.4768V54.4383Z" fill="white"/>
<path d="M27.9837 54.4383H29.5693L31.5221 59.8543H30.2036L29.7195 58.4273H27.7417L27.266 59.8543H25.9809L27.9837 54.4383ZM29.4358 57.5594L28.7515 55.5231H28.7181L28.0338 57.5594H29.4358Z" fill="white"/>
<path d="M32.1227 54.4383H33.4412L36.0617 58.1352V54.4383H37.2216V59.8543H35.9031L33.2827 56.099V59.8543H32.1227V54.4383Z" fill="white"/>
<path d="M40.9685 59.9378C40.6569 59.9378 40.3815 59.9239 40.1423 59.896C39.903 59.8682 39.6666 59.8209 39.4329 59.7542C39.1826 59.6874 38.9767 59.5984 38.8154 59.4871C38.654 59.3703 38.5233 59.2201 38.4232 59.0365C38.323 58.8418 38.2729 58.6192 38.2729 58.3689V56.1157C38.2729 55.843 38.3286 55.5982 38.4398 55.3813C38.5511 55.1587 38.7013 54.9835 38.8905 54.8555C39.0685 54.7387 39.2799 54.6385 39.5247 54.5551C39.7751 54.4716 40.0199 54.416 40.2591 54.3882C40.4594 54.3659 40.7014 54.3548 40.9851 54.3548C41.7529 54.3548 42.4873 54.4132 43.1883 54.5301V55.5148C42.5429 55.359 41.8085 55.2811 40.9851 55.2811C40.0449 55.2811 39.5748 55.5537 39.5748 56.099V58.2771C39.5748 58.5441 39.7 58.7333 39.9503 58.8445C40.2063 58.9558 40.5901 59.0115 41.102 59.0115C41.3746 59.0115 41.6667 58.9697 41.9782 58.8863V57.6261H41.0936V56.7749H43.2217V59.5873C42.9435 59.6874 42.5874 59.7709 42.1535 59.8376C41.7251 59.9044 41.3301 59.9378 40.9685 59.9378Z" fill="white"/>
<path d="M44.2738 54.4383H48.4047V55.3646H45.5757V56.608H48.1293V57.5343H45.5757V58.928H48.4882V59.8543H44.2738V54.4383Z" fill="white"/>
</svg>
