<?xml version="1.0" ?><svg enable-background="new 0 0 512 512" version="1.1" viewBox="0 0 512 512" xml:space="preserve" xmlns="http://www.w3.org/2000/svg" xmlns:xlink="http://www.w3.org/1999/xlink"><g id="Layer_4"><path d="   M319,448H124c-33,0-60-27-60-60V124c0-33,27-60,60-60h264c33,0,60,27,60,60v264c0,33-27,60-60,60h-25" fill="none" stroke="#fff" stroke-linecap="round" stroke-linejoin="round" stroke-miterlimit="10" stroke-width="15"/><path clip-rule="evenodd" d="   M236,262.91c-3.96-4.39-7.52-9.24-10.71-14.54c-1.73-2.66-1.42-4.75,0.67-7.22c3.1-3.65,6.99-7.79,7.83-12.72   c0.83-4.92-1.47-10.67-3.5-15.04c-2.6-5.6-5.51-13.57-11.11-16.75c-5.15-2.91-11.95-1.28-16.53,2.46   c-7.92,6.46-11.75,16.57-11.63,26.6c0.03,2.85,0.38,5.68,1.04,8.44c1.6,6.6,4.65,12.78,8.09,18.65c2.59,4.42,5.41,8.71,8.46,12.84   c9.94,13.52,22.32,25.26,36.65,34.04c7.16,4.38,14.87,8.22,22.85,10.86c8.95,2.96,16.94,6.05,26.61,4.21   c10.12-1.93,20.11-8.19,24.12-17.94c1.19-2.89,1.78-6.12,1.11-9.16c-1.37-6.32-9.91-10.06-15.01-13.12   c-5.48-3.28-12.62-6.94-19.07-4.3c-4.96,2.03-8.12,9.78-11.33,13.74c-1.65,2.04-3.62,2.35-6.14,1.33   c-5.75-2.29-11.08-5.06-16.01-8.29" fill="none" fill-rule="evenodd" stroke="#fff" stroke-linecap="round" stroke-linejoin="round" stroke-miterlimit="10" stroke-width="14"/><path d="   M166.6,316.6l-10.8,40.26L196.3,346l4.57,2.73c16.76,9.98,35.82,15.27,55.13,15.27c59.55,0,108-48.45,108-108   c0-24.84-8.43-47.74-22.57-66 M318.54,168c-17.66-12.59-39.25-20-62.55-20C196.45,148,148,196.45,148,256   c0,13.36,2.52,26.58,7.37,39" fill="none" stroke="#fff" stroke-linecap="round" stroke-linejoin="round" stroke-miterlimit="10" stroke-width="14"/></g><g id="Layer_1"/></svg>