<svg width="28" height="28" viewBox="0 0 28 28" fill="none" xmlns="http://www.w3.org/2000/svg">
<path d="M14.0584 26.4367C21.0491 26.4367 26.7162 20.6927 26.7162 13.6071C26.7162 6.52157 21.0491 0.777588 14.0584 0.777588C7.06771 0.777588 1.40063 6.52157 1.40063 13.6071C1.40063 17.1419 3.63436 19.6446 2.88982 24.1727C5.12346 23.418 10.5552 26.4367 14.0584 26.4367Z" fill="black"/>
<path fill-rule="evenodd" clip-rule="evenodd" d="M14.0444 26.9577H14.0499C21.3731 26.9547 27.3293 20.9163 27.3322 13.4952C27.3336 9.898 25.9533 6.51561 23.4456 3.97101C20.9379 1.42628 17.6029 0.0242594 14.0497 0.0227051C6.72859 0.0227051 0.770097 6.06174 0.767183 13.4845C0.766186 15.8573 1.37781 18.1732 2.54017 20.215L0.655823 27.1912L7.69703 25.3191C9.63707 26.3916 11.8214 26.9569 14.0444 26.9577ZM8.42653 23.1244L8.02341 22.8819L3.84505 23.9928L4.96032 19.8637L4.69783 19.4403C3.59272 17.6588 3.00906 15.5997 3.00992 13.4853C3.01233 7.31587 7.96482 2.29662 14.0543 2.29662C17.0031 2.29765 19.7749 3.46303 21.8593 5.57811C23.9436 7.69319 25.0908 10.5045 25.0897 13.4944C25.0872 19.6643 20.1348 24.6841 14.05 24.6841H14.0455C12.0645 24.6833 10.1215 24.1439 8.42653 23.1244Z" fill="black"/>
<path d="M20.7416 16.6967C20.6587 16.5564 20.4374 16.4722 20.1056 16.3038C19.7737 16.1354 18.142 15.3217 17.8377 15.2094C17.5336 15.0971 17.3122 15.0411 17.091 15.3777C16.8698 15.7144 16.2338 16.4722 16.0402 16.6967C15.8465 16.9212 15.6529 16.9493 15.3212 16.7809C14.9893 16.6125 13.9199 16.2574 12.6522 15.1113C11.6656 14.2193 10.9995 13.1178 10.8059 12.781C10.6123 12.4442 10.7853 12.2622 10.9514 12.0945C11.1008 11.9437 11.2833 11.7015 11.4493 11.5051C11.6152 11.3088 11.6705 11.1683 11.7811 10.944C11.8918 10.7194 11.8365 10.523 11.7535 10.3546C11.6705 10.1863 11.0068 8.53049 10.7302 7.85694C10.4608 7.201 10.1872 7.28986 9.98351 7.27949C9.79014 7.26965 9.56865 7.26758 9.34742 7.26758C9.12619 7.26758 8.76661 7.35177 8.46241 7.68855C8.1582 8.02532 7.30084 8.83915 7.30084 10.4948C7.30084 12.1506 8.49005 13.7501 8.656 13.9746C8.82193 14.1992 10.9962 17.5968 14.3255 19.0539C15.1173 19.4005 15.7355 19.6075 16.2175 19.7625C17.0125 20.0186 17.7361 19.9825 18.3079 19.8958C18.9456 19.7993 20.2714 19.0821 20.5481 18.2964C20.8245 17.5105 20.8245 16.837 20.7416 16.6967Z" fill="white"/>
</svg>
