<svg width="36" height="36" viewBox="0 0 36 36" fill="none" xmlns="http://www.w3.org/2000/svg">
<path d="M19 15H23.5L23 17H19V26H17V17H13V15H17V13.128C17 11.345 17.186 10.698 17.534 10.046C17.875 9.40181 18.4018 8.87501 19.046 8.534C19.698 8.186 20.345 8 22.128 8C22.65 8 23.108 8.05 23.5 8.15V10H22.128C20.804 10 20.401 10.078 19.99 10.298C19.686 10.46 19.46 10.686 19.298 10.99C19.078 11.401 19 11.804 19 13.128V15Z" fill="white"/>
<circle opacity="0.4" cx="18" cy="18" r="17.5" stroke="white"/>
</svg>
