<svg width="36" height="36" viewBox="0 0 36 36" fill="none" xmlns="http://www.w3.org/2000/svg">
<path d="M18 15.55C18.917 14.613 20.111 14 21.5 14C22.9587 14 24.3576 14.5795 25.3891 15.6109C26.4205 16.6424 27 18.0413 27 19.5V27H25V19.5C25 18.5717 24.6313 17.6815 23.9749 17.0251C23.3185 16.3687 22.4283 16 21.5 16C20.5717 16 19.6815 16.3687 19.0251 17.0251C18.3687 17.6815 18 18.5717 18 19.5V27H16V14.5H18V15.55ZM11 12.5C10.6022 12.5 10.2206 12.342 9.93934 12.0607C9.65804 11.7794 9.5 11.3978 9.5 11C9.5 10.6022 9.65804 10.2206 9.93934 9.93934C10.2206 9.65804 10.6022 9.5 11 9.5C11.3978 9.5 11.7794 9.65804 12.0607 9.93934C12.342 10.2206 12.5 10.6022 12.5 11C12.5 11.3978 12.342 11.7794 12.0607 12.0607C11.7794 12.342 11.3978 12.5 11 12.5ZM10 14.5H12V27H10V14.5Z" fill="white"/>
<circle opacity="0.4" cx="18" cy="18" r="17.5" stroke="white"/>
</svg>
