<svg width="36" height="36" viewBox="0 0 36 36" fill="none" xmlns="http://www.w3.org/2000/svg">
<path d="M21.2995 11.5501C20.5395 11.55 19.8098 11.8482 19.2674 12.3807C18.7251 12.9131 18.4134 13.6372 18.3995 14.3971L18.3715 15.9721C18.3699 16.0567 18.3504 16.1399 18.3143 16.2164C18.2782 16.2929 18.2264 16.3609 18.1622 16.416C18.098 16.471 18.0228 16.5119 17.9417 16.5359C17.8606 16.5599 17.7754 16.5664 17.6915 16.5551L16.1305 16.3431C14.0765 16.0631 12.1085 15.1171 10.2205 13.5441C9.62253 16.8541 10.7905 19.1471 13.6035 20.9161L15.3505 22.0141C15.4335 22.0663 15.5025 22.138 15.5514 22.223C15.6003 22.308 15.6276 22.4036 15.6309 22.5016C15.6343 22.5996 15.6136 22.6969 15.5706 22.785C15.5277 22.8731 15.4638 22.9494 15.3845 23.0071L13.7925 24.1701C14.7395 24.2291 15.6385 24.1871 16.3845 24.0391C21.1025 23.0971 24.2395 19.5471 24.2395 13.6911C24.2395 13.2131 23.2275 11.5501 21.2995 11.5501ZM16.3995 14.3601C16.417 13.3962 16.7184 12.4588 17.2661 11.6653C17.8138 10.8719 18.5833 10.2576 19.4784 9.89948C20.3736 9.54133 21.3544 9.45519 22.2983 9.65186C23.2421 9.84853 24.107 10.3193 24.7845 11.0051C25.4955 11.0001 26.1005 11.1801 27.4535 10.3601C27.1185 12.0001 26.9535 12.7121 26.2395 13.6911C26.2395 21.3331 21.5425 25.0491 16.7765 26.0001C13.5085 26.6521 8.75653 25.5811 7.39453 24.1591C8.08853 24.1051 10.9085 23.8021 12.5385 22.6091C11.1595 21.7001 5.67053 18.4701 9.27753 9.78611C10.9705 11.7631 12.6875 13.1091 14.4275 13.8231C15.5855 14.2981 15.8695 14.2881 16.4005 14.3611L16.3995 14.3601Z" fill="white"/>
<circle opacity="0.4" cx="18" cy="18" r="17.5" stroke="white"/>
</svg>
