<svg width="36" height="36" viewBox="0 0 36 36" fill="none" xmlns="http://www.w3.org/2000/svg">
<path d="M25.606 12.995C25.53 12.697 25.314 12.472 25.067 12.403C24.63 12.28 22.5 12 18 12C13.5 12 11.372 12.28 10.931 12.403C10.687 12.471 10.471 12.696 10.394 12.995C10.285 13.419 10 15.196 10 18C10 20.804 10.285 22.58 10.394 23.006C10.47 23.303 10.686 23.528 10.932 23.596C11.372 23.72 13.5 24 18 24C22.5 24 24.629 23.72 25.069 23.597C25.313 23.529 25.529 23.304 25.606 23.005C25.715 22.581 26 20.8 26 18C26 15.2 25.715 13.42 25.606 12.995ZM27.543 12.498C28 14.28 28 18 28 18C28 18 28 21.72 27.543 23.502C27.289 24.487 26.546 25.262 25.605 25.524C23.896 26 18 26 18 26C18 26 12.107 26 10.395 25.524C9.45 25.258 8.708 24.484 8.457 23.502C8 21.72 8 18 8 18C8 18 8 14.28 8.457 12.498C8.711 11.513 9.454 10.738 10.395 10.476C12.107 10 18 10 18 10C18 10 23.896 10 25.605 10.476C26.55 10.742 27.292 11.516 27.543 12.498ZM16 21.5V14.5L22 18L16 21.5Z" fill="white"/>
<circle opacity="0.4" cx="18" cy="18" r="17.5" stroke="white"/>
</svg>
