<svg xmlns="http://www.w3.org/2000/svg" viewBox="0 0 144.47 144.47" width="144" height="144"><defs><style>.cls-1{fill:#fff;}</style></defs><g id="Слой_2" data-name="Слой 2"><g id="Home"><path d="M140.56,50a71.82,71.82,0,1,0-46.12,90.49A71.82,71.82,0,0,0,140.56,50"/><path d="M49.93,3.54a72.23,72.23,0,0,0-46.36,91,72.21,72.21,0,1,0,46.36-91M39.83,135.86a71.43,71.43,0,1,1,54.49,4.28,71,71,0,0,1-54.49-4.28"/><path d="M137.83,50.91A69,69,0,1,0,93.56,137.8a69,69,0,0,0,44.27-86.89"/><path class="cls-1" d="M50.82,6.26A69.35,69.35,0,0,0,93.68,138.18,69.35,69.35,0,0,0,103.74,10.43,68.93,68.93,0,0,0,50.82,6.26M7.05,93.41a68.57,68.57,0,0,1,96.33-82.28A68.56,68.56,0,1,1,7.05,93.41"/><path d="M126.29,54.66a56.82,56.82,0,1,0-36.48,71.6,56.82,56.82,0,0,0,36.48-71.6"/><path class="cls-1" d="M54.57,17.8a57.22,57.22,0,1,0,72.1,36.74A56.86,56.86,0,0,0,54.57,17.8M46.64,122.49a56.42,56.42,0,1,1,43.05,3.39,56,56,0,0,1-43-3.39"/><path d="M124,55.42a54.38,54.38,0,1,0-34.92,68.51A54.38,54.38,0,0,0,124,55.42"/><path class="cls-1" d="M55.33,20.13a54.77,54.77,0,1,0,69,35.17,54.4,54.4,0,0,0-69-35.17M20.92,88.9a54,54,0,1,1,68,34.66,53.6,53.6,0,0,1-68-34.66"/><polygon class="cls-1" points="76 8.08 66.96 8.08 74.28 13.39 71.48 4.8 68.69 13.39 76 8.08"/><polygon class="cls-1" points="53.78 10.68 45.28 13.77 53.97 16.26 48.41 9.14 48.72 18.18 53.78 10.68"/><polygon class="cls-1" points="33.78 20.72 26.86 26.53 35.88 25.9 28.21 21.11 31.6 29.5 33.78 20.72"/><polygon class="cls-1" points="18.43 37 13.91 44.83 22.17 41.15 13.32 39.27 19.37 45.99 18.43 37"/><polygon class="cls-1" points="9.57 57.54 8 66.44 14.5 60.16 5.55 61.43 13.53 65.67 9.57 57.54"/><polygon class="cls-1" points="8.27 79.88 9.84 88.78 13.8 80.66 5.81 84.9 14.77 86.16 8.27 79.88"/><polygon class="cls-1" points="14.69 101.31 19.2 109.14 20.15 100.15 14.1 106.87 22.94 104.99 14.69 101.31"/><polygon class="cls-1" points="28.04 119.26 34.97 125.07 32.78 116.3 29.39 124.68 37.06 119.89 28.04 119.26"/><polygon class="cls-1" points="46.74 131.56 55.23 134.65 50.18 127.15 49.86 136.19 55.43 129.06 46.74 131.56"/><polygon class="cls-1" points="90.73 134.12 99.22 131.03 90.53 128.53 96.1 135.66 95.79 126.62 90.73 134.12"/><polygon class="cls-1" points="110.72 124.08 117.65 118.27 108.63 118.9 116.29 123.69 112.91 115.31 110.72 124.08"/><polygon class="cls-1" points="126.08 107.81 130.59 99.98 122.34 103.66 131.18 105.53 125.13 98.81 126.08 107.81"/><polygon class="cls-1" points="134.94 87.26 136.51 78.36 130.01 84.64 138.96 83.39 130.97 79.14 134.94 87.26"/><polygon class="cls-1" points="136.24 64.93 134.67 56.03 130.71 64.15 138.69 59.91 129.74 58.65 136.24 64.93"/><polygon class="cls-1" points="129.82 43.5 125.3 35.67 124.36 44.66 130.41 37.94 121.56 39.82 129.82 43.5"/><polygon class="cls-1" points="116.47 25.55 109.54 19.74 111.73 28.52 115.11 20.13 107.45 24.92 116.47 25.55"/><polygon class="cls-1" points="97.78 13.26 89.28 10.17 94.34 17.66 94.65 8.63 89.08 15.74 97.78 13.26"/><polygon class="cls-1" points="69.57 135.15 78.06 138.24 73.01 130.75 72.69 139.78 78.26 132.66 69.57 135.15"/><polygon class="cls-1" points="28.63 73.48 23.56 73.51 23.58 75.55 22.24 75.56 22.2 69.97 23.55 69.96 23.56 71.99 28.62 71.96 28.63 73.48"/><polygon class="cls-1" points="28.64 69.4 22.3 68.56 22.5 67.07 24.83 67.37 25.15 64.93 22.82 64.62 23.02 63.14 29.36 63.97 29.16 65.46 26.5 65.11 26.18 67.55 28.84 67.91 28.64 69.4"/><polygon class="cls-1" points="29.66 62.74 23.49 61.09 24.51 57.28 25.78 57.62 25.14 59.99 26.26 60.29 26.8 58.26 28.07 58.6 27.52 60.63 28.75 60.96 29.39 58.55 30.69 58.9 29.66 62.74"/><path class="cls-1" d="M31.9,55.61l-5.79-2.72.7-1.49a5.37,5.37,0,0,1,.61-1.07,2.23,2.23,0,0,1,.64-.55,1.8,1.8,0,0,1,.81-.23,1.73,1.73,0,0,1,.81.16,1.89,1.89,0,0,1,.82.73,2,2,0,0,1,.27,1.1L34.09,51l-.75,1.57-3,.48-.1.2,2.28,1.07Zm-4-3.8-.11.23,1.6.75.14-.29a1.41,1.41,0,0,0,.17-.9.83.83,0,0,0-.48-.56.76.76,0,0,0-.73,0,1.79,1.79,0,0,0-.59.78"/><path class="cls-1" d="M29.73,45.9l2.95,1.92a2.15,2.15,0,0,0,1.24.43,1.08,1.08,0,0,0,.86-.56,1.14,1.14,0,0,0,.18-1,1.79,1.79,0,0,0-.78-.89l-3.08-2,.74-1.15,3.08,2a3.09,3.09,0,0,1,1.42,1.77,2.56,2.56,0,0,1-.42,2.08,2.61,2.61,0,0,1-1.73,1.24,3.13,3.13,0,0,1-2.2-.58l-3.08-2Z"/><polygon class="cls-1" points="37.53 45.59 33.54 40.16 33.61 40.08 38.31 41.1 36.77 36.61 36.84 36.53 42.63 39.99 41.65 41.06 39.13 39.49 40.3 42.89 40.23 42.96 36.63 42.17 38.45 44.58 37.53 45.59"/><path class="cls-1" d="M44.34,38.54l-1.19-7.26.07-.06,6.44,3.5-1.3.93-.87-.52-2.11,1.51.21,1Zm.76-3,1.36-1-1.84-1.14Z"/><polygon class="cls-1" points="49.91 34.61 46.86 28.75 46.99 28.68 52.25 30.16 50.62 27.03 51.87 26.38 54.93 32.27 54.82 32.33 49.54 30.87 51.16 33.96 49.91 34.61"/><path class="cls-1" d="M56,31.58l-2.08-6.06L55.5,25a4.26,4.26,0,0,1,2.93-.11,2.91,2.91,0,0,1,1.72,1.89,3.14,3.14,0,0,1,.14,1.62,3.2,3.2,0,0,1-.75,1.46,3,3,0,0,1-.79.66,5.41,5.41,0,0,1-1.17.52Zm1-1.79.32-.11a2.33,2.33,0,0,0,1.32-1,1.69,1.69,0,0,0,.1-1.45,1.71,1.71,0,0,0-1-1.09,2.28,2.28,0,0,0-1.64,0l-.32.11Z"/><path class="cls-1" d="M68.6,24.1a3,3,0,0,0-.92-.52,1.92,1.92,0,0,0-.92-.08,1.73,1.73,0,0,0-1.24.73,2,2,0,0,0-.31,1.5,2,2,0,0,0,.69,1.34,1.79,1.79,0,0,0,1.4.36,2.56,2.56,0,0,0,.93-.34,3.83,3.83,0,0,0,.88-.73l.13,1.7a3.48,3.48,0,0,1-.83.54,3.64,3.64,0,0,1-1,.28,3.38,3.38,0,0,1-1.1,0,3.12,3.12,0,0,1-1-.39,3.22,3.22,0,0,1-1.1-1,3.76,3.76,0,0,1-.47-2.82,3.12,3.12,0,0,1,.55-1.18,3.3,3.3,0,0,1,2.22-1.3,3.62,3.62,0,0,1,1,0,3.52,3.52,0,0,1,1,.32Z"/><path class="cls-1" d="M69.48,28.36l3.29-6.59h.09L76,28.38h-1.6l-.4-.93H71.44l-.42.93Zm2.4-2h1.68l-.82-2Z"/><path class="cls-1" d="M81.58,24.76a3.26,3.26,0,0,0-.75-.74,2.26,2.26,0,0,0-.86-.33,1.71,1.71,0,0,0-1.39.39,2.26,2.26,0,0,0-.39,2.83,1.79,1.79,0,0,0,1.26.72,2.37,2.37,0,0,0,1-.08,3.65,3.65,0,0,0,1-.47l-.32,1.67a3.19,3.19,0,0,1-1,.3,3.94,3.94,0,0,1-1,0,3.46,3.46,0,0,1-1-.32,3.37,3.37,0,0,1-.87-.64,3.27,3.27,0,0,1-.79-1.31,3.62,3.62,0,0,1-.12-1.55A3.91,3.91,0,0,1,76.76,24a3.36,3.36,0,0,1,.85-1,3.06,3.06,0,0,1,1.17-.58,3.21,3.21,0,0,1,1.31-.08,3.31,3.31,0,0,1,1,.29,3.43,3.43,0,0,1,.87.57Z"/><polygon class="cls-1" points="81.96 29.28 83.68 23.12 85.14 23.52 84.5 25.78 86.88 26.45 87.51 24.19 88.96 24.59 87.23 30.75 85.79 30.35 86.51 27.76 84.14 27.1 83.41 29.68 81.96 29.28"/><path class="cls-1" d="M87.5,30.8l5.65-4.71.09,0,.25,7.32L92,32.81v-1l-2.37-1.05-.76.68Zm3-.89,1.54.68,0-2.17Z"/><path class="cls-1" d="M94.18,36.17l.28-.45a4,4,0,0,0,.47.46,2.74,2.74,0,0,0,.39.3.67.67,0,0,0,.34.11.28.28,0,0,0,.23-.15.27.27,0,0,0,0-.31,1,1,0,0,0-.37-.32l-.08,0s-.06,0-.07-.05l.47-.77.33.21-.21.35.06,0a1.23,1.23,0,0,1,.56.59.8.8,0,0,1-.12.68.71.71,0,0,1-.56.38A1.34,1.34,0,0,1,95.1,37a2.76,2.76,0,0,1-.43-.33,4.19,4.19,0,0,1-.49-.46m5.84-3.8a3,3,0,0,0-.39-1,1.9,1.9,0,0,0-.65-.64,1.72,1.72,0,0,0-1.42-.21A2.26,2.26,0,0,0,96.06,33a1.74,1.74,0,0,0,.85,1.15,2.31,2.31,0,0,0,.94.34,3.67,3.67,0,0,0,1.14,0l-1,1.4a3.27,3.27,0,0,1-1.93-.51,3.8,3.8,0,0,1-.83-.71,3.31,3.31,0,0,1-.73-2.45A3.41,3.41,0,0,1,95,30.71a3.53,3.53,0,0,1,.9-1,3.27,3.27,0,0,1,1.17-.57,3.22,3.22,0,0,1,1.31-.06,3.44,3.44,0,0,1,2.59,2Z"/><path class="cls-1" d="M97.77,36.06,104.45,33l.08.06-1.67,7.13-1.24-1,.27-1-2-1.63L99,37Zm3.14-.08L102.22,37l.61-2.09Z"/><polygon class="cls-1" points="104.5 41.74 110.47 38.61 110.54 38.7 108.83 43.19 113.49 42.34 113.57 42.43 109.27 47.63 108.36 46.5 110.29 44.24 106.76 44.89 106.69 44.81 108.02 41.37 105.36 42.8 104.5 41.74"/><path class="cls-1" d="M109.07,47.39l7.34-.51,0,.09-4.09,6.08-.8-1.38.59-.82-1.3-2.24-1,.11Zm3,1,.85,1.46,1.31-1.73Z"/><path class="cls-1" d="M114.12,52.68A5.31,5.31,0,0,0,114,53.8a2.53,2.53,0,0,0,.18.8,1.06,1.06,0,0,0,.41.52.55.55,0,0,0,.51.05c.24-.11.4-.48.48-1.14q0-.15,0-.24l0-.49a2.78,2.78,0,0,1,.38-1.18,1.75,1.75,0,0,1,.82-.67,1.58,1.58,0,0,1,1.39,0,2.28,2.28,0,0,1,1,1.2,4,4,0,0,1,.21.71,8.85,8.85,0,0,1,.12.91l-1.39.58a4.3,4.3,0,0,0,.07-1,2,2,0,0,0-.12-.72.93.93,0,0,0-.33-.41.47.47,0,0,0-.42,0,.51.51,0,0,0-.24.22,1,1,0,0,0-.12.41l-.09.85a3.8,3.8,0,0,1-.39,1.54,1.71,1.71,0,0,1-.83.71,2,2,0,0,1-1.65,0A2.44,2.44,0,0,1,113,55.15a3.67,3.67,0,0,1-.24-.75,8.87,8.87,0,0,1-.15-.94Z"/><polygon class="cls-1" points="114.75 59.33 119.61 57.91 119.03 55.96 120.31 55.58 121.89 60.94 120.6 61.32 120.03 59.37 115.17 60.8 114.75 59.33"/><polygon class="cls-1" points="115.82 63.31 122.13 62.25 122.78 66.14 121.48 66.36 121.07 63.93 119.94 64.13 120.28 66.2 118.99 66.42 118.64 64.34 117.39 64.55 117.8 67 116.48 67.23 115.82 63.31"/><path class="cls-1" d="M116.58,68.21l6.4-.3.07,1.64a5,5,0,0,1,0,1.23,2,2,0,0,1-.31.79,1.78,1.78,0,0,1-.61.58,1.54,1.54,0,0,1-.78.23,1.76,1.76,0,0,1-1.07-.26,1.87,1.87,0,0,1-.75-.84l-2.66,2.07-.08-1.74,2.43-1.82v-.22l-2.51.12Zm5.31,1.49v-.25l-1.77.08v.32a1.41,1.41,0,0,0,.28.87.75.75,0,0,0,.68.27.74.74,0,0,0,.65-.32,1.73,1.73,0,0,0,.16-1"/><path class="cls-1" d="M118.57,73.61a5.83,5.83,0,0,0-.58,1,2.3,2.3,0,0,0-.2.79,1,1,0,0,0,.12.65.53.53,0,0,0,.44.27c.26,0,.57-.24.94-.79,0-.09.1-.15.13-.2l.28-.42a2.66,2.66,0,0,1,.87-.87,1.76,1.76,0,0,1,1-.23,1.6,1.6,0,0,1,1.22.67,2.23,2.23,0,0,1,.38,1.54,3.52,3.52,0,0,1-.13.73,7.69,7.69,0,0,1-.31.86l-1.49-.11a6.09,6.09,0,0,0,.51-.84,2.38,2.38,0,0,0,.21-.69.9.9,0,0,0-.1-.52.46.46,0,0,0-.37-.21.53.53,0,0,0-.32.08,1,1,0,0,0-.29.32l-.46.71a3.91,3.91,0,0,1-1.06,1.19,1.59,1.59,0,0,1-1.06.25,1.92,1.92,0,0,1-1.46-.74,2.4,2.4,0,0,1-.46-1.73,3.94,3.94,0,0,1,.14-.77,5.26,5.26,0,0,1,.3-.9Z"/><polygon class="cls-1" points="53.23 79.24 53.32 79.24 56.1 84.92 58.86 79.24 58.95 79.24 60.53 87.26 59.19 87.26 58.35 82.88 56.15 87.52 56.03 87.52 53.75 82.88 52.91 87.26 51.65 87.26 53.23 79.24"/><path class="cls-1" d="M60.67,87.26l3.82-8h.11l3.68,8H66.85l-.63-1.38H62.69l-.64,1.38Zm5.07-2.49-1.26-2.89-1.29,2.89Z"/><path class="cls-1" d="M71,86.33c.84,0,1.37-.47,1.37-1.09s-.36-.95-1.14-1.41l-.58-.35c-1.08-.64-1.64-1.24-1.64-2.2a2.12,2.12,0,0,1,2.36-2,4.13,4.13,0,0,1,2,.48l0,1.24a4,4,0,0,0-1.81-.62c-.74,0-1.15.36-1.15.89s.35.79,1.06,1.2l.56.33c1.18.7,1.8,1.39,1.8,2.46,0,1.35-1,2.32-2.68,2.32a5,5,0,0,1-2.09-.46l-.12-1.53a4,4,0,0,0,2.15.79"/><polygon class="cls-1" points="78.26 87.26 76.89 87.26 76.89 80.68 74.27 80.68 74.27 79.5 80.87 79.5 80.87 80.68 78.26 80.68 78.26 87.26"/><polygon class="cls-1" points="81.88 79.5 86.4 79.5 86.4 80.69 83.21 80.69 83.21 82.6 85.95 82.6 85.95 83.78 83.21 83.78 83.21 86.05 86.46 86.05 86.46 87.26 81.88 87.26 81.88 79.5"/><path class="cls-1" d="M88,79.49h1.8a4,4,0,0,1,2.42.54,2.06,2.06,0,0,1,.91,1.66,2.22,2.22,0,0,1-1.7,2.16L94,87.26H92.38L90,84h-.66v3.22H88ZM90,83c1.21,0,1.81-.45,1.81-1.24s-.64-1.2-1.93-1.2h-.5V83Z"/><path class="cls-1" d="M60.49,99.1v-.59l2.64-3.17,0,0A2.54,2.54,0,0,0,63.89,94a.84.84,0,0,0-.26-.63.94.94,0,0,0-.68-.25.93.93,0,0,0-.64.24,1.26,1.26,0,0,0-.37.67l-1.39-.7a2.63,2.63,0,0,1,1-1.28,2.74,2.74,0,0,1,3.3.2,2.21,2.21,0,0,1,.71,1.67,2.8,2.8,0,0,1-.32,1.26,6.14,6.14,0,0,1-1,1.4l-.95,1.06h2.62l-.25,1.5Z"/><path class="cls-1" d="M66.61,95.44a5.1,5.1,0,0,1,.7-2.86,2.31,2.31,0,0,1,3.85,0,6.12,6.12,0,0,1,0,5.72,2.31,2.31,0,0,1-3.85,0,5.14,5.14,0,0,1-.7-2.87m1.67,0a4.36,4.36,0,0,0,.26,1.7c.17.41.4.62.69.62s.54-.21.71-.61a6,6,0,0,0,0-3.42c-.17-.41-.4-.61-.71-.61s-.52.21-.69.62a4.56,4.56,0,0,0-.26,1.7"/><path class="cls-1" d="M72.45,99.1v-.59l2.64-3.17,0,0A2.54,2.54,0,0,0,75.85,94a.84.84,0,0,0-.26-.63.94.94,0,0,0-.68-.25.93.93,0,0,0-.64.24,1.2,1.2,0,0,0-.37.67l-1.39-.7a2.63,2.63,0,0,1,1-1.28,2.74,2.74,0,0,1,3.3.2,2.21,2.21,0,0,1,.71,1.67,2.8,2.8,0,0,1-.32,1.26,6.47,6.47,0,0,1-1,1.4l-1,1.06h2.61l-.24,1.5Z"/><path class="cls-1" d="M78.57,95.44a5.1,5.1,0,0,1,.7-2.86,2.31,2.31,0,0,1,3.85,0,6.19,6.19,0,0,1,0,5.72,2.31,2.31,0,0,1-3.85,0,5.14,5.14,0,0,1-.7-2.87m1.67,0a4.36,4.36,0,0,0,.26,1.7c.17.41.4.62.69.62s.54-.21.71-.61a6,6,0,0,0,0-3.42c-.17-.41-.4-.61-.71-.61s-.52.21-.69.62a4.56,4.56,0,0,0-.26,1.7"/><polygon class="cls-1" points="49.63 58.3 49.63 58.92 45.2 58.92 45.2 60.1 44.64 60.1 44.64 57.11 45.2 57.11 45.2 58.3 49.63 58.3"/><polygon class="cls-1" points="46.65 53.68 44.64 53.68 44.64 53.06 49.62 53.06 49.62 53.68 47.23 53.68 47.23 56.06 49.62 56.06 49.62 56.68 44.64 56.68 44.64 56.06 46.65 56.06 46.65 53.68"/><polygon class="cls-1" points="44.64 52.16 44.64 49.48 45.21 49.48 45.21 51.54 46.61 51.54 46.61 49.54 47.17 49.54 47.17 51.54 49.05 51.54 49.05 49.48 49.62 49.48 49.62 52.16 44.64 52.16"/><path class="cls-1" d="M57.6,52.09a3,3,0,0,0-1.86-.71c-.52,0-1.21.3-1.21.9s.76.87,1.25,1l.72.22c1.5.44,2.66,1.2,2.66,2.95A3.64,3.64,0,0,1,58,59.38a4.73,4.73,0,0,1-3.06,1,6.7,6.7,0,0,1-3.8-1.23l1.2-2.26A3.87,3.87,0,0,0,54.88,58c.66,0,1.36-.34,1.36-1.1s-1.11-1-1.71-1.22c-1.76-.51-2.92-1-2.92-3.06A3.5,3.5,0,0,1,55.33,49a7.39,7.39,0,0,1,3.39.89Z"/><path class="cls-1" d="M60.49,49.31h4.3c2.32,0,3.93,1.08,3.93,3.56s-1.38,3.67-3.83,3.67H63.3v3.58H60.49Zm2.81,5h.47c1,0,2,0,2-1.32s-.93-1.37-2-1.37H63.3Z"/><rect class="cls-1" x="69.96" y="49.31" width="2.81" height="10.8"/><path class="cls-1" d="M83.59,60.12h-3.5L77.44,56h0v4.16H74.6V49.32h4.2c2.13,0,3.75,1,3.75,3.32a2.9,2.9,0,0,1-2.36,3Zm-6.18-6h.27c.92,0,1.95-.17,1.95-1.35s-1-1.34-1.95-1.34h-.27Z"/><rect class="cls-1" x="84.34" y="49.31" width="2.81" height="10.8"/><polygon class="cls-1" points="93.28 60.12 90.47 60.12 90.47 51.69 88.15 51.69 88.15 49.32 95.6 49.32 95.6 51.69 93.28 51.69 93.28 60.12"/><path class="cls-1" d="M102.55,52.09a2.92,2.92,0,0,0-1.86-.71c-.52,0-1.21.3-1.21.9s.77.87,1.25,1l.72.22c1.5.44,2.66,1.2,2.66,2.95a3.64,3.64,0,0,1-1.12,2.9,4.69,4.69,0,0,1-3.06,1,6.7,6.7,0,0,1-3.8-1.23l1.2-2.26A3.92,3.92,0,0,0,99.83,58c.66,0,1.36-.34,1.36-1.1s-1.1-1-1.71-1.22c-1.76-.51-2.92-1-2.92-3.06A3.5,3.5,0,0,1,100.29,49a7.31,7.31,0,0,1,3.38.89Z"/><path class="cls-1" d="M44.68,61.67h1.2c1.85,0,3.61.48,3.61,2.71a2.11,2.11,0,0,1-1.06,1.86v0a2.54,2.54,0,0,1,2,2.5c0,2-1.68,2.75-3.42,2.75h-2.3ZM45.91,66h.31c1.16,0,2.12-.24,2.12-1.65s-.94-1.62-2.1-1.62h-.33Zm0,4.38h.94c1.13,0,2.32-.33,2.32-1.73S47.76,67,46.67,67h-.76Z"/><path class="cls-1" d="M53.33,61.67v5.82c0,1.6.48,3.09,2.37,3.09s2.39-1.49,2.39-3.09V61.67h1.22V67.9a3.61,3.61,0,1,1-7.21,0V61.67Z"/><path class="cls-1" d="M65.88,63.54a1.66,1.66,0,0,0-1.57-.93A1.56,1.56,0,0,0,62.66,64c0,.77.75,1.17,1.37,1.41l.7.27c1.4.55,2.45,1.32,2.45,3A3,3,0,0,1,64,71.73,3.07,3.07,0,0,1,61,69l1.24-.26a1.87,1.87,0,1,0,3.73,0c0-1.06-.85-1.52-1.7-1.87l-.68-.29C62.45,66,61.43,65.38,61.43,64a2.69,2.69,0,0,1,2.9-2.55A2.8,2.8,0,0,1,66.86,63Z"/><rect class="cls-1" x="68.98" y="61.67" width="1.23" height="9.85"/><polygon class="cls-1" points="72.43 61.2 79.83 68.95 79.83 61.67 81.06 61.67 81.06 71.93 73.66 64.18 73.66 71.52 72.43 71.52 72.43 61.2"/><polygon class="cls-1" points="83.3 61.67 88.59 61.67 88.59 62.8 84.53 62.8 84.53 65.55 88.47 65.55 88.47 66.67 84.53 66.67 84.53 70.4 88.59 70.4 88.59 71.52 83.3 71.52 83.3 61.67"/><path class="cls-1" d="M95,63.54a1.67,1.67,0,0,0-1.58-.93A1.56,1.56,0,0,0,91.75,64c0,.77.76,1.17,1.38,1.41l.7.27c1.4.55,2.45,1.32,2.45,3a3.11,3.11,0,0,1-6.2.31l1.24-.26a1.87,1.87,0,1,0,3.73,0c0-1.06-.85-1.52-1.7-1.87l-.68-.29C91.55,66,90.53,65.38,90.53,64a2.69,2.69,0,0,1,2.9-2.55A2.81,2.81,0,0,1,96,63Z"/><path class="cls-1" d="M102.5,63.54a1.69,1.69,0,0,0-1.59-.93A1.55,1.55,0,0,0,99.27,64c0,.77.76,1.17,1.37,1.41l.7.27c1.4.55,2.45,1.32,2.45,3a3,3,0,0,1-3.15,3.07,3.07,3.07,0,0,1-3-2.76l1.24-.26a1.87,1.87,0,1,0,3.73,0c0-1.06-.85-1.52-1.7-1.87l-.68-.29C99.06,66,98,65.38,98,64a2.69,2.69,0,0,1,2.9-2.55A2.83,2.83,0,0,1,103.48,63Z"/></g></g></svg>