<svg xmlns="http://www.w3.org/2000/svg" viewBox="0 0 144.55 144.55" width="144" height="144"><defs><style>.cls-1{fill:#fff;}</style></defs><g id="Слой_2" data-name="Слой 2"><g id="Home"><path d="M140.62,50.06A71.86,71.86,0,1,0,94.5,140.59a71.83,71.83,0,0,0,46.12-90.53"/><path d="M50,3.54a72.27,72.27,0,0,0-10.49,133.1A72.26,72.26,0,1,0,50,3.54M39.85,135.93A71.44,71.44,0,0,1,8.61,39.82,71.47,71.47,0,1,1,94.36,140.23a70.89,70.89,0,0,1-54.51-4.3"/><path d="M137.91,50.94A69,69,0,1,0,93.6,137.88a69,69,0,0,0,44.31-86.94"/><path class="cls-1" d="M50.85,6.27a69.38,69.38,0,1,0,42.87,132A69.38,69.38,0,0,0,103.78,10.43,69,69,0,0,0,50.85,6.27M7.05,93.46a68.6,68.6,0,0,1,96.39-82.32A68.6,68.6,0,1,1,7.05,93.46"/><path d="M126.35,54.69a56.85,56.85,0,1,0-36.5,71.64,56.85,56.85,0,0,0,36.5-71.64"/><path class="cls-1" d="M54.6,17.81a57.25,57.25,0,1,0,72.14,36.75A56.89,56.89,0,0,0,54.6,17.81M46.66,122.57A56.47,56.47,0,1,1,89.74,126a56.23,56.23,0,0,1-43.08-3.38"/><path d="M124,55.44A54.41,54.41,0,1,0,89.1,124,54.42,54.42,0,0,0,124,55.44"/><path class="cls-1" d="M55.36,20.14a54.8,54.8,0,1,0,69.05,35.19,54.36,54.36,0,0,0-69-35.19M20.92,89A54,54,0,1,1,89,123.62,53.6,53.6,0,0,1,20.92,89"/><polygon class="cls-1" points="76.04 8.09 66.99 8.09 74.31 13.4 71.51 4.8 68.72 13.4 76.04 8.09"/><polygon class="cls-1" points="53.81 10.68 45.31 13.77 54 16.27 48.42 9.14 48.75 18.18 53.81 10.68"/><polygon class="cls-1" points="33.79 20.73 26.88 26.56 35.89 25.91 28.22 21.12 31.61 29.51 33.79 20.73"/><polygon class="cls-1" points="18.43 37.02 13.91 44.85 22.18 41.16 13.33 39.29 19.38 46.02 18.43 37.02"/><polygon class="cls-1" points="9.56 57.58 7.99 66.49 14.5 60.21 5.55 61.46 13.53 65.71 9.56 57.58"/><polygon class="cls-1" points="8.28 79.93 9.83 88.83 13.79 80.71 5.82 84.94 14.77 86.21 8.28 79.93"/><polygon class="cls-1" points="14.69 101.36 19.21 109.2 20.15 100.21 14.1 106.93 22.95 105.06 14.69 101.36"/><polygon class="cls-1" points="28.06 119.33 34.99 125.13 32.79 116.37 29.41 124.74 37.07 119.96 28.06 119.33"/><polygon class="cls-1" points="46.76 131.63 55.26 134.72 50.2 127.22 49.88 136.27 55.45 129.15 46.76 131.63"/><polygon class="cls-1" points="90.77 134.2 99.28 131.1 90.58 128.61 96.15 135.74 95.83 126.69 90.77 134.2"/><polygon class="cls-1" points="110.78 124.15 117.71 118.33 108.68 118.97 116.36 123.76 112.96 115.37 110.78 124.15"/><polygon class="cls-1" points="126.15 107.86 130.68 100.03 122.4 103.71 131.25 105.58 125.2 98.88 126.15 107.86"/><polygon class="cls-1" points="135.01 87.31 136.59 78.41 130.07 84.69 139.03 83.42 131.05 79.19 135.01 87.31"/><polygon class="cls-1" points="136.31 64.97 134.74 56.06 130.77 64.2 138.76 59.94 129.79 58.68 136.31 64.97"/><polygon class="cls-1" points="129.89 43.52 125.37 35.69 124.44 44.69 130.48 37.96 121.63 39.85 129.89 43.52"/><polygon class="cls-1" points="116.53 25.56 109.6 19.75 111.79 28.53 115.17 20.14 107.51 24.94 116.53 25.56"/><polygon class="cls-1" points="97.83 13.26 89.33 10.17 94.38 17.67 94.7 8.63 89.12 15.76 97.83 13.26"/><polygon class="cls-1" points="69.61 135.23 78.1 138.32 73.03 130.82 72.73 139.86 78.3 132.74 69.61 135.23"/><polygon class="cls-1" points="36.38 38.98 35.1 40.33 34.61 39.88 37.7 36.59 38.18 37.04 36.92 38.39 40.88 42.11 40.33 42.69 36.38 38.98"/><polygon class="cls-1" points="39.19 35.23 40.83 37.18 43.08 35.27 41.43 33.32 42.05 32.81 45.99 37.45 45.38 37.97 43.51 35.79 41.28 37.7 43.12 39.88 42.52 40.4 38.57 35.74 39.19 35.23"/><polygon class="cls-1" points="48.01 32.65 46.05 33.97 47.28 35.78 49.45 34.31 49.83 34.87 46.98 36.76 43.6 31.71 46.34 29.88 46.71 30.43 44.62 31.82 45.7 33.42 47.65 32.11 48.01 32.65"/><path class="cls-1" d="M51.76,32.67a2.69,2.69,0,0,0,1.43-.25c.73-.35,1-.92.71-1.48s-.69-.67-1.56-.6c-1.06.11-1.83-.1-2.21-.86a1.76,1.76,0,0,1,1.06-2.36,2.75,2.75,0,0,1,1.34-.31l.09.67a2.1,2.1,0,0,0-1.16.25c-.75.36-.83.94-.64,1.32s.68.61,1.6.54c1.1-.09,1.78.14,2.16.94s.16,1.88-1.13,2.51a3.38,3.38,0,0,1-1.59.32Z"/><path class="cls-1" d="M54.1,26.05a7.27,7.27,0,0,1,1.35-.63,2.55,2.55,0,0,1,1.78-.11,1.86,1.86,0,0,1,.93,2.4A2.52,2.52,0,0,1,56.65,29a2.77,2.77,0,0,1-.61.16l.82,2.29-.73.26Zm1.72,2.48a3.42,3.42,0,0,0,.63-.16c.9-.33,1.27-1,1-1.74s-.93-.93-1.75-.62a3.49,3.49,0,0,0-.67.3Z"/><polygon class="cls-1" points="59.75 24.09 61.35 29.95 60.59 30.16 58.98 24.31 59.75 24.09"/><path class="cls-1" d="M61.36,23.74a7.54,7.54,0,0,1,1.47-.43,2.48,2.48,0,0,1,1.83.16,1.6,1.6,0,0,1-.14,2.77l0,0c.47.06.83.43,1.09,1,.39.8.64,1.34.78,1.55l-.8.15A7.07,7.07,0,0,1,65,27.66c-.34-.79-.73-1-1.44-.92l-.71.14.51,2.59-.78.15Zm1.32,2.55.79-.15c.82-.16,1.26-.72,1.12-1.41s-.78-1-1.61-.82a3.26,3.26,0,0,0-.72.21Z"/><polygon class="cls-1" points="67.26 22.67 67.96 28.71 67.17 28.81 66.46 22.77 67.26 22.67"/><polygon class="cls-1" points="70.19 23.09 68.32 23.18 68.32 22.5 72.82 22.31 72.85 22.98 70.97 23.05 71.22 28.48 70.43 28.51 70.19 23.09"/><path class="cls-1" d="M73.52,27.47a2.68,2.68,0,0,0,1.39.48c.8.05,1.29-.34,1.33-1s-.28-.92-1.08-1.27c-1-.42-1.56-1-1.5-1.83s.86-1.6,2.06-1.54a2.77,2.77,0,0,1,1.31.37l-.26.63A2,2,0,0,0,75.66,23c-.84-.05-1.19.43-1.2.84,0,.57.32.87,1.14,1.25,1,.47,1.48,1,1.43,1.88s-.78,1.72-2.22,1.63a3.11,3.11,0,0,1-1.53-.48Z"/><path class="cls-1" d="M85.25,27.44c.14-.83.31-1.87.49-2.6h0c-.36.65-.77,1.34-1.26,2.09l-1.71,2.64-.57-.12-.33-3.06c-.09-.91-.14-1.72-.17-2.46h0c-.19.73-.45,1.7-.71,2.6L80.21,29l-.72-.17L81.25,23l1,.23.35,3.11c.1.79.13,1.48.16,2.14h0c.31-.58.66-1.18,1.1-1.87L85.56,24l1,.22-1,6-.77-.18Z"/><path class="cls-1" d="M88.17,29.17l-1.28,1.57-.75-.29,4.07-5,.9.34-.2,6.43-.8-.29.07-2Zm2.08.14.06-1.85a9.86,9.86,0,0,1,.1-1.15h0c-.21.3-.44.62-.67.92l-1.19,1.44Z"/><path class="cls-1" d="M91.84,31.69a2.77,2.77,0,0,0,1.08,1c.72.36,1.32.2,1.59-.35s.12-1-.45-1.6c-.74-.77-1-1.52-.67-2.27a1.76,1.76,0,0,1,2.52-.59,3,3,0,0,1,1.06.88l-.49.47a2.19,2.19,0,0,0-.9-.78c-.74-.37-1.24-.08-1.43.29-.26.52-.06.93.53,1.6.75.84,1,1.5.58,2.3a1.84,1.84,0,0,1-2.68.61,2.86,2.86,0,0,1-1.21-1.06Z"/><polygon class="cls-1" points="99.18 30.68 97.63 29.68 98 29.12 101.77 31.56 101.44 32.11 99.86 31.11 96.92 35.66 96.27 35.23 99.18 30.68"/><polygon class="cls-1" points="103.23 36.8 101.38 35.33 100 37.04 102.08 38.67 101.66 39.2 98.98 37.05 102.78 32.3 105.34 34.37 104.93 34.88 102.99 33.33 101.79 34.81 103.62 36.28 103.23 36.8"/><path class="cls-1" d="M106.49,35.44a12.19,12.19,0,0,1,1.17,1,2.63,2.63,0,0,1,.92,1.61,1.54,1.54,0,0,1-.48,1.17,1.58,1.58,0,0,1-1.89.29l0,0A1.62,1.62,0,0,1,106,41a10.3,10.3,0,0,0-.84,1.52l-.58-.57a8.91,8.91,0,0,1,.72-1.32c.47-.72.45-1.18,0-1.71l-.53-.51-1.84,1.89-.57-.55ZM105.11,38l.58.57a1.21,1.21,0,0,0,1.8.14c.54-.57.36-1.22-.23-1.8a3,3,0,0,0-.6-.48Z"/><path class="cls-1" d="M106.32,42.44a2.6,2.6,0,0,0,.6,1.33,1.1,1.1,0,0,0,1.62.32c.41-.36.47-.83.18-1.66-.37-1-.36-1.8.31-2.36a1.75,1.75,0,0,1,2.52.47,2.75,2.75,0,0,1,.64,1.22l-.64.24a2.28,2.28,0,0,0-.52-1.07,1,1,0,0,0-1.44-.29c-.42.36-.41.83-.12,1.68.35,1.06.3,1.77-.39,2.34s-1.79.6-2.72-.51a3,3,0,0,1-.67-1.44Z"/><polygon class="cls-1" points="42.81 58.17 41.84 58.17 41.84 50.44 39.77 50.44 39.77 49.54 44.92 49.54 44.92 50.44 42.81 50.44 42.81 58.17"/><polygon class="cls-1" points="51.33 53.05 51.33 49.54 52.3 49.54 52.3 58.17 51.33 58.17 51.33 53.93 46.9 53.93 46.9 58.17 45.95 58.17 45.95 49.54 46.9 49.54 46.9 53.05 51.33 53.05"/><polygon class="cls-1" points="54.08 49.54 58.54 49.54 58.54 50.44 55.03 50.44 55.03 52.99 58.45 52.99 58.45 53.89 55.03 53.89 55.03 57.28 58.54 57.28 58.54 58.17 54.08 58.17 54.08 49.54"/><path class="cls-1" d="M68.31,51.76a2.36,2.36,0,0,0-1.47-.56c-.43,0-1,.23-1,.71s.6.69,1,.83l.58.17c1.2.35,2.11,1,2.11,2.36a2.91,2.91,0,0,1-.88,2.32,3.79,3.79,0,0,1-2.47.81,5.27,5.27,0,0,1-3-1l1-1.81a3.12,3.12,0,0,0,2,.89c.54,0,1.1-.26,1.1-.87s-.88-.84-1.37-1c-1.4-.4-2.33-.77-2.33-2.44a2.8,2.8,0,0,1,3-2.9,6,6,0,0,1,2.7.72Z"/><path class="cls-1" d="M70.62,49.54h3.43c1.87,0,3.15.87,3.15,2.84s-1.11,2.93-3.06,2.93H72.86v2.86H70.62Zm2.24,4h.39c.8,0,1.61,0,1.61-1.06s-.75-1.11-1.61-1.11h-.39Z"/><rect class="cls-1" x="78.2" y="49.54" width="2.24" height="8.64"/><path class="cls-1" d="M89.08,58.17h-2.8l-2.11-3.31h0v3.31H81.9V49.54h3.36c1.71,0,3,.81,3,2.65a2.31,2.31,0,0,1-1.86,2.44Zm-4.93-4.76h.22c.73,0,1.56-.13,1.56-1.08s-.83-1.07-1.56-1.07h-.22Z"/><rect class="cls-1" x="89.68" y="49.54" width="2.23" height="8.64"/><polygon class="cls-1" points="96.84 58.17 94.58 58.17 94.58 51.45 92.73 51.45 92.73 49.54 98.68 49.54 98.68 51.45 96.84 51.45 96.84 58.17"/><path class="cls-1" d="M104.24,51.76a2.41,2.41,0,0,0-1.49-.56c-.41,0-1,.23-1,.71s.6.69,1,.83l.57.17c1.19.35,2.12,1,2.12,2.36a2.91,2.91,0,0,1-.88,2.32,3.78,3.78,0,0,1-2.46.81,5.34,5.34,0,0,1-3-1l1-1.81a3.12,3.12,0,0,0,2,.89c.52,0,1.08-.26,1.08-.87s-.89-.84-1.36-1c-1.41-.4-2.35-.77-2.35-2.44a2.81,2.81,0,0,1,3-2.9,6,6,0,0,1,2.71.72Z"/><path class="cls-1" d="M40,62.13h1.86c2,0,3.75.75,3.75,3.05a2.44,2.44,0,0,1-1.1,2.18,2.87,2.87,0,0,1,2.13,2.88c0,2.25-1.8,3.14-4,3.14H40Zm1.26,5h.47c1.43,0,2.63-.17,2.63-1.91s-1.07-1.88-2.61-1.88h-.49Zm0,5.13h1.26c1.39,0,2.87-.34,2.87-2.06s-1.67-2-3-2H41.28Z"/><path class="cls-1" d="M49.72,68.83a4.26,4.26,0,0,0,.49,2.51,2.92,2.92,0,0,0,2.27,1.07,3,3,0,0,0,2.22-1,4,4,0,0,0,.55-2.59v-6.7h1.26v7a4,4,0,0,1-1,3.12,4.2,4.2,0,0,1-5.93.13,3.94,3.94,0,0,1-1.11-3.25v-7h1.25Z"/><path class="cls-1" d="M63.81,64.32a2,2,0,0,0-1.93-1.22A1.78,1.78,0,0,0,60,64.86c0,1,1,1.41,1.76,1.75l.74.32c1.46.65,2.7,1.39,2.7,3.16a3.54,3.54,0,0,1-7,.58l1.22-.34a2.33,2.33,0,0,0,2.25,2.08A2.27,2.27,0,0,0,64,70.22c0-1.31-1-1.76-2.09-2.24l-.67-.3c-1.31-.59-2.45-1.26-2.45-2.88a3,3,0,0,1,3.15-2.86,3.24,3.24,0,0,1,2.92,1.75Z"/><rect class="cls-1" x="67.09" y="62.13" width="1.24" height="11.25"/><polygon class="cls-1" points="70.7 61.66 79.47 70.84 79.47 62.13 80.72 62.13 80.72 73.89 71.95 64.71 71.95 73.38 70.7 73.38 70.7 61.66"/><polygon class="cls-1" points="83.07 62.13 88.9 62.13 88.9 63.3 84.31 63.3 84.31 66.63 88.75 66.63 88.75 67.81 84.31 67.81 84.31 72.22 88.9 72.22 88.9 73.39 83.07 73.39 83.07 62.13"/><path class="cls-1" d="M96.13,64.32a2.08,2.08,0,0,0-1.94-1.22,1.79,1.79,0,0,0-1.86,1.76c0,1,1,1.41,1.75,1.75l.74.32c1.48.65,2.72,1.39,2.72,3.16a3.55,3.55,0,0,1-7.05.58l1.22-.34A2.34,2.34,0,0,0,94,72.41a2.28,2.28,0,0,0,2.32-2.19c0-1.31-1-1.76-2.06-2.24l-.7-.3c-1.33-.59-2.45-1.26-2.45-2.88a3,3,0,0,1,3.15-2.86,3.21,3.21,0,0,1,2.9,1.75Z"/><path class="cls-1" d="M104.46,64.32a2,2,0,0,0-1.92-1.22,1.79,1.79,0,0,0-1.87,1.76c0,1,1,1.41,1.75,1.75l.75.32c1.46.65,2.71,1.39,2.71,3.16a3.55,3.55,0,0,1-7,.58l1.23-.34a2.32,2.32,0,0,0,2.25,2.08,2.27,2.27,0,0,0,2.31-2.19c0-1.31-1-1.76-2.08-2.24l-.68-.3c-1.31-.59-2.44-1.26-2.44-2.88a3,3,0,0,1,3.15-2.86,3.24,3.24,0,0,1,2.91,1.75Z"/><polygon class="cls-1" points="53.25 79.29 53.35 79.29 56.13 84.97 58.88 79.29 58.98 79.29 60.56 87.31 59.22 87.31 58.38 82.93 56.17 87.58 56.05 87.58 53.77 82.93 52.92 87.31 51.68 87.31 53.25 79.29"/><path class="cls-1" d="M60.7,87.31l3.82-8h.12l3.68,8H66.88l-.61-1.38H62.71l-.63,1.38Zm5.07-2.49-1.26-2.89-1.28,2.89Z"/><path class="cls-1" d="M71,86.38c.85,0,1.38-.47,1.38-1.09s-.37-1-1.14-1.41l-.58-.35c-1.09-.64-1.64-1.25-1.64-2.2a2.11,2.11,0,0,1,2.35-2,4.2,4.2,0,0,1,2,.47l0,1.24a4.05,4.05,0,0,0-1.81-.61c-.74,0-1.16.35-1.16.88s.35.79,1.08,1.21l.55.33c1.19.7,1.81,1.39,1.81,2.46,0,1.35-1,2.32-2.69,2.32A5.06,5.06,0,0,1,69,87.11l-.13-1.51a4.23,4.23,0,0,0,2.15.78"/><polygon class="cls-1" points="78.3 87.31 76.92 87.31 76.92 80.73 74.31 80.73 74.31 79.54 80.91 79.54 80.91 80.73 78.3 80.73 78.3 87.31"/><polygon class="cls-1" points="81.93 79.54 86.45 79.54 86.45 80.73 83.26 80.73 83.26 82.65 85.99 82.65 85.99 83.83 83.26 83.83 83.26 86.11 86.48 86.11 86.48 87.31 81.93 87.31 81.93 79.54"/><path class="cls-1" d="M88.08,79.54h1.78a4,4,0,0,1,2.44.54,2,2,0,0,1,.9,1.65,2.2,2.2,0,0,1-1.68,2.16L94,87.31h-1.6l-2.35-3.23h-.67v3.23H88.08Zm2,3.54c1.19,0,1.79-.44,1.79-1.23s-.65-1.2-1.93-1.2h-.5v2.43Z"/><path class="cls-1" d="M60.75,99.15v-.56l.71-.7C63.19,96.27,64,95.4,64,94.38a1.18,1.18,0,0,0-1.32-1.31,2.26,2.26,0,0,0-1.43.58L60.94,93a3,3,0,0,1,1.89-.68,1.89,1.89,0,0,1,2,2c0,1.24-.9,2.24-2.32,3.61l-.51.49v0h3v.76Z"/><path class="cls-1" d="M68.2,99.27C66.88,99.27,66,98,66,95.81s1-3.49,2.35-3.49,2.21,1.26,2.21,3.39c0,2.29-.85,3.56-2.32,3.56Zm0-.71c.91,0,1.35-1.09,1.35-2.8S69.19,93,68.24,93s-1.37,1.06-1.37,2.74.52,2.8,1.35,2.8Z"/><polygon class="cls-1" points="73.33 93.28 73.32 93.28 72.14 93.9 71.96 93.22 73.43 92.42 74.22 92.42 74.22 99.15 73.33 99.15 73.33 93.28"/><path class="cls-1" d="M80.66,93.19H78.1l-.26,1.71a3.67,3.67,0,0,1,.55,0,2.79,2.79,0,0,1,1.45.36,1.93,1.93,0,0,1,1,1.74,2.34,2.34,0,0,1-2.5,2.31,3.39,3.39,0,0,1-1.68-.42l.22-.7a3,3,0,0,0,1.46.38,1.47,1.47,0,0,0,1.57-1.47c0-.89-.59-1.5-1.92-1.5a5.51,5.51,0,0,0-.93.07l.44-3.21h3.2Z"/></g></g></svg>