<svg xmlns="http://www.w3.org/2000/svg" xmlns:xlink="http://www.w3.org/1999/xlink" viewBox="0 0 139.58 206.12" width="139" height="206"><defs><style>.cls-1{fill:url(#Degradado_sin_nombre_10);}.cls-2{fill:url(#Degradado_sin_nombre_10-2);}.cls-3{fill:url(#Degradado_sin_nombre_10-3);}.cls-4{fill:url(#Degradado_sin_nombre_12);}.cls-5{fill:url(#Degradado_sin_nombre_20);}.cls-6{fill:none;}.cls-7{isolation:isolate;}.cls-8{clip-path:url(#clip-path);}.cls-9{fill:url(#Degradado_sin_nombre_2);}.cls-10{clip-path:url(#clip-path-2);}.cls-11{fill:url(#Degradado_sin_nombre_2-2);}.cls-12{opacity:0.35;}.cls-13{clip-path:url(#clip-path-3);}.cls-14{clip-path:url(#clip-path-4);}.cls-15{mask:url(#mask);}.cls-16{fill:url(#Degradado_sin_nombre_3);}.cls-17{clip-path:url(#clip-path-5);}.cls-18{fill:url(#Degradado_sin_nombre_8);}.cls-19{mask:url(#mask-2);}.cls-20{fill:url(#Degradado_sin_nombre_9);}.cls-21{clip-path:url(#clip-path-7);}.cls-22{fill:url(#Degradado_sin_nombre_8-2);}.cls-23,.cls-44{mix-blend-mode:multiply;}.cls-24{clip-path:url(#clip-path-8);}.cls-25{clip-path:url(#clip-path-9);}.cls-26{mask:url(#mask-3);}.cls-27{fill:url(#Degradado_sin_nombre_9-2);}.cls-28{clip-path:url(#clip-path-10);}.cls-29{clip-path:url(#clip-path-11);}.cls-30{mask:url(#mask-4);}.cls-31{fill:url(#Degradado_sin_nombre_11);}.cls-32{clip-path:url(#clip-path-12);}.cls-33{fill:url(#Degradado_sin_nombre_13);}.cls-34{clip-path:url(#clip-path-13);}.cls-35{fill:url(#Degradado_sin_nombre_14);}.cls-36{clip-path:url(#clip-path-14);}.cls-37{fill:url(#Degradado_sin_nombre_17);}.cls-38{clip-path:url(#clip-path-15);}.cls-39{fill:url(#Degradado_sin_nombre_17-2);}.cls-40{clip-path:url(#clip-path-16);}.cls-41{fill:url(#Degradado_sin_nombre_17-3);}.cls-42{clip-path:url(#clip-path-17);}.cls-43{fill:url(#Degradado_sin_nombre_18);}.cls-44{opacity:0.62;}.cls-45{clip-path:url(#clip-path-18);}.cls-46{clip-path:url(#clip-path-19);}.cls-47{mask:url(#mask-5);}.cls-48{fill:url(#Degradado_sin_nombre_19);}.cls-49{clip-path:url(#clip-path-20);}.cls-50{fill:url(#Degradado_sin_nombre_58);}.cls-51{clip-path:url(#clip-path-21);}.cls-52{fill:url(#Degradado_sin_nombre_58-2);}.cls-53{clip-path:url(#clip-path-22);}.cls-54{fill:url(#Degradado_sin_nombre_58-3);}.cls-55{clip-path:url(#clip-path-23);}.cls-56{fill:url(#Degradado_sin_nombre_58-4);}.cls-57{clip-path:url(#clip-path-24);}.cls-58{fill:url(#Degradado_sin_nombre_58-5);}.cls-59{clip-path:url(#clip-path-25);}.cls-60{fill:url(#Degradado_sin_nombre_58-6);}.cls-61{clip-path:url(#clip-path-26);}.cls-62{fill:url(#Degradado_sin_nombre_58-7);}.cls-63{clip-path:url(#clip-path-27);}.cls-64{fill:url(#Degradado_sin_nombre_58-8);}.cls-65{clip-path:url(#clip-path-28);}.cls-66{fill:url(#Degradado_sin_nombre_58-9);}.cls-67{clip-path:url(#clip-path-29);}.cls-68{fill:url(#Degradado_sin_nombre_58-10);}.cls-69{clip-path:url(#clip-path-30);}.cls-70{fill:url(#Degradado_sin_nombre_58-11);}.cls-71{clip-path:url(#clip-path-31);}.cls-72{fill:url(#Degradado_sin_nombre_58-12);}.cls-73{clip-path:url(#clip-path-32);}.cls-74{fill:url(#Degradado_sin_nombre_58-13);}.cls-75{clip-path:url(#clip-path-33);}.cls-76{fill:url(#Degradado_sin_nombre_58-14);}.cls-77{clip-path:url(#clip-path-34);}.cls-78{fill:url(#Degradado_sin_nombre_58-15);}.cls-79{clip-path:url(#clip-path-35);}.cls-80{fill:url(#Degradado_sin_nombre_58-16);}.cls-81{clip-path:url(#clip-path-36);}.cls-82{fill:url(#Degradado_sin_nombre_58-17);}.cls-83{clip-path:url(#clip-path-37);}.cls-84{fill:url(#Degradado_sin_nombre_58-18);}.cls-85{clip-path:url(#clip-path-38);}.cls-86{fill:url(#Degradado_sin_nombre_58-19);}.cls-87{clip-path:url(#clip-path-39);}.cls-88{fill:url(#Degradado_sin_nombre_58-20);}.cls-89{clip-path:url(#clip-path-40);}.cls-90{fill:url(#Degradado_sin_nombre_58-21);}.cls-91{clip-path:url(#clip-path-41);}.cls-92{fill:url(#Degradado_sin_nombre_58-22);}.cls-93{clip-path:url(#clip-path-42);}.cls-94{fill:url(#Degradado_sin_nombre_58-23);}.cls-95{clip-path:url(#clip-path-43);}.cls-96{fill:url(#Degradado_sin_nombre_58-24);}.cls-97{clip-path:url(#clip-path-44);}.cls-98{fill:url(#Degradado_sin_nombre_58-25);}.cls-99{clip-path:url(#clip-path-45);}.cls-100{fill:url(#Degradado_sin_nombre_58-26);}.cls-101{clip-path:url(#clip-path-46);}.cls-102{fill:url(#Degradado_sin_nombre_58-27);}.cls-103{clip-path:url(#clip-path-47);}.cls-104{fill:url(#Degradado_sin_nombre_58-28);}.cls-105{clip-path:url(#clip-path-48);}.cls-106{fill:url(#Degradado_sin_nombre_58-29);}.cls-107{clip-path:url(#clip-path-49);}.cls-108{fill:url(#Degradado_sin_nombre_58-30);}.cls-109{clip-path:url(#clip-path-50);}.cls-110{fill:url(#Degradado_sin_nombre_58-31);}.cls-111{clip-path:url(#clip-path-51);}.cls-112{fill:url(#Degradado_sin_nombre_58-32);}.cls-113{clip-path:url(#clip-path-52);}.cls-114{fill:url(#Degradado_sin_nombre_58-33);}.cls-115{clip-path:url(#clip-path-53);}.cls-116{fill:url(#Degradado_sin_nombre_58-34);}.cls-117{clip-path:url(#clip-path-54);}.cls-118{fill:url(#Degradado_sin_nombre_58-35);}.cls-119{clip-path:url(#clip-path-55);}.cls-120{fill:url(#Degradado_sin_nombre_58-36);}.cls-121{clip-path:url(#clip-path-56);}.cls-122{fill:url(#Degradado_sin_nombre_58-37);}.cls-123{clip-path:url(#clip-path-57);}.cls-124{fill:url(#Degradado_sin_nombre_58-38);}.cls-125{clip-path:url(#clip-path-58);}.cls-126{fill:url(#Degradado_sin_nombre_59);}.cls-127{fill:#fff;}.cls-128{fill:#01508f;}</style><linearGradient id="Degradado_sin_nombre_10" x1="-486.85" y1="-2093.81" x2="-481.31" y2="-2093.81" gradientTransform="matrix(12.81, 0, 0, -12.81, 6269.97, -26778.61)" gradientUnits="userSpaceOnUse"><stop offset="0" stop-color="#fff"/><stop offset="0.08" stop-color="#c9c9c9"/><stop offset="0.16" stop-color="#949494"/><stop offset="0.25" stop-color="#676767"/><stop offset="0.34" stop-color="#424242"/><stop offset="0.43" stop-color="#252525"/><stop offset="0.51" stop-color="#101010"/><stop offset="0.6" stop-color="#040404"/><stop offset="0.68"/><stop offset="1"/></linearGradient><linearGradient id="Degradado_sin_nombre_10-2" x1="-486.93" y1="-2093.99" x2="-481.39" y2="-2093.99" gradientTransform="matrix(12.79, 0, 0, -12.79, 6261.33, -26740.67)" xlink:href="#Degradado_sin_nombre_10"/><linearGradient id="Degradado_sin_nombre_10-3" x1="-486.94" y1="-2100.65" x2="-481.4" y2="-2100.65" gradientTransform="matrix(12.79, 0, 0, -12.79, 6261.26, -26721.75)" xlink:href="#Degradado_sin_nombre_10"/><linearGradient id="Degradado_sin_nombre_12" x1="-343.62" y1="-2056.55" x2="-338.08" y2="-2056.55" gradientTransform="matrix(0, 14.92, 14.92, 0, 30750.54, 5256.62)" gradientUnits="userSpaceOnUse"><stop offset="0"/><stop offset="0.68"/><stop offset="0.73" stop-color="#030303"/><stop offset="0.77" stop-color="#0d0d0d"/><stop offset="0.81" stop-color="#1e1e1e"/><stop offset="0.85" stop-color="#363636"/><stop offset="0.88" stop-color="#555"/><stop offset="0.92" stop-color="#7b7b7b"/><stop offset="0.95" stop-color="#a7a7a7"/><stop offset="0.98" stop-color="#dadada"/><stop offset="1" stop-color="#fff"/></linearGradient><linearGradient id="Degradado_sin_nombre_20" x1="-559.23" y1="-1973.43" x2="-553.69" y2="-1973.43" gradientTransform="matrix(17.87, 0, 0, -17.87, 10020.02, -35154.54)" gradientUnits="userSpaceOnUse"><stop offset="0"/><stop offset="0.07" stop-color="#060606"/><stop offset="0.15" stop-color="#161616"/><stop offset="0.25" stop-color="#313131"/><stop offset="0.36" stop-color="#565656"/><stop offset="0.47" stop-color="#868686"/><stop offset="0.59" stop-color="silver"/><stop offset="0.7" stop-color="#fff"/><stop offset="1" stop-color="#fff"/></linearGradient><clipPath id="clip-path"><path class="cls-6" d="M32.48,123.8c-7.32,1.85-10.94,1.58-11.42,4.52s-4.34,23.25-4.34,23.25l20-7.24L40.05,119c0,.26-.6,3-7.57,4.78M40.05,119a0,0,0,0,0,0,0Z"/></clipPath><linearGradient id="Degradado_sin_nombre_2" x1="-238.81" y1="-2534.93" x2="-233.27" y2="-2534.93" gradientTransform="matrix(0, 3.99, 3.99, 0, 10154.57, 1079.09)" gradientUnits="userSpaceOnUse"><stop offset="0" stop-color="#7b5e39"/><stop offset="0.21" stop-color="#7b5e39"/><stop offset="0.83" stop-color="#ad9749"/><stop offset="1" stop-color="#ad9749"/></linearGradient><clipPath id="clip-path-2"><path class="cls-6" d="M108.38,151.79c4.62.36,15.75,0,15.75,0l-2.56-14.39s-.83-1.43-6.66-2.5-9.87-2.24-10.46-5.22c.71,5,2.73,20.68,3.93,22.11"/></clipPath><linearGradient id="Degradado_sin_nombre_2-2" x1="136.69" y1="-1380.37" x2="142.23" y2="-1380.37" gradientTransform="matrix(-3.41, 0, 0, 3.41, 588.72, 4850.75)" xlink:href="#Degradado_sin_nombre_2"/><clipPath id="clip-path-3"><rect class="cls-6" x="34.51" width="70.9" height="77.09"/></clipPath><clipPath id="clip-path-4"><path class="cls-6" d="M105.43,70.16a6.93,6.93,0,0,1-6.93,6.93H41.43a6.93,6.93,0,0,1-6.94-6.93V6.93A6.94,6.94,0,0,1,41.43,0H98.5a6.93,6.93,0,0,1,6.93,6.93Z"/></clipPath><mask id="mask" x="34.49" y="0" width="70.94" height="77.09" maskUnits="userSpaceOnUse"><rect class="cls-1" x="34.49" width="70.94" height="77.09"/></mask><linearGradient id="Degradado_sin_nombre_3" x1="-486.85" y1="-2093.81" x2="-481.31" y2="-2093.81" gradientTransform="matrix(12.81, 0, 0, -12.81, 6269.97, -26778.61)" gradientUnits="userSpaceOnUse"><stop offset="0" stop-color="#b77f2b"/><stop offset="0.68" stop-color="#b77f2b"/><stop offset="1" stop-color="#b77f2b"/></linearGradient><clipPath id="clip-path-5"><path class="cls-6" d="M41.51,0A6.91,6.91,0,0,0,34.6,6.92V66.61a6.91,6.91,0,0,0,6.91,6.92h57a6.92,6.92,0,0,0,6.92-6.92V6.92A6.91,6.91,0,0,0,98.51,0Z"/></clipPath><linearGradient id="Degradado_sin_nombre_8" x1="-360.69" y1="-2029.81" x2="-355.15" y2="-2029.81" gradientTransform="matrix(0, 17.39, 17.39, 0, 35376.45, 6262.42)" gradientUnits="userSpaceOnUse"><stop offset="0" stop-color="#222356"/><stop offset="0.01" stop-color="#212458"/><stop offset="0.18" stop-color="#173774"/><stop offset="0.35" stop-color="#0f4489"/><stop offset="0.52" stop-color="#0b4c95"/><stop offset="0.68" stop-color="#094f99"/><stop offset="1" stop-color="#075fab"/></linearGradient><mask id="mask-2" x="34.6" y="0.01" width="70.83" height="73.52" maskUnits="userSpaceOnUse"><rect class="cls-2" x="34.6" y="0.01" width="70.83" height="73.52"/></mask><linearGradient id="Degradado_sin_nombre_9" x1="-486.93" y1="-2093.99" x2="-481.39" y2="-2093.99" gradientTransform="matrix(12.79, 0, 0, -12.79, 6261.33, -26740.67)" gradientUnits="userSpaceOnUse"><stop offset="0" stop-color="#222356"/><stop offset="0.01" stop-color="#212458"/><stop offset="0.18" stop-color="#173774"/><stop offset="0.35" stop-color="#0f4489"/><stop offset="0.52" stop-color="#0b4c95"/><stop offset="0.68" stop-color="#094f99"/><stop offset="1" stop-color="#094f99"/></linearGradient><clipPath id="clip-path-7"><polygon class="cls-6" points="34.41 68.8 34.41 206.09 91.62 206.09 105.23 192.53 105.23 68.8 34.41 68.8"/></clipPath><linearGradient id="Degradado_sin_nombre_8-2" x1="-402.52" y1="-2016.15" x2="-396.98" y2="-2016.15" gradientTransform="matrix(0, 22.24, 22.24, 0, 44915.7, 9025.83)" xlink:href="#Degradado_sin_nombre_8"/><clipPath id="clip-path-8"><rect class="cls-6" x="34.4" y="75.15" width="70.84" height="130.95"/></clipPath><clipPath id="clip-path-9"><polygon class="cls-6" points="105.23 192.54 105.23 75.15 34.41 75.15 34.41 206.1 91.62 206.1 105.23 192.54"/></clipPath><mask id="mask-3" x="34.41" y="75.15" width="70.83" height="130.95" maskUnits="userSpaceOnUse"><rect class="cls-3" x="34.41" y="75.15" width="70.83" height="130.95"/></mask><linearGradient id="Degradado_sin_nombre_9-2" x1="-486.94" y1="-2100.65" x2="-481.4" y2="-2100.65" gradientTransform="matrix(12.79, 0, 0, -12.79, 6261.26, -26721.75)" xlink:href="#Degradado_sin_nombre_9"/><clipPath id="clip-path-10"><rect class="cls-6" x="34.4" y="146.5" width="70.84" height="59.59"/></clipPath><clipPath id="clip-path-11"><polygon class="cls-6" points="105.23 192.54 105.23 146.5 34.41 146.5 34.41 206.1 91.62 206.1 105.23 192.54"/></clipPath><mask id="mask-4" x="4.61" y="111.09" width="130.42" height="130.42" maskUnits="userSpaceOnUse"><rect class="cls-4" x="23.71" y="130.19" width="92.22" height="92.22" transform="translate(-104.21 101.01) rotate(-45)"/></mask><linearGradient id="Degradado_sin_nombre_11" x1="-343.62" y1="-2056.55" x2="-338.08" y2="-2056.55" gradientTransform="matrix(0, 14.92, 14.92, 0, 30750.54, 5256.62)" gradientUnits="userSpaceOnUse"><stop offset="0" stop-color="#094f99"/><stop offset="0.68" stop-color="#094f99"/><stop offset="0.77" stop-color="#0a4d96"/><stop offset="0.84" stop-color="#0e468c"/><stop offset="0.91" stop-color="#143b7b"/><stop offset="0.97" stop-color="#1d2c63"/><stop offset="1" stop-color="#222356"/></linearGradient><clipPath id="clip-path-12"><polygon class="cls-6" points="91.66 192.5 91.66 206.12 105.22 192.5 91.66 192.5"/></clipPath><linearGradient id="Degradado_sin_nombre_13" x1="347.36" y1="-3230.55" x2="352.9" y2="-3230.55" gradientTransform="matrix(0, 1.74, 1.74, 0, 5715.91, -414.24)" gradientUnits="userSpaceOnUse"><stop offset="0" stop-color="#f3ee82"/><stop offset="0.39" stop-color="#fbb84c"/><stop offset="0.41" stop-color="#fcc153"/><stop offset="0.46" stop-color="#fecc5b"/><stop offset="0.52" stop-color="#ffd361"/><stop offset="0.69" stop-color="#ffd562"/><stop offset="0.74" stop-color="#f8cc5c"/><stop offset="0.82" stop-color="#e3b44d"/><stop offset="0.93" stop-color="#c28c34"/><stop offset="0.96" stop-color="#b77f2b"/><stop offset="0.96" stop-color="#b77f2b"/><stop offset="1" stop-color="#b77f2b"/></linearGradient><clipPath id="clip-path-13"><path class="cls-6" d="M2.07,87A67.74,67.74,0,1,0,69.8,19.25,67.78,67.78,0,0,0,2.07,87"/></clipPath><linearGradient id="Degradado_sin_nombre_14" x1="-380.23" y1="-1993.95" x2="-374.69" y2="-1993.95" gradientTransform="matrix(0, 24.45, 24.45, 0, 48824.3, 9316.48)" gradientUnits="userSpaceOnUse"><stop offset="0" stop-color="#1e3465"/><stop offset="0.35" stop-color="#01508f"/><stop offset="0.35" stop-color="#035497"/><stop offset="0.36" stop-color="#055aa2"/><stop offset="0.37" stop-color="#075ea9"/><stop offset="0.4" stop-color="#075fab"/><stop offset="0.47" stop-color="#0a59a2"/><stop offset="0.59" stop-color="#12488a"/><stop offset="0.73" stop-color="#1e2c62"/><stop offset="0.77" stop-color="#222356"/><stop offset="0.79" stop-color="#1d2c63"/><stop offset="0.84" stop-color="#143b7b"/><stop offset="0.88" stop-color="#0e468c"/><stop offset="0.93" stop-color="#0a4d96"/><stop offset="1" stop-color="#094f99"/></linearGradient><clipPath id="clip-path-14"><path class="cls-6" d="M3.12,87A66.68,66.68,0,1,1,69.8,153.66,66.76,66.76,0,0,1,3.12,87M0,87a69.79,69.79,0,1,0,69.8-69.8A69.79,69.79,0,0,0,0,87"/></clipPath><radialGradient id="Degradado_sin_nombre_17" cx="-459.51" cy="-1999.28" r="5.54" gradientTransform="matrix(25.17, 0, 0, -25.17, 11585.69, -50282.18)" gradientUnits="userSpaceOnUse"><stop offset="0" stop-color="#fbe26d"/><stop offset="0.13" stop-color="#f1ed85"/><stop offset="0.25" stop-color="#efae3e"/><stop offset="0.26" stop-color="#f0c558"/><stop offset="0.28" stop-color="#f0d76c"/><stop offset="0.29" stop-color="#f1e37a"/><stop offset="0.31" stop-color="#f1eb82"/><stop offset="0.35" stop-color="#f1ed85"/><stop offset="0.48" stop-color="#cc8e2c"/><stop offset="0.62" stop-color="#b77f2b"/><stop offset="0.62" stop-color="#ca8f34"/><stop offset="0.63" stop-color="#e5a541"/><stop offset="0.64" stop-color="#f5b349"/><stop offset="0.65" stop-color="#fbb84c"/><stop offset="0.79" stop-color="#6c3214"/><stop offset="0.82" stop-color="#723716"/><stop offset="0.86" stop-color="#82471b"/><stop offset="0.9" stop-color="#9d6124"/><stop offset="0.95" stop-color="#c38430"/><stop offset="1" stop-color="#efae3e"/></radialGradient><clipPath id="clip-path-15"><path class="cls-6" d="M27,83.1c0-2.11-.16,5.61,0,7.36a42.84,42.84,0,0,0,85.37,0,58,58,0,0,0,0-7.36A42.85,42.85,0,0,0,27,83.1"/></clipPath><radialGradient id="Degradado_sin_nombre_17-2" cx="-403.76" cy="-1799.08" r="5.54" gradientTransform="matrix(-25.35, 0, 0, 25.35, -10135.79, 45805.49)" xlink:href="#Degradado_sin_nombre_17"/><clipPath id="clip-path-16"><path class="cls-6" d="M17.74,84.44v4.69a51.94,51.94,0,0,0,103.78,0V84.44a51.94,51.94,0,0,0-103.78,0"/></clipPath><radialGradient id="Degradado_sin_nombre_17-3" cx="-400.64" cy="-1789.42" r="5.54" gradientTransform="matrix(-22.5, 0, 0, 22.5, -8909.44, 40374.62)" xlink:href="#Degradado_sin_nombre_17"/><clipPath id="clip-path-17"><path class="cls-6" d="M19,87A50.84,50.84,0,1,0,69.82,36.16,50.84,50.84,0,0,0,19,87"/></clipPath><linearGradient id="Degradado_sin_nombre_18" x1="-555.77" y1="-1971.05" x2="-550.23" y2="-1971.05" gradientTransform="matrix(18.36, 0, 0, -18.36, 10221.54, -36096.51)" gradientUnits="userSpaceOnUse"><stop offset="0" stop-color="#222356"/><stop offset="0.07" stop-color="#222356"/><stop offset="0.41" stop-color="#094f99"/><stop offset="0.77" stop-color="#075fab"/><stop offset="1" stop-color="#075fab"/></linearGradient><clipPath id="clip-path-18"><rect class="cls-6" x="20.67" y="64.59" width="99.98" height="73.25"/></clipPath><clipPath id="clip-path-19"><path class="cls-6" d="M120.66,87a50.62,50.62,0,0,0-5.2-22.42c-13.91,4.49-30.38,10.22-47.95,16.79C50.1,87.89,34,94.3,20.67,100a50.84,50.84,0,0,0,100-13"/></clipPath><mask id="mask-5" x="-15.96" y="14.6" width="173.25" height="173.24" maskUnits="userSpaceOnUse"><rect class="cls-5" x="9.41" y="39.97" width="122.5" height="122.5" transform="translate(-50.88 79.61) rotate(-45)"/></mask><linearGradient id="Degradado_sin_nombre_19" x1="-559.23" y1="-1973.43" x2="-553.69" y2="-1973.43" gradientTransform="matrix(17.87, 0, 0, -17.87, 10020.02, -35154.54)" gradientUnits="userSpaceOnUse"><stop offset="0" stop-color="#222356"/><stop offset="0.7" stop-color="#222356"/><stop offset="1" stop-color="#222356"/></linearGradient><clipPath id="clip-path-20"><path class="cls-6" d="M115.59,123.64c3.64-3.27,4-11,3.43-13.32-4.36,5-3.43,13.32-3.43,13.32"/></clipPath><linearGradient id="Degradado_sin_nombre_58" x1="-361.03" y1="1181.77" x2="-355.49" y2="1181.77" gradientTransform="matrix(0, -0.85, -0.85, 0, 1118.2, -186.35)" gradientUnits="userSpaceOnUse"><stop offset="0" stop-color="#f4f0a3"/><stop offset="0.09" stop-color="#f4f0a3"/><stop offset="0.31" stop-color="#dfba50"/><stop offset="0.55" stop-color="#f1ce5d"/><stop offset="0.56" stop-color="#f2d05e"/><stop offset="0.66" stop-color="#edc757"/><stop offset="0.81" stop-color="#deaf43"/><stop offset="0.96" stop-color="#cc902a"/><stop offset="0.96" stop-color="#cc902a"/><stop offset="1" stop-color="#cc902a"/></linearGradient><clipPath id="clip-path-21"><path class="cls-6" d="M105,132.86c4.7,1.21,11.17-2.87,12.76-4.64a11.37,11.37,0,0,0-1.42-.08c-6,0-11.34,4.72-11.34,4.72"/></clipPath><linearGradient id="Degradado_sin_nombre_58-2" x1="-3584.85" y1="390.87" x2="-3579.31" y2="390.87" gradientTransform="matrix(0, -0.67, -0.67, 0, 374.65, -2281.36)" xlink:href="#Degradado_sin_nombre_58"/><clipPath id="clip-path-22"><path class="cls-6" d="M113.24,126.18c4.85.29,10.43-5,11.68-7-6.54.37-11.68,7-11.68,7"/></clipPath><linearGradient id="Degradado_sin_nombre_58-3" x1="-2471.32" y1="248.26" x2="-2465.78" y2="248.26" gradientTransform="matrix(0, -0.88, -0.88, 0, 338.34, -2057.73)" xlink:href="#Degradado_sin_nombre_58"/><clipPath id="clip-path-23"><path class="cls-6" d="M120.2,117.72c4.8-.76,9.19-7.1,10-9.34-6.33,1.78-10,9.34-10,9.34"/></clipPath><linearGradient id="Degradado_sin_nombre_58-4" x1="-2219.18" y1="671.72" x2="-2213.64" y2="671.72" gradientTransform="matrix(0, -0.83, -0.83, 0, 684.43, -1731.58)" xlink:href="#Degradado_sin_nombre_58"/><clipPath id="clip-path-24"><path class="cls-6" d="M122.9,113.4c2.85-4,1.58-11.6.57-13.76-3.24,5.79-.57,13.76-.57,13.76"/></clipPath><linearGradient id="Degradado_sin_nombre_58-5" x1="299.08" y1="1661.61" x2="304.62" y2="1661.61" gradientTransform="matrix(0, -0.72, -0.72, 0, 1312.08, 322.68)" xlink:href="#Degradado_sin_nombre_58"/><clipPath id="clip-path-25"><path class="cls-6" d="M124.65,109.65c4.52-1.79,7.45-8.92,7.74-11.29-5.79,3.13-7.74,11.29-7.74,11.29"/></clipPath><linearGradient id="Degradado_sin_nombre_58-6" x1="-1988.15" y1="1323.16" x2="-1982.61" y2="1323.16" gradientTransform="matrix(0, -0.73, -0.73, 0, 1089.45, -1337.42)" xlink:href="#Degradado_sin_nombre_58"/><clipPath id="clip-path-26"><path class="cls-6" d="M128.52,97.67c4-2.78,5.33-10.39,5.11-12.76-5,4.34-5.11,12.76-5.11,12.76"/></clipPath><linearGradient id="Degradado_sin_nombre_58-7" x1="-858.41" y1="1476.05" x2="-852.87" y2="1476.05" gradientTransform="matrix(0, -0.76, -0.76, 0, 1253.87, -559.59)" xlink:href="#Degradado_sin_nombre_58"/><clipPath id="clip-path-27"><path class="cls-6" d="M129.39,89.62c1-4.82-3.23-11.23-5-12.77-.61,6.63,5,12.77,5,12.77"/></clipPath><linearGradient id="Degradado_sin_nombre_58-8" x1="854.37" y1="1440.01" x2="859.91" y2="1440.01" gradientTransform="matrix(-0.72, 0, 0, 0.72, 745.89, -955.78)" xlink:href="#Degradado_sin_nombre_58"/><clipPath id="clip-path-28"><path class="cls-6" d="M129.43,86.13c3.49-3.44,3.48-11.17,2.85-13.46-4.17,5.16-2.85,13.46-2.85,13.46"/></clipPath><linearGradient id="Degradado_sin_nombre_58-9" x1="-638.48" y1="946.69" x2="-632.94" y2="946.69" gradientTransform="matrix(0, -0.9, -0.9, 0, 985.86, -494.28)" xlink:href="#Degradado_sin_nombre_58"/><clipPath id="clip-path-29"><path class="cls-6" d="M128.6,77c0-4.93-5.59-10.26-7.65-11.36.81,6.6,7.65,11.36,7.65,11.36"/></clipPath><linearGradient id="Degradado_sin_nombre_58-10" x1="831.66" y1="186.05" x2="837.2" y2="186.05" gradientTransform="matrix(-1.05, 0, 0, 1.05, 1006.25, -124.93)" xlink:href="#Degradado_sin_nombre_58"/><clipPath id="clip-path-30"><path class="cls-6" d="M127.53,72.53c2.56-4.2.74-11.72-.42-13.78-2.81,6,.42,13.78.42,13.78"/></clipPath><linearGradient id="Degradado_sin_nombre_58-11" x1="227.43" y1="1558.32" x2="232.97" y2="1558.32" gradientTransform="matrix(0, -0.73, -0.73, 0, 1264.07, 234.5)" xlink:href="#Degradado_sin_nombre_58"/><clipPath id="clip-path-31"><path class="cls-6" d="M125.43,66.36c-1.18-4.79-7.75-8.69-10-9.28,2.29,6.24,10,9.28,10,9.28"/></clipPath><linearGradient id="Degradado_sin_nombre_58-12" x1="868.93" y1="-166.47" x2="874.46" y2="-166.47" gradientTransform="matrix(-1.18, 0, 0, 1.18, 1153.58, 258.79)" xlink:href="#Degradado_sin_nombre_58"/><clipPath id="clip-path-32"><path class="cls-6" d="M123.21,61.55C125,57,121.82,49.92,120.3,48.1c-1.67,6.44,2.91,13.45,2.91,13.45"/></clipPath><linearGradient id="Degradado_sin_nombre_58-13" x1="283.14" y1="310.79" x2="288.68" y2="310.79" gradientTransform="matrix(-1.1, 0, 0, 1.1, 436.52, -287.67)" xlink:href="#Degradado_sin_nombre_58"/><clipPath id="clip-path-33"><path class="cls-6" d="M119.93,56.09c-1.94-4.33-8.47-6.68-10.58-6.78,3.24,5.49,10.58,6.78,10.58,6.78"/></clipPath><linearGradient id="Degradado_sin_nombre_58-14" x1="3992.13" y1="-1263.21" x2="3997.67" y2="-1263.21" gradientTransform="matrix(-0.22, 0.52, 0.49, 0.25, 1604.23, -1731.74)" xlink:href="#Degradado_sin_nombre_58"/><clipPath id="clip-path-34"><path class="cls-6" d="M116.07,51.33c1.26-4.76-2.32-10.29-4-11.94-1,6.59,4,11.94,4,11.94"/></clipPath><linearGradient id="Degradado_sin_nombre_58-15" x1="1281.84" y1="1114.43" x2="1287.38" y2="1114.43" gradientTransform="matrix(-0.74, 0, 0, 0.74, 1061.23, -775.81)" xlink:href="#Degradado_sin_nombre_58"/><clipPath id="clip-path-35"><path class="cls-6" d="M101.13,43.4c4.5,4.84,11.56,4.2,11.56,4.2-2.45-3.34-7.37-4.29-10.23-4.29a8.33,8.33,0,0,0-1.33.09"/></clipPath><linearGradient id="Degradado_sin_nombre_58-16" x1="3037.4" y1="-1796.17" x2="3042.93" y2="-1796.17" gradientTransform="matrix(-0.74, 0, 0, 0.74, 2347.53, 1369.03)" xlink:href="#Degradado_sin_nombre_58"/><clipPath id="clip-path-36"><path class="cls-6" d="M109.44,44.7c.13-4.94-4-8.6-6-9.79a13.36,13.36,0,0,0,6,9.79"/></clipPath><linearGradient id="Degradado_sin_nombre_58-17" x1="2368.32" y1="978.84" x2="2373.86" y2="978.84" gradientTransform="matrix(-0.64, 0, 0, 0.64, 1613.71, -582.38)" xlink:href="#Degradado_sin_nombre_58"/><clipPath id="clip-path-37"><path class="cls-6" d="M107,131.4a11,11,0,0,0,5.76-10.08A13.15,13.15,0,0,0,107,131.4"/></clipPath><linearGradient id="Degradado_sin_nombre_58-18" x1="-1325.66" y1="1785.45" x2="-1320.12" y2="1785.45" gradientTransform="matrix(-0.68, -0.29, -0.35, 0.62, -176.27, -1361.63)" xlink:href="#Degradado_sin_nombre_58"/><clipPath id="clip-path-38"><path class="cls-6" d="M127.37,101.94c2.23-4.4-.2-11.74-1.52-13.69-2.32,6.24,1.52,13.69,1.52,13.69"/></clipPath><linearGradient id="Degradado_sin_nombre_58-19" x1="713.29" y1="1185.48" x2="718.83" y2="1185.48" gradientTransform="matrix(-0.79, 0, 0, 0.79, 690.52, -838.54)" xlink:href="#Degradado_sin_nombre_58"/><clipPath id="clip-path-39"><path class="cls-6" d="M23.56,123.64s.94-8.35-3.44-13.32c-.53,2.32-.19,10.05,3.44,13.32"/></clipPath><linearGradient id="Degradado_sin_nombre_58-20" x1="-1962.85" y1="808.37" x2="-1957.31" y2="808.37" gradientTransform="matrix(0.85, 0, 0, 0.85, 1680.41, -566.99)" xlink:href="#Degradado_sin_nombre_58"/><clipPath id="clip-path-40"><path class="cls-6" d="M21.38,128.22c1.59,1.77,8.05,5.85,12.77,4.64,0,0-5.39-4.72-11.35-4.72a11.37,11.37,0,0,0-1.42.08"/></clipPath><linearGradient id="Degradado_sin_nombre_58-21" x1="-4338.19" y1="-1534.31" x2="-4332.65" y2="-1534.31" gradientTransform="translate(2948.72 1164.75) scale(0.67)" xlink:href="#Degradado_sin_nombre_58"/><clipPath id="clip-path-41"><path class="cls-6" d="M25.92,126.18s-5.14-6.6-11.69-7c1.25,2,6.83,7.26,11.69,7"/></clipPath><linearGradient id="Degradado_sin_nombre_58-22" x1="-3304.08" y1="-1089.72" x2="-3298.54" y2="-1089.72" gradientTransform="matrix(0.88, 0, 0, 0.88, 2938.84, 1086.14)" xlink:href="#Degradado_sin_nombre_58"/><clipPath id="clip-path-42"><path class="cls-6" d="M18.94,117.72s-3.64-7.56-10-9.34c.78,2.24,5.16,8.58,10,9.34"/></clipPath><linearGradient id="Degradado_sin_nombre_58-23" x1="-3316" y1="-592.73" x2="-3310.46" y2="-592.73" gradientTransform="translate(2767.67 605.85) scale(0.83)" xlink:href="#Degradado_sin_nombre_58"/><clipPath id="clip-path-43"><path class="cls-6" d="M16.26,113.4s2.66-8-.58-13.76c-1,2.16-2.29,9.78.58,13.76"/></clipPath><linearGradient id="Degradado_sin_nombre_58-24" x1="-1645.13" y1="1565.4" x2="-1639.59" y2="1565.4" gradientTransform="translate(1190.46 -1012.87) scale(0.72)" xlink:href="#Degradado_sin_nombre_58"/><clipPath id="clip-path-44"><path class="cls-6" d="M14.51,109.65s-2-8.16-7.75-11.29c.29,2.37,3.23,9.5,7.75,11.29"/></clipPath><linearGradient id="Degradado_sin_nombre_58-25" x1="-3458.75" y1="89.79" x2="-3453.21" y2="89.79" gradientTransform="matrix(0.72, 0, 0, 0.72, 2515.37, 38.84)" xlink:href="#Degradado_sin_nombre_58"/><clipPath id="clip-path-45"><path class="cls-6" d="M10.62,97.67s-.14-8.42-5.09-12.76c-.24,2.37,1.06,10,5.09,12.76"/></clipPath><linearGradient id="Degradado_sin_nombre_58-26" x1="-2560.5" y1="801.48" x2="-2554.96" y2="801.48" gradientTransform="translate(1953.24 -518.24) scale(0.76)" xlink:href="#Degradado_sin_nombre_58"/><clipPath id="clip-path-46"><path class="cls-6" d="M9.76,89.62s5.63-6.14,5-12.77c-1.79,1.54-6,8-5,12.77"/></clipPath><linearGradient id="Degradado_sin_nombre_58-27" x1="-1064.97" y1="1670.15" x2="-1059.43" y2="1670.15" gradientTransform="translate(1213.4 846.96) rotate(90) scale(0.72)" xlink:href="#Degradado_sin_nombre_58"/><clipPath id="clip-path-47"><path class="cls-6" d="M9.73,86.13s1.3-8.3-2.86-13.46c-.63,2.29-.64,10,2.86,13.46"/></clipPath><linearGradient id="Degradado_sin_nombre_58-28" x1="-2097.82" y1="452.8" x2="-2092.28" y2="452.8" gradientTransform="matrix(0.9, 0, 0, 0.9, 1902.05, -330.04)" xlink:href="#Degradado_sin_nombre_58"/><clipPath id="clip-path-48"><path class="cls-6" d="M10.56,77s6.82-4.76,7.63-11.36c-2.06,1.1-7.58,6.43-7.63,11.36"/></clipPath><linearGradient id="Degradado_sin_nombre_58-29" x1="-433.61" y1="571.63" x2="-428.07" y2="571.63" gradientTransform="translate(615.13 522.8) rotate(90) scale(1.05)" xlink:href="#Degradado_sin_nombre_58"/><clipPath id="clip-path-49"><path class="cls-6" d="M11.64,72.53s3.22-7.77.41-13.78c-1.15,2.06-3,9.58-.41,13.78"/></clipPath><linearGradient id="Degradado_sin_nombre_58-30" x1="-1676.79" y1="1430.84" x2="-1671.25" y2="1430.84" gradientTransform="translate(1232.56 -978.4) scale(0.73)" xlink:href="#Degradado_sin_nombre_58"/><clipPath id="clip-path-50"><path class="cls-6" d="M13.74,66.36s7.72-3,10-9.28c-2.25.59-8.81,4.49-10,9.28"/></clipPath><linearGradient id="Degradado_sin_nombre_58-31" x1="-219.9" y1="285.21" x2="-214.36" y2="285.21" gradientTransform="translate(355.02 316.47) rotate(90) scale(1.18)" xlink:href="#Degradado_sin_nombre_58"/><clipPath id="clip-path-51"><path class="cls-6" d="M15.94,61.55s4.58-7,2.91-13.45c-1.51,1.82-4.68,8.85-2.91,13.45"/></clipPath><linearGradient id="Degradado_sin_nombre_58-32" x1="-978.17" y1="378.81" x2="-972.63" y2="378.81" gradientTransform="translate(435.04 1130.76) rotate(90) scale(1.1)" xlink:href="#Degradado_sin_nombre_58"/><clipPath id="clip-path-52"><path class="cls-6" d="M19.23,56.09s7.34-1.29,10.55-6.78c-2.09.1-8.61,2.45-10.55,6.78"/></clipPath><linearGradient id="Degradado_sin_nombre_58-33" x1="2884.1" y1="1100.6" x2="2889.64" y2="1100.6" gradientTransform="matrix(0.22, 0.52, -0.49, 0.25, -73.07, -1731.36)" xlink:href="#Degradado_sin_nombre_58"/><clipPath id="clip-path-53"><path class="cls-6" d="M23.09,51.33s5-5.35,4-11.94c-1.7,1.65-5.29,7.18-4,11.94"/></clipPath><linearGradient id="Degradado_sin_nombre_58-34" x1="-546.3" y1="1592.63" x2="-540.76" y2="1592.63" gradientTransform="matrix(0, 0.74, -0.74, 0, 1198.61, 445.41)" xlink:href="#Degradado_sin_nombre_58"/><clipPath id="clip-path-54"><path class="cls-6" d="M26.47,47.6s7.06.64,11.55-4.2a8.47,8.47,0,0,0-1.34-.09c-2.85,0-7.77.95-10.21,4.29"/></clipPath><linearGradient id="Degradado_sin_nombre_58-35" x1="2488.85" y1="11.94" x2="2494.39" y2="11.94" gradientTransform="translate(41.15 -1791.75) rotate(90) scale(0.74)" xlink:href="#Degradado_sin_nombre_58"/><clipPath id="clip-path-55"><path class="cls-6" d="M29.71,44.7a13.24,13.24,0,0,0,6-9.79c-2,1.19-6.15,4.85-6,9.79"/></clipPath><linearGradient id="Degradado_sin_nombre_58-36" x1="450.04" y1="2027.34" x2="455.58" y2="2027.34" gradientTransform="translate(1326.59 -249.41) rotate(90) scale(0.64)" xlink:href="#Degradado_sin_nombre_58"/><clipPath id="clip-path-56"><path class="cls-6" d="M32.16,131.4a13.15,13.15,0,0,0-5.76-10.08,11,11,0,0,0,5.76,10.08"/></clipPath><linearGradient id="Degradado_sin_nombre_58-37" x1="-2977.15" y1="1010.71" x2="-2971.61" y2="1010.71" gradientTransform="matrix(0.68, -0.29, 0.34, 0.62, 1706.57, -1363.08)" xlink:href="#Degradado_sin_nombre_58"/><clipPath id="clip-path-57"><path class="cls-6" d="M11.77,101.94s3.85-7.45,1.53-13.69c-1.31,2-3.76,9.29-1.53,13.69"/></clipPath><linearGradient id="Degradado_sin_nombre_58-38" x1="-1044.44" y1="1360.08" x2="-1038.91" y2="1360.08" gradientTransform="translate(1085.67 916.94) rotate(90) scale(0.79)" xlink:href="#Degradado_sin_nombre_58"/><clipPath id="clip-path-58"><path class="cls-6" d="M106.58,143.46c-14.14,2.38-35.18,2.38-35.18,2.38-20,0-52.56-3.56-52.56-7.84-.71,4.51-3.46,18.79-3.81,20.21s.66,2.66,4.52,3.58,20,5.46,51.85,5.46c30.07,0,42.09-3.92,44.22-4.27s9.87-2.63,9.51-5.24-3.56-20.34-3.56-20.34-.83,3.69-15,6.06"/></clipPath><linearGradient id="Degradado_sin_nombre_59" x1="-467.49" y1="-2029.97" x2="-461.95" y2="-2029.97" gradientTransform="matrix(19.89, 0, 0, -19.89, 9314.74, -40229.66)" gradientUnits="userSpaceOnUse"><stop offset="0" stop-color="#f4f0a3"/><stop offset="0.09" stop-color="#b77f2b"/><stop offset="0.25" stop-color="#f2d05e"/><stop offset="0.5" stop-color="#f1ed85"/><stop offset="0.75" stop-color="#f2d05e"/><stop offset="0.92" stop-color="#b77f2b"/><stop offset="1" stop-color="#f4f0a3"/></linearGradient></defs><g class="cls-7"><g id="Слой_2" data-name="Слой 2"><g id="Home"><g class="cls-8"><rect class="cls-9" x="8.38" y="116.63" width="40.02" height="37.31" transform="translate(-100.53 85.41) rotate(-57)"/></g><g class="cls-10"><rect class="cls-11" x="99.91" y="126.13" width="28.75" height="29.57" transform="translate(-58.31 84.98) rotate(-33)"/></g><g class="cls-12"><g class="cls-13"><g class="cls-14"><g class="cls-15"><rect class="cls-16" x="34.49" width="70.94" height="77.09"/></g></g></g></g><g class="cls-17"><rect class="cls-18" x="18.98" y="-14.27" width="102.07" height="102.07" transform="translate(-5.49 60.28) rotate(-45)"/></g><g class="cls-17"><g class="cls-19"><rect class="cls-20" x="34.6" y="0.01" width="70.83" height="73.52"/></g></g><g class="cls-21"><rect class="cls-22" x="-7.33" y="72.46" width="154.31" height="129.98" transform="translate(-84.12 129.19) rotate(-60)"/></g><g class="cls-23"><g class="cls-24"><g class="cls-25"><g class="cls-26"><rect class="cls-27" x="34.41" y="75.15" width="70.83" height="130.95"/></g></g></g></g><g class="cls-23"><g class="cls-28"><g class="cls-29"><g class="cls-30"><rect class="cls-31" x="23.71" y="130.19" width="92.22" height="92.22" transform="translate(-104.21 101.01) rotate(-45)"/></g></g></g></g><g class="cls-32"><rect class="cls-33" x="88.83" y="189.7" width="19.22" height="19.22" transform="translate(-112.1 127.99) rotate(-45)"/></g><g class="cls-34"><rect class="cls-35" x="-25.99" y="-8.81" width="191.57" height="191.57" transform="translate(-41.06 74.83) rotate(-45)"/></g><g class="cls-36"><rect class="cls-37" y="17.18" width="139.59" height="139.6"/></g><g class="cls-38"><rect class="cls-39" x="26.79" y="43.96" width="85.71" height="85.66"/></g><g class="cls-40"><rect class="cls-41" x="17.74" y="34.83" width="103.78" height="103.89"/></g><g class="cls-42"><rect class="cls-43" x="-2.08" y="15.1" width="143.8" height="143.8" transform="translate(-41.07 74.85) rotate(-45)"/></g><g class="cls-44"><g class="cls-45"><g class="cls-46"><g class="cls-47"><rect class="cls-48" x="9.41" y="39.97" width="122.5" height="122.5" transform="translate(-50.88 79.61) rotate(-45)"/></g></g></g></g><g class="cls-49"><rect class="cls-50" x="110.07" y="113.07" width="14.09" height="7.82" transform="translate(-23.59 204.19) rotate(-76.76)"/></g><g class="cls-51"><rect class="cls-52" x="104.37" y="126.01" width="14.04" height="10.18" transform="translate(-40.18 49.72) rotate(-21.41)"/></g><g class="cls-53"><rect class="cls-54" x="112.2" y="116.66" width="13.75" height="12.35" transform="translate(-47 81.76) rotate(-32)"/></g><g class="cls-55"><rect class="cls-56" x="118.36" y="106.27" width="13.63" height="13.57" transform="translate(-43.45 109.23) rotate(-40.79)"/></g><g class="cls-57"><rect class="cls-58" x="115.99" y="103.41" width="14.02" height="6.21" transform="translate(10.37 223.95) rotate(-87.09)"/></g><g class="cls-59"><rect class="cls-60" x="121.71" y="97.41" width="13.62" height="13.19" transform="translate(-33.86 135.1) rotate(-49.82)"/></g><g class="cls-61"><rect class="cls-62" x="124.27" y="86.46" width="13.83" height="9.66" transform="translate(-2.03 179.59) rotate(-68.37)"/></g><g class="cls-63"><rect class="cls-64" x="123.05" y="76.51" width="8.08" height="13.45" transform="translate(-8.63 14.97) rotate(-6.52)"/></g><g class="cls-65"><rect class="cls-66" x="123.37" y="74.98" width="14.29" height="8.85" transform="translate(13.58 177.71) rotate(-71.37)"/></g><g class="cls-67"><rect class="cls-68" x="119.49" y="64.78" width="10.57" height="13.07" transform="translate(-15.16 38.55) rotate(-16.57)"/></g><g class="cls-69"><rect class="cls-70" x="120.13" y="62.29" width="14.13" height="6.7" transform="translate(53.24 188.19) rotate(-86.19)"/></g><g class="cls-71"><rect class="cls-72" x="114.04" y="55.54" width="12.78" height="12.37" transform="translate(-14.38 49.9) rotate(-22.13)"/></g><g class="cls-73"><rect class="cls-74" x="118.27" y="47.94" width="7.08" height="13.78" transform="translate(-2.83 6.77) rotate(-3.15)"/></g><g class="cls-75"><polygon class="cls-76" points="122.27 50.49 118.09 60.5 107.01 54.91 111.19 44.91 122.27 50.49"/></g><g class="cls-77"><rect class="cls-78" x="109.66" y="38.79" width="9.08" height="13.14" transform="translate(-7.76 30.4) rotate(-14.67)"/></g><g class="cls-79"><rect class="cls-80" x="102.88" y="39.53" width="8.06" height="12.49" transform="translate(32.15 134.87) rotate(-73.18)"/></g><g class="cls-81"><rect class="cls-82" x="101.43" y="34.03" width="10.13" height="11.55" transform="translate(-5.92 56.78) rotate(-29.08)"/></g><g class="cls-83"><polygon class="cls-84" points="111.9 133.51 102.41 129.45 108.14 119.21 117.63 123.27 111.9 133.51"/></g><g class="cls-85"><rect class="cls-86" x="122.85" y="87.98" width="7.43" height="14.23" transform="translate(-9.05 13.42) rotate(-5.86)"/></g><g class="cls-87"><rect class="cls-88" x="18.13" y="109.94" width="7.83" height="14.09" transform="translate(-26.21 8.16) rotate(-13.24)"/></g><g class="cls-89"><rect class="cls-90" x="22.67" y="124.07" width="10.19" height="14.06" transform="translate(-104.42 109.09) rotate(-68.59)"/></g><g class="cls-91"><rect class="cls-92" x="13.9" y="115.96" width="12.35" height="13.76" transform="matrix(0.53, -0.85, 0.85, 0.53, -94.74, 74.77)"/></g><g class="cls-93"><rect class="cls-94" x="7.18" y="106.24" width="13.57" height="13.63" transform="translate(-80.76 49.78) rotate(-49.22)"/></g><g class="cls-95"><rect class="cls-96" x="13.05" y="99.51" width="6.21" height="14.02" transform="translate(-5.39 0.96) rotate(-2.91)"/></g><g class="cls-97"><rect class="cls-98" x="4.03" y="97.2" width="13.21" height="13.63" transform="matrix(0.76, -0.65, 0.65, 0.76, -64.59, 31.4)"/></g><g class="cls-99"><rect class="cls-100" x="3.13" y="84.37" width="9.66" height="13.83" transform="translate(-33.09 9.36) rotate(-21.63)"/></g><g class="cls-101"><rect class="cls-102" x="5.34" y="79.21" width="13.45" height="8.06" transform="translate(-72.01 85.77) rotate(-83.48)"/></g><g class="cls-103"><rect class="cls-104" x="4.21" y="72.26" width="8.85" height="14.29" transform="translate(-24.91 6.92) rotate(-18.63)"/></g><g class="cls-105"><rect class="cls-106" x="7.84" y="66.04" width="13.07" height="10.56" transform="translate(-58.08 64.75) rotate(-73.43)"/></g><g class="cls-107"><rect class="cls-108" x="8.6" y="58.57" width="6.71" height="14.13" transform="translate(-4.34 0.94) rotate(-3.81)"/></g><g class="cls-109"><rect class="cls-110" x="12.55" y="55.35" width="12.36" height="12.75" transform="translate(-45.5 55.82) rotate(-67.87)"/></g><g class="cls-111"><rect class="cls-112" x="10.45" y="51.29" width="13.78" height="7.08" transform="translate(-38.35 69.14) rotate(-86.86)"/></g><g class="cls-113"><polygon class="cls-114" points="16.88 50.49 21.06 60.49 32.12 54.91 27.94 44.92 16.88 50.49"/></g><g class="cls-115"><rect class="cls-116" x="18.38" y="40.82" width="13.14" height="9.08" transform="translate(-25.25 58.01) rotate(-75.33)"/></g><g class="cls-117"><rect class="cls-118" x="26" y="41.75" width="12.48" height="8.06" transform="translate(-11.87 11.29) rotate(-16.82)"/></g><g class="cls-119"><rect class="cls-120" x="26.87" y="34.73" width="11.55" height="10.14" transform="translate(-18.01 48.98) rotate(-60.92)"/></g><g class="cls-121"><polygon class="cls-122" points="27.24 133.51 36.73 129.45 31 119.21 21.51 123.27 27.24 133.51"/></g><g class="cls-123"><rect class="cls-124" x="5.46" y="91.37" width="14.24" height="7.45" transform="translate(-83.3 97.9) rotate(-84.14)"/></g><g class="cls-125"><rect class="cls-126" x="14.68" y="137.4" width="110.81" height="29.84"/></g><path class="cls-127" d="M69.81,69.67c-15.69,0-28.44,7.81-28.44,17.41s12.75,17.41,28.44,17.41,28.43-7.81,28.43-17.41S85.49,69.67,69.81,69.67M97.59,86.74H90.75c-.1-3.16-2.22-6-5.09-8.45a21.9,21.9,0,0,0,4.4-2.67c4.54,2.93,7.38,6.83,7.53,11.12M69.49,74.22c-1.16,0-2.3-.1-3.36-.22,1.43-1.38,2.68-2.43,3.36-3Zm.65-3.13A43.13,43.13,0,0,1,73.42,74a31.36,31.36,0,0,1-3.28.21Zm0,10.42a43.21,43.21,0,0,0,8.67-.94,13,13,0,0,1,2.08,6.17H70.14Zm0-.64v-6A30,30,0,0,0,74,74.6,34.34,34.34,0,0,1,78.45,80a42.07,42.07,0,0,1-8.31.88m4.12-7c-1.25-1.26-2.4-2.25-3.2-2.91,1.11.42,3.18,1.25,5.57,2.43-.74.19-1.53.34-2.37.48m-9,0a22.8,22.8,0,0,1-2.33-.49c2.39-1.17,4.46-2,5.56-2.41-.82.66-2,1.65-3.23,2.9m4.23,1v6a41.78,41.78,0,0,1-8.38-.9,34.2,34.2,0,0,1,4.42-5.39,27.83,27.83,0,0,0,4,.29m0,6.64v5.23H58.66a13,13,0,0,1,2.08-6.19,42.64,42.64,0,0,0,8.75,1m0,5.89v5.14a41.72,41.72,0,0,0-8.81,1,12.87,12.87,0,0,1-2-6.11Zm0,5.78v6a32.37,32.37,0,0,0-4,.3A33.48,33.48,0,0,1,61,94.09a40.45,40.45,0,0,1,8.45-.91m0,6.65v3.29A44.49,44.49,0,0,1,66,100.05a32,32,0,0,1,3.46-.22m-1,3.33c-1.13-.43-3.25-1.29-5.68-2.48a21.15,21.15,0,0,1,2.38-.5c1.3,1.28,2.48,2.3,3.3,3m5.87-3c.86.13,1.65.31,2.4.5-2.43,1.21-4.58,2.06-5.7,2.5.81-.68,2-1.71,3.3-3m-4.22,2.9V99.83a30.46,30.46,0,0,1,3.38.22c-1.43,1.38-2.68,2.43-3.38,3m0-3.89v-6a40.59,40.59,0,0,1,8.37.89,34.62,34.62,0,0,1-4.41,5.39,32.89,32.89,0,0,0-4-.29m0-6.63V87.4H80.89a13.17,13.17,0,0,1-2,6.09,41.85,41.85,0,0,0-8.73-.95m11.41-5.8a13.73,13.73,0,0,0-2.07-6.34A31.38,31.38,0,0,0,85,78.6c2.87,2.37,5,5.13,5.1,8.14Zm-2.41-6.91a31.67,31.67,0,0,0-4.3-5.35,25,25,0,0,0,2.67-.63,44.48,44.48,0,0,1,6.9,4.3,31.86,31.86,0,0,1-5.27,1.68m-.73-6.28a8.63,8.63,0,0,0,3-1.7,32.18,32.18,0,0,1,8.09,3.41,21.17,21.17,0,0,1-4.37,2.58,41,41,0,0,0-6.69-4.29m-.82-.41a61.8,61.8,0,0,0-6.38-2.79,43.34,43.34,0,0,1,9.42,1.3,9.56,9.56,0,0,1-3,1.49m-15.6,0a9.48,9.48,0,0,1-3-1.46,43,43,0,0,1,9.34-1.3A61,61,0,0,0,62,73.11m-.82.44a39.09,39.09,0,0,0-6.71,4.27,21.81,21.81,0,0,1-4.31-2.56,32,32,0,0,1,8.08-3.41,8.73,8.73,0,0,0,2.94,1.7m.9.29a20.76,20.76,0,0,0,2.63.61,32.82,32.82,0,0,0-4.29,5.37,33,33,0,0,1-5.25-1.7,44,44,0,0,1,6.91-4.28m-2,6.55A13.45,13.45,0,0,0,58,86.74H49.45c.08-3,2.25-5.8,5.13-8.16a34.18,34.18,0,0,0,5.48,1.81M58,87.4a13.3,13.3,0,0,0,2,6.27,30.85,30.85,0,0,0-5.5,1.83c-2.84-2.35-5-5.09-5.06-8.1Zm2.35,6.85a32.4,32.4,0,0,0,4.28,5.35,22.93,22.93,0,0,0-2.68.64A42.52,42.52,0,0,1,55.06,96a32.77,32.77,0,0,1,5.29-1.7m.71,6.3a8.19,8.19,0,0,0-2.92,1.72h0a32.23,32.23,0,0,1-8.1-3.43,22.59,22.59,0,0,1,4.31-2.59,41.05,41.05,0,0,0,6.7,4.29m.79.41c2.8,1.41,5.27,2.39,6.5,2.86a44,44,0,0,1-9.47-1.34,9.14,9.14,0,0,1,3-1.52m15.88,0a9.19,9.19,0,0,1,3,1.53,42.48,42.48,0,0,1-9.56,1.34c1.23-.47,3.73-1.46,6.55-2.87m.79-.42a40.05,40.05,0,0,0,6.68-4.29,21.79,21.79,0,0,1,4.36,2.61,33,33,0,0,1-8.08,3.43,8.1,8.1,0,0,0-3-1.75m-.89-.3a19.61,19.61,0,0,0-2.71-.64,32.44,32.44,0,0,0,4.27-5.36,32.57,32.57,0,0,1,5.3,1.7,43,43,0,0,1-6.86,4.3m1.91-6.58a13.53,13.53,0,0,0,2-6.25h8.53c-.09,3-2.18,5.74-5,8.07a33.07,33.07,0,0,0-5.52-1.82m-30-18a22.09,22.09,0,0,0,4.33,2.64c-2.89,2.43-5,5.3-5.11,8.48H42c.14-4.29,3-8.19,7.53-11.12M42,87.4h6.75c.08,3.17,2.19,6,5,8.41a21.62,21.62,0,0,0-4.33,2.68C45,95.56,42.18,91.67,42,87.4m48.1,11.09a21.36,21.36,0,0,0-4.4-2.7c2.83-2.4,4.91-5.24,5-8.39h6.84c-.15,4.27-3,8.16-7.45,11.09"/><path class="cls-127" d="M23.18,89.62c-.13.1-.44.08-.49-.07a16.75,16.75,0,0,0,.15-1.71c0-.44.06-.84.06-1.33a8.16,8.16,0,0,0,3-.9l2-.77c.29-.11,1.17-.54,1.52-.72l-1.49-.85-1.46-.78A16.82,16.82,0,0,0,23.22,81a9.64,9.64,0,0,0,.12-1.34c0-.44.07-1.07.07-1.56a.33.33,0,0,1,.48,0l0,.4c.09.56.24.83.95.89,2.8.17,4.28.23,6,.26.63,0,1,0,1.05-.55l.1-.43c.12-.1.43-.08.47,0-.06.64-.11,1.22-.16,1.88s-.07,1.36-.07,2a.31.31,0,0,1-.48,0l0-.42c-.05-.63-.21-.64-1-.69l-3.56-.19-1.53-.11v0c2.09,1.13,4.3,2.36,6.54,3.39a.62.62,0,0,1,.09.29.79.79,0,0,1-.1.35c-1.74.42-5.19,1.88-7,2.54v0c.87.11,1.47.16,2.18.22l3.06.22c.67,0,.86,0,1-.57l.13-.53a.39.39,0,0,1,.47.06c-.05.5-.11,1.09-.15,1.6s0,1,0,1.5c-.07.18-.43.15-.49,0l0-.25c-.08-.68-.17-.78-1-.92-.66-.1-1.85-.23-3.13-.38-.91-.11-2-.21-2.73-.25s-1,.24-1.13.77Z"/><path class="cls-127" d="M31.8,67.59c2.79,1,3.75,3.52,2.74,6.27a4.48,4.48,0,0,1-6,2.8,4.69,4.69,0,0,1-2.77-6.23,4.51,4.51,0,0,1,6.05-2.84m-5.5,3.16c-.59,1.57.55,3,2.7,3.75,1.56.59,4.26,1,5-1.1.6-1.67-.79-2.94-2.85-3.71s-4.31-.53-4.9,1.06"/><path class="cls-127" d="M39.4,60.46c.72.52,1.41,1,1.79,1.27a1,1,0,0,1-.2.82s-.85,0-1.86,0l-5,.29a19.31,19.31,0,0,0-2.29.18,2.36,2.36,0,0,0,.68.56l2.14,1.55a9.59,9.59,0,0,0,2.14,1.29.89.89,0,0,0,.81-.39l.27-.27a.42.42,0,0,1,.39.27c-.45.59-.77,1-1.1,1.46s-.57.83-.86,1.26a.41.41,0,0,1-.38-.27l.09-.22c.17-.34.26-.62.08-.87a9,9,0,0,0-1.91-1.61l-2.81-2a3.36,3.36,0,0,0-1-.61.9.9,0,0,0-.82.37l-.26.27c-.16,0-.4-.18-.37-.32.41-.51.81-1,1.14-1.5a10.14,10.14,0,0,0,.63-1,11.6,11.6,0,0,0,3.83,0l1.78-.13c.9-.07,1.53-.11,2-.18a1.67,1.67,0,0,0-.45-.41l-1.54-1.09a9,9,0,0,0-2.12-1.29c-.31-.07-.56.11-.83.38l-.25.27a.48.48,0,0,1-.4-.29c.46-.57.8-1,1.1-1.44s.58-.83.88-1.28a.47.47,0,0,1,.38.29l-.11.21a.84.84,0,0,0-.07.87,9.9,9.9,0,0,0,1.89,1.62Z"/><path class="cls-127" d="M38.67,54.77c-.8-1-1-1.2-1.52-.85l-.22.14c-.14,0-.39-.27-.27-.39.83-.77,1.63-1.48,2.75-2.39a9.85,9.85,0,0,1,2.74-1.66A4.16,4.16,0,0,1,46.79,51a4.36,4.36,0,0,1,.69,4.7,7.8,7.8,0,0,1-2.29,2.67c-.48.41-1.07.77-1.46,1.08s-1,.85-1.61,1.37c-.13,0-.36-.25-.32-.37l.3-.31c.4-.46.4-.6-.38-1.58ZM42.9,56.9c.48.57.81.94,1.19,1a1.54,1.54,0,0,0,1.13-.41c1.82-1.49,1.13-3.62,0-5-1.53-1.91-3.46-2.22-5.38-.67-.28.24-.45.44-.43.57a1.93,1.93,0,0,0,.41.69Z"/><path class="cls-127" d="M50.76,48.1c.17.34.2.37.53.2l.84-.39c.65-.3.74-.47.59-1.1l-.07-.35c0-.14.34-.28.45-.2.15.41.36.85.58,1.33s.44.9.67,1.28a.41.41,0,0,1-.46.23l-.22-.29c-.39-.52-.57-.55-1.22-.25l-.85.4c-.33.16-.33.17-.17.55L52.12,51a2.66,2.66,0,0,0,.75,1.09c.26.14.54.12,1.45-.29,1.08-.51,1.47-.75,1.5-2.46a.3.3,0,0,1,.47-.15,8.11,8.11,0,0,1,.43,2.21c-.67.28-1.87.83-2.88,1.31l-1.6.75-2.09,1c-.14,0-.28-.32-.2-.43l.52-.37c.51-.33.56-.44,0-1.58L48.32,47.5c-.53-1.13-.64-1.16-1.23-1l-.35.09c-.15,0-.26-.31-.18-.45.59-.25,1.21-.52,1.79-.79L51,44.1c.79-.38,1.48-.73,1.64-.83.08.19.61,1,1,1.84,0,.15-.24.31-.42.27a2.93,2.93,0,0,0-.93-.76,1.75,1.75,0,0,0-1.39.19l-1,.46c-.38.2-.38.23-.16.68Z"/><path class="cls-127" d="M63.14,50a4.78,4.78,0,0,1-2.37-.14,4.45,4.45,0,0,1-.8-2.1.35.35,0,0,1,.51-.13,2.93,2.93,0,0,0,2.67,1.74,1.37,1.37,0,0,0,1.22-1.6c-.18-1.09-1.31-1.57-2.19-1.84a3.1,3.1,0,0,1-2.44-2.29c-.28-1.51.74-2.75,2.68-3.07a5.37,5.37,0,0,1,1.57,0l.48,0A6.4,6.4,0,0,1,65,42.42c0,.18-.36.26-.51.14-.34-.64-1.08-1.53-2-1.37a1.27,1.27,0,0,0-1.18,1.46A2,2,0,0,0,62.77,44l1,.32a3.14,3.14,0,0,1,2.35,2.39c.26,1.66-.92,3-2.94,3.29"/><path class="cls-127" d="M70.27,43.77c0,.38,0,.41.37.42l.93,0c.71,0,.89-.08,1-.71l.06-.35c.11-.1.45-.1.51,0,0,.44-.06.93-.07,1.45s0,1,0,1.45a.39.39,0,0,1-.5,0l-.06-.34c-.12-.67-.28-.78-1-.79l-1,0c-.36,0-.38,0-.38.41l-.06,1.62a2.78,2.78,0,0,0,.18,1.3c.19.25.44.36,1.43.4,1.19,0,1.65,0,2.45-1.52a.31.31,0,0,1,.49.09,7.25,7.25,0,0,1-.63,2.15l-3.15-.14-1.77,0-2.34,0a.41.41,0,0,1,0-.47l.64-.09c.62-.07.7-.16.73-1.39l.15-5.09c0-1.24-.05-1.33-.66-1.47l-.34-.06a.39.39,0,0,1,0-.49l2,.11,2.88.07c.88,0,1.65,0,1.83,0,0,.22.06,1.21.11,2.11,0,.17-.37.18-.49,0a3.5,3.5,0,0,0-.5-1.09,1.78,1.78,0,0,0-1.32-.46l-1.08,0c-.47,0-.47,0-.48.53Z"/><path class="cls-127" d="M78.33,47.91a2.3,2.3,0,0,0-.06,1.31c.11.28.33.44,1.31.66,1.2.29,1.57.34,2.71-1a.39.39,0,0,1,.5.2,8.49,8.49,0,0,1-1.08,2c-.7-.2-2-.52-3-.78l-1.78-.41c-.61-.14-1.29-.3-2.11-.45a.38.38,0,0,1,.08-.48l.51.06c.63,0,.73,0,1-1.27l1.17-4.93c.3-1.23.25-1.37-.35-1.59l-.36-.15c-.12-.11,0-.41.15-.46.67.19,1.33.36,2,.51s1.3.3,2,.43a.41.41,0,0,1-.1.47l-.37,0c-.61,0-.71,0-1,1.27Z"/><path class="cls-127" d="M87.36,47.6c-.16.34-.16.38.18.51l.85.42c.64.3.84.27,1.23-.25l.21-.29a.43.43,0,0,1,.45.23c-.22.38-.42.82-.65,1.3s-.42.92-.58,1.32c-.11.08-.42-.06-.47-.21l.11-.33c.13-.65,0-.82-.61-1.11l-.85-.42c-.32-.15-.35-.14-.53.23L86,50.47a2.55,2.55,0,0,0-.36,1.25c.06.31.25.51,1.14.94,1.08.5,1.52.66,2.86-.41.15-.1.43.1.42.27a7.86,7.86,0,0,1-1.43,1.73c-.66-.33-1.84-.89-2.84-1.36l-1.6-.76-2.15-1c-.06-.12.09-.41.21-.42l.62.18c.6.18.71.14,1.23-1l2.16-4.62c.52-1.1.48-1.22,0-1.59l-.29-.2a.39.39,0,0,1,.23-.44c.57.31,1.18.61,1.77.88l2.6,1.23c.8.37,1.5.68,1.68.73-.09.21-.41,1.14-.75,2-.1.12-.39,0-.46-.16a3.42,3.42,0,0,0,0-1.19,1.74,1.74,0,0,0-1-1l-1-.46c-.42-.19-.44-.16-.63.29Z"/><path class="cls-127" d="M101.32,52.64a21.28,21.28,0,0,0-1.18,1.79.38.38,0,0,1-.47-.26,2.49,2.49,0,0,0-.82-3.11c-1.2-.93-3.27-.9-4.93,1.24s-1.31,4.25,0,5.27a3,3,0,0,0,3.49,0,.38.38,0,0,1,.34.4A6.07,6.07,0,0,1,96,59.37a10.9,10.9,0,0,1-2.49-1.3A6.36,6.36,0,0,1,91.25,55a4.32,4.32,0,0,1,.84-3.88,4.46,4.46,0,0,1,3.51-1.84,5.92,5.92,0,0,1,3.73,1.36,16.41,16.41,0,0,1,2,2"/><path class="cls-127" d="M104.5,57.49c.24-.2.3-.24.1-.5l-.53-.65c-.63-.78-1.24-.66-2.26-.35a.39.39,0,0,1-.23-.47,17.63,17.63,0,0,0,2.09-1.1.25.25,0,0,1,.17.1.29.29,0,0,1,.07.18c-.12.2-.15.27.51,1.07l3.19,3.94c.55.7.69.85,1,.76a.24.24,0,0,1,.14.12.25.25,0,0,1,.07.22,9.64,9.64,0,0,0-2,1.31c-.13,0-.38-.24-.34-.37.52-.74.91-1.28.26-2.07l-.5-.64c-.22-.26-.26-.26-.54,0L101,62.78c-1,.8-1,.93-.7,1.46l.3.47a.42.42,0,0,1-.37.3c-.53-.71-.94-1.25-1.34-1.72s-.86-1.06-1.49-1.78a.41.41,0,0,1,.38-.3l.44.43c.43.44.57.43,1.56-.37Z"/><path class="cls-127" d="M104.8,68.63c-1.12.62-1.15.73-1,1.33l.12.37c0,.13-.29.27-.43.22-.32-.66-.63-1.25-1-1.81s-.65-1.17-1-1.8a.36.36,0,0,1,.4-.22l.26.3c.39.49.52.52,1.64-.09l4.39-2.43c1.12-.62,1.16-.74,1-1.33l-.13-.37a.4.4,0,0,1,.43-.23c.33.65.64,1.25.95,1.83s.65,1.15,1,1.78c0,.14-.29.28-.42.24l-.24-.31c-.39-.5-.52-.52-1.64.09Z"/><path class="cls-127" d="M111.32,79c-2.84.88-5.14-.49-6-3.29a4.44,4.44,0,0,1,3-5.9,4.69,4.69,0,0,1,6,3.24,4.49,4.49,0,0,1-3,6m2.4-5.87c-.49-1.61-2.24-2-4.42-1.32-1.59.49-4,1.84-3.29,4,.52,1.71,2.39,1.85,4.49,1.19s3.74-2.23,3.22-3.83"/><path class="cls-127" d="M109.62,89.26c-.89,0-1.75,0-2.2.08a1.08,1.08,0,0,1-.33-.79s.68-.48,1.45-1.14l3.81-3.25a16.7,16.7,0,0,0,1.7-1.54,2.91,2.91,0,0,0-.87,0l-2.64.08a8.67,8.67,0,0,0-2.48.27c-.28.12-.37.43-.43.79l0,.38a.44.44,0,0,1-.48,0V82.3c0-.5-.05-1-.09-1.53a.44.44,0,0,1,.48,0l0,.24c.08.36.19.64.48.73a9.85,9.85,0,0,0,2.49.14l3.46-.11a2.67,2.67,0,0,0,1.15-.12c.25-.11.4-.31.45-.79l0-.38c.1-.09.42-.09.47,0,0,.64,0,1.32,0,1.88a9.93,9.93,0,0,0,.08,1.14,11.86,11.86,0,0,0-3,2.34L111.81,87c-.69.62-1.16,1-1.46,1.35a1.82,1.82,0,0,0,.61,0l1.88,0a8.61,8.61,0,0,0,2.49-.28c.28-.12.36-.42.41-.79l.05-.37a.44.44,0,0,1,.48,0c0,.74,0,1.27,0,1.82s0,1,.07,1.52a.44.44,0,0,1-.47,0l0-.25a.84.84,0,0,0-.45-.73,10,10,0,0,0-2.52-.15Z"/><path class="cls-127" d="M53.6,61.78c0-.62,0-.68-.26-.72l-.17,0c-.06,0-.07-.21,0-.22.45,0,.91-.06,1.52-.06A2.27,2.27,0,0,1,56,61a.8.8,0,0,1,.43.77.83.83,0,0,1-.62.77c-.06,0-.13,0-.13.05s0,0,.1.06a1,1,0,0,1,.89,1,1,1,0,0,1-.7,1,3.75,3.75,0,0,1-1.23.16l-.63,0h-1s0-.19,0-.21l.18,0c.27,0,.31-.09.31-.65Zm.86.6c0,.16,0,.16.31.16a.66.66,0,0,0,.72-.7.73.73,0,0,0-.76-.8c-.27,0-.27.06-.27.33Zm0,1.41c0,.46,0,.77.53.77s.67-.35.67-.85a.81.81,0,0,0-.88-.9c-.32,0-.32,0-.32.25Z"/><path class="cls-127" d="M57.48,61.77c0-.61,0-.67-.27-.71l-.16,0c-.06,0-.06-.17,0-.21.46,0,.94-.06,1.51-.06a2.59,2.59,0,0,1,1.2.23,1,1,0,0,1,.53.9,1,1,0,0,1-.64.91s0,.07,0,.14a5.2,5.2,0,0,0,.95,1.53.74.74,0,0,0,.41.17.13.13,0,0,1,0,.16,1.59,1.59,0,0,1-.49,0,1.24,1.24,0,0,1-1.16-.64,7.82,7.82,0,0,1-.49-.95.29.29,0,0,0-.31-.21c-.22,0-.23,0-.23.13v.75c0,.56,0,.61.31.65l.16,0s0,.17,0,.2H57s0-.19,0-.2l.17,0c.27,0,.31-.09.31-.65Zm.84.78c0,.22,0,.23.38.23a.51.51,0,0,0,.45-.17.86.86,0,0,0,.23-.66.82.82,0,0,0-.8-.91c-.25,0-.26,0-.26.32Z"/><path class="cls-127" d="M61.28,61.66c0-.57,0-.6-.31-.65l-.14,0a.13.13,0,0,1,0-.21c.28,0,.58,0,.89,0s.59,0,.88,0c0,.05,0,.18,0,.21l-.15,0c-.27,0-.3.09-.3.66v1.42c0,.71.08,1.5,1,1.5s1-.69,1-1.53v-.73a5.13,5.13,0,0,0-.09-1.12c-.06-.13-.19-.17-.36-.19l-.16,0a.2.2,0,0,1,0-.21l.82,0,.69,0a.22.22,0,0,1,0,.21L65,61c-.17,0-.28.07-.32.2a4.1,4.1,0,0,0-.09,1.12V63a2.05,2.05,0,0,1-.42,1.49,1.62,1.62,0,0,1-1.2.42,1.8,1.8,0,0,1-1.2-.33,1.69,1.69,0,0,1-.45-1.39Z"/><path class="cls-127" d="M65.2,64.61a.92.92,0,0,0,.71-.47c.17-.23.5-.71.77-1.09a.37.37,0,0,0,.08-.2.33.33,0,0,0-.12-.2c-.18-.3-.56-.92-.85-1.32a.69.69,0,0,0-.55-.33l-.11,0a.18.18,0,0,1,0-.22c.2,0,.59,0,1,0a9.17,9.17,0,0,0,.93,0,.17.17,0,0,1,0,.22l-.15,0c-.09,0-.21,0-.21.09a1.39,1.39,0,0,0,.1.23,9.94,9.94,0,0,0,.58.9c.23-.34.43-.64.62-1a.36.36,0,0,0,.06-.19s0,0-.12-.07l-.24,0a.14.14,0,0,1,0-.22,5.94,5.94,0,0,0,.67,0q.44,0,.75,0a.2.2,0,0,1,0,.22l-.23,0a.54.54,0,0,0-.36.16,11.16,11.16,0,0,0-.85,1.09.59.59,0,0,0-.12.21.46.46,0,0,0,.08.19c.45.71.75,1.16,1,1.49s.38.41.6.44l.18,0a.17.17,0,0,1,0,.21h-2c-.06,0-.08-.19,0-.21l.18,0c.14,0,.23,0,.23-.09s0-.1-.19-.36a11.3,11.3,0,0,0-.64-1c-.23.35-.51.81-.73,1.19a.38.38,0,0,0,0,.17s0,.06.18.08l.16,0c.06,0,0,.19,0,.21H65.08a.14.14,0,0,1,0-.21Z"/><path class="cls-127" d="M70.76,62.37c0,.17,0,.18.18.18h.4c.33,0,.4,0,.46-.34l0-.14c0-.06.18-.06.21,0s0,.42,0,.64,0,.46,0,.66-.19.06-.21,0l0-.15c-.06-.29-.13-.34-.46-.34h-.4c-.17,0-.18,0-.18.18v.74c0,.28,0,.47.1.56s.2.17.65.17.72,0,1.06-.71c.05-.06.21,0,.22,0a3.17,3.17,0,0,1-.25,1H69.29s0-.19,0-.2l.29,0c.27,0,.31-.09.31-.65V61.66c0-.56,0-.6-.31-.65l-.16,0a.2.2,0,0,1,0-.22l.88,0h1.3c.38,0,.74,0,.82,0s0,.55.09,1a.18.18,0,0,1-.24,0,1.42,1.42,0,0,0-.23-.48.8.8,0,0,0-.6-.19H71c-.2,0-.2,0-.2.25Z"/><path class="cls-127" d="M74.37,63.8a1.1,1.1,0,0,0,.1.58c.09.11.2.15.65.15s.71,0,1.07-.73a.17.17,0,0,1,.24,0,2.71,2.71,0,0,1-.28,1H73c-.06,0-.06-.17,0-.21l.23,0c.29,0,.31-.08.31-.65V61.66c0-.56,0-.63-.31-.65L73,61c-.06,0-.06-.17,0-.22l.91,0c.31,0,.61,0,.92,0,.05.05.05.19,0,.22l-.16,0c-.27,0-.32.09-.32.65Z"/><path class="cls-127" d="M78,63.8a1,1,0,0,0,.1.58c.07.11.18.15.63.15s.73,0,1.1-.73c0-.06.19,0,.23,0a4.32,4.32,0,0,1-.27,1h-3.2c-.06,0-.06-.17,0-.21l.23,0c.27,0,.32-.08.32-.65V61.66c0-.56,0-.63-.32-.65l-.18,0s0-.17,0-.22l.91,0,.91,0c0,.05,0,.19,0,.22l-.16,0c-.29,0-.31.09-.31.65Z"/><path class="cls-127" d="M81.5,62.37c0,.17,0,.18.18.18h.44c.32,0,.38,0,.44-.34l0-.14c0-.06.19-.06.21,0s0,.42,0,.64,0,.46,0,.66-.17.06-.21,0l0-.15c-.06-.29-.12-.34-.44-.34h-.44c-.16,0-.18,0-.18.18v.74a1.1,1.1,0,0,0,.11.56c.08.13.2.17.66.17s.73,0,1.06-.71c0-.06.2,0,.23,0a3.84,3.84,0,0,1-.26,1H80.05c-.07,0-.07-.19,0-.2l.29,0c.28,0,.3-.09.3-.65V61.66c0-.56,0-.6-.3-.65l-.16,0c-.06,0-.06-.17,0-.22l.87,0h1.3c.4,0,.74,0,.81,0s.06.55.09,1c0,.07-.16.07-.22,0a1.12,1.12,0,0,0-.24-.48.78.78,0,0,0-.59-.19h-.49c-.22,0-.22,0-.22.25Z"/><path class="cls-127" d="M84.94,64.91a2.15,2.15,0,0,1-1-.23,2,2,0,0,1-.19-1,.14.14,0,0,1,.23,0c.12.39.53.95,1,.95a.61.61,0,0,0,.66-.62c0-.49-.45-.79-.82-1a1.38,1.38,0,0,1-.92-1.19c0-.69.52-1.16,1.41-1.16a2.27,2.27,0,0,1,.7.1l.2,0a2.66,2.66,0,0,1,.11.88.16.16,0,0,1-.23,0c-.1-.3-.38-.75-.81-.75a.56.56,0,0,0-.62.56.92.92,0,0,0,.56.7l.4.22a1.37,1.37,0,0,1,.86,1.23c0,.74-.62,1.23-1.54,1.23"/><path class="cls-127" d="M28.84,99.36c.26-.11.36-.14.35-.42s0-.2,0-.21.11.06.15.17.14.47.19.66.18.49.24.68.05.2,0,.23-.13-.07-.18-.16c-.14-.24-.27-.22-.42-.18s-.24.06-1.13.35a12.33,12.33,0,0,0-1.21.4c-.33.12-.38.18-.36.49,0,.12,0,.19-.08.2s-.12-.08-.13-.16-.15-.57-.23-.84-.14-.38-.22-.58,0-.21,0-.23.1,0,.18.15.28.22.51.15l1.27-.38c.25-.08.78-.23,1-.32"/><path class="cls-127" d="M30,100.83c0,.12.22.63.33.9a.41.41,0,0,1,0,.16,7.49,7.49,0,0,0-.33.68c-.22.42-.82,1.82-1,2.17,0,0,0,0,0,0,.18,0,.8-.31,1.08-.43a4,4,0,0,0,.58-.28c.12-.06.2-.17.16-.45,0-.12,0-.21,0-.24s.1,0,.15.13.1.25.12.32c.13.29.26.53.31.67s0,.15,0,.16-.09,0-.16-.09a.46.46,0,0,0-.56-.16c-.19,0-1.73.65-2,.74l-.89.4s-.12,0-.12,0a.47.47,0,0,1,.08-.41c.11-.17.18-.32.3-.54.42-.77.94-2,1.3-2.69,0,0,0,0,0,0a5.38,5.38,0,0,0-.72.27,9.89,9.89,0,0,0-1.39.59c-.13.07-.21.17-.19.46,0,.13,0,.19,0,.21s-.12,0-.16-.15-.08-.24-.14-.42a5.86,5.86,0,0,1-.27-.59c0-.08,0-.16,0-.17s.11,0,.16.08c.16.22.28.34.7.18.7-.25,1.65-.56,2-.7a1.31,1.31,0,0,0,.33-.16.57.57,0,0,0,.08-.51c0-.06,0-.17.06-.2s.11,0,.15.13"/><path class="cls-127" d="M33.06,107.49c.16.28.22.33.31.39a.45.45,0,0,0,.08.05s0,.12-.12.14a3.48,3.48,0,0,0-.66.23s-.15,0-.19,0,0-.09.11-.18.29-.32.18-.55-.23-.42-.34-.57a.09.09,0,0,0-.06,0l-1,.52c-.59.32-1.17.63-1.44.81-.12.09-.22.19-.1.59,0,.08,0,.17-.06.17s-.11,0-.13-.09-.39-.77-.43-.87-.34-.57-.38-.66-.08-.17,0-.18.13,0,.18,0c.25.29.33.29.68.13s1.36-.67,1.75-.87.5-.28.6-.32.05-.09,0-.1a3.56,3.56,0,0,0-.27-.57.46.46,0,0,0-.25-.17,1,1,0,0,0-.36,0c-.14,0-.21,0-.22,0s0-.12.08-.15.5-.16.74-.26a.22.22,0,0,1,.16,0,.12.12,0,0,1,0,.14.69.69,0,0,0,0,.28c.05.1.48.93.57,1.12s.51.94.6,1.08"/><path class="cls-127" d="M34.66,110.11a3.87,3.87,0,0,0,.32.4.09.09,0,0,1,0,.11s-.44.31-.53.37-.18.05-.2,0a.17.17,0,0,1,0-.18c.24-.25.23-.45.18-.56a3,3,0,0,0-.4-.7s0,0-.18,0-.69.41-1,.65c0,0,0,.06,0,.08l.27.44c.19.28.19.25.46.22.1,0,.19,0,.21,0s0,.11-.11.16a2.06,2.06,0,0,0-.34.19,2,2,0,0,0-.33.24q-.14.11-.21,0s0-.12.06-.17.16-.31.07-.46-.2-.34-.29-.51a.2.2,0,0,0-.13,0,6.73,6.73,0,0,0-.63.4,3,3,0,0,0-.39.27.21.21,0,0,0-.06.2,1.5,1.5,0,0,0,.21.38c.13.19.19.33.34.41a1,1,0,0,0,.62.15c.17,0,.26,0,.28,0s-.08.11-.12.14a6.26,6.26,0,0,1-.71.19.21.21,0,0,1-.16-.1l-1-1.66c-.25-.37-.29-.38-.4-.54s-.1-.19-.05-.23.13,0,.2.08c.22.21.31.23.6.07a11.76,11.76,0,0,0,1.1-.65c.58-.38.88-.56,1-.66s.25-.21.15-.45-.08-.2,0-.22.13,0,.18.1c.15.24.46.75.61,1Z"/><path class="cls-127" d="M35.7,114.24a1.32,1.32,0,0,1-.27-.12s-.06,0-.06,0a10.69,10.69,0,0,0-.58,1.55.91.91,0,0,0,.07.55.14.14,0,0,1,0,.14s-.09,0-.14,0a2.11,2.11,0,0,1-.3-.3c-.39-.52-.32-.81-.27-1s.27-.78.47-1.25a.8.8,0,0,0,.09-.26.29.29,0,0,0-.08-.21.06.06,0,0,0-.08,0,8.81,8.81,0,0,0-.91.72c-.17.17-.2.23-.09.48,0,.09,0,.16,0,.18s-.16,0-.21-.09-.29-.44-.43-.62-.36-.42-.4-.48-.08-.17,0-.21a.25.25,0,0,1,.17,0c.23.17.34.16.48.06.47-.31.82-.59,1.27-.93s.76-.61.84-.7.15-.18,0-.44c0-.08,0-.17,0-.19s.12,0,.18.07l.3.39c.12.16.46.57.66.81a1.72,1.72,0,0,1,.43,1,.92.92,0,0,1-.36.66.84.84,0,0,1-.78.14m.56-1.32a.62.62,0,0,0-.1-.45.5.5,0,0,0-.17-.13l-.12,0c-.16.11-.95.68-1.08.81s0,.08,0,.08a1.24,1.24,0,0,0,.44.41.76.76,0,0,0,.68-.15.93.93,0,0,0,.35-.59"/><path class="cls-127" d="M37.75,114.2c.1.09.45.51.65.72,0,0,0,.14,0,.16s0,.38,0,.75-.12,2-.13,2.38c0,0,.05,0,.05,0s.62-.57.87-.79.34-.36.44-.47a.4.4,0,0,0,0-.47c-.05-.11-.09-.19-.05-.24s.11,0,.19.06a2.19,2.19,0,0,0,.23.26c.21.23.43.4.54.51s.07.12,0,.17-.09,0-.18,0a.42.42,0,0,0-.57.06c-.16.12-1.38,1.22-1.57,1.4s-.56.57-.68.68-.14,0-.14,0-.08-.32-.07-.41,0-.37.07-.61c.12-.87.17-2.19.26-3,0,0-.06,0-.06,0a6.66,6.66,0,0,0-.57.48c-.7.67-.86.81-1.08,1.06s-.14.25,0,.51a.45.45,0,0,1,0,.21c-.07,0-.14,0-.22-.08s-.16-.2-.3-.35l-.46-.45c-.06-.06-.07-.14,0-.17s.12,0,.17,0c.22.14.39.21.71-.08.57-.49,1.32-1.12,1.62-1.39s.22-.22.23-.26a.53.53,0,0,0-.09-.5s-.07-.17,0-.19.12,0,.17,0"/><path class="cls-127" d="M42.17,118.63a5.28,5.28,0,0,1-.25.61c-.35.91-.73,1.93-.86,2.24-.16.48-.09.64,0,.78s.07.16,0,.2-.12,0-.21-.06-.46-.44-.57-.54-.38-.32-.51-.4-.12-.16-.07-.21.07,0,.19,0,.26,0,.33,0a5.67,5.67,0,0,0,.31-.76.21.21,0,0,0,0-.14,5,5,0,0,0-.77-.64s0,0-.07,0a2,2,0,0,0-.69.43c-.08.11-.08.2,0,.37s.1.15,0,.2-.09,0-.17-.06-.19-.17-.37-.32-.35-.28-.43-.35-.11-.15-.09-.17.07-.06.2,0c.28.14.4.09.74-.06s1.83-.92,2.37-1.17l.11,0s0,0,.06,0a2.89,2.89,0,0,0,.48-.07.22.22,0,0,1,.15,0s0,0,0,.17m-1.39,1.47c.11-.25.35-.88.42-1.13,0,0,0,0-.05,0a11.44,11.44,0,0,0-1,.56,0,0,0,0,0,0,.07l.62.54s.05,0,.06,0"/><path class="cls-127" d="M45.55,121.25a1.07,1.07,0,0,0,.44.21s.11,0,.12,0a.13.13,0,0,1,0,.17,4.43,4.43,0,0,0-.51.47s-.13.11-.19.06,0-.06,0-.2c.14-.33.13-.43-.07-.57s-.39-.28-.56-.38a.07.07,0,0,0-.08,0c-.16.21-.38.48-.67.88s-.78,1.07-1,1.35c-.08.12-.11.27.17.58a.2.2,0,0,1,0,.18s-.12,0-.17,0l-.75-.61a6.45,6.45,0,0,1-.64-.42c-.07-.06-.15-.13-.1-.16a.15.15,0,0,1,.18,0c.35.13.42.1.68-.21s.93-1.16,1.2-1.52.34-.46.4-.53a.1.1,0,0,0,0-.11,4.59,4.59,0,0,0-.5-.4.64.64,0,0,0-.29-.07c-.1,0-.23.1-.36.14s-.18.08-.2.07a.13.13,0,0,1,0-.18c.06-.09.39-.36.56-.56,0,0,.13-.08.16,0a.21.21,0,0,1,0,.14.49.49,0,0,0,.14.22c.1.08.82.64,1,.77s.83.64,1,.73"/><path class="cls-127" d="M46.36,122.56c.13-.25.19-.34,0-.54s-.13-.16-.1-.2.13,0,.23,0,.41.28.56.39.46.25.63.37.15.12.12.17-.14,0-.22,0a.36.36,0,0,0-.48.12c-.06.11-.14.2-.63,1s-.57.93-.67,1.08c-.18.32-.18.38.05.62.07.08.1.16.06.2s-.14,0-.22,0a5.59,5.59,0,0,0-.71-.5l-.52-.32c-.14-.08-.15-.14-.12-.19s.09,0,.23,0,.35,0,.49-.21.47-.69.74-1.11l.56-.89"/><path class="cls-127" d="M50.9,126.46a1.92,1.92,0,0,1-1.33,1,2.18,2.18,0,0,1-1.4-.23A2.07,2.07,0,0,1,47.1,126a2,2,0,0,1,.19-1.42,1.78,1.78,0,0,1,1.36-1,2.31,2.31,0,0,1,1.32.22,1.93,1.93,0,0,1,.93,2.62m-1.8-2.53a1.81,1.81,0,0,0-1,.94c-.43.82-.44,1.9.29,2.29a.83.83,0,0,0,.55,0,2.13,2.13,0,0,0,1-1,2.33,2.33,0,0,0,.23-1.61,1.22,1.22,0,0,0-.49-.62.87.87,0,0,0-.65,0"/><path class="cls-127" d="M52.14,125.05c.13,0,.63.28.9.39a.35.35,0,0,1,.1.12l.26.71c.12.44.72,1.85.88,2.21,0,0,0,0,0,0s.32-.76.45-1.06a5,5,0,0,0,.21-.62c0-.11,0-.25-.22-.41s-.17-.14-.15-.2.09-.07.21,0a2.11,2.11,0,0,0,.31.13,6.57,6.57,0,0,0,.69.24c.09,0,.11.1.1.14s-.08.06-.18.06c-.35,0-.39.11-.49.27s-.75,1.7-.85,1.93-.26.75-.33.91-.12.06-.12.06-.22-.27-.23-.35a5.37,5.37,0,0,0-.21-.59c-.23-.83-.73-2.06-1-2.81,0,0-.06,0-.06,0-.09.16-.14.27-.33.69a12.31,12.31,0,0,0-.54,1.42c-.05.13,0,.27.21.44s.14.15.12.18-.12.06-.21,0-.23-.12-.42-.2-.51-.17-.6-.22-.12-.09-.12-.12.12-.07.18-.07c.27,0,.44,0,.61-.36.31-.68.74-1.57.88-1.93s.12-.3.11-.33a.53.53,0,0,0-.28-.42c-.06,0-.13-.12-.12-.17a.16.16,0,0,1,.18,0"/><path class="cls-127" d="M58,127.22c0,.15,0,.48,0,.66.06,1,.13,2.07.18,2.41,0,.49.16.6.31.71s.13.1.11.14-.08.08-.2,0l-.76-.25-.62-.16c-.1,0-.17-.09-.16-.14s.06-.07.18-.07.27-.06.31-.14a7.37,7.37,0,0,0,0-.83s-.06-.12-.06-.12a6.62,6.62,0,0,0-1-.26l-.09,0a2.86,2.86,0,0,0-.42.67c0,.14,0,.23.17.34s.17.1.14.17-.1,0-.2,0a2.56,2.56,0,0,1-.44-.14l-.54-.13c-.16,0-.18-.1-.17-.13s0-.07.18-.07c.32,0,.41-.09.67-.36s1.26-1.6,1.65-2.06a.28.28,0,0,1,.06-.1l0-.06a3.86,3.86,0,0,0,.42-.26.13.13,0,0,1,.12,0s.07,0,.07.14m-.64,1.92c0-.27,0-.94-.07-1.2,0,0,0,0-.07,0-.19.25-.64.83-.7.94a.07.07,0,0,0,0,.08,8,8,0,0,1,.8.23s0,0,0-.05"/><path class="cls-127" d="M60.06,127.74l.63.14.79.14c.13,0,.17.06.16.1s-.09.09-.15.09c-.31,0-.36.1-.38.17a12.39,12.39,0,0,0-.39,1.71,9.63,9.63,0,0,0-.19,1,.28.28,0,0,0,.16.27,4.63,4.63,0,0,0,.46.13,2.59,2.59,0,0,0,.41,0s.14,0,.17,0a2.29,2.29,0,0,0,.46-.41.74.74,0,0,1,.15-.08c.08,0,.08.08,0,.17s-.28.53-.33.67a.26.26,0,0,1-.14.06c-.09,0-.6-.15-1.75-.38-.23-.05-.69-.11-.91-.15s-.16-.06-.16-.11.07-.09.17-.09c.32,0,.39-.09.45-.35a14.18,14.18,0,0,0,.33-1.41c.15-.71.16-.86.19-1s0-.33-.21-.44-.15-.11-.14-.15.1-.07.19-.05"/><path class="cls-127" d="M69.32,130.67a1.72,1.72,0,0,1-.73,1.43,1.64,1.64,0,0,1-.64.35s0,.05,0,.09a3.48,3.48,0,0,0,.73.64,1.58,1.58,0,0,0,.93.39,1.45,1.45,0,0,0,.38,0s.09,0,.09.05-.12.16-.15.18a1.86,1.86,0,0,1-.72.15,2.48,2.48,0,0,1-1.39-.53c-.21-.12-.49-.39-.86-.68a2,2,0,0,0-.5-.34,1.89,1.89,0,0,1-.28-3.4,1.87,1.87,0,0,1,1.22-.31,1.91,1.91,0,0,1,1.92,2m-2.63-1.61a1.91,1.91,0,0,0-.51,1.45,2,2,0,0,0,.38,1.31,1.2,1.2,0,0,0,.77.51,1.24,1.24,0,0,0,.56-.09c.36-.23.5-1.08.51-1.38a2.52,2.52,0,0,0-.41-1.6,1,1,0,0,0-.71-.36.9.9,0,0,0-.59.16"/><path class="cls-127" d="M69.9,128.84c.25,0,.52,0,.73,0s.6-.07.71-.07.19,0,.19.08-.07.11-.19.14-.24.13-.28.35,0,.74.06,1.56.19.86.4,1a1.24,1.24,0,0,0,.66.2.88.88,0,0,0,.94-.79,10.24,10.24,0,0,0,0-1.68,2.74,2.74,0,0,0-.06-.48c0-.15-.16-.24-.41-.28-.06,0-.16-.06-.16-.12s0-.09.15-.09.37,0,.55,0,.4,0,.56,0,.14,0,.15.09-.09.08-.16.1c-.28.08-.36.21-.34.57s0,1,0,1.3c0,1-.28,1.36-.67,1.62a1.5,1.5,0,0,1-.78.21,1.68,1.68,0,0,1-1.14-.29c-.34-.29-.49-.6-.53-1.51,0-.24-.1-1.37-.11-1.44s-.07-.21-.3-.24c-.07,0-.17-.06-.17-.11s.07-.1.17-.11"/><path class="cls-127" d="M75.73,128.41A5,5,0,0,1,76,129c.47.88,1,1.83,1.14,2.14s.41.47.59.51.16,0,.18.08,0,.1-.18.11-.63.08-.79.1l-.62.1c-.11,0-.21,0-.21-.06s0-.09.13-.14.23-.17.2-.24a4.07,4.07,0,0,0-.34-.75s-.1-.07-.1-.07c-.77.1-1,.14-1,.15s0,.05,0,.08a1.9,1.9,0,0,0-.11.78c0,.13.1.19.31.22s.17,0,.17.09-.06.1-.17.12a3.15,3.15,0,0,0-.46,0c-.22,0-.47.09-.57.11s-.18,0-.18,0,0-.09.13-.15c.29-.11.33-.25.44-.59s.49-2,.66-2.57a.56.56,0,0,0,0-.1.2.2,0,0,1,0-.08c0-.09.22-.35.25-.42a.3.3,0,0,1,.07-.08c.08,0,.1,0,.15.1m.22,2c-.13-.25-.44-.83-.56-1.07,0,0-.07,0-.07,0-.07.29-.25,1-.25,1.14a0,0,0,0,0,.06.06l.81-.12a.05.05,0,0,0,0-.05"/><path class="cls-127" d="M77.84,128c.15,0,.47-.1.64-.14s.6-.17.75-.21.19,0,.21,0-.06.12-.11.15c-.26.14-.3.23-.28.3a11.78,11.78,0,0,0,.35,1.72c.08.37.18.81.24,1a.34.34,0,0,0,.27.16,3.23,3.23,0,0,0,.46-.06,2.49,2.49,0,0,0,.41-.14s.1-.06.12-.1a2.07,2.07,0,0,0,.26-.57.31.31,0,0,1,.14-.14s.07,0,0,.14V131a.28.28,0,0,1-.12.12c-.09,0-.6.1-1.74.36-.23.06-.67.2-.9.25s-.18,0-.18,0,0-.12.12-.15c.29-.14.3-.24.27-.5s-.11-.61-.3-1.43-.19-.85-.23-1-.14-.3-.4-.31c-.11,0-.16,0-.17-.08s0-.11.15-.12"/><path class="cls-127" d="M81.61,127.75c-.11-.26-.13-.35-.41-.34s-.2,0-.21-.07.06-.1.17-.14.48-.12.66-.18a6.66,6.66,0,0,0,.68-.23c.11,0,.2,0,.23,0s0,.14-.15.18a.33.33,0,0,0-.19.44c0,.11,0,.23.32,1.12s.33,1,.39,1.21c.13.33.19.37.51.36.11,0,.17,0,.19.09s-.09.11-.17.13-.58.14-.84.22-.38.14-.58.21-.21,0-.23-.05,0-.09.14-.16.22-.29.17-.52-.23-.8-.37-1.28c-.07-.26-.24-.77-.31-1"/><path class="cls-127" d="M85.77,125.59c.3-.13.37-.17.41-.24l.06-.08a.15.15,0,0,1,.15.11,2.86,2.86,0,0,0,.12.69s0,.17-.05.2-.07,0-.18-.14c-.18-.3-.26-.33-.51-.23a4.26,4.26,0,0,0-.6.25.12.12,0,0,0,0,.1c.09.23.21.56.38,1s.5,1.23.63,1.52.17.25.58.18a.22.22,0,0,1,.18.07s-.07.09-.14.13l-.9.32-.7.31c-.1,0-.19.05-.2,0s0-.14.09-.18c.3-.21.3-.3.2-.66s-.49-1.43-.65-1.83-.22-.54-.26-.64a.08.08,0,0,0-.07-.05,4.65,4.65,0,0,0-.62.22s-.18.13-.2.2,0,.25-.08.39a1,1,0,0,0,0,.19c-.11,0-.15,0-.18-.08s-.1-.52-.17-.78c0,0,0-.14,0-.15s.08,0,.12,0a.68.68,0,0,0,.29,0c.1,0,1-.34,1.17-.41s1-.39,1.14-.47"/><path class="cls-127" d="M86.7,125.18a6.61,6.61,0,0,0,.74-.32l.56-.28c.08,0,.15,0,.16,0s0,.13-.06.18-.14.22,0,.32.65.46,1.06.73c0,0,.06,0,.06-.06s.09-.85.09-1.18,0-.32-.33-.24c-.09,0-.2,0-.23,0s.06-.1.09-.11.25-.1.38-.17l.62-.35c.09,0,.14,0,.16,0a.25.25,0,0,1-.09.21,1,1,0,0,0-.31.65,11.67,11.67,0,0,0-.19,1.36,1.26,1.26,0,0,0,.08.29c.15.29.44.82.55,1s.14.19.44.13c.12,0,.18,0,.2,0s0,.11-.12.16-.55.23-.65.29c-.37.18-.69.39-.76.41s-.16.06-.19,0a.29.29,0,0,1,.11-.17c.24-.22.26-.33.23-.41-.12-.26-.42-.84-.48-1a1.48,1.48,0,0,0-.21-.27c-.16-.12-.71-.45-1.09-.71s-.58-.27-.74-.24-.17,0-.2,0,.05-.11.13-.16"/><path class="cls-127" d="M92.63,122.7c-.17-.22-.22-.29-.48-.21s-.2,0-.23,0a.21.21,0,0,1,.13-.18c.15-.11.43-.26.58-.37l.6-.41c.08,0,.18-.09.22,0s0,.15-.1.22-.13.31-.06.45.12.22.62,1,.62.9.72,1,.28.31.58.21c.12,0,.18,0,.22,0s-.06.13-.12.17l-.75.46-.51.36c-.13.08-.18.07-.22,0s0-.1.08-.2.14-.33,0-.54-.44-.71-.71-1.12l-.6-.89"/><path class="cls-127" d="M93.75,121.2l.8-.58s.13,0,.13,0l.75.14c.46.1,2,.29,2.36.35,0,0,0,0,0-.06s-.51-.66-.7-.92-.32-.38-.44-.49-.18-.13-.46,0c-.1,0-.21.07-.24,0s0-.09.08-.18l.28-.2a5.77,5.77,0,0,0,.56-.49c.07,0,.15,0,.17,0s0,.09,0,.19c-.19.3-.12.39,0,.56s1.08,1.5,1.24,1.7.52.61.62.74a.13.13,0,0,1,0,.15c-.11.09-.32,0-.42,0s-.35-.09-.59-.15c-.85-.2-2.16-.37-2.94-.53,0,0,0,.06,0,.07s.15.23.43.6a12.65,12.65,0,0,0,1,1.18c.09.11.22.15.5,0,.12,0,.18,0,.19,0s0,.12-.09.19l-.36.27c-.11.09-.42.35-.52.41a.12.12,0,0,1-.14,0c-.07,0,0-.13,0-.18.16-.21.25-.36,0-.72-.43-.61-1-1.43-1.22-1.74s-.21-.24-.23-.24a.51.51,0,0,0-.51,0,.27.27,0,0,1-.21,0,.17.17,0,0,1,.07-.18"/><path class="cls-127" d="M98.77,117a.63.63,0,0,1,.14,0,5.11,5.11,0,0,0,.43.4c.06.07.09.12.06.14a.22.22,0,0,1-.23,0,1.29,1.29,0,0,0-.45-.15.7.7,0,0,0-.49.2.61.61,0,0,0,0,.82c.21.22.52.2,1.14.07,1-.21,1.26.07,1.46.28a1,1,0,0,1,.18,1,1.76,1.76,0,0,1-.45.72,2.35,2.35,0,0,1-.76.49.53.53,0,0,1-.22,0,2.09,2.09,0,0,1-.52-.42s0-.14,0-.15.22,0,.4.06a1,1,0,0,0,1-.14.58.58,0,0,0,0-.77c-.18-.18-.42-.25-1-.16-.75.12-1.19.11-1.56-.29a1,1,0,0,1-.26-.83,1.48,1.48,0,0,1,.51-.86,7.12,7.12,0,0,1,.63-.45"/><path class="cls-127" d="M101.23,114.44c.2-.25.24-.31.25-.41a.17.17,0,0,0,0-.09.11.11,0,0,1,.16,0,5.24,5.24,0,0,0,.43.56s.09.14,0,.19-.08,0-.21,0c-.3-.17-.39-.17-.57,0a5.5,5.5,0,0,0-.43.51.06.06,0,0,0,0,.09c.18.19.42.42.78.76.51.46,1,.9,1.24,1.1s.26.14.59-.1c.07,0,.17,0,.18,0s0,.12,0,.17-.6.62-.67.71l-.5.56c-.06.08-.13.12-.17.1a.18.18,0,0,1,0-.2c.17-.33.16-.4-.12-.68s-1.07-1.07-1.39-1.37-.42-.38-.5-.45a.09.09,0,0,0-.1,0,2.46,2.46,0,0,0-.45.46.49.49,0,0,0-.08.28,1.76,1.76,0,0,0,.08.37c0,.12.07.19,0,.21s-.12,0-.18,0a4.51,4.51,0,0,0-.5-.61s-.07-.15,0-.18.1,0,.13,0a.71.71,0,0,0,.24-.14c.09-.07.74-.74.89-.9s.72-.79.82-.92"/><path class="cls-127" d="M102.61,113.8c-.22-.16-.3-.21-.51,0s-.2.1-.23,0,0-.12.06-.2.32-.38.45-.54.31-.41.44-.57.15-.13.19-.1,0,.15,0,.23a.32.32,0,0,0,.09.47,11.22,11.22,0,0,0,.89.75c.71.55.86.68,1,.78s.36.21.62,0c.09-.07.16-.09.2,0s0,.15,0,.2a8.54,8.54,0,0,0-.57.67c-.12.14-.25.32-.38.49s-.17.13-.23.09a.33.33,0,0,1,0-.21c.11-.25,0-.37-.16-.52s-.62-.55-1-.86c-.22-.17-.64-.52-.85-.65"/><path class="cls-127" d="M104.84,109.68c.17-.28.2-.35.21-.45s0-.09,0-.1.1,0,.16,0a3.32,3.32,0,0,0,.5.49s.11.13.06.19-.06.06-.2,0c-.35-.13-.43-.12-.58.1s-.27.4-.34.55,0,.07,0,.1l.91.63c.56.39,1.1.75,1.38.93.13.08.27.1.57-.18a.17.17,0,0,1,.19,0s0,.13,0,.18-.51.7-.57.78-.34.55-.4.64-.11.15-.15.12a.18.18,0,0,1,0-.2c.13-.34.1-.41-.21-.66s-1.2-.9-1.58-1.15a6.47,6.47,0,0,0-.55-.37s-.1,0-.11,0-.29.39-.37.51a.75.75,0,0,0-.06.3,2.52,2.52,0,0,0,.15.34c0,.13.09.18.07.21s-.13,0-.18,0a5.86,5.86,0,0,0-.59-.55s-.07-.11,0-.15.07,0,.12,0a.6.6,0,0,0,.22-.18c.07-.07.61-.82.75-1s.61-.89.68-1"/><path class="cls-127" d="M105.41,108.8c.12-.22.27-.44.37-.62s.26-.54.34-.65.11-.12.16-.1,0,.11,0,.23,0,.28.16.42.62.38,1.33.78.83.3,1.1.21a1.11,1.11,0,0,0,.52-.44.89.89,0,0,0-.17-1.22,7.25,7.25,0,0,0-1.41-.91,1.82,1.82,0,0,0-.44-.21c-.16-.05-.29,0-.46.19s-.13.12-.19.09,0-.09,0-.19a3.67,3.67,0,0,0,.3-.46c.12-.2.18-.36.25-.5s.1-.1.16-.07,0,.1,0,.18c-.08.3,0,.42.3.6s.87.51,1.12.68c.83.51,1,1,1,1.43a1.84,1.84,0,0,1-.22.77,1.76,1.76,0,0,1-.87.81c-.41.13-.76.1-1.56-.35-.21-.13-1.2-.65-1.27-.68s-.22-.05-.37.12-.13.12-.19.1,0-.11,0-.21"/><path class="cls-127" d="M108.64,102.35a1.23,1.23,0,0,0,.1-.47.54.54,0,0,1,0-.11s.12,0,.19,0a2.08,2.08,0,0,0,.58.38s.14.1.11.19-.08,0-.23,0c-.33-.08-.43-.05-.53.2a4.68,4.68,0,0,0-.23.6s0,.09,0,.1c.24.1.56.23,1,.45.62.26,1.22.51,1.53.62.14,0,.29,0,.53-.29.06-.07.14-.09.16-.07s0,.12,0,.18-.36.79-.4.87-.23.62-.26.71-.11.17-.15.15a.23.23,0,0,1-.06-.19c0-.36,0-.42-.34-.61s-1.37-.64-1.77-.81l-.62-.27a.08.08,0,0,0-.1,0c0,.09-.21.43-.27.56a.47.47,0,0,0,0,.31,2.43,2.43,0,0,0,.21.31.89.89,0,0,1,.11.19.13.13,0,0,1-.17,0c-.1,0-.45-.29-.7-.41,0,0-.09-.09,0-.14s0-.05.11-.05.11-.1.18-.22.44-.93.53-1.14.43-1,.48-1.14"/><path class="cls-127" d="M109.68,99.46a3.34,3.34,0,0,0,.12-.49s0,0,.1,0l.63.2c.07,0,.15.1.12.15s-.11.07-.17.06c-.34,0-.5.11-.55.21a5.27,5.27,0,0,0-.29.75s0,.07.14.11.76.29,1.16.43c0,0,.09,0,.09,0l.16-.48c.1-.33.08-.31-.13-.51s-.12-.12-.1-.17.11,0,.2,0a1.42,1.42,0,0,0,.34.15,1.56,1.56,0,0,0,.4.1c.12,0,.17.1.15.15s-.09.07-.16.06c-.25,0-.34.08-.41.23s-.14.37-.21.55a.48.48,0,0,0,0,.12,5.56,5.56,0,0,0,.73.23,3.66,3.66,0,0,0,.43.15.26.26,0,0,0,.21-.07,3.16,3.16,0,0,0,.17-.43,1.88,1.88,0,0,0,.12-.5,1,1,0,0,0-.29-.58c-.11-.13-.16-.21-.14-.26s.14,0,.19,0l.6.44a.23.23,0,0,1,0,.18c0,.08-.58,1.68-.64,1.87a4.63,4.63,0,0,0-.18.63c0,.11-.1.21-.15.19s-.07-.11-.06-.22c0-.3,0-.38-.31-.5s-.53-.23-1.2-.46-1-.33-1.14-.36-.34-.07-.44.16-.11.17-.18.14,0-.12,0-.2c.09-.26.3-.82.38-1.08Z"/><path class="cls-128" d="M32.61,149a3.1,3.1,0,0,1-.65-.22,8.17,8.17,0,0,0-2.18-.74,6.07,6.07,0,0,0-4.05.51,4.27,4.27,0,0,0-2.19,3,4.43,4.43,0,0,0,.75,3.77,5.88,5.88,0,0,0,3.51,1.94c.27.05,1.55.13,2.18.13a10.73,10.73,0,0,0,1.31,0,.36.36,0,0,0,.26-.18c0-.11,0-.18-.06-.25-.17-.26-.2-.29-.15-.47.1-.58.36-1.53.41-1.7s.06-.41.58-.43a.45.45,0,0,0,.37-.21c0-.11-.05-.24-.32-.29-.56-.11-1.47-.2-1.81-.28s-1-.26-1.67-.38c-.28-.06-.52,0-.53.11s.15.3.36.36c.84.26.87.57.91.9a7,7,0,0,1-.16,1.13c-.14.63-.28,1-.51,1.06a1.34,1.34,0,0,1-.76.11,3.23,3.23,0,0,1-2.37-2.3,4.92,4.92,0,0,1-.08-2.6c.43-2.16,2-3.77,3.92-3.39a3.1,3.1,0,0,1,2,1.43,4.33,4.33,0,0,1,.34,1.09c0,.22.12.42.2.43s.3-.15.33-.31c.12-.58.06-1.35.12-1.8,0-.17,0-.33-.1-.36"/><path class="cls-128" d="M52,159.63c-.41-.16-.75-.36-1.1-1.53-.24-.79-.93-3.34-1.53-5.65-.1-.43-.28-1.23-.4-1.55s-.14-.3-.23-.32a.41.41,0,0,0-.28.16c-.12.16-.68.66-.86.85a.32.32,0,0,0-.12.17,2.17,2.17,0,0,1-.12.23c-.68,1.29-2.53,5.06-3,5.71s-.64,1-1.38,1.16a.74.74,0,0,0-.31.1.51.51,0,0,0-.18-.14,1.76,1.76,0,0,1-1-.79,22.14,22.14,0,0,1-1.67-3.68c0-.06,0-.15,0-.18a5,5,0,0,0,.67-.25,2.07,2.07,0,0,0,1.12-1.58,2.32,2.32,0,0,0-.49-1.76,4.61,4.61,0,0,0-2.44-1l-2.55-.27-1.15-.16c-.19,0-.44.08-.45.17s.13.25.33.32c.65.25.72.55.72.82s-.15,1.47-.31,2.65c-.17,1.35-.29,2.4-.59,3.78-.1.4-.23.59-.92.7-.19,0-.37.12-.38.19s0,.25.43.3c.16,0,.87.06,1.48.15s1.33.26,1.79.32c.21,0,.49,0,.53-.15s-.1-.22-.34-.33c-.6-.25-.65-.38-.63-1s.28-2.5.36-2.81c0-.06.12-.09.17-.08a.89.89,0,0,1,.49.25,1.76,1.76,0,0,1,.3.58c.47,1.16,1,2.45,1.32,3s.54,1,2.13,1.22a3.71,3.71,0,0,0,1,0,.37.37,0,0,0,.18-.05c0,.06.14.12.41.15s.82,0,1.36.06.88.11,1.14.14.45-.06.46-.15-.11-.24-.39-.32c-.46-.19-.63-.38-.59-.72a5.14,5.14,0,0,1,.71-1.78c0-.06.13-.15.16-.14s.56,0,2.41.17a.92.92,0,0,1,.26.26,11.78,11.78,0,0,1,.41,2c0,.19-.06.4-.63.48-.28.06-.4.15-.4.21s.18.26.45.27,1.1.07,1.56.12,1.58.19,1.9.23.47-.09.47-.18-.12-.22-.34-.32M39.68,152.3a1.79,1.79,0,0,1-.92,1.38,3.24,3.24,0,0,1-1.45.1.25.25,0,0,1-.16-.17c0-.44.4-2.77.49-3.22a.81.81,0,0,1,.21-.29,2.12,2.12,0,0,1,.49,0,1.33,1.33,0,0,1,.94.6,2.13,2.13,0,0,1,.4,1.62m8.62,3.6c-.44-.05-1.43-.13-2-.16a.14.14,0,0,1-.11-.18c.08-.28.88-1.9,1.22-2.56,0-.11.16-.15.19-.05.15.61.57,2.19.73,2.83,0,.07-.06.12-.07.12"/><path class="cls-128" d="M63.36,151.66c-.37,0-1,0-1.78,0l-.85,0c-.28,0-.44.07-.44.16s.2.27.5.36c.65.21.8.51.82.8s0,1.1,0,1.56c0,.79-.08,2.42-.18,2.83,0,0-.06.11-.11.06-.61-.7-3.09-3.47-3.79-4.37-.56-.7-.94-1.16-1.14-1.42a.77.77,0,0,0-.33-.2c-.72,0-2-.18-2.34-.2s-.41.09-.41.21.22.26.38.29a1.37,1.37,0,0,1,1,.73,2.6,2.6,0,0,1,0,.86c0,.94-.33,3.32-.51,5.13-.09,1.06-.46,1.19-1.1,1.33-.14,0-.35.1-.36.26s.16.21.36.21,1.24,0,1.57,0,.69.08,1.1.1.46,0,.48-.2-.13-.2-.41-.29c-.67-.25-.82-.52-.84-.89a27,27,0,0,1,.12-3.67c.07-1.13.14-1.42.17-1.79,0,0,.09-.17.17-.09,1.15,1.52,3.3,3.94,4.54,5.66.36.48.62.79.89,1.19.12.19.46.61.79.62,0,0,.26-.11.28-.24,0-.43,0-1.78,0-2.37s.31-4.59.39-5.08.08-.81.92-1c.24-.08.35-.2.37-.27s-.1-.23-.33-.24"/><path class="cls-128" d="M68.68,151.73c-1,0-2.62.06-3.32.05h-.89c-.21,0-.4.09-.4.2s.19.23.33.27c.74.12.77.39.83,1.27s0,2.39,0,3.1c0,.5,0,1.14-.07,2-.06,1.37-.16,1.53-1,1.63-.17,0-.38.13-.41.25s.18.24.5.25.55,0,1.06,0c.79.05,2.28.11,2.86.12a6.66,6.66,0,0,0,3.2-.72,4.56,4.56,0,0,0,2.3-3.91,4.44,4.44,0,0,0-1.3-3.1,5.37,5.37,0,0,0-3.7-1.41m1.47,7.87a2.7,2.7,0,0,1-1.87.75,1.87,1.87,0,0,1-.83-.39.86.86,0,0,1-.29-.6c0-.65,0-1.31,0-2.29l0-2c0-1.24.07-2,.1-2.4a.2.2,0,0,1,.11-.2,1.08,1.08,0,0,1,.62-.18,3.55,3.55,0,0,1,2.54,1.13,4.49,4.49,0,0,1,.9,2.85,4.56,4.56,0,0,1-1.31,3.38"/><path class="cls-128" d="M86.48,156.55c-.57,0-1.48.12-1.82.14s-1,0-1.72,0c-.28,0-.5.13-.5.24s.24.26.45.26c.87.06,1,.36,1.08.68a7.88,7.88,0,0,1,.09,1.15c0,.63-.06,1-.26,1.13a1.3,1.3,0,0,1-.7.28,3.34,3.34,0,0,1-2.85-1.71,4.94,4.94,0,0,1-.63-2.53c-.07-2.19,1.07-4.11,3.06-4.16A3.06,3.06,0,0,1,85,153a4.11,4.11,0,0,1,.58,1c.07.21.21.38.29.38a.35.35,0,0,0,.26-.38c0-.6-.25-1.33-.29-1.79,0-.16-.11-.32-.18-.32a3.9,3.9,0,0,1-.68-.07,8.76,8.76,0,0,0-2.29-.24,6.11,6.11,0,0,0-3.85,1.41,4.27,4.27,0,0,0-1.47,3.38,4.42,4.42,0,0,0,1.58,3.52,5.88,5.88,0,0,0,3.85,1.11c.29,0,1.55-.23,2.15-.36s1-.26,1.28-.33c.07,0,.21-.15.21-.24s-.08-.16-.12-.23c-.22-.21-.25-.24-.25-.41,0-.6,0-1.59,0-1.77s0-.4.46-.55c.19,0,.33-.2.33-.27s-.1-.24-.38-.22"/><path class="cls-128" d="M92.65,151a5.22,5.22,0,0,0-3,1.29A4.33,4.33,0,0,0,88.14,156a4.56,4.56,0,0,0,1.49,3.15,5,5,0,0,0,3.8,1.19A5.36,5.36,0,0,0,96.59,159,4.62,4.62,0,0,0,98,155.14,4.68,4.68,0,0,0,92.65,151M95,159.15a1.83,1.83,0,0,1-1.22.62c-2,.16-3.36-2.07-3.53-4.29A4.39,4.39,0,0,1,91,152.3a2.25,2.25,0,0,1,1.38-.77,2.79,2.79,0,0,1,1.8.62,5.59,5.59,0,0,1,1.65,3.59,5.08,5.08,0,0,1-.76,3.41"/><path class="cls-128" d="M107,156.2a.65.65,0,0,0-.34.34,5.24,5.24,0,0,1-.78,1.29.71.71,0,0,1-.33.22,7.44,7.44,0,0,1-1,.25,7.28,7.28,0,0,1-1.08,0,.69.69,0,0,1-.62-.46,24.81,24.81,0,0,1-.41-2.46c-.3-2.06-.5-3.49-.51-4.24,0-.14.1-.4.79-.69.1,0,.28-.17.25-.33s-.14-.16-.49-.1-1.31.26-1.85.33-1.21.14-1.59.18-.41.13-.38.28.14.19.42.22c.65.08.77.27.87.83s.12.81.36,2.56c.3,2,.42,3.14.45,3.49,0,.66,0,.91-.8,1.16-.21.08-.33.25-.32.34s.21.15.47.12c.55-.08,1.64-.33,2.19-.4,2.84-.41,4.08-.49,4.34-.53a1.39,1.39,0,0,0,.28-.26c0-.34.13-1.39.19-1.82,0-.23,0-.38-.1-.37"/><path class="cls-128" d="M117.13,151.59a4.24,4.24,0,0,0-2-2.7,5.4,5.4,0,0,0-3.93-.51c-.94.21-2.53.68-3.19.83l-.9.2c-.18,0-.36.18-.33.29s.23.18.38.18c.75-.06.85.19,1.1,1.05s.56,2.32.72,3c.13.48.25,1.1.41,1.94.26,1.34.21,1.51-.57,1.81-.16.06-.36.22-.33.34s.22.19.54.12l1-.22c.78-.15,2.26-.42,2.83-.55a6.84,6.84,0,0,0,2.93-1.44,4.6,4.6,0,0,0,1.3-4.35m-2.61,4.09a2.76,2.76,0,0,1-1.66,1.18,2,2,0,0,1-.9-.19.86.86,0,0,1-.41-.54c-.18-.6-.33-1.24-.56-2.2l-.44-2c-.27-1.22-.4-1.94-.47-2.36a.25.25,0,0,1,0-.22,1.14,1.14,0,0,1,.57-.31,3.57,3.57,0,0,1,2.77.49A4.72,4.72,0,0,1,115,152.1a4.63,4.63,0,0,1-.48,3.58"/><path class="cls-127" d="M60.27,117.09c1,0,1.15,0,1.55-.76.11-.09.41-.09.47.08a5.82,5.82,0,0,1-.68,2.12c-.55,0-1,0-1.9,0H57.53c-.71,0-1.3,0-1.54,0a.24.24,0,0,1-.13-.3c.52-.48,1.3-1.2,2.12-2.1a5.55,5.55,0,0,0,1.79-3.65,1.51,1.51,0,0,0-1.48-1.67,2.08,2.08,0,0,0-1.77,1.26.31.31,0,0,1-.47-.19,3.36,3.36,0,0,1,3.16-2.12,2.36,2.36,0,0,1,2.59,2.31c0,1.06-.43,1.83-2.06,3.39l-.66.6c-.6.56-.74.75-.74.86s.08.17.26.17Z"/><path class="cls-127" d="M69.4,114.21c0,2.21-.93,4.47-3.15,4.47s-3.16-2.26-3.16-4.47.94-4.46,3.16-4.46,3.15,2.35,3.15,4.46m-3.15,3.85c1,0,1.15-2.63,1.15-3.85s-.12-3.83-1.15-3.83-1.16,2.62-1.16,3.83.13,3.85,1.16,3.85"/><path class="cls-127" d="M74.32,116.73c0,1.1.08,1.24.75,1.29l.55,0c.14.08.11.43,0,.47-.48,0-1.3,0-2.17,0s-1.71,0-2.2,0c-.13,0-.15-.39,0-.47l.57,0c.67,0,.75-.19.75-1.29v-4.47c0-.89-.06-1.09-.67-1.18l-.62-.09a.41.41,0,0,1,0-.48,13,13,0,0,0,1.75-.39c.6-.17,1.12-.43,1.2-.43a.19.19,0,0,1,.21.15c0,.31,0,1,0,1.62Z"/><path class="cls-127" d="M78.14,111.75a.3.3,0,0,1-.37-.26,3.07,3.07,0,0,1,2.85-1.73c1.34,0,2.16.64,2.16,1.55,0,.57-.22,1.13-1.71,1.78-.15.06-.06.17.11.17a2.11,2.11,0,0,1,2.3,2.12,3.41,3.41,0,0,1-1.56,2.78,5.66,5.66,0,0,1-3.15,1.1c-.75,0-1.48-.27-1.48-1a.75.75,0,0,1,.81-.75c.5,0,.81.56.93.73a.68.68,0,0,0,.58.3,2.3,2.3,0,0,0,1.83-2.45c0-1.22-.62-2.09-1.6-2.09a2,2,0,0,0-1.35.57.47.47,0,0,1-.31-.66,8.94,8.94,0,0,0,2.18-1.1,1.54,1.54,0,0,0,.6-1.23,1.07,1.07,0,0,0-1.12-1,2.27,2.27,0,0,0-1.7,1.15"/><path class="cls-127" d="M46.76,182.55c-.38,0-.43,0-.52.3l-.59,1.75a1.48,1.48,0,0,0-.1.55c0,.09.18.18.62.26l.46.07c.09.1.13.45,0,.52-.53,0-1.09,0-1.73-.05s-.88.05-1.59.05c-.17-.08-.15-.4-.05-.52l.42,0a1,1,0,0,0,.93-.75c.27-.6.55-1.33,1-2.42l1.4-3.68a5.07,5.07,0,0,0,.57-1.92,2.79,2.79,0,0,0,1.32-.91c.22,0,.3.08.38.3.12.44.3,1,.69,2.07L52,184c.32.91.47,1.26,1,1.35l.58.09c.1.08.14.44,0,.52-.74,0-1.56-.05-2.37-.05s-1.37,0-2.09.05a.33.33,0,0,1,0-.52l.48-.07c.35-.07.42-.17.42-.26a7.33,7.33,0,0,0-.28-1l-.43-1.3c-.08-.24-.19-.27-.73-.27Zm1.75-.8c.35,0,.43-.05.3-.44l-.38-1.23c-.22-.64-.51-1.45-.65-1.77-.12.34-.42,1.16-.65,1.85l-.39,1.14c-.14.4-.06.45.32.45Z"/><path class="cls-127" d="M67.08,176.58a1.17,1.17,0,0,0-.69.34,9.73,9.73,0,0,0-.84,1.67c-.77,1.76-2.44,5.53-3.19,7.49a.89.89,0,0,1-.51.12.69.69,0,0,1-.41-.12c-.18-.36-.4-.9-.58-1.34l-.65-1.41a10,10,0,0,0-.55-1.18c-.15.26-.32.63-.53,1l-.71,1.54c-.25.48-.41.92-.65,1.42a.82.82,0,0,1-.5.12.72.72,0,0,1-.4-.12c-.25-.63-.86-2-1.39-3.14L53,177.62c-.42-.88-.52-1-1-1.07l-.38-.07c-.12-.15-.09-.46.07-.53.56,0,1.2,0,2,0s1.28,0,1.86,0c.13.05.19.43,0,.53l-.27,0c-.27,0-.38.12-.38.22a20.32,20.32,0,0,0,.8,1.89L57.17,182c.43.94.66,1.37.84,1.72a17,17,0,0,0,.79-1.56l.19-.43a1.54,1.54,0,0,0,.16-.54,2.85,2.85,0,0,0-.16-.55l-1.47-3.19c-.38-.76-.47-.86-1.06-.92h-.15c-.14-.13-.11-.48,0-.53.65,0,1.25,0,1.93,0s1.37,0,1.77,0c.17,0,.16.45.06.53l-.26.06c-.2,0-.42.1-.42.2a1.39,1.39,0,0,0,.14.46l.47,1c.13.32.33.73.46,1,.16-.32.34-.7.48-1l.15-.31a6.14,6.14,0,0,0,.44-1.12c0-.1,0-.15-.32-.21l-.53-.1c-.12-.11-.11-.46,0-.53.44,0,1,0,1.5,0s1.18,0,1.58,0a.41.41,0,0,1,0,.54l-.43.09c-.52.11-.63.11-1.17,1-.37.62-.75,1.37-1,1.76a3.72,3.72,0,0,0-.33.79,1.3,1.3,0,0,0,.11.37l.73,1.54c.4.81.61,1.3.71,1.51.74-1.74,1.58-3.68,2.32-5.5a8.66,8.66,0,0,0,.4-1.23c0-.15-.26-.21-.46-.27l-.33-.09a.43.43,0,0,1,0-.53c.49,0,1.14,0,1.58,0s1,0,1.43,0c.13.07.15.4.06.53Z"/><path class="cls-127" d="M68.84,182.55c-.35,0-.4,0-.49.3l-.61,1.75a1.86,1.86,0,0,0-.11.55c0,.09.2.18.64.26l.46.07c.08.1.11.45,0,.52-.54,0-1.09,0-1.74-.05s-.87.05-1.58.05c-.18-.08-.15-.4,0-.52l.42,0a1.05,1.05,0,0,0,.93-.75c.27-.6.55-1.33,1-2.42l1.4-3.68a5.4,5.4,0,0,0,.56-1.92,2.78,2.78,0,0,0,1.33-.91c.22,0,.31.08.36.3.13.44.33,1,.7,2.07L74.09,184c.33.91.45,1.26,1,1.35l.58.09c.1.08.12.44,0,.52-.75,0-1.58-.05-2.38-.05s-1.36,0-2.07.05a.33.33,0,0,1,0-.52l.47-.07c.36-.07.43-.17.43-.26a8.13,8.13,0,0,0-.29-1l-.42-1.3c-.09-.24-.19-.27-.74-.27Zm1.77-.8c.35,0,.43-.05.28-.44l-.39-1.23c-.2-.64-.5-1.45-.61-1.77-.13.34-.44,1.16-.68,1.85l-.38,1.14c-.13.4-.06.45.33.45Z"/><path class="cls-127" d="M77.58,178.44c0-1.52,0-1.68-.67-1.77l-.42-.06a.34.34,0,0,1,.05-.53c1.15-.08,2.34-.13,3.8-.13a6.54,6.54,0,0,1,3,.54,2.45,2.45,0,0,1-.28,4.51c-.16.07-.16.15-.07.32a12.44,12.44,0,0,0,2.36,3.78,2,2,0,0,0,1,.43.3.3,0,0,1,0,.39,3.78,3.78,0,0,1-1.2.13,3.12,3.12,0,0,1-3-1.59,17.87,17.87,0,0,1-1.2-2.34.79.79,0,0,0-.82-.53c-.52,0-.56,0-.56.34v1.86c0,1.39.09,1.49.79,1.62l.41.07a.45.45,0,0,1,0,.52c-.82,0-1.53-.05-2.26-.05s-1.45,0-2.24.05a.37.37,0,0,1,0-.52l.41-.07c.69-.13.78-.23.78-1.62Zm2.11,1.92c0,.52,0,.57.94.57a1.51,1.51,0,0,0,1.18-.42,2.12,2.12,0,0,0,.56-1.63,2,2,0,0,0-2-2.24c-.62,0-.66.05-.66.77Z"/><path class="cls-127" d="M88.35,178.44c0-1.44,0-1.72-.72-1.8l-.3,0c-.14-.07-.14-.51,0-.52,1.28-.09,2.5-.14,4.13-.14a10.79,10.79,0,0,1,3.57.49,4.6,4.6,0,0,1,3.11,4.39,4.77,4.77,0,0,1-2.74,4.51,8.72,8.72,0,0,1-3.89.72c-.72,0-1.48-.1-2-.1-.74,0-1.53,0-2.4,0a.44.44,0,0,1,0-.53l.49-.06c.68-.11.76-.23.76-1.62Zm2.22,4.79a2.74,2.74,0,0,0,.29,1.69,1.69,1.69,0,0,0,1.3.43c2.64,0,3.56-2.32,3.56-4.37,0-2.72-1.48-4.34-4.24-4.34-.43,0-.73.08-.81.21s-.1.4-.1.86Z"/><path class="cls-127" d="M45.56,13.21a3.9,3.9,0,0,1-1.77-.39,3.52,3.52,0,0,1-.33-1.7.27.27,0,0,1,.4,0c.2.68.91,1.64,1.8,1.64a1,1,0,0,0,1.13-1.05c0-.85-.8-1.36-1.43-1.65a2.44,2.44,0,0,1-1.58-2c0-1.17.92-2,2.44-2a4.09,4.09,0,0,1,1.18.17c.13,0,.24,0,.37.08a5.81,5.81,0,0,1,.17,1.49c0,.13-.3.14-.41,0-.17-.54-.62-1.3-1.37-1.3a1,1,0,0,0-1.08,1,1.52,1.52,0,0,0,1,1.18l.7.37a2.39,2.39,0,0,1,1.46,2.1c0,1.29-1.05,2.12-2.64,2.12"/><path class="cls-127" d="M51.19,11.52c0,1,.05,1.05.53,1.14l.3.06a.32.32,0,0,1,0,.36c-.57,0-1.08,0-1.58,0s-1,0-1.58,0a.27.27,0,0,1,0-.36l.28-.06c.49-.09.56-.16.56-1.14V7.68c0-1-.07-1.06-.56-1.14l-.28,0a.27.27,0,0,1,0-.36l1.58,0,1.58,0a.3.3,0,0,1,0,.36l-.3,0c-.48.08-.53.17-.53,1.14Z"/><path class="cls-127" d="M59.18,11.27c0,.68,0,1.33,0,1.68a.8.8,0,0,1-.61.24s-.36-.54-.86-1.14l-2.4-3a10.47,10.47,0,0,0-1.16-1.32,3,3,0,0,0,0,.65v2a6.75,6.75,0,0,0,.16,1.92c.09.21.33.29.6.33l.3,0a.33.33,0,0,1,0,.37l-1.4,0c-.38,0-.78,0-1.16,0a.31.31,0,0,1,0-.37l.17,0c.28,0,.48-.13.57-.34a7.86,7.86,0,0,0,.14-1.92V7.77a2.66,2.66,0,0,0-.06-.89.68.68,0,0,0-.6-.35l-.29,0c-.08-.08-.07-.33,0-.37.48,0,1,0,1.44,0a7.24,7.24,0,0,0,.88,0,8.64,8.64,0,0,0,1.71,2.39l.89,1c.45.54.76.9,1,1.14a2,2,0,0,0,0-.47V8.77a7.22,7.22,0,0,0-.15-1.91c-.09-.22-.31-.28-.6-.33l-.28,0a.3.3,0,0,1,0-.37c.57,0,.95,0,1.39,0s.75,0,1.16,0a.29.29,0,0,1,0,.37l-.17,0c-.27.05-.47.12-.57.34a7.56,7.56,0,0,0-.16,1.91Z"/><path class="cls-127" d="M66.9,6.27A15.09,15.09,0,0,0,67,7.89c0,.13-.34.16-.4.08a1.9,1.9,0,0,0-2-1.5c-1.15,0-2.41,1-2.41,3.07s1.22,3.19,2.47,3.19a2.28,2.28,0,0,0,2.13-1.62.31.31,0,0,1,.4.08,5.06,5.06,0,0,1-.4,1.63,7.36,7.36,0,0,1-2.12.39,4.81,4.81,0,0,1-2.82-.79,3.28,3.28,0,0,1-1.31-2.74,3.45,3.45,0,0,1,1.24-2.76A4.58,4.58,0,0,1,64.75,6a11.59,11.59,0,0,1,2.15.28"/><path class="cls-127" d="M70.06,8.86c0,.31,0,.33.29.33h.71c.55,0,.68-.08.79-.58l0-.27a.32.32,0,0,1,.39,0c0,.33,0,.7,0,1.1s0,.78,0,1.12a.32.32,0,0,1-.39,0l0-.26c-.11-.5-.24-.59-.79-.59h-.71c-.28,0-.29,0-.29.33v1.23a2,2,0,0,0,.16,1c.14.18.33.27,1.1.27s1.25,0,1.84-1.22c.06-.11.34-.07.38.06a5.44,5.44,0,0,1-.44,1.67c-.55,0-1.55,0-2.41,0H69.34l-1.8,0a.29.29,0,0,1,0-.37l.5-.07c.46-.07.53-.14.53-1.09V7.65c0-1-.07-1-.53-1.11l-.27,0c-.1-.06-.08-.3,0-.37.48,0,1,0,1.49,0h2.22c.67,0,1.26,0,1.39,0,0,.17.09.93.14,1.63-.05.11-.27.13-.38,0a2.56,2.56,0,0,0-.4-.83,1.37,1.37,0,0,0-1-.32h-.84c-.33,0-.33,0-.33.41Z"/><path class="cls-127" d="M79.5,11.69c0,.85.07,1,.59,1l.43,0c.1.06.07.33,0,.36-.37,0-1,0-1.64,0s-1.32,0-1.69,0c-.12,0-.13-.3,0-.36l.42,0c.52,0,.56-.14.56-1V8.28c0-.68,0-.84-.49-.91l-.47-.06a.25.25,0,0,1,0-.36,12.71,12.71,0,0,0,1.33-.3c.46-.13.85-.32.93-.32a.13.13,0,0,1,.14.11c0,.24,0,.71,0,1.24Z"/><path class="cls-127" d="M86.6,9.05a4.35,4.35,0,0,1-1.44,3.18A5.77,5.77,0,0,1,82,13.67a.21.21,0,0,1,0-.35,4.09,4.09,0,0,0,3.07-4.16c0-.8-.23-2.31-1.1-2.31-.5,0-.78.59-.78,1.22,0,.85.35,1.75,1,1.88a1.73,1.73,0,0,0,.3,0c.06,0,.08.13.07.22a1.63,1.63,0,0,1-1,.31,1.8,1.8,0,0,1-1.78-1.84A2.25,2.25,0,0,1,84.1,6.37a2.47,2.47,0,0,1,2.5,2.68"/><path class="cls-127" d="M88.58,7.25a5.49,5.49,0,0,1,3.33-1.44.24.24,0,0,1,0,.37,3.79,3.79,0,0,0-2.41,1.46,4.34,4.34,0,0,0-.79,2.66c0,1.11.37,2.42,1.17,2.42.61,0,.78-.69.78-1.18,0-.71-.29-2-1.19-2a1.1,1.1,0,0,0-.25,0,.16.16,0,0,1,0-.18,1.58,1.58,0,0,1,1-.47,1.82,1.82,0,0,1,1.88,2,2.21,2.21,0,0,1-2.39,2.31,2.49,2.49,0,0,1-2.5-2.79,4.46,4.46,0,0,1,1.37-3.15"/><path class="cls-127" d="M95.78,11.69c0,.85.07,1,.59,1l.41,0c.1.06.1.33,0,.36-.38,0-1,0-1.66,0s-1.31,0-1.68,0c-.11,0-.13-.3,0-.36l.43,0c.5,0,.57-.14.57-1V8.28c0-.68,0-.84-.5-.91l-.47-.06a.29.29,0,0,1,0-.36,12.34,12.34,0,0,0,1.34-.3c.46-.13.84-.32.92-.32a.15.15,0,0,1,.16.11,12,12,0,0,0,0,1.24Z"/></g></g></g></svg>