<svg width="61" height="88" viewBox="0 0 61 88" fill="none" xmlns="http://www.w3.org/2000/svg">
<g clip-path="url(#clip0_317_2233)">
<path d="M60.596 80.9999C60.4796 77.8804 60.6094 74.7609 60.5409 71.6402C60.6523 70.6377 59.6481 70.214 58.9942 69.7042C57.1524 68.3372 54.8171 67.9283 52.5748 67.8458C48.0413 67.6746 43.596 68.7965 39.1593 69.5823C35.5308 70.2103 31.8435 71.1205 28.1513 70.5835C24.9894 70.3631 21.9034 69.6291 18.7831 69.1623C14.1369 68.3113 9.44546 67.1352 4.69032 67.5206C2.94403 67.6438 0.775254 68.3199 0.366236 70.283C0.237653 72.9284 0.3246 75.5774 0.3246 78.2314C0.334396 78.8102 0.301332 79.3804 0.264594 79.9593C0.196016 80.9679 0.100497 81.9679 0.172749 82.9876C0.232754 83.8115 0.309904 84.6872 0.751987 85.4051C1.13406 86.0394 1.66432 86.4889 2.3256 86.7993C3.80493 87.4889 6.13045 87.5677 7.24851 86.2118C7.65631 85.7254 7.94654 85.1515 7.98818 84.5024C8.14982 82.5024 7.96123 80.4925 8.03349 78.4876C16.4465 78.6415 24.535 81.729 32.9615 81.7943C39.7838 81.8164 46.1934 78.8817 52.9985 78.8225C53.034 80.8361 52.974 82.8509 52.9618 84.8596C52.9851 85.4519 53.192 86.202 53.5325 86.6933C54.2048 87.6786 55.5775 87.8559 56.6674 87.8559C57.8467 87.8559 59.233 87.3645 60.0057 86.4113C61.1764 84.8485 60.8825 82.7918 60.596 80.9999ZM6.12555 85.9951C4.65235 86.5788 2.73707 86.3621 1.65575 85.1293C0.813217 83.8041 0.794848 82.0172 1.57859 80.6575C2.14926 79.7413 3.17058 79.3004 4.09148 78.8361C4.10618 80.192 4.09638 81.559 4.10985 82.9297C5.02953 82.899 6.20393 82.5467 6.86644 83.4076C7.19463 84.282 7.09299 85.5788 6.12555 85.9951ZM4.96953 81.8066C4.97565 80.7511 4.97565 79.6982 5.00626 78.6489C5.66878 78.5922 6.33373 78.5454 6.99135 78.4851C7.04156 79.7179 7.02686 80.9593 7.05135 82.1945C6.37415 81.9913 5.67857 81.8657 4.96953 81.8066ZM31.2079 80.8423C27.3675 80.6341 23.6203 79.7302 19.8264 79.1341C14.9047 78.277 9.90101 77.07 4.89115 77.7683C3.49755 77.8841 2.29989 78.6292 1.1806 79.3977C1.21244 76.5897 1.16345 73.7831 1.1904 70.9677C1.2553 69.8187 2.22764 68.9074 3.31264 68.6906C6.03371 68.1561 8.84295 68.3396 11.5628 68.8236C16.1453 69.6685 20.7473 70.384 25.3323 71.2128C29.3575 71.9394 33.5298 71.8212 37.4889 70.82C42.2673 70.0268 47.0151 68.7349 51.8903 68.7103C54.6113 68.7867 57.7145 69.2756 59.5918 71.4468C59.7167 74.304 59.5832 77.1612 59.6518 80.0184C58.2753 79.0516 56.7519 78.1858 55.0338 78.0836C46.9502 77.2449 39.2891 81.3004 31.2079 80.8423ZM53.9072 78.8977C54.5795 78.9679 55.2506 79.0504 55.9229 79.1427C55.9461 80.2327 55.9461 81.3189 55.9229 82.4125C55.2236 82.4642 54.5501 82.6206 53.8888 82.8288C53.9072 81.5184 53.8913 80.213 53.9072 78.8977ZM59.9053 84.1219C59.789 84.7241 59.5318 85.4322 59.1583 85.9187C58.5656 86.5517 57.7671 86.8621 56.9222 86.9224C55.4894 87.0345 53.9562 86.8066 53.9243 85.0517C53.9243 84.7413 53.9709 84.4261 54.1043 84.1354C54.6248 83.0209 55.8641 83.5024 56.8377 83.6034C56.8671 82.2228 56.8573 80.8386 56.8707 79.4592C57.6924 79.9272 58.6537 80.2339 59.2795 80.9876C59.9653 81.8201 60.1074 83.0874 59.9053 84.1219Z" fill="#24245B"/>
<path d="M60.7416 80.995C60.7024 79.9322 60.6914 78.8693 60.6914 77.8053C60.6914 76.4925 60.7085 75.1772 60.7085 73.8619C60.7085 73.1205 60.7036 72.3791 60.6865 71.6377L60.5395 71.6414L60.6853 71.6574C60.6914 71.6008 60.6951 71.5453 60.6951 71.4899C60.6963 70.9862 60.4257 70.6168 60.0999 70.3323C59.7729 70.0453 59.3811 69.8212 59.0835 69.5884L59.0823 69.5872L59.081 69.586C57.2013 68.1919 54.8353 67.783 52.5808 67.6992C52.2649 67.6869 51.9489 67.682 51.6342 67.682C47.402 67.6832 43.2579 68.7091 39.1347 69.4394C36.2716 69.9357 33.3852 70.602 30.5037 70.602C29.726 70.602 28.9484 70.5539 28.172 70.4406L28.1671 70.4394H28.161C25.015 70.2202 21.9327 69.4874 18.805 69.0182L18.783 69.1635L18.8087 69.0182C14.792 68.283 10.7288 67.299 6.60552 67.299C5.96505 67.299 5.32213 67.3224 4.67799 67.3753L4.69024 67.5219L4.68044 67.3753C3.79382 67.4381 2.79822 67.6401 1.95937 68.0835C1.12174 68.5244 0.437184 69.2227 0.222878 70.2547L0.220429 70.2658L0.219204 70.2781C0.164097 71.4062 0.148177 72.5343 0.148177 73.6624C0.148177 75.187 0.176343 76.7104 0.176343 78.2339V78.2351V78.2363C0.177568 78.3028 0.177568 78.3706 0.177568 78.4371C0.177568 78.9408 0.148177 79.442 0.116337 79.9519V79.9506C0.0673532 80.6994 0 81.4519 0 82.2154C0 82.4741 0.00734763 82.7352 0.0269413 82.9962C0.0881715 83.8201 0.162872 84.7216 0.628222 85.4803L0.753132 85.4027L0.628222 85.479C1.02499 86.1391 1.58096 86.6108 2.26552 86.9298C2.9317 87.2401 3.75586 87.4286 4.57512 87.4286C5.63196 87.4286 6.69246 87.1133 7.36355 86.3017L7.36232 86.3029C7.78481 85.7992 8.09219 85.197 8.13627 84.5086L7.99054 84.4987L8.13627 84.511C8.18893 83.8645 8.20485 83.2179 8.20485 82.5738C8.20485 81.5566 8.16566 80.5405 8.16566 79.5294C8.16566 79.1822 8.17056 78.8349 8.18281 78.4888L8.03708 78.4839L8.03463 78.6304C16.4134 78.7807 24.5019 81.8694 32.9639 81.9371H32.9651H33.0423C39.878 81.9334 46.2656 79.0196 53.0033 78.9654L53.0021 78.8188L52.8564 78.8213C52.8637 79.2721 52.8674 79.7228 52.8674 80.1735C52.8674 81.7327 52.8294 83.2943 52.8196 84.8559V84.8596V84.8633C52.8454 85.484 53.0535 86.2488 53.4172 86.7759L53.416 86.7746C53.7773 87.3042 54.3222 87.6096 54.9064 87.7833C55.4905 87.9569 56.1187 88 56.6722 88C57.8895 87.9975 59.31 87.5012 60.1232 86.5012L60.1244 86.5L60.1256 86.4975C60.7992 85.601 61.0024 84.548 61.0012 83.4926C61.0012 82.6391 60.8702 81.7795 60.7416 80.9777L60.4526 81.0245C60.5812 81.8238 60.7085 82.6687 60.7085 83.4913C60.7085 84.5123 60.5138 85.4901 59.8917 86.319L60.0081 86.4076L59.8942 86.3153C59.1631 87.2229 57.8111 87.7081 56.6698 87.7069C56.1322 87.7069 55.5297 87.6626 54.9872 87.5012C54.4435 87.3399 53.9671 87.0653 53.6548 86.6084L53.6536 86.6071C53.334 86.1515 53.1295 85.4162 53.1099 84.8522L52.9641 84.8583L53.1099 84.8596C53.1197 83.3029 53.1589 81.7401 53.1589 80.176C53.1589 79.724 53.1552 79.2708 53.1478 78.8188L53.1454 78.6735L52.9997 78.6748C46.1786 78.7388 39.7935 81.6514 33.0411 81.6465H32.9651H32.9664C24.5754 81.5837 16.4869 78.4962 8.04075 78.3398L7.89747 78.3373L7.89258 78.4814C7.88033 78.8324 7.87543 79.1821 7.87543 79.5319C7.87543 80.5504 7.91462 81.5664 7.91462 82.5763C7.91462 83.2167 7.8987 83.8546 7.84727 84.4901V84.4913V84.4926C7.80808 85.1022 7.53622 85.6465 7.14189 86.1157L7.14067 86.117C6.54918 86.8362 5.58052 87.1367 4.57757 87.1367C3.80362 87.1367 3.01498 86.9557 2.39043 86.665C1.74996 86.3645 1.24665 85.9372 0.880491 85.3288L0.879266 85.3276C0.460451 84.6514 0.380852 83.7992 0.320846 82.9765C0.302477 82.7228 0.29513 82.4704 0.29513 82.2167C0.29513 81.4704 0.361258 80.7253 0.412692 79.9691V79.9679C0.445756 79.4568 0.475147 78.9494 0.475147 78.4346C0.475147 78.3656 0.475147 78.2979 0.473922 78.2289L0.326969 78.2314H0.473922C0.473922 76.7043 0.444531 75.1809 0.444531 73.6599C0.444531 72.5343 0.460451 71.4111 0.515558 70.2904L0.369831 70.283L0.513109 70.3138C0.707821 69.3828 1.31278 68.7608 2.09897 68.3433C2.88394 67.9271 3.84526 67.7288 4.70371 67.6684H4.70493H4.70615C5.34172 67.6167 5.97607 67.5933 6.60919 67.5933C10.6859 67.5933 14.7332 68.5699 18.7597 69.3076H18.7622H18.7646C21.8763 69.7744 24.966 70.5096 28.1439 70.7313L28.1537 70.5847L28.1328 70.7301C28.9252 70.8446 29.7163 70.8939 30.5061 70.8939C33.4329 70.8939 36.3352 70.2202 39.1873 69.7276C43.3241 68.9948 47.4522 67.9751 51.6367 67.9751C51.9489 67.9751 52.2612 67.9813 52.5735 67.9923C54.8023 68.0749 57.107 68.4813 58.9108 69.8224L58.9978 69.7042L58.9084 69.8199C59.2304 70.0712 59.6162 70.2929 59.9113 70.554C60.2077 70.8175 60.4048 71.0983 60.4061 71.4899C60.4061 71.533 60.4036 71.5774 60.3987 71.6242L60.3975 71.634V71.6439C60.4146 72.3828 60.4195 73.1217 60.4195 73.8619C60.4195 75.1747 60.4024 76.49 60.4024 77.8053C60.4024 78.8718 60.4134 79.9383 60.4526 81.0061L60.7416 80.995ZM6.07159 85.8583C5.57685 86.0542 5.02823 86.1576 4.4796 86.1576C3.45216 86.1576 2.43574 85.7968 1.76465 85.032L1.65444 85.1293L1.77813 85.0505C1.36054 84.394 1.15235 83.6169 1.15235 82.8374C1.15235 82.1021 1.33727 81.3669 1.70342 80.7314L1.57729 80.6575L1.70098 80.7351C2.23735 79.8681 3.22683 79.4322 4.15631 78.9679L4.0914 78.8361L3.94568 78.8373C3.95915 80.192 3.95057 81.5578 3.96404 82.931L3.96527 83.0812L4.11467 83.0763C4.5543 83.0603 5.0319 82.9778 5.47398 82.9778C5.72992 82.9778 5.9724 83.0049 6.1867 83.0837C6.40101 83.1625 6.5896 83.2869 6.75002 83.4962L6.86636 83.4063L6.7292 83.4581C6.82962 83.7265 6.8884 84.0418 6.8884 84.3546C6.8884 84.6761 6.82595 84.9938 6.69369 85.2574C6.56021 85.5221 6.35937 85.7315 6.06791 85.8583L6.18303 86.1293C6.54184 85.9753 6.79656 85.7056 6.95453 85.3916C7.11373 85.0751 7.18108 84.7143 7.18108 84.3546C7.18108 84.0049 7.11618 83.6576 7.00229 83.3534L6.99494 83.3325L6.98147 83.3152C6.78676 83.0615 6.54429 82.9002 6.28467 82.8054C6.02505 82.7118 5.74829 82.6834 5.47276 82.6834C4.99761 82.6834 4.51389 82.7684 4.10365 82.782L4.10855 82.9285L4.25428 82.9273C4.24081 81.559 4.24938 80.192 4.23591 78.8336L4.23346 78.5984L4.02405 78.7043C3.1105 79.1661 2.05734 79.612 1.45238 80.5787L1.45116 80.5812L1.44993 80.5837C1.05683 81.2684 0.859672 82.0529 0.859672 82.8374C0.859672 83.6699 1.08133 84.5012 1.53198 85.2093L1.5381 85.2192L1.54545 85.2278C2.28634 86.0689 3.38726 86.452 4.4796 86.452C5.06374 86.452 5.64788 86.3436 6.17813 86.133L6.07159 85.8583ZM5.1164 81.8066C5.12252 80.7499 5.12252 79.6994 5.15314 78.6526L5.00741 78.6477L5.01965 78.7942C5.68094 78.7388 6.3459 78.692 7.00474 78.6304L6.99127 78.4839L6.84554 78.49C6.89452 79.7179 6.88105 80.958 6.90554 82.1957L7.05127 82.1933L7.09291 82.0516C6.40468 81.846 5.69931 81.7179 4.98169 81.6576L4.9572 81.9507C5.65645 82.0098 6.34223 82.1342 7.00964 82.3337L7.2019 82.3916L7.19823 82.1896C7.17373 80.9568 7.18843 79.7154 7.13822 78.4777L7.1321 78.3225L6.97902 78.3361C6.32386 78.3964 5.6589 78.4432 4.99516 78.4986L4.86535 78.5097L4.86168 78.6415C4.83106 79.6945 4.83106 80.7474 4.82494 81.8029L5.1164 81.8066ZM31.2164 80.6957C27.3932 80.49 23.6508 79.5873 19.8496 78.99L19.8263 79.1354L19.8521 78.99C15.9652 78.3139 12.0146 77.4137 8.03463 77.4137C6.98269 77.4137 5.92709 77.4765 4.87148 77.6242L4.89107 77.7708L4.87882 77.6242C3.43869 77.7449 2.22021 78.5085 1.09725 79.2794L1.17929 79.4014L1.32625 79.4026C1.33482 78.6587 1.33727 77.9137 1.33727 77.1698C1.33727 75.7461 1.32747 74.3225 1.32747 72.8988C1.32747 72.2572 1.32992 71.6155 1.33604 70.9727L1.19032 70.9714L1.33604 70.9801C1.36666 70.4456 1.60791 69.964 1.97406 69.586C2.33899 69.2091 2.82884 68.9406 3.34195 68.8396C4.48695 68.6155 5.6491 68.5182 6.81492 68.5182C8.39344 68.5182 9.9793 68.6955 11.5382 68.9739H11.5358C16.1207 69.8187 20.7228 70.5342 25.3064 71.3631C27.0295 71.6734 28.7794 71.8311 30.5282 71.8311C32.8843 71.8311 35.2392 71.5453 37.5243 70.9677L37.4888 70.8249L37.5121 70.9702C42.3003 70.1746 47.0407 68.8864 51.8902 68.8618L51.8889 68.7153L51.8853 68.8618C53.2385 68.9 54.6823 69.0416 56.0146 69.4394C57.347 69.8372 58.5643 70.4899 59.4803 71.5478L59.5905 71.4517L59.4448 71.4579C59.4888 72.4641 59.5011 73.4702 59.5011 74.4789C59.5011 75.6686 59.4839 76.8607 59.4839 78.0541C59.4839 78.7117 59.4888 79.3693 59.5048 80.027L59.6505 80.0233L59.735 79.9026C58.3512 78.9309 56.8057 78.0467 55.0423 77.9408L55.0337 78.0873L55.0484 77.9408C54.283 77.8619 53.5201 77.825 52.7621 77.8262C45.8933 77.8299 39.3159 80.7401 32.5071 80.7364C32.0785 80.7314 31.6487 80.7203 31.2164 80.6957L31.2005 80.9901C31.6377 81.0147 32.0736 81.0258 32.5096 81.0258C39.4004 81.0221 45.9778 78.1119 52.7645 78.1156C53.514 78.1156 54.2659 78.1514 55.0203 78.2289H55.0239H55.0264C56.6992 78.3287 58.1993 79.176 59.5684 80.1378L59.8048 80.3041L59.7987 80.0134C59.7827 79.3583 59.7778 78.7031 59.7778 78.0479C59.7778 76.8582 59.795 75.6661 59.795 74.4727C59.795 73.4629 59.7827 72.4518 59.7387 71.4394L59.7362 71.3877L59.7031 71.3483C58.7406 70.2362 57.4682 69.5589 56.1004 69.15C54.7312 68.7411 53.2629 68.5995 51.8963 68.5613H51.8938H51.8914C46.9917 68.5872 42.2366 69.8828 37.468 70.6734L37.4619 70.6746L37.4557 70.6759C35.1951 71.2485 32.8635 71.5306 30.5306 71.5306C28.799 71.5306 27.0662 71.3754 25.3603 71.0663C20.773 70.2362 16.1709 69.5219 11.5909 68.6771H11.5897C10.0185 68.3975 8.41671 68.2177 6.81492 68.2177C5.63318 68.2177 4.45144 68.3162 3.28561 68.5441L3.27827 68.5453L3.28439 68.5441C2.71127 68.6586 2.17245 68.9542 1.76465 69.3741C1.35686 69.7941 1.07888 70.3421 1.04459 70.9567V70.9604V70.9641C1.03846 71.6081 1.03602 72.251 1.03602 72.8927C1.03602 74.3188 1.04581 75.7412 1.04581 77.1636C1.04581 77.9075 1.04336 78.6501 1.03479 79.3927L1.03112 79.676L1.26379 79.5171C2.37941 78.7499 3.55503 78.0233 4.90332 77.9124H4.90699L4.91066 77.9112C5.95158 77.7659 6.99249 77.7031 8.03341 77.7031C11.9693 77.7031 15.9039 78.5972 19.8006 79.2758H19.8019H19.8031C23.5896 79.8706 27.3417 80.7758 31.1992 80.9851L31.2164 80.6957ZM53.8924 79.0442C54.5623 79.1144 55.2321 79.1969 55.9032 79.2881L55.9228 79.1427L55.7758 79.1464C55.7881 79.6895 55.793 80.2327 55.793 80.777C55.793 81.3201 55.7869 81.8645 55.7758 82.41L55.9228 82.4125L55.9118 82.2659C55.1978 82.3189 54.5133 82.4778 53.8446 82.6884L53.8887 82.8288L54.0344 82.8312C54.0528 81.5184 54.0381 80.2117 54.0528 78.9001L53.7601 78.8964C53.7454 80.213 53.7601 81.5196 53.7418 82.8275L53.7393 83.0307L53.9328 82.9704C54.588 82.7635 55.2493 82.6108 55.9338 82.5603L56.0661 82.5504L56.0685 82.4162C56.0808 81.8694 56.0857 81.3226 56.0857 80.777C56.0857 80.2314 56.0795 79.6859 56.0685 79.1403L56.0661 79.0147L55.9424 78.9974C55.2688 78.9051 54.5953 78.8225 53.9218 78.7523L53.8924 79.0442ZM59.7619 84.0936C59.6505 84.6773 59.3958 85.3707 59.0431 85.8276L59.1594 85.9175L59.0529 85.8165C58.4896 86.4187 57.7303 86.7155 56.9123 86.7746H56.911C56.7225 86.7894 56.5326 86.798 56.3465 86.798C55.7415 86.7992 55.1672 86.7044 54.7594 86.4433C54.3528 86.181 54.0883 85.7721 54.0712 85.0468L53.9255 85.0492H54.0724C54.0724 84.7537 54.1165 84.4606 54.239 84.1933V84.1945C54.3614 83.9347 54.5145 83.7832 54.6957 83.6884C54.877 83.5935 55.0925 83.5566 55.3338 83.5578C55.7954 83.5566 56.3318 83.6945 56.8241 83.7475L56.9821 83.7647L56.9857 83.6046C57.0151 82.2216 57.0053 80.8361 57.0188 79.458L56.8719 79.4568L56.7996 79.5849C57.6409 80.0602 58.5802 80.3669 59.168 81.0787V81.0775C59.6382 81.6477 59.8452 82.4531 59.8452 83.2376C59.844 83.5332 59.8146 83.8214 59.7619 84.0936L60.0497 84.1502C60.106 83.8596 60.1367 83.5529 60.1367 83.2413C60.1354 82.4063 59.9211 81.5381 59.3921 80.8928L59.3909 80.8915C58.7259 80.0972 57.7425 79.7893 56.9417 79.3299L56.7261 79.2068L56.7237 79.4568C56.7114 80.8386 56.72 82.2228 56.6906 83.5997L56.8376 83.6034L56.8523 83.4568C56.3906 83.41 55.8469 83.2672 55.3313 83.266C55.0631 83.266 54.7974 83.3054 54.5586 83.4297C54.3198 83.5529 54.114 83.7635 53.9708 84.0726L53.9695 84.0738C53.825 84.3904 53.7761 84.7278 53.7761 85.0517V85.0542V85.0554C53.7871 85.8522 54.1128 86.3892 54.6014 86.6946C55.0876 87.0012 55.7109 87.0936 56.3453 87.0948C56.5412 87.0948 56.7384 87.085 56.9331 87.0702H56.9319C57.805 87.0074 58.6426 86.6847 59.2647 86.0197L59.2696 86.0148L59.2745 86.0086C59.6689 85.4938 59.9285 84.7709 60.0485 84.1502L59.7619 84.0936Z" fill="#A08D65"/>
<path d="M49.3663 19.5631C48.7908 19.8119 48.2287 20.1025 47.6531 20.3624C47.9531 19.5089 48.1246 18.6123 47.958 17.7145C46.6771 19.4301 45.5297 21.2934 43.7993 22.5976C41.742 24.1962 39.7116 26.2245 36.9893 26.4868C36.2802 26.4868 35.1536 26.6863 34.8952 25.7836C35.0789 25.4942 35.2687 25.2073 35.4622 24.9351C35.9728 25.1026 36.4933 25.2738 37.0089 25.4289C37.0554 24.6555 36.8203 23.9338 36.2325 23.408C36.7419 22.7762 37.4644 22.8722 38.1686 23.0274C38.1147 22.0262 37.2526 21.4806 36.6035 20.8414C36.966 20.1062 37.8881 20.1062 38.5543 19.8069C37.6628 18.7306 36.2729 18.3919 34.9687 18.1012C34.8217 17.781 34.6662 17.467 34.507 17.1456C33.6057 16.5015 32.4215 16.3635 31.612 15.5655C30.925 14.9103 30.2858 14.2046 29.5633 13.5975C28.9326 13.8586 27.5047 13.8512 28.2321 14.914C27.9419 15.2785 27.648 15.632 27.3712 15.9953C27.7962 16.3857 28.2223 16.7724 28.6595 17.1591C28.9363 18.6468 29.0881 20.4301 30.6348 21.1727C29.2302 22.0262 27.9835 23.2158 27.3528 24.7701C27.2243 25.4068 26.5838 25.4117 26.078 25.4646C25.6727 23.972 25.5025 22.4338 25.2208 20.9202C25.0702 20.286 24.8155 19.5619 24.1799 19.2651C22.0895 18.2232 19.6636 18.1296 17.4164 18.6653C17.8303 19.2651 18.2553 19.855 18.679 20.4461C19.8154 19.1 21.7784 19.4338 23.1022 20.3057C23.3374 20.7577 23.6007 21.1949 23.8713 21.6272C23.8664 22.7442 23.6607 23.8279 23.3521 24.8981C22.501 24.2639 21.8042 23.4498 20.9861 22.7774C19.595 22.3772 18.085 22.0668 16.6437 22.3488C15.7693 22.7479 14.9452 23.254 14.0341 23.5594C14.3329 24.0114 14.6317 24.4646 14.9133 24.9277C15.9763 23.8562 17.5658 23.3907 19.0476 23.7195C19.7603 23.903 20.5575 24.2885 20.7106 25.1038C20.9629 26.5225 21.0008 27.9881 21.3633 29.3822C20.2024 29.3071 19.066 29.0743 18.0385 28.53C15.7326 27.3317 13.4426 25.8883 11.9057 23.7282C10.5978 22.0385 9.84345 20.0138 8.68743 18.2219C7.2375 19.4276 8.18657 21.5225 8.75723 22.9621C8.28331 22.7195 7.81429 22.4855 7.33057 22.2725C7.59631 23.8427 8.81234 24.9388 9.83978 26.0533C9.48954 26.2257 9.15278 26.3994 8.81356 26.573C9.09277 27.1494 9.42464 27.7011 9.86672 28.1802C9.55812 28.312 9.26422 28.4647 8.97031 28.6199C9.74304 29.6642 10.7007 30.5694 11.8506 31.1827C11.575 31.3022 11.0166 31.5497 10.7362 31.6729C12.3208 32.7665 14.1761 33.3207 15.9885 33.9044C15.8146 34.2074 15.6579 34.5103 15.4877 34.8195C16.0767 35.1914 16.7857 35.1618 17.4446 35.2431C17.6479 36.3823 18.9459 36.232 19.7934 36.0658C19.6819 36.3503 19.5766 36.6323 19.4615 36.9168C20.6996 36.9168 21.896 36.6089 23.0386 36.1569C24.175 38.5387 26.1184 40.8072 28.7293 41.5264C28.3791 42.6003 27.9517 43.742 28.2468 44.8923C28.7477 47.1977 30.6495 48.7655 32.0443 50.5364C32.3994 51.4515 31.7369 52.2729 31.5116 53.1202C31.3647 53.9466 31.2544 54.7852 31.1026 55.6079C31.3585 56.2865 31.6218 56.9688 31.8582 57.6523C32.3774 58.0107 32.9015 58.3653 33.4502 58.7052C33.5151 58.2089 33.5738 57.7176 33.6253 57.2237C33.3534 56.7397 32.9199 56.3739 32.5991 55.9183C32.3958 53.8739 33.7404 52.1313 34.8401 50.5524C34.8915 52.2975 34.8548 54.0636 35.2369 55.7754C35.7806 56.3013 36.1394 56.9675 36.4762 57.6276C36.8203 57.1929 37.1619 56.7582 37.5073 56.3136C37.1534 56.0008 36.8031 55.6929 36.448 55.3899C36.3329 54.3013 36.1578 53.1978 36.3145 52.1116C36.5668 51.5845 36.9672 51.1608 37.304 50.6928C36.8301 49.8418 36.4125 48.9317 36.2741 47.9489C35.7953 45.641 38.2249 44.0043 38.0449 41.7235C37.9347 40.689 37.7142 39.6754 37.6591 38.6459C38.193 38.6311 38.7368 38.6274 39.2756 38.6274C39.3956 38.8023 39.6307 39.157 39.7507 39.3257C39.6479 40.1496 39.4189 40.9427 39.267 41.7567C39.2805 43.524 39.7728 45.4945 41.3929 46.4514C42.1387 45.9957 42.8906 45.5573 43.6315 45.0955C43.0731 44.0462 42.3138 43.1213 41.8265 42.0351C41.4762 40.5585 42.4326 38.7432 41.1199 37.5609C39.6295 36.9476 38.1049 37.3712 36.6268 37.769C35.9288 37.5005 35.69 36.6705 35.2111 36.1471C34.529 35.1261 33.3399 34.6052 32.6566 33.5941C34.2719 33.9204 35.3948 36.0559 37.1668 35.4512C36.9231 35.1384 36.6831 34.8121 36.4541 34.4759C37.702 34.5042 39.0601 34.7369 40.1781 34.0547C40.041 33.8884 39.7458 33.5473 39.5977 33.381L39.7605 33.1569C40.8958 33.0362 42.0199 32.7739 43.0339 32.2283C42.6151 31.9487 42.1816 31.6753 41.7395 31.429C42.8037 30.9795 44.092 30.7393 44.7594 29.6938C44.4373 29.6334 43.787 29.5103 43.4662 29.4475C44.7128 28.7886 46.0305 28.1962 46.9661 27.0964C46.3526 26.8735 45.7415 26.6445 45.1194 26.4437C46.5461 25.36 48.0976 24.1838 48.7283 22.4301C48.3426 22.5151 47.9605 22.6075 47.5735 22.7035C48.4271 21.8217 49.0724 20.7638 49.3663 19.5631ZM34.3858 46.3504C35.5589 45.577 36.1112 44.1853 37.2023 43.3565C36.4786 44.9464 35.1034 46.0327 33.8653 47.1915C33.4232 48.3541 34.5743 49.1596 34.9821 50.1226C34.2425 49.6152 33.8053 48.8049 33.3816 48.0278C33.2763 48.0869 33.0546 48.2051 32.9432 48.263C33.5371 47.7014 33.6253 46.7741 34.3858 46.3504ZM33.1195 18.7687C32.5954 19.1875 32.0786 18.2712 32.5954 17.9461C33.1146 17.5384 33.6485 18.4436 33.1195 18.7687Z" fill="#61061D"/>
<path d="M5.40554 73.8791L5.5329 72.7535C5.56719 72.4382 5.6125 71.8779 5.64679 71.5145L5.6676 71.5133C5.73251 71.8705 5.82803 72.4013 5.89661 72.7252L6.12071 73.8409L5.40554 73.8791ZM6.25174 74.6501L6.53217 75.8668L7.47757 75.8163L6.21868 70.4924L5.05163 70.5539L4.24951 75.9887L5.19491 75.937L5.35288 74.6969L6.25174 74.6501Z" fill="#24265B"/>
<path d="M8.96651 71.1931C9.01917 71.1722 9.11713 71.171 9.19918 71.1771C9.63514 71.2239 9.78332 71.5626 9.7527 72.017C9.72086 72.4875 9.449 72.836 9.02529 72.8064L8.85629 72.7941L8.96651 71.1931ZM7.67822 75.6735L8.65178 75.7424L8.79996 73.5983L8.94079 73.6094C9.26776 73.6328 9.41104 73.8348 9.45268 74.5097C9.48696 75.1045 9.56044 75.6538 9.60943 75.8102L10.6271 75.8816C10.5524 75.6759 10.4642 75.006 10.4091 74.4013C10.3515 73.82 10.2058 73.4653 9.87394 73.2978L9.87516 73.283C10.4054 73.0638 10.6993 72.5638 10.7397 71.9912C10.7728 71.5293 10.7079 71.1648 10.425 70.8483C10.1201 70.5059 9.64984 70.3938 9.11591 70.3557C8.74485 70.3286 8.35665 70.3421 8.04683 70.384L7.67822 75.6735Z" fill="#24265B"/>
<path d="M12.732 71.5774C12.7945 71.5626 12.8618 71.5724 12.9267 71.5835C13.5084 71.671 13.6749 72.3742 13.5121 73.4641C13.2941 74.9333 12.8165 75.3619 12.3524 75.2917C12.2997 75.2843 12.2275 75.2732 12.1858 75.2511L12.732 71.5774ZM11.1021 75.9112C11.2906 75.9641 11.587 76.0405 11.8895 76.0861C12.5801 76.1907 13.0982 76.0984 13.4815 75.8016C13.9774 75.4567 14.3485 74.7289 14.5089 73.6538C14.662 72.6193 14.5456 71.8828 14.1807 71.4086C13.9113 71.0441 13.5011 70.8212 12.8753 70.7276C12.492 70.6697 12.1344 70.6562 11.8821 70.682L11.1021 75.9112Z" fill="#24265B"/>
<path d="M15.6993 71.1746L15.1053 74.4432C14.8641 75.772 15.1298 76.6082 16.1622 76.7966C17.1149 76.9715 17.7248 76.3213 17.9709 74.9616L18.5636 71.7005L17.6048 71.5244L16.9802 74.9653C16.8345 75.7683 16.5969 75.9432 16.3189 75.8915C16.0691 75.8459 15.8928 75.5713 16.0348 74.7929L16.6594 71.3507L15.6993 71.1746Z" fill="#24265B"/>
<path d="M19.2029 71.8631L18.6482 75.139C18.4228 76.4703 18.6972 77.3028 19.7319 77.4802C20.6859 77.644 21.2884 76.9838 21.5186 75.6217L22.0722 72.3545L21.1121 72.1894L20.5279 75.639C20.3908 76.442 20.1569 76.6218 19.8789 76.5737C19.6291 76.5306 19.4503 76.256 19.5813 75.4777L20.1655 72.0281L19.2029 71.8631Z" fill="#24265B"/>
<path d="M21.7686 77.6489C21.9118 77.7794 22.2804 77.9605 22.676 78.0307C23.6434 78.2043 24.4235 77.6871 24.5962 76.7203C24.6941 76.1612 24.5472 75.5848 23.9692 75.0429C23.4965 74.6008 23.3789 74.4099 23.434 74.0946C23.4842 73.8114 23.7291 73.5798 24.1394 73.6537C24.4174 73.703 24.6145 73.8274 24.7382 73.9468L25.0493 73.086C24.9195 72.9665 24.628 72.8163 24.3072 72.7584C23.2724 72.5724 22.6197 73.187 22.4703 74.0355C22.3845 74.5146 22.5425 75.1205 23.1401 75.6809C23.505 76.0466 23.6924 76.2745 23.6238 76.6599C23.5626 77.006 23.2981 77.2178 22.845 77.1378C22.567 77.0873 22.2437 76.9407 22.0661 76.788L21.7686 77.6489Z" fill="#24265B"/>
<path d="M27.5158 76.8595L27.8329 75.7708C27.9211 75.4678 28.0619 74.921 28.1562 74.5713L28.1783 74.5737C28.1807 74.9358 28.1832 75.4752 28.1942 75.8065L28.2248 76.9444L27.5158 76.8595ZM28.2162 77.7646L28.2848 79.011L29.2216 79.1255L28.8934 73.6636L27.7337 73.522L26.0156 78.7363L26.9537 78.8509L27.3211 77.6563L28.2162 77.7646Z" fill="#24265B"/>
<path d="M31.0449 74.607C31.1049 74.5823 31.1722 74.5823 31.2383 74.5823C31.8262 74.5774 32.1005 75.2474 32.1054 76.3496C32.1152 77.8361 31.7086 78.3336 31.2396 78.3361C31.1869 78.3361 31.1147 78.3373 31.0694 78.3213L31.0449 74.607ZM30.1007 79.1415C30.2942 79.1649 30.5991 79.1945 30.904 79.192C31.6033 79.1883 32.1017 79.0171 32.4348 78.6637C32.8707 78.2462 33.1255 77.4691 33.1206 76.3828C33.1132 75.336 32.8854 74.6279 32.4507 74.2141C32.1286 73.8976 31.689 73.74 31.0559 73.7449C30.6689 73.7473 30.3126 73.7892 30.0664 73.8545L30.1007 79.1415Z" fill="#24265B"/>
<path d="M35.2527 78.4014C35.4303 78.4777 35.8368 78.5233 36.2348 78.4592C37.2035 78.3016 37.768 77.5528 37.6101 76.5836C37.5195 76.0232 37.1913 75.5269 36.4675 75.208C35.876 74.9493 35.7021 74.8077 35.6507 74.4912C35.6054 74.2079 35.7585 73.9075 36.1699 73.8409C36.4491 73.7954 36.6769 73.8471 36.8312 73.9185L36.841 73.0023C36.6781 72.9321 36.3549 72.8877 36.0316 72.9407C34.9955 73.1119 34.5829 73.9062 34.7212 74.7584C34.7996 75.24 35.1474 75.7572 35.8932 76.0885C36.3585 76.3114 36.6108 76.4641 36.672 76.8508C36.7284 77.1981 36.5483 77.4863 36.0928 77.5614C35.8136 77.607 35.4621 77.5762 35.2441 77.49L35.2527 78.4014Z" fill="#24265B"/>
<path d="M50.5503 73.8877L50.7132 72.7658C50.7597 72.453 50.8209 71.8939 50.8662 71.533L50.8883 71.5318C50.9421 71.8914 51.0181 72.4234 51.0769 72.751L51.2642 73.873L50.5503 73.8877ZM51.3708 74.6858L51.612 75.9099L52.5562 75.8902L51.4712 70.5293L50.3029 70.5539L49.3281 75.958L50.2723 75.9383L50.4707 74.7042L51.3708 74.6858Z" fill="#24265B"/>
<path d="M39.1957 77.9198L40.1484 77.7203L39.2569 73.3964L40.1301 73.2129L39.9353 72.267L37.2388 72.8311L37.4347 73.7769L38.3017 73.5946L39.1957 77.9198Z" fill="#24265B"/>
<path d="M42.8332 73.8335L41.7127 74.0749L41.4555 72.8631L42.6348 72.6094L42.445 71.7202L40.313 72.1784L41.4311 77.442L43.65 76.9666L43.4614 76.0749L42.1952 76.3471L41.8927 74.9259L43.0145 74.6845L42.8332 73.8335Z" fill="#24265B"/>
<path d="M44.1984 76.8632L46.4235 76.4506L46.2631 75.5774L44.9969 75.8126L44.1849 71.3914L43.2261 71.5687L44.1984 76.8632Z" fill="#24265B"/>
<path d="M46.9037 76.3151L49.1484 76.0343L49.0394 75.155L47.7622 75.3151L47.2099 70.852L46.2437 70.9727L46.9037 76.3151Z" fill="#24265B"/>
<path d="M52.937 75.9198C53.0815 76.0479 53.4538 76.2203 53.8506 76.2843C54.8205 76.4383 55.5907 75.905 55.7426 74.9346C55.8308 74.3742 55.6716 73.7991 55.085 73.2695C54.6037 72.8372 54.4825 72.6476 54.5314 72.3311C54.5755 72.0478 54.8156 71.8114 55.2282 71.8766C55.5075 71.921 55.7071 72.0416 55.832 72.1574L56.1259 71.2904C55.9949 71.1722 55.6997 71.0293 55.3776 70.9776C54.3404 70.8126 53.6999 71.4394 53.5665 72.2904C53.493 72.772 53.6608 73.373 54.2669 73.9222C54.6404 74.2806 54.8315 74.5047 54.7702 74.8914C54.7151 75.2375 54.4555 75.4555 54 75.3841C53.722 75.3397 53.3975 75.1981 53.2162 75.0491L52.937 75.9198Z" fill="#24265B"/>
<path d="M60.6239 7.99272C52.4974 13.3462 35.9126 10.345 32.1837 1.94214C31.8396 1.13794 31.7428 0.687195 31.7428 0.687195C31.673 1.00001 31.4098 1.60346 31.3375 1.7611C27.0563 10.4989 10.1445 13.5408 0.379498 7.63926C-1.25902 40.1126 11.3471 58.2422 31.3742 68.9209C51.0328 58.571 62.0885 39.5757 60.6239 7.99272ZM31.7196 66.1154C13.4448 56.6055 1.94087 40.2801 2.82381 11.4989C13.4999 15.9731 26.9951 11.1516 31.7196 5.54441C36.7649 11.3413 47.9933 15.5433 58.1919 11.8413C59.1275 39.7542 48.7257 56.2483 31.7196 66.1154Z" fill="#24245B"/>
<path d="M60.5434 7.86957C57.8064 9.67378 54.0775 10.526 50.2065 10.5248C46.4654 10.5248 42.5919 9.73043 39.3565 8.25012C36.1199 6.7698 33.525 4.60598 32.3187 1.8818L32.1853 1.94215L32.32 1.88426C32.1497 1.48771 32.0407 1.17859 31.9758 0.969225C31.9428 0.864544 31.9207 0.785725 31.9073 0.732769L31.8926 0.673655L31.8889 0.656413L31.7468 0L31.6011 0.655182C31.5399 0.938437 31.2754 1.55051 31.2056 1.69953L31.3378 1.76111L31.2068 1.69584C29.8426 4.48282 27.1607 6.69714 23.8188 8.21194C20.478 9.72674 16.4809 10.5408 12.5034 10.5408C8.17321 10.5408 3.8675 9.57526 0.454528 7.51242L0.24512 7.38557L0.232874 7.63065C0.137355 9.52969 0.0908203 11.377 0.0908203 13.1775C0.0908203 27.711 3.1658 39.1619 8.60917 48.2384C14.0513 57.3161 21.8594 64.0132 31.3072 69.0502L31.3758 69.0859L31.4444 69.0502C40.7146 64.1708 48.0843 57.3653 53.1297 48.2322C58.1775 39.0978 60.901 27.6408 60.901 13.4559C60.901 11.675 60.8581 9.85235 60.7712 7.98533L60.4785 7.99888C60.5655 9.86098 60.6083 11.68 60.6083 13.4559C60.6083 27.6026 57.8921 39.0079 52.8737 48.0893C47.8541 57.1707 40.5346 63.9319 31.306 68.7904L31.3746 68.9209L31.4431 68.7904C22.0308 63.7718 14.2705 57.1104 8.85899 48.0869C3.44746 39.0621 0.383501 27.6703 0.383501 13.1775C0.383501 11.3819 0.430036 9.53831 0.525555 7.64666L0.379827 7.63927L0.303901 7.76612C3.77565 9.86344 8.13035 10.8351 12.5034 10.8364C16.5201 10.8364 20.554 10.0149 23.9388 8.48165C27.3223 6.94714 30.0618 4.69711 31.4689 1.82761L31.4701 1.82638L31.4713 1.82515C31.5472 1.66012 31.8093 1.06282 31.8877 0.720453L31.7444 0.688433L31.6011 0.719222C31.6036 0.727843 31.7028 1.18844 32.0505 2.00126V2.00249L32.0518 2.00372C33.3021 4.81903 35.957 7.0198 39.2365 8.51982C42.516 10.0198 46.4262 10.8203 50.2078 10.8216C54.1216 10.8203 57.9007 9.96443 60.7051 8.11834L60.5434 7.86957ZM31.7873 65.9849C22.997 61.4097 15.7853 55.2619 10.7669 46.9058C5.74972 38.5486 2.92333 27.9807 2.92333 14.5569C2.92333 13.5556 2.93925 12.5384 2.97109 11.5039L2.82536 11.4989L2.76903 11.6344C5.73012 12.8746 8.90307 13.4054 12.0442 13.4054C16.1784 13.4054 20.2588 12.4891 23.7392 11.0617C27.2183 9.63314 30.0985 7.69715 31.8326 5.64047L31.7211 5.54564L31.6109 5.64294C35.3729 9.96196 42.5013 13.3832 50.111 13.3857C52.8051 13.3857 55.5593 12.9558 58.2436 11.9805L58.1934 11.8425L58.0464 11.8462C58.0856 13.0051 58.104 14.1455 58.104 15.265C58.104 28.1703 55.5507 38.4919 50.9695 46.7654C46.3882 55.0389 39.7778 61.2693 31.6476 65.9874L31.7934 66.2423C39.9615 61.5033 46.616 55.2335 51.2254 46.9083C55.8348 38.5831 58.3967 28.2073 58.3967 15.2638C58.3967 14.1406 58.3771 12.9977 58.3379 11.8351L58.3318 11.6332L58.1432 11.7021C55.4931 12.664 52.7733 13.0889 50.1098 13.0889C42.5883 13.0913 35.5211 9.68979 31.8301 5.44712L31.7187 5.31904L31.6085 5.44958C29.9197 7.45577 27.0737 9.37575 23.6265 10.7883C20.1805 12.2021 16.1344 13.111 12.043 13.111C8.93369 13.111 5.79993 12.5864 2.88047 11.3622L2.68453 11.2797L2.67841 11.4928C2.64657 12.5297 2.63065 13.5495 2.63065 14.5544C2.63065 28.0189 5.46683 38.6459 10.5171 47.0548C15.5674 55.4638 22.8268 61.6499 31.6538 66.2435L31.7873 65.9849Z" fill="#A08D65"/>
</g>
<defs>
<clipPath id="clip0_317_2233">
<rect width="61" height="88" fill="white"/>
</clipPath>
</defs>
</svg>
