<svg width="573" height="1163" viewBox="0 0 573 1163" fill="none" xmlns="http://www.w3.org/2000/svg">
<path opacity="0.04" d="M579.035 1010.42C556.928 994.624 521.748 943.135 557.879 863.582C603.042 764.142 586.469 712.24 528.666 660.824C470.864 609.409 360.493 809.952 281.239 689.47C201.985 568.989 256.296 397.334 341.987 359.305C427.678 321.275 427.591 139.974 298.444 119.488" stroke="url(#paint0_linear_1103_13536)"/>
<path opacity="0.08" d="M577.963 1017.43C556.119 1001.15 521.728 948.9 558.908 870.13C605.383 771.668 589.569 719.407 532.598 666.738C475.626 614.07 362.646 812.221 285.233 690.021C207.82 567.821 264.439 397.344 350.503 361.172C436.567 325 439.026 143.697 310.409 120.411" stroke="url(#paint1_linear_1103_13536)"/>
<path opacity="0.12" d="M577.037 1024.01C555.463 1007.26 521.868 954.259 560.083 876.297C607.852 778.845 592.801 726.242 536.674 672.338C480.548 618.433 365 814.129 289.445 690.251C213.89 566.373 272.794 397.127 359.205 362.823C445.615 328.519 450.612 147.272 322.562 121.194" stroke="url(#paint2_linear_1103_13536)"/>
<path opacity="0.16" d="M576.032 1030.61C554.733 1013.39 521.943 959.664 561.179 882.535C610.223 786.124 595.936 733.195 540.669 678.071C485.401 622.948 367.328 816.129 293.648 690.611C219.968 565.093 281.132 397.132 367.862 364.707C454.593 332.282 462.118 151.148 334.671 122.288" stroke="url(#paint3_linear_1103_13536)"/>
<path opacity="0.2" d="M574.949 1037.24C553.93 1019.56 521.951 965.118 562.193 888.846C612.495 793.505 598.974 740.267 544.579 683.943C490.184 627.619 369.629 818.222 297.84 691.105C226.051 563.989 289.45 397.364 376.474 366.828C463.497 336.293 473.54 155.329 346.732 123.696" stroke="url(#paint4_linear_1103_13536)"/>
<path opacity="0.24" d="M573.785 1043.89C553.051 1025.75 521.892 970.614 563.124 895.222C614.664 800.983 601.912 747.453 548.403 689.946C494.895 632.438 371.901 820.405 302.018 691.729C232.136 563.053 297.744 397.819 385.034 369.182C472.323 340.544 484.874 159.808 358.741 125.412" stroke="url(#paint5_linear_1103_13536)"/>
<path opacity="0.28" d="M572.539 1050.55C552.096 1031.96 521.762 976.149 563.969 901.662C616.728 808.554 604.745 754.748 552.136 696.076C499.527 637.404 374.139 822.674 306.178 692.481C238.217 562.287 306.008 398.494 393.537 371.764C481.065 345.034 496.112 164.582 370.69 127.435" stroke="url(#paint6_linear_1103_13536)"/>
<path opacity="0.32" d="M571.442 1056.79C551.295 1037.75 521.793 981.28 564.96 907.721C618.918 815.772 607.706 761.708 556.009 701.889C504.313 642.071 376.575 824.588 310.55 692.917C244.525 561.246 314.472 398.947 402.213 374.132C489.953 349.317 507.484 169.206 382.807 129.319" stroke="url(#paint7_linear_1103_13536)"/>
<path opacity="0.36" d="M570.493 1062.59C550.647 1043.11 521.983 986 566.094 913.391C621.231 822.63 610.791 768.325 560.019 707.379C509.248 646.433 379.208 826.139 315.132 693.033C251.057 559.926 323.131 399.17 411.057 376.278C498.982 353.386 518.984 173.673 395.089 131.059" stroke="url(#paint8_linear_1103_13536)"/>
<path opacity="0.4" d="M569.465 1068.4C549.926 1048.49 522.106 990.751 567.144 919.116C623.441 829.572 613.772 775.042 563.939 712.988C514.105 650.934 381.808 827.773 319.695 693.272C257.583 558.771 331.756 399.609 419.84 378.648C507.923 357.686 530.381 178.426 407.302 133.098" stroke="url(#paint9_linear_1103_13536)"/>
<path opacity="0.44" d="M568.348 1074.22C549.12 1053.88 522.151 995.543 568.099 924.903C625.534 836.603 616.638 781.865 567.754 718.722C518.871 655.579 384.364 829.497 324.226 693.644C264.089 557.791 340.333 400.272 428.547 381.246C516.761 362.221 541.661 183.47 419.433 135.444" stroke="url(#paint10_linear_1103_13536)"/>
<path opacity="0.48" d="M567.16 1080.06C548.248 1059.3 522.135 1000.37 568.976 930.746C627.528 843.718 619.405 788.79 571.483 724.577C523.561 660.365 386.893 831.308 328.743 694.144C270.593 556.98 348.877 401.154 437.195 384.071C525.512 366.988 552.839 188.801 431.496 138.09" stroke="url(#paint11_linear_1103_13536)"/>
<path opacity="0.52" d="M565.891 1085.9C547.3 1064.73 522.047 1005.23 569.765 936.644C629.412 850.915 622.063 795.813 575.114 730.551C528.165 665.288 389.383 833.203 333.233 694.772C277.082 556.341 357.375 402.254 445.769 387.119C534.163 371.983 563.9 194.416 443.477 141.037" stroke="url(#paint12_linear_1103_13536)"/>
<path opacity="0.56" d="M564.762 1091.3C546.496 1069.72 522.109 1009.67 570.686 942.144C631.407 857.74 624.83 802.481 578.866 736.19C532.901 669.898 392.056 834.733 337.915 695.077C283.774 555.42 366.046 403.121 454.489 389.938C542.931 376.755 575.062 199.862 455.593 143.831" stroke="url(#paint13_linear_1103_13536)"/>
<path opacity="0.6" d="M563.554 1096.71C545.618 1074.72 522.101 1014.14 571.52 947.696C633.293 864.643 627.488 809.245 582.519 741.944C537.55 674.643 394.691 836.348 342.57 695.51C290.448 554.671 374.668 404.206 463.132 392.979C551.596 381.752 586.103 205.588 467.62 146.922" stroke="url(#paint14_linear_1103_13536)"/>
<path opacity="0.64" d="M562.268 1102.11C544.667 1079.73 522.025 1018.64 572.267 953.296C635.07 871.619 630.037 816.098 586.074 747.809C542.111 679.519 397.288 838.044 347.196 696.067C297.104 554.089 383.238 405.504 471.697 396.237C560.155 386.97 597.02 211.589 479.558 150.305" stroke="url(#paint15_linear_1103_13536)"/>
<path opacity="0.68" d="M560.901 1107.52C543.638 1084.75 521.875 1023.16 572.923 958.941C636.732 878.665 632.47 823.039 589.523 753.782C546.576 684.525 399.842 839.822 351.787 696.748C303.733 553.675 391.75 407.016 480.175 399.711C568.601 392.407 607.805 217.861 491.396 153.979" stroke="url(#paint16_linear_1103_13536)"/>
<path opacity="0.72" d="M559.685 1112.48C542.766 1089.33 521.886 1027.26 573.72 964.179C638.513 885.329 635.02 829.613 593.1 759.41C551.18 689.206 402.584 841.228 356.577 697.102C310.569 552.976 400.435 408.288 488.8 402.948C577.165 397.608 618.688 223.951 503.365 157.491" stroke="url(#paint17_linear_1103_13536)"/>
<path opacity="0.76" d="M558.384 1117.44C541.813 1093.91 521.819 1031.38 574.422 969.464C640.175 892.064 637.451 836.276 596.566 765.147C555.682 694.019 405.278 842.719 361.325 697.584C317.372 552.45 409.052 409.776 497.329 406.402C585.607 403.029 629.429 230.314 515.225 161.295" stroke="url(#paint18_linear_1103_13536)"/>
<path opacity="0.8" d="M557.004 1122.39C540.784 1098.49 521.68 1035.53 575.032 974.786C641.722 898.859 639.764 843.017 599.925 770.984C560.087 698.951 407.927 844.285 366.035 698.186C324.143 552.087 417.604 411.47 505.767 410.064C593.929 408.657 640.03 236.937 526.975 165.38" stroke="url(#paint19_linear_1103_13536)"/>
<path opacity="0.84" d="M555.772 1126.88C539.906 1102.63 521.696 1039.24 575.779 979.699C643.381 905.267 642.188 849.386 603.404 776.472C564.62 703.557 410.757 845.48 370.933 698.461C331.109 551.441 426.316 412.923 514.337 413.485C602.357 414.047 650.713 243.372 538.841 169.299" stroke="url(#paint20_linear_1103_13536)"/>
<path opacity="0.88" d="M554.463 1131.37C538.956 1106.77 521.642 1042.98 576.436 984.647C644.927 911.734 644.496 855.832 606.776 782.057C569.055 708.282 413.544 846.753 375.794 698.856C338.043 550.96 434.96 414.584 522.811 417.113C610.663 419.642 661.253 250.064 550.594 173.497" stroke="url(#paint21_linear_1103_13536)"/>
<path opacity="0.92" d="M553.299 1135.4C538.156 1110.45 521.74 1046.28 577.225 989.182C646.581 917.808 646.91 861.902 610.262 787.289C573.613 712.676 416.507 847.653 380.836 698.924C345.165 550.196 443.755 416.001 531.41 420.497C619.065 424.993 671.866 256.563 562.451 177.525" stroke="url(#paint22_linear_1103_13536)"/>
<path opacity="0.96" d="M552.418 1139.35C537.641 1114.07 522.126 1049.54 578.283 993.687C648.479 923.874 649.566 867.979 613.997 792.55C578.428 717.122 419.783 848.564 386.195 699.048C352.608 549.532 452.836 417.559 540.268 424.021C627.699 430.482 682.687 263.249 574.547 181.764" stroke="url(#paint23_linear_1103_13536)"/>
<path d="M550.966 1142.97C536.559 1117.35 521.947 1052.48 578.756 997.893C649.766 929.662 651.609 873.796 617.128 797.574C582.647 721.352 422.517 849.221 391.017 698.962C359.517 548.702 461.346 418.99 548.527 427.415C635.708 435.84 692.859 269.854 586.024 185.946" stroke="url(#paint24_linear_1103_13536)"/>
<defs>
<linearGradient id="paint0_linear_1103_13536" x1="250.634" y1="629.82" x2="559.074" y2="585.382" gradientUnits="userSpaceOnUse">
<stop offset="0.416667" stop-color="#0C6F97"/>
<stop offset="0.864583" stop-color="#0C6F97" stop-opacity="0"/>
</linearGradient>
<linearGradient id="paint1_linear_1103_13536" x1="255.524" y1="629.708" x2="563.734" y2="589.838" gradientUnits="userSpaceOnUse">
<stop offset="0.416667" stop-color="#0C6F97"/>
<stop offset="0.864583" stop-color="#0C6F97" stop-opacity="0"/>
</linearGradient>
<linearGradient id="paint2_linear_1103_13536" x1="260.637" y1="629.293" x2="568.582" y2="593.95" gradientUnits="userSpaceOnUse">
<stop offset="0.416667" stop-color="#0C6F97"/>
<stop offset="0.864583" stop-color="#0C6F97" stop-opacity="0"/>
</linearGradient>
<linearGradient id="paint3_linear_1103_13536" x1="265.747" y1="629.029" x2="573.393" y2="598.168" gradientUnits="userSpaceOnUse">
<stop offset="0.416667" stop-color="#0C6F97"/>
<stop offset="0.864583" stop-color="#0C6F97" stop-opacity="0"/>
</linearGradient>
<linearGradient id="paint4_linear_1103_13536" x1="270.852" y1="628.918" x2="578.167" y2="602.501" gradientUnits="userSpaceOnUse">
<stop offset="0.416667" stop-color="#0C6F97"/>
<stop offset="0.864583" stop-color="#0C6F97" stop-opacity="0"/>
</linearGradient>
<linearGradient id="paint5_linear_1103_13536" x1="275.947" y1="628.956" x2="582.901" y2="606.944" gradientUnits="userSpaceOnUse">
<stop offset="0.416667" stop-color="#0C6F97"/>
<stop offset="0.864583" stop-color="#0C6F97" stop-opacity="0"/>
</linearGradient>
<linearGradient id="paint6_linear_1103_13536" x1="281.03" y1="629.142" x2="587.593" y2="611.498" gradientUnits="userSpaceOnUse">
<stop offset="0.416667" stop-color="#0C6F97"/>
<stop offset="0.864583" stop-color="#0C6F97" stop-opacity="0"/>
</linearGradient>
<linearGradient id="paint7_linear_1103_13536" x1="286.33" y1="629.033" x2="592.475" y2="615.721" gradientUnits="userSpaceOnUse">
<stop offset="0.416667" stop-color="#0C6F97"/>
<stop offset="0.864583" stop-color="#0C6F97" stop-opacity="0"/>
</linearGradient>
<linearGradient id="paint8_linear_1103_13536" x1="291.843" y1="628.623" x2="597.546" y2="619.61" gradientUnits="userSpaceOnUse">
<stop offset="0.416667" stop-color="#0C6F97"/>
<stop offset="0.864583" stop-color="#0C6F97" stop-opacity="0"/>
</linearGradient>
<linearGradient id="paint9_linear_1103_13536" x1="297.342" y1="628.358" x2="602.576" y2="623.611" gradientUnits="userSpaceOnUse">
<stop offset="0.416667" stop-color="#0C6F97"/>
<stop offset="0.864583" stop-color="#0C6F97" stop-opacity="0"/>
</linearGradient>
<linearGradient id="paint10_linear_1103_13536" x1="302.813" y1="628.244" x2="607.555" y2="627.735" gradientUnits="userSpaceOnUse">
<stop offset="0.416667" stop-color="#0C6F97"/>
<stop offset="0.864583" stop-color="#0C6F97" stop-opacity="0"/>
</linearGradient>
<linearGradient id="paint11_linear_1103_13536" x1="308.273" y1="628.279" x2="612.501" y2="631.979" gradientUnits="userSpaceOnUse">
<stop offset="0.416667" stop-color="#0C6F97"/>
<stop offset="0.864583" stop-color="#0C6F97" stop-opacity="0"/>
</linearGradient>
<linearGradient id="paint12_linear_1103_13536" x1="313.709" y1="628.463" x2="617.401" y2="636.345" gradientUnits="userSpaceOnUse">
<stop offset="0.416667" stop-color="#0C6F97"/>
<stop offset="0.864583" stop-color="#0C6F97" stop-opacity="0"/>
</linearGradient>
<linearGradient id="paint13_linear_1103_13536" x1="319.34" y1="628.343" x2="622.476" y2="640.383" gradientUnits="userSpaceOnUse">
<stop offset="0.416667" stop-color="#0C6F97"/>
<stop offset="0.864583" stop-color="#0C6F97" stop-opacity="0"/>
</linearGradient>
<linearGradient id="paint14_linear_1103_13536" x1="324.947" y1="628.372" x2="627.507" y2="644.547" gradientUnits="userSpaceOnUse">
<stop offset="0.416667" stop-color="#0C6F97"/>
<stop offset="0.864583" stop-color="#0C6F97" stop-opacity="0"/>
</linearGradient>
<linearGradient id="paint15_linear_1103_13536" x1="330.527" y1="628.546" x2="632.491" y2="648.835" gradientUnits="userSpaceOnUse">
<stop offset="0.416667" stop-color="#0C6F97"/>
<stop offset="0.864583" stop-color="#0C6F97" stop-opacity="0"/>
</linearGradient>
<linearGradient id="paint16_linear_1103_13536" x1="336.075" y1="628.865" x2="637.425" y2="653.249" gradientUnits="userSpaceOnUse">
<stop offset="0.416667" stop-color="#0C6F97"/>
<stop offset="0.864583" stop-color="#0C6F97" stop-opacity="0"/>
</linearGradient>
<linearGradient id="paint17_linear_1103_13536" x1="341.823" y1="628.877" x2="642.539" y2="657.337" gradientUnits="userSpaceOnUse">
<stop offset="0.416667" stop-color="#0C6F97"/>
<stop offset="0.864583" stop-color="#0C6F97" stop-opacity="0"/>
</linearGradient>
<linearGradient id="paint18_linear_1103_13536" x1="347.53" y1="629.038" x2="647.595" y2="661.56" gradientUnits="userSpaceOnUse">
<stop offset="0.416667" stop-color="#0C6F97"/>
<stop offset="0.864583" stop-color="#0C6F97" stop-opacity="0"/>
</linearGradient>
<linearGradient id="paint19_linear_1103_13536" x1="353.201" y1="629.34" x2="652.598" y2="665.909" gradientUnits="userSpaceOnUse">
<stop offset="0.416667" stop-color="#0C6F97"/>
<stop offset="0.864583" stop-color="#0C6F97" stop-opacity="0"/>
</linearGradient>
<linearGradient id="paint20_linear_1103_13536" x1="359.062" y1="629.335" x2="657.771" y2="669.939" gradientUnits="userSpaceOnUse">
<stop offset="0.416667" stop-color="#0C6F97"/>
<stop offset="0.864583" stop-color="#0C6F97" stop-opacity="0"/>
</linearGradient>
<linearGradient id="paint21_linear_1103_13536" x1="364.884" y1="629.471" x2="662.889" y2="674.101" gradientUnits="userSpaceOnUse">
<stop offset="0.416667" stop-color="#0C6F97"/>
<stop offset="0.864583" stop-color="#0C6F97" stop-opacity="0"/>
</linearGradient>
<linearGradient id="paint22_linear_1103_13536" x1="370.889" y1="629.301" x2="668.172" y2="677.947" gradientUnits="userSpaceOnUse">
<stop offset="0.416667" stop-color="#0C6F97"/>
<stop offset="0.864583" stop-color="#0C6F97" stop-opacity="0"/>
</linearGradient>
<linearGradient id="paint23_linear_1103_13536" x1="377.212" y1="629.207" x2="673.755" y2="681.862" gradientUnits="userSpaceOnUse">
<stop offset="0.416667" stop-color="#0C6F97"/>
<stop offset="0.864583" stop-color="#0C6F97" stop-opacity="0"/>
</linearGradient>
<linearGradient id="paint24_linear_1103_13536" x1="382.996" y1="628.924" x2="678.782" y2="685.583" gradientUnits="userSpaceOnUse">
<stop offset="0.416667" stop-color="#0C6F97"/>
<stop offset="0.864583" stop-color="#0C6F97" stop-opacity="0"/>
</linearGradient>
</defs>
</svg>
