<svg width="21" height="21" viewBox="0 0 21 21" fill="none" xmlns="http://www.w3.org/2000/svg">
<g clip-path="url(#clip0_1159_18726)">
<path d="M10.4909 0.585205C15.9978 0.585205 20.4213 5.00876 20.4213 10.5156C20.4213 16.0224 15.9978 20.446 10.4909 20.446C4.9841 20.446 0.560547 16.0224 0.560547 10.5156C0.560547 5.00876 4.9841 0.585205 10.4909 0.585205Z" fill="#EBAF15"/>
<path d="M10.4916 3.29346C6.51953 3.29346 3.26953 6.54336 3.26953 10.5156C3.26953 14.4878 6.51943 17.7377 10.4916 17.7377C14.4639 17.7377 17.7138 14.4878 17.7138 10.5156C17.7138 6.54336 14.4638 3.29346 10.4916 3.29346ZM10.4916 15.9321C7.51251 15.9321 5.07511 13.4946 5.07511 10.5156C5.07511 7.53654 7.51261 5.09903 10.4916 5.09903C13.4707 5.09903 15.9082 7.53654 15.9082 10.5156C15.9082 13.4946 13.4707 15.9321 10.4916 15.9321Z" fill="#E1E7EC"/>
</g>
<defs>
<clipPath id="clip0_1159_18726">
<rect width="20" height="20" fill="white" transform="translate(0.5 0.5)"/>
</clipPath>
</defs>
</svg>
