<svg width="125" height="180" viewBox="0 0 125 180" fill="none" xmlns="http://www.w3.org/2000/svg">
<g clip-path="url(#clip0_317_1091)">
<path d="M124.172 165.681C123.933 159.301 124.199 152.92 124.059 146.537C124.287 144.486 122.229 143.619 120.889 142.577C117.115 139.78 112.33 138.944 107.735 138.775C98.4449 138.425 89.3357 140.72 80.244 142.327C72.8085 143.612 65.2526 145.473 57.6867 144.375C51.2073 143.924 44.8835 142.423 38.4895 141.468C28.9687 139.727 19.3551 137.322 9.61091 138.11C6.03245 138.362 1.58824 139.745 0.750092 143.761C0.486601 149.171 0.664771 154.59 0.664771 160.019C0.684846 161.203 0.617092 162.369 0.541808 163.553C0.40128 165.616 0.205544 167.661 0.353601 169.747C0.476563 171.433 0.634658 173.224 1.54056 174.692C2.32351 175.99 3.41009 176.909 4.76519 177.544C7.79659 178.954 12.562 179.116 14.8531 176.342C15.6888 175.347 16.2835 174.173 16.3688 172.846C16.7001 168.755 16.3136 164.644 16.4617 160.543C33.7015 160.857 50.2763 167.173 67.5437 167.306C81.5238 167.352 94.6582 161.349 108.603 161.228C108.676 165.346 108.553 169.468 108.528 173.576C108.576 174.788 109 176.322 109.697 177.327C111.075 179.342 113.888 179.705 116.121 179.705C118.538 179.705 121.379 178.7 122.962 176.75C125.361 173.554 124.759 169.347 124.172 165.681ZM12.552 175.899C9.53312 177.093 5.60836 176.65 3.39253 174.128C1.66604 171.417 1.62839 167.762 3.23443 164.981C4.40383 163.107 6.4967 162.205 8.3838 161.255C8.41391 164.029 8.39383 166.825 8.42144 169.629C10.306 169.566 12.7126 168.845 14.0702 170.606C14.7427 172.395 14.5344 175.047 12.552 175.899ZM10.1831 167.331C10.1956 165.173 10.1956 163.019 10.2583 160.873C11.6159 160.757 12.9786 160.661 14.3261 160.538C14.429 163.059 14.3989 165.598 14.4491 168.125C13.0614 167.709 11.636 167.452 10.1831 167.331ZM63.9502 165.359C56.0806 164.933 48.4018 163.084 40.6275 161.865C30.5421 160.112 20.2886 157.643 10.0225 159.071C7.16672 159.308 4.71249 160.832 2.41887 162.404C2.48411 156.661 2.38373 150.92 2.43894 145.161C2.57194 142.811 4.56443 140.947 6.78779 140.503C12.3638 139.41 18.1204 139.785 23.6939 140.775C33.0842 142.504 42.5146 143.967 51.91 145.662C60.1585 147.149 68.7081 146.907 76.8211 144.859C86.613 143.237 96.342 140.594 106.332 140.544C111.908 140.7 118.267 141.7 122.114 146.141C122.37 151.985 122.096 157.83 122.237 163.674C119.416 161.696 116.295 159.925 112.774 159.716C96.209 158.001 80.51 166.296 63.9502 165.359ZM110.465 161.381C111.843 161.525 113.218 161.694 114.596 161.883C114.643 164.112 114.643 166.334 114.596 168.571C113.163 168.677 111.783 168.997 110.427 169.422C110.465 166.742 110.433 164.072 110.465 161.381ZM122.756 172.067C122.518 173.299 121.991 174.748 121.226 175.743C120.011 177.037 118.375 177.672 116.643 177.796C113.707 178.025 110.566 177.559 110.5 173.969C110.5 173.334 110.596 172.69 110.869 172.095C111.936 169.815 114.475 170.8 116.47 171.007C116.53 168.183 116.51 165.351 116.538 162.53C118.222 163.487 120.192 164.115 121.474 165.656C122.879 167.359 123.17 169.951 122.756 172.067Z" fill="#24245B"/>
<path d="M124.471 165.672C124.39 163.498 124.368 161.324 124.368 159.147C124.368 156.462 124.403 153.772 124.403 151.081C124.403 149.565 124.393 148.048 124.358 146.532L124.056 146.539L124.355 146.572C124.368 146.456 124.375 146.343 124.375 146.23C124.378 145.199 123.823 144.444 123.156 143.862C122.486 143.275 121.683 142.816 121.073 142.34L121.07 142.338L121.068 142.335C117.216 139.484 112.368 138.647 107.748 138.476C107.1 138.451 106.453 138.441 105.808 138.441C97.1352 138.443 88.6433 140.542 80.194 142.035C74.327 143.051 68.4122 144.413 62.5075 144.413C60.914 144.413 59.3205 144.315 57.7296 144.083L57.7195 144.081H57.707C51.2602 143.632 44.944 142.134 38.5349 141.174L38.4897 141.471L38.5424 141.174C30.3115 139.67 21.9852 137.657 13.5359 137.657C12.2235 137.657 10.906 137.705 9.58604 137.813L9.61114 138.113L9.59106 137.813C7.77423 137.942 5.73406 138.355 4.0151 139.262C2.29864 140.164 0.895868 141.592 0.456717 143.703L0.451698 143.726L0.449189 143.751C0.336264 146.058 0.303642 148.366 0.303642 150.673C0.303642 153.792 0.361359 156.908 0.361359 160.024V160.027V160.029C0.363868 160.165 0.363868 160.304 0.363868 160.44C0.363868 161.47 0.303642 162.495 0.238396 163.538V163.536C0.138019 165.067 0 166.606 0 168.168C0 168.697 0.0150566 169.231 0.0552076 169.765C0.180679 171.451 0.333755 173.294 1.28734 174.846L1.5433 174.688L1.28734 174.844C2.1004 176.194 3.23968 177.159 4.64246 177.811C6.00759 178.446 7.69644 178.831 9.37525 178.831C11.5409 178.831 13.7141 178.187 15.0892 176.526L15.0867 176.529C15.9525 175.499 16.5823 174.267 16.6727 172.859L16.3741 172.839L16.6727 172.864C16.7806 171.541 16.8132 170.219 16.8132 168.901C16.8132 166.82 16.7329 164.742 16.7329 162.674C16.7329 161.964 16.743 161.253 16.768 160.545L16.4694 160.535L16.4644 160.835C33.634 161.142 50.2088 167.46 67.549 167.599H67.5515H67.7096C81.7173 167.591 94.8065 161.631 108.613 161.52L108.611 161.221L108.312 161.226C108.327 162.148 108.335 163.07 108.335 163.992C108.335 167.181 108.257 170.375 108.237 173.569V173.577V173.584C108.29 174.854 108.716 176.418 109.462 177.496L109.459 177.494C110.199 178.577 111.316 179.202 112.513 179.557C113.71 179.912 114.997 180 116.132 180C118.626 179.995 121.537 178.98 123.203 176.935L123.206 176.932L123.208 176.927C124.588 175.093 125.005 172.939 125.003 170.78C125.003 169.035 124.734 167.276 124.471 165.637L123.878 165.732C124.142 167.367 124.403 169.095 124.403 170.778C124.403 172.866 124.004 174.866 122.729 176.562L122.967 176.743L122.734 176.554C121.236 178.411 118.465 179.403 116.127 179.401C115.025 179.401 113.79 179.31 112.679 178.98C111.564 178.65 110.588 178.088 109.948 177.154L109.946 177.151C109.291 176.219 108.872 174.715 108.832 173.562L108.533 173.574L108.832 173.577C108.852 170.393 108.932 167.196 108.932 163.997C108.932 163.072 108.925 162.145 108.91 161.221L108.904 160.923L108.606 160.926C94.6283 161.057 81.5441 167.014 67.7071 167.004H67.5515H67.554C50.3594 166.876 33.7845 160.561 16.477 160.241L16.1833 160.236L16.1733 160.53C16.1482 161.248 16.1382 161.964 16.1382 162.679C16.1382 164.762 16.2185 166.841 16.2185 168.906C16.2185 170.216 16.1859 171.521 16.0805 172.821V172.823V172.826C16.0002 174.073 15.4431 175.186 14.635 176.146L14.6325 176.149C13.4205 177.62 11.4355 178.234 9.38027 178.234C7.79431 178.234 6.17823 177.864 4.89842 177.27C3.58598 176.655 2.55461 175.781 1.80428 174.536L1.80177 174.534C0.943548 173.151 0.780434 171.408 0.657472 169.725C0.61983 169.206 0.604774 168.69 0.604774 168.171C0.604774 166.644 0.740283 165.12 0.84568 163.573V163.571C0.913434 162.525 0.973661 161.488 0.973661 160.435C0.973661 160.294 0.973661 160.155 0.971151 160.014L0.670019 160.019H0.971151C0.971151 156.895 0.910925 153.779 0.910925 150.668C0.910925 148.366 0.943548 146.068 1.05647 143.776L0.75785 143.761L1.05145 143.824C1.45045 141.919 2.69011 140.647 4.30117 139.793C5.90972 138.942 7.87963 138.536 9.63874 138.413H9.64125H9.64376C10.9462 138.307 12.246 138.259 13.5434 138.259C21.8973 138.259 30.191 140.257 38.442 141.766H38.4471H38.4521C44.8286 142.721 51.1599 144.224 57.6718 144.678L57.6919 144.378L57.6493 144.675C59.2729 144.91 60.894 145.01 62.5125 145.01C68.5101 145.01 74.4575 143.632 80.3019 142.625C88.7788 141.126 97.2381 139.04 105.813 139.04C106.453 139.04 107.093 139.053 107.733 139.075C112.3 139.244 117.022 140.076 120.719 142.819L120.897 142.577L120.714 142.814C121.374 143.328 122.164 143.781 122.769 144.315C123.376 144.854 123.78 145.429 123.783 146.23C123.783 146.318 123.778 146.408 123.768 146.504L123.765 146.524V146.544C123.8 148.056 123.811 149.567 123.811 151.081C123.811 153.767 123.775 156.457 123.775 159.147C123.775 161.329 123.798 163.51 123.878 165.694L124.471 165.672ZM12.4418 175.62C11.428 176.02 10.3037 176.232 9.17951 176.232C7.0741 176.232 4.99127 175.494 3.6161 173.929L3.39025 174.128L3.6437 173.967C2.78798 172.624 2.36138 171.035 2.36138 169.44C2.36138 167.936 2.7403 166.433 3.49062 165.133L3.23215 164.982L3.48561 165.14C4.58474 163.367 6.61236 162.475 8.51702 161.525L8.38402 161.256L8.0854 161.258C8.113 164.029 8.09544 166.823 8.12304 169.632L8.12555 169.939L8.4317 169.929C9.33259 169.896 10.3113 169.727 11.2172 169.727C11.7416 169.727 12.2385 169.783 12.6777 169.944C13.1168 170.105 13.5033 170.36 13.832 170.788L14.0704 170.604L13.7893 170.71C13.9951 171.259 14.1156 171.904 14.1156 172.544C14.1156 173.201 13.9876 173.851 13.7166 174.39C13.443 174.932 13.0315 175.36 12.4343 175.62L12.6701 176.174C13.4054 175.859 13.9274 175.307 14.2511 174.665C14.5773 174.017 14.7153 173.279 14.7153 172.544C14.7153 171.828 14.5823 171.118 14.349 170.496L14.3339 170.453L14.3063 170.418C13.9073 169.899 13.4104 169.569 12.8784 169.375C12.3464 169.183 11.7793 169.125 11.2147 169.125C10.241 169.125 9.24978 169.299 8.40912 169.327L8.41916 169.627L8.71778 169.624C8.69018 166.826 8.70774 164.029 8.68014 161.251L8.67512 160.77L8.24601 160.986C6.37397 161.931 4.21585 162.843 2.97619 164.82L2.97368 164.825L2.97117 164.83C2.16564 166.231 1.76162 167.836 1.76162 169.44C1.76162 171.143 2.21583 172.844 3.1393 174.292L3.15185 174.312L3.16691 174.33C4.68512 176.05 6.9411 176.834 9.17951 176.834C10.3765 176.834 11.5735 176.612 12.6601 176.181L12.4418 175.62ZM10.4844 167.332C10.497 165.17 10.497 163.022 10.5597 160.881L10.2611 160.87L10.2862 161.17C11.6413 161.057 13.0039 160.961 14.354 160.835L14.3264 160.535L14.0277 160.548C14.1281 163.06 14.1005 165.596 14.1507 168.128L14.4493 168.123L14.5346 167.833C13.1243 167.412 11.6789 167.15 10.2084 167.027L10.1582 167.627C11.5911 167.747 12.9964 168.002 14.364 168.41L14.758 168.528L14.7505 168.115C14.7003 165.594 14.7304 163.054 14.6275 160.523L14.615 160.205L14.3013 160.233C12.9587 160.357 11.5961 160.452 10.236 160.566L9.96999 160.588L9.96246 160.858C9.89972 163.012 9.89972 165.165 9.88718 167.324L10.4844 167.332ZM63.968 165.06C56.1336 164.639 48.4647 162.792 40.6754 161.571L40.6278 161.868L40.6805 161.571C32.7155 160.188 24.6201 158.346 16.4644 158.346C14.3088 158.346 12.1457 158.475 9.98253 158.777L10.0227 159.077L9.99759 158.777C7.04649 159.024 4.54961 160.586 2.24845 162.163L2.41659 162.412L2.71772 162.415C2.73528 160.893 2.7403 159.369 2.7403 157.848C2.7403 154.936 2.72023 152.023 2.72023 149.111C2.72023 147.799 2.72525 146.487 2.73779 145.172L2.43917 145.169L2.73779 145.187C2.80053 144.093 3.29489 143.108 4.04521 142.335C4.79302 141.564 5.7968 141.015 6.84825 140.809C9.19457 140.35 11.576 140.151 13.965 140.151C17.1997 140.151 20.4494 140.514 23.6439 141.083H23.6389C33.0342 142.811 42.4647 144.275 51.8575 145.97C55.3883 146.605 58.9742 146.927 62.5577 146.927C67.3859 146.927 72.2115 146.343 76.8941 145.162L76.8214 144.869L76.869 145.167C86.6809 143.539 96.3949 140.904 106.332 140.854L106.33 140.554L106.322 140.854C109.095 140.932 112.054 141.222 114.784 142.035C117.514 142.849 120.009 144.184 121.886 146.348L122.112 146.152L121.813 146.164C121.903 148.222 121.928 150.28 121.928 152.343C121.928 154.777 121.893 157.215 121.893 159.656C121.893 161.001 121.903 162.347 121.936 163.692L122.235 163.684L122.408 163.437C119.572 161.45 116.405 159.641 112.792 159.424L112.774 159.724L112.804 159.424C111.236 159.263 109.672 159.188 108.119 159.19C94.0436 159.198 80.5654 165.15 66.613 165.143C65.7347 165.133 64.8539 165.11 63.968 165.06L63.9354 165.662C64.8313 165.712 65.7246 165.735 66.618 165.735C80.7386 165.727 94.2168 159.775 108.124 159.782C109.66 159.782 111.201 159.855 112.746 160.014H112.754H112.759C116.187 160.218 119.261 161.951 122.066 163.919L122.551 164.259L122.538 163.664C122.506 162.324 122.496 160.984 122.496 159.644C122.496 157.21 122.531 154.772 122.531 152.331C122.531 150.265 122.506 148.197 122.415 146.126L122.41 146.021L122.343 145.94C120.37 143.665 117.763 142.28 114.96 141.443C112.154 140.607 109.145 140.317 106.345 140.239H106.34H106.335C96.2946 140.292 86.5504 142.942 76.7787 144.559L76.7661 144.562L76.7536 144.565C72.1212 145.736 67.3432 146.313 62.5627 146.313C59.0144 146.313 55.4635 145.995 51.9679 145.363C42.5676 143.665 33.1371 142.204 23.7518 140.476H23.7493C20.5297 139.904 17.2474 139.536 13.965 139.536C11.5434 139.536 9.1218 139.738 6.73282 140.204L6.71776 140.207L6.73031 140.204C5.55589 140.438 4.45174 141.043 3.6161 141.902C2.78045 142.761 2.21081 143.882 2.14055 145.139V145.146V145.154C2.128 146.471 2.12298 147.786 2.12298 149.099C2.12298 152.016 2.14306 154.925 2.14306 157.835C2.14306 159.356 2.13804 160.875 2.12047 162.394L2.11294 162.974L2.58974 162.649C4.87583 161.08 7.28489 159.593 10.0478 159.367H10.0553L10.0628 159.364C12.1959 159.067 14.3289 158.938 16.4619 158.938C24.5272 158.938 32.59 160.767 40.5751 162.155H40.5776H40.5801C48.3393 163.372 56.0282 165.223 63.9329 165.652L63.968 165.06ZM110.435 161.682C111.808 161.825 113.181 161.994 114.556 162.18L114.596 161.883L114.295 161.891C114.32 163.002 114.33 164.112 114.33 165.226C114.33 166.337 114.317 167.45 114.295 168.566L114.596 168.571L114.573 168.271C113.11 168.38 111.708 168.705 110.337 169.135L110.428 169.423L110.726 169.428C110.764 166.742 110.734 164.07 110.764 161.387L110.164 161.379C110.134 164.072 110.164 166.745 110.127 169.42L110.122 169.836L110.518 169.712C111.861 169.289 113.216 168.977 114.618 168.874L114.889 168.853L114.895 168.579C114.92 167.46 114.93 166.342 114.93 165.226C114.93 164.11 114.917 162.994 114.895 161.878L114.889 161.621L114.636 161.586C113.256 161.397 111.876 161.228 110.495 161.085L110.435 161.682ZM122.463 172.01C122.235 173.204 121.713 174.622 120.99 175.557L121.228 175.741L121.01 175.534C119.856 176.766 118.3 177.373 116.623 177.494H116.621C116.235 177.524 115.846 177.542 115.464 177.542C114.224 177.544 113.048 177.35 112.212 176.816C111.379 176.28 110.837 175.443 110.802 173.96L110.503 173.965H110.804C110.804 173.36 110.894 172.76 111.145 172.214V172.216C111.396 171.685 111.71 171.375 112.081 171.181C112.453 170.987 112.894 170.911 113.389 170.914C114.335 170.911 115.434 171.194 116.443 171.302L116.767 171.337L116.774 171.01C116.834 168.181 116.814 165.347 116.842 162.528L116.541 162.525L116.393 162.787C118.117 163.76 120.041 164.387 121.246 165.843V165.841C122.21 167.007 122.634 168.654 122.634 170.259C122.631 170.864 122.571 171.453 122.463 172.01L123.053 172.126C123.168 171.531 123.231 170.904 123.231 170.267C123.228 168.559 122.789 166.783 121.705 165.463L121.703 165.46C120.34 163.835 118.325 163.206 116.684 162.266L116.242 162.014L116.237 162.525C116.212 165.352 116.23 168.183 116.169 171L116.47 171.007L116.501 170.707C115.554 170.612 114.44 170.319 113.384 170.317C112.834 170.317 112.29 170.398 111.8 170.652C111.311 170.904 110.889 171.335 110.596 171.967L110.593 171.969C110.297 172.617 110.197 173.307 110.197 173.97V173.975V173.977C110.219 175.607 110.887 176.705 111.888 177.33C112.884 177.957 114.162 178.146 115.462 178.149C115.863 178.149 116.267 178.129 116.666 178.098H116.664C118.453 177.97 120.169 177.31 121.444 175.95L121.454 175.94L121.464 175.927C122.272 174.874 122.804 173.395 123.05 172.126L122.463 172.01Z" fill="#A08D65"/>
<path d="M101.16 40.0154C99.9809 40.5242 98.8291 41.1187 97.6497 41.6502C98.2645 39.9045 98.6158 38.0706 98.2745 36.2342C95.6496 39.7433 93.2983 43.5546 89.7525 46.2223C85.5366 49.4921 81.376 53.641 75.7975 54.1775C74.3445 54.1775 72.0359 54.5856 71.5064 52.7392C71.8828 52.1472 72.2717 51.5602 72.6682 51.0035C73.7147 51.3461 74.7812 51.6963 75.8377 52.0137C75.933 50.4317 75.4512 48.9555 74.2467 47.8799C75.2906 46.5876 76.7712 46.7841 78.2141 47.1015C78.1037 45.0535 76.337 43.9375 75.007 42.6301C75.7498 41.1263 77.6394 41.1263 79.0046 40.5141C77.1777 38.3125 74.3295 37.6197 71.6569 37.0252C71.3558 36.3703 71.0371 35.7279 70.7109 35.0704C68.8639 33.7529 66.4373 33.4708 64.7786 31.8385C63.3708 30.4983 62.0609 29.0549 60.5803 27.813C59.2879 28.347 56.3619 28.3319 57.8525 30.5059C57.2578 31.2515 56.6555 31.9745 56.0884 32.7176C56.9592 33.5162 57.8325 34.3071 58.7283 35.0981C59.2955 38.1412 59.6066 41.7888 62.776 43.3078C59.8977 45.0535 57.3431 47.4869 56.0508 50.666C55.7873 51.9683 54.4748 51.9784 53.4384 52.0867C52.6078 49.0336 52.259 45.8873 51.6818 42.7914C51.3732 41.494 50.8512 40.0128 49.5488 39.4057C45.2652 37.2746 40.294 37.0832 35.6892 38.1789C36.5374 39.4057 37.4082 40.6124 38.2764 41.8215C40.6052 39.0682 44.6278 39.7508 47.3405 41.5343C47.8223 42.4588 48.3618 43.3531 48.9164 44.2373C48.9064 46.5221 48.4848 48.7389 47.8524 50.9279C46.1084 49.6306 44.6805 47.9655 43.0042 46.5901C40.1535 45.7714 37.0593 45.1366 34.1057 45.7135C32.314 46.5297 30.6252 47.565 28.7581 48.1897C29.3704 49.1142 29.9827 50.0412 30.5599 50.9884C32.7381 48.7968 35.9953 47.8446 39.0318 48.5172C40.4923 48.8925 42.1259 49.681 42.4396 51.3486C42.9565 54.2506 43.0343 57.2483 43.7771 60.0999C41.3982 59.9462 39.0694 59.4701 36.964 58.3567C32.2387 55.9056 27.5461 52.9533 24.3967 48.5348C21.7167 45.0787 20.1708 40.9373 17.8019 37.2721C14.8308 39.7383 16.7756 44.0232 17.945 46.968C16.9738 46.4717 16.0127 45.9931 15.0215 45.5573C15.566 48.7691 18.0579 51.0111 20.1633 53.2908C19.4456 53.6435 18.7555 53.9987 18.0604 54.3539C18.6326 55.5328 19.3126 56.6613 20.2185 57.6413C19.5861 57.9108 18.9839 58.2232 18.3816 58.5406C19.9651 60.6767 21.9274 62.5283 24.2838 63.7827C23.7192 64.0271 22.5749 64.5334 22.0002 64.7853C25.2474 67.0223 29.0492 68.1558 32.7632 69.3499C32.4069 69.9696 32.0856 70.5893 31.7368 71.2216C32.9439 71.9823 34.3968 71.9219 35.7469 72.0881C36.1635 74.4183 38.8235 74.1109 40.56 73.7709C40.3317 74.3528 40.1158 74.9296 39.88 75.5115C42.417 75.5115 44.8687 74.8818 47.21 73.9573C49.5388 78.8291 53.5212 83.4693 58.8714 84.9404C58.1537 87.137 57.2779 89.4722 57.8826 91.825C58.909 96.5407 62.8062 99.7475 65.6644 103.37C66.3921 105.242 65.0345 106.922 64.5728 108.655C64.2717 110.345 64.0458 112.061 63.7346 113.743C64.2591 115.131 64.7986 116.527 65.283 117.925C66.347 118.658 67.421 119.384 68.5452 120.079C68.6782 119.064 68.7987 118.059 68.9041 117.048C68.347 116.058 67.4586 115.31 66.8012 114.378C66.3846 110.197 69.14 106.632 71.3934 103.403C71.4988 106.972 71.4236 110.585 72.2065 114.086C73.3207 115.162 74.056 116.524 74.746 117.875C75.4512 116.985 76.1513 116.096 76.859 115.187C76.1338 114.547 75.4161 113.917 74.6883 113.298C74.4524 111.071 74.0936 108.814 74.4148 106.592C74.9317 105.514 75.7523 104.647 76.4424 103.69C75.4713 101.949 74.6156 100.088 74.332 98.0773C73.3508 93.3566 78.3295 90.0088 77.9606 85.3434C77.7348 83.2274 77.2831 81.1542 77.1702 79.0483C78.2643 79.0181 79.3785 79.0105 80.4826 79.0105C80.7285 79.3682 81.2104 80.0937 81.4563 80.4388C81.2455 82.1241 80.7762 83.7464 80.465 85.4115C80.4926 89.0263 81.5015 93.0568 84.8214 95.0141C86.3497 94.0821 87.8905 93.1853 89.4087 92.2407C88.2644 90.0944 86.7085 88.2026 85.7098 85.9808C84.9921 82.9604 86.9519 79.2473 84.2618 76.829C81.2078 75.5745 78.0836 76.4411 75.0547 77.2547C73.6243 76.7056 73.135 75.0077 72.1538 73.9371C70.756 71.8488 68.3194 70.7832 66.9191 68.7151C70.2291 69.3826 72.5302 73.7507 76.1614 72.5138C75.662 71.874 75.1701 71.2064 74.7009 70.5187C77.258 70.5767 80.041 71.0528 82.3321 69.6572C82.051 69.3171 81.4462 68.6194 81.1426 68.2793L81.4764 67.8208C83.8026 67.5739 86.1063 67.0374 88.1841 65.9214C87.3258 65.3496 86.4375 64.7904 85.5316 64.2866C87.7123 63.3671 90.3522 62.8759 91.7199 60.7372C91.0599 60.6138 89.7274 60.3619 89.0699 60.2334C91.6245 58.8857 94.3247 57.674 96.2419 55.4245C94.9846 54.9685 93.7324 54.5 92.4576 54.0894C95.3811 51.8726 98.5606 49.4669 99.8529 45.8797C99.0625 46.0536 98.2795 46.2425 97.4865 46.439C99.2356 44.6353 100.558 42.4714 101.16 40.0154ZM70.4624 94.8076C72.8665 93.2256 73.9982 90.3791 76.2341 88.6837C74.7511 91.9358 71.933 94.1577 69.3959 96.5281C68.49 98.9061 70.8489 100.554 71.6845 102.523C70.1688 101.486 69.273 99.8281 68.4047 98.2386C68.1889 98.3595 67.7347 98.6013 67.5063 98.7197C68.7234 97.571 68.9041 95.6741 70.4624 94.8076ZM67.8677 38.3905C66.7936 39.247 65.7347 37.3728 66.7936 36.7078C67.8577 35.874 68.9518 37.7255 67.8677 38.3905Z" fill="#61061D"/>
<path d="M11.0764 151.116L11.3374 148.814C11.4077 148.169 11.5005 147.023 11.5708 146.28L11.6134 146.277C11.7464 147.008 11.9422 148.094 12.0827 148.756L12.5419 151.038L11.0764 151.116ZM12.8104 152.693L13.3851 155.182L15.3224 155.079L12.7427 144.189L10.3512 144.315L8.70752 155.432L10.6448 155.326L10.9685 152.789L12.8104 152.693Z" fill="#24265B"/>
<path d="M18.3743 145.622C18.4822 145.579 18.683 145.577 18.8511 145.589C19.7445 145.685 20.0481 146.378 19.9854 147.307C19.9201 148.27 19.363 148.982 18.4948 148.922L18.1485 148.897L18.3743 145.622ZM15.7344 154.786L17.7294 154.928L18.033 150.542L18.3216 150.564C18.9916 150.612 19.2852 151.025 19.3705 152.406C19.4408 153.623 19.5914 154.746 19.6918 155.066L21.7771 155.212C21.624 154.791 21.4433 153.421 21.3304 152.184C21.2125 150.995 20.9139 150.27 20.2338 149.927L20.2363 149.897C21.3229 149.449 21.9252 148.426 22.008 147.254C22.0757 146.31 21.9427 145.564 21.363 144.917C20.7382 144.216 19.7746 143.987 18.6805 143.909C17.9201 143.854 17.1246 143.881 16.4897 143.967L15.7344 154.786Z" fill="#24265B"/>
<path d="M26.0905 146.408C26.2185 146.378 26.3565 146.398 26.4895 146.421C27.6815 146.6 28.0228 148.038 27.6891 150.268C27.2424 153.273 26.2637 154.149 25.3126 154.006C25.2047 153.991 25.0567 153.968 24.9713 153.923L26.0905 146.408ZM22.7505 155.273C23.1369 155.381 23.7442 155.537 24.3641 155.631C25.7794 155.845 26.8409 155.656 27.6263 155.049C28.6426 154.343 29.403 152.855 29.7317 150.655C30.0454 148.539 29.807 147.033 29.0592 146.063C28.5071 145.318 27.6665 144.862 26.3842 144.67C25.5987 144.552 24.8659 144.524 24.349 144.577L22.7505 155.273Z" fill="#24265B"/>
<path d="M32.1711 145.584L30.954 152.27C30.4597 154.988 31.0042 156.699 33.1197 157.084C35.072 157.442 36.3217 156.112 36.8261 153.331L38.0407 146.66L36.0758 146.3L34.796 153.338C34.4974 154.981 34.0105 155.338 33.4409 155.233C32.929 155.139 32.5676 154.578 32.8587 152.986L34.1385 145.945L32.1711 145.584Z" fill="#24265B"/>
<path d="M39.3503 146.993L38.2135 153.693C37.7518 156.417 38.3139 158.119 40.4344 158.482C42.3892 158.817 43.6239 157.467 44.0956 154.681L45.2299 147.998L43.2625 147.66L42.0655 154.716C41.7845 156.359 41.3052 156.726 40.7355 156.628C40.2236 156.54 39.8572 155.978 40.1257 154.386L41.3227 147.33L39.3503 146.993Z" fill="#24265B"/>
<path d="M44.6079 158.827C44.9015 159.094 45.6569 159.465 46.4674 159.608C48.4499 159.963 50.0484 158.905 50.4022 156.928C50.603 155.784 50.3018 154.605 49.1174 153.497C48.1487 152.593 47.9078 152.202 48.0207 151.557C48.1236 150.978 48.6255 150.504 49.4662 150.655C50.0358 150.756 50.4398 151.011 50.6933 151.255L51.3307 149.494C51.0647 149.25 50.4674 148.942 49.81 148.824C47.6895 148.444 46.352 149.701 46.0458 151.436C45.8702 152.416 46.1939 153.656 47.4185 154.802C48.1663 155.55 48.5502 156.016 48.4097 156.805C48.2842 157.512 47.7422 157.946 46.8137 157.782C46.2441 157.679 45.5816 157.379 45.2177 157.067L44.6079 158.827Z" fill="#24265B"/>
<path d="M56.3846 157.212L57.0345 154.986C57.2152 154.366 57.5038 153.247 57.697 152.532L57.7422 152.537C57.7472 153.278 57.7522 154.381 57.7748 155.059L57.8376 157.386L56.3846 157.212ZM57.82 159.064L57.9605 161.613L59.8802 161.848L59.2077 150.675L56.8313 150.386L53.3105 161.051L55.2328 161.286L55.9856 158.842L57.82 159.064Z" fill="#24265B"/>
<path d="M63.6168 152.605C63.7398 152.555 63.8778 152.555 64.0133 152.555C65.2179 152.545 65.78 153.915 65.79 156.17C65.8101 159.21 64.977 160.228 64.0159 160.233C63.9079 160.233 63.7599 160.236 63.667 160.203L63.6168 152.605ZM61.6821 161.881C62.0786 161.928 62.7034 161.989 63.3283 161.984C64.7611 161.976 65.7825 161.626 66.465 160.903C67.3584 160.049 67.8804 158.46 67.8703 156.238C67.8553 154.097 67.3885 152.648 66.4977 151.802C65.8377 151.154 64.9368 150.832 63.6394 150.842C62.8465 150.847 62.1162 150.933 61.6118 151.066L61.6821 161.881Z" fill="#24265B"/>
<path d="M72.2389 160.366C72.6028 160.522 73.4359 160.616 74.2515 160.485C76.2364 160.162 77.3933 158.631 77.0696 156.648C76.8839 155.502 76.2113 154.487 74.7283 153.834C73.5162 153.305 73.1599 153.016 73.0545 152.368C72.9616 151.789 73.2753 151.174 74.1185 151.038C74.6906 150.945 75.1574 151.051 75.4736 151.197L75.4936 149.323C75.1599 149.179 74.4974 149.088 73.8349 149.197C71.7119 149.547 70.8662 151.172 71.1498 152.915C71.3104 153.9 72.0231 154.958 73.5513 155.635C74.5049 156.091 75.0219 156.404 75.1473 157.195C75.2628 157.905 74.8939 158.495 73.9604 158.648C73.3882 158.741 72.668 158.678 72.2213 158.502L72.2389 160.366Z" fill="#24265B"/>
<path d="M103.587 151.134L103.921 148.839C104.016 148.199 104.142 147.056 104.234 146.318L104.28 146.315C104.39 147.051 104.546 148.139 104.666 148.809L105.05 151.104L103.587 151.134ZM105.268 152.767L105.763 155.27L107.697 155.23L105.474 144.265L103.08 144.315L101.083 155.369L103.017 155.328L103.424 152.804L105.268 152.767Z" fill="#24265B"/>
<path d="M80.3196 159.381L82.272 158.973L80.4451 150.129L82.2343 149.753L81.8353 147.819L76.3096 148.973L76.7111 150.907L78.4878 150.534L80.3196 159.381Z" fill="#24265B"/>
<path d="M87.7723 151.023L85.4762 151.517L84.9492 149.038L87.3658 148.519L86.9768 146.7L82.6079 147.637L84.899 158.404L89.4461 157.431L89.0597 155.608L86.4649 156.164L85.8451 153.257L88.1437 152.764L87.7723 151.023Z" fill="#24265B"/>
<path d="M90.5706 157.22L95.1303 156.376L94.8015 154.59L92.2068 155.071L90.543 146.028L88.5781 146.391L90.5706 157.22Z" fill="#24265B"/>
<path d="M96.1138 156.099L100.714 155.525L100.49 153.726L97.8729 154.053L96.7412 144.924L94.7612 145.171L96.1138 156.099Z" fill="#24265B"/>
<path d="M108.478 155.291C108.774 155.553 109.537 155.905 110.35 156.036C112.338 156.351 113.916 155.26 114.227 153.275C114.408 152.129 114.082 150.953 112.88 149.87C111.893 148.985 111.645 148.597 111.745 147.95C111.836 147.371 112.328 146.887 113.173 147.021C113.745 147.111 114.154 147.358 114.41 147.595L115.013 145.821C114.744 145.58 114.139 145.287 113.479 145.182C111.354 144.844 110.041 146.126 109.768 147.867C109.617 148.852 109.961 150.081 111.203 151.205C111.969 151.938 112.36 152.396 112.235 153.187C112.122 153.895 111.59 154.341 110.656 154.195C110.087 154.104 109.422 153.814 109.05 153.51L108.478 155.291Z" fill="#24265B"/>
<path d="M124.229 16.3489C107.577 27.2993 73.5915 21.1603 65.9503 3.97269C65.2451 2.32774 65.0469 1.40576 65.0469 1.40576C64.9038 2.0456 64.3643 3.27995 64.2163 3.60239C55.4433 21.4752 20.788 27.6973 0.777733 15.6259C-2.57989 82.0487 23.2522 119.132 64.2915 140.975C104.576 119.804 127.231 80.9504 124.229 16.3489ZM64.9992 135.236C27.5509 115.784 3.97726 82.3913 5.78656 23.5207C27.6638 32.6724 55.3178 22.8103 64.9992 11.341C75.3381 23.1982 98.3471 31.7933 119.246 24.221C121.163 81.3156 99.8477 115.053 64.9992 135.236Z" fill="#24245B"/>
<path d="M124.064 16.0968C118.455 19.7873 110.814 21.5305 102.882 21.528C95.2153 21.528 87.278 19.9032 80.6481 16.8752C74.0156 13.8473 68.6982 9.42131 66.2264 3.84914L65.9528 3.97257L66.2289 3.85417C65.8801 3.04303 65.6567 2.41075 65.5237 1.98251C65.456 1.76839 65.4108 1.60717 65.3832 1.49885L65.3531 1.37793L65.3455 1.34266L65.0544 0L64.7558 1.34014C64.6303 1.91953 64.0883 3.17151 63.9453 3.47631L64.2163 3.60227L63.9478 3.46876C61.1523 9.16941 55.6566 13.6987 48.8084 16.7971C41.9626 19.8956 33.7718 21.5607 25.6212 21.5607C16.7478 21.5607 7.92464 19.5858 0.930849 15.3663L0.501736 15.1068L0.476641 15.6081C0.280905 19.4925 0.185547 23.2711 0.185547 26.954C0.185547 56.6815 6.48674 80.1038 17.6412 98.6694C28.7931 117.237 44.7933 130.936 64.1536 141.239L64.2941 141.312L64.4346 141.239C83.431 131.259 98.5328 117.338 108.872 98.6568C119.216 79.9728 124.797 56.538 124.797 27.5233C124.797 23.8808 124.709 20.1525 124.531 16.3336L123.931 16.3613C124.109 20.1702 124.197 23.8908 124.197 27.5233C124.197 56.4599 118.631 79.789 108.347 98.3646C98.0611 116.94 83.0621 130.77 64.151 140.708L64.2916 140.975L64.4321 140.708C45.1446 130.442 29.2423 116.817 18.1531 98.3595C7.06391 79.8998 0.785302 56.5984 0.785302 26.954C0.785302 23.2812 0.88066 19.5102 1.0764 15.6409L0.777774 15.6258L0.622189 15.8852C7.73644 20.1752 16.66 22.1628 25.6212 22.1653C33.8521 22.1653 42.1182 20.4851 49.0543 17.3488C55.9879 14.2101 61.6015 9.60772 64.4848 3.7383L64.4873 3.73578L64.4898 3.73326C64.6454 3.3957 65.1824 2.17396 65.343 1.47365L65.0494 1.40816L64.7558 1.47114C64.7608 1.48877 64.9641 2.4309 65.6768 4.09349V4.096L65.6793 4.09852C68.2414 9.85711 73.6819 14.3587 80.4022 17.4269C87.1224 20.4951 95.135 22.1325 102.884 22.135C110.904 22.1325 118.648 20.3818 124.395 16.6057L124.064 16.0968ZM65.1373 134.969C47.1245 125.611 32.3465 113.036 22.0628 95.9437C11.7816 78.8493 5.98987 57.2332 5.98987 29.7754C5.98987 27.7274 6.02249 25.6466 6.08774 23.5306L5.78912 23.5205L5.67368 23.7976C11.7415 26.3343 18.2434 27.4201 24.6801 27.4201C33.152 27.4201 41.5134 25.5459 48.6452 22.6263C55.7746 19.7041 61.6767 15.7442 65.2301 11.5373L65.0017 11.3434L64.7759 11.5424C72.4849 20.3767 87.0923 27.3747 102.686 27.3797C108.207 27.3797 113.85 26.5006 119.351 24.5055L119.248 24.2234L118.947 24.2309C119.027 26.6014 119.065 28.934 119.065 31.2238C119.065 57.6212 113.833 78.7335 104.445 95.6566C95.0573 112.58 81.5113 125.324 64.8512 134.974L65.1498 135.496C81.8877 125.802 95.524 112.978 104.97 95.9488C114.415 78.9199 119.665 57.6967 119.665 31.2213C119.665 28.9239 119.625 26.5862 119.544 24.2082L119.532 23.7951L119.145 23.9362C113.715 25.9036 108.141 26.7727 102.683 26.7727C87.2705 26.7777 72.7885 19.82 65.2251 11.1418L64.9967 10.8799L64.7709 11.1469C61.3104 15.2504 55.4784 19.1777 48.4144 22.067C41.3528 24.9589 33.0617 26.818 24.6776 26.818C18.3062 26.818 11.8845 25.7449 5.90204 23.2409L5.50053 23.0721L5.48798 23.5079C5.42274 25.629 5.39012 27.7148 5.39012 29.7703C5.39012 57.3113 11.202 79.0483 21.5509 96.2485C31.8998 113.449 46.7757 126.102 64.8637 135.498L65.1373 134.969Z" fill="#A08D65"/>
</g>
<defs>
<clipPath id="clip0_317_1091">
<rect width="125" height="180" fill="white"/>
</clipPath>
</defs>
</svg>
