<svg width="334" height="528" viewBox="0 0 334 528" fill="none" xmlns="http://www.w3.org/2000/svg">
<path fill-rule="evenodd" clip-rule="evenodd" d="M-52.5997 471.311C-49.1108 478.158 -42.2216 482.618 -34.5271 483.01L47.9655 487.215C55.66 487.607 62.9904 483.872 67.196 477.416L112.283 408.207C116.488 401.752 116.929 393.557 113.44 386.709L76.0344 313.296C72.5453 306.448 65.6562 301.988 57.9616 301.596L-24.531 297.392C-32.2255 297 -39.556 300.735 -43.7615 307.19L-88.8482 376.399C-93.0536 382.855 -93.4949 391.05 -90.0058 397.897L-52.5997 471.311Z" fill="black" fill-opacity="0.12"/>
<path fill-rule="evenodd" clip-rule="evenodd" d="M-38.023 262.342C-34.534 269.19 -27.6448 273.65 -19.9503 274.042L62.5423 278.246C70.2368 278.638 77.5672 274.903 81.7728 268.447L126.859 199.238C131.065 192.783 131.506 184.588 128.017 177.74L90.6111 104.327C87.1221 97.4791 80.233 93.0194 72.5383 92.6271L-9.95427 88.4229C-17.6488 88.0309 -24.9792 91.7659 -29.1847 98.2213L-74.2714 167.43C-78.4768 173.886 -78.9181 182.081 -75.4291 188.929L-38.023 262.342Z" fill="black" fill-opacity="0.12"/>
<path fill-rule="evenodd" clip-rule="evenodd" d="M138.598 373.891C142.087 380.738 148.976 385.198 156.671 385.59L239.163 389.794C246.858 390.186 254.188 386.451 258.394 379.996L303.48 310.787C307.686 304.332 308.127 296.137 304.638 289.289L267.232 215.876C263.743 209.028 256.854 204.568 249.159 204.176L166.667 199.972C158.972 199.58 151.642 203.315 147.436 209.77L102.35 278.979C98.1442 285.435 97.7028 293.63 101.192 300.477L138.598 373.891Z" fill="black" fill-opacity="0.12"/>
<path fill-rule="evenodd" clip-rule="evenodd" d="M44.2459 221.734C44.0776 224.946 45.6399 228.004 48.3445 229.756L77.34 248.539C80.0445 250.291 83.4803 250.471 86.3532 249.011L117.153 233.362C120.026 231.902 121.899 229.024 122.068 225.813L123.872 191.38C124.041 188.168 122.478 185.111 119.774 183.358L90.7783 164.575C88.0737 162.823 84.638 162.643 81.7651 164.103L50.965 179.752C48.0921 181.212 46.2187 184.09 46.0504 187.301L44.2459 221.734Z" fill="url(#paint0_linear_17_30)"/>
<defs>
<linearGradient id="paint0_linear_17_30" x1="34.2367" y1="226.114" x2="132.653" y2="295.347" gradientUnits="userSpaceOnUse">
<stop stop-color="#CF8A23"/>
<stop offset="1" stop-color="#E0C76D"/>
</linearGradient>
</defs>
</svg>
