<svg width="180" height="45" viewBox="0 0 180 45" fill="none" xmlns="http://www.w3.org/2000/svg">
<path d="M33.4157 25.0975C31.2484 25.2573 28.2662 25.3993 26.1816 26.0207C22.1955 26.9913 17.8373 29.6545 17.6188 34.2767C17.3826 37.366 18.9711 40.621 21.9002 41.8402C24.6344 43.012 27.9355 42.5504 29.967 40.3784C30.9059 39.3723 31.3488 37.8158 30.9059 36.5315C30.8823 36.4664 30.8291 36.4132 30.7583 36.3954C30.652 36.3717 30.5398 36.4428 30.5162 36.5493C29.8311 39.7155 25.7092 40.4731 23.5124 38.9521C21.9474 37.869 21.4041 35.8687 21.5931 34.4306C21.8234 32.6255 22.6265 31.2288 24.1856 30.2227C26.8371 28.4886 30.5339 28.0093 33.6401 27.5654C34.8507 27.376 36.0849 27.1807 37.331 26.9795V24.8193C36.0082 24.9199 34.6972 25.0087 33.4157 25.0975Z" fill="white"/>
<path d="M21.2942 13.4569C19.0324 12.8473 15.0935 11.6281 15.1644 8.75187C15.1998 7.2368 15.9911 5.82826 17.8277 5.43174C19.2509 5.12399 20.9221 5.60337 21.5068 7.16578C21.5894 7.41435 21.9615 7.45577 22.0855 7.21904C23.491 4.56767 20.7863 1.76243 18.2765 1.19428C13.4282 -0.0899804 9.0759 3.76871 9.34165 8.75778C9.75503 15.8301 17.9458 17.5937 23.6622 17.7713C28.0558 18.079 32.7802 18.3986 37.3273 18.6294V17.1676C32.0243 15.8478 26.5263 14.5932 21.2942 13.4569Z" fill="white"/>
<path d="M21.899 19.8314C21.0191 19.8077 16.6432 19.6716 15.8518 19.6597C12.6511 19.4999 9.67479 19.5887 6.54493 20.725C4.54891 21.4411 2.61194 22.6721 1.37771 24.5778C-1.32696 28.6791 0.0312789 34.8755 4.74379 36.7871C6.90516 37.6867 9.23189 37.6216 11.1925 36.6628C13.0822 35.7988 14.6058 33.5202 13.8735 31.4962C13.7909 31.2358 13.4011 31.2121 13.2948 31.4666C11.8303 34.621 6.3973 33.6564 5.85991 30.0285C5.65913 28.6673 6.01345 27.2943 7.06461 26.2586C8.95433 24.4298 11.9897 23.9031 14.6176 23.6723C16.2357 23.6131 20.1746 23.4888 21.8517 23.4178C26.8772 23.2403 32.0858 23.045 37.3357 22.8319V20.3226C32.1035 20.145 26.9126 19.9852 21.899 19.8314Z" fill="white"/>
<path d="M42.8633 43.8001V43.3385C42.9696 43.4332 43.2058 43.5515 43.3652 43.5515C43.7077 43.5515 43.8436 43.3976 43.8436 42.865V37.5859H44.4932V42.9419C44.4932 43.5752 44.192 44.0546 43.4893 44.0546C43.1645 44.0427 42.946 43.8889 42.8633 43.8001Z" fill="white"/>
<path d="M45.2324 41.6943H45.9765V42.44H45.2324V41.6943Z" fill="white"/>
<path d="M47.7109 37.5801H48.3428L50.2207 41.6163L52.0987 37.5801H52.6951V42.4389H52.075V39.1247C52.075 39.0005 52.0927 38.7282 52.0927 38.7223C52.075 38.746 51.9687 39.0123 51.9215 39.1247L50.4097 42.4389H49.9727L48.4609 39.1247C48.4019 39.0123 48.3015 38.746 48.2897 38.7223C48.2897 38.7282 48.3074 39.0064 48.3074 39.1247V42.4389H47.7168V37.5801H47.7109Z" fill="white"/>
<path d="M55.9585 42.4386L55.9289 42.0007C55.6927 42.3676 55.2321 42.5452 54.8601 42.5452C54.1219 42.5452 53.5195 41.9356 53.5195 41.0538C53.5195 40.1897 54.1278 39.5742 54.8601 39.5742C55.2144 39.5742 55.6927 39.7518 55.9289 40.1187L55.9585 39.6807H56.484V42.4446H55.9585V42.4386ZM54.1101 41.0656C54.1101 41.7462 54.553 42.0954 55.0018 42.0954C55.4152 42.0954 55.9289 41.7876 55.9289 41.0656C55.9289 40.3377 55.4093 40.0299 55.0018 40.0299C54.553 40.024 54.1101 40.385 54.1101 41.0656Z" fill="white"/>
<path d="M58.0105 40.8349V42.4387H57.4199V39.6749H57.9455L57.9868 40.1543C58.1699 39.8465 58.5951 39.5684 59.0616 39.5684V40.1661C58.536 40.0773 58.0105 40.3732 58.0105 40.8349Z" fill="white"/>
<path d="M60.6906 40.0659V42.4391H60.1V40.0659H59.5449V39.6753H60.1V38.7461H60.6906V39.6753H61.2398V40.0659H60.6906Z" fill="white"/>
<path d="M61.957 38.7399V38.0889H62.5476V38.7399H61.957ZM61.957 42.4388V39.675H62.5476V42.4388H61.957Z" fill="white"/>
<path d="M65.6045 42.4387V40.8112C65.6045 40.2845 65.386 40.0477 64.9667 40.0477C64.571 40.0477 64.0691 40.3969 64.0691 40.8585V42.4387H63.4785V39.6749H64.0041L64.0454 40.1543C64.2285 39.8465 64.7009 39.5684 65.1616 39.5684C65.9056 39.5684 66.195 40.0892 66.195 40.7757V42.4387H65.6045Z" fill="white"/>
<path d="M68.4922 40.1959V37.5801H69.1536V40.2019C69.1536 41.4565 69.7205 42.0069 70.6063 42.0069C71.498 42.0069 72.059 41.4565 72.059 40.2019V37.5801H72.6909V40.1959C72.6909 41.8412 71.8405 42.5751 70.5886 42.5751C69.3367 42.5751 68.4922 41.8412 68.4922 40.1959Z" fill="white"/>
<path d="M73.6719 42.4389V37.5801H74.2624V42.4389H73.6719Z" fill="white"/>
<path d="M75.7917 40.8349V42.4387H75.2012V39.6749H75.7268L75.7681 40.1543C75.9512 39.8465 76.3763 39.5684 76.8429 39.5684V40.1661C76.3173 40.0773 75.7917 40.3732 75.7917 40.8349Z" fill="white"/>
<path d="M77.4688 38.7399V38.0889H78.0593V38.7399H77.4688ZM77.4688 42.4388V39.675H78.0593V42.4388H77.4688Z" fill="white"/>
<path d="M80.3319 42.5273C79.4756 42.5273 78.8438 41.9177 78.8438 41.0537C78.8438 40.2014 79.4756 39.5859 80.3319 39.5859C80.704 39.5859 80.9874 39.6806 81.2945 39.8996V40.3908C81.0287 40.1423 80.7099 40.0416 80.3792 40.0416C79.8359 40.0416 79.4343 40.4322 79.4343 41.0477C79.4343 41.6692 79.8359 42.0598 80.3792 42.0598C80.7099 42.0598 81.0287 41.9651 81.2945 41.7106V42.2018C80.9874 42.4326 80.704 42.5273 80.3319 42.5273Z" fill="white"/>
<path d="M84.1455 42.4389V40.8114C84.1455 40.2847 83.927 40.048 83.5077 40.048C83.112 40.048 82.6101 40.3972 82.6101 40.8588V42.4389H82.0195V37.5801H82.6101V40.1545C82.7931 39.8468 83.2419 39.5686 83.7026 39.5686C84.4466 39.5686 84.736 40.0894 84.736 40.7759V42.4389H84.1455Z" fill="white"/>
<path d="M85.3828 43.2686C85.6604 43.1147 85.7844 42.7596 85.7844 42.44H85.436V41.6943H86.18V42.3513C86.18 42.9016 85.932 43.3396 85.5009 43.4698L85.3828 43.2686Z" fill="white"/>
<path d="M87.9219 37.5801H89.4278C91.3116 37.5801 92.1265 38.6749 92.1265 40.0125C92.1265 41.35 91.3116 42.4449 89.4278 42.4449H87.9219V37.5801ZM89.4337 41.8708C91.0104 41.8708 91.4533 40.9771 91.4533 40.0066C91.4533 39.036 91.0104 38.1423 89.4337 38.1423H88.5715V41.8708H89.4337Z" fill="white"/>
<path d="M92.3926 41.6943H93.1367V42.44H92.3926V41.6943Z" fill="white"/>
<path d="M93.4043 40.0119C93.4043 38.5205 94.4968 37.4434 95.985 37.4434C97.4613 37.4434 98.5538 38.5205 98.5538 40.0119C98.5538 41.5033 97.4613 42.5804 95.985 42.5804C94.4968 42.5804 93.4043 41.4973 93.4043 40.0119ZM97.8806 40.0119C97.8806 38.8282 97.0893 37.9878 95.9791 37.9878C94.8629 37.9878 94.0716 38.8282 94.0716 40.0119C94.0716 41.1837 94.8629 42.0359 95.9791 42.0359C97.0893 42.0359 97.8806 41.1837 97.8806 40.0119Z" fill="white"/>
<path d="M98.8184 41.6943H99.5624V42.44H98.8184V41.6943Z" fill="white"/>
<path d="M100.299 43.2686C100.576 43.1147 100.7 42.7596 100.7 42.44H100.352V41.6943H101.096V42.3513C101.096 42.9016 100.848 43.3396 100.417 43.4698L100.299 43.2686Z" fill="white"/>
<path d="M102.834 37.5801H105.769V38.1246H103.484V39.6041H105.367V40.1486H103.484V42.4389H102.834V37.5801Z" fill="white"/>
<path d="M105.586 41.6943H106.33V42.44H105.586V41.6943Z" fill="white"/>
<path d="M106.594 40.0119C106.594 38.5205 107.686 37.4434 109.174 37.4434C110.651 37.4434 111.743 38.5205 111.743 40.0119C111.743 41.5033 110.651 42.5804 109.174 42.5804C107.686 42.5804 106.594 41.4973 106.594 40.0119ZM111.07 40.0119C111.07 38.8282 110.279 37.9878 109.169 37.9878C108.052 37.9878 107.261 38.8282 107.261 40.0119C107.261 41.1837 108.052 42.0359 109.169 42.0359C110.279 42.0359 111.07 41.1837 111.07 40.0119Z" fill="white"/>
<path d="M112.01 41.6943H112.754V42.44H112.01V41.6943Z" fill="white"/>
<path d="M113.021 40.0115C113.021 38.4373 114.203 37.4785 115.602 37.4785C116.216 37.4785 116.878 37.6797 117.285 37.9875V38.6622C116.89 38.3071 116.358 38.023 115.602 38.023C114.486 38.023 113.695 38.7983 113.695 40.0174C113.695 41.2248 114.486 42.0119 115.602 42.0119C116.352 42.0119 116.89 41.7278 117.285 41.3727V42.0474C116.884 42.3551 116.216 42.5564 115.602 42.5564C114.203 42.5445 113.021 41.5799 113.021 40.0115Z" fill="white"/>
<path d="M117.826 41.6943H118.57V42.44H117.826V41.6943Z" fill="white"/>
<path d="M118.836 40.0119C118.836 38.5205 119.928 37.4434 121.417 37.4434C122.893 37.4434 123.985 38.5205 123.985 40.0119C123.985 41.5033 122.893 42.5804 121.417 42.5804C119.928 42.5804 118.836 41.4973 118.836 40.0119ZM123.318 40.0119C123.318 38.8282 122.527 37.9878 121.417 37.9878C120.3 37.9878 119.509 38.8282 119.509 40.0119C119.509 41.1837 120.3 42.0359 121.417 42.0359C122.521 42.0359 123.318 41.1837 123.318 40.0119Z" fill="white"/>
<path d="M124.25 41.6943H124.994V42.44H124.25V41.6943Z" fill="white"/>
<path d="M125.26 40.0119C125.26 38.5205 126.352 37.4434 127.84 37.4434C129.317 37.4434 130.409 38.5205 130.409 40.0119C130.409 41.5033 129.317 42.5804 127.84 42.5804C126.352 42.5804 125.26 41.4973 125.26 40.0119ZM129.742 40.0119C129.742 38.8282 128.951 37.9878 127.84 37.9878C126.724 37.9878 125.933 38.8282 125.933 40.0119C125.933 41.1837 126.724 42.0359 127.84 42.0359C128.951 42.0359 129.742 41.1837 129.742 40.0119Z" fill="white"/>
<path d="M44.6329 1.59961L48.4773 10.2402L52.3217 1.59961H53.302V11.4416H52.4044V4.74811C52.4044 3.97874 52.4221 3.1561 52.4221 3.13835C52.4044 3.17386 52.0796 4.03792 51.7843 4.7126L48.808 11.4357H48.0875L45.1112 4.7126C44.7982 4.00833 44.503 3.20345 44.4734 3.13835C44.4734 3.1561 44.4911 3.96099 44.4911 4.74811V11.4416H43.623V1.59961H44.6329Z" fill="white"/>
<path d="M59.7707 1.59961V11.4416H58.873V1.59961H59.7707Z" fill="white"/>
<path d="M69.8849 1.38574C71.0482 1.38574 72.3238 1.78227 73.1092 2.36817V3.32101C72.3061 2.69959 71.2785 2.22022 69.8849 2.22022C67.5109 2.22022 65.7924 3.94242 65.7924 6.51685C65.7924 9.09128 67.5109 10.8135 69.8849 10.8135C71.2785 10.8135 72.3061 10.34 73.1092 9.7127V10.6655C72.3238 11.2574 71.0482 11.648 69.8849 11.648C67.1507 11.648 64.8594 9.69494 64.8594 6.51685C64.8594 3.33876 67.1507 1.38574 69.8849 1.38574Z" fill="white"/>
<path d="M79.1808 1.59961V5.86074H85.039V1.59961H85.9366V11.4416H85.039V6.67154H79.1808V11.4416H78.2832V1.59961H79.1808Z" fill="white"/>
<path d="M92.4093 1.59961V11.4416H91.5117V1.59961H92.4093Z" fill="white"/>
<path d="M105.252 7.51704H103.238V6.71215H106.149V10.6655C105.329 11.0443 104.236 11.6835 102.518 11.6835C99.7835 11.6835 97.4922 9.70086 97.4922 6.51685C97.4922 3.33284 99.7835 1.38574 102.518 1.38574C103.681 1.38574 104.957 1.78227 105.742 2.36817V3.32101C104.939 2.69959 103.911 2.22022 102.518 2.22022C100.144 2.22022 98.4252 3.94242 98.4252 6.51685C98.4252 9.09128 100.144 10.849 102.518 10.849C103.616 10.849 104.531 10.6182 105.252 10.1743V7.51704Z" fill="white"/>
<path d="M111.455 11.4358H110.521L114.578 1.59375H115.317L119.374 11.4358H118.393L117.212 8.58319H112.612L111.455 11.4358ZM114.909 2.94311L112.943 7.77831H116.888L114.909 2.94311Z" fill="white"/>
<path d="M124.708 1.59961L130.649 9.61882V1.59961H131.499V11.4416H130.879L124.938 3.42243V11.4416H124.088V1.59961H124.708Z" fill="white"/>
<path d="M143.23 35.165H144.193V38.1833H148.179V35.165H149.142V42.403H148.179V38.9882H144.193V42.403H143.23V35.165Z" fill="white"/>
<path d="M150.783 35.165H155.153V35.9758H151.746V38.1833H154.551V38.9941H151.746V41.5982H155.153V42.409H150.783V35.165Z" fill="white"/>
<path d="M158.971 35.165H159.597L162.704 42.403H161.717L160.849 40.379H157.672L156.804 42.403H155.865L158.971 35.165ZM160.525 39.5919L159.261 36.6091L157.997 39.5919H160.525Z" fill="white"/>
<path d="M163.646 35.165H164.609V41.5982H168.016V42.409H163.646V35.165Z" fill="white"/>
<path d="M169.581 35.9758H167.018V35.165H173.106V35.9758H170.543V42.409H169.581V35.9758Z" fill="white"/>
<path d="M174.088 35.165H175.05V38.1833H179.037V35.165H179.999V42.403H179.037V38.9882H175.05V42.403H174.088V35.165Z" fill="white"/>
<path d="M43.5391 15.4502H44.7201L53.8676 26.9257V15.4502H55.7396V30.8554H54.5585L45.4111 19.3799V30.8554H43.5391V15.4502Z" fill="white"/>
<path d="M57.8359 23.1561C57.8359 18.4334 61.2965 15.0186 66.009 15.0186C70.6979 15.0186 74.1525 18.4334 74.1525 23.1561C74.1525 27.8789 70.692 31.2937 66.009 31.2937C61.2965 31.2937 57.8359 27.8789 57.8359 23.1561ZM72.0266 23.1561C72.0266 19.4099 69.5168 16.7348 66.009 16.7348C62.4717 16.7348 59.9619 19.404 59.9619 23.1561C59.9619 26.8787 62.4717 29.5774 66.009 29.5774C69.5168 29.5715 72.0266 26.8787 72.0266 23.1561Z" fill="white"/>
<path d="M75.4648 29.3169L75.9255 27.4172C76.8467 28.4174 78.3821 29.5241 80.5907 29.5241C82.4096 29.5241 83.821 28.4943 83.821 26.8313C83.821 25.2629 83.0533 24.393 80.1832 23.6236C77.2896 22.8542 75.9077 21.2859 75.9077 19.1316C75.9077 16.9478 77.703 15.125 80.8506 15.125C82.6163 15.125 84.1812 15.8411 85.0257 16.5395L84.5651 18.1551C83.5375 17.4094 82.1084 16.7939 80.8506 16.7939C78.9313 16.7939 77.827 17.6935 77.827 19.1316C77.827 20.2384 78.5179 21.1616 80.9273 21.8008C84.2344 22.6767 85.7461 24.1089 85.7461 26.6537C85.7461 29.6602 83.2363 31.1989 80.5966 31.1989C78.075 31.193 76.3093 30.1869 75.4648 29.3169Z" fill="white"/>
<path d="M87.8359 15.4502H97.1369V17.1724H89.8851V21.8715H95.8555V23.5937H89.8851V29.1391H97.1369V30.8613H87.8359V15.4502Z" fill="white"/>
<path d="M115.401 31.2717C114.119 31.2717 112.968 30.8633 111.662 29.7034C110.794 30.7035 109.59 31.2717 107.972 31.2717C105.385 31.2717 102.846 29.8868 102.846 26.8567C102.846 24.9569 104.228 23.6963 105.893 22.6488C105.102 21.2876 104.535 20.0034 104.535 18.6954C104.535 16.5885 106.33 15.0498 108.657 15.0498C110.759 15.0498 112.271 16.3341 112.271 18.0799C112.271 20.4946 109.578 21.7256 107.558 22.9329C108.97 24.9096 110.428 26.6318 111.633 27.8628C112.194 26.9159 112.43 25.2706 112.454 23.1637H115.991V24.2704H113.534C113.405 26.1169 113.204 27.4781 112.483 28.6617C113.788 29.8691 114.662 30.2005 115.66 30.2005C116.174 30.2005 116.788 29.9933 117.273 29.3779L117.757 29.9934C117.09 30.887 116.221 31.2717 115.401 31.2717ZM106.513 23.5425C105.231 24.4125 104.233 25.389 104.233 26.904C104.233 28.9813 106.052 30.165 108.102 30.165C109.283 30.165 110.251 29.727 110.895 28.9044C109.69 27.703 107.995 25.6967 106.513 23.5425ZM108.663 16.0973C106.997 16.0973 105.893 17.2277 105.893 18.6658C105.893 19.8968 106.33 20.897 106.997 22.0037C108.993 20.7964 110.966 19.8495 110.966 18.074C110.966 16.8134 109.944 16.0973 108.663 16.0973Z" fill="white"/>
<path d="M121.855 29.3169L122.316 27.4172C123.237 28.4174 124.773 29.5241 126.981 29.5241C128.8 29.5241 130.212 28.4943 130.212 26.8313C130.212 25.2629 129.444 24.393 126.574 23.6236C123.68 22.8542 122.298 21.2859 122.298 19.1316C122.298 16.9478 124.094 15.125 127.241 15.125C129.007 15.125 130.572 15.8411 131.416 16.5395L130.956 18.1551C129.928 17.4094 128.499 16.7939 127.241 16.7939C125.322 16.7939 124.218 17.6935 124.218 19.1316C124.218 20.2384 124.909 21.1616 127.318 21.8008C130.625 22.6767 132.137 24.1089 132.137 26.6537C132.137 29.6602 129.627 31.1989 126.987 31.1989C124.472 31.193 122.7 30.1869 121.855 29.3169Z" fill="white"/>
<path d="M134.229 15.4502H136.278V30.8554H134.229V15.4502Z" fill="white"/>
<path d="M139.121 15.4502H140.302L149.45 26.9257V15.4502H151.322V30.8554H150.141L140.993 19.3799V30.8554H139.121V15.4502Z" fill="white"/>
<path d="M154.166 23.7476V15.4502H156.268V23.7712C156.268 27.7483 158.064 29.4942 160.88 29.4942C163.697 29.4942 165.493 27.7483 165.493 23.7712V15.4502H167.489V23.7416C167.489 28.9556 164.802 31.2874 160.827 31.2874C156.853 31.2933 154.166 28.9556 154.166 23.7476Z" fill="white"/>
<path d="M169.537 29.3169L169.998 27.4172C170.919 28.4174 172.46 29.5241 174.663 29.5241C176.482 29.5241 177.893 28.4943 177.893 26.8313C177.893 25.2629 177.126 24.393 174.256 23.6236C171.362 22.8542 169.98 21.2859 169.98 19.1316C169.98 16.9478 171.775 15.125 174.923 15.125C176.689 15.125 178.253 15.8411 179.098 16.5395L178.637 18.1551C177.616 17.4094 176.181 16.7939 174.923 16.7939C173.004 16.7939 171.899 17.6935 171.899 19.1316C171.899 20.2384 172.59 21.1616 175 21.8008C178.307 22.6767 179.818 24.1089 179.818 26.6537C179.818 29.6602 177.309 31.1989 174.669 31.1989C172.147 31.193 170.382 30.1869 169.537 29.3169Z" fill="white"/>
</svg>
