<svg width="460" height="90" viewBox="0 0 460 90" fill="none" xmlns="http://www.w3.org/2000/svg">
<g clip-path="url(#clip0_962_18496)">
<path d="M63.6223 58.6101C61.95 61.9833 59.7736 64.9252 56.9143 67.3437C51.5489 71.8812 45.2292 73.7181 38.3018 73.6863C29.6932 73.6457 21.5722 71.7649 14.3955 66.8324C6.83263 61.6333 2.29448 54.4315 0.747942 45.4301C-0.785363 36.5023 -0.14336 27.7917 4.38596 19.7472C12.0448 6.14257 23.9317 -0.268005 39.4931 0.0085144C45.1664 0.108376 50.6234 1.38786 55.5476 4.30675C61.0112 7.54605 64.4772 12.067 64.2775 18.7454C64.1562 22.7682 61.4139 25.7156 57.3898 26.0887C55.1163 26.2994 52.909 26.0854 50.7911 25.1329C48.8297 24.2495 47.912 22.7638 47.9572 20.6591C47.9947 18.8847 48.4381 17.1872 49.0151 15.5236C49.5192 14.0686 49.9637 12.5992 50.1634 11.0707C50.4998 8.48975 49.6427 6.39276 47.463 4.91795C44.5464 2.94496 41.2504 2.29863 37.7844 2.30412C35.6599 2.30741 33.5618 2.56528 31.4791 2.9713C26.8395 3.8733 23.6979 6.73952 21.4674 10.6899C18.6975 15.5949 17.4588 20.9751 16.9127 26.5155C16.0964 34.796 16.1207 43.072 17.3926 51.3162C17.986 55.159 19.0461 58.8647 21.0041 62.2554C24.1016 67.6214 28.7302 70.6653 34.9782 71.1668C41.7501 71.71 48.1888 70.8288 53.8632 66.7391C57.6402 64.0177 59.9997 60.2934 61.6786 56.0325C62.0989 54.967 61.9191 53.4077 63.5406 53.0149C63.6212 52.9962 63.6741 52.7043 63.6741 52.5397C63.6532 48.5948 63.8252 44.6455 63.2958 40.7149C63.0432 38.8418 61.9996 37.6194 60.3494 36.7887C58.5977 35.9064 56.7323 35.3984 54.8163 35.0714C54.1114 34.9507 53.583 34.7554 53.7374 33.9422C53.9029 33.0655 53.1098 31.8332 54.653 31.4381C62.2644 29.4871 67.4081 24.5787 70.9568 17.8313C71.6981 16.4223 72.8166 16.9578 73.8248 17.0061C74.8364 17.0555 74.5341 17.9717 74.5529 18.5555C74.6555 21.7992 74.704 25.0451 74.7856 28.2899C74.7955 28.663 74.6146 29.1656 75.0261 29.3708C75.4398 29.5771 75.7453 29.1348 76.0387 28.9088C81.6734 24.5634 87.8628 21.2791 94.68 19.1722C99.1872 17.7797 103.753 17.3583 108.38 18.4458C116.268 20.2992 121.612 26.4135 122.505 34.4185C123.016 39.0053 123.151 43.6064 123.217 48.2108C123.338 56.6788 123.123 65.1458 122.979 73.6128C122.946 75.5825 122.931 77.562 123.224 79.5252C123.56 81.7878 124.69 82.8929 126.99 83.2319C129.389 83.5864 131.788 83.9518 134.044 84.9097C134.772 85.2203 135.309 85.612 135.235 86.5634C135.11 88.1995 134.84 88.5101 133.176 88.5046C126.384 88.4804 119.59 88.3389 112.799 88.5726C108.699 88.7131 104.605 88.7932 100.501 88.6132C99.3306 88.5627 99.0979 87.9647 98.949 87.1C98.789 86.1695 99.0758 85.4441 100.016 85.0963C101.681 84.4796 103.422 84.2151 105.18 84.0297C106.407 83.9013 107.666 83.8629 108.844 83.5425C111.578 82.8007 112.734 81.4861 112.574 78.2951C112.033 67.55 112.116 56.805 112.26 46.0567C112.299 43.2432 112.071 40.4604 111.494 37.6918C109.912 30.0994 104.193 27.1037 98.1724 26.611C90.026 25.9438 83.2166 29.0514 77.0249 34.0333C75.0967 35.5849 74.2186 37.1936 74.2253 39.7679C74.2528 50.2112 74.5319 60.6501 74.5496 71.0933C74.554 73.9003 74.5826 76.7072 74.8319 79.5098C75.0371 81.812 75.4784 82.3705 77.732 82.9378C80.6376 83.6687 83.542 84.405 86.4443 85.1468C87.1811 85.3355 87.8375 85.6647 88.367 86.2408C88.9328 86.8564 88.8225 87.5631 88.6361 88.2302C88.4365 88.9446 87.7514 88.6692 87.2771 88.6681C83.1317 88.6527 78.9862 88.5913 74.8397 88.5682C67.4302 88.5265 60.0196 88.5046 52.609 88.4673C51.8577 88.4629 50.9091 88.7295 50.8683 87.4819C50.8341 86.4328 50.8716 85.4935 52.2891 85.2631C54.9409 84.8307 57.5883 84.3479 60.2071 83.7521C62.6516 83.1968 63.2759 82.4342 63.4623 79.9531C63.9962 72.8567 63.716 65.7493 63.6223 58.6101Z" fill="white"/>
<path d="M370.582 68.6401C370.582 70.2203 370.554 71.8004 370.589 73.3795C370.627 75.1297 371.117 75.6345 372.843 75.832C373.105 75.8616 373.371 75.866 373.634 75.8967C374.021 75.9428 374.33 76.1107 374.314 76.5485C374.299 76.9831 373.981 77.1499 373.592 77.1543C372.709 77.1641 371.828 77.1466 370.946 77.1488C369.005 77.1521 367.064 77.1652 365.123 77.163C364.694 77.162 364.163 77.2399 364.07 76.6374C363.978 76.0482 364.455 75.8967 364.903 75.832C366.444 75.6092 366.895 74.6359 366.884 73.2193C366.856 69.7967 366.867 66.373 366.898 62.9516C366.907 61.9179 366.666 61.0751 365.765 60.4453C364.808 59.7759 365.176 59.2119 366.024 58.7861C367.086 58.2528 368.168 57.7579 369.226 57.2169C370.116 56.7616 370.536 56.9722 370.566 57.9971C370.584 58.5941 370.272 59.4533 370.797 59.7276C371.438 60.0623 371.891 59.2042 372.423 58.8695C374.057 57.8402 375.621 56.8987 377.7 57.9456C378.396 58.2967 379.423 57.9971 380.3 57.995C382.152 57.9895 384.005 57.9774 385.857 57.9818C386.325 57.9829 386.915 57.871 387.011 58.5513C387.095 59.1439 386.6 59.2679 386.158 59.3414C385.009 59.5334 384.885 60.1929 385.222 61.1596C386.346 64.3968 387.621 67.5735 389.031 70.6965C389.154 70.9697 389.245 71.3582 389.581 71.3768C390.034 71.4021 390.078 70.9379 390.197 70.6307C391.386 67.5603 392.564 64.4867 393.739 61.4109C394.16 60.3081 394.162 59.4061 392.643 59.2657C392.253 59.2305 391.96 59.0111 391.994 58.5831C392.033 58.0674 392.438 57.984 392.861 57.984C394.757 57.9818 396.654 57.9829 398.551 57.9895C398.915 57.9917 399.28 58.0454 399.366 58.4898C399.465 58.9968 399.152 59.2174 398.718 59.3008C397.413 59.5521 396.723 60.4595 396.138 61.5514C393.624 66.2479 391.744 71.221 389.69 76.1184C389.589 76.3609 389.5 76.6089 389.393 76.8503C389.214 77.2574 389.033 77.6777 388.484 77.6733C387.917 77.6689 387.773 77.2212 387.634 76.8053C386.761 74.1772 385.649 71.6424 384.59 69.0878C383.598 66.6946 382.62 64.2958 381.632 61.9003C381.295 61.0817 380.912 60.2884 380.14 59.7748C379.129 59.1033 378.578 59.2437 377.979 60.3048C377.252 61.5931 376.211 61.9058 374.869 61.2386C372.265 59.9438 370.717 60.8403 370.598 63.7702C370.533 65.3909 370.587 67.0161 370.587 68.6401C370.585 68.6401 370.583 68.6401 370.582 68.6401Z" fill="white"/>
<path d="M251.686 26.441C251.686 28.0639 251.713 29.688 251.677 31.3098C251.647 32.6431 252.104 33.5133 253.558 33.6647C254.02 33.713 254.631 33.7492 254.555 34.4427C254.48 35.1241 253.878 35.0188 253.41 35.021C251.03 35.0309 248.648 35.0309 246.267 35.021C245.803 35.0188 245.203 35.1494 245.092 34.48C244.977 33.792 245.574 33.7119 246.039 33.6493C247.236 33.488 247.835 32.8285 247.884 31.6423C248.024 28.1825 248.219 24.7105 247.79 21.2693C247.463 18.6533 245.6 17.4155 242.862 17.6887C240.101 17.9641 238.741 19.3753 238.732 22.0023C238.723 25.0287 238.765 28.0563 238.718 31.0827C238.695 32.5103 239.122 33.4716 240.676 33.6823C241.115 33.7415 241.608 33.8809 241.502 34.4833C241.398 35.0682 240.881 35.0199 240.444 35.021C238.02 35.0276 235.594 35.0265 233.169 35.0232C232.676 35.0232 232.117 35.0375 232.071 34.3725C232.029 33.7591 232.585 33.7667 232.998 33.6559C234.73 33.1907 235.015 32.8867 235.029 31.1255C235.058 27.6173 235.032 24.1081 235.045 20.5988C235.047 19.654 234.707 18.9298 233.951 18.3274C233.009 17.5768 233.083 17.1894 234.176 16.6452C235.28 16.0965 236.394 15.5698 237.498 15.0244C238.365 14.5965 238.742 14.9004 238.734 15.8145C238.732 15.9462 238.729 16.0778 238.732 16.2095C238.773 17.7381 238.875 17.8017 240.197 17.0874C242.032 16.0976 243.897 15.2428 246.063 15.2889C248.959 15.3503 250.893 16.9239 251.44 19.7473C251.524 20.1775 251.632 20.6131 251.637 21.0465C251.659 22.8451 251.647 24.6425 251.647 26.441C251.659 26.441 251.673 26.441 251.686 26.441Z" fill="white"/>
<path d="M295.895 68.4025C295.895 70.2044 295.922 71.8734 295.886 73.5402C295.86 74.8373 296.362 75.6317 297.725 75.7996C298.184 75.8556 298.821 75.8677 298.762 76.548C298.697 77.3085 298.021 77.157 297.518 77.1592C295.223 77.1713 292.929 77.1724 290.635 77.157C290.139 77.1537 289.461 77.3348 289.371 76.57C289.292 75.8852 289.92 75.8644 290.378 75.7865C291.449 75.6043 292.003 75.0008 292.063 73.9221C292.257 70.4172 292.412 66.9014 291.995 63.4141C291.686 60.8376 289.867 59.602 287.193 59.8204C284.367 60.0519 282.946 61.4894 282.937 64.1614C282.927 67.2339 282.964 70.3064 282.928 73.3778C282.913 74.71 283.367 75.5769 284.776 75.8018C285.244 75.8775 285.832 75.9598 285.695 76.6523C285.582 77.2251 285.05 77.1592 284.616 77.1603C282.233 77.168 279.852 77.1691 277.469 77.1614C276.995 77.1603 276.406 77.2492 276.295 76.5996C276.171 75.8753 276.801 75.8786 277.258 75.8216C278.739 75.6372 279.249 74.7242 279.246 73.3559C279.235 69.8005 279.236 66.2452 279.248 62.6899C279.252 61.7363 278.892 61.0011 278.109 60.4447C277.191 59.7929 277.386 59.2552 278.316 58.8174C279.43 58.2907 280.558 57.7859 281.652 57.2186C282.607 56.7226 282.959 57.0463 282.938 58.0262C282.934 58.2457 282.941 58.4652 282.938 58.6846C282.927 59.5954 283.218 59.9005 284.131 59.4034C285.133 58.8569 286.181 58.3851 287.237 57.9461C288.483 57.4282 289.808 57.3185 291.14 57.4809C293.509 57.7716 295.14 59.3737 295.64 61.8394C296.092 64.0593 295.782 66.3056 295.895 68.4025Z" fill="white"/>
<path d="M216.492 68.492C216.492 70.1599 216.521 71.8279 216.483 73.4947C216.452 74.7929 216.969 75.5818 218.304 75.7914C218.758 75.8627 219.395 75.8441 219.352 76.5332C219.303 77.3145 218.628 77.1554 218.128 77.1587C215.789 77.1719 213.452 77.1697 211.114 77.1609C210.646 77.1587 210.048 77.2651 209.965 76.587C209.881 75.8924 210.494 75.8649 210.954 75.7947C212.244 75.5961 212.749 74.7621 212.758 73.5792C212.783 70.3772 212.834 67.1719 212.75 63.971C212.703 62.1264 211.862 60.6417 209.962 60.0678C207.911 59.4467 206.016 59.8429 204.434 61.3045C203.726 61.9596 203.534 62.888 203.535 63.8437C203.539 66.9601 203.553 70.0755 203.528 73.1908C203.517 74.5888 203.938 75.5961 205.49 75.8254C205.931 75.8913 206.413 76.0328 206.307 76.6342C206.22 77.1378 205.772 77.1576 205.368 77.1587C202.899 77.1653 200.428 77.1653 197.958 77.1609C197.509 77.1598 197.009 77.1499 196.976 76.5431C196.944 75.9363 197.456 75.8693 197.891 75.8156C199.363 75.6356 199.865 74.7764 199.849 73.3663C199.807 69.8121 199.828 66.2579 199.853 62.7036C199.86 61.7994 199.544 61.1246 198.852 60.5287C197.961 59.7606 198.041 59.2668 199.049 58.7664C200.152 58.2177 201.274 57.7053 202.38 57.1599C203.075 56.8176 203.484 56.9481 203.526 57.7755C203.537 57.995 203.528 58.2145 203.536 58.4339C203.581 59.8341 203.773 59.9603 204.958 59.2778C206.265 58.525 207.632 57.9357 209.112 57.612C213.313 56.6947 216.295 58.9453 216.467 63.227C216.536 64.9795 216.478 66.7363 216.478 68.492H216.492Z" fill="white"/>
<path d="M173.874 23.6893C173.875 25.9706 173.836 28.2519 173.886 30.5322C173.93 32.5436 174.283 32.8574 176.259 32.9496C176.701 32.9704 177.197 32.9156 177.266 33.5301C177.328 34.0974 176.906 34.2993 176.457 34.3948C174.689 34.7733 172.927 35.1585 171.235 35.8202C170.304 36.1845 170.218 35.5382 170.174 34.8545C170.057 33.0527 170.047 33.0505 168.427 33.9361C166.789 34.8304 165.109 35.5612 163.186 35.5733C159.265 35.5985 157.277 33.7155 157.229 29.8233C157.192 26.7969 157.204 23.7694 157.227 20.7429C157.237 19.3307 157.199 17.9865 155.58 17.3654C155.28 17.2501 155.099 16.9703 155.193 16.6148C155.285 16.2571 155.588 16.1539 155.903 16.1309C157.315 16.031 158.701 15.783 160.071 15.4352C160.998 15.2003 160.949 15.805 160.945 16.425C160.923 20.2843 160.918 24.1446 160.907 28.005C160.907 28.0489 160.906 28.0928 160.907 28.1367C160.968 29.9758 161.097 31.8665 163.014 32.7762C165.003 33.721 166.974 33.2898 168.798 32.1463C169.799 31.5187 170.132 30.5113 170.144 29.4294C170.179 26.3152 170.164 23.2009 170.136 20.0867C170.127 18.9016 169.695 17.9546 168.444 17.5442C168.038 17.4104 167.543 17.2238 167.645 16.6554C167.748 16.0826 168.279 16.1276 168.707 16.099C170.029 16.0113 171.348 15.8719 172.626 15.5306C173.629 15.2629 173.887 15.6865 173.879 16.583C173.859 18.951 173.873 21.3201 173.874 23.6893Z" fill="white"/>
<path d="M192.15 65.7176C192.15 68.0439 192.107 70.3713 192.163 72.6955C192.211 74.6827 192.555 74.979 194.56 75.092C195.011 75.1173 195.494 75.0975 195.545 75.7065C195.59 76.2618 195.187 76.4769 194.73 76.5723C193.003 76.9344 191.279 77.2812 189.626 77.9374C188.574 78.3544 188.469 77.606 188.432 76.817C188.361 75.2193 188.276 75.1743 186.887 75.9798C185.189 76.9652 183.419 77.7026 181.407 77.7103C177.549 77.7256 175.584 75.8854 175.502 72.0283C175.437 68.913 175.456 65.7955 175.496 62.6791C175.515 61.3283 175.419 60.1168 173.919 59.5495C173.616 59.4354 173.397 59.1874 173.449 58.8329C173.513 58.4039 173.857 58.2799 174.228 58.2667C175.604 58.2173 176.941 57.9452 178.265 57.5941C179.052 57.3856 179.272 57.6884 179.261 58.462C179.205 62.1919 179.193 65.9217 179.173 69.6515C179.17 70.1771 179.173 70.7082 179.238 71.2283C179.451 72.9468 179.869 74.6103 181.807 75.1436C183.873 75.7131 185.846 75.4245 187.506 73.9486C188.164 73.3637 188.422 72.5583 188.426 71.6925C188.436 68.5333 188.43 65.373 188.43 62.2127C188.429 60.9881 187.93 60.1102 186.715 59.6867C186.309 59.5451 185.815 59.3619 185.921 58.7956C186.027 58.2272 186.553 58.2689 186.985 58.2415C188.308 58.1559 189.626 58.011 190.907 57.6742C191.915 57.4086 192.161 57.8432 192.151 58.7397C192.128 61.0649 192.143 63.3912 192.143 65.7176H192.15Z" fill="white"/>
<path d="M260.155 58.8399C260.155 63.6232 260.143 68.4064 260.16 73.1896C260.168 75.2054 260.326 75.3722 262.298 75.8386C262.734 75.9406 263.246 75.9703 263.195 76.5749C263.143 77.1729 262.63 77.1653 262.185 77.1664C259.583 77.1707 256.981 77.1697 254.378 77.1642C253.931 77.1631 253.425 77.162 253.39 76.5551C253.355 75.9461 253.86 75.8682 254.304 75.8441C255.815 75.7618 256.346 74.8378 256.405 73.4892C256.428 72.9636 256.457 72.438 256.457 71.9113C256.46 64.6272 256.459 57.3432 256.459 50.058C256.458 48.4636 256.475 46.912 254.815 45.9024C254.1 45.469 254.358 44.8303 255.112 44.5275C256.461 43.9865 257.808 43.4346 259.183 42.9649C260.299 42.583 260.177 43.4675 260.178 44.0951C260.182 47.2554 260.16 50.4146 260.151 53.5738C260.147 55.3296 260.15 57.0842 260.15 58.8399H260.155Z" fill="white"/>
<path d="M411.098 68.476C411.159 58.8722 420.299 55.9939 426.516 58.047C427.705 58.4387 428.226 60.3755 427.471 61.3927C426.788 62.3112 426.168 61.7658 425.614 61.2183C424.378 60.0002 422.98 59.2222 421.17 59.2211C418.71 59.2178 416.957 60.3711 415.756 62.3935C413.653 65.9346 414.58 70.7003 417.712 73.3887C420.026 75.376 425.245 75.5373 427.065 72.8708C427.33 72.4834 427.696 71.9666 428.233 72.3879C428.808 72.8378 428.367 73.3536 428.081 73.775C425.925 76.9572 422.785 78.049 419.121 77.6376C415.431 77.2228 412.865 75.2081 411.611 71.6703C411.227 70.5861 411.034 69.4647 411.098 68.476Z" fill="white"/>
<path d="M134.442 68.1897C134.409 62.2696 138.672 57.821 144.707 57.4556C146.254 57.3624 147.793 57.426 149.295 57.8606C150.694 58.2644 151.373 59.399 151.043 60.7685C150.767 61.9185 149.993 62.2213 149.145 61.4049C147.181 59.5164 144.958 58.5925 142.293 59.5965C139.39 60.6895 138.175 63.0652 137.966 65.972C137.736 69.1564 138.812 71.8515 141.499 73.741C144.141 75.5966 147.958 75.2268 150.22 72.9795C150.57 72.6327 150.914 71.9283 151.489 72.3606C152.202 72.8972 151.533 73.4876 151.231 73.9506C149.205 77.0528 145.013 78.4442 141.021 77.3798C137.292 76.3856 134.702 73.2363 134.446 69.3737C134.42 68.9798 134.442 68.5847 134.442 68.1897Z" fill="white"/>
<path d="M268 15.2943C269.103 15.2373 270.324 15.4084 271.507 15.7826C272.683 16.1546 273.31 17.2618 273.079 18.459C272.826 19.7736 272.032 20.0885 271.074 19.1679C269.132 17.3057 266.904 16.5036 264.311 17.4341C261.612 18.403 260.443 20.6218 260.011 23.284C259.475 26.5902 261.121 30.2202 263.82 31.8091C266.527 33.4024 270.059 32.9942 272.224 30.8621C272.594 30.4978 272.956 29.722 273.592 30.2783C274.165 30.7787 273.571 31.3427 273.278 31.7827C271.25 34.8399 267.107 36.2598 263.189 35.2733C259.466 34.3373 256.896 31.4162 256.497 27.6689C255.731 20.4836 260.49 15.2987 268 15.2943Z" fill="white"/>
<path d="M452.604 77.6883C452.409 77.6883 452.054 77.7091 451.704 77.685C448.209 77.4436 446.654 75.5309 447.137 72.0842C447.195 71.6684 447.292 71.2832 447.78 71.2174C448.218 71.1581 448.387 71.4972 448.534 71.8253C448.93 72.7064 449.312 73.5931 449.893 74.3766C450.795 75.5891 451.967 76.2299 453.514 76.1707C454.63 76.129 455.624 75.8601 456.205 74.821C456.841 73.6885 456.766 72.544 456.1 71.4456C455.438 70.3549 454.394 69.691 453.312 69.0863C451.962 68.3336 450.652 67.5314 449.59 66.3847C447.046 63.6392 448.005 59.409 451.502 58.0429C453.588 57.2275 455.726 57.2319 457.864 57.8135C459.065 58.1394 460.316 61.0386 459.685 62.1019C459.248 62.8371 458.737 62.6022 458.401 61.9625C457.987 61.179 457.517 60.4493 456.841 59.86C455.82 58.9712 454.627 58.7857 453.37 59.1051C451.395 59.6076 450.709 61.9142 452.017 63.5185C452.817 64.4973 453.912 65.08 454.983 65.6868C456.253 66.4067 457.451 67.2011 458.456 68.2798C461.12 71.1394 460.228 75.4849 456.632 77.0145C455.4 77.5391 454.108 77.7871 452.604 77.6883Z" fill="white"/>
<path d="M226.503 77.6849C226.151 77.6849 225.791 77.7277 225.446 77.6784C221.118 77.0496 220.948 76.1772 221.001 71.9733C221.005 71.6595 221.078 71.3336 221.444 71.2491C221.88 71.1493 222.096 71.451 222.231 71.7912C222.568 72.6526 222.955 73.4866 223.52 74.2273C224.415 75.3981 225.515 76.1728 227.079 76.175C228.372 76.1772 229.467 75.8436 229.999 74.5795C230.529 73.3198 230.431 72.0973 229.498 71.011C228.828 70.233 228 69.6635 227.122 69.1477C225.871 68.4114 224.595 67.7004 223.557 66.6678C220.547 63.6743 221.657 59.1577 225.703 57.8496C227.163 57.3778 228.654 57.324 230.15 57.515C232.649 57.8354 233.551 58.9514 233.454 61.4862C233.438 61.8823 233.466 62.3158 232.967 62.4496C232.475 62.5824 232.273 62.2346 232.064 61.8735C231.778 61.3808 231.483 60.8881 231.136 60.4404C230.183 59.2125 228.893 58.789 227.383 59.0282C225.483 59.3299 224.503 61.3666 225.42 63.0499C225.926 63.9793 226.775 64.528 227.638 65.0635C228.685 65.712 229.778 66.298 230.772 67.0178C233.223 68.79 234.174 71.203 233.463 73.6139C232.791 75.8974 230.61 77.4402 227.692 77.6805C227.298 77.7135 226.899 77.6849 226.503 77.6849Z" fill="white"/>
<path d="M336.57 77.6605C336.086 77.6605 335.595 77.7088 335.117 77.6528C331.751 77.2622 330.349 75.3682 330.918 72.0279C330.981 71.6647 331.047 71.3103 331.477 71.24C331.905 71.1709 332.117 71.4727 332.26 71.8106C332.62 72.66 332.969 73.5137 333.527 74.2621C334.451 75.4977 335.626 76.212 337.235 76.1725C339.821 76.1078 341.155 73.8133 339.896 71.5539C339.219 70.338 338.054 69.6895 336.919 69.0168C335.59 68.229 334.287 67.4191 333.231 66.2637C331.035 63.8605 331.589 60.0561 334.433 58.4474C336.857 57.0768 339.428 57.1767 342 57.9503C342.93 58.229 343.948 61.2961 343.436 62.13C343.104 62.6699 342.653 62.6842 342.277 62.1673C341.968 61.7427 341.752 61.2522 341.449 60.8209C340.584 59.5875 339.43 58.9072 337.866 58.9752C336.76 59.0224 335.874 59.4273 335.391 60.4369C334.873 61.5188 335.007 62.5766 335.764 63.5236C336.437 64.3653 337.356 64.8964 338.266 65.4385C339.135 65.9564 340.028 66.4491 340.844 67.0428C343.196 68.7535 344.133 71.195 343.468 73.709C342.913 75.8027 340.683 77.396 337.892 77.6693C337.455 77.7121 337.012 77.6748 336.57 77.6748V77.6605Z" fill="white"/>
<path d="M271.559 65.9925C271.559 68.4922 271.581 70.993 271.55 73.4927C271.533 74.7656 271.951 75.6094 273.336 75.7927C273.826 75.8574 274.526 75.8541 274.39 76.642C274.278 77.3015 273.661 77.1577 273.2 77.1599C270.863 77.1709 268.526 77.1753 266.19 77.1566C265.698 77.1534 265.003 77.3607 264.884 76.6244C264.757 75.8421 265.479 75.8739 265.968 75.8047C267.25 75.6226 267.807 74.8347 267.816 73.6353C267.843 69.9077 267.842 66.1801 267.844 62.4525C267.844 61.5373 267.351 60.8987 266.632 60.3807C265.973 59.9067 265.895 59.3569 266.67 58.9575C267.959 58.2925 269.267 57.6506 270.607 57.0931C271.604 56.6784 271.58 57.4816 271.583 58.0983C271.595 60.7297 271.588 63.3611 271.588 65.9925H271.559Z" fill="white"/>
<path d="M404.318 77.1663C403.127 77.1663 401.936 77.1718 400.744 77.163C400.309 77.1608 399.791 77.2135 399.696 76.6209C399.598 76.013 400.087 75.9493 400.529 75.8319C402.347 75.3458 402.604 75.0397 402.615 73.2115C402.635 69.7879 402.61 66.3642 402.643 62.9405C402.653 61.9036 402.408 61.0597 401.503 60.4397C400.649 59.8538 400.842 59.2645 401.668 58.8508C402.889 58.2407 404.133 57.6745 405.379 57.117C406.243 56.7308 406.495 57.151 406.451 57.9642C406.177 62.9636 406.335 67.9663 406.329 72.9679C406.326 75.0605 406.484 75.2361 408.443 75.8396C408.849 75.9647 409.234 76.07 409.178 76.5891C409.121 77.1147 408.699 77.1575 408.288 77.1608C407.628 77.1663 406.966 77.1476 406.304 77.1443C405.642 77.141 404.98 77.1432 404.318 77.1432C404.318 77.1509 404.318 77.1586 404.318 77.1663Z" fill="white"/>
<path d="M185.249 23.7231C185.249 26.2217 185.266 28.7203 185.242 31.2189C185.228 32.5938 185.718 33.5057 187.206 33.6769C187.644 33.7274 188.159 33.8108 188.107 34.4121C188.047 35.1012 187.46 35.0178 186.988 35.0189C184.565 35.0288 182.141 35.0277 179.718 35.0222C179.237 35.0211 178.655 35.0826 178.611 34.3989C178.573 33.8031 179.102 33.7844 179.531 33.6736C181.214 33.2413 181.531 32.8682 181.542 31.1179C181.565 27.6109 181.533 24.1038 181.561 20.5968C181.569 19.6399 181.246 18.9321 180.483 18.3352C179.561 17.6142 179.643 17.1567 180.717 16.6376C181.866 16.0813 183.03 15.559 184.186 15.018C185.063 14.6076 185.36 14.8676 185.342 15.8344C185.294 18.4636 185.326 21.0939 185.326 23.7231C185.301 23.7231 185.274 23.7231 185.249 23.7231Z" fill="white"/>
<path d="M404.269 47.1437C405.714 47.1689 406.74 48.2146 406.735 49.6587C406.732 51.1006 405.595 52.1639 404.079 52.1453C402.675 52.1266 401.584 51.0128 401.604 49.6159C401.625 48.162 402.751 47.1173 404.269 47.1437Z" fill="white"/>
<path d="M183.176 5.00519C184.644 5.01287 185.661 6.03448 185.645 7.48624C185.629 8.99397 184.556 10.0255 183.041 9.99034C181.576 9.95632 180.535 8.91716 180.547 7.5027C180.561 6.0268 181.643 4.99751 183.176 5.00519Z" fill="white"/>
<path d="M271.856 49.6809C271.839 51.1239 270.793 52.1455 269.334 52.1444C267.89 52.1433 266.812 51.0723 266.822 49.6513C266.832 48.1798 267.941 47.1307 269.471 47.1439C270.985 47.1571 271.873 48.1019 271.856 49.6809Z" fill="white"/>
<path d="M313.169 8.31735C312.721 6.60223 311.389 5.53673 309.879 5.65853C308.239 5.78912 306.912 7.15528 306.766 8.88248C306.733 9.27312 306.734 9.67145 306.761 10.0632C306.874 11.6872 309.2 14.4371 310.464 14.4591C311.481 14.4766 313.044 12.3336 313.329 10.5241C313.37 10.2662 313.379 10.0017 313.414 9.61878C313.348 9.25996 313.29 8.78043 313.169 8.31735ZM317.953 28.8022C318.439 28.2777 318.146 27.8289 317.863 27.3823C315.608 23.8302 312.798 20.783 309.456 18.2141C308.756 17.6753 308.13 17.6358 307.427 18.1472C305.573 19.4958 304.074 21.1155 303.419 23.3683C302.002 28.225 305.197 32.6363 310.678 32.6747C313.327 32.5386 315.842 31.0792 317.953 28.8022ZM329.547 11.8036C331.046 11.8036 332.544 11.809 334.042 11.7992C334.44 11.797 334.891 11.6894 335.007 12.2238C335.133 12.8043 334.7 13.0666 334.248 13.083C330.809 13.2059 329.132 15.5542 327.516 18.1263C325.952 20.6151 324.223 23.004 322.505 25.3928C321.931 26.1884 321.854 26.8194 322.451 27.6281C323.363 28.8637 324.17 30.1728 325.31 31.235C327.662 33.4253 330.992 33.7654 333.734 32.0964C334.098 31.8747 334.504 31.2416 334.961 31.81C335.334 32.2742 334.876 32.6988 334.544 33.0566C332.084 35.7055 325.719 36.4956 322.686 34.4798C321.477 33.6766 320.835 32.3707 320.157 31.1516C319.558 30.074 319.086 30.017 318.227 30.9245C315.569 33.7303 312.469 35.6989 308.397 35.565C304.659 35.4432 301.695 33.9498 300.147 30.4383C298.576 26.8742 299.323 23.5691 301.803 20.6348C302.945 19.2829 304.309 18.1516 305.846 17.2737C306.846 16.7031 306.96 16.3739 305.991 15.563C304.104 13.9807 303.032 11.9638 303.623 9.40041C304.232 6.75476 305.939 5.11207 308.531 4.40758C312.205 3.41011 315.676 5.37871 316.402 8.82651C316.859 10.9959 316.038 12.654 314.354 14.0213C313.616 14.6204 312.17 14.8892 312.219 15.7122C312.26 16.3739 313.531 16.9774 314.279 17.5777C316.496 19.3554 318.264 21.5379 319.967 23.7787C320.826 24.9067 320.843 24.9034 321.659 23.6898C323.426 21.0584 324.96 18.2975 326.315 15.4368C327.02 13.9466 326.855 13.7008 325.231 13.3255C324.7 13.2026 323.751 13.3705 323.888 12.4609C324.01 11.6423 324.875 11.9166 325.447 11.9012C326.813 11.865 328.18 11.8891 329.547 11.8891C329.547 11.8606 329.547 11.8321 329.547 11.8036Z" fill="white"/>
<path d="M146.09 18.758C145.298 17.4555 144.189 16.7246 142.593 16.8366C141.07 16.9441 140.038 17.7199 139.428 19.0707C138.673 20.7452 138.669 22.5141 139.133 24.2271C139.738 26.4612 141.712 27.8647 143.586 27.6079C145.689 27.3193 146.873 25.7117 146.913 23.0891C146.916 22.9136 146.914 22.738 146.914 22.3825C146.979 21.2215 146.801 19.9288 146.09 18.758ZM141.541 36.6049C139.654 36.7201 138.586 37.8734 137.971 39.4876C137.357 41.1006 137.657 42.5952 138.888 43.8571C141.619 46.6575 148.224 46.0957 150.41 42.8805C152.086 40.4115 150.904 37.3664 147.984 36.7124C146.91 36.4721 145.814 36.3218 144.669 36.4019C143.638 36.3009 142.595 36.5402 141.541 36.6049ZM145.001 33.4709C146.279 33.4709 147.562 33.4051 148.836 33.483C152.796 33.7255 154.838 36.5808 153.837 40.4137C153.275 42.559 151.971 44.1819 150.14 45.3725C146.338 47.8448 142.234 48.4615 137.889 47.1096C136.465 46.6663 135.31 45.7895 134.563 44.4508C133.549 42.6303 133.739 41.1489 135.203 39.6851C135.95 38.9389 136.687 38.1807 137.469 37.4718C138.261 36.753 138.521 36.2395 137.24 35.7402C136.142 35.3133 135.358 34.4596 134.897 33.3524C134.57 32.5678 134.691 31.9369 135.414 31.3893C136.252 30.7529 137.05 30.0561 137.821 29.3384C138.311 28.883 138.368 28.4638 137.716 27.9547C135.01 25.839 134.195 23.381 135.127 20.4468C136.034 17.5893 138.838 15.4934 141.998 15.3047C143.652 15.2059 145.301 15.3585 146.791 16.0509C148.456 16.8234 150.158 16.999 151.941 16.9222C152.511 16.8969 153.089 16.9178 153.656 16.9869C154.215 17.0549 154.505 17.428 154.474 17.9964C154.446 18.544 154.179 18.9061 153.599 18.9709C153.424 18.9906 153.247 18.995 153.071 19.0027C150.649 19.1135 150.649 19.1135 150.555 21.6209C150.376 26.3954 146.537 29.6577 141.751 29.0981C141.184 29.0312 140.599 28.8808 140.064 29.1683C139.051 29.7115 138.126 30.4445 138.289 31.6944C138.449 32.9343 139.526 33.3656 140.636 33.4281C142.087 33.5115 143.546 33.449 145.001 33.449C145.001 33.4567 145.001 33.4633 145.001 33.4709Z" fill="white"/>
<path d="M312.466 61.1546C311.739 59.7786 310.668 58.9227 309.002 58.971C307.421 59.0181 306.337 59.783 305.686 61.1678C304.735 63.1913 304.732 65.2564 305.693 67.2569C306.395 68.7218 307.58 69.7258 309.284 69.7697C310.753 69.807 311.889 69.1432 312.593 67.7847C313.098 66.8081 313.196 65.7853 313.163 64.7253C313.202 63.4832 313.054 62.2673 312.466 61.1546ZM315.665 86.0617C317.098 84.8536 317.725 83.3118 317.201 81.4716C316.691 79.6731 315.284 78.995 313.536 78.7283C311.636 78.4386 309.758 78.5582 307.867 78.7382C305.926 78.9225 304.537 80.1296 304.017 82.1596C303.595 83.8144 304.318 85.6502 305.815 86.6291C307.153 87.5025 308.646 87.8142 310.135 87.7319C312.234 87.7933 314.103 87.3796 315.665 86.0617ZM311.117 75.5998C312.308 75.5987 313.501 75.5603 314.69 75.6053C319.277 75.7787 321.486 79.2089 319.759 83.4633C318.987 85.3671 317.664 86.8233 315.889 87.8229C311.801 90.1284 307.549 90.8329 303.124 88.8072C301.738 88.173 300.817 87.0669 300.381 85.5932C299.977 84.2226 300.166 83.0035 301.262 81.9775C302.193 81.1062 303.075 80.1834 303.996 79.3C304.574 78.7459 304.519 78.3673 303.77 78.0392C303.331 77.8472 302.9 77.6003 302.526 77.3018C300.527 75.703 300.51 74.564 302.429 72.952C302.564 72.839 302.69 72.715 302.824 72.6008C304.677 71.0042 304.677 71.0042 302.934 69.2968C299.529 65.9587 300.791 60.1868 305.372 58.1655C307.763 57.1099 310.25 57.1165 312.593 58.0766C314.669 58.9271 316.745 59.1465 318.92 59.0587C319.27 59.0456 319.628 59.0719 319.971 59.1377C320.47 59.2321 320.731 59.5756 320.724 60.076C320.715 60.6137 320.474 61.001 319.897 61.1009C319.768 61.1228 319.634 61.1206 319.502 61.1371C318.643 61.2479 317.565 60.7607 316.968 61.4169C316.436 62.0007 316.842 63.0201 316.786 63.8442C316.447 68.7602 312.707 71.836 307.762 71.2292C307.087 71.1458 306.452 71.1074 305.872 71.5529C305.044 72.1882 304.223 72.8774 304.515 74.0405C304.805 75.2015 305.833 75.5329 306.883 75.5845C308.292 75.6536 309.706 75.602 311.117 75.5998Z" fill="white"/>
<path d="M205.121 21.332C205.11 19.0309 204.055 17.6659 201.826 17.0481C199.634 16.4412 196.998 17.4058 195.633 19.3119C193.469 22.3394 193.436 27.1852 195.559 30.2467C197.393 32.8913 200.634 33.8745 203.472 32.6839C204.572 32.223 205.151 31.4889 205.126 30.2708C205.094 28.694 205.119 27.116 205.121 25.5392C205.122 24.1368 205.128 22.7344 205.121 21.332ZM208.81 16.4423C208.811 20.8733 208.807 25.3054 208.814 29.7364C208.815 30.3926 208.812 31.0576 208.905 31.7051C209.11 33.1338 209.648 33.4728 211.062 33.238C211.555 33.1568 212.272 32.6663 212.433 33.6199C212.564 34.388 211.913 34.5471 211.341 34.6645C209.786 34.9828 208.213 35.2373 206.719 35.7838C205.64 36.1778 205.104 35.9188 205.163 34.7227C205.211 33.7154 204.88 33.418 203.956 34.0369C200.026 36.6694 195.314 35.6028 192.923 33.351C189.928 30.5298 189.058 25.8245 190.851 21.7918C192.89 17.2116 197.932 14.6416 203.455 15.3703C205.082 15.5842 205.114 15.5656 205.121 13.9756C205.13 11.6075 205.115 9.2384 205.124 6.86927C205.13 5.6666 204.842 4.66255 203.746 3.92625C202.778 3.27553 202.907 2.71699 204.015 2.29013C205.082 1.87864 206.173 1.52091 207.229 1.08198C208.641 0.492714 208.845 0.600254 208.842 2.097C208.834 5.51847 208.82 8.94103 208.81 12.3625C208.806 13.7232 208.81 15.0828 208.81 16.4423Z" fill="white"/>
<path d="M158.795 73.9304C161.315 77.2959 165.916 76.914 167.539 73.0438C169.213 69.0539 168.948 65.0069 166.628 61.3068C164.564 58.0137 160.065 58.2441 158.138 61.6206C157.175 63.3083 156.834 65.1474 156.913 66.7692C156.9 69.9471 157.53 72.2394 158.795 73.9304ZM162.549 77.7074C156.612 77.7041 152.667 73.7109 152.682 67.7151C152.695 61.8225 157.075 57.4255 162.925 57.4321C168.562 57.4387 172.83 61.7687 172.8 67.4496C172.77 73.4059 168.469 77.7107 162.549 77.7074Z" fill="white"/>
<path d="M222.677 26.7056C221.213 27.0019 219.781 27.4891 218.515 28.3154C217.363 29.0681 217.026 30.2763 217.541 31.5382C218.096 32.8989 219.194 33.4432 220.888 33.1985C222.531 32.9604 223.515 32.0913 223.683 30.7141C223.773 29.9767 223.845 29.2371 223.926 28.4887C223.76 27.7075 224.331 26.3698 222.677 26.7056ZM227.359 22.6444C227.359 25.008 227.352 27.3706 227.365 29.7342C227.368 30.2565 227.387 30.792 227.498 31.3001C227.888 33.0668 228.798 33.6001 230.568 33.1491C230.897 33.0657 231.279 32.7958 231.529 33.1798C231.81 33.61 231.434 33.9019 231.149 34.174C229.151 36.068 226.392 36.0318 224.466 34.0171C223.898 33.4223 223.431 33.5321 222.841 33.858C221.765 34.4516 220.724 35.1188 219.504 35.4206C216.214 36.237 213.445 34.0785 213.566 30.8074C213.631 29.0583 214.696 28.0959 216.169 27.511C218.131 26.7297 220.109 25.9748 222.123 25.3427C223.384 24.9466 224.03 24.3529 224.028 22.944C224.026 21.8971 224.173 20.8568 223.918 19.8166C223.328 17.4069 220.244 16.4017 218.341 18.0049C217.8 18.4603 217.63 19.0627 217.542 19.7442C217.37 21.0719 215.516 22.2197 214.256 21.8247C213.474 21.58 213.564 21.0028 213.791 20.441C214.324 19.1209 215.377 18.2452 216.514 17.4771C218.481 16.1482 220.603 15.2298 223.042 15.3022C225.77 15.3834 227.487 17.0546 227.609 19.7529C227.652 20.7153 227.615 21.6809 227.615 22.6455C227.53 22.6444 227.446 22.6444 227.359 22.6444Z" fill="white"/>
<path d="M353.658 63.1351C354.803 63.1351 355.958 63.2317 357.09 63.111C358.571 62.953 358.932 62.1991 358.355 60.811C358.092 60.1756 357.657 59.7093 357.032 59.4053C354.651 58.2487 350.972 59.6676 349.958 62.1201C349.668 62.8224 349.773 63.2284 350.616 63.2317C351.63 63.235 352.644 63.2328 353.658 63.2328V63.1351ZM355.541 64.8041C353.909 64.8063 352.275 64.8371 350.645 64.7943C349.588 64.7668 349.127 65.1597 349.132 66.2515C349.157 70.8208 352.191 75.2507 357.515 74.8699C358.836 74.7745 359.877 74.2883 360.792 73.3852C361.134 73.0484 361.471 72.3274 362.059 72.808C362.687 73.3194 362.062 73.8505 361.769 74.2872C359.788 77.25 355.423 78.5229 351.702 77.2489C347.766 75.9014 345.449 72.1431 345.737 67.5683C346.066 62.3297 349.243 58.444 353.924 57.5574C357.708 56.8409 361.326 58.7743 362.192 61.9741C362.776 64.1414 362.293 64.7778 360.041 64.802C359.952 64.8031 359.864 64.803 359.776 64.803C358.364 64.803 356.952 64.803 355.541 64.8041Z" fill="white"/>
<path d="M437.2 63.1666C438.3 63.1666 439.406 63.2478 440.497 63.1469C442.039 63.0053 442.521 62.0386 441.82 60.6625C441.42 59.879 440.772 59.3918 439.92 59.1504C437.663 58.5118 434.656 59.833 433.607 61.9234C433.157 62.8221 433.423 63.2456 434.427 63.2391C435.351 63.2325 436.276 63.2369 437.2 63.2369C437.2 63.2138 437.2 63.1897 437.2 63.1666ZM439.139 64.8093C437.418 64.8093 435.699 64.8104 433.978 64.8082C433.347 64.8071 432.817 64.9377 432.78 65.707C432.621 68.9814 433.566 71.8048 436.373 73.7284C439.014 75.5379 442.229 75.2537 444.622 73.1391C444.911 72.8846 445.197 72.4555 445.624 72.7825C446.163 73.194 445.789 73.6505 445.536 74.0543C442.375 79.1174 433.715 78.8825 430.747 73.6549C428.098 68.9912 429.198 62.8594 433.301 59.416C436.598 56.6485 441.777 56.778 444.505 59.6837C445.421 60.6603 445.862 61.8345 445.959 63.1326C446.037 64.1762 445.594 64.8049 444.432 64.7907C442.668 64.7687 440.903 64.7852 439.139 64.7852V64.8093Z" fill="white"/>
<path d="M282.4 21.1571C283.624 21.0913 284.86 21.1001 286.071 20.9377C287.388 20.761 287.763 20.0071 287.265 18.7902C286.953 18.0308 286.414 17.4866 285.646 17.1574C283.301 16.1511 279.677 17.6742 278.773 20.0357C278.486 20.7818 278.71 21.1088 279.502 21.1012C280.467 21.0924 281.432 21.099 282.398 21.099C282.398 21.1187 282.399 21.1374 282.4 21.1571ZM284.369 22.6714C282.648 22.6714 280.928 22.6758 279.208 22.6692C278.497 22.667 277.971 22.8909 277.968 23.693C277.954 26.9773 279.244 30.9617 283.082 32.2774C285.47 33.096 287.868 33.1805 289.79 31.0506C290.069 30.7412 290.392 30.2463 290.878 30.6183C291.39 31.0122 291.038 31.4939 290.796 31.9076C289.252 34.5357 285.41 36.0775 281.983 35.4542C276.668 34.4874 274.505 30.2463 274.615 25.6902C274.677 23.084 275.506 20.705 277.169 18.6322C279.522 15.7012 283.817 14.4964 287.33 15.8285C289.599 16.6888 291.089 18.6881 291.185 20.874C291.238 22.0822 290.811 22.6846 289.53 22.655C287.811 22.6144 286.09 22.6451 284.369 22.6451V22.6714Z" fill="white"/>
<path d="M243.512 63.2043C244.48 63.2043 245.447 63.2076 246.415 63.2021C246.59 63.201 246.765 63.1736 246.939 63.1462C248.566 62.8883 249.042 61.8316 248.156 60.4402C247.816 59.9047 247.325 59.5458 246.746 59.2978C244.501 58.3322 240.969 59.7642 240.016 62.0159C239.697 62.7676 239.858 63.2153 240.741 63.2274C241.665 63.2405 242.589 63.2307 243.512 63.2307V63.2043ZM245.538 64.8086C243.817 64.8086 242.096 64.8229 240.376 64.8031C239.553 64.7933 239.088 65.1674 239.124 65.9707C239.217 67.9579 239.518 69.8925 240.665 71.6098C243.101 75.2595 247.701 75.9388 251.031 73.1099C251.351 72.8377 251.699 72.5426 252.074 72.841C252.54 73.213 252.186 73.6421 251.971 74.0119C250.44 76.6433 246.613 78.2037 243.172 77.61C238.994 76.8891 236.041 73.5335 235.823 69.3175C235.606 65.1641 236.721 61.5682 240.233 59.0312C243.115 56.9496 247.313 56.8782 249.937 58.7887C251.401 59.8542 252.284 61.2335 252.299 63.1209C252.309 64.2687 251.924 64.8371 250.698 64.8031C248.979 64.7548 247.257 64.7911 245.538 64.7911V64.8086Z" fill="white"/>
</g>
<defs>
<clipPath id="clip0_962_18496">
<rect width="460" height="90" fill="white"/>
</clipPath>
</defs>
</svg>
