<svg width="203" height="40" viewBox="0 0 203 40" fill="none" xmlns="http://www.w3.org/2000/svg">
<g clip-path="url(#clip0_1102_1740)">
<path d="M27.9873 26.0489C27.2517 27.5481 26.2943 28.8557 25.0365 29.9306C22.6762 31.9472 19.8962 32.7636 16.8489 32.7495C13.062 32.7314 9.48957 31.8955 6.33253 29.7033C3.00566 27.3926 1.00934 24.1918 0.329018 20.1912C-0.34548 16.2232 -0.0630638 12.3519 1.92937 8.77654C5.29846 2.73003 10.5275 -0.119114 17.3729 0.00378799C19.8686 0.0481682 22.2691 0.616829 24.4353 1.91411C26.8387 3.3538 28.3634 5.36313 28.2755 8.33127C28.2222 10.1192 27.0158 11.4291 25.2456 11.595C24.2455 11.6886 23.2745 11.5935 22.3429 11.1702C21.4801 10.7776 21.0764 10.1172 21.0963 9.18182C21.1128 8.39321 21.3078 7.63874 21.5616 6.89938C21.7834 6.25269 21.9789 5.59966 22.0668 4.92029C22.2148 3.77322 21.8377 2.84123 20.8789 2.18576C19.5959 1.30887 18.1459 1.02162 16.6213 1.02406C15.6867 1.02552 14.7637 1.14013 13.8476 1.32058C11.8066 1.72147 10.4246 2.99534 9.44347 4.75106C8.22501 6.93109 7.68007 9.32228 7.43987 11.7847C7.08078 15.4649 7.09146 19.1431 7.65095 22.8072C7.91202 24.5151 8.37835 26.1621 9.23966 27.6691C10.6022 30.0539 12.6384 31.4068 15.3868 31.6297C18.3658 31.8711 21.1982 31.4795 23.6943 29.6618C25.3558 28.4523 26.3937 26.7971 27.1323 24.9033C27.3172 24.4298 27.2381 23.7368 27.9514 23.5622C27.9868 23.5539 28.0101 23.4241 28.0101 23.351C28.0009 21.5977 28.0766 19.8425 27.8437 18.0955C27.7325 17.263 27.2735 16.7197 26.5476 16.3505C25.777 15.9584 24.9564 15.7326 24.1135 15.5873C23.8035 15.5336 23.571 15.4468 23.639 15.0854C23.7118 14.6958 23.3629 14.1481 24.0417 13.9725C27.39 13.1054 29.6527 10.9239 31.2137 7.92502C31.5398 7.29881 32.0319 7.53681 32.4754 7.55827C32.9203 7.58021 32.7874 7.98745 32.7956 8.2469C32.8408 9.68855 32.8621 11.1312 32.898 12.5733C32.9024 12.7391 32.8228 12.9625 33.0038 13.0537C33.1858 13.1454 33.3202 12.9488 33.4493 12.8484C35.9279 10.9171 38.6507 9.45737 41.6495 8.52099C43.6322 7.9021 45.6407 7.71482 47.6763 8.19813C51.1458 9.02185 53.4969 11.7393 53.8895 15.2971C54.1146 17.3357 54.1738 19.3806 54.2029 21.427C54.2563 25.1906 54.1617 28.9537 54.0981 32.7168C54.0835 33.5922 54.0772 34.472 54.2058 35.3445C54.3538 36.3502 54.8507 36.8413 55.8625 36.992C56.9179 37.1495 57.9733 37.3119 58.9656 37.7377C59.2859 37.8757 59.5222 38.0498 59.4897 38.4726C59.4344 39.1998 59.316 39.3378 58.5838 39.3354C55.5961 39.3246 52.6074 39.2617 49.6202 39.3656C47.8165 39.428 46.0153 39.4636 44.2102 39.3837C43.6953 39.3612 43.5929 39.0954 43.5274 38.7111C43.4571 38.2975 43.5832 37.9752 43.9967 37.8206C44.7294 37.5465 45.4951 37.4289 46.2686 37.3465C46.8082 37.2895 47.3619 37.2724 47.8801 37.13C49.083 36.8003 49.5916 36.216 49.5212 34.7978C49.283 30.0222 49.3194 25.2467 49.3829 20.4697C49.3999 19.2192 49.3 17.9824 49.0462 16.7519C48.3498 13.3775 45.8343 12.0461 43.1858 11.8271C39.6022 11.5306 36.6068 12.9118 33.8831 15.1259C33.0349 15.8155 32.6486 16.5305 32.6515 17.6746C32.6636 22.3161 32.7864 26.9556 32.7942 31.597C32.7961 32.8446 32.8087 34.0921 32.9184 35.3377C33.0087 36.3609 33.2028 36.6091 34.1941 36.8613C35.4723 37.1861 36.7499 37.5133 38.0266 37.843C38.3508 37.9269 38.6395 38.0732 38.8724 38.3292C39.1214 38.6028 39.0728 38.9169 38.9908 39.2134C38.903 39.5309 38.6017 39.4085 38.393 39.408C36.5694 39.4012 34.7459 39.3739 32.9218 39.3637C29.6624 39.3451 26.4025 39.3354 23.1426 39.3188C22.8121 39.3168 22.3948 39.4353 22.3768 38.8808C22.3618 38.4146 22.3783 37.9971 23.0018 37.8947C24.1684 37.7025 25.333 37.488 26.485 37.2231C27.5603 36.9764 27.8349 36.6374 27.9169 35.5347C28.1518 32.3808 28.0285 29.2219 27.9873 26.0489Z" fill="#084074"/>
<path d="M163.018 30.5067C163.018 31.209 163.006 31.9113 163.021 32.6131C163.038 33.391 163.253 33.6153 164.013 33.7031C164.128 33.7163 164.245 33.7182 164.361 33.7319C164.531 33.7524 164.667 33.827 164.66 34.0216C164.653 34.2147 164.513 34.2888 164.342 34.2908C163.954 34.2952 163.566 34.2874 163.178 34.2883C162.324 34.2898 161.47 34.2957 160.617 34.2947C160.428 34.2942 160.194 34.3288 160.153 34.0611C160.113 33.7992 160.323 33.7319 160.52 33.7031C161.198 33.6041 161.396 33.1715 161.391 32.5419C161.379 31.0208 161.384 29.4991 161.398 27.9785C161.402 27.5191 161.295 27.1445 160.899 26.8646C160.478 26.5671 160.64 26.3164 161.013 26.1272C161.48 25.8901 161.956 25.6702 162.422 25.4298C162.813 25.2274 162.998 25.321 163.011 25.7765C163.019 26.0418 162.882 26.4237 163.113 26.5456C163.394 26.6944 163.594 26.313 163.828 26.1642C164.547 25.7068 165.234 25.2883 166.149 25.7536C166.455 25.9097 166.907 25.7765 167.293 25.7755C168.108 25.7731 168.923 25.7677 169.738 25.7697C169.943 25.7702 170.203 25.7204 170.245 26.0228C170.282 26.2862 170.064 26.3413 169.87 26.3739C169.364 26.4593 169.31 26.7524 169.458 27.1821C169.953 28.6208 170.514 30.0327 171.134 31.4207C171.188 31.5421 171.228 31.7148 171.376 31.723C171.575 31.7343 171.594 31.528 171.647 31.3914C172.17 30.0268 172.688 28.6608 173.205 27.2937C173.39 26.8036 173.391 26.4027 172.723 26.3403C172.551 26.3247 172.422 26.2271 172.437 26.0369C172.455 25.8077 172.633 25.7707 172.818 25.7707C173.653 25.7697 174.487 25.7702 175.321 25.7731C175.482 25.7741 175.642 25.798 175.68 25.9955C175.724 26.2208 175.586 26.3188 175.395 26.3559C174.821 26.4676 174.517 26.8709 174.26 27.3562C173.154 29.4435 172.327 31.6538 171.424 33.8304C171.379 33.9382 171.34 34.0484 171.293 34.1557C171.214 34.3366 171.135 34.5234 170.893 34.5215C170.644 34.5195 170.58 34.3205 170.519 34.1357C170.135 32.9677 169.646 31.8411 169.18 30.7057C168.744 29.642 168.313 28.5759 167.879 27.5113C167.731 27.1474 167.562 26.7948 167.223 26.5666C166.778 26.2681 166.535 26.3305 166.272 26.8021C165.952 27.3747 165.494 27.5137 164.904 27.2172C163.758 26.6417 163.078 27.0401 163.025 28.3423C162.997 29.0626 163.02 29.7849 163.02 30.5067C163.019 30.5067 163.018 30.5067 163.018 30.5067Z" fill="#084074"/>
<path d="M110.716 11.7516C110.716 12.4729 110.728 13.1947 110.712 13.9155C110.699 14.508 110.9 14.8948 111.539 14.9621C111.742 14.9835 112.011 14.9996 111.978 15.3079C111.945 15.6107 111.68 15.5639 111.474 15.5649C110.427 15.5693 109.379 15.5693 108.332 15.5649C108.128 15.5639 107.864 15.6219 107.815 15.3244C107.764 15.0187 108.027 14.9831 108.232 14.9553C108.758 14.8836 109.022 14.5905 109.043 14.0633C109.105 12.5255 109.19 10.9825 109.002 9.45302C108.858 8.29034 108.039 7.74022 106.834 7.86165C105.62 7.98407 105.021 8.61125 105.017 9.7788C105.013 11.1239 105.032 12.4694 105.011 13.8145C105.001 14.449 105.189 14.8763 105.872 14.9699C106.065 14.9962 106.282 15.0582 106.236 15.3259C106.19 15.5859 105.963 15.5644 105.77 15.5649C104.704 15.5678 103.637 15.5673 102.57 15.5659C102.353 15.5659 102.107 15.5722 102.087 15.2767C102.068 15.004 102.313 15.0074 102.495 14.9582C103.257 14.7514 103.382 14.6163 103.388 13.8335C103.401 12.2744 103.39 10.7147 103.395 9.15504C103.396 8.73513 103.247 8.41324 102.914 8.1455C102.5 7.81191 102.532 7.63975 103.013 7.39785C103.499 7.154 103.989 6.9199 104.474 6.67752C104.856 6.48731 105.022 6.62241 105.018 7.02866C105.017 7.08718 105.016 7.14571 105.017 7.20423C105.035 7.8836 105.08 7.91189 105.662 7.59439C106.469 7.15449 107.289 6.77457 108.242 6.79505C109.516 6.82236 110.367 7.52173 110.607 8.77658C110.644 8.96776 110.692 9.16138 110.694 9.35402C110.704 10.1534 110.699 10.9522 110.699 11.7516C110.704 11.7516 110.71 11.7516 110.716 11.7516Z" fill="#084074"/>
<path d="M130.164 30.4011C130.164 31.2019 130.176 31.9437 130.16 32.6845C130.149 33.261 130.369 33.6141 130.969 33.6887C131.171 33.7136 131.451 33.719 131.425 34.0213C131.397 34.3593 131.099 34.292 130.878 34.293C129.869 34.2983 128.859 34.2988 127.85 34.292C127.632 34.2905 127.334 34.371 127.294 34.0311C127.259 33.7268 127.536 33.7175 127.737 33.6829C128.208 33.6019 128.452 33.3337 128.478 32.8543C128.564 31.2966 128.632 29.734 128.448 28.184C128.312 27.0389 127.512 26.4898 126.336 26.5868C125.093 26.6897 124.468 27.3286 124.464 28.5162C124.46 29.8817 124.476 31.2473 124.46 32.6124C124.453 33.2044 124.653 33.5897 125.273 33.6897C125.479 33.7234 125.737 33.7599 125.677 34.0677C125.628 34.3222 125.393 34.293 125.202 34.2935C124.154 34.2969 123.107 34.2974 122.059 34.294C121.85 34.2935 121.591 34.333 121.542 34.0443C121.487 33.7224 121.764 33.7238 121.966 33.6985C122.617 33.6165 122.842 33.2108 122.84 32.6026C122.835 31.0225 122.836 29.4423 122.841 27.8622C122.843 27.4384 122.684 27.1116 122.34 26.8643C121.936 26.5746 122.022 26.3357 122.431 26.1411C122.921 25.907 123.417 25.6826 123.899 25.4305C124.319 25.21 124.474 25.3539 124.464 25.7894C124.462 25.887 124.466 25.9845 124.464 26.0821C124.46 26.4868 124.588 26.6224 124.989 26.4015C125.43 26.1586 125.891 25.9489 126.355 25.7538C126.904 25.5236 127.487 25.4749 128.072 25.547C129.115 25.6763 129.832 26.3883 130.052 27.4842C130.251 28.4708 130.114 29.4691 130.164 30.4011Z" fill="#084074"/>
<path d="M95.2341 30.441C95.2341 31.1823 95.2467 31.9236 95.2302 32.6644C95.2166 33.2414 95.4437 33.592 96.0314 33.6852C96.2308 33.7169 96.5113 33.7086 96.4924 34.0149C96.4705 34.3621 96.1736 34.2914 95.9537 34.2929C94.925 34.2987 93.8968 34.2977 92.8685 34.2938C92.6623 34.2929 92.3993 34.3402 92.3629 34.0388C92.326 33.7301 92.5958 33.7179 92.7982 33.6866C93.3654 33.5984 93.5877 33.2277 93.5915 32.702C93.6027 31.2789 93.625 29.8543 93.5881 28.4317C93.5673 27.6118 93.1975 26.952 92.3614 26.6969C91.4593 26.4209 90.6257 26.5969 89.9298 27.2466C89.6183 27.5377 89.5339 27.9503 89.5344 28.3751C89.5363 29.7602 89.5421 31.1448 89.5315 32.5293C89.5266 33.1507 89.7115 33.5984 90.3942 33.7003C90.5883 33.7296 90.8004 33.7925 90.7538 34.0597C90.7155 34.2836 90.5184 34.2924 90.3408 34.2929C89.2544 34.2958 88.1674 34.2958 87.0809 34.2938C86.8834 34.2933 86.6636 34.289 86.6491 34.0193C86.635 33.7496 86.8601 33.7198 87.0513 33.6959C87.6991 33.6159 87.9199 33.2341 87.9127 32.6074C87.8942 31.0277 87.9034 29.448 87.9146 27.8684C87.9175 27.4665 87.7787 27.1666 87.4745 26.9018C87.0824 26.5604 87.1173 26.3409 87.5609 26.1185C88.0461 25.8747 88.5396 25.6469 89.0263 25.4045C89.332 25.2524 89.512 25.3104 89.5305 25.6781C89.5353 25.7757 89.5315 25.8732 89.5348 25.9707C89.5547 26.593 89.6392 26.6491 90.1603 26.3458C90.7354 26.0112 91.3366 25.7493 91.9878 25.6054C93.8356 25.1977 95.1472 26.198 95.2229 28.101C95.2535 28.8799 95.2278 29.6607 95.2278 30.441H95.2341Z" fill="#084074"/>
<path d="M76.4864 10.5286C76.4869 11.5425 76.4699 12.5564 76.4918 13.5699C76.5112 14.4638 76.6665 14.6033 77.5355 14.6443C77.7301 14.6535 77.9485 14.6291 77.9786 14.9023C78.0057 15.1544 77.8204 15.2441 77.6229 15.2866C76.845 15.4548 76.0701 15.626 75.3257 15.9201C74.9162 16.082 74.8783 15.7947 74.8589 15.4909C74.8075 14.6901 74.8031 14.6891 74.0903 15.0827C73.3697 15.4802 72.6306 15.805 71.7849 15.8104C70.0603 15.8216 69.1854 14.9847 69.1645 13.2548C69.148 11.9097 69.1533 10.5642 69.1635 9.21908C69.1679 8.59141 69.1514 7.99398 68.4391 7.71794C68.3071 7.66673 68.2275 7.54237 68.2687 7.38435C68.3095 7.22536 68.4425 7.17952 68.5812 7.16928C69.2024 7.1249 69.8118 7.01468 70.4145 6.86007C70.8226 6.75571 70.8008 7.02443 70.7993 7.29998C70.7896 9.01522 70.7872 10.731 70.7823 12.4467C70.7823 12.4662 70.7818 12.4857 70.7823 12.5052C70.809 13.3226 70.8658 14.1629 71.7092 14.5672C72.5841 14.9871 73.4512 14.7954 74.2538 14.2873C74.6939 14.0083 74.8405 13.5606 74.8458 13.0797C74.8613 11.6956 74.8545 10.3115 74.8424 8.92744C74.838 8.40072 74.6483 7.97984 74.098 7.79743C73.9195 7.73794 73.7016 7.65503 73.7462 7.4024C73.7918 7.14782 74.0252 7.16781 74.2135 7.15513C74.7953 7.11612 75.3752 7.05418 75.9376 6.9025C76.3787 6.78351 76.4923 6.97176 76.4889 7.37021C76.4801 8.42267 76.4859 9.47561 76.4864 10.5286Z" fill="#084074"/>
<path d="M84.5267 29.2078C84.5267 30.2417 84.5078 31.2761 84.5325 32.3091C84.5534 33.1923 84.7048 33.324 85.5869 33.3742C85.7854 33.3855 85.998 33.3767 86.0203 33.6474C86.0402 33.8941 85.8626 33.9897 85.6617 34.0321C84.9018 34.1931 84.1438 34.3472 83.4164 34.6388C82.9535 34.8242 82.9074 34.4916 82.8914 34.1409C82.8598 33.4308 82.8225 33.4108 82.2115 33.7688C81.4647 34.2067 80.6859 34.5345 79.8008 34.5379C78.1039 34.5447 77.2392 33.7268 77.2033 32.0126C77.1747 30.628 77.1829 29.2424 77.2009 27.8574C77.2091 27.257 77.1669 26.7186 76.5069 26.4664C76.3735 26.4157 76.2774 26.3055 76.3002 26.148C76.3284 25.9573 76.4798 25.9022 76.6428 25.8963C77.2484 25.8744 77.8365 25.7534 78.4188 25.5974C78.7648 25.5047 78.8619 25.6393 78.857 25.9831C78.8323 27.6408 78.8269 29.2985 78.8182 30.9562C78.8167 31.1898 78.8182 31.4259 78.8468 31.657C78.9405 32.4208 79.1244 33.1601 79.977 33.3972C80.8858 33.6503 81.7535 33.522 82.4838 32.8661C82.7735 32.6061 82.887 32.2481 82.8885 31.8633C82.8928 30.4592 82.8904 29.0547 82.8904 27.6501C82.8899 27.1058 82.6706 26.7157 82.1359 26.5274C81.9573 26.4645 81.7399 26.383 81.7865 26.1314C81.8331 25.8788 82.0645 25.8973 82.2547 25.8851C82.8366 25.8471 83.4164 25.7827 83.9798 25.633C84.4233 25.5149 84.5315 25.7081 84.5272 26.1065C84.517 27.14 84.5238 28.1739 84.5238 29.2078H84.5267Z" fill="#084074"/>
<path d="M114.441 26.1511C114.441 28.277 114.436 30.4028 114.444 32.5287C114.447 33.4246 114.516 33.4988 115.384 33.706C115.576 33.7514 115.801 33.7646 115.779 34.0333C115.756 34.2991 115.53 34.2957 115.335 34.2962C114.19 34.2981 113.045 34.2976 111.9 34.2952C111.703 34.2947 111.481 34.2942 111.466 34.0245C111.45 33.7538 111.672 33.7192 111.867 33.7085C112.532 33.6719 112.766 33.2613 112.792 32.6619C112.802 32.4283 112.815 32.1947 112.815 31.9606C112.816 28.7232 112.816 25.4858 112.816 22.248C112.815 21.5394 112.822 20.8498 112.092 20.4011C111.778 20.2084 111.891 19.9246 112.223 19.79C112.817 19.5496 113.409 19.3042 114.014 19.0955C114.505 18.9258 114.451 19.3189 114.451 19.5978C114.453 21.0024 114.444 22.4065 114.44 23.8106C114.438 24.5909 114.439 25.3708 114.439 26.1511H114.441Z" fill="#084074"/>
<path d="M180.841 30.4338C180.868 26.1654 184.889 24.8862 187.624 25.7987C188.147 25.9728 188.376 26.8336 188.044 27.2857C187.743 27.6939 187.471 27.4515 187.227 27.2081C186.683 26.6668 186.068 26.321 185.272 26.3205C184.19 26.319 183.418 26.8316 182.89 27.7304C181.965 29.3043 182.373 31.4223 183.751 32.6172C184.769 33.5004 187.065 33.5721 187.865 32.387C187.982 32.2148 188.143 31.9851 188.379 32.1724C188.632 32.3724 188.438 32.6016 188.312 32.7889C187.363 34.2032 185.982 34.6885 184.37 34.5056C182.747 34.3212 181.619 33.4258 181.067 31.8535C180.898 31.3716 180.813 30.8732 180.841 30.4338Z" fill="#084074"/>
<path d="M59.1406 30.3065C59.1261 27.6754 61.0011 25.6982 63.6559 25.5358C64.3367 25.4944 65.0136 25.5227 65.674 25.7158C66.2898 25.8953 66.5883 26.3996 66.4432 27.0082C66.3218 27.5193 65.9812 27.6539 65.608 27.2911C64.7443 26.4517 63.7665 26.0411 62.5942 26.4873C61.317 26.9731 60.7827 28.029 60.6905 29.3209C60.5896 30.7362 61.0627 31.934 62.2448 32.7738C63.407 33.5985 65.0859 33.4341 66.0812 32.4353C66.235 32.2812 66.3864 31.9681 66.6392 32.1603C66.9532 32.3988 66.6586 32.6611 66.5257 32.8669C65.6347 34.2457 63.7908 34.8641 62.0347 34.391C60.394 33.9492 59.2547 32.5495 59.1421 30.8328C59.1309 30.6577 59.1406 30.4821 59.1406 30.3065Z" fill="#084074"/>
<path d="M117.892 6.79748C118.378 6.77212 118.915 6.8482 119.436 7.0145C119.953 7.17983 120.228 7.67192 120.127 8.204C120.015 8.78827 119.667 8.92824 119.245 8.51906C118.391 7.69143 117.411 7.33492 116.27 7.74849C115.082 8.17913 114.569 9.16526 114.378 10.3484C114.142 11.8179 114.866 13.4312 116.054 14.1374C117.245 14.8455 118.798 14.6641 119.751 13.7165C119.914 13.5546 120.073 13.2098 120.353 13.457C120.605 13.6794 120.343 13.9301 120.214 14.1257C119.322 15.4844 117.5 16.1155 115.776 15.677C114.139 15.261 113.008 13.9628 112.832 12.2973C112.496 9.10381 114.589 6.79943 117.892 6.79748Z" fill="#084074"/>
<path d="M199.099 34.5281C199.013 34.5281 198.857 34.5374 198.703 34.5267C197.166 34.4194 196.482 33.5693 196.694 32.0374C196.72 31.8526 196.763 31.6814 196.977 31.6522C197.17 31.6258 197.244 31.7765 197.309 31.9223C197.483 32.314 197.651 32.708 197.907 33.0562C198.303 33.5952 198.819 33.88 199.499 33.8536C199.99 33.8351 200.428 33.7156 200.683 33.2538C200.963 32.7505 200.93 32.2418 200.637 31.7536C200.346 31.2688 199.887 30.9738 199.411 30.705C198.817 30.3705 198.241 30.014 197.773 29.5043C196.654 28.2841 197.076 26.404 198.614 25.7968C199.532 25.4345 200.472 25.4364 201.413 25.6949C201.941 25.8397 202.491 27.1282 202.214 27.6008C202.022 27.9276 201.797 27.8232 201.649 27.5389C201.467 27.1907 201.26 26.8664 200.963 26.6045C200.514 26.2094 199.989 26.127 199.436 26.2689C198.567 26.4923 198.265 27.5174 198.841 28.2304C199.193 28.6655 199.675 28.9244 200.146 29.1941C200.704 29.5141 201.231 29.8672 201.673 30.3466C202.845 31.6175 202.453 33.5488 200.871 34.2287C200.329 34.4618 199.761 34.572 199.099 34.5281Z" fill="#084074"/>
<path d="M99.6381 34.5265C99.4833 34.5265 99.3251 34.5456 99.1733 34.5236C97.2691 34.2442 97.1944 33.8564 97.2177 31.988C97.2196 31.8486 97.2517 31.7037 97.4128 31.6662C97.6044 31.6218 97.6996 31.7559 97.7588 31.9071C97.9072 32.2899 98.0776 32.6606 98.326 32.9898C98.7196 33.5102 99.2033 33.8545 99.8914 33.8555C100.46 33.8564 100.942 33.7082 101.176 33.1463C101.409 32.5865 101.366 32.0432 100.956 31.5603C100.661 31.2146 100.297 30.9614 99.9104 30.7322C99.3601 30.405 98.7986 30.0889 98.342 29.63C97.0183 28.2996 97.5064 26.2922 99.2863 25.7108C99.9283 25.5011 100.584 25.4772 101.242 25.5621C102.342 25.7045 102.738 26.2005 102.696 27.3271C102.689 27.5031 102.701 27.6958 102.482 27.7553C102.265 27.8143 102.176 27.6597 102.084 27.4992C101.959 27.2803 101.829 27.0613 101.676 26.8623C101.257 26.3166 100.69 26.1283 100.025 26.2346C99.1893 26.3688 98.7584 27.2739 99.1616 28.0221C99.3843 28.4351 99.758 28.679 100.137 28.917C100.598 29.2052 101.079 29.4657 101.516 29.7856C102.594 30.5732 103.013 31.6457 102.7 32.7172C102.404 33.7321 101.445 34.4178 100.161 34.5246C99.988 34.5392 99.8123 34.5265 99.6381 34.5265Z" fill="#084074"/>
<path d="M148.056 34.5158C147.843 34.5158 147.627 34.5372 147.417 34.5124C145.936 34.3387 145.319 33.497 145.57 32.0124C145.598 31.851 145.627 31.6934 145.816 31.6622C146.004 31.6315 146.097 31.7656 146.16 31.9158C146.319 32.2933 146.472 32.6728 146.717 33.0054C147.124 33.5545 147.641 33.872 148.348 33.8544C149.486 33.8257 150.073 32.8059 149.519 31.8017C149.221 31.2613 148.709 30.9731 148.21 30.6742C147.625 30.324 147.052 29.9641 146.587 29.4505C145.621 28.3825 145.865 26.6916 147.116 25.9766C148.182 25.3675 149.313 25.4119 150.445 25.7557C150.854 25.8796 151.302 27.2427 151.076 27.6133C150.93 27.8533 150.732 27.8596 150.566 27.6299C150.431 27.4412 150.336 27.2232 150.203 27.0315C149.822 26.4833 149.314 26.181 148.626 26.2112C148.14 26.2322 147.75 26.4121 147.538 26.8608C147.309 27.3417 147.369 27.8118 147.702 28.2327C147.998 28.6068 148.402 28.8428 148.802 29.0838C149.184 29.314 149.577 29.5329 149.936 29.7968C150.971 30.5571 151.383 31.6422 151.091 32.7596C150.846 33.6901 149.865 34.3982 148.638 34.5197C148.445 34.5387 148.25 34.5221 148.056 34.5221V34.5158Z" fill="#084074"/>
<path d="M119.458 29.33C119.458 30.441 119.468 31.5524 119.454 32.6634C119.447 33.2291 119.631 33.6042 120.24 33.6856C120.456 33.7144 120.764 33.7129 120.704 34.0631C120.654 34.3562 120.383 34.2923 120.18 34.2933C119.152 34.2982 118.124 34.3001 117.097 34.2918C116.88 34.2904 116.574 34.3826 116.522 34.0553C116.466 33.7076 116.784 33.7217 116.999 33.691C117.563 33.61 117.808 33.2599 117.812 32.7268C117.824 31.0701 117.824 29.4134 117.824 27.7567C117.824 27.3499 117.608 27.0661 117.291 26.8359C117.001 26.6252 116.967 26.3809 117.308 26.2033C117.875 25.9078 118.45 25.6225 119.04 25.3747C119.478 25.1904 119.467 25.5474 119.469 25.8215C119.474 26.991 119.471 28.1605 119.471 29.33H119.458Z" fill="#084074"/>
<path d="M177.859 34.2961C177.335 34.2961 176.811 34.2986 176.287 34.2947C176.095 34.2937 175.868 34.3171 175.826 34.0537C175.783 33.7835 175.998 33.7553 176.192 33.7031C176.992 33.487 177.105 33.351 177.11 32.5384C177.119 31.0168 177.107 29.4952 177.122 27.9736C177.126 27.5127 177.019 27.1377 176.621 26.8621C176.245 26.6017 176.33 26.3398 176.693 26.1559C177.23 25.8847 177.778 25.6331 178.326 25.3853C178.706 25.2137 178.816 25.4005 178.797 25.7618C178.677 27.9838 178.746 30.2072 178.744 32.4302C178.742 33.3602 178.812 33.4383 179.673 33.7065C179.852 33.7621 180.021 33.8089 179.997 34.0396C179.972 34.2732 179.786 34.2922 179.606 34.2937C179.315 34.2961 179.024 34.2878 178.733 34.2864C178.441 34.2849 178.15 34.2859 177.859 34.2859C177.859 34.2893 177.859 34.2927 177.859 34.2961Z" fill="#084074"/>
<path d="M81.4909 10.5437C81.4909 11.6542 81.4987 12.7647 81.488 13.8752C81.4817 14.4863 81.6972 14.8915 82.3518 14.9676C82.5444 14.9901 82.771 15.0271 82.7482 15.2944C82.722 15.6007 82.4639 15.5636 82.2562 15.5641C81.1901 15.5685 80.124 15.568 79.0579 15.5655C78.8463 15.5651 78.5906 15.5924 78.5712 15.2885C78.5542 15.0237 78.7871 15.0154 78.9759 14.9662C79.7159 14.774 79.8556 14.6082 79.8605 13.8303C79.8707 12.2716 79.8566 10.7129 79.8687 9.15423C79.8721 8.72896 79.73 8.41439 79.3947 8.14908C78.989 7.82866 79.0249 7.62529 79.4975 7.39461C80.0027 7.14734 80.5151 6.9152 81.0236 6.67476C81.4094 6.49236 81.54 6.60795 81.5322 7.03761C81.5108 8.20614 81.5249 9.37516 81.5249 10.5437C81.5137 10.5437 81.5021 10.5437 81.4909 10.5437Z" fill="#084074"/>
<path d="M177.837 20.9527C178.472 20.964 178.924 21.4287 178.922 22.0705C178.92 22.7114 178.42 23.184 177.753 23.1757C177.135 23.1674 176.655 22.6724 176.664 22.0515C176.673 21.4053 177.169 20.941 177.837 20.9527Z" fill="#084074"/>
<path d="M80.5783 2.22442C81.2241 2.22783 81.6715 2.68188 81.6647 3.32711C81.6575 3.99721 81.1853 4.45565 80.5191 4.44004C79.8747 4.42492 79.4166 3.96307 79.4219 3.33443C79.4282 2.67847 79.9043 2.22101 80.5783 2.22442Z" fill="#084074"/>
<path d="M119.589 22.0804C119.582 22.7217 119.122 23.1758 118.48 23.1753C117.845 23.1748 117.371 22.6988 117.375 22.0672C117.379 21.4132 117.867 20.947 118.54 20.9528C119.206 20.9587 119.597 21.3786 119.589 22.0804Z" fill="#084074"/>
<path d="M137.762 3.6966C137.565 2.93433 136.979 2.46077 136.315 2.5149C135.594 2.57294 135.01 3.18013 134.945 3.94777C134.931 4.12139 134.931 4.29842 134.943 4.47253C134.993 5.19433 136.016 6.41651 136.572 6.42626C137.02 6.43406 137.707 5.48159 137.833 4.67737C137.851 4.56276 137.854 4.44522 137.87 4.27501C137.841 4.11554 137.816 3.90241 137.762 3.6966ZM139.867 12.801C140.08 12.5679 139.952 12.3684 139.827 12.1699C138.835 10.5912 137.599 9.23688 136.129 8.09517C135.821 7.85571 135.546 7.83815 135.236 8.06542C134.421 8.66481 133.761 9.38465 133.473 10.3859C132.85 12.5445 134.255 14.505 136.667 14.5221C137.832 14.4616 138.938 13.813 139.867 12.801ZM144.967 5.24603C145.626 5.24603 146.285 5.24847 146.944 5.24408C147.119 5.2431 147.318 5.19531 147.369 5.43282C147.424 5.69081 147.234 5.80737 147.035 5.81468C145.522 5.86931 144.784 6.91299 144.073 8.05616C143.385 9.16226 142.625 10.224 141.869 11.2857C141.617 11.6393 141.583 11.9197 141.845 12.2792C142.246 12.8283 142.602 13.4101 143.103 13.8822C144.137 14.8557 145.602 15.0069 146.809 14.2651C146.969 14.1666 147.147 13.8852 147.348 14.1378C147.512 14.3441 147.311 14.5328 147.165 14.6918C146.083 15.8691 143.283 16.2203 141.948 15.3244C141.417 14.9674 141.134 14.387 140.836 13.8452C140.573 13.3662 140.365 13.3409 139.987 13.7442C138.818 14.9913 137.454 15.8662 135.663 15.8067C134.019 15.7526 132.715 15.0888 132.034 13.5282C131.343 11.9441 131.671 10.4751 132.762 9.17104C133.264 8.57019 133.865 8.06737 134.541 7.67721C134.981 7.42361 135.031 7.2773 134.605 6.91689C133.774 6.21362 133.303 5.31723 133.563 4.17796C133.831 3.00212 134.582 2.27203 135.722 1.95893C137.338 1.51561 138.865 2.39054 139.184 3.9229C139.385 4.88708 139.024 5.62399 138.283 6.23167C137.959 6.49795 137.323 6.61744 137.344 6.98321C137.362 7.2773 137.921 7.54553 138.25 7.81231C139.226 8.60238 140.004 9.57242 140.753 10.5683C141.13 11.0697 141.138 11.0682 141.497 10.5288C142.274 9.35929 142.949 8.13224 143.545 6.8608C143.855 6.19851 143.783 6.08926 143.068 5.92247C142.835 5.86784 142.417 5.94246 142.477 5.53816C142.531 5.17433 142.912 5.29626 143.163 5.28943C143.764 5.27334 144.365 5.28407 144.967 5.28407C144.967 5.27139 144.967 5.25871 144.967 5.24603Z" fill="#084074"/>
<path d="M64.2641 8.33677C63.9157 7.75787 63.428 7.43306 62.7259 7.48281C62.0557 7.5306 61.602 7.87541 61.3337 8.47577C61.0013 9.22 60.9998 10.0062 61.2036 10.7675C61.47 11.7604 62.3381 12.3842 63.1626 12.2701C64.088 12.1418 64.6086 11.4273 64.6261 10.2617C64.6276 10.1837 64.6266 10.1057 64.6266 9.94765C64.6552 9.43166 64.5771 8.85715 64.2641 8.33677ZM62.2629 16.2687C61.4332 16.3199 60.9634 16.8325 60.6927 17.5499C60.4224 18.2668 60.5544 18.9311 61.0959 19.4919C62.2974 20.7366 65.2031 20.4869 66.1644 19.0579C66.9019 17.9606 66.3817 16.6072 65.0973 16.3165C64.6251 16.2097 64.1428 16.1429 63.6391 16.1785C63.1854 16.1336 62.7268 16.24 62.2629 16.2687ZM63.7852 14.8759C64.3476 14.8759 64.9119 14.8466 65.4724 14.8812C67.2139 14.989 68.1126 16.258 67.672 17.9615C67.425 18.915 66.8515 19.6363 66.0459 20.1655C64.3733 21.2643 62.5682 21.5383 60.6568 20.9375C60.0303 20.7405 59.5222 20.3508 59.1937 19.7558C58.7473 18.9467 58.8312 18.2883 59.4752 17.6377C59.8037 17.3061 60.1278 16.9691 60.4719 16.654C60.8203 16.3346 60.9348 16.1063 60.3709 15.8844C59.8881 15.6947 59.5431 15.3153 59.3403 14.8232C59.1966 14.4745 59.25 14.1941 59.5678 13.9507C59.9366 13.6678 60.2875 13.3581 60.6267 13.0392C60.8421 12.8368 60.8674 12.6505 60.5806 12.4242C59.3902 11.4839 59.0316 10.3915 59.4417 9.08734C59.8406 7.81737 61.0741 6.88586 62.4643 6.80198C63.1917 6.75809 63.9172 6.82588 64.5727 7.13362C65.305 7.47696 66.0537 7.55499 66.8379 7.52085C67.0888 7.50963 67.343 7.5189 67.5924 7.54962C67.8385 7.57986 67.9661 7.74568 67.9525 7.99831C67.9399 8.24167 67.8225 8.40261 67.5672 8.43139C67.4905 8.44017 67.4124 8.44212 67.3353 8.44553C66.2697 8.49479 66.2697 8.49479 66.2284 9.60918C66.1498 11.7312 64.4606 13.1811 62.3556 12.9324C62.1062 12.9026 61.8485 12.8358 61.6132 12.9636C61.1677 13.205 60.7611 13.5308 60.8324 14.0863C60.9028 14.6374 61.3769 14.829 61.865 14.8568C62.5031 14.8939 63.1451 14.8661 63.7852 14.8661C63.7852 14.8695 63.7852 14.8724 63.7852 14.8759Z" fill="#084074"/>
<path d="M137.453 27.1798C137.133 26.5683 136.662 26.1879 135.929 26.2093C135.234 26.2303 134.757 26.5702 134.471 27.1857C134.052 28.085 134.051 29.0029 134.473 29.8919C134.783 30.543 135.304 30.9893 136.053 31.0088C136.699 31.0254 137.199 30.7303 137.509 30.1265C137.731 29.6925 137.774 29.2379 137.76 28.7668C137.777 28.2147 137.711 27.6744 137.453 27.1798ZM138.86 38.2497C139.49 37.7127 139.767 37.0275 139.536 36.2096C139.311 35.4103 138.693 35.1089 137.924 34.9904C137.088 34.8616 136.262 34.9148 135.43 34.9947C134.576 35.0767 133.965 35.6132 133.736 36.5154C133.55 37.2509 133.869 38.0668 134.527 38.5018C135.116 38.89 135.772 39.0285 136.428 38.9919C137.351 39.0193 138.173 38.8354 138.86 38.2497ZM136.859 33.5999C137.383 33.5994 137.908 33.5824 138.431 33.6024C140.449 33.6794 141.421 35.204 140.661 37.0948C140.322 37.9409 139.739 38.5881 138.959 39.0324C137.16 40.0571 135.29 40.3702 133.343 39.4699C132.734 39.188 132.329 38.6964 132.137 38.0414C131.959 37.4323 132.042 36.8904 132.524 36.4344C132.934 36.0472 133.322 35.637 133.727 35.2445C133.981 34.9982 133.957 34.8299 133.628 34.6841C133.434 34.5987 133.245 34.489 133.08 34.3563C132.201 33.6458 132.194 33.1395 133.038 32.4231C133.097 32.3729 133.153 32.3178 133.211 32.267C134.026 31.5574 134.027 31.5574 133.26 30.7986C131.762 29.315 132.317 26.7497 134.332 25.8513C135.384 25.3822 136.478 25.3851 137.509 25.8118C138.422 26.1898 139.335 26.2873 140.292 26.2483C140.446 26.2425 140.604 26.2542 140.754 26.2834C140.974 26.3254 141.089 26.478 141.085 26.7004C141.082 26.9394 140.976 27.1116 140.722 27.1559C140.665 27.1657 140.606 27.1647 140.548 27.172C140.17 27.2213 139.696 27.0048 139.433 27.2964C139.199 27.5559 139.378 28.0089 139.353 28.3752C139.204 30.5601 137.559 31.9271 135.384 31.6574C135.087 31.6203 134.807 31.6033 134.552 31.8013C134.188 32.0837 133.827 32.3899 133.955 32.9069C134.083 33.4229 134.535 33.5702 134.997 33.5931C135.617 33.6238 136.239 33.6009 136.859 33.5999Z" fill="#084074"/>
<path d="M90.232 9.4809C90.2272 8.45819 89.7633 7.85149 88.7826 7.57692C87.8184 7.30722 86.6587 7.73591 86.0584 8.58305C85.1064 9.92861 85.0918 12.0823 86.0259 13.443C86.8324 14.6183 88.258 15.0553 89.5066 14.5262C89.9904 14.3213 90.2451 13.9951 90.2345 13.4537C90.2204 12.7529 90.2311 12.0516 90.232 11.3507C90.2325 10.7275 90.235 10.1042 90.232 9.4809ZM91.8547 7.30771C91.8552 9.27704 91.8538 11.2469 91.8567 13.2162C91.8571 13.5078 91.8557 13.8034 91.8965 14.0911C91.9867 14.7261 92.2235 14.8768 92.8456 14.7725C93.0625 14.7364 93.3779 14.5184 93.4488 14.9422C93.506 15.2836 93.2197 15.3543 92.9684 15.4065C92.2842 15.5479 91.5922 15.661 90.9352 15.9039C90.4606 16.079 90.2248 15.9639 90.2505 15.4323C90.2718 14.9846 90.1263 14.8524 89.7196 15.1275C87.9907 16.2975 85.9182 15.8234 84.8662 14.8227C83.5487 13.5688 83.1658 11.4775 83.9549 9.68525C84.8516 7.64959 87.0697 6.50739 89.4993 6.83123C90.2151 6.92633 90.2291 6.91804 90.232 6.21136C90.2359 5.1589 90.2296 4.10596 90.2335 3.05301C90.2359 2.51849 90.1093 2.07224 89.6274 1.745C89.2014 1.45579 89.2582 1.20755 89.7453 1.01784C90.2151 0.834949 90.695 0.675959 91.1594 0.480878C91.7805 0.218983 91.8702 0.266778 91.8688 0.932001C91.8654 2.45265 91.8591 3.97379 91.8547 5.49444C91.8533 6.09919 91.8547 6.70345 91.8547 7.30771Z" fill="#084074"/>
<path d="M69.8533 32.858C70.9616 34.3537 72.9856 34.184 73.6999 32.4639C74.436 30.6906 74.3196 28.892 73.2991 27.2474C72.3912 25.7839 70.4119 25.8863 69.5641 27.3869C69.1405 28.137 68.9906 28.9544 69.0255 29.6752C69.0197 31.0876 69.2968 32.1064 69.8533 32.858ZM71.5046 34.5366C68.893 34.5352 67.1578 32.7604 67.1641 30.0956C67.1699 27.4767 69.0968 25.5225 71.6701 25.5254C74.1497 25.5283 76.0272 27.4528 76.0141 29.9776C76.001 32.6248 74.109 34.5381 71.5046 34.5366Z" fill="#084074"/>
<path d="M97.9547 11.869C97.3108 12.0007 96.6809 12.2173 96.1238 12.5845C95.6172 12.9191 95.4687 13.456 95.6954 14.0169C95.9394 14.6216 96.4228 14.8635 97.1676 14.7548C97.8906 14.6489 98.3235 14.2627 98.3972 13.6506C98.437 13.3229 98.4686 12.9942 98.504 12.6616C98.4312 12.3143 98.6826 11.7198 97.9547 11.869ZM100.015 10.0641C100.015 11.1146 100.011 12.1646 100.017 13.2151C100.018 13.4472 100.027 13.6852 100.076 13.911C100.247 14.6962 100.647 14.9333 101.426 14.7328C101.571 14.6958 101.739 14.5758 101.849 14.7465C101.973 14.9377 101.807 15.0674 101.681 15.1883C100.803 16.0301 99.589 16.014 98.7418 15.1186C98.4919 14.8543 98.2866 14.903 98.027 15.0479C97.5534 15.3117 97.0958 15.6082 96.5591 15.7424C95.1116 16.1052 93.8936 15.1459 93.947 13.6921C93.9756 12.9147 94.4439 12.487 95.0917 12.227C95.955 11.8798 96.825 11.5442 97.7111 11.2633C98.2657 11.0873 98.5501 10.8234 98.5491 10.1972C98.5481 9.73194 98.6127 9.2696 98.5006 8.80726C98.241 7.73627 96.8847 7.28954 96.0472 8.00207C95.8094 8.20446 95.7347 8.47221 95.6958 8.77507C95.6201 9.36519 94.8044 9.87532 94.2503 9.69975C93.9062 9.59099 93.946 9.33446 94.046 9.08476C94.2804 8.49806 94.7433 8.10887 95.2436 7.76748C96.1088 7.17688 97.0424 6.76867 98.1153 6.80086C99.3153 6.83695 100.071 7.57972 100.124 8.77897C100.143 9.20669 100.127 9.63586 100.127 10.0646C100.09 10.0641 100.052 10.0641 100.015 10.0641Z" fill="#084074"/>
<path d="M155.573 28.0602C156.077 28.0602 156.585 28.1031 157.083 28.0494C157.735 27.9792 157.893 27.6442 157.639 27.0272C157.523 26.7448 157.332 26.5376 157.057 26.4025C156.01 25.8884 154.392 26.519 153.946 27.609C153.818 27.9212 153.864 28.1016 154.235 28.1031C154.681 28.1045 155.127 28.1036 155.573 28.1036V28.0602ZM156.402 28.802C155.683 28.8029 154.965 28.8166 154.248 28.7976C153.783 28.7854 153.58 28.96 153.582 29.4452C153.593 31.476 154.928 33.4449 157.27 33.2756C157.851 33.2332 158.309 33.0171 158.711 32.6158C158.862 32.466 159.01 32.1456 159.269 32.3592C159.545 32.5865 159.27 32.8226 159.141 33.0167C158.27 34.3335 156.35 34.8992 154.713 34.333C152.981 33.7341 151.962 32.0637 152.089 30.0305C152.233 27.7022 153.631 25.9752 155.69 25.5812C157.355 25.2627 158.946 26.122 159.327 27.5442C159.584 28.5074 159.372 28.7902 158.381 28.801C158.342 28.8015 158.303 28.8015 158.264 28.8015C157.643 28.8015 157.022 28.8015 156.402 28.802Z" fill="#084074"/>
<path d="M192.323 28.0741C192.807 28.0741 193.293 28.1102 193.773 28.0653C194.452 28.0024 194.664 27.5727 194.355 26.9611C194.18 26.6129 193.894 26.3964 193.52 26.2891C192.527 26.0052 191.204 26.5924 190.743 27.5215C190.545 27.9209 190.661 28.1092 191.103 28.1063C191.51 28.1033 191.916 28.1053 192.323 28.1053C192.323 28.095 192.323 28.0843 192.323 28.0741ZM193.176 28.8042C192.419 28.8042 191.663 28.8046 190.906 28.8037C190.628 28.8032 190.395 28.8612 190.379 29.2031C190.309 30.6584 190.725 31.9132 191.959 32.7682C193.121 33.5724 194.535 33.4461 195.588 32.5063C195.715 32.3931 195.841 32.2024 196.029 32.3478C196.266 32.5307 196.101 32.7336 195.99 32.913C194.599 35.1633 190.79 35.0589 189.484 32.7355C188.319 30.6628 188.803 27.9375 190.608 26.4071C192.058 25.1771 194.336 25.2347 195.536 26.5261C195.94 26.9602 196.133 27.482 196.176 28.0589C196.21 28.5227 196.015 28.8022 195.504 28.7959C194.728 28.7861 193.952 28.7934 193.176 28.7934V28.8042Z" fill="#084074"/>
<path d="M124.227 9.40327C124.766 9.37401 125.309 9.37791 125.842 9.30573C126.421 9.22721 126.586 8.89216 126.367 8.3513C126.23 8.01381 125.993 7.77192 125.655 7.62561C124.623 7.17838 123.029 7.85531 122.631 8.90484C122.505 9.23648 122.604 9.38181 122.952 9.3784C123.377 9.3745 123.801 9.37743 124.226 9.37743C124.226 9.3862 124.226 9.3945 124.227 9.40327ZM125.093 10.0763C124.336 10.0763 123.58 10.0783 122.823 10.0753C122.51 10.0743 122.279 10.1738 122.277 10.5303C122.271 11.99 122.839 13.7609 124.527 14.3456C125.577 14.7095 126.632 14.747 127.478 13.8004C127.6 13.6628 127.743 13.4429 127.957 13.6082C128.182 13.7833 128.027 13.9974 127.92 14.1813C127.241 15.3493 125.551 16.0345 124.044 15.7575C121.706 15.3279 120.754 13.4429 120.803 11.418C120.83 10.2597 121.194 9.20234 121.926 8.28107C122.961 6.97843 124.851 6.44293 126.396 7.035C127.394 7.41736 128.049 8.30595 128.091 9.27745C128.115 9.8144 127.927 10.0822 127.364 10.069C126.607 10.0509 125.85 10.0646 125.093 10.0646V10.0763Z" fill="#084074"/>
<path d="M107.121 28.0909C107.546 28.0909 107.972 28.0924 108.397 28.0899C108.474 28.0895 108.552 28.0773 108.628 28.0651C109.344 27.9505 109.553 27.4808 109.164 26.8624C109.014 26.6244 108.798 26.4649 108.543 26.3547C107.555 25.9255 106.002 26.562 105.582 27.5627C105.442 27.8968 105.513 28.0958 105.902 28.1012C106.308 28.107 106.714 28.1026 107.121 28.1026V28.0909ZM108.012 28.8039C107.255 28.8039 106.498 28.8103 105.741 28.8015C105.379 28.7971 105.174 28.9634 105.19 29.3204C105.231 30.2036 105.364 31.0635 105.868 31.8267C106.94 33.4488 108.963 33.7507 110.428 32.4934C110.569 32.3724 110.722 32.2412 110.887 32.3739C111.092 32.5392 110.936 32.7299 110.842 32.8943C110.168 34.0638 108.485 34.7573 106.971 34.4934C105.133 34.173 103.834 32.6816 103.738 30.8079C103.643 28.962 104.133 27.3638 105.678 26.2362C106.946 25.311 108.792 25.2793 109.947 26.1284C110.591 26.602 110.979 27.215 110.986 28.0539C110.99 28.564 110.821 28.8166 110.282 28.8015C109.526 28.78 108.768 28.7961 108.012 28.7961V28.8039Z" fill="#084074"/>
</g>
<defs>
<clipPath id="clip0_1102_1740">
<rect width="202.353" height="40" fill="white"/>
</clipPath>
</defs>
</svg>
