<svg width="141" height="40" viewBox="0 0 141 40" fill="none" xmlns="http://www.w3.org/2000/svg">
<g clip-path="url(#clip0_202_1265)">
<path d="M25.3792 16.8873C25.1611 17.1076 24.9015 17.2824 24.6154 17.4017C24.3293 17.521 24.0225 17.5824 23.7125 17.5824C23.4026 17.5824 23.0957 17.521 22.8096 17.4017C22.5236 17.2824 22.264 17.1076 22.0459 16.8873L14.7167 9.54985C14.496 9.33202 14.3207 9.07252 14.2011 8.78641C14.0815 8.5003 14.0199 8.19328 14.0199 7.88318C14.0199 7.57307 14.0815 7.26606 14.2011 6.97995C14.3207 6.69384 14.496 6.43434 14.7167 6.21651C14.9348 5.9963 15.1944 5.8215 15.4805 5.7022C15.7665 5.58291 16.0734 5.52148 16.3834 5.52148C16.6933 5.52148 17.0002 5.58291 17.2862 5.7022C17.5723 5.8215 17.8319 5.9963 18.05 6.21651L25.3875 13.5498C25.6068 13.7691 25.7806 14.0296 25.8989 14.3163C26.0173 14.603 26.0778 14.9102 26.077 15.2203C26.0762 15.5305 26.0142 15.8374 25.8944 16.1235C25.7747 16.4095 25.5996 16.6691 25.3792 16.8873Z" fill="url(#paint0_radial_202_1265)"/>
<path d="M27.4167 7.87904C27.1983 8.09875 26.9386 8.27311 26.6526 8.39209C26.3666 8.51107 26.0598 8.57232 25.75 8.57232C25.4403 8.57232 25.1335 8.51107 24.8475 8.39209C24.5615 8.27311 24.3018 8.09875 24.0834 7.87904L20.2417 4.02487C20.0225 3.8062 19.8486 3.54642 19.7299 3.26043C19.6113 2.97444 19.5502 2.66784 19.5502 2.35821C19.5502 2.04857 19.6113 1.74198 19.7299 1.45599C19.8486 1.16999 20.0225 0.91022 20.2417 0.691541C20.4604 0.472331 20.7202 0.298413 21.0062 0.179747C21.2922 0.0610819 21.5987 0 21.9084 0C22.218 0 22.5246 0.0610819 22.8106 0.179747C23.0966 0.298413 23.3564 0.472331 23.575 0.691541L27.4167 4.55404C27.6357 4.77201 27.8094 5.03108 27.928 5.31638C28.0465 5.60168 28.1075 5.90759 28.1075 6.21654C28.1075 6.52549 28.0465 6.8314 27.928 7.1167C27.8094 7.402 27.6357 7.66107 27.4167 7.87904Z" fill="url(#paint1_radial_202_1265)"/>
<path d="M12.9459 4.45822C12.7272 4.67743 12.4674 4.85135 12.1814 4.97002C11.8955 5.08868 11.5889 5.14977 11.2792 5.14977C10.9696 5.14977 10.663 5.08868 10.377 4.97002C10.091 4.85135 9.83124 4.67743 9.61256 4.45822C9.39335 4.23955 9.21943 3.97977 9.10077 3.69378C8.9821 3.40779 8.92102 3.10119 8.92102 2.79156C8.92102 2.48192 8.9821 2.17533 9.10077 1.88934C9.21943 1.60334 9.39335 1.34357 9.61256 1.12489C9.83124 0.905681 10.091 0.731763 10.377 0.613097C10.663 0.494431 10.9696 0.43335 11.2792 0.43335C11.5889 0.43335 11.8955 0.494431 12.1814 0.613097C12.4674 0.731763 12.7272 0.905681 12.9459 1.12489C13.1661 1.34301 13.3409 1.6026 13.4602 1.88867C13.5795 2.17474 13.6409 2.48161 13.6409 2.79156C13.6409 3.1015 13.5795 3.40838 13.4602 3.69445C13.3409 3.98052 13.1661 4.24011 12.9459 4.45822Z" fill="url(#paint2_radial_202_1265)"/>
<path d="M23.0917 16.1289L15.7542 8.79144C15.3498 8.38502 15.1077 7.845 15.0731 7.2727C15.0386 6.70041 15.2141 6.13519 15.5667 5.68311C15.2527 5.80259 14.9684 5.98882 14.7334 6.22894C14.5127 6.44677 14.3374 6.70627 14.2178 6.99238C14.0982 7.27848 14.0366 7.5855 14.0366 7.89561C14.0366 8.20571 14.0982 8.51273 14.2178 8.79883C14.3374 9.08494 14.5127 9.34444 14.7334 9.56227L22.0542 16.8873C22.2724 17.1075 22.532 17.2823 22.818 17.4016C23.1041 17.5209 23.411 17.5823 23.7209 17.5823C24.0309 17.5823 24.3377 17.5209 24.6238 17.4016C24.9099 17.2823 25.1695 17.1075 25.3876 16.8873C25.4545 16.819 25.5171 16.7466 25.5751 16.6706C25.1529 16.8285 24.6941 16.8613 24.2537 16.7652C23.8133 16.6692 23.4099 16.4483 23.0917 16.1289Z" fill="url(#paint3_radial_202_1265)"/>
<path d="M10.6084 3.47489C10.2534 3.11991 10.0215 2.6606 9.94649 2.16423C9.87151 1.66787 9.95745 1.16053 10.1917 0.716553C9.98313 0.826441 9.79213 0.966881 9.62505 1.13322C9.18302 1.57525 8.93469 2.17476 8.93469 2.79989C8.93469 3.42501 9.18302 4.02453 9.62505 4.46655C10.0671 4.90858 10.6666 5.15691 11.2917 5.15691C11.9168 5.15691 12.5164 4.90858 12.9584 4.46655C13.1245 4.29931 13.2649 4.10834 13.375 3.89989C12.9291 4.13444 12.4197 4.21974 11.9217 4.14324C11.4237 4.06673 10.9633 3.83247 10.6084 3.47489Z" fill="url(#paint4_radial_202_1265)"/>
<path d="M25.1125 6.85825L21.25 3.00409C20.9 2.65134 20.6711 2.19657 20.5962 1.70533C20.5213 1.21409 20.6044 0.711756 20.8334 0.270752C20.6165 0.379374 20.4171 0.519816 20.2417 0.687419C20.0225 0.906097 19.8486 1.16587 19.7299 1.45186C19.6113 1.73786 19.5502 2.04445 19.5502 2.35409C19.5502 2.66372 19.6113 2.97031 19.7299 3.25631C19.8486 3.5423 20.0225 3.80207 20.2417 4.02075L24.0959 7.87492C24.3143 8.09463 24.574 8.26899 24.86 8.38797C25.146 8.50695 25.4528 8.5682 25.7625 8.5682C26.0723 8.5682 26.3791 8.50695 26.6651 8.38797C26.9511 8.26899 27.2108 8.09463 27.4292 7.87492C27.5966 7.69937 27.737 7.49998 27.8459 7.28325C27.4039 7.51057 26.9012 7.59189 26.4101 7.51552C25.9189 7.43916 25.4647 7.20904 25.1125 6.85825Z" fill="url(#paint5_radial_202_1265)"/>
<path d="M23.2293 25.3915C23.0101 25.1728 22.8361 24.913 22.7175 24.627C22.5988 24.341 22.5377 24.0344 22.5377 23.7248C22.5377 23.4152 22.5988 23.1086 22.7175 22.8226C22.8361 22.5366 23.0101 22.2768 23.2293 22.0581L30.5668 14.729C30.7849 14.5088 31.0445 14.3339 31.3305 14.2147C31.6166 14.0954 31.9235 14.0339 32.2334 14.0339C32.5434 14.0339 32.8503 14.0954 33.1363 14.2147C33.4224 14.3339 33.682 14.5088 33.9001 14.729C34.1193 14.9476 34.2932 15.2074 34.4119 15.4934C34.5306 15.7794 34.5916 16.086 34.5916 16.3956C34.5916 16.7053 34.5306 17.0119 34.4119 17.2979C34.2932 17.5838 34.1193 17.8436 33.9001 18.0623L26.5543 25.3915C26.1129 25.8316 25.5151 26.0788 24.8918 26.0788C24.2684 26.0788 23.6706 25.8316 23.2293 25.3915Z" fill="url(#paint6_radial_202_1265)"/>
<path d="M32.2376 27.4291C32.0179 27.2107 31.8435 26.951 31.7245 26.665C31.6056 26.3789 31.5443 26.0722 31.5443 25.7624C31.5443 25.4526 31.6056 25.1459 31.7245 24.8599C31.8435 24.5738 32.0179 24.3142 32.2376 24.0958L36.0918 20.2416C36.3104 20.0224 36.5702 19.8485 36.8562 19.7298C37.1422 19.6111 37.4488 19.55 37.7584 19.55C38.0681 19.55 38.3747 19.6111 38.6606 19.7298C38.9466 19.8485 39.2064 20.0224 39.4251 20.2416C39.6443 20.4603 39.8182 20.72 39.9369 21.006C40.0555 21.292 40.1166 21.5986 40.1166 21.9083C40.1166 22.2179 40.0555 22.5245 39.9369 22.8105C39.8182 23.0965 39.6443 23.3562 39.4251 23.5749L35.5626 27.4291C35.3446 27.648 35.0856 27.8218 34.8003 27.9403C34.515 28.0589 34.209 28.1199 33.9001 28.1199C33.5911 28.1199 33.2852 28.0589 32.9999 27.9403C32.7146 27.8218 32.4556 27.648 32.2376 27.4291Z" fill="url(#paint7_radial_202_1265)"/>
<path d="M35.6585 12.9582C35.4392 12.7395 35.2653 12.4798 35.1467 12.1938C35.028 11.9078 34.9669 11.6012 34.9669 11.2916C34.9669 10.9819 35.028 10.6753 35.1467 10.3893C35.2653 10.1033 35.4392 9.84357 35.6585 9.62489C35.8771 9.40568 36.1369 9.23176 36.4229 9.1131C36.7089 8.99443 37.0155 8.93335 37.3251 8.93335C37.6348 8.93335 37.9414 8.99443 38.2273 9.1131C38.5133 9.23176 38.7731 9.40568 38.9918 9.62489C39.211 9.84357 39.3849 10.1033 39.5036 10.3893C39.6223 10.6753 39.6833 10.9819 39.6833 11.2916C39.6833 11.6012 39.6223 11.9078 39.5036 12.1938C39.3849 12.4798 39.211 12.7395 38.9918 12.9582C38.7737 13.1784 38.5141 13.3532 38.228 13.4725C37.9419 13.5918 37.6351 13.6533 37.3251 13.6533C37.0152 13.6533 36.7083 13.5918 36.4222 13.4725C36.1362 13.3532 35.8766 13.1784 35.6585 12.9582Z" fill="url(#paint8_radial_202_1265)"/>
<path d="M23.9876 23.1041L31.3251 15.7666C31.7315 15.3622 32.2715 15.1201 32.8438 15.0855C33.4161 15.051 33.9813 15.2265 34.4334 15.5791C34.3154 15.2654 34.1306 14.981 33.8918 14.7458C33.6736 14.5256 33.4141 14.3508 33.128 14.2315C32.8419 14.1122 32.535 14.0508 32.2251 14.0508C31.9151 14.0508 31.6083 14.1122 31.3222 14.2315C31.0361 14.3508 30.7765 14.5256 30.5584 14.7458L23.2293 22.0666C23.0101 22.2853 22.8361 22.5451 22.7175 22.8311C22.5988 23.1171 22.5377 23.4237 22.5377 23.7333C22.5377 24.0429 22.5988 24.3495 22.7175 24.6355C22.8361 24.9215 23.0101 25.1813 23.2293 25.4C23.2976 25.4669 23.3699 25.5295 23.4459 25.5875C23.2896 25.165 23.2576 24.7067 23.3536 24.2666C23.4496 23.8265 23.6696 23.4231 23.9876 23.1041Z" fill="url(#paint9_radial_202_1265)"/>
<path d="M36.6417 10.6207C36.9967 10.2658 37.456 10.0338 37.9524 9.95882C38.4488 9.88384 38.9561 9.96978 39.4001 10.204C39.2916 9.99455 39.151 9.80335 38.9834 9.63738C38.5414 9.19535 37.9419 8.94702 37.3167 8.94702C36.6916 8.94702 36.0921 9.19535 35.6501 9.63738C35.208 10.0794 34.9597 10.6789 34.9597 11.304C34.9597 11.9292 35.208 12.5287 35.6501 12.9707C35.8173 13.1369 36.0083 13.2773 36.2167 13.3874C35.9822 12.9414 35.8969 12.432 35.9734 11.934C36.0499 11.436 36.2842 10.9757 36.6417 10.6207Z" fill="url(#paint10_radial_202_1265)"/>
<path d="M33.2584 25.1249L37.1126 21.2624C37.4653 20.9124 37.9201 20.6834 38.4113 20.6085C38.9026 20.5337 39.4049 20.6167 39.8459 20.8457C39.7387 20.628 39.5981 20.4284 39.4292 20.254C39.2106 20.0348 38.9508 19.8609 38.6648 19.7422C38.3788 19.6236 38.0722 19.5625 37.7626 19.5625C37.4529 19.5625 37.1463 19.6236 36.8604 19.7422C36.5744 19.8609 36.3146 20.0348 36.0959 20.254L32.2417 24.1082C32.022 24.3266 31.8477 24.5863 31.7287 24.8723C31.6097 25.1584 31.5485 25.4651 31.5485 25.7749C31.5485 26.0847 31.6097 26.3914 31.7287 26.6774C31.8477 26.9635 32.022 27.2231 32.2417 27.4415C32.4173 27.6089 32.6167 27.7493 32.8334 27.8582C32.6074 27.4159 32.5268 26.9135 32.6031 26.4227C32.6794 25.9319 32.9087 25.4777 33.2584 25.1249Z" fill="url(#paint11_radial_202_1265)"/>
<path d="M14.7293 23.2416C14.948 23.0224 15.2077 22.8485 15.4937 22.7298C15.7797 22.6111 16.0863 22.55 16.396 22.55C16.7056 22.55 17.0122 22.6111 17.2982 22.7298C17.5842 22.8485 17.8439 23.0224 18.0626 23.2416L25.3918 30.5791C25.611 30.7978 25.7849 31.0575 25.9036 31.3435C26.0222 31.6295 26.0833 31.9361 26.0833 32.2458C26.0833 32.5554 26.0222 32.862 25.9036 33.148C25.7849 33.434 25.611 33.6937 25.3918 33.9124C25.1731 34.1316 24.9133 34.3056 24.6273 34.4242C24.3413 34.5429 24.0348 34.604 23.7251 34.604C23.4155 34.604 23.1089 34.5429 22.8229 34.4242C22.5369 34.3056 22.2771 34.1316 22.0585 33.9124L14.7293 26.5666C14.5103 26.3486 14.3366 26.0896 14.218 25.8043C14.0995 25.519 14.0385 25.213 14.0385 24.9041C14.0385 24.5951 14.0995 24.2892 14.218 24.0039C14.3366 23.7186 14.5103 23.4596 14.7293 23.2416Z" fill="url(#paint12_radial_202_1265)"/>
<path d="M12.6876 32.2499C12.9063 32.0307 13.166 31.8568 13.452 31.7381C13.738 31.6194 14.0446 31.5583 14.3542 31.5583C14.6639 31.5583 14.9705 31.6194 15.2565 31.7381C15.5425 31.8568 15.8022 32.0307 16.0209 32.2499L19.8709 36.1041C20.0911 36.3222 20.2659 36.5818 20.3852 36.8678C20.5045 37.1539 20.5659 37.4608 20.5659 37.7707C20.5659 38.0807 20.5045 38.3875 20.3852 38.6736C20.2659 38.9597 20.0911 39.2193 19.8709 39.4374C19.6522 39.6566 19.3925 39.8305 19.1065 39.9492C18.8205 40.0678 18.5139 40.1289 18.2042 40.1289C17.8946 40.1289 17.588 40.0678 17.302 39.9492C17.016 39.8305 16.7563 39.6566 16.5376 39.4374L12.6876 35.5832C12.4674 35.3651 12.2926 35.1055 12.1733 34.8194C12.054 34.5334 11.9926 34.2265 11.9926 33.9166C11.9926 33.6066 12.054 33.2997 12.1733 33.0137C12.2926 32.7276 12.4674 32.468 12.6876 32.2499Z" fill="url(#paint13_radial_202_1265)"/>
<path d="M27.1585 35.6708C27.3771 35.4516 27.6369 35.2777 27.9229 35.159C28.2089 35.0403 28.5155 34.9792 28.8251 34.9792C29.1348 34.9792 29.4414 35.0403 29.7273 35.159C30.0133 35.2777 30.2731 35.4516 30.4918 35.6708C30.711 35.8895 30.8849 36.1492 31.0036 36.4352C31.1223 36.7212 31.1833 37.0278 31.1833 37.3375C31.1833 37.6471 31.1223 37.9537 31.0036 38.2397C30.8849 38.5257 30.711 38.7854 30.4918 39.0041C30.2731 39.2233 30.0133 39.3972 29.7273 39.5159C29.4414 39.6346 29.1348 39.6957 28.8251 39.6957C28.5155 39.6957 28.2089 39.6346 27.9229 39.5159C27.6369 39.3972 27.3771 39.2233 27.1585 39.0041C26.9392 38.7854 26.7653 38.5257 26.6467 38.2397C26.528 37.9537 26.4669 37.6471 26.4669 37.3375C26.4669 37.0278 26.528 36.7212 26.6467 36.4352C26.7653 36.1492 26.9392 35.8895 27.1585 35.6708Z" fill="url(#paint14_radial_202_1265)"/>
<path d="M17.0126 23.9999L24.3501 31.3374C24.7562 31.7429 24.9995 32.2832 25.034 32.856C25.0686 33.4288 24.892 33.9944 24.5376 34.4458C24.8507 34.3263 25.1347 34.1417 25.371 33.9041C25.5902 33.6854 25.7641 33.4256 25.8828 33.1396C26.0014 32.8537 26.0625 32.5471 26.0625 32.2374C26.0625 31.9278 26.0014 31.6212 25.8828 31.3352C25.7641 31.0492 25.5902 30.7894 25.371 30.5708L18.0543 23.2416C17.8356 23.0224 17.5758 22.8485 17.2899 22.7298C17.0039 22.6111 16.6973 22.55 16.3876 22.55C16.078 22.55 15.7714 22.6111 15.4854 22.7298C15.1994 22.8485 14.9396 23.0224 14.721 23.2416C14.6516 23.3088 14.5875 23.3812 14.5293 23.4583C14.9517 23.302 15.4101 23.2699 15.8502 23.3659C16.2903 23.4619 16.6936 23.6819 17.0126 23.9999Z" fill="url(#paint15_radial_202_1265)"/>
<path d="M29.5001 36.6542C29.8544 37.0095 30.086 37.4688 30.161 37.965C30.2359 38.4612 30.1503 38.9684 29.9167 39.4125C30.1262 39.3041 30.3174 39.1635 30.4834 38.9959C30.9254 38.5538 31.1738 37.9543 31.1738 37.3292C31.1738 36.7041 30.9254 36.1046 30.4834 35.6625C30.0414 35.2205 29.4419 34.9722 28.8167 34.9722C28.1916 34.9722 27.5921 35.2205 27.1501 35.6625C26.9824 35.8285 26.8418 36.0197 26.7334 36.2292C27.1793 35.9946 27.6887 35.9093 28.1868 35.9858C28.6848 36.0623 29.1451 36.2966 29.5001 36.6542Z" fill="url(#paint16_radial_202_1265)"/>
<path d="M15.0001 33.2707L18.8543 37.1249C19.2026 37.4786 19.4304 37.9333 19.5052 38.4241C19.58 38.9149 19.498 39.4167 19.2709 39.8582C19.488 39.752 19.6864 39.6112 19.8584 39.4415C20.0786 39.2234 20.2534 38.9638 20.3727 38.6778C20.492 38.3917 20.5535 38.0848 20.5535 37.7749C20.5535 37.4649 20.492 37.1581 20.3727 36.872C20.2534 36.5859 20.0786 36.3263 19.8584 36.1082L16.0084 32.254C15.7897 32.0348 15.53 31.8609 15.244 31.7422C14.958 31.6236 14.6514 31.5625 14.3418 31.5625C14.0321 31.5625 13.7255 31.6236 13.4395 31.7422C13.1535 31.8609 12.8938 32.0348 12.6751 32.254C12.5062 32.4284 12.3656 32.628 12.2584 32.8457C12.7015 32.6171 13.2058 32.535 13.6985 32.6114C14.1912 32.6878 14.647 32.9187 15.0001 33.2707Z" fill="url(#paint17_radial_202_1265)"/>
<path d="M16.875 14.7416C17.0952 14.9597 17.27 15.2193 17.3893 15.5054C17.5086 15.7914 17.57 16.0983 17.57 16.4083C17.57 16.7182 17.5086 17.0251 17.3893 17.3112C17.27 17.5972 17.0952 17.8568 16.875 18.0749L9.53752 25.4041C9.31912 25.6238 9.05944 25.7982 8.7734 25.9171C8.48737 26.0361 8.18064 26.0974 7.87085 26.0974C7.56106 26.0974 7.25433 26.0361 6.9683 25.9171C6.68227 25.7982 6.42258 25.6238 6.20418 25.4041C5.98397 25.186 5.80917 24.9264 5.68987 24.6403C5.57058 24.3542 5.50916 24.0474 5.50916 23.7374C5.50916 23.4275 5.57058 23.1206 5.68987 22.8345C5.80917 22.5485 5.98397 22.2889 6.20418 22.0708L13.5375 14.7333C13.7563 14.513 14.0165 14.3383 14.3033 14.2193C14.59 14.1004 14.8976 14.0395 15.208 14.0403C15.5185 14.0411 15.8257 14.1035 16.1118 14.2238C16.398 14.3442 16.6574 14.5202 16.875 14.7416Z" fill="url(#paint18_radial_202_1265)"/>
<path d="M7.86671 12.6999C8.08592 12.9186 8.25984 13.1784 8.37851 13.4644C8.49717 13.7504 8.55825 14.057 8.55825 14.3666C8.55825 14.6762 8.49717 14.9828 8.37851 15.2688C8.25984 15.5548 8.08592 15.8146 7.86671 16.0333L4.01255 19.8749C3.79443 20.0951 3.53484 20.27 3.24877 20.3892C2.9627 20.5085 2.65583 20.57 2.34588 20.57C2.03593 20.57 1.72906 20.5085 1.44299 20.3892C1.15692 20.27 0.897327 20.0951 0.679212 19.8749C0.460002 19.6563 0.286084 19.3965 0.167418 19.1105C0.0487528 18.8245 -0.0123291 18.5179 -0.0123291 18.2083C-0.0123291 17.8986 0.0487528 17.592 0.167418 17.3061C0.286084 17.0201 0.460002 16.7603 0.679212 16.5416L4.53338 12.6916C4.75204 12.4719 5.01207 12.2978 5.29844 12.1792C5.58481 12.0606 5.89184 12 6.20178 12.0007C6.51173 12.0015 6.81845 12.0637 7.10422 12.1837C7.38999 12.3037 7.64915 12.4792 7.86671 12.6999Z" fill="url(#paint19_radial_202_1265)"/>
<path d="M4.4459 27.1708C4.66511 27.3895 4.83902 27.6492 4.95769 27.9352C5.07635 28.2212 5.13744 28.5278 5.13744 28.8375C5.13744 29.1471 5.07635 29.4537 4.95769 29.7397C4.83902 30.0257 4.66511 30.2854 4.4459 30.5041C4.22722 30.7233 3.96744 30.8972 3.68145 31.0159C3.39546 31.1346 3.08886 31.1957 2.77923 31.1957C2.46959 31.1957 2.163 31.1346 1.87701 31.0159C1.59102 30.8972 1.33124 30.7233 1.11256 30.5041C0.893352 30.2854 0.719434 30.0257 0.600768 29.7397C0.482102 29.4537 0.421021 29.1471 0.421021 28.8375C0.421021 28.5278 0.482102 28.2212 0.600768 27.9352C0.719434 27.6492 0.893352 27.3895 1.11256 27.1708C1.33124 26.9516 1.59102 26.7777 1.87701 26.659C2.163 26.5403 2.46959 26.4792 2.77923 26.4792C3.08886 26.4792 3.39546 26.5403 3.68145 26.659C3.96744 26.7777 4.22722 26.9516 4.4459 27.1708Z" fill="url(#paint20_radial_202_1265)"/>
<path d="M16.1167 17.0248L8.77923 24.3623C8.37373 24.7684 7.83346 25.0117 7.26066 25.0462C6.68787 25.0808 6.12227 24.9042 5.6709 24.5498C5.79177 24.8631 5.97782 25.1472 6.21673 25.3832C6.43513 25.6029 6.69481 25.7772 6.98084 25.8962C7.26688 26.0152 7.57361 26.0765 7.8834 26.0765C8.19319 26.0765 8.49992 26.0152 8.78595 25.8962C9.07198 25.7772 9.33167 25.6029 9.55007 25.3832L16.8751 18.0665C17.0953 17.8484 17.2701 17.5888 17.3894 17.3027C17.5087 17.0167 17.5701 16.7098 17.5701 16.3998C17.5701 16.0899 17.5087 15.783 17.3894 15.4969C17.2701 15.2109 17.0953 14.9513 16.8751 14.7332C16.8079 14.6638 16.7354 14.5997 16.6584 14.5415C16.8162 14.9637 16.8491 15.4225 16.753 15.8629C16.657 16.3033 16.4361 16.7067 16.1167 17.0248Z" fill="url(#paint21_radial_202_1265)"/>
<path d="M3.46256 29.5125C3.10723 29.8669 2.64796 30.0985 2.15175 30.1734C1.65555 30.2484 1.14837 30.1628 0.704224 29.9292C0.814112 30.1378 0.954551 30.3288 1.12089 30.4958C1.56292 30.9379 2.16244 31.1862 2.78756 31.1862C3.09709 31.1862 3.40358 31.1252 3.68955 31.0068C3.97552 30.8883 4.23535 30.7147 4.45422 30.4958C4.67309 30.277 4.84671 30.0171 4.96516 29.7312C5.08361 29.4452 5.14458 29.1387 5.14458 28.8292C5.14458 28.5197 5.08361 28.2132 4.96516 27.9272C4.84671 27.6412 4.67309 27.3814 4.45422 27.1625C4.28826 26.9949 4.09705 26.8543 3.88756 26.7458C4.12211 27.1918 4.20741 27.7012 4.13091 28.1992C4.05441 28.6972 3.82014 29.1575 3.46256 29.5125Z" fill="url(#paint22_radial_202_1265)"/>
<path d="M6.84592 15.0125L2.99176 18.8583C2.638 19.2066 2.18334 19.4344 1.69256 19.5092C1.20177 19.584 0.699896 19.502 0.258423 19.275C0.366125 19.4911 0.506682 19.6893 0.67509 19.8625C0.893205 20.0827 1.1528 20.2575 1.43887 20.3768C1.72494 20.4961 2.03181 20.5575 2.34176 20.5575C2.6517 20.5575 2.95858 20.4961 3.24465 20.3768C3.53072 20.2575 3.79031 20.0827 4.00842 19.8625L7.86259 16.0125C8.0818 15.7938 8.25572 15.534 8.37438 15.248C8.49305 14.962 8.55413 14.6554 8.55413 14.3458C8.55413 14.0362 8.49305 13.7296 8.37438 13.4436C8.25572 13.1576 8.0818 12.8978 7.86259 12.6791C7.68828 12.5103 7.48865 12.3697 7.27092 12.2625C7.50282 12.7062 7.58667 13.2125 7.5102 13.7073C7.43373 14.2021 7.20096 14.6594 6.84592 15.0125Z" fill="url(#paint23_radial_202_1265)"/>
<path d="M52.0334 18.9899C50.5267 18.9899 49.3334 18.5566 48.4534 17.6899L49.6934 15.5099C50.36 16.1499 51.0667 16.4699 51.8134 16.4699C52.44 16.4699 52.94 16.2766 53.3134 15.8899C53.7 15.5033 53.8934 14.9833 53.8934 14.3299V5.40994H56.7334V14.3699C56.7334 15.8899 56.3067 17.0433 55.4534 17.8299C54.6 18.6033 53.46 18.9899 52.0334 18.9899Z" fill="white"/>
<path d="M65.6999 18.9899C63.6866 18.9899 62.0199 18.3433 60.6999 17.0499C59.3933 15.7433 58.7399 14.0899 58.7399 12.0899C58.7399 10.0899 59.3933 8.44327 60.6999 7.14994C62.0199 5.84327 63.6866 5.18994 65.6999 5.18994C67.7266 5.18994 69.3933 5.83661 70.6999 7.12994C72.0199 8.42327 72.6799 10.0766 72.6799 12.0899C72.6799 14.1033 72.0199 15.7566 70.6999 17.0499C69.3933 18.3433 67.7266 18.9899 65.6999 18.9899ZM62.7599 15.2299C63.5066 16.0566 64.4866 16.4699 65.6999 16.4699C66.9133 16.4699 67.8933 16.0566 68.6399 15.2299C69.3866 14.4033 69.7599 13.3566 69.7599 12.0899C69.7599 10.8233 69.3866 9.77661 68.6399 8.94994C67.8933 8.12327 66.9133 7.70994 65.6999 7.70994C64.4866 7.70994 63.5066 8.12327 62.7599 8.94994C62.0266 9.77661 61.6599 10.8233 61.6599 12.0899C61.6599 13.3566 62.0266 14.4033 62.7599 15.2299Z" fill="white"/>
<path d="M80.1246 18.7499H77.2646V7.90994H73.3646V5.40994H84.0046V7.90994H80.1246V18.7499Z" fill="white"/>
<path d="M96.3252 17.4899C95.3119 18.4899 93.8186 18.9899 91.8452 18.9899C89.8719 18.9899 88.3719 18.4899 87.3452 17.4899C86.3319 16.4766 85.8252 15.1233 85.8252 13.4299V5.40994H88.7052V13.3299C88.7052 14.2899 88.9786 15.0566 89.5252 15.6299C90.0719 16.1899 90.8452 16.4699 91.8452 16.4699C92.8452 16.4699 93.6119 16.1899 94.1452 15.6299C94.6919 15.0566 94.9652 14.2899 94.9652 13.3299V5.40994H97.8652V13.4099C97.8652 15.1299 97.3519 16.4899 96.3252 17.4899Z" fill="white"/>
<path d="M108.973 18.7499H100.493V5.40994H103.333V16.2499H108.973V18.7499Z" fill="white"/>
<path d="M52.2734 33.8699C51.3 33.8699 50.4834 33.5499 49.8234 32.9099C49.17 32.2633 48.8434 31.4333 48.8434 30.4199C48.8434 29.4066 49.17 28.5799 49.8234 27.9399C50.4834 27.2933 51.3 26.9699 52.2734 26.9699C53.34 26.9699 54.1834 27.4099 54.8034 28.2899L54.1034 28.6799C53.91 28.3933 53.65 28.1599 53.3234 27.9799C52.9967 27.7999 52.6467 27.7099 52.2734 27.7099C51.54 27.7099 50.9267 27.9666 50.4334 28.4799C49.9467 28.9866 49.7034 29.6333 49.7034 30.4199C49.7034 31.2066 49.9467 31.8566 50.4334 32.3699C50.9267 32.8766 51.54 33.1299 52.2734 33.1299C52.6467 33.1299 52.9967 33.0433 53.3234 32.8699C53.65 32.6899 53.91 32.4533 54.1034 32.1599L54.8134 32.5499C54.1667 33.4299 53.32 33.8699 52.2734 33.8699Z" fill="white"/>
<path d="M63.2186 33.7499H62.2686L61.6786 32.2699H58.3586L57.7686 33.7499H56.8186L59.4986 27.0799H60.5286L63.2186 33.7499ZM61.4286 31.5299L60.0186 27.9399L58.5986 31.5299H61.4286Z" fill="white"/>
<path d="M66.5872 33.7499H65.7573V27.0799H68.4373C69.0839 27.0799 69.5939 27.2733 69.9673 27.6599C70.3406 28.0466 70.5273 28.5233 70.5273 29.0899C70.5273 29.6566 70.3373 30.1333 69.9573 30.5199C69.5839 30.9066 69.0773 31.0999 68.4373 31.0999H66.5872V33.7499ZM68.3372 30.3599C68.7306 30.3599 69.0506 30.2433 69.2973 30.0099C69.5439 29.7699 69.6673 29.4633 69.6673 29.0899C69.6673 28.7166 69.5439 28.4133 69.2973 28.1799C69.0506 27.9399 68.7306 27.8199 68.3372 27.8199H66.5872V30.3599H68.3372Z" fill="white"/>
<path d="M74.1231 33.7499H73.2931V27.0799H74.1231V33.7499Z" fill="white"/>
<path d="M79.8323 33.7499H79.0023V27.8199H76.8923V27.0799H81.9523V27.8199H79.8323V33.7499Z" fill="white"/>
<path d="M89.7583 33.7499H88.8083L88.2183 32.2699H84.8983L84.3083 33.7499H83.3583L86.0383 27.0799H87.0683L89.7583 33.7499ZM87.9683 31.5299L86.5583 27.9399L85.1383 31.5299H87.9683Z" fill="white"/>
<path d="M96.227 33.7499H92.297V27.0799H93.127V33.0099H96.227V33.7499Z" fill="white"/>
</g>
<defs>
<radialGradient id="paint0_radial_202_1265" cx="0" cy="0" r="1" gradientUnits="userSpaceOnUse" gradientTransform="translate(19.928 11.4508) scale(18.6521 13.345)">
<stop offset="0.2673" stop-color="#E0C66C"/>
<stop offset="0.3448" stop-color="#D8AB4B"/>
<stop offset="0.4708" stop-color="#CF8B24"/>
<stop offset="0.6297" stop-color="#CF8B24"/>
<stop offset="0.8148" stop-color="#353736"/>
<stop offset="1" stop-color="#222423"/>
</radialGradient>
<radialGradient id="paint1_radial_202_1265" cx="0" cy="0" r="1" gradientUnits="userSpaceOnUse" gradientTransform="translate(23.7434 4.21428) scale(13.2381 9.48504)">
<stop offset="0.2673" stop-color="#E0C66C"/>
<stop offset="0.3448" stop-color="#D8AB4B"/>
<stop offset="0.4708" stop-color="#CF8B24"/>
<stop offset="0.6297" stop-color="#CF8B24"/>
<stop offset="0.8148" stop-color="#353736"/>
<stop offset="1" stop-color="#222423"/>
</radialGradient>
<radialGradient id="paint2_radial_202_1265" cx="0" cy="0" r="1" gradientUnits="userSpaceOnUse" gradientTransform="translate(11.2338 2.75201) scale(7.3016 5.21859)">
<stop offset="0.2673" stop-color="#E0C66C"/>
<stop offset="0.3448" stop-color="#D8AB4B"/>
<stop offset="0.4708" stop-color="#CF8B24"/>
<stop offset="0.6297" stop-color="#CF8B24"/>
<stop offset="0.8148" stop-color="#353736"/>
<stop offset="1" stop-color="#222423"/>
</radialGradient>
<radialGradient id="paint3_radial_202_1265" cx="0" cy="0" r="1" gradientUnits="userSpaceOnUse" gradientTransform="translate(19.6906 11.5329) scale(17.8498 13.1661)">
<stop offset="0.2673" stop-color="#E0C66C"/>
<stop offset="0.3448" stop-color="#D8AB4B"/>
<stop offset="0.4708" stop-color="#CF8B24"/>
<stop offset="0.6297" stop-color="#CF8B24"/>
<stop offset="0.8148" stop-color="#353736"/>
<stop offset="1" stop-color="#222423"/>
</radialGradient>
<radialGradient id="paint4_radial_202_1265" cx="0" cy="0" r="1" gradientUnits="userSpaceOnUse" gradientTransform="translate(11.1105 2.8995) scale(6.86915 4.91313)">
<stop offset="0.2673" stop-color="#E0C66C"/>
<stop offset="0.3448" stop-color="#D8AB4B"/>
<stop offset="0.4708" stop-color="#CF8B24"/>
<stop offset="0.6297" stop-color="#CF8B24"/>
<stop offset="0.8148" stop-color="#353736"/>
<stop offset="1" stop-color="#222423"/>
</radialGradient>
<radialGradient id="paint5_radial_202_1265" cx="0" cy="0" r="1" gradientUnits="userSpaceOnUse" gradientTransform="translate(23.6151 4.3499) scale(12.8333 9.1809)">
<stop offset="0.2673" stop-color="#E0C66C"/>
<stop offset="0.3448" stop-color="#D8AB4B"/>
<stop offset="0.4708" stop-color="#CF8B24"/>
<stop offset="0.6297" stop-color="#CF8B24"/>
<stop offset="0.8148" stop-color="#353736"/>
<stop offset="1" stop-color="#222423"/>
</radialGradient>
<radialGradient id="paint6_radial_202_1265" cx="0" cy="0" r="1" gradientUnits="userSpaceOnUse" gradientTransform="translate(28.4442 19.9554) scale(18.6472 13.3274)">
<stop offset="0.2673" stop-color="#E0C66C"/>
<stop offset="0.3448" stop-color="#D8AB4B"/>
<stop offset="0.4708" stop-color="#CF8B24"/>
<stop offset="0.6297" stop-color="#CF8B24"/>
<stop offset="0.8148" stop-color="#353736"/>
<stop offset="1" stop-color="#222423"/>
</radialGradient>
<radialGradient id="paint7_radial_202_1265" cx="0" cy="0" r="1" gradientUnits="userSpaceOnUse" gradientTransform="translate(35.7448 23.7631) scale(13.2612 9.48234)">
<stop offset="0.2673" stop-color="#E0C66C"/>
<stop offset="0.3448" stop-color="#D8AB4B"/>
<stop offset="0.4708" stop-color="#CF8B24"/>
<stop offset="0.6297" stop-color="#CF8B24"/>
<stop offset="0.8148" stop-color="#353736"/>
<stop offset="1" stop-color="#222423"/>
</radialGradient>
<radialGradient id="paint8_radial_202_1265" cx="0" cy="0" r="1" gradientUnits="userSpaceOnUse" gradientTransform="translate(37.278 11.2537) scale(7.29621 5.22244)">
<stop offset="0.2673" stop-color="#E0C66C"/>
<stop offset="0.3448" stop-color="#D8AB4B"/>
<stop offset="0.4708" stop-color="#CF8B24"/>
<stop offset="0.6297" stop-color="#CF8B24"/>
<stop offset="0.8148" stop-color="#353736"/>
<stop offset="1" stop-color="#222423"/>
</radialGradient>
<radialGradient id="paint9_radial_202_1265" cx="0" cy="0" r="1" gradientUnits="userSpaceOnUse" gradientTransform="translate(28.3667 19.7224) scale(18.4024 12.765)">
<stop offset="0.2673" stop-color="#E0C66C"/>
<stop offset="0.3448" stop-color="#D8AB4B"/>
<stop offset="0.4708" stop-color="#CF8B24"/>
<stop offset="0.6297" stop-color="#CF8B24"/>
<stop offset="0.8148" stop-color="#353736"/>
<stop offset="1" stop-color="#222423"/>
</radialGradient>
<radialGradient id="paint10_radial_202_1265" cx="0" cy="0" r="1" gradientUnits="userSpaceOnUse" gradientTransform="translate(37.1355 11.13) scale(6.86915 4.91313)">
<stop offset="0.2673" stop-color="#E0C66C"/>
<stop offset="0.3448" stop-color="#D8AB4B"/>
<stop offset="0.4708" stop-color="#CF8B24"/>
<stop offset="0.6297" stop-color="#CF8B24"/>
<stop offset="0.8148" stop-color="#353736"/>
<stop offset="1" stop-color="#222423"/>
</radialGradient>
<radialGradient id="paint11_radial_202_1265" cx="0" cy="0" r="1" gradientUnits="userSpaceOnUse" gradientTransform="translate(35.6143 23.6408) scale(12.836 9.17898)">
<stop offset="0.2673" stop-color="#E0C66C"/>
<stop offset="0.3448" stop-color="#D8AB4B"/>
<stop offset="0.4708" stop-color="#CF8B24"/>
<stop offset="0.6297" stop-color="#CF8B24"/>
<stop offset="0.8148" stop-color="#353736"/>
<stop offset="1" stop-color="#222423"/>
</radialGradient>
<radialGradient id="paint12_radial_202_1265" cx="0" cy="0" r="1" gradientUnits="userSpaceOnUse" gradientTransform="translate(19.9405 28.4759) scale(18.6332 13.3373)">
<stop offset="0.2673" stop-color="#E0C66C"/>
<stop offset="0.3448" stop-color="#D8AB4B"/>
<stop offset="0.4708" stop-color="#CF8B24"/>
<stop offset="0.6297" stop-color="#CF8B24"/>
<stop offset="0.8148" stop-color="#353736"/>
<stop offset="1" stop-color="#222423"/>
</radialGradient>
<radialGradient id="paint13_radial_202_1265" cx="0" cy="0" r="1" gradientUnits="userSpaceOnUse" gradientTransform="translate(16.1936 35.7718) scale(13.2629 9.48312)">
<stop offset="0.2673" stop-color="#E0C66C"/>
<stop offset="0.3448" stop-color="#D8AB4B"/>
<stop offset="0.4708" stop-color="#CF8B24"/>
<stop offset="0.6297" stop-color="#CF8B24"/>
<stop offset="0.8148" stop-color="#353736"/>
<stop offset="1" stop-color="#222423"/>
</radialGradient>
<radialGradient id="paint14_radial_202_1265" cx="0" cy="0" r="1" gradientUnits="userSpaceOnUse" gradientTransform="translate(28.778 37.2979) scale(7.29621 5.21859)">
<stop offset="0.2673" stop-color="#E0C66C"/>
<stop offset="0.3448" stop-color="#D8AB4B"/>
<stop offset="0.4708" stop-color="#CF8B24"/>
<stop offset="0.6297" stop-color="#CF8B24"/>
<stop offset="0.8148" stop-color="#353736"/>
<stop offset="1" stop-color="#222423"/>
</radialGradient>
<radialGradient id="paint15_radial_202_1265" cx="0" cy="0" r="1" gradientUnits="userSpaceOnUse" gradientTransform="translate(20.1807 28.3982) scale(17.8417 13.1623)">
<stop offset="0.2673" stop-color="#E0C66C"/>
<stop offset="0.3448" stop-color="#D8AB4B"/>
<stop offset="0.4708" stop-color="#CF8B24"/>
<stop offset="0.6297" stop-color="#CF8B24"/>
<stop offset="0.8148" stop-color="#353736"/>
<stop offset="1" stop-color="#222423"/>
</radialGradient>
<radialGradient id="paint16_radial_202_1265" cx="0" cy="0" r="1" gradientUnits="userSpaceOnUse" gradientTransform="translate(28.9092 37.1551) scale(6.86915 4.91313)">
<stop offset="0.2673" stop-color="#E0C66C"/>
<stop offset="0.3448" stop-color="#D8AB4B"/>
<stop offset="0.4708" stop-color="#CF8B24"/>
<stop offset="0.6297" stop-color="#CF8B24"/>
<stop offset="0.8148" stop-color="#353736"/>
<stop offset="1" stop-color="#222423"/>
</radialGradient>
<radialGradient id="paint17_radial_202_1265" cx="0" cy="0" r="1" gradientUnits="userSpaceOnUse" gradientTransform="translate(16.3231 35.6408) scale(12.8323 9.17898)">
<stop offset="0.2673" stop-color="#E0C66C"/>
<stop offset="0.3448" stop-color="#D8AB4B"/>
<stop offset="0.4708" stop-color="#CF8B24"/>
<stop offset="0.6297" stop-color="#CF8B24"/>
<stop offset="0.8148" stop-color="#353736"/>
<stop offset="1" stop-color="#222423"/>
</radialGradient>
<radialGradient id="paint18_radial_202_1265" cx="0" cy="0" r="1" gradientUnits="userSpaceOnUse" gradientTransform="translate(11.4191 19.9677) scale(18.658 13.3408)">
<stop offset="0.2673" stop-color="#E0C66C"/>
<stop offset="0.3448" stop-color="#D8AB4B"/>
<stop offset="0.4708" stop-color="#CF8B24"/>
<stop offset="0.6297" stop-color="#CF8B24"/>
<stop offset="0.8148" stop-color="#353736"/>
<stop offset="1" stop-color="#222423"/>
</radialGradient>
<radialGradient id="paint19_radial_202_1265" cx="0" cy="0" r="1" gradientUnits="userSpaceOnUse" gradientTransform="translate(4.18733 16.2135) scale(13.2585 9.48163)">
<stop offset="0.2673" stop-color="#E0C66C"/>
<stop offset="0.3448" stop-color="#D8AB4B"/>
<stop offset="0.4708" stop-color="#CF8B24"/>
<stop offset="0.6297" stop-color="#CF8B24"/>
<stop offset="0.8148" stop-color="#353736"/>
<stop offset="1" stop-color="#222423"/>
</radialGradient>
<radialGradient id="paint20_radial_202_1265" cx="0" cy="0" r="1" gradientUnits="userSpaceOnUse" gradientTransform="translate(2.7321 28.7979) scale(7.29621 5.21859)">
<stop offset="0.2673" stop-color="#E0C66C"/>
<stop offset="0.3448" stop-color="#D8AB4B"/>
<stop offset="0.4708" stop-color="#CF8B24"/>
<stop offset="0.6297" stop-color="#CF8B24"/>
<stop offset="0.8148" stop-color="#353736"/>
<stop offset="1" stop-color="#222423"/>
</radialGradient>
<radialGradient id="paint21_radial_202_1265" cx="0" cy="0" r="1" gradientUnits="userSpaceOnUse" gradientTransform="translate(11.5016 20.2123) scale(18.4078 12.7631)">
<stop offset="0.2673" stop-color="#E0C66C"/>
<stop offset="0.3448" stop-color="#D8AB4B"/>
<stop offset="0.4708" stop-color="#CF8B24"/>
<stop offset="0.6297" stop-color="#CF8B24"/>
<stop offset="0.8148" stop-color="#353736"/>
<stop offset="1" stop-color="#222423"/>
</radialGradient>
<radialGradient id="paint22_radial_202_1265" cx="0" cy="0" r="1" gradientUnits="userSpaceOnUse" gradientTransform="translate(2.88004 28.9288) scale(6.86915 4.91313)">
<stop offset="0.2673" stop-color="#E0C66C"/>
<stop offset="0.3448" stop-color="#D8AB4B"/>
<stop offset="0.4708" stop-color="#CF8B24"/>
<stop offset="0.6297" stop-color="#CF8B24"/>
<stop offset="0.8148" stop-color="#353736"/>
<stop offset="1" stop-color="#222423"/>
</radialGradient>
<radialGradient id="paint23_radial_202_1265" cx="0" cy="0" r="1" gradientUnits="userSpaceOnUse" gradientTransform="translate(4.32339 16.3404) scale(12.8333 9.17823)">
<stop offset="0.2673" stop-color="#E0C66C"/>
<stop offset="0.3448" stop-color="#D8AB4B"/>
<stop offset="0.4708" stop-color="#CF8B24"/>
<stop offset="0.6297" stop-color="#CF8B24"/>
<stop offset="0.8148" stop-color="#353736"/>
<stop offset="1" stop-color="#222423"/>
</radialGradient>
<clipPath id="clip0_202_1265">
<rect width="140.417" height="40" fill="white"/>
</clipPath>
</defs>
</svg>
