<svg xmlns="http://www.w3.org/2000/svg" viewBox="0 0 655 436.32"><defs><style>.cls-1{fill:#00b2e3;}.cls-2{fill:#002856;}.cls-3{fill:#826040;}</style></defs><g id="Слой_2" data-name="Слой 2"><g id="Home"><path class="cls-1" d="M25.49,387.61c-5.65,0-9.39-2.27-9.39-9.84V331.5c0-3.12.27-7.55,4-11.33H3.86c3.76,3.78,4,8.21,4,11.33v52.12c0,3.13-.27,7.55-4,11.34h33.6a13.28,13.28,0,0,1,3.66.43,3.91,3.91,0,0,1,1.78,1.2V367h-.19c-3.11,11.25-5.36,20.65-17.22,20.65"/><path class="cls-1" d="M403.23,320.17H387c3.75,3.79,4,8.2,4,11.34v52.1c0,3.14-.27,7.56-4,11.35h16.27c-3.74-3.79-4-8.21-4-11.35v-52.1c0-3.14.29-7.55,4-11.34"/><path class="cls-1" d="M226.79,387.61c-6.16,0-12.15-1.32-12.15-8.88V360.48a52.94,52.94,0,0,1,8.76-.54c7.69,0,10.73,1,14.12,7.22V345.24c-3.39,5.71-6.43,6.69-14.12,6.69a55.39,55.39,0,0,1-8.76-.52v-14.8c0-7.8,3.22-9.1,11.8-9.1,10.82,0,16.26,3.14,20,15.13v-24.1c-.82.87-2.06,1.63-5.46,1.63H202.41c3.75,3.78,4,8.21,4,11.33v19.59a1.41,1.41,0,0,0-.93.41L202,355.11a1.46,1.46,0,0,0,0,2l3.48,3.6a1.31,1.31,0,0,0,.93.4v22.54c0,3.13-.26,7.55-4,11.34H242.7a13.08,13.08,0,0,1,3.65.43,4,4,0,0,1,1.81,1.2V371.18H248c-3,12.21-9.66,16.43-21.19,16.43"/><path class="cls-1" d="M501.77,387.61c-6.15,0-12.14-1.32-12.14-8.88V360.48a53.07,53.07,0,0,1,8.77-.54c7.68,0,10.7,1,14.1,7.22V345.24c-3.4,5.71-6.42,6.69-14.1,6.69a55.52,55.52,0,0,1-8.77-.52v-14.8c0-7.8,3.21-9.1,11.8-9.1,10.81,0,16.26,3.14,20,15.13v-24.1c-.83.87-2.07,1.63-5.48,1.63H477.41c3.73,3.78,4,8.21,4,11.33v19.59a1.27,1.27,0,0,0-.92.41L477,355.11a1.46,1.46,0,0,0,0,2l3.51,3.6a1.22,1.22,0,0,0,.92.4v22.54c0,3.13-.27,7.55-4,11.34h40.28a13.28,13.28,0,0,1,3.66.43,4,4,0,0,1,1.79,1.2V371.18H523c-3,12.21-9.66,16.43-21.19,16.43"/><path class="cls-1" d="M582.78,379.27c-.43-8.43-1.33-19.44-11.07-22V357c7.58-1.17,12.33-8.33,12.33-17.49,0-14.28-9.2-20-23.4-20-3.86,0-8.69.66-13.5.66a68.25,68.25,0,0,1-9.55-.66c3.32,2.93,4,6.82,4,15.13v16.68l-.24.18-3.47,3.61a1.42,1.42,0,0,0,0,2l3.47,3.6a1.41,1.41,0,0,0,.24.2v22.74c0,3.13-.27,7.55-4,11.35h16.25c-3.76-3.8-4-8.22-4-11.35V360.69h10c11.87,0,13.84,9.5,14.19,17.63.72,15.55.91,16.65,4.46,16.65H588c-4.19-3.14-5-10.6-5.26-15.7M559.91,352.7H549.82V334.86c0-5,2.6-7.35,10.9-7.35,9.66,0,14.56,2.71,14.56,11.78,0,7.23-3.29,13.41-15.37,13.41"/><path class="cls-1" d="M185.6,341.1a1.23,1.23,0,0,0-.84-.38V306.94c0,7.27.26,2.84,4-.95H172.5c3.75,3.79,4,8.22,4,11.33v23.56c-4.56.45-9.1.65-13.66.65-3.83,0-9.38-.31-13.32-.65V317.32c0-3.11.26-7.54,4-11.33H137.3c3.76,3.79,4,8.22,4,.95v33.78a1.26,1.26,0,0,0-1,.38l-3.49,3.61a1.47,1.47,0,0,0,0,2l3.49,3.61a1.31,1.31,0,0,0,1,.4V373.2c0,13.55-.26,18-4,21.77h16.26c-3.76-3.8-4-8.22-4-11.36V350.18c3.94-.43,9.49-.64,13.32-.64,4.56,0,9.1.21,13.66.64v33.43c0,3.14-.27,7.56-4,11.36h16.25c-3.73-3.8-4-8.22-4-21.77V350.68a1.35,1.35,0,0,0,.84-.4l3.47-3.61a1.41,1.41,0,0,0,0-2Z"/><path class="cls-1" d="M369,351.5a1.27,1.27,0,0,0-.62-.36V331.5c0-3.12.27-7.55,4-11.33H356.17c3.75,3.78,4,8.21,4,11.33v19.79c-4.54.43-9.12.64-13.66.64-3.84,0-9.39-.3-13.32-.64V331.5c0-3.12.27-7.55,4-11.33H321c3.75,3.78,4,8.21,4,11.33v19.64a1.26,1.26,0,0,0-1.27.36l-3.48,3.61a1.44,1.44,0,0,0,0,2l3.48,3.6A1.28,1.28,0,0,0,325,361v22.58c0,3.12-.27,7.55-4,11.34h16.24c-3.74-3.79-4-8.22-4-11.34v-23c3.93-.44,9.48-.65,13.32-.65,4.54,0,9.12.21,13.66.65v23c0,3.12-.27,7.55-4,11.34h16.26c-3.74-3.79-4-8.22-4-11.34V361a1.27,1.27,0,0,0,.62-.36l3.47-3.6a1.42,1.42,0,0,0,0-2Z"/><path class="cls-1" d="M105.16,375.83a1.39,1.39,0,0,0,0-1.95l-3.47-3.6a1.34,1.34,0,0,0-.75-.39L89.2,326.65a14.48,14.48,0,0,1-.53-3.56,8,8,0,0,1,1.07-2.92H74.66a7.11,7.11,0,0,1,.87,3.56,19.49,19.49,0,0,1-.79,4.22L62.27,369.86a1.34,1.34,0,0,0-1.09.42l-3.48,3.6a1.39,1.39,0,0,0,0,1.95l2.12,2.2c-1.68,5.57-3.89,12-7.34,16.93H68.4c-1.35-2.51-2.35-4.1-2.35-7.14a16.12,16.12,0,0,1,.73-4.84L68,378.41h9.13l3.14,3.24a2,2,0,0,0,2.8,0l3.13-3.24h8.87l1.06,5.53a27.49,27.49,0,0,1,.63,4.54c0,2.38-1.26,5.61-2.59,6.48h16.08c-3.53-4.84-5.46-10.91-7.16-17Zm-19.89-5.52-2.16-2.26a1.93,1.93,0,0,0-2.8,0l-2.24,2.32c-2.57,0-5.16-.21-7.72-.38l11.53-40.53h.27L92.69,370c-2.48.12-4.94.23-7.42.32"/><path class="cls-1" d="M655,395c-3.38-4.61-5.29-10.38-6.94-16.21l2.83-2.92a1.43,1.43,0,0,0,0-1.95l-3.5-3.6a1.26,1.26,0,0,0-1.7-.16l-11.77-43.47a13.71,13.71,0,0,1-.54-3.58,8,8,0,0,1,1.07-2.9H619.34a6.91,6.91,0,0,1,.91,3.56,19.25,19.25,0,0,1-.82,4.22L606.89,370.1a1.25,1.25,0,0,0-1.68.18l-3.48,3.6a1.41,1.41,0,0,0,0,1.95l2.65,2.75c-1.68,5.41-3.84,11.61-7.19,16.38H613.1c-1.35-2.51-2.31-4.1-2.31-7.14a16.3,16.3,0,0,1,.69-4.84l1.26-4.57h8.32l3.13,3.25a2,2,0,0,0,2.79,0l3.13-3.25h9.69l1.07,5.53a28.6,28.6,0,0,1,.63,4.54c0,2.38-1.27,5.61-2.59,6.48Zm-25.8-24.63L627,368.05a1.92,1.92,0,0,0-2.79,0L622,370.36c-2.3-.07-4.62-.22-6.89-.37l11.51-40.53h.29L637.39,370c-2.73.13-5.48.26-8.19.34"/><path class="cls-1" d="M310.46,329.08a4.2,4.2,0,0,1-4.51-1.37,10.75,10.75,0,0,0-.51-1c-3.48-6.21-9.67-9.54-19.23-9.39-18.38.26-23.11,16.54-23.79,33.95a1.36,1.36,0,0,0-1.1.4l-3.7,3.85a2.14,2.14,0,0,0,0,2.49l3.7,3.84a1.38,1.38,0,0,0,1.1.43c.68,17.37,5.41,33.63,23.79,33.93,9.56.14,15.75-3.2,19.23-9.41a10.59,10.59,0,0,0,.51-1,4.12,4.12,0,0,1,4.51-1.38L297,362.94c1.45,5.56,2.08,10.94,1.41,15.31-1.4,5.87-4.84,10.11-12.1,10-11.68-.16-14-12.2-14.21-27.87,0-.62,0-1.27,0-1.94s0-1.15,0-1.71,0-1.09,0-1.66,0-1.34,0-1.94c.18-15.69,2.53-27.71,14.21-27.89,7.26-.12,10.7,4.11,12.1,10,.67,4.4,0,9.77-1.41,15.31Z"/><path class="cls-1" d="M465.55,329.08a4.2,4.2,0,0,1-4.51-1.37,10.43,10.43,0,0,0-.5-1c-3.49-6.21-9.69-9.54-19.27-9.39-18.36.26-23.08,16.54-23.78,33.95a1.34,1.34,0,0,0-1.08.4l-3.7,3.85a2.18,2.18,0,0,0,0,2.49l3.7,3.84a1.37,1.37,0,0,0,1.08.43c.7,17.37,5.42,33.63,23.78,33.93,9.58.14,15.78-3.2,19.27-9.41a10.25,10.25,0,0,0,.5-1,4.12,4.12,0,0,1,4.51-1.38l-13.47-21.46c1.45,5.56,2.07,10.94,1.42,15.31-1.42,5.87-4.82,10.11-12.1,10-11.69-.16-14-12.2-14.21-27.87,0-.62,0-1.27,0-1.94s0-1.15,0-1.71,0-1.09,0-1.66,0-1.34,0-1.94c.16-15.69,2.52-27.71,14.21-27.89,7.28-.12,10.68,4.11,12.1,10,.65,4.4,0,9.77-1.42,15.31Z"/><path class="cls-2" d="M39.7,363.5h-.17a.66.66,0,0,0-.64.5l-.3,1c-3,10.67-5.31,19.11-16.31,19.11-6.11,0-8.71-2.74-8.71-9.17V328.71c0-3.46.46-7.46,3.84-10.87a.65.65,0,0,0,.14-.72.66.66,0,0,0-.62-.42H.66a.67.67,0,0,0-.62.42.71.71,0,0,0,.15.72C3.55,321.23,4,325.08,4,328.71v52.1c0,3.47-.45,7.48-3.82,10.89a.7.7,0,0,0-.15.72.69.69,0,0,0,.62.42h33.6a13.33,13.33,0,0,1,3.41.39,3.19,3.19,0,0,1,1.52,1,.66.66,0,0,0,.51.25,2,2,0,0,0,.24,0,.66.66,0,0,0,.44-.64V364.16a.66.66,0,0,0-.68-.66"/><path class="cls-2" d="M396.68,380.81v-52.1c0-3.47.46-7.48,3.84-10.87a.67.67,0,0,0-.48-1.14H383.77a.66.66,0,0,0-.62.42.71.71,0,0,0,.15.72c3.37,3.38,3.82,7.22,3.82,10.87v52.1c0,3.65-.45,7.5-3.82,10.89a.69.69,0,0,0-.15.72.69.69,0,0,0,.62.42h16.32a.67.67,0,0,0,.66-.68.68.68,0,0,0-.33-.58c-3.28-3.38-3.74-7.34-3.74-10.77"/><path class="cls-2" d="M245,367.71h-.18a.66.66,0,0,0-.66.51c-2.71,11.3-8.67,15.91-20.52,15.91-8.06,0-11.49-2.44-11.49-8.17v-17.7a54.92,54.92,0,0,1,8.1-.43c7.57,0,10.28.9,13.51,6.88a.7.7,0,0,0,.77.32.67.67,0,0,0,.52-.64V342.45a.7.7,0,0,0-.52-.66.66.66,0,0,0-.75.32c-3.25,5.49-6.09,6.35-13.53,6.35a51.23,51.23,0,0,1-8.1-.46V333.79c0-7.24,2.64-8.39,11.14-8.39,11.19,0,15.89,3.54,19.35,14.65a.69.69,0,0,0,1.34-.2V315.76a.67.67,0,0,0-1.17-.46c-.68.74-1.75,1.4-5,1.4H199.22a.66.66,0,0,0-.63.42.67.67,0,0,0,.15.73c3.36,3.37,3.83,7.22,3.83,10.86v19a2.78,2.78,0,0,0-.76.47l-3.47,3.64a2.06,2.06,0,0,0,0,2.88l3.47,3.61a2,2,0,0,0,.76.49v22c0,3.47-.46,7.48-3.83,10.89a.66.66,0,0,0-.15.73.69.69,0,0,0,.63.41h40.27a13.72,13.72,0,0,1,3.45.39,3.3,3.3,0,0,1,1.49,1,.66.66,0,0,0,.53.25,1,1,0,0,0,.22,0,.69.69,0,0,0,.46-.64v-25.4a.67.67,0,0,0-.68-.67"/><path class="cls-2" d="M519.93,367.71h-.16a.66.66,0,0,0-.65.51c-2.74,11.3-8.69,15.91-20.54,15.91-8,0-11.47-2.44-11.47-8.17v-17.7a56.1,56.1,0,0,1,8.09-.43c7.59,0,10.28.9,13.5,6.88a.69.69,0,0,0,1.28-.32V342.45a.69.69,0,0,0-.49-.66.66.66,0,0,0-.76.32c-3.26,5.49-6.1,6.35-13.53,6.35a50.86,50.86,0,0,1-8.09-.46V333.79c0-7.24,2.64-8.39,11.12-8.39,11.19,0,15.9,3.54,19.38,14.65a.66.66,0,0,0,.73.46.68.68,0,0,0,.57-.66V315.76a.67.67,0,0,0-.42-.64.68.68,0,0,0-.74.18c-.68.74-1.75,1.4-5,1.4H474.21a.65.65,0,0,0-.62.42.66.66,0,0,0,.12.73c3.39,3.38,3.85,7.4,3.85,10.86v19a2.83,2.83,0,0,0-.76.49l-3.49,3.63a2.08,2.08,0,0,0,0,2.89l3.49,3.61a1.65,1.65,0,0,0,.76.49v22c0,3.47-.46,7.47-3.85,10.89a.65.65,0,0,0-.12.73.67.67,0,0,0,.62.41h40.28a13.59,13.59,0,0,1,3.42.39,3.33,3.33,0,0,1,1.51,1,.64.64,0,0,0,.51.26.79.79,0,0,0,.23,0,.66.66,0,0,0,.45-.64v-25.4a.66.66,0,0,0-.68-.67"/><path class="cls-2" d="M580.28,376.47c-.39-7-1-18.32-9.69-22,6.61-2,10.93-8.9,10.93-17.7,0-13.53-8.33-20.68-24.09-20.68-1.83,0-3.87.14-6,.29-2.42.18-4.92.36-7.46.36a60.32,60.32,0,0,1-8.1-.49c-.49-.06-.93-.12-1.39-.15a.6.6,0,0,0-.67.39.63.63,0,0,0,.17.77c2.93,2.61,3.78,5.88,3.78,14.63v16.34l-.05,0-3.47,3.62a2.08,2.08,0,0,0,0,2.89l3.51,3.66a0,0,0,0,1,0,0v22.41c0,3.46-.47,7.47-3.82,10.88a.62.62,0,0,0-.14.72.65.65,0,0,0,.62.42h16.29a.68.68,0,0,0,.67-.67.67.67,0,0,0-.35-.59c-3.26-3.38-3.69-7.34-3.69-10.76V358.57h9.33c11.32,0,13.17,9.08,13.52,17,.72,15.32.81,17.28,5.14,17.28h9.56a.63.63,0,0,0,.63-.47.68.68,0,0,0-.21-.75c-3.94-2.92-4.75-10.05-5-15.15m-8.88-40c0,8.56-4.79,12.72-14.67,12.72h-9.42V332.06c0-4.11,1.69-6.66,10.22-6.66,10.12,0,13.87,3,13.87,11.11"/><path class="cls-2" d="M182.89,337.83a2.22,2.22,0,0,0-.69-.47V308.63c.36-.15.63-.6,1.11-1.37a21.12,21.12,0,0,1,2.73-3.58.7.7,0,0,0,.15-.75.66.66,0,0,0-.63-.4H169.31a.67.67,0,0,0-.63.4.72.72,0,0,0,.15.75c3.37,3.37,3.81,7.21,3.81,10.87v22.93c-4.26.38-8.61.58-13,.58-3.67,0-8.81-.3-12.63-.59V314.55c0-3.47.45-7.47,3.83-10.87a.67.67,0,0,0,.13-.75.65.65,0,0,0-.6-.4H134.09a.63.63,0,0,0-.6.4.68.68,0,0,0,.14.75,21.81,21.81,0,0,1,2.74,3.58c.46.77.74,1.21,1.09,1.37v28.68a1.72,1.72,0,0,0-.85.52l-3.49,3.62a2,2,0,0,0,0,2.89l3.5,3.62a1.85,1.85,0,0,0,.84.5V370.4c0,13.9-.38,17.8-3.83,21.3a.62.62,0,0,0-.14.72.65.65,0,0,0,.6.42h16.3a.67.67,0,0,0,.68-.68.64.64,0,0,0-.34-.58c-3.26-3.38-3.71-7.34-3.71-10.76V348c4-.39,9.26-.58,12.63-.58,4.28,0,8.66.2,13,.59v32.82c0,3.64-.44,7.49-3.81,10.88a.66.66,0,0,0-.15.72.69.69,0,0,0,.63.42h16.25a.68.68,0,0,0,.63-.42.64.64,0,0,0-.15-.72c-3.45-3.5-3.84-7.4-3.84-21.3v-22a1.71,1.71,0,0,0,.69-.46l3.49-3.61a2.1,2.1,0,0,0,0-2.88Z"/><path class="cls-2" d="M366.34,358.35l3.48-3.61a2.1,2.1,0,0,0,0-2.89l-3.47-3.6a2,2,0,0,0-.45-.36V328.72c0-3.64.46-7.5,3.83-10.88a.66.66,0,0,0,.12-.72.64.64,0,0,0-.6-.42H353a.71.71,0,0,0-.64.42.69.69,0,0,0,.15.72c3.35,3.38,3.8,7.23,3.8,10.88v19.16c-4.38.4-8.74.58-13,.58-3.62,0-8.83-.29-12.63-.58V328.72c0-3.47.45-7.49,3.8-10.88a.67.67,0,0,0,.15-.73.69.69,0,0,0-.63-.41H317.78a.68.68,0,0,0-.62.42.65.65,0,0,0,.15.72c3.36,3.38,3.81,7.23,3.81,10.88v18.95a1.74,1.74,0,0,0-1.06.57l-3.49,3.62a2.06,2.06,0,0,0,0,2.88l3.49,3.61a1.79,1.79,0,0,0,1.06.57v21.89c0,3.47-.44,7.48-3.81,10.89a.66.66,0,0,0-.15.73.7.7,0,0,0,.62.41h16.28a.67.67,0,0,0,.67-.67.7.7,0,0,0-.31-.59c-3.27-3.38-3.72-7.34-3.72-10.77V358.4c4-.39,9.13-.57,12.63-.57,4.33,0,8.7.18,13,.58v22.4c0,3.65-.45,7.5-3.8,10.89a.7.7,0,0,0-.15.73.73.73,0,0,0,.64.41h16.26a.68.68,0,0,0,.48-1.14c-3.38-3.41-3.83-7.42-3.83-10.89V358.69a1.48,1.48,0,0,0,.44-.34"/><path class="cls-2" d="M100.69,375.35l1.77-1.85a2.06,2.06,0,0,0,0-2.88L99,367a1.75,1.75,0,0,0-.68-.46L86.67,323.69a13.15,13.15,0,0,1-.52-3.41,4.5,4.5,0,0,1,.59-1.73,9.65,9.65,0,0,0,.43-.92.64.64,0,0,0,0-.63.66.66,0,0,0-.57-.3H71.45a.67.67,0,0,0-.57.3.73.73,0,0,0,0,.64l.12.26a6,6,0,0,1,.72,3,18.9,18.9,0,0,1-.78,4L58.55,366.43a2,2,0,0,0-1.06.58L54,370.62a2.07,2.07,0,0,0,0,2.88l1.86,1.92c-1.7,5.5-3.85,11.68-7.14,16.36a.68.68,0,0,0-.05.7.66.66,0,0,0,.59.36h16a.66.66,0,0,0,.65-.67.61.61,0,0,0-.18-.47l-.17-.32c-1.2-2.23-2-3.7-2-6.36a15.46,15.46,0,0,1,.69-4.67l1.12-4.06H73.7l2.93,3a2.65,2.65,0,0,0,3.77,0l2.94-3h8l1,5a28.64,28.64,0,0,1,.6,4.33c0,2.17-1.18,5.22-2.29,5.92a.7.7,0,0,0-.28.77.68.68,0,0,0,.66.48H107.1a.66.66,0,0,0,.54-1.06c-3.49-4.8-5.41-11-7-16.43m-12-8.79c-2.1.11-4.18.2-6.27.29l-2-2.07a2.66,2.66,0,0,0-3.76,0l-2,2.13c-2.23-.06-4.51-.2-6.55-.34L78.8,328.73Z"/><path class="cls-2" d="M652.35,391.78c-3.3-4.52-5.18-10.15-6.74-15.61l2.57-2.67a2.1,2.1,0,0,0,0-2.88L644.69,367a2,2,0,0,0-1.72-.56l-11.61-42.74a13.34,13.34,0,0,1-.52-3.4,4.63,4.63,0,0,1,.58-1.73,5.61,5.61,0,0,0,.45-.92.67.67,0,0,0-.06-.63.65.65,0,0,0-.56-.3h-15.1a.67.67,0,0,0-.57.3.69.69,0,0,0,0,.64l.11.23a6,6,0,0,1,.72,3.06,17.36,17.36,0,0,1-.78,4l-12.34,41.45a2,2,0,0,0-1.73.59l-3.47,3.61a2,2,0,0,0,0,2.88l2.36,2.45c-1.62,5.29-3.73,11.24-6.95,15.83a.68.68,0,0,0-.07.7.7.7,0,0,0,.6.36h15.94a.68.68,0,0,0,.67-.67.6.6,0,0,0-.21-.47l-.17-.35c-1.19-2.22-2-3.68-2-6.33a16,16,0,0,1,.69-4.67l1.13-4.06h7.52l2.92,3a2.65,2.65,0,0,0,3.77,0l2.94-3h8.84l1,5.16a25.88,25.88,0,0,1,.59,4.22c0,2.17-1.18,5.22-2.29,5.92a.72.72,0,0,0-.29.77.71.71,0,0,0,.66.48h16.07a.65.65,0,0,0,.6-.37.66.66,0,0,0,0-.69m-19-25.22q-3.52.17-7.08.3l-2-2.08a2.68,2.68,0,0,0-3.77,0l-2,2.11c-1.92,0-3.87-.19-5.76-.32l10.78-37.85Z"/><path class="cls-2" d="M294.68,360.27a.73.73,0,0,0-.89-.27.71.71,0,0,0-.41.84c1.53,5.85,2,11,1.4,15-1.52,6.36-5.15,9.45-11.12,9.45h-.26c-11.61-.19-13.36-13.17-13.5-27.16v-7.26c.14-14,1.89-27,13.5-27.17h.27c6,0,9.59,3.09,11.11,9.39.61,4,.13,9.15-1.4,15a.71.71,0,0,0,1.3.55l13.46-21.46a.71.71,0,0,0,0-.79.73.73,0,0,0-.75-.28,4.51,4.51,0,0,1-1.22.16,3.11,3.11,0,0,1-2.51-1.22,9.19,9.19,0,0,0-.5-1c-3.65-6.48-10.11-9.74-19.24-9.74h-.64c-15.42.24-23.42,11.36-24.45,34a2,2,0,0,0-.91.57l-3.72,3.84a2.2,2.2,0,0,0-.61,1.73,2.22,2.22,0,0,0,.62,1.76L257.9,360a2,2,0,0,0,.91.54c1,22.68,9,33.81,24.45,34h.68c9.11,0,15.55-3.29,19.25-9.83a9.58,9.58,0,0,0,.45-.94,3.18,3.18,0,0,1,2.54-1.2,4.33,4.33,0,0,1,1.19.16h.21a.69.69,0,0,0,.7-.71.71.71,0,0,0-.24-.54Z"/><path class="cls-2" d="M449.75,360.27a.72.72,0,0,0-.89-.27.73.73,0,0,0-.41.84c1.54,5.83,2,11,1.42,15-1.53,6.36-5.16,9.45-11.14,9.45h-.24c-11.63-.19-13.37-13.17-13.52-27.16v-.26c0-.55,0-1.12,0-1.69l0-1.68,0-1.66c0-.61,0-1.19,0-1.75v-.22c.15-14,1.89-27,13.52-27.17h.28c6,0,9.58,3.09,11.09,9.39.6,4,.13,9.18-1.41,15a.72.72,0,0,0,.41.83.7.7,0,0,0,.89-.28l13.48-21.46a.71.71,0,0,0,0-.79.72.72,0,0,0-.75-.28,4.3,4.3,0,0,1-1.2.16,3.07,3.07,0,0,1-2.51-1.22c-.14-.27-.28-.59-.5-1-3.65-6.48-10.12-9.74-19.26-9.74h-.63c-15.44.24-23.44,11.36-24.46,34a2.1,2.1,0,0,0-.92.57l-3.72,3.84a2.24,2.24,0,0,0-.58,1.73,2.27,2.27,0,0,0,.58,1.76L413,360a1.93,1.93,0,0,0,.92.56c1,22.68,9,33.81,24.46,34H439c9.1,0,15.57-3.29,19.22-9.77.22-.38.36-.71.5-1a3.14,3.14,0,0,1,2.54-1.2,4.37,4.37,0,0,1,1.18.16h.18a.7.7,0,0,0,.73-.71.79.79,0,0,0-.24-.54Z"/><path class="cls-3" d="M37,429.15c0,2.3,0,4,.14,5,.09.71.25,1.16,1,1.27a8.33,8.33,0,0,0,1.22.08c.3,0,.42.15.42.25s-.17.26-.55.26c-1.56,0-3.32-.09-4-.09S33,436,32.11,436c-.34,0-.51-.06-.51-.26s.09-.25.37-.25a3.47,3.47,0,0,0,.87-.08c.5-.11.64-.56.73-1.27.12-1,.12-2.79.12-5.09v-4.22c0-3.63,0-4.31,0-5.07s-.27-1.1-1.07-1.29a4.8,4.8,0,0,0-1-.09c-.22,0-.42-.08-.42-.24s.2-.23.59-.23c1.27,0,2.85.05,3.55.05,1,0,6.45,0,7,0a5.35,5.35,0,0,0,1-.12c.14,0,.26-.13.39-.13a.22.22,0,0,1,.18.22c0,.17-.12.45-.21,1.07,0,.26-.07,1.66-.1,1.94s-.08.49-.26.49-.3-.11-.3-.4a1.88,1.88,0,0,0-.14-.9,1.71,1.71,0,0,0-1.59-.74l-4.1-.07c-.14,0-.23.06-.23.33v5.8c0,.13,0,.22.17.22l3.46,0c.43,0,.78,0,1.14,0a1.24,1.24,0,0,0,1-.43c.14-.14.2-.23.33-.23s.16.07.16.21-.12.79-.2,1.56c-.07.47-.09,1.57-.09,1.74s0,.53-.29.53-.22-.16-.22-.33a2.35,2.35,0,0,0-.16-.75,1.25,1.25,0,0,0-1.18-.85c-.63-.06-3.55-.09-4-.09-.12,0-.17,0-.17.19Z"/><path class="cls-3" d="M53.31,424.84c0-3.63,0-4.31,0-5.07s-.31-1.1-.85-1.26a3.26,3.26,0,0,0-.9-.12c-.25,0-.4-.05-.4-.28s.22-.19.61-.19c.93,0,2.6.05,3.31.05s2.22-.05,3.18-.05c.31,0,.51.05.51.19s-.15.28-.4.28a4,4,0,0,0-.73.09c-.67.12-.88.45-.93,1.29s0,1.44,0,5.07v4.22c0,2.3,0,4.22.1,5.24.09.64.27,1,1,1.12a8.89,8.89,0,0,0,1.28.08c.28,0,.38.15.38.25s-.19.26-.48.26c-1.63,0-3.31-.09-4-.09s-2.24.09-3.24.09c-.31,0-.48-.09-.48-.26s.09-.25.4-.25a3.56,3.56,0,0,0,.88-.08c.5-.11.64-.45.72-1.15.12-1,.12-2.91.12-5.21Z"/><path class="cls-3" d="M70.54,432.75c0,1.86.36,2.41.84,2.59a4.25,4.25,0,0,0,1.29.17c.29,0,.42.09.42.24s-.22.25-.56.25c-1.61,0-2.75-.07-3.2-.07-.23,0-1.41.07-2.68.07-.34,0-.56,0-.56-.25s.17-.24.4-.24a4.72,4.72,0,0,0,1.11-.12c.65-.17.75-.81.77-2.9l.22-14.18c0-.48.16-.82.42-.82s.65.36,1.07.79,4,4.12,7.64,7.63c1.68,1.66,5,5,5.34,5.37h.11l-.26-10.63c0-1.46-.24-1.89-.84-2.12a4.12,4.12,0,0,0-1.29-.14c-.31,0-.39-.11-.39-.24s.25-.23.62-.23c1.28,0,2.62.05,3.14.05.28,0,1.21-.05,2.42-.05.35,0,.56,0,.56.23s-.13.24-.41.24a2.35,2.35,0,0,0-.76.09c-.69.19-.88.62-.9,2l-.28,15.08c0,.54-.21.76-.39.76a1.47,1.47,0,0,1-1-.5c-1.56-1.45-4.64-4.4-7.24-6.9s-5.31-5.49-5.79-5.91h-.09Z"/><path class="cls-3" d="M96.89,424.84c0-3.63,0-4.31,0-5.07s-.27-1.06-1.08-1.29a4.8,4.8,0,0,0-1-.09c-.24,0-.42-.08-.42-.24s.2-.23.56-.23c1.3,0,2.87.05,3.58.05s6.27,0,6.76,0,.83-.12,1-.14a2.73,2.73,0,0,1,.4-.11c.14,0,.16.11.16.22a11.26,11.26,0,0,0-.18,1.54c0,.26-.09,1.3-.15,1.59,0,.11-.09.39-.28.39s-.21-.11-.21-.31a2.49,2.49,0,0,0-.16-.88c-.2-.42-.39-.76-1.64-.87-.42,0-3.37-.1-3.87-.1-.12,0-.17.09-.17.21v5.93c0,.13,0,.24.17.24.56,0,3.76,0,4.32-.06a2,2,0,0,0,1.19-.35c.19-.18.28-.31.39-.31a.22.22,0,0,1,.21.23c0,.14-.06.55-.21,1.77,0,.46-.11,1.42-.11,1.59s0,.54-.25.54-.23-.09-.23-.2,0-.56-.08-.88-.45-.84-1.38-.92c-.45-.06-3.25-.11-3.89-.11-.1,0-.13.11-.13.25v1.92c0,.81,0,2.84,0,3.54.05,1.63.81,2,3.34,2a6.68,6.68,0,0,0,2.34-.31c.62-.28.89-.8,1.07-1.77.06-.26.11-.36.29-.36s.22.3.22.55a15.11,15.11,0,0,1-.35,2.65c-.16.61-.38.61-1.31.61-1.86,0-3.35,0-4.56-.08s-2.15-.06-2.88-.06c-.26,0-.81,0-1.41,0s-1.2.06-1.71.06c-.31,0-.48-.09-.48-.26s.08-.25.4-.25a3.37,3.37,0,0,0,.87-.08c.51-.11.65-.56.73-1.27.12-1,.12-2.9.12-5.09Z"/><path class="cls-3" d="M131.06,430c-.15,0-.18,0-.22.16l-1.34,3.24a4.73,4.73,0,0,0-.36,1.47c0,.42.22.68,1,.68h.38c.31,0,.37.09.37.24s-.14.26-.4.26c-.82,0-2-.08-2.75-.08-.25,0-1.59.08-2.87.08-.31,0-.46-.06-.46-.26s.1-.24.29-.24l.72,0c1.14-.17,1.56-.9,2.07-2.12l6.47-14.93c.29-.68.48-1,.73-1s.48.23.74.77c.59,1.31,4.7,11,6.29,14.63,1,2.17,1.68,2.49,2.11,2.56a5.69,5.69,0,0,0,.94.09c.22,0,.32.08.32.24s-.13.26-1.06.26-2.68,0-4.75-.06c-.45,0-.74,0-.74-.2s.07-.22.31-.24a.38.38,0,0,0,.23-.54l-1.92-4.85a.23.23,0,0,0-.25-.16Zm5.29-1.33c.11,0,.14-.05.11-.13l-2.33-6c0-.1,0-.24-.12-.24s-.11.14-.13.24l-2.41,6c-.06.11,0,.16.09.16Z"/><path class="cls-3" d="M167.12,434.41c0,.65,0,.68-.33.84a14.94,14.94,0,0,1-6,1.07c-6.07,0-11.45-2.77-11.45-9.36a8.86,8.86,0,0,1,4.33-7.83,12.42,12.42,0,0,1,6.67-1.55,27.44,27.44,0,0,1,4.39.39c.51.08,1.37.23,2,.26.27,0,.34.11.34.28a30,30,0,0,0-.18,3.93c0,.37-.13.54-.33.54s-.23-.12-.25-.31a3.23,3.23,0,0,0-.86-2,7.58,7.58,0,0,0-5.37-1.82,7,7,0,0,0-4.78,1.39c-1.38,1.14-2.28,2.9-2.28,5.83,0,5.15,3.31,8.89,8.6,8.89a4.16,4.16,0,0,0,1.76-.25.78.78,0,0,0,.47-.84v-2.2c0-1.18,0-2.07,0-2.81s-.29-1.07-1.08-1.29a4.75,4.75,0,0,0-.94-.09c-.23,0-.4-.12-.4-.25s.19-.23.53-.23c1.29,0,3.07.06,3.8.06s2.08-.06,2.9-.06c.33,0,.51,0,.51.23a.29.29,0,0,1-.31.25,4.22,4.22,0,0,0-.69.09c-.66.1-.92.46-.94,1.29s0,1.69,0,2.87Z"/><path class="cls-3" d="M178.27,424.84c0-3.63,0-4.31,0-5.07s-.29-1.06-1.07-1.29a5.1,5.1,0,0,0-1-.09c-.25,0-.41-.08-.41-.24s.18-.23.56-.23c1.3,0,2.88.05,3.58.05s6.28,0,6.75,0,.84-.12,1-.14a3,3,0,0,1,.39-.11c.14,0,.17.11.17.22a11,11,0,0,0-.2,1.54c0,.26-.08,1.3-.14,1.59,0,.11-.07.39-.27.39s-.2-.11-.2-.31a2.32,2.32,0,0,0-.17-.88c-.2-.42-.4-.76-1.64-.87-.43,0-3.38-.1-3.89-.1-.1,0-.16.09-.16.21v5.93c0,.13,0,.24.16.24.57,0,3.78,0,4.34-.06a2,2,0,0,0,1.19-.35c.18-.18.28-.31.39-.31a.2.2,0,0,1,.2.23c0,.14-.06.55-.2,1.77-.06.46-.11,1.42-.11,1.59s0,.54-.26.54-.22-.09-.22-.2,0-.56-.09-.88-.44-.84-1.37-.92c-.46-.06-3.27-.11-3.89-.11-.11,0-.14.11-.14.25v1.92c0,.81,0,2.84,0,3.54.06,1.63.82,2,3.34,2a6.77,6.77,0,0,0,2.35-.31c.62-.28.89-.8,1.07-1.77.05-.26.11-.36.28-.36s.22.3.22.55a15.12,15.12,0,0,1-.34,2.65c-.16.61-.39.61-1.32.61-1.86,0-3.35,0-4.55-.08s-2.15-.06-2.88-.06c-.28,0-.83,0-1.41,0s-1.2.06-1.71.06c-.31,0-.48-.09-.48-.26s.08-.25.39-.25a3.42,3.42,0,0,0,.87-.08c.52-.11.65-.56.74-1.27.11-1,.11-2.9.11-5.09Z"/><path class="cls-3" d="M198.14,424.83c0-3.62,0-4.3,0-5.06s-.28-1.06-1.06-1.29a5.07,5.07,0,0,0-1-.09c-.26,0-.42-.08-.42-.24s.2-.23.56-.23c1.29,0,2.87.05,3.58.05s2.53-.05,4-.05c3.09,0,7.24,0,9.95,2.73a8.37,8.37,0,0,1,2.34,6.08,9.28,9.28,0,0,1-2.7,6.66c-1.13,1.13-3.75,2.81-8.31,2.81-.91,0-2-.07-3-.13s-1.88-.14-2.5-.14l-1.41,0c-.59,0-1.2.06-1.72.06-.3,0-.46-.08-.46-.26s.07-.24.38-.24a3.55,3.55,0,0,0,.88-.09c.51-.11.65-.56.73-1.27.11-1,.11-2.9.11-5.09Zm3.31,2.66c0,2.53,0,4.35.06,4.83a4.32,4.32,0,0,0,.29,1.69c.31.45,1.3,1,3.24,1a7.79,7.79,0,0,0,5.4-1.63c1.59-1.33,2.12-3.46,2.12-5.95a7.76,7.76,0,0,0-2.32-5.95,9.93,9.93,0,0,0-6.92-2.29,5.28,5.28,0,0,0-1.52.18c-.24.07-.31.19-.31.46,0,.83,0,2.79,0,4.69Z"/><path class="cls-3" d="M238.4,424.83c0-3.62,0-4.3,0-5.06s-.28-1.06-1.07-1.29a4.88,4.88,0,0,0-1-.09c-.25,0-.43-.08-.43-.24s.2-.23.57-.23c1.29,0,2.86.05,3.36.05.86,0,3.1-.05,3.86-.05a8.61,8.61,0,0,1,4.71,1,4.17,4.17,0,0,1,1.74,3.29c0,1.78-1,3.35-3.43,5.28,2.2,2.72,3.94,4.89,5.44,6.37a4.58,4.58,0,0,0,2.64,1.58,2.18,2.18,0,0,0,.6.06.29.29,0,0,1,.3.25c0,.19-.17.25-.48.25h-2.37a5.34,5.34,0,0,1-2.7-.49c-1.07-.53-2-1.65-3.36-3.51-1-1.29-2-2.89-2.35-3.26a.56.56,0,0,0-.45-.17l-2.22-.05c-.11,0-.21.05-.21.19v.34c0,2.22.05,4.08.15,5.09.09.71.2,1.16,1,1.27a8.72,8.72,0,0,0,1.2.09.28.28,0,0,1,.31.25c0,.17-.19.25-.5.25-1.43,0-3.49-.08-3.85-.08s-2.06.08-3,.08c-.31,0-.49-.08-.49-.25s.1-.25.4-.25a3.41,3.41,0,0,0,.87-.09c.51-.11.65-.56.74-1.27.11-1,.11-2.9.11-5.09Zm3.14,1.87a.4.4,0,0,0,.24.42,6.68,6.68,0,0,0,1.88.23,2.5,2.5,0,0,0,1.75-.4,4.06,4.06,0,0,0,1.6-3.55c0-3.37-2.31-4.25-3.77-4.25a9.48,9.48,0,0,0-1.46.09.32.32,0,0,0-.24.33Z"/><path class="cls-3" d="M260.72,424.84c0-3.63,0-4.31,0-5.07s-.28-1.06-1.08-1.29a4.62,4.62,0,0,0-.95-.09q-.42,0-.42-.24c0-.18.17-.23.53-.23,1.33,0,3,.05,3.72.05s2.27-.05,3.17-.05c.37,0,.54.05.54.23s-.13.24-.39.24a3.83,3.83,0,0,0-.73.09c-.65.12-.85.45-.9,1.29s-.07,1.44-.07,5.07v3.34c0,3.5.69,4.85,1.89,5.8a5.26,5.26,0,0,0,6.46-.31c1.37-1.28,1.43-3.37,1.43-5.81v-3c0-3.63,0-4.31-.06-5.07s-.25-1.06-1-1.29a4.83,4.83,0,0,0-.91-.09c-.27,0-.42-.08-.42-.24s.17-.23.52-.23c1.26,0,2.92.05,2.94.05.29,0,1.95-.05,2.91-.05.33,0,.5.05.5.23s-.14.24-.43.24a3.83,3.83,0,0,0-.72.09c-.67.12-.85.45-.9,1.29s-.06,1.44-.06,5.07v2.56c0,2.67-.29,5.49-2.35,7.21a7.79,7.79,0,0,1-5.24,1.7c-1.3,0-3.87-.05-5.66-1.62-1.27-1.11-2.26-2.87-2.26-6.33Z"/><path class="cls-3" d="M287.89,418.11c.05-.39.27-.62.49-.62s.4.11.75.76l6.64,13.23,6.64-13.4c.19-.39.42-.59.64-.59s.48.26.57.76L305.87,433c.22,1.49.44,2.14,1.2,2.38a5.49,5.49,0,0,0,1.41.21c.23,0,.4.09.4.23s-.29.27-.65.27c-.62,0-4.13-.08-5.11-.14-.6,0-.73-.13-.73-.27s.11-.2.27-.27.2-.32.12-1l-1.38-10.33h-.08L296,434.63c-.57,1.12-.71,1.35-1,1.35s-.6-.47-1-1.21c-.59-1.1-2.55-4.75-2.84-5.43-.2-.45-1.66-3.35-2.48-5h-.07l-1.19,9.22a7.76,7.76,0,0,0-.1,1.14c0,.45.36.62.76.69a4.45,4.45,0,0,0,.89.13c.22,0,.4.09.4.23s-.24.27-.61.27c-1,0-2.16-.09-2.61-.09s-1.66.09-2.44.09c-.26,0-.47-.05-.47-.27s.15-.23.4-.23a4.23,4.23,0,0,0,.76-.06c.68-.08.9-1,1-1.83Z"/><path class="cls-3" d="M333.16,429.15c0,2.3,0,4,.14,5,.08.71.25,1.16,1,1.27a8.29,8.29,0,0,0,1.21.08c.31,0,.42.15.42.25s-.16.26-.54.26c-1.58,0-3.3-.09-4-.09s-2.22.09-3.15.09c-.33,0-.5-.06-.5-.26s.07-.25.36-.25a3.47,3.47,0,0,0,.87-.08c.51-.11.65-.56.72-1.27.12-1,.12-2.79.12-5.09v-4.22c0-3.63,0-4.31,0-5.07s-.28-1.1-1.06-1.29a5,5,0,0,0-1-.09c-.24,0-.43-.08-.43-.24s.19-.23.6-.23c1.26,0,2.83.05,3.54.05,1,0,6.44,0,7,0a5.35,5.35,0,0,0,1-.12c.14,0,.26-.13.4-.13s.17.11.17.22-.1.45-.21,1.07c0,.26-.07,1.66-.1,1.94s-.08.49-.26.49-.29-.11-.29-.4a2,2,0,0,0-.14-.9,1.74,1.74,0,0,0-1.6-.74l-4.1-.07c-.14,0-.22.06-.22.33v5.8c0,.13,0,.22.17.22l3.45,0c.43,0,.77,0,1.13,0a1.25,1.25,0,0,0,1-.43c.14-.14.19-.23.34-.23s.15.07.15.21-.11.79-.2,1.56c-.05.47-.1,1.57-.1,1.74s0,.53-.28.53-.22-.16-.22-.33a2.35,2.35,0,0,0-.16-.75,1.26,1.26,0,0,0-1.18-.85c-.63-.06-3.56-.09-4-.09-.12,0-.17,0-.17.19Z"/><path class="cls-3" d="M349.45,424.83c0-3.62,0-4.3,0-5.06s-.29-1.06-1.09-1.29a4.8,4.8,0,0,0-1-.09c-.25,0-.41-.08-.41-.24s.18-.23.55-.23c1.3,0,2.87.05,3.37.05.84,0,3.11-.05,3.87-.05a8.56,8.56,0,0,1,4.69,1,4.15,4.15,0,0,1,1.75,3.29c0,1.78-1,3.35-3.43,5.28,2.2,2.72,3.93,4.89,5.43,6.37a4.61,4.61,0,0,0,2.64,1.58,2.18,2.18,0,0,0,.59.06.28.28,0,0,1,.31.25c0,.19-.17.25-.48.25H363.9a5.36,5.36,0,0,1-2.71-.49c-1.07-.53-2-1.65-3.37-3.51-1-1.29-2-2.89-2.34-3.26a.58.58,0,0,0-.46-.17l-2.23-.05a.17.17,0,0,0-.18.19v.34c0,2.22,0,4.08.14,5.09.09.71.19,1.16.95,1.27a9,9,0,0,0,1.21.09.29.29,0,0,1,.31.25c0,.17-.2.25-.51.25-1.43,0-3.49-.08-3.85-.08s-2.05.08-3,.08c-.31,0-.49-.08-.49-.25s.1-.25.41-.25a3.27,3.27,0,0,0,.86-.09c.53-.11.65-.56.74-1.27.11-1,.11-2.9.11-5.09Zm3.16,1.87c0,.25.05.33.23.42a6.61,6.61,0,0,0,1.87.23,2.49,2.49,0,0,0,1.75-.4,4.06,4.06,0,0,0,1.61-3.55c0-3.37-2.32-4.25-3.78-4.25a9.33,9.33,0,0,0-1.45.09.29.29,0,0,0-.23.33Z"/><path class="cls-3" d="M370.15,427c0-4.1,2.87-9.38,10.39-9.38,6.24,0,10.12,3.46,10.12,8.95s-4,9.78-10.38,9.78c-7.21,0-10.13-5.11-10.13-9.35m16.82.44c0-5.29-3.18-8.56-7.17-8.56-2.77,0-6,1.47-6,7.38,0,4.92,2.81,8.81,7.48,8.81,1.74,0,5.68-.83,5.68-7.63"/><path class="cls-3" d="M401.1,418.11c.07-.39.3-.62.49-.62s.42.11.77.76L409,431.48l6.64-13.4c.2-.39.43-.59.65-.59s.48.26.57.76L419.09,433c.24,1.49.46,2.14,1.22,2.38a5.37,5.37,0,0,0,1.4.21c.23,0,.4.09.4.23s-.28.27-.64.27c-.62,0-4.15-.08-5.13-.14-.59,0-.73-.13-.73-.27s.11-.2.27-.27.21-.32.12-1l-1.38-10.33h-.09l-5.3,10.58c-.57,1.12-.71,1.35-1,1.35s-.59-.47-1-1.21c-.59-1.1-2.57-4.75-2.85-5.43-.19-.45-1.65-3.35-2.48-5h-.07l-1.18,9.22a6.55,6.55,0,0,0-.09,1.14c0,.45.34.62.76.69a4.21,4.21,0,0,0,.87.13c.22,0,.4.09.4.23s-.24.27-.6.27c-1.05,0-2.17-.09-2.62-.09s-1.65.09-2.45.09c-.24,0-.44-.05-.44-.27s.14-.23.39-.23a4.23,4.23,0,0,0,.76-.06c.67-.08.91-1,1-1.83Z"/><path class="cls-3" d="M443.44,433.72a9.23,9.23,0,0,1-.19-13.61c1.79-1.58,4.17-2.53,7.85-2.53a25.34,25.34,0,0,1,3.6.25c.94.14,1.75.32,2.48.4.29,0,.38.14.38.28s-.08.48-.12,1.32-.07,2.1-.09,2.58-.11.6-.34.6-.25-.2-.25-.5a3.37,3.37,0,0,0-1-2.24c-.84-.81-2.5-1.39-4.79-1.39a6.66,6.66,0,0,0-4.66,1.34c-1.83,1.58-2.28,3.88-2.28,6.22a8,8,0,0,0,7.71,8.39c2.2,0,3.41-.17,4.4-1.28A3.71,3.71,0,0,0,457,432c.06-.37.12-.48.31-.48s.29.22.29.43a22.08,22.08,0,0,1-.54,3.18c-.11.41-.22.52-.64.71a15.47,15.47,0,0,1-4.48.51c-3.38,0-6.25-.7-8.51-2.59"/><path class="cls-3" d="M464.42,427c0-4.1,2.87-9.38,10.4-9.38,6.23,0,10.12,3.46,10.12,8.95s-4,9.78-10.38,9.78c-7.21,0-10.14-5.11-10.14-9.35m16.83.44c0-5.29-3.18-8.56-7.18-8.56-2.74,0-6,1.47-6,7.38,0,4.92,2.8,8.81,7.49,8.81,1.73,0,5.67-.83,5.67-7.63"/><path class="cls-3" d="M497.09,429.06c0,3.07,0,4.59.52,5s1.38.51,3.29.51c1.33,0,2.28,0,2.89-.68a2.83,2.83,0,0,0,.64-1.44c0-.22.07-.36.27-.36s.23.26.23.53a17.56,17.56,0,0,1-.36,2.76c-.17.53-.29.65-1.58.65-1.77,0-3.21,0-4.46-.09s-2.27-.05-3.27-.05l-1.41,0c-.6,0-1.22.06-1.72.06-.3,0-.49-.08-.49-.26s.08-.24.4-.24a3.47,3.47,0,0,0,.87-.09c.51-.11.65-.56.73-1.27.12-1,.12-2.9.12-5.09v-4.22c0-3.63,0-4.31,0-5.07s-.29-1.06-1.08-1.29a3.59,3.59,0,0,0-.82-.09q-.42,0-.42-.24c0-.18.17-.23.53-.23,1.17,0,2.73.05,3.42.05s2.61-.05,3.56-.05c.37,0,.54.05.54.23s-.15.24-.45.24a6.35,6.35,0,0,0-1,.09c-.68.12-.87.45-.93,1.29s0,1.44,0,5.07Z"/><path class="cls-3" d="M510.25,427c0-4.1,2.86-9.38,10.39-9.38,6.25,0,10.12,3.46,10.12,8.95s-4,9.78-10.38,9.78c-7.2,0-10.13-5.11-10.13-9.35m16.84.44c0-5.29-3.18-8.56-7.18-8.56-2.76,0-6,1.47-6,7.38,0,4.92,2.81,8.81,7.48,8.81,1.75,0,5.69-.83,5.69-7.63"/><path class="cls-3" d="M541.23,418.11c0-.39.26-.62.48-.62s.4.11.75.76l6.63,13.23,6.65-13.4c.21-.39.42-.59.65-.59s.47.26.56.76L559.21,433c.21,1.49.45,2.14,1.2,2.38a5.48,5.48,0,0,0,1.4.21c.23,0,.4.09.4.23s-.29.27-.65.27c-.61,0-4.14-.08-5.11-.14-.59,0-.73-.13-.73-.27s.11-.2.27-.27.2-.32.11-1l-1.37-10.33h-.09l-5.31,10.58c-.57,1.12-.71,1.35-1,1.35s-.59-.47-1-1.21c-.59-1.1-2.55-4.75-2.84-5.43-.19-.45-1.66-3.35-2.47-5H542l-1.18,9.22a9.25,9.25,0,0,0-.08,1.14c0,.45.33.62.75.69a4.19,4.19,0,0,0,.88.13c.22,0,.38.09.38.23s-.21.27-.59.27c-1,0-2.16-.09-2.61-.09s-1.66.09-2.45.09c-.24,0-.45-.05-.45-.27s.14-.23.39-.23a4.32,4.32,0,0,0,.77-.06c.67-.08.89-1,1-1.83Z"/><path class="cls-3" d="M570.5,424.83c0-3.62,0-4.3,0-5.06s-.28-1.06-1.07-1.29a4.88,4.88,0,0,0-1-.09c-.25,0-.43-.08-.43-.24s.2-.23.57-.23c1.3,0,2.86.05,3.34.05,1.24,0,2.88-.05,3.72-.05,4.47,0,5.27,2.3,5.27,3.56,0,1.86-1.39,3.3-2.79,4.2,2,.66,4.57,2.37,4.57,5.17,0,2.57-2,5.21-6.61,5.21-.28,0-1.11,0-2-.08s-1.72-.06-2.11-.06-.81,0-1.4,0-1.21.05-1.71.05c-.32,0-.49-.09-.49-.26s.09-.24.39-.24a3.31,3.31,0,0,0,.87-.09c.51-.11.65-.56.74-1.27.11-1,.11-2.9.11-5.09Zm3.21.4c0,.2.08.23.17.25a4.87,4.87,0,0,0,1.14.09,3.29,3.29,0,0,0,2-.42,3.1,3.1,0,0,0,1.13-2.54c0-1.6-1-3.6-3.1-3.6a5.83,5.83,0,0,0-1.06.06c-.17,0-.23.15-.23.4Zm0,7c0,1.57.08,2.05.87,2.36a4.42,4.42,0,0,0,1.77.28c1.33,0,3-.73,3-3.37a5.28,5.28,0,0,0-2.32-4.26,3.67,3.67,0,0,0-2.16-.61h-1.07c-.07,0-.13,0-.13.17Z"/><path class="cls-3" d="M591.61,424.84c0-3.63,0-4.31,0-5.07s-.32-1.1-.85-1.26a3.35,3.35,0,0,0-.89-.12c-.26,0-.4-.05-.4-.28s.19-.19.59-.19c.94,0,2.61.05,3.32.05s2.22-.05,3.17-.05c.33,0,.51.05.51.19s-.13.28-.39.28a3.93,3.93,0,0,0-.73.09c-.67.12-.88.45-.93,1.29s-.06,1.44-.06,5.07v4.22c0,2.3,0,4.22.11,5.24.1.64.26,1,1,1.12a8.47,8.47,0,0,0,1.25.08c.29,0,.4.15.4.25s-.2.26-.48.26c-1.63,0-3.32-.09-4-.09S591,436,590,436c-.3,0-.49-.09-.49-.26s.1-.25.41-.25a3.39,3.39,0,0,0,.86-.08c.51-.11.66-.45.74-1.15.11-1,.11-2.91.11-5.21Z"/><path class="cls-3" d="M608.33,430c-.14,0-.16,0-.23.16l-1.32,3.24a4.82,4.82,0,0,0-.37,1.47c0,.42.24.68,1,.68h.38c.31,0,.37.09.37.24s-.14.26-.41.26c-.81,0-2-.08-2.75-.08-.25,0-1.58.08-2.87.08-.3,0-.44-.06-.44-.26s.08-.24.28-.24l.72,0c1.13-.17,1.55-.9,2.06-2.12l6.47-14.93c.29-.68.47-1,.73-1s.49.23.74.77c.6,1.31,4.72,11,6.31,14.63,1,2.17,1.66,2.49,2.1,2.56a5.79,5.79,0,0,0,.94.09c.21,0,.32.08.32.24s-.14.26-1.06.26-2.68,0-4.76-.06c-.45,0-.73,0-.73-.2s.07-.22.32-.24a.38.38,0,0,0,.21-.54l-1.91-4.85a.24.24,0,0,0-.26-.16Zm5.3-1.33c.11,0,.13-.05.11-.13l-2.33-6c0-.1-.06-.24-.11-.24s-.13.14-.15.24l-2.39,6c-.07.11,0,.16.08.16Z"/><path class="cls-1" d="M270.79,28.11l-.27,0a.39.39,0,0,0,.27,0m88.29,87.25c.71,3.89.65,5.77,1.59,11.85.35,2.33.93,8,3.37,8.37a.38.38,0,0,0,.56-.27c-2.35-7.57-2.52-14.38-3.76-22.34,0,0-1.9-5.5-2.47-5.66-.11.4.71,8,.71,8M200.86,203.9l.46.82,6-3.32,1.48,2.67L205,211.36l.56,1,.44.85.57,1,3.92-7.79a4.75,4.75,0,0,0,5.92.64c2.85-1.58,3.27-4.61,1.82-7.22l-3.18-5.72-15,8.34.45.82Zm8.52-3.66,4.8-2.67,1.89,3.39a2.63,2.63,0,0,1-.94,3.81c-1.68.92-3.09.26-3.95-1.28Zm7.32,28.38c3.56,4.4,8.59,3.85,12.19.93s5.19-7.81,1.64-12.19-8.59-3.83-12.2-.92-5.19,7.79-1.63,12.18m1.92-1.55c-2.51-3.09-1-6.52,1.42-8.49s6.08-2.73,8.57.33,1,6.53-1.43,8.5-6.08,2.73-8.56-.34m12.53,16.64.7.59,8.1-9.53-.6,15.9,1.66,1.41L252.13,239l-.7-.6-.51-.42-.69-.6-8.11,9.56.65-15.89-1.71-1.45L230,242.68l.7.6ZM274.09,267l-.37-.94a4.94,4.94,0,0,1-4.94.1c-3.29-1.56-3.35-5.19-2-8.08s4.27-5.1,7.55-3.53a5.17,5.17,0,0,1,3,3.94l1-.28.68-.18.88-.25a7.62,7.62,0,0,0-4.49-5.48c-4.89-2.35-9.07.52-11,4.63s-1.58,9.1,3.32,11.45a7.77,7.77,0,0,0,7.05.13l-.34-.86Zm15.76,9.61c5.44,1.54,9.21-1.82,10.47-6.29s-.28-9.36-5.7-10.88-9.21,1.82-10.46,6.28.25,9.37,5.69,10.89m.67-2.37c-3.83-1.09-4.59-4.73-3.75-7.75s3.39-5.74,7.19-4.67,4.59,4.73,3.74,7.75-3.38,5.74-7.18,4.67m20.83-10.9-.93-.11-1.79,17.08,11.3,1.18.09-.91.07-.66.1-.92-8.71-.9,1.52-14.6-.93-.1Zm24.44,18.43c5.66-.29,8.17-4.68,7.94-9.31s-3.25-8.78-8.88-8.5-8.16,4.66-7.92,9.3,3.22,8.79,8.86,8.51m-.12-2.48c-4,.21-5.87-3-6-6.14s1.38-6.52,5.33-6.72,5.86,3,6,6.14-1.38,6.53-5.33,6.72m35.11-3.78-4.09-16.67-2.26.55L361,269.62l-7.83-7.43-2.23.54L355,279.4l.89-.21.64-.17.9-.21-2.89-11.75,6.24,5.86,1.78-.44,2.79-8.08,2.89,11.75.91-.22m19.6-7.5c2.92-1.32,4.82-3.82,3.37-7a4.11,4.11,0,0,0-4.08-2.64,3.9,3.9,0,0,0,.22-3.81c-1.35-3-4.26-3.21-6.46-2.22l-6.43,2.91,7.08,15.64Zm-8.1-7.41-1.91-4.24,3.85-1.74a2.3,2.3,0,0,1,3.32,1.1c.62,1.39,0,2.51-1.43,3.16Zm3.16,7-2.18-4.82,3.66-1.66c2.09-.95,3.67-.72,4.4.88s.06,2.91-2.09,3.89Zm11.64-22.62-.81.5,9.09,14.56.8-.49.58-.37.8-.5-9.08-14.56-.8.49m21.58-3.42-3.73,3.09-2.15-6.4Zm8.09,2.57.84-.68-16.35-8.94L408.4,236l5.69,17.75.82-.68.6-.49.79-.67-1.62-4.84,5.15-4.25,4.45,2.51.81-.66M429,215.28l-.61.7,9.58,8.08-15.88-.62-1.45,1.72,13.11,11.08.59-.7.44-.51.59-.69-9.55-8.08,15.89.57,1.41-1.69L430,214.07l-.59.7M454,209.05c2.78-4.91.43-9.39-3.61-11.68s-9.15-2-11.93,2.93S438,209.67,442,212s9.15,2,11.95-2.92m-2.16-1.22c-2,3.45-5.69,3.33-8.42,1.79s-4.76-4.67-2.81-8.11,5.7-3.32,8.41-1.78,4.76,4.67,2.82,8.1M285,103.7a1.93,1.93,0,1,0,1.93,1.93A1.92,1.92,0,0,0,285,103.7m.28-7.4A1.66,1.66,0,1,0,286.94,98a1.66,1.66,0,0,0-1.65-1.66m-.2-7.65a1.66,1.66,0,1,0,1.66,1.66,1.66,1.66,0,0,0-1.66-1.66M284.83,81a1.4,1.4,0,1,0,1.38,1.39A1.39,1.39,0,0,0,284.83,81m-.93-7.43A1.39,1.39,0,1,0,285.29,75a1.4,1.4,0,0,0-1.39-1.39m1.92,39.73a1.67,1.67,0,0,0-3.32-.26,1.67,1.67,0,0,0,3.32.26M285,121a1.66,1.66,0,1,0-1.79,1.53A1.67,1.67,0,0,0,285,121m-1.48,7.75a1.38,1.38,0,0,0-1.26-1.5,1.39,1.39,0,1,0-.23,2.78,1.38,1.38,0,0,0,1.49-1.28m-1.55,7.4a1.39,1.39,0,0,0-1.29-1.49,1.36,1.36,0,0,0-1.49,1.27,1.39,1.39,0,0,0,1.28,1.5,1.42,1.42,0,0,0,1.5-1.28m-1.92,7.55a1.4,1.4,0,0,0-2.79-.23,1.4,1.4,0,0,0,2.79.23m-2.63,7.48a1.13,1.13,0,0,0-2.25-.18,1.16,1.16,0,0,0,1,1.22,1.13,1.13,0,0,0,1.21-1m-3.12,7.4a.86.86,0,1,0-.93.79.86.86,0,0,0,.93-.79m24.14-51.88c-.59.11-2.94,5.43-2.94,5.43-1.92,7.82-2.68,14.59-5.66,21.93,0,.27.4.53.54.32,2.47-.21,3.52-5.76,4.08-8,1.44-6,1.56-7.86,2.6-11.67,0,0,1.47-7.56,1.38-8m3.72,126.55a2.7,2.7,0,0,0,1.17-.15,6.65,6.65,0,0,0-1.17.15m-31.4-205.1-.27,0a.39.39,0,0,0,.27,0M418.88,47.77c0,.07,0,.11,0,.18s0,.12,0-.18M344.79,204c8.71-6.38,26.42-6.45,26.42-6.45s-21.12,3.25-25.82,8.62l-.57.64c13.6,2.86,37.59.34,42.6-15.95-7.68,5.91-37.54-7-42.63,13.14m-61.42-7.77s17.6.06,26.33,6.37c-4.8-19.81-33.88-7.17-42.63-13.06,5.1,15.53,29.08,18.8,42.68,15.92l-.56-.62c-4.69-5.36-25.82-8.61-25.82-8.61m14.28,32.18c-15.39-1.33-22.82,12.2-47,1.58,34.76,19.63,32.63,1.06,47-1.58m106.92,2.48c-24.15,10.61-31.58-2.92-47-1.59,14.32,2.66,12.21,21.22,47,1.59M219.24,71.73c-3,5.44-7.59,9.49-8.19,16.36-.68,8,4.28,11.65,7.84,16.7,2.53-1.31,7.1-4.33,7.5-7.84.8-6.88-10.72-14.77-4.42-23.52,1-1.92-1.62-2.92-2.73-1.7m-3.55,12.61c-1,7.55,6.43,13.31,3.55,18.08-.78-3.89-6.21-9.87-3.55-18.08m37.63,10.9h-3.75c-1-2.16-3.55-2.24-6.47-1.7-2.51-3.35-3.57,2.36-7.16.18-4.83,1.07-10.29,10.62-15.92,12.61,8.22,2.59,10.16,19.76,20.7,15.5,2.6-1.06,5.36-3.42,9.05-3.57A13.47,13.47,0,0,1,255,109.9c.44-4.89,4.56-6.12,6.82-9.2-1.14-3.53-6.77-2.55-8.53-5.46m6.16,5c-2.33,3.12-6.72,4-7.07,9.27-3.13,1.21-6,2.77-6.54,6.78-3.74-.75-4.38,2.43-6.38,3-7.24,2.23-9.19-6.32-12.81-10.18,5.64-4.57,14.3-6.21,21.26-5.86a20.45,20.45,0,0,0-9.61-1.41c-4.16.26-8.13,2.5-12.21,3.19,10.26-14,22.36-9,33.36-4.83m-47.74,11.06c1.17-1.37,5-3.6,5.12-5.79,0-1.23-2.42-4.73-3.42-5.8-3.25-3.5-10.63-8.63-16-3.75C193.3,94.34,190,97.55,185.84,98c2.74,2,2.14,3.64,3.06,4.76,1.73,2.27,2.35,1.3,3.41,2.05.59,2.25,1.9,3.78,2.73,5.79,4.54,1.71,4.89,7.61,11.25,7.5,2.37-1.62,3.25-4.24,5.45-6.82m2.53-6.76c-3.65-1.25-9.69-2.59-13.62-1.6,5.37.35,7.54,2.06,11.67,4.43-2.3,2.65-5.42,5.43-6.51,8.1-4.95-1.55-6.06-6.94-10.39-9.1-.33-3-2.36-6.84-6.06-7.79,2.34-1.08,4.83-.07,6.93-.44,1.93-.34,3.66-2.46,5.19-2.6,5.78-.48,11.19,6.16,12.79,9m9.39,7.45c-.45-1-4.19-4.86-5.78-4.09-5.69,2.69-9.9,13-12.95,18.4,2.13-.42,2.31,1.09,3.74,1.36a7.32,7.32,0,0,1,6.14-2.38c2.84.39,3,3.15,5.12,4.08,1.86-4,6.3-11.85,3.73-17.37m6.49,21.81c6.4,4.5,18.2,4.68,20.71-5.41.12-2.78-6.05,1.37-8.78,1.32-7.53-.13-9.61-10-16.36-11.93-1.4,7.58-.43,12.59,4.43,16m-3-12.64c1.7,2.79,4.78,7.61,8.14,10.09-4.95-1.6-7.7-6.89-8.14-10.09m-32.44,1c-2.05.14-8.21-1.55-8.88.34,2.22,9.54,19,6.54,19.52-2.67-5.55-1.63-6,2-10.64,2.33m3.37,12.62c-2.83,9.09,4.74,18.66,10.23,18.74-1.12-.83-1.31-2.15-.6-4.13.93-1.47,1.92-1.46,4-1.32,2,.65,2.37,3.3,1.7,5.12,5.29-1.86,11.05-9.3,8.87-15.68-2.57-7.52-8.66-14.71-13.17-6.9,1.72.73,1.72,1.79,1.91,3.5.54,4.58-7.47,5.76-6.47-.35a4,4,0,0,1,3.07-3.41c-.9-7.55-8.44.88-9.54,4.43m14.66-3.07c2.39.11,5.39,2.56,6.12,5.46-1.61-2.25-4.72-3-6.12-5.46m-10.72,1.94c1.31,2.49-1.49,4.9-2.31,6.79-1-2.13,1.58-4.81,2.31-6.79m11.73,2.15a7.7,7.7,0,0,1,4.55,9.56c-.7-3-1.71-7.38-4.89-8.19a3.46,3.46,0,0,1,.34-1.37m-8.85,4.43c-1,1.26-2.62,3.17-2.76,5.31-1.15-.09-1.48-2.14-1.12-3.65.34-1.81,2-3.91,3.88-1.66m10.56,8.18c-2.15-2.28-5.85-3.46-5.35-8.39,4-2.85,4.83,4.57,5.35,8.39m-8.24-8.21a24.44,24.44,0,0,0,.75,5.14c-1.87.9-2.25,2-2.95,4.15-2-3.71,1-7,2.2-9.29M433,73.61c6.29,8.74-5.22,16.64-4.43,23.51.4,3.51,5,6.53,7.5,7.84,3.56-5,8.53-8.67,7.84-16.7-.6-6.87-5.23-10.91-8.18-16.36-1.11-1.22-3.7-.22-2.73,1.71m2.73,29c-2.88-4.77,4.54-10.54,3.54-18.08,2.67,8.21-2.78,14.2-3.54,18.08m-42.6-1.72c2.24,3.09,6.36,4.31,6.81,9.2,2.63,1.8,4.2,5,5,8.64,3.7.16,6.69,2.23,9.3,3.29,10.53,4.27,12.47-12.91,20.69-15.5-5.62-2-11.07-11.54-15.92-12.6-3.58,2.16-4.66-3.53-7.16-.19-2.91-.54-5.48-.47-6.47,1.71h-3.75c-1.76,2.89-7.38,1.93-8.51,5.45m35.72,4.33c-4.08-.69-8.05-2.92-12.21-3.18a20.32,20.32,0,0,0-9.61,1.41c6.95-.35,15.6,1.28,21.26,5.85-3.63,3.87-5.58,12.41-12.82,10.18-2-.61-2.63-3.78-6.37-3-.59-4-3.42-5.57-6.55-6.78-.34-5.31-4.74-6.14-7.06-9.27,11-4.19,23.09-9.15,33.36,4.83m19.83,13c6.36.11,6.7-5.79,11.24-7.5.84-2,2.15-3.54,2.73-5.79,1.06-.75,1.68.21,3.41-2,.93-1.12.32-2.77,3.06-4.77-4.17-.41-7.46-3.63-11.58-2-5.38-4.88-12.77.26-16,3.76-1,1.06-3.45,4.56-3.41,5.79.06,2.19,4,4.43,5.11,5.79,2.2,2.58,3.09,5.2,5.46,6.82m4.8-22.57c1.53.12,3.25,2.26,5.2,2.59s4.59-.63,6.93.44c-3.71,1-5.73,4.76-6.06,7.79-4.34,2.17-5.44,7.55-10.39,9.09-1.08-2.66-4.22-5.44-6.53-8.09,4.15-2.36,6.31-4.07,11.69-4.42-3.93-1-10,.35-13.63,1.59,1.6-2.83,7-9.48,12.79-9M435.09,129.5c2.06-.93,2.26-3.7,5.1-4.09a7.33,7.33,0,0,1,6.14,2.39c1.44-.27,1.61-1.79,3.75-1.37-3.06-5.42-7.27-15.7-13-18.41-1.58-.75-5.33,3.1-5.78,4.1-2.56,5.52,1.86,13.41,3.75,17.38m-5.81-11.59c-6.75,1.89-8.82,11.79-16.35,11.93-2.73,0-5.5-3-8.18-.34,1.25,7.54,13.71,8.93,20.11,4.43,4.87-3.43,5.82-8.44,4.42-16m-9.59,13.47c3.35-2.48,6.44-7.3,8.13-10.09-.44,3.2-3.18,8.5-8.13,10.09M449.62,120c.57,9.2,17.31,12.2,19.52,2.66-.66-1.89-6.83-.2-8.86-.33-4.65-.31-5.1-4-10.66-2.33m-2.27,10.51a4,4,0,0,1,3.07,3.41c1,6.1-7,4.94-6.47.34.2-1.7.2-2.76,1.92-3.49-5.55-7-10.6-.62-13.17,6.9-2.19,6.38,3.57,13.81,8.86,15.68-.67-1.81-.27-4.46,1.7-5.11,2.08-.15,3.07-.15,4,1.3.73,2,.53,3.32-.58,4.15,5.48-.09,13-9.66,10.22-18.75-1.11-3.54-7.28-11.21-9.55-4.43m-11.24,6.83c.74-2.9,3.73-5.36,6.13-5.46-1.41,2.45-4.53,3.21-6.13,5.46m19.15,3.27c-.81-1.9-3.61-4.31-2.3-6.79.72,2,3.28,4.65,2.3,6.79m-13.7-3.27c-3.17.79-4.19,5.17-4.89,8.18a7.72,7.72,0,0,1,4.55-9.56c.14.55.39.76.34,1.38m12.4,4.71c.36,1.52,0,3.55-1.13,3.65-.15-2.13-1.73-4-2.75-5.31,1.89-2.26,3.53-.15,3.88,1.66m-9.09-1.87c.5,4.93-3.22,6.1-5.37,8.39.54-3.82,1.33-11.23,5.37-8.39m5.09,9.48c-.7-2.12-1.08-3.26-2.95-4.16a25.07,25.07,0,0,0,.75-5.14c1.16,2.34,4.14,5.58,2.2,9.3m-23.22-40.19c-4.58-1.93-10.48,1.08-15.3,1.26,9.58,3.18,4.69.55,15.3-1.26m-4.12-8.29a8.8,8.8,0,0,0-6.24-2.75c-.26,1.77,8.95,5.42,10.65,5.5Zm-195,8.29c10.6,1.81,5.72,4.44,15.29,1.26-4.82-.18-10.71-3.19-15.29-1.26m-.3-5.54c1.71-.08,10.92-3.73,10.67-5.5a8.79,8.79,0,0,0-6.25,2.75Zm141,1.93a1.92,1.92,0,1,0,1.92-1.93,1.91,1.91,0,0,0-1.92,1.93m0-7.66A1.66,1.66,0,1,0,370,96.55a1.66,1.66,0,0,0-1.66,1.66m.2-7.66a1.66,1.66,0,1,0,1.66-1.66,1.66,1.66,0,0,0-1.66,1.66m.52-7.87a1.4,1.4,0,1,0,1.4-1.39,1.39,1.39,0,0,0-1.4,1.39m.94-7.44a1.39,1.39,0,1,0,1.39-1.39A1.4,1.4,0,0,0,370,75.24m1.25,39.87a1.66,1.66,0,1,0-1.78-1.53,1.65,1.65,0,0,0,1.78,1.53m.79,7.62a1.66,1.66,0,1,0-1.78-1.53,1.66,1.66,0,0,0,1.78,1.53m1.18,7.5a1.39,1.39,0,0,0-.21-2.77,1.39,1.39,0,1,0,.21,2.77m1.56,7.4a1.39,1.39,0,1,0-.21-2.77,1.39,1.39,0,0,0,.21,2.77m1.92,7.55a1.39,1.39,0,1,0-1.49-1.28,1.4,1.4,0,0,0,1.49,1.28m2.34,7.25a1.13,1.13,0,1,0-.18-2.26,1.13,1.13,0,0,0,.18,2.26m2.84,7.15a.86.86,0,0,0-.13-1.72.86.86,0,1,0,.13,1.72M282.57,65.93A1.39,1.39,0,1,0,284,67.32a1.39,1.39,0,0,0-1.39-1.39m-1.66-7.39A1.13,1.13,0,1,0,282,59.66a1.13,1.13,0,0,0-1.13-1.12m-2.79-7.4A.87.87,0,1,0,279,52a.86.86,0,0,0-.86-.87m93.16,16.43a1.4,1.4,0,1,0,1.39-1.39,1.39,1.39,0,0,0-1.39,1.39m1.92-7.66a1.13,1.13,0,1,0,1.13-1.13,1.14,1.14,0,0,0-1.13,1.13m3.06-7.66a.86.86,0,1,0,.85-.86.86.86,0,0,0-.85.86m92,115.62c-17.44,2.92-29.61,12.29-34.77,19.19s-8.11,11.93-11.58,17.16c-8.82,13.32-16.82,23.93-39.46,23.93-9.63,0-21.52-2.13-36.2-6.46a7.33,7.33,0,0,1,0,1.69c1.43.84,2.53,2.4,3.07,5.69,3.53-5,7.5,4.27,1.65,4.27.06.87,2.12.06,3.07,1.13a4.48,4.48,0,0,1-.56,4.28c-.49.72-2.59-.19-3.06.57.45,1.77,2.05,1.57,2.24,3.13a4,4,0,0,1-3.07,4c-1.8.22-2-2.63-3.61-1.13,5.31,3.27-2.64,9.32-3.63,2.56-.32.62-1.22.64-1.95.85,4.91,4.59-6.19,7.76-3.89.85a3.59,3.59,0,0,0-2.24-.56c-.18.8.26,3.3-.82,4-.53.51-1.84.21-2.79.29-.52,4.21-1,5.07-3.95,4.91-2.5-.16-3.77-.39-3.43-5.1-2.62,1.49-5.09-1.66-4.86-4.65-1.52,2-2.76,6.87-6.13,3.14-.76-1.68.88-2.51-.56-3.7-1.35.2-1.34,1.84-2.78,2s-2.13-.72-3.06-2c-.42-2.52,1.64-2.5,2.23-4-.72-.49-.87.42-.56-.85-2,.51-1.54,2.17-3.62,2-3.1-.28-3.12-5.76,1.11-5.41-.11-.54-.79-.52-.55-1.42-4.25,2.62-7.47-3.82-2.29-5-2.53-.23-3.82-4.27-1.05-5.56,1.36-.05,2.61,1.16,3.34.85a12.54,12.54,0,0,1,2.77-5.83c0-.51,0-.95,0-1.4-14.1,4.09-25.59,6.08-34.93,6.08-22.65,0-30.66-10.61-39.47-23.92-3.47-5.24-6.43-10.27-11.59-17.17S204,170,186.52,167.08c0,0,10.49.19,13.72.52,12.73,1.33,19.36,5,27.86,11.94A98.8,98.8,0,0,1,243,197.32c8.74,12.94,15,20.5,45.68,20.5,5.79,0,12.29-.34,19.67-1-8.68-.14-14.12-.79-26.18-3.35-20.16-4.3-24.24-21.16-18.44-30.59-4.2,12.65,9,22.26,20.73,24.62,9.91,2,20.53-.88,32,1.08-2.17-1.24-4.27-4.59-3.37-7.75.66-2.3,3.17-3.56,5-5.35-3.1-11.95-6.9-22.77-6.69-36.71.14-8.82,4-21.89,5.19-30.1a62.19,62.19,0,0,1-3.19,8c-2.12,1.27-14,3.62-20.09,2.79-1.23,7.06-.14,16.86.29,26.47.25,6-.35,10.46-3.62,13.38-4.42,3.91-11.91,6.32-18.1,7.11,3.89-2.79,8.29-3.81,11.14-7.11,7.6-8.85,3.75-31.14,8.62-42.41,7.55-2.67,17.35-1,20.6-7.69.66-1.37,1.09-3.23,1.68-4.83,2.2-6,6.16-13.6,7.51-20.22-.63,1-1,2.19-2,2.24-3.1.14-8-4-10.24-5.64a42,42,0,0,1-7.51-7.12c-1,7.84,3.8,15,5.84,19.64a24.66,24.66,0,0,1-9.74-13.1c-7.18,14-9,34.4-13.09,48.67-3.57,9.08-6.88,18-13.08,23.9-2.83,2.7-8.5,6.68-13.35,7.7-15.07,3.14-26.74-4.92-29.52-17.37a19.14,19.14,0,0,1,.28-7.68c2.14-9.27,9.81-16.07,20.32-15.37,5.74.39,12.07,3.55,14.75,9.68,4.8-11.32,7.25-25.23,8.91-37.85,2.64-20,4.33-42.21-3.34-60.63-1,11.2-10.52,20.81-22.54,20.2a22.75,22.75,0,0,1-15.37-7.19,26,26,0,0,1-5.79-9c-1.79-5-1.39-11.34,0-16.5.73-2.7,2.53-4.82,4.29-6.88,1.3-1.52,3-2.41,4.54-3.68a18.51,18.51,0,0,1,4.59-3,33.23,33.23,0,0,1,11.74-2.74,33.93,33.93,0,0,1,16.15,3.12c5,2.16,8.7,5.89,12.1,10a40.23,40.23,0,0,1,4.66,7,72,72,0,0,1,7.07,19.74c2.77,14.43,2.28,26.56,1.39,39.57.55-2.22,3.62-11.11,7.79-14.81,7.48,1.13,13,4.31,18.1,8.53,1.18-1,3.14-1.14,3.9-2.56-1.1-10.62-.95-21.64,2.22-32.72-.63-2.91-6.25-5.34-5.59-10.53.07-1.27,1.39-1.44,3.4-2.22-4.58-4.15-11.73-1.95-17.3-2-6-.11-12-2.59-17.25-5.12,6.27,13.08,10.89,30.77,8.85,44.43-.44,2-1.41,5.91-1.41,4.7,0-3.3.35-9.31.07-14.7a92.6,92.6,0,0,0-5.28-25c-2.6-5.56-5.28-11.49-8.92-16.51-2.74-3.8-6.67-10.66-6.68-16.79,0-3.41.19-5,1.67-7.68A17.1,17.1,0,0,1,285.83.53C294.61-2.74,302,9.92,296.68,15.9c-3.31,3.76-11.95,1.11-7.23-4.84,2.27-.42,5.23-.15,6.12-2-.12-4.33-3.12-6.67-7.24-6.83-6.67-.25-11.05,6.63-10.85,12.23.32,9.56,6.82,17.92,12.8,21.63A35.28,35.28,0,0,0,312,41.8c1.74,0,7.76-.4,10.3,2a9.23,9.23,0,0,0,3.06,3.13A7.52,7.52,0,0,1,330,47c1.21-.57,1.64-1.63,2.52-2.9,5.54-3.89,17.61-.84,26.77-4,9.33-3.19,17.71-11.41,18.94-21.92.89-7.73-2.57-14.53-9.19-15.36-3.36-.42-8.87,2.89-8.63,6.26.31,4.63,8.79.9,7.51,6.83-1.33,6.21-9.84.81-10.58-3.41-.9-5.3,5.17-10.43,7.8-11.11,10.5-2.68,17.31,8.5,16.14,19.36a28.17,28.17,0,0,1-4.45,11.67,82.54,82.54,0,0,1-7.52,9.67c-5.19,9.08-8.66,25.46-8.9,37.29,0,1.75-.21,7.07-.38,9.78-.1,1.4-1-2.54-1.51-5.07.1-2.71-.06-3.16.36-8.4.7-8.87,2.16-18.19,4.86-25.91a43.19,43.19,0,0,1,5-9.39c-4.95,2.22-9.77,4.94-16.14,5.12-6.19.18-14.81-3.67-19.49,2,1.3.42,3.27,1.1,3.36,2.28.41,5.45-4.39,6.74-5.59,10.53,2.77,11.59,4.14,21.76,2.14,32.69,1.07,1.59,2.05,1.22,4,2.53,3.62-2.76,10.18-7.69,18.21-8.45,3.84,4,4.78,9.79,7.11,14.79-.58-14.85-.35-30.23,3.51-44.67a72.41,72.41,0,0,1,11.33-23c3.22-4.58,9.3-7.69,14.37-9.79a26.81,26.81,0,0,1,14.22-1.95c4.15.59,9.67,2.46,12,4,.53.36,2.12,1.74,1.66,1.42,5.95,4.17,11.69,9.89,10.86,21.63C429.51,60.64,421.34,71,410,72c-11.78,1-24.89-7.25-23.38-21.92-12.57,27.71-6.8,72.44,3.91,100.75,2.75-4,6.51-9,12.79-10.23,4.82-1,10,.69,14.48,2.55,4.66,3.85,8.73,8.59,8.63,15.93-.16,11.6-7.31,20-18.1,22.2-10.83,1-19.33-2.95-24.77-8.82C372,160,366.91,138.39,364,117.79c-.89-6.45-3.37-12.14-5.84-17.36-2,5.48-4.74,10.14-10,12.23C351,107.4,353.9,101,353.75,93.6c-4.14,3.93-11.66,12.14-17.54,12.8-1.14.13-2.24-1.63-3.06-2.56-.21,1,7.24,20.58,10.86,27.89,5.61,4.27,14.15,3.36,21.15,7.13.64,3,1.17,5.95,1.68,9.1,1.23,7.79.34,17.45,2.22,24.19,2.21,7.91,10.14,11.43,17.26,14.58-1.43.24-5.92-.4-8.32-1.09-6.51-1.88-14.15-2.71-15.08-14.35-.68-8.78,1.83-20.21.29-29.88-6.85.75-15.52-2.58-21.16-4-1-2.4-2.36-6-3.32-8.75,1.21,7.18,3.82,17.91,4.43,27.83.93,14.84-3.6,27.69-5.84,39,1.55,1.56,4.42,3.18,4.77,5.9.4,6.49-4.29,8.28-4.41,8.31l5.64-.17c9.49-.26,17.32.92,25.7-.75,11.74-2.37,24.92-12,20.72-24.63,5.81,9.43,1.73,26.3-18.43,30.59-9.41,2-14.78,2.9-20.8,3.22,5.72.44,10.91.67,15.62.67,30.67,0,36.95-7.57,45.69-20.51a97.52,97.52,0,0,1,14.86-17.77c8.49-6.9,15.12-10.62,27.86-11.94,3.22-.34,13.72-.53,13.72-.53m-73.32-8.24c2.56,5.64,5.22,9.31,13.08,8.81,0,0,1.1-.37,4.05-3.31a7.52,7.52,0,0,0,2.08-5.22c-.13-4.17-4.95-8.22-9.47-6.26-1.33,1.67-.92,2.51-1.1,4.56,2.13,2,4.5.36,5.84,0a4.37,4.37,0,0,1-7,3.41c-3.92-2.65-.48-9.91,3.34-10.82,5.84-1.39,9.68,3.69,10.3,8,1,6.88-5.9,13.38-13.08,12.52-2.46-.28-3.52-2.09-6.4-1.7,3.63,5.6,15.6,4.91,19.76,1.14,2.75-2.51,6.25-9.75,4.46-14.52-2.26-6-6.57-10.34-13.1-10.82-8.75-.64-13.23,6.09-12.8,14.24M389.66,39c-7.49,9.2-11.54,27-12,40.14-.2,5.82-1.18,13-.84,20.77a15.88,15.88,0,0,0,1.11,5.69c1.07,19,5.43,32.54,9.47,47.24,1.39.89.61,2.53,1.95,3.13,1.68-3.06-.13-4.3-1.39-7.39-.69-1.67-1.06-3.55-1.67-5.41a170.14,170.14,0,0,1-8.07-45c-.69-15.86.56-28.06,4.17-40.7,1.81-6.33,5.06-15.44,10-19.64,9.57-8.09,27.66-2.44,26.44,9.68,0-.09,0,.28,0,.46-.85,8.35-8.77,13.35-15,10.07-4.56-2.39-6-11-.27-13.66,10-1.92,6.23,13.16-1.12,8.53,3.24,8.89,16.79.77,12.25-8-3-5.77-11.24-6.5-15.6-2.85a12.67,12.67,0,0,0-2.22,17.37c1.14,1.51,6,5.32,8.08,6,3.11,1,8.08.09,9.74-.57,8.24-3.3,13.34-16.62,7.5-25.61-2.83-4.41-9.13-8-16.41-7.4C401.36,32.22,392,36,389.66,39m-22,71.16c.08.91.71,1.56.83,2.55.32,2.54-.2,5.07.28,7.7.28,1.54.52,3.11.84,4.83.45,2.48,1.39,4.87,1.95,7.39,1.26,5.8,2.23,11.12,4.15,16.52,4.09,11.32,9.25,20.87,18.94,25.61,0,.16.23.32.28,0-8.52-9.47-12.53-22.46-16.14-35.57-.89-3.24-1.82-7-2.5-10.54-.92-4.75-1.1-9.78-1.68-13.37-.2-1.26-1-2.48-1.11-3.7-.21-1.9.86-4.12-.83-5.7,1.32.13.41-.24.55-1.13-.3-3.46-.21-5.83-.84-8.83.89-12.37.75-28.91,4.46-38.42,1.8-4.61,2.85-9.84,5-13.66a42.53,42.53,0,0,1,5.21-6.68,23.73,23.73,0,0,1,5.52-5c1-.6,2.06-1.15,3.07-1.77.81-.5,2.55-2.11,3.45-2.18a28.19,28.19,0,0,0-19.2,10c-8.65,10.43-12.12,26.53-12.52,43.54-.22,9.33-.58,19.18.28,28.47m-121.92,47c1.8,1.58,4.65,2.3,6.13.57a3.65,3.65,0,0,0-.85-4.28c-6.44-4.28-12.66,3.27-9.46,10.53,6.17,8.19,20.12,2.69,19.21-8.25a16,16,0,0,0-3.62-8c-12.14-8.51-29.53,4.44-21.16,19.64a16.49,16.49,0,0,0,10.55,6.35s1.5.14,2,.2c4.15.47,9.73-3.23,11.41-6.83-2.36,2.3-6.46,3.46-9.74,4a12.2,12.2,0,0,1-8.95-3.69c-5-4.92-2.77-18.93,8.39-17.08,5.91,1.24,6.14,13.83-2.77,10.81a2.41,2.41,0,0,1-1.12-4M265,152.54a12.06,12.06,0,0,1,.47,4.24c5.41-12.95,9.38-30.33,11.14-45.82.33-2.42.85-6.55,1.11-10,.81-11.14.65-24.07-1.4-34.73-.44-2.32-.47-5.37-1.11-8-.34-1.35-1.23-2.54-1.68-4-.8-2.64-1.23-5.48-2.22-7.4-2.67-5.21-7.9-11.76-12.79-14-3.83-1.69-8.39-2-13.38-1.7a20.08,20.08,0,0,0-6.67,2.56c-10.18,5.66-8.11,18.54-3.63,26.47a11.06,11.06,0,0,0,3.91,3.13c7.74,4.52,17.17.22,21.15-6.55,2.61-8.18-.43-17.39-9.18-17.93-6.15-.37-12.16,4.33-10.86,11.38.53,2.85,3,4.08,5,6a9.4,9.4,0,0,0,7-.27,6.12,6.12,0,0,0,2.5-4.28,6.87,6.87,0,0,1-7.49.7c-2.46-2.11-2-3.77-1.71-6.11,1-2.37,3-2.85,5-3.13,7,.6,7.6,11.39,2.23,14.23-7,2.86-16-2.81-15.6-11.38.19-3.75.9-6.64,3.35-9.11a16.24,16.24,0,0,1,8.9-4c5.66-.71,10.43,1.44,13.92,3.71,9,11.16,12.76,27.72,13.92,44.4.43,6.16-1,13.52-.84,20.2.12,5.65-.95,10.57-1.94,16-1.36,7.36-2.61,15.27-4.46,21.63-1.31,4.53-3.94,12.28-4.64,13.68m23.29-58.38c0-1.08-.25-2-.27-3.12-.32-14.11-1-29.78-6.41-42.12-1.07-2.43-1.63-5.21-3.06-7.41A35.5,35.5,0,0,0,260.5,28.14a14,14,0,0,0-4.74-.86c1.14,1.63,3.37,2,5,2.85,1.81,1,3.24,2.3,5,3.13,9.08,8.66,12.54,21.08,14.75,34.16,2.45,14.48,2.11,32.63.11,47.41-.35,2.62-.6,4.83-.93,7A168.23,168.23,0,0,1,275,143.4c-2.8,9.62-5.69,18.81-10.29,26.76-.52.83-1.4,2-1.4,2a12.55,12.55,0,0,0,5-4c0-.27.22-.33.28-.56,10.49-12.95,15.42-31.42,17.82-50.66a187.32,187.32,0,0,0,1.94-22.78M331,169.23c3.22-4.8,4.32-13.81,4.67-22.4-.52-11.46,0-22.77-3.9-34.17,2.08,15.65,1.61,39.25-.77,56.57M330.5,55.14c1.14.42,3.31-1.93,3.36-3.49-.61-1.13-2.54-1.6-3.61-1.55-.73.89-.38,4.28.25,5m-3.09,56.71c-2.65,9.63-2.05,32.43-.11,53.76,2.23-21.62,2.63-43.86.11-53.76M325,55.19c.65-.77,1-4.15.28-5-1.08,0-3,.42-3.62,1.56,0,1.56,2.2,3.9,3.34,3.49m.68,37,.19-25.54c-2.31,8.58-2.21,18.65-.19,25.54m-2.09,79c-1.36-8.06-2.55-43.05,0-59.77-7.72,22-3.21,50.9,0,59.77m-24.52,42.2a91.64,91.64,0,0,1,18.62,2.26c2.49.74,4.72,1.58,5.79,3.75.66,1.68.62,4.16-1.48,4.84,1-2.56-1.65-5.85-4.45-3.43-1.24,1-1.5,4.21.45,5.69a7.63,7.63,0,0,0,2.76,1.12,5.4,5.4,0,0,0,6.5-4.14,5.35,5.35,0,0,0,5.19,4.22,7.2,7.2,0,0,0,4-1.24c2-1.48,1.69-4.66.46-5.68-2.8-2.42-5.41.86-4.45,3.41-2.1-.67-2.13-3.16-1.48-4.83,1.06-2.17,3.31-3,5.8-3.75,4.81-1.07,13-.77,19.71-1.14,8-.52,20.26-1.81,27.58-8.9-5.43,4.71-21.42,6.88-28.64,7-1.54,0-12.55-.13-16.3,0a18,18,0,0,0-7.86,1.8,43.38,43.38,0,0,1,5.74-10.05c1.91-4.7-2.67-6.28-6.31-7.95,4.86-12.9,8.26-30.8,7.7-43.28a56.51,56.51,0,0,1-1.39,10,126.47,126.47,0,0,1-10,30.45c-4.66-11.47-7.89-24.1-10.57-37,.78,14.32,4,26.81,7.51,39.84-2.57,1.13-6,2.55-6.12,5.12-.11,4.27,3.64,8.39,5.72,13.07a21.12,21.12,0,0,0-8.68-2.58,145.25,145.25,0,0,0-14.75-.47c-7.56-.13-23.36-.94-31.2-7.69,8.46,8.79,21.85,9,30.14,9.59m-2.53,7.45c-2.76.12-5.71.55-8.22.55-32.36,0-40-10.83-48.91-24a100.89,100.89,0,0,0-14.5-17c-6.35-6.07-14.06-9-21.49-10.62,17.17,5.4,28.62,25.94,32.49,31.06,9,11.94,17.5,22.55,38.43,22.55a86,86,0,0,0,22.2-2.5m29.92,18.77c-.33-1.58-1.94-3.15-3.62-4,1.09,8.13-8.74,5.72-11.68,1.42-2.26-3.29-2-7.26-.69-10.79,0-.25-.39-.25-.35-.49-1.33,1.17-2.15,4.41-2.31,6.44-.42,5.85,4.26,11.59,9.75,11.67a7.93,7.93,0,0,0,7-3.13c-4.41,9.79-22.12,1.16-17.54-12.81a25.39,25.39,0,0,1,1.9-3.62c-.06-.23-.26-.55-.58-.51-7.74,8.42-1.41,23.64,9.82,24.06,4.13-.35,9.63-2.44,8.34-8.26m10.11-2.74c-.53-1.77-2.69-1.18-3.7-.38a2.17,2.17,0,0,0,0,3.12c3.33,1.88,6.58-.17,6.4-3.7-.13-2.5-1.21-5.9-5.39-6.05-.76,0-5.87.16-6.47.78-.82-.5-7-2.06-9.57-.14-3.11,2.36-3.38,11.36,3,9.11,1.26-.72,1.2-2.3.54-3.47a2.77,2.77,0,0,0-3.72-.39c2-4.55,10-.29,9.88,3.29.15-5.09,9.92-7.56,9-2.17m9.11-11.77a2.11,2.11,0,0,1-.56.85,21.14,21.14,0,0,1,2.23,6.54c1.61,10.49-12,18.11-17.15,9.42a9.72,9.72,0,0,0,4.17,2.3c10.36,1.58,15.12-10.14,9.35-17.12a4.31,4.31,0,0,0-.82.85c1.62,3,2.38,6.47.55,9.39-1.42,2.26-7,4.62-8.91,4.56a3.58,3.58,0,0,1-3.79-2.84,2.92,2.92,0,0,1,.45-2.28,3.61,3.61,0,0,0-2.79,3.69c-.37,7,6.11,8.57,11.7,7.69,8.89-2.66,12.27-15.46,5.57-23m105.67-54.57c-7.43,1.59-15.14,4.55-21.49,10.62a100.47,100.47,0,0,0-14.5,17c-8.94,13.24-16.55,24-48.9,24-2.52,0-5.47-.43-8.24-.55a85.75,85.75,0,0,0,22.21,2.51c20.93,0,29.45-10.62,38.43-22.55,3.87-5.12,15.33-25.66,32.49-31.06M329.63,90c1.8-5.79,1.75-15.53,0-22.38.4,6.52-.92,15.36,0,22.38m10.91,8.48c2.15-1.61,7.79-4.55,10.58-7.4-5.38.56-8,3.95-10.58,7.4M305.87,91c2.78,2.85,8.42,5.79,10.58,7.4-2.57-3.45-5.21-6.84-10.58-7.4"/></g></g></svg>