<svg width="230" height="56" viewBox="0 0 230 56" fill="none" xmlns="http://www.w3.org/2000/svg">
<path d="M42.6969 31.3198C39.9276 31.524 36.117 31.7055 33.4533 32.4995C28.3599 33.7397 22.7911 37.1427 22.5119 43.0488C22.2101 46.9962 24.2399 51.1554 27.9826 52.7133C31.4763 54.2106 35.6944 53.6207 38.2902 50.8454C39.4899 49.5598 40.0559 47.5709 39.4899 45.93C39.4597 45.8468 39.3918 45.7787 39.3013 45.756C39.1655 45.7258 39.0221 45.8165 38.9919 45.9526C38.1166 49.9984 32.8496 50.9664 30.0426 49.0229C28.043 47.639 27.3488 45.083 27.5902 43.2454C27.8845 40.9389 28.9107 39.1542 30.9028 37.8686C34.2909 35.6529 39.0145 35.0404 42.9836 34.4732C44.5305 34.2312 46.1076 33.9817 47.6998 33.7246V30.9644C46.0095 31.0929 44.3343 31.2063 42.6969 31.3198Z" fill="#0C6F97"/>
<path d="M27.2054 16.445C24.3154 15.6661 19.2824 14.1083 19.3729 10.4331C19.4182 8.49714 20.4293 6.69734 22.7761 6.19067C24.5946 5.79743 26.7301 6.40997 27.4771 8.40639C27.5827 8.72401 28.0581 8.77694 28.2166 8.47445C30.0125 5.08658 26.5565 1.5021 23.3495 0.77613C17.1544 -0.864868 11.5932 4.06569 11.9328 10.4406C12.461 19.4775 22.927 21.731 30.2313 21.9579C35.8454 22.3511 41.882 22.7594 47.6923 23.0544V21.1865C40.9161 19.5001 33.891 17.897 27.2054 16.445Z" fill="#0C6F97"/>
<path d="M27.982 24.5894C26.8577 24.5591 21.2663 24.3852 20.2552 24.3701C16.1653 24.1659 12.3623 24.2793 8.36298 25.7313C5.8125 26.6463 3.33748 28.2192 1.76041 30.6543C-1.69556 35.8949 0.0399675 43.8125 6.06151 46.2551C8.82327 47.4045 11.7963 47.3214 14.3015 46.0963C16.7162 44.9922 18.663 42.0807 17.7273 39.4945C17.6217 39.1617 17.1236 39.1315 16.9878 39.4567C15.1165 43.4873 8.17434 42.2547 7.48767 37.6191C7.23112 35.8797 7.68386 34.1253 9.02701 32.8019C11.4417 30.4652 15.3202 29.7922 18.6781 29.4972C20.7456 29.4216 25.7787 29.2628 27.9217 29.1721C34.3432 28.9452 40.9985 28.6957 47.7068 28.4234V25.217C41.0212 24.9902 34.3884 24.786 27.982 24.5894Z" fill="#0C6F97"/>
<path d="M54.7695 55.2167V54.6268C54.9054 54.7478 55.2072 54.8991 55.4109 54.8991C55.8486 54.8991 56.0221 54.7025 56.0221 54.0219V47.2764H56.8522V54.1202C56.8522 54.9293 56.4673 55.5419 55.5694 55.5419C55.1544 55.5267 54.8752 55.3301 54.7695 55.2167Z" fill="#0C6F97"/>
<path d="M57.7969 52.5244H58.7476V53.4772H57.7969V52.5244Z" fill="#0C6F97"/>
<path d="M60.9629 47.2686H61.7703L64.1699 52.426L66.5694 47.2686H67.3315V53.4771H66.5392V49.2423C66.5392 49.0835 66.5619 48.7356 66.5619 48.7281C66.5392 48.7583 66.4034 49.0986 66.343 49.2423L64.4113 53.4771H63.8529L61.9212 49.2423C61.8458 49.0986 61.7175 48.7583 61.7024 48.7281C61.7024 48.7356 61.725 49.091 61.725 49.2423V53.4771H60.9704V47.2686H60.9629Z" fill="#0C6F97"/>
<path d="M71.4992 53.4775L71.4615 52.9179C71.1597 53.3867 70.5711 53.6136 70.0957 53.6136C69.1525 53.6136 68.3828 52.8347 68.3828 51.7079C68.3828 50.6039 69.16 49.8174 70.0957 49.8174C70.5485 49.8174 71.1597 50.0442 71.4615 50.5131L71.4992 49.9535H72.1708V53.485H71.4992V53.4775ZM69.1374 51.723C69.1374 52.5927 69.7033 53.0389 70.2768 53.0389C70.805 53.0389 71.4615 52.6456 71.4615 51.723C71.4615 50.7929 70.7975 50.3997 70.2768 50.3997C69.7033 50.3921 69.1374 50.8534 69.1374 51.723Z" fill="#0C6F97"/>
<path d="M74.1237 51.4279V53.4772H73.3691V49.9457H74.0407L74.0935 50.5582C74.3275 50.165 74.8708 49.8096 75.4669 49.8096V50.5734C74.7953 50.4599 74.1237 50.838 74.1237 51.4279Z" fill="#0C6F97"/>
<path d="M77.5498 50.4447V53.4771H76.7952V50.4447H76.0859V49.9456H76.7952V48.7583H77.5498V49.9456H78.2516V50.4447H77.5498Z" fill="#0C6F97"/>
<path d="M79.166 48.7508V47.9189H79.9206V48.7508H79.166ZM79.166 53.4772V49.9456H79.9206V53.4772H79.166Z" fill="#0C6F97"/>
<path d="M83.8259 53.4772V51.3976C83.8259 50.7246 83.5467 50.4221 83.0109 50.4221C82.5053 50.4221 81.864 50.8683 81.864 51.4581V53.4772H81.1094V49.9457H81.781L81.8338 50.5582C82.0677 50.165 82.6714 49.8096 83.2599 49.8096C84.2107 49.8096 84.5804 50.4751 84.5804 51.3523V53.4772H83.8259Z" fill="#0C6F97"/>
<path d="M87.5176 50.611V47.2686H88.3627V50.6186C88.3627 52.2218 89.0871 52.9251 90.219 52.9251C91.3584 52.9251 92.0752 52.2218 92.0752 50.6186V47.2686H92.8826V50.611C92.8826 52.7133 91.796 53.651 90.1963 53.651C88.5966 53.651 87.5176 52.7133 87.5176 50.611Z" fill="#0C6F97"/>
<path d="M94.1367 53.4771V47.2686H94.8913V53.4771H94.1367Z" fill="#0C6F97"/>
<path d="M96.8444 51.4279V53.4772H96.0898V49.9457H96.7614L96.8142 50.5582C97.0482 50.165 97.5915 49.8096 98.1876 49.8096V50.5734C97.516 50.4599 96.8444 50.838 96.8444 51.4279Z" fill="#0C6F97"/>
<path d="M98.9883 48.7508V47.9189H99.7429V48.7508H98.9883ZM98.9883 53.4772V49.9456H99.7429V53.4772H98.9883Z" fill="#0C6F97"/>
<path d="M102.646 53.5904C101.552 53.5904 100.744 52.8115 100.744 51.7075C100.744 50.6185 101.552 49.832 102.646 49.832C103.121 49.832 103.483 49.953 103.876 50.2328V50.8605C103.536 50.5429 103.129 50.4143 102.706 50.4143C102.012 50.4143 101.499 50.9134 101.499 51.6999C101.499 52.4939 102.012 52.993 102.706 52.993C103.129 52.993 103.536 52.872 103.876 52.5469V53.1745C103.483 53.4694 103.121 53.5904 102.646 53.5904Z" fill="#0C6F97"/>
<path d="M107.523 53.4771V51.3975C107.523 50.7245 107.244 50.422 106.708 50.422C106.203 50.422 105.561 50.8682 105.561 51.458V53.4771H104.807V47.2686H105.561V50.5581C105.795 50.1649 106.369 49.8094 106.957 49.8094C107.908 49.8094 108.278 50.4749 108.278 51.3521V53.4771H107.523Z" fill="#0C6F97"/>
<path d="M109.098 54.536C109.452 54.3393 109.611 53.8856 109.611 53.4772H109.166V52.5244H110.116V53.3638C110.116 54.0671 109.799 54.6267 109.249 54.7931L109.098 54.536Z" fill="#0C6F97"/>
<path d="M112.344 47.2686H114.268C116.675 47.2686 117.716 48.6676 117.716 50.3766C117.716 52.0857 116.675 53.4847 114.268 53.4847H112.344V47.2686ZM114.275 52.7511C116.29 52.7511 116.856 51.6093 116.856 50.3691C116.856 49.1289 116.29 47.987 114.275 47.987H113.174V52.7511H114.275Z" fill="#0C6F97"/>
<path d="M118.057 52.5244H119.007V53.4772H118.057V52.5244Z" fill="#0C6F97"/>
<path d="M119.348 50.3767C119.348 48.471 120.744 47.0947 122.645 47.0947C124.532 47.0947 125.928 48.471 125.928 50.3767C125.928 52.2824 124.532 53.6587 122.645 53.6587C120.744 53.6587 119.348 52.2748 119.348 50.3767ZM125.067 50.3767C125.067 48.8643 124.056 47.7904 122.638 47.7904C121.211 47.7904 120.2 48.8643 120.2 50.3767C120.2 51.874 121.211 52.963 122.638 52.963C124.056 52.963 125.067 51.874 125.067 50.3767Z" fill="#0C6F97"/>
<path d="M126.266 52.5244H127.216V53.4772H126.266V52.5244Z" fill="#0C6F97"/>
<path d="M128.158 54.536C128.513 54.3393 128.671 53.8856 128.671 53.4772H128.226V52.5244H129.177V53.3638C129.177 54.0671 128.86 54.6267 128.309 54.7931L128.158 54.536Z" fill="#0C6F97"/>
<path d="M131.396 47.2686H135.147V47.9643H132.227V49.8548H134.634V50.5506H132.227V53.4771H131.396V47.2686Z" fill="#0C6F97"/>
<path d="M134.914 52.5244H135.865V53.4772H134.914V52.5244Z" fill="#0C6F97"/>
<path d="M136.203 50.3767C136.203 48.471 137.599 47.0947 139.501 47.0947C141.387 47.0947 142.783 48.471 142.783 50.3767C142.783 52.2824 141.387 53.6587 139.501 53.6587C137.599 53.6587 136.203 52.2748 136.203 50.3767ZM141.923 50.3767C141.923 48.8643 140.912 47.7904 139.493 47.7904C138.067 47.7904 137.056 48.8643 137.056 50.3767C137.056 51.874 138.067 52.963 139.493 52.963C140.912 52.963 141.923 51.874 141.923 50.3767Z" fill="#0C6F97"/>
<path d="M143.123 52.5244H144.074V53.4772H143.123V52.5244Z" fill="#0C6F97"/>
<path d="M144.414 50.3768C144.414 48.3652 145.923 47.1401 147.712 47.1401C148.496 47.1401 149.341 47.3973 149.862 47.7905V48.6526C149.357 48.1988 148.677 47.8359 147.712 47.8359C146.285 47.8359 145.274 48.8265 145.274 50.3843C145.274 51.927 146.285 52.9328 147.712 52.9328C148.67 52.9328 149.357 52.5698 149.862 52.1161V52.9782C149.349 53.3714 148.496 53.6285 147.712 53.6285C145.923 53.6134 144.414 52.3807 144.414 50.3768Z" fill="#0C6F97"/>
<path d="M150.557 52.5244H151.507V53.4772H150.557V52.5244Z" fill="#0C6F97"/>
<path d="M151.848 50.3767C151.848 48.471 153.244 47.0947 155.145 47.0947C157.032 47.0947 158.428 48.471 158.428 50.3767C158.428 52.2824 157.032 53.6587 155.145 53.6587C153.244 53.6587 151.848 52.2748 151.848 50.3767ZM157.575 50.3767C157.575 48.8643 156.564 47.7904 155.145 47.7904C153.719 47.7904 152.708 48.8643 152.708 50.3767C152.708 51.874 153.719 52.963 155.145 52.963C156.556 52.963 157.575 51.874 157.575 50.3767Z" fill="#0C6F97"/>
<path d="M158.764 52.5244H159.714V53.4772H158.764V52.5244Z" fill="#0C6F97"/>
<path d="M160.057 50.3767C160.057 48.471 161.453 47.0947 163.354 47.0947C165.241 47.0947 166.637 48.471 166.637 50.3767C166.637 52.2824 165.241 53.6587 163.354 53.6587C161.453 53.6587 160.057 52.2748 160.057 50.3767ZM165.784 50.3767C165.784 48.8643 164.773 47.7904 163.354 47.7904C161.928 47.7904 160.917 48.8643 160.917 50.3767C160.917 51.874 161.928 52.963 163.354 52.963C164.773 52.963 165.784 51.874 165.784 50.3767Z" fill="#0C6F97"/>
<path d="M57.0364 1.29053L61.9487 12.3313L66.861 1.29053H68.1137V13.8665H66.9667V5.31362C66.9667 4.33053 66.9893 3.27939 66.9893 3.2567C66.9667 3.30207 66.5517 4.40616 66.1744 5.26825L62.3713 13.8589H61.4507L57.6476 5.26825C57.2477 4.36835 56.8704 3.33988 56.8327 3.2567C56.8327 3.27939 56.8553 4.30785 56.8553 5.31362V13.8665H55.7461V1.29053H57.0364Z" fill="#0C6F97"/>
<path d="M76.3774 1.29053V13.8665H75.2305V1.29053H76.3774Z" fill="#0C6F97"/>
<path d="M89.3023 1.01807C90.7888 1.01807 92.4187 1.52474 93.4223 2.27339V3.49091C92.3961 2.69688 91.0831 2.08434 89.3023 2.08434C86.2689 2.08434 84.0731 4.28494 84.0731 7.57449C84.0731 10.8641 86.2689 13.0647 89.3023 13.0647C91.0831 13.0647 92.3961 12.4597 93.4223 11.6581V12.8756C92.4187 13.6318 90.7888 14.1309 89.3023 14.1309C85.8086 14.1309 82.8809 11.6354 82.8809 7.57449C82.8809 3.51359 85.8086 1.01807 89.3023 1.01807Z" fill="#0C6F97"/>
<path d="M101.18 1.29053V6.73531H108.666V1.29053H109.813V13.8665H108.666V7.77133H101.18V13.8665H100.033V1.29053H101.18Z" fill="#0C6F97"/>
<path d="M118.081 1.29053V13.8665H116.934V1.29053H118.081Z" fill="#0C6F97"/>
<path d="M134.495 8.85251H131.922V7.82405H135.642V12.8756C134.593 13.3596 133.197 14.1763 131.002 14.1763C127.508 14.1763 124.58 11.643 124.58 7.57449C124.58 3.50603 127.508 1.01807 131.002 1.01807C132.488 1.01807 134.118 1.52474 135.122 2.27339V3.49091C134.095 2.69688 132.782 2.08434 131.002 2.08434C127.968 2.08434 125.772 4.28494 125.772 7.57449C125.772 10.8641 127.968 13.11 131.002 13.11C132.405 13.11 133.575 12.8151 134.495 12.2479V8.85251Z" fill="#0C6F97"/>
<path d="M142.419 13.8587H141.227L146.411 1.28271H147.354L152.538 13.8587H151.285L149.776 10.2137H143.898L142.419 13.8587ZM146.833 3.0069L144.32 9.18522H149.361L146.833 3.0069Z" fill="#0C6F97"/>
<path d="M159.359 1.29053L166.95 11.5373V1.29053H168.036V13.8665H167.244L159.653 3.61969V13.8665H158.566V1.29053H159.359Z" fill="#0C6F97"/>
<path d="M183.02 44.1831H184.249V48.0398H189.343V44.1831H190.573V53.4317H189.343V49.0683H184.249V53.4317H183.02V44.1831Z" fill="#58595B"/>
<path d="M192.672 44.1831H198.256V45.2191H193.902V48.0398H197.486V49.0759H193.902V52.4032H198.256V53.4392H192.672V44.1831Z" fill="#58595B"/>
<path d="M203.129 44.1831H203.929L207.898 53.4317H206.638L205.529 50.8454H201.469L200.36 53.4317H199.16L203.129 44.1831ZM205.114 49.8396L203.499 46.0283L201.884 49.8396H205.114Z" fill="#58595B"/>
<path d="M209.104 44.1831H210.333V52.4032H214.687V53.4392H209.104V44.1831Z" fill="#58595B"/>
<path d="M216.689 45.2191H213.414V44.1831H221.194V45.2191H217.919V53.4392H216.689V45.2191Z" fill="#58595B"/>
<path d="M222.447 44.1831H223.677V48.0398H228.771V44.1831H230.001V53.4317H228.771V49.0683H223.677V53.4317H222.447V44.1831Z" fill="#58595B"/>
<path d="M55.6328 18.9937H57.142L68.8304 33.6568V18.9937H71.2224V38.6781H69.7133L58.0248 24.015V38.6781H55.6328V18.9937Z" fill="#58595B"/>
<path d="M73.8984 28.8394C73.8984 22.8048 78.3203 18.4414 84.3418 18.4414C90.3332 18.4414 94.7475 22.8048 94.7475 28.8394C94.7475 34.8741 90.3256 39.2375 84.3418 39.2375C78.3203 39.2375 73.8984 34.8741 73.8984 28.8394ZM92.031 28.8394C92.031 24.0526 88.824 20.6344 84.3418 20.6344C79.8219 20.6344 76.6149 24.045 76.6149 28.8394C76.6149 33.5961 79.8219 37.0444 84.3418 37.0444C88.824 37.0369 92.031 33.5961 92.031 28.8394Z" fill="#58595B"/>
<path d="M96.4258 36.7118L97.0144 34.2843C98.1915 35.5623 100.153 36.9765 102.976 36.9765C105.3 36.9765 107.103 35.6606 107.103 33.5357C107.103 31.5317 106.122 30.42 102.455 29.437C98.7574 28.4539 96.9917 26.4499 96.9917 23.6972C96.9917 20.9068 99.2856 18.5776 103.308 18.5776C105.564 18.5776 107.563 19.4927 108.642 20.385L108.054 22.4495C106.741 21.4966 104.915 20.7102 103.308 20.7102C100.855 20.7102 99.4441 21.8596 99.4441 23.6972C99.4441 25.1114 100.327 26.2911 103.406 27.1078C107.631 28.227 109.563 30.0571 109.563 33.3088C109.563 37.1504 106.356 39.1166 102.983 39.1166C99.761 39.109 97.5048 37.8234 96.4258 36.7118Z" fill="#58595B"/>
<path d="M112.234 18.9937H124.119V21.1942H114.853V27.1986H122.482V29.3992H114.853V36.485H124.119V38.6856H112.234V18.9937Z" fill="#58595B"/>
<path d="M147.458 39.207C145.821 39.207 144.35 38.6852 142.682 37.203C141.573 38.481 140.033 39.207 137.966 39.207C134.661 39.207 131.416 37.4374 131.416 33.5656C131.416 31.1381 133.182 29.5274 135.31 28.1889C134.299 26.4496 133.574 24.8086 133.574 23.1373C133.574 20.4452 135.868 18.479 138.841 18.479C141.527 18.479 143.459 20.12 143.459 22.3508C143.459 25.4362 140.018 27.0092 137.438 28.5519C139.241 31.0776 141.105 33.2782 142.644 34.8512C143.361 33.6412 143.663 31.5389 143.693 28.8468H148.213V30.2609H145.074C144.908 32.6203 144.651 34.3596 143.731 35.8721C145.398 37.4148 146.515 37.8382 147.79 37.8382C148.447 37.8382 149.232 37.5736 149.85 36.7871L150.469 37.5736C149.616 38.7155 148.507 39.207 147.458 39.207ZM136.102 29.3308C134.465 30.4424 133.189 31.6902 133.189 33.6261C133.189 36.2804 135.513 37.7929 138.132 37.7929C139.641 37.7929 140.878 37.2333 141.701 36.1821C140.162 34.647 137.996 32.0834 136.102 29.3308ZM138.849 19.8175C136.721 19.8175 135.31 21.2619 135.31 23.0995C135.31 24.6724 135.868 25.9505 136.721 27.3646C139.271 25.8219 141.791 24.6119 141.791 22.3433C141.791 20.7325 140.486 19.8175 138.849 19.8175Z" fill="#0C6F97"/>
<path d="M155.703 36.7118L156.292 34.2843C157.469 35.5623 159.431 36.9765 162.253 36.9765C164.577 36.9765 166.38 35.6606 166.38 33.5357C166.38 31.5317 165.399 30.42 161.732 29.437C158.035 28.4539 156.269 26.4499 156.269 23.6972C156.269 20.9068 158.563 18.5776 162.585 18.5776C164.841 18.5776 166.841 19.4927 167.92 20.385L167.331 22.4495C166.018 21.4966 164.192 20.7102 162.585 20.7102C160.133 20.7102 158.721 21.8596 158.721 23.6972C158.721 25.1114 159.604 26.2911 162.683 27.1078C166.909 28.227 168.84 30.0571 168.84 33.3088C168.84 37.1504 165.633 39.1166 162.26 39.1166C159.046 39.109 156.782 37.8234 155.703 36.7118Z" fill="#58595B"/>
<path d="M171.512 18.9937H174.13V38.6781H171.512V18.9937Z" fill="#58595B"/>
<path d="M177.77 18.9937H179.279L190.967 33.6568V18.9937H193.359V38.6781H191.85L180.162 24.015V38.6781H177.77V18.9937Z" fill="#58595B"/>
<path d="M196.986 29.5959V18.9937H199.673V29.6261C199.673 34.7079 201.967 36.9388 205.566 36.9388C209.165 36.9388 211.459 34.7079 211.459 29.6261V18.9937H214.01V29.5883C214.01 36.2506 210.576 39.2301 205.498 39.2301C200.42 39.2377 196.986 36.2506 196.986 29.5959Z" fill="#58595B"/>
<path d="M216.629 36.7118L217.217 34.2843C218.395 35.5623 220.364 36.9765 223.179 36.9765C225.503 36.9765 227.306 35.6606 227.306 33.5357C227.306 31.5317 226.325 30.42 222.658 29.437C218.961 28.4539 217.195 26.4499 217.195 23.6972C217.195 20.9068 219.489 18.5776 223.511 18.5776C225.767 18.5776 227.767 19.4927 228.846 20.385L228.257 22.4495C226.952 21.4966 225.118 20.7102 223.511 20.7102C221.058 20.7102 219.647 21.8596 219.647 23.6972C219.647 25.1114 220.53 26.2911 223.609 27.1078C227.834 28.227 229.766 30.0571 229.766 33.3088C229.766 37.1504 226.559 39.1166 223.186 39.1166C219.964 39.109 217.708 37.8234 216.629 36.7118Z" fill="#58595B"/>
</svg>
