<svg width="120" height="101" viewBox="0 0 120 101" fill="none" xmlns="http://www.w3.org/2000/svg">
<path d="M8.50756 83.617L8.61156 81.303H15.7356L15.8396 83.617H15.0856L14.7996 81.953H12.8106C12.8019 82.5077 12.7932 83.0667 12.7846 83.63C12.7846 84.1933 12.7846 84.761 12.7846 85.333V85.97C12.7846 86.5247 12.7846 87.0837 12.7846 87.647C12.7932 88.2017 12.8019 88.7607 12.8106 89.324L14.1366 89.467V90H10.2106V89.467L11.5366 89.324C11.5539 88.7693 11.5626 88.2147 11.5626 87.66C11.5626 87.0967 11.5626 86.5333 11.5626 85.97V85.333C11.5626 84.7697 11.5626 84.2063 11.5626 83.643C11.5626 83.0797 11.5539 82.5163 11.5366 81.953H9.54756L9.26156 83.617H8.50756ZM16.4833 90V89.532L17.4583 89.35C17.4669 89.0207 17.4713 88.6653 17.4713 88.284C17.4799 87.894 17.4843 87.556 17.4843 87.27V81.563L16.4183 81.433V80.978L18.4073 80.393L18.5893 80.497L18.5373 82.343V84.852C18.8579 84.4967 19.2306 84.2107 19.6553 83.994C20.0799 83.7687 20.5003 83.656 20.9163 83.656C21.4796 83.656 21.8956 83.8467 22.1643 84.228C22.4416 84.6007 22.5803 85.2117 22.5803 86.061V87.27C22.5803 87.5647 22.5803 87.9027 22.5803 88.284C22.5889 88.6653 22.5976 89.0207 22.6063 89.35L23.5163 89.532V90H20.5003V89.532L21.4493 89.363C21.4579 89.0337 21.4623 88.6783 21.4623 88.297C21.4709 87.907 21.4753 87.5647 21.4753 87.27V86.165C21.4753 85.567 21.3929 85.1553 21.2283 84.93C21.0636 84.7047 20.7906 84.592 20.4093 84.592C20.0886 84.592 19.7853 84.657 19.4993 84.787C19.2133 84.917 18.9056 85.1337 18.5763 85.437V87.27C18.5763 87.556 18.5763 87.894 18.5763 88.284C18.5849 88.6653 18.5936 89.0207 18.6023 89.35L19.4993 89.532V90H16.4833ZM27.3979 84.254C27.1552 84.254 26.9082 84.3233 26.6569 84.462C26.4142 84.6007 26.2019 84.8217 26.0199 85.125C25.8465 85.4283 25.7339 85.8313 25.6819 86.334H28.0479C28.3599 86.334 28.5635 86.269 28.6589 86.139C28.7629 86.009 28.8149 85.8487 28.8149 85.658C28.8149 85.4067 28.7499 85.177 28.6199 84.969C28.4985 84.7523 28.3295 84.579 28.1129 84.449C27.9049 84.319 27.6665 84.254 27.3979 84.254ZM27.3849 90.169C26.5095 90.169 25.8075 89.8873 25.2789 89.324C24.7502 88.752 24.4859 87.9677 24.4859 86.971C24.4859 86.3037 24.6202 85.723 24.8889 85.229C25.1662 84.735 25.5302 84.3493 25.9809 84.072C26.4402 83.7947 26.9385 83.656 27.4759 83.656C27.9265 83.656 28.3339 83.7557 28.6979 83.955C29.0619 84.1543 29.3522 84.4403 29.5689 84.813C29.7855 85.177 29.8939 85.6233 29.8939 86.152C29.8939 86.2993 29.8852 86.438 29.8679 86.568C29.8505 86.6893 29.8289 86.7933 29.8029 86.88H25.6559C25.6732 87.6773 25.8725 88.284 26.2539 88.7C26.6352 89.116 27.1379 89.324 27.7619 89.324C28.1779 89.324 28.5245 89.2417 28.8019 89.077C29.0792 88.9037 29.3349 88.6827 29.5689 88.414L29.8809 88.661C29.6382 89.1203 29.3089 89.4887 28.8929 89.766C28.4769 90.0347 27.9742 90.169 27.3849 90.169ZM37.306 85.801H36.591C36.591 86.4857 36.591 87.1183 36.591 87.699C36.5997 88.271 36.6083 88.8343 36.617 89.389H37.41C38.242 89.389 38.8617 89.2373 39.269 88.934C39.6763 88.6307 39.88 88.193 39.88 87.621C39.88 87.0143 39.6763 86.5593 39.269 86.256C38.8617 85.9527 38.2073 85.801 37.306 85.801ZM37.514 81.901H36.617C36.6083 82.4557 36.5997 83.019 36.591 83.591C36.591 84.1543 36.591 84.6917 36.591 85.203H37.267C38.0557 85.203 38.6277 85.0687 38.983 84.8C39.3383 84.5313 39.516 84.1023 39.516 83.513C39.516 82.9237 39.347 82.5077 39.009 82.265C38.6797 82.0223 38.1813 81.901 37.514 81.901ZM34.134 81.836V81.303H37.904C38.8053 81.303 39.503 81.5023 39.997 81.901C40.491 82.2997 40.738 82.8067 40.738 83.422C40.738 83.8813 40.582 84.3017 40.27 84.683C39.958 85.0643 39.4423 85.3287 38.723 85.476C39.5897 85.5973 40.2137 85.853 40.595 86.243C40.985 86.633 41.18 87.0923 41.18 87.621C41.18 88.011 41.063 88.388 40.829 88.752C40.6037 89.116 40.2353 89.415 39.724 89.649C39.2127 89.883 38.541 90 37.709 90H34.134V89.467L35.33 89.324C35.3473 88.778 35.356 88.2233 35.356 87.66C35.356 87.0967 35.356 86.5333 35.356 85.97V85.333C35.356 84.7697 35.356 84.2107 35.356 83.656C35.356 83.0927 35.3473 82.5337 35.33 81.979L34.134 81.836ZM47.1458 90.13C46.8338 90.13 46.5738 90.039 46.3658 89.857C46.1578 89.675 46.0278 89.4323 45.9758 89.129C45.6205 89.4757 45.3085 89.7357 45.0398 89.909C44.7711 90.0823 44.4461 90.169 44.0648 90.169C43.5881 90.169 43.1765 90.0347 42.8298 89.766C42.4918 89.4887 42.3228 89.0813 42.3228 88.544C42.3228 88.2927 42.3791 88.0587 42.4918 87.842C42.6131 87.6253 42.8298 87.413 43.1418 87.205C43.4538 86.997 43.9001 86.789 44.4808 86.581C44.6801 86.5117 44.9098 86.438 45.1698 86.36C45.4298 86.282 45.6898 86.2127 45.9498 86.152V85.827C45.9498 85.1943 45.8545 84.774 45.6638 84.566C45.4731 84.358 45.1611 84.254 44.7278 84.254C44.6325 84.254 44.5241 84.2583 44.4028 84.267C44.2901 84.2757 44.1645 84.2973 44.0258 84.332L43.7788 85.177C43.6575 85.593 43.4321 85.801 43.1028 85.801C42.7388 85.801 42.5351 85.6233 42.4918 85.268C42.6131 84.774 42.8991 84.384 43.3498 84.098C43.8091 83.8033 44.3681 83.656 45.0268 83.656C45.7115 83.656 46.2185 83.8293 46.5478 84.176C46.8771 84.514 47.0418 85.0947 47.0418 85.918V88.687C47.0418 88.9643 47.0851 89.1637 47.1718 89.285C47.2585 89.3977 47.3711 89.454 47.5098 89.454C47.6225 89.454 47.7178 89.428 47.7958 89.376C47.8738 89.324 47.9475 89.2547 48.0168 89.168L48.2768 89.454C48.1208 89.7053 47.9475 89.883 47.7568 89.987C47.5748 90.0823 47.3711 90.13 47.1458 90.13ZM43.4798 88.349C43.4798 88.6957 43.5795 88.9427 43.7788 89.09C43.9781 89.2373 44.2251 89.311 44.5198 89.311C44.6498 89.311 44.7711 89.2937 44.8838 89.259C45.0051 89.2243 45.1481 89.1593 45.3128 89.064C45.4775 88.96 45.6898 88.8127 45.9498 88.622V86.633C45.7245 86.6937 45.5035 86.763 45.2868 86.841C45.0701 86.9103 44.8925 86.971 44.7538 87.023C44.3811 87.1703 44.1038 87.322 43.9218 87.478C43.7398 87.634 43.6185 87.7857 43.5578 87.933C43.5058 88.0803 43.4798 88.219 43.4798 88.349ZM48.8086 90V89.532L49.7706 89.35C49.7792 89.0207 49.7836 88.6653 49.7836 88.284C49.7922 87.9027 49.7966 87.5647 49.7966 87.27V86.646C49.7966 86.2907 49.7922 85.996 49.7836 85.762C49.7836 85.528 49.7749 85.281 49.7576 85.021L48.7306 84.904V84.449L50.5506 83.656L50.7456 83.786L50.8496 84.826C51.1702 84.4793 51.5386 84.1977 51.9546 83.981C52.3706 83.7643 52.7779 83.656 53.1766 83.656C53.7399 83.656 54.1559 83.8467 54.4246 84.228C54.7019 84.6007 54.8406 85.2117 54.8406 86.061V87.27C54.8406 87.5647 54.8406 87.9027 54.8406 88.284C54.8492 88.6653 54.8579 89.0207 54.8666 89.35L55.7766 89.532V90H52.7606V89.532L53.7226 89.35C53.7312 89.0293 53.7356 88.6783 53.7356 88.297C53.7442 87.907 53.7486 87.5647 53.7486 87.27V86.165C53.7486 85.567 53.6619 85.1553 53.4886 84.93C53.3239 84.7047 53.0509 84.592 52.6696 84.592C52.3749 84.592 52.0889 84.6527 51.8116 84.774C51.5342 84.8953 51.2309 85.0947 50.9016 85.372V87.27C50.9016 87.556 50.9016 87.894 50.9016 88.284C50.9102 88.6653 50.9189 89.0207 50.9276 89.35L51.8246 89.532V90H48.8086ZM57.9274 86.945C57.9274 87.7943 58.0964 88.4227 58.4344 88.83C58.781 89.2287 59.2144 89.428 59.7344 89.428C60.0204 89.428 60.2717 89.3717 60.4884 89.259C60.7137 89.1377 60.9477 88.9427 61.1904 88.674V85.073C60.8957 84.813 60.6314 84.6353 60.3974 84.54C60.1634 84.4447 59.938 84.397 59.7214 84.397C59.4007 84.397 59.1017 84.488 58.8244 84.67C58.5557 84.8433 58.339 85.1207 58.1744 85.502C58.0097 85.8747 57.9274 86.3557 57.9274 86.945ZM61.3204 90.13L61.2294 89.233C61.004 89.5277 60.744 89.7573 60.4494 89.922C60.1634 90.0867 59.8167 90.169 59.4094 90.169C58.8807 90.169 58.417 90.0347 58.0184 89.766C57.6197 89.4973 57.3077 89.1247 57.0824 88.648C56.8657 88.1627 56.7574 87.6037 56.7574 86.971C56.7574 86.3037 56.8787 85.723 57.1214 85.229C57.364 84.735 57.6934 84.3493 58.1094 84.072C58.5254 83.7947 58.9977 83.656 59.5264 83.656C59.8297 83.656 60.12 83.7167 60.3974 83.838C60.6834 83.9593 60.9607 84.1803 61.2294 84.501V81.563L60.1244 81.433V80.978L62.1524 80.393L62.3344 80.497L62.2824 82.343V89.376L63.3354 89.532V90L61.3204 90.13ZM68.8294 90.13C68.5174 90.13 68.2574 90.039 68.0494 89.857C67.8414 89.675 67.7114 89.4323 67.6594 89.129C67.3041 89.4757 66.9921 89.7357 66.7234 89.909C66.4547 90.0823 66.1297 90.169 65.7484 90.169C65.2717 90.169 64.8601 90.0347 64.5134 89.766C64.1754 89.4887 64.0064 89.0813 64.0064 88.544C64.0064 88.2927 64.0627 88.0587 64.1754 87.842C64.2967 87.6253 64.5134 87.413 64.8254 87.205C65.1374 86.997 65.5837 86.789 66.1644 86.581C66.3637 86.5117 66.5934 86.438 66.8534 86.36C67.1134 86.282 67.3734 86.2127 67.6334 86.152V85.827C67.6334 85.1943 67.5381 84.774 67.3474 84.566C67.1567 84.358 66.8447 84.254 66.4114 84.254C66.3161 84.254 66.2077 84.2583 66.0864 84.267C65.9737 84.2757 65.8481 84.2973 65.7094 84.332L65.4624 85.177C65.3411 85.593 65.1157 85.801 64.7864 85.801C64.4224 85.801 64.2187 85.6233 64.1754 85.268C64.2967 84.774 64.5827 84.384 65.0334 84.098C65.4927 83.8033 66.0517 83.656 66.7104 83.656C67.3951 83.656 67.9021 83.8293 68.2314 84.176C68.5607 84.514 68.7254 85.0947 68.7254 85.918V88.687C68.7254 88.9643 68.7687 89.1637 68.8554 89.285C68.9421 89.3977 69.0547 89.454 69.1934 89.454C69.3061 89.454 69.4014 89.428 69.4794 89.376C69.5574 89.324 69.6311 89.2547 69.7004 89.168L69.9604 89.454C69.8044 89.7053 69.6311 89.883 69.4404 89.987C69.2584 90.0823 69.0547 90.13 68.8294 90.13ZM65.1634 88.349C65.1634 88.6957 65.2631 88.9427 65.4624 89.09C65.6617 89.2373 65.9087 89.311 66.2034 89.311C66.3334 89.311 66.4547 89.2937 66.5674 89.259C66.6887 89.2243 66.8317 89.1593 66.9964 89.064C67.1611 88.96 67.3734 88.8127 67.6334 88.622V86.633C67.4081 86.6937 67.1871 86.763 66.9704 86.841C66.7537 86.9103 66.5761 86.971 66.4374 87.023C66.0647 87.1703 65.7874 87.322 65.6054 87.478C65.4234 87.634 65.3021 87.7857 65.2414 87.933C65.1894 88.0803 65.1634 88.219 65.1634 88.349ZM76.1248 90.195C75.6395 90.195 75.1715 90.13 74.7208 90C74.2702 89.8613 73.8932 89.6967 73.5898 89.506L73.6678 87.686H74.4738L74.7338 89.22C74.9332 89.3327 75.1368 89.415 75.3448 89.467C75.5615 89.519 75.8085 89.545 76.0858 89.545C76.7012 89.545 77.1908 89.4107 77.5548 89.142C77.9188 88.8647 78.1008 88.4747 78.1008 87.972C78.1008 87.556 77.9708 87.2353 77.7108 87.01C77.4595 86.776 77.0565 86.5507 76.5018 86.334L75.9948 86.126C75.3275 85.866 74.7858 85.5323 74.3698 85.125C73.9625 84.709 73.7588 84.1717 73.7588 83.513C73.7588 83.0103 73.8845 82.5813 74.1358 82.226C74.3958 81.8707 74.7468 81.5977 75.1888 81.407C75.6308 81.2077 76.1292 81.108 76.6838 81.108C77.1172 81.108 77.5115 81.1687 77.8668 81.29C78.2222 81.4113 78.5385 81.576 78.8158 81.784L78.7378 83.487H77.9448L77.6718 82.018C77.3512 81.8447 76.9958 81.758 76.6058 81.758C76.1118 81.758 75.6958 81.8837 75.3578 82.135C75.0198 82.3777 74.8508 82.7417 74.8508 83.227C74.8508 83.6257 74.9765 83.955 75.2278 84.215C75.4878 84.475 75.8518 84.696 76.3198 84.878L76.8398 85.073C77.6892 85.4023 78.2958 85.775 78.6598 86.191C79.0238 86.5983 79.2058 87.1097 79.2058 87.725C79.2058 88.2363 79.0715 88.6783 78.8028 89.051C78.5428 89.415 78.1832 89.6967 77.7238 89.896C77.2645 90.0953 76.7315 90.195 76.1248 90.195ZM83.1932 90.169C82.3005 90.169 81.5898 89.8787 81.0612 89.298C80.5325 88.7173 80.2682 87.9287 80.2682 86.932C80.2682 86.2473 80.4068 85.6623 80.6842 85.177C80.9702 84.683 81.3428 84.306 81.8022 84.046C82.2615 83.786 82.7512 83.656 83.2712 83.656C83.6612 83.656 84.0208 83.7297 84.3502 83.877C84.6795 84.0243 84.9525 84.228 85.1692 84.488C85.3858 84.7393 85.5202 85.0253 85.5722 85.346C85.5115 85.6753 85.3122 85.84 84.9742 85.84C84.7575 85.84 84.5928 85.7837 84.4802 85.671C84.3762 85.5497 84.3025 85.398 84.2592 85.216L84.0252 84.358C83.9038 84.3147 83.7825 84.2887 83.6612 84.28C83.5485 84.2627 83.4358 84.254 83.3232 84.254C82.7685 84.254 82.3092 84.4707 81.9452 84.904C81.5898 85.3373 81.4122 85.97 81.4122 86.802C81.4122 87.6167 81.6072 88.2407 81.9972 88.674C82.3872 89.1073 82.8855 89.324 83.4922 89.324C83.8648 89.324 84.2072 89.2417 84.5192 89.077C84.8312 88.9037 85.0868 88.6567 85.2862 88.336L85.6112 88.505C85.4292 89.0423 85.1345 89.454 84.7272 89.74C84.3198 90.026 83.8085 90.169 83.1932 90.169ZM86.3202 90V89.532L87.2952 89.35C87.3038 89.0207 87.3082 88.6653 87.3082 88.284C87.3168 87.894 87.3212 87.556 87.3212 87.27V81.563L86.2552 81.433V80.978L88.2442 80.393L88.4262 80.497L88.3742 82.343V84.852C88.6948 84.4967 89.0675 84.2107 89.4922 83.994C89.9168 83.7687 90.3372 83.656 90.7532 83.656C91.3165 83.656 91.7325 83.8467 92.0012 84.228C92.2785 84.6007 92.4172 85.2117 92.4172 86.061V87.27C92.4172 87.5647 92.4172 87.9027 92.4172 88.284C92.4258 88.6653 92.4345 89.0207 92.4432 89.35L93.3532 89.532V90H90.3372V89.532L91.2862 89.363C91.2948 89.0337 91.2992 88.6783 91.2992 88.297C91.3078 87.907 91.3122 87.5647 91.3122 87.27V86.165C91.3122 85.567 91.2298 85.1553 91.0652 84.93C90.9005 84.7047 90.6275 84.592 90.2462 84.592C89.9255 84.592 89.6222 84.657 89.3362 84.787C89.0502 84.917 88.7425 85.1337 88.4132 85.437V87.27C88.4132 87.556 88.4132 87.894 88.4132 88.284C88.4218 88.6653 88.4305 89.0207 88.4392 89.35L89.3362 89.532V90H86.3202ZM97.2998 90.169C96.7971 90.169 96.3161 90.052 95.8568 89.818C95.4061 89.5753 95.0378 89.2157 94.7518 88.739C94.4658 88.2537 94.3228 87.6557 94.3228 86.945C94.3228 86.2257 94.4658 85.6233 94.7518 85.138C95.0378 84.644 95.4061 84.2757 95.8568 84.033C96.3161 83.7817 96.7971 83.656 97.2998 83.656C97.8025 83.656 98.2791 83.7817 98.7298 84.033C99.1891 84.2757 99.5618 84.644 99.8478 85.138C100.142 85.6233 100.29 86.2257 100.29 86.945C100.29 87.6557 100.142 88.2537 99.8478 88.739C99.5618 89.2157 99.1891 89.5753 98.7298 89.818C98.2791 90.052 97.8025 90.169 97.2998 90.169ZM97.2998 89.584C97.8631 89.584 98.2965 89.363 98.5998 88.921C98.9031 88.4703 99.0548 87.8117 99.0548 86.945C99.0548 86.0697 98.9031 85.4023 98.5998 84.943C98.2965 84.4837 97.8631 84.254 97.2998 84.254C96.7365 84.254 96.3031 84.4837 95.9998 84.943C95.7051 85.4023 95.5578 86.0697 95.5578 86.945C95.5578 87.8117 95.7051 88.4703 95.9998 88.921C96.3031 89.363 96.7365 89.584 97.2998 89.584ZM104.435 90.169C103.932 90.169 103.451 90.052 102.992 89.818C102.541 89.5753 102.173 89.2157 101.887 88.739C101.601 88.2537 101.458 87.6557 101.458 86.945C101.458 86.2257 101.601 85.6233 101.887 85.138C102.173 84.644 102.541 84.2757 102.992 84.033C103.451 83.7817 103.932 83.656 104.435 83.656C104.937 83.656 105.414 83.7817 105.865 84.033C106.324 84.2757 106.697 84.644 106.983 85.138C107.277 85.6233 107.425 86.2257 107.425 86.945C107.425 87.6557 107.277 88.2537 106.983 88.739C106.697 89.2157 106.324 89.5753 105.865 89.818C105.414 90.052 104.937 90.169 104.435 90.169ZM104.435 89.584C104.998 89.584 105.431 89.363 105.735 88.921C106.038 88.4703 106.19 87.8117 106.19 86.945C106.19 86.0697 106.038 85.4023 105.735 84.943C105.431 84.4837 104.998 84.254 104.435 84.254C103.871 84.254 103.438 84.4837 103.135 84.943C102.84 85.4023 102.693 86.0697 102.693 86.945C102.693 87.8117 102.84 88.4703 103.135 88.921C103.438 89.363 103.871 89.584 104.435 89.584ZM108.205 90V89.532L109.245 89.35C109.254 88.9947 109.258 88.648 109.258 88.31C109.267 87.9633 109.271 87.6167 109.271 87.27V81.563L108.205 81.433V80.978L110.233 80.393L110.415 80.497L110.363 82.343V87.27C110.363 87.6167 110.363 87.9633 110.363 88.31C110.372 88.6567 110.381 89.0033 110.389 89.35L111.429 89.532V90H108.205Z" fill="white"/>
<g clip-path="url(#clip0_403_4755)">
<path d="M85.6685 66.2727C85.5731 63.7203 85.6795 61.168 85.6233 58.6147C85.7146 57.7945 84.8916 57.4479 84.3555 57.0307C82.8459 55.9122 80.9317 55.5777 79.0938 55.5102C75.3778 55.3701 71.7341 56.2881 68.0974 56.9309C65.1232 57.4448 62.1009 58.1895 59.0745 57.7501C56.4827 57.5698 53.9532 56.9692 51.3956 56.5873C47.5873 55.8911 43.7418 54.9288 39.8442 55.2442C38.4128 55.3449 36.6351 55.8981 36.2998 57.5043C36.1944 59.6687 36.2657 61.8361 36.2657 64.0075C36.2737 64.4811 36.2466 64.9476 36.2165 65.4212C36.1603 66.2465 36.082 67.0647 36.1412 67.899C36.1904 68.5731 36.2537 69.2895 36.616 69.8769C36.9292 70.3959 37.3638 70.7637 37.9059 71.0176C39.1184 71.5819 41.0246 71.6463 41.9411 70.5369C42.2753 70.1389 42.5132 69.6694 42.5473 69.1384C42.6798 67.502 42.5252 65.8575 42.5845 64.2171C49.4804 64.3431 56.1103 66.8692 63.0173 66.9226C68.6093 66.9407 73.8631 64.5395 79.4411 64.4912C79.4702 66.1386 79.421 67.7871 79.4109 69.4306C79.43 69.9152 79.5997 70.5289 79.8787 70.9309C80.4298 71.737 81.555 71.8821 82.4484 71.8821C83.415 71.8821 84.5513 71.4801 85.1847 70.7002C86.1443 69.4215 85.9034 67.7388 85.6685 66.2727ZM41.0206 70.3596C39.8131 70.8372 38.2431 70.6599 37.3568 69.6512C36.6662 68.567 36.6512 67.105 37.2936 65.9925C37.7613 65.2429 38.5985 64.8821 39.3533 64.5023C39.3654 65.6117 39.3573 66.7301 39.3684 67.8516C40.1222 67.8264 41.0848 67.5382 41.6279 68.2426C41.8969 68.958 41.8136 70.019 41.0206 70.3596ZM40.073 66.9327C40.078 66.0691 40.078 65.2076 40.1031 64.3491C40.6462 64.3027 41.1912 64.2645 41.7303 64.2151C41.7714 65.2237 41.7594 66.2394 41.7794 67.2501C41.2244 67.0838 40.6542 66.981 40.073 66.9327ZM61.5799 66.1437C58.4321 65.9734 55.3605 65.2338 52.2508 64.7461C48.2167 64.0448 44.1152 63.0573 40.0088 63.6286C38.8665 63.7234 37.8848 64.333 36.9674 64.9617C36.9934 62.6643 36.9533 60.368 36.9754 58.0645C37.0286 57.1244 37.8256 56.3788 38.7149 56.2014C40.9453 55.7641 43.248 55.9142 45.4774 56.3102C49.2335 57.0015 53.0057 57.5869 56.7638 58.265C60.0632 58.8595 63.4831 58.7628 66.7283 57.9436C70.645 57.2947 74.5366 56.2377 78.5326 56.2175C80.763 56.28 83.3066 56.68 84.8454 58.4565C84.9478 60.7942 84.8384 63.1319 84.8946 65.4696C83.7663 64.6786 82.5176 63.9702 81.1093 63.8866C74.4834 63.2004 68.2038 66.5185 61.5799 66.1437ZM80.1859 64.5526C80.7369 64.6101 81.287 64.6776 81.8381 64.7532C81.8571 65.6449 81.8571 66.5336 81.8381 67.4284C81.2649 67.4707 80.7128 67.5987 80.1708 67.769C80.1859 66.6969 80.1728 65.6288 80.1859 64.5526ZM85.1023 68.827C85.007 69.3197 84.7962 69.8991 84.49 70.2971C84.0042 70.8151 83.3498 71.069 82.6572 71.1183C81.4827 71.21 80.226 71.0236 80.1999 69.5878C80.1999 69.3338 80.2381 69.0759 80.3475 68.8381C80.7741 67.9262 81.7899 68.3202 82.5879 68.4028C82.612 67.2732 82.604 66.1407 82.615 65.0121C83.2885 65.395 84.0765 65.6459 84.5894 66.2626C85.1515 66.9437 85.268 67.9806 85.1023 68.827Z" fill="#24245B"/>
<path d="M85.7882 66.2686C85.7561 65.399 85.747 64.5295 85.747 63.6589C85.747 62.5847 85.7611 61.5086 85.7611 60.4324C85.7611 59.8259 85.7571 59.2193 85.743 58.6127L85.6226 58.6157L85.742 58.6288C85.747 58.5824 85.7501 58.5371 85.7501 58.4918C85.7511 58.0796 85.5292 57.7774 85.2622 57.5446C84.9942 57.3098 84.673 57.1264 84.4291 56.936L84.4281 56.935L84.4271 56.934C82.8863 55.7933 80.947 55.4588 79.0991 55.3903C78.8401 55.3802 78.5811 55.3762 78.3231 55.3762C74.8541 55.3772 71.4573 56.2165 68.0776 56.8141C65.7308 57.2201 63.3649 57.7653 61.003 57.7653C60.3656 57.7653 59.7282 57.726 59.0918 57.6333L59.0878 57.6323H59.0828C56.5041 57.4529 53.9776 56.8534 51.414 56.4694L51.3959 56.5883L51.417 56.4694C48.1246 55.8679 44.7941 55.0628 41.4144 55.0628C40.8894 55.0628 40.3624 55.0819 39.8344 55.1253L39.8445 55.2452L39.8364 55.1253C39.1097 55.1767 38.2936 55.3419 37.606 55.7047C36.9195 56.0654 36.3583 56.6367 36.1827 57.4811L36.1807 57.4902L36.1797 57.5003C36.1345 58.4232 36.1215 59.3462 36.1215 60.2692C36.1215 61.5167 36.1445 62.7631 36.1445 64.0095V64.0105V64.0115C36.1455 64.066 36.1455 64.1214 36.1455 64.1758C36.1455 64.5879 36.1215 64.998 36.0954 65.4152V65.4142C36.0552 66.0268 36 66.6425 36 67.2672C36 67.4788 36.006 67.6924 36.0221 67.906C36.0723 68.5801 36.1335 69.3177 36.5149 69.9384L36.6173 69.8749L36.5149 69.9374C36.8402 70.4775 37.2959 70.8634 37.857 71.1244C38.403 71.3783 39.0786 71.5325 39.7501 71.5325C40.6164 71.5325 41.4856 71.2745 42.0357 70.6105L42.0347 70.6115C42.381 70.1994 42.6329 69.7067 42.6691 69.1434L42.5496 69.1353L42.6691 69.1454C42.7122 68.6164 42.7253 68.0874 42.7253 67.5604C42.7253 66.7281 42.6932 65.8968 42.6932 65.0696C42.6932 64.7854 42.6972 64.5012 42.7072 64.2181L42.5878 64.2141L42.5858 64.334C49.4536 64.4569 56.0835 66.984 63.0196 67.0395H63.0206H63.0838C68.6869 67.0364 73.9226 64.6524 79.4454 64.6081L79.4444 64.4881L79.3249 64.4902C79.3309 64.859 79.3339 65.2277 79.3339 65.5965C79.3339 66.8722 79.3028 68.1499 79.2948 69.4275V69.4306V69.4336C79.3159 69.9414 79.4865 70.5672 79.7846 70.9984L79.7836 70.9974C80.0797 71.4307 80.5264 71.6806 81.0052 71.8227C81.484 71.9647 81.999 72 82.4527 72C83.4504 71.998 84.6148 71.5919 85.2813 70.7737L85.2823 70.7727L85.2833 70.7707C85.8354 70.0372 86.002 69.1756 86.001 68.3121C86.001 67.6138 85.8936 66.9105 85.7882 66.2545L85.5513 66.2928C85.6567 66.9468 85.7611 67.638 85.7611 68.3111C85.7611 69.1464 85.6015 69.9465 85.0916 70.6246L85.1869 70.6971L85.0936 70.6216C84.4943 71.3642 83.3862 71.7612 82.4507 71.7602C82.01 71.7602 81.5161 71.7239 81.0715 71.5919C80.6258 71.4599 80.2353 71.2352 79.9794 70.8614L79.9784 70.8604C79.7164 70.4876 79.5487 69.886 79.5327 69.4245L79.4132 69.4296L79.5327 69.4306C79.5407 68.1569 79.5728 66.8782 79.5728 65.5986C79.5728 65.2288 79.5698 64.8579 79.5638 64.4881L79.5618 64.3692L79.4423 64.3703C73.8513 64.4227 68.6176 66.8057 63.0828 66.8017H63.0206H63.0216C56.1437 66.7503 49.5138 64.2241 42.5908 64.0962L42.4733 64.0942L42.4693 64.2121C42.4593 64.4992 42.4553 64.7854 42.4553 65.0716C42.4553 65.9049 42.4874 66.7362 42.4874 67.5624C42.4874 68.0864 42.4743 68.6083 42.4322 69.1283V69.1293V69.1303C42.4001 69.6291 42.1772 70.0744 41.854 70.4583L41.853 70.4593C41.3682 71.0478 40.5742 71.2937 39.7521 71.2937C39.1177 71.2937 38.4713 71.1455 37.9594 70.9077C37.4344 70.6619 37.0218 70.3122 36.7217 69.8145L36.7207 69.8135C36.3774 69.2603 36.3122 68.563 36.263 67.8899C36.2479 67.6823 36.2419 67.4758 36.2419 67.2682C36.2419 66.6576 36.2961 66.048 36.3383 65.4293V65.4283C36.3654 65.0101 36.3895 64.595 36.3895 64.1738C36.3895 64.1173 36.3895 64.0619 36.3885 64.0055L36.268 64.0075H36.3885C36.3885 62.7581 36.3644 61.5116 36.3644 60.2672C36.3644 59.3462 36.3774 58.4273 36.4226 57.5103L36.3031 57.5043L36.4206 57.5295C36.5802 56.7677 37.076 56.2589 37.7205 55.9173C38.3639 55.5767 39.1519 55.4145 39.8555 55.3651H39.8565H39.8575C40.3785 55.3228 40.8984 55.3036 41.4174 55.3036C44.7589 55.3036 48.0764 56.1027 51.3768 56.7062H51.3788H51.3808C53.9314 57.0881 56.4639 57.6897 59.0687 57.8711L59.0768 57.7512L59.0597 57.8701C59.7091 57.9638 60.3576 58.0041 61.005 58.0041C63.404 58.0041 65.783 57.4529 68.1208 57.0498C71.5115 56.4503 74.8952 55.616 78.3251 55.616C78.5811 55.616 78.8371 55.621 79.093 55.6301C80.9199 55.6976 82.809 56.0301 84.2876 57.1274L84.3588 57.0307L84.2856 57.1254C84.5495 57.331 84.8657 57.5123 85.1076 57.726C85.3506 57.9416 85.5122 58.1713 85.5132 58.4918C85.5132 58.527 85.5112 58.5633 85.5071 58.6016L85.5061 58.6096V58.6177C85.5202 59.2223 85.5242 59.8269 85.5242 60.4324C85.5242 61.5066 85.5102 62.5827 85.5102 63.6589C85.5102 64.5315 85.5192 65.4041 85.5513 66.2777L85.7882 66.2686ZM40.9767 70.2477C40.5712 70.408 40.1215 70.4926 39.6718 70.4926C38.8296 70.4926 37.9965 70.1974 37.4464 69.5716L37.3561 69.6512L37.4575 69.5867C37.1152 69.0497 36.9446 68.4139 36.9446 67.776C36.9446 67.1745 37.0961 66.5729 37.3962 66.053L37.2929 65.9925L37.3942 66.056C37.8339 65.3466 38.6449 64.9899 39.4068 64.6101L39.3536 64.5023L39.2342 64.5033C39.2452 65.6117 39.2382 66.7291 39.2492 67.8526L39.2502 67.9755L39.3727 67.9715C39.733 67.9584 40.1245 67.8909 40.4869 67.8909C40.6967 67.8909 40.8954 67.9131 41.0711 67.9776C41.2467 68.0421 41.4013 68.1438 41.5328 68.3151L41.6282 68.2416L41.5157 68.2839C41.598 68.5035 41.6462 68.7615 41.6462 69.0174C41.6462 69.2804 41.595 69.5404 41.4866 69.756C41.3772 69.9727 41.2126 70.144 40.9737 70.2477L41.0681 70.4694C41.3622 70.3435 41.5709 70.1228 41.7004 69.8659C41.8309 69.6069 41.8861 69.3117 41.8861 69.0174C41.8861 68.7313 41.8329 68.4471 41.7396 68.1982L41.7336 68.1811L41.7225 68.167C41.5629 67.9594 41.3642 67.8274 41.1514 67.7498C40.9386 67.6733 40.7117 67.6501 40.4859 67.6501C40.0964 67.6501 39.6999 67.7196 39.3636 67.7307L39.3677 67.8506L39.4871 67.8496C39.4761 66.7301 39.4831 65.6117 39.4721 64.5002L39.47 64.3078L39.2984 64.3944C38.5496 64.7723 37.6863 65.1371 37.1905 65.928L37.1895 65.9301L37.1885 65.9321C36.8663 66.4923 36.7046 67.1342 36.7046 67.776C36.7046 68.4572 36.8863 69.1373 37.2557 69.7167L37.2607 69.7248L37.2668 69.7318C37.874 70.42 38.7764 70.7334 39.6718 70.7334C40.1506 70.7334 40.6294 70.6448 41.064 70.4724L40.9767 70.2477ZM40.1938 66.9327C40.1988 66.0681 40.1988 65.2086 40.2239 64.3521L40.1044 64.3481L40.1145 64.468C40.6565 64.4227 41.2016 64.3844 41.7416 64.334L41.7305 64.2141L41.6111 64.2191C41.6512 65.2237 41.6402 66.2384 41.6603 67.2511L41.7797 67.2491L41.8139 67.1332C41.2497 66.9649 40.6716 66.8601 40.0834 66.8107L40.0633 67.0505C40.6364 67.0989 41.1985 67.2007 41.7456 67.3639L41.9032 67.4113L41.9002 67.246C41.8801 66.2374 41.8922 65.2217 41.851 64.209L41.846 64.0821L41.7205 64.0932C41.1835 64.1425 40.6384 64.1808 40.0944 64.2262L39.988 64.2352L39.985 64.3431C39.9599 65.2046 39.9599 66.0661 39.9549 66.9296L40.1938 66.9327ZM61.5872 66.0238C58.4534 65.8555 55.3859 65.1169 52.2702 64.6282L52.2511 64.7471L52.2722 64.6282C49.0862 64.075 45.848 63.3384 42.5858 63.3384C41.7235 63.3384 40.8583 63.3898 39.993 63.5107L40.0091 63.6307L39.999 63.5107C38.8186 63.6095 37.8198 64.2342 36.8994 64.865L36.9666 64.9648L37.0871 64.9658C37.0941 64.3572 37.0961 63.7475 37.0961 63.1389C37.0961 61.9741 37.0881 60.8093 37.0881 59.6445C37.0881 59.1195 37.0901 58.5945 37.0951 58.0686L36.9757 58.0676L37.0951 58.0746C37.1202 57.6373 37.318 57.2433 37.6181 56.934C37.9172 56.6256 38.3187 56.406 38.7393 56.3233C39.6778 56.14 40.6304 56.0604 41.586 56.0604C42.8799 56.0604 44.1798 56.2055 45.4576 56.4332H45.4556C49.2137 57.1244 52.9859 57.7098 56.743 58.388C58.1553 58.6419 59.5897 58.7709 61.0231 58.7709C62.9543 58.7709 64.8846 58.5371 66.7577 58.0645L66.7285 57.9476L66.7476 58.0665C70.6724 57.4156 74.558 56.3616 78.5329 56.3415L78.5319 56.2216L78.5289 56.3415C79.6381 56.3727 80.8215 56.4886 81.9136 56.8141C83.0057 57.1395 84.0035 57.6736 84.7543 58.5391L84.8447 58.4605L84.7252 58.4656C84.7613 59.2888 84.7714 60.112 84.7714 60.9373C84.7714 61.9106 84.7573 62.886 84.7573 63.8624C84.7573 64.4005 84.7613 64.9386 84.7744 65.4766L84.8938 65.4736L84.9631 65.3749C83.8288 64.5798 82.5621 63.8564 81.1166 63.7697L81.1096 63.8896L81.1217 63.7697C80.4943 63.7052 79.8689 63.675 79.2476 63.676C73.6174 63.679 68.2262 66.06 62.6452 66.057C62.2939 66.053 61.9415 66.0439 61.5872 66.0238L61.5742 66.2646C61.9325 66.2847 62.2899 66.2938 62.6472 66.2938C68.2954 66.2908 73.6867 63.9098 79.2496 63.9128C79.8639 63.9128 80.4802 63.942 81.0986 64.0055H81.1016H81.1036C82.4747 64.0871 83.7044 64.7804 84.8266 65.5673L85.0203 65.7033L85.0153 65.4655C85.0022 64.9295 84.9982 64.3934 84.9982 63.8574C84.9982 62.884 85.0123 61.9086 85.0123 60.9322C85.0123 60.106 85.0022 59.2787 84.9661 58.4504L84.9641 58.4081L84.937 58.3759C84.148 57.466 83.1051 56.9118 81.9839 56.5773C80.8617 56.2427 79.6582 56.1269 78.5379 56.0956H78.5359H78.5339C74.5178 56.1168 70.6202 57.1768 66.7115 57.8237L66.7065 57.8247L66.7014 57.8257C64.8485 58.2943 62.9373 58.525 61.0251 58.525C59.6058 58.525 58.1854 58.398 56.7872 58.1451C53.027 57.466 49.2548 56.8816 45.5007 56.1903H45.4997C44.2119 55.9616 42.8989 55.8145 41.586 55.8145C40.6174 55.8145 39.6487 55.8951 38.6931 56.0815L38.6871 56.0825L38.6921 56.0815C38.2224 56.1752 37.7807 56.4171 37.4464 56.7607C37.1122 57.1043 36.8843 57.5526 36.8562 58.0555V58.0585V58.0615C36.8512 58.5885 36.8492 59.1145 36.8492 59.6394C36.8492 60.8063 36.8572 61.9701 36.8572 63.1339C36.8572 63.7425 36.8552 64.3501 36.8482 64.9577L36.8452 65.1895L37.0359 65.0595C37.9503 64.4317 38.914 63.8372 40.0191 63.7465H40.0221L40.0251 63.7455C40.8783 63.6266 41.7316 63.5752 42.5848 63.5752C45.8109 63.5752 49.036 64.3068 52.23 64.862H52.231H52.232C55.3357 65.3487 58.4113 66.0893 61.5732 66.2606L61.5872 66.0238ZM80.1741 64.6725C80.7232 64.73 81.2722 64.7975 81.8223 64.8721L81.8384 64.7532L81.7179 64.7562C81.7279 65.2005 81.732 65.6449 81.732 66.0903C81.732 66.5346 81.7269 66.98 81.7179 67.4264L81.8384 67.4284L81.8293 67.3085C81.2441 67.3518 80.683 67.4818 80.1349 67.6541L80.1711 67.769L80.2905 67.771C80.3056 66.6969 80.2935 65.6278 80.3056 64.5546L80.0657 64.5516C80.0536 65.6288 80.0657 66.6979 80.0506 67.768L80.0486 67.9342L80.2072 67.8849C80.7442 67.7156 81.2863 67.5906 81.8474 67.5493L81.9558 67.5413L81.9578 67.4314C81.9678 66.984 81.9719 66.5367 81.9719 66.0903C81.9719 65.6439 81.9668 65.1975 81.9578 64.7511L81.9558 64.6484L81.8544 64.6343C81.3023 64.5587 80.7503 64.4912 80.1982 64.4337L80.1741 64.6725ZM84.9852 68.8038C84.8938 69.2814 84.6851 69.8487 84.396 70.2226L84.4913 70.2961L84.404 70.2135C83.9423 70.7062 83.3199 70.9491 82.6494 70.9974H82.6484C82.4938 71.0095 82.3382 71.0166 82.1857 71.0166C81.6898 71.0176 81.219 70.94 80.8848 70.7264C80.5515 70.5117 80.3347 70.1772 80.3206 69.5837L80.2012 69.5857H80.3216C80.3216 69.3439 80.3578 69.1041 80.4582 68.8854V68.8864C80.5585 68.6738 80.684 68.5499 80.8326 68.4723C80.9811 68.3947 81.1578 68.3645 81.3555 68.3655C81.734 68.3645 82.1736 68.4773 82.5771 68.5207L82.7066 68.5348L82.7096 68.4038C82.7337 67.2722 82.7257 66.1386 82.7367 65.0111L82.6163 65.0101L82.5571 65.1149C83.2466 65.5038 84.0165 65.7547 84.4984 66.3371V66.3361C84.8838 66.8027 85.0534 67.4617 85.0534 68.1035C85.0524 68.3453 85.0283 68.5811 84.9852 68.8038L85.2211 68.8502C85.2672 68.6124 85.2923 68.3615 85.2923 68.1065C85.2913 67.4234 85.1157 66.713 84.682 66.185L84.681 66.184C84.136 65.5341 83.33 65.2822 82.6735 64.9063L82.4968 64.8056L82.4948 65.0101C82.4848 66.1407 82.4918 67.2732 82.4677 68.3998L82.5882 68.4028L82.6002 68.2829C82.2218 68.2446 81.7761 68.1277 81.3535 68.1267C81.1337 68.1267 80.9159 68.1589 80.7201 68.2607C80.5244 68.3615 80.3558 68.5338 80.2383 68.7867L80.2373 68.7877C80.1189 69.0467 80.0787 69.3227 80.0787 69.5877V69.5898V69.5908C80.0878 70.2427 80.3548 70.682 80.7553 70.9319C81.1538 71.1828 81.6647 71.2584 82.1847 71.2594C82.3453 71.2594 82.5069 71.2513 82.6665 71.2393H82.6655C83.3812 71.1879 84.0677 70.9239 84.5777 70.3797L84.5817 70.3757L84.5857 70.3707C84.9089 69.9495 85.1217 69.358 85.2201 68.8502L84.9852 68.8038Z" fill="#A08D65"/>
<path d="M76.4643 16.0062C75.9926 16.2097 75.5318 16.4475 75.0601 16.6601C75.306 15.9618 75.4465 15.2283 75.31 14.4937C74.2601 15.8973 73.3195 17.4219 71.9012 18.489C70.2148 19.7969 68.5506 21.4564 66.3192 21.671C65.738 21.671 64.8145 21.8343 64.6027 21.0957C64.7533 20.8589 64.9089 20.6241 65.0675 20.4014C65.4861 20.5385 65.9127 20.6785 66.3353 20.8055C66.3734 20.1727 66.1807 19.5822 65.6989 19.152C66.1164 18.6351 66.7087 18.7137 67.2858 18.8406C67.2417 18.0214 66.535 17.575 66.003 17.0521C66.3001 16.4505 67.056 16.4505 67.602 16.2057C66.8713 15.325 65.732 15.0479 64.663 14.8101C64.5425 14.5481 64.415 14.2912 64.2845 14.0282C63.5458 13.5012 62.5751 13.3883 61.9116 12.7354C61.3485 12.1993 60.8245 11.622 60.2323 11.1252C59.7154 11.3388 58.545 11.3328 59.1412 12.2024C58.9033 12.5006 58.6624 12.7898 58.4356 13.0871C58.7839 13.4065 59.1332 13.7229 59.4915 14.0393C59.7184 15.2565 59.8428 16.7155 61.1106 17.3231C59.9593 18.0214 58.9374 18.9948 58.4205 20.2664C58.3151 20.7873 57.7901 20.7914 57.3756 20.8347C57.0433 19.6135 56.9038 18.3549 56.6729 17.1166C56.5495 16.5976 56.3407 16.0051 55.8197 15.7623C54.1063 14.9099 52.1178 14.8333 50.2759 15.2716C50.6151 15.7623 50.9635 16.245 51.3108 16.7286C52.2423 15.6273 53.8513 15.9004 54.9364 16.6138C55.1291 16.9836 55.3449 17.3413 55.5668 17.6949C55.5627 18.6089 55.3941 19.4956 55.1412 20.3712C54.4435 19.8523 53.8724 19.1862 53.2019 18.6361C52.0616 18.3086 50.8239 18.0547 49.6425 18.2854C48.9258 18.6119 48.2503 19.026 47.5034 19.2759C47.7484 19.6457 47.9933 20.0165 48.2242 20.3954C49.0954 19.5187 50.3983 19.1379 51.6129 19.4069C52.1971 19.557 52.8506 19.8724 52.976 20.5395C53.1828 21.7003 53.2139 22.8993 53.511 24.04C52.5595 23.9785 51.628 23.7881 50.7858 23.3427C48.8957 22.3623 47.0186 21.1813 45.7589 19.414C44.6869 18.0315 44.0685 16.3749 43.121 14.9089C41.9325 15.8953 42.7104 17.6093 43.1782 18.7872C42.7897 18.5887 42.4053 18.3973 42.0088 18.2229C42.2266 19.5077 43.2234 20.4044 44.0655 21.3164C43.7784 21.4574 43.5024 21.5995 43.2244 21.7416C43.4532 22.2131 43.7252 22.6646 44.0876 23.0565C43.8347 23.1643 43.5937 23.2893 43.3528 23.4162C43.9862 24.2707 44.7712 25.0113 45.7137 25.5131C45.4879 25.6109 45.0301 25.8134 44.8003 25.9142C46.0992 26.8089 47.6199 27.2624 49.1055 27.74C48.9629 27.9878 48.8345 28.2357 48.6949 28.4886C49.1777 28.7929 49.7589 28.7688 50.299 28.8353C50.4656 29.7673 51.5296 29.6444 52.2242 29.5084C52.1329 29.7411 52.0465 29.9719 51.9522 30.2046C52.967 30.2046 53.9477 29.9527 54.8842 29.5829C55.8157 31.5317 57.4087 33.3877 59.5487 33.9762C59.2617 34.8548 58.9113 35.7889 59.1533 36.73C59.5638 38.6163 61.1227 39.899 62.266 41.348C62.5571 42.0966 62.014 42.7687 61.8293 43.462C61.7089 44.1381 61.6185 44.8243 61.4941 45.4974C61.7038 46.0526 61.9197 46.6108 62.1134 47.17C62.539 47.4633 62.9686 47.7535 63.4183 48.0316C63.4715 47.6255 63.5197 47.2234 63.5618 46.8194C63.339 46.4234 62.9837 46.1241 62.7207 45.7513C62.554 44.0786 63.6562 42.6529 64.5576 41.3611C64.5997 42.7889 64.5696 44.2338 64.8828 45.6344C65.3285 46.0647 65.6226 46.6098 65.8986 47.1499C66.1807 46.7942 66.4607 46.4385 66.7438 46.0748C66.4537 45.8188 66.1666 45.5669 65.8755 45.319C65.7812 44.4283 65.6376 43.5255 65.7661 42.6367C65.9729 42.2055 66.3011 41.8588 66.5772 41.4759C66.1887 40.7797 65.8464 40.035 65.733 39.2309C65.3405 37.3427 67.332 36.0035 67.1844 34.1374C67.0941 33.291 66.9134 32.4617 66.8683 31.6193C67.3059 31.6072 67.7516 31.6042 68.1932 31.6042C68.2916 31.7473 68.4843 32.0375 68.5827 32.1755C68.4984 32.8496 68.3107 33.4986 68.1862 34.1646C68.1973 35.6105 68.6008 37.2227 69.9288 38.0057C70.5401 37.6329 71.1564 37.2741 71.7637 36.8963C71.3059 36.0378 70.6836 35.2811 70.2841 34.3923C69.997 33.1842 70.781 31.6989 69.7049 30.7316C68.4833 30.2298 67.2336 30.5764 66.0221 30.9019C65.4499 30.6822 65.2542 30.0031 64.8617 29.5749C64.3026 28.7395 63.3279 28.3133 62.7678 27.4861C64.0918 27.7531 65.0123 29.5003 66.4647 29.0056C66.265 28.7496 66.0683 28.4826 65.8805 28.2075C66.9034 28.2307 68.0166 28.4211 68.933 27.8629C68.8206 27.7269 68.5787 27.4478 68.4572 27.3117L68.5907 27.1283C69.5212 27.0296 70.4427 26.815 71.2738 26.3686C70.9305 26.1399 70.5752 25.9162 70.2128 25.7146C71.0851 25.3469 72.1411 25.1504 72.6881 24.2949C72.4242 24.2455 71.8911 24.1448 71.6282 24.0934C72.65 23.5543 73.7301 23.0696 74.4969 22.1698C73.994 21.9874 73.4932 21.8 72.9833 21.6358C74.1526 20.7491 75.4244 19.7868 75.9414 18.3519C75.6252 18.4214 75.312 18.497 74.9948 18.5756C75.6944 17.8541 76.2234 16.9886 76.4643 16.0062ZM64.1852 37.923C65.1468 37.2903 65.5995 36.1516 66.4939 35.4735C65.9006 36.7744 64.7734 37.6631 63.7586 38.6113C63.3962 39.5625 64.3398 40.2214 64.674 41.0094C64.0677 40.5943 63.7094 39.9313 63.3621 39.2954C63.2758 39.3438 63.0941 39.4405 63.0027 39.4879C63.4896 39.0284 63.5618 38.2697 64.1852 37.923ZM63.1473 15.3562C62.7177 15.6988 62.2941 14.9492 62.7177 14.6831C63.1433 14.3496 63.5809 15.0902 63.1473 15.3562Z" fill="#61061D"/>
<path d="M40.431 60.4465L40.5354 59.5256C40.5635 59.2676 40.6006 58.8091 40.6287 58.5119L40.6458 58.5109C40.699 58.8031 40.7773 59.2374 40.8335 59.5024L41.0172 60.4153L40.431 60.4465ZM41.1246 61.0773L41.3544 62.0728L42.1293 62.0315L41.0975 57.6756L40.1409 57.7259L39.4834 62.1726L40.2583 62.1303L40.3878 61.1156L41.1246 61.0773Z" fill="#24265B"/>
<path d="M43.3499 58.2489C43.3931 58.2318 43.4734 58.2308 43.5406 58.2358C43.898 58.2741 44.0194 58.5512 43.9943 58.923C43.9682 59.3079 43.7454 59.5931 43.3981 59.5689L43.2596 59.5588L43.3499 58.2489ZM42.2939 61.9147L43.0919 61.9711L43.2134 60.2168L43.3288 60.2259C43.5968 60.245 43.7143 60.4103 43.7484 60.9625C43.7765 61.4491 43.8367 61.8985 43.8769 62.0265L44.711 62.085C44.6498 61.9167 44.5775 61.3685 44.5324 60.8738C44.4852 60.3982 44.3657 60.108 44.0937 59.971L44.0947 59.9589C44.5294 59.7795 44.7703 59.3704 44.8034 58.9019C44.8305 58.524 44.7773 58.2257 44.5454 57.9668C44.2955 57.6867 43.91 57.595 43.4724 57.5637C43.1682 57.5416 42.85 57.5526 42.5961 57.5869L42.2939 61.9147Z" fill="#24265B"/>
<path d="M46.4366 58.5633C46.4878 58.5512 46.543 58.5593 46.5962 58.5683C47.073 58.6399 47.2095 59.2152 47.076 60.107C46.8973 61.3091 46.5059 61.6597 46.1254 61.6023C46.0823 61.5963 46.0231 61.5872 45.9889 61.5691L46.4366 58.5633ZM45.1006 62.1091C45.2552 62.1525 45.4981 62.2149 45.746 62.2522C46.3121 62.3379 46.7367 62.2623 47.0509 62.0195C47.4574 61.7373 47.7616 61.1418 47.8931 60.2622C48.0186 59.4157 47.9232 58.8132 47.6241 58.4252C47.4032 58.127 47.067 57.9446 46.5541 57.868C46.2399 57.8207 45.9468 57.8096 45.74 57.8307L45.1006 62.1091Z" fill="#24265B"/>
<path d="M48.8682 58.2338L48.3814 60.908C48.1837 61.9953 48.4015 62.6794 49.2477 62.8336C50.0286 62.9767 50.5285 62.4447 50.7303 61.3322L51.2161 58.6641L50.4301 58.52L49.9182 61.3353C49.7987 61.9922 49.604 62.1353 49.3762 62.093C49.1714 62.0557 49.0268 61.831 49.1433 61.1942L49.6552 58.3779L48.8682 58.2338Z" fill="#24265B"/>
<path d="M51.7405 58.7971L51.2858 61.4774C51.1011 62.5666 51.326 63.2478 52.1741 63.3929C52.9561 63.5269 53.4499 62.9868 53.6386 61.8723L54.0924 59.1991L53.3054 59.0641L52.8266 61.8864C52.7142 62.5434 52.5225 62.6905 52.2946 62.6512C52.0898 62.616 51.9433 62.3913 52.0507 61.7545L52.5295 58.9321L51.7405 58.7971Z" fill="#24265B"/>
<path d="M53.8428 63.5309C53.9602 63.6377 54.2624 63.7858 54.5866 63.8433C55.3796 63.9853 56.019 63.5621 56.1605 62.7712C56.2408 62.3137 56.1203 61.8421 55.6466 61.3988C55.2591 61.037 55.1627 60.8808 55.2079 60.6229C55.2491 60.3911 55.4498 60.2017 55.7861 60.2622C56.0139 60.3025 56.1755 60.4042 56.2769 60.502L56.5319 59.7976C56.4255 59.6999 56.1866 59.577 55.9236 59.5296C55.0754 59.3775 54.5404 59.8803 54.4179 60.5745C54.3477 60.9665 54.4772 61.4622 54.967 61.9207C55.2661 62.22 55.4197 62.4064 55.3635 62.7218C55.3133 63.0049 55.0965 63.1782 54.7251 63.1127C54.4972 63.0714 54.2322 62.9515 54.0867 62.8266L53.8428 63.5309Z" fill="#24265B"/>
<path d="M58.5538 62.885L58.8138 61.9943C58.8861 61.7464 59.0015 61.299 59.0788 61.0128L59.0969 61.0148C59.0989 61.3111 59.1009 61.7524 59.1099 62.0235L59.135 62.9545L58.5538 62.885ZM59.128 63.6256L59.1842 64.6453L59.9521 64.739L59.6831 60.2702L58.7325 60.1543L57.3242 64.4206L58.0931 64.5143L58.3942 63.5369L59.128 63.6256Z" fill="#24265B"/>
<path d="M61.4465 61.0421C61.4957 61.0219 61.5509 61.0219 61.6051 61.0219C62.087 61.0179 62.3118 61.566 62.3158 62.4679C62.3238 63.6841 61.9906 64.0911 61.6061 64.0932C61.563 64.0932 61.5038 64.0942 61.4666 64.0811L61.4465 61.0421ZM60.6726 64.7521C60.8312 64.7713 61.0812 64.7955 61.3311 64.7935C61.9043 64.7904 62.3128 64.6504 62.5858 64.3612C62.9432 64.0196 63.152 63.3838 63.1479 62.4951C63.1419 61.6386 62.9552 61.0592 62.5989 60.7206C62.3349 60.4617 61.9745 60.3327 61.4556 60.3367C61.1384 60.3387 60.8463 60.373 60.6445 60.4264L60.6726 64.7521Z" fill="#24265B"/>
<path d="M64.8954 64.1465C65.0409 64.209 65.3742 64.2463 65.7004 64.1939C66.4944 64.0649 66.9571 63.4523 66.8276 62.6593C66.7533 62.2008 66.4843 61.7947 65.8911 61.5338C65.4063 61.3222 65.2637 61.2063 65.2216 60.9473C65.1844 60.7156 65.3099 60.4697 65.6472 60.4153C65.876 60.378 66.0628 60.4203 66.1892 60.4788L66.1973 59.7291C66.0638 59.6717 65.7988 59.6354 65.5338 59.6787C64.6846 59.8188 64.3463 60.4687 64.4597 61.166C64.524 61.56 64.809 61.9832 65.4203 62.2542C65.8018 62.4366 66.0085 62.5615 66.0587 62.8779C66.1049 63.1621 65.9574 63.3979 65.584 63.4593C65.3551 63.4966 65.067 63.4714 64.8883 63.4009L64.8954 64.1465Z" fill="#24265B"/>
<path d="M77.4344 60.4536L77.5679 59.5357C77.606 59.2797 77.6562 58.8223 77.6934 58.527L77.7114 58.526C77.7556 58.8203 77.8178 59.2555 77.866 59.5236L78.0196 60.4415L77.4344 60.4536ZM78.1069 61.1066L78.3047 62.1081L79.0786 62.092L78.1892 57.7058L77.2316 57.726L76.4326 62.1474L77.2065 62.1313L77.3691 61.1217L78.1069 61.1066Z" fill="#24265B"/>
<path d="M68.1275 63.7526L68.9084 63.5893L68.1777 60.0516L68.8933 59.9014L68.7337 59.1276L66.5234 59.5891L66.684 60.3629L67.3947 60.2138L68.1275 63.7526Z" fill="#24265B"/>
<path d="M71.1087 60.4093L70.1903 60.6068L69.9795 59.6153L70.9461 59.4077L70.7905 58.6802L69.043 59.055L69.9594 63.3616L71.7783 62.9727L71.6237 62.2431L70.5858 62.4658L70.3378 61.303L71.2573 61.1055L71.1087 60.4093Z" fill="#24265B"/>
<path d="M72.2286 62.888L74.0525 62.5505L73.921 61.8361L72.8831 62.0285L72.2176 58.4111L71.4316 58.5562L72.2286 62.888Z" fill="#24265B"/>
<path d="M74.4453 62.4396L76.2852 62.2099L76.1959 61.4904L75.149 61.6214L74.6963 57.9698L73.9043 58.0685L74.4453 62.4396Z" fill="#24265B"/>
<path d="M79.3916 62.1162C79.51 62.221 79.8152 62.3621 80.1404 62.4145C80.9354 62.5404 81.5668 62.1041 81.6913 61.3101C81.7635 60.8516 81.633 60.3811 81.1522 59.9478C80.7577 59.5941 80.6584 59.4389 80.6985 59.18C80.7347 58.9482 80.9314 58.7548 81.2697 58.8082C81.4985 58.8444 81.6621 58.9432 81.7645 59.0379L82.0054 58.3285C81.898 58.2318 81.6561 58.1149 81.3921 58.0726C80.5419 57.9376 80.017 58.4505 79.9075 59.1467C79.8473 59.5407 79.9848 60.0324 80.4817 60.4818C80.7879 60.775 80.9444 60.9584 80.8943 61.2748C80.8491 61.558 80.6363 61.7363 80.2629 61.6779C80.035 61.6416 79.769 61.5257 79.6205 61.4038L79.3916 62.1162Z" fill="#24265B"/>
<path d="M85.692 6.5395C79.0309 10.9197 65.4368 8.46407 62.3803 1.58903C62.0982 0.931047 62.0189 0.562256 62.0189 0.562256C61.9617 0.818193 61.7459 1.31193 61.6867 1.44091C58.1775 8.59002 44.3154 11.0789 36.3113 6.25031C34.9682 32.8194 45.3011 47.6527 61.7168 56.3898C77.8304 47.9217 86.8925 32.3801 85.692 6.5395ZM61.9999 54.0945C47.0206 46.3136 37.5911 32.9565 38.3148 9.40821C47.0657 13.0689 58.1273 9.12406 61.9999 4.53634C66.1354 9.27924 75.339 12.7173 83.6985 9.68834C84.4653 32.5262 75.9393 46.0214 61.9999 54.0945Z" fill="#24245B"/>
<path d="M85.6255 6.43874C83.3821 7.91491 80.3256 8.61219 77.1527 8.61118C74.0861 8.61118 70.9112 7.96126 68.2592 6.75009C65.6063 5.53893 63.4793 3.76853 62.4905 1.53965L62.3811 1.58903L62.4915 1.54167C62.352 1.21721 62.2627 0.964299 62.2095 0.793003C62.1824 0.707354 62.1643 0.642866 62.1533 0.599538L62.1412 0.551172L62.1382 0.537065L62.0218 0L61.9023 0.536058C61.8521 0.767812 61.6353 1.2686 61.5781 1.39053L61.6865 1.44091L61.5791 1.3875C60.4609 3.66776 58.2626 5.47948 55.5233 6.71886C52.785 7.95824 49.5087 8.62428 46.2485 8.62428C42.6991 8.62428 39.1699 7.8343 36.3723 6.14653L36.2007 6.04274L36.1907 6.24326C36.1124 7.79702 36.0742 9.30846 36.0742 10.7816C36.0742 22.6726 38.5947 32.0415 43.0565 39.4678C47.5172 46.895 53.9173 52.3744 61.6614 56.4956L61.7176 56.5249L61.7738 56.4956C69.3724 52.5034 75.4131 46.9353 79.5487 39.4627C83.6862 31.9891 85.9186 22.6152 85.9186 11.0093C85.9186 9.55231 85.8835 8.06102 85.8122 6.53345L85.5723 6.54454C85.6436 8.06807 85.6787 9.55634 85.6787 11.0093C85.6787 22.5839 83.4524 31.9156 79.3389 39.3458C75.2244 46.7761 69.2249 52.3079 61.6604 56.283L61.7166 56.3898L61.7728 56.283C54.0578 52.177 47.6969 46.7267 43.2612 39.3438C38.8256 31.9599 36.3141 22.6394 36.3141 10.7816C36.3141 9.31249 36.3523 7.80407 36.4306 6.25636L36.3111 6.25031L36.2489 6.3541C39.0946 8.07009 42.664 8.8651 46.2485 8.86611C49.5409 8.86611 52.8473 8.19402 55.6217 6.93953C58.3951 5.68403 60.6406 3.84309 61.7939 1.49532L61.7949 1.49431L61.7959 1.4933C61.8582 1.35828 62.073 0.869582 62.1372 0.589462L62.0198 0.563264L61.9023 0.588454C61.9043 0.595508 61.9856 0.97236 62.2707 1.63739V1.6384L62.2717 1.63941C63.2966 3.94285 65.4728 5.74347 68.1609 6.97076C70.849 8.19805 74.054 8.85301 77.1537 8.85402C80.3617 8.85301 83.4594 8.15271 85.758 6.64228L85.6255 6.43874ZM62.0549 53.9877C54.8498 50.2443 48.9386 45.2142 44.8251 38.3775C40.7127 31.5397 38.3959 22.8933 38.3959 11.9102C38.3959 11.091 38.409 10.2587 38.4351 9.41225L38.3156 9.40822L38.2695 9.51905C40.6966 10.5337 43.2974 10.968 45.8721 10.968C49.2608 10.968 52.6054 10.2183 55.4581 9.05051C58.3098 7.88166 60.6707 6.29767 62.092 4.61493L62.0007 4.53734L61.9104 4.61695C64.994 8.1507 70.8369 10.9499 77.0744 10.9519C79.2827 10.9519 81.5402 10.6002 83.7404 9.8022L83.6993 9.68934L83.5788 9.69237C83.611 10.6405 83.626 11.5736 83.626 12.4895C83.626 23.0485 81.5331 31.4934 77.778 38.2626C74.0229 45.0319 68.6045 50.1295 61.9405 53.9897L62.0599 54.1982C68.7551 50.3209 74.2096 45.1911 77.9878 38.3795C81.766 31.568 83.8659 23.0787 83.8659 12.4885C83.8659 11.5696 83.8498 10.6345 83.8177 9.6833L83.8127 9.51805L83.6581 9.57447C81.486 10.3614 79.2566 10.7091 77.0734 10.7091C70.9082 10.7111 65.1154 7.92801 62.09 4.45674L61.9987 4.35194L61.9083 4.45875C60.5241 6.10017 58.1914 7.67107 55.3658 8.82681C52.5411 9.98357 49.2247 10.7272 45.8711 10.7272C43.3225 10.7272 40.7538 10.2979 38.3608 9.29637L38.2002 9.22886L38.1952 9.40318C38.1691 10.2516 38.156 11.0859 38.156 11.9081C38.156 22.9245 40.4808 31.6193 44.6204 38.4994C48.7599 45.3795 54.7103 50.4408 61.9455 54.1993L62.0549 53.9877Z" fill="#A08D65"/>
</g>
<defs>
<clipPath id="clip0_403_4755">
<rect width="50" height="72" fill="white" transform="translate(36)"/>
</clipPath>
</defs>
</svg>
