<svg width="50" height="71" viewBox="0 0 50 71" fill="none" xmlns="http://www.w3.org/2000/svg">
<path d="M49.1049 65.3822C49.0122 62.844 49.1181 60.3012 49.0607 57.7629C49.1534 56.9494 48.3373 56.6027 47.8035 56.1848C46.3081 55.0735 44.4112 54.7401 42.5894 54.6734C38.906 54.5356 35.2931 55.4469 31.6891 56.0871C28.7424 56.5983 25.7471 57.3406 22.7475 56.9005C20.1801 56.7227 17.6701 56.1226 15.138 55.7448C11.3619 55.0513 7.5506 54.0955 3.69073 54.4067C2.27471 54.509 0.510194 55.0557 0.179348 56.6561C0.0734778 58.8076 0.144058 60.968 0.144058 63.1284C0.152881 63.5997 0.126413 64.062 0.0955342 64.5332C0.0381876 65.3556 -0.0368042 66.1691 0.0205424 67.0003C0.0690665 67.6716 0.130824 68.3828 0.492549 68.9696C0.801339 69.4853 1.23364 69.8498 1.77182 70.1032C2.97169 70.6633 4.86413 70.73 5.77285 69.6231C6.1037 69.2274 6.34191 68.7607 6.37278 68.2317C6.50512 66.6047 6.35073 64.9688 6.40807 63.3329C13.2411 63.4574 19.814 65.9735 26.6603 66.0268C32.2008 66.0446 37.4105 63.6574 42.9379 63.6085C42.9688 65.2489 42.9202 66.8892 42.907 68.5251C42.9246 69.0096 43.0923 69.6186 43.3702 70.0187C43.9172 70.8233 45.0332 70.9656 45.9155 70.9656C46.8727 70.9656 48.002 70.5655 48.6284 69.7876C49.5769 68.5162 49.3386 66.8403 49.1049 65.3822ZM4.85089 69.4497C3.65544 69.9254 2.09826 69.7475 1.22041 68.7429C0.536662 67.6627 0.519017 66.2091 1.15865 65.1022C1.62184 64.3554 2.45116 63.9953 3.20108 63.6219C3.21431 64.7243 3.20549 65.8401 3.21431 66.9559C3.95982 66.9292 4.91706 66.6447 5.45524 67.3426C5.71992 68.0539 5.6361 69.1119 4.85089 69.4497ZM3.91129 66.0401C3.9157 65.1822 3.9157 64.3242 3.94217 63.4707C4.48035 63.4263 5.01852 63.3863 5.55229 63.3374C5.59199 64.342 5.58317 65.3511 5.60081 66.3558C5.05381 66.1913 4.48917 66.089 3.91129 66.0401ZM25.231 65.2533C22.1122 65.0844 19.0684 64.3465 15.985 63.8619C11.9883 63.164 7.92114 62.1816 3.84953 62.7506C2.71583 62.844 1.74535 63.453 0.836629 64.0753C0.863097 61.7904 0.823395 59.5055 0.845452 57.2117C0.898387 56.2782 1.68801 55.5358 2.57026 55.358C4.78031 54.9224 7.06536 55.0735 9.271 55.4647C12.9941 56.1537 16.7349 56.7361 20.458 57.4073C23.7268 57.9985 27.119 57.9052 30.3349 57.0872C34.2168 56.4427 38.0722 55.3891 42.0336 55.3714C44.2436 55.4336 46.7669 55.8337 48.2888 57.5985C48.3902 59.9234 48.2843 62.2527 48.3373 64.5776C47.2168 63.7908 45.9817 63.084 44.5877 63.004C38.0193 62.3238 31.795 65.6267 25.231 65.2533ZM43.6702 63.6708C44.2172 63.7286 44.7597 63.7952 45.3067 63.8708C45.3244 64.7599 45.3244 65.6445 45.3067 66.5336C44.7377 66.5736 44.1907 66.7025 43.6525 66.8714C43.6702 65.8045 43.6569 64.7421 43.6702 63.6708ZM48.5446 67.925C48.452 68.4139 48.2402 68.9918 47.9359 69.3875C47.455 69.9031 46.8066 70.1565 46.1184 70.2054C44.9538 70.2988 43.7099 70.1121 43.6834 68.6807C43.6834 68.4273 43.7231 68.1695 43.829 67.9339C44.2524 67.027 45.2582 67.4182 46.0478 67.5027C46.0699 66.378 46.0655 65.2533 46.0743 64.1286C46.7404 64.5109 47.5212 64.7599 48.0329 65.3733C48.5931 66.049 48.7078 67.0804 48.5446 67.925Z" fill="white"/>
<path d="M4.26872 59.5852L4.37018 58.6695C4.39665 58.4116 4.43635 57.9582 4.46282 57.6604H4.48046C4.5334 57.9493 4.60839 58.385 4.66574 58.6472L4.8466 59.5541L4.26872 59.5852ZM4.95247 60.212L5.18186 61.2033L5.94942 61.1633L4.926 56.8291L3.97758 56.878L3.32471 61.3011L4.09227 61.2611L4.2202 60.252L4.95247 60.212Z" fill="white"/>
<path d="M7.15778 57.3983C7.20189 57.3805 7.28129 57.3805 7.34746 57.385C7.70036 57.425 7.81947 57.7006 7.79741 58.0696C7.77094 58.4519 7.55038 58.7364 7.2063 58.7141L7.06955 58.7052L7.15778 57.3983ZM6.1123 61.0479L6.90192 61.1057L7.02103 59.3587L7.13572 59.3676C7.4004 59.3854 7.5195 59.5498 7.55038 60.1011C7.57685 60.5856 7.63861 61.0346 7.67831 61.1591L8.50322 61.2169C8.44146 61.0479 8.37088 60.5056 8.32677 60.0122C8.28265 59.541 8.16355 59.252 7.89446 59.1142V59.1009C8.32677 58.9231 8.56497 58.5141 8.59585 58.0473C8.62232 57.6695 8.56939 57.3761 8.34 57.1183C8.09297 56.8382 7.70919 56.7493 7.27688 56.7182C6.97692 56.6959 6.6593 56.7048 6.40786 56.7404L6.1123 61.0479Z" fill="white"/>
<path d="M10.2194 57.7088C10.2723 57.6954 10.3253 57.7043 10.3782 57.7132C10.8502 57.7843 10.9869 58.3578 10.8546 59.2424C10.6782 60.4382 10.29 60.7894 9.91059 60.7316C9.86648 60.7272 9.80913 60.7183 9.77384 60.7005L10.2194 57.7088ZM8.896 61.2384C9.05039 61.2828 9.2886 61.3451 9.53563 61.3806C10.0959 61.4651 10.5193 61.3895 10.8281 61.1495C11.2296 60.8694 11.5339 60.2737 11.6619 59.4025C11.7854 58.5623 11.6927 57.9622 11.3972 57.5754C11.1766 57.2776 10.8458 57.0953 10.3341 57.0197C10.0253 56.9709 9.72973 56.962 9.52681 56.9842L8.896 61.2384Z" fill="white"/>
<path d="M12.6282 57.3848L12.1474 60.0475C11.9533 61.1277 12.165 61.8079 13.0076 61.9635C13.7796 62.1057 14.278 61.5767 14.4765 60.4698L14.9574 57.816L14.1766 57.6737L13.6693 60.4743C13.5502 61.1277 13.3605 61.27 13.1311 61.23C12.9282 61.1944 12.787 60.9677 12.9017 60.3365L13.409 57.5359L12.6282 57.3848Z" fill="white"/>
<path d="M15.4775 57.9453L15.0276 60.6125C14.8467 61.6972 15.0673 62.3729 15.9098 62.5196C16.6862 62.6529 17.1758 62.115 17.3611 61.0081L17.8111 58.3498L17.0303 58.2165L16.5583 61.0259C16.448 61.6794 16.2583 61.8261 16.0289 61.7861C15.826 61.7505 15.6804 61.5282 15.7863 60.8926L16.2583 58.0831L15.4775 57.9453Z" fill="white"/>
<path d="M17.5596 62.6523C17.6743 62.759 17.9742 62.9056 18.2963 62.9634C19.0815 63.1057 19.7167 62.6834 19.8578 61.8966C19.9372 61.4431 19.8181 60.9719 19.3505 60.5318C18.9668 60.1718 18.8697 60.0162 18.9182 59.7584C18.9579 59.5272 19.1565 59.3405 19.4917 59.3983C19.7167 59.4383 19.8799 59.5405 19.9769 59.6383L20.2284 58.936C20.1225 58.8382 19.8843 58.7181 19.624 58.6693C18.7815 58.5181 18.2521 59.016 18.133 59.7095C18.0625 60.1007 18.1904 60.5941 18.6756 61.0475C18.9712 61.3453 19.1256 61.532 19.0682 61.8432C19.0197 62.1233 18.8035 62.2966 18.433 62.23C18.208 62.19 17.9434 62.0699 17.8022 61.9455L17.5596 62.6523Z" fill="white"/>
<path d="M22.2312 62.0125L22.487 61.1279C22.5576 60.8789 22.6723 60.4344 22.7517 60.1499H22.7693C22.7693 60.4433 22.7738 60.8834 22.7826 61.1545L22.809 62.0792L22.2312 62.0125ZM22.8002 62.7504L22.8576 63.7639L23.6207 63.8573L23.356 59.412L22.412 59.2964L21.0181 63.5417L21.7812 63.635L22.0812 62.6615L22.8002 62.7504Z" fill="white"/>
<path d="M25.0987 60.1766C25.1472 60.1588 25.2002 60.1588 25.2575 60.1588C25.7339 60.1544 25.9589 60.7011 25.9633 61.5991C25.9721 62.8082 25.6413 63.2128 25.2575 63.2172C25.2134 63.2172 25.1561 63.2172 25.1208 63.2039L25.0987 60.1766ZM24.3312 63.8707C24.49 63.8884 24.737 63.9151 24.984 63.9107C25.5531 63.9062 25.9589 63.7684 26.228 63.4795C26.5809 63.1416 26.7882 62.5059 26.7838 61.6213C26.7794 60.7678 26.5941 60.1944 26.2412 59.8565C25.981 59.5987 25.6237 59.4698 25.1075 59.4742C24.7943 59.4742 24.5032 59.5098 24.3047 59.5631L24.3312 63.8707Z" fill="white"/>
<path d="M28.5176 63.2656C28.6631 63.3279 28.994 63.3634 29.316 63.3101C30.1012 63.1812 30.56 62.5721 30.432 61.7853C30.3571 61.3275 30.0924 60.9229 29.5057 60.6651C29.0249 60.4562 28.8837 60.3406 28.844 60.0828C28.8087 59.8516 28.9322 59.6071 29.2675 59.5538C29.4924 59.5182 29.6777 59.5582 29.8056 59.616L29.8145 58.8692C29.6821 58.8114 29.4175 58.7758 29.1572 58.8203C28.3146 58.9581 27.9794 59.6071 28.0941 60.3006C28.1558 60.6918 28.4382 61.1141 29.0469 61.3852C29.4263 61.5675 29.6292 61.692 29.6821 62.0031C29.7262 62.2876 29.5807 62.5188 29.2101 62.581C28.9852 62.6166 28.6984 62.5944 28.522 62.5232L28.5176 63.2656Z" fill="white"/>
<path d="M40.9442 59.5943L41.0765 58.6785C41.1162 58.4252 41.1648 57.9673 41.2001 57.6739H41.2177C41.2618 57.9673 41.3236 58.3985 41.3721 58.6652L41.5221 59.5809L40.9442 59.5943ZM41.6103 60.2433L41.8044 61.239L42.572 61.2213L41.6897 56.856L40.7413 56.8737L39.9517 61.2746L40.7192 61.2568L40.8824 60.2522L41.6103 60.2433Z" fill="white"/>
<path d="M39.9822 15.367C39.5147 15.5715 39.0559 15.8071 38.5883 16.0205C38.8309 15.327 38.9721 14.598 38.8353 13.8645C37.7943 15.2603 36.8635 16.7762 35.4563 17.8386C33.7844 19.1411 32.1346 20.7903 29.9245 21.0037C29.3467 21.0037 28.4335 21.1681 28.2218 20.4302C28.3718 20.1946 28.5262 19.959 28.6805 19.7412C29.0952 19.879 29.5187 20.0168 29.9378 20.1413C29.9775 19.51 29.7834 18.9233 29.3069 18.4965C29.7216 17.9808 30.3083 18.0609 30.8818 18.1853C30.8377 17.3718 30.1363 16.9273 29.6113 16.4072C29.9069 15.8071 30.6524 15.8071 31.195 15.567C30.4715 14.6913 29.3422 14.4157 28.2835 14.1756C28.1644 13.9134 28.0365 13.66 27.9086 13.3977C27.1763 12.8732 26.2146 12.762 25.5574 12.113C25.0015 11.5796 24.481 11.0061 23.8943 10.5127C23.3826 10.7261 22.2224 10.7216 22.8135 11.584C22.5798 11.8819 22.3415 12.1708 22.1122 12.4642C22.4562 12.7843 22.8047 13.0954 23.1576 13.411C23.3826 14.6202 23.5061 16.0738 24.7633 16.6784C23.6208 17.3718 22.6106 18.3409 22.0945 19.6078C21.9886 20.1279 21.4681 20.1279 21.0579 20.1724C20.727 18.9588 20.5903 17.7052 20.3609 16.4739C20.2374 15.9582 20.03 15.367 19.5139 15.1269C17.8156 14.2779 15.8437 14.2023 14.0175 14.638C14.3527 15.1269 14.6968 15.607 15.0409 16.0871C15.9628 14.9891 17.5597 15.2648 18.6361 15.9716C18.8258 16.3405 19.0419 16.6961 19.2625 17.0473C19.2581 17.9542 19.0904 18.8388 18.839 19.7101C18.1464 19.1944 17.5818 18.5321 16.9157 17.9853C15.7864 17.6608 14.56 17.4074 13.3866 17.6386C12.6764 17.9631 12.0059 18.3765 11.2648 18.6254C11.5074 18.9944 11.7501 19.3633 11.9795 19.7412C12.8441 18.8699 14.1366 18.4876 15.3364 18.7588C15.9143 18.9099 16.5628 19.2211 16.6863 19.8879C16.8936 21.0437 16.9201 22.235 17.2156 23.373C16.2716 23.3108 15.3497 23.1241 14.5159 22.6796C12.6411 21.7016 10.784 20.528 9.5356 18.7721C8.47248 17.3941 7.85932 15.7493 6.91971 14.2912C5.7419 15.2736 6.51388 16.9806 6.97706 18.1498C6.59328 17.9542 6.2095 17.763 5.81689 17.5897C6.03305 18.8699 7.02117 19.759 7.85491 20.6658C7.56817 20.8081 7.29908 20.9459 7.02117 21.0881C7.24615 21.5593 7.51965 22.0083 7.87696 22.3951C7.62552 22.5017 7.38731 22.6262 7.1491 22.7551C7.7755 23.6042 8.5563 24.3421 9.49149 24.84C9.26651 24.9378 8.81215 25.1378 8.58718 25.2401C9.87527 26.1291 11.3839 26.5826 12.8529 27.0582C12.7117 27.3071 12.5838 27.5516 12.447 27.8006C12.9279 28.1029 13.5013 28.0806 14.0351 28.1473C14.1983 29.0764 15.2526 28.9519 15.9452 28.8186C15.8526 29.0497 15.7687 29.2809 15.6761 29.512C16.6819 29.512 17.6524 29.2631 18.5831 28.8941C19.5051 30.8323 21.0843 32.6815 23.2062 33.2639C22.9194 34.1396 22.5753 35.0687 22.8135 36.0022C23.2194 37.8781 24.7633 39.1539 25.897 40.5987C26.1838 41.341 25.6456 42.0123 25.4647 42.7013C25.3456 43.3726 25.2574 44.0571 25.1339 44.7284C25.3412 45.2796 25.5574 45.8353 25.7471 46.3909C26.1705 46.6843 26.594 46.9733 27.0396 47.2489C27.0925 46.8444 27.141 46.4443 27.1807 46.0442C26.9602 45.6486 26.6073 45.3507 26.347 44.9818C26.1838 43.3192 27.2734 41.9012 28.1688 40.612C28.2085 42.0345 28.1821 43.4704 28.4909 44.8662C28.932 45.2929 29.2231 45.8353 29.4966 46.3731C29.7745 46.0175 30.0525 45.6663 30.3348 45.3018C30.048 45.0484 29.7613 44.7951 29.4746 44.5506C29.3819 43.6659 29.2408 42.768 29.3643 41.8834C29.5716 41.4522 29.8937 41.1099 30.1672 40.7276C29.7834 40.0341 29.4437 39.2917 29.329 38.496C28.9408 36.6157 30.9127 35.2865 30.7671 33.4284C30.6789 32.5882 30.498 31.7614 30.4539 30.9212C30.8862 30.9079 31.3273 30.9079 31.7684 30.9079C31.8655 31.0501 32.0552 31.3391 32.1566 31.4769C32.0728 32.1481 31.8875 32.7927 31.764 33.455C31.7773 34.8953 32.1743 36.4956 33.4933 37.278C34.0976 36.9046 34.7108 36.549 35.3107 36.1756C34.8563 35.3221 34.2388 34.5664 33.8462 33.6817C33.5594 32.4815 34.3402 31.0012 33.2727 30.041C32.064 29.5431 30.8244 29.8854 29.6202 30.2099C29.0511 29.9921 28.857 29.3164 28.4688 28.8897C27.913 28.0584 26.9469 27.6361 26.3911 26.8093C27.7057 27.076 28.6144 28.8141 30.0569 28.3207C29.8584 28.0673 29.6643 27.8006 29.479 27.525C30.4936 27.5472 31.5964 27.7383 32.5051 27.1827C32.3948 27.0449 32.1522 26.7693 32.0331 26.6359L32.1655 26.4536C33.0874 26.3558 34.0006 26.1425 34.8255 25.6979C34.4858 25.4712 34.1329 25.249 33.7756 25.0489C34.6402 24.6844 35.6857 24.4888 36.2282 23.6353C35.968 23.5864 35.4386 23.4842 35.1784 23.4353C36.193 22.8974 37.2605 22.4173 38.0192 21.5193C37.5208 21.3371 37.0223 21.1504 36.5194 20.9859C37.6796 20.1057 38.9412 19.1455 39.4529 17.7186C39.1397 17.7897 38.8309 17.8608 38.5133 17.9408C39.2191 17.2029 39.744 16.345 39.9822 15.367ZM27.8115 37.1713C28.7644 36.5401 29.2143 35.411 30.101 34.7353C29.5143 36.0289 28.3938 36.9135 27.388 37.8559C27.0307 38.8028 27.9659 39.4562 28.2968 40.243C27.6968 39.8296 27.3395 39.1717 26.9954 38.536C26.9116 38.5849 26.7308 38.6783 26.6381 38.7272C27.1234 38.2738 27.194 37.5181 27.8115 37.1713ZM26.7837 14.718C26.3558 15.0603 25.9367 14.3135 26.3558 14.0467C26.7793 13.7178 27.2116 14.4557 26.7837 14.718Z" fill="white"/>
<path d="M31.7199 62.8748L32.4919 62.7148L31.7684 59.1941L32.4786 59.043L32.3198 58.2739L30.1274 58.7318L30.2907 59.5008L30.9921 59.3541L31.7199 62.8748Z" fill="white"/>
<path d="M34.6757 59.5494L33.7626 59.745L33.5553 58.7582L34.5125 58.5537L34.3581 57.8291L32.6289 58.2025L33.5332 62.4878L35.3374 62.0966L35.183 61.372L34.1552 61.5943L33.9082 60.4385L34.8213 60.2429L34.6757 59.5494Z" fill="white"/>
<path d="M35.7828 62.0123L37.5914 61.6789L37.4635 60.9677L36.4312 61.1588L35.774 57.5581L34.9932 57.7048L35.7828 62.0123Z" fill="white"/>
<path d="M37.9796 61.5679L39.8058 61.3412L39.7176 60.6255L38.681 60.7544L38.231 57.1226L37.4458 57.2204L37.9796 61.5679Z" fill="white"/>
<path d="M42.8848 61.2479C43.0039 61.3546 43.3038 61.4924 43.6259 61.5457C44.4155 61.6702 45.0375 61.239 45.161 60.4477C45.2316 59.9898 45.1036 59.5231 44.6272 59.0919C44.2346 58.7407 44.1376 58.5851 44.1773 58.3273C44.2126 58.0961 44.4067 57.905 44.7419 57.9583C44.9669 57.9939 45.1301 58.0917 45.2316 58.185L45.4698 57.4782C45.3639 57.3804 45.1257 57.2649 44.861 57.2248C44.0185 57.0915 43.4979 57.6027 43.3877 58.2962C43.3259 58.6874 43.4626 59.1764 43.9567 59.6253C44.2611 59.9187 44.4155 60.101 44.367 60.4166C44.3228 60.6967 44.1111 60.8745 43.7406 60.8167C43.5156 60.7811 43.2509 60.6655 43.1053 60.5455L42.8848 61.2479Z" fill="white"/>
<path d="M49.1271 5.94785C42.5278 10.3043 29.0514 7.86378 26.0208 1.02243C25.7429 0.368962 25.6635 0 25.6635 0C25.6062 0.253384 25.3944 0.746815 25.3327 0.87573C21.8566 7.98825 8.11544 10.4643 0.179551 5.6589C-1.15266 32.0953 9.09033 46.8538 25.3591 55.5488C41.3368 47.1249 50.3181 31.6596 49.1271 5.94785ZM25.6459 53.2639C10.7975 45.5246 1.45 32.2331 2.16904 8.80175C10.846 12.4425 21.8081 8.51725 25.6459 3.95634C29.7439 8.67728 38.8665 12.0957 47.1553 9.0818C47.914 31.8019 39.462 45.2312 25.6459 53.2639Z" fill="white"/>
</svg>
