<svg width="99" height="76" viewBox="0 0 99 76" fill="none" xmlns="http://www.w3.org/2000/svg">
<path d="M90.4302 60.4303C90.8036 60.511 91.0219 60.7375 91.3417 60.8719C91.244 60.2134 91.1617 59.5972 91.0621 58.9848C90.7576 57.1419 90.4493 55.299 90.298 53.4349C90.1334 51.3943 90.1946 49.3652 90.7098 47.3706C90.7691 47.1402 90.7634 46.9271 90.7021 46.6968C90.344 45.3568 90.4761 44.0265 90.8093 42.7038C91.1598 41.3101 91.7458 40.0047 92.3069 38.6878C93.5382 35.7967 94.4382 32.8058 95.0453 29.7189C95.2923 28.4615 95.6925 27.2348 96.0334 25.9966C96.7151 23.5202 97.3643 21.0342 97.6918 18.481C98.048 15.707 98.0173 12.958 97.0311 10.2915C96.4241 8.65209 95.503 7.21231 94.2908 5.95682C94.1893 5.85124 94.0916 5.74374 93.994 5.63431C93.9825 5.62087 93.9825 5.59592 93.971 5.55752C94.0916 5.50569 94.1855 5.5844 94.2774 5.62855C95.1257 6.04129 95.7787 6.67863 96.2938 7.45611C97.5194 9.30671 98.2625 11.3339 98.5018 13.5493C98.791 16.2157 98.3869 18.8188 97.7952 21.4008C97.3011 23.5586 96.7017 25.6895 96.1158 27.8242C95.8668 28.7283 95.704 29.6575 95.4972 30.5732C95.3364 31.2892 95.1161 31.9842 94.7791 32.6388C94.7255 32.7405 94.6776 32.8442 94.668 32.9613C94.5493 34.641 94.0112 36.2075 93.3907 37.7509C92.8028 39.2138 92.1364 40.6439 91.6673 42.1528C91.3992 43.0129 91.223 43.8786 91.223 44.7924C91.2249 46.3685 91.0908 47.9407 91.0085 49.5149C90.9051 51.5075 90.8457 53.504 91.1272 55.4871C91.223 56.1571 91.426 56.8098 91.5715 57.4721C91.7266 58.1747 91.7611 58.8792 91.5543 59.578C91.5102 59.7277 91.5638 59.841 91.6232 59.9638C91.7936 60.3113 91.9449 60.6684 91.9794 61.06C92.0024 61.3115 92.0158 61.5937 91.74 61.7184C91.4604 61.8451 91.2383 61.6781 91.0583 61.4727C90.8074 61.1829 90.614 60.8527 90.4302 60.4303Z" fill="white"/>
<path d="M83.4864 33.9711C82.705 34.7678 81.985 35.5069 81.2592 36.2383C79.9724 37.5341 78.6491 38.7895 77.1822 39.8838C75.4722 41.1585 73.6165 42.1183 71.4756 42.4235C70.9643 42.4965 70.4492 42.5541 69.8823 42.4927C70.0202 42.316 70.1926 42.2949 70.3362 42.2412C71.4603 41.8265 72.5824 41.408 73.7142 41.0126C75.5794 40.3599 77.1478 39.2522 78.584 37.9161C79.8843 36.7067 81.0601 35.3782 82.3316 34.1419C83.1914 33.303 84.0896 32.5102 85.0949 31.8498C85.1964 31.7826 85.2884 31.6866 85.4511 31.6905C85.4588 31.892 85.3305 32.0341 85.2347 32.1838C84.8671 32.7636 84.3558 33.2128 83.8617 33.6774C83.7219 33.8079 83.6893 33.9308 83.7181 34.117C83.8617 35.0461 84.2753 35.8658 84.7579 36.6491C85.0911 37.1885 85.4837 37.6896 85.8763 38.204C85.6752 36.507 85.2194 34.8599 84.8517 33.1763C85.0298 33.1917 85.0528 33.3241 85.1064 33.4125C85.8035 34.5393 86.1654 35.789 86.4297 37.0733C86.6901 38.3327 86.8088 39.6093 86.8797 40.8935C86.9697 42.5368 86.8874 44.1686 86.6652 45.7965C86.6403 45.9788 86.6863 46.1478 86.7246 46.3205C87.3048 48.9467 87.6936 51.5959 87.6189 54.2969C87.5691 56.1034 87.2876 57.8695 86.7437 59.5915C86.7169 59.674 86.7227 59.8045 86.602 59.8007C86.5063 59.7988 86.5025 59.6778 86.4776 59.603C86.2286 58.8716 86.2956 58.1306 86.5005 57.4126C86.8855 56.0611 86.9697 54.6828 86.9678 53.2891C86.9678 53.0414 86.9333 52.8264 86.7974 52.5884C86.4431 51.9664 86.2669 51.2427 86.4373 50.5612C86.6671 49.6378 86.4373 48.7778 86.3186 47.8947C86.2209 47.1652 86.2075 46.4376 86.3952 45.7197C86.4833 45.3856 86.3224 45.0843 86.2841 44.7656C86.2056 44.1014 86.1463 43.4371 86.1539 42.7672C86.1673 41.5347 86.1501 40.3042 86.0294 39.0756C86.0026 38.7991 85.9126 38.6187 85.6579 38.4536C84.0819 37.4246 83.3332 35.9714 83.4864 33.9711Z" fill="white"/>
<path d="M17.3949 23.3225C17.2072 22.4874 16.9449 21.6735 16.7821 20.8326C16.4948 19.3602 16.311 17.884 16.5695 16.3866C16.8051 15.0274 17.3834 13.8718 18.5573 13.0751C18.6454 13.0156 18.7258 12.9158 18.8809 12.9503C18.676 13.2152 18.4692 13.4591 18.2892 13.7201C17.6572 14.6339 17.3298 15.6552 17.2187 16.7571C17.0387 18.5309 17.4102 20.2471 17.7549 21.9672C17.9043 22.7139 18.0383 23.4645 18.2183 24.2036C18.3064 24.5626 18.4309 24.9043 18.429 25.2883C18.4156 27.1427 17.7836 28.8052 16.8932 30.387C16.3933 31.272 15.7901 32.0821 15.0012 32.7386C14.4956 33.159 13.9173 33.4374 13.3179 33.6831C12.8755 33.8655 12.4178 34.0172 12.0138 34.2821C11.6136 34.5451 11.5561 34.7908 11.7955 35.2074C12.1842 35.8793 12.8334 36.1384 13.54 36.3054C13.6894 36.34 13.7449 36.2287 13.812 36.1403C14.0973 35.7679 14.3769 35.3897 14.6603 35.0154C14.7522 34.8945 14.848 34.7774 14.9763 34.6161C15.0318 34.8388 14.9763 34.9866 14.9437 35.1306C14.6756 36.292 14.013 37.2154 13.1819 38.0313C12.3661 38.8318 11.4163 39.4557 10.4646 40.0796C9.88241 40.4616 9.21982 40.5288 8.56107 40.6248C8.36574 40.6536 8.17233 40.692 7.977 40.7246C7.91189 40.7361 7.82763 40.8052 7.78933 40.7054C7.75869 40.6248 7.83338 40.5672 7.89466 40.5345C8.04211 40.4578 8.19148 40.3848 8.34659 40.3253C10.3554 39.5613 12.0942 38.4248 13.3945 36.6779C13.4251 36.6356 13.4577 36.5953 13.4864 36.5512C13.496 36.5358 13.4922 36.5128 13.4979 36.4725C13.0919 36.5109 12.6917 36.5147 12.2991 36.388C11.7687 36.2152 11.3665 35.8927 11.0908 35.4089C10.7461 34.8023 10.8973 34.188 11.491 33.8079C11.8951 33.5487 12.3259 33.3241 12.7759 33.1667C14.8537 32.4411 16.0563 30.8957 16.8127 28.9146C17.2608 27.7436 17.5672 26.5265 17.979 25.3439C18.0134 25.2422 18.0268 25.1385 17.9924 25.0368C17.797 24.4647 17.5979 23.8946 17.3987 23.3225H17.3949Z" fill="white"/>
<path d="M21.8735 39.9069C21.9041 39.9088 21.9903 39.8973 22.0688 39.9203C22.1512 39.9433 22.4097 39.8992 22.1665 40.1103C22.0937 40.1737 22.1627 40.2466 22.2086 40.3004C22.9497 41.2161 23.2619 42.2988 23.4208 43.441C23.4553 43.6848 23.5376 43.8768 23.731 44.0573C24.3093 44.5948 24.294 45.2974 24.2002 46.0077C24.0623 47.052 23.4802 47.8583 22.8023 48.6108C22.2393 49.2385 21.6494 49.8432 21.1879 50.5593C21.0883 50.7148 21.0635 50.8357 21.1573 51.0143C21.6379 51.9376 21.2913 52.8092 20.3109 53.1797C20.1462 53.2411 19.9738 53.2872 19.8034 53.3333C19.7459 53.3486 19.6674 53.3659 19.633 53.3025C19.5966 53.2354 19.6617 53.1893 19.7076 53.1471C19.9547 52.9224 20.1902 52.6882 20.3894 52.4176C20.623 52.1008 20.6651 51.7687 20.5177 51.4155C20.397 51.1275 20.2477 50.8511 20.1289 50.5612C19.4625 48.9391 19.2557 47.2632 19.9738 45.6353C20.3338 44.8155 20.3166 44.0323 20.2936 43.2049C20.2706 42.4006 20.2841 41.5962 20.5617 40.8264C20.7819 40.1929 21.1879 39.9049 21.8735 39.9069ZM22.0458 47.7911C22.5935 47.0731 22.8291 46.3302 22.8827 45.522C23.0014 43.7309 22.4212 42.0608 21.9903 40.3637C21.9463 40.191 21.8428 40.1833 21.7088 40.2716C21.3871 40.4847 21.1994 40.7918 21.1075 41.1566C21.0003 41.5943 20.9581 42.0416 20.9849 42.4927C21.0309 43.2644 21.0826 44.0342 20.9811 44.8059C20.962 44.9499 20.9926 45.0075 21.1592 45.0094C21.5594 45.0133 21.7394 45.1553 21.8677 45.5373C21.9175 45.6852 21.9443 45.8407 21.9712 45.9942C22.0765 46.5605 22.0075 47.1365 22.0458 47.7911ZM20.7341 50.1696C21.3928 49.1925 21.4828 46.6489 21.1554 45.9098C20.194 46.716 19.9796 48.8815 20.7341 50.1696Z" fill="white"/>
<path d="M7.35227 41.4675C7.11864 41.5328 6.92715 41.5059 6.73756 41.4867C5.17685 41.3255 3.96467 40.5365 2.95547 39.3827C2.09181 38.3941 1.49434 37.2557 1.08453 36.0117C1.05964 35.9349 1.029 35.8581 0.975379 35.718C0.726431 36.5377 0.676642 37.3056 0.806861 38.0831C1.0424 39.4749 1.77584 40.6036 2.73333 41.5961C3.59125 42.4869 4.58321 43.2144 5.64985 43.8364C5.84518 43.9516 5.96199 43.99 6.06157 43.7193C6.21669 43.297 6.57862 43.0186 6.85821 42.6846C7.01332 42.5003 7.18567 42.3314 7.32163 42.1356C7.53803 41.8246 7.6759 41.4905 7.4327 41.12C7.3944 41.0605 7.34461 40.9857 7.42696 40.9262C7.4959 40.8762 7.57058 40.9166 7.62611 40.9645C7.91528 41.2141 8.03784 41.5385 7.99954 41.9148C7.96315 42.2719 7.78314 42.5617 7.54186 42.8209C6.8448 43.5696 6.37372 44.4277 6.34691 45.4701C6.31052 46.9099 6.96353 47.9926 8.13742 48.7797C8.60467 49.0926 9.01065 49.4746 9.44726 49.8912C9.25576 49.9584 9.11789 49.9084 8.98575 49.8777C7.33312 49.4976 6.00029 48.031 5.69964 46.2418C5.66134 46.0095 5.57134 45.9135 5.34729 45.8502C4.55257 45.6237 4.10063 45.0151 3.95701 44.2626C3.83636 43.6272 3.51848 43.2413 3.03973 42.8497C1.52306 41.6134 0.488974 40.0584 0.157682 38.0869C0.00448291 37.1751 0.0829972 36.2786 0.3262 35.3917C0.370245 35.2285 0.452589 35.0845 0.548338 34.9444C0.682387 34.7505 0.858565 34.6295 1.10177 34.6622C1.35455 34.6948 1.45795 34.881 1.52306 35.1075C1.77776 35.9925 2.1033 36.8487 2.55524 37.655C3.53188 39.3961 5.05046 40.475 6.85246 41.2141C7.00758 41.2755 7.18567 41.3063 7.35227 41.4675ZM5.57134 45.6736C5.66709 45.2608 5.67666 44.8615 5.80305 44.4834C5.83178 44.397 5.86433 44.2837 5.72071 44.2626C5.20366 44.1897 4.73066 43.9881 4.25383 43.7596C4.61193 44.4622 5.12515 45.042 5.57134 45.6736Z" fill="white"/>
<path d="M93.4387 6.28319C93.2012 6.11617 93.027 5.99139 92.8527 5.86853C91.3514 4.83189 89.8423 3.80485 88.1706 3.04849C86.6271 2.34971 85.0147 1.92738 83.3199 1.82755C83.0078 1.80836 82.6956 1.76996 82.3854 1.77956C81.8933 1.79492 81.3705 1.63558 80.9549 2.02912C81.1694 2.08479 81.4088 2.14623 81.6481 2.21342C81.7056 2.22877 81.7879 2.24029 81.7918 2.31132C81.7975 2.41306 81.6979 2.40922 81.6328 2.4265C81.066 2.5724 80.4877 2.64727 79.9055 2.69526C78.9518 2.77205 77.9924 2.80852 77.056 3.03121C77.0311 3.03697 77.0005 3.01777 76.92 2.99665C77.5233 2.46682 78.2337 2.28828 78.9442 2.10399C77.6209 2.07712 76.3053 2.16734 74.9936 2.36315C73.1571 2.63959 71.4202 3.25773 69.6872 3.88932C68.5401 4.30781 67.3949 4.73591 66.1732 4.87028C65.4072 4.95475 64.6335 4.99698 63.8848 4.73399C63.789 4.70135 63.6799 4.68983 63.6147 4.59769C63.632 4.4825 63.722 4.5113 63.7852 4.5113C65.4512 4.48826 67.0407 4.07553 68.6129 3.5764C70.0625 3.1176 71.4872 2.58008 72.956 2.18078C74.1357 1.85827 75.3498 1.72965 76.5543 1.5588C78.1648 1.33035 79.7868 1.20749 81.4107 1.21133C84.1931 1.21901 86.9201 1.56072 89.4593 2.81812C91.0392 3.60136 92.3471 4.71095 93.4042 6.12001C93.4157 6.13537 93.4138 6.15841 93.4387 6.28319Z" fill="white"/>
<path d="M33.655 33.3491C33.7373 33.708 33.6818 34.0689 33.6454 34.4183C33.4175 36.5108 32.9771 38.5591 32.236 40.5326C32.0598 41.001 31.8587 41.4598 31.6193 41.9013C31.38 42.3448 31.0927 42.7499 30.6868 43.1722C32.2321 42.6654 33.7967 42.4158 35.0472 41.3869C35.8974 40.6881 36.5045 39.7858 37.0885 38.8701C37.3375 38.4804 37.6515 38.1579 38.0269 37.8277C38.0633 38.0754 37.9503 38.2424 37.8775 38.4152C37.3911 39.5689 36.5715 40.4846 35.7729 41.4272C34.735 42.6539 33.3505 43.1415 31.8549 43.4467C31.0487 43.6118 30.2444 43.7731 29.4497 43.9938C29.2754 44.0418 29.0571 43.9861 28.8599 44.084C28.6377 44.1935 28.5037 44.3413 28.429 44.5812C28.0919 45.6524 27.64 46.6699 26.9257 47.553C26.4527 48.1365 25.8897 48.6145 25.2099 48.9313C24.9227 49.0657 24.7139 49.25 24.5492 49.5187C23.8598 50.6514 22.9177 51.5152 21.7342 52.1122C21.6595 52.1506 21.5848 52.1852 21.5082 52.2178C21.4929 52.2236 21.4719 52.2102 21.4316 52.1986C21.5102 51.951 21.6672 51.7494 21.8529 51.5997C22.7549 50.876 23.4175 49.9622 23.9939 48.9735C24.1547 48.6971 24.3903 48.5051 24.6814 48.3611C26.0506 47.6835 27.0081 46.6219 27.527 45.1802C27.6917 44.7233 27.9062 44.2933 28.339 44.0706C28.8809 43.7923 29.2965 43.3526 29.7982 43.0244C30.9165 42.291 31.4949 41.1565 31.9353 39.9432C32.4083 38.6417 32.6056 37.2749 32.8832 35.9253C33.0211 35.2496 33.1801 34.5796 33.383 33.9211C33.4405 33.7234 33.4941 33.5218 33.655 33.3491Z" fill="white"/>
<path d="M43.6316 70.1576C43.3099 70.5492 43.2008 71.031 43.0533 71.4994C42.9691 71.7682 42.8944 72.0408 42.7871 72.3019C42.6282 72.6896 42.3524 72.9546 41.9714 73.1638C41.5271 73.4076 41.1192 73.7205 40.627 73.8799C39.7806 74.1525 38.9284 74.3847 38.0227 74.2331C37.7469 74.187 37.496 74.0949 37.3352 73.8472C37.249 73.7128 37.1073 73.7052 36.979 73.6821C36.6956 73.6322 36.4371 73.5247 36.2053 73.3596C35.8434 73.1024 35.7343 72.7031 36.033 72.3863C36.9445 71.4169 37.5746 70.1921 38.6987 69.4185C38.7752 69.3647 38.7982 69.2918 38.8212 69.2092C39.2023 67.7541 39.6925 66.3316 40.1847 64.9129C40.6749 63.4981 40.7151 62.0506 40.5428 60.5821C40.4394 59.7028 40.3034 58.8294 40.1464 57.9425C40.2996 57.9367 40.313 58.0481 40.3475 58.121C40.9488 59.3554 41.2877 60.6473 41.3701 62.0295C41.4428 63.2466 41.1613 64.36 40.7228 65.4696C40.447 66.1665 40.267 66.9017 40.0276 67.612C39.817 68.2379 39.5891 68.8944 39.0625 69.3033C38.5742 69.6834 38.3386 70.1902 38.0648 70.6932C37.7086 71.3478 37.2299 71.916 36.8086 72.5246C36.5309 72.9258 36.5271 72.9238 36.8622 73.2656C37.1609 73.5689 37.1571 73.5689 37.3045 73.1868C37.3716 73.0122 37.4482 72.8394 37.5324 72.6724C37.7565 72.2308 37.7603 72.2328 37.5497 71.8354C37.5746 71.8239 37.6129 71.7951 37.6224 71.8027C37.9671 72.0638 38.1644 71.8296 38.3865 71.5993C38.5914 71.3862 38.8212 71.1923 39.1985 71.0886C38.8135 71.7125 38.465 72.2769 38.1184 72.8394C38.0916 72.8835 38.0571 72.9238 38.0265 72.9661C37.7986 73.3001 37.8637 73.4614 38.2716 73.4882C39.2655 73.5573 40.2479 73.4614 41.2169 73.231C41.9158 73.064 41.9637 72.9584 42.0882 72.2519C42.3161 70.9715 42.7508 69.787 43.8902 69.0057C44.2789 68.7389 44.4149 68.3185 44.5623 67.9038C44.6083 67.7733 44.6064 67.6178 44.7749 67.4623C44.8611 68.2148 44.8515 68.8848 44.3708 69.453C44.1832 69.6738 43.9457 69.8504 43.7312 70.0481C43.6987 70.0865 43.6642 70.123 43.6316 70.1576Z" fill="white"/>
<path d="M81.5389 58.2746C81.2287 58.8218 80.8208 59.2844 80.4301 59.7682C80.5603 59.8488 80.5986 59.7605 80.6446 59.7163C80.9989 59.3631 81.3455 59.0003 81.7247 58.6739C81.7515 58.6509 82.0062 58.5722 81.7247 58.4935C81.6059 58.4609 81.7151 58.3322 81.7534 58.2612C81.9717 57.8696 82.2149 57.4914 82.416 57.0902C83.3428 55.2434 83.5554 53.2719 83.429 51.2389C83.3064 49.2885 82.8736 47.4014 82.3279 45.5336C82.257 45.2898 82.1345 45.117 81.9257 44.9673C80.9395 44.2666 79.9533 43.564 79.1184 42.677C78.4137 41.9284 77.8641 41.0895 77.6362 40.0701C77.6132 39.9722 77.5615 39.8724 77.6189 39.7629C77.7607 39.7745 77.7836 39.9069 77.8468 39.9914C78.3179 40.6402 78.7507 41.3179 79.2926 41.9168C79.6814 42.3449 80.1371 42.6905 80.5929 43.0399C81.2095 43.514 81.7802 44.0189 82.1153 44.7503C82.2034 44.9404 82.4026 45.0767 82.527 45.2533C83.1207 46.0999 83.3849 47.0789 83.6224 48.0657C83.9479 49.4229 84.0916 50.8051 84.0916 52.1949C84.0916 53.7653 83.9709 55.3279 83.3466 56.8003C83.0996 57.3858 82.7645 57.908 82.2321 58.2804C82.19 58.3092 82.1345 58.3418 82.1191 58.3841C81.8836 59.0675 81.3953 59.5973 81.0391 60.2097C80.8093 60.6071 80.8533 60.7107 81.3283 60.7184C81.9851 60.7299 82.64 60.7165 83.2969 60.7165C83.4635 60.7165 83.6301 60.7146 83.7967 60.7242C83.8828 60.728 84.0131 60.6858 84.038 60.8048C84.059 60.8989 83.9384 60.9257 83.8675 60.9603C82.9483 61.398 81.9813 61.5458 80.9778 61.3961C80.5163 61.327 80.141 61.1216 80.0873 60.584C80.072 60.4209 79.9265 60.4151 79.8173 60.3633C79.5512 60.2404 79.442 60.0427 79.5741 59.8142C80.0184 59.0387 80.7882 58.672 81.5389 58.2746Z" fill="white"/>
<path d="M11.4679 45.7715C11.4851 46.309 11.3607 46.7717 11.2592 47.2381C11.1768 47.6086 11.1711 47.6029 11.533 47.5703C12.0232 47.5261 12.4982 47.5549 12.8486 47.9695C12.906 48.0367 13.0114 48.1135 12.9558 48.2095C12.8946 48.3132 12.7797 48.2383 12.6992 48.2172C12.2569 48.0982 11.8145 47.9772 11.3798 47.8371C11.173 47.7699 11.083 47.8217 11.014 48.0271C10.6827 49.035 10.1887 49.9641 9.63142 50.8606C9.49738 51.0756 9.55674 51.0852 9.76739 51.1659C10.6138 51.4903 11.4813 51.5882 12.3737 51.4922C13.1607 51.4077 13.9401 51.2714 14.731 51.233C15.5851 51.1908 16.4105 51.2599 17.165 51.736C17.8735 52.1833 18.5725 52.6383 19.057 53.3428C19.5606 54.0761 19.3883 54.6962 18.5763 55.0667C17.9961 55.3316 17.368 55.3566 16.7475 55.418C15.0681 55.5869 13.6184 55.011 12.2779 54.0608C12.0271 53.8822 11.7513 53.7383 11.4507 53.554C11.7188 53.4158 11.9409 53.5041 12.1515 53.5463C12.4886 53.6154 12.8103 53.7498 13.1109 53.9168C13.9669 54.391 14.8938 54.6002 15.8551 54.6962C16.353 54.7461 16.8452 54.8191 17.3277 54.9573C17.6571 55.0513 18.2757 54.7538 18.4748 54.4198C18.6529 54.1184 18.5916 53.815 18.2431 53.4733C17.9386 53.1739 17.6207 52.8878 17.2914 52.6172C16.4871 51.9568 15.543 51.8339 14.5491 51.9337C13.6797 52.022 12.8122 52.1276 11.9409 52.2025C11.24 52.262 10.5506 52.1622 9.86505 51.9491C10.2021 52.4905 10.7345 52.788 11.2975 53.0779C11.1826 53.2065 11.0638 53.1758 10.9623 53.1604C10.3419 53.0625 9.77888 52.8341 9.3212 52.3887C8.96692 52.0432 8.93629 51.7283 9.16608 51.2926C9.43418 50.78 9.52035 50.2041 9.6927 49.6589C10.0719 48.4629 10.4434 47.2669 11.1194 46.1977C11.2017 46.0575 11.2649 45.8982 11.4679 45.7715Z" fill="white"/>
<path d="M46.28 46.5086C45.5696 46.8292 44.8534 46.6699 44.1333 46.5451C43.6297 46.4568 43.1184 46.4568 42.6071 46.4626C42.4979 46.4645 42.3792 46.4952 42.2758 46.4222C42.2681 46.2975 42.3734 46.3032 42.4424 46.2706C43.2735 45.8713 44.1544 45.8502 45.041 45.9634C45.4642 46.0172 45.8453 45.9462 46.2168 45.7542C46.4026 45.6582 46.5922 45.5718 46.776 45.4739C47.2758 45.2052 47.7986 45.1322 48.3463 45.2896C49.3019 45.5622 50.2479 45.3798 51.1939 45.2244C51.3317 45.2013 51.3988 45.1015 51.4639 44.9863C51.6056 44.7329 51.7588 44.4872 51.9235 44.2069C52.0192 44.3374 51.9771 44.4392 51.9599 44.5313C51.4217 47.2324 50.8741 49.9334 50.3436 52.6363C49.974 54.5291 49.5297 56.4124 49.3727 58.3417C49.298 59.2459 49.2367 60.152 49.1678 61.0561C49.1601 61.1502 49.1582 61.2443 49.1448 61.3364C49.1391 61.3729 49.1123 61.4228 49.0835 61.4343C49.0223 61.4574 48.9916 61.3998 48.9725 61.3537C48.9093 61.1982 48.8423 61.0446 48.7963 60.8853C48.4727 59.7776 48.5263 58.6546 48.6718 57.5296C48.8825 55.9017 49.344 54.3237 49.6887 52.7227C50.0468 51.0602 50.403 49.3978 50.6404 47.7123C50.7266 47.1037 50.8702 46.5048 51.0502 45.9174C51.0196 45.902 50.9966 45.8809 50.9851 45.8866C50.1061 46.2188 49.2023 46.2264 48.3099 46.0172C47.5286 45.8348 46.9081 46.1458 46.28 46.5086C46.28 46.5086 46.2762 46.5106 46.28 46.5086Z" fill="white"/>
<path d="M43.6318 70.1575C43.6644 70.1211 43.6989 70.0865 43.7314 70.05C44.011 69.9656 44.2465 70.052 44.4457 70.2458C44.6602 70.4532 44.8632 70.672 45.1562 70.8659C45.1562 70.6739 45.1485 70.482 45.1581 70.29C45.1657 70.1345 45.0987 70.0846 44.9551 70.0942C44.777 70.1038 44.5989 70.1019 44.438 70.0116C44.3863 69.9828 44.3155 69.954 44.3366 69.8753C44.3519 69.8139 44.417 69.8235 44.4668 69.8139C45.1772 69.6699 45.1562 69.6661 45.2691 68.9558C45.3323 68.5642 45.3055 68.1994 45.2117 67.8174C45.0566 67.1782 45.1274 66.5312 45.2385 65.89C45.2711 65.7 45.2711 65.5234 45.1849 65.3429C44.6506 64.2026 44.5453 62.9894 44.6736 61.7607C44.911 59.4897 45.1562 57.2245 45.1638 54.9324C45.1734 52.502 45.4606 50.0832 45.8513 47.6816C45.9183 47.2689 46.0811 46.8811 46.2803 46.5106L46.2764 46.5125C46.4162 46.7371 46.4009 46.9905 46.4124 47.2382C46.4622 48.4457 46.24 49.6282 46.0773 50.8165C46.0026 51.3656 45.9336 51.9165 45.9336 52.4675C45.9298 54.8498 45.6828 57.2168 45.4932 59.5857C45.386 60.9276 45.3132 62.2714 45.3055 63.6171C45.3017 64.5002 45.3017 65.3871 45.5698 66.2509C45.7326 66.7789 45.7498 67.3433 45.7747 67.8942C45.8187 68.8944 45.8302 69.8965 45.857 70.8985C45.8628 71.1097 45.8379 71.317 45.767 71.5148C45.6119 71.9505 45.1983 72.0331 44.89 71.6895C44.6698 71.4457 44.5491 71.1404 44.4036 70.8544C44.2351 70.5165 44.0474 70.2132 43.6318 70.1575Z" fill="white"/>
<path d="M59.6258 37.6877C59.7828 38.3231 59.8096 38.9624 59.7675 39.6093C59.6698 41.1278 59.2926 42.5964 58.9421 44.0669C58.7392 44.923 58.7526 45.8099 58.5534 46.6642C58.5132 46.837 58.5132 47.0597 58.404 47.1672C58.067 47.4974 58.18 47.912 58.1436 48.2902C57.9866 49.9085 57.4542 51.4251 56.9199 52.9397C56.4469 54.2778 55.9126 55.5928 55.4875 56.9481C55.1601 57.9924 55.0317 59.0674 54.9226 60.1463C54.8594 60.7798 54.7713 61.4114 54.6047 62.0276C54.5798 62.1217 54.5836 62.2369 54.4419 62.3136C54.2715 61.8068 54.2255 61.2924 54.2179 60.7798C54.1949 59.2172 54.5415 57.714 54.9839 56.2301C55.5545 54.3181 56.2899 52.4636 56.9601 50.5862C57.4063 49.3364 57.728 48.0502 58.0613 46.7698C58.0747 46.7199 58.0747 46.6642 58.0689 46.6143C57.9272 45.5565 58.1187 44.5257 58.3906 43.5197C58.8521 41.8112 59.1049 40.0681 59.3864 38.3269C59.4247 38.1081 59.4726 37.8854 59.6258 37.6877Z" fill="white"/>
<path d="M20.7953 10.2838C20.6881 10.2416 20.6881 10.136 20.6613 10.0516C19.6502 6.76119 20.8892 3.08496 24.2327 1.1691C24.4395 1.05008 24.6655 0.959852 24.8953 0.892662C25.4583 0.727567 25.8241 0.948333 25.9792 1.51465C26.0692 1.84292 26.0366 2.17886 26.0405 2.51097C26.0424 2.62423 26.0405 2.7375 26.0405 2.93715C27.7601 1.31884 29.6751 0.253401 32.0593 0C31.9003 0.19389 31.7318 0.213087 31.5882 0.270678C30.5234 0.694933 29.4683 1.1403 28.461 1.6951C26.7414 2.64151 25.4947 4.0333 24.5947 5.75911C24.2749 6.36958 23.9704 6.98772 23.6965 7.6193C23.6601 7.70185 23.6487 7.80167 23.5357 7.86118C23.4686 7.62122 23.5567 7.40238 23.6027 7.18929C23.867 5.98755 24.5104 4.97587 25.2189 4.00258C25.4219 3.72422 25.5273 3.47082 25.4641 3.11376C25.3951 2.71446 25.3568 2.30748 25.2879 1.90627C25.24 1.63367 25.1309 1.56648 24.8608 1.65862C23.5567 2.10975 22.605 2.97938 21.9118 4.14464C21.1496 5.427 20.803 6.80919 20.9447 8.3104C21.0002 8.89398 20.9007 9.47757 20.8796 10.0612C20.8777 10.136 20.8815 10.2301 20.7953 10.2838Z" fill="white"/>
<path d="M54.2847 62.2118C54.5911 62.8472 54.6581 63.4884 54.6601 64.1334C54.6639 65.2833 54.6562 66.4294 54.9416 67.5543C55.1331 68.3126 55.3399 69.069 55.5046 69.833C55.6942 70.7046 55.7574 71.5761 55.5141 72.4649C55.3973 72.8911 55.4127 73.3538 55.292 73.7895C55.1809 74.185 55.0239 74.5536 54.7692 74.8818C54.3613 75.4098 53.7524 75.5269 53.1645 75.6113C52.9423 75.644 52.7355 75.5864 52.5593 75.7822C52.4808 75.8686 52.3563 75.8667 52.2357 75.8302C51.5884 75.6267 51.1786 75.1506 50.8263 74.6092C50.7995 74.567 50.7707 74.5094 50.8148 74.4672C50.8703 74.4134 50.9335 74.448 50.9852 74.4787C51.4142 74.734 51.8891 74.9106 52.2759 75.237C52.3812 75.3253 52.4866 75.4174 52.6398 75.3407C52.8274 75.2466 52.6953 75.0988 52.6896 74.9817C52.6666 74.5555 52.611 74.1293 52.5995 73.7031C52.5919 73.4517 52.5172 73.3461 52.2548 73.3576C51.9331 73.373 51.6095 73.3538 51.2878 73.3442C51.1671 73.3403 51.0369 73.3538 50.9335 73.2693C50.9258 73.1944 50.9814 73.1791 51.0254 73.1618C52.048 72.7798 53.107 72.5744 54.1947 72.5225C54.2924 72.5187 54.4379 72.4726 54.4781 72.5859C54.5279 72.726 54.3671 72.7663 54.2809 72.8239C53.9496 73.0485 53.5877 73.2117 53.1932 73.2827C52.9442 73.3269 52.9193 73.4267 52.9998 73.6475C53.1319 74.0103 53.2411 74.3808 53.3406 74.7532C53.3885 74.9279 53.4709 75.0143 53.6509 75.0469C53.8443 75.0834 53.9936 75.0661 54.1162 74.8953C54.3096 74.6284 54.4169 74.3232 54.5145 74.0161C54.6926 73.444 54.9282 72.8988 55.2958 72.4227C55.4222 72.2595 55.3724 72.1117 55.3188 71.9543C54.819 70.455 54.4609 68.9231 54.2426 67.3585C54.0205 65.7709 53.9994 64.1795 54.1564 62.5842C54.1679 62.4671 54.166 62.3481 54.2847 62.2118Z" fill="white"/>
<path d="M39.9206 57.3281C39.1623 56.7829 38.9268 56.1206 39.193 55.3105C39.4821 54.4293 39.3691 53.552 39.1336 52.6901C38.8789 51.7552 38.5687 50.8337 38.2776 49.9084C38.1397 49.4688 38.0172 49.0234 37.9635 48.5685C37.9195 48.1903 37.7586 47.9177 37.4484 47.7315C36.623 47.2343 36.1979 46.4453 35.859 45.5872C35.7211 45.2378 35.5736 44.8922 35.4204 44.5486C35.2098 44.0764 34.934 43.6521 34.5491 43.3008C34.4859 43.2432 34.3806 43.2067 34.3998 43.0493C34.823 43.1453 35.1715 43.3526 35.4683 43.6502C35.9011 44.086 36.1788 44.6254 36.4545 45.1648C36.7207 45.6851 36.9582 46.2207 37.3335 46.6756C37.4388 46.8043 37.5499 46.931 37.6744 47.0404C38.2718 47.5702 38.4212 47.5913 39.0991 47.1709C39.4438 46.9559 39.8287 46.929 40.206 46.881C40.702 46.8196 41.2018 46.7966 41.6997 46.762C41.7667 46.7563 41.8605 46.7217 41.8931 46.81C41.9275 46.9022 41.8299 46.931 41.7743 46.9674C41.2765 47.3053 40.7441 47.5645 40.1428 47.6412C39.7847 47.6873 39.4515 47.7775 39.1412 47.9618C38.9057 48.102 38.6529 48.198 38.3753 48.2095C38.1608 48.2172 38.1972 48.3151 38.2699 48.4494C39.0666 49.9219 39.5817 51.4922 39.8843 53.1335C39.9513 53.4925 39.9896 53.8553 40.0279 54.2182C40.0643 54.5733 40.0585 54.9284 39.8804 55.2548C39.597 55.775 39.5683 56.2991 39.8268 56.8424C39.8919 56.9825 39.9513 57.1342 39.9206 57.3281Z" fill="white"/>
<path d="M37.2222 11.2706C37.2911 10.9424 37.496 10.7581 37.655 10.5488C38.0418 10.0401 38.5665 9.6581 38.9342 9.13594C39.6255 8.15113 40.1674 7.10489 40.2957 5.88012C40.3264 5.59408 40.2785 5.31765 40.244 5.03929C40.2191 4.84156 40.0679 4.78013 39.8993 4.72638C38.5588 4.30596 37.2662 4.44226 36.0196 5.06617C34.8917 5.63056 33.984 6.47139 33.1567 7.40629C32.9709 7.61745 32.7909 7.83438 32.6033 8.04363C32.5535 8.0993 32.5018 8.2068 32.406 8.14345C32.339 8.0993 32.3735 8.00715 32.3945 7.93804C32.5841 7.28726 32.8962 6.70175 33.3558 6.20263C34.5757 4.8838 36.1019 4.16391 37.8599 3.91051C38.6508 3.79724 39.4417 3.85675 40.2153 4.06024C40.807 4.21766 41.0426 4.52673 41.0426 5.14871C41.0426 6.05097 40.7879 6.9014 40.4566 7.7288C39.9664 8.95165 39.2616 10.0209 38.1682 10.7946C37.8848 10.9923 37.5937 11.167 37.2222 11.2706Z" fill="white"/>
<path d="M32.2812 4.70334C32.3291 3.93353 32.5972 3.25012 33.0855 2.65693C33.8726 1.70284 34.9278 1.25171 36.115 1.07702C37.7964 0.829374 39.4107 1.09237 40.9695 1.75083C41.0078 1.76619 41.0461 1.78539 41.0825 1.80458C41.1285 1.82762 41.1898 1.85066 41.1859 1.90825C41.1783 1.99079 41.0749 1.93512 41.0366 1.99655C42.22 2.18852 43.3747 2.45344 44.4663 3.16757C44.0641 3.2578 43.7616 3.16373 43.4628 3.1215C42.2966 2.95449 41.1744 2.58206 40.014 2.38433C39.5812 2.31139 39.1484 2.26147 38.7118 2.25571C38.6141 2.25379 38.5069 2.27875 38.3632 2.17509C38.7405 2.00423 39.1024 1.96584 39.4586 1.89289C38.2426 1.58958 37.017 1.34961 35.7665 1.60877C34.6692 1.8353 33.8783 2.53599 33.2138 3.40178C32.8883 3.82219 32.6106 4.27524 32.2812 4.70334Z" fill="white"/>
<path d="M49.2714 61.7645C49.4131 61.9891 49.4687 62.2425 49.5338 62.4863C49.9838 64.1738 50.1332 65.89 50.0623 67.6331C50.0279 68.4777 49.957 69.3186 49.8689 70.1594C49.8019 70.8102 49.9244 71.4494 50.0815 72.0791C50.2194 72.6358 50.3553 73.1944 50.4855 73.7531C50.5028 73.826 50.5602 73.9316 50.4606 73.9777C50.3687 74.0199 50.317 73.9163 50.2634 73.8606C49.53 73.0946 49.2561 72.1501 49.2102 71.1192C49.168 70.1978 49.3097 69.2859 49.4093 68.3741C49.5204 67.3393 49.4553 66.3104 49.3634 65.2814C49.2657 64.1891 49.1661 63.0987 49.2025 62.0007C49.2006 61.9277 49.1642 61.8356 49.2714 61.7645Z" fill="white"/>
<path d="M69.9109 42.2566C69.4954 42.5484 69.0358 42.7327 68.5685 42.8997C66.9982 43.4603 65.3705 43.539 63.7294 43.4295C62.4291 43.3431 61.1518 43.0974 59.8898 42.7711C59.7922 42.7461 59.683 42.7404 59.6045 42.654C59.6773 42.5254 59.8036 42.5637 59.909 42.5503C60.9297 42.4198 61.9446 42.5484 62.9595 42.6463C64.233 42.7711 65.5103 42.9323 66.7819 42.6636C67.5344 42.5042 68.2679 42.2585 69.0415 42.2009C69.3288 42.1798 69.616 42.1433 69.9109 42.2566Z" fill="white"/>
<path d="M17.3906 23.3187C17.3504 23.432 17.2661 23.4358 17.1627 23.4243C15.9735 23.2899 14.7843 23.1575 13.6334 22.81C13.3634 22.7294 13.1068 22.6161 12.8521 22.4952C12.065 22.1208 12.0842 21.113 12.4902 20.6522C12.6951 20.42 12.9287 20.2357 13.2006 20.1013C14.1811 19.6175 15.2612 19.4812 16.368 19.1741C16.211 19.4812 15.9812 19.5983 15.7629 19.7154C15.2669 19.9823 14.7326 20.1627 14.2098 20.37C13.8192 20.5236 13.4477 20.7118 13.1585 21.0247C12.8061 21.4067 12.833 21.6121 13.2543 21.9058C13.8422 22.3166 14.5315 22.3857 15.2095 22.4894C15.9984 22.6084 16.7702 22.7678 17.3925 23.3226C17.3944 23.3226 17.3906 23.3187 17.3906 23.3187Z" fill="white"/>
<path d="M67.9022 6.69597C67.5019 6.74588 67.1075 6.74588 66.7091 6.69405C65.7172 6.56351 64.8018 6.18341 63.8922 5.79371C62.4445 5.17172 60.9297 4.9068 59.369 4.84153C58.9496 4.82425 58.5322 4.78202 58.0879 4.74747C58.1779 4.57661 58.3043 4.58813 58.4058 4.55742C59.9531 4.10629 61.4755 4.30785 62.9883 4.73979C64.6333 5.21012 66.1825 5.9396 67.7777 6.54239C67.8275 6.55967 67.883 6.5731 67.9022 6.69597Z" fill="white"/>
<path d="M70.4336 6.61534C70.92 6.31587 71.4294 6.23332 71.9656 6.28899C72.6894 6.36386 73.3635 6.60958 74.0146 6.92249C75.2804 7.53296 76.552 8.13191 77.7488 8.87675C78.2812 9.20886 78.781 9.58128 79.1812 10.0727C79.231 10.1342 79.3306 10.2013 79.2866 10.282C79.2272 10.3933 79.1142 10.3089 79.0376 10.2858C78.3578 10.0919 77.7622 9.72334 77.1839 9.33364C75.8549 8.43906 74.4302 7.73453 72.9365 7.1663C72.2337 6.89946 71.506 6.72092 70.7457 6.71325C70.673 6.71325 70.6002 6.70749 70.5293 6.69405C70.5044 6.69213 70.4834 6.65949 70.4336 6.61534Z" fill="white"/>
<path d="M68.9229 15.1676C68.1071 14.8797 67.4081 14.417 66.7341 13.9083C65.5544 13.0176 64.4974 11.9713 63.2948 11.1094C62.6571 10.6525 61.9811 10.2666 61.2572 9.96332C61.1691 9.92684 61.0063 9.89997 61.037 9.78671C61.0734 9.64465 61.2323 9.71376 61.3357 9.72528C62.5747 9.85198 63.6222 10.426 64.5395 11.2226C65.744 12.267 66.9926 13.2556 68.2105 14.2807C68.5016 14.5245 68.7544 14.8106 68.9229 15.1676Z" fill="white"/>
<path d="M31.5597 14.5841C30.9106 14.4209 30.3399 14.2212 29.7405 14.1541C28.9151 14.06 28.0955 14.0312 27.3487 14.5054C27.1534 14.6301 26.9676 14.7626 26.824 14.9469C26.1614 15.7973 25.5639 16.6842 25.3743 17.7996C24.9569 17.0202 25.3954 15.1696 26.9408 14.0984C28.5877 12.9504 30.6386 13.2921 31.5597 14.5841Z" fill="white"/>
<path d="M51.2954 6.11809C51.6363 5.56905 52.1495 5.44619 52.724 5.5249C53.2717 5.59977 53.7619 5.81285 54.1564 6.22367C54.4379 6.51739 54.752 6.77847 55.0239 7.07986C55.7382 7.86694 56.6363 8.00132 57.6244 7.85926C57.8791 7.82279 58.1338 7.79783 58.4077 7.80743C58.1166 8.12418 57.7585 8.33343 57.3621 8.46781C56.552 8.7404 55.8397 8.5062 55.2135 7.98404C54.7424 7.59242 54.3038 7.15857 53.8404 6.75543C53.3119 6.2947 52.7355 5.92228 51.9925 5.98371C51.7569 6.00099 51.5271 6.0701 51.2954 6.11809Z" fill="white"/>
<path d="M23.0728 3.10614C23.0019 3.27123 22.9426 3.44401 22.8564 3.60526C22.0234 5.14679 21.8242 6.7555 22.3145 8.4506C22.6381 9.56594 22.4485 10.6218 21.8625 11.6104C21.7323 11.8312 21.5695 12.0308 21.3646 12.194C21.2899 12.1115 21.3455 12.0577 21.3723 12.0078C21.918 10.998 21.9544 9.91149 21.8472 8.80574C21.7553 7.85165 21.5312 6.91099 21.5657 5.94346C21.6078 4.80316 22.0866 3.87594 22.9272 3.12342C22.9598 3.09462 22.9904 3.06583 23.0728 3.10614Z" fill="white"/>
<path d="M40.4395 8.61946C40.922 8.38141 41.3874 8.39677 41.8565 8.54075C42.6321 8.77687 43.1243 9.35278 43.5436 9.99972C44.1603 10.9538 44.6122 12.0039 45.2729 12.933C45.495 13.2479 45.675 13.5915 45.8033 13.9582C45.8397 14.0599 45.9144 14.1597 45.8531 14.3171C45.4931 14.0944 45.2173 13.8065 44.9665 13.4917C44.4418 12.837 44.0779 12.0845 43.6758 11.355C43.2832 10.6428 42.8868 9.93445 42.2549 9.3931C41.7857 8.99188 41.2572 8.76152 40.6444 8.72312C40.6022 8.7212 40.562 8.71352 40.5218 8.702C40.5026 8.69625 40.4912 8.67321 40.4395 8.61946Z" fill="white"/>
<path d="M50.4585 7.94753C50.8453 7.78819 51.1862 7.87458 51.5098 8.06655C51.9426 8.32187 52.2414 8.71157 52.5286 9.10895C52.9135 9.6407 53.2869 10.1763 53.7408 10.6562C54.1506 11.0882 54.6236 11.4107 55.1636 11.6468C55.5926 11.8349 56.0158 12.0346 56.4371 12.2381C56.5213 12.2784 56.6726 12.3072 56.6343 12.4358C56.6056 12.5395 56.4715 12.4915 56.3835 12.4953C55.0276 12.5452 54.0204 11.8983 53.1912 10.8904C52.6473 10.2301 52.205 9.49481 51.6362 8.85363C51.3049 8.47928 50.9181 8.17597 50.4585 7.94753Z" fill="white"/>
<path d="M17.3752 50.4287C16.9176 50.1119 16.5882 49.6685 16.2684 49.2193C15.8107 48.5762 15.3434 47.9465 14.4453 47.8582C14.6694 47.672 14.9413 47.6355 15.3071 47.72C16.0099 47.8851 16.4829 48.3669 16.8984 48.9121C17.2393 49.3594 17.538 49.8393 17.7793 50.35C17.8693 50.54 18.0014 50.659 18.1853 50.7569C19.0145 51.1927 19.4549 51.9011 19.5832 52.8168C19.5966 52.907 19.6349 53.0337 19.5487 53.0798C19.43 53.1431 19.3745 53.003 19.3055 52.9358C19.0604 52.6939 18.8517 52.4175 18.6774 52.1218C18.3327 51.5383 17.8961 51.0449 17.335 50.661C17.2814 50.6245 17.1837 50.6053 17.2144 50.5074C17.2393 50.4325 17.3408 50.5247 17.3752 50.4287Z" fill="white"/>
<path d="M31.4621 16.4519C31.1806 16.6381 31.125 16.8761 31.0255 17.093C30.6865 17.836 30.2001 18.4234 29.3537 18.6039C29.1622 18.6442 28.9669 18.6672 28.783 18.5789C28.7447 18.4196 29.0109 18.4599 28.94 18.3121C28.8883 18.2065 28.9171 18.0145 28.7715 18.0068C28.6049 17.9972 28.6873 18.1834 28.6451 18.2775C28.5973 18.385 28.6413 18.5328 28.4843 18.623C28.3943 18.2929 28.2928 17.9838 28.3138 17.6478C28.3253 17.4539 28.4211 17.2985 28.5858 17.2159C29.4188 16.7974 30.2824 16.4691 31.2265 16.4154C31.2763 16.4116 31.3261 16.4288 31.4621 16.4519Z" fill="white"/>
<path d="M50.1831 2.29791C49.7484 2.91221 49.2142 3.33263 48.5899 3.63402C47.3126 4.25217 45.9683 4.29824 44.5952 4.06979C44.1127 3.98917 43.6358 3.87782 43.1724 3.72425C43.0786 3.69353 42.9656 3.68969 42.9043 3.58411C42.9905 3.46701 43.1149 3.51116 43.2203 3.51116C43.8446 3.50732 44.4688 3.4958 45.0912 3.55531C46.8051 3.71849 48.3601 3.21745 49.8404 2.41117C49.9265 2.36318 50.0051 2.28447 50.1831 2.29791Z" fill="white"/>
<path d="M71.0254 8.20865C71.2648 8.19329 71.4505 8.31615 71.6363 8.41213C72.8982 9.05908 74.2349 9.52556 75.5582 10.0247C76.102 10.2301 76.5999 10.52 77.0863 10.8905C75.8741 11.2475 71.5846 9.33743 71.0254 8.20865Z" fill="white"/>
<path d="M44.9146 5.99715C45.309 5.73223 45.7131 5.68232 46.1306 5.72263C47.0766 5.81286 47.8081 6.3043 48.4209 6.9954C49.2482 7.92645 49.7595 9.0226 50.0505 10.2282C50.062 10.2762 50.0639 10.3261 50.0735 10.3971C49.9012 10.3856 49.859 10.2531 49.7978 10.1591C49.3075 9.4219 48.8288 8.67706 48.3347 7.94181C47.99 7.42925 47.5917 6.9666 47.0861 6.59802C46.5327 6.19488 45.9142 6.03171 45.2401 6.0413C45.1482 6.04514 45.0563 6.09889 44.9146 5.99715Z" fill="white"/>
<path d="M36.5212 15.54C36.5461 15.8222 36.5844 16.0756 36.5863 16.329C36.5939 17.3042 36.9922 18.1009 37.6625 18.7805C37.9995 19.1203 38.3481 19.4486 38.6487 19.8248C38.9723 20.2299 39.1887 20.6733 39.2443 21.2531C38.9436 21.0861 38.7694 20.8634 38.5683 20.6791C37.7257 19.9016 36.885 19.1222 36.3833 18.0587C36.0405 17.3311 36.0175 16.594 36.3124 15.8472C36.3431 15.7704 36.3814 15.6955 36.4235 15.6226C36.435 15.5976 36.4656 15.5842 36.5212 15.54Z" fill="white"/>
<path d="M23.128 36.699C23.6029 37.7606 24.7557 38.3883 25.7419 38.0908C26.2877 37.9257 26.663 37.5379 26.9924 37.1002C27.2432 36.7662 27.4233 36.388 27.5899 36.0041C27.6262 35.9196 27.6282 35.7583 27.766 35.7987C27.8771 35.8313 27.858 35.9753 27.8503 36.077C27.7718 37.1348 27.3045 37.9449 26.3394 38.4306C25.3685 38.9182 24.2061 38.7704 23.5569 38.085C23.1854 37.6876 23.0897 37.2116 23.128 36.699Z" fill="white"/>
<path d="M40.2804 35.2631C40.2229 34.4472 40.2708 33.712 40.3282 32.9767C40.3876 32.2376 40.3857 31.4966 40.401 30.7556C40.4163 30.0146 40.1923 29.2966 40.1865 28.5153C41.2302 29.5155 41.2953 33.7619 40.2804 35.2631Z" fill="white"/>
<path d="M69.4014 10.8962C70.9525 12.1882 72.8043 13.0578 74.3746 14.4131C72.9192 14.5168 69.9854 12.4416 69.4014 10.8962Z" fill="white"/>
<path d="M88.4864 64.4425C88.5266 64.525 88.6607 64.5212 88.6702 64.6575C88.5266 64.7285 88.3715 64.7093 88.2221 64.6863C86.8836 64.4847 86.0027 63.283 86.1999 61.943C86.2823 61.3767 86.3818 60.8104 86.4087 60.2364C86.4125 60.1654 86.4048 60.0867 86.5274 60.0176C86.6557 60.2921 86.7131 60.5781 86.7438 60.868C86.7936 61.3345 86.8223 61.8029 86.8702 62.2694C86.9372 62.947 87.1995 63.5153 87.8104 63.8762C88.0632 64.0259 88.2011 64.312 88.4768 64.4329C88.4768 64.431 88.4864 64.4425 88.4864 64.4425Z" fill="white"/>
<path d="M17.7698 37.3383C17.6818 37.154 17.7622 37.0561 17.7967 36.9524C18.2084 35.6777 18.8135 34.4837 19.3535 33.2628C20.0946 31.5907 20.6749 29.8591 21.1938 28.1064C21.4045 27.3942 21.6802 26.707 22.002 26.0389C22.0403 25.9583 22.0671 25.8623 22.2318 25.799C21.2379 29.8591 19.4646 33.5565 17.7698 37.3383Z" fill="white"/>
<path d="M62.9561 38.5976C63.7067 37.1502 63.8925 35.5395 64.3904 34.0287C64.4593 33.8214 64.534 33.616 64.6125 33.4106C64.6336 33.3587 64.6412 33.2724 64.7236 33.2839C64.804 33.2954 64.7944 33.376 64.804 33.4336C64.9151 34.1228 64.8749 34.8062 64.737 35.4858C64.5283 36.5051 64.1433 37.4381 63.4425 38.2233C63.3065 38.3788 63.1552 38.5132 62.9561 38.5976Z" fill="white"/>
<path d="M39.6142 37.9334C39.7904 38.421 39.7578 38.8664 39.6659 39.3022C39.4323 40.4079 39.0033 41.4119 38.0975 42.1472C37.8199 42.3718 37.502 42.485 37.14 42.4581C36.9141 42.4409 36.736 42.3545 36.6479 42.1356C36.5981 42.0109 36.6096 41.8842 36.7092 41.7863C36.8758 41.6231 37.096 41.5712 37.2837 41.6826C37.5824 41.8611 37.7605 41.7171 37.9616 41.5252C38.4365 41.074 38.7371 40.5192 38.9439 39.9107C39.1086 39.4269 39.2389 38.9317 39.3901 38.444C39.4399 38.2866 39.4514 38.1158 39.6142 37.9334Z" fill="white"/>
<path d="M51.0867 3.77803C50.6654 3.85673 50.2977 3.922 49.932 3.99687C49.5662 4.06982 49.2273 4.21572 48.894 4.40385C48.9668 4.03527 49.2004 3.79338 49.4973 3.62253C50.2116 3.21555 50.9833 3.18868 51.7723 3.31346C51.9829 3.34609 51.868 3.4536 51.8106 3.55726C52.5612 3.42864 53.266 3.53422 53.9573 3.80298C52.8255 4.26371 51.5559 3.92008 50.3801 4.52479C50.5658 4.16005 50.8205 4.00263 51.0867 3.77803Z" fill="white"/>
<path d="M32.0537 3.444C31.7339 4.13509 31.2992 4.71868 30.8473 5.28883C30.3034 5.97417 29.7461 6.64798 29.2234 7.3506C28.691 8.06473 28.0322 8.65983 27.3141 9.18775C27.2145 9.2607 27.0977 9.31253 26.9847 9.36436C26.8871 9.40852 26.7818 9.43539 26.6975 9.33749C26.6132 9.23958 26.6286 9.1244 26.6649 9.01114C26.6783 8.97274 26.7166 8.90747 26.7435 8.94011C26.9503 9.18391 27.0345 8.90556 27.1245 8.83261C28.5225 7.71342 29.5987 6.30628 30.6385 4.8665C30.9928 4.37697 31.3739 3.90665 31.8411 3.51695C31.8909 3.48047 31.9273 3.42096 32.0537 3.444Z" fill="white"/>
<path d="M34.4188 24.3361C34.484 24.4053 34.5146 24.4225 34.5222 24.4475C34.8478 25.5033 35.7823 25.6588 36.646 25.4438C37.3717 25.2634 37.9482 24.8564 38.2929 24.1576C38.3714 23.9964 38.3599 23.8159 38.4288 23.647C38.6816 23.9177 38.7256 24.3688 38.4882 24.7815C37.9482 25.7145 37.0922 26.1426 36.0466 26.1445C35.3668 26.1464 34.8325 25.8086 34.4993 25.1962C34.3614 24.9428 34.325 24.6702 34.4188 24.3361Z" fill="white"/>
<path d="M16.0693 53.7633C15.6921 53.7748 15.4144 53.7134 15.1693 53.5425C14.8973 53.3525 14.8954 53.076 15.1597 52.8706C15.3474 52.7247 15.5733 52.6825 15.8012 52.646C15.8931 52.6307 15.9908 52.646 16.0808 52.6211C16.9464 52.3888 17.4538 52.9244 17.9211 53.5022C18.172 53.8113 18.0781 54.1856 17.7373 54.3853C17.36 54.606 16.9751 54.6099 16.5461 54.3776C16.7836 54.272 16.9808 54.1895 17.1742 54.0992C17.3696 54.009 17.3772 53.8862 17.2355 53.7345C16.9904 53.4677 16.6821 53.3275 16.3278 53.2987C16.0731 53.2776 15.8146 53.2949 15.5178 53.2949C15.6518 53.5137 15.8682 53.5675 16.0693 53.7633Z" fill="white"/>
<path d="M28.0171 22.3224C28.2795 22.81 28.4901 23.2515 28.7525 23.6623C29.0953 24.2018 29.4629 24.7163 29.9685 25.1175C30.0374 25.1712 30.1657 25.2288 30.1217 25.3267C30.0681 25.4477 29.9398 25.369 29.8421 25.3574C29.7425 25.3459 29.6429 25.3248 29.5166 25.3037C29.6621 25.726 29.8593 26.0965 29.934 26.5093C29.9627 26.6648 29.9819 26.8183 29.9225 26.9719C29.8689 27.1063 29.7847 27.2195 29.6257 27.2004C29.4725 27.1812 29.3959 27.0679 29.3844 26.9162C29.35 26.4689 29.2944 26.0197 29.3595 25.5744C29.3921 25.3478 29.327 25.2211 29.1431 25.0829C28.2776 24.436 28.0152 23.4992 27.9501 22.476C27.9463 22.4529 27.9712 22.4261 28.0171 22.3224Z" fill="white"/>
<path d="M57.931 28.6324C57.2493 27.0602 57.3201 25.463 57.7721 23.8524C58.0574 25.438 58.404 27.0199 57.931 28.6324Z" fill="white"/>
<path d="M88.9458 64.0394C89.2675 63.8954 89.5911 63.7553 89.8937 63.5691C90.156 63.4078 90.2843 63.189 90.2786 62.8722C90.2709 62.4345 90.2518 61.9949 90.3495 61.5649C90.3916 61.3749 90.4241 61.179 90.5563 61.0159C90.6731 61.0735 90.652 61.1829 90.6654 61.2635C90.7535 61.8087 90.8378 62.3539 90.9144 62.901C91.0235 63.6747 90.7286 64.12 89.9703 64.3005C89.4839 64.4157 88.9917 64.4925 88.4881 64.4425L88.4785 64.431C88.5513 64.2774 88.7466 64.2333 88.8002 64.0624C88.8481 64.0548 88.8979 64.0471 88.9458 64.0394Z" fill="white"/>
<path d="M26.9368 13.6146C26.0655 13.8641 25.2075 14.0023 24.4281 13.3631C24.1543 13.1385 23.8709 12.9273 23.5913 12.7123C23.1566 12.3783 22.7142 12.0711 22.0708 12.242C22.2221 11.9886 22.4136 11.9175 22.6338 11.8983C22.967 11.8676 23.2734 11.9713 23.5607 12.121C24.0394 12.3706 24.5124 12.6355 24.9835 12.8966C25.5944 13.2345 26.2359 13.4879 26.9368 13.6146Z" fill="white"/>
<path d="M61.9678 6.66714C62.211 6.36191 62.5518 6.2928 62.8851 6.2736C64.1834 6.20065 65.3592 6.61723 66.4814 7.22577C66.5331 7.25457 66.6097 7.28336 66.5963 7.35631C66.5791 7.45038 66.4814 7.4331 66.4182 7.44462C66.0735 7.50989 65.7345 7.4427 65.3975 7.37935C65.1218 7.32752 64.8537 7.24689 64.5836 7.1701C63.7296 6.93014 62.8927 6.59227 61.9678 6.66714Z" fill="white"/>
<path d="M62.3867 7.4408C63.2025 7.35249 63.9436 7.57518 64.6655 7.87465C65.3817 8.17029 66.0424 8.56383 66.6207 9.08407C66.6916 9.14742 66.8333 9.20693 66.7682 9.32211C66.7222 9.40466 66.5958 9.34707 66.5058 9.32979C65.6039 9.15318 64.8034 8.72892 64.0049 8.30083C63.4668 8.01287 62.9267 7.72684 62.3867 7.4408Z" fill="white"/>
<path d="M55.9374 15.5572C55.1312 15.5822 54.4821 15.2021 53.8693 14.7337C53.5399 14.4803 53.222 14.2115 52.8945 13.9543C52.6303 13.745 52.3468 13.578 51.9983 13.5569C51.9409 13.5531 51.8604 13.5742 51.847 13.4897C51.8355 13.4168 51.9007 13.3803 51.9543 13.3534C52.1496 13.2536 52.3545 13.2613 52.5613 13.3169C52.9386 13.4168 53.2871 13.5953 53.582 13.8391C54.2906 14.4246 55.091 14.8278 55.9413 15.1483C56.0964 15.2059 56.2381 15.2962 56.3856 15.373C56.4296 15.396 56.4832 15.4248 56.466 15.4881C56.4488 15.5496 56.3894 15.5553 56.3396 15.5572C56.2075 15.5611 56.0715 15.5572 55.9374 15.5572Z" fill="white"/>
<path d="M39.3286 43.75C39.6695 43.32 40.0008 43.0052 40.2459 42.6155C40.8185 41.7055 41.1593 40.7015 41.4389 39.6726C41.4562 39.6131 41.4657 39.5497 41.4887 39.4921C41.5155 39.4211 41.4925 39.2944 41.6074 39.304C41.6994 39.3117 41.707 39.4268 41.7319 39.5036C41.8277 39.8185 41.8526 40.1506 41.7817 40.4635C41.5462 41.504 41.1421 42.4677 40.3531 43.224C40.0869 43.4755 39.7863 43.6675 39.3286 43.75Z" fill="white"/>
<path d="M18.5533 44.9058C18.3886 46.4454 18.7907 47.9677 18.7122 49.5399C17.7298 48.5609 17.7145 46.1612 18.5533 44.9058Z" fill="white"/>
<path d="M52.1245 4.78202C53.2812 3.8452 55.5715 4.39424 56.7664 5.08341C56.6841 5.20435 56.5577 5.15252 56.4562 5.15444C55.6921 5.17364 54.9472 5.00278 54.1984 4.89336C53.5473 4.79738 52.9001 4.73019 52.2432 4.81849C52.2164 4.82425 52.1877 4.80314 52.1245 4.78202Z" fill="white"/>
<path d="M29.4531 19.9074C29.8917 19.6079 30.29 19.3487 30.6749 19.0685C31.0828 18.7728 31.3815 18.3985 31.4696 17.8802C31.5194 17.5922 31.4428 17.3235 31.3911 17.047C31.3719 16.9395 31.2973 16.8378 31.3317 16.7149C31.9196 16.9587 32.0364 18.0856 31.8296 18.6826C31.5443 19.5081 30.424 20.107 29.4531 19.9074Z" fill="white"/>
<path d="M86.3878 29.4655C85.4648 30.6039 84.0783 30.9015 82.9619 31.702C83.1841 30.7249 85.302 29.3619 86.3878 29.4655Z" fill="white"/>
<path d="M44.6982 10.6697C45.4968 11.6757 46.5558 12.4762 47.1092 13.7144C46.1402 13.5128 44.7787 11.8408 44.6982 10.6697Z" fill="white"/>
<path d="M17.6223 15.9566C17.8176 16.1755 17.8827 16.4077 17.967 16.6247C18.3059 17.5077 18.484 18.41 18.2197 19.3506C18.1948 19.4409 18.1699 19.533 18.1336 19.6175C18.0933 19.7096 18.078 19.867 17.9727 19.8632C17.8233 19.8594 17.8578 19.6866 17.8348 19.5868C17.6816 18.8976 17.7965 18.1911 17.6969 17.4962C17.651 17.1756 17.6242 16.8531 17.5916 16.5325C17.5744 16.3597 17.5418 16.185 17.6223 15.9566Z" fill="white"/>
<path d="M32.5057 0.956008C31.3548 1.93122 29.8553 2.18846 28.6719 3.12911C28.6834 2.89683 28.7925 2.77781 28.8921 2.67414C29.8515 1.67398 31.0465 1.1403 32.3946 0.909935C32.4099 0.908015 32.431 0.925292 32.5057 0.956008Z" fill="white"/>
<path d="M82.0576 20.8096C82.3563 21.5103 82.9384 21.4412 83.4957 21.3932C84.097 21.3413 84.6926 21.3279 85.3034 21.4719C85.2651 21.6254 85.1445 21.6542 85.0487 21.6984C84.3881 22.0036 83.6891 22.09 82.9748 21.994C82.2988 21.9038 81.9599 21.5179 82.0097 20.9535C82.0154 20.9171 82.0346 20.8806 82.0576 20.8096Z" fill="white"/>
<path d="M86.2441 56.6101C86.2499 56.6984 86.2613 56.7368 86.2537 56.7733C86.0162 57.8445 85.7309 58.8965 85.1277 59.8314C85.0741 59.9139 85.0319 60.0675 84.9247 60.0387C84.7906 60.0022 84.8443 59.8429 84.8462 59.7354C84.8557 58.8485 85.21 58.0787 85.6792 57.353C85.84 57.1054 85.9952 56.852 86.2441 56.6101Z" fill="white"/>
<path d="M82.9619 30.6845C83.0462 29.502 84.8482 28.4826 85.7003 28.6036C85.528 28.9338 85.2446 29.1373 84.9612 29.3369C84.4767 29.6805 83.9252 29.9167 83.4541 30.2833C83.2932 30.4081 83.1381 30.5406 82.9619 30.6845Z" fill="white"/>
<path d="M28.2124 9.16662C29.5663 8.68285 30.451 7.54639 31.5923 6.78042C31.7724 6.65948 31.7704 6.65756 32.0156 6.61725C31.7053 7.04534 31.3415 7.38513 31.0006 7.7422C30.5257 8.2394 30.0316 8.72124 29.3901 9.00728C29.0186 9.17237 28.6337 9.25876 28.2124 9.16662Z" fill="white"/>
<path d="M18.2275 15.133C18.6469 16.0698 19.1276 16.9414 18.9706 17.9838C18.9476 18.1373 18.8959 18.2871 18.848 18.4349C18.825 18.5098 18.8135 18.6211 18.7159 18.623C18.6105 18.6249 18.6086 18.5078 18.5856 18.4349C18.4478 17.9953 18.398 17.5403 18.3482 17.0853C18.2907 16.5574 18.1241 16.0468 18.1261 15.5131C18.128 15.4056 18.0897 15.2847 18.2275 15.133Z" fill="white"/>
<path d="M30.7227 10.305C31.3469 9.86155 32.0268 9.64654 32.7928 9.79052C33.2313 9.87306 33.6239 10.0554 33.9647 10.3453C34.0183 10.3895 34.1083 10.4279 34.0796 10.5123C34.049 10.6045 33.9532 10.5642 33.8881 10.5565C33.2064 10.4835 32.5227 10.4202 31.8429 10.3242C31.4695 10.2685 31.1037 10.4029 30.7227 10.305Z" fill="white"/>
<path d="M13.9341 50.0832C14.4511 49.9105 14.9069 49.8509 15.3684 49.8932C15.9678 49.9488 16.5327 50.112 16.9923 50.5267C17.0651 50.592 17.1991 50.6572 17.1513 50.7667C17.0957 50.8934 16.9483 50.8415 16.8429 50.8281C16.1727 50.7379 15.5293 50.5286 14.8763 50.3597C14.5928 50.2867 14.2884 50.2598 13.9341 50.0832Z" fill="white"/>
<path d="M82.9653 23.3167C83.8884 22.9001 84.639 22.2225 85.6291 22.0344C85.7248 22.0171 85.857 21.9345 85.9125 22.0478C85.968 22.1591 85.8263 22.2206 85.7535 22.2858C85.0565 22.9174 84.2809 23.3781 83.3081 23.4012C83.2105 23.405 83.1032 23.4338 82.9653 23.3167Z" fill="white"/>
<path d="M25.9275 42.4466C24.9011 41.8745 24.3687 40.9012 23.6123 40.1064C24.3898 40.1372 25.8433 41.4426 25.9275 42.4466Z" fill="white"/>
<path d="M33.084 18.8228C33.4172 19.8191 33.5723 20.8173 33.0935 21.8156C33.0648 21.877 33.0399 21.9711 32.9461 21.9519C32.8561 21.9346 32.8656 21.8367 32.8561 21.7695C32.7871 21.3356 32.7795 20.8999 32.8139 20.4603C32.858 19.9093 32.9346 19.366 33.084 18.8228Z" fill="white"/>
<path d="M46.2188 11.4626C46.9426 12.1767 47.8924 12.2746 48.6661 12.7334C48.8021 12.8141 49.0568 12.8947 49.0089 13.0387C48.9495 13.2114 48.7178 13.0809 48.5627 13.0636C47.881 12.9907 47.2318 12.8141 46.6975 12.3533C46.4505 12.1441 46.259 11.8945 46.2188 11.4626Z" fill="white"/>
<path d="M32.021 8.85179C32.3236 8.59647 32.6702 8.59455 33.0053 8.65598C33.6909 8.78076 34.2251 9.16086 34.6369 9.71949C34.6771 9.77325 34.7556 9.83276 34.7 9.90762C34.6483 9.97673 34.5622 9.9345 34.4951 9.92106C34.2902 9.88075 34.0968 9.80012 33.913 9.70222C33.3021 9.38163 32.7449 8.94201 32.021 8.85179Z" fill="white"/>
<path d="M31.2687 17.2544C31.3031 18.2852 30.4222 19.3296 29.4494 19.4371C29.3728 19.4467 29.2656 19.487 29.2254 19.3948C29.1851 19.3027 29.2886 19.2509 29.346 19.1971C29.6275 18.9341 29.909 18.6692 30.2001 18.4196C30.5524 18.1182 30.8608 17.7861 31.1001 17.3868C31.1365 17.3273 31.1614 17.2524 31.2687 17.2544Z" fill="white"/>
<path d="M28.4997 18.8842C28.5706 19.27 28.5534 19.6578 28.4768 20.0456C28.3695 20.5908 28.1455 21.0765 27.7587 21.4796C27.6897 21.5506 27.6189 21.6773 27.5078 21.6255C27.391 21.5698 27.4657 21.4412 27.481 21.3433C27.594 20.6426 27.9425 20.0283 28.201 19.3814C28.27 19.2105 28.3446 19.0416 28.4155 18.8707C28.4442 18.8746 28.471 18.8784 28.4997 18.8842Z" fill="white"/>
<path d="M26.131 17.3388C26.0007 17.262 26.0199 17.1737 26.0237 17.0931C26.062 16.2503 26.7361 15.3442 27.5232 15.0754C27.617 15.0428 27.7357 14.9641 27.8047 15.0716C27.8583 15.1542 27.7587 15.2463 27.7012 15.3135C27.4293 15.6398 27.1555 15.9662 26.8701 16.2829C26.5791 16.6035 26.3378 16.9606 26.131 17.3388Z" fill="white"/>
<path d="M54.4014 9.08406C54.725 8.96312 54.9759 9.04375 55.2248 9.07639C55.851 9.16085 56.4312 9.37778 56.9598 9.72716C57.0268 9.77132 57.134 9.80587 57.1168 9.89994C57.0938 10.0228 56.9674 9.98825 56.8832 9.99592C56.481 10.0305 56.1 9.93449 55.7323 9.78092C55.2842 9.59279 54.8648 9.3605 54.4014 9.08406Z" fill="white"/>
<path d="M22.8828 6.44831C22.6913 6.1546 22.7181 5.84937 22.7813 5.55757C22.9172 4.93367 23.216 4.38847 23.6717 3.93542C23.7273 3.87975 23.7866 3.77225 23.8709 3.81832C23.9686 3.87207 23.9149 3.98917 23.8996 4.07556C23.8422 4.39615 23.7196 4.69563 23.5645 4.97974C23.3041 5.45199 23.0206 5.9108 22.8828 6.44831Z" fill="white"/>
<path d="M31.4619 14.9603C32.113 15.2501 32.8752 16.4692 32.8311 17.0969C32.8235 17.1967 32.835 17.3311 32.7201 17.3676C32.6052 17.4021 32.5764 17.2697 32.5305 17.1967C32.1398 16.5536 31.8545 15.8587 31.5309 15.183C31.506 15.1254 31.4945 15.0658 31.4619 14.9603Z" fill="white"/>
<path d="M82.7223 58.5376C83.4232 58.7833 83.9709 59.2018 84.2333 59.9351C84.2601 60.0081 84.3213 60.1022 84.2447 60.1674C84.1624 60.2346 84.0896 60.1444 84.0245 60.1041C83.6837 59.8929 83.4271 59.5915 83.1858 59.2767C83.0115 59.0502 82.8334 58.8256 82.6572 58.599C82.6783 58.5798 82.6994 58.5587 82.7223 58.5376Z" fill="white"/>
<path d="M38.9766 72.2078C39.6947 72.2231 40.3458 72.4113 40.8705 72.9257C40.9279 72.9814 41.016 73.0428 40.9796 73.1331C40.9375 73.2367 40.8322 73.1791 40.7575 73.1715C40.0375 73.0928 39.5051 72.6589 38.9766 72.2078Z" fill="white"/>
<path d="M50.4951 60.8144C50.2653 60.824 50.0394 60.7856 49.8172 60.7299C49.7655 60.7165 49.7157 60.6896 49.7119 60.6301C49.7062 60.5667 49.754 60.536 49.8076 60.5283C50.3975 60.4247 50.9739 60.2193 51.5848 60.2576C51.6767 60.2634 51.828 60.2327 51.8471 60.3613C51.8663 60.4784 51.7245 60.513 51.6384 60.561C51.2822 60.7587 50.8915 60.8028 50.4951 60.8144Z" fill="white"/>
<path d="M88.946 64.0394C88.8962 64.0471 88.8464 64.0529 88.7985 64.0606C88.4826 63.1794 88.5898 62.3847 88.8024 61.8951C89.1413 62.3252 89.2122 63.3752 88.946 64.0394Z" fill="white"/>
<path d="M28.6487 10.9116C28.0244 11.4933 27.3312 11.7735 26.5269 11.8676C26.7318 11.4107 27.9957 10.8367 28.6487 10.9116Z" fill="white"/>
<path d="M40.043 57.1016C40.2345 57.0804 40.3628 57.1553 40.4911 57.211C40.8434 57.3646 41.192 57.5239 41.5405 57.6871C41.5941 57.712 41.6669 57.7427 41.663 57.8138C41.6573 57.904 41.573 57.9174 41.5041 57.9328C41.1766 58.0115 40.8894 57.9174 40.6232 57.7312C40.3896 57.5719 40.2038 57.3722 40.043 57.1016Z" fill="white"/>
</svg>
