<svg width="80" height="64" viewBox="0 0 80 64" fill="none" xmlns="http://www.w3.org/2000/svg">
<path opacity="0.6" d="M54.8936 64C53.1915 64 51.2057 63.4311 48.9362 62.2933C46.6667 61.1556 44.3972 60.3022 42.1277 59.7333C41.2766 59.7333 40.8511 58.88 40.8511 57.1733C40.8511 54.6133 41.844 50.9156 43.8298 46.08C45.8156 40.96 48.227 35.5556 51.0638 29.8667C53.9007 24.1778 56.8794 19.0578 60 14.5067C63.1206 9.67112 65.8156 6.40001 68.0851 4.69335C72.3404 1.56445 75.7447 0 78.2979 0C79.4326 0 80 0.426672 80 1.28001C80 2.70223 79.2908 4.12445 77.8723 5.54668C75.6028 8.39112 73.3333 12.9422 71.0638 19.2C69.078 25.4578 67.0922 32.1422 65.1064 39.2533C63.1206 46.08 61.2766 51.9111 59.5745 56.7467C57.8723 61.5822 56.312 64 54.8936 64ZM14.0426 64C12.3404 64 10.3546 63.4311 8.0851 62.2933C5.8156 61.1556 3.5461 60.3022 1.2766 59.7333C0.425533 59.7333 0 58.88 0 57.1733C0 54.6133 0.992907 50.9156 2.97872 46.08C4.96454 40.96 7.37589 35.5556 10.2128 29.8667C13.0496 24.1778 16.0284 19.0578 19.1489 14.5067C22.2695 9.67112 24.9645 6.40001 27.234 4.69335C31.4894 1.56445 34.8936 0 37.4468 0C38.5816 0 39.1489 0.426672 39.1489 1.28001C39.1489 2.70223 38.4397 4.12445 37.0213 5.54668C34.7518 8.39112 32.4823 12.9422 30.2128 19.2C28.2269 25.4578 26.2411 32.1422 24.2553 39.2533C22.2695 46.08 20.4255 51.9111 18.7234 56.7467C17.0213 61.5822 15.461 64 14.0426 64Z" fill="white"/>
</svg>
