<svg width="411" height="796" viewBox="0 0 411 796" fill="none" xmlns="http://www.w3.org/2000/svg">
<path fill-rule="evenodd" clip-rule="evenodd" d="M86.0409 397.262C90.5978 406.206 99.596 412.031 109.646 412.543L217.391 418.034C227.441 418.546 237.016 413.668 242.509 405.236L301.398 314.841C306.891 306.409 307.467 295.705 302.91 286.762L254.053 190.875C249.496 181.931 240.498 176.106 230.448 175.593L122.702 170.102C112.652 169.59 103.078 174.469 97.5847 182.9L38.6959 273.296C33.2031 281.728 32.6267 292.431 37.1839 301.375L86.0409 397.262Z" fill="#222423"/>
<path fill-rule="evenodd" clip-rule="evenodd" d="M357.733 623.285C364.556 636.676 378.013 645.406 393.035 646.186L554.082 654.55C569.103 655.33 583.407 648.042 591.605 635.431L679.5 500.225C687.698 487.614 688.545 471.595 681.722 458.204L608.569 314.634C601.746 301.242 588.29 292.513 573.268 291.732L412.221 283.368C397.199 282.589 382.895 289.877 374.697 302.488L286.802 437.694C278.604 450.305 277.757 466.323 284.58 479.715L357.733 623.285Z" fill="#222423"/>
<path fill-rule="evenodd" clip-rule="evenodd" d="M275.148 302.091C274.928 306.285 276.969 310.279 280.501 312.567L318.373 337.101C321.906 339.389 326.393 339.624 330.145 337.718L370.374 317.277C374.126 315.371 376.573 311.612 376.793 307.418L379.15 262.444C379.37 258.249 377.329 254.255 373.797 251.967L335.925 227.434C332.393 225.145 327.905 224.91 324.153 226.817L283.924 247.257C280.172 249.164 277.725 252.922 277.505 257.117L275.148 302.091Z" fill="url(#paint0_linear_17_26)"/>
<defs>
<linearGradient id="paint0_linear_17_26" x1="264.587" y1="278.525" x2="339.666" y2="370.491" gradientUnits="userSpaceOnUse">
<stop stop-color="#CF8A23"/>
<stop offset="1" stop-color="#E0C76D"/>
</linearGradient>
</defs>
</svg>
