<svg width="1920" height="982" viewBox="0 0 1920 982" fill="none" xmlns="http://www.w3.org/2000/svg">
<path fill-rule="evenodd" clip-rule="evenodd" d="M-17.0002 888.908C167.666 908.875 685.629 938.625 1019 867.344C1447 775.831 1867 797.461 1951 855.697V550.327C1984.84 554.119 2015.6 557.41 2042.07 560.114L1960 78C1936 67.1355 1888 62.0237 1654 78C1569.54 83.7662 1493.82 65.8938 1409 45.8733C1278.89 15.1643 1127.37 -20.5986 890.071 16.1406C587.419 62.9986 452.227 57.3101 295.867 50.7308H295.866C249.707 48.7885 201.702 46.7685 147 46C46.9109 44.5939 -27.3423 39.0511 -77.7636 35.2874H-77.7641C-124.066 31.8312 -150.27 29.8752 -157.929 34C-178.596 130.656 -186.729 371.072 -157.929 401.642C-148.448 411.707 -116.354 418.886 -71.0001 424.496V672.174L-57.0001 678.917C-48.9522 679.505 -40.2713 680.054 -31.0002 680.562V878.925L-17.0002 888.908Z" fill="#E9E4DC"/>
<path d="M2000.07 899.339C1914.9 835.713 1472.84 787.456 1015.54 851.972C659.343 902.225 111.956 879.682 -81.7825 847.996L-95.9615 837.114" stroke="#B69970" stroke-width="2"/>
<path fill-rule="evenodd" clip-rule="evenodd" d="M1980.5 94.461C1934.2 111.176 1863.81 126.751 1754.85 118.39C1697.7 114.004 1636.2 104.689 1569.64 93.854C1556.68 91.7434 1543.52 89.5753 1530.17 87.3747C1474.98 78.2793 1416.44 68.6309 1354.2 60.2143C1199.6 39.3075 1022.16 25.9972 816.507 47.618C442.218 86.9683 336.519 86.0628 130.619 84.2989C110.331 84.1251 89.0704 83.943 66.4844 83.7902C-34.254 83.1087 -105.61 85.699 -153.883 89.2146C-178.019 90.9724 -196.388 92.9617 -209.775 94.8898C-223.151 96.8162 -231.584 98.6854 -235.829 100.212L-235.49 101.153C-231.349 99.6634 -223.003 97.8052 -209.633 95.8796C-196.275 93.9558 -177.93 91.9686 -153.81 90.2119C-105.57 86.6987 -34.2422 84.1088 66.4777 84.7902C89.0609 84.9429 110.319 85.125 130.605 85.2988C336.535 87.0628 442.268 87.9686 816.611 48.6125C1022.16 27.0028 1199.51 40.305 1354.07 61.2052C1416.29 69.6197 1474.82 79.2652 1530 88.3605C1543.36 90.5613 1556.52 92.7299 1569.48 94.841C1636.04 105.676 1697.58 114.998 1754.77 119.387C1863.87 127.759 1934.41 112.166 1980.84 95.4016C2000.64 88.2502 2016.06 80.8864 2028.18 75.0936C2030.27 74.0984 2032.25 73.1496 2034.15 72.2562C2040.62 69.2061 2046 66.8117 2050.54 65.4106C2055.09 64.0081 2058.73 63.6247 2061.74 64.5187L2062.02 63.5601C2058.73 62.5822 2054.87 63.0318 2050.25 64.455C2045.63 65.8796 2040.19 68.3034 2033.72 71.3517C2031.82 72.2475 2029.83 73.1981 2027.75 74.1944C2015.62 79.9868 2000.25 87.3281 1980.5 94.461Z" fill="#E9E4DC"/>
<path d="M1754.85 118.39L1754.89 117.891L1754.85 118.39ZM1980.5 94.461L1980.67 94.9313L1980.5 94.461ZM1569.64 93.854L1569.56 94.3475L1569.64 93.854ZM1530.17 87.3747L1530.25 86.8814L1530.17 87.3747ZM1354.2 60.2143L1354.27 59.7188L1354.2 60.2143ZM816.507 47.618L816.559 48.1152L816.507 47.618ZM130.619 84.2989L130.614 84.7989L130.619 84.2989ZM66.4844 83.7902L66.481 84.2902L66.4844 83.7902ZM-153.883 89.2146L-153.919 88.7159L-153.883 89.2146ZM-209.775 94.8898L-209.847 94.3949L-209.775 94.8898ZM-235.829 100.212L-236.299 100.381L-236.468 99.9105L-235.998 99.7413L-235.829 100.212ZM-235.49 101.153L-235.321 101.623L-235.792 101.793L-235.961 101.322L-235.49 101.153ZM-209.633 95.8796L-209.704 95.3847L-209.633 95.8796ZM-153.81 90.2119L-153.846 89.7133L-153.81 90.2119ZM66.4777 84.7902L66.4743 85.2901L66.4777 84.7902ZM130.605 85.2988L130.609 84.7988L130.605 85.2988ZM816.611 48.6125L816.559 48.1152L816.611 48.6125ZM1354.07 61.2052L1354.13 60.7097L1354.07 61.2052ZM1530 88.3605L1530.09 87.8671L1530 88.3605ZM1569.48 94.841L1569.4 95.3345L1569.48 94.841ZM1754.77 119.387L1754.73 119.885L1754.77 119.387ZM1980.84 95.4016L1981.01 95.8719L1980.84 95.4016ZM2028.18 75.0936L2027.97 74.6424L2027.97 74.6424L2028.18 75.0936ZM2034.15 72.2562L2033.93 71.804L2033.93 71.804L2034.15 72.2562ZM2050.54 65.4106L2050.69 65.8884L2050.69 65.8884L2050.54 65.4106ZM2061.74 64.5187L2062.22 64.6611L2062.08 65.1404L2061.6 64.998L2061.74 64.5187ZM2062.02 63.5601L2062.17 63.0808L2062.65 63.2232L2062.5 63.7025L2062.02 63.5601ZM2050.25 64.455L2050.4 64.9328L2050.25 64.455ZM2033.72 71.3517L2033.93 71.804L2033.72 71.3517ZM2027.75 74.1944L2027.96 74.6456L2027.96 74.6456L2027.75 74.1944ZM1754.89 117.891C1863.78 126.248 1934.1 110.682 1980.33 93.9907L1980.67 94.9313C1934.31 111.671 1863.84 127.255 1754.81 118.888L1754.89 117.891ZM1569.72 93.3605C1636.28 104.195 1697.77 113.508 1754.89 117.891L1754.81 118.888C1697.64 114.501 1636.12 105.182 1569.56 94.3475L1569.72 93.3605ZM1530.25 86.8814C1543.61 89.0819 1556.76 91.25 1569.72 93.3605L1569.56 94.3475C1556.6 92.2369 1543.44 90.0686 1530.09 87.8681L1530.25 86.8814ZM1354.27 59.7188C1416.52 68.1365 1475.07 77.7861 1530.25 86.8814L1530.09 87.8681C1474.9 78.7725 1416.37 69.1253 1354.13 60.7097L1354.27 59.7188ZM816.454 47.1207C1022.16 25.4944 1199.64 38.8088 1354.27 59.7188L1354.13 60.7097C1199.55 39.8062 1022.16 26.5 816.559 48.1152L816.454 47.1207ZM130.623 83.7989C336.507 85.5627 442.186 86.4689 816.454 47.1207L816.559 48.1152C442.25 87.4678 336.532 86.563 130.614 84.7989L130.623 83.7989ZM66.4878 83.2902C89.0743 83.443 110.335 83.6251 130.623 83.7989L130.614 84.7989C110.327 84.6251 89.0665 84.4429 66.481 84.2902L66.4878 83.2902ZM-153.919 88.7159C-105.629 85.1991 -34.26 82.6087 66.4878 83.2902L66.481 84.2902C-34.2481 83.6088 -105.59 86.1989 -153.846 89.7133L-153.919 88.7159ZM-209.847 94.3949C-196.444 92.4647 -178.063 90.4743 -153.919 88.7159L-153.846 89.7133C-177.974 91.4705 -196.331 93.4588 -209.704 95.3847L-209.847 94.3949ZM-235.998 99.7413C-231.702 98.1964 -223.226 96.3218 -209.847 94.3949L-209.704 95.3847C-223.077 97.3107 -231.466 99.1744 -235.659 100.682L-235.998 99.7413ZM-235.961 101.322L-236.299 100.381L-235.358 100.043L-235.02 100.984L-235.961 101.322ZM-209.562 96.3745C-222.929 98.2996 -231.231 100.152 -235.321 101.623L-235.659 100.682C-231.466 99.1744 -223.077 97.3107 -209.704 95.3847L-209.562 96.3745ZM-153.774 90.7106C-177.886 92.4666 -196.218 94.4528 -209.562 96.3745L-209.704 95.3847C-196.331 93.4588 -177.974 91.4705 -153.846 89.7133L-153.774 90.7106ZM66.4743 85.2901C-34.2362 84.6089 -105.551 87.1986 -153.774 90.7106L-153.846 89.7133C-105.59 86.1989 -34.2481 83.6088 66.481 84.2902L66.4743 85.2901ZM130.601 85.7988C110.315 85.625 89.057 85.4429 66.4743 85.2901L66.481 84.2902C89.0647 84.4429 110.324 84.625 130.609 84.7988L130.601 85.7988ZM816.664 49.1097C442.3 88.468 336.547 87.563 130.601 85.7988L130.609 84.7988C336.522 86.5627 442.237 87.4691 816.559 48.1152L816.664 49.1097ZM1354 61.7007C1199.47 40.8037 1022.16 27.5056 816.664 49.1097L816.559 48.1152C1022.16 26.5 1199.55 39.8062 1354.13 60.7097L1354 61.7007ZM1529.92 88.8538C1474.73 79.7584 1416.22 70.1141 1354 61.7007L1354.13 60.7097C1416.37 69.1254 1474.9 78.772 1530.09 87.8671L1529.92 88.8538ZM1569.4 95.3345C1556.43 93.2233 1543.28 91.0546 1529.92 88.8538L1530.09 87.8671C1543.44 90.0679 1556.6 92.2364 1569.56 94.3475L1569.4 95.3345ZM1754.73 119.885C1697.52 115.495 1635.96 106.169 1569.4 95.3345L1569.56 94.3475C1636.12 105.182 1697.64 114.501 1754.81 118.888L1754.73 119.885ZM1981.01 95.8719C1934.51 112.661 1863.9 128.263 1754.73 119.885L1754.81 118.888C1863.84 127.255 1934.31 111.671 1980.67 94.9313L1981.01 95.8719ZM2028.4 75.5448C2016.27 81.3381 2000.84 88.7114 1981.01 95.8719L1980.67 94.9313C2000.45 87.7891 2015.84 80.4347 2027.97 74.6424L2028.4 75.5448ZM2034.36 72.7085C2032.47 73.6012 2030.48 74.5495 2028.4 75.5448L2027.97 74.6424C2030.05 73.6474 2032.04 72.698 2033.93 71.804L2034.36 72.7085ZM2050.69 65.8884C2046.18 67.2777 2040.83 69.6575 2034.36 72.7085L2033.93 71.804C2040.4 68.7547 2045.81 66.3456 2050.4 64.9328L2050.69 65.8884ZM2061.6 64.998C2058.73 64.146 2055.21 64.4963 2050.69 65.8884L2050.4 64.9328C2054.98 63.52 2058.73 63.1035 2061.88 64.0394L2061.6 64.998ZM2062.5 63.7025L2062.22 64.6611L2061.26 64.3764L2061.55 63.4178L2062.5 63.7025ZM2050.1 63.9772C2054.75 62.5437 2058.73 62.061 2062.17 63.0808L2061.88 64.0394C2058.73 63.1035 2054.98 63.52 2050.4 64.9328L2050.1 63.9772ZM2033.51 70.8995C2039.97 67.852 2045.44 65.4135 2050.1 63.9772L2050.4 64.9328C2045.81 66.3456 2040.4 68.7547 2033.93 71.804L2033.51 70.8995ZM2027.53 73.7433C2029.62 72.747 2031.61 71.7959 2033.51 70.8995L2033.93 71.804C2032.04 72.6991 2030.05 73.6491 2027.96 74.6456L2027.53 73.7433ZM1980.33 93.9907C2000.06 86.8669 2015.41 79.5351 2027.53 73.7433L2027.96 74.6456C2015.83 80.4385 2000.45 87.7892 1980.67 94.9313L1980.33 93.9907Z" fill="#B69970"/>
</svg>
