<svg width="741" height="1188" viewBox="0 0 741 1188" fill="none" xmlns="http://www.w3.org/2000/svg">
<path d="M551.932 1184.89C-62.2774 1112.48 290.606 752.2 336.314 543.922C422.309 152.067 153.526 176.248 14.7909 224.917C-37.4859 238.647 -133.323 218.194 -98.4559 26.5358" stroke="url(#paint0_linear_698_11072)"/>
<path d="M540.63 1182.76C-73.5786 1110.36 279.305 750.072 325.013 541.794C411.008 149.939 142.225 174.12 3.48959 222.789C-48.7872 236.519 -144.624 216.066 -109.757 24.4079" stroke="url(#paint1_linear_698_11072)"/>
<path d="M529.329 1180.63C-84.8804 1108.23 268.003 747.944 313.711 539.666C399.706 147.811 130.923 171.992 -7.81217 220.661C-60.089 234.391 -155.926 213.938 -121.059 22.2799" stroke="url(#paint2_linear_698_11072)"/>
<path d="M518.027 1178.51C-96.1817 1106.1 256.702 745.816 302.41 537.538C388.405 145.683 119.622 169.864 -19.1134 218.533C-71.3902 232.263 -167.227 211.81 -132.36 20.1518" stroke="url(#paint3_linear_698_11072)"/>
<path d="M506.726 1176.38C-107.483 1103.97 245.401 743.688 291.109 535.41C377.103 143.555 108.32 167.736 -30.4147 216.405C-82.6915 230.135 -178.528 209.682 -143.661 18.0238" stroke="url(#paint4_linear_698_11072)"/>
<path d="M495.425 1174.25C-118.784 1101.84 234.1 741.56 279.807 533.282C365.802 141.427 97.019 165.608 -41.716 214.277C-93.9928 228.007 -189.83 207.554 -154.963 15.8959" stroke="url(#paint5_linear_698_11072)"/>
<path d="M484.123 1172.12C-130.086 1099.72 222.798 739.432 268.506 531.154C354.5 139.299 85.7172 163.48 -53.0177 212.149C-105.295 225.879 -201.131 205.426 -166.264 13.768" stroke="url(#paint6_linear_698_11072)"/>
<path d="M472.822 1169.99C-141.387 1097.59 211.497 737.304 257.204 529.026C343.199 137.171 74.416 161.352 -64.319 210.021C-116.596 223.751 -212.433 203.298 -177.566 11.6398" stroke="url(#paint7_linear_698_11072)"/>
<path d="M461.521 1167.87C-152.689 1095.46 200.195 735.176 245.903 526.898C331.898 135.043 63.1147 159.224 -75.6203 207.893C-127.897 221.623 -223.734 201.17 -188.867 9.51187" stroke="url(#paint8_linear_698_11072)"/>
<path d="M450.219 1165.74C-163.99 1093.33 188.894 733.048 234.602 524.77C320.596 132.915 51.8134 157.096 -86.9215 205.765C-139.198 219.495 -235.035 199.042 -200.168 7.38394" stroke="url(#paint9_linear_698_11072)"/>
<path d="M438.918 1163.61C-175.292 1091.2 177.592 730.92 223.3 522.642C309.295 130.787 40.5117 154.968 -98.2233 203.637C-150.5 217.367 -246.337 196.914 -211.47 5.25601" stroke="url(#paint10_linear_698_11072)"/>
<path d="M427.616 1161.48C-186.593 1089.08 166.291 728.792 211.999 520.514C297.993 128.659 29.2104 152.84 -109.525 201.509C-161.801 215.24 -257.638 194.786 -222.771 3.12808" stroke="url(#paint11_linear_698_11072)"/>
<path d="M416.315 1159.35C-197.894 1086.95 154.99 726.664 200.697 518.386C286.692 126.531 17.9091 150.712 -120.826 199.381C-173.103 213.111 -268.94 192.658 -234.073 0.999906" stroke="url(#paint12_linear_698_11072)"/>
<defs>
<linearGradient id="paint0_linear_698_11072" x1="-42.9514" y1="215.424" x2="-249.714" y2="865.146" gradientUnits="userSpaceOnUse">
<stop stop-color="#0C6F97" stop-opacity="0.03"/>
<stop offset="0.25" stop-color="#0C6F97" stop-opacity="0.15"/>
<stop offset="0.544311" stop-color="#0C6F97" stop-opacity="0.03"/>
<stop offset="1" stop-color="#0C6F97" stop-opacity="0.04"/>
</linearGradient>
<linearGradient id="paint1_linear_698_11072" x1="-54.2526" y1="213.296" x2="-261.016" y2="863.018" gradientUnits="userSpaceOnUse">
<stop stop-color="#0C6F97" stop-opacity="0.03"/>
<stop offset="0.25" stop-color="#0C6F97" stop-opacity="0.15"/>
<stop offset="0.544311" stop-color="#0C6F97" stop-opacity="0.03"/>
<stop offset="1" stop-color="#0C6F97" stop-opacity="0.04"/>
</linearGradient>
<linearGradient id="paint2_linear_698_11072" x1="-65.5544" y1="211.168" x2="-272.317" y2="860.89" gradientUnits="userSpaceOnUse">
<stop stop-color="#0C6F97" stop-opacity="0.03"/>
<stop offset="0.25" stop-color="#0C6F97" stop-opacity="0.15"/>
<stop offset="0.544311" stop-color="#0C6F97" stop-opacity="0.03"/>
<stop offset="1" stop-color="#0C6F97" stop-opacity="0.04"/>
</linearGradient>
<linearGradient id="paint3_linear_698_11072" x1="-76.8557" y1="209.04" x2="-283.619" y2="858.762" gradientUnits="userSpaceOnUse">
<stop stop-color="#0C6F97" stop-opacity="0.03"/>
<stop offset="0.25" stop-color="#0C6F97" stop-opacity="0.15"/>
<stop offset="0.544311" stop-color="#0C6F97" stop-opacity="0.03"/>
<stop offset="1" stop-color="#0C6F97" stop-opacity="0.04"/>
</linearGradient>
<linearGradient id="paint4_linear_698_11072" x1="-88.1569" y1="206.912" x2="-294.92" y2="856.634" gradientUnits="userSpaceOnUse">
<stop stop-color="#0C6F97" stop-opacity="0.03"/>
<stop offset="0.25" stop-color="#0C6F97" stop-opacity="0.15"/>
<stop offset="0.544311" stop-color="#0C6F97" stop-opacity="0.03"/>
<stop offset="1" stop-color="#0C6F97" stop-opacity="0.04"/>
</linearGradient>
<linearGradient id="paint5_linear_698_11072" x1="-99.4582" y1="204.784" x2="-306.221" y2="854.506" gradientUnits="userSpaceOnUse">
<stop stop-color="#0C6F97" stop-opacity="0.03"/>
<stop offset="0.25" stop-color="#0C6F97" stop-opacity="0.15"/>
<stop offset="0.544311" stop-color="#0C6F97" stop-opacity="0.03"/>
<stop offset="1" stop-color="#0C6F97" stop-opacity="0.04"/>
</linearGradient>
<linearGradient id="paint6_linear_698_11072" x1="-110.76" y1="202.656" x2="-317.523" y2="852.378" gradientUnits="userSpaceOnUse">
<stop stop-color="#0C6F97" stop-opacity="0.03"/>
<stop offset="0.25" stop-color="#0C6F97" stop-opacity="0.15"/>
<stop offset="0.544311" stop-color="#0C6F97" stop-opacity="0.03"/>
<stop offset="1" stop-color="#0C6F97" stop-opacity="0.04"/>
</linearGradient>
<linearGradient id="paint7_linear_698_11072" x1="-122.061" y1="200.528" x2="-328.824" y2="850.25" gradientUnits="userSpaceOnUse">
<stop stop-color="#0C6F97" stop-opacity="0.03"/>
<stop offset="0.25" stop-color="#0C6F97" stop-opacity="0.15"/>
<stop offset="0.544311" stop-color="#0C6F97" stop-opacity="0.03"/>
<stop offset="1" stop-color="#0C6F97" stop-opacity="0.04"/>
</linearGradient>
<linearGradient id="paint8_linear_698_11072" x1="-133.363" y1="198.4" x2="-340.126" y2="848.122" gradientUnits="userSpaceOnUse">
<stop stop-color="#0C6F97" stop-opacity="0.03"/>
<stop offset="0.25" stop-color="#0C6F97" stop-opacity="0.15"/>
<stop offset="0.544311" stop-color="#0C6F97" stop-opacity="0.03"/>
<stop offset="1" stop-color="#0C6F97" stop-opacity="0.04"/>
</linearGradient>
<linearGradient id="paint9_linear_698_11072" x1="-144.664" y1="196.272" x2="-351.427" y2="845.994" gradientUnits="userSpaceOnUse">
<stop stop-color="#0C6F97" stop-opacity="0.03"/>
<stop offset="0.25" stop-color="#0C6F97" stop-opacity="0.15"/>
<stop offset="0.544311" stop-color="#0C6F97" stop-opacity="0.03"/>
<stop offset="1" stop-color="#0C6F97" stop-opacity="0.04"/>
</linearGradient>
<linearGradient id="paint10_linear_698_11072" x1="-155.966" y1="194.144" x2="-362.729" y2="843.866" gradientUnits="userSpaceOnUse">
<stop stop-color="#0C6F97" stop-opacity="0.03"/>
<stop offset="0.25" stop-color="#0C6F97" stop-opacity="0.15"/>
<stop offset="0.544311" stop-color="#0C6F97" stop-opacity="0.03"/>
<stop offset="1" stop-color="#0C6F97" stop-opacity="0.04"/>
</linearGradient>
<linearGradient id="paint11_linear_698_11072" x1="-167.267" y1="192.016" x2="-374.03" y2="841.738" gradientUnits="userSpaceOnUse">
<stop stop-color="#0C6F97" stop-opacity="0.03"/>
<stop offset="0.25" stop-color="#0C6F97" stop-opacity="0.15"/>
<stop offset="0.544311" stop-color="#0C6F97" stop-opacity="0.03"/>
<stop offset="1" stop-color="#0C6F97" stop-opacity="0.04"/>
</linearGradient>
<linearGradient id="paint12_linear_698_11072" x1="-178.568" y1="189.888" x2="-385.331" y2="839.61" gradientUnits="userSpaceOnUse">
<stop stop-color="#0C6F97" stop-opacity="0.03"/>
<stop offset="0.25" stop-color="#0C6F97" stop-opacity="0.15"/>
<stop offset="0.544311" stop-color="#0C6F97" stop-opacity="0.03"/>
<stop offset="1" stop-color="#0C6F97" stop-opacity="0.04"/>
</linearGradient>
</defs>
</svg>
