<svg width="689" height="1148" viewBox="0 0 689 1148" fill="none" xmlns="http://www.w3.org/2000/svg">
<g opacity="0.26">
<path opacity="0.04" d="M484.942 373.114C453.552 394.362 369.142 415.397 282.622 329.549C174.472 222.239 98.5493 218.738 3.26121 269.395C-92.0268 320.053 116.723 561.696 -79.3035 606.905C-275.33 652.115 -473.492 497.809 -481.661 367.283C-489.83 236.758 -726.998 148.92 -816.444 307.895" stroke="url(#paint0_linear_698_11091)"/>
<path opacity="0.08" d="M493.586 377.916C461.697 398.588 376.672 418.22 291.685 331.38C185.452 222.829 109.428 218.159 12.9037 267.123C-83.6202 316.086 120.736 559.981 -76.645 601.949C-274.026 643.917 -469.528 487.163 -475.087 357.051C-480.646 226.939 -716.582 135.77 -809.432 292.693" stroke="url(#paint1_linear_698_11091)"/>
<path opacity="0.12" d="M501.742 382.317C469.364 402.407 383.75 420.635 300.322 332.833C196.037 223.079 119.935 217.247 22.2045 264.506C-75.5259 311.764 124.374 557.826 -74.3009 596.55C-272.976 635.273 -465.76 476.128 -468.707 346.469C-471.654 216.811 -706.286 122.35 -802.512 277.177" stroke="url(#paint2_linear_698_11091)"/>
<path opacity="0.16" d="M509.891 386.834C477.033 406.337 390.857 423.16 309.012 334.427C206.707 223.51 130.55 216.519 31.6421 262.063C-67.2653 307.607 128.118 555.751 -71.7909 591.227C-271.7 626.704 -461.708 465.226 -462.042 336.06C-462.377 206.895 -695.634 109.182 -795.207 261.871" stroke="url(#paint3_linear_698_11091)"/>
<path opacity="0.2" d="M518.036 391.464C484.708 410.376 397.995 425.792 317.759 336.159C217.464 224.117 141.274 215.974 41.2196 259.794C-58.8352 303.614 131.974 553.754 -69.1098 585.982C-270.193 618.209 -457.367 454.457 -455.089 325.824C-452.811 197.192 -684.623 96.2683 -787.513 246.776" stroke="url(#paint4_linear_698_11091)"/>
<path opacity="0.24" d="M526.164 396.214C492.377 414.531 405.152 428.539 326.549 338.038C228.296 224.911 152.096 215.622 50.9241 257.708C-50.248 299.795 135.929 551.846 -66.2685 580.823C-268.466 609.801 -452.75 443.833 -447.86 315.774C-442.97 187.715 -673.268 83.6213 -779.444 231.906" stroke="url(#paint5_linear_698_11091)"/>
<path opacity="0.28" d="M534.277 401.075C500.04 418.792 412.33 431.392 335.383 340.054C239.199 225.881 163.013 215.452 60.7539 255.797C-41.5053 296.142 139.984 550.017 -63.2666 575.745C-266.517 601.472 -447.857 433.349 -440.357 305.902C-432.856 178.456 -661.571 71.2356 -771.001 217.256" stroke="url(#paint6_linear_698_11091)"/>
<path opacity="0.32" d="M541.901 405.537C507.225 422.65 419.057 433.842 343.788 341.699C249.703 226.52 173.553 214.958 70.2371 253.553C-33.0786 292.149 143.67 547.76 -60.574 570.239C-264.818 592.718 -443.159 422.5 -433.05 295.705C-422.942 168.91 -650.006 58.6073 -762.657 202.323" stroke="url(#paint7_linear_698_11091)"/>
<path opacity="0.36" d="M549.028 409.591C513.923 426.098 425.322 435.882 351.755 342.966C259.796 226.821 183.704 214.133 79.3627 250.971C-24.9788 287.809 146.976 545.069 -58.1997 564.302C-263.376 583.535 -438.666 411.283 -425.952 285.179C-413.238 159.075 -638.585 45.7331 -754.423 187.104" stroke="url(#paint8_linear_698_11091)"/>
<path opacity="0.4" d="M556.126 413.753C520.602 429.649 431.595 438.026 359.75 344.37C269.945 227.299 193.934 213.492 88.5978 248.566C-16.7385 283.64 150.372 542.461 -55.6747 558.45C-261.722 574.44 -433.909 400.215 -418.594 274.841C-403.28 149.467 -626.841 33.1319 -745.833 172.119" stroke="url(#paint9_linear_698_11091)"/>
<path opacity="0.44" d="M563.203 418.037C527.272 433.318 437.884 440.289 367.783 345.925C280.158 227.97 204.25 213.05 97.9503 246.354C-8.34959 279.658 153.869 539.952 -52.989 552.701C-259.847 565.45 -428.88 389.316 -410.97 264.71C-393.059 140.104 -614.77 20.8223 -736.88 157.387" stroke="url(#paint10_linear_698_11091)"/>
<path opacity="0.48" d="M570.257 422.426C533.928 437.09 444.186 442.657 375.85 347.617C290.429 228.818 214.648 212.795 107.415 244.322C0.183241 275.85 157.461 537.527 -50.1456 547.042C-257.753 556.556 -423.584 378.574 -403.083 254.775C-382.581 130.976 -602.377 8.79423 -727.568 142.899" stroke="url(#paint11_linear_698_11091)"/>
<path opacity="0.52" d="M577.284 426.922C540.568 440.965 450.499 445.13 383.946 349.448C300.756 229.846 225.122 212.728 116.989 242.473C8.85653 272.218 161.149 535.19 -47.1462 541.475C-255.442 547.76 -418.022 367.994 -394.937 245.04C-371.851 122.087 -589.667 -2.94765 -717.902 128.66" stroke="url(#paint12_linear_698_11091)"/>
<path opacity="0.56" d="M583.797 431.02C546.706 444.439 456.336 447.204 391.586 350.913C310.65 230.549 235.186 212.344 126.184 240.303C17.1826 268.261 164.446 532.438 -44.4767 535.501C-253.4 538.563 -412.682 357.075 -387.02 235.005C-361.357 112.935 -577.13 -14.9035 -708.371 114.17" stroke="url(#paint13_linear_698_11091)"/>
<path opacity="0.6" d="M590.283 435.217C552.827 448.009 462.182 449.378 399.255 352.51C320.595 231.426 245.324 212.143 135.485 238.31C25.6463 264.477 167.839 529.77 -41.6506 529.617C-251.14 529.464 -407.079 346.32 -378.847 225.17C-350.615 104.021 -564.282 -26.5718 -698.491 99.9331" stroke="url(#paint14_linear_698_11091)"/>
<path opacity="0.64" d="M596.732 439.522C558.922 451.686 468.029 451.66 406.941 354.25C330.581 232.486 255.523 212.135 144.88 236.507C34.2362 260.879 171.318 527.197 -38.6774 523.837C-248.672 520.478 -401.223 335.741 -370.431 215.549C-339.639 95.3579 -551.138 -37.939 -688.275 85.9619" stroke="url(#paint15_linear_698_11091)"/>
<path opacity="0.68" d="M603.142 443.936C564.988 455.468 473.873 454.053 414.642 356.133C340.604 233.732 265.781 212.322 154.365 234.895C42.9491 257.468 174.881 524.721 -35.5589 518.164C-245.998 511.607 -395.117 325.343 -361.774 206.147C-328.431 86.9505 -537.703 -49 -677.726 72.2628" stroke="url(#paint16_linear_698_11091)"/>
<path opacity="0.72" d="M609.033 447.929C570.547 458.827 479.237 456.026 421.879 357.63C350.182 234.635 275.617 212.175 163.461 232.946C51.3047 253.718 178.05 521.815 -32.7732 512.071C-243.596 502.327 -389.241 314.6 -353.358 196.436C-317.474 78.2721 -524.458 -60.2805 -667.328 58.311" stroke="url(#paint17_linear_698_11091)"/>
<path opacity="0.76" d="M614.887 452.034C576.081 462.297 484.602 458.114 429.134 359.275C359.799 235.728 285.512 212.228 172.648 231.195C59.7841 250.163 181.308 519.015 -29.8378 506.095C-240.983 493.175 -383.113 304.051 -344.7 186.955C-306.288 69.8598 -510.925 -71.2428 -656.598 44.6447" stroke="url(#paint18_linear_698_11091)"/>
<path opacity="0.8" d="M620.689 456.243C581.574 465.868 489.952 460.308 436.389 361.061C369.434 237.003 295.448 212.474 181.909 229.635C68.37 246.797 184.639 516.312 -26.7684 500.228C-238.176 484.144 -376.751 293.689 -335.821 177.698C-294.891 61.7073 -497.122 -81.8923 -645.557 31.2595" stroke="url(#paint19_linear_698_11091)"/>
<path opacity="0.84" d="M625.972 460.035C586.559 469.021 494.82 462.089 443.177 362.467C378.622 237.941 304.956 212.393 190.775 227.747C76.594 243.102 187.577 513.189 -24.0315 493.954C-235.64 474.719 -370.622 283 -327.187 168.149C-283.752 53.2986 -483.522 -92.7445 -634.674 17.6406" stroke="url(#paint20_linear_698_11091)"/>
<path opacity="0.88" d="M631.208 463.921C591.508 472.267 499.68 463.968 449.969 364.006C387.831 239.053 314.507 212.498 199.717 226.044C84.927 239.59 190.594 510.159 -21.1546 487.786C-232.903 465.413 -364.255 272.497 -318.329 158.822C-272.403 45.1473 -469.654 -103.285 -623.48 4.30309" stroke="url(#paint21_linear_698_11091)"/>
<path opacity="0.92" d="M635.913 467.4C595.937 475.103 504.045 465.444 456.281 365.175C396.577 239.839 323.615 212.287 208.249 224.024C92.883 235.762 193.206 506.721 -18.622 481.226C-230.45 455.73 -358.137 261.682 -309.734 149.218C-261.33 36.7546 -456.008 -114.013 -612.462 -9.25033" stroke="url(#paint22_linear_698_11091)"/>
<path opacity="0.96" d="M640.659 470.47C600.42 477.531 508.491 466.517 462.686 365.975C405.431 240.298 332.853 211.761 216.943 221.69C101.034 231.619 195.988 502.879 -15.8599 474.276C-227.708 445.672 -351.694 250.56 -300.829 139.342C-249.963 28.1239 -442.014 -124.923 -601.049 -23.0151" stroke="url(#paint23_linear_698_11091)"/>
<path d="M644.683 474.121C604.191 480.538 512.25 468.176 468.417 367.396C413.626 241.421 341.451 211.909 225.032 220.031C108.613 228.152 198.174 499.62 -13.6335 467.926C-225.441 436.232 -345.693 240.123 -292.381 130.184C-239.07 20.2462 -428.439 -135.024 -590.011 -35.9986" stroke="url(#paint24_linear_698_11091)"/>
</g>
<defs>
<linearGradient id="paint0_linear_698_11091" x1="-172.167" y1="617.996" x2="-80.66" y2="193.026" gradientUnits="userSpaceOnUse">
<stop offset="0.416667" stop-color="#0C6F97"/>
<stop offset="0.864583" stop-color="#0C6F97" stop-opacity="0"/>
</linearGradient>
<linearGradient id="paint1_linear_698_11091" x1="-169.942" y1="611.547" x2="-72.5702" y2="189.094" gradientUnits="userSpaceOnUse">
<stop offset="0.416667" stop-color="#0C6F97"/>
<stop offset="0.864583" stop-color="#0C6F97" stop-opacity="0"/>
</linearGradient>
<linearGradient id="paint2_linear_698_11091" x1="-168.003" y1="604.656" x2="-64.841" y2="184.746" gradientUnits="userSpaceOnUse">
<stop offset="0.416667" stop-color="#0C6F97"/>
<stop offset="0.864583" stop-color="#0C6F97" stop-opacity="0"/>
</linearGradient>
<linearGradient id="paint3_linear_698_11091" x1="-165.87" y1="597.845" x2="-56.989" y2="180.5" gradientUnits="userSpaceOnUse">
<stop offset="0.416667" stop-color="#0C6F97"/>
<stop offset="0.864583" stop-color="#0C6F97" stop-opacity="0"/>
</linearGradient>
<linearGradient id="paint4_linear_698_11091" x1="-163.538" y1="591.112" x2="-49.0057" y2="176.356" gradientUnits="userSpaceOnUse">
<stop offset="0.416667" stop-color="#0C6F97"/>
<stop offset="0.864583" stop-color="#0C6F97" stop-opacity="0"/>
</linearGradient>
<linearGradient id="paint5_linear_698_11091" x1="-161.017" y1="584.469" x2="-40.8993" y2="172.323" gradientUnits="userSpaceOnUse">
<stop offset="0.416667" stop-color="#0C6F97"/>
<stop offset="0.864583" stop-color="#0C6F97" stop-opacity="0"/>
</linearGradient>
<linearGradient id="paint6_linear_698_11091" x1="-158.307" y1="577.91" x2="-32.6661" y2="168.392" gradientUnits="userSpaceOnUse">
<stop offset="0.416667" stop-color="#0C6F97"/>
<stop offset="0.864583" stop-color="#0C6F97" stop-opacity="0"/>
</linearGradient>
<linearGradient id="paint7_linear_698_11091" x1="-155.878" y1="570.927" x2="-24.7734" y2="164.057" gradientUnits="userSpaceOnUse">
<stop offset="0.416667" stop-color="#0C6F97"/>
<stop offset="0.864583" stop-color="#0C6F97" stop-opacity="0"/>
</linearGradient>
<linearGradient id="paint8_linear_698_11091" x1="-153.739" y1="563.516" x2="-17.2271" y2="159.312" gradientUnits="userSpaceOnUse">
<stop offset="0.416667" stop-color="#0C6F97"/>
<stop offset="0.864583" stop-color="#0C6F97" stop-opacity="0"/>
</linearGradient>
<linearGradient id="paint9_linear_698_11091" x1="-151.421" y1="556.195" x2="-9.55525" y2="154.673" gradientUnits="userSpaceOnUse">
<stop offset="0.416667" stop-color="#0C6F97"/>
<stop offset="0.864583" stop-color="#0C6F97" stop-opacity="0"/>
</linearGradient>
<linearGradient id="paint10_linear_698_11091" x1="-148.914" y1="548.981" x2="-1.74512" y2="150.158" gradientUnits="userSpaceOnUse">
<stop offset="0.416667" stop-color="#0C6F97"/>
<stop offset="0.864583" stop-color="#0C6F97" stop-opacity="0"/>
</linearGradient>
<linearGradient id="paint11_linear_698_11091" x1="-146.222" y1="541.863" x2="6.20313" y2="145.754" gradientUnits="userSpaceOnUse">
<stop offset="0.416667" stop-color="#0C6F97"/>
<stop offset="0.864583" stop-color="#0C6F97" stop-opacity="0"/>
</linearGradient>
<linearGradient id="paint12_linear_698_11091" x1="-143.345" y1="534.843" x2="14.2905" y2="141.464" gradientUnits="userSpaceOnUse">
<stop offset="0.416667" stop-color="#0C6F97"/>
<stop offset="0.864583" stop-color="#0C6F97" stop-opacity="0"/>
</linearGradient>
<linearGradient id="paint13_linear_698_11091" x1="-140.769" y1="527.421" x2="22.0339" y2="136.786" gradientUnits="userSpaceOnUse">
<stop offset="0.416667" stop-color="#0C6F97"/>
<stop offset="0.864583" stop-color="#0C6F97" stop-opacity="0"/>
</linearGradient>
<linearGradient id="paint14_linear_698_11091" x1="-138.009" y1="520.097" x2="29.9224" y2="132.222" gradientUnits="userSpaceOnUse">
<stop offset="0.416667" stop-color="#0C6F97"/>
<stop offset="0.864583" stop-color="#0C6F97" stop-opacity="0"/>
</linearGradient>
<linearGradient id="paint15_linear_698_11091" x1="-135.074" y1="512.883" x2="37.9489" y2="127.783" gradientUnits="userSpaceOnUse">
<stop offset="0.416667" stop-color="#0C6F97"/>
<stop offset="0.864583" stop-color="#0C6F97" stop-opacity="0"/>
</linearGradient>
<linearGradient id="paint16_linear_698_11091" x1="-131.966" y1="505.783" x2="46.1145" y2="123.474" gradientUnits="userSpaceOnUse">
<stop offset="0.416667" stop-color="#0C6F97"/>
<stop offset="0.864583" stop-color="#0C6F97" stop-opacity="0"/>
</linearGradient>
<linearGradient id="paint17_linear_698_11091" x1="-129.163" y1="498.272" x2="53.9432" y2="118.768" gradientUnits="userSpaceOnUse">
<stop offset="0.416667" stop-color="#0C6F97"/>
<stop offset="0.864583" stop-color="#0C6F97" stop-opacity="0"/>
</linearGradient>
<linearGradient id="paint18_linear_698_11091" x1="-126.182" y1="490.884" x2="61.92" y2="114.202" gradientUnits="userSpaceOnUse">
<stop offset="0.416667" stop-color="#0C6F97"/>
<stop offset="0.864583" stop-color="#0C6F97" stop-opacity="0"/>
</linearGradient>
<linearGradient id="paint19_linear_698_11091" x1="-123.039" y1="483.615" x2="70.0318" y2="109.771" gradientUnits="userSpaceOnUse">
<stop offset="0.416667" stop-color="#0C6F97"/>
<stop offset="0.864583" stop-color="#0C6F97" stop-opacity="0"/>
</linearGradient>
<linearGradient id="paint20_linear_698_11091" x1="-120.201" y1="475.947" x2="77.8142" y2="104.96" gradientUnits="userSpaceOnUse">
<stop offset="0.416667" stop-color="#0C6F97"/>
<stop offset="0.864583" stop-color="#0C6F97" stop-opacity="0"/>
</linearGradient>
<linearGradient id="paint21_linear_698_11091" x1="-117.196" y1="468.395" x2="85.7418" y2="100.281" gradientUnits="userSpaceOnUse">
<stop offset="0.416667" stop-color="#0C6F97"/>
<stop offset="0.864583" stop-color="#0C6F97" stop-opacity="0"/>
</linearGradient>
<linearGradient id="paint22_linear_698_11091" x1="-114.508" y1="460.46" x2="93.3326" y2="95.2383" gradientUnits="userSpaceOnUse">
<stop offset="0.416667" stop-color="#0C6F97"/>
<stop offset="0.864583" stop-color="#0C6F97" stop-opacity="0"/>
</linearGradient>
<linearGradient id="paint23_linear_698_11091" x1="-111.563" y1="452.145" x2="101.163" y2="89.8355" gradientUnits="userSpaceOnUse">
<stop offset="0.416667" stop-color="#0C6F97"/>
<stop offset="0.864583" stop-color="#0C6F97" stop-opacity="0"/>
</linearGradient>
<linearGradient id="paint24_linear_698_11091" x1="-109.127" y1="444.44" x2="108.468" y2="85.0647" gradientUnits="userSpaceOnUse">
<stop offset="0.416667" stop-color="#0C6F97"/>
<stop offset="0.864583" stop-color="#0C6F97" stop-opacity="0"/>
</linearGradient>
</defs>
</svg>
