<svg width="803" height="1684" viewBox="0 0 803 1684" fill="none" xmlns="http://www.w3.org/2000/svg">
<g opacity="0.26">
<path opacity="0.04" d="M805.382 1471.67C778.179 1445.27 740.374 1366.92 806.776 1264.71C889.778 1136.95 877.724 1061.91 808.7 978.956C739.677 896 545.678 1149.64 461.446 966.949C377.214 784.259 487.871 558.797 613.987 524.183C740.104 489.57 777.735 239.474 603.862 184.324" stroke="url(#paint0_linear_698_11045)"/>
<path opacity="0.08" d="M802.442 1481.11C775.703 1454.1 739.145 1374.87 806.831 1273.96C891.439 1147.82 880.508 1072.44 812.891 987.933C745.274 903.421 548.175 1153.22 466.84 968.541C385.505 783.865 499.1 560.506 625.345 528.532C751.589 496.558 792.733 246.99 620.173 188.089" stroke="url(#paint1_linear_698_11045)"/>
<path opacity="0.12" d="M799.798 1489.99C773.528 1462.39 738.225 1382.29 807.171 1282.71C893.353 1158.24 883.545 1082.54 817.35 996.505C751.156 910.464 551.027 1156.34 472.604 969.735C394.182 783.13 510.672 561.945 637.006 532.621C763.339 503.297 807.971 254.333 636.775 191.7" stroke="url(#paint2_linear_698_11045)"/>
<path opacity="0.16" d="M797.037 1498.89C771.243 1470.7 737.201 1389.76 807.381 1291.54C895.106 1168.77 886.421 1092.79 821.665 1005.25C756.909 917.703 553.821 1159.58 478.326 971.106C402.831 782.631 522.171 563.689 648.554 537.023C774.938 510.357 823.033 262.076 653.249 195.73" stroke="url(#paint3_linear_698_11045)"/>
<path opacity="0.2" d="M794.164 1507.81C768.854 1479.04 736.08 1397.29 807.469 1300.46C896.705 1179.43 889.141 1103.18 825.839 1014.16C762.537 925.142 556.561 1162.95 484.007 972.662C411.454 782.375 533.599 565.743 659.993 541.743C786.387 517.744 837.921 270.222 669.595 200.185" stroke="url(#paint4_linear_698_11045)"/>
<path opacity="0.24" d="M791.171 1516.73C766.35 1487.39 734.85 1404.85 807.422 1309.45C898.137 1190.19 891.693 1113.7 829.86 1023.23C768.027 932.77 559.236 1166.43 489.637 974.391C420.038 782.351 544.941 568.096 671.306 546.77C797.672 525.445 852.617 278.76 685.798 205.052" stroke="url(#paint5_linear_698_11045)"/>
<path opacity="0.28" d="M788.068 1525.67C763.741 1495.76 733.521 1412.46 807.25 1318.51C899.411 1201.06 894.085 1124.35 833.736 1032.47C773.387 940.585 561.854 1170.03 495.222 976.295C428.589 782.561 556.202 570.749 682.501 552.104C808.799 533.459 867.129 287.685 701.862 210.33" stroke="url(#paint6_linear_698_11045)"/>
<path opacity="0.32" d="M785.254 1534.04C761.428 1503.58 732.493 1419.55 807.352 1327.07C900.926 1211.48 896.717 1134.57 837.865 1041.29C779.013 948.018 564.814 1173.18 501.159 977.807C437.505 782.438 567.78 573.135 693.973 557.176C820.165 541.217 881.849 296.431 718.182 215.452" stroke="url(#paint7_linear_698_11045)"/>
<path opacity="0.36" d="M782.737 1541.84C759.419 1510.84 731.774 1426.1 807.736 1335.13C902.689 1221.42 899.595 1144.34 842.255 1049.7C784.914 955.063 568.123 1175.86 507.456 978.921C446.789 781.977 579.679 575.246 705.726 561.978C831.773 548.711 896.782 304.987 734.76 220.41" stroke="url(#paint8_linear_698_11045)"/>
<path opacity="0.4" d="M780.111 1549.64C757.306 1518.11 730.955 1432.68 807.994 1343.24C904.292 1231.45 902.31 1154.22 846.493 1058.25C790.677 962.282 571.369 1178.66 513.701 980.201C456.032 781.743 591.485 577.647 717.347 567.075C843.21 556.502 911.514 313.916 751.183 225.765" stroke="url(#paint9_linear_698_11045)"/>
<path opacity="0.44" d="M777.362 1557.44C755.075 1525.38 730.022 1439.29 808.11 1351.43C905.719 1241.59 904.846 1164.23 850.566 1066.96C796.286 969.682 574.54 1181.57 519.877 981.658C465.215 781.746 603.181 580.348 728.821 572.473C854.461 564.599 926.027 323.223 767.432 231.527" stroke="url(#paint10_linear_698_11045)"/>
<path opacity="0.48" d="M774.503 1565.24C752.739 1532.67 728.99 1445.95 808.098 1359.67C906.983 1251.82 907.216 1174.36 854.485 1075.81C801.754 977.259 577.646 1184.59 525.998 983.287C474.35 781.982 614.777 583.343 740.155 578.169C865.534 572.996 940.329 332.904 783.514 237.689" stroke="url(#paint11_linear_698_11045)"/>
<path opacity="0.52" d="M771.532 1573.04C750.298 1539.96 727.854 1452.63 807.955 1367.97C908.081 1262.14 909.417 1184.6 858.247 1084.8C807.077 985.009 580.684 1187.73 532.057 985.088C483.43 782.451 626.268 586.63 751.345 584.158C876.423 581.687 954.415 342.952 799.424 244.247" stroke="url(#paint12_linear_698_11045)"/>
<path opacity="0.56" d="M768.849 1580.25C748.148 1546.68 727.013 1458.77 808.078 1375.74C909.41 1271.96 911.844 1194.37 862.246 1093.36C812.648 992.353 584.051 1190.39 538.451 986.483C492.85 782.574 638.045 589.631 762.784 589.863C887.522 590.094 968.676 352.788 815.552 250.624" stroke="url(#paint13_linear_698_11045)"/>
<path opacity="0.6" d="M766.064 1587.46C745.903 1553.4 726.079 1464.94 808.08 1383.58C910.581 1281.88 914.109 1204.26 866.095 1102.06C818.08 999.868 587.356 1193.17 544.788 988.05C502.22 782.931 649.719 592.923 774.08 595.858C898.441 598.793 982.72 362.986 831.506 257.393" stroke="url(#paint14_linear_698_11045)"/>
<path opacity="0.64" d="M763.164 1594.65C743.546 1560.11 725.037 1471.12 807.944 1391.46C911.578 1291.87 916.197 1214.24 869.776 1110.89C823.354 1007.54 590.585 1196.05 551.053 989.782C511.521 783.514 661.27 596.499 785.215 602.135C909.16 607.772 996.529 373.535 847.267 264.545" stroke="url(#paint15_linear_698_11045)"/>
<path opacity="0.68" d="M760.15 1601.82C741.08 1566.82 723.886 1477.33 807.671 1399.38C912.402 1301.94 918.105 1224.32 873.288 1119.85C828.47 1015.38 593.734 1199.03 557.242 991.678C520.75 784.323 672.694 600.356 796.185 608.693C919.675 617.029 1010.1 384.433 862.829 272.078" stroke="url(#paint16_linear_698_11045)"/>
<path opacity="0.72" d="M757.441 1608.4C738.923 1572.95 723.047 1482.99 807.68 1406.77C913.47 1311.5 920.254 1233.92 877.049 1128.36C833.844 1022.79 597.224 1201.54 563.774 993.163C530.324 784.783 684.407 603.919 807.406 614.953C930.404 625.987 1023.84 395.1 878.607 279.414" stroke="url(#paint17_linear_698_11045)"/>
<path opacity="0.76" d="M754.616 1614.97C736.655 1579.07 722.097 1488.66 807.548 1414.21C914.362 1321.14 922.22 1243.62 880.636 1136.99C839.053 1030.37 600.63 1204.16 570.224 994.817C539.817 785.473 695.985 607.765 818.453 621.494C940.921 635.222 1037.33 406.112 894.174 287.13" stroke="url(#paint18_linear_698_11045)"/>
<path opacity="0.8" d="M751.68 1621.51C734.28 1585.18 721.041 1494.35 807.28 1421.68C915.079 1330.83 924.006 1253.4 884.053 1145.74C844.1 1038.09 603.957 1206.87 576.594 996.627C549.232 786.382 707.427 611.883 829.327 628.301C951.228 644.719 1050.57 417.454 909.53 295.211" stroke="url(#paint19_linear_698_11045)"/>
<path opacity="0.84" d="M749.043 1627.46C732.208 1590.7 720.289 1499.48 807.286 1428.61C916.033 1340.02 926.022 1262.69 887.708 1154.04C849.393 1045.39 607.611 1209.11 583.293 998.026C558.975 786.942 719.141 615.702 840.435 634.805C961.729 653.907 1063.97 428.555 925.081 303.088" stroke="url(#paint20_linear_698_11045)"/>
<path opacity="0.88" d="M746.306 1633.37C730.04 1596.21 719.44 1504.62 807.165 1435.57C916.822 1349.26 927.868 1272.06 891.199 1162.44C854.531 1052.83 611.193 1211.45 589.918 999.585C568.642 787.723 730.721 619.793 851.373 641.574C972.024 663.355 1077.12 439.981 940.421 311.327" stroke="url(#paint21_linear_698_11045)"/>
<path opacity="0.92" d="M743.861 1638.69C728.167 1601.13 718.886 1509.2 807.309 1441.99C917.837 1357.98 929.932 1280.93 894.917 1170.39C859.901 1059.84 615.092 1213.3 596.857 1000.73C578.623 788.151 742.557 623.579 862.528 648.032C982.499 672.486 1090.4 451.155 955.937 319.351" stroke="url(#paint22_linear_698_11045)"/>
<path opacity="0.96" d="M741.823 1643.96C726.705 1606.01 718.742 1513.77 807.831 1448.42C919.192 1366.74 932.331 1289.87 898.975 1178.42C865.619 1066.97 619.421 1215.24 604.225 1002.01C589.029 788.785 754.759 627.619 874.013 654.737C993.266 681.854 1103.94 462.631 971.74 327.717" stroke="url(#paint23_linear_698_11045)"/>
<path d="M739.069 1648.65C724.531 1610.32 717.885 1517.79 807.609 1454.32C919.765 1374.99 933.939 1298.32 902.249 1186C870.559 1073.69 623.057 1216.72 610.896 1002.9C598.734 789.08 766.201 631.365 884.701 661.139C1003.2 690.913 1116.59 473.86 986.702 335.876" stroke="url(#paint24_linear_698_11045)"/>
</g>
<defs>
<linearGradient id="paint0_linear_698_11045" x1="431.652" y1="878.298" x2="866.353" y2="881.226" gradientUnits="userSpaceOnUse">
<stop offset="0.416667" stop-color="#0C6F97"/>
<stop offset="0.864583" stop-color="#0C6F97" stop-opacity="0"/>
</linearGradient>
<linearGradient id="paint1_linear_698_11045" x1="438.419" y1="879.161" x2="871.851" y2="888.343" gradientUnits="userSpaceOnUse">
<stop offset="0.416667" stop-color="#0C6F97"/>
<stop offset="0.864583" stop-color="#0C6F97" stop-opacity="0"/>
</linearGradient>
<linearGradient id="paint2_linear_698_11045" x1="445.561" y1="879.654" x2="877.685" y2="895.024" gradientUnits="userSpaceOnUse">
<stop offset="0.416667" stop-color="#0C6F97"/>
<stop offset="0.864583" stop-color="#0C6F97" stop-opacity="0"/>
</linearGradient>
<linearGradient id="paint3_linear_698_11045" x1="452.663" y1="880.353" x2="883.441" y2="901.845" gradientUnits="userSpaceOnUse">
<stop offset="0.416667" stop-color="#0C6F97"/>
<stop offset="0.864583" stop-color="#0C6F97" stop-opacity="0"/>
</linearGradient>
<linearGradient id="paint4_linear_698_11045" x1="459.73" y1="881.264" x2="889.126" y2="908.816" gradientUnits="userSpaceOnUse">
<stop offset="0.416667" stop-color="#0C6F97"/>
<stop offset="0.864583" stop-color="#0C6F97" stop-opacity="0"/>
</linearGradient>
<linearGradient id="paint5_linear_698_11045" x1="466.747" y1="882.377" x2="894.727" y2="915.929" gradientUnits="userSpaceOnUse">
<stop offset="0.416667" stop-color="#0C6F97"/>
<stop offset="0.864583" stop-color="#0C6F97" stop-opacity="0"/>
</linearGradient>
<linearGradient id="paint6_linear_698_11045" x1="473.722" y1="883.693" x2="900.255" y2="923.188" gradientUnits="userSpaceOnUse">
<stop offset="0.416667" stop-color="#0C6F97"/>
<stop offset="0.864583" stop-color="#0C6F97" stop-opacity="0"/>
</linearGradient>
<linearGradient id="paint7_linear_698_11045" x1="481.053" y1="884.645" x2="906.107" y2="930.03" gradientUnits="userSpaceOnUse">
<stop offset="0.416667" stop-color="#0C6F97"/>
<stop offset="0.864583" stop-color="#0C6F97" stop-opacity="0"/>
</linearGradient>
<linearGradient id="paint8_linear_698_11045" x1="488.744" y1="885.228" x2="912.292" y2="936.45" gradientUnits="userSpaceOnUse">
<stop offset="0.416667" stop-color="#0C6F97"/>
<stop offset="0.864583" stop-color="#0C6F97" stop-opacity="0"/>
</linearGradient>
<linearGradient id="paint9_linear_698_11045" x1="496.385" y1="886.006" x2="918.398" y2="943.016" gradientUnits="userSpaceOnUse">
<stop offset="0.416667" stop-color="#0C6F97"/>
<stop offset="0.864583" stop-color="#0C6F97" stop-opacity="0"/>
</linearGradient>
<linearGradient id="paint10_linear_698_11045" x1="503.958" y1="886.989" x2="924.412" y2="949.741" gradientUnits="userSpaceOnUse">
<stop offset="0.416667" stop-color="#0C6F97"/>
<stop offset="0.864583" stop-color="#0C6F97" stop-opacity="0"/>
</linearGradient>
<linearGradient id="paint11_linear_698_11045" x1="511.476" y1="888.174" x2="930.344" y2="956.625" gradientUnits="userSpaceOnUse">
<stop offset="0.416667" stop-color="#0C6F97"/>
<stop offset="0.864583" stop-color="#0C6F97" stop-opacity="0"/>
</linearGradient>
<linearGradient id="paint12_linear_698_11045" x1="518.934" y1="889.558" x2="936.192" y2="963.667" gradientUnits="userSpaceOnUse">
<stop offset="0.416667" stop-color="#0C6F97"/>
<stop offset="0.864583" stop-color="#0C6F97" stop-opacity="0"/>
</linearGradient>
<linearGradient id="paint13_linear_698_11045" x1="526.725" y1="890.566" x2="942.35" y2="970.294" gradientUnits="userSpaceOnUse">
<stop offset="0.416667" stop-color="#0C6F97"/>
<stop offset="0.864583" stop-color="#0C6F97" stop-opacity="0"/>
</linearGradient>
<linearGradient id="paint14_linear_698_11045" x1="534.46" y1="891.775" x2="948.428" y2="977.086" gradientUnits="userSpaceOnUse">
<stop offset="0.416667" stop-color="#0C6F97"/>
<stop offset="0.864583" stop-color="#0C6F97" stop-opacity="0"/>
</linearGradient>
<linearGradient id="paint15_linear_698_11045" x1="542.12" y1="893.177" x2="954.41" y2="984.038" gradientUnits="userSpaceOnUse">
<stop offset="0.416667" stop-color="#0C6F97"/>
<stop offset="0.864583" stop-color="#0C6F97" stop-opacity="0"/>
</linearGradient>
<linearGradient id="paint16_linear_698_11045" x1="549.704" y1="894.772" x2="960.294" y2="991.153" gradientUnits="userSpaceOnUse">
<stop offset="0.416667" stop-color="#0C6F97"/>
<stop offset="0.864583" stop-color="#0C6F97" stop-opacity="0"/>
</linearGradient>
<linearGradient id="paint17_linear_698_11045" x1="557.629" y1="895.985" x2="966.496" y2="997.858" gradientUnits="userSpaceOnUse">
<stop offset="0.416667" stop-color="#0C6F97"/>
<stop offset="0.864583" stop-color="#0C6F97" stop-opacity="0"/>
</linearGradient>
<linearGradient id="paint18_linear_698_11045" x1="565.469" y1="897.396" x2="972.593" y2="1004.74" gradientUnits="userSpaceOnUse">
<stop offset="0.416667" stop-color="#0C6F97"/>
<stop offset="0.864583" stop-color="#0C6F97" stop-opacity="0"/>
</linearGradient>
<linearGradient id="paint19_linear_698_11045" x1="573.228" y1="898.992" x2="978.586" y2="1011.77" gradientUnits="userSpaceOnUse">
<stop offset="0.416667" stop-color="#0C6F97"/>
<stop offset="0.864583" stop-color="#0C6F97" stop-opacity="0"/>
</linearGradient>
<linearGradient id="paint20_linear_698_11045" x1="581.311" y1="900.205" x2="984.882" y2="1018.41" gradientUnits="userSpaceOnUse">
<stop offset="0.416667" stop-color="#0C6F97"/>
<stop offset="0.864583" stop-color="#0C6F97" stop-opacity="0"/>
</linearGradient>
<linearGradient id="paint21_linear_698_11045" x1="589.318" y1="901.607" x2="991.079" y2="1025.22" gradientUnits="userSpaceOnUse">
<stop offset="0.416667" stop-color="#0C6F97"/>
<stop offset="0.864583" stop-color="#0C6F97" stop-opacity="0"/>
</linearGradient>
<linearGradient id="paint22_linear_698_11045" x1="597.635" y1="902.622" x2="997.564" y2="1031.62" gradientUnits="userSpaceOnUse">
<stop offset="0.416667" stop-color="#0C6F97"/>
<stop offset="0.864583" stop-color="#0C6F97" stop-opacity="0"/>
</linearGradient>
<linearGradient id="paint23_linear_698_11045" x1="606.376" y1="903.81" x2="1004.45" y2="1038.19" gradientUnits="userSpaceOnUse">
<stop offset="0.416667" stop-color="#0C6F97"/>
<stop offset="0.864583" stop-color="#0C6F97" stop-opacity="0"/>
</linearGradient>
<linearGradient id="paint24_linear_698_11045" x1="614.415" y1="904.624" x2="1010.61" y2="1044.37" gradientUnits="userSpaceOnUse">
<stop offset="0.416667" stop-color="#0C6F97"/>
<stop offset="0.864583" stop-color="#0C6F97" stop-opacity="0"/>
</linearGradient>
</defs>
</svg>
