<svg xmlns="http://www.w3.org/2000/svg" viewBox="0 0 999.79 562.71"><defs><style>.cls-1{fill:#fffdf9;}</style></defs><g id="Слой_2" data-name="Слой 2"><g id="Home"><path class="cls-1" d="M994.8,10.34h0a5.07,5.07,0,0,0,5-5.16,5.08,5.08,0,0,0-5-5.17h-2.48a5.08,5.08,0,0,0-5,5.17,5.07,5.07,0,0,0-5-5.17H982a5.06,5.06,0,0,0-5,5.06A5.08,5.08,0,0,0,972,0h-2.5a5.07,5.07,0,0,0-5,5.06,5.07,5.07,0,0,0-5-5.06h-.38a5.07,5.07,0,0,0-5,5.11,5.07,5.07,0,0,0-5-5.11h-2.49a5.08,5.08,0,0,0-5,5.12,5.06,5.06,0,0,0-5-5.12h-.38a5.07,5.07,0,0,0-5,5.11,5.08,5.08,0,0,0-5-5.11h-2.49a5.07,5.07,0,0,0-5,5.11A5.07,5.07,0,0,0,914,0h-.38a5.07,5.07,0,0,0-5,5.11,5.07,5.07,0,0,0-5-5.11h-2.49a5.08,5.08,0,0,0-5,5.11,5.06,5.06,0,0,0-5-5.11h-.38a5.08,5.08,0,0,0-5,5.17,5.07,5.07,0,0,0-5-5.17h-2.49a5.07,5.07,0,0,0-5,5.11,5.07,5.07,0,0,0-5-5.11H868a5.07,5.07,0,0,0-5,5.17A5.07,5.07,0,0,0,858,0h-2.49a5.07,5.07,0,0,0-5,5.17,5.08,5.08,0,0,0-5-5.17h-.37a5.07,5.07,0,0,0-5,5.11,5.08,5.08,0,0,0-5-5.11h-2.49a5.07,5.07,0,0,0-5,5.17,5.07,5.07,0,0,0-5-5.17h-.38a5.08,5.08,0,0,0-5,5.12,5.06,5.06,0,0,0-5-5.12H810a5.08,5.08,0,0,0-5,5.11A5.07,5.07,0,0,0,800,0h-.37a5.06,5.06,0,0,0-5,5.12,5.08,5.08,0,0,0-5-5.12h-2.5a5.07,5.07,0,0,0-5,5.11,5.07,5.07,0,0,0-5-5.11h-.38a5.07,5.07,0,0,0-5,5.12,5.07,5.07,0,0,0-5-5.12h-2.49a5.06,5.06,0,0,0-5,5.12,5.08,5.08,0,0,0-5-5.12H754a5.07,5.07,0,0,0-5,5.17,5.08,5.08,0,0,0-5-5.17h-2.49a5.08,5.08,0,0,0-5,5.12,5.07,5.07,0,0,0-5-5.12h-.38a5.07,5.07,0,0,0-5,5.17,5.08,5.08,0,0,0-5-5.17h-2.48a5.07,5.07,0,0,0-5,5.17,5.08,5.08,0,0,0-5-5.17h-.37a5.06,5.06,0,0,0-5,5.12,5.08,5.08,0,0,0-5-5.12H696a5.07,5.07,0,0,0-5,5.17A5.07,5.07,0,0,0,686,0h-.38a5.08,5.08,0,0,0-5,5.12,5.06,5.06,0,0,0-5-5.12h-2.49a5.06,5.06,0,0,0-5,5.12,5.08,5.08,0,0,0-5-5.12h-.38a5.06,5.06,0,0,0-5,5.12,5.08,5.08,0,0,0-5-5.12h-2.49a5.08,5.08,0,0,0-5,5.12,5.06,5.06,0,0,0-5-5.12h-.38a5.07,5.07,0,0,0-5,5.12,5.07,5.07,0,0,0-5-5.12H627.6a5.06,5.06,0,0,0-5,5.12,5.08,5.08,0,0,0-5-5.12h-.37a5.08,5.08,0,0,0-5,5.17,5.07,5.07,0,0,0-5-5.17H604.8a5.08,5.08,0,0,0-5,5.12,5.06,5.06,0,0,0-5-5.12h-.37a5.08,5.08,0,0,0-5,5.17,5.07,5.07,0,0,0-5-5.17H582a5.07,5.07,0,0,0-5,5.17A5.08,5.08,0,0,0,572,0h-.37a5.08,5.08,0,0,0-5,5.12,5.05,5.05,0,0,0-5-5.12h-2.5a5.07,5.07,0,0,0-5,5.17,5.07,5.07,0,0,0-5-5.17h-.37a5.08,5.08,0,0,0-5,5.12,5.07,5.07,0,0,0-5-5.12h-2.49a5.06,5.06,0,0,0-5,5.12,5.07,5.07,0,0,0-5-5.12h-.37a5.06,5.06,0,0,0-5,5.11,5.07,5.07,0,0,0-5-5.11h-2.49a5.07,5.07,0,0,0-5,5.12,5.06,5.06,0,0,0-5-5.12h-.38a5.07,5.07,0,0,0-5,5.11,5.07,5.07,0,0,0-5-5.11h-2.49a5.06,5.06,0,0,0-5,5.12,5.08,5.08,0,0,0-5-5.12h-.37a5.07,5.07,0,0,0-5,5.17,5.07,5.07,0,0,0-5-5.17H468a5.08,5.08,0,0,0-5,5.11,5.07,5.07,0,0,0-5-5.11h-.38a5.07,5.07,0,0,0-5,5.17,5.07,5.07,0,0,0-5-5.17h-2.49a5.07,5.07,0,0,0-5,5.17,5.07,5.07,0,0,0-5-5.17h-.38a5.07,5.07,0,0,0-5,5.11,5.07,5.07,0,0,0-5-5.11h-2.49a5.08,5.08,0,0,0-5,5.12,5.06,5.06,0,0,0-5-5.12h-.38a5.07,5.07,0,0,0-5,5.11,5.07,5.07,0,0,0-5-5.11h-2.49a5.07,5.07,0,0,0-5,5.11,5.07,5.07,0,0,0-5-5.11h-.38a5.07,5.07,0,0,0-5,5.11,5.08,5.08,0,0,0-5-5.11h-2.48a5.08,5.08,0,0,0-5,5.11,5.07,5.07,0,0,0-5-5.11h-.38a5.06,5.06,0,0,0-5,5.12,5.08,5.08,0,0,0-5-5.12h-2.49a5.07,5.07,0,0,0-5,5.11,5.07,5.07,0,0,0-5-5.11h-.38a5.07,5.07,0,0,0-5,5.17,5.08,5.08,0,0,0-5-5.17h-2.48a5.08,5.08,0,0,0-5,5.17,5.07,5.07,0,0,0-5-5.17h-.37a5.07,5.07,0,0,0-5,5.11A5.08,5.08,0,0,0,311,0h-2.49a5.07,5.07,0,0,0-5,5.17,5.07,5.07,0,0,0-5-5.17h-.38a5.06,5.06,0,0,0-5,5.12,5.07,5.07,0,0,0-5-5.12h-2.49a5.07,5.07,0,0,0-5,5.11,5.07,5.07,0,0,0-5-5.11h-.37a5.08,5.08,0,0,0-5,5.12,5.06,5.06,0,0,0-5-5.12h-2.49a5.07,5.07,0,0,0-5,5.11,5.07,5.07,0,0,0-5-5.11h-.38a5.06,5.06,0,0,0-5,5.12,5.08,5.08,0,0,0-5-5.12h-2.49a5.06,5.06,0,0,0-5,5.12,5.08,5.08,0,0,0-5-5.12h-.37a5.08,5.08,0,0,0-5,5.17,5.07,5.07,0,0,0-5-5.17h-2.49a5.07,5.07,0,0,0-5,5.12,5.08,5.08,0,0,0-5-5.12H207a5.07,5.07,0,0,0-5,5.17A5.07,5.07,0,0,0,197,0H194.5a5.08,5.08,0,0,0-5,5.17,5.07,5.07,0,0,0-5-5.17h-.37a5.06,5.06,0,0,0-5,5.12,5.08,5.08,0,0,0-5-5.12H171.7a5.08,5.08,0,0,0-5,5.12,5.08,5.08,0,0,0-5-5.12h-.38a5.07,5.07,0,0,0-5,5.12,5.07,5.07,0,0,0-5-5.12h-2.49a5.06,5.06,0,0,0-5,5.12,5.08,5.08,0,0,0-5-5.12h-.37a5.08,5.08,0,0,0-5,5.12,5.06,5.06,0,0,0-5-5.12h-2.49a5.06,5.06,0,0,0-5,5.12,5.08,5.08,0,0,0-5-5.12h-.38a5.07,5.07,0,0,0-5,5.12,5.07,5.07,0,0,0-5-5.12h-2.5a5.06,5.06,0,0,0-5,5.12,5.08,5.08,0,0,0-5-5.12H93a5.08,5.08,0,0,0-5,5.17A5.07,5.07,0,0,0,83,0H80.52a5.07,5.07,0,0,0-5,5.17,5.07,5.07,0,0,0-5-5.17h-.38a5.08,5.08,0,0,0-5,5.12,5.07,5.07,0,0,0-5-5.12H57.73a5.07,5.07,0,0,0-5,5.17,5.08,5.08,0,0,0-5-5.17h-.37a5.08,5.08,0,0,0-5,5.12,5.06,5.06,0,0,0-5-5.12H34.93a5.07,5.07,0,0,0-5,5.12A5.06,5.06,0,0,0,25,0h-.38a5.07,5.07,0,0,0-5,5.12,5.07,5.07,0,0,0-5-5.12H12.14A5,5,0,0,0,7.4,3.56,4.84,4.84,0,0,0,5,2.91,5.07,5.07,0,0,0,0,8.08v.39a5.08,5.08,0,0,0,4.93,5.16A5.08,5.08,0,0,0,0,18.8v2.58a5.08,5.08,0,0,0,4.93,5.17A5.08,5.08,0,0,0,0,31.72v.39a5.07,5.07,0,0,0,5,5.16,5.08,5.08,0,0,0-5,5.17V45a5.08,5.08,0,0,0,4.93,5.16A5.08,5.08,0,0,0,0,55.36v.39a5.07,5.07,0,0,0,5,5.16,5.08,5.08,0,0,0-5,5.17v2.58a5.07,5.07,0,0,0,5,5.17A5.07,5.07,0,0,0,0,79v.39a5.08,5.08,0,0,0,4.93,5.16A5.09,5.09,0,0,0,0,89.72v2.59a5.08,5.08,0,0,0,4.93,5.16A5.08,5.08,0,0,0,0,102.64V103a5.06,5.06,0,0,0,4.93,5.16A5.08,5.08,0,0,0,0,113.36V116a5.08,5.08,0,0,0,4.93,5.16A5.08,5.08,0,0,0,0,126.28v.39a5.09,5.09,0,0,0,4.94,5.17A5.07,5.07,0,0,0,0,137v2.59a5.08,5.08,0,0,0,4.93,5.16A5.08,5.08,0,0,0,0,149.92v.39a5.07,5.07,0,0,0,4.94,5.16A5.09,5.09,0,0,0,0,160.64v2.59a5.08,5.08,0,0,0,4.93,5.16A5.08,5.08,0,0,0,0,173.56V174a5.08,5.08,0,0,0,5,5.17,5.07,5.07,0,0,0-5,5.16v2.59A5.07,5.07,0,0,0,5,192a5.08,5.08,0,0,0-5,5.17v.39a5.09,5.09,0,0,0,4.94,5.17A5.07,5.07,0,0,0,0,207.92v2.58a5.07,5.07,0,0,0,5,5.17,5.08,5.08,0,0,0-5,5.17v.39a5.09,5.09,0,0,0,4.94,5.17A5.08,5.08,0,0,0,0,231.56v2.59a5.08,5.08,0,0,0,4.93,5.16A5.08,5.08,0,0,0,0,244.48v.39A5.09,5.09,0,0,0,4.94,250,5.07,5.07,0,0,0,0,255.2v2.59A5.08,5.08,0,0,0,4.94,263,5.09,5.09,0,0,0,0,268.12v.39a5.09,5.09,0,0,0,4.94,5.17A5.08,5.08,0,0,0,0,278.84v2.59a5.07,5.07,0,0,0,4.94,5.16A5.09,5.09,0,0,0,0,291.76v.39a5.08,5.08,0,0,0,5,5.17,4.87,4.87,0,0,0,2.42-.65,5,5,0,0,0,4.73,3.57h2.49a5.09,5.09,0,0,0,5-5.13,5.07,5.07,0,0,0,5,5.13H25a5.08,5.08,0,0,0,5-5.17,5.07,5.07,0,0,0,5,5.17h2.49a5.08,5.08,0,0,0,5-5.17,5.08,5.08,0,0,0,5,5.17h.37a5.08,5.08,0,0,0,5-5.13,5.09,5.09,0,0,0,5,5.13h2.49a5.07,5.07,0,0,0,5-5.17,5.09,5.09,0,0,0,5,5.17h.38a5.08,5.08,0,0,0,5-5.12,5.07,5.07,0,0,0,5,5.12H83a5.08,5.08,0,0,0,5-5.13,5.09,5.09,0,0,0,5,5.13h.38a5.08,5.08,0,0,0,5-5.12,5.08,5.08,0,0,0,5,5.12h2.49a5.09,5.09,0,0,0,5-5.13,5.07,5.07,0,0,0,5,5.13h.38a5.08,5.08,0,0,0,5-5.12,5.07,5.07,0,0,0,5,5.12h2.49a5.08,5.08,0,0,0,5-5.12,5.08,5.08,0,0,0,5,5.12h.38a5.08,5.08,0,0,0,5-5.17,5.08,5.08,0,0,0,5,5.17h2.49a5.08,5.08,0,0,0,5-5.12,5.08,5.08,0,0,0,5,5.12h.38a5.08,5.08,0,0,0,5-5.17,5.08,5.08,0,0,0,5,5.17h2.49a5.08,5.08,0,0,0,5-5.17,5.08,5.08,0,0,0,5,5.17h.38a5.08,5.08,0,0,0,5-5.12,5.08,5.08,0,0,0,5,5.12H197a5.08,5.08,0,0,0,5-5.12,5.07,5.07,0,0,0,5,5.12h.39a5.07,5.07,0,0,0,5-5.12,5.08,5.08,0,0,0,5,5.12h2.49a5.08,5.08,0,0,0,5-5.12,5.08,5.08,0,0,0,5,5.12h.38a5.08,5.08,0,0,0,5-5.13,5.08,5.08,0,0,0,5,5.13h2.49a5.08,5.08,0,0,0,5-5.12,5.07,5.07,0,0,0,5,5.12h.38a5.09,5.09,0,0,0,5-5.13,5.07,5.07,0,0,0,5,5.13h2.49a5.08,5.08,0,0,0,5-5.12,5.08,5.08,0,0,0,5,5.12h.38a5.08,5.08,0,0,0,5-5.17,5.08,5.08,0,0,0,5,5.17h2.49a5.07,5.07,0,0,0,5-5.13,5.09,5.09,0,0,0,5,5.13h.37a5.08,5.08,0,0,0,5-5.17,5.08,5.08,0,0,0,5,5.17H311a5.08,5.08,0,0,0,5-5.17,5.08,5.08,0,0,0,5,5.17h.38a5.08,5.08,0,0,0,5-5.13,5.07,5.07,0,0,0,5,5.13h2.49a5.08,5.08,0,0,0,5-5.12,5.08,5.08,0,0,0,5,5.12h.37a5.09,5.09,0,0,0,5-5.13,5.07,5.07,0,0,0,5,5.13h2.49a5.08,5.08,0,0,0,5-5.13,5.08,5.08,0,0,0,5,5.13h.38a5.08,5.08,0,0,0,5-5.13,5.08,5.08,0,0,0,5,5.13h2.49a5.07,5.07,0,0,0,5-5.13,5.09,5.09,0,0,0,5,5.13h.37a5.09,5.09,0,0,0,5-5.13,5.07,5.07,0,0,0,5,5.13h2.49a5.08,5.08,0,0,0,5-5.13,5.09,5.09,0,0,0,5,5.13h.38a5.08,5.08,0,0,0,5-5.17,5.08,5.08,0,0,0,5,5.17h2.5a5.07,5.07,0,0,0,5-5.13,5.09,5.09,0,0,0,5,5.13h.37a5.07,5.07,0,0,0,5-5.17,5.09,5.09,0,0,0,5,5.17h2.49a5.08,5.08,0,0,0,5-5.17,5.08,5.08,0,0,0,5,5.17h.38a5.09,5.09,0,0,0,5-5.13,5.07,5.07,0,0,0,5,5.13h2.49a5.07,5.07,0,0,0,5-5.13,5.09,5.09,0,0,0,5,5.13h.37a5.07,5.07,0,0,0,5-5.13,5.09,5.09,0,0,0,5,5.13h2.49a5.09,5.09,0,0,0,5-5.13,5.08,5.08,0,0,0,5,5.13h.38a5.09,5.09,0,0,0,5-5.13,5.08,5.08,0,0,0,5,5.13h2.49a5.07,5.07,0,0,0,5-5.13,5.09,5.09,0,0,0,5,5.13h.37a5.09,5.09,0,0,0,5-5.12,5.07,5.07,0,0,0,5,5.12h2.49a5.08,5.08,0,0,0,5-5.13,5.07,5.07,0,0,0,5,5.13h.38a5.08,5.08,0,0,0,5-5.17,5.08,5.08,0,0,0,5,5.17h2.49a5.08,5.08,0,0,0,5-5.17,5.09,5.09,0,0,0,5,5.17H572a5.09,5.09,0,0,0,5-5.13,5.07,5.07,0,0,0,5,5.13h2.48a5.08,5.08,0,0,0,5-5.17,5.08,5.08,0,0,0,5,5.17h.38a5.08,5.08,0,0,0,5-5.12,5.08,5.08,0,0,0,5,5.12h2.49a5.07,5.07,0,0,0,5-5.13,5.09,5.09,0,0,0,5,5.13h.37a5.08,5.08,0,0,0,5-5.12,5.08,5.08,0,0,0,5,5.12h2.48a5.08,5.08,0,0,0,5-5.13,5.07,5.07,0,0,0,5,5.13h.38a5.08,5.08,0,0,0,5-5.12,5.08,5.08,0,0,0,5,5.12h2.49a5.09,5.09,0,0,0,5-5.12,5.07,5.07,0,0,0,5,5.12h.37a5.08,5.08,0,0,0,5-5.17,5.08,5.08,0,0,0,5,5.17h2.48a5.08,5.08,0,0,0,5-5.12,5.08,5.08,0,0,0,5,5.12H686a5.08,5.08,0,0,0,5-5.12,5.08,5.08,0,0,0,5,5.12h2.49a5.09,5.09,0,0,0,5-5.17,5.07,5.07,0,0,0,5,5.17h.38a5.08,5.08,0,0,0,5-5.12,5.08,5.08,0,0,0,5,5.12h2.49a5.08,5.08,0,0,0,5-5.12,5.08,5.08,0,0,0,5,5.12h.38a5.08,5.08,0,0,0,5-5.12,5.08,5.08,0,0,0,5,5.12h2.49a5.08,5.08,0,0,0,5-5.12,5.08,5.08,0,0,0,5,5.12h.38a5.07,5.07,0,0,0,5-5.13,5.09,5.09,0,0,0,5,5.13h2.49a5.08,5.08,0,0,0,5-5.12,5.08,5.08,0,0,0,5,5.12h.37a5.08,5.08,0,0,0,5-5.17,5.08,5.08,0,0,0,5,5.17h2.49a5.08,5.08,0,0,0,5-5.12,5.08,5.08,0,0,0,5,5.12H800a5.08,5.08,0,0,0,5-5.17,5.08,5.08,0,0,0,5,5.17h2.5a5.09,5.09,0,0,0,5-5.17,5.08,5.08,0,0,0,5,5.17h.37a5.07,5.07,0,0,0,5-5.13,5.09,5.09,0,0,0,5,5.13h2.49a5.07,5.07,0,0,0,5-5.17,5.08,5.08,0,0,0,5,5.17h.37a5.07,5.07,0,0,0,5-5.13,5.08,5.08,0,0,0,5,5.13H858a5.08,5.08,0,0,0,5-5.12,5.08,5.08,0,0,0,5,5.12h.37a5.08,5.08,0,0,0,5-5.13,5.07,5.07,0,0,0,5,5.13h2.49a5.08,5.08,0,0,0,5-5.13,5.08,5.08,0,0,0,5,5.13h.38a5.08,5.08,0,0,0,5-5.13,5.09,5.09,0,0,0,5,5.13h2.5a5.07,5.07,0,0,0,5-5.13,5.09,5.09,0,0,0,5,5.13H914a5.08,5.08,0,0,0,5-5.17,5.08,5.08,0,0,0,5,5.17h2.49a5.07,5.07,0,0,0,5-5.13,5.09,5.09,0,0,0,5,5.13h.38a5.08,5.08,0,0,0,5-5.17,5.08,5.08,0,0,0,5,5.17h2.49a5.08,5.08,0,0,0,5-5.17,5.08,5.08,0,0,0,5,5.17h.38a5.08,5.08,0,0,0,5-5.07,5.07,5.07,0,0,0,5,5.07H972a5.07,5.07,0,0,0,5-5.07,5.08,5.08,0,0,0,5,5.07h.38a5.08,5.08,0,0,0,5-5.17,5.08,5.08,0,0,0,5,5.17h2.49a5.08,5.08,0,0,0,5-5.17,5.26,5.26,0,0,0-1-3.11,5.28,5.28,0,0,0,1-3.11v-2.58a5.09,5.09,0,0,0-4.94-5.17,5.08,5.08,0,0,0,4.94-5.16v-.39a5.08,5.08,0,0,0-5-5.17,5.08,5.08,0,0,0,5-5.17v-2.58a5.08,5.08,0,0,0-5-5.17,5.08,5.08,0,0,0,5-5.17v-.39a5.08,5.08,0,0,0-4.93-5.16,5.08,5.08,0,0,0,4.93-5.17V239a5.08,5.08,0,0,0-5-5.17,5.07,5.07,0,0,0,5-5.16v-.39a5.08,5.08,0,0,0-4.93-5.17,5.08,5.08,0,0,0,4.93-5.17v-2.58a5.09,5.09,0,0,0-4.94-5.17,5.09,5.09,0,0,0,4.94-5.17v-.38a5.08,5.08,0,0,0-4.93-5.17,5.08,5.08,0,0,0,4.93-5.17V191.7a5.08,5.08,0,0,0-4.93-5.16,5.08,5.08,0,0,0,4.93-5.17V181a5.09,5.09,0,0,0-4.93-5.17,5.06,5.06,0,0,0,4.93-5.16v-2.58a5.08,5.08,0,0,0-4.93-5.17,5.08,5.08,0,0,0,4.93-5.17v-.38a5.08,5.08,0,0,0-5-5.17,5.08,5.08,0,0,0,5-5.17v-2.59a5.08,5.08,0,0,0-4.93-5.16,5.08,5.08,0,0,0,4.93-5.17v-.38a5.08,5.08,0,0,0-5-5.17,5.09,5.09,0,0,0,5-5.17v-2.58a5.08,5.08,0,0,0-5-5.17,5.08,5.08,0,0,0,5-5.17v-.39a5.09,5.09,0,0,0-4.93-5.17,5.06,5.06,0,0,0,4.93-5.16V97.15A5.08,5.08,0,0,0,994.86,92a5.08,5.08,0,0,0,4.93-5.17v-.39a5.08,5.08,0,0,0-4.94-5.16,5.09,5.09,0,0,0,4.94-5.17V73.51a5.08,5.08,0,0,0-4.93-5.17,5.08,5.08,0,0,0,4.93-5.17v-.39a5.07,5.07,0,0,0-4.94-5.16,5.09,5.09,0,0,0,4.94-5.17V49.86a5.08,5.08,0,0,0-4.93-5.16,5.08,5.08,0,0,0,4.93-5.17v-.39A5.07,5.07,0,0,0,994.85,34a5.09,5.09,0,0,0,4.94-5.17V26.23a5.09,5.09,0,0,0-4.94-5.17,5.08,5.08,0,0,0,4.94-5.17V15.5a5.07,5.07,0,0,0-5-5.16"/><path class="cls-1" d="M994.8,283.18h0a5,5,0,1,0,0-10h-2.48a5,5,0,0,0-5,5,5,5,0,0,0-5-5H982a5,5,0,0,0-5,4.88,5,5,0,0,0-5-4.88h-2.5a5,5,0,0,0-5,4.88,5,5,0,0,0-5-4.88h-.38a5,5,0,0,0-5,4.93,5,5,0,0,0-5-4.93h-2.49a5,5,0,0,0-5,4.94,5,5,0,0,0-5-4.94h-.38a5,5,0,0,0-5,4.93,5,5,0,0,0-5-4.93h-2.49a5,5,0,0,0-5,4.93,5,5,0,0,0-5-4.93h-.38a5,5,0,0,0-5,4.93,5,5,0,0,0-5-4.93h-2.49a5,5,0,0,0-5,4.93,5,5,0,0,0-5-4.93h-.38a5,5,0,0,0-5,5,5,5,0,0,0-5-5h-2.49a5,5,0,0,0-5,4.93,5,5,0,0,0-5-4.93H868a5,5,0,0,0-5,5,5,5,0,0,0-5-5h-2.49a5,5,0,0,0-5,5,5,5,0,0,0-5-5h-.37a5,5,0,0,0-5,4.93,5,5,0,0,0-5-4.93h-2.49a5,5,0,0,0-5,5,5,5,0,0,0-5-5h-.38a5,5,0,0,0-5,4.94,5,5,0,0,0-5-4.94H810a5,5,0,0,0-5,4.93,5,5,0,0,0-5-4.93h-.37a5,5,0,0,0-5,4.94,5,5,0,0,0-5-4.94h-2.5a5,5,0,0,0-5,4.93,5,5,0,0,0-5-4.93h-.38a5,5,0,0,0-5,4.94,5,5,0,0,0-5-4.94h-2.49a5,5,0,0,0-5,4.94,5,5,0,0,0-5-4.94H754a5,5,0,0,0-5,5,5,5,0,0,0-5-5h-2.49a5,5,0,0,0-5,4.94,5,5,0,0,0-5-4.94h-.38a5,5,0,0,0-5,5,5,5,0,0,0-5-5h-2.48a5,5,0,0,0-5,5,5,5,0,0,0-5-5h-.37a5,5,0,0,0-5,4.94,5,5,0,0,0-5-4.94H696a5,5,0,0,0-5,5,5,5,0,0,0-5-5h-.38a5,5,0,0,0-5,4.94,5,5,0,0,0-5-4.94h-2.49a5,5,0,0,0-5,4.94,5,5,0,0,0-5-4.94h-.38a5,5,0,0,0-5,4.94,5,5,0,0,0-5-4.94h-2.49a5,5,0,0,0-5,4.94,5,5,0,0,0-5-4.94h-.38a5,5,0,0,0-5,4.94,5,5,0,0,0-5-4.94H627.6a5,5,0,0,0-5,4.94,5,5,0,0,0-5-4.94h-.37a5,5,0,0,0-5,5,5,5,0,0,0-5-5H604.8a5,5,0,0,0-5,4.94,5,5,0,0,0-5-4.94h-.37a5,5,0,0,0-5,5,5,5,0,0,0-5-5H582a5,5,0,0,0-5,5,5,5,0,0,0-5-5h-.37a5,5,0,0,0-5,4.94,5,5,0,0,0-5-4.94h-2.5a5,5,0,0,0-5,5,5,5,0,0,0-5-5h-.37a5,5,0,0,0-5,4.94,5,5,0,0,0-5-4.94h-2.49a5,5,0,0,0-5,4.94,5,5,0,0,0-5-4.94h-.37a5,5,0,0,0-5,4.93,5,5,0,0,0-5-4.93h-2.49a5,5,0,0,0-5,4.94,5,5,0,0,0-5-4.94h-.38a5,5,0,0,0-5,4.93,5,5,0,0,0-5-4.93h-2.49a5,5,0,0,0-5,4.94,5,5,0,0,0-5-4.94h-.37a5,5,0,0,0-5,5,5,5,0,0,0-5-5H468a5,5,0,0,0-5,4.93,5,5,0,0,0-5-4.93h-.38a5,5,0,0,0-5,5,5,5,0,0,0-5-5h-2.49a5,5,0,0,0-5,5,5,5,0,0,0-5-5h-.38a5,5,0,0,0-5,4.93,5,5,0,0,0-5-4.93h-2.49a5,5,0,0,0-5,4.94,5,5,0,0,0-5-4.94h-.38a5,5,0,0,0-5,4.93,5,5,0,0,0-5-4.93h-2.49a5,5,0,0,0-5,4.93,5,5,0,0,0-5-4.93h-.38a5,5,0,0,0-5,4.93,5,5,0,0,0-5-4.93h-2.48a5,5,0,0,0-5,4.93,5,5,0,0,0-5-4.93h-.38a5,5,0,0,0-5,4.94,5,5,0,0,0-5-4.94h-2.49a5,5,0,0,0-5,4.93,5,5,0,0,0-5-4.93h-.38a5,5,0,0,0-5,5,5,5,0,0,0-5-5h-2.48a5,5,0,0,0-5,5,5,5,0,0,0-5-5h-.37a5,5,0,0,0-5,4.93,5,5,0,0,0-5-4.93h-2.49a5,5,0,0,0-5,5,5,5,0,0,0-5-5h-.38a5,5,0,0,0-5,4.94,5,5,0,0,0-5-4.94h-2.49a5,5,0,0,0-5,4.93,5,5,0,0,0-5-4.93h-.37a5,5,0,0,0-5,4.94,5,5,0,0,0-5-4.94h-2.49a5,5,0,0,0-5,4.93,5,5,0,0,0-5-4.93h-.38a5,5,0,0,0-5,4.94,5,5,0,0,0-5-4.94h-2.49a5,5,0,0,0-5,4.94,5,5,0,0,0-5-4.94h-.37a5,5,0,0,0-5,5,5,5,0,0,0-5-5h-2.49a5,5,0,0,0-5,4.94,5,5,0,0,0-5-4.94H207a5,5,0,0,0-5,5,5,5,0,0,0-5-5H194.5a5,5,0,0,0-5,5,5,5,0,0,0-5-5h-.37a5,5,0,0,0-5,4.94,5,5,0,0,0-5-4.94H171.7a5,5,0,0,0-5,4.94,5,5,0,0,0-5-4.94h-.38a5,5,0,0,0-5,4.94,5,5,0,0,0-5-4.94h-2.49a5,5,0,0,0-5,4.94,5,5,0,0,0-5-4.94h-.37a5,5,0,0,0-5,4.94,5,5,0,0,0-5-4.94h-2.49a5,5,0,0,0-5,4.94,5,5,0,0,0-5-4.94h-.38a5,5,0,0,0-5,4.94,5,5,0,0,0-5-4.94h-2.5a5,5,0,0,0-5,4.94,5,5,0,0,0-5-4.94H93a5,5,0,0,0-5,5,5,5,0,0,0-5-5H80.52a5,5,0,0,0-5,5,5,5,0,0,0-5-5h-.38a5,5,0,0,0-5,4.94,5,5,0,0,0-5-4.94H57.73a5,5,0,0,0-5,5,5,5,0,0,0-5-5h-.37a5,5,0,0,0-5,4.94,5,5,0,0,0-5-4.94H34.93a5,5,0,0,0-5,4.94,5,5,0,0,0-5-4.94h-.38a5,5,0,0,0-5,4.94,5,5,0,0,0-5-4.94H12.14a5,5,0,0,0-4.74,3.44A4.93,4.93,0,0,0,5,276a5,5,0,0,0-5,5v.38a5,5,0,0,0,4.93,5,5,5,0,0,0-4.93,5v2.49a5,5,0,0,0,4.93,5,5,5,0,0,0-4.93,5v.37a5,5,0,0,0,5,5,5,5,0,0,0-5,5v2.49a5,5,0,0,0,4.93,5,5,5,0,0,0-4.93,5V327a5,5,0,0,0,5,5,5,5,0,0,0-5,5v2.49a5,5,0,0,0,5,5,5,5,0,0,0-5,5v.37a5,5,0,0,0,4.93,5,5,5,0,0,0-4.93,5v2.49a5,5,0,0,0,4.93,5,5,5,0,0,0-4.93,5v.38a5,5,0,0,0,4.93,5,5,5,0,0,0-4.93,5V385a5,5,0,0,0,4.93,5A5,5,0,0,0,0,395v.37a5,5,0,0,0,4.94,5,5,5,0,0,0-4.94,5v2.49a5,5,0,0,0,4.93,5,5,5,0,0,0-4.93,5v.38a5,5,0,0,0,4.94,5,5,5,0,0,0-4.94,5v2.49a5,5,0,0,0,4.93,5,5,5,0,0,0-4.93,5v.37a5,5,0,0,0,5,5,5,5,0,0,0-5,5v2.49a5,5,0,0,0,5,5,5,5,0,0,0-5,5v.38a5,5,0,0,0,4.94,5,5,5,0,0,0-4.94,5v2.49a5,5,0,0,0,5,5,5,5,0,0,0-5,5v.37a5,5,0,0,0,4.94,5,5,5,0,0,0-4.94,5V499a5,5,0,0,0,4.93,5A5,5,0,0,0,0,509v.38a5,5,0,0,0,4.94,5,5,5,0,0,0-4.94,5v2.49a5,5,0,0,0,4.94,5,5,5,0,0,0-4.94,5v.37a5,5,0,0,0,4.94,5,5,5,0,0,0-4.94,5v2.5a5,5,0,0,0,4.94,5,5,5,0,0,0-4.94,5v.38a5,5,0,0,0,7.4,4.35,5,5,0,0,0,4.73,3.44h2.49a5,5,0,0,0,5-4.93,5,5,0,0,0,5,4.93H25a5,5,0,0,0,5-5,5,5,0,0,0,5,5h2.49a5,5,0,0,0,5-5,5,5,0,0,0,5,5h.37a5,5,0,0,0,5-4.93,5,5,0,0,0,5,4.93h2.49a5,5,0,0,0,5-5,5,5,0,0,0,5,5h.38a5,5,0,0,0,5-4.93,5,5,0,0,0,5,4.93H83a5,5,0,0,0,5-4.93,5,5,0,0,0,5,4.93h.38a5,5,0,0,0,5-4.93,5,5,0,0,0,5,4.93h2.49a5,5,0,0,0,5-4.93,5,5,0,0,0,5,4.93h.38a5,5,0,0,0,5-4.93,5,5,0,0,0,5,4.93h2.49a5,5,0,0,0,5-4.93,5,5,0,0,0,5,4.93h.38a5,5,0,0,0,5-5,5,5,0,0,0,5,5h2.49a5,5,0,0,0,5-4.93,5,5,0,0,0,5,4.93h.38a5,5,0,0,0,5-5,5,5,0,0,0,5,5h2.49a5,5,0,0,0,5-5,5,5,0,0,0,5,5h.38a5,5,0,0,0,5-4.93,5,5,0,0,0,5,4.93H197a5,5,0,0,0,5-4.93,5,5,0,0,0,5,4.93h.39a5,5,0,0,0,5-4.93,5,5,0,0,0,5,4.93h2.49a5,5,0,0,0,5-4.93,5,5,0,0,0,5,4.93h.38a5,5,0,0,0,5-4.93,5,5,0,0,0,5,4.93h2.49a5,5,0,0,0,5-4.93,5,5,0,0,0,5,4.93h.38a5,5,0,0,0,5-4.93,5,5,0,0,0,5,4.93h2.49a5,5,0,0,0,5-4.93,5,5,0,0,0,5,4.93h.38a5,5,0,0,0,5-5,5,5,0,0,0,5,5h2.49a5,5,0,0,0,5-4.93,5,5,0,0,0,5,4.93h.37a5,5,0,0,0,5-5,5,5,0,0,0,5,5H311a5,5,0,0,0,5-5,5,5,0,0,0,5,5h.38a5,5,0,0,0,5-4.93,5,5,0,0,0,5,4.93h2.49a5,5,0,0,0,5-4.93,5,5,0,0,0,5,4.93h.37a5,5,0,0,0,5-4.93,5,5,0,0,0,5,4.93h2.49a5,5,0,0,0,5-4.93,5,5,0,0,0,5,4.93h.38a5,5,0,0,0,5-4.93,5,5,0,0,0,5,4.93h2.49a5,5,0,0,0,5-4.93,5,5,0,0,0,5,4.93h.37a5,5,0,0,0,5-4.93,5,5,0,0,0,5,4.93h2.49a5,5,0,0,0,5-4.93,5,5,0,0,0,5,4.93h.38a5,5,0,0,0,5-5,5,5,0,0,0,5,5h2.5a5,5,0,0,0,5-4.93,5,5,0,0,0,5,4.93h.37a5,5,0,0,0,5-5,5,5,0,0,0,5,5h2.49a5,5,0,0,0,5-5,5,5,0,0,0,5,5h.38a5,5,0,0,0,5-4.93,5,5,0,0,0,5,4.93h2.49a5,5,0,0,0,5-4.93,5,5,0,0,0,5,4.93h.37a5,5,0,0,0,5-4.93,5,5,0,0,0,5,4.93h2.49a5,5,0,0,0,5-4.93,5,5,0,0,0,5,4.93h.38a5,5,0,0,0,5-4.93,5,5,0,0,0,5,4.93h2.49a5,5,0,0,0,5-4.93,5,5,0,0,0,5,4.93h.37a5,5,0,0,0,5-4.93,5,5,0,0,0,5,4.93h2.49a5,5,0,0,0,5-4.93,5,5,0,0,0,5,4.93h.38a5,5,0,0,0,5-5,5,5,0,0,0,5,5h2.49a5,5,0,0,0,5-5,5,5,0,0,0,5,5H572a5,5,0,0,0,5-4.93,5,5,0,0,0,5,4.93h2.48a5,5,0,0,0,5-5,5,5,0,0,0,5,5h.38a5,5,0,0,0,5-4.93,5,5,0,0,0,5,4.93h2.49a5,5,0,0,0,5-4.93,5,5,0,0,0,5,4.93h.37a5,5,0,0,0,5-4.93,5,5,0,0,0,5,4.93h2.48a5,5,0,0,0,5-4.93,5,5,0,0,0,5,4.93h.38a5,5,0,0,0,5-4.93,5,5,0,0,0,5,4.93h2.49a5,5,0,0,0,5-4.93,5,5,0,0,0,5,4.93h.37a5,5,0,0,0,5-5,5,5,0,0,0,5,5h2.48a5,5,0,0,0,5-4.93,5,5,0,0,0,5,4.93H686a5,5,0,0,0,5-4.93,5,5,0,0,0,5,4.93h2.49a5,5,0,0,0,5-5,5,5,0,0,0,5,5h.38a5,5,0,0,0,5-4.93,5,5,0,0,0,5,4.93h2.49a5,5,0,0,0,5-4.93,5,5,0,0,0,5,4.93h.38a5,5,0,0,0,5-4.93,5,5,0,0,0,5,4.93h2.49a5,5,0,0,0,5-4.93,5,5,0,0,0,5,4.93h.38a5,5,0,0,0,5-4.93,5,5,0,0,0,5,4.93h2.49a5,5,0,0,0,5-4.93,5,5,0,0,0,5,4.93h.37a5,5,0,0,0,5-5,5,5,0,0,0,5,5h2.49a5,5,0,0,0,5-4.93,5,5,0,0,0,5,4.93H800a5,5,0,0,0,5-5,5,5,0,0,0,5,5h2.5a5,5,0,0,0,5-5,5,5,0,0,0,5,5h.37a5,5,0,0,0,5-4.93,5,5,0,0,0,5,4.93h2.49a5,5,0,0,0,5-5,5,5,0,0,0,5,5h.37a5,5,0,0,0,5-4.93,5,5,0,0,0,5,4.93H858a5,5,0,0,0,5-4.93,5,5,0,0,0,5,4.93h.37a5,5,0,0,0,5-4.93,5,5,0,0,0,5,4.93h2.49a5,5,0,0,0,5-4.93,5,5,0,0,0,5,4.93h.38a5,5,0,0,0,5-4.93,5,5,0,0,0,5,4.93h2.5a5,5,0,0,0,5-4.93,5,5,0,0,0,5,4.93H914a5,5,0,0,0,5-5,5,5,0,0,0,5,5h2.49a5,5,0,0,0,5-4.93,5,5,0,0,0,5,4.93h.38a5,5,0,0,0,5-5,5,5,0,0,0,5,5h2.49a5,5,0,0,0,5-5,5,5,0,0,0,5,5h.38a5,5,0,0,0,5-4.88,5,5,0,0,0,5,4.88H972a5,5,0,0,0,5-4.88,5,5,0,0,0,5,4.88h.38a5,5,0,0,0,5-5,5,5,0,0,0,5,5h2.49a5,5,0,0,0,4-8,4.94,4.94,0,0,0,1-3v-2.5a5,5,0,0,0-4.94-5,5,5,0,0,0,4.94-5v-.37a5,5,0,0,0-5-5,5,5,0,0,0,5-5v-2.49a5,5,0,0,0-5-5,5,5,0,0,0,5-5v-.38a5,5,0,0,0-4.93-5,5,5,0,0,0,4.93-5v-2.49a5,5,0,0,0-5-5,5,5,0,0,0,5-5v-.37a5,5,0,0,0-4.93-5,5,5,0,0,0,4.93-5v-2.49a5,5,0,0,0-4.94-5,5,5,0,0,0,4.94-5v-.38a5,5,0,0,0-4.93-5,5,5,0,0,0,4.93-5v-2.5a5,5,0,0,0-4.93-5,5,5,0,0,0,4.93-5v-.37a5,5,0,0,0-4.93-5,5,5,0,0,0,4.93-5v-2.49a5,5,0,0,0-4.93-5,5,5,0,0,0,4.93-5v-.37a5,5,0,0,0-5-5,5,5,0,0,0,5-5v-2.5a5,5,0,0,0-4.93-5,5,5,0,0,0,4.93-5v-.37a5,5,0,0,0-5-5,5,5,0,0,0,5-5v-2.49a5,5,0,0,0-5-5,5,5,0,0,0,5-5v-.38a5,5,0,0,0-4.93-5,5,5,0,0,0,4.93-5v-2.49a5,5,0,0,0-4.93-5,5,5,0,0,0,4.93-5v-.37a5,5,0,0,0-4.94-5,5,5,0,0,0,4.94-5v-2.49a5,5,0,0,0-4.93-5,5,5,0,0,0,4.93-5v-.38a5,5,0,0,0-4.94-5,5,5,0,0,0,4.94-5V321.3a5,5,0,0,0-4.93-5,5,5,0,0,0,4.93-5V311a5,5,0,0,0-4.94-5,5,5,0,0,0,4.94-5V298.5a5,5,0,0,0-4.94-5,5,5,0,0,0,4.94-5v-.38a5,5,0,0,0-5-5"/></g></g></svg>