<svg width="45" height="44" viewBox="0 0 45 44" fill="none" xmlns="http://www.w3.org/2000/svg">
<path d="M34.1017 10H10.412C9.57562 10.0014 8.77389 10.3371 8.18248 10.9337C7.59106 11.5302 7.2582 12.339 7.25684 13.1826V30.8174C7.2582 31.661 7.59106 32.4698 8.18248 33.0663C8.77389 33.6629 9.57562 33.9986 10.412 34H34.1017C34.938 33.9986 35.7398 33.6629 36.3312 33.0663C36.9226 32.4698 37.2555 31.661 37.2568 30.8174V13.1826C37.2555 12.339 36.9226 11.5302 36.3312 10.9337C35.7398 10.3371 34.938 10.0014 34.1017 10ZM23.2913 27.2174V28.2609C23.2913 28.5376 23.1823 28.803 22.9883 28.9987C22.7943 29.1944 22.5312 29.3043 22.2568 29.3043C21.9825 29.3043 21.7193 29.1944 21.5253 28.9987C21.3313 28.803 21.2224 28.5376 21.2224 28.2609V27.2174H20.1879C19.9135 27.2174 19.6504 27.1075 19.4564 26.9118C19.2624 26.7161 19.1534 26.4507 19.1534 26.1739C19.1534 25.8972 19.2624 25.6318 19.4564 25.4361C19.6504 25.2404 19.9135 25.1304 20.1879 25.1304H23.2913C23.5657 25.1304 23.8288 25.0205 24.0228 24.8248C24.2168 24.6291 24.3258 24.3637 24.3258 24.087C24.3258 23.8102 24.2168 23.5448 24.0228 23.3491C23.8288 23.1534 23.5657 23.0435 23.2913 23.0435H21.7396C20.9646 23.0389 20.2193 22.7421 19.6503 22.2112C19.0813 21.6804 18.7298 20.954 18.665 20.175C18.6002 19.396 18.8266 18.6207 19.2999 18.0016C19.7731 17.3825 20.4589 16.9644 21.2224 16.8296V15.7391C21.2224 15.4624 21.3313 15.197 21.5253 15.0013C21.7193 14.8056 21.9825 14.6957 22.2568 14.6957C22.5312 14.6957 22.7943 14.8056 22.9883 15.0013C23.1823 15.197 23.2913 15.4624 23.2913 15.7391V16.7826H24.843C25.1174 16.7826 25.3805 16.8925 25.5745 17.0882C25.7685 17.2839 25.8775 17.5493 25.8775 17.8261C25.8775 18.1028 25.7685 18.3682 25.5745 18.5639C25.3805 18.7596 25.1174 18.8696 24.843 18.8696H21.7396C21.4652 18.8696 21.2021 18.9795 21.0081 19.1752C20.8141 19.3709 20.7051 19.6363 20.7051 19.913C20.7051 20.1898 20.8141 20.4552 21.0081 20.6509C21.2021 20.8466 21.4652 20.9565 21.7396 20.9565H23.2913C24.1144 20.9565 24.9038 21.2863 25.4858 21.8734C26.0678 22.4605 26.3948 23.2567 26.3948 24.087C26.3948 24.9172 26.0678 25.7134 25.4858 26.3005C24.9038 26.8876 24.1144 27.2174 23.2913 27.2174Z" fill="#0C6F97"/>
</svg>
