<svg width="45" height="44" viewBox="0 0 45 44" fill="none" xmlns="http://www.w3.org/2000/svg">
<path d="M34.6164 17.5952H32.8624L27.5833 22.8747C27.5163 22.9417 27.4391 22.9975 27.355 23.0396L22.1287 25.6527C21.7528 25.8398 21.3494 25.9316 20.9495 25.9316C20.2656 25.9316 19.5919 25.6656 19.0855 25.1584C18.2823 24.3552 18.0832 23.1323 18.5912 22.1161L20.8513 17.5952H9.8932C8.43943 17.5952 7.25684 18.7777 7.25684 20.2315V34.3507C7.25684 35.8045 8.43943 36.9871 9.8932 36.9871H34.6164C36.0701 36.9871 37.2527 35.8045 37.2527 34.3507V20.2315C37.2527 18.7777 36.0701 17.5952 34.6164 17.5952ZM11.6508 24.6255H16.9821C17.4678 24.6255 17.8609 25.0185 17.8609 25.5042C17.8609 25.99 17.4678 26.383 16.9821 26.383H11.6508C11.165 26.383 10.772 25.99 10.772 25.5042C10.772 25.0185 11.165 24.6255 11.6508 24.6255ZM32.8588 33.4719H11.6508C11.165 33.4719 10.772 33.0788 10.772 32.5931C10.772 32.1073 11.165 31.7143 11.6508 31.7143H32.8588C33.3445 31.7143 33.7376 32.1073 33.7376 32.5931C33.7376 33.0788 33.3445 33.4719 32.8588 33.4719ZM32.8588 29.9567H11.6508C11.165 29.9567 10.772 29.5637 10.772 29.0779C10.772 28.5922 11.165 28.1991 11.6508 28.1991H32.8588C33.3445 28.1991 33.7376 28.5922 33.7376 29.0779C33.7376 29.5637 33.3445 29.9567 32.8588 29.9567Z" fill="#0C6F97"/>
<path d="M36.4844 7.75944C35.488 6.76305 33.7493 6.76475 32.7564 7.75944L32.1348 8.381L35.8634 12.1093L36.4844 11.4882C36.9822 10.9905 37.2568 10.3279 37.2568 9.62336C37.2568 8.91971 36.9822 8.25719 36.4844 7.75944Z" fill="#0C6F97"/>
<path d="M22.3662 18.4961L20.1641 22.9012C19.995 23.2393 20.0611 23.6479 20.3289 23.9156C20.498 24.0847 20.7228 24.1731 20.9502 24.1731C21.0841 24.1731 21.2179 24.143 21.3432 24.0804L25.7483 21.8783L22.3662 18.4961Z" fill="#0C6F97"/>
<path d="M30.8929 9.62393L23.4355 17.0806L27.1643 20.8093L34.6215 13.3522L30.8929 9.62393Z" fill="#0C6F97"/>
</svg>
