<svg width="45" height="44" viewBox="0 0 45 44" fill="none" xmlns="http://www.w3.org/2000/svg">
<g clip-path="url(#clip0_698_12917)">
<path d="M23.6054 22.4613C25.6435 22.4613 27.2957 20.8091 27.2957 18.771C27.2957 16.7329 25.6435 15.0807 23.6054 15.0807C21.5673 15.0807 19.915 16.7329 19.915 18.771C19.915 20.8091 21.5673 22.4613 23.6054 22.4613Z" fill="#E2EEF3"/>
<path d="M19.915 18.771C19.915 16.7129 21.5473 15.0807 23.6054 15.0807C25.6634 15.0807 27.2957 16.7129 27.2957 18.771C27.2957 20.829 25.6634 22.4613 23.6054 22.4613" fill="#6DA9C0"/>
<path d="M21.0508 16.1452C22.4701 14.7258 24.8121 14.7258 26.2314 16.1452C27.6508 17.5645 27.6508 19.9065 26.2314 21.3258" fill="#0C6F97"/>
<path d="M2.24393 15.2935H0.256836V22.2484H2.24393C3.30845 22.2484 4.08909 21.9645 4.7278 21.4677C5.50845 20.829 6.00522 19.8355 6.00522 18.771C6.00522 16.7129 4.5149 15.2935 2.24393 15.2935ZM3.87619 20.5452C3.45038 20.9 2.88264 21.1129 2.03103 21.1129H1.60522V16.5H1.96006C2.81167 16.5 3.37942 16.6419 3.80522 17.0677C4.302 17.4935 4.58587 18.1323 4.58587 18.771C4.65684 19.4097 4.37296 20.1194 3.87619 20.5452Z" fill="#0C6F97"/>
<path d="M7.99194 15.2935H6.64355V22.2484H7.99194V15.2935Z" fill="#0C6F97"/>
<path d="M11.3993 17.9903C10.5476 17.7065 10.3347 17.4936 10.3347 17.1387C10.3347 16.7129 10.7605 16.3581 11.3283 16.3581C11.7541 16.3581 12.1089 16.5 12.4638 16.9258L13.1735 16.0032C12.6057 15.5065 11.896 15.2226 11.1154 15.2226C9.90893 15.2226 8.91539 16.0742 8.91539 17.2097C8.91539 18.2032 9.34119 18.629 10.6186 19.1258C11.1864 19.3387 11.3993 19.4097 11.5412 19.5516C11.8251 19.6936 11.967 19.9774 11.967 20.2613C11.967 20.829 11.5412 21.2549 10.9025 21.2549C10.2638 21.2549 9.69603 20.9 9.41216 20.3323L8.56055 21.1839C9.19926 22.1065 9.9799 22.5323 10.9735 22.5323C12.3928 22.5323 13.3864 21.6097 13.3864 20.2613C13.3864 19.0549 12.9605 18.5581 11.3993 17.9903Z" fill="#0C6F97"/>
<path d="M13.8115 18.771C13.8115 20.829 15.4438 22.3903 17.5018 22.3903C18.0696 22.3903 18.5664 22.2484 19.2051 21.9645V20.3323C18.6373 20.9 18.1406 21.1129 17.5728 21.1129C16.2244 21.1129 15.2309 20.1194 15.2309 18.7C15.2309 17.3516 16.2244 16.2871 17.5018 16.2871C18.1406 16.2871 18.6373 16.5 19.2051 17.0677V15.4355C18.6373 15.1516 18.1406 15.0097 17.5018 15.0097C15.5147 15.1516 13.8115 16.7839 13.8115 18.771Z" fill="#0C6F97"/>
<path d="M30.3472 19.9774L28.502 15.2935H27.0117L29.9214 22.4613H30.702L33.7537 15.2935H32.2633L30.3472 19.9774Z" fill="#0C6F97"/>
<path d="M34.3213 22.2484H38.2245V21.1129H35.7406V19.1968H38.1535V17.9903H35.7406V16.5H38.2245V15.2935H34.3213V22.2484Z" fill="#0C6F97"/>
<path d="M42.0571 19.3387C43.1217 19.1258 43.6894 18.4161 43.6894 17.3516C43.6894 16.0742 42.7668 15.2935 41.2055 15.2935H39.1475V22.2484H40.4958V19.4806H40.7088L42.6249 22.2484H44.2571L42.0571 19.3387ZM40.9217 18.4871H40.4958V16.3581H40.9217C41.7733 16.3581 42.27 16.7129 42.27 17.4226C42.27 18.1323 41.7733 18.4871 40.9217 18.4871Z" fill="#0C6F97"/>
<path d="M2.24393 15.2935H0.256836V22.2484H2.24393C3.30845 22.2484 4.08909 21.9645 4.7278 21.4677C5.50845 20.829 6.00522 19.8355 6.00522 18.771C6.00522 16.7129 4.5149 15.2935 2.24393 15.2935ZM3.87619 20.5452C3.45038 20.9 2.88264 21.1129 2.03103 21.1129H1.60522V16.5H1.96006C2.81167 16.5 3.37942 16.6419 3.80522 17.0677C4.302 17.4935 4.58587 18.1323 4.58587 18.771C4.65684 19.4097 4.37296 20.1194 3.87619 20.5452Z" fill="#0C6F97"/>
<path d="M7.99194 15.2935H6.64355V22.2484H7.99194V15.2935Z" fill="#0C6F97"/>
<path d="M11.3993 17.9903C10.5476 17.7065 10.3347 17.4936 10.3347 17.1387C10.3347 16.7129 10.7605 16.3581 11.3283 16.3581C11.7541 16.3581 12.1089 16.5 12.4638 16.9258L13.1735 16.0032C12.6057 15.5065 11.896 15.2226 11.1154 15.2226C9.90893 15.2226 8.91539 16.0742 8.91539 17.2097C8.91539 18.2032 9.34119 18.629 10.6186 19.1258C11.1864 19.3387 11.3993 19.4097 11.5412 19.5516C11.8251 19.6936 11.967 19.9774 11.967 20.2613C11.967 20.829 11.5412 21.2549 10.9025 21.2549C10.2638 21.2549 9.69603 20.9 9.41216 20.3323L8.56055 21.1839C9.19926 22.1065 9.9799 22.5323 10.9735 22.5323C12.3928 22.5323 13.3864 21.6097 13.3864 20.2613C13.3864 19.0549 12.9605 18.5581 11.3993 17.9903Z" fill="#0C6F97"/>
<path d="M42.0571 19.3387C43.1217 19.1258 43.6894 18.4161 43.6894 17.3516C43.6894 16.0742 42.7668 15.2935 41.2055 15.2935H39.1475V22.2484H40.4958V19.4806H40.7088L42.6249 22.2484H44.2571L42.0571 19.3387ZM40.9217 18.4871H40.4958V16.3581H40.9217C41.7733 16.3581 42.27 16.7129 42.27 17.4226C42.27 18.1323 41.7733 18.4871 40.9217 18.4871Z" fill="#0C6F97"/>
<path d="M10.2637 28.7064V24.8032L12.9604 27.571V25.0161H13.5282V28.9194L10.8314 26.1516V28.7064H10.2637Z" fill="#0C6F97"/>
<path d="M16.3667 25.5839H14.8763V26.4355H16.2957V27.0032H14.8763V28.2097H16.3667V28.7064H14.3086V25.0161H16.3667V25.5839Z" fill="#0C6F97"/>
<path d="M18.141 25.5839V28.7065H17.5733V25.5839H16.7217V25.0871H18.9926V25.5839H18.141Z" fill="#0C6F97"/>
<path d="M19.8441 25.0871L20.7667 27.571L21.7602 24.9452L22.6828 27.571L23.6764 25.0871H24.386L22.7538 28.9903L21.8312 26.3645L20.8377 28.9903L19.2764 25.0871H19.8441Z" fill="#0C6F97"/>
<path d="M24.457 26.8613C24.457 26.3645 24.6699 25.8677 25.0248 25.5129C25.3796 25.1581 25.8764 24.9452 26.3732 24.9452C26.8699 24.9452 27.3667 25.1581 27.7215 25.5129C28.0764 25.8677 28.2893 26.3645 28.2893 26.8613C28.2893 27.3581 28.0764 27.8548 27.7215 28.2097C27.3667 28.5645 26.8699 28.7774 26.3732 28.7774C25.8764 28.7774 25.4506 28.6355 25.0957 28.2806C24.6699 27.9258 24.457 27.5 24.457 26.8613ZM25.0248 26.8613C25.0248 27.2871 25.1667 27.571 25.4506 27.8548C25.7345 28.1387 26.0183 28.2806 26.3732 28.2806C26.728 28.2806 27.0828 28.1387 27.3667 27.8548C27.6506 27.571 27.7925 27.2871 27.7925 26.8613C27.7925 26.4355 27.6506 26.1516 27.3667 25.8677C27.0828 25.5839 26.799 25.4419 26.3732 25.4419C26.0183 25.4419 25.6635 25.5839 25.3796 25.8677C25.1667 26.1516 25.0248 26.5064 25.0248 26.8613Z" fill="#0C6F97"/>
<path d="M30.2764 27.1451L31.4119 28.7064H30.7023L29.6377 27.2161H29.5668V28.7064H28.999V25.0161H29.6377C30.1345 25.0161 30.4893 25.0871 30.7023 25.3C30.9152 25.5129 31.0571 25.7968 31.0571 26.0806C31.0571 26.3645 30.9861 26.5774 30.8442 26.7193C30.7022 27.0032 30.4893 27.1451 30.2764 27.1451ZM29.5668 26.7193H29.7087C30.2055 26.7193 30.4893 26.5064 30.4893 26.1516C30.4893 25.7968 30.2055 25.5839 29.7087 25.5839H29.4958V26.7193H29.5668Z" fill="#0C6F97"/>
<path d="M32.4766 26.5064L33.896 25.0161H34.6056L32.9734 26.6484L34.6056 28.6355H33.896L32.5476 27.0032L32.4056 27.1452V28.6355H31.8379V24.9452H32.4056V26.5064H32.4766Z" fill="#0C6F97"/>
</g>
<defs>
<clipPath id="clip0_698_12917">
<rect width="44" height="44" fill="white" transform="translate(0.256836)"/>
</clipPath>
</defs>
</svg>
