<svg width="57" height="44" viewBox="0 0 57 44" fill="none" xmlns="http://www.w3.org/2000/svg">
<g clip-path="url(#clip0_698_12902)">
<path d="M10.1962 43.9036V40.9835C10.1962 39.8665 9.52056 39.1351 8.36074 39.1351C7.78082 39.1351 7.15024 39.3278 6.71671 39.9629C6.3789 39.4299 5.8947 39.1351 5.1684 39.1351C4.6842 39.1351 4.20001 39.2825 3.81715 39.8155V39.2315H2.80371V43.9036H3.81715V41.3237C3.81715 40.4959 4.25068 40.1046 4.9263 40.1046C5.60193 40.1046 5.93974 40.5412 5.93974 41.3237V43.9036H6.95318V41.3237C6.95318 40.4959 7.43738 40.1046 8.06234 40.1046C8.73796 40.1046 9.07577 40.5412 9.07577 41.3237V43.9036H10.1962ZM25.2289 39.2315H23.5849V37.8196H22.5714V39.2315H21.6537V40.1557H22.5714V42.299C22.5714 43.3706 23.0049 44 24.1648 44C24.5983 44 25.0825 43.8526 25.4203 43.6598L25.1275 42.7809C24.8348 42.9737 24.4969 43.0247 24.2548 43.0247C23.7706 43.0247 23.5792 42.7299 23.5792 42.2479V40.1557H25.2232V39.2315H25.2289ZM33.8319 39.1294C33.2519 39.1294 32.8635 39.4242 32.6214 39.8098V39.2258H31.6079V43.8979H32.6214V41.267C32.6214 40.4902 32.9592 40.0479 33.5897 40.0479C33.7812 40.0479 34.0233 40.099 34.2203 40.1443L34.5131 39.1691C34.3104 39.1294 34.0233 39.1294 33.8319 39.1294ZM20.8317 39.617C20.3475 39.2768 19.6718 39.1294 18.9455 39.1294C17.7857 39.1294 17.0144 39.7134 17.0144 40.6376C17.0144 41.4144 17.5943 41.8567 18.6077 41.9985L19.0919 42.0495C19.6212 42.1459 19.9139 42.2933 19.9139 42.5371C19.9139 42.8773 19.5255 43.1211 18.8498 43.1211C18.1742 43.1211 17.6393 42.8773 17.3015 42.6335L16.8173 43.4103C17.3466 43.8016 18.0729 43.9943 18.7992 43.9943C20.1504 43.9943 20.9274 43.3593 20.9274 42.4861C20.9274 41.6583 20.2968 41.2217 19.334 41.0742L18.8498 41.0232C18.4163 40.9722 18.0785 40.8758 18.0785 40.5866C18.0785 40.2464 18.4163 40.0536 18.9512 40.0536C19.5311 40.0536 20.111 40.2974 20.4038 40.4449L20.8317 39.617ZM47.7948 39.1294C47.2149 39.1294 46.8264 39.4242 46.5843 39.8098V39.2258H45.5709V43.8979H46.5843V41.267C46.5843 40.4902 46.9221 40.0479 47.5527 40.0479C47.7441 40.0479 47.9862 40.099 48.1833 40.1443L48.476 39.1804C48.279 39.1294 47.9919 39.1294 47.7948 39.1294ZM34.8453 41.5675C34.8453 42.9794 35.8137 44 37.3113 44C37.9869 44 38.4711 43.8526 38.9553 43.467L38.4711 42.6392C38.0827 42.934 37.6998 43.0758 37.2607 43.0758C36.4386 43.0758 35.8587 42.4918 35.8587 41.5675C35.8587 40.6887 36.4386 40.1046 37.2607 40.0593C37.6942 40.0593 38.0827 40.2067 38.4711 40.4959L38.9553 39.668C38.4711 39.2768 37.9869 39.1351 37.3113 39.1351C35.8137 39.1294 34.8453 40.1557 34.8453 41.5675ZM44.2196 41.5675V39.2315H43.2062V39.8155C42.8684 39.3789 42.3842 39.1351 41.7536 39.1351C40.4474 39.1351 39.4339 40.1557 39.4339 41.5675C39.4339 42.9794 40.4474 44 41.7536 44C42.4292 44 42.9134 43.7562 43.2062 43.3196V43.9036H44.2196V41.5675ZM40.498 41.5675C40.498 40.7397 41.0273 40.0593 41.9 40.0593C42.722 40.0593 43.3019 40.6943 43.3019 41.5675C43.3019 42.3954 42.722 43.0758 41.9 43.0758C41.0329 43.0247 40.498 42.3897 40.498 41.5675ZM28.3705 39.1294C27.0193 39.1294 26.0509 40.1046 26.0509 41.5619C26.0509 43.0247 27.0193 43.9943 28.4212 43.9943C29.0968 43.9943 29.7725 43.8016 30.3073 43.3593L29.8231 42.6278C29.4346 42.9227 28.9504 43.1155 28.4719 43.1155C27.8413 43.1155 27.2163 42.8206 27.07 41.9985H30.4988C30.4988 41.851 30.4988 41.7546 30.4988 41.6072C30.5438 40.1046 29.6711 39.1294 28.3705 39.1294ZM28.3705 40.0083C29.0011 40.0083 29.4346 40.3995 29.5304 41.1253H27.115C27.2107 40.4959 27.6442 40.0083 28.3705 40.0083ZM53.5489 41.5675V37.383H52.5354V39.8155C52.1976 39.3789 51.7134 39.1351 51.0828 39.1351C49.7766 39.1351 48.7632 40.1557 48.7632 41.5675C48.7632 42.9794 49.7766 44 51.0828 44C51.7585 44 52.2427 43.7562 52.5354 43.3196V43.9036H53.5489V41.5675ZM49.8273 41.5675C49.8273 40.7397 50.3565 40.0593 51.2292 40.0593C52.0512 40.0593 52.6311 40.6943 52.6311 41.5675C52.6311 42.3954 52.0512 43.0758 51.2292 43.0758C50.3565 43.0247 49.8273 42.3897 49.8273 41.5675ZM15.8996 41.5675V39.2315H14.8862V39.8155C14.5483 39.3789 14.0641 39.1351 13.4336 39.1351C12.1274 39.1351 11.1139 40.1557 11.1139 41.5675C11.1139 42.9794 12.1274 44 13.4336 44C14.1092 44 14.5934 43.7562 14.8862 43.3196V43.9036H15.8996V41.5675ZM12.133 41.5675C12.133 40.7397 12.6622 40.0593 13.5349 40.0593C14.3569 40.0593 14.9368 40.6943 14.9368 41.5675C14.9368 42.3954 14.3569 43.0758 13.5349 43.0758C12.6622 43.0247 12.133 42.3897 12.133 41.5675Z" fill="#0C6F97"/>
<path d="M35.7183 3.74792H20.4941V31.2933H35.7183V3.74792Z" fill="#6DA9C0"/>
<path d="M21.5074 17.5206C21.5074 11.9242 24.1199 6.95722 28.1286 3.74794C25.1783 1.41186 21.4568 0 17.3974 0C7.78096 0 0 7.83608 0 17.5206C0 27.2052 7.78096 35.0412 17.3974 35.0412C21.4568 35.0412 25.1783 33.6294 28.1286 31.2933C24.1142 28.1294 21.5074 23.117 21.5074 17.5206Z" fill="#0C6F97"/>
<path d="M56.2575 17.5206C56.2575 27.2052 48.4765 35.0412 38.8601 35.0412C34.8007 35.0412 31.0791 33.6294 28.1289 31.2933C32.1883 28.0784 34.75 23.117 34.75 17.5206C34.75 11.9242 32.1376 6.95722 28.1289 3.74794C31.0735 1.41186 34.7951 0 38.8545 0C48.4765 0 56.2575 7.88711 56.2575 17.5206Z" fill="#E2EEF3"/>
</g>
<defs>
<clipPath id="clip0_698_12902">
<rect width="56.2571" height="44" fill="white"/>
</clipPath>
</defs>
</svg>
