<svg width="16" height="16" viewBox="0 0 16 16" fill="none" xmlns="http://www.w3.org/2000/svg">
<g clip-path="url(#clip0_1036_2501)">
<path fill-rule="evenodd" clip-rule="evenodd" d="M2.0166 0.000244141H9.44887L13.9826 4.72589V16.0002H2.0166V0.000244141Z" fill="#0C6F97"/>
<path opacity="0.302" fill-rule="evenodd" clip-rule="evenodd" d="M9.44531 0.000244141V4.6899H13.983L9.44531 0.000244141Z" fill="#E2EEF3"/>
<path d="M4.33203 11.9382V9.01562H5.57541C5.88326 9.01562 6.12715 9.09958 6.31105 9.2715C6.49496 9.43941 6.58692 9.66731 6.58692 9.95116C6.58692 10.235 6.49496 10.4629 6.31105 10.6308C6.12715 10.8027 5.88326 10.8867 5.57541 10.8867H5.07966V11.9382H4.33203ZM5.07966 10.251H5.49146C5.60339 10.251 5.69135 10.227 5.75133 10.1711C5.81129 10.1191 5.8433 10.0471 5.8433 9.95118C5.8433 9.85523 5.81131 9.78326 5.75133 9.73129C5.69137 9.67531 5.60341 9.65134 5.49146 9.65134H5.07966V10.251ZM6.89475 11.9382V9.01562H7.93023C8.13413 9.01562 8.32604 9.0436 8.50594 9.10358C8.68584 9.16354 8.84977 9.24752 8.99369 9.36346C9.13763 9.4754 9.25357 9.62732 9.33752 9.81923C9.41748 10.0111 9.46147 10.231 9.46147 10.4789C9.46147 10.7228 9.4175 10.9427 9.33752 11.1346C9.25357 11.3265 9.13763 11.4784 8.99369 11.5903C8.84975 11.7063 8.68584 11.7902 8.50594 11.8502C8.32604 11.9102 8.13413 11.9382 7.93023 11.9382H6.89475ZM7.62638 11.3025H7.84227C7.95821 11.3025 8.06616 11.2905 8.16611 11.2625C8.26205 11.2345 8.35402 11.1905 8.44198 11.1306C8.52593 11.0706 8.5939 10.9866 8.64187 10.8747C8.68984 10.7628 8.71384 10.6308 8.71384 10.4789C8.71384 10.323 8.68984 10.191 8.64187 10.0791C8.5939 9.96717 8.52593 9.88321 8.44198 9.82323C8.35402 9.76327 8.26207 9.71928 8.16611 9.6913C8.06616 9.66332 7.95821 9.65131 7.84227 9.65131H7.62638V11.3025ZM9.83728 11.9382V9.01562H11.9163V9.65131H10.5849V10.1191H11.6484V10.7508H10.5849V11.9382H9.83728Z" fill="#E2EEF3"/>
</g>
<defs>
<clipPath id="clip0_1036_2501">
<rect width="16" height="16" fill="white" transform="translate(0 0.000244141)"/>
</clipPath>
</defs>
</svg>
