<svg width="16" height="16" viewBox="0 0 16 16" fill="none" xmlns="http://www.w3.org/2000/svg">
<path d="M7.36732 9.96683L6.13398 11.2002C5.87398 11.4602 5.46065 11.4602 5.19398 11.2068C5.12065 11.1335 5.04732 11.0668 4.97398 10.9935C4.28732 10.3002 3.66732 9.5735 3.11398 8.8135C2.56732 8.0535 2.12732 7.2935 1.80732 6.54016C1.49398 5.78016 1.33398 5.0535 1.33398 4.36016C1.33398 3.90683 1.41398 3.4735 1.57398 3.0735C1.73398 2.66683 1.98732 2.2935 2.34065 1.96016C2.76732 1.54016 3.23398 1.3335 3.72732 1.3335C3.91398 1.3335 4.10065 1.3735 4.26732 1.4535C4.44065 1.5335 4.59398 1.6535 4.71398 1.82683L6.26065 4.00683C6.38065 4.1735 6.46732 4.32683 6.52732 4.4735C6.58732 4.6135 6.62065 4.7535 6.62065 4.88016C6.62065 5.04016 6.57398 5.20016 6.48065 5.3535C6.39398 5.50683 6.26732 5.66683 6.10732 5.82683L5.60065 6.3535C5.52732 6.42683 5.49398 6.5135 5.49398 6.62016C5.49398 6.6735 5.50065 6.72016 5.51398 6.7735C5.53398 6.82683 5.55398 6.86683 5.56732 6.90683C5.68732 7.12683 5.89398 7.4135 6.18732 7.76016C6.48732 8.10683 6.80732 8.46016 7.15398 8.8135C7.22065 8.88016 7.29398 8.94683 7.36065 9.0135C7.62732 9.2735 7.63398 9.70016 7.36732 9.96683Z" fill="#0C6F97"/>
<path d="M14.6475 12.22C14.6475 12.4067 14.6142 12.6 14.5475 12.7867C14.5275 12.84 14.5075 12.8933 14.4809 12.9467C14.3675 13.1867 14.2209 13.4133 14.0275 13.6267C13.7009 13.9867 13.3409 14.2467 12.9342 14.4133C12.9275 14.4133 12.9209 14.42 12.9142 14.42C12.5209 14.58 12.0942 14.6667 11.6342 14.6667C10.9542 14.6667 10.2275 14.5067 9.46088 14.18C8.69421 13.8533 7.92755 13.4133 7.16755 12.86C6.90755 12.6667 6.00098 12 5.00098 11L7.37207 9.03516C7.55874 9.17516 8.93421 10.3333 9.07421 10.4067C9.10755 10.42 9.14755 10.44 9.19421 10.46C9.24755 10.48 9.30088 10.4867 9.36088 10.4867C9.47421 10.4867 9.56088 10.4467 9.63421 10.3733L10.1409 9.87334C10.3075 9.70667 10.4675 9.58 10.6209 9.5C10.7742 9.40667 10.9275 9.36 11.0942 9.36C11.2209 9.36 11.3542 9.38667 11.5009 9.44667C11.6475 9.50667 11.8009 9.59334 11.9675 9.70667L14.1742 11.2733C14.3475 11.3933 14.4675 11.5333 14.5409 11.7C14.6075 11.8667 14.6475 12.0333 14.6475 12.22Z" fill="#0C6F97"/>
</svg>
