<svg width="45" height="44" viewBox="0 0 45 44" fill="none" xmlns="http://www.w3.org/2000/svg">
<g clip-path="url(#clip0_698_12908)">
<path d="M16.3906 28.3206L18.6255 15.7492H22.1176L19.9525 28.3206H16.3906Z" fill="#0C6F97"/>
<path d="M32.5929 15.8889C31.8945 15.6095 30.7771 15.3302 29.3802 15.3302C25.8882 15.3302 23.3739 17.0762 23.3739 19.5905C23.3739 21.4762 25.1199 22.454 26.5167 23.0825C27.9136 23.7111 28.3326 24.1302 28.3326 24.6889C28.3326 25.527 27.2152 25.946 26.2374 25.946C24.8406 25.946 24.0723 25.7365 22.885 25.2476L22.3961 25.0381L21.9072 27.9016C22.7453 28.2508 24.2818 28.6 25.8882 28.6C29.5898 28.6 32.0342 26.854 32.0342 24.2C32.0342 22.7333 31.1263 21.6159 29.031 20.7079C27.7739 20.0794 27.0056 19.7302 27.0056 19.1016C27.0056 18.5429 27.6342 17.9841 29.031 17.9841C30.2183 17.9841 31.0564 18.1937 31.685 18.473L32.0342 18.6127L32.5929 15.8889Z" fill="#0C6F97"/>
<path d="M38.5999 15.7492C37.7618 15.7492 37.1332 15.819 36.784 16.6571L31.5459 28.3206H35.3173L36.0157 26.2254H40.4856L40.9046 28.3206H44.257L41.3237 15.7492H38.5999ZM36.9935 24.1302C37.203 23.5016 38.3903 20.4286 38.3903 20.4286C38.3903 20.4286 38.6697 19.6603 38.8792 19.1714L39.0888 20.3587C39.0888 20.3587 39.7872 23.5016 39.9269 24.2H36.9935V24.1302Z" fill="#0C6F97"/>
<path d="M9.96466 24.5492L9.61545 22.7333C8.98688 20.6381 6.96148 18.3333 4.72656 17.2159L7.86942 28.3905H11.6408L17.298 15.8191H13.5266L9.96466 24.5492Z" fill="#0C6F97"/>
<path fill-rule="evenodd" clip-rule="evenodd" d="M6.75207 15.749H0.256836L2.50366 16.4386C5.24557 17.4897 7.52016 19.177 8.82417 21.1382C9.14368 21.651 9.40834 22.1846 9.61557 22.7332L9.58275 22.5782C9.59389 22.6065 9.60483 22.6349 9.61557 22.6633L9.4876 22.1288L8.35842 16.7966C8.1489 15.9585 7.52033 15.749 6.75207 15.749Z" fill="#0C6F97" fill-opacity="0.6"/>
</g>
<defs>
<clipPath id="clip0_698_12908">
<rect width="44" height="44" fill="white" transform="translate(0.256836)"/>
</clipPath>
</defs>
</svg>
