<svg width="25" height="25" viewBox="0 0 25 25" fill="none" xmlns="http://www.w3.org/2000/svg">
<path d="M14.5863 12.2826L11.6618 10.918C11.4066 10.7995 11.1969 10.9323 11.1969 11.2148V13.7852C11.1969 14.0677 11.4066 14.2005 11.6618 14.082L14.585 12.7174C14.8415 12.5977 14.8415 12.4023 14.5863 12.2826ZM12.499 0C5.59538 0 -0.000976562 5.59635 -0.000976562 12.5C-0.000976562 19.4036 5.59538 25 12.499 25C19.4027 25 24.999 19.4036 24.999 12.5C24.999 5.59635 19.4027 0 12.499 0ZM12.499 17.5781C6.10059 17.5781 5.98861 17.0013 5.98861 12.5C5.98861 7.9987 6.10059 7.42187 12.499 7.42187C18.8975 7.42187 19.0094 7.9987 19.0094 12.5C19.0094 17.0013 18.8975 17.5781 12.499 17.5781Z" fill="white"/>
</svg>
