<svg width="83" height="56" viewBox="0 0 83 56" fill="none" xmlns="http://www.w3.org/2000/svg">
<g filter="url(#filter0_d_448_165)">
<path fill-rule="evenodd" clip-rule="evenodd" d="M5.19841 18.4697C4.62035 18.8663 4.61926 19.7192 5.19632 20.1173L30.5003 37.5749C31.1637 38.0325 32.0682 37.5577 32.0682 36.7518L32.0682 28.2089C32.0682 27.7055 32.4424 27.2805 32.9417 27.2166C37.3631 26.6504 41.5531 26.1091 45.8057 25.9728C50.7357 25.5466 55.6995 25.799 60.5635 26.7231C65.3173 27.535 69.682 29.9059 72.996 33.4765C76.4246 37.5656 78.5223 42.641 78.9988 48C78.9988 42.1906 79.1412 36.6717 76.3652 31.056C73.4603 25.6586 68.8776 21.4007 63.3394 18.9531C58.0419 16.4695 52.4633 14.6645 46.731 13.5794C42.052 12.602 37.5194 12.0088 32.9958 11.459C32.4935 11.398 32.1156 10.9718 32.1156 10.4659L32.1156 1.89894C32.1156 1.09418 31.2134 0.619067 30.5498 1.07439L5.19841 18.4697Z" fill="white"/>
</g>
<defs>
<filter id="filter0_d_448_165" x="0.76416" y="0.897461" width="82.2358" height="55.1025" filterUnits="userSpaceOnUse" color-interpolation-filters="sRGB">
<feFlood flood-opacity="0" result="BackgroundImageFix"/>
<feColorMatrix in="SourceAlpha" type="matrix" values="0 0 0 0 0 0 0 0 0 0 0 0 0 0 0 0 0 0 127 0" result="hardAlpha"/>
<feOffset dy="4"/>
<feGaussianBlur stdDeviation="2"/>
<feComposite in2="hardAlpha" operator="out"/>
<feColorMatrix type="matrix" values="0 0 0 0 0 0 0 0 0 0 0 0 0 0 0 0 0 0 0.25 0"/>
<feBlend mode="normal" in2="BackgroundImageFix" result="effect1_dropShadow_448_165"/>
<feBlend mode="normal" in="SourceGraphic" in2="effect1_dropShadow_448_165" result="shape"/>
</filter>
</defs>
</svg>
