<svg width="105" height="105" viewBox="0 0 105 105" fill="none" xmlns="http://www.w3.org/2000/svg">
<path d="M86.274 0.404297H18.9836C8.79357 0.404297 0.532959 8.87672 0.532959 19.328V85.6722C0.532959 96.1235 8.79357 104.596 18.9836 104.596H86.274C96.464 104.596 104.725 96.1235 104.725 85.6722V19.328C104.725 8.87672 96.464 0.404297 86.274 0.404297Z" fill="#1E3101"/>
<path d="M19.6746 73.3261V27.7329C19.6677 27.6618 19.6752 27.5901 19.6964 27.5221C19.7177 27.4541 19.7523 27.3912 19.7981 27.3375C19.844 27.2838 19.9001 27.2402 19.963 27.2096C20.0259 27.179 20.0943 27.1619 20.1639 27.1595C20.863 27.1124 21.8881 27.0766 23.2392 27.052C24.5902 27.0284 26.1745 27.0045 27.9922 26.9802C29.8095 26.9567 31.7432 26.9448 33.7934 26.9443C39.385 26.9443 44.0214 27.9241 47.7026 29.8836C51.1915 31.6563 54.078 34.467 55.9853 37.9484C57.8255 41.3658 58.7457 45.2967 58.7461 49.7409C58.7991 52.8506 58.314 55.9452 57.3133 58.8811C56.4377 61.3942 55.11 63.7165 53.3991 65.7273C51.7797 67.6099 49.8808 69.2188 47.7726 70.4945C45.6817 71.7589 43.4208 72.7009 41.0626 73.2903C38.7532 73.8796 36.3829 74.1804 34.0031 74.1864H28.796C26.9546 74.1864 25.2421 74.1744 23.6587 74.1505C22.074 74.1258 20.8858 74.09 20.0941 74.043C19.8145 74.043 19.6746 73.804 19.6746 73.3261ZM29.3202 35.7619V65.4405C29.8324 65.4405 30.2983 65.4524 30.718 65.4764C31.1375 65.501 31.5676 65.5245 32.0111 65.548C32.4535 65.5727 32.9544 65.5846 33.5138 65.5839C35.6278 65.612 37.7311 65.2727 39.7345 64.5803C41.5292 63.955 43.165 62.9263 44.5223 61.5694C45.888 60.1713 46.9379 58.4827 47.5979 56.6229C48.3495 54.4862 48.7165 52.2273 48.6811 49.956C48.724 47.8158 48.3682 45.6868 47.6327 43.6833C46.9769 41.9551 45.9356 40.4084 44.5923 39.1671C43.2201 37.9234 41.5973 37.0054 39.8395 36.4788C37.8766 35.8876 35.8391 35.5978 33.7934 35.6186C32.8607 35.6186 32.0802 35.6305 31.4519 35.6544C30.823 35.679 30.1124 35.7149 29.3202 35.7619V35.7619Z" fill="#99E83F"/>
<path d="M86.2136 47.7337C84.9 47.0414 83.501 46.535 82.0548 46.2282C80.4613 45.8532 78.832 45.6609 77.1971 45.6547C76.3127 45.6301 75.4296 45.7388 74.576 45.9773C74.0327 46.1014 73.5498 46.4189 73.213 46.8734C72.9852 47.237 72.8639 47.6599 72.8636 48.0921C72.8764 48.5114 73.0238 48.9146 73.2829 49.2391C73.6912 49.7289 74.1901 50.1309 74.7507 50.4219C75.7472 50.9723 76.7741 51.463 77.8261 51.8915C80.1719 52.6969 82.4134 53.7922 84.501 55.1533C85.9232 56.0739 87.1001 57.3425 87.926 58.8452C88.6204 60.268 88.9681 61.8424 88.9394 63.4332C88.9813 65.5339 88.396 67.5975 87.2621 69.3474C86.048 71.1238 84.3618 72.5048 82.4041 73.326C80.2833 74.2815 77.6623 74.7595 74.541 74.7599C72.5582 74.7804 70.5787 74.5882 68.6349 74.1863C67.1698 73.9019 65.7479 73.4198 64.4061 72.7526C64.2533 72.6716 64.1262 72.5478 64.0395 72.3954C63.9529 72.243 63.9103 72.0685 63.9169 71.8923V64.1501C63.9085 64.0743 63.9203 63.9975 63.9511 63.9281C63.9819 63.8586 64.0305 63.7991 64.0917 63.7558C64.1518 63.721 64.2207 63.7058 64.2894 63.7122C64.358 63.7186 64.4232 63.7463 64.4761 63.7917C66.0741 64.8014 67.8207 65.5398 69.6483 65.9781C71.3176 66.4072 73.0299 66.6358 74.7507 66.6591C76.3812 66.6591 77.5811 66.4441 78.3503 66.0139C78.6976 65.8509 78.9914 65.588 79.1961 65.2572C79.4008 64.9264 79.5076 64.5418 79.5036 64.1501C79.5036 63.5296 79.1542 62.9322 78.4552 62.3579C77.7563 61.7844 76.3351 61.0914 74.1915 60.2789C71.9968 59.4955 69.9159 58.4103 68.0057 57.053C66.6395 56.0785 65.5145 54.7896 64.7207 53.2894C64.0333 51.8768 63.6858 50.3159 63.7072 48.7373C63.7033 46.8405 64.2113 44.9796 65.175 43.3607C66.2737 41.578 67.8515 40.159 69.7183 39.2745C71.7681 38.2239 74.331 37.6982 77.4068 37.6974C79.2081 37.6826 81.0077 37.8144 82.7887 38.0917C84.0427 38.2569 85.2669 38.607 86.4233 39.1312C86.5182 39.1591 86.6054 39.2092 86.6782 39.2777C86.751 39.3461 86.8072 39.4309 86.8426 39.5254C86.8898 39.7005 86.9134 39.8814 86.9125 40.0631V47.3035C86.9174 47.3878 86.9006 47.4719 86.8638 47.5473C86.827 47.6228 86.7715 47.6871 86.7029 47.7337C86.6297 47.7811 86.5448 47.8063 86.4582 47.8063C86.3717 47.8063 86.2868 47.7811 86.2136 47.7337V47.7337Z" fill="#99E83F"/>
</svg>
