<svg width="105" height="105" viewBox="0 0 105 105" fill="none" xmlns="http://www.w3.org/2000/svg">
<g clip-path="url(#clip0_411_297)">
<path d="M68.0304 52.3857L86.7157 20.9856L95.7446 52.3857L86.7153 83.7783L68.0304 52.3857ZM58.9234 57.485L77.6112 88.88L45.0651 80.7656L21.5528 57.485H58.9234ZM77.6071 15.8824L58.9234 47.2825H21.5528L45.0651 24.0003L77.6071 15.8824V15.8824ZM104.281 41.6996L92.8822 0.427734L50.3345 11.4886L44.0362 22.265L31.2561 22.1759L0.11377 52.3885L31.2561 82.594H31.2573L44.0322 82.5021L50.3394 93.2786L92.8822 104.337L104.281 63.0735L97.8073 52.3861L104.281 41.7004L104.281 41.6996Z" fill="white"/>
</g>
<defs>
<clipPath id="clip0_411_297">
<rect width="104.192" height="104.192" fill="white" transform="translate(0.11377 0.404297)"/>
</clipPath>
</defs>
</svg>
