<svg width="169" height="50" viewBox="0 0 169 50" fill="none" xmlns="http://www.w3.org/2000/svg">
<path d="M106 46.2736L166.392 27.0718L112.863 39.5182" fill="white"/>
<path d="M111.629 46.3458L168.231 18.0063L117.337 38.6106" fill="white"/>
<g opacity="0.7">
<g opacity="0.7">
<path opacity="0.7" d="M116.271 46.1696L168.51 10.5645L120.875 37.7457" fill="white"/>
</g>
</g>
<g opacity="0.7">
<g opacity="0.7">
<path opacity="0.7" d="M121.527 46.1421L164.526 0L124.138 36.9199" fill="white"/>
</g>
</g>
<path d="M0 8.97461H3.07261V18.5367H14.9397V8.97461H18.0244V31.5454H14.9397V21.1217H3.07261V31.5454H0V8.97461Z" fill="white"/>
<path d="M35.1164 20.9418V27.5719C35.1164 28.4575 35.2132 29.0439 35.3947 29.355C35.5882 29.6423 35.939 29.7859 36.435 29.7859H36.7132C36.7979 29.7859 36.8584 29.7739 36.8947 29.75V31.7007L36.0963 31.9161C35.9269 31.952 35.806 31.964 35.7334 31.9759C35.6487 31.9879 35.5156 31.9879 35.3342 31.9879C34.4995 31.9879 33.8584 31.7486 33.3866 31.2818C33.1325 31.0305 32.939 30.7193 32.8059 30.3723C32.6729 30.0252 32.6003 29.6183 32.6003 29.1396C31.8019 30.109 30.9793 30.8271 30.1446 31.2938C29.3099 31.7605 28.3785 31.9879 27.3744 31.9879C25.8381 31.9879 24.6042 31.5451 23.6728 30.6595C22.7413 29.7739 22.2695 28.5891 22.2695 27.0932C22.2695 25.8605 22.6324 24.8193 23.3824 23.9936C24.1204 23.1678 25.2333 22.5455 26.7333 22.1506L28.4873 21.8035C30.3261 21.4804 31.6567 21.0735 32.5156 20.5828V20.4033V20.1161C32.5156 19.2544 32.2374 18.5723 31.6688 18.0816C31.1003 17.5909 30.314 17.3396 29.2978 17.3396C28.2575 17.3396 27.3865 17.555 26.6728 17.9739C25.9591 18.3927 25.3542 19.051 24.8583 19.9605L22.9349 18.9433C23.6123 17.7465 24.4833 16.8729 25.5478 16.3104C26.6123 15.7479 27.943 15.4727 29.5398 15.4727C31.4632 15.4727 32.8785 15.9035 33.7737 16.7771C34.6688 17.6627 35.1164 19.039 35.1164 20.9418ZM32.5035 22.2702C32.1406 22.4378 31.693 22.6053 31.197 22.7729C30.7011 22.9404 30.1204 23.096 29.4672 23.2635C28.1728 23.5508 27.3744 23.7542 27.0599 23.8859C26.3462 24.1372 25.8018 24.5201 25.4268 25.0467C25.0518 25.5613 24.8704 26.2076 24.8704 26.9735C24.8704 27.9189 25.1365 28.649 25.6567 29.1636C26.1889 29.6782 26.9389 29.9415 27.9188 29.9415C29.2494 29.9415 30.3503 29.5465 31.2091 28.7447C32.068 27.9429 32.5035 26.9137 32.5035 25.6331V22.2702Z" fill="white"/>
<path d="M48.7132 15.616V18.4404L48.0841 18.2848H47.576C46.2696 18.2848 45.2413 18.8832 44.4792 20.068C43.7171 21.2527 43.33 22.8923 43.33 24.9747V31.5449H40.6445V15.9272H43.1002V20.2953H43.2817C43.7776 18.6318 44.3704 17.4231 45.0841 16.6452C45.7978 15.8793 46.6567 15.4844 47.6607 15.4844C47.8059 15.4844 47.9148 15.4963 47.9994 15.5083C48.0841 15.5203 48.2656 15.5562 48.5559 15.628H48.7132V15.616Z" fill="white"/>
<path d="M60.0608 15.616V18.4404L59.4318 18.2848H58.9237C57.6172 18.2848 56.589 18.8832 55.8269 20.068C55.0648 21.2527 54.6777 22.8923 54.6777 24.9747V31.5449H51.9922V15.9272H54.4479V20.2953H54.6293C55.1253 18.6318 55.718 17.4231 56.4318 16.6452C57.1455 15.8793 58.0043 15.4844 59.0084 15.4844C59.1536 15.4844 59.2624 15.4963 59.3471 15.5083C59.4318 15.5203 59.6132 15.5562 59.9036 15.628H60.0608V15.616Z" fill="white"/>
<path d="M68.7721 15.4844C70.9616 15.4844 72.7519 16.2503 74.1189 17.7702C75.4859 19.2901 76.1754 21.2886 76.1754 23.73C76.1754 26.1953 75.4859 28.1819 74.1189 29.7018C72.7519 31.2217 70.9616 31.9757 68.7721 31.9757C66.5946 31.9757 64.8164 31.2097 63.4373 29.6899C62.0704 28.17 61.3809 26.1714 61.3809 23.7181C61.3809 21.2408 62.0583 19.2422 63.4131 17.7343C64.768 16.2264 66.5583 15.4844 68.7721 15.4844ZM68.7721 17.5308C67.3446 17.5308 66.2196 18.0813 65.397 19.1823C64.5744 20.2834 64.151 21.8032 64.151 23.73C64.151 25.6688 64.5623 27.1767 65.3849 28.2657C66.2075 29.3548 67.3325 29.8933 68.7842 29.8933C70.1995 29.8933 71.3124 29.3428 72.1471 28.2418C72.9697 27.1408 73.381 25.6448 73.381 23.73C73.381 21.8152 72.9697 20.3073 72.1471 19.1943C71.3124 18.0813 70.1874 17.5308 68.7721 17.5308Z" fill="white"/>
<path d="M77.6875 15.9268H80.2762L83.9053 28.3132L87.861 15.9268H90.3771L94.2603 28.3012L97.8893 15.9387H100.49L95.603 31.5684H92.9901L89.0586 19.2418L85.1271 31.5684H82.5384L77.6875 15.9268Z" fill="white"/>
<path d="M7.19663 39.9385L6.30924 40.5498C6.02119 40.0396 5.68204 39.6581 5.28713 39.4007C4.89222 39.1433 4.4462 39.0192 3.93979 39.0192C3.09422 39.0192 2.42985 39.3272 1.95131 39.9339C1.47278 40.5406 1.23119 41.4047 1.23119 42.5078C1.23119 43.5788 1.47742 44.4199 1.97454 45.0312C2.47166 45.6425 3.15462 45.9459 4.02342 45.9459C4.54842 45.9459 5.01301 45.808 5.42651 45.5276C5.83535 45.2518 6.19774 44.8336 6.50437 44.2774L7.37317 44.9301C6.98291 45.6471 6.50438 46.1757 5.93757 46.5204C5.37076 46.8651 4.69244 47.0352 3.90727 47.0352C2.70861 47.0352 1.75618 46.6307 1.05464 45.8218C0.353096 45.0128 0 43.9097 0 42.5032C0 41.0968 0.348449 39.9891 1.04535 39.1847C1.74224 38.3803 2.70396 37.9805 3.9305 37.9805C4.68315 37.9805 5.32894 38.1459 5.87717 38.4723C6.42539 38.7986 6.86676 39.295 7.19663 39.9385Z" fill="white"/>
<path d="M10.8817 40.6831C11.7226 40.6831 12.4102 40.9773 12.9352 41.561C13.4602 42.1447 13.725 42.9123 13.725 43.85C13.725 44.7968 13.4602 45.5598 12.9352 46.1435C12.4102 46.7272 11.7226 47.0168 10.8817 47.0168C10.0454 47.0168 9.36243 46.7226 8.83278 46.1389C8.30314 45.5552 8.04297 44.7876 8.04297 43.8454C8.04297 42.8939 8.30314 42.1263 8.82349 41.5472C9.34849 40.9727 10.0314 40.6831 10.8817 40.6831ZM10.8817 41.4691C10.3334 41.4691 9.90136 41.6805 9.58543 42.1034C9.26486 42.5262 9.1069 43.11 9.1069 43.85C9.1069 44.5946 9.26486 45.1737 9.58079 45.592C9.89671 46.0102 10.3288 46.217 10.8863 46.217C11.4299 46.217 11.8573 46.0056 12.1779 45.5828C12.4938 45.1599 12.6518 44.5854 12.6518 43.85C12.6518 43.1145 12.4938 42.5354 12.1779 42.108C11.862 41.6805 11.4299 41.4691 10.8817 41.4691Z" fill="white"/>
<path d="M15.3359 38.1826H16.3627V46.8512H15.3359V38.1826Z" fill="white"/>
<path d="M18.6074 38.1826H19.6342V46.8512H18.6074V38.1826Z" fill="white"/>
<path d="M26.5801 44.1487H22.3012C22.3012 44.829 22.4545 45.3438 22.7565 45.6931C23.0585 46.0424 23.4999 46.2171 24.076 46.2171C24.4337 46.2171 24.7357 46.1297 24.9866 45.9597C25.2328 45.7896 25.4651 45.5092 25.6788 45.1185L26.4175 45.5506C26.1667 46.047 25.8414 46.4193 25.4419 46.6583C25.0423 46.8973 24.5545 47.0214 23.9738 47.0214C23.1142 47.0214 22.4499 46.7456 21.9713 46.1987C21.4928 45.6517 21.2559 44.8657 21.2559 43.85C21.2559 42.8755 21.4928 42.0988 21.962 41.5334C22.4359 40.9635 23.0817 40.6831 23.9041 40.6831C24.7636 40.6831 25.4279 40.9635 25.8879 41.5196C26.3479 42.0758 26.5801 42.8801 26.5801 43.9235V44.1487ZM25.5162 43.3857C25.5162 42.7606 25.3768 42.2734 25.0981 41.9333C24.8193 41.5932 24.4198 41.4231 23.9087 41.4231C23.4069 41.4231 23.0167 41.5932 22.7333 41.9379C22.5939 42.108 22.487 42.3148 22.4127 42.5584C22.3384 42.802 22.3012 43.0778 22.3012 43.3857H25.5162Z" fill="white"/>
<path d="M31.9935 45.8356C31.738 46.2308 31.4499 46.5296 31.1247 46.7272C30.7995 46.9249 30.4324 47.0214 30.0236 47.0214C29.2709 47.0214 28.6809 46.741 28.2442 46.1803C27.8075 45.6195 27.5938 44.8428 27.5938 43.8546C27.5938 42.8755 27.8121 42.0988 28.2488 41.5334C28.6855 40.9681 29.2756 40.6831 30.0236 40.6831C30.4371 40.6831 30.8041 40.7796 31.1247 40.9727C31.4453 41.1657 31.7333 41.4645 31.9935 41.869V40.8532H33.0063V46.9571C33.0063 47.6557 32.7647 48.1981 32.2769 48.5933C31.7891 48.9886 31.1061 49.1817 30.228 49.1817C29.4707 49.1817 28.8853 49.0116 28.4672 48.6761C28.0491 48.3359 27.84 47.8533 27.84 47.2236V47.2007L28.8296 47.3569C28.9039 47.7246 29.0619 48.005 29.3035 48.1981C29.5451 48.3865 29.8703 48.483 30.2838 48.483C30.8366 48.483 31.2548 48.3497 31.5475 48.0785C31.8402 47.8074 31.9888 47.4213 31.9888 46.9157V45.8356H31.9935ZM30.3488 46.2584C30.5625 46.2584 30.753 46.2125 30.9249 46.1251C31.0968 46.0378 31.2826 45.8953 31.4731 45.7023C31.6543 45.5046 31.7844 45.2886 31.868 45.0588C31.9517 44.829 31.9935 44.4934 31.9935 44.0568C31.9935 43.5742 31.9703 43.2065 31.9238 42.9491C31.8773 42.6917 31.7984 42.4757 31.6869 42.301C31.5196 42.0252 31.3198 41.8138 31.0922 41.6667C30.8645 41.5196 30.6136 41.4461 30.3488 41.4461C29.8238 41.4461 29.4057 41.6575 29.1083 42.085C28.811 42.5124 28.6577 43.1008 28.6577 43.85C28.6577 44.5992 28.811 45.1829 29.113 45.6149C29.415 46.0424 29.8285 46.2584 30.3488 46.2584Z" fill="white"/>
<path d="M35.0625 38.3296H36.0893V39.6074H35.0625V38.3296ZM35.0625 40.853H36.0893V46.8557H35.0625V40.853Z" fill="white"/>
<path d="M42.6547 42.7787V45.3251C42.6547 45.6652 42.6919 45.8904 42.7616 46.0099C42.8359 46.1202 42.9706 46.1754 43.1611 46.1754H43.268C43.3005 46.1754 43.3237 46.1708 43.3377 46.1616V46.9108L43.031 46.9935C42.9706 47.0073 42.9195 47.0119 42.8917 47.0165C42.8591 47.0211 42.808 47.0211 42.7383 47.0211C42.4178 47.0211 42.1715 46.9292 41.9903 46.7499C41.8928 46.6534 41.8184 46.5339 41.7673 46.4006C41.7162 46.2673 41.6884 46.1111 41.6884 45.9272C41.3817 46.2995 41.0658 46.5753 40.7452 46.7545C40.4247 46.9338 40.0669 47.0211 39.6813 47.0211C39.0913 47.0211 38.6174 46.8511 38.2596 46.5109C37.9019 46.1708 37.7207 45.7158 37.7207 45.1412C37.7207 44.6678 37.8601 44.2679 38.1435 43.9508C38.4269 43.6336 38.8543 43.3946 39.4304 43.243L40.1041 43.1097C40.8103 42.9856 41.3213 42.8293 41.6512 42.6408V42.5719V42.4616C41.6512 42.1307 41.5443 41.8687 41.326 41.6802C41.1076 41.4918 40.8056 41.3952 40.4154 41.3952C40.0158 41.3952 39.6813 41.478 39.4072 41.6389C39.1331 41.7997 38.9008 42.0525 38.7103 42.4018L37.9716 42.0112C38.2318 41.5515 38.5663 41.216 38.9751 41C39.384 40.7839 39.895 40.6782 40.5083 40.6782C41.247 40.6782 41.7906 40.8437 42.1344 41.1792C42.4828 41.5193 42.6547 42.0479 42.6547 42.7787ZM41.6512 43.2889C41.5118 43.3533 41.3446 43.4176 41.1494 43.482C40.9543 43.5463 40.7359 43.6061 40.4804 43.6704C39.9833 43.7807 39.6767 43.8589 39.5559 43.9094C39.2817 44.0059 39.0727 44.153 38.9287 44.3553C38.7846 44.5529 38.7149 44.8011 38.7149 45.0953C38.7149 45.4584 38.8171 45.7388 39.0169 45.9364C39.2213 46.134 39.5094 46.2352 39.8857 46.2352C40.3968 46.2352 40.8196 46.0835 41.1494 45.7755C41.4839 45.4722 41.6465 45.0723 41.6465 44.5805V43.2889H41.6512Z" fill="white"/>
<path d="M45.866 38.2329V40.8482H47.074V41.6618H45.866V45.2974C45.866 45.6422 45.9218 45.8674 46.0286 45.9823C46.1355 46.0972 46.3492 46.1569 46.6651 46.1569L46.8463 46.1386L47.1344 46.088V46.8878C47.0972 46.9015 47.0275 46.9153 46.9346 46.9337C46.8417 46.9521 46.7395 46.9705 46.628 46.9935C46.5165 47.0118 46.391 47.021 46.2516 47.021C45.7592 47.021 45.4061 46.9107 45.1877 46.6901C44.974 46.4695 44.8625 46.1018 44.8625 45.587V41.6618H43.8125V40.8482H44.8625V38.7983L45.866 38.2329Z" fill="white"/>
<path d="M53.3321 44.1487H49.0532C49.0532 44.829 49.2065 45.3438 49.5085 45.6931C49.8105 46.0424 50.2518 46.2171 50.8279 46.2171C51.1857 46.2171 51.4877 46.1297 51.7385 45.9597C51.9848 45.7896 52.2171 45.5092 52.4308 45.1185L53.1695 45.5506C52.9186 46.047 52.5934 46.4193 52.1938 46.6583C51.7989 46.8973 51.3065 47.0214 50.7257 47.0214C49.8662 47.0214 49.2018 46.7456 48.7233 46.1987C48.2448 45.6517 48.0078 44.8657 48.0078 43.85C48.0078 42.8755 48.2448 42.0988 48.714 41.5334C49.1879 40.9635 49.8337 40.6831 50.656 40.6831C51.5155 40.6831 52.1799 40.9635 52.6399 41.5196C53.0998 42.0758 53.3321 42.8801 53.3321 43.9235V44.1487ZM52.2728 43.3857C52.2728 42.7606 52.1334 42.2734 51.8547 41.9333C51.5759 41.5932 51.181 41.4231 50.6653 41.4231C50.1635 41.4231 49.7733 41.5932 49.4899 41.9379C49.3505 42.108 49.2436 42.3148 49.1693 42.5584C49.095 42.802 49.0578 43.0778 49.0578 43.3857H52.2728Z" fill="white"/>
<path d="M60.2951 38.1831H61.6935L65.1176 46.8517H63.9468L63.1524 44.7742H58.8688L58.0558 46.8517H56.9082L60.2951 38.1831ZM60.992 39.1851L59.2265 43.7814H62.79L60.992 39.1851Z" fill="white"/>
<path d="M66.2285 38.1831H67.2553V46.8517H66.2285V38.1831Z" fill="white"/>
<path d="M69.5039 38.1831H70.5307V46.8517H69.5039V38.1831Z" fill="white"/>
<path d="M72.7656 38.3301H73.7924V39.6078H72.7656V38.3301ZM72.7656 40.8534H73.7924V46.8562H72.7656V40.8534Z" fill="white"/>
<path d="M80.352 42.7792V45.3256C80.352 45.6657 80.3892 45.8909 80.4588 46.0104C80.5332 46.1207 80.6679 46.1759 80.8584 46.1759H80.9653C80.9978 46.1759 81.021 46.1713 81.0349 46.1621V46.9113L80.7283 46.994C80.6679 47.0078 80.6168 47.0124 80.5889 47.017C80.5564 47.0216 80.5053 47.0216 80.4356 47.0216C80.1151 47.0216 79.8688 46.9297 79.6876 46.7504C79.59 46.6539 79.5157 46.5344 79.4646 46.4011C79.4135 46.2678 79.3856 46.1115 79.3856 45.9277C79.079 46.3 78.7631 46.5758 78.4425 46.755C78.1219 46.9343 77.7642 47.0216 77.3786 47.0216C76.7885 47.0216 76.3146 46.8515 75.9569 46.5114C75.5992 46.1713 75.418 45.7163 75.418 45.1417C75.418 44.6683 75.562 44.2684 75.8454 43.9513C76.1288 43.6341 76.5562 43.3951 77.1323 43.2434L77.806 43.1102C78.5122 42.9861 79.0232 42.8298 79.3531 42.6413V42.5724V42.4621C79.3531 42.1311 79.2463 41.8692 79.0279 41.6807C78.8095 41.4923 78.5075 41.3957 78.1173 41.3957C77.7177 41.3957 77.3832 41.4785 77.1091 41.6393C76.835 41.8002 76.6027 42.053 76.4122 42.4023L75.6688 42.0116C75.929 41.552 76.2635 41.2165 76.6724 41.0005C77.0812 40.7844 77.5923 40.6787 78.2055 40.6787C78.9443 40.6787 79.4878 40.8442 79.8316 41.1797C80.1801 41.5198 80.352 42.0484 80.352 42.7792ZM79.3485 43.2894C79.2091 43.3538 79.0372 43.4181 78.8467 43.4825C78.6516 43.5468 78.4332 43.6066 78.1777 43.6709C77.6806 43.7812 77.3739 43.8594 77.2531 43.9099C76.979 44.0064 76.7699 44.1535 76.6259 44.3558C76.4819 44.5534 76.4122 44.8016 76.4122 45.0958C76.4122 45.4589 76.5144 45.7392 76.7142 45.9369C76.9186 46.1345 77.2067 46.2356 77.583 46.2356C78.094 46.2356 78.5168 46.084 78.8467 45.776C79.1766 45.4681 79.3438 45.0728 79.3438 44.581V43.2894H79.3485Z" fill="white"/>
<path d="M87.4178 42.9398V46.8513H86.4142V43.1466C86.4142 42.5491 86.3167 42.1171 86.1169 41.8459C85.9171 41.5747 85.5966 41.4368 85.1459 41.4368C84.6255 41.4368 84.2074 41.6207 83.8915 41.9838C83.5756 42.3469 83.4176 42.8341 83.4176 43.4454V46.8559H82.4141V40.8531H83.4176V42.016C83.6452 41.5701 83.9333 41.2346 84.2771 41.0094C84.6209 40.7841 85.0251 40.6738 85.4851 40.6738C86.1355 40.6738 86.6187 40.8623 86.9392 41.2392C87.2552 41.6115 87.4178 42.1814 87.4178 42.9398Z" fill="white"/>
<path d="M94.2048 42.3105L93.3499 42.7379C93.1827 42.3197 92.969 42.0025 92.7088 41.7911C92.4486 41.5797 92.1327 41.474 91.761 41.474C91.2314 41.474 90.804 41.69 90.4787 42.1174C90.1582 42.5449 89.9956 43.124 89.9956 43.8548C89.9956 44.5765 90.1535 45.151 90.4741 45.5876C90.7947 46.0197 91.2221 46.2403 91.761 46.2403C92.1234 46.2403 92.4347 46.1346 92.6949 45.9232C92.955 45.7118 93.1734 45.3946 93.3453 44.9671L94.2001 45.3854C93.9539 45.9278 93.6194 46.3368 93.2013 46.6126C92.7831 46.8884 92.2814 47.0263 91.7006 47.0263C90.8783 47.0263 90.2093 46.7321 89.6982 46.1392C89.1872 45.5463 88.9316 44.7741 88.9316 43.8227C88.9316 42.885 89.1872 42.1266 89.7029 41.5521C90.2186 40.9776 90.8922 40.688 91.7192 40.688C92.2953 40.688 92.7924 40.8259 93.2106 41.1017C93.6426 41.3682 93.9725 41.7727 94.2048 42.3105Z" fill="white"/>
<path d="M100.418 44.1487H96.1391C96.1391 44.829 96.2924 45.3438 96.5944 45.6931C96.8964 46.0424 97.3378 46.2171 97.9139 46.2171C98.2716 46.2171 98.5736 46.1297 98.8245 45.9597C99.0707 45.7896 99.303 45.5092 99.5167 45.1185L100.255 45.5506C100.005 46.047 99.6793 46.4193 99.2798 46.6583C98.8849 46.8973 98.3924 47.0214 97.8116 47.0214C96.9521 47.0214 96.2878 46.7456 95.8092 46.1987C95.3307 45.6517 95.0938 44.8657 95.0938 43.85C95.0938 42.8755 95.3307 42.0988 95.7999 41.5334C96.2738 40.9635 96.9196 40.6831 97.742 40.6831C98.6015 40.6831 99.2658 40.9635 99.7258 41.5196C100.186 42.0758 100.418 42.8801 100.418 43.9235V44.1487ZM99.3587 43.3857C99.3587 42.7606 99.2194 42.2734 98.9406 41.9333C98.6619 41.5932 98.2669 41.4231 97.7512 41.4231C97.2495 41.4231 96.8592 41.5932 96.5758 41.9379C96.4364 42.108 96.3296 42.3148 96.2552 42.5584C96.1809 42.802 96.1437 43.0778 96.1437 43.3857H99.3587Z" fill="white"/>
</svg>
