<svg width="39" height="28" viewBox="0 0 39 28" fill="none" xmlns="http://www.w3.org/2000/svg">
<g opacity="0.5">
<g clip-path="url(#clip0_506_117)">
<path d="M33.7056 0H4.81508C2.15475 0 0 2.16305 0 4.83363V22.9598C0 25.6303 2.15475 27.7934 4.81508 27.7934H33.7056C36.3659 27.7934 38.5207 25.6303 38.5207 22.9598V4.83363C38.5207 2.16305 36.3659 0 33.7056 0ZM36.1131 22.9598C36.1131 24.289 35.0297 25.3766 33.7056 25.3766H4.81508C3.49094 25.3766 2.40754 24.289 2.40754 22.9598V4.83363C2.40754 3.50439 3.49094 2.41682 4.81508 2.41682H33.7056C35.0297 2.41682 36.1131 3.50439 36.1131 4.83363V22.9598Z" fill="white"/>
<path d="M31.7435 6.32011L19.2604 16.5674L6.77725 6.32011C6.27167 5.89717 5.51329 5.96967 5.09197 6.48929C4.67065 6.99682 4.74288 7.75812 5.2605 8.18106L18.502 19.0567C18.7187 19.238 18.9955 19.3347 19.2604 19.3347C19.5252 19.3347 19.8021 19.238 20.0187 19.0567L33.2602 8.18106C33.7778 7.75812 33.8501 6.99682 33.4287 6.47721C33.0074 5.96967 32.2491 5.89717 31.7435 6.32011Z" fill="white"/>
</g>
</g>
<defs>
<clipPath id="clip0_506_117">
<rect width="38.5207" height="27.7934" fill="white"/>
</clipPath>
</defs>
</svg>
