<svg width="24" height="34" viewBox="0 0 24 34" fill="none" xmlns="http://www.w3.org/2000/svg">
<g opacity="0.5">
<path d="M18.9999 0H4.2222C1.88944 0 0 1.88944 0 4.2222V29.5554C0 31.8882 1.88944 33.7776 4.2222 33.7776H18.9999C21.3327 33.7776 23.2221 31.8882 23.2221 29.5554V4.2222C23.2221 1.88944 21.3327 0 18.9999 0ZM21.111 29.5554C21.111 30.7165 20.161 31.6665 18.9999 31.6665H4.2222C3.0611 31.6665 2.1111 30.7165 2.1111 29.5554V4.2222C2.1111 3.0611 3.0611 2.1111 4.2222 2.1111H18.9999C20.161 2.1111 21.111 3.0611 21.111 4.2222V29.5554Z" fill="white"/>
<path d="M18.9993 6.33301H4.22157C3.64101 6.33301 3.16602 6.80801 3.16602 7.38856C3.16602 7.96911 3.64101 8.44411 4.22157 8.44411H18.9993C19.5798 8.44411 20.0548 7.96911 20.0548 7.38856C20.0548 6.80801 19.5798 6.33301 18.9993 6.33301Z" fill="white"/>
<path d="M18.9993 24.2773H4.22157C3.64101 24.2773 3.16602 24.7523 3.16602 25.3329C3.16602 25.9134 3.64101 26.3884 4.22157 26.3884H18.9993C19.5798 26.3884 20.0548 25.9134 20.0548 25.3329C20.0548 24.7523 19.5798 24.2773 18.9993 24.2773Z" fill="white"/>
<path d="M9.50086 5.27712H13.7231C14.3036 5.27712 14.7786 4.80212 14.7786 4.22157C14.7786 3.64101 14.3036 3.16602 13.7231 3.16602H9.50086C8.92031 3.16602 8.44531 3.64101 8.44531 4.22157C8.44531 4.80212 8.92031 5.27712 9.50086 5.27712Z" fill="white"/>
<path d="M11.6107 30.611C12.4851 30.611 13.194 29.9021 13.194 29.0277C13.194 28.1532 12.4851 27.4443 11.6107 27.4443C10.7362 27.4443 10.0273 28.1532 10.0273 29.0277C10.0273 29.9021 10.7362 30.611 11.6107 30.611Z" fill="white"/>
</g>
</svg>
