<svg width="27" height="33" viewBox="0 0 27 33" fill="none" xmlns="http://www.w3.org/2000/svg">
<g opacity="0.5">
<g clip-path="url(#clip0_506_103)">
<path d="M13.1653 0C5.90413 0 0 5.88393 0 13.1203C0 19.3574 6.78519 26.8461 12.4868 32.0336L13.1855 32.6694L13.8742 32.0134C20.1733 25.968 26.3306 19.529 26.3306 13.1203C26.3306 5.88393 20.4265 0 13.1653 0ZM13.145 29.894C5.96489 23.2128 2.02543 17.2784 2.02543 13.1203C2.02543 6.99411 7.01811 2.0185 13.1653 2.0185C19.3125 2.0185 24.3052 6.99411 24.3052 13.1203C24.3052 18.5197 18.8973 24.3532 13.145 29.894Z" fill="white"/>
<path d="M13.1651 8.07422C10.37 8.07422 8.10156 10.3349 8.10156 13.1205C8.10156 15.906 10.37 18.1667 13.1651 18.1667C15.9602 18.1667 18.2287 15.906 18.2287 13.1205C18.2287 10.3349 15.9602 8.07422 13.1651 8.07422ZM13.1651 16.1482C11.4942 16.1482 10.127 14.7857 10.127 13.1205C10.127 11.4552 11.4942 10.0927 13.1651 10.0927C14.8361 10.0927 16.2033 11.4552 16.2033 13.1205C16.2033 14.7857 14.8361 16.1482 13.1651 16.1482Z" fill="white"/>
</g>
</g>
<defs>
<clipPath id="clip0_506_103">
<rect width="26.3306" height="32.6694" fill="white"/>
</clipPath>
</defs>
</svg>
