<svg width="168" height="949" viewBox="0 0 168 949" fill="none" xmlns="http://www.w3.org/2000/svg">
<g opacity="0.6">
<path d="M116.285 764.645C119.592 776.955 125.334 784.158 133.722 786.846C138.141 789.124 140.677 794.475 143.213 799.825C146.065 806.065 149.512 809.194 153.865 805.902C156.225 801.183 156.351 793.76 161.05 792.041C161.887 790.209 161.974 788.062 161.313 785.6C160.787 784.119 159.902 782.823 158.943 781.915C147.127 778.541 136.978 767.301 126.353 757.708C125.468 756.412 124.329 755.597 123.116 755.171C120.077 754.984 117.953 756.779 116.249 759.758C115.772 761.405 115.654 762.867 116.285 764.645Z" fill="#F8AF5A"/>
<path d="M110.001 561.219C108.856 563.846 107.711 566.472 106.567 569.099C105.348 572.103 102.661 574.493 105.145 579.701C106.115 581.251 106.982 582.513 108.275 583.217C110.861 584.626 113.872 585.478 115.781 583.825C125.824 574.625 137.588 569.659 149.351 564.693C153.86 562.739 153.829 557.985 147.967 553.816C140.123 551.677 135.014 558.366 130.858 560.141C127.333 561.935 127.156 557.937 127.7 560.045C127.803 560.333 127.979 560.243 128.155 560.154C132.414 558.667 137.085 558.333 138.86 551.639C138.771 549.64 138.08 548.289 136.861 547.206C128.767 545.535 122.718 551.34 115.712 553.884C113.421 555.05 111.748 557.946 110.001 561.219Z" fill="#F4A13E"/>
<path d="M161.585 447.615C158.544 448.485 155.295 448.773 152.846 450.717C147.622 455.461 147.218 448.437 145.737 443.687L145.309 444.251C139.491 443.79 134.531 446.332 130.504 451.496C127.76 454.968 125.401 458.932 128.803 466.141C129.765 469.435 134 464.854 133.562 471.276C134.835 475.444 136.977 476.756 139.621 477.123C140.891 477.16 141.777 476.706 142.839 476.161C150.322 471.293 155.335 461.837 161.739 455.111C162.638 452.928 163.079 450.636 161.585 447.615Z" fill="#FDDAB2"/>
<path d="M128.765 465.173C129.069 449.71 139.653 450.792 145.009 443.646C136.45 439.494 117.678 448.7 114.612 458.763C113.131 463.938 114.82 467.502 118.607 467.617C122.292 467.444 125.462 465.832 128.765 465.173Z" fill="#F9AF5A"/>
<path d="M117.598 480.962C109.279 480.425 104.021 487.879 97.5562 492.538C93.7067 495.181 90.0493 500.114 92.6677 506.284C95.9773 513.807 99.2369 506.007 102.646 505.634C110.097 504.907 113.606 496.639 118.395 490.788C119.79 487.69 119.921 484.553 117.598 480.962Z" fill="#FCC079"/>
<path d="M94.3315 596.355C91.8997 599.716 86.5788 600.344 89.7452 609.262C96.069 618.664 87.2478 621.445 88.7739 628.746C89.3016 630.232 90.0096 631.626 90.7924 632.629C93.2902 634.859 95.832 636.012 98.4485 636.775C100.674 637.037 102.371 635.812 103.466 633.49C103.87 632.228 103.989 630.76 104.108 629.293C104.196 627.138 103.998 624.779 104.086 622.625C101.61 612.649 101.148 602.34 97.3041 592.716C95.5451 592.567 94.5997 594.108 94.3315 596.355Z" fill="#F9B768"/>
<path d="M118.385 528.086C115.157 529.052 116.69 536.912 112.973 537.092C111.938 538.316 111.08 539.449 110.045 540.673C108.216 548.531 111.551 552.006 116.308 554.751C124.023 554.592 130.179 550.045 136.647 546.376C136.764 544.932 136.422 543.379 135.725 542.007C130.964 535.113 126.679 544.925 121.949 538.707C119.636 535.745 121.586 530.592 118.385 528.086Z" fill="#FAAA4D"/>
<path d="M86.6962 676.896C83.8693 688.221 88.6773 696.329 95.0397 703.991C98.6647 706.36 101.411 705.654 103.597 702.768C104.574 697.682 100.101 692.928 101.258 687.75C102.452 673.032 91.6462 675.763 88.0613 668.085C83.1555 668.137 87.5089 674.363 86.6962 676.896Z" fill="#F7AB4F"/>
<path d="M181.088 820.11C180.713 817.864 180.443 815.912 180.068 813.665C180.186 812.211 180.02 810.554 179.676 808.988C179.153 807.515 178.273 806.226 177.392 804.936C174.394 801.252 171.205 799.41 167.75 799.795C164.578 800.382 162.107 802.351 160.443 805.996C159.39 823.267 168.025 820.215 174.165 822.63C177.354 824.473 179.184 822.485 181.088 820.11Z" fill="#FAC687"/>
<path d="M118.107 488.009C121.612 489.642 124.319 485.52 127.883 488.493C129.002 489.29 130.195 489.708 131.358 489.456C134.567 488.502 137.26 486.099 138.98 482.139C139.7 480.059 139.684 477.671 138.652 474.774C137.149 473.488 135.75 472.491 134.248 471.204C128.936 475.629 123.52 479.765 117.279 481.584C117.648 483.792 117.738 485.801 118.107 488.009Z" fill="#FCC787"/>
<path d="M103.878 702.815C100.919 702.241 97.9897 702.35 95.6161 704.622C94.9523 712.309 100.4 719.296 99.7362 726.983C100.379 727.001 100.632 726.521 100.886 726.041C104.519 727.317 107.207 725.933 109.056 722.182C108.706 716.417 107.892 710.541 108.185 704.794C106.807 702.705 105.492 701.984 103.878 702.815Z" fill="#FAC788"/>
<path d="M90.9206 629.689C89.7773 630.625 88.5295 631.267 87.2079 632.295C85.6341 633.8 83.8821 635.397 82.3084 636.902C82.239 641.456 83.8477 644.8 86.7476 646.436C87.8475 646.565 88.8431 646.4 89.63 645.648C90.4169 644.895 90.8168 643.646 91.2167 642.398C91.2906 642.012 91.5428 641.535 91.6905 640.763C92.06 638.835 92.4295 636.907 92.5164 634.777C92.4859 634.097 92.4555 633.418 92.2468 632.83C91.8294 631.654 91.2337 630.57 90.9206 629.689Z" fill="#FCE4C6"/>
<path d="M82.8519 653.4C80.6759 655.557 80.4417 658.447 82.2532 662.362C83.0984 662.967 84.0173 663.187 84.9059 662.73C86.7568 661.433 88.3996 659.55 89.7607 657.465C90.9442 655.472 91.5641 653.076 91.3389 650.076C91.1309 649.491 90.8189 648.613 90.6108 648.027C89.6616 647.13 88.7428 646.91 87.8542 647.367C85.0541 647.767 83.6193 650.236 82.8519 653.4Z" fill="#FCE8CE"/>
<path d="M177.37 447.282C177.664 445.761 177.677 444.04 177.794 442.61C171.224 441.171 167.296 448.319 161.169 448.709C161.052 450.14 160.759 451.66 160.642 453.091C169.514 461.578 172.371 460.803 177.37 447.282Z" fill="#FCC079"/>
<path d="M125.127 760.446C125.467 761.984 125.453 763.702 126.145 765.059C129.431 771.935 138.39 764.281 139.119 778.622C145.301 779.571 151.529 783.576 157.549 782.898C160.949 784.241 163.141 782.779 164.788 779.201C168.329 767.47 176.024 763.882 183.823 760.584C197.478 754.98 207.391 742.39 215.816 726.796C207.288 715.753 205.958 732.515 200.186 728.618C201.289 727.029 204.66 727.703 206.543 725.372C209.029 722.392 211.161 719.592 207.022 713.836C203.502 709.816 199.689 707.315 195.509 706.713C191.565 707.358 187.119 704.838 182.968 704.905C175.183 706.485 169.565 714.144 162.163 716.213C159.794 717.765 157.809 719.805 156.029 722.425C153.353 727.213 149.661 731.494 150.858 740.121C147.244 752.232 141.11 758.444 130.658 754.884C129.569 754.756 128.48 754.628 127.597 755.079C126.111 756.18 125.288 757.969 125.127 760.446Z" fill="#F6941E"/>
<path d="M164.936 778.661C162.684 780.466 160.258 782.359 158.006 784.164C158.59 785.214 158.897 786.068 159.481 787.117C161.657 789.718 164.126 790.827 166.538 790.621C177.518 781.4 189.315 774.456 200.806 766.658C204.11 764.323 207.238 762.077 211.053 761.165C220.481 757.429 230.391 754.457 239.309 749.298C245.126 747.042 251.733 746.406 254.572 737.586C256.343 730.983 262.949 730.347 263.377 721.733C261.247 714.07 257.608 714.893 254.348 716.198C251.19 717.787 248.646 721.083 245.08 721.533C243.574 721.955 242.171 722.661 240.87 723.652C235.779 734.277 227.22 723.13 220.438 723.855C219.868 725.15 219.575 726.641 219.384 728.417C209.455 741.14 199.321 753.295 186.063 759.631C177.994 763.691 169.443 766.986 164.936 778.661Z" fill="#FA9822"/>
<path d="M165.26 788.465C163.541 788.318 161.999 788.081 160.384 788.222C160.267 789.643 160.253 791.353 159.96 792.864C160.137 796.86 154.248 796.111 156.937 801.893C159.009 805.946 161.49 802.981 163.81 802.482C165.602 802.251 167.158 800.778 169.008 801.879C171.52 803.666 174.135 805.74 176.75 807.815C177.205 807.923 177.484 808.122 178.042 808.519C178.394 808.34 178.747 808.16 179.099 807.981C180.127 806.777 181.331 805.483 182.74 804.766C183.445 804.407 184.076 804.427 184.884 804.356C185.589 803.997 186.646 803.46 187.66 803.965C188.394 804.273 189.128 804.58 189.863 804.887C192.183 804.388 194.327 803.978 196.471 803.568C197.66 803.984 198.541 803.535 199.217 802.511C201.445 791.843 212.637 796.362 214.557 784.83C207.386 769.411 204.042 783.371 198.109 783.666C197.257 780.695 200.486 776.327 196.124 773.44C186.725 772.775 179.898 779.313 173.277 786.428C170.87 789.015 169.226 792.575 165.26 788.465Z" fill="#F89824"/>
<path d="M169.21 800.988C165.414 797.402 162.173 800.105 158.352 799.993C159.046 797.215 159.561 794.528 160.077 791.841C155.012 792.368 152.469 796.442 154.032 804.98C154.522 805.766 155.011 806.552 155.501 807.339C156.996 806.225 158.521 805.787 160.522 807.873C163.408 805.352 166.22 803.216 169.21 800.988Z" fill="#F6A33F"/>
<path d="M122.647 752.387C120.412 754.896 116.233 754.293 117.164 761C119.429 759.16 121.694 757.32 123.959 755.479C123.899 754.142 123.486 752.985 122.647 752.387Z" fill="#F39B33"/>
<path d="M122.534 752.53C122.953 753.711 123.446 754.505 123.866 755.686C124.464 756.775 124.778 757.661 125.376 758.75C126.524 757.809 127.673 756.869 128.716 755.633C129.117 754.378 128.593 752.902 127.816 751.905C126.471 750.502 125.083 750.169 123.8 750.132C122.8 750.298 122.189 750.962 121.966 752.124L122.534 752.53Z" fill="#F89F36"/>
<path d="M134.938 545.136C135.525 546.196 135.833 547.058 136.42 548.118C136.831 549.268 137.315 550.041 137.726 551.191C146.117 553.721 151.25 543.644 159.611 545.51C167.929 548.417 175.777 548.846 182.143 542.218C187.921 534.53 194.345 529.23 204.072 531.422C209.983 532.834 215.997 530.459 219.458 523.269C215.702 515.668 220.747 511.748 220.203 505.572C214.833 498.111 211.181 503.022 207.236 505.365C206.004 505.991 205.167 505.397 206.4 504.771C206.752 504.592 206.59 502.977 206.355 501.738C203.083 498.985 199.914 496.519 200.808 490.292C199.972 489.698 198.886 489.57 197.904 489.73C187.797 495.201 181.697 507.807 173.939 517.52C171.563 520.764 169.187 524.008 165.608 524.467C164.024 525.272 162.542 526.364 159.858 528.745C162.791 525.897 164.522 524.339 164.727 520.84C164.389 519.313 163.7 517.966 162.761 517.084C153.886 517.855 146.963 524.088 139.321 528.308C134.671 531.009 136.492 539.592 134.938 545.136Z" fill="#FCA946"/>
<path d="M181.638 540.606C175.147 543.874 168.218 545.346 160.429 541.536C157.02 547.622 148.076 544.058 147.969 555.877C149.313 557.889 152.82 560.157 148.682 561.904C143.741 563.72 139.135 567.047 133.932 566.978C123.276 567.301 119 584.243 107.293 581.062C106.254 583.938 106.195 586.657 109 589.278C114.555 589.171 120.489 589.544 124.964 585.275C127.539 578.6 132.962 577.55 137.319 574.684C138.796 573.604 138.093 577.992 139.481 578.974C141.147 580.152 142.579 580.103 144.26 579.593C156.03 571.986 166.325 561.425 179.599 557.431C182.173 554.79 182.95 550.03 184.588 546.516C184.984 545.308 185.174 543.531 185.292 542.128C184.021 539.742 182.955 537.926 181.638 540.606Z" fill="#F79D32"/>
<path d="M147.785 555.062C150.229 547.461 159.444 551.216 160.238 540.755C151.489 539.449 145.015 545.05 138.541 550.651C134.566 553.99 130.591 557.329 126.514 560.384C134.328 560.818 141.326 558.978 147.785 555.062Z" fill="#EA942E"/>
<path d="M109.188 588.051C108.885 585.397 108.507 583.133 108.204 580.479C107.602 579.384 107.285 578.493 106.684 577.397C100.002 578.377 101.246 589.68 97.4065 594.467C95.8255 604.414 100.882 614.457 101.599 624.275C108.162 624.761 106.141 616.668 106.615 610.803C105.96 602.359 106.627 594.639 109.188 588.051Z" fill="#F6A94C"/>
<path d="M177.624 447.877C172.355 450.54 169.294 460.524 160.996 453.579C152.77 458.41 147.777 469.37 140.238 475.541C143.545 481.295 146.092 477.983 148.625 476.366C151.611 474.858 154.158 471.546 158.197 473.555C163.144 475.781 166.19 467.492 171.809 472.752C172.921 473.54 173.829 473.757 174.809 473.599C179.669 469.794 184.529 465.988 189.492 462.468C192.142 455.392 200.06 457.804 202.023 449.387C199.976 439.622 195.335 446.354 192.32 443.152C186.466 440.71 183.757 450.516 177.624 447.877Z" fill="#EE9C3D"/>
<path d="M158.301 471.946C157.534 466.869 156.209 465.495 153.063 467.784C149.137 470.812 146.242 476.732 140.666 475.134C139.857 475.205 139.151 475.565 138.519 475.546C138.225 477.062 138.212 478.778 137.918 480.295C145.175 491.287 149.599 483.221 154.79 480.23C156.701 478.572 158.406 476.335 158.301 471.946Z" fill="#E99533"/>
<path d="M156.363 723.371C158.625 721.536 161.064 719.611 163.224 717.487C163.444 716.351 163.135 715.486 162.826 714.62C162.341 713.843 161.958 713.356 161.958 713.356C153.505 707.77 150.996 718.26 145.882 720.866C147.071 717.189 153.039 717.56 150.228 709.099C146.391 705.938 143.702 708.331 140.808 710.147C138.545 711.983 136.488 714.395 134.814 717.295C132.729 723.133 128.291 724.713 124.751 728.223C121.563 731.553 118.375 734.883 118.98 742.421C119.392 743.575 119.878 744.351 120.466 745.416C121.128 746.103 121.51 746.59 122.172 747.276C123.465 747.982 124.553 748.11 125.817 748.148C126.978 747.897 128.139 747.647 129.197 747.108C138.703 739.875 150.107 736.793 156.363 723.371Z" fill="#F69622"/>
<path d="M118.985 741.623C123.124 735.038 126.879 727.964 133.868 726.447C136.374 725.851 136.225 722.493 135.618 719.025C135.16 718.916 134.6 718.516 134.142 718.406C126.933 721.066 119.457 721.802 111.211 717.436C110.223 717.598 109.545 718.632 109.428 720.066C106.731 722.477 103.931 724.597 101.411 726.918C106.607 733.876 111.832 741.505 118.985 741.623Z" fill="#F69F36"/>
<path d="M121.867 751.843C122.583 751.474 123.299 751.105 124.195 750.644C124.164 749.961 124.417 749.481 124.387 748.798C123.653 746.73 122.77 745.437 121.425 744.033L121.023 745.289C116.8 747.115 120.028 749.645 121.867 751.843Z" fill="#FBD5A9"/>
<path d="M122.321 511.524C122.443 514.236 122.638 516.564 122.76 519.276C125.967 521.789 129.262 522.175 132.556 522.562C137.17 521.924 140.668 518.737 143.958 514.964C146.818 511.759 148.268 507.545 143.307 502.466C141.449 499.606 136.271 499.841 138.238 492.933C136.202 490.165 134.392 490.402 132.643 491.995C129.757 498.682 127.005 506.341 122.321 511.524Z" fill="#EE9B38"/>
<path d="M122.178 511.07C131.269 512.98 131.807 502.653 133.117 493.316C133.174 490.515 132.267 488.555 130.398 487.437C129.687 487.803 128.975 488.168 128.264 488.534C127.795 494.32 123.137 491.863 121.272 494.902C118.873 498.214 114.709 500.701 120.143 508.304C120.738 509.384 121.51 510.373 122.178 511.07Z" fill="#F8AA4B"/>
<path d="M131.893 520.893C128.788 514.518 126.181 517.245 123.543 519.294C121.084 521.252 118.906 523.411 118.199 527.934C119.982 531.176 116.368 535.806 120.775 538.739C127.776 540.684 132.131 536.366 135.06 528.622C135.086 525.143 134.149 522.505 131.893 520.893Z" fill="#F0A145"/>
<path d="M101.769 629.488C102.177 630.622 102.76 631.668 103.066 632.519C103.05 634.2 103.385 635.706 104.07 637.035C104.93 638.277 106.039 639.06 107.12 639.188C111.106 638.193 114.553 635.125 118.51 633.475C127.157 626.461 135.833 620.103 145.574 615.553C158.223 605.862 171.994 599.291 185.328 590.931C187.402 589.221 189.097 587.033 189.756 583.69C189.947 581.921 189.335 580.219 188.197 578.782C174.228 576.75 163.462 586.5 150.905 590.12C144.246 593.46 138.068 597.562 131.307 600.618C125.129 604.72 119.257 609.673 113.385 614.626C108.507 617.741 105.378 623.996 101.769 629.488Z" fill="#FDAD4C"/>
<path d="M101.695 628.721C106.422 624.918 111.044 620.823 115.593 617.11C116.255 613.667 116.562 610.406 112.94 608.471C109.909 607.612 107.086 607.336 104.738 609.575C103.678 614.257 106.375 621.839 102.046 624.404C101.929 625.843 101.812 627.282 101.695 628.721Z" fill="#E8922A"/>
<path d="M105.109 635.135C104.617 634.344 104.2 633.167 103.603 632.082C102.028 633.589 100.17 634.893 98.4162 636.492C98.4467 637.173 98.4772 637.853 98.5077 638.534C98.7167 639.122 99.104 639.619 99.3129 640.207C99.7003 640.704 99.9832 640.907 100.549 641.311C101.398 641.919 102.32 642.14 103.243 642.361C104.061 642.288 104.67 641.626 105.279 640.964C105.649 639.034 104.918 636.974 105.109 635.135Z" fill="#F7AF57"/>
<path d="M98.431 636.121C96.5013 631.877 94.3667 631.23 92.0708 633.111C93.7651 640.27 95.7513 641.691 98.431 636.121Z" fill="#F8A84A"/>
<path d="M134.536 527.614C129.844 531.352 125.255 535.377 120.739 539.025C122.337 540.588 117.704 545.653 123.276 545.539C127.411 545.477 130.255 540.641 134.889 543.718C136.854 543.399 139.435 544.803 140.857 542.386C143.1 538.195 139.038 537.881 138.217 535.584C136.677 531.277 140.005 531.284 141.486 530.194C148.568 525.583 156.647 523.18 162.908 516.272C166.295 517.606 168.582 516.445 170.019 512.324C170.268 507.788 167.863 506.294 165.634 504.712C152.07 505.148 142.394 514.129 134.536 527.614Z" fill="#FEAD4B"/>
<path d="M87.5862 669.075C90.5402 674.436 91.6678 683.48 98.2744 681.472C99.4395 681.219 98.1005 685.684 98.8547 688.391C102.77 697.039 106.175 694.265 109.757 691.399C114.512 678.312 124.097 674.092 132.189 666.855C133.455 662.771 132.994 658.539 130.631 654.251C128.225 651.016 126.041 650.76 123.845 652.228C116.917 659.211 109.058 663.579 100.092 665.421C98.6162 664.802 96.9638 664.274 95.4149 664.036C93.689 663.889 91.5058 663.632 89.633 664.247C88.2175 664.972 87.2893 666.478 86.9219 668.385L87.5862 669.075Z" fill="#F4931F"/>
<path d="M109.193 688.918C106.403 691.743 103.374 693.301 99.4329 688.729C94.8051 695.279 103.379 697.468 103.34 702.698C104.365 703.213 105.465 703.342 106.49 703.857C109.654 703.271 112.326 701.896 114.268 698.465C114.842 692.959 113.59 689.434 109.193 688.918Z" fill="#F7A138"/>
<path d="M130.133 488.346C131.03 490.277 131.928 492.208 132.825 494.139C134.206 492.753 135.72 492.323 137.602 494.093C143.734 500.18 147.715 494.398 152.432 493.018C155.401 490.823 157.398 487.075 159.396 483.328C159.792 482.102 160.012 480.967 160.026 479.254C157.892 473.858 155.645 478.074 153.514 476.772C148.988 480.443 144.874 485.269 138.273 480.786C135.584 483.18 132.719 485.664 130.133 488.346Z" fill="#FCA947"/>
<path d="M113.9 698.427C111.446 700.377 107.776 699.498 106.819 704.479C107.295 706.998 106.542 708.421 105.685 709.551C101.222 715.296 105.485 717.252 108.933 719.28C109.643 718.916 110.249 718.26 110.782 717.986C113.993 718.755 116.788 718.356 119.627 716.899C122.259 714.857 123.558 711.427 123.701 706.519C123.654 703.435 123.074 700.624 121.577 697.593C120.807 696.607 119.682 695.803 118.765 695.584C116.679 695.619 114.874 695.854 113.9 698.427Z" fill="#F6A33F"/>
<path d="M98.5175 636.137C96.045 638.108 93.9866 637.075 92.0587 632.835C90.5543 633.959 89.438 635.58 90.1273 638.714C91.6364 641.774 93.2197 644.448 95.8886 644.817C98.2434 644.302 99.822 642.792 100.027 639.198C99.4291 638.11 99.115 637.225 98.5175 636.137Z" fill="#F9BC71"/>
<path d="M94.832 643.606C93.7124 641.046 92.5187 638.874 90.4193 638.91L90.2407 639.001C90.1232 640.456 90.0057 641.91 90.0668 643.272C89.3525 643.64 88.7428 644.302 88.133 644.965C88.6253 645.757 89.0435 646.935 89 648.002L89.8189 647.929C92.6937 648.888 94.2704 647.379 94.832 643.606Z" fill="#FCDBB5"/>
<path d="M90.0057 643.203C89.944 641.826 90.0632 640.355 90.1824 638.884C90.0632 640.355 89.944 641.826 90.0057 643.203Z" fill="#FCE9D2"/>
<path d="M90.6805 651.127C89.4695 652.438 88.6433 654.242 89.2223 657.05C90.2427 657.561 91.2632 658.072 92.21 658.966L92.3873 658.875C94.1472 659.697 95.5958 659.644 96.9105 658.624C98.6535 657.04 99.7306 654.762 99.0177 650.989C96.2941 646.867 94.3304 649.599 92.099 650.399C91.5671 650.672 91.2125 650.854 90.6805 651.127Z" fill="#F8B35F"/>
<path d="M94.8422 643.907C93.2858 645.381 91.7293 646.854 89.8937 648.129C90.2025 648.994 90.335 649.949 90.4675 650.903L91.6573 651.319C95.1819 649.525 99.6764 649.281 101.79 644.118C102.156 642.228 101.642 640.787 100.143 639.506C98.3076 640.781 96.5749 642.344 94.8422 643.907Z" fill="#F8B35F"/>
<path d="M164.822 778.056C181.636 762.491 201.74 754.367 218.35 738.231C221.877 734.766 225.535 732.245 220.68 723.909C217.754 722.689 216.203 724.146 215.47 727.887C210.714 731.973 206.134 735.97 202.373 742.25C197.264 750.559 190.226 755.796 182.062 757.894C174.775 759.549 169.785 766.45 163.522 770.96C160.39 773.214 163.096 775.556 164.822 778.056Z" fill="#F08E18"/>
<path d="M156.758 724.125C147.944 734.372 135.139 735.781 125.943 745.543C125.826 746.96 125.504 747.803 125.181 748.646C125.211 749.31 125.24 749.974 125.167 750.351C125.578 751.5 126.165 752.561 127.074 752.778C127.661 753.838 127.969 754.7 128.556 755.76C129.26 755.403 129.685 754.847 130.287 754.202C140.261 755.928 145.907 747.29 152.345 740.286C151.009 732.476 156.495 730.37 156.758 724.125Z" fill="#ED9020"/>
<path d="M152.607 740.689C142.934 739.825 138.108 750.78 130.462 755.007C132.224 758.192 134.075 763.373 136.687 761.364C143.144 756.722 149.395 751.503 155.265 745.799C155.94 744.776 153.752 742.147 152.607 740.689Z" fill="#EE8D18"/>
<path d="M183.37 705.423C183.487 704.002 183.604 702.581 183.619 700.873C175.556 691.703 172.682 704.053 167.133 704.834C166.149 704.994 165.092 705.532 164.314 706.268C161.775 707.9 160.454 710.613 161.571 715.489C162.159 716.551 162.467 717.415 163.055 718.477C170.615 716.333 176.838 710.446 183.37 705.423Z" fill="#F7951F"/>
<path d="M196.563 773.873C200.974 768.324 208.752 768.105 210.656 758.465C196.863 764.369 182.923 771.013 171.648 783.34C169.604 785.7 167.734 787.972 164.947 787.697C166.269 795.387 168.387 792.656 170.81 790.775C178.929 784.038 186.843 776.735 196.563 773.873Z" fill="#F08F19"/>
<path d="M127.314 752.427C127 751.542 126.506 750.748 126.087 749.567C124.952 748.755 124.236 749.123 123.76 750.765L124.044 750.968C125.253 751.393 126.284 751.91 127.314 752.427Z" fill="#F39B33"/>
<path d="M169.31 511.552C167.042 513.398 164.597 515.335 162.433 517.471C162.846 518.632 163.333 519.412 163.923 520.482C163.689 523.345 166.68 523.53 166.727 526.594C170.825 529.3 172.266 525.132 174.578 522.235C182.617 511.95 189.195 499.324 198.798 491.669C195.243 486.97 202.197 484.785 198.466 480.177C183.215 480.774 173.172 490.712 169.31 511.552Z" fill="#F09C39"/>
<path d="M167.241 526.037C172.597 518.892 163.967 523.28 164.45 519.973C161.193 523.67 156.554 524.668 153.87 531.135C160.432 534.941 163.014 528.186 167.241 526.037Z" fill="#EB9735"/>
<path d="M180.971 554.619C165.656 556.949 154.166 568.772 141.96 578.604C141.447 581.212 138.787 581.878 139.764 585.751C140.45 587.085 141.385 587.958 142.569 588.37C146.514 588.4 148.751 584.253 151.704 582.096C159.947 577.951 168.117 574.177 176.463 570.316C179.196 569.277 181.549 567.758 183.873 565.582C185.467 563.101 188.522 561.229 186.231 556.003C184.829 552.678 182.667 552.423 180.971 554.619Z" fill="#EE9936"/>
<path d="M104.173 609.394C106.903 611.775 109.483 610.798 112.196 610.783C113.418 607.753 114.743 605.014 115.965 601.984C119.647 595.292 126.945 594.647 129.062 585.32C128.455 581.853 127.407 580.672 125.595 582.63C120.392 585.637 113.164 581.781 108.744 588.164C100.134 589.824 104.728 601.554 104.173 609.394Z" fill="#F49420"/>
<path d="M128.757 584.785C123.721 591.095 115.364 591.602 112.856 602.074C126.575 606.671 134.063 596.73 140.315 583.33C141.695 581.947 142.899 580.653 142.399 577.502C141.385 576.996 140.371 576.49 139.182 576.074C133.644 575.145 130.355 578.182 128.757 584.785Z" fill="#E8922A"/>
<path d="M128.432 584.52C131.821 581.778 135.386 578.946 138.952 576.114C139.172 574.982 139.671 574.049 140.066 572.827C134.621 569.816 126.757 575.173 125.218 583.094C126.23 583.599 127.243 584.105 128.432 584.52Z" fill="#FBA237"/>
<path d="M188.516 460.643C182.48 463.043 177.062 467.182 172.928 473.75C170.821 473.113 169.085 474.686 170.014 477.295C171.696 482.603 175.172 483.567 178.369 484.332C184.039 483.832 187.909 479.456 192.06 475.278C194.194 472.474 195.768 469.271 193.629 463.854C192.243 461.136 190.416 460.699 188.516 460.643Z" fill="#E5912E"/>
<path d="M177.419 482.138C178.023 477.321 169.348 480.741 173.197 473.214C172.603 472.133 172.291 471.253 171.696 470.172C166.654 471.378 161.226 472.089 159.321 480.35C158.444 493.283 165.217 488.066 168.706 490.779C173.245 490.526 176.833 489.374 177.419 482.138Z" fill="#E6922F"/>
<path d="M159.469 479.992C163.454 476.619 167.542 473.532 171.704 470.07C165.564 463.363 162.898 472.161 158.517 472.688C156.788 474.241 155.235 475.705 153.403 476.971C155.249 478.067 157.447 478.985 159.469 479.992Z" fill="#F9A441"/>
<path d="M141.898 714.275C144.536 712.938 146.221 708.358 150.222 711.411C156.363 714.057 159.953 707.834 165.141 707.237C171.912 705.839 176.103 698.972 181.877 695.369C182.478 686.596 177.319 687.856 174.153 685.395C162.253 684.652 153.944 693.943 145.122 701.802C143.026 705.235 138.674 706.424 141.898 714.275Z" fill="#F7951F"/>
<path d="M142.016 713.368C141.641 707.014 145.452 707.127 147.592 704.308C148.799 698.866 147.127 695.933 143.139 695.911C139.963 695.817 137.084 698.326 133.404 695.046C129.295 692.33 125.069 691.051 125.608 699.044C126.056 705.015 121.843 702.007 121.462 705.648C121.746 709.981 119.961 712.619 119.019 715.858C124.906 725.931 129.656 718.672 135.019 719.023C137.292 717.168 139.743 715.223 142.016 713.368Z" fill="#F3921E"/>
<path d="M165.511 707.591C159.59 705.527 154.851 707.915 150.624 711.728C148.019 717.753 141.936 718.126 139.622 726.696C148.513 724.907 152.773 713.674 161.706 714.893C162.95 712.583 164.092 709.989 165.511 707.591Z" fill="#F2901B"/>
<path d="M123.664 750.669C124.388 750.296 125.113 749.924 126.124 749.757L125.625 748.955C125.851 747.782 125.639 747.185 125.246 746.682C124.853 746.178 124.565 745.973 124.384 746.066C123.342 745.543 122.3 745.021 121.332 744.107C122.18 746.493 122.922 748.581 123.664 750.669Z" fill="#F9BB71"/>
<path d="M124.355 746.166C124.671 747.054 125.271 748.147 125.586 749.035C126.664 748.481 126.782 747.018 126.046 744.945C125.433 745.611 124.894 745.888 124.355 746.166Z" fill="#FAC585"/>
<path d="M135.364 718.941C129.992 717.921 124.621 716.901 119.427 715.791C115.408 712.713 113.615 717.047 111.071 718.688C120.552 728.895 128.348 725.6 135.364 718.941Z" fill="#F69622"/>
<path d="M134.049 527.08C143.775 518.712 153.295 509.768 164.919 505.55C164.182 501.15 161.918 498.892 159.227 497.193C154.362 495.238 150.94 501.416 145.839 498.216C143.796 498.916 142.415 500.302 142.387 503.728C140.507 506.05 148.283 508.569 143.449 511.374C139.143 513.909 135.353 517.887 131.357 521.288C132.254 523.218 133.152 525.149 134.049 527.08Z" fill="#FBA744"/>
<path d="M142.031 503.203C143.765 501.636 145.425 500.448 147.159 498.882C150.643 498.13 155.2 499.22 152.815 490.196C147.067 488.69 143.6 495.918 137.852 494.411C136.722 499.424 138.105 502.132 142.031 503.203Z" fill="#E4902D"/>
<path d="M144.06 612.446C133.165 616.278 124.192 624.902 115.087 632.575C115.85 637.616 118.666 640.258 121.232 643.366C123.975 646.384 126.996 649.6 129.532 647.974C142.245 640.506 158.463 641.097 166.57 623.075C166.906 616.459 174.106 614.502 169.808 604.809C163.532 601.209 160.219 607.639 155.615 609.297C151.993 610.796 148.811 614.106 144.06 612.446Z" fill="#FAA644"/>
<path d="M148.803 577.892C147.5 582.933 144.748 585.67 141.441 588.014C140.329 587.227 139.627 587.581 139.158 589.166C143.164 602.653 146.781 589.027 150.804 592.728C163.694 589.929 175.562 584.276 187.531 578.908C189.156 577.076 190.429 575.422 189.728 571.731C189.04 570.392 188.002 569.23 186.992 568.729C182.984 567.381 179.647 569.065 176.618 571.605C167.707 575.092 159.57 581.897 148.803 577.892Z" fill="#F29F3D"/>
<path d="M182.021 597.068C181.19 592.445 185.283 591.729 184.452 587.105C170.825 595.31 156.41 601.895 143.601 612.378C150.058 620.555 154.168 614.116 158.832 612.104C162.516 610.249 164.492 604.213 169.914 607.197C176.359 608.994 180.614 605.844 182.021 597.068Z" fill="#EA9735"/>
<path d="M140.165 588.366C140.767 587.719 141.296 587.45 141.898 586.803C141.31 585.74 141.001 584.876 140.413 583.813C131.516 590.384 123.853 600.412 112.957 602.552C111.812 605.177 111.578 608.021 112.358 611.37C115.339 611.555 114.151 615.224 115.15 617.44C121.581 612.124 127.835 606.899 134.266 601.583C134.91 595.807 140.109 595.205 140.165 588.366Z" fill="#F09C3A"/>
<path d="M121.47 638.792C119.553 636.342 117.459 633.984 115.542 631.534C111.77 632.092 109.002 634.879 106.544 638.537C105.527 638.028 104.996 638.3 105.056 639.641C104.276 640.383 103.672 641.035 102.965 641.396C102.228 641.087 101.698 641.358 101.477 642.5C98.1788 645.559 94.8802 648.617 91.6849 651.966C94.5157 654.634 95.9135 651.519 97.6811 650.615C102.913 652.397 108.202 651.407 113.48 656.253C116.368 656.148 118.459 654.392 119.961 651.567C121.328 647.781 125.01 645.212 121.47 638.792Z" fill="#F49828"/>
<path d="M140.005 588.732C137.656 592.651 130.475 591.198 134.106 601.947C140.434 600.429 145.939 596.607 151.136 591.92C147.287 586.388 143.796 597.016 140.005 588.732Z" fill="#F6A240"/>
<path d="M104.78 639.246C105.32 638.968 105.86 638.69 106.189 637.818C105.873 636.928 105.557 636.037 105.06 635.239C104.942 636.704 104.823 638.17 104.78 639.246Z" fill="#F9BE78"/>
<path d="M101.292 642.014C101.827 641.738 102.363 641.463 102.794 640.892C101.766 640.377 101.022 640.063 99.9941 639.548C100.308 640.431 100.8 641.223 101.292 642.014Z" fill="#FAC280"/>
<path d="M158.429 499.071C160.332 501.486 162.337 504.187 164.415 506.513C166.01 508.07 167.328 509.43 168.923 510.987C175.351 499.972 181.779 488.958 191.793 483.896C193.901 482.831 195.673 480.247 198.556 482.504C205.378 478.38 212.098 473.971 218.92 469.847C222.741 468.929 227.294 468.316 221.249 459.554C215.145 461.626 209.815 467.021 202.965 466.432C196.846 462.096 196.259 473.198 191.268 472.007C186.583 475.725 182.073 479.355 177.389 483.073C174.153 485.046 172.147 490.45 167.346 487.474C163.305 489.516 157.333 488.483 158.429 499.071Z" fill="#FAA845"/>
<path d="M121.388 640.369C122.323 645.289 117.949 645.811 118.884 650.73C119.512 654.793 120.461 658.02 123.388 655.196C124.866 654.113 126.446 653.316 128.42 655.353C139.128 653.993 148.579 648.551 158.849 645.392C159.902 644.86 160.955 644.329 161.907 643.512C165.99 636.398 173.173 634.459 176.393 626.096C176.701 622.908 175.883 620.626 174.26 618.412C171.174 615.589 168.512 616.258 166.594 619.584C158.091 636.34 141.986 635.369 130.573 645.169C126.842 648.062 124.533 640.467 121.388 640.369Z" fill="#F09C3B"/>
<path d="M159.133 643.123C148.038 644.333 137.253 646.417 128.706 655.971C130.586 659.488 130.559 662.948 130.991 666.518C132.636 672.912 136.094 673.207 139.331 674.649C140.424 674.777 141.414 674.614 142.508 674.743C146.363 673.799 150.042 672.947 153.897 672.003C160.368 670.753 159.595 665.634 155.201 658.582C150.967 649.034 160.277 650.463 159.133 643.123Z" fill="#FEAC4A"/>
<path d="M139.408 672.078C136.887 670.28 134.263 668.193 131.639 666.105C121.548 668.865 112.666 674.436 108.815 689.437C111.263 691.615 112.65 694.335 113.006 698.269C114.73 698.416 116.174 698.363 117.898 698.51C118.379 691.062 122.091 689.164 125.98 687.175C131.636 684.283 138.059 682.37 139.408 672.078Z" fill="#F69724"/>
<path d="M123.756 654.483C121.689 654.514 120.516 652.398 119.241 649.994C116.984 651.817 114.55 653.728 112.293 655.55C105.023 653.814 100.333 657.547 98.6036 667.235C99.0873 668.006 100.055 669.549 100.231 669.46C108.908 666.416 118.685 665.865 123.756 654.483Z" fill="#ED8D1A"/>
<path d="M98.4492 666.865C103.064 662.782 107.606 659.081 112.221 654.998C111.333 651.327 111.978 645.496 107.243 646.889C104.027 647.849 100.471 647.264 97.9059 650.64C98.4099 653.82 97.201 655.127 95.8151 656.524C95.8616 659.595 94.5357 662.337 95.4238 666.008C96.5158 666.136 97.5342 666.646 98.4492 666.865Z" fill="#F69F37"/>
<path d="M95.612 665.779C97.2244 663.22 98.2734 660.258 96.0027 656.233C94.8628 657.165 93.723 658.097 92.5831 659.029C93.194 662.522 91.8027 663.929 90.5155 665.629C92.5176 667.715 93.9088 666.308 95.612 665.779Z" fill="#FBD3A4"/>
<path d="M158.438 497.87C159.967 491.603 163.928 489.235 167.506 486.377C165.353 482.678 160.54 490.281 159.915 480.315C156.661 482.322 153.996 485.399 152.688 490.525C152.957 496.559 149.083 496.825 147.022 499.251C152.152 504.856 155.007 499.967 158.438 497.87Z" fill="#ED9936"/>
<path d="M139.468 673.036C133.621 677.016 128.799 683.863 121.471 684.866C116.665 685.948 114.803 690.617 118.057 699.13C118.761 698.774 119.186 698.219 119.889 697.863C124.11 699.789 124.242 692.608 127.363 692.043C130.03 691.368 132.566 689.745 134.544 695.855C144.041 691.042 156.586 694.169 162.14 679.499C162.785 677.817 163.708 676.333 164.074 674.453C162.36 666.177 159.443 671.381 157.172 670.838C151.749 670.199 146.957 673.644 141.3 671.769C140.596 672.125 140.171 672.679 139.468 673.036Z" fill="#F59522"/>
<path d="M133.308 694.851C131.695 693.264 136.54 688.018 130.463 688.031C125.023 688.062 123.002 693.585 120.004 697.538C120.48 700.054 120.778 702.662 121.253 705.178C127.139 706.988 126.399 706.677 127.352 697.563C127.924 692.094 131.003 696.034 133.061 699.464C135.396 698.955 134.951 697.113 133.308 694.851Z" fill="#F69724"/>
<path d="M92.3253 658.892C91.518 657.213 90.4882 656.696 89.3101 656.954C90.4446 657.766 91.2955 658.375 92.3253 658.892Z" fill="#FCE8CE"/>
<path d="M190.685 691.158C187.72 690.971 184.682 691.155 182.461 693.612C176.762 698.486 170.961 703.076 165.262 707.95C169.598 710.801 171.455 706.18 174.334 704.399C177.314 702.902 179.07 697.997 183.406 700.848C186.051 697.843 190.725 698.178 190.685 691.158Z" fill="#F4911B"/>
<path d="M177.967 573.675C178.451 570.388 169.839 574.744 175.185 567.645C165.417 568.193 158.475 577.79 148.678 577.676C150.362 581.218 152.924 584.316 155.384 583.071C162.59 579.426 172.021 581.415 177.967 573.675Z" fill="#FBA746"/>
<path d="M133.187 695.818C133.07 697.234 132.953 698.65 132.835 700.067C136.487 703.302 138.891 700.725 141.706 699.297C144.419 697.582 146.75 699.451 147.161 704.67C154.946 695.632 164.623 690.723 174.403 686.101L174.579 686.011C174.608 682.605 173.654 679.357 171.645 676.646C169.108 674.202 166.542 671.094 164.167 674.334C161.059 677.268 157.716 678.964 155.678 683.729C154.066 687.939 150.914 691.912 147.292 689.34C139.799 684.662 137.145 691.775 133.187 695.818Z" fill="#F2901B"/>
<path d="M165.897 619.785C168.027 619.388 170.332 618.903 172.461 618.505C183.88 619.802 191.853 609.812 202.123 607.347C206.765 603.025 212.352 601.9 217.503 598.992C221.648 595.585 227.292 595.766 231.409 591.706C233.657 589.916 236.08 588.037 236.812 584.336C238.526 576.474 236.078 573.695 230.768 575.015C214.964 583.916 198.652 591.403 182.135 598.325C178.165 601.644 174.195 604.963 170.05 608.37C169.069 612.529 163.322 612.066 165.897 619.785Z" fill="#FDAA48"/>
<path d="M176.104 625.321C170.676 631.172 163.171 632.951 159.997 642.784C169.027 656.992 175.821 647.363 183.326 645.584C187.268 640.834 191.645 651.943 196.206 648.93C200.061 646.277 204.638 645.651 206.415 638.926C208.607 637.465 199.878 634.053 206.073 633.284C208.855 632.89 210.811 630.181 210.219 625.008C203.136 618.018 197.546 622.241 191.659 623.878C183.801 625.838 177.874 632.629 171.694 635.784C173.428 630.109 182.54 634.01 182.593 623.033C178.97 618.724 177.264 620.964 176.104 625.321Z" fill="#FDAD4B"/>
<path d="M183.431 639.893C176.648 645.388 169.497 648.686 160.391 642.424C159.686 642.783 159.26 643.34 158.658 643.987C156.221 645.908 153.989 648.406 151.449 650.039C145.738 653.286 150.615 657.614 152.584 661.379C158.326 662.883 163.495 661.615 168.634 659.681C172.614 657.996 176.417 656.401 180.19 654.141C181.349 649.805 190.322 651.028 183.431 639.893Z" fill="#FEB352"/>
<path d="M167.896 657.635C162.351 656.706 157.588 659.136 153.104 661.764C154.458 663.806 156.561 664.441 157.475 668.757C152.019 669.832 145.946 669.172 140.932 672.071C149.141 678.131 155.843 670.614 163.653 673.803C165.683 674.818 167.713 675.832 169.743 676.846C172.962 674.179 177.682 672.797 176.693 664.762C175.778 656.348 170.06 663.704 167.896 657.635Z" fill="#FCA843"/>
<path d="M194.026 657.37C193.714 656.492 193.12 655.412 192.704 654.241C187.463 644.816 184.333 656.119 179.721 652.604C174.77 651.686 171.484 655.452 167.708 658.431C166.599 660.041 164.05 659.966 164.557 663.168C165.033 665.692 166.945 665.749 168.397 665.695C170.383 665.367 171.818 662.898 174.991 664.73C174.908 671.005 168.15 670.323 169.58 677.898C171.08 680.936 172.579 683.974 173.901 687.103C175.983 678.762 181.982 676.717 186.513 672.311C191.624 670.723 190.176 660.734 194.026 657.37Z" fill="#F5A13E"/>
<path d="M209.764 605.924C206.325 607.322 204.422 613.001 199.624 610.03C193.815 614.646 188.182 619.174 182.475 624.076C177.793 627.787 173.286 631.41 168.706 635.406C183.043 634.912 194.34 622.47 209.758 626.148C212.904 626.246 215.771 626.147 218.068 623.303C220.438 624.129 221.96 622.013 223.511 620.556C226.087 617.908 227.039 613.046 225.402 608.48C223.224 601.828 220.019 604.456 217.005 605.303C214.694 605.795 212.514 607.233 209.764 605.924Z" fill="#FDAD4B"/>
</g>
</svg>
