<svg width="91" height="397" viewBox="0 0 91 397" fill="none" xmlns="http://www.w3.org/2000/svg">
<g opacity="0.8">
<path d="M57.0966 102.523C56.6389 106.882 55.8829 111.115 53.7906 115.222C54.6979 132.286 56.1242 133.533 69.0748 131.806C70.7626 130.563 72.0744 128.945 72.855 126.456C73.6396 118.984 78.7315 112.016 77.5831 104.169C73.4066 102.42 74.7838 100.18 77.7834 97.3194C82.2787 90.1019 82.1151 83.7501 77.2152 78.0149C75.9973 75.7717 74.5589 73.6526 73.1203 71.5336C72.1354 70.0378 70.7091 68.7906 68.9968 68.2902C62.5194 71.6445 67.5093 78.5006 64.4566 82.8556C61.882 89.5775 58.3348 95.6754 57.0966 102.523Z" fill="#F8AE55"/>
<path d="M71.8963 129.264C60.0102 134.152 58.728 123.343 55.378 115.171C46.5017 125.467 56.8395 133.269 55.0172 142.567C62.8465 143.204 60.7216 152.375 63.4288 157.656C65.4395 161.554 67.731 158.792 69.8902 157.286C73.2128 147.739 77.5881 138.193 71.8963 129.264Z" fill="#FACE99"/>
<path d="M80.3657 192.158C79.7625 201.85 85.3733 206.579 91.4529 207.83C95.6051 208.705 98.2414 212.188 102.239 212.566C106.281 205.612 106.701 198.654 102.993 192.56C96.7707 191.682 92.9853 185.34 86.9832 184.338C83.7478 185.576 81.0421 187.685 80.3657 192.158Z" fill="#FCE0BE"/>
<path d="M100.771 7.89762C100.546 7.17667 100.106 6.57558 99.8808 5.85464C97.6061 7.41367 95.6201 9.09314 93.3453 10.6522C90.4656 15.0933 91.5663 21.8211 86.0118 24.9381C84.6908 27.9395 85.154 30.2223 86.6221 32.5061C87.4254 33.4679 88.5808 33.9496 89.6609 34.1911C94.5353 33.7159 98.784 29.6366 103.496 27.84C110.835 24.0042 113.279 14.1573 119.589 8.63884C120.581 7.79911 119.252 5.15512 117.871 3.95245C113.237 1.1847 109.416 5.02425 105.068 7.1816C103.624 6.57944 102.315 10.4218 100.771 7.89762Z" fill="#F79E32"/>
<path d="M56.3967 101.918C60.7353 96.5349 64.3933 90.6492 65.8652 83.6331C64.9231 64.7092 64.9231 64.7092 58.8885 61.3187C58.7816 64.3262 59.3552 67.8357 58.2665 70.2155C52.8106 81.2371 53.6281 91.3887 56.3967 101.918Z" fill="#FCE1C0"/>
<path d="M69.9942 156.927C68.2324 157.919 66.6255 159.409 64.5414 158.536C66.3603 166.87 62.8406 179.672 75.1288 180.062C79.5049 180.813 82.576 178.206 84.3542 173.11C84.5581 161.298 72.3311 165.261 69.9942 156.927Z" fill="#F9BA6E"/>
<path d="M88.4416 29.671C87.8387 27.7412 87.3111 26.0526 88.4332 24.0043C91.6571 23.0435 95.0712 20.2743 92.5806 17.1367C89.2094 12.7923 85.6051 17.3697 82.6432 21.5862C75.0577 29.5349 67.7618 37.6046 64.9076 49.417C65.1457 50.9847 66.0142 51.3474 67.3109 51.4695C69.1747 50.9894 70.5229 49.6646 71.7957 48.0987C75.4909 39.7838 81.1612 33.7619 88.4416 29.671Z" fill="#FBD4A6"/>
<path d="M82.7766 171.872C82.4165 177.241 78.1485 178.211 75.3524 180.648C78.3604 182.97 73.6803 190.774 79.7763 190.782C82.6484 188.589 85.5204 186.396 88.4685 184.448C90.0725 179.813 95.2327 175.183 91.8967 170.176C89.5247 166.634 85.6886 167.361 82.7766 171.872Z" fill="#F8BB71"/>
<path d="M67.5666 50.6617C67.1846 50.284 66.9478 49.529 66.5658 49.1513C61.7796 51.5362 58.8244 55.5583 57.7792 61.4691C64.6299 66.5077 59.9696 77.6978 64.803 83.8662C71.7393 79.0936 63.6762 73.5507 66.843 68.5225C68.4154 62.6122 69.909 56.4503 67.5666 50.6617Z" fill="#FAC485"/>
<path d="M81.8235 21.7202C83.4151 21.1106 84.8544 20.0113 86.3057 19.7685C87.6808 19.281 89.3126 16.3467 90.2146 18.4279C91.5615 21.1215 88.9637 22.5862 87.7529 24.4199C99.6799 24.3135 92.7885 15.2502 93.6586 9.86777C87.0396 9.85891 83.8402 15.1158 81.8235 21.7202Z" fill="#FACB92"/>
<path d="M81.8549 171.605C89.9986 171.488 89.9986 171.488 86.2586 178.911C84.4218 182.307 87.2195 182.814 87.8518 184.828C88.8222 194.648 93.8899 195.66 101.152 191.891L100.836 190.883C105.619 182.581 103.248 175.026 100.586 168.226C98.7147 163.944 93.9252 161.296 97.2954 154.376C97.9561 153.118 97.9182 150.474 96.6379 150.599C82.6077 150.459 92.2533 134.105 87.3343 127.68C87.7453 124.786 87.8529 121.765 85.9403 119.875C84.7263 119.37 83.5913 119.117 82.311 119.242C78.2454 119.741 74.8786 121.626 72.988 126.533C72.6307 127.917 72.4979 129.176 72.1406 130.56C70.9866 139.496 70.136 148.558 68.982 157.494C68.7543 162.655 65.9911 169.827 74.4795 167.444C77.859 166.441 80.2995 168.331 81.8549 171.605Z" fill="#F49C32"/>
<path d="M70.4711 125.977C73.3635 123.236 76.7805 122.166 80.1346 121.692C87.6728 113.825 97.0606 110.255 105.186 103.462C109.431 100.245 114.412 98.5798 118.806 95.8401C122.199 93.0994 125.667 90.5974 125.733 85.2289C120.856 79.2591 115.059 83.9063 110.165 86.6456C105.408 89.0271 100.426 90.6926 98.448 92.3609C101.853 90.4553 108.112 88.0752 113.771 83.7858C116.801 80.6868 120.982 78.0662 119.184 72.338C108.573 70.4191 99.8086 77.5688 90.8945 84.2411C86.4345 92.3494 78.3476 96.8751 75.2635 106.178C76.1478 112.979 68.8613 118.46 70.4711 125.977Z" fill="#F79622"/>
<path d="M74.3662 104.863C80.0062 99.0695 86.9923 95.1294 89.7984 85.9997C90.2756 83.4084 91.6381 81.1886 93.0774 79.2158C95.4426 75.2694 98.8347 71.3244 97.6584 65.892C94.3274 58.482 88.243 58.7206 81.6693 60.6864C78.0305 67.9636 76.7412 59.6923 74.0325 60.0589C66.2257 63.0105 70.2116 70.0512 69.1805 74.9868C70.462 77.4571 71.4484 79.8034 72.7299 82.2737C75.669 82.648 80.9975 80.8038 81.0743 81.0508C81.3125 87.5927 78.0861 92.8956 74.2695 97.9508C69.9153 101.277 71.9932 103.008 74.3662 104.863Z" fill="#F59A2C"/>
<path d="M68.6009 73.9381C72.23 69.8511 69.036 62.903 74.1485 59.438C77.6883 54.235 79.8992 48.9062 75.9939 43.8171C74.0839 44.3106 72.4054 45.5483 71.6291 48.0271C70.1702 49.1412 68.7112 50.2551 67.2522 51.3691C66.0085 57.3192 62.7776 63.5147 66.3212 69.0992C67.0811 70.7121 67.841 72.3251 68.6009 73.9381Z" fill="#F6A23D"/>
<path d="M74.8194 98.1002C85.2697 93.9391 83.81 83.499 85.4153 73.063C81.3123 77.1099 77.861 80.7893 73.4283 82.1341C81.139 85.583 76.0505 92.2074 74.8194 98.1002Z" fill="#F7A039"/>
<path d="M105.934 28.4737C105.419 27.6311 105.193 26.9091 104.678 26.0664C98.6948 24.6162 95.2702 31.3488 90.2769 33.8694C83.6004 34.2229 78.0409 37.3443 75.1432 45.7617C74.423 50.693 73.7028 55.6243 73.1965 60.4355C74.8164 63.2041 75.617 68.9792 79.8969 61.7663C87.3603 51.0684 101.141 50.1215 106.909 36.4143C107.728 33.4078 108.045 30.4008 105.934 28.4737Z" fill="#F69621"/>
<path d="M75.0336 44.2384C80.1248 40.5508 85.141 36.6249 90.1572 32.6991C89.6451 31.8649 89.133 31.0307 88.5459 29.9582C76.6442 27.0887 74.674 39.1166 70.5804 47.5692C71.9939 46.4986 73.4075 45.4279 75.0336 44.2384Z" fill="#F8A849"/>
<path d="M84.4057 129.809C83.8622 133.026 77.0744 136.853 84.681 138.967C87.7829 139.838 87.9206 144.417 85.2403 147.383C83.1399 149.732 78.9554 150.345 81.5908 154.68C83.3262 157.776 86.1969 157.904 89.2623 156.175C90.5761 155.435 92.1088 154.57 93.8605 153.583C93.7143 158.904 90.365 161.375 87.9279 165.95C101.418 167.949 98.3684 181.31 99.1831 192.202C101.231 191.338 103.201 190.227 105.131 191.468C107.268 191.718 108.801 190.854 109.499 188.132C114.056 187.891 115.633 195.442 120.965 192.726C121.403 192.48 122.06 192.109 122.421 191.615C124.894 189.638 126.918 187.042 127.384 183.577C127.4 179.493 126.683 175.532 124.652 172.312C121.963 169.462 118.566 168.467 114.689 170.071C113.813 170.564 112.873 171.677 111.689 171.18C113.221 170.316 114.6 168.957 115.31 167.101C115.427 164.997 114.888 163.264 113.615 161.654C112.163 157.815 106.945 163.377 106.138 158.302C112.2 144.697 124.494 145.332 133.293 138.043C134.311 137.178 135.033 136.189 135.897 134.829C140.73 128.028 130.496 127.396 133.205 121.212C126.721 115.263 119.613 117.233 111.642 120.564C104.842 123.525 98.3985 130.941 90.6378 128.332C88.3469 127.586 86.2222 128.202 84.4057 129.809Z" fill="#F49522"/>
<path d="M83.5766 127.857C85.5148 129.269 87.2053 128.33 89.0327 127.038C99.9933 128.69 108.733 119.41 118.329 115.185C121.91 112.366 126.061 109.783 125.616 103.671C120.013 99.3187 114.058 104.839 108.105 105.658C99.1431 109.532 90.3926 113.287 83.3428 121.628C83.516 123.744 83.4034 125.742 83.5766 127.857Z" fill="#F79622"/>
<path d="M83.1813 120.597C91.885 116.063 100.378 111.645 109.156 107.343C109.714 102.108 106.743 102.107 103.487 101.99C96.7645 106.525 89.9052 111.409 83.0337 115.478C79.4556 117.455 80.1237 119.549 80.9403 122.109C81.7822 121.644 82.5498 120.946 83.1813 120.597Z" fill="#EC8B17"/>
<path d="M94.7361 70.9779C94.3085 75.9734 89.7714 78.2294 88.3321 82.3913C94.1894 87.5114 97.9928 78.9504 102.967 77.2895C107.516 75.8662 111.792 70.3984 116.764 73.4955C116.198 78.8477 111.999 79.7955 109.112 82.5288C112.982 88.4797 117.096 81.7032 121.083 80.8741C132.285 70.4166 144.92 65.313 157.918 60.5666C160.192 59.855 160.429 61.4015 161.515 62.473C169.411 65.3349 177.572 61.8926 185.557 61.0671C187.406 60.5929 188.957 59.1669 189.708 56.7886C189.51 52.982 187.463 49.6496 185.038 49.8854C177.766 50.5926 184.766 45.8408 183.817 44.4126C181.982 40.9615 179.732 43.3384 177.607 44.526C187.019 38.7059 197.641 37.5259 206.454 29.802C208.618 26.3544 207.208 22.6658 207.585 19.0977C204.9 16.1215 202.212 17.9033 199.313 19.8039C196.2 21.8233 197.801 18.97 197.927 17.7806C195.867 13.6156 191.031 14.9197 188.484 11.5868C181.175 9.7961 174.6 14.3103 168.088 18.2298C161.486 25.8367 151.493 21.0698 147.24 28.203C143.715 31.2925 145.028 28.32 145.552 29.9857C145.702 30.4617 145.84 30.1049 146.477 29.7487C148.377 27.8472 150.927 26.422 150.092 22.9718C143.81 18.0893 139.994 25.8176 134.97 28.9058C134.066 35.5661 129.056 34.729 125.581 36.3912C123.669 37.4601 121.607 38.0529 119.844 39.5977C115.194 43.8757 106.446 46.247 109.215 55.0516C112.208 64.5702 118.762 53.6328 123.697 54.2319C131.071 50.67 137.26 44.1333 144.709 40.8093C136.41 44.6083 129.458 52.6907 120.573 55.4186C111.935 60.5257 101.365 60.2784 94.7361 70.9779Z" fill="#F6941D"/>
<path d="M124.047 84.7498C125.865 83.473 127.325 81.8477 127.215 79.1771C127.302 75.5775 124.629 76.5057 122.786 76.1569C118.79 78.362 115.832 83.8187 110.785 81.9595C105.291 87.996 97.0148 87.6455 91.0131 97.5137C103.175 92.9884 113.716 88.8111 124.047 84.7498Z" fill="#ED8B16"/>
<path d="M117.703 71.9858C120.068 70.1526 122.864 68.8922 125.044 64.1953C116.064 66.1439 108.87 69.8105 101.763 74.5081C97.9319 77.1433 94.631 82.184 89.6787 80.581C88.2377 82.9867 88.8292 84.8194 89.704 86.7667C98.5359 79.7778 108.341 76.5691 117.703 71.9858Z" fill="#F18F1A"/>
<path d="M94.6811 67.9827C103.446 63.3743 111.999 58.8842 120.838 54.5125C121.387 53.0929 122.298 52.0286 121.775 50.3715C120.629 49.8973 119.47 48.5947 118.622 49.0674C116.079 50.4855 113.545 57.4653 110.893 51.4282C108.391 45.8645 114.287 44.804 116.743 42.3209C121.732 37.5913 127.541 35.4657 133.712 33.6954C138.748 32.2792 137.428 29.6749 134.475 27.4242C124.318 24.458 115.638 34.8649 106.114 36.2776C101.637 41.8359 97.5085 46.9212 90.8391 48.6911C85.3788 50.3436 81.5372 55.5474 80.2873 62.6465C85.0852 64.4253 91.5932 61.3535 94.6811 67.9827Z" fill="#F3911B"/>
<path d="M117.642 113.338C108.951 120.365 99.3783 125.399 89.4218 128.44C90.8613 129.848 85.6833 134.65 90.6365 133.832C94.1745 133.248 97.5515 131.374 100.854 129.267C110.625 123.295 120.409 118.144 130.971 122.485C138.357 123.075 143.671 117.921 148.18 111.01C147.7 97.7669 139.742 101.63 132.678 103.619C127.029 105.374 123.588 112.52 117.642 113.338Z" fill="#F18F19"/>
</g>
</svg>
