<svg width="90" height="90" viewBox="0 0 90 90" fill="none" xmlns="http://www.w3.org/2000/svg">
<path d="M54.2166 46.961C54.0496 46.961 53.8862 46.9124 53.7464 46.8212C53.6065 46.7299 53.4963 46.5999 53.4291 46.4471C53.3618 46.2942 53.3406 46.1251 53.3678 45.9604C53.3951 45.7956 53.4697 45.6424 53.5826 45.5193C55.8313 43.0554 57.3152 39.9909 57.8537 36.6988C58.3922 33.4068 57.9619 30.0292 56.6154 26.9772C55.2689 23.9253 53.0641 21.3306 50.2695 19.5091C47.475 17.6876 44.2111 16.7178 40.8753 16.7178C37.5395 16.7178 34.2756 17.6876 31.481 19.5091C28.6865 21.3306 26.4817 23.9253 25.1352 26.9772C23.7886 30.0292 23.3584 33.4068 23.8969 36.6988C24.4353 39.9909 25.9193 43.0554 28.168 45.5193C28.2443 45.6027 28.3034 45.7003 28.342 45.8065C28.3806 45.9127 28.3979 46.0255 28.3929 46.1384C28.3879 46.2513 28.3607 46.3621 28.3129 46.4645C28.2651 46.5669 28.1976 46.6589 28.1142 46.7352C28.0308 46.8115 27.9333 46.8707 27.827 46.9093C27.7208 46.9478 27.608 46.9651 27.4951 46.9602C27.3822 46.9552 27.2714 46.928 27.169 46.8802C27.0666 46.8323 26.9746 46.7648 26.8983 46.6814C24.4248 43.9711 22.7925 40.6002 22.2003 36.9789C21.608 33.3577 22.0813 29.6424 23.5625 26.2852C25.0437 22.9281 27.469 20.074 30.543 18.0704C33.617 16.0667 37.2072 15 40.8766 15C44.5459 15 48.1362 16.0667 51.2102 18.0704C54.2842 20.074 56.7094 22.9281 58.1906 26.2852C59.6718 29.6424 60.1451 33.3577 59.5529 36.9789C58.9606 40.6002 57.3284 43.9711 54.8548 46.6814C54.7738 46.77 54.6752 46.8406 54.5653 46.8888C54.4554 46.9369 54.3366 46.9615 54.2166 46.961Z" fill="white"/>
<path d="M45.1622 46.961C44.9589 46.9614 44.762 46.8898 44.6064 46.7589C44.4509 46.6279 44.3467 46.4461 44.3125 46.2456C44.2783 46.0452 44.3162 45.8391 44.4194 45.664C44.5227 45.4888 44.6847 45.3559 44.8766 45.2888C47.554 44.343 49.8107 42.4811 51.248 40.0322C52.6852 37.5833 53.2103 34.7051 52.7305 31.9064C52.2507 29.1077 50.7969 26.5688 48.6261 24.7385C46.4552 22.9081 43.7072 21.9042 40.8677 21.9042C38.0282 21.9042 35.2801 22.9081 33.1093 24.7385C30.9384 26.5688 29.4846 29.1077 29.0048 31.9064C28.525 34.7051 29.0501 37.5833 30.4874 40.0322C31.9246 42.4811 34.1813 44.343 36.8587 45.2888C37.0738 45.3648 37.25 45.5231 37.3484 45.7289C37.4468 45.9348 37.4594 46.1713 37.3834 46.3864C37.3074 46.6016 37.1491 46.7777 36.9433 46.8761C36.7374 46.9745 36.5009 46.9871 36.2858 46.9111C33.2217 45.8302 30.6386 43.7007 28.9931 40.899C27.3477 38.0973 26.7459 34.8041 27.2942 31.6015C27.8425 28.399 29.5056 25.4935 31.9894 23.3989C34.4732 21.3042 37.6177 20.1553 40.8668 20.1553C44.1159 20.1553 47.2604 21.3042 49.7442 23.3989C52.228 25.4935 53.8911 28.399 54.4394 31.6015C54.9877 34.8041 54.3859 38.0973 52.7405 40.899C51.095 43.7007 48.5119 45.8302 45.4478 46.9111C45.3562 46.9441 45.2596 46.961 45.1622 46.961Z" fill="white"/>
<path d="M58.5533 61.0827H23.1879C22.3427 61.0818 21.5324 60.7456 20.9347 60.148C20.3371 59.5503 20.0009 58.74 20 57.8948V48.4223C20.0011 47.5771 20.3374 46.7669 20.935 46.1693C21.5326 45.5717 22.3428 45.2355 23.1879 45.2344H58.5533C59.3986 45.2353 60.2089 45.5714 60.8065 46.1691C61.4042 46.7667 61.7403 47.5771 61.7413 48.4223V57.8948C61.7403 58.74 61.4042 59.5503 60.8065 60.148C60.2089 60.7456 59.3986 61.0818 58.5533 61.0827ZM23.1879 46.9548C22.7988 46.9552 22.4258 47.11 22.1507 47.3851C21.8756 47.6602 21.7209 48.0332 21.7204 48.4223V57.8948C21.7209 58.2839 21.8756 58.6569 22.1507 58.932C22.4258 59.2071 22.7988 59.3619 23.1879 59.3623H58.5533C58.9424 59.3619 59.3154 59.2071 59.5905 58.932C59.8656 58.6569 60.0204 58.2839 60.0209 57.8948V48.4223C60.0204 48.0332 59.8656 47.6602 59.5905 47.3851C59.3154 47.11 58.9424 46.9552 58.5533 46.9548H23.1879Z" fill="white"/>
<path d="M49.3773 56.8677C49.1492 56.8677 48.9304 56.7771 48.769 56.6158C48.6077 56.4544 48.5171 56.2357 48.5171 56.0075V50.3104C48.5171 50.0823 48.6077 49.8635 48.769 49.7021C48.9304 49.5408 49.1492 49.4502 49.3773 49.4502C49.6054 49.4502 49.8242 49.5408 49.9855 49.7021C50.1469 49.8635 50.2375 50.0823 50.2375 50.3104V56.0075C50.2375 56.2357 50.1469 56.4544 49.9855 56.6158C49.8242 56.7771 49.6054 56.8677 49.3773 56.8677Z" fill="white"/>
<path d="M38.036 56.8677C37.8078 56.8677 37.589 56.7771 37.4277 56.6158C37.2664 56.4544 37.1758 56.2357 37.1758 56.0075V50.3104C37.1758 50.0823 37.2664 49.8635 37.4277 49.7021C37.589 49.5408 37.8078 49.4502 38.036 49.4502C38.2641 49.4502 38.4829 49.5408 38.6442 49.7021C38.8056 49.8635 38.8962 50.0823 38.8962 50.3104V56.0075C38.8962 56.2357 38.8056 56.4544 38.6442 56.6158C38.4829 56.7771 38.2641 56.8677 38.036 56.8677Z" fill="white"/>
<path d="M43.7049 56.8677C43.4768 56.8677 43.258 56.7771 43.0967 56.6158C42.9354 56.4544 42.8447 56.2357 42.8447 56.0075V50.3104C42.8447 50.0823 42.9354 49.8635 43.0967 49.7021C43.258 49.5408 43.4768 49.4502 43.7049 49.4502C43.9331 49.4502 44.1519 49.5408 44.3132 49.7021C44.4745 49.8635 44.5651 50.0823 44.5651 50.3104V56.0075C44.5651 56.2357 44.4745 56.4544 44.3132 56.6158C44.1519 56.7771 43.9331 56.8677 43.7049 56.8677Z" fill="white"/>
<path d="M32.3656 56.8677C32.1374 56.8677 31.9186 56.7771 31.7573 56.6158C31.596 56.4544 31.5054 56.2357 31.5054 56.0075V50.3104C31.5054 50.0823 31.596 49.8635 31.7573 49.7021C31.9186 49.5408 32.1374 49.4502 32.3656 49.4502C32.5937 49.4502 32.8125 49.5408 32.9738 49.7021C33.1351 49.8635 33.2258 50.0823 33.2258 50.3104V56.0075C33.2258 56.2357 33.1351 56.4544 32.9738 56.6158C32.8125 56.7771 32.5937 56.8677 32.3656 56.8677Z" fill="white"/>
<path d="M55.0438 56.8677C54.8157 56.8677 54.5969 56.7771 54.4355 56.6158C54.2742 56.4544 54.1836 56.2357 54.1836 56.0075V50.3104C54.1836 50.0823 54.2742 49.8635 54.4355 49.7021C54.5969 49.5408 54.8157 49.4502 55.0438 49.4502C55.2719 49.4502 55.4907 49.5408 55.6521 49.7021C55.8134 49.8635 55.904 50.0823 55.904 50.3104V56.0075C55.904 56.2357 55.8134 56.4544 55.6521 56.6158C55.4907 56.7771 55.2719 56.8677 55.0438 56.8677Z" fill="white"/>
<path d="M26.6966 56.8677C26.4685 56.8677 26.2497 56.7771 26.0884 56.6158C25.9271 56.4544 25.8364 56.2357 25.8364 56.0075V50.3104C25.8364 50.0823 25.9271 49.8635 26.0884 49.7021C26.2497 49.5408 26.4685 49.4502 26.6966 49.4502C26.9248 49.4502 27.1436 49.5408 27.3049 49.7021C27.4662 49.8635 27.5568 50.0823 27.5568 50.3104V56.0075C27.5568 56.2357 27.4662 56.4544 27.3049 56.6158C27.1436 56.7771 26.9248 56.8677 26.6966 56.8677Z" fill="white"/>
<path d="M65.5895 75.2109H30.224C29.3788 75.21 28.5685 74.8738 27.9709 74.2762C27.3732 73.6785 27.037 72.8682 27.0361 72.023V62.5505C27.037 61.7052 27.3732 60.8949 27.9709 60.2973C28.5685 59.6996 29.3788 59.3635 30.224 59.3625H65.5895C66.4346 59.3637 67.2448 59.6999 67.8424 60.2975C68.44 60.8951 68.7762 61.7053 68.7774 62.5505V72.023C68.7762 72.8681 68.44 73.6783 67.8424 74.2759C67.2448 74.8735 66.4346 75.2097 65.5895 75.2109ZM30.224 61.0829C29.835 61.0834 29.462 61.2382 29.1869 61.5133C28.9117 61.7884 28.757 62.1614 28.7565 62.5505V72.023C28.757 72.412 28.9117 72.785 29.1869 73.0602C29.462 73.3353 29.835 73.49 30.224 73.4905H65.5895C65.9785 73.49 66.3515 73.3353 66.6267 73.0602C66.9018 72.785 67.0565 72.412 67.057 72.023V62.5505C67.0565 62.1614 66.9018 61.7884 66.6267 61.5133C66.3515 61.2382 65.9785 61.0834 65.5895 61.0829H30.224Z" fill="white"/>
<path d="M56.4105 70.9959C56.1824 70.9959 55.9636 70.9053 55.8022 70.7439C55.6409 70.5826 55.5503 70.3638 55.5503 70.1357V64.4386C55.5503 64.2104 55.6409 63.9916 55.8022 63.8303C55.9636 63.669 56.1824 63.5784 56.4105 63.5784C56.6386 63.5784 56.8574 63.669 57.0187 63.8303C57.1801 63.9916 57.2707 64.2104 57.2707 64.4386V70.1357C57.2707 70.3638 57.1801 70.5826 57.0187 70.7439C56.8574 70.9053 56.6386 70.9959 56.4105 70.9959Z" fill="white"/>
<path d="M45.0711 70.9959C44.843 70.9959 44.6242 70.9053 44.4629 70.7439C44.3016 70.5826 44.2109 70.3638 44.2109 70.1357V64.4386C44.2109 64.2104 44.3016 63.9916 44.4629 63.8303C44.6242 63.669 44.843 63.5784 45.0711 63.5784C45.2993 63.5784 45.5181 63.669 45.6794 63.8303C45.8407 63.9916 45.9313 64.2104 45.9313 64.4386V70.1357C45.9313 70.3638 45.8407 70.5826 45.6794 70.7439C45.5181 70.9053 45.2993 70.9959 45.0711 70.9959Z" fill="white"/>
<path d="M50.7411 70.9959C50.5129 70.9959 50.2941 70.9053 50.1328 70.7439C49.9715 70.5826 49.8809 70.3638 49.8809 70.1357V64.4386C49.8809 64.2104 49.9715 63.9916 50.1328 63.8303C50.2941 63.669 50.5129 63.5784 50.7411 63.5784C50.9692 63.5784 51.188 63.669 51.3493 63.8303C51.5106 63.9916 51.6013 64.2104 51.6013 64.4386V70.1357C51.6013 70.3638 51.5106 70.5826 51.3493 70.7439C51.188 70.9053 50.9692 70.9959 50.7411 70.9959Z" fill="white"/>
<path d="M39.3993 70.9959C39.1711 70.9959 38.9523 70.9053 38.791 70.7439C38.6297 70.5826 38.5391 70.3638 38.5391 70.1357V64.4386C38.5391 64.2104 38.6297 63.9916 38.791 63.8303C38.9523 63.669 39.1711 63.5784 39.3993 63.5784C39.6274 63.5784 39.8462 63.669 40.0075 63.8303C40.1688 63.9916 40.2595 64.2104 40.2595 64.4386V70.1357C40.2595 70.3638 40.1688 70.5826 40.0075 70.7439C39.8462 70.9053 39.6274 70.9959 39.3993 70.9959Z" fill="white"/>
<path d="M62.0799 70.9959C61.8518 70.9959 61.633 70.9053 61.4717 70.7439C61.3104 70.5826 61.2197 70.3638 61.2197 70.1357V64.4386C61.2197 64.2104 61.3104 63.9916 61.4717 63.8303C61.633 63.669 61.8518 63.5784 62.0799 63.5784C62.3081 63.5784 62.5269 63.669 62.6882 63.8303C62.8495 63.9916 62.9401 64.2104 62.9401 64.4386V70.1357C62.9401 70.3638 62.8495 70.5826 62.6882 70.7439C62.5269 70.9053 62.3081 70.9959 62.0799 70.9959Z" fill="white"/>
<path d="M33.7318 70.9959C33.5036 70.9959 33.2848 70.9053 33.1235 70.7439C32.9622 70.5826 32.8716 70.3638 32.8716 70.1357V64.4386C32.8716 64.2104 32.9622 63.9916 33.1235 63.8303C33.2848 63.669 33.5036 63.5784 33.7318 63.5784C33.9599 63.5784 34.1787 63.669 34.34 63.8303C34.5014 63.9916 34.592 64.2104 34.592 64.4386V70.1357C34.592 70.3638 34.5014 70.5826 34.34 70.7439C34.1787 70.9053 33.9599 70.9959 33.7318 70.9959Z" fill="white"/>
<path d="M40.8706 41.8599C39.705 41.8586 38.5875 41.3949 37.7633 40.5707C36.9391 39.7465 36.4755 38.629 36.4741 37.4634C36.4741 37.2353 36.5648 37.0165 36.7261 36.8552C36.8874 36.6939 37.1062 36.6032 37.3343 36.6032C37.5625 36.6032 37.7813 36.6939 37.9426 36.8552C38.1039 37.0165 38.1945 37.2353 38.1945 37.4634C38.1944 37.9929 38.3512 38.5106 38.6453 38.9509C38.9393 39.3912 39.3573 39.7345 39.8464 39.9372C40.3356 40.14 40.8739 40.1931 41.3932 40.0899C41.9125 39.9867 42.3896 39.7318 42.764 39.3575C43.1385 38.9832 43.3935 38.5062 43.4969 37.9869C43.6003 37.4676 43.5473 36.9293 43.3447 36.4401C43.1421 35.9509 42.799 35.5328 42.3588 35.2386C41.9185 34.9444 41.4009 34.7874 40.8715 34.7874C40.0017 34.7875 39.1515 34.5297 38.4283 34.0466C37.7051 33.5635 37.1415 32.8767 36.8087 32.0731C36.4759 31.2696 36.3889 30.3854 36.5587 29.5324C36.7286 28.6794 37.1476 27.896 37.7627 27.2812C38.3779 26.6664 39.1616 26.2478 40.0147 26.0785C40.8678 25.9092 41.7519 25.9967 42.5553 26.33C43.3586 26.6632 44.045 27.2273 44.5278 27.9507C45.0105 28.6742 45.2678 29.5246 45.2671 30.3943C45.2671 30.6225 45.1765 30.8412 45.0151 31.0026C44.8538 31.1639 44.635 31.2545 44.4069 31.2545C44.1787 31.2545 43.96 31.1639 43.7986 31.0026C43.6373 30.8412 43.5467 30.6225 43.5467 30.3943C43.5469 29.8648 43.39 29.3471 43.0959 28.9068C42.8018 28.4664 42.3837 28.1232 41.8946 27.9204C41.4054 27.7177 40.8671 27.6646 40.3477 27.7679C39.8284 27.8712 39.3513 28.1261 38.9769 28.5006C38.6024 28.875 38.3475 29.3521 38.2442 29.8714C38.1409 30.3908 38.194 30.9291 38.3967 31.4183C38.5995 31.9075 38.9427 32.3255 39.3831 32.6196C39.8234 32.9137 40.3411 33.0706 40.8706 33.0704C42.0366 33.0704 43.1549 33.5336 43.9794 34.3581C44.8039 35.1826 45.2671 36.3009 45.2671 37.4669C45.2671 38.6329 44.8039 39.7512 43.9794 40.5757C43.1549 41.4002 42.0366 41.8634 40.8706 41.8634V41.8599Z" fill="white"/>
<path d="M40.8709 27.7148C40.6428 27.7148 40.424 27.6242 40.2627 27.4629C40.1014 27.3016 40.0107 27.0828 40.0107 26.8546V25.7415C40.0107 25.5134 40.1014 25.2946 40.2627 25.1333C40.424 24.972 40.6428 24.8813 40.8709 24.8813C41.0991 24.8813 41.3179 24.972 41.4792 25.1333C41.6405 25.2946 41.7311 25.5134 41.7311 25.7415V26.8546C41.7311 27.0828 41.6405 27.3016 41.4792 27.4629C41.3179 27.6242 41.0991 27.7148 40.8709 27.7148Z" fill="white"/>
<path d="M40.8709 42.972C40.6428 42.972 40.424 42.8814 40.2627 42.7201C40.1014 42.5588 40.0107 42.34 40.0107 42.1118V40.9996C40.0107 40.7715 40.1014 40.5527 40.2627 40.3914C40.424 40.23 40.6428 40.1394 40.8709 40.1394C41.0991 40.1394 41.3179 40.23 41.4792 40.3914C41.6405 40.5527 41.7311 40.7715 41.7311 40.9996V42.1118C41.7311 42.34 41.6405 42.5588 41.4792 42.7201C41.3179 42.8814 41.0991 42.972 40.8709 42.972Z" fill="white"/>
<path d="M85.1497 26.9999C87.5135 32.2725 88.8156 37.959 88.9818 43.7347C89.148 49.5105 88.1749 55.2625 86.1181 60.6622C84.0613 66.0619 80.9611 71.0036 76.9945 75.2052C73.0279 79.4067 68.2726 82.7859 63.0001 85.1497C57.7275 87.5135 52.041 88.8156 46.2653 88.9818C40.4895 89.148 34.7375 88.1749 29.3378 86.1181C23.9381 84.0613 18.9964 80.9611 14.7948 76.9945C10.5933 73.0279 7.21411 68.2726 4.8503 63.0001C2.4865 57.7275 1.18435 52.041 1.0182 46.2653C0.852039 40.4895 1.82513 34.7375 3.88192 29.3378C5.9387 23.9381 9.0389 18.9964 13.0055 14.7948C16.9721 10.5933 21.7274 7.2141 26.9999 4.8503C32.2725 2.4865 37.959 1.18435 43.7347 1.0182C49.5105 0.85204 55.2625 1.82513 60.6622 3.88192C66.0619 5.9387 71.0036 9.0389 75.2052 13.0055C79.4067 16.9721 82.7859 21.7274 85.1497 26.9999L85.1497 26.9999Z" stroke="white" stroke-width="2"/>
</svg>
