<svg width="100" height="285" viewBox="0 0 100 285" fill="none" xmlns="http://www.w3.org/2000/svg">
<g opacity="0.8">
<path d="M37.8705 107.995C37.135 110.838 36.1597 113.641 34.0752 116.534C33.4569 127.32 34.5509 127.934 45.5394 125.167C47.0538 124.155 48.2833 122.953 49.1383 121.262C50.3991 116.387 55.2276 111.281 54.8995 106.414C51.542 105.833 52.8766 104.225 55.6205 102.012C59.9694 96.8223 60.3455 92.7847 56.704 89.7496C55.865 88.4726 54.8311 87.3034 53.7972 86.1342C53.093 85.305 51.9989 84.6913 50.6049 84.5916C44.9077 87.567 48.534 91.3069 45.6249 94.4818C42.9251 99.1077 39.461 103.46 37.8705 107.995Z" fill="#F8AE55"/>
<path d="M117.409 11.3587C109.94 19.5219 101.033 25.8576 91.6371 31.3177C87.4038 33.7938 83.0279 36.511 80.4185 40.713C80.3503 41.8934 81.1251 42.2867 82.5568 41.9944C102.062 29.8683 122.187 19.0367 139.245 2.53211C133.623 0.540669 128.014 2.78861 117.409 11.3587Z" fill="#FB9F30"/>
<path d="M91.9848 199.613C95.6416 199.424 99.6121 197.41 103.252 195.743C111.423 191.754 119.999 188.369 126.667 180.906C128.764 177.771 129.465 175.071 126.627 173.653C114.799 177.831 103.535 183.848 94.0916 193.661C92.5255 195.678 90.3116 197.72 91.9848 199.613Z" fill="#EC9835"/>
<path d="M48.1083 123.18C37.7562 127.831 37.5552 121.089 35.409 116.297C27.1415 124.016 35.1714 127.674 32.8937 133.849C39.401 133.25 36.8801 139.383 38.7213 142.41C40.0908 144.642 42.2337 142.583 44.1641 141.343C47.7187 134.816 52.1551 128.154 48.1083 123.18Z" fill="#FACE99"/>
<path d="M50.1226 162.279C48.8344 168.55 53.1527 170.851 58.1446 170.869C61.5522 170.895 63.4794 172.782 66.7975 172.51C70.7455 167.547 71.6592 163.047 69.0453 159.63C63.9038 159.868 61.245 156.302 56.2979 156.433C53.4875 157.64 51.0506 159.335 50.1226 162.279Z" fill="#FCE0BE"/>
<path d="M82.1011 41.9195C81.9704 41.4878 81.651 41.1602 81.5202 40.7285C79.4887 42.0169 77.6893 43.3452 75.6578 44.6337C72.8866 47.8414 73.2653 51.9989 68.3604 54.7042C67.0112 56.7918 67.2149 58.1909 68.2603 59.4616C68.8555 59.9729 69.7844 60.1323 70.6698 60.1478C74.7915 59.218 78.6803 56.0655 82.7727 54.3122C89.2304 50.9184 92.0731 44.3125 97.8048 39.9756C98.7045 39.3115 97.8041 37.7929 96.7443 37.2018C93.0864 36.0286 89.575 38.9729 85.7584 40.91C84.5972 40.7108 83.1901 43.3341 82.1011 41.9195Z" fill="#F79E32"/>
<path d="M37.3332 107.698C41.4026 103.701 44.9424 99.4699 46.7422 94.7977C47.4817 82.8268 47.4817 82.8268 42.7003 81.4356C42.3677 83.3711 42.5647 85.5399 41.4605 87.2004C35.9997 94.9438 35.8645 101.325 37.3332 107.698Z" fill="#FCE1C0"/>
<path d="M111.272 194.878C108.571 199.703 103.554 201.964 99.2607 205.163C94.5917 208.568 95.8656 209.869 98.7734 210.772C106.726 208.062 113.028 202.089 119.546 196.831C121.931 193.849 125.747 191.247 123.864 187.945C119.207 188.506 114.855 190.068 111.272 194.878Z" fill="#FBB665"/>
<path d="M67.7506 160.552C68.2853 164.59 66.8962 169 66.372 173.277C69.1455 173.476 71.5159 174.592 75.0063 172.661C76.6492 167.591 83.2434 161.689 79.2195 157.328C77.8481 156.526 75.8796 156.749 74.0604 156.715C72.0919 156.937 70.1681 157.308 68.4523 159.124C68.1538 159.636 68.0491 160.04 67.7506 160.552Z" fill="#F7AD52"/>
<path d="M77.0378 158.208C78.5578 160.288 78.7927 162.564 75.9252 165.697C73.2497 168.725 72.6721 171.278 74.3842 173.252C75.5809 172.762 76.674 172.672 77.1756 173.597C78.0766 173.614 78.8892 173.336 79.7612 172.51C80.7811 171.43 81.8009 170.35 82.8208 169.27C86.9293 165.793 93.503 164.561 94.5409 158.315C92.1047 156.914 87.3468 159.719 85.6941 157.197C82.6221 156.664 80.9404 153.298 76.2267 156.251C75.9752 156.906 75.9157 157.454 76.2405 157.79C76.6094 158.273 76.8457 158.314 77.0378 158.208Z" fill="#F49A2D"/>
<path d="M44.28 141.1C42.7239 141.961 41.2574 143.119 39.5821 142.829C40.4327 147.92 36.45 156.553 46.7126 155.223C50.3178 155.141 53.101 153.081 55.0023 149.596C56.1274 142.022 45.5644 146.125 44.28 141.1Z" fill="#F9BA6E"/>
<path d="M91.8817 199.278C92.0154 197.49 93.4159 196.201 95.0522 194.953C96.4113 189.059 104.296 185.552 106.171 179.887C103.109 174.897 98.2144 180.177 93.8074 182.616C92.3186 183.611 91.3013 184.688 90.8436 186.141C92.3448 188.91 90.2357 192.305 88.9372 195.423C87.2995 198.9 88.1239 200.158 91.8817 199.278Z" fill="#F8A441"/>
<path d="M70.0137 57.4167C69.6645 56.261 69.359 55.2499 70.4644 53.7969C73.2428 52.7687 76.3265 50.5607 74.4935 48.8758C72.0204 46.5329 68.6312 49.9208 65.8094 52.9956C58.8128 59.0492 52.049 65.1429 48.7038 73.0574C48.7766 74.0285 49.4748 74.1487 50.5513 74.0601C52.1514 73.5139 53.3878 72.4942 54.5806 71.3301C58.3478 65.5423 63.5843 60.966 70.0137 57.4167Z" fill="#FBD4A6"/>
<path d="M53.7807 149.008C53.0454 152.484 49.3917 153.653 46.8525 155.569C49.1848 156.666 44.6338 162.254 49.7399 161.476C52.323 159.706 54.906 157.936 57.5331 156.312C59.2512 153.144 63.948 149.523 61.5579 146.752C59.8569 144.794 56.5846 145.751 53.7807 149.008Z" fill="#F8BB71"/>
<path d="M50.8307 73.5109C50.5412 73.3186 50.4038 72.8666 50.1143 72.6743C45.9121 74.8131 43.1116 77.7628 41.7585 81.674C47.0905 84.0133 42.2826 91.7623 45.8333 95.0829C52.0295 91.1421 45.7226 88.6362 48.7817 85.0165C50.5764 81.0379 52.3253 76.9087 50.8307 73.5109Z" fill="#FAC485"/>
<path d="M65.1118 53.1863C66.4944 52.5923 67.7889 51.705 69.0243 51.3634C70.2157 50.8752 71.8196 48.7906 72.4071 50.0046C73.3179 51.5527 71.0233 52.8224 69.8609 54.1496C79.8609 52.5493 74.82 47.6434 75.9837 44.0924C70.4396 44.9371 67.3348 48.7072 65.1118 53.1863Z" fill="#FACB92"/>
<path d="M80.1883 172.892C79.4115 173.322 78.8289 173.644 78.0522 174.074C77.1707 174.908 74.691 176.454 76.4081 176.892C80.5592 177.894 83.5898 179.689 83.5429 184.054C84.9764 184.303 86.3804 183.7 87.695 182.799C88.6212 182.113 89.3085 181.386 89.9511 180.51C90.3547 179.592 90.37 178.889 90.3405 178.038C89.7438 176.806 88.415 176.152 86.9815 175.904C85.9811 175.589 85.0255 175.424 84.3687 174.745C83.712 174.067 83.1 173.538 82.249 172.967C81.7265 172.736 81.0097 172.611 80.1883 172.892Z" fill="#FCCD96"/>
<path d="M89.7706 180.244C89.2424 180.707 88.4795 181.129 87.9513 181.592C88.0092 183.264 83.1246 184.773 85.4849 186.706C87.2453 185.903 89.1084 184.702 90.648 185.384C91.7484 184.605 93.0395 183.721 94.1398 182.942C94.7419 181.245 93.8183 180.392 93.2762 179.328C92.9097 178.849 92.3965 178.621 91.5019 178.605C90.7391 179.027 90.2109 179.49 89.7706 180.244Z" fill="#FDA842"/>
<path d="M85.6812 186.688C86.5178 185.032 87.3104 183.23 88.147 181.575C86.8562 182.459 85.3748 183.449 84.084 184.333C83.1007 186.241 82.3081 188.042 85.6812 186.688Z" fill="#F8B15C"/>
<path d="M53.0304 148.956C59.862 147.834 59.862 147.834 56.1293 153.058C54.3162 155.464 56.619 155.428 56.9859 156.634C57.0056 162.784 61.1692 162.78 67.557 159.438L67.3735 158.835C72.0513 152.915 70.6754 148.393 68.9949 144.389C67.773 141.894 63.9747 140.817 67.3569 135.963C68.0121 135.074 68.1939 133.39 67.1112 133.634C55.3692 135.347 64.7706 123.658 61.1688 120.184C61.747 118.282 62.0811 116.338 60.6316 115.376C59.6554 115.209 58.725 115.194 57.6424 115.438C54.1963 116.279 51.2235 117.916 49.2433 121.294C48.8322 122.225 48.6193 123.046 48.2082 123.977C46.5196 129.835 45.075 135.735 43.3864 141.593C42.7788 144.92 39.8846 149.857 47.188 147.244C50.1002 146.169 51.9919 147.063 53.0304 148.956Z" fill="#F49C32"/>
<path d="M47.1802 121.263C49.8247 119.14 52.7736 118.017 55.6217 117.283C62.5721 111.288 70.7248 107.801 78.0806 102.416C81.896 99.8154 86.2037 98.1113 90.106 95.7961C93.1698 93.6089 96.2771 91.5647 96.7659 88.1259C93.1627 84.9379 87.9311 88.6521 83.6095 91.0313C79.4322 93.1641 75.1245 94.8683 73.3325 96.1885C76.3389 94.5334 81.774 92.2085 86.8612 88.7407C89.65 86.3712 93.3645 84.1595 92.3205 80.7303C83.5867 80.8674 75.6672 86.5618 67.6607 91.9706C63.2695 97.7245 56.1294 101.655 52.7943 107.996C52.9857 112.228 46.439 116.666 47.1802 121.263Z" fill="#F79622"/>
<path d="M52.1487 107.271C57.3414 102.844 63.5121 99.4291 66.6003 93.2349C67.2093 91.5178 68.53 89.9244 69.8951 88.4789C72.1953 85.6533 75.3556 82.6968 74.809 79.3768C72.6172 75.0699 67.5009 76.004 61.8352 78.1047C58.199 83.2221 57.7871 78.1026 55.4884 78.6848C48.7101 81.5738 51.4804 85.5605 50.2179 88.8468C51.0919 90.2606 51.7287 91.6331 52.6026 93.0469C55.0345 92.9085 59.6473 91.0456 59.6917 91.1935C59.3628 95.343 56.2316 99.1459 52.626 102.866C48.7097 105.551 50.3106 106.39 52.1487 107.271Z" fill="#F59A2C"/>
<path d="M49.8169 88.2511C53.1873 85.1733 51.0729 81.144 55.6356 78.2731C59.0213 74.4937 61.3038 70.8047 58.4434 68.0547C56.8035 68.6154 55.2974 69.6219 54.4469 71.3055C53.1347 72.2048 51.8225 73.104 50.5103 74.0033C48.9878 77.9651 45.7807 82.3389 48.2981 85.452C48.8044 86.385 49.3107 87.3181 49.8169 88.2511Z" fill="#F6A23D"/>
<path d="M53.0743 102.891C62.1648 98.8898 61.7853 92.4063 63.9731 85.5317C60.2091 88.6447 57.0206 91.4392 53.1986 92.868C59.3795 94.0811 54.5816 98.9677 53.0743 102.891Z" fill="#F7A039"/>
<path d="M148.713 1.90955C145.411 2.41628 142.251 2.68624 138.95 3.19296C119.749 16.3218 100.505 29.3139 81.12 42.5428C80.2404 43.1797 78.7091 44.4903 79.4367 44.7371C80.8919 45.2308 82.4341 43.2732 83.911 42.4729C92.9031 38.0812 101.765 33.2793 110.496 28.0672C123.973 20.7643 137.407 13.3247 151.265 7.89943C164.372 3.52132 176.633 -4.88557 189.654 -9.53715C190.806 -10.0006 191.772 -10.3641 192.88 -10.9643C197.365 -13.8755 202.437 -16.3031 204.989 -21.2121C204.935 -26.1513 200.222 -23.2768 196.866 -22.2598C189.557 -20.0625 181.988 -15.9608 174.951 -16.3148C172.051 -15.2244 170.693 -13.3669 169.738 -10.9257C169.238 -5.6864 163.873 -4.86297 160.507 -3.19899C156.814 -1.1982 152.883 1.41288 148.713 1.90955Z" fill="#FC9D27"/>
<path d="M126.027 173.64C127.423 171.047 126.744 170.258 123.803 171.376C121.842 172.122 119.838 172.726 117.877 173.471C113.19 173.89 108.633 174.735 105.466 180.127C101.203 184.795 94.082 188.708 94.9266 195.05C103.294 184.475 116.229 181.681 126.027 173.64Z" fill="#FCA53D"/>
<path d="M95.5771 39.1986C95.6639 39.4782 95.7507 39.7578 95.7941 39.8976C89.4253 43.2152 87.7812 49.8368 82.2743 53.828C82.1191 54.7304 82.5221 55.3277 83.2971 55.7216C93.2499 52.7341 97.2251 49.4167 100.786 41.2571C100.928 41.0156 100.885 40.8758 101.858 40.5071C110.521 37.5706 119.421 31.8888 128.077 31.7356C135.152 29.9939 142.11 27.1719 149.037 23.5492C152.442 21.1977 157.694 18.4902 156.882 15.1732C156.083 11.1952 150.527 12.9241 146.13 14.1827C143.724 14.8438 141.436 16.5851 139.03 17.2462C134.949 18.8225 130.869 20.3988 126.745 21.8352C118.051 23.9711 109.611 29.7291 101.078 33.085C98.0581 34.5722 95.5403 36.2755 95.5771 39.1986Z" fill="#F89620"/>
<path d="M84.764 54.404C84.4007 53.9317 84.2698 53.4994 83.9066 53.0271C79.0111 52.8692 75.5984 57.6112 71.2118 59.8633C65.5902 60.9468 60.6808 63.6556 57.5733 69.4064C56.5717 72.6499 55.57 75.8935 54.7572 79.0328C55.8906 80.5937 56.0948 84.181 60.2628 79.0223C67.3792 71.2277 79 68.8522 84.9393 59.3526C85.8686 57.3263 86.3766 55.3642 84.764 54.404Z" fill="#F69621"/>
<path d="M95.5037 38.2711C103.278 30.6764 112.995 29.9049 121.551 24.7799C123.215 23.8773 124.965 23.2492 126.487 22.5841C128.367 22.3675 130.172 21.2275 130.107 19.6549C130.086 18.2195 128.26 17.9241 126.51 18.5523C121.445 20.3365 116.596 22.8067 111.704 25.1397C101.92 29.8058 92.9831 35.7805 83.9483 42.1299C88.0566 42.7944 91.8408 38.3295 95.5037 38.2711Z" fill="#EB8913"/>
<path d="M57.6046 68.4472C62.1674 65.4369 66.6867 62.2839 71.206 59.1309C70.8444 58.6637 70.4827 58.1964 70.0776 57.5865C60.3391 57.2821 57.7171 65.2207 53.605 71.1477C54.8756 70.282 56.1462 69.4162 57.6046 68.4472Z" fill="#F8A849"/>
<path d="M58.5439 121.921C57.8288 124.046 51.8333 127.364 58.0347 127.737C60.5629 127.895 60.3084 130.803 57.8234 133.043C55.8741 134.814 52.3192 135.743 54.1767 138.174C55.3803 139.93 57.7749 139.643 60.4825 138.144C61.6429 137.502 62.9967 136.753 64.5439 135.897C63.9916 139.316 60.9862 141.325 58.575 144.562C69.7145 144.106 66.0804 153.035 65.883 159.89C67.6682 159.075 69.4087 158.112 70.9254 158.656C72.6952 158.542 74.0491 157.793 74.8532 155.964C78.6907 155.224 79.4018 159.847 84.0879 157.427C84.4747 157.213 85.0549 156.892 85.3972 156.529C87.6289 154.948 89.5337 153.029 90.2043 150.756C90.5479 148.144 90.2667 145.705 88.8252 143.908C86.8035 142.433 84.0374 142.234 80.6605 143.756C79.8869 144.184 79.009 145.016 78.0573 144.851C79.4111 144.102 80.6758 143.056 81.4202 141.779C81.6887 140.42 81.377 139.382 80.4406 138.516C79.5347 136.25 74.7137 140.474 74.4478 137.335C80.6253 127.863 90.8729 126.69 98.8328 120.901C99.7553 120.218 100.44 119.493 101.273 118.513C105.872 113.547 97.3495 114.457 100.118 110.158C95.1676 107.189 89.0538 109.362 82.1067 112.514C76.1711 115.28 70.1744 120.847 63.8839 120.176C62.025 119.994 60.1954 120.661 58.5439 121.921Z" fill="#F49522"/>
<path d="M76.1337 156.246C74.8578 157.118 73.5819 157.989 72.3059 158.86C73.829 159.53 75.337 158.698 76.99 157.619C76.8157 157.045 76.4529 156.574 76.1337 156.246Z" fill="#F49B2F"/>
<path d="M84.9308 159.125C84.1124 167.255 89.489 161.123 93.0606 159.156C94.8984 160.147 96.6353 161.528 99.5715 161.08C106.21 159.094 111.819 155.171 116.531 149.738C114.617 143.446 107.75 149.731 103.237 150.046C97.1927 152.54 90.7129 153.604 84.9308 159.125Z" fill="#F39625"/>
<path d="M99.4818 158.994C97.9059 158.171 96.1255 158.139 93.9509 159.002C91.8045 165.1 84.6244 165.511 80.873 169.955C80.0408 171.6 81.427 172.528 80.3614 174.133C80.8574 175.044 81.3534 175.956 82.0828 176.907C91.1607 173.246 95.5255 166.431 99.4818 158.994Z" fill="#F59A2C"/>
<path d="M80.7035 173.822C82.2166 171.932 81.8481 170.723 81.2348 169.474C80.8686 170.557 80.4563 171.489 80.0901 172.572C80.2283 173.025 80.3665 173.478 80.7035 173.822Z" fill="#F8A94A"/>
<path d="M104.799 179.631C108.892 177.394 113.028 175.297 117.12 173.06C116.544 171.904 116.197 170.786 117.611 169.032C125.194 164.724 133.255 161.953 140.088 155.93C142.259 153.109 146.897 151.228 146.829 147.505C144.845 145.319 141.596 146.768 138.707 148.675C123.986 158.028 109.885 168.677 94.8046 177.573C93.5024 178.285 92.6466 179.734 91.9768 181.081C90.135 183.559 92.9563 182.834 93.4894 183.85C97.1974 182.478 100.999 178.602 104.799 179.631Z" fill="#EB9630"/>
<path d="M99.1111 159.798C93.4539 165.542 87.6098 171.387 81.996 177.272C82.8735 177.286 83.7944 177.44 84.6719 177.454C87.2308 176.546 89.5765 177.074 92.192 175.64C97.6492 170.666 104.882 169.339 109.936 163.762C110.983 162.197 106.379 161.422 111.596 159.22C116.44 157.223 120.807 153.673 124.713 150.046C126.925 148.007 129.784 145.944 127.751 143.594C123.767 144.129 120.318 145.691 117.246 149.191C111.081 152.573 105.971 158.676 99.1111 159.798Z" fill="#F79F37"/>
<path d="M92.02 174.563C89.7976 175.282 87.4 175.419 85.3381 177.408C86.5514 177.756 87.8085 178.249 88.8317 178.702C89.7235 178.718 90.7177 178.339 91.6681 177.813C92.7796 176.35 93.3209 175.202 92.02 174.563Z" fill="#FAB96B"/>
<path d="M90.8927 177.385C90.1323 177.805 89.6057 178.266 88.8453 178.686C89.0206 179.269 89.3422 179.6 89.4736 180.037C90.2341 179.617 90.9507 179.051 91.7112 178.63C91.8136 178.234 91.9161 177.838 92.0185 177.442C91.5945 177.506 91.1705 177.571 90.8927 177.385Z" fill="#F8B15C"/>
<path d="M91.3917 180.668C106.842 172.779 121.195 162.122 135.852 152.42C139.087 150.348 142.54 146.235 145.689 149.334C155.091 144.882 163.842 138.38 172.94 132.971C185.133 125.726 197.542 119.164 209.735 111.919C214.773 108.709 219.897 105.773 223.86 101.224C224.609 100.178 224.946 99.1949 224.457 98.3385C218.659 95.0731 211.504 101.831 205.12 103.528C200.734 106.064 196.315 107.817 191.885 110.217C185.512 113.989 179.714 118.891 172.896 121.944C170.084 123.307 167.446 125.217 165.394 127.61C153.929 137.824 140.368 144.849 127.698 153.314C117.894 159.906 108.752 167.901 97.8841 172.506C94.844 173.833 92.2383 176.526 90.5447 179.365C90.8596 179.675 91.218 180.121 91.3917 180.668Z" fill="#FCA53D"/>
<path d="M58.0067 120.78C59.5163 121.433 61.0084 120.616 62.6436 119.556C71.692 119.203 79.7635 112.151 88.1434 108.218C91.3703 105.957 95.0571 103.773 95.178 99.9247C90.8357 97.8637 85.4011 102.156 80.3478 103.444C72.5274 107.071 64.8935 110.595 58.3141 116.83C58.2883 118.16 58.0326 119.451 58.0067 120.78Z" fill="#F79622"/>
<path d="M58.2624 116.192C65.9199 112.176 73.3917 108.262 81.0927 104.386C81.9831 100.969 79.4943 101.35 76.7763 101.693C70.778 105.455 64.6374 109.457 58.5523 112.94C55.3952 114.663 55.7857 115.915 56.2629 117.446C57.0058 117.04 57.7052 116.496 58.2624 116.192Z" fill="#EC8B17"/>
<path d="M71.9498 83.0018C71.188 86.2488 67.2049 88.2732 65.663 91.1175C70.1562 93.6366 74.034 87.6777 78.335 85.9774C82.2608 84.4835 86.2849 80.4403 90.1993 81.7806C89.2933 85.2731 85.6993 86.4182 83.0592 88.5357C85.8206 91.841 89.815 86.9824 93.2215 85.9405C103.45 77.8192 114.447 72.9348 125.719 68.2321C127.682 67.4852 127.755 68.443 128.579 68.9881C134.962 69.8024 142.077 66.5544 148.832 65.001C150.42 64.4604 151.834 63.3501 152.655 61.7339C152.797 59.327 151.351 57.4607 149.301 57.9228C143.152 59.309 149.4 55.3734 148.72 54.5827C147.462 52.6132 145.385 54.4212 143.509 55.453C151.864 50.5249 160.857 48.4063 168.864 42.3386C170.955 39.8577 170.072 37.6819 170.676 35.3535C168.667 33.7968 166.272 35.2806 163.689 36.8676C160.919 38.5578 162.49 36.5289 162.692 35.7528C161.303 33.3559 157.146 34.8106 155.281 33.0082C149.304 32.803 143.431 36.5322 137.659 39.8733C131.514 45.5821 123.527 43.82 119.389 48.9243C116.186 51.3513 117.526 49.2832 117.831 50.2802C117.918 50.5651 118.062 50.3195 118.625 50.0099C120.37 48.5508 122.621 47.3126 122.2 45.2152C117.332 42.9025 113.511 48.3309 109.053 50.9498C107.758 55.3217 103.628 55.4304 100.583 56.9389C98.8949 57.8676 97.1197 58.5113 95.5182 59.7249C91.2767 63.0559 83.7568 65.695 85.3651 70.9652C87.1039 76.6628 93.4776 68.832 97.5635 68.5808C104.029 65.3575 109.741 60.3855 116.25 57.3046C108.991 60.7983 102.514 66.8559 94.8502 69.7405C87.2023 74.1135 78.3669 75.3135 71.9498 83.0018Z" fill="#F6941D"/>
<path d="M76.244 102.447C77.613 103.349 78.9819 104.25 80.5812 105.19C85.0715 104.874 89.4846 101.46 93.8145 99.9103C99.9741 99.3392 104.774 95.0525 109.618 90.9072C113.14 88.1483 108.372 86.1381 112.081 83.2766C111.547 82.248 110.438 82.1952 108.999 82.4892C101.678 85.6806 97.0722 94.1569 88.8129 95.7152C84.7001 97.9722 80.1964 98.9565 76.244 102.447Z" fill="#F28F19"/>
<path d="M88.2299 95.6442C96.8162 96.5568 102.018 88.5697 108.55 83.4937C112.519 79.3282 119.662 78.3851 121.727 72.2861C113.358 72.0819 105.847 77.5299 98.4235 83.2613C96.7697 84.9969 95.6203 86.9521 95.3497 88.9213C94.4475 92.3957 90.6321 93.4977 88.2299 95.6442Z" fill="#F6941E"/>
<path d="M95.3917 88.0362C97.0184 86.9867 98.3729 85.7606 98.4957 84.0684C98.8595 81.7571 96.5459 82.6936 95.0299 82.7075C91.504 84.6299 88.5855 88.4966 84.5076 87.957C79.4177 92.5201 72.5128 93.3594 66.6879 100.436C77.2415 95.982 86.4094 91.9585 95.3917 88.0362Z" fill="#ED8B16"/>
<path d="M91.1082 80.6954C93.2375 79.2202 95.6818 78.0556 97.8874 74.7743C90.2072 77.1731 83.8846 80.4402 77.5511 84.355C74.129 86.531 70.9566 90.1759 66.9375 89.7879C65.5359 91.5102 65.8834 92.6053 66.459 93.7372C74.4221 88.1368 82.8954 84.8268 91.1082 80.6954Z" fill="#F18F1A"/>
<path d="M72.1457 81.095C79.8604 77.0243 87.388 73.0564 95.1462 69.1274C95.7209 68.1497 96.5695 67.3527 96.2655 66.361C95.3434 66.2053 94.478 65.5218 93.7296 65.9328C91.4844 67.1656 88.798 71.9511 87.0641 68.4342C85.417 65.2007 90.442 63.7656 92.7007 61.8633C97.2614 58.2003 102.3 56.0957 107.612 54.1718C111.946 52.6199 111.05 51.1253 108.758 50.0666C100.489 49.4761 92.3767 57.2411 84.2845 59.3673C80.0847 63.4942 76.2156 67.2739 70.4855 69.2617C65.7779 71.0191 62.1393 74.8377 60.5188 79.5345C64.3944 80.0547 70.0944 77.2558 72.1457 81.095Z" fill="#F3911B"/>
<path d="M83.0038 59.7828C86.6323 60.93 90.4874 59.9709 94.5257 56.7641C98.7509 53.4548 103.427 53.036 107.639 50.3946C111.751 48.1385 115.906 46.0236 120.018 43.7675C130.492 42.3147 138.599 36.7104 141.852 28.8143C132.452 27.3653 124.136 36.5531 115.104 39.8572C112.918 40.5612 110.719 41.9332 110.014 42.4847C106.937 43.8429 108.415 41.5453 107.928 42.8036C107.828 43.1888 108.245 43.125 108.806 42.8174C115.404 38.7014 123.592 38.338 128.414 30.5721C119.432 29.0593 110.22 36.7561 101.202 39.3922C100.411 39.661 100.124 40.1488 99.6934 40.8805C95.6757 47.7096 90.733 52.2385 83.3135 55.814C83.2436 57.0085 83.2171 58.3444 83.0038 59.7828Z" fill="#F7941E"/>
<path d="M87.717 107.126C79.8682 112.733 71.4427 117.179 62.8563 120.402C63.9485 121.116 59.223 124.85 63.4384 123.691C66.4494 122.863 69.4297 121.232 72.3667 119.461C81.0346 114.39 89.6464 109.842 98.1438 111.259C104.283 110.687 109.152 106.711 113.487 101.715C114.155 93.3152 107.176 96.8061 101.098 98.9842C96.2241 100.831 92.7643 105.84 87.717 107.126Z" fill="#F18F19"/>
<path d="M88.161 146.374C87.6479 148.966 87.7386 151.391 89.3239 152.997C92.417 153.116 95.0891 151.155 97.8046 149.335C109.423 138.837 124.199 132.217 134.923 120.23C132.7 115.839 128.45 120.48 125.087 122.324C120.187 124.847 115.98 129.63 110.615 129.932C105.754 130.454 101.761 133.799 97.768 137.144C94.0618 140.002 89.7215 142.218 88.161 146.374Z" fill="#F9A138"/>
<path d="M99.4232 137.523C102.598 135.134 104.838 131.13 109.123 130.914C115.64 129.477 120.93 124.787 126.078 120.338C127.281 115.101 122.76 118.063 120.398 118.864C114.097 121 107.871 124.076 101.744 126.771C94.2029 131.22 85.7508 132.733 79.3503 140.156C79.84 141.033 80.3297 141.91 80.8195 142.787C86.6729 144.82 93.3463 137.575 99.4232 137.523Z" fill="#F79520"/>
<path d="M79.3 139.138C87.0008 135.262 94.7329 132.183 102.13 127.332C104.805 126.85 106.16 125.622 105.881 123.332C104.661 122.207 102.587 122.524 100.37 123.082C90.7499 126.378 81.6067 131.204 73.0277 137.839C71.6288 138.928 69.1278 139.967 69.1468 141.422C69.2093 143.016 71.5245 142.078 73.2393 141.305C75.1832 140.57 77.3561 139.873 79.3 139.138Z" fill="#ED8B15"/>
<path d="M72.7932 137.556C82.2986 134.486 90.9616 127.286 100.281 124.318C101.064 121.922 100.4 120.481 97.9608 120.34C89.5223 125.45 77.8578 125.765 72.7932 137.556Z" fill="#F79620"/>
<path d="M97.6073 121.168C98.4601 122.525 99.082 123.844 99.9348 125.201C101.564 124.804 102.963 124.367 104.593 123.969C111.891 122.78 118.882 118.439 126.047 114.667C128.915 112.592 130.672 110.464 129.472 107.969C126.05 105.367 120.889 108.536 116.375 109.523C111.389 113.26 107.342 118.639 100.937 119.171C100.562 119.377 99.9567 119.544 99.5819 119.75C98.8757 120.304 98.1261 120.716 97.6073 121.168Z" fill="#F49B31"/>
<path d="M113.687 101.378C108.424 105.125 103.306 108.624 97.9994 112.227C96.6182 113.494 94.0157 115.099 96.8075 115.58C99.1339 115.98 99.1487 117.488 99.018 119.244C104.732 118.448 108.832 114.501 112.758 109.976C114.953 107.754 117.061 105.243 117.817 102.636C117.482 100.799 117.104 98.8183 113.687 101.378Z" fill="#F99721"/>
<path d="M97.576 148.146C95.0653 149.839 92.3691 151.634 89.8584 153.327C87.7622 154.957 85.2635 155.994 84.8011 158.683C90.6274 156.481 96.6826 154.318 102.509 152.116C108.079 146.319 117.075 146.613 121.939 139.251C118.893 135.064 113.717 139.347 109.407 141.534C105.696 143.557 101.831 146.476 97.576 148.146Z" fill="#EA8D1D"/>
<path d="M99.9525 137.375C94.2964 133.886 87.4981 141.566 81.2905 142.663C80.0273 143.52 78.764 144.377 74.9743 146.949C80.852 146.198 85.1323 144.51 88.2534 145.435C92.1864 142.62 95.9761 140.048 99.9525 137.375Z" fill="#F08F19"/>
<path d="M90.7481 179.112C109.585 168.709 127.14 155.614 145.542 143.833C152.217 139.558 158.403 134.419 165.698 131.422C169.345 129.924 166.984 128.624 165.853 127.786C164.939 127.637 163.884 127.727 162.73 128.192C149.394 133.344 139.012 145.123 126.034 150.725C120.23 155.011 113.164 158.045 109.295 164.347C102.839 166.565 96.3291 169.297 91.1438 174.86C90.7621 175.714 90.3804 176.567 89.9988 177.42C90.2592 178.247 90.5745 178.56 90.7481 179.112Z" fill="#FDA842"/>
<path d="M112.766 101.148C114.766 100.547 115.674 101.37 116.252 102.541C117.086 102.413 118.065 102.041 118.913 101.245C120.852 99.0242 122.288 96.5838 124.414 94.2599C129.759 88.1866 135.955 83.4639 143.307 81.0819C144.242 80.5688 145.133 79.9144 145.981 79.1185C147.072 77.6931 147.747 76.3314 147.586 75.0974C147.369 74.3902 146.778 73.8882 145.813 73.5915C141.062 73.0589 135.784 75.7905 130.662 77.6096C123.902 80.4936 116.867 83.1973 111.062 89.1929C105.296 93.1835 99.3436 97.2766 93.578 101.267C92.6769 104.736 89.0945 105.876 86.4638 107.981C91.6021 107.64 96.4028 103.353 101.25 101.353C106.616 98.9047 110.328 98.1892 112.766 101.148Z" fill="#F7951F"/>
<path d="M120.737 72.9117C123.557 71.5403 126.42 70.3066 129.24 68.9352C129.361 67.255 130.94 66.0738 132.857 63.9016C119.325 69.8051 106.285 73.8272 94.5236 83.288C95.7529 83.7497 96.7536 84.1742 97.9829 84.6359C104.92 78.4431 112.769 75.1447 120.737 72.9117Z" fill="#F18E18"/>
<path d="M96.2102 67.3463C95.8276 68.2028 95.4451 69.0594 95.106 70.0543C104.098 67.5884 110.885 60.165 118.868 55.1698C110.574 57.0936 103.55 62.3771 96.2102 67.3463Z" fill="#F08D17"/>
<path d="M121.558 138.852C124.082 137.141 126.793 135.327 129.317 133.616C130.587 129.96 133.914 127.316 136.694 124.314C139.803 120.966 138.766 119.725 135.019 120.299C122.068 129.201 108.758 137.643 97.0176 148.349C105.376 147.881 113.156 139.18 121.558 138.852Z" fill="#F19A33"/>
<path d="M115.884 110.009C117.155 109.143 118.426 108.277 119.885 107.307C118.292 103.518 114.987 108.503 112.385 108.602C108.313 112.509 104.284 116.56 99.4452 119.39C107.641 120.379 109.895 119.139 115.884 110.009Z" fill="#FBA33A"/>
</g>
</svg>
