<svg width="375" height="185" viewBox="0 0 375 185" fill="none" xmlns="http://www.w3.org/2000/svg">
<path d="M199.435 41.8148C199.435 44.5209 201.623 46.7088 204.329 46.7088C207.035 46.7088 209.223 44.5209 209.223 41.8148C209.223 39.1088 207.035 36.9209 204.329 36.9209C201.623 36.9209 199.435 39.1088 199.435 41.8148Z" fill="url(#paint0_linear)"/>
<path d="M95.0311 29.2092C95.0311 30.8492 96.3571 32.1752 97.9971 32.1752C99.6372 32.1752 100.963 30.8492 100.963 29.2092C100.963 27.5691 99.6372 26.2432 97.9971 26.2432C96.3571 26.2432 95.0311 27.5761 95.0311 29.2092Z" fill="url(#paint1_linear)"/>
<path d="M172.741 114.275C172.741 115.833 174 117.092 175.559 117.092C177.117 117.092 178.376 115.833 178.376 114.275C178.376 112.716 177.117 111.457 175.559 111.457C174 111.457 172.741 112.716 172.741 114.275Z" fill="url(#paint2_linear)"/>
<path d="M-6.9999 62.8735C-6.9999 66.5636 -4.01644 69.547 -0.326368 69.547C3.3637 69.547 6.34717 66.5636 6.34717 62.8735C6.34717 59.1834 3.3637 56.2 -0.326368 56.2C-4.01644 56.2 -6.9999 59.1834 -6.9999 62.8735Z" fill="url(#paint3_linear)"/>
<path d="M363.455 96.0928C363.455 99.1269 365.908 101.58 368.943 101.58C371.977 101.58 374.43 99.1269 374.43 96.0928C374.43 93.0588 371.977 90.6057 368.943 90.6057C365.908 90.6057 363.455 93.0588 363.455 96.0928Z" fill="url(#paint4_linear)"/>
<path d="M353.218 136.659V166.161" stroke="url(#paint5_linear)" stroke-miterlimit="10"/>
<path d="M305.27 120.368V149.875" stroke="url(#paint6_linear)" stroke-miterlimit="10"/>
<path d="M281.222 57.613V87.115" stroke="url(#paint7_linear)" stroke-miterlimit="10"/>
<path d="M257.676 94.0894V134.809" stroke="url(#paint8_linear)" stroke-width="1.1748" stroke-miterlimit="10"/>
<path d="M233.207 84.7407V125.46" stroke="url(#paint9_linear)" stroke-width="1.1748" stroke-miterlimit="10"/>
<path d="M205.548 144.281V185" stroke="url(#paint10_linear)" stroke-width="1.1748" stroke-miterlimit="10"/>
<path d="M161.526 81.3232V122.043" stroke="url(#paint11_linear)" stroke-width="1.1748" stroke-miterlimit="10"/>
<path d="M120.43 35.7344V81.6335" stroke="url(#paint12_linear)" stroke-width="1.2473" stroke-miterlimit="10"/>
<path d="M93.4202 53.8271V99.7263" stroke="url(#paint13_linear)" stroke-width="1.2473" stroke-miterlimit="10"/>
<path d="M65.8572 41.6665V79.5572" stroke="url(#paint14_linear)" stroke-width="1.1332" stroke-miterlimit="10"/>
<path d="M373.523 178.372V169.832C373.523 167.805 375.167 166.161 377.195 166.161C379.223 166.161 380.866 167.805 380.866 169.832V178.372C380.866 180.4 379.223 182.043 377.195 182.043C375.167 182.043 373.523 180.4 373.523 178.372Z" fill="url(#paint15_linear)"/>
<path d="M349.549 158.042V149.503C349.549 147.475 351.193 145.832 353.221 145.832C355.249 145.832 356.893 147.475 356.893 149.503V158.042C356.893 160.07 355.249 161.714 353.221 161.714C351.193 161.714 349.549 160.07 349.549 158.042Z" fill="url(#paint16_linear)"/>
<path d="M325.649 146.185V114.993C325.649 112.965 327.293 111.321 329.32 111.321C331.348 111.321 332.992 112.965 332.992 114.993V146.185C332.992 148.213 331.348 149.856 329.32 149.856C327.293 149.856 325.649 148.213 325.649 146.185Z" fill="url(#paint17_linear)"/>
<path d="M301.601 121.784V113.384C301.601 111.356 303.245 109.712 305.273 109.712C307.301 109.712 308.945 111.356 308.945 113.384V121.784C308.945 123.812 307.301 125.456 305.273 125.456C303.245 125.456 301.601 123.812 301.601 121.784Z" fill="url(#paint18_linear)"/>
<path d="M277.547 114.411V81.373C277.547 79.3452 279.191 77.7014 281.219 77.7014C283.247 77.7014 284.89 79.3452 284.89 81.373V114.411C284.89 116.438 283.247 118.082 281.219 118.082C279.191 118.082 277.547 116.438 277.547 114.411Z" fill="url(#paint19_linear)"/>
<path d="M254.001 137.365V124.086C254.001 122.059 255.645 120.415 257.672 120.415C259.7 120.415 261.344 122.059 261.344 124.086V137.365C261.344 139.393 259.7 141.036 257.672 141.036C255.645 141.036 254.001 139.393 254.001 137.365Z" fill="url(#paint20_linear)"/>
<path d="M229.539 145.262V122.278C229.539 120.25 231.183 118.606 233.211 118.606C235.238 118.606 236.882 120.25 236.882 122.278V145.262C236.882 147.29 235.238 148.934 233.211 148.934C231.183 148.934 229.539 147.29 229.539 145.262Z" fill="url(#paint21_linear)"/>
<path d="M201.879 159.051V126.014C201.879 123.986 203.523 122.342 205.551 122.342C207.579 122.342 209.223 123.986 209.223 126.014V159.051C209.223 161.079 207.579 162.723 205.551 162.723C203.523 162.723 201.879 161.079 201.879 159.051Z" fill="url(#paint22_linear)"/>
<path d="M157.503 95.4258V62.3881C157.503 60.3604 159.147 58.7166 161.175 58.7166C163.203 58.7166 164.847 60.3604 164.847 62.3881V95.4258C164.847 97.4536 163.203 99.0974 161.175 99.0974C159.147 99.0974 157.503 97.4536 157.503 95.4258Z" fill="url(#paint23_linear)"/>
<path d="M116.755 80.5077V72.7661C116.755 70.7383 118.399 69.0945 120.426 69.0945C122.454 69.0945 124.098 70.7383 124.098 72.7661V80.5077C124.098 82.5355 122.454 84.1793 120.426 84.1793C118.399 84.1793 116.755 82.5355 116.755 80.5077Z" fill="url(#paint24_linear)"/>
<path d="M89.7452 113.486V80.4482C89.7452 78.4204 91.389 76.7766 93.4168 76.7766C95.4446 76.7766 97.0884 78.4204 97.0884 80.4482V113.486C97.0884 115.514 95.4446 117.157 93.4168 117.157C91.389 117.157 89.7452 115.514 89.7452 113.486Z" fill="url(#paint25_linear)"/>
<path d="M62.1888 80.4809V72.7392C62.1888 70.7114 63.8327 69.0676 65.8604 69.0676C67.8882 69.0676 69.532 70.7114 69.532 72.7392V80.4809C69.532 82.5087 67.8882 84.1525 65.8604 84.1525C63.8327 84.1525 62.1888 82.5087 62.1888 80.4809Z" fill="url(#paint26_linear)"/>
<path d="M37.8741 54.8335V-13.8782C37.8741 -15.906 39.5179 -17.5498 41.5457 -17.5498C43.5735 -17.5498 45.2173 -15.906 45.2173 -13.8782V54.8335C45.2173 56.8613 43.5735 58.5051 41.5457 58.5051C39.5179 58.5051 37.8741 56.8613 37.8741 54.8335Z" fill="url(#paint27_linear)"/>
<path d="M2.85985 -2.29762V-30.6887C2.85985 -32.7165 4.5037 -34.3604 6.53149 -34.3604C8.55928 -34.3604 10.2031 -32.7165 10.2031 -30.6887V-2.29762C10.2031 -0.269825 8.55928 1.37402 6.53149 1.37402C4.5037 1.37402 2.85985 -0.269825 2.85985 -2.29762Z" fill="url(#paint28_linear)"/>
<defs>
<linearGradient id="paint0_linear" x1="208.155" y1="36.9691" x2="206.605" y2="46.4024" gradientUnits="userSpaceOnUse">
<stop offset="2.1e-07" stop-color="#3EC9FE"/>
<stop offset="1" stop-color="#B1DEF7"/>
</linearGradient>
<linearGradient id="paint1_linear" x1="92.4877" y1="33.6438" x2="98.3707" y2="23.6821" gradientUnits="userSpaceOnUse">
<stop offset="2.1e-07" stop-color="#FFC536"/>
<stop offset="1" stop-color="#FF5936"/>
</linearGradient>
<linearGradient id="paint2_linear" x1="170.325" y1="118.487" x2="175.913" y2="109.024" gradientUnits="userSpaceOnUse">
<stop offset="2.1e-07" stop-color="#FFC536"/>
<stop offset="1" stop-color="#FF5936"/>
</linearGradient>
<linearGradient id="paint3_linear" x1="-12.7225" y1="72.8515" x2="0.514079" y2="50.4376" gradientUnits="userSpaceOnUse">
<stop offset="2.1e-07" stop-color="#FFC536"/>
<stop offset="1" stop-color="#FF5936"/>
</linearGradient>
<linearGradient id="paint4_linear" x1="358.75" y1="104.297" x2="369.634" y2="85.8678" gradientUnits="userSpaceOnUse">
<stop offset="2.1e-07" stop-color="#FFC536"/>
<stop offset="1" stop-color="#FF5936"/>
</linearGradient>
<linearGradient id="paint5_linear" x1="-nan" y1="-nan" x2="-nan" y2="-nan" gradientUnits="userSpaceOnUse">
<stop offset="2.1e-07"/>
<stop offset="1" stop-color="#34FFFF"/>
</linearGradient>
<linearGradient id="paint6_linear" x1="-nan" y1="-nan" x2="-nan" y2="-nan" gradientUnits="userSpaceOnUse">
<stop offset="2.1e-07"/>
<stop offset="1" stop-color="#34FFFF"/>
</linearGradient>
<linearGradient id="paint7_linear" x1="-nan" y1="-nan" x2="-nan" y2="-nan" gradientUnits="userSpaceOnUse">
<stop offset="2.1e-07"/>
<stop offset="1" stop-color="#34FFFF"/>
</linearGradient>
<linearGradient id="paint8_linear" x1="-nan" y1="-nan" x2="-nan" y2="-nan" gradientUnits="userSpaceOnUse">
<stop offset="2.1e-07"/>
<stop offset="1" stop-color="#34FFFF"/>
</linearGradient>
<linearGradient id="paint9_linear" x1="-nan" y1="-nan" x2="-nan" y2="-nan" gradientUnits="userSpaceOnUse">
<stop offset="2.1e-07"/>
<stop offset="1" stop-color="#34FFFF"/>
</linearGradient>
<linearGradient id="paint10_linear" x1="-nan" y1="-nan" x2="-nan" y2="-nan" gradientUnits="userSpaceOnUse">
<stop offset="2.1e-07"/>
<stop offset="1" stop-color="#34FFFF"/>
</linearGradient>
<linearGradient id="paint11_linear" x1="-nan" y1="-nan" x2="-nan" y2="-nan" gradientUnits="userSpaceOnUse">
<stop offset="2.1e-07"/>
<stop offset="1" stop-color="#34FFFF"/>
</linearGradient>
<linearGradient id="paint12_linear" x1="-nan" y1="-nan" x2="-nan" y2="-nan" gradientUnits="userSpaceOnUse">
<stop offset="2.1e-07"/>
<stop offset="1" stop-color="#34FFFF"/>
</linearGradient>
<linearGradient id="paint13_linear" x1="-nan" y1="-nan" x2="-nan" y2="-nan" gradientUnits="userSpaceOnUse">
<stop offset="2.1e-07"/>
<stop offset="1" stop-color="#34FFFF"/>
</linearGradient>
<linearGradient id="paint14_linear" x1="-nan" y1="-nan" x2="-nan" y2="-nan" gradientUnits="userSpaceOnUse">
<stop offset="2.1e-07"/>
<stop offset="1" stop-color="#34FFFF"/>
</linearGradient>
<linearGradient id="paint15_linear" x1="380.065" y1="166.239" x2="375.107" y2="180.198" gradientUnits="userSpaceOnUse">
<stop offset="2.1e-07" stop-color="#3EC9FE"/>
<stop offset="1" stop-color="#B1DEF7"/>
</linearGradient>
<linearGradient id="paint16_linear" x1="356.091" y1="145.91" x2="351.133" y2="159.869" gradientUnits="userSpaceOnUse">
<stop offset="2.1e-07" stop-color="#3EC9FE"/>
<stop offset="1" stop-color="#B1DEF7"/>
</linearGradient>
<linearGradient id="paint17_linear" x1="228.775" y1="79.8815" x2="321.282" y2="176.745" gradientUnits="userSpaceOnUse">
<stop offset="2.1e-07" stop-color="#BB33FA"/>
<stop offset="1" stop-color="#34FFFF"/>
</linearGradient>
<linearGradient id="paint18_linear" x1="308.143" y1="109.79" x2="303.262" y2="123.653" gradientUnits="userSpaceOnUse">
<stop offset="2.1e-07" stop-color="#3EC9FE"/>
<stop offset="1" stop-color="#B1DEF7"/>
</linearGradient>
<linearGradient id="paint19_linear" x1="274.399" y1="128.08" x2="300.123" y2="120.158" gradientUnits="userSpaceOnUse">
<stop offset="2.1e-07" stop-color="#FFC536"/>
<stop offset="1" stop-color="#FF5936"/>
</linearGradient>
<linearGradient id="paint20_linear" x1="250.852" y1="146.142" x2="271.507" y2="133.688" gradientUnits="userSpaceOnUse">
<stop offset="2.1e-07" stop-color="#FFC536"/>
<stop offset="1" stop-color="#FF5936"/>
</linearGradient>
<linearGradient id="paint21_linear" x1="236.081" y1="118.756" x2="222.137" y2="139.316" gradientUnits="userSpaceOnUse">
<stop offset="2.1e-07" stop-color="#3EC9FE"/>
<stop offset="1" stop-color="#B1DEF7"/>
</linearGradient>
<linearGradient id="paint22_linear" x1="208.421" y1="122.541" x2="188.541" y2="144.556" gradientUnits="userSpaceOnUse">
<stop offset="2.1e-07" stop-color="#3EC9FE"/>
<stop offset="1" stop-color="#B1DEF7"/>
</linearGradient>
<linearGradient id="paint23_linear" x1="164.045" y1="58.9155" x2="144.165" y2="80.9303" gradientUnits="userSpaceOnUse">
<stop offset="2.1e-07" stop-color="#3EC9FE"/>
<stop offset="1" stop-color="#B1DEF7"/>
</linearGradient>
<linearGradient id="paint24_linear" x1="113.606" y1="87.914" x2="130.376" y2="74.091" gradientUnits="userSpaceOnUse">
<stop offset="2.1e-07" stop-color="#FFC536"/>
<stop offset="1" stop-color="#FF5936"/>
</linearGradient>
<linearGradient id="paint25_linear" x1="86.5968" y1="127.155" x2="112.321" y2="119.234" gradientUnits="userSpaceOnUse">
<stop offset="2.1e-07" stop-color="#FFC536"/>
<stop offset="1" stop-color="#FF5936"/>
</linearGradient>
<linearGradient id="paint26_linear" x1="68.7307" y1="69.142" x2="64.2086" y2="82.5469" gradientUnits="userSpaceOnUse">
<stop offset="2.1e-07" stop-color="#3EC9FE"/>
<stop offset="1" stop-color="#B1DEF7"/>
</linearGradient>
<linearGradient id="paint27_linear" x1="44.416" y1="-17.175" x2="11.5266" y2="2.16225" gradientUnits="userSpaceOnUse">
<stop offset="2.1e-07" stop-color="#3EC9FE"/>
<stop offset="1" stop-color="#B1DEF7"/>
</linearGradient>
<linearGradient id="paint28_linear" x1="9.4018" y1="-34.1843" x2="-7.84701" y2="-12.5996" gradientUnits="userSpaceOnUse">
<stop offset="2.1e-07" stop-color="#3EC9FE"/>
<stop offset="1" stop-color="#B1DEF7"/>
</linearGradient>
</defs>
</svg>
