<svg width="375" height="546" viewBox="0 0 375 546" fill="none" xmlns="http://www.w3.org/2000/svg">
<path d="M199.435 41.8148C199.435 44.5209 201.623 46.7088 204.329 46.7088C207.035 46.7088 209.223 44.5209 209.223 41.8148C209.223 39.1088 207.035 36.9209 204.329 36.9209C201.623 36.9209 199.435 39.1088 199.435 41.8148Z" fill="url(#paint0_linear)"/>
<path d="M95.0311 29.2092C95.0311 30.8492 96.3571 32.1752 97.9971 32.1752C99.6372 32.1752 100.963 30.8492 100.963 29.2092C100.963 27.5691 99.6372 26.2432 97.9971 26.2432C96.3571 26.2432 95.0311 27.5761 95.0311 29.2092Z" fill="url(#paint1_linear)"/>
<path d="M172.741 114.275C172.741 115.833 174 117.092 175.559 117.092C177.117 117.092 178.376 115.833 178.376 114.275C178.376 112.716 177.117 111.457 175.559 111.457C174 111.457 172.741 112.716 172.741 114.275Z" fill="url(#paint2_linear)"/>
<path d="M-6.9999 62.8735C-6.9999 66.5636 -4.01644 69.547 -0.326368 69.547C3.3637 69.547 6.34717 66.5636 6.34717 62.8735C6.34717 59.1834 3.3637 56.2 -0.326368 56.2C-4.01644 56.2 -6.9999 59.1834 -6.9999 62.8735Z" fill="url(#paint3_linear)"/>
<path d="M363.455 96.0928C363.455 99.1269 365.908 101.58 368.943 101.58C371.977 101.58 374.43 99.1269 374.43 96.0928C374.43 93.0588 371.977 90.6057 368.943 90.6057C365.908 90.6057 363.455 93.0588 363.455 96.0928Z" fill="url(#paint4_linear)"/>
<path d="M353.218 136.659V166.161" stroke="url(#paint5_linear)" stroke-miterlimit="10"/>
<path d="M305.27 120.368V149.875" stroke="url(#paint6_linear)" stroke-miterlimit="10"/>
<path d="M281.222 57.613V87.115" stroke="url(#paint7_linear)" stroke-miterlimit="10"/>
<path d="M257.676 94.0894V134.809" stroke="url(#paint8_linear)" stroke-width="1.1748" stroke-miterlimit="10"/>
<path d="M233.207 84.7407V125.46" stroke="url(#paint9_linear)" stroke-width="1.1748" stroke-miterlimit="10"/>
<path d="M205.548 144.281V185" stroke="url(#paint10_linear)" stroke-width="1.1748" stroke-miterlimit="10"/>
<path d="M161.526 81.3232V122.043" stroke="url(#paint11_linear)" stroke-width="1.1748" stroke-miterlimit="10"/>
<path d="M120.43 35.7344V81.6335" stroke="url(#paint12_linear)" stroke-width="1.2473" stroke-miterlimit="10"/>
<path d="M93.4202 53.8271V99.7263" stroke="url(#paint13_linear)" stroke-width="1.2473" stroke-miterlimit="10"/>
<path d="M65.8572 41.6665V79.5572" stroke="url(#paint14_linear)" stroke-width="1.1332" stroke-miterlimit="10"/>
<path d="M373.523 178.372V169.832C373.523 167.805 375.167 166.161 377.195 166.161C379.223 166.161 380.866 167.805 380.866 169.832V178.372C380.866 180.4 379.223 182.043 377.195 182.043C375.167 182.043 373.523 180.4 373.523 178.372Z" fill="url(#paint15_linear)"/>
<path d="M349.549 158.042V149.503C349.549 147.475 351.193 145.832 353.221 145.832C355.249 145.832 356.893 147.475 356.893 149.503V158.042C356.893 160.07 355.249 161.714 353.221 161.714C351.193 161.714 349.549 160.07 349.549 158.042Z" fill="url(#paint16_linear)"/>
<path d="M325.649 146.185V114.993C325.649 112.965 327.293 111.321 329.32 111.321C331.348 111.321 332.992 112.965 332.992 114.993V146.185C332.992 148.213 331.348 149.856 329.32 149.856C327.293 149.856 325.649 148.213 325.649 146.185Z" fill="url(#paint17_linear)"/>
<path d="M301.601 121.784V113.384C301.601 111.356 303.245 109.712 305.273 109.712C307.301 109.712 308.945 111.356 308.945 113.384V121.784C308.945 123.812 307.301 125.456 305.273 125.456C303.245 125.456 301.601 123.812 301.601 121.784Z" fill="url(#paint18_linear)"/>
<path d="M277.547 114.411V81.373C277.547 79.3452 279.191 77.7014 281.219 77.7014C283.247 77.7014 284.89 79.3452 284.89 81.373V114.411C284.89 116.438 283.247 118.082 281.219 118.082C279.191 118.082 277.547 116.438 277.547 114.411Z" fill="url(#paint19_linear)"/>
<path d="M254.001 137.365V124.086C254.001 122.059 255.645 120.415 257.672 120.415C259.7 120.415 261.344 122.059 261.344 124.086V137.365C261.344 139.393 259.7 141.036 257.672 141.036C255.645 141.036 254.001 139.393 254.001 137.365Z" fill="url(#paint20_linear)"/>
<path d="M229.539 145.262V122.278C229.539 120.25 231.183 118.606 233.211 118.606C235.238 118.606 236.882 120.25 236.882 122.278V145.262C236.882 147.29 235.238 148.934 233.211 148.934C231.183 148.934 229.539 147.29 229.539 145.262Z" fill="url(#paint21_linear)"/>
<path d="M201.879 159.051V126.014C201.879 123.986 203.523 122.342 205.551 122.342C207.579 122.342 209.223 123.986 209.223 126.014V159.051C209.223 161.079 207.579 162.723 205.551 162.723C203.523 162.723 201.879 161.079 201.879 159.051Z" fill="url(#paint22_linear)"/>
<path d="M157.503 95.4258V62.3881C157.503 60.3604 159.147 58.7166 161.175 58.7166C163.203 58.7166 164.847 60.3604 164.847 62.3881V95.4258C164.847 97.4536 163.203 99.0974 161.175 99.0974C159.147 99.0974 157.503 97.4536 157.503 95.4258Z" fill="url(#paint23_linear)"/>
<path d="M116.755 80.5077V72.7661C116.755 70.7383 118.399 69.0945 120.426 69.0945C122.454 69.0945 124.098 70.7383 124.098 72.7661V80.5077C124.098 82.5355 122.454 84.1793 120.426 84.1793C118.399 84.1793 116.755 82.5355 116.755 80.5077Z" fill="url(#paint24_linear)"/>
<path d="M89.7452 113.486V80.4482C89.7452 78.4204 91.389 76.7766 93.4168 76.7766C95.4446 76.7766 97.0884 78.4204 97.0884 80.4482V113.486C97.0884 115.514 95.4446 117.157 93.4168 117.157C91.389 117.157 89.7452 115.514 89.7452 113.486Z" fill="url(#paint25_linear)"/>
<path d="M62.1888 80.4809V72.7392C62.1888 70.7114 63.8327 69.0676 65.8604 69.0676C67.8882 69.0676 69.532 70.7114 69.532 72.7392V80.4809C69.532 82.5087 67.8882 84.1525 65.8604 84.1525C63.8327 84.1525 62.1888 82.5087 62.1888 80.4809Z" fill="url(#paint26_linear)"/>
<path d="M37.8741 54.8335V-13.8782C37.8741 -15.906 39.5179 -17.5498 41.5457 -17.5498C43.5735 -17.5498 45.2173 -15.906 45.2173 -13.8782V54.8335C45.2173 56.8613 43.5735 58.5051 41.5457 58.5051C39.5179 58.5051 37.8741 56.8613 37.8741 54.8335Z" fill="url(#paint27_linear)"/>
<path d="M2.85985 -2.29762V-30.6887C2.85985 -32.7165 4.5037 -34.3604 6.53149 -34.3604C8.55928 -34.3604 10.2031 -32.7165 10.2031 -30.6887V-2.29762C10.2031 -0.269825 8.55928 1.37402 6.53149 1.37402C4.5037 1.37402 2.85985 -0.269825 2.85985 -2.29762Z" fill="url(#paint28_linear)"/>
<path d="M174.432 402.815C174.432 405.521 172.244 407.709 169.538 407.709C166.832 407.709 164.644 405.521 164.644 402.815C164.644 400.109 166.832 397.921 169.538 397.921C172.244 397.921 174.432 400.109 174.432 402.815Z" fill="url(#paint29_linear)"/>
<path d="M278.835 390.209C278.835 391.849 277.509 393.175 275.869 393.175C274.229 393.175 272.903 391.849 272.903 390.209C272.903 388.569 274.229 387.243 275.869 387.243C277.509 387.243 278.835 388.576 278.835 390.209Z" fill="url(#paint30_linear)"/>
<path d="M201.126 475.275C201.126 476.833 199.866 478.092 198.308 478.092C196.75 478.092 195.49 476.833 195.49 475.275C195.49 473.716 196.75 472.457 198.308 472.457C199.866 472.457 201.126 473.716 201.126 475.275Z" fill="url(#paint31_linear)"/>
<path d="M380.866 423.873C380.866 427.564 377.883 430.547 374.193 430.547C370.503 430.547 367.519 427.564 367.519 423.873C367.519 420.183 370.503 417.2 374.193 417.2C377.883 417.2 380.866 420.183 380.866 423.873Z" fill="url(#paint32_linear)"/>
<path d="M10.411 457.093C10.411 460.127 7.95796 462.58 4.9239 462.58C1.88984 462.58 -0.563232 460.127 -0.563232 457.093C-0.563232 454.059 1.88984 451.606 4.9239 451.606C7.95796 451.606 10.411 454.059 10.411 457.093Z" fill="url(#paint33_linear)"/>
<path d="M20.6487 497.659V527.161" stroke="url(#paint34_linear)" stroke-miterlimit="10"/>
<path d="M68.5969 481.368V510.875" stroke="url(#paint35_linear)" stroke-miterlimit="10"/>
<path d="M92.6445 418.613V448.115" stroke="url(#paint36_linear)" stroke-miterlimit="10"/>
<path d="M116.191 455.089V495.809" stroke="url(#paint37_linear)" stroke-width="1.1748" stroke-miterlimit="10"/>
<path d="M140.659 445.741V486.46" stroke="url(#paint38_linear)" stroke-width="1.1748" stroke-miterlimit="10"/>
<path d="M168.319 505.281V546" stroke="url(#paint39_linear)" stroke-width="1.1748" stroke-miterlimit="10"/>
<path d="M212.341 442.323V483.043" stroke="url(#paint40_linear)" stroke-width="1.1748" stroke-miterlimit="10"/>
<path d="M253.437 396.734V442.634" stroke="url(#paint41_linear)" stroke-width="1.2473" stroke-miterlimit="10"/>
<path d="M280.446 414.827V460.726" stroke="url(#paint42_linear)" stroke-width="1.2473" stroke-miterlimit="10"/>
<path d="M332.317 309.533V355.437" stroke="url(#paint43_linear)" stroke-width="1.2473" stroke-miterlimit="10"/>
<path d="M367.619 295V340.899" stroke="url(#paint44_linear)" stroke-width="1.2473" stroke-miterlimit="10"/>
<path d="M308.009 402.667V440.557" stroke="url(#paint45_linear)" stroke-width="1.1332" stroke-miterlimit="10"/>
<path d="M0.343204 539.372V530.832C0.343204 528.805 -1.30063 527.161 -3.3284 527.161C-5.35617 527.161 -7 528.805 -7 530.832V539.372C-7 541.4 -5.35617 543.043 -3.3284 543.043C-1.30063 543.043 0.343204 541.4 0.343204 539.372Z" fill="url(#paint46_linear)"/>
<path d="M24.3171 519.042V510.503C24.3171 508.475 22.6732 506.832 20.6455 506.832C18.6177 506.832 16.9739 508.475 16.9739 510.503V519.042C16.9739 521.07 18.6177 522.714 20.6455 522.714C22.6732 522.714 24.3171 521.07 24.3171 519.042Z" fill="url(#paint47_linear)"/>
<path d="M48.2177 507.185V475.993C48.2177 473.965 46.5739 472.321 44.5461 472.321C42.5183 472.321 40.8745 473.965 40.8745 475.993V507.185C40.8745 509.213 42.5183 510.856 44.5461 510.856C46.5739 510.856 48.2177 509.213 48.2177 507.185Z" fill="url(#paint48_linear)"/>
<path d="M72.2651 482.784V474.384C72.2651 472.356 70.6213 470.712 68.5935 470.712C66.5657 470.712 64.9219 472.356 64.9219 474.384V482.784C64.9219 484.812 66.5657 486.456 68.5935 486.456C70.6213 486.456 72.2651 484.812 72.2651 482.784Z" fill="url(#paint49_linear)"/>
<path d="M96.3193 475.411V442.373C96.3193 440.345 94.6754 438.701 92.6477 438.701C90.6199 438.701 88.9761 440.345 88.9761 442.373V475.411C88.9761 477.438 90.6199 479.082 92.6477 479.082C94.6754 479.082 96.3193 477.438 96.3193 475.411Z" fill="url(#paint50_linear)"/>
<path d="M119.866 498.365V485.086C119.866 483.059 118.222 481.415 116.194 481.415C114.166 481.415 112.522 483.059 112.522 485.086V498.365C112.522 500.393 114.166 502.036 116.194 502.036C118.222 502.036 119.866 500.393 119.866 498.365Z" fill="url(#paint51_linear)"/>
<path d="M144.327 506.262V483.278C144.327 481.25 142.684 479.606 140.656 479.606C138.628 479.606 136.984 481.25 136.984 483.278V506.262C136.984 508.29 138.628 509.934 140.656 509.934C142.684 509.934 144.327 508.29 144.327 506.262Z" fill="url(#paint52_linear)"/>
<path d="M171.987 520.051V487.014C171.987 484.986 170.343 483.342 168.315 483.342C166.288 483.342 164.644 484.986 164.644 487.014V520.051C164.644 522.079 166.288 523.723 168.315 523.723C170.343 523.723 171.987 522.079 171.987 520.051Z" fill="url(#paint53_linear)"/>
<path d="M216.363 456.426V423.388C216.363 421.36 214.719 419.717 212.691 419.717C210.664 419.717 209.02 421.36 209.02 423.388V456.426C209.02 458.454 210.664 460.097 212.691 460.097C214.719 460.097 216.363 458.454 216.363 456.426Z" fill="url(#paint54_linear)"/>
<path d="M257.112 441.508V433.766C257.112 431.738 255.468 430.094 253.44 430.094C251.412 430.094 249.769 431.738 249.769 433.766V441.508C249.769 443.535 251.412 445.179 253.44 445.179C255.468 445.179 257.112 443.535 257.112 441.508Z" fill="url(#paint55_linear)"/>
<path d="M284.121 474.486V441.448C284.121 439.42 282.477 437.777 280.449 437.777C278.422 437.777 276.778 439.42 276.778 441.448V474.486C276.778 476.514 278.422 478.157 280.449 478.157C282.477 478.157 284.121 476.514 284.121 474.486Z" fill="url(#paint56_linear)"/>
<path d="M311.678 441.481V433.739C311.678 431.711 310.034 430.068 308.006 430.068C305.978 430.068 304.334 431.711 304.334 433.739V441.481C304.334 443.509 305.978 445.152 308.006 445.152C310.034 445.152 311.678 443.509 311.678 441.481Z" fill="url(#paint57_linear)"/>
<path d="M335.992 415.834V347.122C335.992 345.094 334.349 343.45 332.321 343.45C330.293 343.45 328.649 345.094 328.649 347.122V415.834C328.649 417.861 330.293 419.505 332.321 419.505C334.349 419.505 335.992 417.861 335.992 415.834Z" fill="url(#paint58_linear)"/>
<path d="M371.007 358.702V330.311C371.007 328.283 369.363 326.64 367.335 326.64C365.307 326.64 363.663 328.283 363.663 330.311V358.702C363.663 360.73 365.307 362.374 367.335 362.374C369.363 362.374 371.007 360.73 371.007 358.702Z" fill="url(#paint59_linear)"/>
<defs>
<linearGradient id="paint0_linear" x1="208.155" y1="36.9691" x2="206.605" y2="46.4024" gradientUnits="userSpaceOnUse">
<stop offset="2.1e-07" stop-color="#3EC9FE"/>
<stop offset="1" stop-color="#B1DEF7"/>
</linearGradient>
<linearGradient id="paint1_linear" x1="92.4877" y1="33.6438" x2="98.3707" y2="23.6821" gradientUnits="userSpaceOnUse">
<stop offset="2.1e-07" stop-color="#FFC536"/>
<stop offset="1" stop-color="#FF5936"/>
</linearGradient>
<linearGradient id="paint2_linear" x1="170.325" y1="118.487" x2="175.913" y2="109.024" gradientUnits="userSpaceOnUse">
<stop offset="2.1e-07" stop-color="#FFC536"/>
<stop offset="1" stop-color="#FF5936"/>
</linearGradient>
<linearGradient id="paint3_linear" x1="-12.7225" y1="72.8515" x2="0.514079" y2="50.4376" gradientUnits="userSpaceOnUse">
<stop offset="2.1e-07" stop-color="#FFC536"/>
<stop offset="1" stop-color="#FF5936"/>
</linearGradient>
<linearGradient id="paint4_linear" x1="358.75" y1="104.297" x2="369.634" y2="85.8678" gradientUnits="userSpaceOnUse">
<stop offset="2.1e-07" stop-color="#FFC536"/>
<stop offset="1" stop-color="#FF5936"/>
</linearGradient>
<linearGradient id="paint5_linear" x1="-nan" y1="-nan" x2="-nan" y2="-nan" gradientUnits="userSpaceOnUse">
<stop offset="2.1e-07"/>
<stop offset="1" stop-color="#34FFFF"/>
</linearGradient>
<linearGradient id="paint6_linear" x1="-nan" y1="-nan" x2="-nan" y2="-nan" gradientUnits="userSpaceOnUse">
<stop offset="2.1e-07"/>
<stop offset="1" stop-color="#34FFFF"/>
</linearGradient>
<linearGradient id="paint7_linear" x1="-nan" y1="-nan" x2="-nan" y2="-nan" gradientUnits="userSpaceOnUse">
<stop offset="2.1e-07"/>
<stop offset="1" stop-color="#34FFFF"/>
</linearGradient>
<linearGradient id="paint8_linear" x1="-nan" y1="-nan" x2="-nan" y2="-nan" gradientUnits="userSpaceOnUse">
<stop offset="2.1e-07"/>
<stop offset="1" stop-color="#34FFFF"/>
</linearGradient>
<linearGradient id="paint9_linear" x1="-nan" y1="-nan" x2="-nan" y2="-nan" gradientUnits="userSpaceOnUse">
<stop offset="2.1e-07"/>
<stop offset="1" stop-color="#34FFFF"/>
</linearGradient>
<linearGradient id="paint10_linear" x1="-nan" y1="-nan" x2="-nan" y2="-nan" gradientUnits="userSpaceOnUse">
<stop offset="2.1e-07"/>
<stop offset="1" stop-color="#34FFFF"/>
</linearGradient>
<linearGradient id="paint11_linear" x1="-nan" y1="-nan" x2="-nan" y2="-nan" gradientUnits="userSpaceOnUse">
<stop offset="2.1e-07"/>
<stop offset="1" stop-color="#34FFFF"/>
</linearGradient>
<linearGradient id="paint12_linear" x1="-nan" y1="-nan" x2="-nan" y2="-nan" gradientUnits="userSpaceOnUse">
<stop offset="2.1e-07"/>
<stop offset="1" stop-color="#34FFFF"/>
</linearGradient>
<linearGradient id="paint13_linear" x1="-nan" y1="-nan" x2="-nan" y2="-nan" gradientUnits="userSpaceOnUse">
<stop offset="2.1e-07"/>
<stop offset="1" stop-color="#34FFFF"/>
</linearGradient>
<linearGradient id="paint14_linear" x1="-nan" y1="-nan" x2="-nan" y2="-nan" gradientUnits="userSpaceOnUse">
<stop offset="2.1e-07"/>
<stop offset="1" stop-color="#34FFFF"/>
</linearGradient>
<linearGradient id="paint15_linear" x1="380.065" y1="166.239" x2="375.107" y2="180.198" gradientUnits="userSpaceOnUse">
<stop offset="2.1e-07" stop-color="#3EC9FE"/>
<stop offset="1" stop-color="#B1DEF7"/>
</linearGradient>
<linearGradient id="paint16_linear" x1="356.091" y1="145.91" x2="351.133" y2="159.869" gradientUnits="userSpaceOnUse">
<stop offset="2.1e-07" stop-color="#3EC9FE"/>
<stop offset="1" stop-color="#B1DEF7"/>
</linearGradient>
<linearGradient id="paint17_linear" x1="228.775" y1="79.8815" x2="321.282" y2="176.745" gradientUnits="userSpaceOnUse">
<stop offset="2.1e-07" stop-color="#BB33FA"/>
<stop offset="1" stop-color="#34FFFF"/>
</linearGradient>
<linearGradient id="paint18_linear" x1="308.143" y1="109.79" x2="303.262" y2="123.653" gradientUnits="userSpaceOnUse">
<stop offset="2.1e-07" stop-color="#3EC9FE"/>
<stop offset="1" stop-color="#B1DEF7"/>
</linearGradient>
<linearGradient id="paint19_linear" x1="274.399" y1="128.08" x2="300.123" y2="120.158" gradientUnits="userSpaceOnUse">
<stop offset="2.1e-07" stop-color="#FFC536"/>
<stop offset="1" stop-color="#FF5936"/>
</linearGradient>
<linearGradient id="paint20_linear" x1="250.852" y1="146.142" x2="271.507" y2="133.688" gradientUnits="userSpaceOnUse">
<stop offset="2.1e-07" stop-color="#FFC536"/>
<stop offset="1" stop-color="#FF5936"/>
</linearGradient>
<linearGradient id="paint21_linear" x1="236.081" y1="118.756" x2="222.137" y2="139.316" gradientUnits="userSpaceOnUse">
<stop offset="2.1e-07" stop-color="#3EC9FE"/>
<stop offset="1" stop-color="#B1DEF7"/>
</linearGradient>
<linearGradient id="paint22_linear" x1="208.421" y1="122.541" x2="188.541" y2="144.556" gradientUnits="userSpaceOnUse">
<stop offset="2.1e-07" stop-color="#3EC9FE"/>
<stop offset="1" stop-color="#B1DEF7"/>
</linearGradient>
<linearGradient id="paint23_linear" x1="164.045" y1="58.9155" x2="144.165" y2="80.9303" gradientUnits="userSpaceOnUse">
<stop offset="2.1e-07" stop-color="#3EC9FE"/>
<stop offset="1" stop-color="#B1DEF7"/>
</linearGradient>
<linearGradient id="paint24_linear" x1="113.606" y1="87.914" x2="130.376" y2="74.091" gradientUnits="userSpaceOnUse">
<stop offset="2.1e-07" stop-color="#FFC536"/>
<stop offset="1" stop-color="#FF5936"/>
</linearGradient>
<linearGradient id="paint25_linear" x1="86.5968" y1="127.155" x2="112.321" y2="119.234" gradientUnits="userSpaceOnUse">
<stop offset="2.1e-07" stop-color="#FFC536"/>
<stop offset="1" stop-color="#FF5936"/>
</linearGradient>
<linearGradient id="paint26_linear" x1="68.7307" y1="69.142" x2="64.2086" y2="82.5469" gradientUnits="userSpaceOnUse">
<stop offset="2.1e-07" stop-color="#3EC9FE"/>
<stop offset="1" stop-color="#B1DEF7"/>
</linearGradient>
<linearGradient id="paint27_linear" x1="44.416" y1="-17.175" x2="11.5266" y2="2.16225" gradientUnits="userSpaceOnUse">
<stop offset="2.1e-07" stop-color="#3EC9FE"/>
<stop offset="1" stop-color="#B1DEF7"/>
</linearGradient>
<linearGradient id="paint28_linear" x1="9.4018" y1="-34.1843" x2="-7.84701" y2="-12.5996" gradientUnits="userSpaceOnUse">
<stop offset="2.1e-07" stop-color="#3EC9FE"/>
<stop offset="1" stop-color="#B1DEF7"/>
</linearGradient>
<linearGradient id="paint29_linear" x1="165.712" y1="397.969" x2="167.261" y2="407.402" gradientUnits="userSpaceOnUse">
<stop offset="2.1e-07" stop-color="#3EC9FE"/>
<stop offset="1" stop-color="#B1DEF7"/>
</linearGradient>
<linearGradient id="paint30_linear" x1="281.379" y1="394.644" x2="275.496" y2="384.682" gradientUnits="userSpaceOnUse">
<stop offset="2.1e-07" stop-color="#FFC536"/>
<stop offset="1" stop-color="#FF5936"/>
</linearGradient>
<linearGradient id="paint31_linear" x1="203.542" y1="479.487" x2="197.953" y2="470.024" gradientUnits="userSpaceOnUse">
<stop offset="2.1e-07" stop-color="#FFC536"/>
<stop offset="1" stop-color="#FF5936"/>
</linearGradient>
<linearGradient id="paint32_linear" x1="386.589" y1="433.851" x2="373.352" y2="411.438" gradientUnits="userSpaceOnUse">
<stop offset="2.1e-07" stop-color="#FFC536"/>
<stop offset="1" stop-color="#FF5936"/>
</linearGradient>
<linearGradient id="paint33_linear" x1="15.1163" y1="465.297" x2="4.23286" y2="446.868" gradientUnits="userSpaceOnUse">
<stop offset="2.1e-07" stop-color="#FFC536"/>
<stop offset="1" stop-color="#FF5936"/>
</linearGradient>
<linearGradient id="paint34_linear" x1="-nan" y1="-nan" x2="-nan" y2="-nan" gradientUnits="userSpaceOnUse">
<stop offset="2.1e-07"/>
<stop offset="1" stop-color="#34FFFF"/>
</linearGradient>
<linearGradient id="paint35_linear" x1="-nan" y1="-nan" x2="-nan" y2="-nan" gradientUnits="userSpaceOnUse">
<stop offset="2.1e-07"/>
<stop offset="1" stop-color="#34FFFF"/>
</linearGradient>
<linearGradient id="paint36_linear" x1="-nan" y1="-nan" x2="-nan" y2="-nan" gradientUnits="userSpaceOnUse">
<stop offset="2.1e-07"/>
<stop offset="1" stop-color="#34FFFF"/>
</linearGradient>
<linearGradient id="paint37_linear" x1="-nan" y1="-nan" x2="-nan" y2="-nan" gradientUnits="userSpaceOnUse">
<stop offset="2.1e-07"/>
<stop offset="1" stop-color="#34FFFF"/>
</linearGradient>
<linearGradient id="paint38_linear" x1="-nan" y1="-nan" x2="-nan" y2="-nan" gradientUnits="userSpaceOnUse">
<stop offset="2.1e-07"/>
<stop offset="1" stop-color="#34FFFF"/>
</linearGradient>
<linearGradient id="paint39_linear" x1="-nan" y1="-nan" x2="-nan" y2="-nan" gradientUnits="userSpaceOnUse">
<stop offset="2.1e-07"/>
<stop offset="1" stop-color="#34FFFF"/>
</linearGradient>
<linearGradient id="paint40_linear" x1="-nan" y1="-nan" x2="-nan" y2="-nan" gradientUnits="userSpaceOnUse">
<stop offset="2.1e-07"/>
<stop offset="1" stop-color="#34FFFF"/>
</linearGradient>
<linearGradient id="paint41_linear" x1="-nan" y1="-nan" x2="-nan" y2="-nan" gradientUnits="userSpaceOnUse">
<stop offset="2.1e-07"/>
<stop offset="1" stop-color="#34FFFF"/>
</linearGradient>
<linearGradient id="paint42_linear" x1="-nan" y1="-nan" x2="-nan" y2="-nan" gradientUnits="userSpaceOnUse">
<stop offset="2.1e-07"/>
<stop offset="1" stop-color="#34FFFF"/>
</linearGradient>
<linearGradient id="paint43_linear" x1="-nan" y1="-nan" x2="-nan" y2="-nan" gradientUnits="userSpaceOnUse">
<stop offset="2.1e-07"/>
<stop offset="1" stop-color="#34FFFF"/>
</linearGradient>
<linearGradient id="paint44_linear" x1="-nan" y1="-nan" x2="-nan" y2="-nan" gradientUnits="userSpaceOnUse">
<stop offset="2.1e-07"/>
<stop offset="1" stop-color="#34FFFF"/>
</linearGradient>
<linearGradient id="paint45_linear" x1="-nan" y1="-nan" x2="-nan" y2="-nan" gradientUnits="userSpaceOnUse">
<stop offset="2.1e-07"/>
<stop offset="1" stop-color="#34FFFF"/>
</linearGradient>
<linearGradient id="paint46_linear" x1="-6.19868" y1="527.239" x2="-1.24073" y2="541.198" gradientUnits="userSpaceOnUse">
<stop offset="2.1e-07" stop-color="#3EC9FE"/>
<stop offset="1" stop-color="#B1DEF7"/>
</linearGradient>
<linearGradient id="paint47_linear" x1="17.7752" y1="506.91" x2="22.7331" y2="520.869" gradientUnits="userSpaceOnUse">
<stop offset="2.1e-07" stop-color="#3EC9FE"/>
<stop offset="1" stop-color="#B1DEF7"/>
</linearGradient>
<linearGradient id="paint48_linear" x1="145.092" y1="440.881" x2="52.5841" y2="537.745" gradientUnits="userSpaceOnUse">
<stop offset="2.1e-07" stop-color="#BB33FA"/>
<stop offset="1" stop-color="#34FFFF"/>
</linearGradient>
<linearGradient id="paint49_linear" x1="65.7232" y1="470.79" x2="70.6042" y2="484.653" gradientUnits="userSpaceOnUse">
<stop offset="2.1e-07" stop-color="#3EC9FE"/>
<stop offset="1" stop-color="#B1DEF7"/>
</linearGradient>
<linearGradient id="paint50_linear" x1="99.4677" y1="489.08" x2="73.7432" y2="481.158" gradientUnits="userSpaceOnUse">
<stop offset="2.1e-07" stop-color="#FFC536"/>
<stop offset="1" stop-color="#FF5936"/>
</linearGradient>
<linearGradient id="paint51_linear" x1="123.014" y1="507.142" x2="102.36" y2="494.688" gradientUnits="userSpaceOnUse">
<stop offset="2.1e-07" stop-color="#FFC536"/>
<stop offset="1" stop-color="#FF5936"/>
</linearGradient>
<linearGradient id="paint52_linear" x1="137.785" y1="479.756" x2="151.729" y2="500.316" gradientUnits="userSpaceOnUse">
<stop offset="2.1e-07" stop-color="#3EC9FE"/>
<stop offset="1" stop-color="#B1DEF7"/>
</linearGradient>
<linearGradient id="paint53_linear" x1="165.445" y1="483.541" x2="185.325" y2="505.556" gradientUnits="userSpaceOnUse">
<stop offset="2.1e-07" stop-color="#3EC9FE"/>
<stop offset="1" stop-color="#B1DEF7"/>
</linearGradient>
<linearGradient id="paint54_linear" x1="209.821" y1="419.916" x2="229.701" y2="441.93" gradientUnits="userSpaceOnUse">
<stop offset="2.1e-07" stop-color="#3EC9FE"/>
<stop offset="1" stop-color="#B1DEF7"/>
</linearGradient>
<linearGradient id="paint55_linear" x1="260.26" y1="448.914" x2="243.491" y2="435.091" gradientUnits="userSpaceOnUse">
<stop offset="2.1e-07" stop-color="#FFC536"/>
<stop offset="1" stop-color="#FF5936"/>
</linearGradient>
<linearGradient id="paint56_linear" x1="287.269" y1="488.155" x2="261.545" y2="480.234" gradientUnits="userSpaceOnUse">
<stop offset="2.1e-07" stop-color="#FFC536"/>
<stop offset="1" stop-color="#FF5936"/>
</linearGradient>
<linearGradient id="paint57_linear" x1="305.136" y1="430.142" x2="309.658" y2="443.547" gradientUnits="userSpaceOnUse">
<stop offset="2.1e-07" stop-color="#3EC9FE"/>
<stop offset="1" stop-color="#B1DEF7"/>
</linearGradient>
<linearGradient id="paint58_linear" x1="329.45" y1="343.825" x2="362.34" y2="363.162" gradientUnits="userSpaceOnUse">
<stop offset="2.1e-07" stop-color="#3EC9FE"/>
<stop offset="1" stop-color="#B1DEF7"/>
</linearGradient>
<linearGradient id="paint59_linear" x1="364.465" y1="326.816" x2="381.713" y2="348.4" gradientUnits="userSpaceOnUse">
<stop offset="2.1e-07" stop-color="#3EC9FE"/>
<stop offset="1" stop-color="#B1DEF7"/>
</linearGradient>
</defs>
</svg>
