<svg width="375" height="251" viewBox="0 0 375 251" fill="none" xmlns="http://www.w3.org/2000/svg">
<path d="M174.432 107.815C174.432 110.521 172.244 112.709 169.538 112.709C166.832 112.709 164.644 110.521 164.644 107.815C164.644 105.109 166.832 102.921 169.538 102.921C172.244 102.921 174.432 105.109 174.432 107.815Z" fill="url(#paint0_linear)"/>
<path d="M278.835 95.2092C278.835 96.8492 277.509 98.1752 275.869 98.1752C274.229 98.1752 272.903 96.8492 272.903 95.2092C272.903 93.5691 274.229 92.2432 275.869 92.2432C277.509 92.2432 278.835 93.5761 278.835 95.2092Z" fill="url(#paint1_linear)"/>
<path d="M201.126 180.275C201.126 181.833 199.866 183.092 198.308 183.092C196.75 183.092 195.49 181.833 195.49 180.275C195.49 178.716 196.75 177.457 198.308 177.457C199.866 177.457 201.126 178.716 201.126 180.275Z" fill="url(#paint2_linear)"/>
<path d="M380.866 128.873C380.866 132.564 377.883 135.547 374.193 135.547C370.503 135.547 367.519 132.564 367.519 128.873C367.519 125.183 370.503 122.2 374.193 122.2C377.883 122.2 380.866 125.183 380.866 128.873Z" fill="url(#paint3_linear)"/>
<path d="M10.411 162.093C10.411 165.127 7.95796 167.58 4.9239 167.58C1.88984 167.58 -0.563232 165.127 -0.563232 162.093C-0.563232 159.059 1.88984 156.606 4.9239 156.606C7.95796 156.606 10.411 159.059 10.411 162.093Z" fill="url(#paint4_linear)"/>
<path d="M20.6487 202.659V232.161" stroke="url(#paint5_linear)" stroke-miterlimit="10"/>
<path d="M68.5969 186.368V215.875" stroke="url(#paint6_linear)" stroke-miterlimit="10"/>
<path d="M92.6445 123.613V153.115" stroke="url(#paint7_linear)" stroke-miterlimit="10"/>
<path d="M116.191 160.089V200.809" stroke="url(#paint8_linear)" stroke-width="1.1748" stroke-miterlimit="10"/>
<path d="M140.659 150.741V191.46" stroke="url(#paint9_linear)" stroke-width="1.1748" stroke-miterlimit="10"/>
<path d="M168.319 210.281V251" stroke="url(#paint10_linear)" stroke-width="1.1748" stroke-miterlimit="10"/>
<path d="M212.341 147.323V188.043" stroke="url(#paint11_linear)" stroke-width="1.1748" stroke-miterlimit="10"/>
<path d="M253.437 101.734V147.634" stroke="url(#paint12_linear)" stroke-width="1.2473" stroke-miterlimit="10"/>
<path d="M280.446 119.827V165.726" stroke="url(#paint13_linear)" stroke-width="1.2473" stroke-miterlimit="10"/>
<path d="M332.317 14.5334V60.4372" stroke="url(#paint14_linear)" stroke-width="1.2473" stroke-miterlimit="10"/>
<path d="M367.619 0V45.8991" stroke="url(#paint15_linear)" stroke-width="1.2473" stroke-miterlimit="10"/>
<path d="M308.009 107.667V145.557" stroke="url(#paint16_linear)" stroke-width="1.1332" stroke-miterlimit="10"/>
<path d="M0.343204 244.372V235.832C0.343204 233.805 -1.30063 232.161 -3.3284 232.161C-5.35617 232.161 -7 233.805 -7 235.832V244.372C-7 246.4 -5.35617 248.043 -3.3284 248.043C-1.30063 248.043 0.343204 246.4 0.343204 244.372Z" fill="url(#paint17_linear)"/>
<path d="M24.3171 224.042V215.503C24.3171 213.475 22.6732 211.832 20.6455 211.832C18.6177 211.832 16.9739 213.475 16.9739 215.503V224.042C16.9739 226.07 18.6177 227.714 20.6455 227.714C22.6732 227.714 24.3171 226.07 24.3171 224.042Z" fill="url(#paint18_linear)"/>
<path d="M48.2177 212.185V180.993C48.2177 178.965 46.5739 177.321 44.5461 177.321C42.5183 177.321 40.8745 178.965 40.8745 180.993V212.185C40.8745 214.213 42.5183 215.856 44.5461 215.856C46.5739 215.856 48.2177 214.213 48.2177 212.185Z" fill="url(#paint19_linear)"/>
<path d="M72.2651 187.784V179.384C72.2651 177.356 70.6213 175.712 68.5935 175.712C66.5657 175.712 64.9219 177.356 64.9219 179.384V187.784C64.9219 189.812 66.5657 191.456 68.5935 191.456C70.6213 191.456 72.2651 189.812 72.2651 187.784Z" fill="url(#paint20_linear)"/>
<path d="M96.3193 180.411V147.373C96.3193 145.345 94.6754 143.701 92.6477 143.701C90.6199 143.701 88.9761 145.345 88.9761 147.373V180.411C88.9761 182.438 90.6199 184.082 92.6477 184.082C94.6754 184.082 96.3193 182.438 96.3193 180.411Z" fill="url(#paint21_linear)"/>
<path d="M119.866 203.365V190.086C119.866 188.059 118.222 186.415 116.194 186.415C114.166 186.415 112.522 188.059 112.522 190.086V203.365C112.522 205.393 114.166 207.036 116.194 207.036C118.222 207.036 119.866 205.393 119.866 203.365Z" fill="url(#paint22_linear)"/>
<path d="M144.327 211.262V188.278C144.327 186.25 142.684 184.606 140.656 184.606C138.628 184.606 136.984 186.25 136.984 188.278V211.262C136.984 213.29 138.628 214.934 140.656 214.934C142.684 214.934 144.327 213.29 144.327 211.262Z" fill="url(#paint23_linear)"/>
<path d="M171.987 225.051V192.014C171.987 189.986 170.343 188.342 168.315 188.342C166.288 188.342 164.644 189.986 164.644 192.014V225.051C164.644 227.079 166.288 228.723 168.315 228.723C170.343 228.723 171.987 227.079 171.987 225.051Z" fill="url(#paint24_linear)"/>
<path d="M216.363 161.426V128.388C216.363 126.36 214.719 124.717 212.691 124.717C210.664 124.717 209.02 126.36 209.02 128.388V161.426C209.02 163.454 210.664 165.097 212.691 165.097C214.719 165.097 216.363 163.454 216.363 161.426Z" fill="url(#paint25_linear)"/>
<path d="M257.112 146.508V138.766C257.112 136.738 255.468 135.094 253.44 135.094C251.412 135.094 249.769 136.738 249.769 138.766V146.508C249.769 148.535 251.412 150.179 253.44 150.179C255.468 150.179 257.112 148.535 257.112 146.508Z" fill="url(#paint26_linear)"/>
<path d="M284.121 179.486V146.448C284.121 144.42 282.477 142.777 280.449 142.777C278.422 142.777 276.778 144.42 276.778 146.448V179.486C276.778 181.514 278.422 183.157 280.449 183.157C282.477 183.157 284.121 181.514 284.121 179.486Z" fill="url(#paint27_linear)"/>
<path d="M311.678 146.481V138.739C311.678 136.711 310.034 135.068 308.006 135.068C305.978 135.068 304.334 136.711 304.334 138.739V146.481C304.334 148.509 305.978 150.152 308.006 150.152C310.034 150.152 311.678 148.509 311.678 146.481Z" fill="url(#paint28_linear)"/>
<path d="M335.992 120.834V52.1218C335.992 50.094 334.349 48.4502 332.321 48.4502C330.293 48.4502 328.649 50.094 328.649 52.1218V120.834C328.649 122.861 330.293 124.505 332.321 124.505C334.349 124.505 335.992 122.861 335.992 120.834Z" fill="url(#paint29_linear)"/>
<path d="M371.007 63.7024V35.3113C371.007 33.2835 369.363 31.6396 367.335 31.6396C365.307 31.6396 363.663 33.2835 363.663 35.3113V63.7024C363.663 65.7302 365.307 67.374 367.335 67.374C369.363 67.374 371.007 65.7302 371.007 63.7024Z" fill="url(#paint30_linear)"/>
<defs>
<linearGradient id="paint0_linear" x1="165.712" y1="102.969" x2="167.261" y2="112.402" gradientUnits="userSpaceOnUse">
<stop offset="2.1e-07" stop-color="#3EC9FE"/>
<stop offset="1" stop-color="#B1DEF7"/>
</linearGradient>
<linearGradient id="paint1_linear" x1="281.379" y1="99.6438" x2="275.496" y2="89.6821" gradientUnits="userSpaceOnUse">
<stop offset="2.1e-07" stop-color="#FFC536"/>
<stop offset="1" stop-color="#FF5936"/>
</linearGradient>
<linearGradient id="paint2_linear" x1="203.542" y1="184.487" x2="197.953" y2="175.024" gradientUnits="userSpaceOnUse">
<stop offset="2.1e-07" stop-color="#FFC536"/>
<stop offset="1" stop-color="#FF5936"/>
</linearGradient>
<linearGradient id="paint3_linear" x1="386.589" y1="138.851" x2="373.352" y2="116.438" gradientUnits="userSpaceOnUse">
<stop offset="2.1e-07" stop-color="#FFC536"/>
<stop offset="1" stop-color="#FF5936"/>
</linearGradient>
<linearGradient id="paint4_linear" x1="15.1163" y1="170.297" x2="4.23286" y2="151.868" gradientUnits="userSpaceOnUse">
<stop offset="2.1e-07" stop-color="#FFC536"/>
<stop offset="1" stop-color="#FF5936"/>
</linearGradient>
<linearGradient id="paint5_linear" x1="-nan" y1="-nan" x2="-nan" y2="-nan" gradientUnits="userSpaceOnUse">
<stop offset="2.1e-07"/>
<stop offset="1" stop-color="#34FFFF"/>
</linearGradient>
<linearGradient id="paint6_linear" x1="-nan" y1="-nan" x2="-nan" y2="-nan" gradientUnits="userSpaceOnUse">
<stop offset="2.1e-07"/>
<stop offset="1" stop-color="#34FFFF"/>
</linearGradient>
<linearGradient id="paint7_linear" x1="-nan" y1="-nan" x2="-nan" y2="-nan" gradientUnits="userSpaceOnUse">
<stop offset="2.1e-07"/>
<stop offset="1" stop-color="#34FFFF"/>
</linearGradient>
<linearGradient id="paint8_linear" x1="-nan" y1="-nan" x2="-nan" y2="-nan" gradientUnits="userSpaceOnUse">
<stop offset="2.1e-07"/>
<stop offset="1" stop-color="#34FFFF"/>
</linearGradient>
<linearGradient id="paint9_linear" x1="-nan" y1="-nan" x2="-nan" y2="-nan" gradientUnits="userSpaceOnUse">
<stop offset="2.1e-07"/>
<stop offset="1" stop-color="#34FFFF"/>
</linearGradient>
<linearGradient id="paint10_linear" x1="-nan" y1="-nan" x2="-nan" y2="-nan" gradientUnits="userSpaceOnUse">
<stop offset="2.1e-07"/>
<stop offset="1" stop-color="#34FFFF"/>
</linearGradient>
<linearGradient id="paint11_linear" x1="-nan" y1="-nan" x2="-nan" y2="-nan" gradientUnits="userSpaceOnUse">
<stop offset="2.1e-07"/>
<stop offset="1" stop-color="#34FFFF"/>
</linearGradient>
<linearGradient id="paint12_linear" x1="-nan" y1="-nan" x2="-nan" y2="-nan" gradientUnits="userSpaceOnUse">
<stop offset="2.1e-07"/>
<stop offset="1" stop-color="#34FFFF"/>
</linearGradient>
<linearGradient id="paint13_linear" x1="-nan" y1="-nan" x2="-nan" y2="-nan" gradientUnits="userSpaceOnUse">
<stop offset="2.1e-07"/>
<stop offset="1" stop-color="#34FFFF"/>
</linearGradient>
<linearGradient id="paint14_linear" x1="-nan" y1="-nan" x2="-nan" y2="-nan" gradientUnits="userSpaceOnUse">
<stop offset="2.1e-07"/>
<stop offset="1" stop-color="#34FFFF"/>
</linearGradient>
<linearGradient id="paint15_linear" x1="-nan" y1="-nan" x2="-nan" y2="-nan" gradientUnits="userSpaceOnUse">
<stop offset="2.1e-07"/>
<stop offset="1" stop-color="#34FFFF"/>
</linearGradient>
<linearGradient id="paint16_linear" x1="-nan" y1="-nan" x2="-nan" y2="-nan" gradientUnits="userSpaceOnUse">
<stop offset="2.1e-07"/>
<stop offset="1" stop-color="#34FFFF"/>
</linearGradient>
<linearGradient id="paint17_linear" x1="-6.19868" y1="232.239" x2="-1.24073" y2="246.198" gradientUnits="userSpaceOnUse">
<stop offset="2.1e-07" stop-color="#3EC9FE"/>
<stop offset="1" stop-color="#B1DEF7"/>
</linearGradient>
<linearGradient id="paint18_linear" x1="17.7752" y1="211.91" x2="22.7331" y2="225.869" gradientUnits="userSpaceOnUse">
<stop offset="2.1e-07" stop-color="#3EC9FE"/>
<stop offset="1" stop-color="#B1DEF7"/>
</linearGradient>
<linearGradient id="paint19_linear" x1="145.092" y1="145.881" x2="52.5841" y2="242.745" gradientUnits="userSpaceOnUse">
<stop offset="2.1e-07" stop-color="#BB33FA"/>
<stop offset="1" stop-color="#34FFFF"/>
</linearGradient>
<linearGradient id="paint20_linear" x1="65.7232" y1="175.79" x2="70.6042" y2="189.653" gradientUnits="userSpaceOnUse">
<stop offset="2.1e-07" stop-color="#3EC9FE"/>
<stop offset="1" stop-color="#B1DEF7"/>
</linearGradient>
<linearGradient id="paint21_linear" x1="99.4677" y1="194.08" x2="73.7432" y2="186.158" gradientUnits="userSpaceOnUse">
<stop offset="2.1e-07" stop-color="#FFC536"/>
<stop offset="1" stop-color="#FF5936"/>
</linearGradient>
<linearGradient id="paint22_linear" x1="123.014" y1="212.142" x2="102.36" y2="199.688" gradientUnits="userSpaceOnUse">
<stop offset="2.1e-07" stop-color="#FFC536"/>
<stop offset="1" stop-color="#FF5936"/>
</linearGradient>
<linearGradient id="paint23_linear" x1="137.785" y1="184.756" x2="151.729" y2="205.316" gradientUnits="userSpaceOnUse">
<stop offset="2.1e-07" stop-color="#3EC9FE"/>
<stop offset="1" stop-color="#B1DEF7"/>
</linearGradient>
<linearGradient id="paint24_linear" x1="165.445" y1="188.541" x2="185.325" y2="210.556" gradientUnits="userSpaceOnUse">
<stop offset="2.1e-07" stop-color="#3EC9FE"/>
<stop offset="1" stop-color="#B1DEF7"/>
</linearGradient>
<linearGradient id="paint25_linear" x1="209.821" y1="124.916" x2="229.701" y2="146.93" gradientUnits="userSpaceOnUse">
<stop offset="2.1e-07" stop-color="#3EC9FE"/>
<stop offset="1" stop-color="#B1DEF7"/>
</linearGradient>
<linearGradient id="paint26_linear" x1="260.26" y1="153.914" x2="243.491" y2="140.091" gradientUnits="userSpaceOnUse">
<stop offset="2.1e-07" stop-color="#FFC536"/>
<stop offset="1" stop-color="#FF5936"/>
</linearGradient>
<linearGradient id="paint27_linear" x1="287.269" y1="193.155" x2="261.545" y2="185.234" gradientUnits="userSpaceOnUse">
<stop offset="2.1e-07" stop-color="#FFC536"/>
<stop offset="1" stop-color="#FF5936"/>
</linearGradient>
<linearGradient id="paint28_linear" x1="305.136" y1="135.142" x2="309.658" y2="148.547" gradientUnits="userSpaceOnUse">
<stop offset="2.1e-07" stop-color="#3EC9FE"/>
<stop offset="1" stop-color="#B1DEF7"/>
</linearGradient>
<linearGradient id="paint29_linear" x1="329.45" y1="48.825" x2="362.34" y2="68.1622" gradientUnits="userSpaceOnUse">
<stop offset="2.1e-07" stop-color="#3EC9FE"/>
<stop offset="1" stop-color="#B1DEF7"/>
</linearGradient>
<linearGradient id="paint30_linear" x1="364.465" y1="31.8157" x2="381.713" y2="53.4004" gradientUnits="userSpaceOnUse">
<stop offset="2.1e-07" stop-color="#3EC9FE"/>
<stop offset="1" stop-color="#B1DEF7"/>
</linearGradient>
</defs>
</svg>
