<svg width="99" height="352" viewBox="0 0 99 352" fill="none" xmlns="http://www.w3.org/2000/svg">
<path d="M24.5071 134.773C24.535 132.917 24.4592 131.143 23.9363 129.553C24.938 122.028 25.4609 121.348 29.6718 120.862C30.1787 121.242 30.5459 121.822 30.7016 122.833C30.6537 126.014 32.0508 128.565 31.3483 132.096C29.8955 133.258 30.2587 134.102 31.1329 135.062C32.3223 137.779 32.007 140.563 30.1511 143.532C29.6562 144.627 29.0934 145.688 28.5307 146.749C28.1435 147.496 27.6206 148.176 27.0339 148.558C25.0302 147.715 26.962 144.249 26.1318 142.642C25.557 139.958 24.6349 137.64 24.5071 134.773Z" fill="#F8AE55"/>
<path d="M77.2726 219.488C77.1013 219.795 76.9299 220.102 76.7936 220.296C73.7583 220.255 71.2211 218.113 68.1157 218.297C67.7456 218.508 67.3093 218.686 66.9392 218.897C66.5379 218.963 66.1716 218.915 65.8091 218.609C64.137 216.627 63.1701 214.337 65.9864 211.151C69.13 208.385 71.9048 210.251 74.8739 210.261C76.4091 210.225 77.0447 212.354 76.7727 214.954C76.4847 216.375 76.8707 217.342 77.2918 218.197C77.3542 218.487 77.3816 218.891 77.2726 219.488Z" fill="#F89C2E"/>
<path d="M46.7079 185.894C44.5548 181.688 41.5857 179.129 38.3089 177.312C36.8345 176.482 35.3291 175.51 34.7363 173.066C34.8472 172.229 35.217 171.769 35.78 171.656C42.4887 175.998 49.609 179.265 54.7789 187.325C52.1975 190.037 50.1218 189.683 46.7079 185.894Z" fill="#FB9F30"/>
<path d="M57.1135 58.5819C58.6154 57.8911 60.0329 58.4443 61.3536 58.8224C64.2892 59.8485 67.4646 60.3478 69.3646 64.2154C69.8692 65.9993 69.8433 67.785 68.4931 69.4477C64.0556 69.1122 60.0701 67.3244 57.2904 62.3916C56.8753 61.293 56.1932 60.3228 57.1135 58.5819Z" fill="#EC9835"/>
<path d="M30.3517 121.771C26.636 120.777 25.7699 125.6 24.3307 129.473C21.8287 125.841 25.5551 121.463 25.3362 117.594C27.942 116.571 27.6183 112.785 28.727 110.23C29.5495 108.344 30.1912 109.327 30.8408 109.776C31.5437 113.611 32.5935 117.346 30.3517 121.771Z" fill="#FACE99"/>
<path d="M92.7718 30.9823C96.4391 30.1705 99.805 31.7954 103.553 29.9899C104.985 29.7775 105.324 31.6193 106.039 32.739C106.35 34.1803 106.494 35.6702 105.905 37.3224C102.879 39.7348 100.367 38.7805 97.8284 37.4257C96.9495 33.9028 93.6159 34.6175 92.7718 30.9823Z" fill="#FEE9D0"/>
<path d="M92.6837 31.4528C93.8777 32.0328 94.9313 33.066 96.1994 33.1605C98.0019 33.2541 97.8697 35.4057 98.1432 37.233C96.8367 39.7266 95.3038 41.7191 93.3061 41.2701C91.2772 40.6756 89.1431 40.4209 87.8472 37.706C87.4098 35.6687 88.3851 35.2301 89.3916 34.937C90.164 34.6605 91.0302 34.8205 91.1586 32.9277C91.6344 32.3769 92.1766 31.8582 92.6837 31.4528Z" fill="#FCC687"/>
<path d="M35.5739 93.935C35.7731 89.7652 37.8241 87.1651 39.8872 86.0375C41.297 85.2581 42.3126 83.4865 43.6508 82.9389C44.7021 85.5849 44.5547 88.5798 43.0771 91.5929C40.9823 92.5717 39.4688 95.7006 37.4417 96.7123C36.4221 96.4819 35.6137 95.8211 35.5739 93.935Z" fill="#FCE0BE"/>
<path d="M35.4637 171.905C35.3586 172.244 35.1873 172.551 35.0822 172.891C34.3886 172.424 33.7963 171.877 33.1028 171.41C32.327 169.734 32.9729 166.667 31.2507 165.831C30.9348 164.638 31.1839 163.588 31.7679 162.441C32.0755 161.941 32.4806 161.617 32.8506 161.406C34.4556 161.145 35.7026 162.53 37.1987 162.865C39.4857 163.845 39.892 167.942 41.7663 169.762C42.0625 170.035 41.5097 171.328 40.9995 171.99C39.3404 173.656 38.2259 172.335 36.8661 171.806C36.3598 172.21 36.0827 170.645 35.4637 171.905Z" fill="#F79E32"/>
<path d="M46.4672 185.773C49.1162 186.536 51.6917 187.781 54.519 187.725C55.9509 185.314 57.5122 185.422 59.1396 185.562C60.3631 186.024 61.0783 187.146 61.0132 189.312C59.3992 192.798 56.8238 191.554 55.0267 193.917C53.9201 194.546 52.9956 194.099 52.2767 193.235C51.0173 190.687 48.6249 190.565 47.3305 188.13C46.7399 187.586 46.3163 186.993 46.4672 185.773Z" fill="#FBD09D"/>
<path d="M54.6582 205.692C53.6561 205.984 52.654 206.275 51.6519 206.567C49.5806 204.919 47.1017 203.85 46.8705 199.212C47.1847 198.199 47.6858 198.054 48.183 198.165C49.1427 198.499 49.656 199.782 50.5459 200.341C51.2725 200.693 52.0377 200.675 52.904 200.576C53.5371 200.494 54.2052 200.3 54.9082 199.993C55.4442 199.734 55.9764 199.733 56.4388 199.956C57.2625 200.484 57.7136 201.478 57.691 203.019C57.6485 203.645 57.5089 204.095 57.2022 204.594C56.3907 205.495 55.532 205.08 54.6582 205.692Z" fill="#F9B769"/>
<path d="M24.313 135.009C25.5231 136.938 26.4881 139.15 26.6855 142.063C25.5976 150.389 25.5976 150.389 23.4676 152.44C23.5559 151.141 23.8892 149.559 23.6278 148.627C22.2807 144.351 22.9673 139.855 24.313 135.009Z" fill="#FCE1C0"/>
<path d="M70.2212 45.8178C69.668 44.9002 69.5508 43.8043 69.8035 42.4979C71.6017 40.3821 73.0231 41.2011 74.3706 42.5038C75.454 45.8866 77.9772 46.5902 79.6755 48.9722C80.5909 50.1952 82.3159 50.7717 81.3357 53.9335C81.0283 54.4339 80.6896 54.7893 80.2536 54.9676C78.8208 54.9225 77.1939 56.7317 75.8113 55.5419C75.6515 55.0748 75.628 54.4139 75.6356 53.898C76.0748 51.2533 75.1244 50.1431 73.9016 49.4205C72.5152 48.4886 71.1951 47.5889 70.2212 45.8178Z" fill="#FCB056"/>
<path d="M64.5068 57.8165C63.9499 54.9594 62.1275 54.4664 60.7165 53.1372C59.1734 51.7441 59.8567 50.5218 61.1733 49.2175C64.1651 49.3703 66.0857 52.2398 68.181 54.5468C68.8228 56.151 70.1054 57.1593 68.9332 59.9567C67.0607 60.604 65.4326 60.4638 64.5068 57.8165Z" fill="#FBB665"/>
<path d="M42.671 91.3477C43.3628 88.3561 43.3033 85.5307 43.5857 82.6058C44.7546 81.8443 45.8639 80.5212 47.0805 81.1146C47.1678 84.3531 49.2034 87.0771 47.0324 91.0782C46.3724 91.9547 45.5852 92.2365 44.8298 92.667C44.0426 92.9488 43.2911 93.1149 42.7942 92.2067C42.7306 91.9094 42.7346 91.645 42.671 91.3477Z" fill="#F7AD52"/>
<path d="M74.2951 42.7011C72.9098 42.5494 71.49 42.5085 70.1048 42.3568C69.5524 41.7116 68.9344 41.0352 69.2184 39.6436C69.4642 38.6157 70.1276 38.423 70.587 38.6421C73.0459 39.9422 76.0932 39.3595 77.8637 42.6216C77.7312 44.9762 79.7177 44.6511 79.6544 46.7842C77.0701 47.3331 75.4439 45.5395 74.2951 42.7011Z" fill="#FDD19D"/>
<path d="M46.2619 91.0263C47.1343 89.203 47.4976 87.528 46.6766 85.9364C45.9227 84.3775 45.982 82.6865 46.9216 80.8959C47.3598 80.9775 47.8019 80.7964 48.1177 80.0244C48.4928 79.8106 48.7967 79.8266 49.0612 80.2204C49.3572 80.7618 49.6533 81.3033 49.9493 81.8447C51.244 83.4029 53.8218 82.809 53.5215 87.0287C52.349 88.5733 50.7069 87.6393 49.7278 89.8075C48.3935 90.8762 47.3039 93.652 45.6973 92.6031C45.6697 92.1927 45.7092 91.815 45.8829 91.5029C46.0921 91.0758 46.1947 90.9936 46.2619 91.0263Z" fill="#F49A2D"/>
<path d="M72.8273 54.4349C71.3126 53.1815 69.798 51.9281 68.3496 50.7068C69.0069 49.0778 69.6292 47.5617 70.2866 45.9327C72.6533 45.9111 74.2888 48.0021 76.2356 49.3351C77.4231 50.1703 77.3614 52.088 76.4979 54.1364C74.151 55.0764 73.916 50.6779 71.9814 50.779C72.6706 51.5025 73.9319 51.8541 72.8273 54.4349Z" fill="#FCC27D"/>
<path d="M30.7698 110.06C30.2278 109.796 29.7575 109.3 29.0322 109.88C29.9767 106.072 29.3391 100.825 33.4201 99.4791C34.8986 98.7323 35.8072 99.5755 36.1858 101.628C35.7673 106.76 31.8857 106.202 30.7698 110.06Z" fill="#F9BA6E"/>
<path d="M87.5805 36.6958C89.2735 39.331 92.0079 39.099 94.1168 40.6389C94.1753 41.1859 94.1016 41.6689 93.8606 42.2006C93.5535 42.7002 93.3163 42.9743 92.9119 43.2972C91.5777 43.4292 90.1972 44.4464 88.762 44.6591C87.9022 44.2427 87.4506 43.246 86.999 42.2493C86.3216 40.7543 85.0612 40.4033 84.3839 38.9083C84.7997 37.8129 85.2155 36.7176 85.6313 35.6222C86.7085 34.8472 87.3349 35.2802 87.5805 36.6958Z" fill="#FCC17B"/>
<path d="M57.0523 58.7725C56.8986 60.018 57.328 60.6238 57.8599 61.1475C57.7337 65.0475 60.5903 65.7816 60.7044 69.4027C58.8524 73.6489 57.4419 70.9796 55.9013 70.2277C55.4009 69.8514 55.1054 69.311 55.0857 68.377C56.0315 66.0655 55.5548 64.1161 55.3815 62.1828C55.1097 60.0693 55.5983 58.9872 57.0523 58.7725Z" fill="#F8A441"/>
<path d="M84.3942 39.3041C85.8924 39.1235 87.2897 39.0234 87.4813 41.8275C86.6056 44.8912 85.3875 46.3691 83.613 44.9959C84.6942 41.5149 84.2585 39.4968 81.7553 40.2251C80.5871 40.565 79.6942 40.263 78.84 39.5923C78.5212 38.6637 78.8351 37.6531 79.149 36.6425L79.083 36.6107C81.0357 37.166 82.8874 37.8018 84.3942 39.3041Z" fill="#FDE3C5"/>
<path d="M56.5166 217.102C57.7992 215.413 59.1356 219.128 60.4751 215.801C63.1459 214.266 64.6671 216.661 66.2961 218.468C66.4896 218.817 66.6832 219.166 66.811 219.483C62.5289 222.549 59.5922 219.603 56.5166 217.102Z" fill="#FCE6CC"/>
<path d="M64.3329 58.0057C65.7775 58.6958 67.5995 58.4189 68.7669 59.9965C70.319 60.1006 70.9612 61.4273 70.8594 63.9284C70.4164 64.8641 69.8839 65.1197 69.2929 64.8373C66.6773 62.8228 64.0963 60.6973 61.4806 58.6828C62.4215 57.6025 63.3227 59.3079 64.3329 58.0057Z" fill="#FCD4A6"/>
<path d="M101.569 232.181C101.524 233.056 101.412 233.9 101.366 234.775C98.9028 235.643 97.4848 232.912 95.5769 231.996C95.0178 229.421 93.4042 228.775 92.1305 227.523C94.3292 224.349 95.4456 227.32 97.0282 227.823C98.4956 229.424 101.16 228.396 101.569 232.181Z" fill="#FCE3C6"/>
<path d="M32.1907 163.438C31.9099 164.345 31.6642 165.138 31.9531 165.93C32.9873 166.042 34.0099 166.93 33.0502 168.55C31.7473 170.785 30.7362 169.12 29.9242 167.552C27.7266 164.79 25.6305 161.946 25.169 157.028C25.3133 156.315 25.6176 156.072 26.0547 155.893C26.6556 155.924 27.0499 156.377 27.409 156.942C28.2955 160.242 29.9349 162.342 32.1907 163.438Z" fill="#FBD4A6"/>
<path d="M35.5909 102.441C35.693 100.123 34.3144 100.109 33.4857 99.3096C34.5815 98.0021 33.3482 95.0324 35.3749 94.442C36.2389 95.1266 37.103 95.8111 38.0024 96.3813C38.3441 98.2584 39.868 99.791 38.5523 102.307C37.6176 104.088 36.3725 104.138 35.5909 102.441Z" fill="#F8BB71"/>
<path d="M67.9972 218.46C71.4639 216.544 74.0496 218.419 76.6007 220.405C76.3855 221.578 76.3327 222.957 75.0846 222.36C73.9021 221.795 72.9695 219.944 71.3676 220.965C69.3642 222.305 69.3146 218.835 67.9972 218.46Z" fill="#FAC483"/>
<path d="M25.9668 156.259C25.8255 156.46 25.7166 156.811 25.5752 157.011C24.0967 156.43 23.2885 154.963 23.1868 152.493C25.6499 149.65 24.5742 145.229 26.4191 142.087C28.5078 143.501 25.6247 146.679 26.4614 148.563C26.7368 150.983 26.9758 153.52 25.9668 156.259Z" fill="#FAC485"/>
<path d="M29.7232 167.559C30.2268 167.673 30.6595 168.016 31.1317 167.983C31.5684 168.064 31.9893 169.192 32.3749 168.194C32.9336 166.885 32.131 166.493 31.8045 165.806C35.7623 164.705 33.0988 169.338 33.1656 171.612C30.9663 172.253 30.1205 170.258 29.7232 167.559Z" fill="#FACB92"/>
<path d="M49.1867 79.9747C48.916 79.8428 48.713 79.7438 48.4424 79.6118C48.1757 79.2152 47.3319 78.6705 48.0922 77.975C49.9231 76.3356 51.3838 74.3824 51.8735 71.2893C52.4944 70.7924 53.0038 70.9076 53.4416 71.2543C53.7441 71.5351 53.9431 71.8987 54.1063 72.3781C54.166 72.9403 54.0903 73.4365 53.9789 74.0486C53.5888 75.0578 52.9639 75.8193 52.343 76.3161C51.8932 76.7632 51.4793 77.0945 51.129 77.7233C50.7788 78.3521 50.4643 78.8652 50.0464 79.461C49.8036 79.7425 49.4931 79.9909 49.1867 79.9747Z" fill="#FCCD96"/>
<path d="M48.0237 198.902C47.6892 199 47.3546 199.097 47.0512 199.339C45.7244 198.956 44.7123 197.558 43.2418 197.883C43.1483 197.449 43.1209 197.047 43.2958 196.483C43.5018 196.064 43.8052 195.821 44.0736 195.692C45.2758 195.496 46.3616 196.411 47.7112 195.249L47.7074 195.506C48.6411 195.44 48.7932 196.421 48.7742 197.709C48.7316 198.337 48.4594 198.724 48.0237 198.902Z" fill="#F8B360"/>
<path d="M53.9829 72.7026C53.8179 72.4907 53.5509 72.3605 53.386 72.1485C53.6059 70.9405 51.7565 70.9593 52.9619 69.0483C53.598 69.2269 54.2302 69.6667 54.9487 68.8335C55.3139 69.143 55.7458 69.4852 56.111 69.7948C56.162 70.8718 55.6791 71.6885 55.3296 72.5702C55.1215 72.9948 54.882 73.2726 54.509 73.4853C54.242 73.3551 54.0771 73.1431 53.9829 72.7026Z" fill="#FDA842"/>
<path d="M47.8157 195.236C46.4532 197.422 45.3341 196.623 44.1839 195.679C45.186 195.387 46.188 195.096 47.1901 194.804L47.4854 195.076L47.8157 195.236Z" fill="#F9BD75"/>
<path d="M53.0306 68.9955C53.1837 69.9907 53.3015 71.1001 53.4546 72.0952C53.0227 71.7531 52.5241 71.3785 52.0923 71.0364C51.9078 69.8945 51.79 68.7851 53.0306 68.9955Z" fill="#F8B15C"/>
<path d="M44.1778 195.871C43.9691 196.297 43.8627 196.641 43.654 197.067C43.3469 197.313 42.9728 197.526 42.6026 197.478C42.2719 197.052 42.2128 196.496 42.5239 195.988C43.1146 194.824 43.6422 195.61 44.1778 195.871Z" fill="#F9BD75"/>
<path d="M79.3823 36.6748C79.085 36.3991 78.8893 36.0421 78.592 35.7664C78.7954 35.6037 78.9675 35.2948 79.034 35.3271C79.4331 35.5214 79.4918 36.0736 79.3823 36.6748Z" fill="#FCCE97"/>
<path d="M42.5402 197.619C42.9131 197.407 43.2506 197.309 43.5882 197.21C43.4822 197.553 43.3095 197.863 43.2035 198.206C43.0387 197.994 42.8071 197.75 42.5402 197.619Z" fill="#F9C07C"/>
<path d="M35.3525 102.583C38.0289 101.859 38.0289 101.859 37.1021 98.9889C36.6367 97.6872 37.5786 97.2008 37.8694 96.2649C38.5917 91.9043 40.3018 90.982 42.538 91.929L42.3926 92.3969C43.6268 95.5507 42.5362 99.0603 41.3809 102.27C40.5891 104.309 38.9035 105.916 39.7292 108.603C39.8951 109.087 39.7742 110.239 39.3578 110.307C34.7327 111.704 37.2375 117.894 35.3544 121.155C35.3709 122.374 35.2824 123.677 34.5751 124.681C34.1548 125.016 33.7707 125.234 33.3543 125.301C32.0362 125.471 31.005 124.973 30.5839 123.019C30.5231 122.452 30.531 121.917 30.4701 121.35C30.4568 117.575 30.5486 113.717 30.5352 109.943C30.672 107.721 30.0565 104.866 32.7534 105.094C33.8249 105.209 34.706 104.155 35.3525 102.583Z" fill="#F49C32"/>
<path d="M29.9204 123.343C30.7715 124.271 31.8671 124.413 32.9664 124.298C35.1547 127.037 38.1385 127.703 40.5675 129.912C41.8499 130.92 43.4428 131.173 44.795 131.956C45.8132 132.836 46.8663 133.604 46.6654 135.964C44.7904 139.068 43.0494 137.579 41.5301 136.845C40.042 136.255 38.4491 136.002 37.8584 135.458C38.9153 135.969 40.9045 136.413 42.6143 137.757C43.4967 138.83 44.7829 139.582 43.9449 142.281C40.3252 144.153 37.6981 141.848 35.0011 139.768C33.8498 136.625 31.3397 135.411 30.6971 131.608C31.2745 128.524 29.0711 126.812 29.9204 123.343Z" fill="#F79622"/>
<path d="M30.4395 132.125C32.0705 134.116 34.2242 135.167 34.7782 138.887C34.8296 139.974 35.1898 140.813 35.5857 141.537C36.2072 143.034 37.1692 144.433 36.5554 146.92C35.1458 150.477 33.1385 150.957 31.0402 150.729C30.1337 147.898 29.3655 151.636 28.4826 151.736C26.0162 151.195 27.6277 147.736 27.4892 145.678C28.0158 144.476 28.4395 143.356 28.9662 142.153C29.956 141.708 31.6465 142.002 31.6821 141.887C32.0306 139.005 31.1796 136.998 30.1226 135.155C28.8162 134.119 29.5763 133.163 30.4395 132.125Z" fill="#F59A2C"/>
<path d="M27.3116 146.05C28.3449 147.486 27.0014 150.825 28.5515 151.847C29.5093 153.779 30.0219 155.893 28.5194 158.488C27.9073 158.455 27.4026 158.076 27.2476 157.069C26.8104 156.722 26.3732 156.376 25.936 156.029C25.7692 153.552 24.9545 151.157 26.3576 148.38C26.6756 147.604 26.9936 146.827 27.3116 146.05Z" fill="#F6A23D"/>
<path d="M30.2738 135.042C33.5709 135.858 32.6557 140.567 32.7581 144.979C31.5631 143.603 30.5692 142.324 29.1533 142.162C31.8551 139.912 30.4393 137.502 30.2738 135.042Z" fill="#F7A039"/>
<path d="M96.7327 229.478C95.2271 229.022 94.2401 226.683 92.3225 227.535C87.6093 223.7 81.8005 223.102 77.1561 219.049L77.1285 218.661C78.8086 215.946 80.2286 217.863 81.7409 217.821C86.6218 218.984 90.8158 222.326 95.3876 224.47C96.5632 225.021 97.8385 225.494 97.705 228.058C97.499 228.712 97.1966 229.195 96.7327 229.478Z" fill="#F89C2E"/>
<path d="M75.203 215.41C77.4554 212.304 75.5009 210.618 74.5733 210.937C71.6905 211.973 69.3191 209.457 66.4222 211.498C64.9946 212.213 63.9811 211.606 63.2436 210.117C63.4338 208.31 61.8096 208.931 61.8307 207.423C62.0103 206.37 62.3829 205.661 63.114 205.249C70.9854 205.819 78.1597 209.096 85.61 211.491C86.396 211.864 87.1475 212.346 87.73 213.129C88.471 214.366 88.7809 215.778 87.6012 217.622C83.3154 217.613 78.9536 218.327 75.203 215.41Z" fill="#FA9A27"/>
<path d="M75.0587 215.254C78.0592 217.431 82.1287 213.804 85.1257 216.232C85.7113 216.761 86.5002 216.882 87.2202 217.223C91.4926 215.585 94.2448 219.032 97.3727 221.521C96.9792 226.13 95.2224 224.542 94.0442 223.984C89.9894 221.813 86.145 218.733 81.4354 218.65C79.8435 219.411 78.8206 217.16 77.2253 218.172C76.3434 217.629 75.0273 217.511 75.0587 215.254Z" fill="#F0901C"/>
<path d="M63.1607 209.588C64.2493 210.508 65.3067 211.282 66.3953 212.202C63.8134 215.118 66.2674 216.31 66.5058 218.25C64.5824 217.316 62.5575 216.463 60.6341 215.528L60.8369 215.366C60.3135 212.375 61.0114 210.369 63.1607 209.588Z" fill="#F69F36"/>
<path d="M58.655 185.86C57.3348 186.242 56.0456 186.764 54.7254 187.146C48.2539 181.979 41.748 176.921 35.2112 171.723C34.9189 171.46 34.434 170.857 34.7674 170.513C35.4343 169.824 35.8471 170.894 36.3697 171.14C39.6087 172.285 42.7445 173.757 45.7773 175.556C50.5464 177.795 55.2812 180.143 60.4317 180.933C65.393 181.134 69.5228 184.45 74.4154 184.868C74.8417 184.943 75.2027 184.988 75.5947 185.172C77.1249 186.266 78.9575 186.876 79.4428 189.859C78.8349 193.455 77.205 192.44 75.9226 192.464C73.1274 192.529 70.4488 191.271 67.4648 193.126C66.3818 192.994 66.0344 191.954 65.9241 190.399C66.336 186.711 64.1907 187.332 62.9804 186.889C61.6738 186.275 60.3396 185.273 58.655 185.86Z" fill="#FC9D27"/>
<path d="M69.024 64.8015C69.3948 64.5903 69.797 64.5248 70.1678 64.3136C73.1309 62.883 75.1847 64.1423 76.263 68.0591C74.46 72.4022 77.5134 73.8863 77.3305 77.1901C72.7431 77.7007 68.7643 75.5058 64.5007 74.4773C63.7744 73.8633 63.6571 72.7624 64.1136 71.288C65.2883 68.7272 66.9049 70.1654 68.2282 68.8513C68.4466 67.6526 68.7353 66.227 69.024 64.8015Z" fill="#EE9A35"/>
<path d="M68.2806 69.502C68.5568 71.0524 68.1811 71.7732 67.0876 71.6327C66.3586 71.539 65.5947 71.5573 64.8657 71.4636C62.9624 72.2211 61.1635 72.6425 60.4793 69.4782C59.2526 67.0831 56.7471 65.8755 57.8456 61.1224C60.0861 66.8407 65.1456 65.9295 68.2806 69.502Z" fill="#FCA53D"/>
<path d="M93.5698 41.0691C93.7104 40.6145 93.8824 40.306 94.0895 39.8838C95.6923 40.1407 96.4815 36.6024 97.9514 36.7946C100.524 37.1309 102.979 38.5869 105.883 36.8622C106.254 36.6506 106.419 36.8612 106.513 37.2991L106.477 37.4127C105.97 42.2646 103.925 42.4466 101.963 41.6226C99.668 40.6368 97.5806 41.4516 95.4035 43.7916C93.922 44.3782 93.7811 42.61 93.5698 41.0691Z" fill="#F2A549"/>
<path d="M40.7788 171.038C40.848 170.817 40.9172 170.595 40.9518 170.484C38.6858 169.53 38.7815 165.121 36.9547 163.485C36.9965 162.869 37.2351 162.346 37.6051 161.886C41.4057 161.79 42.6729 163.286 43.1953 168.372C43.2263 168.514 43.1917 168.625 43.5545 168.671C46.8229 168.83 49.8657 170.918 53.4599 169.069C56.2069 168.724 58.7772 169.187 61.2401 170.235C62.3832 171.162 64.2554 171.928 63.525 174.507C62.7218 177.561 60.6073 177.571 58.9211 177.657C57.9952 177.725 57.2458 176.985 56.3198 177.053C54.8032 176.838 53.2865 176.624 51.7352 176.52C48.3594 176.946 45.5171 174.699 42.3526 174.208C41.2679 173.817 40.4183 173.158 40.7788 171.038Z" fill="#F89620"/>
<path d="M37.9214 162.445C37.7149 162.866 37.6098 163.205 37.4033 163.626C35.3492 164.842 34.487 162.21 32.9275 161.583C30.7173 162.073 28.9941 161.236 28.3773 157.813C28.3417 155.713 28.3061 153.613 28.3368 151.545C28.9914 150.171 29.4975 147.553 30.6248 150.313C32.6685 154.299 37.2214 153.384 38.5754 158.858C38.7239 160.101 38.7047 161.394 37.9214 162.445Z" fill="#F69621"/>
<path d="M40.6739 171.54C43.0239 175.282 46.9941 173.636 49.9633 175.41C50.5516 175.687 51.2088 175.745 51.7661 175.882C52.5264 175.612 53.1457 176.029 52.9325 177.184C52.7536 178.23 51.9555 178.859 51.2984 178.801C49.3924 178.657 47.6583 177.966 45.8899 177.385C42.3531 176.222 39.3254 173.918 36.3011 171.365C38.0969 169.95 39.1498 172.329 40.6739 171.54Z" fill="#EB8913"/>
<path d="M28.3099 158.348C29.8557 159.482 31.3665 160.729 32.8774 161.975C32.6718 162.393 32.4662 162.81 32.2258 163.34C28.135 165.756 27.9772 160.642 26.9622 157.31C27.3895 157.645 27.8167 157.981 28.3099 158.348Z" fill="#F8A849"/>
<path d="M48.5138 197.49C48.2257 196.702 47.9375 195.914 47.7505 195.045C49.2086 193.288 50.7177 192.592 52.3202 192.331C52.9391 193.279 53.6628 193.888 54.775 193.001C56.148 192.498 57.6259 191.658 58.7039 193.088C59.4786 194.76 61.237 195.222 60.8258 198.265C59.3335 202.34 57.6518 198.932 56.1352 200.143C55.7657 200.353 55.3613 200.676 54.9256 200.854C54.1206 201.242 53.6028 200.214 52.8016 200.344C52.0702 200.249 51.234 200.493 50.5064 200.141C49.7165 199.499 48.9966 198.631 48.5138 197.49Z" fill="#F19423"/>
<path d="M58.6435 193.786C57.5983 192.506 56.0608 193.056 54.8722 192.481C56.5134 189.397 58.6924 190.449 60.5714 189.289C63.4586 185.126 64.8501 187.738 66.2066 190.461C66.6226 191.567 66.8368 192.833 67.6952 193.248C67.7537 193.793 67.6453 194.387 67.4047 194.917C66.9275 195.721 66.3917 195.979 65.8597 195.98C65.4946 195.933 65.1645 195.774 64.8344 195.614C62.644 195.331 60.8027 193.925 58.6435 193.786Z" fill="#F9B86B"/>
<path d="M66.2945 190.238C64.5537 189.276 63.0286 187.136 60.6832 189.084C60.2412 187.592 59.664 186.291 58.5772 185.898C62.256 183.31 64.7255 186.542 67.7576 187.484C67.1475 188.471 66.7383 189.299 66.2945 190.238Z" fill="#FB9F30"/>
<path d="M96.6137 229.176C96.717 228.848 96.8856 228.55 96.9888 228.222C100.313 225.767 102.881 228.108 105.565 229.121C108.019 230.152 110.607 230.994 112.479 233.636C112.733 234.259 112.592 234.946 112.124 235.48C111.236 235.438 110.448 235.318 109.626 235.308C107.117 233.497 104.536 232.155 101.545 231.877C100.255 230.012 97.9731 230.822 96.6137 229.176Z" fill="#F89F32"/>
<path d="M63.3428 209.776C62.148 211.414 61.2853 213.214 60.8834 215.499C59.2737 211.322 56.9104 208.346 54.4105 205.564C55 204.153 55.742 203.731 56.5348 204.377C59.2216 203.595 61.1081 204.903 61.921 208.693C62.4522 208.951 63.5378 207.912 63.3428 209.776Z" fill="#F9BA6E"/>
<path d="M55.9485 199.982C56.5648 198.731 57.2396 198.024 58.0276 198.663C58.9476 199.365 59.7817 199.122 60.4366 197.502C61.3866 196.154 62.3141 196.344 63.203 196.902C64.8998 199.011 67.6162 199.548 67.4131 204.353C65.6639 205.832 64.0728 205.581 62.6636 204.255C61.6217 200.526 58.8764 204.234 57.3701 202.733C56.8846 201.853 56.434 200.862 55.9485 199.982Z" fill="#F89E33"/>
<path d="M57.2585 202.97C59.517 201.591 61.7755 200.211 63.3679 203.201C63.3876 204.122 63.2395 205.093 63.0252 206.032C62.7132 206.792 62.4013 207.553 62.0893 208.314C60.3062 206.927 58.4567 205.507 56.7086 204.006C56.8802 203.698 57.0518 203.391 57.2585 202.97Z" fill="#F59C31"/>
<path d="M48.424 197.905C49.2815 198.582 50.2054 199.29 51.0979 199.854C51.2151 200.951 50.8373 201.679 50.1632 202.132C49.4459 201.003 48.6935 199.988 47.9098 198.827C48.0812 198.52 48.2526 198.213 48.424 197.905Z" fill="#F9BD75"/>
<path d="M50.1056 202.041C50.4195 201.274 50.7334 200.508 51.0473 199.741C51.6516 199.772 52.2206 199.918 52.8249 199.95C53.0211 200.309 53.1153 200.749 53.0055 201.352C52.0519 202.202 51.0827 201.861 50.1056 202.041Z" fill="#FBD8AE"/>
<path d="M52.9937 201.23C52.9005 200.8 52.842 200.258 52.8147 199.859C53.4383 200.288 54.1278 200.747 54.7862 201.064C54.1093 202.023 53.5515 201.626 52.9937 201.23Z" fill="#FDECD7"/>
<path d="M73.9009 42.7977C75.6756 44.1714 77.4853 45.4328 79.26 46.8065C80.1144 47.4774 80.9027 48.1164 81.7571 48.7873C82.1569 48.7221 82.5219 48.7691 82.8519 48.9285C83.5705 49.7922 84.324 50.5435 85.1123 51.1826C87.699 53.8525 91.3795 54.4674 92.3605 60.1076C90.7859 63.2222 88.9699 64.6701 86.7841 64.1312C85.7628 63.5088 84.4549 64.2981 83.329 64.0127C82.3351 63.7911 81.5468 63.152 80.6575 62.5934C80.2615 62.4022 79.9663 62.1305 79.5702 61.9392C77.3882 61.1438 74.9345 60.7339 74.0244 57.0653C74.2798 55.5095 74.5664 54.098 75.8168 54.9601C77.203 55.6295 78.5484 52.2752 79.9233 53.7141C80.0291 55.5735 81.0192 56.0516 82.2659 57.1703C81.2832 56.1791 80.526 55.6843 80.6146 54.1771C80.6784 49.8164 78.0541 49.7116 76.5547 47.6958C75.3778 46.3525 72.8083 47.0491 73.9009 42.7977Z" fill="#F8A13B"/>
<path d="M82.6468 49.2272C82.4146 48.982 82.1509 48.5896 81.9187 48.3444C82.4068 47.2637 82.8948 46.183 83.3829 45.1024C84.965 45.215 86.0394 43.2335 87.3067 41.8737C87.7987 42.7732 88.2906 43.6727 88.814 44.7194C89.5342 46.1259 89.2429 47.5664 88.2432 49.0568C86.1927 50.9577 84.3076 50.829 82.6468 49.2272Z" fill="#FCC07A"/>
<path d="M75.8309 55.4473C75.0604 55.4648 74.5795 56.2773 74.1298 57.2359C72.636 58.6022 71.4001 58.3932 70.4886 56.6413C70.426 56.3492 70.4299 56.0894 70.3673 55.7973C71.1103 55.374 71.8534 54.9506 72.6277 54.6733C72.8073 51.6209 70.2183 52.3233 69.8581 49.5315C73.2215 48.5518 74.5086 52.0564 76.2805 54.4887C76.1437 54.6837 76.0029 55.1385 75.8309 55.4473Z" fill="#FBBD74"/>
<path d="M80.4425 54.1796C82.0791 55.4761 83.7157 56.7727 85.3522 58.0692C81.3978 59.1172 80.0279 57.6925 79.8544 53.6417C79.9822 53.959 80.2452 54.085 80.4425 54.1796Z" fill="#E99129"/>
<path d="M80.2105 61.2606C80.4394 61.4997 80.6372 61.595 80.866 61.8341C80.7902 64.7605 82.8303 66.0013 82.3514 69.2487C81.7469 69.7303 81.5031 70.5145 81.829 70.9292C82.3801 71.8389 83.063 72.8122 81.5517 74.0161C80.6523 74.2267 79.9271 73.8772 79.1707 73.3839C77.9255 72.2685 76.3743 71.6497 76.082 68.9324C74.94 65.2903 72.2804 65.5544 70.2092 64.1697C70.4095 61.8187 68.7189 61.648 68.5472 59.7618C68.8408 57.8421 67.1851 57.5594 67.5445 55.6716C68.6218 54.6449 69.2003 55.9542 70.0262 56.2235L69.9528 56.7034C73.3115 58.5797 76.0818 62.1048 80.2105 61.2606Z" fill="#F7A23E"/>
<path d="M34.5463 120.773C34.4988 119.42 32.4078 118.4 35.0147 116.747C36.0781 116.069 36.3124 114.057 35.5466 113.018C34.9475 112.194 33.5865 112.328 34.6381 110.182C35.3405 108.664 36.2968 108.333 37.2411 108.793C37.6458 108.991 38.1179 109.221 38.6576 109.485C38.8283 107.175 37.8205 106.417 37.2016 104.653C41.7528 102.487 41.2928 96.9447 42.0112 92.1105C42.654 92.2912 43.2611 92.5875 43.9515 91.8609C44.6697 91.5466 45.1419 91.7771 45.2609 92.8987C46.7607 92.5671 47.5942 89.1184 49.2487 89.7929C49.3836 89.8588 49.586 89.9575 49.6852 90.1388C50.4231 90.7649 50.9865 91.7045 50.9984 93.1727C50.8356 94.9544 50.4348 96.753 49.6292 98.354C48.6213 99.8562 47.4547 100.616 46.2366 100.288C45.9668 100.156 45.701 99.7605 45.2883 100.091C45.7604 100.321 46.1612 100.783 46.3199 101.525C46.2722 102.432 46.0222 103.241 45.5341 104.066C44.8952 105.882 43.3955 103.953 42.9192 106.247C44.3672 111.606 48.4661 110.15 51.0808 112.49C51.3823 112.77 51.5807 113.132 51.8108 113.643C53.1319 116.149 49.7156 117.407 50.3583 119.848C47.9655 123.067 45.6919 122.888 43.1882 122.198C41.0575 121.557 39.2285 118.936 36.5501 120.82C35.7605 121.365 35.082 121.3 34.5463 120.773Z" fill="#F49522"/>
<path d="M45.6777 92.5183C45.2493 92.1808 44.8209 91.8433 44.3925 91.5057C45.1047 90.682 45.6343 90.9387 46.1951 91.3404C46.0551 91.7921 45.8489 92.2117 45.6777 92.5183Z" fill="#F49B2F"/>
<path d="M49.6534 88.7402C50.2689 83.0845 51.7857 86.2771 53.0411 86.8842C53.9227 85.7575 54.8081 84.3738 55.9776 84.0334C58.5072 83.9625 60.3809 85.5157 61.7033 88.3553C60.1666 93.3067 58.0475 90.3406 56.206 91.1325C53.9831 90.7046 51.411 91.402 49.6534 88.7402Z" fill="#F39625"/>
<path d="M55.6271 85.566C54.8762 86.5092 54.133 86.9326 53.331 86.804C53.1546 82.923 50.2209 84.2432 49.184 81.9064C49.0313 80.916 49.7158 79.9405 49.4614 79.0315C49.7743 78.2677 50.0872 77.5039 50.5017 76.6588C53.8425 77.2379 54.856 81.1338 55.6271 85.566Z" fill="#F59A2C"/>
<path d="M49.5414 79.1422C49.9431 80.1445 49.6516 81.0816 49.2548 82.1026C49.2302 81.4171 49.1691 80.8487 49.1445 80.1632C49.2538 79.8117 49.3632 79.4603 49.5414 79.1422Z" fill="#F8A94A"/>
<path d="M93.3266 41.5634C93.8147 42.4528 94.3028 43.3422 94.7909 44.2316C98.3 44.2411 100.873 46.5349 102.716 50.6917C100.57 55.6491 97.513 52.2069 95.1325 54.9633C93.497 54.8207 92.2087 53.8033 91.334 51.9434C91.1614 47.8159 93.2384 49.7383 94.1867 48.8948C93.8858 46.6614 88.3395 48.7925 92.8428 42.6327C92.9481 42.2926 93.1198 41.9847 93.3266 41.5634Z" fill="#F49F3B"/>
<path d="M92.9445 42.7776C92.1253 43.944 90.7365 45.2248 92.5589 46.2405C93.9833 47.0629 95.4427 47.7719 97.1676 48.6099C94.9403 52.3514 93.1136 49.3781 91.2878 50.8377C89.887 50.6786 88.763 49.8719 88.0213 48.0775C88.6414 46.8144 88.6294 45.3745 88.8165 44.0313C90.1389 42.7183 91.5004 41.0331 92.9445 42.7776Z" fill="#FCA847"/>
<path d="M120.923 238.867C118.938 235.212 115.592 235.145 112.655 234.026C107.534 231.768 102.721 228.535 97.1515 227.93C96.1266 223.604 92.5247 225.529 90.588 223.138C88.071 219.98 84.2248 220.549 81.331 218.582C86.4704 216.999 90.0551 221.275 94.3967 222.923C95.4092 223.27 96.2194 224.019 97.1654 221.976C98.3214 221.396 98.8642 222.518 99.6435 223.129C101.699 223.961 103.721 224.902 105.88 225.41C108.395 226.208 110.743 227.3 113.327 227.882C114.591 229.09 116.159 229.572 117.32 231.105C118.601 233.44 120.728 233.809 122.486 234.875C123.495 235.469 125.101 235.596 123.847 238.613C122.715 239.825 121.796 239.894 120.923 238.867Z" fill="#F29320"/>
<path d="M60.2276 69.8422C61.6714 70.5309 63.1497 71.1089 64.5935 71.7976C64.2164 72.7632 63.9395 73.6493 64.3225 74.5957C66.9786 75.9899 70.0153 76.1658 72.1558 78.9687C72.7284 80.5147 74.4419 80.8229 73.974 83.5271C72.8881 85.5546 71.7033 85.2439 70.7225 84.5215C65.6837 81.0996 61.0566 76.6014 55.8138 73.5913C55.3544 73.3722 55.1683 72.5198 55.0478 71.6986C54.5718 70.3261 55.6636 70.2105 56.0061 69.3557C57.3914 69.5074 58.5201 71.4459 60.2276 69.8422Z" fill="#EB9630"/>
<path d="M55.5821 85.201C53.9006 82.3418 52.1533 79.4511 50.5066 76.4804C50.874 76.2722 51.2762 75.9523 51.6436 75.7441C52.6033 75.8202 53.6434 74.9091 54.5647 75.3515C56.2535 77.7012 59.1125 77.0223 60.5618 79.8981C60.814 80.7886 58.8032 82.3877 60.7188 82.7947C62.5029 83.1384 63.9048 84.7092 65.1056 86.4399C65.7873 87.4084 66.736 88.2486 65.6116 90.4016C64.0139 90.9168 62.76 90.5711 61.8919 88.7437C59.7203 87.701 58.3094 84.4588 55.5821 85.201Z" fill="#F79F37"/>
<path d="M54.2884 76.2004C53.4501 76.1854 52.4709 76.6262 51.848 75.6672C52.3924 75.1457 52.9721 74.5103 53.45 73.9564C53.8221 73.7443 54.1903 73.7926 54.5232 73.9548C54.8131 74.7516 54.9033 75.4511 54.2884 76.2004Z" fill="#FAB96B"/>
<path d="M54.1414 74.4647C53.875 74.3349 53.7104 74.1236 53.444 73.9938C53.585 73.538 53.7574 73.2285 53.8631 72.8866C54.1295 73.0164 54.3607 73.2602 54.6271 73.3899C54.6232 73.6503 54.6193 73.9107 54.6154 74.1711C54.4469 74.2202 54.2785 74.2692 54.1414 74.4647Z" fill="#F8B15C"/>
<path d="M54.8283 72.0062C60.353 74.2227 65.091 78.6984 70.0694 82.4107C71.1765 83.1804 72.1326 85.3811 73.8164 82.4166C77.2199 83.5128 80.1081 86.2445 83.271 88.1039C87.5101 90.5933 91.921 92.5376 96.1601 95.0271C97.886 96.2123 99.6806 97.1794 100.798 99.5811C100.988 100.17 101.012 100.808 100.706 101.54C97.8947 105.227 95.7043 101.947 93.2361 102.166C91.7027 101.321 90.0629 101.052 88.4952 100.317C86.2777 99.026 84.4347 96.7847 81.9457 96.1175C80.9316 95.7669 80.0548 94.9801 79.4805 93.7094C75.8975 88.8996 71.0604 86.8805 66.7661 83.6143C63.4483 81.0564 60.5737 77.3299 56.5756 76.4553C55.4617 76.183 54.6914 74.8204 54.3198 73.1442C54.4882 72.8478 54.6909 72.4423 54.8283 72.0062Z" fill="#FCA53D"/>
<path d="M34.2775 121.444C34.9841 120.632 35.5099 120.884 36.0668 121.279C39.7989 119.486 42.3333 122.746 45.3643 123.686C46.4435 124.587 47.7234 125.328 47.32 128.076C45.2659 130.544 43.5057 128.678 41.5502 128.892C38.7164 128.046 35.9483 127.232 33.9398 124.224C34.0858 123.271 34.1314 122.397 34.2775 121.444Z" fill="#F79622"/>
<path d="M33.8678 124.567C36.5902 125.735 39.2471 126.872 42.0041 127.929C41.9721 130.198 40.9781 130.486 39.884 130.854C37.8242 129.494 35.7335 127.992 33.6046 126.853C32.4901 126.323 32.8011 125.329 33.1812 124.114C33.4435 124.239 33.6711 124.474 33.8678 124.567Z" fill="#EC8B17"/>
<path d="M35.8925 145.321C35.9574 143.158 34.5368 142.602 34.2294 140.905C36.3971 138.079 37.3108 141.488 38.9019 141.74C40.361 141.928 41.5611 143.927 43.349 142.08C43.3827 139.773 42.0207 139.761 41.1704 138.834C42.7094 135.834 43.8011 138.426 45.0972 138.406C48.4013 141.937 52.4064 142.966 56.5472 143.803C57.2768 143.897 57.42 143.192 57.8271 142.614C60.5812 140.588 63.162 141.317 65.7928 140.909C66.3904 140.939 66.8485 141.419 67.0004 142.395C66.7762 144.094 65.9544 145.762 65.1551 145.893C62.7572 146.284 64.8961 147.703 64.52 148.425C63.7642 150.125 63.1119 149.294 62.452 148.976C65.3516 150.633 68.8476 150.127 71.4682 152.682C72.0471 153.994 71.4232 155.758 71.4007 157.295C70.381 158.868 69.5581 158.342 68.6692 157.784C67.7143 157.194 68.1301 158.298 68.1226 158.811C67.2622 160.847 65.7022 160.74 64.7136 162.457C62.1998 163.954 60.1929 162.598 58.1823 161.499C56.295 158.781 52.7615 161.851 51.6387 159.115C50.5904 158.093 50.9054 159.277 51.1494 158.492C51.2192 158.267 51.2503 158.411 51.4482 158.507C52.0035 159.162 52.7953 159.544 52.3731 161.147C50.0735 163.909 49.1212 160.868 47.5725 159.992C47.5477 157.14 45.8407 157.994 44.7501 157.597C44.1563 157.311 43.4927 157.248 42.9686 156.737C41.5942 155.3 38.773 155.1 40.063 150.947C41.4576 146.458 43.1905 150.65 44.8626 149.908C47.1757 150.766 48.9697 153.052 51.3177 153.798C48.7058 152.924 46.7214 150.031 43.8691 149.687C41.1986 148.269 37.6602 149.4 35.8925 145.321Z" fill="#F6941D"/>
<path d="M39.7839 130.54C40.4607 129.581 41.1374 128.623 41.9148 127.584C43.7492 126.797 45.1864 128.258 46.8086 128.396C49.3087 127.415 50.8044 129.417 52.3348 131.308C53.4777 132.499 51.2535 135.025 52.4622 136.248C52.1183 137.109 51.6501 137.398 51.085 137.511C48.4096 136.867 47.4885 131.803 44.2295 132.548C42.7811 131.852 41.02 132.161 39.7839 130.54Z" fill="#F28F19"/>
<path d="M44.0409 132.674C47.7266 130.077 48.9536 134.652 51.0776 136.831C52.241 138.933 55.1066 137.998 55.2487 141.922C51.7369 143.96 49.2488 141.735 46.8302 139.286C46.3455 138.41 46.0968 137.262 46.216 135.906C46.2493 133.608 44.7891 133.677 44.0409 132.674Z" fill="#F6941E"/>
<path d="M46.1262 136.39C46.6815 136.781 47.1021 137.361 46.9534 138.557C46.8321 140.146 45.9767 139.993 45.3453 140.326C44.1003 139.735 43.3387 137.6 41.5721 138.915C39.9861 136.768 37.2021 137.726 35.6063 133.928C39.4866 134.757 42.8392 135.589 46.1262 136.39Z" fill="#ED8B16"/>
<path d="M43.5379 142.512C44.2532 143.099 45.1371 143.389 45.6703 145.269C42.7439 145.272 40.4879 144.338 38.304 142.936C37.1312 142.134 36.2369 140.21 34.5107 141.404C34.1289 140.473 34.4039 139.599 34.7786 138.647C37.444 140.902 40.5941 141.38 43.5379 142.512Z" fill="#F18F1A"/>
<path d="M35.7864 146.292C38.5218 147.479 41.1914 148.635 43.9616 149.711C44.0859 150.285 44.3457 150.667 44.1022 151.45C43.6995 151.77 43.2584 152.458 42.9949 152.331C42.2045 151.951 41.6487 149.112 40.5119 152.036C39.4446 154.736 41.3696 154.634 42.0868 155.493C43.5559 157.1 45.4076 157.477 47.3948 157.661C49.0178 157.8 48.4687 159.078 47.3888 160.358C43.8733 162.652 41.4073 158.894 38.2855 159.192C37.0215 157.17 35.8543 155.323 33.7006 155.186C31.9458 154.985 30.8794 153.057 30.7573 150.042C32.4337 148.792 34.4793 149.519 35.7864 146.292Z" fill="#F3911B"/>
<path d="M105.688 49.4773C105.607 50.4818 105.494 51.3405 105.412 52.345C105.033 53.0747 104.525 53.4806 103.955 53.5951C103.588 53.5471 103.288 53.5315 102.991 53.2566C102.561 52.9172 102.303 52.2697 102.248 51.4599C100.607 47.1377 97.1006 46.8687 94.8039 43.9246C96.6189 38.8023 99.0674 38.2956 101.547 40.154C103.399 41.5762 104.941 41.2818 106.198 37.7156C106.663 40.1609 108.342 39.6718 109.502 40.3663C110.436 42.7782 109.21 46.4901 110.379 48.8855C108.793 47.5924 107.141 46.2671 105.489 44.9418C104.384 47.2765 105.407 48.1656 105.688 49.4773Z" fill="#F8A544"/>
<path d="M62.982 205.439C62.6653 204.534 62.8754 203.626 63.3161 202.701C63.9736 205.152 66.222 202.059 67.0172 204.071C72.1851 201.726 76.0168 205.549 80.3445 206.836C81.9832 207.358 83.6496 208.27 85.1127 209.59C85.4983 210.275 85.815 211.18 85.1745 212.263C82.1619 213.484 80.024 210.965 77.6037 209.822C72.925 207.74 67.4128 208.789 62.982 205.439Z" fill="#ED8C18"/>
<path d="M98.7836 224.599C98.2999 223.73 97.8162 222.86 97.3015 221.847C93.9507 220.244 90.5689 218.498 87.2182 216.895C87.8349 215.402 87.7527 214.213 86.9022 213.551C87.8273 211.312 88.9442 211.846 89.7289 212.477C93.0926 215.491 97.2116 216.568 100.714 219.138C101.097 220.088 100.917 221.151 100.57 222.262C100.158 223.341 99.5518 224.073 98.7836 224.599Z" fill="#F89621"/>
<path d="M100.812 219.75C96.9755 218.822 93.2765 217.457 90.1933 214.372C89.3159 213.582 88.5107 212.323 87.0483 213.393C86.398 212.836 85.7132 212.388 85.1283 211.861C85.0697 211.331 85.0112 210.801 84.9527 210.271C85.603 208.442 86.4529 208.842 87.3406 208.883C90.9915 211.356 95.3271 211.891 98.8713 214.942C100.237 216.088 102.01 216.42 101.93 219.774C101.428 220.417 101.067 220.372 100.812 219.75Z" fill="#EF8E1A"/>
<path d="M67.0898 193.723C67.2288 193.277 67.3677 192.83 67.5067 192.384C67.7793 189.566 68.6732 189.61 70.1282 189.796C72.9031 190.359 75.8516 190.364 78.7307 190.592C84.1307 188.312 88.2654 191.067 92.0489 195.193C92.8513 196.988 92.6007 198.279 90.8678 198.985C89.8349 199.387 88.8442 199.168 87.8845 199.092C86.3984 198.763 84.8775 198.545 83.214 199.029C78.2382 199.461 73.2203 200.514 69.1351 196.629C68.3181 195.851 67.2615 195.601 67.0898 193.723Z" fill="#FC9C27"/>
<path d="M75.0528 185.332C74.791 185.208 74.629 185.005 74.4016 184.771C70.315 182.457 65.8145 181.463 61.7933 179.18C60.4738 176.913 61.3804 175.701 63.1691 175.032C65.2232 174.237 67.1289 174.634 68.969 175C74.586 176.271 79.7477 179.473 85.2958 180.963C86.5432 181.301 87.5837 182.299 88.052 184.163C86.6966 189.204 85.0918 183.771 83.713 185.77C85.0709 185.277 86.0184 185.852 86.1524 188.062C83.581 190.507 81.7619 188.635 79.8357 187.344C78.2299 186.71 77.1069 184.537 75.0528 185.332Z" fill="#FC9A23"/>
<path d="M74.8152 185.324C76.4377 182.31 77.4294 184.417 78.5038 185.303C80.7526 186.995 82.9704 188.547 85.8428 188.014C87.1723 187.13 88.3536 187.436 89.6003 187.773C91.5563 189.202 93.788 189.752 95.5064 191.698C96.0846 195.122 99.1808 195.073 99.5902 198.795C98.2709 201.322 97.2034 199.936 95.9911 199.489C94.4207 198.747 93.4945 196.671 92.024 195.85C88.1567 192.132 83.6658 190.64 78.8993 190.026C78.4175 186.774 76.11 186.944 74.8152 185.324Z" fill="#EE8B15"/>
<path d="M45.9733 176.907C48.0317 176.108 49.5571 177.979 51.5118 177.512C52.9692 177.189 52.5208 176.213 51.872 175.396C53.4021 174.6 54.714 175.225 56.0605 175.739C57.649 175.479 58.4803 177.4 59.8614 177.804C60.6378 178.936 60.6164 180.451 60.329 182.094C55.0457 182.119 50.5959 179.236 45.9733 176.907Z" fill="#F3901A"/>
<path d="M60.2154 181.786C59.3683 181.134 59.2514 180.07 59.8989 178.487C60.8977 177.699 61.3314 179.667 62.3302 178.879C64.8405 180.695 67.9089 180.254 70.588 181.772C72.1238 182.623 73.2257 183.9 74.3585 185.317C70.0916 186.703 67.0477 182.997 63.1701 182.425C62.1508 182.322 61.2038 181.749 60.2154 181.786Z" fill="#E7850E"/>
<path d="M72.113 80.2762C69.5376 78.168 66.9276 76.17 64.3522 74.0618C68.8769 73.5509 72.9387 75.4785 77.1766 76.6036C77.6422 76.3182 78.0734 76.1431 78.501 76.2194C79.1596 76.2789 79.7147 76.6689 80.2698 77.0589C81.118 77.7145 82.0662 78.291 82.8798 79.0569C84.0174 80.2296 86.1209 80.7216 85.3199 83.759C84.626 86.2144 82.7571 85.454 81.3363 85.6658C77.7845 84.9929 75.3957 81.3278 72.113 80.2762Z" fill="#FCA740"/>
<path d="M77.9663 76.8251C77.7007 76.696 77.5367 76.4857 77.2711 76.3566C76.4119 75.6778 75.4511 75.0802 74.6622 74.1746C72.4905 71.8135 73.5524 70.1107 75.8758 69.0212C77.231 70.0716 78.4847 71.2032 79.8399 72.2536C80.1487 73.9701 77.6455 73.6669 78.5167 75.7874C78.509 76.3057 78.3372 76.6138 77.9663 76.8251Z" fill="#E68F29"/>
<path d="M62.5062 177.998C61.4329 179.017 60.8177 178.084 60.0638 177.595C58.7221 176.57 57.4808 175.464 56.1391 174.439C58.4226 174.382 60.6533 175.705 63.1393 173.062C62.5697 171.256 61.3485 171.055 60.5015 170.138C60.5781 169.408 60.9139 169.058 61.3155 168.739C61.9179 168.261 62.4363 169.02 63.004 168.653C62.3779 168.481 61.9562 167.896 61.5692 167.199C61.2241 165.884 60.6125 164.697 61.7277 163.058C63.188 162.735 64.6483 162.412 65.8585 163.375C68.8104 167.471 73.1747 165.344 76.8693 166.09C79.6403 166.65 82.4806 166.988 84.9394 168.548C85.3958 169.022 85.7171 169.687 86.0074 170.209C88.1743 173.674 92.0512 170.93 94.4992 173.252C94.8551 173.806 95.1107 174.439 95.3663 175.073C95.8009 177.07 98.1957 176.172 97.9203 179.234C95.8378 183.732 93.8845 181.519 91.9094 180.829C86.9114 178.692 81.532 177.778 77.0195 174.084C80.6777 177.369 85.4383 177.604 88.6147 182.191C88.7735 182.65 88.7973 183.3 88.7553 183.919C88.6203 184.11 88.3848 184.381 88.2498 184.572C80.3438 179.893 72.0911 176.325 63.2034 175.52C62.0442 175.604 61.3068 176.274 62.5062 177.998Z" fill="#F7951E"/>
<path d="M37.9141 159.132C39.5617 157.486 41.0556 157.305 42.361 158.703C43.7323 160.131 45.6322 159.376 47.0766 160.327C48.5247 161.022 50.0076 161.607 51.4557 162.302C55.6504 160.981 58.3692 163.186 58.7947 168.138C54.7058 171.307 52.3219 166.568 48.9465 166.23C48.1182 166.217 47.3631 165.726 47.1346 165.488C46.0119 165.205 46.3573 166.526 46.3026 165.729C46.3062 165.475 46.4726 165.426 46.6701 165.521C48.9355 166.995 52.3056 165.406 53.4004 169.91C49.4779 173.03 46.5453 169.568 43.0967 169.707C42.7987 169.692 42.7366 169.406 42.6433 168.976C41.7734 164.965 40.2468 162.82 37.5755 161.921C37.6871 161.077 37.8335 160.12 37.9141 159.132Z" fill="#F7941E"/>
<path d="M53.3864 169.68C51.1818 167.123 47.7087 168.13 45.7799 164.693C50.6415 163.334 53.8585 168.894 58.5858 167.724C59.8884 166.447 61.1495 165.782 62.1139 167.5C62.9474 169.156 65.3457 167.263 65.5312 170.505C63.736 171.675 62.3478 169.63 60.649 170.971C58.2511 170.468 55.8188 170.074 53.3864 169.68Z" fill="#EF8C16"/>
<path d="M63.0458 197.724C62.251 197.598 61.3902 197.441 60.5953 197.316C59.8813 196.199 59.1673 195.082 58.4184 194.077C60.9647 192.47 62.9661 194.078 65.0447 194.951C64.8868 196.679 64.0148 197.289 63.0458 197.724Z" fill="#F3982A"/>
<path d="M62.882 197.492C63.5534 196.55 64.2248 195.608 64.8618 194.776C65.089 195.009 65.3507 195.133 65.5779 195.366C68.783 199.27 73.1175 200.057 77.0078 202.019C77.8547 202.67 78.8738 202.774 79.7552 203.315C81.2114 205.135 83.0429 206 84.9434 206.645C86.0898 207.06 87.8354 207.003 86.9331 210.353C86.3788 209.966 85.8555 209.719 85.1532 210.52C79.2626 207.992 73.4098 205.104 67.1714 203.922C66.5278 200.471 64.0318 200.049 62.882 197.492Z" fill="#F79623"/>
<path d="M76.856 203.494C74.0333 202.146 71.1759 200.909 68.4881 199.372C67.2098 198.634 64.7904 199.135 65.7432 194.876C66.1753 194.701 66.5764 194.383 67.0085 194.207C71.9102 198.075 77.5498 198.857 83.4425 198.103C83.5342 200.95 83.4996 201.061 81.9372 201.716C80.2745 202.451 78.5915 202.284 76.856 203.494Z" fill="#EA8915"/>
<path d="M83.4216 62.7534C84.3449 62.6855 85.4236 60.9246 86.3639 62.0004C90.605 62.6188 94.4564 65.198 99.0146 64.3262C99.187 63.7768 99.3903 63.3683 99.6901 63.1316C100.055 62.9259 100.417 62.9708 100.779 63.0158C102.612 63.8828 104.475 64.8907 106.377 65.5381C108.764 66.7937 110.321 70.9369 113.673 69.1162C114.07 69.0513 114.497 69.1272 114.824 69.282C116.777 70.9632 119.279 71.1371 120.959 73.4464C120.325 76.4269 122.764 76.3192 122.733 78.5755C121.079 81.4521 119.753 79.6891 118.375 79.2895C115.88 78.6142 113.455 77.7192 110.602 79.1454C108.58 80.0812 107.019 78.5859 105.21 78.3611C103.347 77.3532 101.341 77.0355 99.5777 75.9486C97.0389 73.7381 94.2243 72.4066 91.4098 71.075C89.1568 69.6306 87.1107 67.527 84.7543 66.4122C83.7724 65.9477 82.5288 65.3593 83.4216 62.7534Z" fill="#FDA63F"/>
<path d="M87.7853 48.6438C89.4089 48.2731 90.4862 49.1683 91.017 51.3294C92.519 52.5543 94.0209 53.7792 95.623 54.9246C98.7534 53.1099 100.673 55.1699 102.316 58.1155C102.957 59.4391 103.63 60.9047 102.811 62.8035C101.856 64.8925 101.101 62.2429 100.099 63.0371C97.0139 63.9831 95.0706 61.2757 93.1201 59.0738C90.3584 55.8491 87.4583 53.0671 83.9773 51.6619C83.3247 51.0963 82.4026 50.9111 82.4933 49.1735C84.2445 49.1181 85.9648 48.9206 87.7853 48.6438Z" fill="#E48F2C"/>
<path d="M99.3599 64.5846C99.7852 64.916 100.176 65.3585 100.895 65.9583C99.2889 67.2337 97.8669 67.1919 96.7808 66.7998C93.8512 65.7807 91.3065 63.2849 87.8184 64.2983C87.154 64.4914 86.5078 63.4154 86.5953 61.9241C88.4135 64.3276 90.0286 60.1178 91.8174 59.952C95.1394 58.9868 97.1474 61.9923 99.3599 64.5846Z" fill="#FEA942"/>
<path d="M83.3869 63.4051C83.7302 67.1603 86.4101 65.1131 87.7114 66.7638C89.0438 68.5576 90.9521 69.4739 92.5898 70.7731C90.0542 74.3 88.9523 70.3088 87.1336 70.0767C86.5377 70.047 86.059 66.4833 85.0753 70.3706C83.4666 71.6498 82.6186 70.7297 82.1526 68.5826C81.8914 66.0209 78.4824 65.7945 80.7658 61.3772C81.6523 61.9311 82.5351 62.7396 83.3869 63.4051Z" fill="#EF9832"/>
<path d="M99.5002 64.2931C97.0895 62.3975 94.8166 60.0628 91.889 59.8136C89.9711 55.6299 86.6268 54.5536 83.8958 52.0024C85.4597 50.8507 86.3584 52.536 87.4019 53.2812C91.638 56.5437 95.7741 59.8851 100.01 63.1476C99.8069 63.5557 99.6036 63.9638 99.5002 64.2931Z" fill="#F39C36"/>
<path d="M80.3271 60.9665C78.4024 64.4633 77.0943 61.4547 75.817 60.9778C73.686 60.3497 71.0867 60.2559 70.1849 56.4321C71.4312 56.7685 72.6774 57.1049 73.9581 57.3317C75.9411 59.1484 77.9619 60.6055 80.3271 60.9665Z" fill="#ED9834"/>
<path d="M81.9067 68.8273C82.8938 69.3013 83.5993 70.9227 85.007 69.8032C88.3268 69.3454 90.1911 73.3188 93.1325 73.8336C94.0628 75.9477 92.7482 77.4967 91.8286 79.2354C88.1813 81.7162 86.6334 76.4839 83.6537 76.3355C82.6666 75.8614 81.8147 75.1958 81.8094 73.2695C81.9431 70.8968 80.0821 71.2856 79.7093 69.5675C80.5174 68.6731 81.1955 69.8965 81.9067 68.8273Z" fill="#FDA841"/>
<path d="M81.8062 73.4962C82.6596 74.1651 83.4782 74.9461 84.3975 75.6469C84.3179 78.8292 84.1126 79.2456 82.6273 78.6586C81.0761 78.0397 79.7027 76.6048 78.3256 75.4258C78.3716 74.5462 76.0342 75.4809 77.8591 73.2686C78.3666 72.6114 79.1341 72.3372 79.7698 71.9994C80.4913 72.6048 81.1817 73.0664 81.8062 73.4962Z" fill="#DE8720"/>
<path d="M45.0129 124.753C42.4002 122.484 39.41 121.182 36.2082 120.799C36.7481 120.037 35.2173 118.412 36.8391 118.294C37.9976 118.21 39.0484 118.712 40.0647 119.326C43.0823 121.023 46.1383 122.357 49.8504 119.411C52.3442 118.434 53.906 120.202 55.125 122.826C54.4124 128.737 51.9129 127.797 49.6343 127.601C47.819 127.371 46.9667 124.539 45.0129 124.753Z" fill="#F18F19"/>
<path d="M49.608 97.0163C49.6996 95.265 50.0233 93.4969 50.8734 91.9816C52.1768 91.1968 53.0597 92.0055 53.9773 92.7026C57.5834 97.6401 62.963 99.0692 66.0207 105.282C64.5763 108.949 63.3517 106.565 62.1673 105.997C60.4216 105.287 59.2318 102.792 57.0309 103.787C55.0658 104.51 53.7954 103.002 52.5251 101.495C51.3169 100.273 49.7687 99.6582 49.608 97.0163Z" fill="#F9A138"/>
<path d="M53.313 100.658C54.3559 101.665 54.8176 104.049 56.5802 103.235C59.1303 102.797 60.7841 104.986 62.4069 107.034C62.291 110.543 60.7541 109.427 59.8627 109.384C57.4856 109.268 55.2506 108.457 53.012 107.898C50.3904 106.392 47.0419 107.213 45.2474 103.302C45.5553 102.558 45.8632 101.814 46.1711 101.069C48.8538 98.2756 50.7832 101.997 53.313 100.658Z" fill="#F79520"/>
<path d="M45.1341 103.878C47.891 104.935 50.7552 105.409 53.2702 107.24C54.3298 106.982 54.7506 107.563 54.3634 109.282C53.7211 110.372 52.8927 110.612 52.0334 110.711C48.4064 110.508 45.1596 109.091 42.3619 106.238C41.9066 105.768 40.9852 105.584 41.1651 104.527C41.3795 103.361 42.2353 103.514 42.8599 103.684C43.5846 103.775 44.4094 103.787 45.1341 103.878Z" fill="#ED8B15"/>
<path d="M42.2636 106.424C45.8668 106.488 48.6311 109.724 52.1686 109.756C52.2126 111.308 51.7658 112.498 50.7314 113.152C47.814 111.374 42.9851 113.787 42.2636 106.424Z" fill="#F79620"/>
<path d="M50.7102 112.777C51.2252 111.608 51.6395 110.519 52.1546 109.35C52.7866 109.268 53.3179 109.266 53.9499 109.184C56.85 108.392 59.2511 109.936 61.7917 111.032C62.7422 111.877 63.2237 113.011 62.4299 115.077C60.6981 117.721 58.9215 116.607 57.1573 116.916C55.52 115.354 54.4674 112.398 51.8622 113.462C51.7304 113.398 51.4977 113.415 51.3658 113.351C51.1369 113.112 50.8731 112.985 50.7102 112.777Z" fill="#F49B31"/>
<path d="M55.1292 123.199C53.3813 121.698 51.6645 120.343 49.8814 118.955C49.4561 118.358 48.5626 117.794 49.7795 116.821C50.7936 116.01 50.9768 114.926 51.1287 113.697C53.4106 112.981 54.6515 114.887 55.7521 117.246C56.4038 118.344 56.9854 119.669 56.9935 121.367C56.6388 122.759 56.2491 124.264 55.1292 123.199Z" fill="#F99721"/>
<path d="M53.6636 93.7168C52.8154 93.0609 51.9016 92.3739 51.0534 91.718C50.3708 91.0141 49.45 90.8302 49.5747 88.9902C51.7474 89.2619 54.0202 89.4545 56.1929 89.7262C57.8337 92.6575 61.6247 90.4054 62.7857 94.6284C61.0186 98.3478 59.3638 96.4227 57.8223 95.8175C56.5119 95.1955 55.2431 93.9601 53.6636 93.7168Z" fill="#EA8D1D"/>
<path d="M53.4658 100.654C50.696 104.448 48.7669 100.45 46.3078 101.063C45.8822 100.731 45.4565 100.399 44.1795 99.4019C46.5418 98.614 48.1275 98.8623 49.538 97.4899C50.846 98.6295 52.123 99.6261 53.4658 100.654Z" fill="#F08F19"/>
<path d="M62.825 94.5968C60.9715 92.0329 57.0911 94.2804 56.2667 89.3826C58.064 88.9616 59.6651 90.6324 61.6438 89.1414C63.108 88.8173 64.3249 89.5316 65.4375 90.5815C66.5064 90.0672 67.1615 90.6397 67.6078 91.8833C67.7521 93.3674 67.2339 94.7898 66.5528 96.0052C66.1464 96.5812 65.7089 97.0136 65.2752 97.1906C63.9153 97.1792 63.0626 96.5115 62.825 94.5968Z" fill="#EC8B18"/>
<path d="M101.479 59.2056C100.438 55.4832 97.9527 55.1871 95.6066 54.4429C95.8231 53.259 95.9076 52.0115 97.1018 52.0717C98.6605 52.1788 100.324 51.9498 101.952 51.8328C102.379 52.1673 102.805 52.5017 103.298 52.868C103.742 56.5602 107.111 55.4785 107.69 58.9784C107.668 60.5135 106.963 61.0753 106.157 61.7174C103.707 63.4999 103.375 58.9598 101.479 59.2056Z" fill="#FCA742"/>
<path d="M114.401 226.092C114.094 226.834 113.786 227.576 113.479 228.318C110.424 229.656 108.254 226.721 105.517 226.561C104.241 223.416 100.848 225.355 99.6757 221.878C99.9831 221.136 100.291 220.394 100.598 219.652C100.86 219.777 101.022 219.981 101.25 220.216C101.82 219.599 102.355 219.092 103.08 219.183C105.391 221.425 108.149 222.483 110.871 223.651C112.152 224.133 113.67 224.094 114.401 226.092Z" fill="#F89825"/>
<path d="M99.6377 222.151C101.46 224.037 104.822 222.206 105.483 226.844C103.248 226.034 100.914 225.303 98.6799 224.492C98.9876 223.749 99.33 222.895 99.6377 222.151Z" fill="#F89A29"/>
<path d="M71.9264 80.4767C75.4707 80.6367 78.4661 82.5347 81.3243 84.8673C86.4006 85.8677 91.0995 88.063 95.5584 91.0187C96.2939 92.4842 98.8115 93.2864 95.5568 96.0041C91.3181 93.7745 86.9731 92.1185 82.9401 89.2371C79.8175 87.0303 75.9469 86.7179 73.8433 81.9955C72.9539 82.2033 72.2703 81.7592 71.9264 80.4767Z" fill="#EE972F"/>
<path d="M54.3612 73.2472C61.0004 76.5093 66.7854 82.0136 73.0801 86.3729C75.3631 87.9553 77.3396 90.2748 80.0326 90.791C81.379 91.049 80.239 92.5263 79.6673 93.3901C79.2678 93.7053 78.8373 93.8799 78.4103 93.8042C73.4479 93.0979 70.5041 86.9199 65.745 85.8057C63.827 84.0178 61.2339 83.4228 60.363 79.7358C57.9283 79.5936 55.5315 79.0913 54.0234 76.2372C53.9649 75.7057 53.9064 75.1741 53.848 74.6425C54.0546 73.9843 54.2234 73.686 54.3612 73.2472Z" fill="#FDA842"/>
<path d="M60.3209 79.6496C62.521 81.3552 64.6862 83.1729 66.8863 84.8785C68.4579 86.41 68.6109 89.5779 69.3725 92.008C68.4927 93.1308 67.8954 93.1006 67.5843 91.6613C66.9285 91.0872 66.2379 90.6252 65.648 90.0829C64.288 85.4304 60.8049 85.1689 58.2203 82.5043C58.9334 81.43 59.5767 80.58 60.3209 79.6496Z" fill="#F49A30"/>
<path d="M95.4241 95.6915C97.4231 93.4168 95.8628 93.0502 95.1078 92.2954C95.9822 89.4759 96.843 92.098 97.9478 91.7251C98.2124 91.8533 97.9979 90.582 97.7531 91.3714C97.6444 91.9673 97.3797 91.8392 97.084 91.5662C96.6247 91.0843 95.9632 90.7639 96.1495 89.4272C99.0548 86.6834 100.457 90.9947 102.826 90.7153C104.48 91.5163 106.134 92.3173 106.963 94.7946C105.818 100.207 104.872 101.046 100.658 99.9131C98.9461 98.5649 97.2026 97.0718 95.4241 95.6915Z" fill="#F7A039"/>
<path d="M81.8926 95.3023C84.9168 94.5754 86.521 98.1638 88.9202 99.4431C87.9863 102.198 86.8864 100.389 85.9892 100.599C87.619 102.406 90.2596 100.726 92.0905 102.374C92.2841 102.723 92.4431 103.183 92.5016 103.724C92.5253 104.376 90.9903 105.177 92.3717 105.84C92.9637 106.124 92.9801 107.285 92.1724 108.178C90.5369 109.059 89.3949 107.871 88.2145 107.048C86.2448 105.847 84.6185 103.785 82.3746 103.221C81.1869 102.907 80.2038 102.179 79.2555 101.34C78.3456 100.135 76.6005 99.4254 77.7354 96.5107C78.9745 93.2615 80.4472 96.7868 81.8926 95.3023Z" fill="#F69F38"/>
<path d="M82.0229 95.6558C82.1827 96.1232 83.2148 96.2338 82.3349 97.1068C81.6574 97.818 80.9016 97.0616 80.2081 96.5953C79.6472 96.1933 78.5838 95.9376 78.1598 97.5515C77.7707 99.0524 78.8691 99.1952 79.4262 99.8553C78.8933 102.066 78.1139 100.648 77.444 100.844C78.0751 101.02 78.6048 101.276 79.1346 101.533C80.1941 102.047 81.4562 102.399 81.0168 105.046C76.7564 106.749 74.6793 102.882 72.6373 98.9024C72.664 97.0959 73.3333 94.6911 71.3001 94.6149C70.5991 94.6648 70.1508 93.4077 70.2049 92.0043C73.6121 89.3676 75.8566 93.1854 78.8283 92.9369C79.0932 93.0654 79.2568 93.2747 79.4867 93.5161C80.3087 94.3047 81.1658 94.9802 82.0229 95.6558Z" fill="#F19A32"/>
<path d="M93.2231 100.741C95.4052 101.02 97.6879 101.218 99.8701 101.497C102.767 100.452 105.236 101.509 107.462 103.346C107.915 104.076 108.136 104.824 107.789 105.939C106.467 107.996 105.002 108.574 103.377 108.692C99.5225 107.226 94.9771 107.736 92.13 103.037C92.2105 102.05 92.5541 101.189 93.2231 100.741Z" fill="#E89129"/>
<path d="M93.3 101.207C92.9908 101.957 92.6816 102.707 92.3724 103.457C90.4468 101.376 86.8525 104.656 85.6222 100.341C86.6814 98.1537 87.8717 100.652 88.9547 99.118C90.3683 99.926 92.0949 99.7287 93.3 101.207Z" fill="#F09A32"/>
<path d="M54.8209 123.461C55.5836 123.442 56.0592 122.644 56.4379 121.67C56.7708 121.574 57.1347 121.62 57.3944 122.002C57.941 123.163 58.2518 124.596 58.8643 125.79C60.3764 128.956 62.4025 130.957 65.1861 131.011C65.5152 131.169 65.8096 131.439 66.0693 131.82C66.3563 132.6 66.4769 133.429 66.2647 134.354C66.0909 134.912 65.7854 135.407 65.3482 135.839C63.3052 137.296 61.427 136.522 59.5067 136.369C57.0286 135.82 54.4152 135.463 52.702 132.457C50.769 130.886 48.7703 129.283 46.8373 127.712C46.8705 125.417 45.5117 125.406 44.6632 124.484C46.7647 123.569 48.2605 125.572 50.0454 125.916C51.9931 126.467 53.4563 126.143 54.8209 123.461Z" fill="#F7951F"/>
<path d="M71.0713 155.465C69.8323 154.63 70.5035 153.689 71.3399 152.7C72.307 151.773 73.195 151.814 74.2138 151.917C76.4992 153.246 79.2492 151.902 81.779 152.214C82.3365 152.352 82.8287 152.458 83.3519 152.704C83.875 152.951 84.3328 153.167 84.8559 153.414C86.8281 153.589 88.7693 153.624 89.8844 156.287C90.5831 158.125 92.2077 157.257 93.4192 157.702C94.9233 158.411 96.3241 159.449 97.6905 160.596C99.8038 162.472 102.155 163.832 104.134 165.897C105.07 167.218 106.04 168.43 104.395 170.798C103.758 171.629 103.128 171.961 102.475 171.653C102.216 171.28 101.893 170.876 101.735 170.424C100.678 168.291 99.1463 167.192 97.4082 166.75C94.0937 166.067 91.2576 164.101 88.456 162.026C85.7198 159.982 82.7392 158.954 79.3799 159.131C76.5301 158.164 72.9884 159.638 71.0713 155.465Z" fill="#FC9A24"/>
<path d="M67.0675 140.828C66.6428 140.498 66.218 140.169 65.7277 139.808C65.7313 139.555 65.7694 139.191 65.7074 138.907C65.9532 137.879 66.3923 137.198 67.0903 136.894C69.3811 136.078 71.1111 137.54 72.9795 138.558C74.7512 139.403 76.5922 140.027 78.6134 139.591C80.8134 140.513 82.8787 141.625 84.1934 144.415C84.5274 146.483 83.4667 146.741 82.6375 146.982C81.3453 147.256 80.1952 146.835 78.9066 146.856C78.081 146.844 77.2554 146.832 76.4643 146.71C73.1654 146.409 70.4236 144.083 67.5745 142.343C67.281 142.075 67.157 141.507 67.0675 140.828Z" fill="#FC9923"/>
<path d="M62.3064 167.23C61.153 166.804 59.8077 168.21 58.7586 167.449C57.3277 163.301 54.2862 162.866 51.5537 161.682C51.8116 159.883 50.5541 159.792 50.0845 157.9C52.0274 158.705 53.3908 160.641 55.5752 158.485C56.9863 157.111 57.4833 159.401 58.0919 160.847C58.6821 163.566 61.5702 160.85 62.0215 164.016C62.0726 165.066 62.1895 166.148 62.3064 167.23Z" fill="#F3911B"/>
<path d="M55.0679 141.205C53.8216 140.35 52.5442 139.353 51.2632 138.61C50.4079 138.199 50.6857 137.307 50.9983 136.304C51.3657 136.096 51.733 135.887 52.1003 135.679C55.1013 134.3 57.2466 137.124 59.9277 137.257C61.8319 138.428 64.9791 136.093 65.8103 140.465C63.1584 142.909 60.7626 141.375 58.1364 142.037C56.9685 142.63 55.596 143.637 55.0679 141.205Z" fill="#FA9721"/>
<path d="M70.9858 156.122C73.7075 157.548 76.7097 157.835 79.608 158.454C80.4373 158.213 81.1592 158.557 81.3417 159.663C81.5863 161.052 80.7188 161.657 80.0481 162.355C77.8191 163.455 75.9888 162.073 73.9782 161.75C71.8125 160.717 69.1659 160.982 67.5885 158.066C67.1637 157.736 66.739 157.406 66.3142 157.076C68.1436 153.876 69.4094 157.789 70.9858 156.122Z" fill="#EA8811"/>
<path d="M67.5177 158.29C69.9614 158.437 72.1245 159.725 74.3258 160.649C74.8677 162.055 76.4925 161.684 76.5949 163.773C74.8301 167.008 73.276 164.736 71.5892 164.823C70.0682 164.861 68.7969 163.617 67.3835 163.069C66.3677 162.456 65.0091 162.7 64.675 160.628C65.0502 157.494 66.8013 159.859 67.5177 158.29Z" fill="#F99620"/>
<path d="M54.963 141.667C55.9788 142.021 57.0291 142.265 58.0449 142.618C57.8968 143.808 58.4167 144.306 58.9607 145.444C54.0054 144.238 49.0328 144.282 45.2383 140.097C45.8066 139.483 46.275 138.949 46.8432 138.335C49.009 141.248 51.8981 141.857 54.963 141.667Z" fill="#F18E18"/>
<path d="M74.013 153.518C73.2229 153.396 72.3672 153.243 71.577 153.121C68.3721 151.09 64.1689 152.009 61.655 147.77C62.5975 146.442 63.3558 148.832 64.433 147.315C67.0524 146.404 69.0321 148.741 71.6099 148.444C72.7898 149.005 74.177 148.904 75.0495 150.207C75.984 151.792 75.604 153.007 74.013 153.518Z" fill="#F08E17"/>
<path d="M71.3763 149.562C68.6672 150.197 66.4831 149.138 64.5128 147.145C64.1895 146.469 62.2199 146.683 64.3174 144.583C65.263 143.743 66.0489 142.436 66.9322 141.306C67.1619 141.547 67.3255 141.756 67.5902 141.885C67.883 144.623 69.8564 144.151 70.799 145.777C71.3832 146.839 72.4072 147.465 71.3763 149.562Z" fill="#FC9923"/>
<path d="M64.7083 161.095C65.7271 161.453 66.7805 161.701 67.7993 162.059C68.6056 165.751 66.7721 164.623 65.6769 164.991C64.6725 163.621 63.0762 164.387 61.8988 163.571C61.0017 161.617 58.1576 164.204 57.9799 160.431C60.2907 160.515 62.141 162.796 64.7083 161.095Z" fill="#EF8D16"/>
<path d="M44.1712 150.94C44.1127 150.407 44.0543 149.873 44.0303 149.23C47.4945 148.976 49.4514 152.81 52.1946 154.615C48.9579 155.104 46.649 152.872 44.1712 150.94Z" fill="#F08D17"/>
<path d="M59.6949 138.691C57.0287 138.311 54.5008 137.491 52.249 135.788C51.7938 135.319 51.3387 134.85 50.8835 134.38C51.4183 133.874 51.9841 133.51 52.5189 133.004C55.2886 133.052 57.4023 135.196 59.9648 135.906C61.3063 136.669 60.6334 137.616 59.6949 138.691Z" fill="#EC8A13"/>
<path d="M102.639 219.16C102.275 219.364 101.911 219.567 101.547 219.771C101.096 216.693 98.9912 216.956 97.6307 215.573C94.4218 212.453 89.9471 213.105 86.8411 209.659C86.8712 207.429 85.7174 207.763 84.7351 207.553C82.5746 207.042 80.3147 206.61 79.0737 203.661C81.5177 200.191 83.356 202.67 85.0495 203.711C88.6977 205.914 92.6269 206.752 96.4156 208.273C98.6513 208.071 100.472 209.421 102.396 210.444C107.742 215.809 114.734 215.96 120.735 219.013C122.367 219.775 124.235 220.025 125.088 222.542C124.746 225.998 123.285 224.692 122.434 224.544C119.782 223.928 117.028 223.638 114.685 222.045C113.709 221.34 113.211 221.731 112.992 223.373C108.875 224.317 105.964 220.963 102.639 219.16Z" fill="#F89621"/>
<path d="M102.008 210.012C99.7907 211.343 98.7246 207.607 96.5103 208.691C93.721 206.143 90.1464 205.844 87.0828 204.165C86.073 203.569 84.3321 203.628 84.3654 201.152C84.4087 197.934 86.6926 199 87.5709 197.168C88.8716 195.657 90.2739 198.803 91.5947 195.807C93.6132 194.632 94.4659 197.148 95.9357 197.71C99.0842 205.283 104.273 205.214 110.153 202.479C111.898 202.172 113.199 203.029 114.059 205.049C113.281 209.17 112.003 206.581 110.626 206.436C114.785 209.624 119.819 208.859 123.549 212.22C125.57 215.779 128.539 214.674 131.54 213.709C133.288 213.154 135.073 212.244 136.022 214.929C136.674 215.233 134.388 216.782 136.287 217.17C140.38 217.96 144.33 219.679 147.329 223.696C147.57 225.303 148.67 226.564 147.719 228.86C144.125 230.047 142.389 224.877 139.003 225.165C130.493 223.185 122.676 218.539 114.478 215.335C110.265 213.742 105.636 213.698 102.008 210.012Z" fill="#F89620"/>
<path d="M87.6311 197.901C88.0562 198.232 88.4467 198.674 89.2623 199.447C87.5638 200.294 85.9289 199.001 84.6958 201.985C87.3709 204.54 90.5693 205.177 93.5288 206.337C94.9429 206.885 95.9556 207.752 96.6564 209.619C92.9982 208.763 89.3088 207.764 85.9661 205.655C83.9024 204.286 81.7001 203.36 79.2206 203.323C78.4287 203.2 77.5712 203.045 76.7793 202.921C78.1784 199.889 80.0285 200.008 81.8165 199.842C82.6777 199.744 83.8326 199.913 83.3707 197.523C84.9726 196.502 86.3556 196.908 87.6311 197.901Z" fill="#EE8D18"/>
<path d="M89.0098 188.616C87.8159 188.811 86.7918 188.704 85.9137 187.644C85.0629 186.982 84.2122 186.319 83.2648 185.482C85.1595 182.555 86.3298 186.31 87.9745 184.669C88.9402 184.237 89.8328 184.281 90.6525 184.801C91.8629 185.764 93.1737 186.647 93.0332 189.52C91.195 190.812 90.5742 187.959 89.0098 188.616Z" fill="#FEA52E"/>
<path d="M88.8881 188.224C90.3223 186.766 91.0448 189.238 92.4 188.747C91.7979 187.084 90.649 186.92 89.8062 186.022C92.5851 182.437 94.209 186.336 96.4103 186.493C97.9857 186.732 99.2447 188.453 101.03 187.788C101.687 187.846 102.375 188.044 102.963 188.32C105.309 189.925 107.521 191.718 109.798 193.542C112.766 195.314 115.054 198.773 118.466 199.374C120.729 199.811 123.13 199.811 123.967 203.591C122.822 207.944 121.236 206.07 119.764 205.503C114.594 203.573 109.874 199.974 104.464 198.81C102.438 197.857 100.274 197.341 98.4543 195.733C97.2538 194.541 95.5821 194.131 95.1554 191.673C92.8577 191.345 90.8041 190.003 88.8881 188.224Z" fill="#FCA12B"/>
<path d="M109.941 204.21C106.917 206.619 104.109 205.652 101.255 205.565C100.126 205.536 99.2102 204.579 97.8999 205.623C97.1944 206.185 96.5313 206.123 96.2824 204.972C96.0995 203.853 96.7005 203.627 97.2703 203.257C98.6117 202.357 98.2932 201.43 97.5752 200.568C96.9232 199.738 95.9303 199.517 96.0224 197.757C97.0116 198.234 97.7183 199.864 99.1293 198.74C100.738 197.711 101.879 199.163 103.306 199.207C104.59 199.955 106.084 200.031 107.437 200.554C108.655 201.271 109.707 202.035 109.941 204.21Z" fill="#FB9922"/>
<path d="M103.124 200.04C101.386 201.252 100.623 199.098 99.3742 198.501C98.0983 197.507 96.857 196.401 95.581 195.407C94.6646 194.713 94.482 193.603 95.0679 191.967C96.4096 192.993 97.6509 194.098 98.9926 195.124C99.7101 198.15 102.912 196.361 103.124 200.04Z" fill="#E6840D"/>
<path d="M102.585 91.6715C99.9938 93.2214 99.0093 88.2138 96.4183 89.7638C92.4393 89.2693 89.0462 86.9073 86.1976 83.2889C84.0931 80.6532 81.8162 78.5669 78.9982 77.4862C78.5745 77.1596 78.1853 76.7232 77.7616 76.3966C77.9305 76.098 78.0683 75.6585 78.2372 75.3599C80.2631 74.1735 81.1171 76.7222 82.5915 77.2935C83.5733 77.7579 84.3932 78.0196 84.1973 75.5298C85.7925 74.5182 86.4951 76.1121 87.4699 77.0779C88.6411 78.1366 89.9087 79.367 91.6004 78.5272C96.2824 78.2187 99.3478 82.8228 103.413 84.2411C104.553 85.1589 105.662 85.9359 106.599 87.2623C107.147 88.1521 107.495 89.1998 107.277 90.611C105.182 94.414 104.28 90.5809 102.768 90.3702C102.537 90.3871 102.416 89.5732 102.144 90.2014C102.141 90.452 102.526 91.1392 102.585 91.6715Z" fill="#E69029"/>
<path d="M78.9411 77.9591C80.5059 76.8057 81.405 78.4943 82.449 79.2412C87.1109 82.8376 91.7383 86.544 96.3347 90.1095C96.9514 90.7804 97.8715 90.9634 98.2158 92.263C97.1163 93.1316 96.4206 91.0342 95.3142 92.4046C91.0176 88.6022 85.4142 88.7273 81.3555 84.4062C82.448 84.0395 83.575 83.5628 85.2637 82.9733C82.8518 81.0736 80.8637 79.5008 78.9411 77.9591Z" fill="#FBA43D"/>
<path d="M102.518 189.304C102.092 188.971 101.6 188.607 101.175 188.274C97.57 190.133 96.1922 184.6 93.0776 184.643C92.0833 184.678 91.0652 184.062 90.1788 183.508C89.4971 182.539 89.117 181.331 89.8354 179.753C90.4186 178.366 91.2155 178.236 91.932 179.093C93.8659 178.226 95.6952 182.31 97.75 177.655C100.682 176.499 101.513 180.872 103.688 181.66C104.289 183.615 105.571 184.359 106.782 185.325C108.06 186.323 108.204 187.803 106.426 189.385C104.921 190.329 103.849 188.917 102.518 189.304Z" fill="#F49C34"/>
<path d="M92.0084 179.814C90.2244 179.98 89.6477 181.101 90.5406 183.301C89.7185 185.446 89.2012 184.693 88.7565 183.467C84.2966 179.191 78.7691 178.085 73.7705 174.568C75.3827 172.544 76.6317 172.884 77.6495 173.241C82.2486 174.667 86.1151 178.915 91.2741 178.07C91.8366 177.957 92.0536 178.948 92.0084 179.814Z" fill="#ED8A13"/>
<path d="M65.6021 164.516C66.4387 163.769 67.724 164.001 67.7253 161.582C70.5165 162.787 73.2039 164.324 76.3484 163.915C79.5766 162.272 81.9561 164.553 84.5158 165.775C85.369 166.182 86.3117 167.268 85.3223 169.47C80.42 168.022 75.618 166.494 70.2859 167.388C68.3992 167.633 66.7966 166.487 65.6021 164.516Z" fill="#F3911B"/>
<path d="M94.6592 173.372C92.3003 173.138 90.0111 172.678 87.6484 172.7C86.4165 172.751 85.7632 171.918 85.2847 170.521C85.4782 168.673 85.936 166.953 86.9537 165.633C91.2006 164.192 94.5281 166.449 97.8169 169.075C97.8338 172.448 96.3924 173.175 94.6592 173.372Z" fill="#FBA33B"/>
<path d="M94.4973 173.009C95.5536 171.821 96.7115 170.552 97.7678 169.365C100.381 164.877 101.328 168.742 102.713 170.201C102.573 170.657 102.401 170.965 102.26 171.421C102.542 172.736 103.919 172.49 103.927 174.196C103.164 175.919 102.401 177.642 103.724 178.809C102.546 181.378 101.592 180.259 100.805 179.09C99.0989 176.689 96.9038 175.62 94.6735 174.665C94.6148 174.113 94.556 173.561 94.4973 173.009Z" fill="#F5A240"/>
<path d="M87.5324 166.197C86.9146 167.695 86.2621 169.304 85.5785 170.77C85.5201 170.23 85.4616 169.689 85.4032 169.148C84.444 164.459 80.8364 166.572 78.8774 164.606C78.1922 163.893 77.2985 163.849 76.4085 163.55C75.5606 162.63 74.2028 162.619 74.2358 160.328C76.0505 160.815 77.8999 161.19 79.7804 161.708C82.9639 161.441 86.1475 161.175 87.5324 166.197Z" fill="#FB9923"/>
<path d="M94.5888 174.931C97.1969 172.616 98.2035 176.145 99.8087 177.036C100.955 177.709 101.617 179.931 103.382 178.865C105.008 178.242 105.923 178.932 105.953 181.488C105.172 183.022 104.443 183.183 103.763 182.224C100.676 183.422 100.153 178.344 97.8851 177.645C96.9465 176.308 94.639 178.386 94.5888 174.931Z" fill="#FEAE4D"/>
<path d="M88.5689 183.37C89.1228 183.756 89.6458 184.002 90.3476 183.202C94.562 182.926 97.1942 187.68 101.03 188.607C99.6439 191.344 98.6805 189.635 97.7034 188.924C95.357 187.318 92.873 186.149 90.0794 185.964C89.4291 185.406 88.7445 184.959 88.1596 184.432C88.2628 184.104 88.4004 183.667 88.5689 183.37Z" fill="#FC9A23"/>
<path d="M93.3746 74.4506C90.1822 74.0751 87.7144 71.3873 85.105 69.3912C84.4571 68.5781 84.0092 67.6069 85.5297 67.3161C86.8192 67.0423 87.5566 68.5302 88.57 69.1372C89.7799 69.8374 90.6413 71.8899 92.3723 70.6872C95.0958 71.5991 97.7121 73.0927 99.9905 75.1847C99.8039 76.7404 99.0038 77.3728 98.1728 77.864C97.5418 78.1971 96.9143 78.279 96.3558 78.1407C94.9114 77.7087 93.736 76.8984 93.3746 74.4506Z" fill="#EB952E"/>
<path d="M98.3208 76.7202C98.8928 76.0976 99.3643 75.555 99.9364 74.9324C101.705 76.2941 104.096 75.9034 105.656 77.934C106.113 78.4096 106.57 78.8852 107.159 79.424C106.184 80.3662 105.441 79.1121 104.695 80.2922C101.937 80.891 99.3183 81.0438 98.3208 76.7202Z" fill="#E69029"/>
<path d="M93.193 74.5035C94.5327 75.5238 95.8068 76.5128 97.1465 77.5332C99.1292 77.4609 100.216 80.0142 102.129 80.1633C103.269 81.3425 105.611 81.5686 103.343 85.4482C99.2746 83.5086 95.3796 81.0156 91.7578 77.8896C91.3857 76.1858 92.9747 75.9258 93.193 74.5035Z" fill="#FEA942"/>
<path d="M62.3365 107.506C60.4122 105.959 58.4224 104.381 56.4981 102.833C57.8547 100.184 58.7544 101.878 59.8684 102.407C61.8998 103.372 63.1405 106.621 65.7935 105.601C65.9936 105.443 66.1592 105.395 66.3594 105.237C70.6878 107.039 75.4236 108.021 78.0777 113.969C76.5281 116.273 74.6552 115.764 72.9577 116.858C70.7156 116.807 69.4952 114.453 68.1023 112.652C67.0299 111.509 65.8539 110.697 64.4397 110.406C63.3567 110.018 62.5084 109.362 62.3365 107.506Z" fill="#FEA941"/>
<path d="M62.6299 94.9634C63.4807 95.6266 64.3973 96.3214 65.2482 96.9847C65.3468 99.3334 66.4223 100.488 67.2275 102.024C68.1296 103.735 67.5508 104.864 66.0555 105.299C61.7044 101.808 57.1489 98.7311 53.5153 93.6662C56.946 92.113 59.1645 96.6279 62.6299 94.9634Z" fill="#F19A33"/>
<path d="M62.3139 107.854C63.1618 108.509 64.0752 109.195 64.9231 109.85C65.8781 109.924 67.164 109.901 66.5394 112.134C66.0564 113.675 65.0014 113.681 64.05 113.356C63.0985 113.032 62.7956 111.118 61.5681 111.674C58.9033 111.296 56.3764 110.477 54.1256 108.777C54.2742 107.583 53.8537 107.004 53.2988 106.615C56.4707 106.095 59.1074 108.484 62.3139 107.854Z" fill="#EF8E1A"/>
<path d="M61.3553 111.642C62.8012 110.405 63.5043 112.291 64.5981 112.432C65.0946 112.542 65.7927 112.492 65.9395 111.532C66.0901 110.315 65.1941 110.27 64.7711 109.679C66.5157 108.458 67.2809 110.632 68.534 111.236C69.0603 116.131 72.6901 115.432 74.2044 118.611C73.2288 121.75 71.9559 120.234 70.8969 119.981C68.5463 119.492 66.4085 118.075 63.9497 118.178C62.8596 117.781 61.9401 117.08 61.7024 115.161C62.357 113.543 62.2089 112.311 61.3553 111.642Z" fill="#F89928"/>
<path d="M61.5577 115.499C62.4056 116.154 63.3191 116.84 64.1325 117.605C66.7488 119.098 70.4897 117.964 71.7054 122.966C71.4639 123.737 71.2259 124.256 70.6914 124.762C68.4054 125.575 67.0546 123.164 65.2517 122.435C62.6283 121.444 60.105 120.375 57.6542 118.833C57.1682 118.223 56.7823 117.535 56.7308 116.498C58.6104 114.102 60.0337 116.041 61.5577 115.499Z" fill="#EF972E"/>
<path d="M57.0324 116.594C57.4597 116.93 57.887 117.265 58.3804 117.633C57.2712 120.716 56.4816 117.879 55.41 118.395C54.1742 116.505 52.9734 114.503 51.2915 113.562C54.8202 111.001 55.6126 111.384 57.0324 116.594Z" fill="#FBA33A"/>
<path d="M55.2107 118.343C56.2187 117.047 57.084 118.853 58.1575 117.588C60.7207 118.299 62.8349 120.445 65.6054 120.494C66.9429 123.918 70.1483 123.54 71.7895 126.475C71.7789 127.231 71.6061 127.783 71.2023 128.351C70.4671 129.016 69.8356 129.35 69.1766 129.29C65.0164 127.186 60.5108 126.186 57.2762 121.606C57.0486 121.371 56.852 121.278 56.6243 121.043C56.1416 120.18 55.6934 119.206 55.2107 118.343Z" fill="#FEAA41"/>
<path d="M65.8513 105.02C68.3327 101.432 65.5314 101.889 64.8744 101.313C63.3973 99.9516 62.7829 98.7486 64.9773 96.5747C65.1831 96.1565 65.2878 95.819 65.4936 95.4009C68.6206 93.1602 71.0104 93.5394 72.345 97.808C74.9651 100.628 76.8943 105.184 80.8612 104.644C81.3275 104.61 81.6229 104.882 81.6116 105.653C79.2746 110.735 77.7494 105.856 75.7447 106.44C73.5531 106.156 71.8466 104.555 70.21 102.728C69.7126 102.617 69.655 104.271 69.8683 103.339C69.9731 103.002 70.0741 102.921 70.2723 103.017C72.7329 105.372 75.504 106.97 77.8287 109.518C78.8121 110.511 80.1685 111.038 80.0646 113.575C79.2142 114.846 78.5847 114.671 78.2383 113.339C74.0873 110.556 70.0023 107.804 65.8513 105.02Z" fill="#F69F38"/>
<path d="M72.6766 97.5983C70.8536 95.1759 68.3307 95.2478 65.8426 95.2079C66.3573 94.04 66.8061 92.8405 67.3209 91.6726C67.8792 92.0702 68.4064 92.3241 69.0803 91.6191C69.7816 91.3133 70.2429 91.5355 70.3598 92.6214C71.7364 93.7992 73.0781 95.0888 74.9071 94.8114C74.3153 96.7144 73.2224 96.5741 72.6766 97.5983Z" fill="#E28A22"/>
<path d="M70.5094 92.2733C70.0843 91.9427 69.6593 91.6121 69.2343 91.2816C67.0291 90.6104 67.5776 86.92 66.7492 84.7392C68.748 83.6542 70.0397 85.8013 71.0138 87.0318C73.3525 89.9342 76.3803 90.8709 78.996 92.8857C75.9011 94.3394 73.6043 90.8195 70.5094 92.2733Z" fill="#FCA53D"/>
<path d="M102.352 91.4268C101.316 90.1828 99.4709 90.3188 99.4504 87.0372C102.58 86.8778 103.864 91.6365 107.038 90.6173C107.238 90.4598 107.503 90.3332 107.668 90.2853C112.315 92.2266 117.514 92.4142 121.438 96.657C120.794 97.9892 120.794 97.9892 119.256 97.389C120.867 99.911 124.581 97.8884 123.555 103.067C119.362 103.983 116.271 101.392 113.217 98.441C111.403 96.3265 108.969 96.1848 106.845 95.0567C105.347 93.8467 103.85 92.6367 102.352 91.4268Z" fill="#DF8821"/>
<path d="M88.693 105.501C89.9356 106.087 90.7308 108.097 92.4588 106.899C95.736 105.552 97.2883 109.932 100.149 110.149C102.211 110.996 104.269 112.093 106.572 112.172C108.761 113.331 111.157 113.832 113.45 114.662C114.197 115.391 114.679 116.248 114.228 117.922C113.615 119.394 112.816 120.024 111.825 120.311C105.584 119.38 99.6908 117.104 94.1798 113.372C91.963 111.823 88.8305 112.233 87.7015 108.178C87.5536 106.976 87.8944 106.13 88.693 105.501Z" fill="#E68E26"/>
<path d="M100.162 111.36C96.888 111.959 95.1612 108.099 92.5402 106.855C91.8885 106.292 90.9056 105.825 90.6541 104.946C90.4991 104.239 91.6856 104.296 92.224 103.538C96.159 105.153 100.094 106.769 104.095 108.415C104.781 108.868 104.805 109.512 104.101 110.318C101.21 111.858 99.5762 108.423 97.1031 108.388C98.3861 108.617 99.8693 108.688 100.162 111.36Z" fill="#FCA63E"/>
<path d="M88.8444 105.877C88.533 106.636 88.2215 107.395 87.9101 108.155C85.4018 110.839 83.9675 108.583 82.4905 106.956C81.6759 105.651 82.2014 103.955 82.4269 102.244C85.2746 101.415 86.6585 104.817 88.8444 105.877Z" fill="#EE9730"/>
<path d="M82.5512 102.412C83.797 103.265 83.1211 104.221 82.279 105.226C81.9118 105.434 81.6488 105.308 81.5903 104.768C81.3273 104.642 81.1647 104.436 80.9364 104.198C79.4312 102.964 77.8602 101.699 76.1578 100.37C77.5022 98.9669 78.2311 101.237 79.2778 99.8183C80.3573 100.72 81.4369 101.622 82.5512 102.412Z" fill="#E79029"/>
<path d="M84.2928 144.87C82.1141 143.225 79.9696 141.472 77.7908 139.828C73.2657 139.208 69.1148 137.64 65.7877 133.46C65.7292 132.933 65.6706 132.406 65.6464 131.771C66.9649 129.016 68.0923 130.668 69.3705 130.891C72.9714 131.828 76.4008 133.308 79.4526 135.985C82.2432 138.54 85.3737 140.256 88.7135 141.07C89.7615 141.31 90.7442 141.521 91.7579 141.87C95.2458 143.878 99.2176 144.113 102.774 145.903C103.523 146.379 104.139 147.041 104.417 148.296C102.426 154.607 99.7387 151.725 97.2409 151.805C96.6843 151.669 96.0624 151.503 95.5401 151.258C94.2343 150.647 92.8565 150.502 91.6194 149.673C89.279 147.828 86.156 147.99 84.2928 144.87Z" fill="#FDA942"/>
<path d="M69.0294 132.723C68.0462 132.256 67.343 130.653 65.9417 131.762C65.7796 131.559 65.5174 131.434 65.3553 131.23C62.8026 129.763 60.5572 127.555 58.1772 125.536C57.1976 124.817 56.9186 123.543 57.1746 121.763C61.5697 123.599 65.8957 125.655 69.8762 128.815C70.3829 130.323 70.4307 131.614 69.0294 132.723Z" fill="#ED952D"/>
<path d="M65.8889 133.745C69.8704 135.864 73.852 137.983 77.8989 140.133C76.9504 142.192 76.1389 141.435 75.1589 140.975C72.4805 139.718 69.6681 138.648 66.9553 137.5C66.1061 137.102 65.5249 136.328 65.4799 134.805C65.583 134.477 65.6861 134.15 65.8889 133.745Z" fill="#F6941D"/>
<path d="M65.364 135.192C66.0878 135.802 66.9827 136.106 66.855 137.989C66.544 138.747 66.2331 139.504 65.8871 140.374C64.295 137.658 61.3548 140.514 59.654 138.393C60.0349 137.41 60.3147 136.508 59.9292 135.543C61.7965 135.41 63.5978 135.244 65.364 135.192Z" fill="#EE8B15"/>
<path d="M58.0782 125.794C61.2566 125.782 63.6787 127.711 65.2788 131.55C61.5177 132.947 59.4737 130.047 58.0782 125.794Z" fill="#FAA239"/>
<path d="M87.5743 165.578C85.4078 162.933 82.1795 163.421 79.9099 161.103C81.8796 158.897 80.3392 158.55 79.593 157.824C85.2725 155.982 88.9179 161.075 93.3226 163.518C95.1175 164.486 97.0944 164.162 98.6556 165.396C100.182 166.739 102.383 166.895 102.865 170.127C101.396 169.312 100.148 166.848 98.0098 169.35C94.5096 168.083 91.0746 166.846 87.5743 165.578Z" fill="#F5941E"/>
<path d="M92.5116 158.25C91.4774 158.397 89.7791 160.685 89.4166 158.177C88.851 153.628 86.4057 154.647 84.2749 154.652C84.8097 149.987 86.6213 149.05 89.1138 149.349C91.2408 149.601 92.2333 152.284 93.9484 153.374C94.874 153.822 95.5975 154.431 95.9752 155.909C95.2884 159.594 93.6583 157.25 92.5116 158.25Z" fill="#FAA138"/>
<path d="M71.2284 149.298C71.4205 147.466 70.4297 147.247 69.7442 146.533C71.3478 143.327 72.2671 146.205 73.5249 146.296C74.9491 146.339 76.3 146.86 77.7205 147.157C78.9799 149.43 81.0896 150.186 81.8078 153.225C79.1148 153.856 76.345 155.219 73.9905 153.062C74.9028 151.833 75.6488 150.652 73.9962 150.371C73.0364 150.295 72.0108 150.187 71.2284 149.298Z" fill="#F5921C"/>
<path d="M93.3898 154.18C92.6112 154.971 92.2528 154.408 91.832 153.554C89.5645 149.077 87.4931 149.372 84.4146 154.635C83.9862 154.298 83.5578 153.96 83.0632 153.59C83.1484 152.332 84.1956 151.411 84.1173 149.944C85.2885 147.394 86.6515 147.665 88.1156 147.855C89.5135 148.013 90.6626 149.22 92.2394 148.555C93.2872 149.843 94.864 149.178 96.0169 150.127C95.5541 152.111 94.1135 152.582 93.3898 154.18Z" fill="#F59B30"/>
<path d="M84.0985 151.738C84.5762 153.127 83.479 153.243 83.1344 154.107C82.7077 153.773 82.281 153.438 81.8543 153.104C80.4497 151.525 78.0537 151.916 77.7414 148.287C77.7563 147.263 76.8606 147.218 76.9103 146.082C77.5846 145.377 78.1469 145.519 78.6707 146.029C80.3663 148.135 84.0449 146.3 84.0985 151.738Z" fill="#EE8C15"/>
<path d="M92.3674 158.034C93.4197 156.356 94.6674 157.213 95.7434 156.188C96.146 155.868 96.5448 155.803 96.9748 155.881C98.6761 157.47 100.718 158.453 101.669 161.48C99.5419 166.369 98.6664 160.422 96.8896 161.752C95.417 160.401 93.8748 159.273 92.3674 158.034Z" fill="#FEB14C"/>
<path d="M96.8035 161.591C98.5241 159.714 99.7136 164.67 101.53 160.777C102.934 160.165 103.853 160.866 104.122 162.928C103.599 164.61 106.244 165.369 104.023 167.392C101.595 165.448 99.2321 163.535 96.8035 161.591Z" fill="#FEB852"/>
<path d="M84.1373 151.39C83.0951 147.955 79.3311 149.857 78.6975 145.597C80.6005 144.337 82.1553 146.612 84.0929 145.241C87.1018 145.276 89.5178 147.453 92.2458 148.63C90.9997 150.204 90.049 149.622 88.8976 149.199C87.3174 148.698 85.5712 148.246 84.1373 151.39Z" fill="#F6951F"/>
<path d="M76.9776 146.195C77.498 146.694 77.9528 147.162 77.8043 148.356C75.1435 147.727 72.5137 147.239 69.8529 146.61C68.9501 145.171 66.3373 145.829 67.5481 141.727C71.0327 142.367 73.6929 145.397 76.9776 146.195Z" fill="#EB8811"/>
<path d="M104.646 198.007C105.456 199.025 106.808 199.033 106.776 201.298C105.321 201.62 104.11 200.918 103.069 199.917C101.773 198.289 99.462 198.458 98.9802 195.191C100.742 196.534 103.057 196.113 104.646 198.007Z" fill="#DF7C06"/>
<path d="M108.465 83.4035C106.905 84.5478 106.173 82.8292 105.097 82.1999C103.987 81.6796 103.289 79.852 101.729 80.9963C100.233 79.7953 98.7379 78.5944 97.2426 77.3934C97.6069 77.189 97.9711 76.9847 98.3354 76.7803C100.113 78.9887 102.783 78.3647 104.663 80.2463C105.897 81.3248 107.166 82.2944 108.465 83.4035Z" fill="#F19A34"/>
<path d="M77.7421 113.405C78.2987 113.799 78.8242 114.05 79.4956 113.35C83.1759 112.685 85.5739 116.129 88.5611 117.686C89.3494 118.063 90.0958 119.058 89.6069 120.867C89.1145 122.929 87.9522 123.266 86.9285 123.16C84.3867 122.838 82.1641 121.009 79.6223 120.686C79.1935 120.609 78.7993 120.42 78.4052 120.232C76.6388 118.877 74.564 118.267 73.2756 115.864C74.4157 112.452 76.2369 114.599 77.7421 113.405Z" fill="#FEAC46"/>
<path d="M73.2495 116.388C75.3292 116.745 77.2008 117.769 78.9647 119.382C77.2977 122.547 75.9246 121.378 74.5514 120.209C74.3268 119.718 74.1022 119.226 74.0785 118.576C72.5081 117.312 70.9378 116.048 69.3017 114.753C68.3194 114.026 67.704 113.092 68.4946 111.041C69.7837 113.449 71.3468 115.221 73.2495 116.388Z" fill="#F79F37"/>
<path d="M73.9821 118.929C74.2447 119.054 74.4071 119.259 74.5694 119.464C74.8328 124.18 73.0909 123.475 71.3455 123.024C69.6433 119.533 66.1307 120.15 64.1551 117.294C67.1914 115.302 69.1288 118.522 71.7351 118.875C72.4957 118.856 73.0448 119.756 73.9821 118.929Z" fill="#EA8A17"/>
<path d="M71.2476 122.629C72.4548 121.669 74.1043 122.205 74.4814 119.048C75.7249 120.159 77.0763 120.681 78.7517 119.432C79.015 119.558 79.1778 119.765 79.4411 119.891C81.2534 120.634 83.17 121.042 84.5377 122.726C85.5489 123.854 86.7229 125.189 85.7532 128.061C83.5054 129.933 81.8743 128.122 80.0583 127.634C78.1765 127.115 76.399 126.261 74.3745 126.443C73.023 125.922 71.602 125.624 70.8342 123.714C70.9037 123.491 71.1086 123.076 71.2476 122.629Z" fill="#ED962F"/>
<path d="M70.7859 124.345C71.9621 125.157 73.5218 124.504 74.5254 125.869C73.4997 128.424 72.5476 128.098 71.5786 126.623C69.8125 125.53 68.4228 123.475 66.3839 123.014C65.3972 122.798 65.4805 121.57 65.5637 120.342C67.2607 121.656 69.0233 123 70.7859 124.345Z" fill="#FAA33B"/>
<path d="M71.4685 126.059C72.4305 125.881 73.3506 126.321 74.4239 125.302C78.6116 123.984 81.6713 127.494 85.5013 128.049C88.6796 130.21 92.9347 126.496 96.0017 129.499C96.4436 130.988 96.1863 132.782 96.0951 134.528C95.1112 136.229 95.5203 140.004 93.012 139.57C92.2161 139.7 91.4549 139.719 90.763 139.515C88.9539 138.777 87.2488 137.705 85.332 137.554C80.0014 135.513 75.1143 132.534 71.1563 127.06C71.0596 126.886 71.264 126.473 71.4685 126.059Z" fill="#FEAA42"/>
<path d="M70.8269 127.851C74.6042 130.895 79.1357 131.775 82.3998 136.214C82.9817 136.992 84.3729 136.39 85.4267 136.384C85.8775 139.494 88.9182 138.662 89.0005 142.228C85.9358 142.418 83.3567 140.822 80.9464 138.928C77.2346 135.916 73.626 132.574 68.9532 132.382C69.2012 131.114 69.4837 129.736 69.7318 128.468C70.0968 128.262 70.4619 128.057 70.8269 127.851Z" fill="#EE9731"/>
<path d="M96.1225 129.55C94.1821 129.006 92.3765 128.273 90.0688 130.351C87.7957 132.319 87.5666 127.507 85.7539 127.279C85.0656 122.249 81.8062 121.586 79.5938 119.261C81.7453 118.888 83.6511 119.541 85.3495 120.859C86.461 121.643 87.5761 122.174 89.483 120.413C86.4633 116.814 82.375 116.392 79.5484 113.139C75.565 109.97 71.7164 106.612 68.0132 102.306C71.5433 100.175 72.4212 105.804 75.1391 105.065C76.7897 105.089 77.825 106.599 79.0295 107.808C78.1614 110.826 77.4958 108.857 76.6741 108.592C82.2461 111.501 87.341 115.453 93.1551 117.587C96.5695 118.96 99.6072 121.297 102.953 122.89C104.693 123.592 106.433 124.294 108.069 125.328C108.687 126.003 109.335 126.821 108.92 128.148C108.302 129.887 107.107 130.334 106.084 130.228C103.415 129.847 100.919 128.912 98.2883 128.167C98.2156 128.64 97.4188 126.609 97.853 128.595C97.8804 128.989 98.008 129.304 98.0355 129.698C97.0921 131.028 96.4982 130.999 96.1225 129.55Z" fill="#F79F37"/>
<path d="M79.256 107.866C77.92 106.858 76.6839 105.77 75.3479 104.761C76.8459 103.579 77.6791 105.232 78.657 105.946C79.5695 106.629 80.4889 106.811 81.2708 105.039C81.5325 105.163 81.6943 105.365 81.956 105.489C83.75 106.714 85.234 108.926 87.6445 108.427C89.7208 110.667 92.3137 111.262 94.6346 112.484C94.786 113.438 95.6985 114.12 95.2921 114.936C94.2416 117.085 92.8367 116.296 91.5832 116.46C87.2686 114.17 82.1687 113.903 79.256 107.866Z" fill="#FDA841"/>
<path d="M92.4183 114.873C92.9936 113.758 95.3353 115.873 94.4988 112.075C99.8401 116.363 106.218 117.109 111.977 119.83C113.588 119.961 115.768 119.479 113.567 123.858C113.168 124.173 112.737 124.348 112.341 124.413C109.049 124.369 106.07 123.088 103.056 121.916C99.9669 121.464 97.6736 118.238 94.5498 117.896C93.6372 117.213 92.5559 116.828 92.4183 114.873Z" fill="#FAA33B"/>
<path d="M104.148 109.919C104.864 110.511 105.719 110.663 106.539 110.924C108.113 111.417 106.618 112.35 106.211 113.167C103.727 114.137 101.901 112.768 100.11 111.29C98.842 110.059 97.2675 109.566 96.0138 107.332C99.1732 107.565 101.661 108.742 104.148 109.919Z" fill="#FEAC44"/>
<path d="M104.339 162.35C103.484 161.677 102.562 160.972 101.742 160.187C98.9629 161.303 98.3588 157.126 96.512 155.973C96.8331 152.244 98.711 153.541 99.9507 152.976C98.3494 153.237 97.393 152.645 97.1277 150.315C99.5023 149.521 101.793 152.183 104.147 148.272C105.732 146.838 107.057 147.22 108.135 148.648C110.06 151.262 112.47 152.558 114.776 154.191C115.842 156.39 114.335 159.287 114.6 161.616C112.071 163.889 110.029 162.383 107.845 161.585C107.382 161.361 106.985 161.17 107.514 161.425C107.58 161.457 107.475 161.795 107.472 162.052C107.332 162.503 107.161 162.808 106.827 162.906C105.999 162.635 105.136 162.476 104.339 162.35Z" fill="#F9A038"/>
<path d="M115.215 154.913C112.291 154.159 109.572 152.996 107.807 149.504C106.908 147.813 105.446 148.637 104.371 147.748C103.719 147.186 103.033 146.734 102.447 146.203C102.103 144.902 100.451 145.131 101.11 142.787C104.372 140.54 105.857 145.165 108.526 145.292C109.084 145.43 109.673 145.709 110.163 146.068C112.931 148.518 116.247 149.459 119.291 151.028C120.994 151.836 124.021 152.259 121.768 157.767C119.154 158.425 116.686 158.14 115.215 154.913Z" fill="#EF972F"/>
<path d="M101.042 143.858C101.761 144.456 102.649 144.753 102.524 146.605C98.739 145.435 94.608 145.373 91.2809 142.254C92.0775 139.702 92.8438 141.598 93.6354 141.722C94.0986 141.688 93.5877 140.424 93.7082 141.246C92.4881 141.046 91.2989 140.988 90.9649 138.916C91.6359 138.217 92.2269 138.499 92.7832 138.892C95.8492 139.465 99.6663 138.356 101.042 143.858Z" fill="#E9922B"/>
<path d="M90.9758 139.062C92.1195 139.991 93.1974 140.888 94.4724 141.88C93.1303 143.278 92.4023 141.018 91.3229 142.542C90.2506 143.559 89.6359 142.628 88.8826 142.141C87.7224 140.057 84.4343 141.163 85.298 136.222C87.41 136.466 89.2795 137.487 90.9758 139.062Z" fill="#E38B23"/>
<path d="M97.1509 150.729C98.2723 151.532 99.3587 152.448 100.71 153.492C99.2818 155.397 97.5412 153.645 96.6 156.435C96.3352 156.307 96.1716 156.097 95.9069 155.969C95.0503 155.294 94.1274 154.587 93.3058 153.799C93.2465 151.044 94.9476 150.959 95.866 149.716C96.2943 150.054 96.7226 150.391 97.1509 150.729Z" fill="#E9922B"/>
<path d="M101.149 143.445C98.7375 140.753 95.2231 141.116 92.8468 138.313C94.6332 138.401 94.2168 135.13 95.3876 134.283C97.5284 132.75 99.1923 134.443 101.079 134.452C102.003 134.639 102.962 134.715 103.509 135.872C103.49 137.144 102.27 139.119 104.122 139.239C105.081 139.314 106.002 139.756 106.648 140.834C107.249 142.786 108.457 144.004 108.656 146.276C106.917 147.49 106.119 145.443 104.869 144.844C103.686 144.277 102.887 142.23 101.149 143.445Z" fill="#FAA33C"/>
<path d="M101.202 135.399C99.1226 135.953 97.3664 134.969 95.6102 133.985C94.2247 132.791 95.0516 131.107 95.7459 129.358C96.3079 129.761 96.8386 130.019 97.5175 129.306C99.714 127.635 101.334 128.813 103.02 130.023C104.047 132.869 100.804 132.988 101.202 135.399Z" fill="#FEAE46"/>
<path d="M84.3122 133.104C82.4164 132.212 80.5517 131.46 78.6903 130.458C77.9058 130.089 77.1936 129.251 76.5812 128.335C79.0859 130.393 83.1387 127.53 84.3122 133.104Z" fill="#FEB24A"/>
<path d="M103.255 130.279C101.437 129.789 99.5519 129.267 97.6983 128.889C97.1087 128.347 96.4182 127.885 95.7626 127.312C98.7358 126.039 101.318 126.511 103.824 127.718C105.077 128.322 106.298 128.782 107.67 128.026C108.876 127.319 108.057 126.538 107.7 125.979C108.567 123.434 109.58 124.566 110.371 124.948C111.294 125.393 112.054 125.63 112.875 123.964C114.295 124.52 114.331 126.599 114.537 128.373C114.41 130.244 113.562 131.51 112.745 132.92C111.536 133.883 110.512 133.519 109.383 133.49C107.239 132.585 104.363 134.033 103.255 130.279Z" fill="#E78E25"/>
<path d="M92.4497 115.429C93.2951 116.075 94.1715 116.86 95.0169 117.505C94.492 119.882 93.4984 118.044 92.7668 118.7C86.8496 116.555 81.2757 113.321 76.2476 108.594C77.3192 107.097 78.141 109.48 79.113 108.062C83.2371 111.616 87.7044 114.082 92.4497 115.429Z" fill="#E68F27"/>
<path d="M103.687 121.222C103.869 122.317 100.694 120.942 102.732 123.545C98.9158 123.254 96.233 119.59 92.6886 118.67C93.4189 118.259 94.2147 117.879 94.945 117.467C98.2036 117.621 100.807 119.861 103.687 121.222Z" fill="#EA9129"/>
<path d="M120.289 140.986C119.864 140.657 119.44 140.328 119.015 139.999C116.919 141.16 115.218 140.096 113.447 139.253C111.48 138.317 109.378 137.57 107.092 138.133C105.473 138.251 104.058 137.958 103.6 135.328C102.81 135.205 101.954 135.052 101.163 134.929C98.8415 131.031 103.015 132.382 103.109 130.395C105.131 132.12 107.921 130.908 109.943 132.633C113.433 133.278 116.888 134.034 120.098 135.816C121.537 136.755 123.47 137.802 120.289 140.986Z" fill="#FEB64D"/>
</svg>
