<svg width="349" height="144" viewBox="0 0 349 144" fill="none" xmlns="http://www.w3.org/2000/svg">
<g opacity="0.8">
<path d="M92.4123 122.43C96.6737 124.42 100.892 126.047 105.33 126.288C121.328 136.737 122.152 138.839 117.22 150.618C115.609 151.583 113.738 151.968 111.171 151.342C103.866 147.93 95.9458 149.039 88.7737 143.514C88.1711 138.424 85.6909 138.525 82.2084 139.875C74.202 140.257 68.2024 136.539 63.9923 128.505C62.1681 126.05 60.518 123.447 58.868 120.845C57.6956 119.038 56.8716 116.935 56.8307 114.97C61.6661 110.473 66.9195 119.224 71.8369 118.659C78.8839 119.889 85.5846 119.813 92.4123 122.43Z" fill="#F8AE55"/>
<path d="M114.218 151.269C121.854 142.362 111.933 135.075 105.034 127.235C117.034 124.292 121.818 138.766 131.091 142.171C129.717 150.19 138.946 153.229 143.268 158.826C146.455 162.969 143.258 163.671 141.285 164.944C131.397 162.868 121.243 161.823 114.218 151.269Z" fill="#FACE99"/>
<path d="M-9.88653 113.919C-10.5238 113.285 -10.9906 112.506 -11.6279 111.872C-9.53959 110.491 -7.40943 109.466 -5.32117 108.085C-0.29789 107.738 5.90731 112.654 10.3411 108.89C13.5753 109.278 15.6576 111.036 17.4827 113.796C18.2038 115.142 18.3714 116.566 18.3265 117.78C16.6153 122.366 11.5891 124.283 8.64521 127.957C3.05958 133.09 -7.06487 129.934 -14.0088 133.086C-15.0739 133.599 -17.2819 130.773 -18.0868 128.714C-19.5649 122.527 -14.8797 120.9 -11.6815 117.793C-11.891 116.012 -7.84902 116.89 -9.88653 113.919Z" fill="#F79E32"/>
<path d="M92.1754 121.811C85.9693 123.058 79.459 123.357 72.4295 120.881C54.7124 109.384 54.7124 109.384 53.0225 101.572C55.9032 103.147 59.088 105.671 61.6215 105.933C73.4598 106.74 82.8851 113.213 92.1754 121.811Z" fill="#FCE1C0"/>
<path d="M14.6982 113.88C12.9947 112.186 11.5041 110.703 9.24339 110.659C7.49006 113.323 3.94651 115.152 1.56472 110.893C-1.75296 105.074 3.58082 104.082 8.402 103.524C18.0049 100.481 27.6498 97.7934 39.7581 101.65C41.2065 102.776 41.3328 103.846 41.1172 105.206C40.1762 106.789 38.5542 107.38 36.7193 107.759C27.763 106.723 20.5077 108.953 14.6982 113.88Z" fill="#FBD4A6"/>
<path d="M40.5015 104.404C40.24 103.819 39.5845 103.167 39.323 102.582C42.7909 99.2307 47.3476 98.5837 53.2118 100.859C56.2564 110.372 68.035 112.056 72.6594 120.225C66.3866 124.348 63.1701 113.368 57.6068 113.66C51.61 111.901 45.3947 109.925 40.5015 104.404Z" fill="#FAC485"/>
<path d="M8.62226 103.057C7.63128 104.292 6.21041 105.099 5.60663 106.401C4.78792 107.489 1.56066 107.452 3.32281 109.52C5.5575 112.374 7.62476 110.624 9.69043 110.458C6.53707 122.223 -0.37868 110.28 -5.75535 108.108C-4.07039 101.541 1.78207 101.333 8.62226 103.057Z" fill="#FACB92"/>
<path d="M151.301 184.276C149.135 192.172 149.135 192.172 157.11 192.656C160.791 192.754 160.565 195.772 162.314 197.514C171.37 203.939 171.05 209.458 165.648 214.456L164.774 213.585C155.702 213.631 149.144 207.1 143.374 200.705C139.791 196.487 138.491 190.327 131.086 189.763C129.728 189.707 127.233 188.196 127.674 187.013C131.081 173.218 113.157 173.527 108.312 165.135C105.467 163.922 102.578 162.342 101.27 159.418C101.098 157.95 101.145 156.699 101.586 155.517C103.085 151.82 105.72 149.58 110.845 150.468C112.246 150.891 113.472 151.463 114.873 151.886C123.629 155.741 132.427 159.964 141.183 163.82C146.129 166.475 153.619 167.774 149.22 174.744C147.417 177.488 148.592 180.929 151.301 184.276Z" fill="#F49C32"/>
<path d="M111.011 148.684C107.616 150.01 105.701 152.809 104.38 155.885C94.8331 158.928 88.9649 166.261 80.3059 170.501C76.1029 172.904 73.2103 176.926 69.4303 179.75C65.907 181.575 62.5952 183.61 57.3875 180.62C52.8707 172.356 58.8561 169.219 62.7646 165.895C66.2916 162.505 69.1841 158.483 71.3064 157.459C68.5875 159.771 64.6753 164.66 59.0713 167.864C55.295 169.123 51.6849 171.803 46.6094 166.748C47.4851 155.069 56.6539 150.396 65.3998 145.301C74.3875 145.467 80.8449 139.976 90.6333 142.194C96.9815 146.948 104.156 142.799 111.011 148.684Z" fill="#F79622"/>
<path d="M89.8575 141.184C82.89 143.502 77.3478 148.192 67.9188 145.835C65.3241 144.85 62.858 144.949 60.6081 145.263C56.2384 145.382 51.6082 146.517 46.7237 142.302C40.5012 134.846 42.2807 128.967 45.8335 123.575C53.7068 124.069 46.1416 118.146 47.1824 115.675C51.9904 109.619 57.6934 117.515 62.6669 119.27C64.6976 121.924 66.6854 124.218 68.7161 126.872C68.3237 129.987 65.2047 134.217 65.4208 134.432C71.6035 138.344 77.4874 138.135 83.2855 137.204C87.5708 134.771 88.6927 137.797 89.8575 141.184Z" fill="#F59A2C"/>
<path d="M62.1466 118.577C57.3292 119.863 51.5229 112.815 46.9204 115.914C41.0624 116.487 35.4229 115.678 31.5687 108.971C32.525 107.364 34.1314 106.403 36.6906 107.028C38.1233 106.214 39.556 105.4 40.9886 104.586C46.9738 106.697 53.6986 106.986 58.1169 113.614C59.4602 115.268 60.8034 116.922 62.1466 118.577Z" fill="#F6A23D"/>
<path d="M83.365 137.677C76.7156 145.682 67.1053 138.358 56.7158 134.071C61.6341 132.287 66.0344 130.942 68.453 127.31C69.7807 136.887 77.4155 135.578 83.365 137.677Z" fill="#F7A039"/>
<path d="M-76.369 161.825C-75.3489 157.871 -74.7012 153.855 -73.6811 149.901C-52.1892 137.875 -30.9031 125.643 -9.24457 113.473C-8.20577 112.961 -6.08904 112.285 -5.766 113.543C-5.11992 116.058 -8.22617 116.051 -9.5591 117.202C-16.9395 124.727 -24.9371 131.632 -33.5519 137.917C-45.7149 148.419 -58.0836 158.714 -67.4056 171.756C-75.0716 184.905 -88.8311 192.559 -96.9086 205.295C-97.7025 206.365 -98.3299 207.291 -99.3296 208.154C-104.112 211.131 -108.199 215.428 -115.891 213.618C-123.435 208.223 -118.691 204.896 -116.887 201.418C-112.986 193.823 -106.154 187.925 -106.171 177.953C-104.289 175.175 -101.35 175.326 -97.548 176.653C-89.5044 181.617 -87.8468 175.192 -85.0534 172.396C-81.7211 169.519 -77.4384 166.974 -76.369 161.825Z" fill="#FC9D27"/>
<path d="M-15.8186 128.99C-15.4014 129.407 -14.9842 129.824 -14.7756 130.033C-9.26474 124.927 0.896338 129.776 7.3628 126.562C8.74229 127.316 9.61711 128.503 10.1555 129.977C4.87369 140.307 -0.455595 142.16 -13.0929 138.27C-13.4697 138.206 -13.6784 137.997 -14.3109 138.926C-19.4178 147.557 -28.7036 153.572 -29.5913 165.172C-32.7671 172.924 -37.5713 179.36 -43.5868 184.898C-47.4088 187.009 -51.9103 191.251 -56.8765 186.599C-62.8455 181.258 -59.8042 175.557 -57.5637 170.928C-56.3795 168.366 -53.5668 167.119 -52.3826 164.556C-49.6844 160.698 -46.9863 156.839 -44.4967 152.772C-40.601 143.242 -31.2345 137.932 -25.5017 129.926C-23.0188 127.413 -20.2465 125.813 -15.8186 128.99Z" fill="#F89620"/>
<path d="M8.60073 130.147C7.92089 129.156 7.28302 128.522 6.60317 127.531C6.74308 120.748 14.1123 121.158 17.8249 117.616C19.8812 111.167 24.3184 107.402 33.176 109.292C38.114 111.374 43.052 113.455 47.8194 115.681C50.0715 118.865 55.4319 122.94 47.3801 123.109C35.1512 124.471 30.6972 137.658 16.0035 135.624C12.8953 134.734 9.91565 133.343 8.60073 130.147Z" fill="#F69621"/>
<path d="M32.1461 108.69C27.2675 111.67 22.1777 114.44 17.0879 117.21C16.4127 116.223 15.7374 115.237 14.851 114.04C15.139 100.528 27.2833 105.414 36.5153 106.143C35.1155 106.944 33.7157 107.745 32.1461 108.69Z" fill="#F8A849"/>
<path d="M50.9262 142.047C55.8718 144.467 59.224 141.224 63.6233 142.159C67.071 150.924 57.8047 149.842 54.9161 153.86C52.3668 157.59 45.9728 158.743 47.6905 165.47C53.0169 167.956 55.0157 164.305 58.4052 162.98C63.1689 170.234 55.5497 170.48 53.7206 173.987C40.7132 179.208 32.5191 188.913 24.5774 199.182C23.3028 201.047 24.7389 202.164 25.4963 203.86C26.2333 213.372 20.7995 219.557 17.9441 227.057C17.0088 228.633 15.2292 229.367 12.7336 228.762C9.0999 226.395 6.40141 222.452 7.25389 220.167C9.81134 213.31 3.40908 217.59 2.27092 215.829C-0.597226 212.03 2.2832 211.138 3.97998 209.694C-4.07767 215.773 -7.95525 225.703 -17.7015 230.098C-21.5959 230.293 -24.8033 226.784 -28.3543 225.127C-30.5437 220.751 -28.1269 219.083 -25.5403 217.272C-22.7841 215.316 -25.9583 215.288 -27.142 214.735C-30.6433 210.306 -28.1355 206.222 -30.7057 201.78C-30.5569 193.464 -24.494 189.473 -19.0229 185.206C-9.95946 182.951 -12.0002 170.259 -4.00028 170.08C-0.101789 168.321 -3.31748 167.939 -1.83997 169.411C-1.41782 169.831 -1.79858 169.766 -2.30762 170.199C-4.63761 171.012 -6.67374 172.745 -9.79845 169.945C-12.9068 160.892 -4.44335 161.487 -0.160016 158.232C6.51973 161.125 6.99967 155.647 9.50345 153.126C11.0305 151.826 12.1354 150.106 14.0847 149.227C19.4234 147.023 23.9715 139.642 31.7813 147.423C40.2242 155.836 27.9492 156.145 27.2582 161.413C21.9113 166.744 13.9901 169.196 8.85425 174.737C14.6688 168.618 24.2827 166.285 29.2115 158.97C36.3794 153.259 38.8622 142.566 50.9262 142.047Z" fill="#F6941D"/>
<path d="M46.6306 165.563C44.2186 166.876 42.2575 168.953 37.081 168.425C41.3174 160.542 46.7791 155.444 53.2308 151.029C56.8096 148.709 62.6137 148.311 62.3204 142.416C65.0557 142.361 66.7026 144.013 68.3886 146.017C59.2407 150.838 53.5533 158.82 46.6306 165.563Z" fill="#F18F1A"/>
<path d="M49.1571 141.032C42.4284 147.157 35.8689 153.138 29.3506 159.473C27.8322 159.211 26.5652 159.513 25.0927 158.045C24.9282 156.629 23.9635 154.727 24.6404 154.15C26.6714 152.419 34.0943 153.873 28.9223 147.776C24.171 142.099 21.6227 147.384 18.5811 148.421C12.7082 150.704 9.14927 155.294 5.84182 160.448C3.17023 164.671 0.984379 161.866 -0.437473 157.63C-0.696605 145.789 11.6344 143.059 15.4591 134.35C22.0042 133.051 28.0005 131.83 31.4361 126.178C34.4461 121.666 40.4835 120.799 47.6912 123.604C48.1798 129.413 43.5232 134.161 49.1571 141.032Z" fill="#F3911B"/>
<path d="M16.069 133.557C17.5241 139.702 15.7823 143.909 10.6335 145.969C5.3157 148.173 4.32702 154.071 0.018473 156.969C-3.7009 160.142 -7.21021 163.524 -10.9296 166.698C-13.9212 179.357 -22.9994 184.381 -35.1671 180.377C-36.6378 166.082 -22.134 164.594 -16.4577 155.863C-15.2282 153.648 -12.9895 152.127 -12.1032 151.76C-9.81828 149.033 -13.3994 148.589 -11.4628 149.27C-10.8736 149.545 -11.0017 150.043 -11.5089 150.475C-18.2253 155.039 -19.3983 165.758 -31.489 164.022C-33.0878 150.224 -20.7666 145.933 -16.0996 136.509C-15.6334 135.722 -14.8752 135.853 -13.7378 136.049C-3.1225 137.878 4.09098 136 10.0542 129.747C11.8628 130.925 13.8813 132.313 16.069 133.557Z" fill="#F7941E"/>
</g>
</svg>
