<svg width="358" height="213" viewBox="0 0 358 213" fill="none" xmlns="http://www.w3.org/2000/svg">
<path d="M156.062 84H158.15V78.978H160.148C163.028 78.978 165.134 77.646 165.134 74.748C165.134 71.76 163.028 70.734 160.076 70.734H156.062V84ZM158.15 77.304V72.426H159.878C161.984 72.426 163.082 73.002 163.082 74.748C163.082 76.494 162.074 77.304 159.95 77.304H158.15ZM167.716 84H169.804V78.654H171.946L174.952 84H177.31L174.07 78.384C175.744 77.862 176.842 76.638 176.842 74.586C176.842 71.724 174.79 70.734 172.054 70.734H167.716V84ZM169.804 76.98V72.426H171.802C173.728 72.426 174.772 72.984 174.772 74.586C174.772 76.188 173.728 76.98 171.802 76.98H169.804ZM179.528 84H181.616V70.734H179.528V84ZM190.249 84.234C191.959 84.234 193.309 83.55 194.371 82.326L193.255 81.012C192.463 81.876 191.545 82.416 190.321 82.416C187.981 82.416 186.505 80.49 186.505 77.34C186.505 74.226 188.089 72.318 190.375 72.318C191.455 72.318 192.283 72.804 192.967 73.506L194.101 72.174C193.291 71.292 191.995 70.5 190.339 70.5C186.991 70.5 184.363 73.092 184.363 77.412C184.363 81.75 186.919 84.234 190.249 84.234ZM196.72 84H204.748V82.236H198.808V77.952H203.668V76.188H198.808V72.498H204.55V70.734H196.72V84Z" fill="#404040"/>
<path d="M202.214 39.6045C201.79 39.308 201.247 39.4774 201 39.9825L190.835 60.6858C190.101 62.2032 188.472 62.7264 187.24 61.8771L185.26 60.3448C184.848 60.026 184.299 60.1658 184.033 60.6571C183.766 61.1474 183.884 61.804 184.295 62.1217L186.314 63.6825C187.01 64.1633 187.772 64.391 188.524 64.391C190.057 64.391 191.549 63.4433 192.367 61.751L202.529 41.0529C202.777 40.549 202.636 39.8998 202.214 39.6045Z" fill="#D6A443"/>
<path d="M204.897 0.874023H190.708C187.964 0.874023 185.92 1.91703 183.873 4.36105C183.526 4.77515 183.526 5.44438 183.873 5.85836C184.22 6.27246 184.78 6.27246 185.127 5.85836C186.855 3.79555 188.42 2.9918 190.708 2.9918H204.897C206.363 2.9918 207.557 4.41714 207.557 6.16859V23.1115C207.557 25.8447 206.884 27.7126 205.156 29.7754L178.819 61.268C177.814 62.4667 176.061 62.4677 175.057 61.268L158.753 41.7995C158.251 41.1991 157.974 40.4017 157.974 39.5524C157.974 38.7042 158.251 37.9068 158.753 37.3074L182.556 8.92396C182.922 9.03514 183.29 9.14633 183.67 9.26807C187.278 10.4223 190.124 11.6147 192.246 12.6789C191.829 13.6023 191.594 14.6368 191.594 15.699C191.594 19.203 193.981 22.0525 196.915 22.0525C199.85 22.0525 202.236 19.203 202.236 15.699C202.236 12.1949 199.85 9.34538 196.915 9.34538C196.425 9.34538 196.029 9.81979 196.029 10.4043C196.029 10.9887 196.425 11.4632 196.915 11.4632C198.872 11.4632 200.462 13.3629 200.462 15.6988C200.462 18.0349 198.872 19.9345 196.915 19.9345C194.959 19.9345 193.368 18.0348 193.368 15.6988C193.368 14.9364 193.543 14.192 193.865 13.544C195.401 14.4218 196.361 15.162 196.741 15.6343C196.578 15.6894 196.327 15.7508 195.949 15.7899C195.461 15.8418 195.1 16.3554 195.144 16.9378C195.184 17.4884 195.571 17.9046 196.026 17.9046C196.052 17.9046 196.078 17.9025 196.105 17.9004C196.65 17.8422 198.31 17.6674 198.629 16.2473C199.502 12.3515 186.703 8.04587 184.129 7.22202C180.19 5.96185 176.408 5.0999 173.477 4.795C169.876 4.41912 168.122 4.9083 167.792 6.38017C167.634 7.08651 167.213 8.96181 174.403 12.3472C174.858 12.5621 175.374 12.2953 175.553 11.7511C175.732 11.2068 175.509 10.5915 175.053 10.3776C171.579 8.74154 170.14 7.5428 169.679 6.97842C170.773 6.5951 174.512 6.70628 180.534 8.34121L157.5 35.8091C156.662 36.8098 156.2 38.1387 156.2 39.5524C156.2 40.9672 156.662 42.2971 157.5 43.2968L173.803 62.7652C174.64 63.7648 175.754 64.3155 176.937 64.3155C178.122 64.3155 179.235 63.7649 180.073 62.7642L206.41 31.2727C208.458 28.8286 209.33 26.3879 209.33 23.1115V6.16871C209.331 3.24917 207.342 0.874023 204.897 0.874023Z" fill="#D6A443"/>
<path d="M185.204 28.7158C184.858 28.3017 184.297 28.3017 183.95 28.7158L183.472 29.2877C182.77 28.7328 181.933 28.4056 181.03 28.4056C178.585 28.4056 176.596 30.7808 176.596 33.7003C176.596 35.2781 177.142 36.5255 177.617 37.4372C178.06 38.2875 178.37 39.4989 178.37 40.0538C178.37 41.8053 177.176 43.2306 175.709 43.2306C174.243 43.2306 173.049 41.8053 173.049 40.0538C173.049 39.411 173.21 38.7916 173.513 38.2622C173.79 37.7803 173.686 37.1207 173.282 36.7903C172.878 36.461 172.326 36.5838 172.05 37.0657C171.543 37.9489 171.275 38.9823 171.275 40.054C171.275 41.132 171.549 42.1315 172.014 42.9692L171.535 43.541C171.188 43.9549 171.188 44.6243 171.535 45.0383C171.708 45.2448 171.935 45.3485 172.162 45.3485C172.389 45.3485 172.616 45.2448 172.789 45.0383L173.268 44.4665C173.97 45.0213 174.807 45.3485 175.709 45.3485C178.154 45.3485 180.143 42.9734 180.143 40.0538C180.143 39.0225 179.714 37.451 179.123 36.3169C178.595 35.3057 178.37 34.5231 178.37 33.7003C178.37 31.9488 179.563 30.5235 181.03 30.5235C181.741 30.5235 182.384 30.8624 182.861 31.4077C182.876 31.4268 182.882 31.4521 182.897 31.4712C182.913 31.4892 182.934 31.4955 182.95 31.5135C183.407 32.0832 183.69 32.851 183.69 33.7002C183.69 34.5493 183.413 35.3489 182.909 35.9503C182.562 36.3633 182.562 37.0337 182.908 37.4476C183.253 37.8617 183.815 37.8606 184.162 37.4488C185.001 36.447 185.464 35.1159 185.464 33.7002C185.464 32.6222 185.19 31.6226 184.725 30.785L185.204 30.2132C185.551 29.7992 185.551 29.1298 185.204 28.7158Z" fill="#D6A443"/>
<line x1="173" y1="110" x2="188.406" y2="110" stroke="#D6A443" stroke-width="2"/>
<line x1="173" y1="118.617" x2="188.406" y2="118.617" stroke="#D6A443" stroke-width="2"/>
<path d="M317.188 172.947V144.843C317.188 144.445 317.562 144.12 318.027 144.12H346.856C347.321 144.12 347.695 144.445 347.695 144.843V177.506C347.695 177.904 347.321 178.229 346.856 178.229H318.033C317.567 178.229 317.193 177.904 317.193 177.506V175.841" stroke="#D6A443" stroke-miterlimit="10" stroke-linecap="round"/>
<path d="M332.907 185.5C332.538 185.5 332.206 185.293 332.099 184.986C332.094 184.964 331.286 182.754 329.446 182.196C328.451 181.893 327.269 182.135 325.927 182.909C323.632 184.237 321.065 184.549 318.883 183.762C317.541 183.277 316.471 182.408 315.968 181.439C314.118 181.638 312.55 181.131 311.502 179.976C309.534 177.814 309.839 173.812 312.278 169.781C313.417 167.895 313.684 166.225 313.075 164.815C312.181 162.747 309.652 161.865 309.625 161.856C309.304 161.748 309.09 161.48 309.095 161.181C309.095 160.883 309.309 160.619 309.63 160.511C309.652 160.502 312.181 159.619 313.08 157.552C313.69 156.142 313.422 154.467 312.283 152.586C311.101 150.635 310.486 148.645 310.502 146.824C310.518 145.171 311.058 143.67 312.032 142.598C313.064 141.464 314.513 140.88 316.022 140.962C316.562 139.985 317.669 139.141 319.054 138.683C320.316 138.267 322.884 137.831 325.927 139.591C327.269 140.37 328.457 140.608 329.451 140.305C331.27 139.747 332.088 137.536 332.099 137.515C332.206 137.208 332.532 137 332.907 137C333.276 137 333.607 137.208 333.714 137.515C333.72 137.536 334.527 139.747 336.367 140.305C337.362 140.608 338.544 140.365 339.886 139.591C342.919 137.835 345.481 138.263 346.738 138.674C348.139 139.133 349.257 139.985 349.797 140.975C351.059 140.962 352.295 141.434 353.268 142.308C355.049 143.913 355.664 146.543 354.91 149.346C354.808 149.735 354.354 149.977 353.899 149.886C353.445 149.796 353.161 149.411 353.268 149.021C354.193 145.569 352.567 143.774 352.049 143.307C351.278 142.611 350.326 142.308 349.374 142.455C348.941 142.52 348.519 142.29 348.412 141.923C348.225 141.287 347.444 140.452 346.133 140.024C345.181 139.712 343.224 139.396 340.822 140.789C339.009 141.841 337.319 142.135 335.789 141.668C334.42 141.248 333.49 140.292 332.907 139.448C332.324 140.288 331.393 141.248 330.024 141.668C328.494 142.135 326.804 141.841 324.991 140.789C322.579 139.392 320.616 139.712 319.664 140.028C318.353 140.461 317.583 141.295 317.401 141.931C317.289 142.316 316.84 142.554 316.391 142.459C315.267 142.23 314.166 142.602 313.369 143.48C312.069 144.908 311.4 147.97 313.786 151.907C315.16 154.178 315.455 156.245 314.658 158.062C313.989 159.585 312.7 160.584 311.684 161.172C312.7 161.761 313.994 162.764 314.658 164.283C315.455 166.095 315.16 168.167 313.786 170.438C311.684 173.916 311.304 177.385 312.839 179.077C313.818 180.154 315.294 180.119 316.359 179.899C316.583 179.851 316.818 179.886 317.011 179.994C317.204 180.102 317.337 180.275 317.38 180.47C317.519 181.101 318.236 181.949 319.541 182.416C320.509 182.767 322.509 183.134 324.991 181.698C326.804 180.651 328.494 180.353 330.024 180.82C331.393 181.24 332.324 182.196 332.907 183.039C333.49 182.2 334.42 181.24 335.789 180.82C337.314 180.353 339.009 180.647 340.822 181.698C343.299 183.13 345.288 182.767 346.256 182.421C347.561 181.958 348.289 181.11 348.428 180.478C348.513 180.102 348.925 179.847 349.369 179.899C350.979 180.085 352.241 179.687 353.011 178.739C354.434 177 354.044 173.821 351.995 170.43C350.621 168.158 350.326 166.091 351.123 164.274C351.792 162.751 353.081 161.752 354.097 161.164C353.081 160.575 351.787 159.572 351.123 158.054C350.332 156.241 350.621 154.169 351.995 151.898C352.209 151.543 352.717 151.405 353.129 151.591C353.541 151.777 353.701 152.209 353.487 152.564C352.348 154.45 352.081 156.12 352.69 157.53C353.589 159.598 356.119 160.48 356.14 160.489C356.461 160.597 356.675 160.865 356.67 161.164C356.67 161.462 356.456 161.726 356.135 161.834C356.113 161.843 353.584 162.725 352.685 164.793C352.075 166.203 352.343 167.877 353.482 169.759C355.857 173.687 356.194 177.351 354.381 179.566C353.359 180.811 351.765 181.439 349.845 181.378C349.353 182.369 348.262 183.26 346.893 183.749C345.614 184.203 342.999 184.7 339.87 182.888C338.528 182.109 337.34 181.871 336.346 182.174C334.527 182.732 333.709 184.942 333.704 184.964C333.602 185.293 333.276 185.5 332.907 185.5Z" stroke="#D6A443" stroke-miterlimit="10" stroke-linecap="round"/>
<path d="M6.526 208.234C9.424 208.234 11.188 206.506 11.188 204.382C11.188 202.438 10.054 201.466 8.488 200.8L6.67 200.026C5.59 199.594 4.528 199.162 4.528 198.01C4.528 196.966 5.41 196.318 6.76 196.318C7.93 196.318 8.848 196.768 9.676 197.506L10.774 196.174C9.766 195.148 8.308 194.5 6.76 194.5C4.24 194.5 2.404 196.066 2.404 198.154C2.404 200.08 3.826 201.088 5.104 201.628L6.94 202.42C8.164 202.96 9.064 203.338 9.064 204.544C9.064 205.66 8.164 206.416 6.562 206.416C5.284 206.416 3.988 205.804 3.034 204.85L1.81 206.29C3.016 207.514 4.708 208.234 6.526 208.234ZM13.5172 208H15.5872V198.1H13.5172V208ZM14.5432 196.246C15.2992 196.246 15.8392 195.76 15.8392 195.004C15.8392 194.266 15.2992 193.78 14.5432 193.78C13.7872 193.78 13.2652 194.266 13.2652 195.004C13.2652 195.76 13.7872 196.246 14.5432 196.246ZM17.7851 208H25.4351V206.344H20.3951L25.2731 199.198V198.1H18.3251V199.756H22.6811L17.7851 206.884V208ZM31.438 208.234C32.734 208.234 33.868 207.802 34.786 207.19L34.066 205.876C33.346 206.344 32.59 206.614 31.708 206.614C29.998 206.614 28.81 205.48 28.648 203.59H35.074C35.128 203.338 35.182 202.942 35.182 202.528C35.182 199.738 33.76 197.848 31.132 197.848C28.828 197.848 26.614 199.846 26.614 203.05C26.614 206.326 28.756 208.234 31.438 208.234ZM28.63 202.15C28.828 200.422 29.926 199.468 31.168 199.468C32.608 199.468 33.382 200.458 33.382 202.15H28.63Z" fill="#404040"/>
<path d="M299.746 208H301.834V202.294H306.73V200.548H301.834V196.498H307.594V194.734H299.746V208ZM309.357 208H311.427V201.826C312.039 200.26 313.011 199.702 313.821 199.702C314.217 199.702 314.469 199.756 314.811 199.864L315.189 198.064C314.883 197.92 314.559 197.848 314.073 197.848C313.011 197.848 311.967 198.604 311.265 199.882H311.211L311.049 198.1H309.357V208ZM318.552 208.234C319.74 208.234 320.802 207.64 321.702 206.866H321.774L321.936 208H323.628V202.042C323.628 199.414 322.494 197.848 320.028 197.848C318.444 197.848 317.058 198.496 316.032 199.144L316.806 200.548C317.652 200.008 318.624 199.54 319.668 199.54C321.126 199.54 321.54 200.548 321.558 201.7C317.436 202.15 315.636 203.248 315.636 205.372C315.636 207.118 316.842 208.234 318.552 208.234ZM319.182 206.596C318.3 206.596 317.634 206.2 317.634 205.228C317.634 204.112 318.624 203.356 321.558 203.014V205.444C320.748 206.182 320.046 206.596 319.182 206.596ZM326.566 208H328.636V200.98C329.446 200.08 330.184 199.63 330.85 199.63C331.984 199.63 332.506 200.314 332.506 202.024V208H334.576V200.98C335.404 200.08 336.124 199.63 336.808 199.63C337.924 199.63 338.464 200.314 338.464 202.024V208H340.534V201.772C340.534 199.252 339.562 197.848 337.492 197.848C336.25 197.848 335.242 198.622 334.27 199.666C333.838 198.532 333.01 197.848 331.534 197.848C330.31 197.848 329.32 198.586 328.474 199.486H328.42L328.258 198.1H326.566V208ZM347.651 208.234C348.947 208.234 350.081 207.802 350.999 207.19L350.279 205.876C349.559 206.344 348.803 206.614 347.921 206.614C346.211 206.614 345.023 205.48 344.861 203.59H351.287C351.341 203.338 351.395 202.942 351.395 202.528C351.395 199.738 349.973 197.848 347.345 197.848C345.041 197.848 342.827 199.846 342.827 203.05C342.827 206.326 344.969 208.234 347.651 208.234ZM344.843 202.15C345.041 200.422 346.139 199.468 347.381 199.468C348.821 199.468 349.595 200.458 349.595 202.15H344.843Z" fill="#404040"/>
<g clip-path="url(#clip0)">
<path d="M117.207 167.93C117.988 167.93 118.621 167.181 118.621 166.257C118.621 165.333 117.988 164.584 117.207 164.584C116.426 164.584 115.793 165.333 115.793 166.257C115.793 167.181 116.426 167.93 117.207 167.93Z" fill="#D6A443"/>
<path d="M132.848 167.93C133.629 167.93 134.262 167.181 134.262 166.257C134.262 165.333 133.629 164.584 132.848 164.584C132.067 164.584 131.434 165.333 131.434 166.257C131.434 167.181 132.067 167.93 132.848 167.93Z" fill="#D6A443"/>
<path d="M117.207 160.893C116.434 160.893 115.708 161.249 115.162 161.895C114.867 162.244 114.867 162.81 115.162 163.159C115.457 163.508 115.936 163.508 116.23 163.159C116.491 162.85 116.838 162.681 117.207 162.681C117.575 162.681 117.922 162.85 118.183 163.159C118.33 163.334 118.524 163.421 118.717 163.421C118.91 163.421 119.104 163.334 119.251 163.159C119.546 162.81 119.546 162.244 119.251 161.895C118.705 161.249 117.979 160.893 117.207 160.893Z" fill="#D6A443"/>
<path d="M130.803 161.895C130.508 162.244 130.508 162.81 130.803 163.159C131.098 163.508 131.577 163.508 131.871 163.159C132.41 162.522 133.286 162.522 133.824 163.159C133.972 163.334 134.165 163.421 134.358 163.421C134.552 163.421 134.745 163.334 134.892 163.159C135.187 162.81 135.187 162.244 134.892 161.895C133.765 160.562 131.931 160.562 130.803 161.895Z" fill="#D6A443"/>
<path d="M126.481 173.36C126.092 173.82 125.576 174.073 125.026 174.073C124.477 174.073 123.96 173.82 123.572 173.36C123.277 173.011 122.799 173.011 122.504 173.36C122.209 173.709 122.209 174.275 122.504 174.624C123.178 175.422 124.073 175.861 125.026 175.861C125.979 175.861 126.875 175.422 127.548 174.624C127.843 174.275 127.843 173.71 127.548 173.36C127.254 173.011 126.775 173.011 126.481 173.36Z" fill="#D6A443"/>
<path d="M142.849 165.395C142.849 162.968 141.366 160.943 139.416 160.521V145.57C139.416 143.63 138.6 141.832 137.234 140.76C135.952 139.753 134.359 139.524 132.919 140.124L128.176 138.22C124.533 136.756 120.697 136.606 117.084 137.786C112.355 139.33 109.643 142.595 109.225 147.236C108.855 147.814 108.56 148.463 108.36 149.163L107.992 150.452C107.795 151.143 108.013 151.87 108.534 152.26C109.056 152.65 109.704 152.572 110.147 152.064C110.299 151.89 110.464 151.744 110.639 151.622V160.521C108.688 160.944 107.205 162.968 107.205 165.396C107.205 167.921 108.809 170.009 110.875 170.313C111.394 173.702 112.757 176.828 114.841 179.33C117.562 182.596 121.18 184.394 125.027 184.394C125.028 184.394 125.028 184.394 125.029 184.394C128.871 184.394 132.484 182.623 135.201 179.408C137.324 176.896 138.702 173.738 139.203 170.309C141.257 169.993 142.849 167.911 142.849 165.395ZM136.399 142.249C137.356 143.001 137.905 144.211 137.905 145.57V157.265C135.561 156.834 133.761 154.43 133.761 151.537L133.698 141.71C134.62 141.422 135.582 141.608 136.399 142.249ZM109.645 150.25L109.792 149.736C110.176 148.389 111.03 147.295 112.134 146.736C113.239 146.177 114.497 146.2 115.586 146.8C117.873 148.061 120.638 147.379 122.31 145.143L122.497 144.893C122.774 144.523 122.744 143.958 122.432 143.631C122.119 143.304 121.642 143.339 121.366 143.708L121.179 143.959C119.947 145.606 117.909 146.108 116.224 145.18C114.746 144.365 113.038 144.334 111.54 145.093C111.403 145.162 111.271 145.239 111.14 145.32C112.018 142.55 114.143 140.6 117.486 139.509C120.806 138.425 124.335 138.564 127.691 139.912L132.187 141.718L132.246 146.336C130.244 149.557 127.324 151.738 123.997 152.487C120.59 153.255 117.114 152.443 114.21 150.2C112.79 149.104 111.001 149.151 109.645 150.25ZM108.716 165.395C108.716 163.958 109.529 162.743 110.639 162.356V167.2C110.639 167.618 110.651 168.035 110.676 168.448C109.547 168.076 108.716 166.849 108.716 165.395ZM134.133 178.144C131.701 181.021 128.468 182.606 125.029 182.607C125.028 182.607 125.028 182.607 125.027 182.607C121.587 182.607 118.352 180.997 115.917 178.075C113.487 175.159 112.149 171.296 112.149 167.2V151.201C112.577 151.238 113.002 151.402 113.384 151.697C116.617 154.194 120.487 155.098 124.279 154.243C127.358 153.55 130.124 151.756 132.25 149.111V151.537C132.25 155.417 134.725 158.624 137.905 159.067V167.369C137.905 171.439 136.566 175.266 134.133 178.144ZM139.387 168.445C139.405 168.088 139.416 167.73 139.416 167.369V162.356C140.526 162.743 141.339 163.958 141.339 165.395C141.339 166.845 140.512 168.07 139.387 168.445Z" fill="#D6A443"/>
</g>
<path d="M231.274 177.86C229.773 177.86 228.534 176.461 228.376 174.67L231.297 172.482C231.526 172.311 231.665 172.007 231.665 171.679C231.665 169.794 230.415 168.261 228.879 168.261H226.304C224.768 168.261 223.518 169.794 223.518 171.679C223.518 172.007 223.657 172.311 223.886 172.482L226.807 174.67C226.649 176.461 225.41 177.86 223.909 177.86C223.485 177.86 223.141 178.281 223.141 178.801C223.141 179.321 223.485 179.742 223.909 179.742C225.438 179.742 226.79 178.79 227.591 177.344C228.393 178.79 229.744 179.742 231.274 179.742C231.698 179.742 232.042 179.321 232.042 178.801C232.042 178.281 231.698 177.86 231.274 177.86ZM226.304 170.144H228.879C229.432 170.144 229.902 170.586 230.067 171.197L227.591 173.052L225.116 171.198C225.28 170.586 225.751 170.144 226.304 170.144Z" fill="#D6A443"/>
<path d="M222.192 158.994C221.915 158.615 221.453 158.472 221.112 158.66L217.749 160.508C217.374 160.714 217.279 161.242 217.537 161.688C217.794 162.134 218.307 162.328 218.682 162.122L221.448 160.603L222.374 161.872C222.678 162.288 223.199 162.413 223.538 162.152C223.877 161.89 223.905 161.341 223.602 160.925L222.192 158.994Z" fill="#D6A443"/>
<path d="M237.326 160.83L234.392 158.794C234.071 158.571 233.597 158.664 233.285 159.011L231.86 160.594C231.516 160.975 231.49 161.525 231.801 161.821C232.112 162.116 232.642 162.047 232.986 161.666L233.864 160.69L236.237 162.338C236.589 162.582 237.119 162.443 237.419 162.027C237.72 161.611 237.679 161.075 237.326 160.83Z" fill="#D6A443"/>
<path d="M244.134 153.091C241.846 147.485 237.901 143.532 232.708 141.636C231.907 139.065 229.861 137.312 227.591 137.312C225.321 137.312 223.276 139.065 222.474 141.636C217.281 143.532 213.336 147.485 211.049 153.091C205.498 166.692 203.806 172.086 203.806 176.179C203.806 180.005 206.343 183.118 209.462 183.118C212.581 183.118 215.118 180.005 215.118 176.179V170.799C216.036 171.572 216.701 173.811 217.652 177.234L217.719 177.475C219.263 183.032 222.861 186.22 227.591 186.22C232.321 186.22 235.92 183.032 237.464 177.475L237.531 177.234C238.482 173.811 239.146 171.572 240.064 170.799V176.179C240.064 180.005 242.601 183.118 245.72 183.118C248.839 183.118 251.376 180.005 251.376 176.179C251.376 172.086 249.684 166.692 244.134 153.091ZM245.72 181.235C243.447 181.235 241.598 178.967 241.598 176.178V157.984C241.598 157.464 241.255 157.042 240.831 157.042C240.407 157.042 240.064 157.464 240.064 157.984V168.74C239.208 169.029 238.482 169.824 237.861 171.151C237.215 172.533 236.688 174.43 236.078 176.627L236.011 176.868C234.205 183.367 229.961 184.337 227.591 184.337C225.221 184.337 220.977 183.367 219.171 176.868L219.104 176.627C218.494 174.43 217.967 172.533 217.321 171.151C216.7 169.824 215.974 169.029 215.118 168.74V157.984C215.118 157.464 214.775 157.042 214.351 157.042C213.927 157.042 213.584 157.464 213.584 157.984V176.179C213.584 178.967 211.735 181.235 209.462 181.235C207.189 181.235 205.341 178.967 205.341 176.179C205.341 172.472 207.061 167.067 212.421 153.934C214.597 148.601 218.249 145.027 223.277 143.311C223.533 143.224 223.733 142.981 223.808 142.669C224.297 140.623 225.852 139.195 227.591 139.195C229.33 139.195 230.886 140.623 231.374 142.669C231.449 142.981 231.65 143.224 231.905 143.311C236.933 145.027 240.585 148.601 242.762 153.934C248.121 167.067 249.842 172.472 249.842 176.179C249.842 178.967 247.993 181.235 245.72 181.235Z" fill="#D6A443"/>
<path d="M25.9781 175.912H31.681M48.9465 165.791H42.8088C42.3841 165.791 42.0403 166.169 42.0403 166.636V167.481H40.9533L38.208 162.195V157.36C38.208 156.893 37.8643 156.515 37.4396 156.515H35.1392C33.6123 156.515 32.8388 157.649 32.8388 159.889V166.636H19.4106C19.4106 166.636 19.4106 166.636 19.4056 166.636C17.9242 166.636 16.7209 167.959 16.7209 169.587C16.7209 171.215 17.9242 172.538 19.4056 172.538H25.4371C25.2703 172.922 25.1692 173.35 25.1692 173.8C25.1692 174.628 25.4826 175.373 25.9832 175.906C25.4826 176.445 25.1692 177.19 25.1692 178.012C25.1692 178.835 25.4826 179.585 25.9832 180.119C25.4826 180.658 25.1692 181.403 25.1692 182.225C25.1692 183.854 26.3724 185.176 27.8538 185.176C27.8588 185.176 27.8588 185.176 27.8639 185.176H30.139C30.1441 185.176 30.1491 185.176 30.1491 185.176C30.1592 185.176 30.1643 185.176 30.1693 185.176H38.203H38.208C38.3193 185.176 38.4255 185.143 38.5266 185.093C38.5316 185.087 38.5417 185.093 38.5468 185.087L41.4539 183.487H42.0403V184.332C42.0403 184.798 42.3841 185.176 42.8088 185.176H48.9465V165.791Z" stroke="#D6A443" stroke-width="2" stroke-miterlimit="10" stroke-linecap="round"/>
<path d="M1.37903 155.676H7.51675C7.94144 155.676 8.28523 155.298 8.28523 154.831V153.987H9.37223L12.1175 159.272V164.107C12.1175 164.574 12.4613 164.952 12.886 164.952H15.1864C16.7132 164.952 17.4868 163.818 17.4868 161.579V154.831H30.9149C30.9149 154.831 30.9149 154.831 30.92 154.831C32.4013 154.831 33.6046 153.509 33.6046 151.88C33.6046 150.252 32.4013 148.929 30.92 148.929H24.8884C25.0553 148.546 25.1564 148.118 25.1564 147.668C25.1564 146.839 24.8429 146.095 24.3424 145.561C24.8429 145.022 25.1564 144.277 25.1564 143.455C25.1564 142.632 24.8429 141.882 24.3424 141.348C24.8429 140.809 25.1564 140.065 25.1564 139.242C25.1564 137.614 23.9531 136.291 22.4718 136.291C22.4667 136.291 22.4667 136.291 22.4617 136.291H12.1226C12.1125 136.291 12.1074 136.296 12.0973 136.296C12.0467 136.296 12.0012 136.313 11.9557 136.33C11.9052 136.341 11.8496 136.352 11.8041 136.374C11.7939 136.38 11.7889 136.374 11.7838 136.38L8.87676 137.98H8.29029V137.125C8.29029 136.658 7.9465 136.28 7.52181 136.28H1.37903V155.676Z" stroke="#D6A443" stroke-width="2" stroke-miterlimit="10"/>
<path d="M48.9489 165.792V185.188" stroke="#D6A443" stroke-width="2" stroke-miterlimit="10"/>
<path d="M25.9795 180.13H31.6826" stroke="#D6A443" stroke-width="2" stroke-miterlimit="10" stroke-linecap="round"/>
<path d="M25.4375 172.537H31.6798" stroke="#D6A443" stroke-width="2" stroke-miterlimit="10" stroke-linecap="round"/>
<path d="M128.548 208H136.108V206.29H133.516V195.112H131.95C131.194 195.58 130.312 195.904 129.07 196.12V197.434H131.446V206.29H128.548V208ZM148.221 208.234C149.931 208.234 151.281 207.55 152.343 206.326L151.227 205.012C150.435 205.876 149.517 206.416 148.293 206.416C145.953 206.416 144.477 204.49 144.477 201.34C144.477 198.226 146.061 196.318 148.347 196.318C149.427 196.318 150.255 196.804 150.939 197.506L152.073 196.174C151.263 195.292 149.967 194.5 148.311 194.5C144.963 194.5 142.335 197.092 142.335 201.412C142.335 205.75 144.891 208.234 148.221 208.234ZM154.511 208H156.581V200.98C157.445 200.098 158.075 199.63 158.993 199.63C160.163 199.63 160.667 200.314 160.667 202.024V208H162.737V201.772C162.737 199.252 161.801 197.848 159.695 197.848C158.345 197.848 157.355 198.586 156.491 199.414L156.581 197.452V193.654H154.511V208ZM168.031 208.234C169.219 208.234 170.281 207.64 171.181 206.866H171.253L171.415 208H173.107V202.042C173.107 199.414 171.973 197.848 169.507 197.848C167.923 197.848 166.537 198.496 165.511 199.144L166.285 200.548C167.131 200.008 168.103 199.54 169.147 199.54C170.605 199.54 171.019 200.548 171.037 201.7C166.915 202.15 165.115 203.248 165.115 205.372C165.115 207.118 166.321 208.234 168.031 208.234ZM168.661 206.596C167.779 206.596 167.113 206.2 167.113 205.228C167.113 204.112 168.103 203.356 171.037 203.014V205.444C170.227 206.182 169.525 206.596 168.661 206.596ZM176.045 208H178.115V201.826C178.727 200.26 179.699 199.702 180.509 199.702C180.905 199.702 181.157 199.756 181.499 199.864L181.877 198.064C181.571 197.92 181.247 197.848 180.761 197.848C179.699 197.848 178.655 198.604 177.953 199.882H177.899L177.737 198.1H176.045V208ZM185.24 208.234C186.428 208.234 187.49 207.64 188.39 206.866H188.462L188.624 208H190.316V202.042C190.316 199.414 189.182 197.848 186.716 197.848C185.132 197.848 183.746 198.496 182.72 199.144L183.494 200.548C184.34 200.008 185.312 199.54 186.356 199.54C187.814 199.54 188.228 200.548 188.246 201.7C184.124 202.15 182.324 203.248 182.324 205.372C182.324 207.118 183.53 208.234 185.24 208.234ZM185.87 206.596C184.988 206.596 184.322 206.2 184.322 205.228C184.322 204.112 185.312 203.356 188.246 203.014V205.444C187.436 206.182 186.734 206.596 185.87 206.596ZM197.286 208.234C198.42 208.234 199.59 207.82 200.508 207.01L199.644 205.642C199.05 206.146 198.312 206.542 197.484 206.542C195.846 206.542 194.694 205.156 194.694 203.05C194.694 200.962 195.882 199.558 197.556 199.558C198.222 199.558 198.78 199.846 199.32 200.332L200.346 198.982C199.626 198.352 198.708 197.848 197.448 197.848C194.838 197.848 192.552 199.756 192.552 203.05C192.552 206.344 194.604 208.234 197.286 208.234ZM205.689 208.234C206.409 208.234 207.075 208.054 207.633 207.874L207.255 206.344C206.967 206.47 206.535 206.578 206.193 206.578C205.167 206.578 204.753 205.966 204.753 204.778V199.756H207.327V198.1H204.753V195.364H203.025L202.791 198.1L201.243 198.208V199.756H202.683V204.76C202.683 206.848 203.457 208.234 205.689 208.234ZM213.319 208.234C214.615 208.234 215.749 207.802 216.667 207.19L215.947 205.876C215.227 206.344 214.471 206.614 213.589 206.614C211.879 206.614 210.691 205.48 210.529 203.59H216.955C217.009 203.338 217.063 202.942 217.063 202.528C217.063 199.738 215.641 197.848 213.013 197.848C210.709 197.848 208.495 199.846 208.495 203.05C208.495 206.326 210.637 208.234 213.319 208.234ZM210.511 202.15C210.709 200.422 211.807 199.468 213.049 199.468C214.489 199.468 215.263 200.458 215.263 202.15H210.511ZM219.375 208H221.445V201.826C222.057 200.26 223.029 199.702 223.839 199.702C224.235 199.702 224.487 199.756 224.829 199.864L225.207 198.064C224.901 197.92 224.577 197.848 224.091 197.848C223.029 197.848 221.985 198.604 221.283 199.882H221.229L221.067 198.1H219.375V208Z" fill="#404040"/>
<path d="M168.507 170.234C170.901 170.234 173.043 168.362 173.043 165.122C173.043 161.864 170.901 159.974 168.507 159.974C166.113 159.974 163.971 161.864 163.971 165.122C163.971 168.362 166.113 170.234 168.507 170.234ZM168.507 168.866C166.815 168.866 165.681 167.372 165.681 165.122C165.681 162.872 166.815 161.342 168.507 161.342C170.199 161.342 171.351 162.872 171.351 165.122C171.351 167.372 170.199 168.866 168.507 168.866ZM175.625 170H177.263V163.718C177.911 162.044 178.919 161.468 179.729 161.468C180.125 161.468 180.359 161.504 180.683 161.63L180.989 160.19C180.683 160.028 180.377 159.974 179.945 159.974C178.847 159.974 177.857 160.766 177.173 162.008H177.119L176.975 160.226H175.625V170Z" fill="#404040"/>
<line x1="69" y1="161.346" x2="84.6658" y2="161.346" stroke="#404040" stroke-width="2"/>
<path d="M76.8329 169.647V154" stroke="#404040" stroke-width="2"/>
<line x1="266" y1="161.346" x2="281.666" y2="161.346" stroke="#404040" stroke-width="2"/>
<path d="M273.833 169.647V154" stroke="#404040" stroke-width="2"/>
<defs>
<clipPath id="clip0">
<rect width="40.0547" height="47.3946" fill="white" transform="translate(105 137)"/>
</clipPath>
</defs>
</svg>
