<svg width="82" height="144" viewBox="0 0 82 144" fill="none" xmlns="http://www.w3.org/2000/svg">
<g opacity="0.8">
<path d="M48.1779 42.2516C48.0413 37.1813 44.4026 34.8403 37.2075 34.9929C33.6235 34.68 32.5371 32.6569 31.4507 30.6338C30.2828 28.2572 27.8119 27.3965 22.9522 29.6134C19.613 32.1532 17.7129 35.5588 12.9074 37.1151C11.6857 38.088 11.0886 39.0815 11.1159 40.0955C11.2517 40.6845 11.7677 41.1302 12.4465 41.3863C22.6825 40.9831 29.4709 44.441 37.1009 47.0694C37.6168 47.515 38.4857 47.6995 39.5175 47.6945C42.314 47.2801 44.7303 46.1127 47.0379 44.4741C47.8794 43.6446 48.3409 42.9584 48.1779 42.2516Z" fill="#F8AF5A"/>
<path d="M4.98713 134.179C6.68941 132.794 8.39169 131.409 10.094 130.024C11.9557 128.454 15.0442 126.924 13.9713 124.958C13.4362 124.41 12.9282 123.977 11.8878 123.868C9.80714 123.651 7.19415 123.757 5.01086 124.824C-6.59729 130.666 -18.7973 134.861 -30.9974 139.056C-35.6855 140.687 -36.7987 142.849 -32.3157 143.787C-25.4901 143.474 -19.1024 139.586 -14.7871 138.095C-11.0582 136.699 -11.8525 138.492 -11.8553 137.62C-11.8823 137.506 -12.0688 137.576 -12.2552 137.645C-16.5975 139.022 -21.0479 139.941 -24.3173 143.284C-24.7145 144.181 -24.3929 144.683 -23.512 144.977C-16.3405 144.41 -9.28532 140.771 -2.11931 138.461C0.304482 137.553 2.5661 135.959 4.98713 134.179Z" fill="#F4A13E"/>
<path d="M28.1755 115.555C31.2553 113.623 36.3797 112.462 35.5611 108.915C31.9075 105.666 40.8205 102.947 41.1469 99.8684C41.0104 99.2773 40.6832 98.7581 40.1924 98.4291C38.3932 97.8223 36.2942 97.7141 34.0317 97.7961C32.0146 98.0426 30.134 98.8803 28.5532 100.119C27.8719 100.761 27.4087 101.45 26.9455 102.139C26.346 103.136 25.9647 104.179 25.3652 105.177C25.2845 109.32 23.2412 113.946 24.5234 117.703C26.1316 117.482 27.3853 116.624 28.1755 115.555Z" fill="#F9B768"/>
<path d="M-10.836 150.685C-7.58554 149.714 -7.13187 146.383 -3.61244 145.69C-2.35019 144.962 -1.27597 144.305 -0.0137178 143.577C3.58334 139.694 1.29834 138.658 -2.4909 138.188C-9.74478 139.528 -16.594 142.612 -23.5241 145.348C-23.9803 146.025 -24.0334 146.677 -23.7105 147.188C-20.9137 149.548 -14.5501 144.371 -11.6193 146.429C-10.1673 147.399 -13.2281 150.069 -10.836 150.685Z" fill="#FAAA4D"/>
<path d="M54.7352 77.5132C60.0966 71.8825 57.5498 68.9741 53.4431 66.5245C50.6239 66.0397 47.8874 66.8131 45.1513 68.4888C43.0178 70.969 46.0565 72.4027 43.7315 74.9551C39.0823 81.8647 49.8368 78.8434 51.3436 81.7569C55.9412 80.9268 53.3674 78.8023 54.7352 77.5132Z" fill="#F7AB4F"/>
<path d="M-8.62601 26.0904C-8.54502 26.4402 -8.43703 26.9066 -8.35603 27.2564C-11.0735 29.6745 -15.0569 31.0482 -17.8013 33.3497C-19.0121 34.3129 -19.6037 35.2963 -19.5761 36.3001C-19.4411 36.8831 -19.1177 37.3951 -18.4176 37.7652C-16.425 38.409 -14.0562 38.0238 -11.607 37.1012C-10.665 36.7463 -9.72296 36.3915 -8.80795 35.92C-7.86595 35.5652 -6.95095 35.0937 -6.03594 34.6223C-3.64073 33.4665 -1.24552 32.3107 0.637899 30.7138C1.95612 29.3299 2.65513 27.9257 1.22775 27.0689C-0.712015 24.884 -3.13599 23.2617 -8.62601 26.0904Z" fill="#F7AD53"/>
<path d="M0.901406 27.5611C0.71258 28.5238 0.496697 29.3694 0.30787 30.3321C-0.151229 31.0146 -0.394171 31.743 -0.448 32.4C-0.312725 32.9858 0.200765 33.429 0.714254 33.8723C2.63293 35.0593 5.17275 35.3754 8.49578 34.632C11.6026 33.8428 14.3851 32.5391 16.8162 30.6037C21.9472 22.5561 13.14 25.3669 7.97951 25.2747C5.43968 24.9587 3.25157 26.1657 0.901406 27.5611Z" fill="#FAC687"/>
<path d="M44.9149 68.487C47.5441 68.2624 50.3086 67.7311 53.0731 66.3051C55.539 62.6911 52.1233 60.4003 54.5892 56.7862C53.9929 56.8833 53.6406 57.1439 53.2883 57.4046C50.1983 57.4195 47.3525 58.4928 44.7237 60.5067C43.6671 63.078 43.0171 65.6239 41.3642 68.2923C42.1503 69.0183 43.2074 69.1309 44.9149 68.487Z" fill="#FAC788"/>
<path d="M39.4052 99.7767C40.6991 99.1621 42.02 98.6643 43.5026 97.9786C45.3355 97.0339 47.3572 96.018 49.1901 95.0732C50.3484 92.9854 49.6468 91.7256 47.3279 91.4562C46.3304 91.578 45.3599 91.8167 44.4434 92.2891C43.5269 92.7615 42.8532 93.3965 42.1795 94.0314C42.0178 94.2194 41.6674 94.4784 41.344 94.8543C40.5356 95.7941 39.7272 96.7338 39.1346 97.7193C38.9999 98.0241 38.8652 98.3289 38.9193 98.5626C39.0274 99.0299 39.3241 99.4262 39.4052 99.7767Z" fill="#FCE4C6"/>
<path d="M52.6656 87.6267C55.2185 86.286 56.1314 84.9301 55.3774 83.4428C54.732 83.3062 53.9255 83.3569 52.9848 83.711C50.9423 84.6065 48.9538 85.7347 47.1804 86.9085C45.5951 88.0114 44.4401 89.2053 43.9305 90.5358C43.9844 90.7686 44.0654 91.1176 44.1193 91.3503C44.7917 91.6033 45.5982 91.5526 46.5389 91.1985C49.2537 90.5559 51.1883 89.195 52.6656 87.6267Z" fill="#FCE8CE"/>
<path d="M38.8456 45.6395C38.8975 44.9944 39.3231 44.209 39.0012 43.7041C37.579 41.1091 27.3585 46.0695 30.1215 39.6519C24.5658 40.2344 19.7014 39.4313 13.907 40.729C11.0482 40.6751 8.64613 41.7014 6.24622 43.6028C0.115712 49.5316 -7.94574 52.4306 -16.0342 55.2146C-30.1558 60.0115 -42.4544 67.3783 -54.0823 75.8699C-48.7569 79.5035 -43.486 71.6446 -39.0223 72.4729C-40.4361 73.3787 -43.4278 73.625 -45.7488 74.9962C-48.7903 76.7629 -51.458 78.3894 -48.9686 80.3337C-46.6412 81.588 -43.6744 82.1019 -39.9084 81.6902C-36.0634 80.7484 -32.5091 81.167 -28.6101 80.4552C-20.9473 78.4566 -13.8513 74.0427 -6.42924 71.8841C-3.84037 70.7878 -1.49233 69.5315 0.801714 68.0453C4.45557 65.4232 8.9378 62.8657 9.89056 59.1296C16.1809 53.0156 23.4119 49.1768 32.3351 49.083C33.3233 48.9626 34.3115 48.8421 35.2458 48.4917C36.9004 47.7458 38.1004 46.7951 38.8456 45.6395Z" fill="#F6941E"/>
<path d="M5.97228 43.852C8.51374 42.6596 11.2406 41.3983 13.7821 40.206C13.4879 39.823 13.4063 39.4841 13.1121 39.1011C11.7005 38.2724 9.65593 38.1717 7.34933 38.6611C-5.14537 44.6667 -17.8576 49.7683 -30.4883 55.209C-34.1422 56.8154 -37.6108 58.3529 -41.4007 59.3944C-51.124 62.6447 -61.1144 65.6251 -70.7017 69.4404C-76.6895 71.4232 -83.0258 72.7971 -87.8046 77.2846C-91.0507 80.5859 -97.387 81.9598 -99.8593 85.9579C-99.7085 89.1027 -96.104 88.1302 -92.7393 87.0007C-89.4017 85.7583 -86.2274 83.8379 -82.7811 83.0474C-81.2706 82.6082 -79.7872 82.056 -78.3311 81.3908C-71.0107 75.711 -65.6806 79.3899 -59.1589 77.947C-58.3134 77.2629 -57.6805 76.5348 -57.0748 75.6938C-44.721 68.2633 -32.3128 61.0589 -18.3793 55.995C-9.85006 52.8199 -1.05384 49.9147 5.97228 43.852Z" fill="#FA9822"/>
<path d="M8.06944 39.4014C9.64181 39.1864 11.0278 39.0412 12.5731 38.7118C13.0242 38.0445 13.4483 37.2628 14.0858 36.5258C14.8799 34.7336 20.2103 34.1081 19.0834 31.9139C18.1186 30.4064 15.0848 32.1652 12.7939 32.7738C11.0621 33.1731 9.25209 34.1 7.78503 33.9018C5.86405 33.4998 3.91604 32.9834 1.96803 32.467C1.56818 32.4921 1.35474 32.4474 0.927852 32.3581C0.555033 32.4977 0.182211 32.6373 -0.190608 32.7769C-1.44141 33.4944 -2.87862 34.2817 -4.3699 34.84C-5.11553 35.1192 -5.70179 35.2142 -6.47446 35.3789C-7.2201 35.6581 -8.33856 36.0768 -9.1653 36.0127C-9.77859 35.9931 -10.3919 35.9736 -11.0052 35.9541C-13.2962 36.5627 -15.4007 37.1015 -17.5053 37.6404C-18.5184 37.646 -19.4505 37.995 -20.3285 38.5729C-24.9774 43.8018 -34.3632 43.5786 -38.9311 49.1509C-35.926 55.0023 -29.4428 48.0899 -23.8207 46.9815C-23.7368 48.1959 -27.8079 50.7168 -24.4199 51.317C-15.7853 50.0773 -7.82662 45.9761 0.0780428 41.6461C2.95247 40.0715 5.34594 38.1787 8.06944 39.4014Z" fill="#F89824"/>
<path d="M7.41446 34.3462C10.1028 35.3572 13.7829 33.5925 17.3298 33.0159C16.0142 34.3963 14.8867 35.7059 13.7592 37.0154C18.6224 35.9433 21.9796 33.6679 22.5675 30.0326C22.2985 29.7546 22.0295 29.4765 21.7605 29.1984C20.095 29.9519 18.5636 30.4019 17.1924 29.7801C13.8884 31.4032 10.7455 32.8393 7.41446 34.3462Z" fill="#F6A33F"/>
<path d="M39.2912 48.9169C41.9851 47.4064 45.7502 46.9949 46.4907 44.0908C43.9296 45.3014 41.3685 46.512 38.8074 47.7227C38.5418 48.3225 38.6498 48.7823 39.2912 48.9169Z" fill="#F39B33"/>
<path d="M39.4214 48.8337C39.313 48.364 39.0423 48.0832 38.9339 47.6135C38.6361 47.2152 38.5548 46.8629 38.257 46.4647C36.9578 47.0822 35.6587 47.6998 34.3866 48.4348C33.71 49.0729 33.8454 49.66 34.3327 49.9869C35.2531 50.4056 36.4712 50.3292 37.6622 50.1354C38.6366 49.8955 39.3674 49.4923 39.8545 48.9257L39.4214 48.8337Z" fill="#F89F36"/>
<path d="M-67.0271 155.325C-60.1654 152.77 -53.3259 150.962 -46.9516 151.422C-42.2978 148.088 -34.7835 148.246 -31.8405 142.839C-32.6144 142.142 -35.3515 141.683 -31.0589 140.208C-25.9973 138.569 -20.8861 136.296 -16.0323 135.474C-5.98095 133.579 2.09552 125.152 12.2877 124.683C13.9519 123.201 14.6617 121.951 12.6664 121.216C7.44163 122.176 1.97708 122.979 -3.23795 125.66C-7.25385 129.126 -12.5825 130.495 -17.3499 132.516C-18.9918 133.251 -17.278 131.135 -18.3412 130.915C-19.6171 130.651 -20.9696 130.908 -22.6659 131.416C-35.5117 136.816 -47.6875 143.32 -61.0722 147.319C-64.1162 148.945 -65.9882 151.243 -68.3671 153.114C-69.0273 153.73 -69.6332 154.571 -70.0808 155.23C-69.4652 156.11 -68.904 156.763 -67.0271 155.325Z" fill="#F79D32"/>
<path d="M12.2601 121.79C11.9064 122.951 11.716 123.921 11.3622 125.082C11.6618 125.483 11.7436 125.837 12.0433 126.238C18.524 124.693 20.0751 119.742 24.8128 116.928C28.6786 112.132 26.3632 108.382 28.0506 104.022C22.0326 104.879 21.9789 108.238 20.1277 110.99C18.7125 114.734 16.2352 118.365 12.2601 121.79Z" fill="#F6A94C"/>
<path d="M0.724861 67.7017C-1.83311 68.9098 -4.57766 70.1878 -7.10862 71.5105C-7.58728 72.0642 -7.50624 72.4082 -7.42519 72.7523C-7.15756 73.0264 -6.91696 73.1858 -6.91696 73.1858C-0.349762 74.3441 4.51796 69.1507 9.92854 67.1233C7.93283 68.9943 2.43865 69.805 3.03555 73.2004C5.86623 74.0116 8.9569 72.4791 12.1016 71.176C14.6596 69.968 17.1635 68.5306 19.4269 66.9337C22.7801 63.9302 27.3118 62.4817 31.4679 60.3005C35.2508 58.259 39.0338 56.2176 40.2781 52.8811C40.17 52.4224 39.9024 52.1483 39.6078 51.7595C39.1536 51.5553 38.913 51.3959 38.4588 51.1917C37.4179 51.0826 36.431 51.2028 35.2575 51.3929C34.1111 51.6977 32.9646 52.0025 31.8452 52.4219C21.2131 57.2793 9.80268 60.5565 0.724861 67.7017Z" fill="#F69622"/>
<path d="M40.1001 53.2536C34.6468 56.9348 29.4346 60.7766 22.5326 62.6159C20.0447 63.2993 19.3783 64.8055 19.1134 66.2865C19.5148 66.2613 19.9432 66.3515 20.3447 66.3263C27.7274 63.9297 34.8976 62.3665 41.5633 63.0022C42.5264 62.766 43.4086 62.1834 43.8624 61.5106C46.9643 59.9686 50.0932 58.542 53.0079 57.0703C49.8186 54.7519 46.7626 52.1323 40.1001 53.2536Z" fill="#F69F36"/>
<path d="M39.8801 49.0446C39.1218 49.3306 38.3636 49.6165 37.4158 49.9739C37.2805 50.2804 36.9285 50.5409 36.7931 50.8473C36.9829 51.6697 37.4975 52.1142 38.4183 52.5331L39.0952 51.8947C43.4821 50.3681 41.0718 49.7446 39.8801 49.0446Z" fill="#FBD5A9"/>
<path d="M29.1449 101.659C29.0359 101.208 28.7417 100.827 28.66 100.489C29.0792 99.7197 29.1282 99.088 28.8067 98.5939C28.3001 98.1686 27.4504 97.9935 26.47 98.1124C22.4995 99.2198 18.5345 101.184 14.4333 102.585C4.65161 107.202 -4.9994 111.525 -15.2115 115.197C-29.383 121.69 -43.8543 126.945 -58.3473 132.945C-60.7001 134.064 -62.8132 135.34 -64.2346 136.973C-64.839 137.811 -64.6755 138.487 -63.9565 138.956C-51.3692 137.591 -38.9461 131.379 -26.321 127.67C-19.2842 125.055 -12.5143 122.171 -5.4502 119.668C1.31969 116.784 8.00782 113.563 14.696 110.341C20.0117 108.12 24.4448 104.755 29.1449 101.659Z" fill="#FDAD4C"/>
<path d="M29.0449 101.999C23.711 104.509 18.404 107.135 13.2577 109.575C11.8116 111.253 10.7408 112.79 13.6646 113.077C16.2928 112.971 18.8671 112.633 21.601 111.227C23.7167 108.918 23.0155 105.905 27.6797 104.025C28.1348 103.349 28.5899 102.674 29.0449 101.999Z" fill="#E8922A"/>
<path d="M27.4245 99.6172C27.6945 99.897 27.8026 100.365 28.0997 100.762C29.9344 99.8158 31.9851 98.9156 34.0088 97.8983C34.1436 97.5931 34.2785 97.2879 34.4133 96.9827C34.3592 96.7487 34.1163 96.5859 34.0622 96.3519C33.8193 96.1891 33.6033 96.1432 33.1715 96.0516C32.5238 95.9142 31.7142 95.9651 30.9046 96.0159C30.122 96.1837 29.3935 96.5855 28.665 96.9873C27.8557 97.9284 28.0449 98.7474 27.4245 99.6172Z" fill="#F7AF57"/>
<path d="M33.9128 98.0768C34.698 99.6951 36.5385 99.6391 39.1365 98.4042C39.2712 95.418 37.7555 95.0963 33.9128 98.0768Z" fill="#F8A84A"/>
<path d="M51.9927 81.2272C50.5169 79.269 51.6342 75.3314 44.9718 77.3319C43.8212 77.6385 46.1463 75.383 46.0908 74.2731C44.5054 70.974 40.6536 72.7981 36.6145 74.6924C29.0236 81.4391 19.0442 84.9371 9.73606 89.5648C7.57128 91.6345 6.98561 93.4878 8.16632 95.0544C9.64064 96.1338 11.6213 95.8922 14.0288 94.862C22.1863 90.5409 30.5866 87.2593 39.417 84.9468C40.6485 84.9867 42.0673 84.9562 43.4591 84.8102C45.0382 84.5938 47.0189 84.3523 48.9186 83.7642C50.4168 83.2013 51.6467 82.3623 52.4482 81.433L51.9927 81.2272Z" fill="#F4931F"/>
<path d="M36.5802 75.7107C39.8671 73.9643 43.0735 72.7561 45.6613 74.1931C51.5613 70.4464 44.0696 70.8573 45.3619 68.466C44.5265 68.4 43.5294 68.5218 42.694 68.4557C39.5952 69.2425 36.7661 70.3086 34.126 72.1921C32.2679 74.7966 32.592 76.1979 36.5802 75.7107Z" fill="#F7A138"/>
<path d="M1.29139 31.2217C0.995586 30.8279 0.914652 30.4795 0.61885 30.0857C-1.95765 31.3078 -4.69507 32.7168 -7.27157 33.9389C-7.99519 35.2214 -7.61846 35.9636 -5.95347 36.0947C-4.04759 35.5038 -2.06174 34.3777 -0.0489079 33.3677L-0.0758859 33.2516C0.406849 32.6911 0.647741 31.9691 1.29139 31.2217Z" fill="#F8AC52"/>
<path d="M1.22289 31.2919C0.761325 31.9784 0.29976 32.665 -0.161803 33.3515C0.598478 33.0647 1.14153 32.7317 1.87465 32.327C1.60309 32.0451 1.33154 31.7633 1.22289 31.2919Z" fill="#FAC280"/>
<path d="M34.468 72.1309C37.2315 70.8386 40.4527 70.6364 42.5439 68.2086C42.7038 67.1386 43.7499 66.3663 44.8229 65.7101C50.3761 62.3584 46.8592 62.1669 44.1206 61.8089C43.3692 62.0916 42.6448 62.4903 42.0813 62.7024C39.2628 62.8793 36.5522 63.5205 33.5468 64.6513C30.5954 66.0143 28.5572 67.7911 27.2443 70.0522C26.5479 71.4503 26.415 72.6364 27.0874 73.7719C27.571 74.0949 28.4302 74.2765 29.2355 74.2259C31.1948 73.8674 32.9393 73.4635 34.468 72.1309Z" fill="#F6A33F"/>
<path d="M33.8403 98.0814C36.6251 96.7765 38.3017 96.9092 39.0863 98.5256C40.7626 97.7661 42.1955 96.8434 42.3033 95.5279C41.627 94.3806 40.7885 93.4219 38.3819 93.6919C36.0566 94.3137 34.2181 95.2618 33.1639 96.9341C33.4615 97.3319 33.5427 97.6837 33.8403 98.0814Z" fill="#F9BC71"/>
<path d="M39.0908 94.0676C39.5233 95.0503 40.1177 95.8447 42.0893 95.4834L42.2784 95.4121C42.7373 94.7299 43.1962 94.0476 43.4661 93.4367C44.2223 93.1516 44.9514 92.7494 45.6806 92.3472C45.4104 92.0672 45.3022 91.5987 45.5991 91.1049L44.8159 91.2728C42.358 91.3082 40.5217 92.2551 39.0908 94.0676Z" fill="#FCDBB5"/>
<path d="M43.5054 93.4614C43.2322 94.0796 42.7677 94.7698 42.3032 95.4601C42.7677 94.7698 43.2322 94.0796 43.5054 93.4614Z" fill="#FCE9D2"/>
<path d="M44.7879 89.944C46.2355 89.1473 47.4414 88.1893 47.574 87.0047C46.7424 86.9392 45.9107 86.8738 45.2397 86.6218L45.052 86.6924C43.6034 86.6069 42.2356 86.8693 40.761 87.55C38.7504 88.5585 37.196 89.7736 36.9566 91.3767C38.5143 92.8081 41.0071 91.24 43.2864 90.5088C43.8495 90.297 44.2248 90.1558 44.7879 89.944Z" fill="#F8B35F"/>
<path d="M39.1492 93.9276C40.9596 93.0003 42.7701 92.073 44.794 91.1904C44.7129 90.8469 44.8183 90.4335 44.9236 90.0202L43.9103 90.0258C40.1813 91.4223 35.9173 92.2713 32.6991 94.9721C31.902 95.8938 32.0371 96.4663 33.1315 96.8043C35.1554 95.9217 37.1523 94.9246 39.1492 93.9276Z" fill="#F8B35F"/>
<path d="M5.94109 44.113C-13.5383 53.9684 -34.3077 60.971 -53.7328 71.0532C-57.8669 73.2119 -61.8968 74.9613 -59.3573 77.9656C-56.9124 78.0419 -55.1102 77.123 -53.5253 75.2974C-48.0917 72.6542 -42.8437 70.0802 -37.813 66.5995C-31.0344 61.9732 -23.1874 58.4302 -15.0419 56.1342C-7.82453 54.1841 -1.49427 50.2189 5.45161 47.1354C8.92454 45.5936 6.95513 44.9696 5.94109 44.113Z" fill="#F08E18"/>
<path d="M0.546868 67.4059C11.2572 61.288 23.5783 58.544 34.5289 52.5848C34.9792 51.9194 35.4836 51.4822 35.988 51.0451C36.1201 50.7472 36.2521 50.4493 36.4112 50.2655C36.303 49.809 36.0086 49.422 35.2097 49.4723C34.9153 49.0854 34.8341 48.7429 34.5397 48.356C33.795 48.6345 33.2636 48.9575 32.5459 49.3502C23.6269 50.2006 16.2677 55.0652 8.55987 59.3146C7.93318 62.6554 2.29385 64.516 0.546868 67.4059Z" fill="#ED9020"/>
<path d="M8.42159 59.1635C17.2648 57.9694 24.4133 52.1834 32.5834 49.0015C31.7 47.8389 31.2132 45.7813 28.2865 47.1254C21.129 50.3017 14.0256 53.7066 7.16254 57.2704C6.28513 57.8476 7.70042 58.6868 8.42159 59.1635Z" fill="#EE8D18"/>
<path d="M-24.75 51.2063C-30.2145 54.4606 -37.5473 55.8356 -41.65 60.5446C-27.3175 55.5904 -12.6694 50.274 0.850532 42.8034C3.33244 41.3917 5.62928 40.0488 8.17162 39.7174C8.78516 36.4265 6.14546 38.0192 3.42392 39.2748C-5.79658 43.6787 -14.9625 48.3073 -24.75 51.2063Z" fill="#F08F19"/>
<path d="M0.00459586 33.4382C-2.40717 33.5897 -4.44263 34.4809 -5.88732 36.157C-3.28674 36.8157 -1.46575 35.8793 0.00459586 33.4382Z" fill="#F7A33E"/>
<path d="M34.9252 49.6694C35.0065 50.0215 35.2773 50.3023 35.3857 50.7718C36.2518 50.9556 37.0096 50.6699 37.8484 49.8432L37.6318 49.7973C36.6033 49.8023 35.7643 49.7358 34.9252 49.6694Z" fill="#F39B33"/>
<path d="M22.0537 111.233C20.072 110.596 17.424 111.465 14.8823 111.918C13.0117 113.5 11.1142 114.966 9.24368 116.547C4.1921 120.203 -2.79052 121.696 -7.01066 126.294C-7.27555 127.775 -6.579 128.141 -4.41334 126.951C1.17619 124.726 7.01178 125.297 12.679 121.661C21.1323 119.49 19.6518 114.898 22.0537 111.233Z" fill="#F49420"/>
<path d="M-6.8727 126.488C-0.644909 122.786 7.29615 121.183 12.1593 115.997C0.427191 116.154 -8.96718 121.914 -18.0372 129.049C-19.661 129.906 -21.0984 130.694 -21.3874 132.048C-20.5606 132.112 -19.7338 132.177 -18.7205 132.171C-13.7624 131.685 -9.9554 129.761 -6.8727 126.488Z" fill="#E8922A"/>
<path d="M12.0317 69.4921C9.24175 70.5345 6.56376 72.8991 3.55355 72.1638C-1.55678 71.965 -6.41255 75.3913 -11.4109 76.5148C-18.0833 78.2638 -23.656 82.082 -29.9256 84.6725C-32.5964 88.7705 -27.4662 87.3498 -25.0952 87.952C-14.1378 86.3381 -4.12832 80.7382 6.01657 75.7077C8.8029 73.7986 13.1621 72.5419 12.0317 69.4921Z" fill="#F7951F"/>
<path d="M11.7317 69.9318C10.5562 72.7666 7.01848 73.3412 4.3401 74.978C1.90448 77.657 2.76382 78.7192 6.48909 78.0741C9.43719 77.5952 12.7322 75.9785 15.3873 76.8692C18.5782 77.4325 22.2238 77.3211 23.6395 73.7663C24.6544 71.1178 27.8722 71.7969 29.1029 70.0748C29.8775 68.1463 32.1808 66.6506 33.8405 65.019C30.7525 61.3945 24.5659 65.4839 19.6344 66.2047C17.0627 67.4236 14.3034 68.713 11.7317 69.9318Z" fill="#F3921E"/>
<path d="M-11.6536 76.4014C-6.60784 76.3709 -1.59854 74.5047 3.27491 72.0727C7.16169 68.8986 12.9449 67.7304 17.171 63.4436C8.41923 65.7177 1.73166 71.538 -6.33696 72.448C-8.0564 73.705 -9.74867 75.0752 -11.6536 76.4014Z" fill="#F2901B"/>
<path d="M37.9129 49.8745C37.1465 50.1633 36.3801 50.4521 35.3946 50.6945L35.6686 50.9782C35.1761 51.5507 35.231 51.788 35.4774 51.9531C35.7239 52.1181 35.943 52.1645 36.1346 52.0923C36.9833 52.1594 37.832 52.2265 38.5166 52.4844C38.2971 51.5354 38.105 50.7049 37.9129 49.8745Z" fill="#F9BB71"/>
<path d="M36.1822 52.0418C36.1006 51.6882 35.8018 51.2885 35.7203 50.935C34.5797 51.3653 34.118 52.0518 34.3083 52.8768C35.0415 52.4721 35.6118 52.2569 36.1822 52.0418Z" fill="#FAC585"/>
<path d="M19.3163 66.289C24.0964 65.8721 28.8764 65.4551 33.4697 65.1082C36.4898 65.8516 39.2086 63.5812 41.9835 62.4155C35.5652 59.3195 27.479 62.102 19.3163 66.289Z" fill="#F69622"/>
<path d="M-14.5241 116.347C-3.4082 112.812 7.06136 107.408 17.426 102.415C17.9235 100.242 15.9237 99.5001 14.269 98.5045C12.4282 97.5785 10.3742 96.608 7.60966 97.7657C-6.08129 103.257 -21.1156 105.649 -33.0335 115.196C-34.9386 118.267 -42.1461 120.341 -40.4543 124.054C-35.4462 124.666 -30.8002 121.19 -26.0933 119.679C-22.3441 118.401 -18.5711 116.37 -14.5241 116.347Z" fill="#FAA644"/>
<path d="M-16.6766 126.717C-17.3952 127.111 -17.9545 127.32 -18.6731 127.714C-18.3786 128.102 -18.2975 128.445 -18.0029 128.834C-8.09886 124.378 1.48083 118.548 12.1902 115.784C13.8922 114.399 14.7944 113.065 14.8698 111.666C12.1249 112.071 14.1186 110.203 13.7159 109.357C6.42162 112.836 -0.686266 116.245 -7.98056 119.724C-9.97141 122.462 -14.9803 123.59 -16.6766 126.717Z" fill="#F09C3A"/>
<path d="M13.0008 100.624C14.2059 101.426 15.5982 102.157 16.8034 102.958C20.4656 102.085 23.725 100.36 26.9033 98.2887C27.7326 98.3536 28.2938 98.1429 28.56 97.5413C29.4683 97.0749 30.1896 96.6786 30.9379 96.3977C31.5531 96.4176 32.1143 96.2069 32.5946 95.6503C36.4151 93.7143 40.2356 91.7783 44.0292 89.727C42.0218 88.9758 39.9658 90.6256 38.0951 91.3279C33.6288 91.3745 28.443 92.6945 24.6692 91.3524C21.9423 91.8746 19.5643 93.0182 17.4814 94.5526C15.2923 96.5031 11.2307 98.2788 13.0008 100.624Z" fill="#F49828"/>
<path d="M28.7146 97.6875C28.143 97.903 27.5714 98.1186 27.0543 98.5703C27.1361 98.9245 27.2178 99.2787 27.4901 99.5611C27.9527 98.8733 28.4153 98.1854 28.7146 97.6875Z" fill="#F9BE78"/>
<path d="M32.6494 95.8519C32.0824 96.0657 31.5155 96.2794 30.9756 96.6102C31.8126 96.6764 32.4337 96.6968 33.2707 96.7631C33.1896 96.4119 32.9195 96.1319 32.6494 95.8519Z" fill="#FAC280"/>
<path d="M13.4161 99.8848C13.7241 97.7953 17.9432 96.8397 18.2512 94.7502C18.6406 93.0006 18.5275 91.6852 15.1096 93.4529C13.4663 94.1888 11.7958 94.8115 10.4377 94.2069C0.0889725 96.5834 -10.0652 100.615 -20.4367 103.741C-21.5503 104.156 -22.664 104.571 -23.7505 105.099C-29.2827 109.013 -36.4716 111.075 -41.4968 115.417C-42.5517 116.921 -42.3344 117.827 -41.3476 118.57C-39.1385 119.351 -36.4857 118.609 -33.8916 116.778C-21.9037 107.743 -7.0642 105.544 5.97383 99.2032C10.1614 97.272 10.4962 100.356 13.4161 99.8848Z" fill="#F09C3B"/>
<path d="M-21.2169 104.803C-10.5482 102.429 0.0395882 99.7071 10.3282 93.9482C9.41479 92.6538 10.2707 91.0721 10.7244 89.5156C10.7207 86.8711 7.55728 87.3048 4.87571 87.1793C3.88376 87.3004 2.91878 87.5373 1.92682 87.6583C-1.90612 88.7217 -5.55145 89.7146 -9.38439 90.778C-15.7371 92.411 -16.2435 94.6173 -13.8268 97.1102C-12.1593 100.767 -20.5241 101.645 -21.2169 104.803Z" fill="#FEAC4A"/>
<path d="M4.23529 88.3528C6.16176 88.7581 8.11521 89.2787 10.0687 89.7993C20.1722 86.8839 29.8188 82.886 37.0244 75.4155C35.258 74.8247 34.6141 73.8124 35.2256 72.078C33.6481 72.2941 32.2847 72.5551 30.7072 72.7712C28.4678 76.2454 24.5393 77.7202 20.4238 79.2654C14.4376 81.5128 7.96938 83.4396 4.23529 88.3528Z" fill="#F69724"/>
<path d="M14.6366 93.8317C16.5781 93.4783 17.1668 94.2508 17.7826 95.1372C20.3329 93.936 23.0692 92.6653 25.6194 91.4642C32.0057 91.0625 37.2922 88.5907 41.2389 83.8903C40.9716 83.618 40.437 83.0735 40.251 83.143C31.3993 85.9547 22.1178 87.8105 14.6366 93.8317Z" fill="#ED8D1A"/>
<path d="M41.2934 84.0401C35.9956 86.6595 30.8581 89.0928 25.5603 91.7121C25.5093 93.2398 23.5055 96.004 28.2698 94.5908C31.5085 93.6252 34.6947 93.3079 37.9048 91.3474C38.1971 89.9805 39.6418 89.1862 41.2739 88.3215C41.9678 86.9294 43.8666 85.4616 43.9176 83.934C42.927 84.0548 42.0967 83.9897 41.2934 84.0401Z" fill="#F69F37"/>
<path d="M43.703 84.0685C41.5806 85.5001 39.8884 87.0228 41.0456 88.4846C42.3353 87.8725 43.6251 87.2604 44.9148 86.6483C45.1824 85.156 46.8214 84.2859 48.4334 83.2994C47.0619 82.6773 45.4229 83.5474 43.703 84.0685Z" fill="#FBD3A4"/>
<path d="M4.39409 87.9165C10.8228 85.1424 16.9806 81.2294 24.0792 79.5692C28.8375 78.2874 31.7015 75.8531 30.703 72.5059C29.959 72.7838 29.4281 73.1062 28.6841 73.3842C25.1971 73.199 23.3479 76.4941 20.2907 77.2644C17.6326 78.0096 14.8697 79.1659 14.4869 76.7047C4.44299 80.4575 -6.54527 81.0908 -15.2692 88.6909C-16.2769 89.5634 -17.4976 90.3916 -18.2922 91.3085C-18.6769 94.8006 -14.6968 91.9493 -12.7014 91.8238C-7.78064 91.2253 -2.46795 88.8683 2.37519 88.7948C3.11918 88.5168 3.65009 88.1945 4.39409 87.9165Z" fill="#F59522"/>
<path d="M15.4274 76.9529C16.5547 77.4115 10.7637 80.5988 16.4501 79.5947C21.5465 78.6865 24.7624 75.8374 28.5155 73.5428C28.6752 72.4739 29.0225 71.3343 29.1822 70.2654C24.1117 70.4072 24.7288 70.4273 21.6489 74.7386C19.8009 77.3254 17.8676 76.0349 16.7661 74.8098C14.4596 75.4253 14.4338 76.1917 15.4274 76.9529Z" fill="#F69724"/>
<path d="M45.1231 86.6732C45.475 87.306 46.3137 87.3724 47.4771 87.0614C46.6112 86.8775 45.9619 86.7396 45.1231 86.6732Z" fill="#FCE8CE"/>
<path d="M15.743 76.488C16.193 75.8232 16.643 75.1584 17.093 74.4935C14.4537 73.6179 11.5845 75.1871 8.60689 76.3003C5.6564 77.5274 3.92397 77.0577 4.79353 74.7462C-4.6636 80.1439 -14.899 83.9702 -25.1615 87.6825L-25.3476 87.7521C-26.1934 89.3098 -26.0818 90.6337 -24.8535 91.5402C-23.0669 92.238 -21.4123 93.2334 -18.4111 91.3665C-14.7974 89.519 -11.2615 88.1972 -8.20955 85.6906C-5.68879 83.5067 -1.78413 81.178 0.987067 81.756C6.87458 82.6588 11.0668 78.981 15.743 76.488Z" fill="#F2901B"/>
<path d="M-25.9344 99.6091C-20.9703 99.1224 -15.9298 97.2328 -11.1031 95.2985C-11.8792 94.59 -13.6944 94.6458 -13.5125 92.8285C-8.15031 91.4431 -2.62612 90.7464 2.76066 88.6021C-3.46337 87.1874 -11.54 91.7143 -18.081 91.5428C-19.7365 91.4138 -21.392 91.2849 -23.0475 91.1559C-26.7002 92.9 -31.4482 94.3051 -32.4532 97.8051C-33.6178 101.49 -26.5016 97.1981 -25.9344 99.6091Z" fill="#FCA843"/>
</g>
</svg>
