<svg width="90" height="90" viewBox="0 0 90 90" fill="none" xmlns="http://www.w3.org/2000/svg">
<path d="M24.2602 50.3453C23.7749 50.3453 23.3005 50.2014 22.897 49.9317C22.4935 49.6621 22.179 49.2789 21.9933 48.8305C21.8077 48.3821 21.7591 47.8888 21.8538 47.4128C21.9486 46.9369 22.1823 46.4997 22.5255 46.1566C22.8687 45.8135 23.306 45.5799 23.782 45.4853C24.258 45.3907 24.7513 45.4394 25.1996 45.6252C25.6479 45.811 26.0311 46.1256 26.3006 46.5292C26.5701 46.9328 26.7138 47.4072 26.7137 47.8925C26.7131 48.543 26.4543 49.1666 25.9943 49.6265C25.5343 50.0863 24.9106 50.3449 24.2602 50.3453ZM24.2602 46.9821C24.0801 46.9821 23.9041 47.0355 23.7544 47.1355C23.6046 47.2356 23.4879 47.3778 23.419 47.5441C23.3501 47.7105 23.3321 47.8935 23.3672 48.0701C23.4024 48.2467 23.4891 48.409 23.6164 48.5363C23.7437 48.6636 23.9059 48.7503 24.0825 48.7855C24.2591 48.8206 24.4422 48.8026 24.6086 48.7336C24.7749 48.6647 24.9171 48.548 25.0171 48.3983C25.1172 48.2486 25.1706 48.0726 25.1706 47.8925C25.1704 47.6511 25.0744 47.4197 24.9037 47.249C24.733 47.0783 24.5016 46.9823 24.2602 46.9821Z" fill="white"/>
<path d="M45.3632 69.8893C44.4551 69.8895 43.5528 69.7441 42.6906 69.4588L29.5049 65.1073C29.3508 65.0563 29.2166 64.958 29.1216 64.8264C29.0266 64.6948 28.9755 64.5366 28.9756 64.3743V45.3171C28.9754 45.1175 29.0527 44.9255 29.1911 44.7817C29.3295 44.6378 29.5183 44.5531 29.7178 44.5456C31.9547 44.4785 34.1767 44.9307 36.2096 45.8664L38.5806 46.9466L48.7364 47.982C49.5871 48.0384 50.3845 48.4163 50.9668 49.039C51.549 49.6617 51.8727 50.4826 51.872 51.3352C51.8723 51.5652 51.8495 51.7948 51.8041 52.0203L66.6949 46.5809C67.432 46.1564 68.2972 46.0116 69.1323 46.1729C69.9674 46.3343 70.7165 46.7909 71.2424 47.4594C71.7684 48.1278 72.036 48.9633 71.9963 49.8129C71.9566 50.6625 71.6123 51.4694 71.0264 52.0859C70.9999 52.1136 70.9716 52.1393 70.9415 52.163L50.5982 68.0808C49.1045 69.2521 47.2613 69.8888 45.3632 69.8893ZM30.5187 63.8165L43.172 67.9936C44.2601 68.3544 45.4205 68.4402 46.5497 68.2433C47.679 68.0465 48.7419 67.5732 49.6438 66.8656L69.9454 50.9864C70.2843 50.6141 70.4695 50.1272 70.4636 49.6238C70.4577 49.1204 70.2613 48.638 69.9138 48.2737C69.6029 47.9387 69.1852 47.7223 68.7322 47.6615C68.2793 47.6007 67.8192 47.6993 67.431 47.9404C67.388 47.9667 67.3425 47.9886 67.2952 48.0059L50.2556 54.2308C49.8647 54.4648 49.4307 54.6181 48.9795 54.6814C48.9242 54.6909 48.868 54.694 48.812 54.6906L40.2525 55.0417H40.2216C40.1203 55.0437 40.0196 55.0257 39.9252 54.9888C39.8308 54.9519 39.7446 54.8968 39.6716 54.8266C39.5985 54.7564 39.5399 54.6725 39.4993 54.5796C39.4587 54.4868 39.4367 54.3869 39.4347 54.2856C39.4326 54.1842 39.4506 54.0835 39.4875 53.9891C39.5244 53.8947 39.5795 53.8085 39.6497 53.7355C39.7199 53.6624 39.8039 53.6039 39.8967 53.5632C39.9895 53.5226 40.0895 53.5006 40.1908 53.4986L48.7086 53.1545L49.5959 52.8296C49.8268 52.6551 50.0138 52.4291 50.1421 52.1697C50.2704 51.9103 50.3364 51.6246 50.3351 51.3352C50.3338 50.8708 50.1553 50.4244 49.8359 50.0872C49.5166 49.7501 49.0805 49.5476 48.6168 49.5213L38.2982 48.4673C38.2144 48.4587 38.1326 48.4366 38.0559 48.4017L35.57 47.2683C33.9821 46.54 32.2648 46.136 30.5187 46.0802V63.8165Z" fill="white"/>
<path d="M28.1451 68.7589H20.3756C19.7459 68.7583 19.1421 68.5079 18.6967 68.0627C18.2514 67.6175 18.0008 67.0138 18 66.3841V44.8264C18.0004 44.1963 18.2508 43.5921 18.6962 43.1465C19.1415 42.7008 19.7455 42.45 20.3756 42.4492H28.1451C28.7751 42.4498 29.3792 42.7004 29.8247 43.1459C30.2702 43.5914 30.5208 44.1955 30.5214 44.8256V66.3841C30.5206 67.014 30.2699 67.6178 29.8244 68.063C29.3789 68.5082 28.7749 68.7585 28.1451 68.7589ZM20.3756 43.9923C20.2662 43.9924 20.1578 44.0141 20.0568 44.056C19.9557 44.098 19.8639 44.1595 19.7866 44.2369C19.7093 44.3144 19.648 44.4063 19.6062 44.5074C19.5644 44.6085 19.543 44.7169 19.5431 44.8264V66.3841C19.5435 66.6047 19.6314 66.8161 19.7874 66.9721C19.9435 67.128 20.155 67.2156 20.3756 67.2158H28.1451C28.3659 67.2156 28.5776 67.1279 28.7338 66.9718C28.89 66.8158 28.9779 66.6041 28.9783 66.3833V44.8264C28.9781 44.6054 28.8903 44.3936 28.734 44.2374C28.5778 44.0811 28.366 43.9933 28.1451 43.9931L20.3756 43.9923Z" fill="white"/>
<path d="M64.2929 43.9925H60.6612C60.4566 43.9925 60.2603 43.9112 60.1156 43.7665C59.9709 43.6218 59.8896 43.4256 59.8896 43.221V28.3687C59.8896 28.1641 59.9709 27.9678 60.1156 27.8231C60.2603 27.6785 60.4566 27.5972 60.6612 27.5972H64.2929C64.4975 27.5972 64.6937 27.6785 64.8384 27.8231C64.9831 27.9678 65.0644 28.1641 65.0644 28.3687V43.221C65.0644 43.4256 64.9831 43.6218 64.8384 43.7665C64.6937 43.9112 64.4975 43.9925 64.2929 43.9925ZM61.4327 42.4494H63.5213V29.1403H61.4327V42.4494Z" fill="white"/>
<path d="M58.1975 43.9922H54.5635C54.3589 43.9922 54.1627 43.9109 54.018 43.7662C53.8733 43.6215 53.792 43.4253 53.792 43.2207V32.1297C53.792 31.9251 53.8733 31.7288 54.018 31.5841C54.1627 31.4394 54.3589 31.3582 54.5635 31.3582H58.1975C58.4021 31.3582 58.5984 31.4394 58.7431 31.5841C58.8878 31.7288 58.9691 31.9251 58.9691 32.1297V43.2207C58.9691 43.4253 58.8878 43.6215 58.7431 43.7662C58.5984 43.9109 58.4021 43.9922 58.1975 43.9922ZM55.3374 42.4491H57.426V32.9012H55.3351L55.3374 42.4491Z" fill="white"/>
<path d="M52.0971 43.9922H48.4654C48.2608 43.9922 48.0645 43.9109 47.9198 43.7662C47.7751 43.6215 47.6938 43.4253 47.6938 43.2206V26.1649C47.6938 25.9602 47.7751 25.764 47.9198 25.6193C48.0645 25.4746 48.2608 25.3933 48.4654 25.3933H52.0971C52.3017 25.3933 52.4979 25.4746 52.6426 25.6193C52.7873 25.764 52.8686 25.9602 52.8686 26.1649V43.2206C52.8686 43.4253 52.7873 43.6215 52.6426 43.7662C52.4979 43.9109 52.3017 43.9922 52.0971 43.9922ZM49.2369 42.4491H51.3255V26.9364H49.2369V42.4491Z" fill="white"/>
<path d="M45.9986 43.9923H42.3677C42.1631 43.9923 41.9669 43.9111 41.8222 43.7664C41.6775 43.6217 41.5962 43.4254 41.5962 43.2208V30.5867C41.5962 30.3821 41.6775 30.1859 41.8222 30.0412C41.9669 29.8965 42.1631 29.8152 42.3677 29.8152H45.9986C46.2033 29.8152 46.3995 29.8965 46.5442 30.0412C46.6889 30.1859 46.7702 30.3821 46.7702 30.5867V43.2208C46.7702 43.4254 46.6889 43.6217 46.5442 43.7664C46.3995 43.9111 46.2033 43.9923 45.9986 43.9923ZM43.1393 42.4493H45.2271V31.3583H43.1393V42.4493Z" fill="white"/>
<path d="M67.0021 43.9923H39.6592C39.4546 43.9923 39.2584 43.911 39.1137 43.7663C38.969 43.6216 38.8877 43.4254 38.8877 43.2208C38.8877 43.0161 38.969 42.8199 39.1137 42.6752C39.2584 42.5305 39.4546 42.4492 39.6592 42.4492H67.0021C67.2067 42.4492 67.4029 42.5305 67.5476 42.6752C67.6923 42.8199 67.7736 43.0161 67.7736 43.2208C67.7736 43.4254 67.6923 43.6216 67.5476 43.7663C67.4029 43.911 67.2067 43.9923 67.0021 43.9923Z" fill="white"/>
<path d="M56.3792 26.3438C56.2236 26.3438 56.0716 26.2967 55.9432 26.2088L50.2739 22.3225L44.6092 26.0707C44.525 26.1329 44.4289 26.1773 44.3269 26.2012C44.2249 26.2251 44.1192 26.228 44.016 26.2097C43.9129 26.1914 43.8146 26.1522 43.7271 26.0947C43.6395 26.0371 43.5647 25.9624 43.507 25.875C43.4493 25.7875 43.41 25.6893 43.3915 25.5862C43.373 25.4831 43.3757 25.3773 43.3994 25.2753C43.4232 25.1732 43.4674 25.0771 43.5295 24.9927C43.5916 24.9084 43.6702 24.8375 43.7605 24.7845L49.8557 20.7486C49.9838 20.6639 50.1342 20.6193 50.2877 20.6205C50.4412 20.6217 50.5909 20.6687 50.7176 20.7555L56.4177 24.6634L63.3617 20.7223C63.4499 20.6687 63.5481 20.6333 63.6503 20.6183C63.7524 20.6033 63.8566 20.6089 63.9566 20.6349C64.0565 20.6609 64.1503 20.7067 64.2322 20.7696C64.3141 20.8325 64.3826 20.9113 64.4336 21.0011C64.4845 21.091 64.5169 21.1901 64.5288 21.2927C64.5407 21.3953 64.5319 21.4993 64.5029 21.5984C64.4738 21.6975 64.4252 21.7898 64.3599 21.8698C64.2945 21.9498 64.2138 22.0159 64.1224 22.0641L56.7595 26.2474C56.6432 26.3118 56.5121 26.345 56.3792 26.3438Z" fill="white"/>
<path d="M63.1228 24.8155C63.0064 24.8156 62.8915 24.7893 62.7867 24.7387C62.6819 24.6881 62.5899 24.6144 62.5176 24.5232C62.4454 24.432 62.3946 24.3256 62.3693 24.212C62.344 24.0984 62.3446 23.9806 62.3713 23.8673L62.8172 21.9677L60.9169 21.521C60.7193 21.4727 60.5488 21.3483 60.4425 21.175C60.3361 21.0016 60.3026 20.7933 60.349 20.5952C60.3955 20.3972 60.5183 20.2256 60.6907 20.1176C60.8631 20.0097 61.0711 19.9742 61.2695 20.0188L63.9213 20.6415C64.1202 20.6882 64.2924 20.812 64.4001 20.9855C64.5079 21.1591 64.5424 21.3683 64.4961 21.5673L63.8735 24.2183C63.8341 24.388 63.7385 24.5394 63.6022 24.6478C63.4659 24.7562 63.2969 24.8153 63.1228 24.8155Z" fill="white"/>
<path d="M76.1127 13.8873C80.1985 17.9731 83.4395 22.8236 85.6507 28.1619C87.8619 33.5002 89 39.2218 89 45C89 50.7782 87.8619 56.4997 85.6507 61.8381C83.4395 67.1764 80.1985 72.0269 76.1127 76.1127C72.0269 80.1985 67.1764 83.4395 61.8381 85.6507C56.4997 87.8619 50.7782 89 45 89C39.2218 89 33.5003 87.8619 28.1619 85.6507C22.8236 83.4395 17.9731 80.1985 13.8873 76.1127C9.80153 72.0269 6.56051 67.1764 4.3493 61.8381C2.13809 56.4997 1 50.7782 1 45C1 39.2218 2.13809 33.5003 4.3493 28.1619C6.56051 22.8236 9.80152 17.9731 13.8873 13.8873C17.9731 9.80152 22.8236 6.56051 28.1619 4.3493C33.5003 2.13809 39.2218 1 45 1C50.7782 1 56.4997 2.13809 61.8381 4.3493C67.1764 6.56051 72.0269 9.80152 76.1127 13.8873L76.1127 13.8873Z" stroke="white" stroke-width="2"/>
</svg>
