<svg width="194" height="2200" viewBox="0 0 194 2200" fill="none" xmlns="http://www.w3.org/2000/svg">
<g opacity="0.8">
<path d="M137.56 86.4354C138.525 80.4047 142.755 77.7988 150.344 78.3397C154.187 78.146 155.665 75.7911 157.142 73.4363C158.762 70.6647 161.516 69.7631 166.3 72.6455C169.423 75.8365 170.883 79.9865 175.716 82.0796C176.852 83.2991 177.323 84.5119 177.13 85.718C176.891 86.4126 176.273 86.9175 175.513 87.1886C164.746 86.1976 157.003 89.9763 148.503 92.7252C147.885 93.2301 146.935 93.4064 145.844 93.349C142.952 92.7159 140.584 91.2052 138.407 89.1389C137.651 88.109 137.273 87.2689 137.56 86.4354Z" fill="#F8AF5A"/>
<path d="M168.392 198.055C166.815 196.321 165.237 194.586 163.66 192.852C161.944 190.89 158.923 188.913 160.377 186.626C161.031 186.001 161.639 185.51 162.758 185.433C164.995 185.277 167.743 185.534 169.881 186.913C181.22 194.45 193.451 200.054 205.683 205.658C210.381 207.834 211.209 210.464 206.313 211.357C199.14 210.644 193.01 205.696 188.684 203.705C184.964 201.856 185.515 204.031 185.659 202.993C185.706 202.858 185.892 202.951 186.078 203.043C190.45 204.899 195.011 206.216 197.93 210.359C198.205 211.447 197.784 212.029 196.804 212.335C189.306 211.301 182.429 206.616 175.219 203.508C172.801 202.306 170.666 200.294 168.392 198.055Z" fill="#F4A13E"/>
<path d="M203.913 256.022C206.998 264.674 217.002 266.638 223.454 271.899C215.955 272.13 196.203 262.476 191.432 256.151C189.071 252.921 190.055 251.353 193.684 252.206C197.266 253.194 200.612 254.857 203.913 256.022Z" fill="#F9AF5A"/>
<path d="M190.241 244.519C182.323 242.802 175.91 237.392 168.84 233.242C164.654 230.843 160.239 227.22 161.649 224.432C163.48 221.059 168.029 226.176 171.381 227.209C178.692 229.417 183.566 234.854 189.236 239.26C191.14 241.317 191.832 243.089 190.241 244.519Z" fill="#FCC079"/>
<path d="M146.867 174.721C143.92 172.266 138.685 170.627 140.125 166.445C144.517 162.758 135.525 159.077 135.678 155.394C135.918 154.697 136.348 154.095 136.921 153.728C138.923 153.095 141.162 153.071 143.543 153.282C145.637 153.676 147.492 154.767 148.965 156.321C149.582 157.12 149.96 157.963 150.339 158.806C150.812 160.024 151.047 161.285 151.52 162.502C150.935 167.44 152.349 173.05 150.384 177.461C148.718 177.118 147.53 176.033 146.867 174.721Z" fill="#F9B768"/>
<path d="M182.466 218.499C179.184 217.181 179.243 213.191 175.63 212.191C174.412 211.261 173.382 210.425 172.164 209.495C168.986 204.692 171.571 203.572 175.657 203.202C183.117 205.16 189.866 209.174 196.757 212.777C197.13 213.606 197.081 214.385 196.657 214.977C193.315 217.648 187.419 211.166 183.984 213.47C182.291 214.553 185.098 217.884 182.466 218.499Z" fill="#FAAA4D"/>
<path d="M124.916 128.096C120.153 121.123 123.319 117.787 128.061 115.075C131.123 114.639 133.894 115.696 136.518 117.828C138.374 120.888 134.927 122.443 136.974 125.599C140.776 134.059 129.884 129.924 127.818 133.318C123.087 132.1 126.155 129.699 124.916 128.096Z" fill="#F7AB4F"/>
<path d="M200.288 70.0265C200.145 70.439 199.956 70.989 199.813 71.4014C202.298 74.4164 206.291 76.2511 208.823 79.1286C209.948 80.336 210.415 81.5366 210.224 82.7304C209.987 83.4179 209.561 84.0114 208.761 84.4171C206.548 85.0843 204.103 84.5074 201.661 83.2865C200.721 82.817 199.782 82.3474 198.89 81.7403C197.95 81.2708 197.058 80.6637 196.166 80.0567C193.819 78.5608 191.471 77.065 189.736 75.0695C188.565 73.3558 188.053 71.6488 189.702 70.6999C192.108 68.1949 194.936 66.3842 200.288 70.0265Z" fill="#F7AD53"/>
<path d="M189.968 71.302C190.012 72.4577 190.103 73.4754 190.147 74.6311C190.523 75.4668 190.662 76.3462 190.613 77.1313C190.375 77.8221 189.76 78.3243 189.145 78.8264C186.922 80.1441 184.183 80.3937 180.787 79.3427C177.627 78.2478 174.893 76.5565 172.634 74.1306C168.506 64.2917 177.371 68.0783 182.847 68.2261C185.586 67.9765 187.706 69.523 189.968 71.302Z" fill="#FAC687"/>
<path d="M189.497 240.736C192.579 240.679 195.93 243.621 198.828 242.835C199.763 242.664 200.836 242.721 202.002 243.142C205.266 244.449 208.294 246.434 210.666 249.048C211.735 250.376 212.151 251.698 211.679 253.054C210.464 253.404 209.295 253.619 208.08 253.968C202.163 250.227 196.2 246.62 189.858 244.099C189.816 242.964 189.539 241.871 189.497 240.736Z" fill="#FCC787"/>
<path d="M136.768 117.837C134.022 117.439 131.183 116.668 128.488 114.832C126.463 110.405 130.449 107.848 128.424 103.422C129.039 103.567 129.37 103.895 129.7 104.223C132.968 104.395 135.806 105.815 138.262 108.344C138.964 111.459 139.24 114.523 140.557 117.783C139.608 118.608 138.471 118.689 136.768 117.837Z" fill="#FAC788"/>
<path d="M137.536 155.371C136.266 154.575 134.949 153.916 133.491 153.026C131.704 151.809 129.729 150.499 127.942 149.282C127.054 146.738 128 145.273 130.498 145.068C131.534 145.263 132.522 145.596 133.416 146.204C134.309 146.812 134.919 147.602 135.53 148.392C135.67 148.624 135.999 148.95 136.281 149.413C136.984 150.573 137.687 151.732 138.155 152.935C138.248 153.305 138.342 153.674 138.247 153.95C138.057 154.501 137.678 154.958 137.536 155.371Z" fill="#FCE4C6"/>
<path d="M125.469 140.242C122.984 138.518 122.238 136.858 123.276 135.124C123.981 134.994 124.827 135.094 125.765 135.563C127.781 136.731 129.703 138.174 131.39 139.66C132.889 141.053 133.918 142.532 134.242 144.142C134.148 144.416 134.005 144.828 133.911 145.102C133.158 145.37 132.313 145.269 131.375 144.801C128.606 143.9 126.779 142.183 125.469 140.242Z" fill="#FCE8CE"/>
<path d="M146.888 90.935C146.938 90.1642 146.614 89.2078 147.037 88.6226C148.962 85.6036 158.975 92.0203 157.089 84.2407C162.874 85.2115 168.152 84.498 174.074 86.3325C177.108 86.4111 179.484 87.753 181.716 90.1369C187.244 97.5027 195.306 101.357 203.415 105.076C217.583 111.493 229.406 120.879 240.337 131.571C234.114 135.632 229.808 126.01 224.95 126.774C226.299 127.923 229.426 128.366 231.66 130.114C234.593 132.37 237.153 134.44 234.204 136.631C231.538 138.008 228.315 138.472 224.396 137.794C220.48 136.48 216.65 136.801 212.64 135.759C204.854 132.997 198.059 127.387 190.554 124.446C187.991 123.011 185.71 121.398 183.523 119.514C180.08 116.209 175.751 112.94 175.347 108.444C169.68 100.849 162.649 95.9174 153.221 95.3603C152.195 95.1676 151.168 94.9748 150.236 94.5109C148.606 93.5402 147.49 92.3482 146.888 90.935Z" fill="#F6941E"/>
<path d="M181.965 90.4475C179.468 88.9009 176.787 87.2628 174.29 85.7162C174.664 85.2749 174.805 84.8754 175.178 84.4341C176.806 83.5177 178.986 83.4999 181.348 84.1977C193.598 91.9726 206.226 98.682 218.712 105.791C222.318 107.886 225.74 109.89 229.582 111.32C239.346 115.675 249.436 119.723 258.965 124.744C264.98 127.404 271.463 129.357 275.794 134.939C278.695 139.032 285.178 140.984 287.148 145.868C286.479 149.605 282.822 148.267 279.444 146.755C276.113 145.109 273.065 142.663 269.546 141.55C268.018 140.952 266.538 140.22 265.105 139.355C258.277 132.227 252.041 136.341 245.373 134.298C244.589 133.441 244.037 132.542 243.532 131.511C231.661 122.046 219.696 112.848 205.77 106.123C197.258 101.916 188.419 98.0175 181.965 90.4475Z" fill="#FA9822"/>
<path d="M180.466 85.0429C178.837 84.7084 177.394 84.4663 175.812 83.9969C175.442 83.1798 175.12 82.2279 174.565 81.3184C174.014 79.1446 168.475 78.1338 170.022 75.5772C171.287 73.8303 174.213 76.0761 176.539 76.9152C178.307 77.477 180.072 78.6711 181.657 78.5083C183.755 78.1256 185.9 77.6079 188.045 77.0902C188.464 77.1401 188.697 77.0975 189.163 77.0125C189.535 77.1973 189.907 77.3821 190.279 77.567C191.487 78.4838 192.88 79.493 194.368 80.2323C195.112 80.6019 195.717 80.7442 196.508 80.979C197.252 81.3486 198.368 81.9031 199.253 81.8679C199.905 81.8753 200.557 81.8827 201.21 81.89C203.536 82.7291 205.676 83.4758 207.816 84.2225C208.887 84.2797 209.817 84.7418 210.652 85.4737C214.726 91.9322 224.695 92.135 228.627 98.9983C224.5 105.816 218.758 97.2612 212.987 95.6607C212.702 97.1026 216.602 100.308 212.92 100.853C203.983 98.946 196.224 93.6653 188.56 88.1146C185.773 86.0962 183.546 83.7229 180.466 85.0429Z" fill="#F89824"/>
<path d="M181.977 79.056C178.968 80.1258 175.36 77.8407 171.699 76.9771C172.868 78.6864 173.85 80.3021 174.831 81.9178C169.858 80.3984 166.673 77.5214 166.639 73.1632C166.969 72.8455 167.299 72.5279 167.628 72.2102C169.269 73.1905 170.817 73.8028 172.368 73.1308C175.602 75.2285 178.696 77.0954 181.977 79.056Z" fill="#F6A33F"/>
<path d="M145.886 94.8158C143.28 92.8826 139.362 92.2047 139.048 88.7097C141.562 90.279 144.077 91.8484 146.591 93.4178C146.775 94.1454 146.586 94.6874 145.886 94.8158Z" fill="#F39B33"/>
<path d="M145.761 94.7098C145.952 94.1559 146.284 93.8351 146.475 93.2812C146.854 92.8218 146.997 92.4064 147.377 91.947C148.652 92.7472 149.927 93.5475 151.154 94.4862C151.767 95.2797 151.528 95.9721 150.96 96.337C149.918 96.7897 148.641 96.6379 147.412 96.3476C146.42 96.0134 145.712 95.4968 145.288 94.7977L145.761 94.7098Z" fill="#F89F36"/>
<path d="M195.405 213.043C195.779 212.597 195.921 212.193 196.295 211.747C196.483 211.209 196.81 210.897 196.999 210.359C204.629 210.987 211.394 217.821 219.116 218.81C226.607 219.211 234.092 220.874 241.423 226.092C248.38 231.757 255.528 236.254 264.505 237.392C269.948 238.04 276.172 240.814 280.806 245.642C278.558 248.949 284.128 252.346 284.719 255.641C280.891 258.48 276.485 254.871 272.26 252.616C270.959 251.97 270.261 252.097 271.561 252.743C271.933 252.927 272.069 253.784 272.066 254.415C269.41 255.15 266.801 255.751 268.787 259.422C268.089 259.549 267.066 259.357 266.09 259.031C255.362 253.548 247.207 245.076 237.977 237.809C235.101 235.434 232.226 233.059 228.694 231.937C227.022 231.107 225.397 230.143 222.38 228.171C225.721 230.462 227.671 231.745 228.5 233.736C228.45 234.502 228.029 235.082 227.283 235.344C218.591 232.767 210.795 227.633 202.668 223.441C197.699 220.816 197.904 216.495 195.405 213.043Z" fill="#FCA946"/>
<path d="M241.179 226.829C234.331 223.445 227.386 220.951 220.566 221.179C216.18 216.977 208.203 216.79 205.963 210.205C206.895 209.413 209.866 209.004 205.562 207.033C200.471 204.829 195.429 201.868 190.426 200.647C180.096 197.888 172.912 187.451 162.203 186.383C160.681 184.535 160.132 183.012 162.363 182.236C167.736 183.64 173.389 184.869 178.474 188.322C182.163 192.649 187.581 194.545 192.299 197.19C193.918 198.147 192.446 195.541 193.607 195.332C195 195.082 196.39 195.456 198.102 196.146C210.823 203.216 222.655 211.569 236.173 216.999C239.131 219.087 240.74 221.917 242.955 224.264C243.554 225.029 244.059 226.062 244.426 226.869C243.632 227.886 242.933 228.635 241.179 226.829Z" fill="#F79D32"/>
<path d="M205.941 210.627C209.67 215.437 217.875 215.583 220.532 221.582C212.334 220.189 205.08 215.513 197.827 210.838C193.391 208.023 188.956 205.208 184.473 202.525C191.928 204.176 199.007 206.89 205.941 210.627Z" fill="#EA942E"/>
<path d="M162.701 182.939C162.887 184.338 162.932 185.504 163.118 186.903C162.736 187.366 162.592 187.783 162.211 188.246C155.602 186.082 154.762 180.11 150.204 176.523C146.889 170.618 149.946 166.269 148.865 160.993C155.095 162.314 154.609 166.316 156.122 169.686C157.014 174.215 159.048 178.662 162.701 182.939Z" fill="#F6A94C"/>
<path d="M183.659 119.109C186.171 120.675 188.868 122.334 191.333 124.035C191.75 124.719 191.608 125.124 191.467 125.53C191.139 125.843 190.859 126.021 190.859 126.021C183.722 127.072 179.411 120.645 174.013 117.961C175.822 120.288 181.505 121.528 180.324 125.541C177.197 126.366 174.175 124.387 171.058 122.678C168.546 121.112 166.129 119.275 163.992 117.261C160.93 113.517 156.368 111.566 152.323 108.761C148.65 106.142 144.977 103.522 144.2 99.4868C144.389 98.946 144.716 98.633 145.091 98.1847C145.605 97.9643 145.885 97.7864 146.399 97.566C147.518 97.488 148.543 97.6804 149.754 97.9653C150.918 98.3855 152.082 98.8056 153.199 99.361C163.664 105.676 175.209 110.148 183.659 119.109Z" fill="#F69622"/>
<path d="M144.329 99.9386C149.504 104.594 154.398 109.429 161.404 111.964C163.927 112.902 164.388 114.728 164.429 116.505C164.008 116.455 163.54 116.541 163.119 116.491C155.694 113.269 148.36 111.05 141.203 111.474C140.222 111.144 139.382 110.407 139.011 109.583C135.978 107.592 132.898 105.737 130.051 103.839C133.802 101.238 137.459 98.2708 144.329 99.9386Z" fill="#F69F36"/>
<path d="M145.242 94.9382C145.998 95.3165 146.754 95.6948 147.7 96.1678C147.793 96.5394 148.124 96.8671 148.217 97.2388C147.883 98.2086 147.267 98.7122 146.225 99.1651L145.612 98.3711C141.216 96.3343 143.868 95.7122 145.242 94.9382Z" fill="#FBD5A9"/>
<path d="M189.298 228.675C188.926 227.2 188.695 225.956 188.323 224.48C190.958 223.863 194.061 224.447 197.164 225.031C201.722 226.503 205.666 229.119 209.515 232.01C212.847 234.481 215.003 237.171 211.142 238.787C209.868 239.924 204.839 238.538 207.978 242.848C206.517 243.89 204.731 243.32 202.76 242.012C198.774 237.603 194.743 232.686 189.298 228.675Z" fill="#EE9B38"/>
<path d="M189.24 228.906C197.651 230.049 200.032 235.909 202.977 241.407C203.537 242.975 203.017 243.843 201.418 244.011C200.667 243.635 199.916 243.26 199.165 242.885C197.671 239.561 193.627 239.795 191.283 237.657C188.375 235.238 183.917 232.849 187.78 229.948C188.157 229.492 188.722 229.13 189.24 228.906Z" fill="#F8AA4B"/>
<path d="M196.794 225.776C194.952 228.56 191.95 226.415 189.04 224.639C186.318 222.957 183.832 221.231 182.335 218.551C183.468 217.184 179.153 213.739 182.868 213.18C189.26 213.797 194.233 217.249 198.449 222.255C199.102 224.191 198.675 225.428 196.794 225.776Z" fill="#F0A145"/>
<path d="M148.089 158.125C148.277 157.594 148.65 157.154 148.792 156.756C148.472 155.819 148.523 155.064 148.943 154.492C149.548 154.011 150.475 153.845 151.494 154.036C155.516 155.552 159.394 158.089 163.508 159.963C173.112 165.948 182.626 171.577 192.839 176.46C206.785 184.899 221.249 191.879 235.615 199.746C237.924 201.197 239.954 202.822 241.194 204.837C241.698 205.865 241.415 206.661 240.578 207.184C227.479 204.931 215.337 196.914 202.577 191.866C195.553 188.401 188.856 184.629 181.785 181.297C175.088 177.525 168.531 173.355 161.975 169.185C156.709 166.275 152.562 162.046 148.089 158.125Z" fill="#FDAD4C"/>
<path d="M148.14 158.534C153.378 161.789 158.569 165.182 163.621 168.344C164.879 170.414 165.764 172.298 162.623 172.494C159.859 172.236 157.19 171.705 154.524 169.894C152.659 167.04 153.888 163.486 149.257 161.015C148.884 160.188 148.512 159.361 148.14 158.534Z" fill="#E8922A"/>
<path d="M150.241 155.78C149.91 156.1 149.719 156.651 149.341 157.109C147.552 155.891 145.528 154.717 143.551 153.404C143.458 153.034 143.364 152.664 143.271 152.294C143.366 152.018 143.65 151.836 143.745 151.56C144.028 151.379 144.264 151.335 144.736 151.247C145.444 151.116 146.292 151.217 147.141 151.318C147.942 151.557 148.648 152.071 149.353 152.586C150.058 153.747 149.725 154.713 150.241 155.78Z" fill="#F7AF57"/>
<path d="M143.623 153.621C142.53 155.509 140.592 155.351 138.042 153.75C138.383 150.188 140.039 149.88 143.623 153.621Z" fill="#F8A84A"/>
<path d="M198.15 222.679C192.954 219.469 187.804 216.125 182.793 213.007C184.051 212.527 178.672 208.595 184.062 210.007C188.059 211.043 191.673 214.415 195.583 213.83C197.534 214.483 199.768 214.328 201.575 216.014C204.493 218.882 200.636 218.073 200.259 219.149C199.552 221.165 202.759 221.967 204.383 222.931C212.04 227.204 220.261 230.493 227.541 235.842C230.565 235.922 232.979 237.12 235.107 239.754C236.166 242.331 234.118 242.577 232.256 242.916C219.106 239.389 208.158 232.063 198.15 222.679Z" fill="#FEAD4B"/>
<path d="M127.217 132.655C129.095 130.397 128.55 125.653 135.277 128.368C136.445 128.79 134.349 125.988 134.588 124.669C136.799 120.82 140.58 123.184 144.548 125.642C151.489 134.054 161.484 138.718 170.586 144.693C172.542 147.265 172.861 149.501 171.358 151.308C169.624 152.52 167.567 152.133 165.186 150.786C157.252 145.234 148.894 140.907 139.923 137.712C138.613 137.698 137.117 137.591 135.668 137.348C134.031 137.011 131.975 136.625 130.059 135.83C128.565 135.085 127.399 134.024 126.701 132.878L127.217 132.655Z" fill="#F4931F"/>
<path d="M144.419 126.856C141.223 124.613 138.026 123.014 135.055 124.596C129.417 119.84 137.279 120.703 136.298 117.791C137.193 117.754 138.228 117.949 139.123 117.912C142.275 119.004 145.096 120.414 147.586 122.789C149.13 125.983 148.561 127.636 144.419 126.856Z" fill="#F7A138"/>
<path d="M188.963 75.6407C189.34 75.1866 189.482 74.7758 189.858 74.3216C192.387 75.9054 195.056 77.7198 197.585 79.3036C198.143 80.8669 197.624 81.7319 195.841 81.8049C193.92 81.0062 192.001 79.5661 190.034 78.263L190.081 78.126C189.661 77.4345 189.523 76.5627 188.963 75.6407Z" fill="#F8AC52"/>
<path d="M189.024 75.728C189.401 76.5686 189.778 77.4091 190.156 78.2497C189.397 77.8702 188.877 77.4466 188.166 76.9281C188.499 76.606 188.832 76.284 189.024 75.728Z" fill="#FAC280"/>
<path d="M147.234 122.699C144.518 121.022 141.142 120.621 139.322 117.625C139.326 116.343 138.344 115.371 137.315 114.536C131.98 110.268 135.733 110.216 138.689 109.926C139.438 110.3 140.14 110.811 140.703 111.092C143.657 111.443 146.421 112.342 149.419 113.838C152.322 115.609 154.191 117.826 155.214 120.584C155.725 122.284 155.674 123.703 154.779 125.021C154.215 125.382 153.276 125.555 152.432 125.455C150.417 124.93 148.636 124.362 147.234 122.699Z" fill="#F6A33F"/>
<path d="M143.699 153.631C140.964 151.938 139.168 152.012 138.076 153.898C136.425 152.909 135.058 151.739 135.157 150.167C136.058 148.835 137.1 147.735 139.604 148.177C141.964 149.033 143.756 150.254 144.601 152.298C144.222 152.757 144.079 153.172 143.699 153.631Z" fill="#F9BC71"/>
<path d="M138.792 148.589C138.176 149.738 137.418 150.654 135.39 150.125L135.201 150.031C134.826 149.196 134.451 148.361 134.264 147.62C133.51 147.242 132.804 146.727 132.097 146.212C132.428 145.892 132.619 145.339 132.384 144.736L133.186 144.976C135.781 145.14 137.571 146.36 138.792 148.589Z" fill="#FCDBB5"/>
<path d="M134.219 147.647C134.408 148.396 134.788 149.241 135.167 150.087C134.788 149.241 134.408 148.396 134.219 147.647Z" fill="#FCE9D2"/>
<path d="M133.431 143.395C132.028 142.374 130.907 141.173 130.958 139.756C131.849 139.719 132.739 139.683 133.49 139.416L133.677 139.51C135.224 139.48 136.629 139.861 138.079 140.745C140.044 142.046 141.492 143.571 141.486 145.492C139.606 147.118 137.222 145.127 134.928 144.142C134.367 143.862 133.992 143.675 133.431 143.395Z" fill="#F8B35F"/>
<path d="M138.753 148.419C136.987 147.225 135.221 146.03 133.222 144.878C133.364 144.473 133.319 143.976 133.274 143.478L134.346 143.536C138.066 145.385 142.441 146.608 145.41 149.985C146.104 151.122 145.868 151.797 144.656 152.145C142.657 150.993 140.705 149.706 138.753 148.419Z" fill="#F8B35F"/>
<path d="M181.956 90.7599C200.975 103.468 221.821 112.843 240.747 125.818C244.772 128.595 248.754 130.879 245.58 134.33C242.981 134.298 241.222 133.114 239.84 130.861C234.518 127.443 229.381 124.116 224.62 119.72C218.195 113.873 210.465 109.262 202.216 106.122C194.894 103.439 188.837 98.4017 181.985 94.3832C178.559 92.374 180.744 91.7294 181.956 90.7599Z" fill="#F08E18"/>
<path d="M183.895 118.765C173.551 110.946 160.956 107.063 150.332 99.4207C149.963 98.6058 149.5 98.0601 149.037 97.5144C148.946 97.1531 148.854 96.7918 148.716 96.565C148.904 96.0268 149.278 95.5807 150.115 95.6804C150.49 95.2344 150.631 94.8307 151.005 94.3847C151.748 94.7535 152.258 95.1646 152.954 95.668C162.255 97.1258 169.256 103.286 176.725 108.731C176.848 112.74 182.514 115.237 183.895 118.765Z" fill="#ED9020"/>
<path d="M176.896 108.557C167.731 106.694 161.102 99.4472 152.971 95.2504C154.094 93.9102 154.942 91.4843 157.822 93.231C164.882 97.3704 171.848 101.779 178.534 106.366C179.37 107.097 177.736 108.025 176.896 108.557Z" fill="#EE8D18"/>
<path d="M212.974 135.615C213.343 136.432 213.713 137.248 214.035 138.2C207.921 141.335 202.921 133.786 197.433 132.009C196.456 131.682 195.341 131.128 194.458 130.531C191.716 129.011 189.954 127.186 190.15 124.751C190.525 124.304 190.666 123.899 191.04 123.452C198.713 126.473 205.773 131.246 212.974 135.615Z" fill="#F7951F"/>
<path d="M213.288 100.738C218.544 104.886 226.081 106.889 229.661 112.701C215.295 106.087 200.654 99.0249 187.556 89.4544C185.158 87.6495 182.944 85.9358 180.307 85.4143C180.191 81.4649 182.726 83.4933 185.403 85.1242C194.448 90.8284 203.399 96.7976 213.288 100.738Z" fill="#F08F19"/>
<path d="M189.966 78.3449C192.493 78.6457 194.503 79.8085 195.761 81.8765C192.902 82.5311 191.127 81.3251 189.966 78.3449Z" fill="#F7A33E"/>
<path d="M150.385 95.9288C150.241 96.344 149.91 96.6648 149.719 97.2184C148.773 97.3941 148.017 97.0161 147.263 95.9898L147.5 95.9459C148.587 96.0032 149.486 95.966 150.385 95.9288Z" fill="#F39B33"/>
<path d="M238.01 218.878C222.826 213.879 209.612 204.536 196.069 196.125C195.103 194.554 192.419 193.54 192.661 191.627C193.081 191.053 193.824 190.795 194.891 190.853C198.688 191.791 201.595 194.634 204.831 196.545C213.527 200.841 222.084 204.913 230.827 209.076C233.649 210.313 236.192 211.726 238.826 213.497C240.811 215.259 244.094 217.037 242.83 219.383C242.081 220.889 240.042 220.508 238.01 218.878Z" fill="#EE9936"/>
<path d="M154.044 169.879C156.245 169.22 158.906 170.387 161.523 171.052C163.246 173.029 165.017 174.87 166.741 176.846C171.495 181.451 178.643 183.577 182.365 189.264C182.405 191.041 181.609 191.442 179.51 189.917C173.955 186.988 167.687 187.376 162.278 182.764C153.683 179.757 155.993 174.363 154.044 169.879Z" fill="#F49420"/>
<path d="M182.188 189.488C176.196 184.768 168.052 182.463 163.745 176.046C176.135 176.818 185.144 184.147 193.588 193.095C195.168 194.197 196.561 195.206 196.648 196.833C195.763 196.869 194.877 196.904 193.806 196.847C188.638 196.02 184.92 193.539 182.188 189.488Z" fill="#E8922A"/>
<path d="M181.938 189.571C185.699 191.913 189.647 194.347 193.594 196.782C194.01 197.463 194.659 198.102 195.261 198.875C190.558 199.227 182.011 194.351 179.098 189.583C179.983 189.548 180.868 189.513 181.938 189.571Z" fill="#FBA237"/>
<path d="M171.404 120.676C174.188 122.056 176.639 125.006 179.944 124.28C185.384 124.299 189.968 128.621 195.076 130.208C201.854 132.624 207.133 137.449 213.349 140.846C215.512 145.859 210.313 143.911 207.707 144.51C196.372 142.042 186.686 134.874 176.764 128.377C174.124 125.965 169.714 124.251 171.404 120.676Z" fill="#F7951F"/>
<path d="M171.65 121.214C172.436 124.649 176.086 125.509 178.656 127.592C180.8 130.904 179.719 132.126 175.881 131.172C172.839 130.454 169.613 128.365 166.659 129.293C163.191 129.804 159.352 129.49 158.429 125.186C157.783 121.982 154.268 122.63 153.244 120.518C152.737 118.183 150.541 116.287 149.049 114.261C152.903 110.099 158.788 115.277 163.89 116.382C166.415 117.962 169.126 119.635 171.65 121.214Z" fill="#F3921E"/>
<path d="M195.351 130.086C190.016 129.798 185.017 127.325 180.253 124.186C176.654 120.212 170.723 118.533 166.944 113.217C175.838 116.362 181.973 123.626 190.364 125.113C191.981 126.695 193.55 128.411 195.351 130.086Z" fill="#F2901B"/>
<path d="M147.19 96.0248C147.954 96.407 148.718 96.7892 149.722 97.127L149.386 97.4511C149.815 98.1574 149.718 98.4372 149.431 98.6215C149.143 98.8057 148.904 98.8501 148.713 98.7545C147.804 98.7921 146.895 98.8296 146.129 99.1025C146.515 97.9834 146.852 97.0041 147.19 96.0248Z" fill="#F9BB71"/>
<path d="M148.671 98.6912C148.814 98.2743 149.195 97.8133 149.338 97.3963C150.476 97.9656 150.853 98.8062 150.518 99.779C149.808 99.2605 149.239 98.9759 148.671 98.6912Z" fill="#FAC585"/>
<path d="M164.213 116.498C159.222 115.763 154.231 115.028 149.427 114.386C146.11 115.12 143.601 112.281 140.853 110.754C148.146 107.388 156.253 111.105 164.213 116.498Z" fill="#F69622"/>
<path d="M191.925 177.794C180.734 173.03 170.529 166.073 160.368 159.61C160.194 156.998 162.43 156.214 164.342 155.111C166.44 154.1 168.771 153.047 171.509 154.564C185.109 161.786 200.632 165.385 211.699 177.348C213.218 181.1 220.51 183.929 218.119 188.267C212.72 188.744 208.366 184.374 203.629 182.339C199.868 180.631 196.204 178.024 191.925 177.794Z" fill="#FAA644"/>
<path d="M202.79 198.165C200.623 195.052 197.476 192.867 193.865 190.765C192.936 190.933 192.195 190.566 191.457 189.573C192.881 183.059 198.829 191.496 202.038 190.416C214.969 195.09 227.429 201.1 239.936 206.976C241.832 208.386 243.359 209.612 243.35 211.491C242.929 212.067 242.138 212.461 241.255 212.495C237.635 212.272 234.115 210.53 230.736 208.387C221.517 204.295 212.445 198.549 202.79 198.165Z" fill="#F29F3D"/>
<path d="M231.328 195.536C231.362 197.901 235.437 199.289 235.471 201.654C220.853 193.802 205.767 186.658 191.525 177.74C196.272 174.765 201.398 179.333 206.257 181.578C210.144 183.499 213.139 187.328 217.826 186.984C223.714 187.547 228.385 190.325 231.328 195.536Z" fill="#EA9735"/>
<path d="M192.525 190.251C193.222 190.756 193.78 191.033 194.477 191.538C194.102 191.985 193.961 192.39 193.587 192.837C183.827 187.037 174.632 179.617 163.746 175.792C162.169 174.058 161.43 172.424 161.577 170.754C164.416 171.373 162.609 169.05 163.172 168.063C170.328 172.569 177.298 176.983 184.454 181.489C186.118 184.85 191.236 186.443 192.525 190.251Z" fill="#F09C3A"/>
<path d="M165.341 157.699C163.936 158.593 162.345 159.394 160.939 160.289C157.205 159.066 154.035 156.849 151.007 154.224C150.119 154.26 149.559 153.981 149.375 153.251C148.489 152.651 147.79 152.143 147.043 151.771C146.389 151.764 145.829 151.485 145.411 150.798C141.681 148.302 137.951 145.806 134.269 143.174C136.515 142.38 138.423 144.447 140.289 145.377C145.008 145.655 150.283 147.486 154.493 146.076C157.295 146.834 159.626 148.314 161.582 150.245C163.583 152.677 167.594 154.995 165.341 157.699Z" fill="#F49828"/>
<path d="M192.324 190.012C189.354 187.269 182.697 186.336 184.254 181.252C190.626 183.627 196.622 187.081 202.476 190.939C199.765 193.076 194.482 186.334 192.324 190.012Z" fill="#F6A240"/>
<path d="M149.187 153.418C149.757 153.703 150.327 153.988 150.802 154.552C150.658 154.969 150.514 155.387 150.18 155.71C149.802 154.868 149.424 154.026 149.187 153.418Z" fill="#F9BE78"/>
<path d="M145.32 151.035C145.886 151.318 146.451 151.601 146.969 152.022C146.073 152.059 145.412 152.052 144.515 152.089C144.658 151.675 144.989 151.355 145.32 151.035Z" fill="#FAC280"/>
<path d="M165.021 156.797C165.033 154.294 160.723 152.945 160.735 150.442C160.606 148.339 160.939 146.778 164.27 149.054C165.889 150.012 167.557 150.837 169.091 150.185C179.659 153.531 189.752 158.839 200.222 163.078C201.333 163.628 202.444 164.178 203.509 164.861C208.73 169.797 216.004 172.612 220.619 178.033C221.492 179.876 221.116 180.945 219.951 181.78C217.487 182.6 214.8 181.584 212.351 179.274C201.126 167.918 185.778 164.558 173.007 156.357C168.888 153.848 168.035 157.504 165.021 156.797Z" fill="#F09C3B"/>
<path d="M200.876 164.383C189.97 161.023 179.206 157.254 169.25 149.883C170.426 148.387 169.776 146.461 169.548 144.585C169.979 141.436 173.257 142.111 176.115 142.095C177.145 142.289 178.128 142.619 179.158 142.812C183.042 144.27 186.739 145.634 190.624 147.092C197.082 149.354 197.261 152.006 194.3 154.854C191.944 159.125 200.654 160.587 200.876 164.383Z" fill="#FEAC4A"/>
<path d="M176.603 143.524C174.498 143.91 172.347 144.433 170.196 144.955C159.975 140.979 150.414 135.737 143.997 126.482C145.962 125.867 146.807 124.694 146.441 122.598C148.075 122.934 149.476 123.313 151.11 123.649C152.918 127.897 156.836 129.85 160.942 131.895C166.913 134.87 173.446 137.487 176.603 143.524Z" fill="#F69724"/>
<path d="M164.709 149.529C162.712 149.011 161.964 149.902 161.169 150.927C158.664 149.369 155.974 147.719 153.47 146.162C146.776 145.365 141.582 142.157 138.166 136.363C138.493 136.053 139.147 135.431 139.332 135.523C148.245 139.313 157.766 141.986 164.709 149.529Z" fill="#ED8D1A"/>
<path d="M138.084 136.539C143.267 139.922 148.31 143.076 153.492 146.46C153.299 148.281 154.972 151.673 150.159 149.752C146.888 148.441 143.568 147.904 140.488 145.409C140.4 143.767 138.999 142.749 137.412 141.638C136.903 139.945 135.131 138.103 135.324 136.281C136.353 136.475 137.242 136.439 138.084 136.539Z" fill="#F69F37"/>
<path d="M135.529 136.452C137.544 138.263 139.088 140.161 137.627 141.844C136.361 141.05 135.095 140.257 133.829 139.464C133.788 137.673 132.194 136.556 130.648 135.3C132.2 134.628 133.794 135.746 135.529 136.452Z" fill="#FBD3A4"/>
<path d="M176.505 142.996C170.151 139.372 164.268 134.406 157.024 132.074C152.196 130.31 149.559 127.269 151.158 123.333C151.9 123.701 152.41 124.111 153.152 124.48C156.872 124.433 158.296 128.449 161.407 129.519C164.099 130.539 166.836 132.054 167.639 129.142C177.661 134.112 189.186 135.415 197.189 144.9C198.114 145.989 199.272 147.036 199.964 148.168C199.806 152.345 196.056 148.752 193.965 148.502C188.854 147.544 183.613 144.472 178.5 144.143C177.757 143.775 177.248 143.365 176.505 142.996Z" fill="#F59522"/>
<path d="M166.604 129.391C165.337 129.881 170.949 133.965 165.094 132.486C159.848 131.15 156.906 127.597 153.305 124.677C153.309 123.396 153.126 122.022 153.13 120.741C158.473 121.163 157.817 121.156 160.378 126.444C161.915 129.616 164.17 128.176 165.534 126.772C167.875 127.62 167.778 128.534 166.604 129.391Z" fill="#F69724"/>
<path d="M133.605 139.483C133.131 140.219 132.232 140.256 131.052 139.828C131.998 139.652 132.707 139.52 133.605 139.483Z" fill="#FCE8CE"/>
<path d="M166.344 128.821C165.976 128.007 165.607 127.193 165.238 126.379C168.173 125.468 170.955 127.48 173.926 128.954C176.85 130.562 178.76 130.089 178.213 127.293C187.348 134.193 197.56 139.26 207.82 144.193L208.006 144.285C208.649 146.182 208.316 147.753 206.87 148.771C204.866 149.513 202.954 150.615 200.08 148.243C196.555 145.862 193.027 144.112 190.203 140.975C187.889 138.248 184.133 135.281 181.107 135.83C174.731 136.612 170.889 132.023 166.344 128.821Z" fill="#F2901B"/>
<path d="M224.909 172.06C217.381 167.369 209.895 163.807 202.25 165.076C201.506 164.706 200.995 164.294 200.298 163.789C197.603 162.133 195.002 160.207 192.259 158.686C186.169 155.501 190.087 154.281 191.305 152.669C196.567 153.225 201.777 155.181 207.079 157.498C211.217 159.397 215.17 161.202 219.214 163.371C221.113 166.056 229.539 167.551 224.909 172.06Z" fill="#FEB352"/>
<path d="M206.709 158.433C201.534 157.606 196.506 155.104 191.711 152.56C192.647 151.755 194.559 151.912 194.66 149.739C189.21 147.821 183.477 146.716 178.123 143.894C184.939 142.52 192.753 148.314 199.703 148.436C201.476 148.365 203.249 148.294 205.022 148.223C208.605 150.482 213.402 152.392 213.899 156.61C214.535 161.056 207.699 155.59 206.709 158.433Z" fill="#FCA843"/>
</g>
<g opacity="0.6">
<path d="M196.095 1346.59C202.664 1353.85 210.126 1354.87 218.844 1349.96C223.678 1348.08 227.577 1350.31 231.476 1352.53C235.923 1355.21 240.069 1354.84 243.289 1348.47C244.219 1342.62 242.273 1336.46 246.26 1331.08C246.545 1328.87 246.03 1327.05 244.717 1325.6C243.805 1324.83 242.603 1324.52 241.439 1324.59C229.271 1331.84 216.499 1331.25 203.732 1332.41C202.53 1332.1 201.221 1332.4 199.95 1333.08C197.009 1335.5 195.49 1338.76 194.701 1342.64C194.706 1344.38 195.001 1345.68 196.095 1346.59Z" fill="#F8AF5A"/>
<path d="M133.555 1185.83C133.197 1188.94 132.84 1192.06 132.482 1195.17C132.16 1198.65 130.271 1202.88 134.08 1205.03C135.434 1205.47 136.609 1205.77 138.033 1205.25C140.883 1204.21 143.982 1202.36 145.336 1199.39C152.324 1183.38 162.123 1169.37 171.923 1155.36C175.665 1149.95 174.313 1146.09 167.581 1147.65C159.531 1152.54 156.535 1162.33 153.079 1167.3C150.228 1171.74 148.947 1168.63 150.05 1169.89C150.228 1170.04 150.371 1169.82 150.513 1169.59C154.148 1164.78 158.495 1160.55 158.32 1153.58C157.679 1152.03 156.647 1151.51 155.187 1151.66C147.029 1157.14 142.893 1167 136.943 1175.01C135.09 1177.9 134.304 1181.68 133.555 1185.83Z" fill="#F4A13E"/>
<path d="M151.002 1049.41C148.353 1052.7 145.346 1055.68 143.559 1059.34C139.914 1067.64 137.576 1062.24 134.847 1059.62L134.597 1060.44C128.939 1064.99 124.932 1071.26 122.542 1078.89C120.9 1084.04 119.761 1089.28 125 1092.28C126.831 1094.16 129.581 1086.83 130.952 1092.45C133.322 1094.77 135.723 1094.03 138.337 1092.09C139.555 1091.05 140.27 1089.93 141.129 1088.58C146.886 1078.27 149.019 1066.31 153.234 1055.4C153.481 1052.86 153.262 1050.62 151.002 1049.41Z" fill="#FDDAB2"/>
<path d="M124.687 1091.53C120.675 1078.65 131.036 1070.57 134.139 1060.2C124.849 1064.06 109.566 1087.46 109.452 1098.27C109.484 1103.75 112.08 1105.23 115.712 1102.12C119.166 1098.86 121.731 1094.86 124.687 1091.53Z" fill="#F9AF5A"/>
<path d="M228.945 906.956C227.341 903.911 225.38 902.277 222.207 905.098C218.891 908.14 216.253 906.283 213.472 904.649C212.295 904.352 211.19 904.797 210.512 906.282C210.797 917.789 199.744 922.24 197.248 932.113C195.073 936.79 189.154 938.347 188.94 944.658C189.796 946.737 190.188 949.112 192.398 949.93C193.896 950.153 195.001 949.708 195.821 948.001C204.058 939.837 208.337 926.326 220.209 923.583C224.345 918.833 228.303 913.934 228.945 906.956Z" fill="#F9AC50"/>
<path d="M118.45 1113.88C110.394 1120.48 107.47 1131.02 102.621 1140.29C99.6976 1145.71 97.5936 1152.83 101.799 1155.65C107.037 1158.99 107.965 1149.86 111.102 1146.67C117.982 1139.77 119.017 1130.05 121.941 1121.22C122.405 1117.51 121.657 1114.84 118.45 1113.88Z" fill="#FCC079"/>
<path d="M128.413 1227.79C127.037 1232.59 122.156 1237.6 127.647 1242.2C136.273 1244.53 128.665 1254.26 132.147 1258.93C133.062 1259.7 134.123 1260.24 135.146 1260.39C138.14 1260.1 140.876 1258.89 143.575 1257.3C145.762 1255.63 147.034 1253.19 147.429 1250.37C147.462 1249 147.166 1247.7 146.871 1246.4C146.354 1244.57 145.51 1242.81 144.993 1240.98C139.864 1234.93 136.556 1226.9 130.224 1222.3C128.511 1223.67 128.042 1225.72 128.413 1227.79Z" fill="#F9B768"/>
<path d="M132.306 1151.68C129.508 1155.2 133.152 1160.32 129.67 1163.62C129.026 1165.49 128.526 1167.14 127.883 1169.02C128.331 1176.98 132.468 1176.99 137.752 1175.21C145.041 1168.55 149.626 1159.63 154.752 1151.16C154.462 1149.88 153.704 1148.9 152.66 1148.37C146.217 1146.77 144.875 1158.41 138.65 1157.34C135.627 1156.88 136.046 1151.02 132.306 1151.68Z" fill="#FAAA4D"/>
<path d="M143.554 1300C144.02 1311.64 150.845 1314.19 159.024 1315.06C163.128 1313.93 165.541 1311.03 166.815 1306.82C166.327 1301.85 160.754 1301.75 160.412 1296.54C157.45 1283.52 147.942 1294.89 142.399 1291.66C137.752 1295.85 143.621 1297.25 143.554 1300Z" fill="#F7AB4F"/>
<path d="M120.906 1119.19C124.692 1117.56 126.118 1111.9 130.332 1111.31C131.618 1111.02 132.868 1110.35 133.903 1109.16C136.688 1105.66 138.579 1101.42 139.112 1096.74C139.218 1094.43 138.538 1092.49 136.751 1091C134.965 1091.22 133.358 1091.59 131.572 1091.81C127.754 1099.92 123.758 1107.88 118.332 1114.65C119.297 1116.14 119.941 1117.7 120.906 1119.19Z" fill="#FCC787"/>
<path d="M167.09 1306.62C164.118 1308.66 161.365 1311.23 159.742 1315.09C161.252 1321.93 168.374 1323.02 169.883 1329.86C170.499 1329.33 170.606 1328.72 170.713 1328.12C174.521 1326.08 176.69 1322.68 177.403 1318.05C175.465 1313.64 173.055 1309.53 171.733 1304.6C169.843 1304.06 168.392 1304.58 167.09 1306.62Z" fill="#FAC788"/>
<path d="M218.339 924.177C217.237 922.918 215.993 920.179 214.817 921.587C207.374 929.367 198.294 935.444 196.079 948.257C197.466 949.071 199.032 950.032 200.419 950.846L200.634 949.661C207.969 944.177 209.329 932.698 217.411 928.176C218.266 926.843 218.623 925.436 218.339 924.177Z" fill="#FAB35F"/>
<path d="M192.247 948.995C192.603 945.872 190.853 944.755 188.782 943.711C187.321 950.702 181.574 954.118 176.9 960.138C183.184 962.301 185.931 956.725 189.286 954.05C189.178 952.935 189.571 951.894 190.499 951.3C191.248 950.556 191.819 949.664 192.247 948.995Z" fill="#FAB35F"/>
<path d="M134.439 1257.89C133.613 1259.62 132.606 1261.2 131.636 1263.16C130.559 1265.72 129.339 1268.5 128.262 1271.07C129.463 1274.84 131.923 1276.21 135.134 1275.09C136.215 1274.27 137.116 1273.29 137.654 1272.01C138.192 1270.73 138.225 1269.37 138.257 1268.01C138.22 1267.64 138.327 1267.03 138.253 1266.28C138.067 1264.39 137.882 1262.5 137.372 1260.69C137.154 1260.16 136.935 1259.63 136.574 1259.33C135.85 1258.72 134.982 1258.34 134.439 1257.89Z" fill="#FCE4C6"/>
<path d="M133.364 1284.08C131.897 1287.68 132.478 1290.24 135.289 1291.9C136.261 1291.68 137.195 1291.08 137.913 1289.95C139.311 1287.33 140.348 1284.4 141.062 1281.55C141.632 1278.92 141.554 1276.44 140.505 1274.18C140.145 1273.88 139.604 1273.43 139.243 1273.12C138.092 1273.19 137.157 1273.79 136.44 1274.92C133.89 1277.61 133.213 1280.84 133.364 1284.08Z" fill="#FCE8CE"/>
<path d="M198.384 892.844C193.425 894.179 192.926 899.231 191.714 903.688C191.571 903.911 192.107 904.357 192.285 904.506C192.606 904.432 193.07 904.135 193.391 904.061C196.565 901.239 198.206 897.822 198.419 893.216L198.384 892.844Z" fill="#F0A348"/>
<path d="M198.505 893.289C196.723 896.921 195.083 900.331 193.479 904.111C197.254 904.185 197.683 900.108 199.251 897.662C199.643 896.624 200.035 895.586 200.427 894.548C200.036 893.881 199.359 893.659 198.505 893.289Z" fill="#F7AF5A"/>
<path d="M190.978 951.395C189.51 951.541 189.118 952.586 189.765 954.156C190.157 953.111 190.407 952.29 190.978 951.395Z" fill="#FBBC72"/>
<path d="M186.556 988.707C187.562 995.979 181.817 999.012 178.688 1003.87C175.225 1013.88 166.777 1021.11 165.047 1032.22C162.844 1034.8 164.115 1036.19 166.166 1037.21C174.03 1035.93 176.252 1026.59 181.153 1021.5C189.963 1011.18 195.771 998.375 202.638 986.445C204.596 982.984 208.893 978.412 203.309 974.464C195.376 975.006 192.904 985.157 186.556 988.707Z" fill="#FCBD74"/>
<path d="M165.924 1035.78C165.78 1034.29 165.315 1032.87 165.028 1031.6C158.383 1035.99 156.638 1045.15 150.924 1050.65C151.211 1051.92 151.355 1053.41 151.642 1054.68C162.435 1054.1 164.935 1051.05 165.924 1035.78Z" fill="#FCC079"/>
<path d="M203.347 1335.68C204.097 1336.65 204.562 1338.06 205.598 1338.58C210.634 1341.41 217.02 1327.58 221.702 1338.67C227.842 1334.21 234.876 1332.21 240.408 1326.56C244.014 1324.78 245.691 1321.73 246.26 1317.42C246.362 1304.85 252.678 1295.4 259.173 1286.11C270.593 1269.98 276.512 1251.31 280.181 1231.45C269.004 1229.65 272.403 1244.46 265.833 1246.17C266.439 1243.93 269.83 1241.63 270.971 1238.14C272.505 1233.6 273.753 1229.51 268.218 1228.31C263.754 1228.01 259.434 1229.2 255.293 1232.24C251.724 1236.11 246.797 1237.81 242.871 1241.38C235.911 1249.26 232.702 1260.27 226.242 1268.22C224.423 1271.49 223.103 1274.84 222.14 1278.49C220.929 1284.66 218.611 1291.28 222.149 1297.31C222.083 1310.25 217.981 1320.52 207.057 1326.46C205.986 1327.27 204.915 1328.09 204.201 1329.21C203.095 1331.36 202.811 1333.52 203.347 1335.68Z" fill="#F6941E"/>
<path d="M198.726 1331.21C197.299 1335.15 193.16 1338.19 195.909 1342.88C197.55 1339.46 199.191 1336.04 200.832 1332.62C200.404 1331.58 199.689 1330.99 198.726 1331.21Z" fill="#F39B33"/>
<path d="M152.806 1151.58C153.659 1151.95 154.192 1152.39 155.045 1152.76C155.755 1153.35 156.43 1153.57 157.141 1154.17C165.82 1149.13 167.896 1136.56 176.363 1131C185.077 1126.34 192.656 1120.04 196.863 1109.24C200.217 1098.08 204.849 1088.31 214.703 1081.87C220.715 1078.02 225.771 1070.99 227.061 1062.19C221.376 1059.16 225.081 1051.69 222.847 1047.11C215.667 1045.57 213.562 1052.67 210.464 1057.92C209.466 1059.47 208.506 1059.7 209.503 1058.14C209.788 1057.7 209.185 1056.52 208.617 1055.7C204.742 1056.23 201.044 1056.9 200.162 1051.06C199.202 1051.28 198.134 1052.09 197.244 1053.06C189.16 1066.08 186.868 1081.53 182.196 1096.03C180.84 1100.69 179.484 1105.35 176.209 1108.75C174.927 1110.75 173.823 1112.89 171.934 1117.11C173.93 1112.3 175.142 1109.56 174.363 1106.53C173.618 1105.57 172.587 1105.06 171.45 1105.13C163.229 1113.27 158.382 1124.22 152.292 1134.14C148.624 1140.28 152.742 1145.74 152.806 1151.58Z" fill="#FCA946"/>
<path d="M195.923 1108.36C190.662 1116.52 184.485 1123.59 176.022 1127.08C174.474 1134.93 164.981 1139.59 168.165 1149.33C170.002 1149.83 173.966 1148.72 170.519 1153.65C166.327 1159.31 162.874 1165.93 157.908 1170.27C147.869 1179.56 148.516 1197.01 136.503 1204.32C136.315 1207.55 137.015 1209.82 140.41 1209.58C145.66 1204.79 151.405 1200.07 154.471 1192.8C155.063 1185.17 159.926 1179.72 163.271 1173.7C164.375 1171.56 164.926 1175.74 166.519 1175.37C168.43 1174.92 169.778 1173.67 171.234 1171.83C180.307 1155.65 187.156 1138.32 198.663 1123.82C200.375 1119.49 199.79 1114.94 200.371 1110.69C200.411 1109.37 200.098 1107.76 199.819 1106.51C197.948 1105.64 196.43 1105.06 195.923 1108.36Z" fill="#F79D32"/>
<path d="M167.763 1148.82C167.973 1140.54 177.776 1135.81 175.623 1126.6C166.943 1132.94 162.347 1142.99 157.75 1153.04C154.899 1159.13 152.049 1165.22 149.023 1171.17C156.572 1164.91 162.712 1157.48 167.763 1148.82Z" fill="#EA942E"/>
<path d="M140.229 1208.43C139.202 1206.52 138.213 1204.99 137.186 1203.08C136.309 1202.7 135.761 1202.24 134.884 1201.85C128.807 1208.31 133.135 1216.48 130.819 1223.64C132.085 1233.1 139.686 1237.01 143.1 1244.42C149.472 1239.27 145.298 1234.37 144.117 1229.18C141.144 1222.84 139.629 1215.97 140.229 1208.43Z" fill="#F6A94C"/>
<path d="M166.333 1036.05C162.064 1042.68 161.931 1053.42 152.113 1054.78C145.637 1065.69 143.939 1078.86 138.489 1090.28C143.232 1092.18 144.733 1087.32 146.69 1083.85C149.109 1080.09 150.609 1075.23 155.007 1073.45C160.328 1071.08 160.918 1061.74 167.723 1061.28C168.999 1060.98 169.922 1060.39 170.81 1059.43C174.371 1052.21 177.932 1044.99 181.671 1037.91C182.222 1029.89 190.419 1025.16 189.944 1016.63C185.283 1010.39 182.743 1019.81 178.988 1019.75C172.744 1022.71 172.896 1033.01 166.333 1036.05Z" fill="#EE9C3D"/>
<path d="M154.649 1072.06C152.508 1068.56 150.866 1068.56 148.512 1073.09C145.623 1078.89 144.518 1086.17 138.775 1089.59C138.025 1090.33 137.455 1091.22 136.848 1091.74C136.991 1093.23 137.455 1094.64 137.598 1096.12C147.554 1098.95 149.514 1088.63 153.616 1081.79C154.972 1078.82 155.97 1075.55 154.649 1072.06Z" fill="#E99533"/>
<path d="M222.711 1278.98C224.351 1275.56 226.134 1271.93 227.596 1268.37C227.489 1267.25 226.955 1266.81 226.42 1266.36C225.743 1266.14 225.244 1266.07 225.244 1266.07C215.656 1268.66 216.189 1279.35 212.053 1285.8C212.161 1281.8 217.936 1277.05 212.911 1272.52C208.384 1273.19 206.494 1277.42 204.248 1281.35C202.608 1284.76 201.324 1288.47 200.54 1292.26C200.182 1298.79 196.403 1303.83 194.014 1309.69C191.911 1315.11 189.807 1320.53 192.479 1326.17C193.192 1326.76 193.869 1326.99 194.724 1327.36C195.544 1327.36 196.043 1327.43 196.863 1327.43C198.289 1326.91 199.358 1326.1 200.57 1325.06C201.604 1323.87 202.638 1322.68 203.493 1321.35C210.517 1307.4 220.499 1295.23 222.711 1278.98Z" fill="#F69622"/>
<path d="M192.254 1325.52C194.356 1316.64 195.957 1307.68 202.178 1300.53C204.394 1297.92 203.317 1295.31 201.775 1292.99C201.31 1293.29 200.666 1293.44 200.201 1293.74C194.089 1302.01 187.189 1308.94 178.136 1312.35C177.242 1313.32 176.886 1314.74 177.174 1316.01C175.281 1320.26 173.21 1324.36 171.46 1328.39C178.334 1329.67 185.424 1331.47 192.254 1325.52Z" fill="#F69F36"/>
<path d="M197.834 1331.42C198.412 1330.52 198.99 1329.61 199.713 1328.47C199.494 1327.94 199.601 1327.34 199.381 1326.8C198.108 1325.74 196.91 1325.43 195.241 1325.42L195.208 1326.79C191.703 1331.85 195.475 1331.19 197.834 1331.42Z" fill="#FBD5A9"/>
<path d="M209.768 968.361C209.199 969.248 208.807 970.281 208.237 971.167C206.709 972.276 205.216 973.755 203.688 974.864C201.072 988.66 191.721 998.562 185.809 1010.3C184.028 1013.92 181.253 1017.39 178.975 1020.93C183.019 1022.25 185.654 1017.31 189.381 1017C197.901 1015.58 197.777 1005.63 201.833 1000.16C204.221 994.332 209.409 990.486 211.62 984.508C214.009 978.677 215.369 972.332 209.768 968.361Z" fill="#E89432"/>
<path d="M131.452 1134.82C132.322 1136.94 133.156 1138.67 134.026 1140.78C137.773 1140.12 141.012 1137.65 144.25 1135.17C148.457 1130.75 150.895 1125.19 152.972 1119.32C154.798 1114.28 155.003 1109.62 148.875 1109.67C146.314 1108.91 141.458 1113.48 141.404 1106.18C138.699 1105.64 137.045 1107.37 135.826 1110.15C134.944 1118.05 134.46 1126.63 131.452 1134.82Z" fill="#EE9B38"/>
<path d="M131.188 1134.58C140.36 1128.44 137.997 1119.56 136.644 1110.82C135.918 1108.49 134.511 1107.66 132.423 1108.33C131.849 1109.23 131.275 1110.13 130.701 1111.03C131.865 1116.15 126.754 1118.09 125.827 1122.14C124.469 1126.88 121.204 1132.43 128.485 1134.04C129.35 1134.42 130.359 1134.57 131.188 1134.58Z" fill="#F8AA4B"/>
<path d="M143.148 1134.38C138.423 1131.8 136.704 1136.23 134.768 1140.14C132.975 1143.82 131.506 1147.42 132.093 1151.71C134.689 1152.85 132.544 1159.69 137.548 1158.35C144.743 1154.02 147.68 1146.81 148.308 1138.01C147.365 1135.14 145.741 1133.78 143.148 1134.38Z" fill="#F0A145"/>
<path d="M144.715 1248.54C145.418 1249.12 146.263 1249.48 146.791 1249.91C147.243 1251.3 147.98 1252.24 149.001 1252.75C150.164 1253.03 151.435 1252.73 152.498 1251.92C156.01 1247.74 158.434 1242.31 161.737 1237.62C168.007 1224.57 174.486 1212.04 182.48 1200.08C191.81 1181.46 203.073 1164.44 213.424 1146.32C214.921 1143.17 215.923 1139.95 215.621 1136.66C215.311 1135.06 214.256 1134.19 212.775 1133.98C198.932 1144.15 191.409 1161.22 180.479 1174.8C175.077 1183.17 170.345 1191.75 164.768 1199.96C160.035 1208.54 155.83 1217.56 151.626 1226.57C147.855 1233.24 146.62 1241 144.715 1248.54Z" fill="#FDAD4C"/>
<path d="M144.425 1247.97C147.858 1240.87 151.112 1233.61 154.402 1226.73C154.073 1223.36 153.458 1220.44 149.477 1221.93C146.357 1223.79 143.598 1225.95 141.989 1229.77C142.284 1234.49 146.957 1238.39 143.557 1244.15C143.846 1245.43 144.136 1246.7 144.425 1247.97Z" fill="#E8922A"/>
<path d="M149.447 1250.32C148.76 1250.09 148.035 1249.49 147.166 1249.11C146.089 1251.67 144.686 1254.31 143.464 1257.1C143.682 1257.63 143.901 1258.16 144.119 1258.68C144.481 1258.99 144.988 1259.07 145.35 1259.37C145.856 1259.45 146.182 1259.37 146.832 1259.22C147.807 1259 148.746 1258.4 149.684 1257.8C150.441 1257.05 150.836 1255.99 151.231 1254.94C151.045 1253.05 149.777 1251.99 149.447 1250.32Z" fill="#F7AF57"/>
<path d="M143.372 1256.78C140.356 1254.95 138.148 1256.23 136.489 1259.71C140.092 1264.12 142.375 1263.6 143.372 1256.78Z" fill="#F8A84A"/>
<path d="M147.538 1137.62C144.118 1144.65 140.875 1151.82 137.597 1158.62C139.552 1158.54 136.557 1166.6 141.821 1161.79C145.734 1158.23 147.093 1151.88 152.353 1150.47C154.132 1148.55 156.975 1147.51 157.655 1144.33C158.621 1139.01 154.673 1142.19 153.253 1141.01C150.592 1138.8 153.758 1135.99 154.862 1133.84C160.311 1124.09 167.321 1115.29 171.351 1104.35C174.941 1102.57 176.793 1099.69 177.012 1095.11C175.987 1091.19 173.286 1092.01 170.727 1092.6C157.956 1104.44 151.256 1119.96 147.538 1137.62Z" fill="#FEAD4B"/>
<path d="M142.234 1292.86C146.533 1294.74 150.121 1301.17 155.842 1293.94C156.879 1292.74 156.848 1297.52 158.318 1299.09C164.445 1302.84 166.91 1297.69 169.517 1292.32C170.395 1277.61 178.33 1266.06 184.009 1253.3C184.075 1248.89 182.46 1245.83 179.021 1244.33C175.834 1243.73 173.687 1245.36 172.008 1248.42C167.367 1259.99 161.113 1270.2 153.103 1279.3C151.528 1280.04 149.811 1281.01 148.273 1282.12C146.591 1283.46 144.445 1285.1 142.836 1287.19C141.692 1288.98 141.229 1290.99 141.411 1292.86L142.234 1292.86Z" fill="#F4931F"/>
<path d="M168.283 1290.78C166.418 1295.45 163.973 1299.28 158.955 1298.88C156.38 1308.15 165.137 1302.68 166.556 1306.98C167.673 1306.53 168.754 1305.71 169.872 1305.26C172.715 1302.1 174.872 1298.72 175.764 1294.28C174.776 1289.3 172.606 1287.48 168.283 1290.78Z" fill="#F7A138"/>
<path d="M132.436 1109.29C133.826 1110.11 135.216 1110.92 136.606 1111.74C137.534 1109.44 138.853 1107.81 141.134 1107.66C148.655 1107.44 150.831 1099.35 154.931 1094.23C157.141 1089.92 157.997 1085.17 158.854 1080.42C158.889 1079.09 158.783 1077.97 158.319 1076.56C154.791 1073.97 153.828 1079.31 151.439 1080.05C148.159 1086.88 145.592 1094.3 138.07 1096.23C136.18 1100.46 134.148 1104.91 132.436 1109.29Z" fill="#FCA947"/>
<path d="M175.403 1294.56C173.614 1298.23 169.881 1300.61 170.358 1305.49C171.511 1307.14 171.191 1308.94 170.691 1310.59C168.049 1319.06 172.644 1317.05 176.486 1315.78C177.059 1314.89 177.453 1313.84 177.882 1313.16C181.148 1311.07 183.694 1308.38 185.987 1304.79C187.92 1300.89 188.199 1297 186.97 1292.87C186.067 1290.39 184.734 1288.59 182.468 1287.38C181.461 1287.23 180.168 1287.52 179.235 1288.12C177.263 1289.91 175.613 1291.63 175.403 1294.56Z" fill="#F6A33F"/>
<path d="M143.457 1256.72C141.656 1260.42 139.412 1261.32 136.4 1259.49C135.283 1261.68 134.673 1263.95 136.201 1265.93C138.487 1267.15 140.735 1267.99 143.374 1266.03C145.469 1263.62 146.549 1261.05 145.743 1257.94C144.872 1257.56 144.327 1257.1 143.457 1256.72Z" fill="#F9BC71"/>
<path d="M142.03 1265.94C140.253 1264.8 138.514 1264.03 136.529 1265.84L136.385 1266.07C136.678 1267.35 136.971 1268.64 137.408 1269.7C136.832 1270.6 136.437 1271.66 136.042 1272.72C136.73 1272.95 137.455 1273.56 137.711 1274.46L138.469 1273.71C141.468 1272.06 142.546 1269.5 142.03 1265.94Z" fill="#FCDBB5"/>
<path d="M137.332 1269.7C136.89 1268.62 136.594 1267.32 136.298 1266.02C136.594 1267.32 136.89 1268.62 137.332 1269.7Z" fill="#FCE9D2"/>
<path d="M140.177 1275.59C139.391 1277.69 139.107 1279.86 140.439 1281.66C141.551 1281.22 142.663 1280.77 143.812 1280.7L143.955 1280.47C145.856 1279.66 147.218 1278.39 148.184 1276.44C149.4 1273.67 149.789 1270.9 148.062 1268.42C144.326 1267.36 143.22 1271.26 141.322 1273.8C140.892 1274.47 140.606 1274.92 140.177 1275.59Z" fill="#F8B35F"/>
<path d="M142.126 1266.18C141.056 1268.7 139.987 1271.22 138.597 1273.81C139.131 1274.26 139.522 1274.92 139.914 1275.59L141.16 1274.92C144.011 1270.47 148.215 1266.47 148.788 1260.47C148.611 1258.61 147.721 1257.87 145.94 1258.1C144.55 1260.69 143.338 1263.43 142.126 1266.18Z" fill="#F8B35F"/>
<path d="M195.843 1109.84C196.943 1109.4 198.043 1108.95 199.143 1108.51C208.244 1097.73 219.287 1090.27 228.388 1079.49C234.253 1072.48 238.915 1064.81 243.011 1056.33C243.865 1055 244.223 1053.6 244.723 1051.98C246.06 1040.19 241.344 1040.35 234.136 1045.23C231.224 1047.23 229.055 1050.18 227.451 1053.94C226.701 1056.37 226.412 1058.51 227.117 1060.79C222.521 1070.89 216.866 1078.42 207.458 1084.19C200.534 1088.62 195.795 1098.95 195.843 1109.84Z" fill="#FDAE4C"/>
<path d="M176.141 1095.07C174.499 1098.49 172.714 1102.14 171.251 1105.72C171.967 1106.32 172.647 1106.54 173.505 1106.92C174.08 1109.45 176.974 1107.07 177.871 1109.53C182.518 1108.27 182.729 1103.65 184.12 1099.33C188.899 1084.13 191.639 1068.26 198.636 1053.88C193.95 1053.05 199.952 1045.38 195.123 1044.78C180.794 1058.17 174.014 1074.79 176.141 1095.07Z" fill="#F09C39"/>
<path d="M199.527 1052.4C198.637 1061.92 202.812 1060.95 208.056 1057.46C214.193 1053.01 217.402 1045.43 222.432 1039.71C224.251 1036.44 225.535 1032.73 225.998 1029.01C227.459 1018.61 224.176 1016.89 216.898 1023.13C209.478 1031.3 202.13 1040.22 199.527 1052.4Z" fill="#FCAD4A"/>
<path d="M199.064 1052.04C205.077 1043.1 210.948 1034.39 216.962 1025.46C219.768 1024.05 220.448 1020.88 221.305 1017.85C220.6 1015.57 219.182 1014.39 217.196 1014.1C214.462 1014.55 212.33 1016.17 210.09 1018.39C204.396 1027.25 196.292 1034.79 195.951 1046.74C195.271 1049.91 191.718 1052.06 193.202 1055.67C193.414 1056.18 196.077 1055 197.675 1054.62C198.244 1053.74 198.814 1052.85 199.064 1052.04Z" fill="#E18D29"/>
<path d="M178.192 1108.65C181.296 1098.28 174.313 1109.17 173.853 1106.06C171.785 1111.84 167.654 1116.58 166.901 1124.13C174.197 1121.68 174.772 1113.98 178.192 1108.65Z" fill="#EB9735"/>
<path d="M199.191 1120.37C185.282 1135.23 177.646 1154.61 168.778 1172.97C169.015 1175.53 166.672 1178.33 168.678 1180.66C169.701 1181.17 170.832 1181.09 172.072 1180.43C175.83 1177.11 176.804 1171.83 179.011 1167.57C185.694 1157.21 192.411 1147.21 199.27 1137C201.579 1133.83 203.393 1130.6 204.998 1126.86C205.823 1123.48 208.207 1119.37 204.575 1117.04C202.319 1115.52 200.193 1117.14 199.191 1120.37Z" fill="#EE9936"/>
<path d="M141.41 1230.09C144.666 1229.73 146.846 1226.75 149.421 1224.44C149.739 1220.93 150.237 1217.57 150.555 1214.06C152.192 1205.49 158.95 1198.78 158.367 1189.38C156.825 1187.06 155.5 1186.98 154.323 1190.11C150.214 1196.97 142.271 1199.94 139.847 1208.89C132.125 1217.54 139.755 1223.22 141.41 1230.09Z" fill="#F49420"/>
<path d="M227.78 1077.39C218.078 1087.42 204.451 1092.46 199.602 1108.58L199.067 1109.85L198.532 1111.11C200.102 1115.49 203.313 1114.75 205.524 1112.15C211.017 1106.14 217.938 1103.02 223.11 1097.08C224.429 1095.45 225.571 1093.66 226.534 1091.73C227.069 1090.47 227.425 1089.06 227.782 1087.65C228.245 1083.93 229.065 1080.51 227.78 1077.39Z" fill="#F39F3D"/>
<path d="M222.693 1094.27C213.422 1097.16 208.136 1108.87 198.434 1110.72C196.505 1114.6 196.831 1117.96 198.947 1121.1C200.629 1119.76 202.739 1117.75 204.102 1119.92C204.713 1121.11 202.854 1124.02 202.248 1126.26C210.552 1123.59 220.703 1107.71 222.693 1094.27Z" fill="#FBA746"/>
<path d="M157.934 1189.2C154.903 1198.61 147.101 1206.1 147.63 1216.77C161.949 1208.91 166.3 1194.46 168.515 1178.22C169.442 1175.93 170.227 1173.85 168.875 1171.7C167.77 1172.15 166.666 1172.59 165.42 1173.26C159.898 1177.19 157.617 1182.45 157.934 1189.2Z" fill="#E8922A"/>
<path d="M157.555 1189.25C160.014 1184.14 162.615 1178.81 165.216 1173.48C165.11 1172.37 165.324 1171.19 165.361 1169.86C159.348 1172.01 153.363 1183.04 154.103 1190.81C155.206 1190.36 156.309 1189.92 157.555 1189.25Z" fill="#FBA237"/>
<path d="M180.238 1037.25C175.168 1044.32 171.17 1052.28 169.068 1061.14C166.889 1062.41 165.676 1065.16 167.285 1066.5C170.36 1069.41 173.933 1067.26 177.184 1065.18C182.433 1059.97 184.895 1053.12 187.677 1046.2C188.925 1042.1 189.53 1038.16 185.99 1035.54C183.917 1034.5 182.059 1035.69 180.238 1037.25Z" fill="#E5912E"/>
<path d="M179.896 1037.85C180.995 1037.4 182.095 1036.96 183.194 1036.51C193.519 1030.15 197.133 1016.54 205.445 1007.83C207.756 1004.66 211.662 1001.12 208.661 996.937C205.661 992.755 202.992 997.323 200.612 999.758C193.732 1002.87 196.184 1013.38 189.834 1016.93C188.114 1024.66 178.823 1028.14 179.896 1037.85Z" fill="#F49F3C"/>
<path d="M175.662 1064.19C174.895 1059.75 167.603 1069.88 169.166 1060.48C168.3 1060.1 167.758 1059.65 166.893 1059.27C162.436 1064.52 157.475 1069.7 157.964 1078.05C160.73 1089.35 165.716 1079.36 169.786 1078.62C174.029 1074.57 177.119 1070.6 175.662 1064.19Z" fill="#E6922F"/>
<path d="M158.003 1077.63C160.853 1071.51 163.881 1065.53 166.873 1059.18C159.173 1058.9 159.085 1068.34 155.067 1072.48C153.855 1075.21 152.786 1077.72 151.397 1080.3C153.457 1079.63 155.801 1078.52 158.003 1077.63Z" fill="#F9A441"/>
<path d="M206.292 1282.95C204.168 1278.08 207.822 1274.95 209.071 1270.84C208.704 1265.37 206.299 1264.4 202.502 1267.75C199.458 1270.36 197.42 1274.85 193.009 1275.29C188.348 1276.55 183.976 1279.08 186.712 1285.15C188.799 1289.64 183.959 1290.75 184.61 1294.05C186.086 1297.34 185.123 1301.01 185.128 1304.45C193.526 1307.69 196.022 1297.74 201.216 1293.49C202.86 1290.05 204.648 1286.39 206.292 1282.95Z" fill="#F3921E"/>
<path d="M201.514 1293.14C196.125 1296.85 190.737 1300.56 185.49 1304.05C180.815 1304.94 180.316 1310 178.354 1313.49C190.205 1313.8 196.699 1304.51 201.514 1293.14Z" fill="#F69622"/>
<path d="M200.764 1000.01C203.129 1000.61 205.809 995.985 207.388 998.677C209.362 1002.04 205.173 1003 203.743 1005.24C201.244 1011.74 196.488 1017.03 194.526 1023.97C193.564 1027.63 192.851 1030.47 196.434 1031.74C204.452 1027.8 206.804 1018.1 212.777 1011.76C218.891 1003.48 223.714 993.782 232.159 987.451C234.771 985.515 236.271 982.306 235.407 978.495C234.257 975.131 231.926 973.185 230.168 970.342C229.199 968.847 228.23 967.351 226.653 966.376C222.425 965.247 217.95 966.656 213.509 966.722C212.399 967.168 211.29 967.613 210.18 968.059C211.911 977.399 210.56 985.538 203.082 991.647C200.506 993.957 201.334 997.395 200.764 1000.01Z" fill="#F19B37"/>
<path d="M146.93 1137.6C153.847 1122.53 160.407 1107.17 170.282 1093.89C168.358 1090.92 165.578 1091 162.548 1091.89C157.38 1094.41 155.846 1102.35 150.107 1104.05C148.36 1106.35 147.433 1108.66 148.36 1111.48C147.219 1114.96 155.31 1110.44 151.495 1116.82C148.108 1122.53 145.612 1128.99 142.76 1135.15C144.15 1135.96 145.54 1136.78 146.93 1137.6Z" fill="#FBA744"/>
<path d="M147.876 1111.35C149.088 1108.6 150.336 1106.23 151.549 1103.48C154.651 1099.92 159.286 1096.95 154.508 1091.6C148.626 1095.24 147.342 1104.07 141.459 1107.71C141.779 1112.76 143.847 1113.8 147.876 1111.35Z" fill="#E4902D"/>
<path d="M180.177 1198.83C170.888 1211.18 164.757 1225.81 158.237 1239.78C160.364 1243.25 163.775 1243.02 167.079 1243.39C170.525 1243.53 174.291 1243.6 176.25 1240.12C186.256 1223.27 201.836 1210.02 204.529 1188.45C203.009 1182.76 209.307 1175.07 202.527 1170.8C195.56 1173.17 194.199 1181.22 190.284 1186.47C187.258 1190.76 185.155 1196.16 180.177 1198.83Z" fill="#FAA644"/>
<path d="M175.085 1166.6C175.248 1171.81 173.394 1176.38 170.902 1181.09C169.626 1181.39 169.057 1182.27 169.053 1183.96C176.61 1191.58 176.26 1177.4 181.112 1177.01C192.587 1163.82 202.295 1149.15 212.18 1134.64C213.215 1131.77 213.965 1129.34 212.272 1126.92C211.247 1126.41 209.937 1126.34 208.837 1126.79C204.652 1129.08 201.949 1133.28 199.776 1137.92C192.276 1148.31 186.434 1160.75 175.085 1166.6Z" fill="#F29F3D"/>
<path d="M211.993 1154.13C209.917 1151.06 213.609 1147.01 211.533 1143.94C200.862 1162.18 188.991 1179.76 179.729 1199.16C188.141 1200.36 190.257 1191.63 194.131 1186.04C197.118 1181.41 197.317 1174.8 203.301 1172.65C209.927 1168.66 213.095 1162.49 211.993 1154.13Z" fill="#EA9735"/>
<path d="M169.773 1182.46C170.165 1181.43 170.593 1180.76 170.985 1179.72C170.13 1179.35 169.597 1178.91 168.742 1178.54C162.113 1191.43 157.619 1206.1 147.858 1217.07C147.5 1220.19 148.069 1222.7 149.741 1224.78C152.626 1222.41 152.517 1226.41 154.083 1227.37C158.717 1217.59 163.208 1208.03 167.842 1198.25C166.848 1192.99 171.621 1188.09 169.773 1182.46Z" fill="#F09C3A"/>
<path d="M166.016 1239.46C163.512 1239.08 160.866 1238.93 158.362 1238.55C154.932 1242.2 153.077 1246.82 151.758 1251.89C150.65 1252.33 150.221 1253 150.651 1254.05C150.116 1255.31 149.724 1256.36 149.152 1257.25C148.366 1257.62 147.937 1258.29 148.045 1259.41C145.761 1264.7 143.477 1269.99 141.372 1275.43C144.805 1275.21 145.266 1271.48 146.695 1269.25C152.164 1266.27 156.915 1260.99 163.28 1260.48C165.996 1257.95 167.495 1254.74 168.135 1251.17C168.382 1246.92 171.167 1241.71 166.016 1239.46Z" fill="#F49828"/>
<path d="M169.728 1182.9C168.586 1188.08 161.357 1192.97 167.797 1198.68C173.39 1192.08 177.559 1184.3 181.195 1176.08C175.998 1174.82 175.636 1186.45 169.728 1182.9Z" fill="#F6A240"/>
<path d="M150.279 1253.96C150.715 1253.27 151.151 1252.59 151.221 1251.6C150.672 1251.14 150.124 1250.68 149.43 1250.45C149.726 1251.74 150.021 1253.04 150.279 1253.96Z" fill="#F9BE78"/>
<path d="M147.732 1259.17C148.164 1258.49 148.597 1257.81 148.848 1256.98C147.728 1257.43 146.933 1257.81 145.813 1258.25C146.357 1258.71 147.044 1258.94 147.732 1259.17Z" fill="#FAC280"/>
<path d="M162.33 1094.09C164.81 1094.45 167.467 1094.96 170.089 1095.1C172.039 1095.02 173.669 1095.01 175.618 1094.93C178.665 1080.5 181.713 1066.07 189.823 1053.46C191.531 1050.81 192.496 1047.2 195.865 1046.6C201.203 1037.46 206.364 1028.17 211.702 1019.03C215.078 1015.04 219.235 1010.69 211.053 1008.65C205.827 1015.51 202.262 1024.43 195.586 1029.75C188.565 1031.39 191.094 1040.95 186.018 1044.2C182.599 1051.2 179.322 1057.98 175.903 1064.98C173.376 1069.33 172.972 1075.44 167.581 1077.07C164.308 1082.16 158.344 1086.37 162.33 1094.09Z" fill="#FAA845"/>
<path d="M166.393 1240.81C168.649 1244.04 164.637 1248.17 166.893 1251.39C168.62 1254.18 170.42 1256.01 172.416 1251.22C173.52 1249.09 174.8 1247.1 177.243 1247.09C187.043 1236.92 194.514 1224.47 203.397 1213.2C204.25 1211.88 205.104 1210.55 205.781 1209.08C207.684 1199.82 213.972 1192.15 214.708 1182.6C214.114 1179.74 212.702 1178.57 210.543 1178.13C206.825 1178.44 204.481 1181.24 203.583 1185.58C200.159 1206.46 184.581 1219.3 176.458 1236.96C173.716 1242.48 169.409 1238.23 166.393 1240.81Z" fill="#F09C3B"/>
<path d="M203.031 1211.11C192.822 1221.49 183.153 1232.32 177.688 1247.35C180.453 1248.63 181.39 1251.48 182.794 1254.03C186.137 1257.86 189.505 1255.17 192.983 1253.61C194.058 1252.79 194.953 1251.82 196.028 1251C199.43 1246.96 202.689 1243.16 206.091 1239.12C211.893 1232.62 209.734 1229.1 203.595 1227.06C196.915 1222.85 206.16 1216.14 203.031 1211.11Z" fill="#FEAC4A"/>
<path d="M192.327 1251.45C189.431 1252.12 186.356 1252.64 183.281 1253.15C174.458 1263.95 167.566 1276.01 168.08 1291.52C171.012 1291.22 173.087 1292.27 174.52 1295.18C176.199 1293.84 177.557 1292.58 179.236 1291.24C177.622 1284.75 180.622 1280.06 183.764 1275.14C188.336 1267.99 193.908 1261 192.327 1251.45Z" fill="#F69724"/>
<path d="M172.554 1250.34C170.598 1252.11 168.895 1251.38 167.014 1250.49C165.376 1253.89 163.595 1257.51 161.956 1260.91C154.563 1265.65 151.143 1272.66 152.193 1282.04C152.868 1282.26 154.216 1282.7 154.359 1282.47C161.76 1272.65 170.899 1263.92 172.554 1250.34Z" fill="#ED8D1A"/>
<path d="M151.942 1281.86C155.193 1274.62 158.479 1267.76 161.73 1260.52C159.864 1258.27 158.855 1252.97 154.742 1258.11C151.952 1261.62 148.409 1264.15 146.911 1269.08C148.275 1271.25 147.49 1273.34 146.561 1275.65C147.46 1278.12 146.963 1281.48 148.828 1283.72C149.902 1282.91 151.012 1282.46 151.942 1281.86Z" fill="#F69F37"/>
<path d="M148.939 1283.38C149.759 1279.93 149.932 1276.62 146.654 1275.26C145.83 1276.98 145.006 1278.71 144.182 1280.43C145.734 1282.77 144.804 1285.1 144.053 1287.57C146.537 1287.58 147.467 1285.26 148.939 1283.38Z" fill="#FBD3A4"/>
<path d="M161.993 1093.1C161.702 1086.69 164.808 1081.41 167.414 1076.05C164.338 1074.85 161.879 1085.13 158.513 1077.52C155.978 1081.92 154.301 1086.68 154.484 1091.97C156.418 1096.67 152.81 1100.17 151.526 1103.89C157.962 1104.13 159.315 1097.72 161.993 1093.1Z" fill="#ED9936"/>
<path d="M192.658 1252.18C188.207 1260.38 185.528 1270.05 178.842 1277.07C174.574 1282.03 174.104 1287.41 179.564 1291.61C180.133 1290.72 180.383 1289.91 180.953 1289.02C185.5 1287.02 183.628 1281.05 186.438 1277.94C188.786 1275.14 190.744 1271.66 194.324 1274.98C202.012 1263.01 214.806 1254.94 216.005 1238.27C216.151 1236.35 216.615 1234.35 216.441 1232.51C212.509 1227.21 211.184 1233.92 208.874 1235.4C203.542 1239.47 199.945 1246.34 194.047 1249.6C193.477 1250.48 193.227 1251.3 192.658 1252.18Z" fill="#F59522"/>
<path d="M192.863 1275.21C190.888 1275.28 194.033 1266.89 188.262 1272.05C183.1 1276.68 182.716 1282.9 180.967 1288.66C182.119 1290.31 183.127 1292.19 184.279 1293.84C190.377 1290.34 189.588 1290.71 187.957 1282.46C186.979 1277.51 191.001 1278.12 193.911 1279.18C195.99 1276.79 195.054 1275.66 192.863 1275.21Z" fill="#F69724"/>
<path d="M143.897 1280.54C142.663 1279.85 141.54 1280.3 140.493 1281.51C141.797 1281.21 142.775 1280.99 143.897 1280.54Z" fill="#FCE8CE"/>
<path d="M201.611 1139.06C203.083 1133.87 207.748 1131.65 210.097 1127.18C217.621 1117.2 221.526 1104.92 227.153 1093.72C228.115 1091.81 227.17 1090.36 225.482 1089.64C224.662 1091.33 223.843 1093.01 223.023 1094.69C215.499 1104.67 211.486 1117.54 202.557 1126.35C200.918 1129.72 199.138 1133.31 197.499 1136.68C195.342 1137.93 193.779 1140.35 195.567 1142.16C198.058 1144.55 199.563 1139.73 201.611 1139.06Z" fill="#FEAC4A"/>
<path d="M201.634 1138.47C201.179 1135.37 194.206 1146.22 197.313 1135.9C188.181 1144.61 184.251 1158.32 174.907 1166.52C177.492 1167.99 180.789 1168.35 182.782 1165.25C188.617 1156.18 198.134 1149.82 201.634 1138.47Z" fill="#FBA746"/>
<path d="M185.537 1044.38C191.669 1042.01 191.796 1034.66 195.102 1029.94C195.518 1020.46 204.423 1014.62 204.343 1005.07C196.278 1014.65 189.98 1025.7 183.858 1036.89C186.581 1038.13 186.998 1040.85 185.537 1044.38Z" fill="#EB9733"/>
<path d="M193.028 1276.1C193.31 1277.35 193.593 1278.61 193.875 1279.86C198.246 1279.41 199.815 1275.27 202.093 1271.72C204.194 1268.03 206.93 1267.58 208.772 1271.49C213.659 1257.53 221.491 1245.33 229.501 1233.28L229.643 1233.05C228.724 1230.25 226.914 1228.4 224.25 1227.89C221.16 1228.04 217.856 1227.68 216.5 1232.34C214.361 1237.36 211.655 1241.57 211.044 1247.19C210.682 1251.99 208.791 1257.9 204.633 1258.87C196.21 1261.39 195.666 1269.44 193.028 1276.1Z" fill="#F2901B"/>
<path d="M225.239 1187.91C220.32 1198.13 214.441 1206.88 204.043 1209.48C203.473 1210.37 203.224 1211.18 202.831 1212.22C201.049 1215.85 199.623 1219.78 197.663 1223.26C193.137 1230.74 198.977 1230.15 201.895 1231.56C207.772 1227.92 212.332 1222.51 216.679 1216.58C219.993 1211.84 223.164 1207.32 226.122 1202.28C226.017 1197.76 234.886 1191.16 225.239 1187.91Z" fill="#FEB352"/>
<path d="M215.403 1215.54C209.874 1219.48 206.023 1225.49 202.492 1231.43C204.347 1231.96 206.522 1230.69 208.592 1233.44C203.705 1238.94 197.749 1243.54 193.79 1250.15C203.278 1248.15 207.557 1236.34 215.868 1232.33C218.079 1231.44 220.291 1230.55 222.502 1229.66C224.82 1224.76 228.922 1219.64 225.747 1213.91C222.536 1207.82 219.148 1218.67 215.403 1215.54Z" fill="#FCA843"/>
</g>
<g opacity="0.6">
<path d="M162.786 1903.91C148.046 1912.78 141.722 1928.15 141.722 1928.15C139.728 1931.66 142.542 1934.59 146.063 1931.88C146.063 1931.88 146.479 1930.91 147.349 1929.24L147.381 1929.21C149.893 1924.4 156.205 1914.25 167.143 1907.62C169.068 1905.4 165.726 1901.95 162.786 1903.91Z" fill="#707070"/>
<path d="M158.433 1900.16C143.722 1909.07 137.368 1924.41 137.368 1924.41C135.754 1927.12 139.301 1929.91 141.739 1928.16C141.739 1928.16 148.064 1912.8 162.804 1903.92C163.788 1901.03 160.873 1898.36 158.433 1900.16Z" fill="#9E9E9E"/>
<path d="M154.063 1896.41C139.354 1905.31 133 1920.65 133 1920.65C131.563 1923.67 135.548 1925.81 137.371 1924.41C137.371 1924.41 143.725 1909.07 158.435 1900.17C159.303 1898.04 156.474 1894.58 154.063 1896.41Z" fill="#707070"/>
<path d="M171.289 1919.25C171.289 1919.25 157.27 1919.39 147.371 1929.24L147.339 1929.27C146.47 1930.91 146.053 1931.91 146.053 1931.91L148.274 1970.09C150.207 1965.47 152.668 1960.26 155.884 1954.71L171.289 1919.25Z" fill="#DEDEDE"/>
<path d="M204.294 1905.59L167.12 1907.63C156.199 1914.24 149.872 1924.41 147.36 1929.22C157.259 1919.38 171.278 1919.23 171.278 1919.23L155.858 1954.68C165.068 1938.69 180.122 1920.03 204.294 1905.59Z" fill="#A6A6A6"/>
<path d="M224.676 2000.69C220.775 2004.24 201.479 2021.77 199.945 2022.8C199.945 2022.8 177.641 2020.69 161.784 2013.25C166.094 2017.47 170.682 2021.22 175.189 2023.45C191.128 2031.25 222.884 2042.52 222.884 2042.52L218.125 2068.05C216.194 2075.29 220.803 2080.41 224.778 2083.35C223.236 2082.02 215.702 2073.03 236.909 2036.74C236.909 2036.74 213.592 2030.53 213.176 2028.85C213.192 2028.83 217.361 2008.11 224.676 2000.69Z" fill="#E07800"/>
<path d="M350.119 2004.95L354.425 2025.26L334.016 2035.22L316.295 2043.88L308.96 2065.82L308.991 2065.85L308.38 2067.64L307.768 2069.5L301.737 2087.63L300.467 2091.34L295.082 2107.51L294.472 2109.3L293.876 2111.15L288.765 2126.42L288.171 2128.2L287.527 2130.09L283.771 2141.44L282.532 2145.11L280.766 2150.4L277.5 2123.12L229.795 2086.28C229.795 2086.28 227.59 2085.36 225.04 2083.52L224.783 2083.3C223.241 2081.97 215.69 2073 236.897 2036.71C236.897 2036.71 213.581 2030.5 213.165 2028.82C213.165 2028.82 217.318 2008.08 224.633 2000.67C220.732 2004.22 201.436 2021.74 199.918 2022.76C199.918 2022.76 199.888 2022.73 199.811 2022.73C199.748 2022.74 199.625 2022.73 199.501 2022.72C198.713 2022.63 196.767 2022.4 194.097 2022.01L194.081 2022.03L194.05 2022C193.387 2021.92 192.739 2021.81 192.029 2021.69C191.843 2021.69 191.674 2021.64 191.504 2021.62C189.882 2024.1 188.419 2026.42 187.052 2028.66L187.02 2028.7C186.79 2028.6 186.53 2028.5 186.315 2028.41C186.024 2028.29 185.78 2028.18 185.473 2028.08C185.365 2028.05 185.243 2027.98 185.183 2027.92C184.8 2027.76 184.417 2027.59 184.05 2027.43C183.988 2027.45 183.972 2027.43 183.942 2027.41C183.207 2027.1 182.502 2026.81 181.8 2026.47C181.737 2026.48 181.692 2026.44 181.647 2026.4C181.569 2026.4 181.539 2026.37 181.461 2026.37C180.987 2026.16 180.514 2025.91 180.024 2025.72C179.84 2025.62 179.626 2025.53 179.442 2025.44C179.335 2025.41 179.243 2025.37 179.135 2025.34C177.76 2024.67 176.383 2024.04 175.145 2023.46C174.442 2023.11 173.755 2022.75 173.085 2022.33C172.72 2022.11 172.353 2021.93 172.034 2021.69C171.684 2021.48 171.334 2021.25 170.97 2021C170.302 2020.52 169.587 2020.03 168.921 2019.49C168.556 2019.25 168.192 2018.97 167.845 2018.67C167.512 2018.38 167.194 2018.11 166.814 2017.85C165.073 2016.45 163.367 2014.88 161.724 2013.28L161.694 2013.25C160.309 2011.84 158.94 2010.4 157.634 2008.96C152.724 2003.51 148.517 1997.9 145.718 1993.94C160.561 1934.58 230.121 1924.04 230.121 1924.04L230.197 1924.11L237.796 1934.06L248.234 1947.67L249.433 1954.92L249.935 1957.9L249.965 1957.93L252.856 1975.21C255.756 1974.09 287.071 1967.54 287.071 1967.54C308.538 1972.32 350.119 2004.95 350.119 2004.95ZM232.32 2075.17L280.828 2109.96C280.225 2100.87 289.697 2089.11 289.697 2089.11C275.98 2078.49 247.809 2043.64 247.809 2043.64C239.133 2054.69 232.32 2075.17 232.32 2075.17Z" fill="#FFAC1C"/>
<path d="M224.676 2000.69C220.775 2004.24 201.479 2021.77 199.945 2022.8C199.945 2022.8 177.641 2020.69 161.784 2013.25C166.094 2017.47 170.682 2021.22 175.189 2023.45C191.128 2031.25 222.884 2042.52 222.884 2042.52L218.125 2068.05C216.194 2075.29 220.803 2080.41 224.778 2083.35C223.236 2082.02 215.702 2073.03 236.909 2036.74C236.909 2036.74 213.592 2030.53 213.176 2028.85C213.192 2028.83 217.361 2008.11 224.676 2000.69Z" fill="#A6A6A6"/>
<path d="M350.119 2004.95L354.425 2025.26L334.016 2035.22L316.295 2043.88L308.96 2065.82L308.991 2065.85L308.38 2067.64L307.768 2069.5L301.737 2087.63L300.467 2091.34L295.082 2107.51L294.472 2109.3L293.876 2111.15L288.765 2126.42L288.171 2128.2L287.527 2130.09L283.771 2141.44L282.532 2145.11L280.766 2150.4L277.5 2123.12L229.795 2086.28C229.795 2086.28 227.59 2085.36 225.04 2083.52L224.783 2083.3C223.241 2081.97 215.69 2073 236.897 2036.71C236.897 2036.71 213.581 2030.5 213.165 2028.82C213.165 2028.82 217.318 2008.08 224.633 2000.67C220.732 2004.22 201.436 2021.74 199.918 2022.76C199.918 2022.76 199.888 2022.73 199.811 2022.73C199.748 2022.74 199.625 2022.73 199.501 2022.72C198.713 2022.63 196.767 2022.4 194.097 2022.01L194.081 2022.03L194.05 2022C193.387 2021.92 192.739 2021.81 192.029 2021.69C191.843 2021.69 191.674 2021.64 191.504 2021.62C189.882 2024.1 188.419 2026.42 187.052 2028.66L187.02 2028.7C186.79 2028.6 186.53 2028.5 186.315 2028.41C186.024 2028.29 185.78 2028.18 185.473 2028.08C185.365 2028.05 185.243 2027.98 185.183 2027.92C184.8 2027.76 184.417 2027.59 184.05 2027.43C183.988 2027.45 183.972 2027.43 183.942 2027.41C183.207 2027.1 182.502 2026.81 181.8 2026.47C181.737 2026.48 181.692 2026.44 181.647 2026.4C181.569 2026.4 181.539 2026.37 181.461 2026.37C180.987 2026.16 180.514 2025.91 180.024 2025.72C179.84 2025.62 179.626 2025.53 179.442 2025.44C179.335 2025.41 179.243 2025.37 179.135 2025.34C177.76 2024.67 176.383 2024.04 175.145 2023.46C174.442 2023.11 173.755 2022.75 173.085 2022.33C172.72 2022.11 172.353 2021.93 172.034 2021.69C171.684 2021.48 171.334 2021.25 170.97 2021C170.302 2020.52 169.587 2020.03 168.921 2019.49C168.556 2019.25 168.192 2018.97 167.845 2018.67C167.512 2018.38 167.194 2018.11 166.814 2017.85C165.073 2016.45 163.367 2014.88 161.724 2013.28L161.694 2013.25C160.309 2011.84 158.94 2010.4 157.634 2008.96C152.724 2003.51 148.517 1997.9 145.718 1993.94C160.561 1934.58 230.121 1924.04 230.121 1924.04L230.197 1924.11L237.796 1934.06L248.234 1947.67L249.433 1954.92L249.935 1957.9L249.965 1957.93L252.856 1975.21C255.756 1974.09 287.071 1967.54 287.071 1967.54C308.538 1972.32 350.119 2004.95 350.119 2004.95ZM232.32 2075.17L280.828 2109.96C280.225 2100.87 289.697 2089.11 289.697 2089.11C275.98 2078.49 247.809 2043.64 247.809 2043.64C239.133 2054.69 232.32 2075.17 232.32 2075.17Z" fill="#DEDEDE"/>
<path d="M222.42 1896.37C215.859 1899.15 209.847 1902.21 204.324 1905.56L204.262 1905.57C180.09 1920.01 165.036 1938.67 155.841 1954.66C152.642 1960.2 150.164 1965.43 148.231 1970.05L148.229 1970.11C143.583 1981.12 142.215 1988.68 142.215 1988.68C142.215 1988.68 143.504 1990.75 145.768 1993.93C160.613 1934.55 230.188 1924.01 230.188 1924.01L230.263 1924.08L237.864 1934.03C242.323 1929.99 247.015 1925.9 251.99 1921.69C253.483 1923.13 254.976 1924.58 256.42 1926.08C254.239 1923.78 251.948 1921.56 249.686 1919.39C236.112 1906.37 222.42 1896.37 222.42 1896.37Z" fill="#E07800"/>
<path d="M230.287 1924.04L230.211 1923.97C230.211 1923.97 160.639 1934.51 145.793 1993.89C148.593 1997.84 152.8 2003.49 157.711 2008.9C159.018 2010.35 160.387 2011.78 161.772 2013.2L161.802 2013.22C163.46 2014.84 165.135 2016.41 166.893 2017.79C167.273 2018.05 167.606 2018.34 167.924 2018.61C168.272 2018.91 168.651 2019.17 169 2019.44C169.683 2019.96 170.381 2020.47 171.049 2020.94C171.399 2021.18 171.748 2021.45 172.114 2021.63C172.449 2021.86 172.8 2022.06 173.165 2022.28C173.85 2022.71 174.537 2023.07 175.225 2023.4C176.464 2023.98 177.825 2024.64 179.217 2025.29C179.324 2025.31 179.416 2025.36 179.524 2025.39C179.707 2025.48 179.921 2025.57 180.105 2025.66C180.641 2025.9 181.16 2026.15 181.712 2026.37C181.757 2026.41 181.818 2026.46 181.865 2026.43C182.568 2026.78 183.273 2027.06 184.008 2027.37C184.038 2027.4 184.053 2027.41 184.116 2027.4C184.498 2027.57 184.866 2027.72 185.249 2027.89C185.846 2028.15 186.474 2028.4 187.118 2028.66C187.515 2028.84 187.898 2029.01 188.343 2029.16C188.496 2029.23 188.696 2029.3 188.849 2029.37L188.879 2029.4C190.529 2027.04 192.291 2024.56 194.147 2022.03L194.18 2021.99C204.047 2008.41 216.706 1992.69 231.893 1976.37C233.399 1974.73 234.918 1973.13 236.485 1971.48C236.694 1971.24 236.902 1971 237.157 1970.76C240.77 1967 244.492 1963.24 248.323 1959.47C248.769 1959.04 249.168 1958.64 249.598 1958.24C249.727 1958.09 249.917 1957.93 250.061 1957.8L250.031 1957.77L249.528 1954.79L248.329 1947.54L237.889 1933.93L230.287 1924.04Z" fill="#FFAC1C"/>
<path d="M237.883 1933.98C200.529 1967.63 179.526 1996.18 168.055 2015.8C167.663 2016.46 167.24 2017.13 166.864 2017.81C167.244 2018.07 167.577 2018.36 167.895 2018.63C168.242 2018.93 168.622 2019.19 168.971 2019.46C169.654 2019.98 170.352 2020.48 171.021 2020.96C171.37 2021.2 171.719 2021.47 172.086 2021.65C172.42 2021.88 172.771 2022.08 173.137 2022.3C173.822 2022.72 174.509 2023.09 175.197 2023.42C176.436 2024 177.797 2024.66 179.189 2025.31C179.297 2025.33 179.388 2025.38 179.496 2025.41C179.679 2025.5 179.894 2025.59 180.077 2025.68C180.613 2025.92 181.133 2026.17 181.685 2026.39C181.73 2026.42 181.79 2026.48 181.838 2026.45C182.541 2026.8 183.246 2027.08 183.981 2027.39C184.011 2027.42 184.026 2027.43 184.089 2027.42C184.471 2027.59 184.839 2027.74 185.222 2027.91C185.297 2027.97 185.435 2028.03 185.512 2028.06C185.819 2028.17 186.064 2028.28 186.355 2028.4C186.584 2028.5 186.829 2028.61 187.06 2028.68C187.182 2028.72 187.304 2028.8 187.442 2028.85C187.749 2028.95 187.994 2029.07 188.301 2029.17C188.454 2029.24 188.654 2029.31 188.807 2029.38C190.457 2027.02 192.219 2024.54 194.076 2022.01C203.929 2008.45 216.637 1992.67 231.857 1976.37C233.362 1974.73 234.882 1973.13 236.449 1971.48C236.658 1971.24 236.866 1971 237.121 1970.76C240.72 1966.99 244.457 1963.23 248.288 1959.46C248.734 1959.04 249.134 1958.64 249.564 1958.24C249.692 1958.09 249.853 1957.91 250.011 1957.78L249.509 1954.8L248.31 1947.55L237.883 1933.98Z" fill="#FFEEB5"/>
</g>
</svg>
