<svg width="125" height="1842" viewBox="0 0 125 1842" fill="none" xmlns="http://www.w3.org/2000/svg">
<path d="M43.9144 32.1275C51.7168 36.806 53.9909 45.3359 53.9909 45.3359C54.8317 47.2725 52.9124 48.9913 51.1038 47.5384C51.1038 47.5384 50.9501 47.0032 50.6035 46.0899L50.5881 46.0698C49.5642 43.4134 46.8132 37.8256 41.0273 34.3301C40.0987 33.1129 42.3749 31.09 43.9144 32.1275Z" fill="#707070"/>
<path d="M46.8117 29.9173C54.594 34.6111 56.8882 43.1256 56.8882 43.1256C57.5812 44.6181 55.2463 46.272 53.981 45.3435C53.981 45.3435 51.7068 36.8137 43.9045 32.1352C43.5977 30.5232 45.5512 28.9534 46.8117 29.9173Z" fill="#9E9E9E"/>
<path d="M49.7189 27.6995C57.5012 32.3933 59.7954 40.9078 59.7954 40.9078C60.3658 42.5734 57.8256 43.8747 56.8882 43.1257C56.8882 43.1257 54.5939 34.6112 46.8117 29.9174C46.5009 28.7381 48.4785 26.7202 49.7189 27.6995Z" fill="#707070"/>
<path d="M37.5061 40.979C37.5061 40.979 45.6984 40.7449 50.5781 46.0774L50.5935 46.0975C50.9401 47.0108 51.0938 47.546 51.0938 47.546L46.2475 69.1468C45.5457 66.5789 44.5883 63.6967 43.2219 60.6332L37.5061 40.979Z" fill="#DEDEDE"/>
<path d="M19.451 34.0008L41.0197 34.32C46.8056 37.8155 49.5566 43.4033 50.5805 46.0597C45.7008 40.7272 37.5085 40.9613 37.5085 40.9613L43.2244 60.6155C39.3436 51.8154 32.2653 41.6193 19.451 34.0008Z" fill="#A6A6A6"/>
<path d="M-8.41758 42.8005C0.75163 35.1688 9.68418 29.2296 9.68418 29.2296C13.2666 30.6503 16.5011 32.2408 19.4233 34.006L19.4587 34.0108C32.2755 41.6116 39.3437 51.8154 43.2398 60.6356C44.5984 63.6891 45.5635 66.5813 46.2653 69.1492L46.2606 69.1846C47.9581 75.2898 48.0561 79.5278 48.0561 79.5278C48.0561 79.5278 47.1093 80.7275 45.4896 82.5679C42.315 49.3894 2.57077 45.0006 2.57077 45.0006L2.52047 45.039C0.0811626 42.9054 -2.21658 41.0617 -4.29945 39.4996C-5.6575 40.5357 -7.04283 41.6403 -8.41758 42.8005Z" fill="#E07800"/>
<path d="M-75.1714 93.3759L-79.5887 104.942L-68.5558 110.1L-58.9861 114.592L-56.7298 126.811L-56.7499 126.827L-56.5519 127.837L-56.3662 128.873L-54.5196 138.971L-54.1282 141.027L-52.4778 150.033L-52.2797 151.044L-52.1094 152.06L-50.5264 160.56L-50.3437 161.55L-50.1427 162.606L-48.9977 168.926L-48.624 170.981L-48.0811 173.924L-43.635 158.453L-12.285 136.59C-12.285 136.59 -10.9157 136.007 -9.24423 134.923L-9.07321 134.792C-8.04712 134.009 -2.80107 128.766 -11.8451 108.754C-11.8451 108.754 2.38203 104.728 2.78161 103.771C2.78161 103.771 2.27644 92.1565 -1.32481 88.1243C0.637033 90.0493 10.298 99.5005 11.0997 100.051C11.0997 100.051 13.0841 99.7939 16.129 99.2376C20.8841 98.3154 28.219 96.6028 34.3278 93.8044L34.348 93.7891C35.2901 92.9589 36.2247 92.1186 37.1237 91.2736C40.5038 88.0902 43.4809 84.8165 45.4866 82.5225C42.312 49.344 2.56774 44.9552 2.56774 44.9552L2.51744 44.9935L-10.2386 58.6876L-11.6144 62.8087L-15.5031 74.3372C-17.0869 73.7631 -34.8209 70.773 -34.8209 70.773C-47.7967 74.0199 -75.1714 93.3759 -75.1714 93.3759ZM-12.7308 130.373L-44.3686 151.088C-43.1631 145.951 -47.6242 139.519 -47.6242 139.519C-38.6061 133.212 -18.8766 112.909 -18.8766 112.909C-14.8159 118.962 -12.7308 130.373 -12.7308 130.373Z" fill="#FFAC1C"/>
<path d="M-1.33727 88.1497C0.624574 90.0746 10.2856 99.5258 11.0872 100.076C11.0872 100.076 24.3415 98.3831 34.3154 93.8297C31.4002 96.3083 28.3664 98.5273 25.5205 99.8868C15.4748 104.638 -4.17325 111.718 -4.17325 111.718L-3.75988 126.028C-3.30927 130.061 -6.47577 133.065 -9.07562 134.81C-8.04954 134.027 -2.80348 128.784 -11.8475 108.772C-11.8475 108.772 2.37962 104.746 2.77921 103.788C2.77154 103.778 2.25631 92.1718 -1.33727 88.1497Z" fill="#E07800"/>
<path d="M-4.30473 39.4719C-2.22186 41.0339 0.0758938 42.8776 2.51521 45.0112L-10.2408 58.7053L-11.6166 62.8264C-14.4939 60.0561 -17.5964 57.2827 -20.9491 54.5568C-20.4826 54.0418 -20.0061 53.5191 -19.484 52.9935C-19.1856 52.6545 -18.882 52.3433 -18.5606 52.0344C-18.109 51.5625 -17.6295 51.0854 -17.1424 50.6183C-16.309 49.7915 -15.4123 48.9643 -14.5157 48.137C-14.0161 47.6445 -13.5113 47.1798 -12.971 46.7198C-11.4813 45.3765 -9.93315 44.0681 -8.40751 42.7928C-7.04282 41.6403 -5.6575 40.5357 -4.30473 39.4719Z" fill="#F5D773"/>
<path d="M-10.2409 58.7053L2.51515 45.0112C14.9255 55.8342 30.6183 73.4631 37.1113 91.299C36.2123 92.144 35.2778 92.9842 34.3356 93.8144L34.3155 93.8297C31.4003 96.3084 28.3665 98.5273 25.5205 99.8868C23.9121 100.636 22.0766 101.464 20.0868 102.297C19.4438 102.581 18.7553 102.868 18.0768 103.147C17.4923 101.921 16.8364 100.624 16.1166 99.2629C10.7959 89.2219 2.08581 75.9897 -11.6191 62.8441L-10.2409 58.7053Z" fill="#FFEEB5"/>
<path d="M-59.6252 1620.91L-42.468 1622.66L-39.4359 1641.35L-36.7818 1657.59L-21.1143 1668.97L-21.0865 1668.95L-19.7948 1669.91L-18.4644 1670.87L-5.5118 1680.25L-2.87889 1682.18L8.67219 1690.55L9.9639 1691.51L11.2726 1692.43L22.1662 1700.37L23.4363 1701.29L24.7883 1702.29L32.899 1708.14L35.535 1710.05L39.3095 1712.79L16.8791 1708.44L-23.7257 1736.85C-23.7257 1736.85 -24.9981 1738.34 -27.0531 1739.91L-27.2897 1740.06C-28.7093 1740.94 -37.64 1744.62 -61.3975 1718.61C-61.3975 1718.61 -71.8788 1735.49 -73.311 1735.39C-73.311 1735.39 -88.7843 1726.83 -92.9393 1719.14C-91.0419 1723.15 -81.7364 1742.86 -81.2797 1744.34C-81.2797 1744.34 -82.3307 1746.9 -84.1624 1750.72C-87.0946 1756.65 -92.0088 1765.6 -97.9506 1772.12L-97.9784 1772.14C-99.432 1772.88 -100.896 1773.6 -102.355 1774.26C-107.846 1776.77 -113.316 1778.65 -117.12 1779.87C-160.709 1753.02 -152.504 1695.27 -152.504 1695.27L-152.434 1695.23L-129.446 1686.92L-123.403 1687.81L-106.484 1690.26C-106.695 1687.69 -104.424 1661.22 -104.424 1661.22C-95.4381 1645.54 -59.6252 1620.91 -59.6252 1620.91ZM-31.9458 1732.03L7.21249 1702.45C-0.139153 1700.63 -7.22263 1690.13 -7.22263 1690.13C-18.9267 1698.28 -53.2998 1711.73 -53.2998 1711.73C-46.5846 1721.42 -31.9458 1732.03 -31.9458 1732.03Z" fill="#FFAC1C"/>
<path d="M-2.68911 1595.13L68.5642 1676.71L62.9956 1711.87L54.5969 1704.52L44.8074 1695.97L34.4253 1686.87L22.0322 1676.03L9.72104 1665.26L-4.63373 1652.69L-21.9123 1637.61L-4.60696 1611.21L-9.54657 1601.55L-35.5172 1586.49L-2.68911 1595.13ZM41.4391 1686.32L57.5494 1698.97L61.3882 1677.65L42.6844 1654.79L41.4391 1686.32Z" fill="#FFAC1C"/>
<path d="M-21.912 1637.61L-36.7817 1657.59L-21.1142 1668.97L-19.7947 1669.91L-18.4643 1670.87L-5.53643 1680.24L-2.87876 1682.18L8.67231 1690.55L9.95319 1691.49L11.2727 1692.43L22.1803 1700.36L23.4503 1701.29L24.8024 1702.28L32.913 1708.14L34.2047 1709.09L35.5351 1710.05L39.3097 1712.79L43.539 1715.83L44.8199 1716.77L46.1503 1717.73L53.4364 1723.04L62.996 1711.87L55.8271 1705.57L54.5864 1704.51L53.3349 1703.43L46.0593 1697.05L44.7969 1695.95L43.5454 1694.88L35.6417 1687.92L34.4149 1686.85L33.1633 1685.77L23.2485 1677.08L22.0217 1676.01L20.7702 1674.93L10.959 1666.35L10.9482 1666.33L9.70748 1665.27L8.45904 1664.16L-3.39575 1653.78L-3.40658 1653.76L-5.90964 1651.61L-21.912 1637.61Z" fill="#FFEDBF"/>
<path d="M-53.2753 1711.74C-46.5849 1721.42 -31.9461 1732.03 -31.9461 1732.03L7.21218 1702.45C-0.139458 1700.63 -7.22294 1690.12 -7.22294 1690.12C-18.9162 1698.3 -53.2753 1711.74 -53.2753 1711.74Z" fill="#FFE17D"/>
<path d="M42.6708 1654.8L41.4394 1686.32L57.5357 1698.98L61.3745 1677.66L42.6708 1654.8Z" fill="#FFE17D"/>
<path d="M43.5391 1715.83C43.5484 1715.75 43.5963 1715.67 43.6442 1715.59L53.335 1703.43L54.5973 1704.52L55.838 1705.59C55.8319 1705.64 55.8009 1705.68 55.7731 1705.7L46.1612 1717.74L43.5391 1715.83Z" fill="#FFD05C"/>
<path d="M32.9129 1708.13C32.95 1708.04 32.9979 1707.96 33.0459 1707.88L43.5345 1694.86L44.7968 1695.95L46.0592 1697.05C46.053 1697.1 46.0221 1697.15 46.0082 1697.15L35.535 1710.05L32.9129 1708.13Z" fill="#FFD05C"/>
<path d="M33.1631 1685.77L22.296 1700.15C22.2481 1700.22 22.1893 1700.28 22.1801 1700.36L23.4501 1701.29L24.8021 1702.28L35.5904 1688.03C35.6183 1688.01 35.6383 1687.95 35.6554 1687.91L34.4146 1686.85L33.1631 1685.77Z" fill="#FFD05C"/>
<path d="M20.7705 1674.93L8.7777 1690.32C8.72978 1690.4 8.67102 1690.46 8.6726 1690.55L9.96431 1691.51L11.273 1692.43L23.2086 1677.2C23.2365 1677.19 23.2674 1677.14 23.2596 1677.1L22.0189 1676.04L20.7705 1674.93Z" fill="#FFD05C"/>
<path d="M8.45903 1664.16L-5.36484 1679.99C-5.44059 1680.08 -5.49935 1680.14 -5.53644 1680.24L-2.90352 1682.17L10.8384 1666.49C10.8941 1666.46 10.9142 1666.4 10.9451 1666.35L10.9234 1666.32L9.68273 1665.26L8.45903 1664.16Z" fill="#FFD05C"/>
<path d="M-5.90955 1651.61L-20.975 1668.67C-21.0508 1668.76 -21.1234 1668.83 -21.1389 1668.96L-19.8193 1669.9L-18.4889 1670.86L-3.53017 1653.94C-3.48225 1653.86 -3.4405 1653.83 -3.40958 1653.79L-3.43124 1653.76L-5.90955 1651.61Z" fill="#FFD05C"/>
<path d="M-9.54632 1601.55L-4.60671 1611.21L-21.9121 1637.61L-36.7818 1657.59L-39.4359 1641.35L-42.4819 1622.66L-44.1103 1612.58L-51.7107 1606.11L-91.4339 1629.14L-46.9487 1595.18L-44.6014 1609.65L-45.6039 1603.42L-46.9487 1595.18L-44.4669 1593.27L-42.3872 1591.71L-39.426 1589.46L-37.9261 1588.33L-35.5201 1586.52L-9.54632 1601.55Z" fill="#D27100"/>
<path d="M50.3081 854.314C49.7455 850.86 49.4679 847.425 50.3712 843.739C45.8391 830.921 44.3342 830.338 33.5367 835.025C32.3532 836.415 31.5764 837.993 31.4498 840.101C32.4143 846.02 29.5506 852.674 32.2659 858.38C36.2548 858.632 35.5583 860.704 33.5981 863.672C31.3043 870.362 32.841 875.178 38.3299 878.292C39.8739 879.692 41.5809 880.939 43.288 882.187C44.4666 883.075 45.9716 883.658 47.5594 883.596C52.4126 879.347 46.5997 875.398 48.2775 871.273C49.0226 865.462 50.7441 859.875 50.3081 854.314Z" fill="#F8AE55"/>
<path d="M6.66788 980.825C11.0304 969.956 17.9156 961.117 25.7852 953.276C29.3227 949.724 32.9012 945.861 33.7571 940.427C33.2494 938.986 32.183 938.61 30.7166 939.15C14.7723 956.387 -2.51033 972.135 -13.5322 994.363C-6.2208 996.048 -1.02207 992.594 6.66788 980.825Z" fill="#FB9F30"/>
<path d="M32.2978 837.561C41.4278 830.764 44.8941 838.671 49.5578 844.034C54.9214 833.894 44.342 830.618 43.8706 823.06C37.0126 824.598 36.8284 817.058 33.3492 813.733C30.7705 811.281 29.4086 813.979 27.8854 815.685C27.1239 823.82 25.4589 832.227 32.2978 837.561Z" fill="#FACE99"/>
<path d="M12.0351 792.387C10.4249 784.809 4.53676 782.647 -0.991291 783.272C-4.77147 783.682 -7.81533 781.701 -11.3524 782.452C-13.3159 788.828 -12.1484 794.265 -7.60445 797.966C-2.03511 797.02 2.63045 800.891 8.03693 800.096C10.5601 798.306 12.4341 795.988 12.0351 792.387Z" fill="#FCE0BE"/>
<path d="M31.7791 939.175C32.1371 939.675 32.6551 940.026 33.0131 940.527C34.6544 938.717 36.0163 936.891 37.6576 935.082C39.1853 930.876 36.7231 925.942 40.8846 922.06C41.3705 919.382 40.4566 917.732 38.6639 916.345C37.7471 915.81 36.6296 915.74 35.6314 915.837C31.4757 917.489 28.6703 921.775 24.9512 924.41C19.3899 929.32 19.4484 937.608 15.1618 943.553C14.4809 944.467 16.2329 946.169 17.7084 946.739C22.3765 947.668 24.8616 943.681 28.1821 940.862C29.579 940.949 29.867 937.622 31.7791 939.175Z" fill="#F79E32"/>
<path d="M7.14242 980.383C0.598374 985.372 -5.62962 991.174 -12.8465 994.852C-17.1381 992.208 -21.0863 994.502 -25.1942 996.945C-28.1876 999.457 -29.7097 1002.54 -28.9654 1006.55C-23.9228 1010.98 -17.6948 1005.18 -12.4858 1007.25C-9.49907 1006.96 -7.26339 1004.87 -5.66311 1002.28C-3.1354 995.769 2.92623 992.336 5.57287 985.996C6.93193 984.177 7.85266 982.489 7.14242 980.383Z" fill="#FBD09D"/>
<path d="M-8.65467 1028.91C-6.02421 1028.12 -3.39375 1027.33 -0.763291 1026.54C4.07243 1020.65 10.1011 1015.31 9.4512 1006.23C8.38051 1004.73 7.06527 1005.13 5.82825 1006C3.47318 1007.92 2.50827 1011.04 0.391131 1013.29C-1.36581 1014.92 -3.31992 1015.91 -5.55272 1016.88C-7.1874 1017.58 -8.94106 1018.1 -10.8137 1018.46C-12.2479 1018.69 -13.6039 1019.4 -14.7219 1020.44C-16.6793 1022.54 -17.5627 1025.03 -17.0935 1027.91C-16.8181 1029.04 -16.3422 1029.71 -15.4279 1030.24C-13.1202 1030.86 -11.0439 1028.92 -8.65467 1028.91Z" fill="#F9B769"/>
<path d="M50.7434 854.467C48.1927 859.699 46.3373 865.137 46.6093 870.872C51.5665 885.069 51.5665 885.069 57.4982 886.094C56.9311 883.771 55.6688 881.242 56.0833 879.144C58.3591 869.321 55.4314 861.786 50.7434 854.467Z" fill="#FCE1C0"/>
<path d="M28.3125 816.172C29.6161 814.954 30.6764 813.395 32.6685 813.521C29.2652 807.615 29.4903 796.898 18.7909 799.797C14.8458 800.359 12.7665 803.154 12.351 807.518C14.772 816.614 24.4617 810.399 28.3125 816.172Z" fill="#F9BA6E"/>
<path d="M37.9319 918.655C38.8881 919.992 39.7249 921.162 39.2007 923.045C36.5984 924.638 34.2325 927.683 37.1066 929.46C41.0183 931.941 43.1478 927.444 44.7965 923.397C49.6532 915.24 54.23 907.065 54.0938 897.158C53.5369 896.005 52.6975 895.953 51.5376 896.199C50.0164 897.062 49.1336 898.443 48.3704 899.992C46.9934 907.409 43.3809 913.569 37.9319 918.655Z" fill="#FBD4A6"/>
<path d="M14.1366 808.356C13.2607 804.12 16.7609 802.252 18.655 799.639C15.5221 798.636 17.8673 791.389 12.559 792.981C10.5446 795.425 8.53031 797.87 6.39572 800.146C6.0262 804.142 2.5601 809.067 6.5734 812.055C9.42286 814.166 12.6011 812.599 14.1366 808.356Z" fill="#F8BB71"/>
<path d="M52.0756 896.672C52.4858 896.861 52.854 897.375 53.2643 897.564C56.8471 894.511 58.5014 890.683 58.1044 885.909C51.1268 883.839 52.675 874.11 47.1803 870.658C42.2761 876.085 50.4037 878.227 48.7881 882.876C48.7328 887.785 48.8002 892.866 52.0756 896.672Z" fill="#FAC485"/>
<path d="M45.2096 923.193C43.9603 924.079 42.9518 925.303 41.7433 925.871C40.6553 926.606 39.8856 929.295 38.6405 927.927C36.8729 926.204 38.8081 924.395 39.4553 922.665C29.1059 925.871 37.1052 931.05 37.5397 935.426C43.2982 933.699 44.9173 928.81 45.2096 923.193Z" fill="#FACB92"/>
<path d="M6.51006 1007.09C7.38799 1006.83 8.26594 1006.56 9.10313 1006.62C12.3796 1004.12 14.5837 1000.12 18.4152 998.767C18.5374 997.82 18.4997 997.023 17.9039 996.191C17.2674 995.674 16.4302 995.622 15.7122 995.736C12.5986 996.974 10.0779 1000.16 6.3309 999.765L6.40928 1000.25C4.0138 1001.37 3.88852 1003.43 4.28062 1005.84C4.55662 1006.97 5.35306 1007.34 6.51006 1007.09Z" fill="#F8B360"/>
<path d="M6.08428 999.886C10.1387 1002.2 12.7757 999.189 15.4535 995.863C12.8232 996.653 10.1929 997.442 7.56254 998.232L6.88285 999.142L6.08428 999.886Z" fill="#F9BD75"/>
<path d="M15.5013 996.149C16.1447 996.673 16.5063 997.18 17.1497 997.704C17.9954 997.758 19.0025 997.661 19.9299 997.076C20.6572 995.833 20.6593 994.705 19.734 994.162C17.9242 992.758 16.7924 994.942 15.5013 996.149Z" fill="#F9BD75"/>
<path d="M20.1104 997.258C19.106 997.355 18.2217 997.62 17.3375 997.885C17.698 998.39 18.2196 998.744 18.5802 999.249C18.9428 998.63 19.4665 997.86 20.1104 997.258Z" fill="#F9C07C"/>
<path d="M14.6471 808.319C7.69279 810.51 7.69276 810.51 9.27466 803.891C10.106 800.829 7.59722 801.166 6.61462 799.794C3.63497 792.565 -0.930019 793.102 -6.32971 797.847L-5.83841 798.533C-8.122 806.092 -4.43723 811.235 -0.668329 815.728C1.87232 818.506 6.55669 819.287 5.18177 825.428C4.89064 826.557 5.50135 828.561 6.57151 828.136C18.6276 824.621 13.9376 839.568 19.5591 843.192C19.84 845.503 20.4087 847.832 22.4614 848.778C23.6123 848.85 24.6404 848.749 25.7106 848.324C29.086 846.894 31.5595 844.59 32.1065 840.364C32.1099 839.217 31.9484 838.224 31.9518 837.077C30.9863 829.973 29.7329 822.85 28.7674 815.745C27.8337 811.756 28.6331 805.579 21.879 809.585C19.2019 811.222 16.6965 810.412 14.6471 808.319Z" fill="#F49C32"/>
<path d="M33.5478 840.12C31.6278 843.016 28.875 844.751 26.044 846.004C21.2016 854.115 13.7793 859.369 8.18237 866.799C5.18505 870.422 1.19523 873.032 -2.04002 876.323C-4.39844 879.351 -6.87582 882.213 -5.7335 886.409C-0.12878 889.771 3.90839 884.625 7.58206 881.202C11.215 878.094 15.2048 875.484 16.5641 873.664C14.0085 876.045 9.06034 879.548 5.06392 884.379C3.10316 887.59 0.0276149 890.733 2.88286 894.718C12.603 893.414 18.6791 885.538 24.9932 877.994C27.0861 870.506 33.1557 864.851 33.777 856.796C31.4824 851.735 36.6376 845.548 33.5478 840.12Z" fill="#F79622"/>
<path d="M34.3905 857.376C30.7795 863.297 25.5928 868.146 25.1739 875.889C25.3317 878.003 24.6402 880.063 23.8277 881.954C22.6479 885.601 20.5776 889.516 22.7951 893.38C27.3165 898.2 32.5378 896.429 37.8022 893.203C39.3515 886.666 42.2931 892.68 44.5601 891.691C50.676 887.387 45.6685 883.022 45.4738 878.963C43.8183 877.4 42.4459 875.856 40.7903 874.294C38.1602 874.774 33.9482 877.581 33.8272 877.411C32.178 872.45 33.8052 867.536 35.9986 862.658C39.0392 858.968 36.8564 858.181 34.3905 857.376Z" fill="#F59A2C"/>
<path d="M45.9018 879.34C43.6623 883.418 47.9543 887.911 44.2948 891.898C42.3782 896.808 41.6387 901.467 46.1369 904.35C47.6804 903.475 48.8598 902.089 48.9856 899.987C50.0024 898.753 51.0192 897.519 52.0359 896.285C51.8021 891.401 53.2331 885.812 48.9388 882.455C47.9265 881.417 46.9142 880.379 45.9018 879.34Z" fill="#F6A23D"/>
<path d="M35.6434 862.614C27.4863 868.549 31.0612 876.2 31.973 884.649C34.6424 880.462 36.827 876.729 40.3799 874.534C32.9206 873.898 35.8764 867.47 35.6434 862.614Z" fill="#F7A039"/>
<path d="M-23.7567 997.017C-20.2842 995.972 -16.853 995.234 -13.3804 994.189C1.74347 975.663 16.9845 957.298 32.2668 938.626C32.9421 937.734 34.017 935.935 33.073 935.727C31.1852 935.311 30.4203 937.903 29.1526 939.072C21.1945 945.601 13.5879 952.614 6.3326 960.112C-5.23586 970.778 -16.6872 981.605 -29.6198 990.025C-42.2285 997.068 -51.8748 1008.93 -64.2493 1016.29C-65.3172 1017.01 -66.2267 1017.58 -67.1775 1018.45C-70.7879 1022.59 -75.3009 1026.21 -75.7352 1032.54C-73.2136 1038.57 -69.3277 1034.45 -66.048 1032.78C-58.8962 1029.15 -52.3988 1023.16 -44.2825 1022.68C-41.554 1020.97 -40.9476 1018.53 -41.0853 1015.42C-43.1315 1008.95 -37.4886 1007.25 -34.519 1004.78C-31.3495 1001.86 -28.2145 998.163 -23.7567 997.017Z" fill="#FC9D27"/>
<path d="M18.0231 944.894C17.7871 944.567 17.5511 944.239 17.4332 944.075C22.9561 939.227 21.5288 930.988 25.7489 925.435C25.4769 924.321 24.728 923.65 23.6611 923.273C13.9428 928.187 11.1125 932.724 11.145 943.076C11.104 943.387 11.222 943.551 10.3092 944.124C2.01663 948.809 -5.18293 956.851 -14.8455 958.161C-21.9433 961.192 -28.3741 965.516 -34.3739 970.806C-37.0404 974.099 -41.6095 978.063 -39.0546 981.977C-36.1868 986.695 -30.7917 983.878 -26.4685 981.781C-24.0889 980.667 -22.3763 978.26 -19.9967 977.146C-16.1864 974.705 -12.376 972.265 -8.44771 969.988C0.27583 966.27 6.92144 958.195 14.86 953.019C17.5215 950.824 19.5111 948.433 18.0231 944.894Z" fill="#F89620"/>
<path d="M23.1924 924.564C23.8302 925.082 24.1884 925.583 24.8262 926.101C30.379 925.652 31.8721 919.527 35.6746 916.257C41.4312 914.226 45.5947 910.341 46.2519 903.047C45.7827 899.032 45.3134 895.016 44.684 891.15C42.6513 889.428 40.665 885.158 38.5313 891.881C34.3918 902.145 22.5585 906.506 20.5711 918.66C20.5248 921.208 20.9181 923.624 23.1924 924.564Z" fill="#F69621"/>
<path d="M18.3327 945.55C13.3439 955.826 2.76823 958.023 -4.3311 965.385C-5.7579 966.701 -7.41918 967.694 -8.8047 968.703C-10.8178 969.21 -12.2858 970.835 -11.4304 972.746C-10.6922 974.496 -8.48594 974.62 -6.82464 973.628C-1.99925 970.795 2.23992 967.153 6.5963 963.673C15.3091 956.713 22.415 948.265 29.4449 939.346C24.4808 939.066 22.4347 945.005 18.3327 945.55Z" fill="#EB8913"/>
<path d="M46.4839 903.855C42.8493 908.069 39.3335 912.45 35.8177 916.83C36.4529 917.345 37.088 917.86 37.8421 918.54C48.9089 917.637 47.9445 907.749 49.6397 900.086C48.641 901.293 47.6423 902.499 46.4839 903.855Z" fill="#F8A849"/>
<path d="M4.91518 1005.26C5.43867 1003.38 5.96217 1001.51 6.20664 999.615C2.02443 998.242 -2.00412 998.946 -6.15488 1000.6C-7.47779 1003.22 -9.15808 1005.34 -12.2273 1005.15C-15.8577 1006.03 -19.8455 1006.42 -22.2091 1010.57C-23.7358 1014.77 -28.0903 1017.99 -26.231 1023.2C-21.3433 1028.91 -17.9702 1020.21 -13.7849 1020.47C-12.788 1020.38 -11.6719 1020.44 -10.515 1020.2C-8.36127 1019.86 -7.3174 1017.22 -5.24202 1016.39C-3.40492 1015.23 -1.21038 1014.58 0.548328 1012.94C2.38853 1010.67 3.99043 1008.06 4.91518 1005.26Z" fill="#F19423"/>
<path d="M5.1757 1005.8C3.17307 1008.23 1.01033 1010.8 -1.11168 1013.06C-1.11729 1015.29 0.0384945 1016.16 1.87542 1016.11C3.40056 1013.02 5.04508 1010.1 6.73032 1006.85C6.21211 1006.5 5.69391 1006.15 5.1757 1005.8Z" fill="#F9BD75"/>
<path d="M1.97745 1015.91C0.975492 1014.88 -0.0264428 1013.86 -1.0284 1012.83C-2.55626 1013.7 -3.96402 1014.73 -5.49188 1015.6C-5.89539 1016.54 -6.01776 1017.49 -5.57799 1018.48C-2.92803 1018.81 -0.554643 1016.88 1.97745 1015.91Z" fill="#FBD8AE"/>
<path d="M21.4541 841.728C21.216 839.119 26.2495 834.414 19.1983 834.775C16.321 834.916 15.1931 831.44 16.8601 828.466C18.1612 826.117 21.6489 824.555 18.4123 821.918C16.2279 819.995 13.7144 820.646 11.4412 822.771C10.4669 823.681 9.33035 824.744 8.03138 825.958C6.98569 821.839 9.34118 819.07 10.4431 814.925C-1.67629 816.91 -1.97948 805.866 -5.08405 797.725C-6.66663 798.921 -8.12794 800.287 -10.0721 799.839C-11.9772 800.204 -13.1139 801.267 -13.1182 803.536C-17.0108 804.909 -20.0396 799.529 -24.0577 803.002C-24.3825 803.305 -24.8696 803.761 -25.0731 804.234C-26.7791 806.395 -27.959 808.914 -27.5996 811.693C-26.7141 814.83 -25.2202 817.681 -22.7522 819.621C-19.797 821.106 -16.6362 820.983 -13.6334 818.743C-12.9839 818.135 -12.4145 817.037 -11.2801 817.109C-12.4167 818.172 -13.3108 819.574 -13.5165 821.182C-13.1549 822.826 -12.3063 824.015 -10.8492 824.918C-8.74706 827.484 -5.45418 821.857 -3.63777 825.54C-5.88928 837.555 -16.6729 840.273 -22.685 848.159C-23.3756 849.088 -23.7826 850.035 -24.2307 851.303C-26.9174 857.779 -17.9177 855.596 -18.9006 861.045C-11.977 863.918 -6.2572 860.553 -0.089261 855.92C5.14559 851.876 9.09011 844.508 16.3838 844.486C18.5315 844.46 20.2353 843.434 21.4541 841.728Z" fill="#F49522"/>
<path d="M22.1236 842.468C20.1044 841.874 18.8313 843.057 17.5172 844.551C7.52186 846.155 1.93393 855.732 -5.54162 861.577C-8.05154 864.73 -11.1163 867.851 -9.35139 872.519C-3.45304 874.446 0.534546 868.549 5.57754 866.334C12.5756 860.933 19.4146 855.679 23.7294 847.284C23.1017 845.673 22.7513 844.079 22.1236 842.468Z" fill="#F79622"/>
<path d="M23.941 847.733C17.3106 853.602 10.839 859.324 4.0907 865.03C4.78158 869.295 7.39455 868.509 10.2842 867.74C15.1727 862.394 20.1022 856.738 25.2263 851.719C27.9267 849.218 26.8664 847.748 25.5705 845.951C24.9351 846.54 24.4176 847.292 23.941 847.733Z" fill="#EC8B17"/>
<path d="M23.9913 889.925C23.2481 885.919 26.7185 882.963 27.0482 879.34C20.7704 876.895 19.3538 884.57 15.3674 887.177C11.7003 889.486 9.17703 894.875 4.12827 893.773C3.42586 889.453 6.89264 887.606 8.81129 884.714C4.08872 881.097 1.99998 887.464 -1.30724 889.162C-8.78145 900.267 -18.7101 907.577 -29.036 914.705C-30.8696 915.86 -31.4229 914.717 -32.6146 914.168C-40.1726 914.02 -46.5529 918.856 -53.3642 921.606C-54.8786 922.463 -55.9178 923.983 -56.0436 926.035C-55.0185 928.95 -52.479 931.007 -50.4078 930.184C-44.1941 927.714 -49.2638 933.264 -48.1129 934.127C-45.733 936.333 -44.2931 933.886 -42.6972 932.4C-49.6413 939.419 -58.6835 943.141 -64.677 951.485C-65.8012 954.743 -63.7404 957.246 -63.2721 960.126C-60.2538 961.737 -58.298 959.64 -56.1825 957.394C-53.9074 954.999 -54.6715 957.645 -54.5154 958.605C-51.7791 961.308 -47.8335 959.016 -44.8559 960.941C-38.0516 960.409 -33.301 955.156 -28.4724 950.384C-24.3905 942.714 -14.5679 943.793 -12.4384 937.112C-10.0409 933.774 -10.5267 936.437 -11.3585 935.277C-11.5961 934.946 -11.6369 935.26 -12.1157 935.706C-13.3552 937.689 -15.2703 939.472 -13.7664 941.941C-7.16948 944.089 -5.55601 937.06 -1.84455 933.327C-2.54347 927.898 2.03353 927.229 4.70587 925.017C6.14222 923.68 7.81617 922.674 9.01489 921.005C12.1322 916.444 19.2663 912.288 14.8699 906.156C10.1171 899.527 6.82262 909.781 2.36446 910.615C-3.29941 915.337 -7.25906 922.064 -13.0418 926.619C-6.62068 921.469 -2.33835 913.336 4.83642 908.866C11.261 902.608 20.578 900.012 23.9913 889.925Z" fill="#F6941D"/>
<path d="M10.4336 867.149C8.45208 866.24 6.47058 865.331 4.21126 864.405C-0.674895 865.371 -3.94706 870.064 -8.04462 872.498C-14.6793 873.99 -17.9555 879.787 -21.3502 885.42C-23.9442 889.208 -17.5993 891.013 -20.3527 894.949C-19.2454 896.121 -17.9749 896.04 -16.5042 895.498C-9.85744 890.694 -8.86536 879.865 -0.35961 876.91C3.14551 873.651 7.71706 871.876 10.4336 867.149Z" fill="#F28F19"/>
<path d="M0.0519507 876.903C-10.036 876.921 -11.9389 887.229 -16.769 894.2C-19.1715 899.74 -26.7248 901.807 -26.0368 909.43C-16.5417 908.586 -10.796 901.039 -5.28747 893.161C-4.28645 890.853 -3.95988 888.346 -4.62658 885.936C-5.32631 881.629 -1.58661 879.804 0.0519507 876.903Z" fill="#F6941E"/>
<path d="M-4.29698 886.583C-5.60842 888.069 -6.52565 889.735 -5.82483 891.807C-5.08845 894.662 -2.94746 893.225 -1.24729 893.011C1.76985 890.218 3.13891 885.141 7.9985 885.268C11.4675 879.064 18.8267 877.148 21.8769 867.795C12.2013 874.575 3.87278 880.653 -4.29698 886.583Z" fill="#ED8B16"/>
<path d="M3.81982 894.639C2.15225 896.716 -0.025321 898.455 -0.87959 902.748C6.59034 898.826 12.0962 894.018 17.2919 888.417C20.0689 885.317 21.8328 880.454 26.5603 880.409C27.2837 878.124 26.3464 876.831 25.1334 875.522C18.9386 883.393 11.0278 888.531 3.81982 894.639Z" fill="#F18F1A"/>
<path d="M24.3873 891.299C17.7338 897.212 11.2396 902.977 4.46745 908.725C4.30416 909.978 3.74435 911.05 4.57434 912.206C5.68617 912.274 6.99434 912.985 7.6319 912.392C9.54458 910.613 10.2016 904.493 13.8811 908.508C17.3235 912.192 12.3903 914.577 10.7925 917.165C7.47831 922.175 2.85989 925.369 -2.15505 928.381C-6.25447 930.817 -4.51288 932.502 -1.4184 933.48C8.15467 933.115 13.434 922.696 21.4696 919.078C24.15 913.555 26.6303 908.494 32.0826 905.35C36.5008 902.618 38.7031 897.54 38.2075 891.666C33.6007 891.543 28.5819 895.661 24.3873 891.299Z" fill="#F3911B"/>
<path d="M6.25522 962.998C0.790776 964.243 -2.59754 969.838 -7.70828 971.574C-11.5119 972.916 -10.6302 970.462 -9.19492 968.04C-13.3112 968.581 -16.4894 971.527 -19.7855 974.309C-23.9069 975.946 -25.5113 980.707 -28.9253 983.325C-30.6015 986.516 -30.1402 989.363 -28.9663 992.095C-15.4846 985.056 -4.90944 973.618 6.25522 962.998Z" fill="#F3901A"/>
<path d="M22.2267 918.531C17.5863 917.619 13.7302 919.278 10.7769 923.674C7.66425 928.218 2.61938 929.332 -0.80779 933.068C-4.31258 936.327 -7.93583 939.42 -11.4406 942.678C-22.4861 945.795 -28.8257 953.614 -28.5846 963.567C-17.3144 964.092 -12.5066 951.921 -3.99376 946.757C-1.88597 945.623 -0.0927871 943.681 0.425984 942.924C3.21185 940.884 2.68498 943.849 2.61143 942.267C2.53381 941.789 2.09671 941.921 1.61879 942.365C-3.76093 948.191 -12.7763 949.696 -14.3611 959.696C-3.5279 960.352 3.02001 949.864 11.8474 945.508C12.6031 945.081 12.6848 944.455 12.8073 943.516C13.951 934.751 17.2678 928.642 23.8363 923.361C23.3256 921.91 22.6965 920.295 22.2267 918.531Z" fill="#F7941E"/>
<path d="M-14.3779 959.391C-9.44104 951.572 -0.3088 948.825 3.68793 939.705C-9.08199 943.645 -15.7941 958.531 -28.1703 962.649C-31.8372 961.971 -35.2338 962.399 -37.2322 966.959C-38.9132 971.226 -45.5419 970.844 -45.1428 977.256C-40.2476 977.071 -37.256 971.321 -32.5607 971.591C-26.5781 967.416 -20.478 963.404 -14.3779 959.391Z" fill="#EF8C16"/>
<path d="M-4.25262 863.271C1.80088 855.463 9.07651 848.985 17.1381 843.968C15.5569 843.245 19.0246 838.111 14.8575 840.062C11.8811 841.456 9.33614 843.817 6.90936 846.343C-0.330045 853.609 -7.76475 860.234 -18.0204 859.623C-24.6411 861.114 -28.1497 866.56 -30.5542 873.171C-27.1521 883.427 -21.0307 878.293 -15.2731 874.867C-10.7061 871.997 -9.29213 865.484 -4.25262 863.271Z" fill="#F18F19"/>
<path d="M-9.87929 824.026C-16.6276 829.732 -23.8061 834.474 -29.7298 841.323C-32.5016 842.255 -33.4189 843.922 -31.9696 846.666C-30.0385 847.874 -27.861 847.22 -25.6425 846.254C-16.4454 841.005 -8.54413 833.959 -2.17425 824.79C-1.13908 823.286 1.16151 821.7 0.419015 819.936C-0.441284 818.008 -2.58302 819.447 -4.13044 820.608C-5.9545 821.753 -8.05523 822.881 -9.87929 824.026Z" fill="#ED8B15"/>
<path d="M-1.9376 824.967C-11.1081 829.918 -17.289 839.761 -26.3004 844.565C-25.9962 847.568 -24.5378 849.226 -21.725 849.079C-14.7627 841.797 -1.80276 839.899 -1.9376 824.967Z" fill="#F79620"/>
<path d="M-29.6858 874.096C-31.6345 875.082 -33.0605 874.207 -34.2863 872.87C-35.1606 873.133 -36.0757 873.708 -36.6354 874.779C-37.7179 877.712 -38.1262 880.843 -39.368 883.924C-42.3745 891.948 -47.0031 898.453 -54.0833 902.284C-54.8799 903.025 -55.558 903.93 -56.1177 905.001C-56.6405 906.863 -56.7262 908.594 -55.9376 910.062C-55.3451 910.887 -54.434 911.415 -53.2042 911.648C-47.6068 911.672 -43.0271 907.689 -38.1736 904.827C-32.0046 900.467 -25.4393 896.289 -21.8771 888.299C-17.3711 882.733 -12.7057 877.02 -8.19958 871.454C-8.89851 867.151 -5.43807 865.309 -3.5221 862.427C-9.12344 863.508 -12.3997 869.306 -16.8569 872.349C-21.6737 876.002 -25.4896 877.349 -29.6858 874.096Z" fill="#F7951F"/>
<path d="M-25.4601 908.582C-27.9569 910.618 -30.5711 912.492 -33.068 914.528C-32.3696 916.591 -33.5624 918.235 -34.6439 921.13C-22.3246 912.185 -9.62426 905.596 -1.06884 892.546C-2.68396 892.142 -4.02301 891.754 -5.63812 891.351C-10.3804 899.795 -17.5885 904.83 -25.4601 908.582Z" fill="#F18E18"/>
<path d="M4.33813 911.5C4.34391 910.408 4.3497 909.316 4.23788 908.062C-4.66852 912.227 -8.63008 922.138 -15.1434 929.25C-6.75433 925.835 -1.46387 918.496 4.33813 911.5Z" fill="#F08D17"/>
</svg>
