<svg width="90" height="90" viewBox="0 0 90 90" fill="none" xmlns="http://www.w3.org/2000/svg">
<path d="M55.4048 65.7759H34.9104C34.6805 65.7759 34.4577 65.6965 34.2804 65.5515C34.1031 65.4064 33.9824 65.2047 33.9389 64.981C32.9116 59.7861 30.8554 54.8443 27.8891 50.4412C25.7696 47.3285 24.5473 43.7021 24.3534 39.9524C24.1596 36.2026 25.0017 32.4715 26.7891 29.1606C28.5765 25.8497 31.2415 23.0843 34.4973 21.1622C37.753 19.2401 41.4763 18.2339 45.2663 18.252C49.0564 18.2702 52.7697 19.3119 56.0065 21.265C59.2434 23.2182 61.8814 26.0089 63.6364 29.3368C65.3915 32.6646 66.1972 36.4036 65.9668 40.1513C65.7365 43.899 64.4788 47.5135 62.3292 50.6059C59.3706 54.9401 57.3446 59.8314 56.3773 64.9751C56.335 65.2001 56.2146 65.4033 56.037 65.5495C55.8594 65.6958 55.6357 65.7758 55.4048 65.7759ZM35.7168 63.8157H54.5915C55.6633 58.6913 57.7389 53.8248 60.7007 49.4915C62.644 46.693 63.7804 43.4226 63.9874 40.0321C64.1945 36.6416 63.4645 33.2593 61.876 30.2491C60.2875 27.2389 57.9005 24.7148 54.9719 22.9483C52.0434 21.1817 48.684 20.2396 45.2553 20.2234C41.8266 20.2071 38.4583 21.1172 35.5127 22.8559C32.5672 24.5945 30.1559 27.0959 28.5384 30.0909C26.9208 33.0858 26.1581 36.461 26.3324 39.8533C26.5066 43.2457 27.6113 46.5267 29.5274 49.3435C32.4893 53.7401 34.5897 58.6496 35.7187 63.8157H35.7168Z" fill="white"/>
<path d="M45.1628 79.6071C42.1776 79.5988 39.3176 78.4177 37.2103 76.3231C35.1029 74.2285 33.9203 71.3913 33.9219 68.4339V64.7987C33.9219 64.5388 34.0261 64.2895 34.2117 64.1057C34.3972 63.9219 34.6488 63.8186 34.9112 63.8186H55.4055C55.6679 63.8186 55.9196 63.9219 56.1051 64.1057C56.2907 64.2895 56.3949 64.5388 56.3949 64.7987V68.4339C56.4011 69.8991 56.1152 71.351 55.5535 72.7064C54.9919 74.0618 54.1655 75.2939 53.1219 76.332C52.0782 77.3702 50.8379 78.1939 49.4721 78.7559C48.1062 79.318 46.6418 79.6072 45.1628 79.6071ZM35.9006 65.7788V68.4339C35.8985 70.8715 36.8724 73.2105 38.6088 74.9376C40.3452 76.6647 42.7022 77.6391 45.1628 77.6469C46.3819 77.6469 47.589 77.4083 48.7147 76.9447C49.8404 76.4811 50.8626 75.8018 51.7224 74.9457C52.5823 74.0896 53.2629 73.0736 53.7252 71.9561C54.1875 70.8386 54.4223 69.6416 54.4162 68.4339V65.7788H35.9006Z" fill="white"/>
<path d="M55.4045 69.9491H34.9102C34.6479 69.9491 34.3962 69.8459 34.2107 69.6621C34.0251 69.4783 33.9209 69.229 33.9209 68.969C33.9209 68.7091 34.0251 68.4598 34.2107 68.276C34.3962 68.0922 34.6479 67.9889 34.9102 67.9889H55.4045C55.6669 67.9889 55.9186 68.0922 56.1041 68.276C56.2897 68.4598 56.3939 68.7091 56.3939 68.969C56.3939 69.229 56.2897 69.4783 56.1041 69.6621C55.9186 69.8459 55.6669 69.9491 55.4045 69.9491Z" fill="white"/>
<path d="M54.2036 74.2165H36.1114C35.849 74.2165 35.5974 74.1132 35.4118 73.9294C35.2263 73.7456 35.1221 73.4963 35.1221 73.2364C35.1221 72.9765 35.2263 72.7272 35.4118 72.5434C35.5974 72.3596 35.849 72.2563 36.1114 72.2563H54.2036C54.466 72.2563 54.7176 72.3596 54.9032 72.5434C55.0887 72.7272 55.1929 72.9765 55.1929 73.2364C55.1929 73.4963 55.0887 73.7456 54.9032 73.9294C54.7176 74.1132 54.466 74.2165 54.2036 74.2165Z" fill="white"/>
<path d="M45.1676 16.416C44.9052 16.416 44.6535 16.3128 44.468 16.129C44.2825 15.9452 44.1782 15.6959 44.1782 15.4359V11.9801C44.1782 11.7202 44.2825 11.4709 44.468 11.2871C44.6535 11.1033 44.9052 11 45.1676 11C45.43 11 45.6816 11.1033 45.8671 11.2871C46.0527 11.4709 46.1569 11.7202 46.1569 11.9801V15.4359C46.1569 15.6959 46.0527 15.9452 45.8671 16.129C45.6816 16.3128 45.43 16.416 45.1676 16.416Z" fill="white"/>
<path d="M33.3238 19.5603C33.15 19.5605 32.9792 19.5153 32.8286 19.4292C32.678 19.3432 32.5529 19.2194 32.466 19.0702L30.7238 16.078C30.6588 15.9665 30.6167 15.8434 30.5997 15.7157C30.5828 15.588 30.5914 15.4583 30.6251 15.334C30.6588 15.2096 30.7168 15.093 30.796 14.9909C30.8751 14.8887 30.9738 14.803 31.0864 14.7387C31.199 14.6743 31.3232 14.6326 31.4521 14.6158C31.581 14.599 31.7119 14.6076 31.8375 14.6409C31.963 14.6743 32.0807 14.7318 32.1838 14.8102C32.2869 14.8886 32.3734 14.9864 32.4383 15.0979L34.1825 18.0901C34.2694 18.2391 34.3151 18.4081 34.3151 18.5802C34.3151 18.7522 34.2694 18.9212 34.1826 19.0702C34.0957 19.2192 33.9708 19.343 33.8204 19.429C33.67 19.515 33.4994 19.5603 33.3258 19.5603H33.3238Z" fill="white"/>
<path d="M24.6504 28.1518C24.4767 28.1518 24.3061 28.1065 24.1557 28.0204L21.1352 26.2896C20.9079 26.1596 20.7419 25.9455 20.6739 25.6943C20.6059 25.4432 20.6414 25.1755 20.7726 24.9503C20.9038 24.725 21.12 24.5607 21.3735 24.4933C21.627 24.4259 21.8972 24.4611 22.1246 24.5911L25.146 26.319C25.3351 26.4267 25.483 26.5932 25.5667 26.7927C25.6503 26.9922 25.6651 27.2136 25.6087 27.4223C25.5523 27.631 25.4278 27.8154 25.2547 27.9468C25.0816 28.0782 24.8695 28.1492 24.6514 28.1488L24.6504 28.1518Z" fill="white"/>
<path d="M21.4778 39.8845H17.9893C17.727 39.8845 17.4753 39.7813 17.2898 39.5975C17.1042 39.4136 17 39.1644 17 38.9044C17 38.6445 17.1042 38.3952 17.2898 38.2114C17.4753 38.0276 17.727 37.9243 17.9893 37.9243H21.4778C21.7402 37.9243 21.9918 38.0276 22.1774 38.2114C22.3629 38.3952 22.4671 38.6445 22.4671 38.9044C22.4671 39.1644 22.3629 39.4136 22.1774 39.5975C21.9918 39.7813 21.7402 39.8845 21.4778 39.8845Z" fill="white"/>
<path d="M21.6312 53.3473C21.4131 53.3477 21.201 53.2767 21.0278 53.1453C20.8547 53.0139 20.7302 52.8295 20.6738 52.6208C20.6174 52.4121 20.6322 52.1907 20.7158 51.9912C20.7995 51.7917 20.9474 51.6251 21.1365 51.5175L24.158 49.7896C24.3853 49.6596 24.6555 49.6244 24.909 49.6918C25.1626 49.7591 25.3787 49.9235 25.5099 50.1488C25.6411 50.374 25.6766 50.6416 25.6086 50.8928C25.5406 51.144 25.3747 51.3581 25.1473 51.4881L22.1258 53.216C21.9756 53.3024 21.8049 53.3477 21.6312 53.3473Z" fill="white"/>
<path d="M57.0128 19.5603C56.8391 19.5603 56.6685 19.515 56.5181 19.429C56.3677 19.343 56.2428 19.2192 56.156 19.0702C56.0691 18.9212 56.0234 18.7522 56.0234 18.5802C56.0234 18.4081 56.0692 18.2391 56.156 18.0901L57.9002 15.0979C57.9652 14.9864 58.0517 14.8886 58.1548 14.8102C58.2579 14.7318 58.3755 14.6743 58.5011 14.6409C58.6266 14.6076 58.7576 14.599 58.8864 14.6158C59.0153 14.6326 59.1396 14.6743 59.2521 14.7387C59.3647 14.803 59.4634 14.8887 59.5425 14.9909C59.6217 15.093 59.6798 15.2096 59.7134 15.334C59.7471 15.4583 59.7557 15.588 59.7388 15.7157C59.7218 15.8434 59.6797 15.9665 59.6147 16.078L57.8705 19.0702C57.7836 19.2194 57.6586 19.3432 57.508 19.4292C57.3574 19.5153 57.1866 19.5605 57.0128 19.5603Z" fill="white"/>
<path d="M65.6849 28.1518C65.4668 28.1521 65.2547 28.0811 65.0815 27.9497C64.9084 27.8183 64.7839 27.6339 64.7275 27.4252C64.6711 27.2165 64.6859 26.9952 64.7696 26.7956C64.8532 26.5961 65.0011 26.4296 65.1902 26.3219L68.2117 24.594C68.439 24.464 68.7092 24.4289 68.9627 24.4962C69.2163 24.5636 69.4324 24.728 69.5636 24.9532C69.6948 25.1784 69.7303 25.4461 69.6623 25.6972C69.5943 25.9484 69.4284 26.1625 69.201 26.2925L66.1795 28.0204C66.0291 28.1065 65.8585 28.1518 65.6849 28.1518Z" fill="white"/>
<path d="M72.3464 39.8845H68.858C68.5956 39.8845 68.344 39.7813 68.1584 39.5975C67.9729 39.4136 67.8687 39.1644 67.8687 38.9044C67.8687 38.6445 67.9729 38.3952 68.1584 38.2114C68.344 38.0276 68.5956 37.9243 68.858 37.9243H72.3464C72.6088 37.9243 72.8605 38.0276 73.046 38.2114C73.2315 38.3952 73.3358 38.6445 73.3358 38.9044C73.3358 39.1644 73.2315 39.4136 73.046 39.5975C72.8605 39.7813 72.6088 39.8845 72.3464 39.8845Z" fill="white"/>
<path d="M68.7041 53.3473C68.5304 53.3477 68.3597 53.3024 68.2094 53.216L65.1889 51.4881C64.9616 51.3581 64.7956 51.144 64.7276 50.8928C64.6596 50.6416 64.6951 50.374 64.8263 50.1488C64.9575 49.9235 65.1737 49.7591 65.4272 49.6918C65.6807 49.6244 65.9509 49.6596 66.1783 49.7896L69.1997 51.5175C69.3888 51.6251 69.5367 51.7917 69.6204 51.9912C69.7041 52.1907 69.7188 52.4121 69.6624 52.6208C69.606 52.8295 69.4815 53.0139 69.3084 53.1453C69.1353 53.2767 68.9232 53.3477 68.7051 53.3473H68.7041Z" fill="white"/>
<path d="M45.1673 54.2714C42.1359 54.2714 39.1725 53.3809 36.652 51.7124C34.1315 50.044 32.167 47.6725 31.0069 44.898C29.8469 42.1235 29.5434 39.0705 30.1349 36.1251C30.7264 33.1798 32.1862 30.4743 34.3298 28.3508C36.4735 26.2274 39.2046 24.7814 42.1778 24.1956C45.151 23.6099 48.2327 23.9107 51.0333 25.0601C53.834 26.2094 56.2276 28.1557 57.9117 30.6528C59.5957 33.1499 60.4944 36.0856 60.4942 39.0887C60.4895 43.1141 58.8732 46.9733 55.9998 49.8197C53.1264 52.666 49.2307 54.267 45.1673 54.2714ZM45.1673 25.8652C42.5273 25.8652 39.9465 26.6407 37.7514 28.0937C35.5563 29.5467 33.8454 31.612 32.8351 34.0283C31.8248 36.4445 31.5605 39.1033 32.0755 41.6684C32.5906 44.2336 33.8619 46.5898 35.7286 48.4391C37.5954 50.2884 39.9739 51.5479 42.5632 52.0581C45.1525 52.5683 47.8364 52.3065 50.2754 51.3056C52.7145 50.3047 54.7992 48.6099 56.266 46.4353C57.7327 44.2607 58.5155 41.704 58.5155 39.0887C58.5116 35.5828 57.104 32.2216 54.6016 29.7425C52.0992 27.2635 48.7063 25.8691 45.1673 25.8652Z" fill="white"/>
<path d="M45.1687 48.332C43.8008 48.3305 42.4892 47.7915 41.5218 46.8333C40.5544 45.8751 40.0101 44.576 40.0083 43.2208C40.0083 42.9608 40.1125 42.7116 40.2981 42.5278C40.4836 42.3439 40.7353 42.2407 40.9977 42.2407C41.26 42.2407 41.5117 42.3439 41.6972 42.5278C41.8828 42.7116 41.987 42.9608 41.987 43.2208C41.987 43.8442 42.1736 44.4536 42.5232 44.9719C42.8728 45.4903 43.3698 45.8943 43.9511 46.1329C44.5325 46.3714 45.1723 46.4338 45.7895 46.3122C46.4067 46.1906 46.9736 45.8904 47.4186 45.4496C47.8635 45.0088 48.1666 44.4471 48.2893 43.8357C48.4121 43.2243 48.3491 42.5905 48.1083 42.0146C47.8675 41.4386 47.4596 40.9463 46.9364 40.6C46.4132 40.2536 45.798 40.0688 45.1687 40.0688C44.1481 40.0688 43.1504 39.769 42.3018 39.2072C41.4531 38.6455 40.7917 37.8471 40.4011 36.9129C40.0105 35.9788 39.9083 34.9509 40.1075 33.9592C40.3066 32.9676 40.7981 32.0567 41.5198 31.3417C42.2415 30.6268 43.161 30.1399 44.162 29.9426C45.163 29.7454 46.2006 29.8466 47.1435 30.2335C48.0865 30.6205 48.8924 31.2757 49.4595 32.1164C50.0265 32.9571 50.3292 33.9455 50.3292 34.9566C50.3292 35.2165 50.2249 35.4658 50.0394 35.6496C49.8539 35.8334 49.6022 35.9367 49.3398 35.9367C49.0774 35.9367 48.8258 35.8334 48.6402 35.6496C48.4547 35.4658 48.3505 35.2165 48.3505 34.9566C48.3505 34.3332 48.1639 33.7238 47.8143 33.2054C47.4646 32.6871 46.9677 32.2831 46.3863 32.0445C45.8049 31.8059 45.1652 31.7435 44.548 31.8652C43.9308 31.9868 43.3639 32.287 42.9189 32.7278C42.4739 33.1686 42.1709 33.7302 42.0481 34.3417C41.9254 34.9531 41.9884 35.5869 42.2292 36.1628C42.47 36.7388 42.8778 37.231 43.4011 37.5774C43.9243 37.9237 44.5394 38.1086 45.1687 38.1086C45.8524 38.0992 46.5311 38.2245 47.1654 38.4772C47.7997 38.7299 48.377 39.1049 48.8638 39.5805C49.3506 40.0561 49.7371 40.6228 50.0009 41.2476C50.2648 41.8725 50.4006 42.543 50.4006 43.2203C50.4006 43.8976 50.2648 44.5681 50.0009 45.193C49.7371 45.8178 49.3506 46.3845 48.8638 46.8601C48.377 47.3357 47.7997 47.7107 47.1654 47.9634C46.5311 48.2161 45.8524 48.3414 45.1687 48.332Z" fill="white"/>
<path d="M45.1676 31.8046C44.9052 31.8046 44.6535 31.7014 44.468 31.5176C44.2825 31.3338 44.1782 31.0845 44.1782 30.8245V29.5239C44.1782 29.264 44.2825 29.0147 44.468 28.8309C44.6535 28.6471 44.9052 28.5438 45.1676 28.5438C45.43 28.5438 45.6816 28.6471 45.8671 28.8309C46.0527 29.0147 46.1569 29.264 46.1569 29.5239V30.8236C46.1571 30.9523 46.1316 31.0799 46.0819 31.1989C46.0322 31.318 45.9594 31.4261 45.8675 31.5172C45.7756 31.6083 45.6665 31.6806 45.5464 31.7299C45.4263 31.7793 45.2976 31.8046 45.1676 31.8046Z" fill="white"/>
<path d="M45.1676 49.6327C44.9052 49.6327 44.6535 49.5295 44.468 49.3457C44.2825 49.1619 44.1782 48.9126 44.1782 48.6526V47.352C44.1782 47.0921 44.2825 46.8428 44.468 46.659C44.6535 46.4752 44.9052 46.3719 45.1676 46.3719C45.43 46.3719 45.6816 46.4752 45.8671 46.659C46.0527 46.8428 46.1569 47.0921 46.1569 47.352V48.6526C46.1569 48.9126 46.0527 49.1619 45.8671 49.3457C45.6816 49.5295 45.43 49.6327 45.1676 49.6327Z" fill="white"/>
<path d="M81.7891 20.8636C88.1904 30.6207 90.4536 42.5211 88.0808 53.9468C85.7079 65.3726 78.8934 75.3877 69.1364 81.7891C59.3793 88.1904 47.4789 90.4536 36.0532 88.0808C24.6275 85.7079 14.6123 78.8934 8.21093 69.1364C1.80957 59.3793 -0.453633 47.4789 1.91921 36.0532C4.29205 24.6275 11.1066 14.6123 20.8636 8.21093C30.6207 1.80957 42.5211 -0.453633 53.9468 1.91921C65.3725 4.29205 75.3877 11.1066 81.7891 20.8636L81.7891 20.8636Z" stroke="white" stroke-width="2"/>
</svg>
