<svg width="90" height="90" viewBox="0 0 90 90" fill="none" xmlns="http://www.w3.org/2000/svg">
<path d="M45.1622 79.3243C38.4055 79.3243 31.8006 77.3208 26.1827 73.567C20.5648 69.8132 16.1861 64.4778 13.6005 58.2355C11.0148 51.9932 10.3383 45.1243 11.6564 38.4975C12.9746 31.8707 16.2282 25.7835 21.0059 21.0059C25.7835 16.2282 31.8707 12.9746 38.4975 11.6564C45.1243 10.3383 51.9932 11.0148 58.2355 13.6005C64.4778 16.1861 69.8132 20.5648 73.567 26.1827C77.3208 31.8006 79.3244 38.4055 79.3244 45.1622C79.3142 54.2194 75.7118 62.9029 69.3073 69.3073C62.9029 75.7118 54.2195 79.3142 45.1622 79.3243ZM45.1622 13.0096C38.803 13.0096 32.5866 14.8953 27.2991 18.4282C22.0117 21.9612 17.8906 26.9828 15.457 32.8579C13.0235 38.733 12.3867 45.1978 13.6274 51.4348C14.868 57.6718 17.9302 63.4009 22.4268 67.8975C26.9235 72.3941 32.6525 75.4564 38.8895 76.697C45.1265 77.9376 51.5913 77.3009 57.4665 74.8673C63.3416 72.4338 68.3631 68.3127 71.8961 63.0252C75.4291 57.7378 77.3148 51.5214 77.3148 45.1622C77.3052 36.6377 73.9147 28.4651 67.887 22.4374C61.8592 16.4097 53.6867 13.0191 45.1622 13.0096Z" fill="white"/>
<path d="M45.1616 73.4234C39.572 73.4234 34.108 71.766 29.4605 68.6606C24.813 65.5552 21.1907 61.1414 19.0517 55.9774C16.9126 50.8133 16.353 45.1309 17.4434 39.6488C18.5339 34.1667 21.2255 29.131 25.1779 25.1786C29.1303 21.2262 34.166 18.5346 39.6481 17.4442C45.1302 16.3537 50.8126 16.9134 55.9766 19.0524C61.1407 21.1914 65.5545 24.8137 68.6599 29.4612C71.7652 34.1088 73.4227 39.5728 73.4227 45.1623C73.4142 52.655 70.434 59.8384 65.1358 65.1365C59.8377 70.4347 52.6543 73.4149 45.1616 73.4234ZM45.1616 18.9107C39.9695 18.9107 34.894 20.4503 30.5769 23.3349C26.2599 26.2194 22.8952 30.3194 20.9082 35.1162C18.9213 39.9131 18.4014 45.1914 19.4144 50.2837C20.4273 55.376 22.9275 60.0536 26.5989 63.725C30.2702 67.3963 34.9478 69.8966 40.0401 70.9095C45.1324 71.9224 50.4108 71.4025 55.2076 69.4156C60.0045 67.4287 64.1044 64.064 66.989 59.7469C69.8736 55.4298 71.4132 50.3544 71.4132 45.1623C71.4052 38.2024 68.6369 31.5298 63.7154 26.6084C58.794 21.687 52.1215 18.9186 45.1616 18.9107Z" fill="white"/>
<path d="M45.1618 65.132C41.0652 65.1329 37.0894 63.7447 33.8837 61.1941C30.6779 58.6436 28.4318 55.0814 27.5121 51.0894C26.5924 47.0974 27.0534 42.9115 28.82 39.2154C30.5866 35.5193 33.5542 32.5314 37.2382 30.7397C37.8485 30.4612 38.5434 30.4322 39.1747 30.6589C39.8061 30.8855 40.3238 31.35 40.6175 31.9531C40.9112 32.5562 40.9576 33.2502 40.7467 33.887C40.5359 34.5238 40.0845 35.053 39.4889 35.3617C36.8436 36.643 34.7113 38.7838 33.4405 41.4342C32.1697 44.0845 31.8357 47.0876 32.493 49.9524C33.1503 52.8173 34.7601 55.3744 37.0591 57.2057C39.3582 59.0369 42.2105 60.0341 45.1498 60.0341C48.089 60.0341 50.9413 59.0369 53.2404 57.2057C55.5395 55.3744 57.1492 52.8173 57.8065 49.9524C58.4638 47.0876 58.1298 44.0845 56.859 41.4342C55.5882 38.7838 53.4559 36.643 50.8106 35.3617C50.5019 35.2178 50.2248 35.0141 49.9954 34.7623C49.7661 34.5105 49.5891 34.2156 49.4746 33.8948C49.3602 33.574 49.3106 33.2336 49.3288 32.8935C49.347 32.5534 49.4326 32.2203 49.5807 31.9135C49.7287 31.6068 49.9362 31.3325 50.1911 31.1066C50.446 30.8807 50.7433 30.7077 51.0656 30.5976C51.3879 30.4876 51.7289 30.4427 52.0688 30.4655C52.4086 30.4884 52.7405 30.5785 53.0452 30.7307C56.1203 32.1954 58.715 34.505 60.5261 37.3897C62.3372 40.2744 63.2899 43.615 63.2728 47.021C63.2675 51.8227 61.3577 56.4262 57.9623 59.8215C54.567 63.2168 49.9635 65.1267 45.1618 65.132ZM38.3615 32.49C38.2773 32.4901 38.1941 32.5094 38.1184 32.5463C34.8355 34.1368 32.1894 36.7939 30.6124 40.0832C29.0355 43.3726 28.6211 47.0996 29.437 50.655C30.2529 54.2104 32.2509 57.3839 35.1042 59.6566C37.9575 61.9293 41.4974 63.1668 45.1452 63.1668C48.7931 63.1668 52.333 61.9293 55.1863 59.6566C58.0396 57.3839 60.0375 54.2104 60.8534 50.655C61.6693 47.0996 61.255 43.3726 59.678 40.0832C58.1011 36.7939 55.4549 34.1368 52.1721 32.5463C52.0379 32.4815 51.8835 32.4727 51.7429 32.5218C51.6022 32.5709 51.4868 32.6739 51.422 32.808C51.3573 32.9422 51.3485 33.0966 51.3976 33.2373C51.4467 33.3779 51.5496 33.4933 51.6838 33.5581C54.2257 34.7685 56.3708 36.6773 57.8684 39.0614C59.3659 41.4456 60.1541 44.2066 60.1409 47.022C60.142 49.6967 59.427 52.3228 58.07 54.6277C56.713 56.9326 54.7637 58.8321 52.4244 60.1289C50.0852 61.4257 47.4413 62.0725 44.7676 62.0021C42.0939 61.9317 39.4878 61.1467 37.22 59.7286C34.9522 58.3105 33.1055 56.3111 31.8717 53.938C30.6379 51.5649 30.062 48.9048 30.2038 46.2339C30.3456 43.563 31.2 40.9788 32.6782 38.7497C34.1564 36.5206 36.2045 34.728 38.6097 33.5581C38.6759 33.5258 38.7351 33.4808 38.7839 33.4256C38.8327 33.3705 38.8701 33.3062 38.8941 33.2366C38.9228 33.1519 38.9309 33.0615 38.9178 32.9731C38.9047 32.8846 38.8707 32.8005 38.8187 32.7278C38.7666 32.655 38.698 32.5957 38.6186 32.5547C38.5391 32.5137 38.451 32.4923 38.3615 32.492V32.49Z" fill="white"/>
<path d="M45.0844 42.3095C44.4024 42.3087 43.7485 42.0373 43.2665 41.5549C42.7844 41.0724 42.5135 40.4184 42.5132 39.7363V26.3819C42.5064 26.0401 42.5679 25.7003 42.6941 25.3825C42.8202 25.0647 43.0085 24.7752 43.2479 24.5311C43.4873 24.2869 43.773 24.0929 44.0882 23.9605C44.4035 23.8281 44.742 23.7599 45.0839 23.7599C45.4258 23.7599 45.7643 23.8281 46.0796 23.9605C46.3948 24.0929 46.6805 24.2869 46.9199 24.5311C47.1593 24.7752 47.3476 25.0647 47.4737 25.3825C47.5999 25.7003 47.6614 26.0401 47.6546 26.3819V39.7363C47.6546 40.4183 47.3839 41.0723 46.902 41.5548C46.4201 42.0373 45.7663 42.3087 45.0844 42.3095ZM45.0844 25.8203C44.9354 25.8203 44.7926 25.8794 44.6872 25.9848C44.5819 26.0901 44.5227 26.233 44.5227 26.3819V39.7363C44.5195 39.812 44.5317 39.8876 44.5584 39.9585C44.5852 40.0293 44.626 40.0941 44.6784 40.1487C44.7309 40.2034 44.7938 40.247 44.8635 40.2767C44.9332 40.3064 45.0081 40.3217 45.0839 40.3217C45.1597 40.3217 45.2346 40.3064 45.3043 40.2767C45.374 40.247 45.4369 40.2034 45.4894 40.1487C45.5418 40.0941 45.5826 40.0293 45.6094 39.9585C45.6361 39.8876 45.6483 39.812 45.6451 39.7363V26.3819C45.6451 26.2331 45.586 26.0904 45.4809 25.9851C45.3758 25.8798 45.2332 25.8205 45.0844 25.8203Z" fill="white"/>
<path d="M86.5867 30.6284C88.474 36.0896 89.2672 41.8692 88.9209 47.6369C88.5746 53.4047 87.0957 59.0478 84.5685 64.244C82.0414 69.4402 78.5155 74.0878 74.1922 77.9214C69.8689 81.7549 64.8328 84.6994 59.3716 86.5867C53.9104 88.474 48.1308 89.2672 42.3631 88.9209C36.5953 88.5746 30.9522 87.0957 25.756 84.5685C20.5598 82.0414 15.9122 78.5155 12.0786 74.1922C8.24506 69.8689 5.30056 64.8328 3.41326 59.3716C1.52595 53.9103 0.7328 48.1308 1.07909 42.3631C1.42537 36.5953 2.90432 30.9522 5.43148 25.756C7.95864 20.5598 11.4845 15.9122 15.8078 12.0786C20.1311 8.24506 25.1672 5.30056 30.6284 3.41326C36.0897 1.52595 41.8692 0.7328 47.6369 1.07909C53.4047 1.42537 59.0478 2.90432 64.244 5.43148C69.4402 7.95864 74.0878 11.4845 77.9214 15.8078C81.7549 20.1311 84.6994 25.1672 86.5867 30.6284L86.5867 30.6284Z" stroke="white" stroke-width="2"/>
</svg>
