<svg width="90" height="90" viewBox="0 0 90 90" fill="none" xmlns="http://www.w3.org/2000/svg">
<path d="M23.864 62.0213C23.6602 62.0213 23.4648 61.9396 23.3207 61.7942C23.1767 61.6487 23.0957 61.4515 23.0957 61.2458V54.7651H22.2453C21.121 54.7649 20.0427 54.3146 19.2469 53.513C18.4511 52.7114 18.0026 51.6239 18 50.4891V28.2853C18.0012 27.1492 18.4489 26.0599 19.2448 25.2565C20.0406 24.4531 21.1197 24.0012 22.2453 24H56.2552C57.3806 24.0014 58.4595 24.4534 59.2552 25.2568C60.0509 26.0601 60.4985 27.1493 60.4997 28.2853V50.4891C60.4971 51.6239 60.0487 52.7114 59.2528 53.513C58.457 54.3146 57.3787 54.7649 56.2544 54.7651H36.9716L24.2389 61.9228C24.1243 61.9874 23.9952 62.0213 23.864 62.0213ZM22.2453 25.551C21.5271 25.5518 20.8386 25.8401 20.3308 26.3528C19.8229 26.8654 19.5373 27.5604 19.5365 28.2853V50.4891C19.5387 51.2127 19.8251 51.9059 20.3329 52.4167C20.8407 52.9276 21.5284 53.2143 22.2453 53.2141H23.864C24.0677 53.2141 24.2631 53.2958 24.4072 53.4412C24.5513 53.5867 24.6322 53.7839 24.6322 53.9896V59.9267L36.4016 53.3118C36.5158 53.2477 36.6443 53.2141 36.775 53.2141H56.2552C56.972 53.2141 57.6595 52.9273 58.1671 52.4165C58.6747 51.9057 58.961 51.2126 58.9632 50.4891V28.2853C58.9624 27.5604 58.6768 26.8654 58.1689 26.3528C57.6611 25.8401 56.9726 25.5518 56.2544 25.551H22.2453Z" fill="#E41A32"/>
<path d="M53.5604 32.6676H24.9396C24.7359 32.6676 24.5405 32.5859 24.3964 32.4405C24.2523 32.295 24.1714 32.0978 24.1714 31.8921C24.1714 31.6865 24.2523 31.4892 24.3964 31.3438C24.5405 31.1983 24.7359 31.1166 24.9396 31.1166H53.5604C53.7641 31.1166 53.9595 31.1983 54.1036 31.3438C54.2477 31.4892 54.3286 31.6865 54.3286 31.8921C54.3286 32.0978 54.2477 32.295 54.1036 32.4405C53.9595 32.5859 53.7641 32.6676 53.5604 32.6676Z" fill="#E41A32"/>
<path d="M53.5604 40.1627H24.9396C24.7359 40.1627 24.5405 40.081 24.3964 39.9355C24.2523 39.7901 24.1714 39.5928 24.1714 39.3872C24.1714 39.1815 24.2523 38.9843 24.3964 38.8388C24.5405 38.6934 24.7359 38.6117 24.9396 38.6117H53.5604C53.7641 38.6117 53.9595 38.6934 54.1036 38.8388C54.2477 38.9843 54.3286 39.1815 54.3286 39.3872C54.3286 39.5928 54.2477 39.7901 54.1036 39.9355C53.9595 40.081 53.7641 40.1627 53.5604 40.1627Z" fill="#E41A32"/>
<path d="M53.5602 47.657H36.4684C36.2647 47.657 36.0693 47.5753 35.9252 47.4299C35.7811 47.2844 35.7002 47.0872 35.7002 46.8815C35.7002 46.6758 35.7811 46.4786 35.9252 46.3332C36.0693 46.1877 36.2647 46.106 36.4684 46.106H53.5602C53.764 46.106 53.9594 46.1877 54.1034 46.3332C54.2475 46.4786 54.3284 46.6758 54.3284 46.8815C54.3284 47.0872 54.2475 47.2844 54.1034 47.4299C53.9594 47.5753 53.764 47.657 53.5602 47.657Z" fill="#E41A32"/>
<path d="M67.6443 66.7952C67.5133 66.7951 67.3846 66.7612 67.2702 66.6967L58.9287 62.0089H46.2819C45.47 62.0093 44.691 61.6845 44.1159 61.1059C43.5408 60.5273 43.2166 59.7421 43.2144 58.9224V53.9903C43.2144 53.7847 43.2953 53.5874 43.4394 53.442C43.5834 53.2966 43.7788 53.2148 43.9826 53.2148C44.1863 53.2148 44.3817 53.2966 44.5258 53.442C44.6699 53.5874 44.7508 53.7847 44.7508 53.9903V58.9224C44.7527 59.3308 44.9149 59.7218 45.2019 60.0097C45.4889 60.2975 45.8773 60.4587 46.2819 60.4579H59.1284C59.2594 60.458 59.3882 60.4919 59.5025 60.5564L66.8776 64.7006V61.2334C66.8776 61.0277 66.9586 60.8305 67.1026 60.685C67.2467 60.5396 67.4421 60.4579 67.6459 60.4579H68.7214C69.1248 60.4575 69.5115 60.2956 69.7968 60.0078C70.0821 59.7199 70.2427 59.3296 70.2433 58.9224V44.2805C70.2441 43.8717 70.0841 43.4792 69.7985 43.1894C69.5128 42.8996 69.1249 42.7362 68.7199 42.7349H59.7315C59.5277 42.7349 59.3323 42.6532 59.1883 42.5078C59.0442 42.3624 58.9632 42.1651 58.9632 41.9594C58.9632 41.7538 59.0442 41.5565 59.1883 41.4111C59.3323 41.2657 59.5277 41.184 59.7315 41.184H68.7199C69.532 41.186 70.3101 41.5132 70.8835 42.0937C71.4568 42.6743 71.7786 43.4607 71.7782 44.2805V58.9216C71.7774 59.7402 71.4549 60.5249 70.8816 61.1037C70.3082 61.6825 69.5307 62.008 68.7199 62.0089H68.4126V66.0204C68.4126 66.2261 68.3316 66.4234 68.1876 66.5688C68.0435 66.7142 67.8481 66.7959 67.6443 66.7959V66.7952Z" fill="#E41A32"/>
<path d="M81.9015 21.0359C88.2572 30.8228 90.4647 42.7336 88.0385 54.1481C85.6123 65.5626 78.751 75.5458 68.9641 81.9015C59.1772 88.2572 47.2664 90.4647 35.8519 88.0385C24.4374 85.6123 14.4542 78.751 8.0985 68.9641C1.74282 59.1772 -0.464725 47.2664 1.9615 35.8519C4.38773 24.4374 11.249 14.4542 21.0359 8.0985C30.8228 1.74282 42.7336 -0.464725 54.1481 1.9615C65.5626 4.38773 75.5458 11.249 81.9015 21.0359L81.9015 21.0359Z" stroke="#E41A32" stroke-width="2"/>
</svg>
