<svg width="90" height="90" viewBox="0 0 90 90" fill="none" xmlns="http://www.w3.org/2000/svg">
<path d="M66.0153 59.9973H23.1276C22.2978 59.9964 21.5023 59.6643 20.9158 59.074C20.3294 58.4838 20 57.6836 20 56.8493V24.1416C20.0019 23.3085 20.3321 22.5101 20.9183 21.9212C21.5045 21.3324 22.2989 21.0011 23.1276 21H66.0153C66.8439 21.0011 67.6384 21.3324 68.2246 21.9212C68.8108 22.5101 69.141 23.3085 69.1429 24.1416V56.8493C69.1429 57.6836 68.8135 58.4838 68.227 59.074C67.6406 59.6643 66.8451 59.9964 66.0153 59.9973ZM23.1276 22.4116C22.6712 22.4124 22.2337 22.5948 21.9107 22.919C21.5877 23.2432 21.4056 23.6828 21.4041 24.1416V56.8493C21.4037 57.3094 21.5851 57.7507 21.9083 58.0763C22.2315 58.4019 22.6701 58.5851 23.1276 58.5857H66.0153C66.4728 58.5851 66.9114 58.4019 67.2346 58.0763C67.5578 57.7507 67.7391 57.3094 67.7388 56.8493V24.1416C67.738 23.6823 67.5562 23.242 67.2331 22.9172C66.9101 22.5924 66.4721 22.4096 66.0153 22.4088L23.1276 22.4116Z" fill="#E41A32"/>
<path d="M66.0153 59.9973H23.1276C22.2978 59.9964 21.5023 59.6643 20.9158 59.0741C20.3294 58.4838 20 57.6836 20 56.8494V49.8173C20 49.6301 20.074 49.4505 20.2056 49.3182C20.3373 49.1858 20.5158 49.1115 20.702 49.1115H68.4408C68.627 49.1115 68.8056 49.1858 68.9372 49.3182C69.0689 49.4505 69.1429 49.6301 69.1429 49.8173V56.8494C69.1429 57.6836 68.8135 58.4838 68.227 59.0741C67.6406 59.6643 66.8451 59.9964 66.0153 59.9973ZM21.4041 50.5231V56.8494C21.4037 57.3094 21.5851 57.7507 21.9083 58.0763C22.2315 58.4019 22.6701 58.5851 23.1276 58.5857H66.0153C66.4728 58.5851 66.9114 58.4019 67.2346 58.0763C67.5578 57.7507 67.7391 57.3094 67.7388 56.8494V50.5231H21.4041Z" fill="#E41A32"/>
<path d="M52.9766 65.5831H36.1641C36.0531 65.5831 35.9436 65.5566 35.8447 65.5059C35.7458 65.4551 35.6603 65.3814 35.5952 65.291C35.5301 65.2005 35.4873 65.0958 35.4702 64.9855C35.4532 64.8752 35.4624 64.7624 35.4972 64.6563L37.3302 59.0669C37.3765 58.9258 37.4658 58.803 37.5856 58.7159C37.7053 58.6288 37.8494 58.582 37.9972 58.582H51.1436C51.2914 58.582 51.4354 58.6288 51.5551 58.7159C51.6749 58.803 51.7643 58.9258 51.8105 59.0669L53.6428 64.6563C53.6776 64.7623 53.6868 64.8751 53.6698 64.9853C53.6528 65.0956 53.6101 65.2003 53.5451 65.2907C53.48 65.3811 53.3946 65.4548 53.2958 65.5056C53.197 65.5564 53.0876 65.583 52.9766 65.5831ZM37.1351 64.1714H52.0057L50.636 59.9972H38.5047L37.1351 64.1714Z" fill="#E41A32"/>
<path d="M56.6071 69H32.5355C32.3493 69 32.1708 68.9257 32.0391 68.7933C31.9075 68.6609 31.8335 68.4814 31.8335 68.2942V67.6046C31.8346 66.6944 32.1947 65.8219 32.8349 65.1783C33.475 64.5347 34.3429 64.1726 35.2482 64.1715H53.8937C54.7992 64.1724 55.6672 64.5344 56.3075 65.178C56.9478 65.8216 57.3081 66.6943 57.3092 67.6046V68.2942C57.3092 68.3869 57.291 68.4787 57.2557 68.5643C57.2204 68.6499 57.1687 68.7277 57.1035 68.7933C57.0384 68.8588 56.961 68.9108 56.8758 68.9463C56.7906 68.9818 56.6993 69 56.6071 69ZM33.2376 67.5884H55.9051C55.9001 67.0552 55.686 66.5455 55.3094 66.17C54.9328 65.7946 54.4241 65.5837 53.8937 65.5831H35.2482C34.718 65.5839 34.2094 65.7948 33.833 66.1703C33.4565 66.5457 33.2426 67.0553 33.2376 67.5884Z" fill="#E41A32"/>
<path d="M44.93 56.5988C44.5273 56.5988 44.1337 56.4787 43.7989 56.2538C43.4641 56.0289 43.2031 55.7092 43.049 55.3352C42.8949 54.9612 42.8546 54.5496 42.9332 54.1526C43.0117 53.7555 43.2056 53.3908 43.4904 53.1045C43.7751 52.8183 44.1378 52.6233 44.5328 52.5443C44.9277 52.4654 45.3371 52.5059 45.7091 52.6608C46.0811 52.8157 46.3991 53.0781 46.6228 53.4147C46.8465 53.7513 46.9659 54.1471 46.9659 54.5519C46.9659 55.0948 46.7514 55.6154 46.3696 55.9993C45.9878 56.3831 45.4699 56.5988 44.93 56.5988ZM44.93 53.9167C44.805 53.9167 44.6828 53.9539 44.5789 54.0237C44.475 54.0935 44.394 54.1927 44.3462 54.3088C44.2984 54.4249 44.2859 54.5526 44.3103 54.6758C44.3346 54.799 44.3948 54.9122 44.4832 55.0011C44.5716 55.0899 44.6841 55.1504 44.8067 55.1749C44.9293 55.1994 45.0563 55.1869 45.1718 55.1388C45.2872 55.0907 45.3859 55.0093 45.4553 54.9048C45.5247 54.8003 45.5618 54.6775 45.5618 54.5519C45.5612 54.3838 45.4944 54.2227 45.376 54.1041C45.2576 53.9854 45.0972 53.9188 44.93 53.9188V53.9167Z" fill="#E41A32"/>
<path d="M53.7045 43.5812H35.4402C34.9273 43.5805 34.4356 43.3753 34.0729 43.0107C33.7102 42.646 33.5061 42.1517 33.5054 41.636V30.1982C33.5059 29.6824 33.71 29.188 34.0727 28.8233C34.4354 28.4586 34.9272 28.2535 35.4402 28.2529H53.7045C54.2175 28.2535 54.7093 28.4586 55.072 28.8233C55.4347 29.188 55.6388 29.6824 55.6393 30.1982V41.636C55.6386 42.1517 55.4345 42.646 55.0718 43.0107C54.7091 43.3753 54.2174 43.5805 53.7045 43.5812ZM35.4402 29.6646C35.2995 29.6648 35.1646 29.721 35.0651 29.8211C34.9656 29.9211 34.9096 30.0567 34.9095 30.1982V41.636C34.9096 41.7775 34.9656 41.9131 35.0651 42.0131C35.1646 42.1131 35.2995 42.1694 35.4402 42.1696H53.7045C53.8452 42.1694 53.9801 42.1131 54.0796 42.0131C54.1791 41.9131 54.235 41.7775 54.2352 41.636V30.1982C54.235 30.0567 54.1791 29.9211 54.0796 29.8211C53.9801 29.721 53.8452 29.6648 53.7045 29.6646H35.4402Z" fill="#E41A32"/>
<path d="M44.5718 36.6225C44.1195 36.6226 43.6782 36.4823 43.3081 36.2209L34.343 29.8961C34.1912 29.7883 34.0881 29.6244 34.0563 29.4403C34.0244 29.2562 34.0665 29.0669 34.1733 28.914C34.2801 28.761 34.4428 28.6569 34.6259 28.6244C34.8089 28.5919 34.9973 28.6337 35.1497 28.7406L44.1148 35.0662C44.2498 35.161 44.4106 35.2118 44.5753 35.2118C44.74 35.2118 44.9008 35.161 45.0358 35.0662L54.0009 28.7406C54.1533 28.6337 54.3417 28.5919 54.5247 28.6244C54.7078 28.6569 54.8705 28.761 54.9773 28.914C55.084 29.0669 55.1261 29.2562 55.0943 29.4403C55.0625 29.6244 54.9594 29.7883 54.8075 29.8961L45.8425 36.2209C45.4704 36.4837 45.0265 36.624 44.5718 36.6225Z" fill="#E41A32"/>
<path d="M81.9015 21.0359C88.2572 30.8228 90.4647 42.7336 88.0385 54.1481C85.6123 65.5626 78.751 75.5458 68.9641 81.9015C59.1772 88.2572 47.2664 90.4647 35.8519 88.0385C24.4374 85.6123 14.4542 78.751 8.0985 68.9641C1.74282 59.1772 -0.464725 47.2664 1.9615 35.8519C4.38773 24.4374 11.249 14.4542 21.0359 8.0985C30.8228 1.74282 42.7336 -0.464725 54.1481 1.9615C65.5626 4.38773 75.5458 11.249 81.9015 21.0359L81.9015 21.0359Z" stroke="#E41A32" stroke-width="2"/>
</svg>
