<svg width="90" height="90" viewBox="0 0 90 90" fill="none" xmlns="http://www.w3.org/2000/svg">
<path d="M44.3321 62.4248C40.9513 62.4248 37.6463 61.4223 34.8353 59.544C32.0242 57.6657 29.8333 54.996 28.5395 51.8725C27.2457 48.749 26.9072 45.312 27.5667 41.9962C28.2263 38.6803 29.8543 35.6345 32.2449 33.2439C34.6356 30.8532 37.6814 29.2252 40.9973 28.5656C44.3131 27.9061 47.7501 28.2446 50.8736 29.5384C53.9971 30.8322 56.6668 33.0231 58.5451 35.8342C60.4234 38.6453 61.4259 41.9502 61.4259 45.331C61.4206 49.8629 59.6179 54.2077 56.4133 57.4122C53.2088 60.6168 48.864 62.4195 44.3321 62.4248ZM44.3321 30.2567C41.3507 30.2567 38.4362 31.1408 35.9572 32.7971C33.4783 34.4535 31.5462 36.8078 30.4052 39.5623C29.2643 42.3168 28.9658 45.3477 29.5474 48.2719C30.1291 51.196 31.5647 53.882 33.6729 55.9902C35.7811 58.0984 38.4671 59.534 41.3912 60.1157C44.3154 60.6973 47.3463 60.3988 50.1008 59.2579C52.8553 58.1169 55.2096 56.1848 56.8659 53.7059C58.5223 51.2269 59.4064 48.3124 59.4064 45.331C59.4019 41.3344 57.8122 37.5029 54.9862 34.6769C52.1602 31.8508 48.3287 30.2612 44.3321 30.2567Z" fill="white"/>
<path d="M44.3312 79.6621C35.2292 79.6519 26.5029 76.0316 20.0668 69.5955C13.6307 63.1594 10.0104 54.4331 10.0002 45.3311C9.98259 40.6491 10.9319 36.0139 12.7888 31.7159C14.6457 27.4178 17.37 23.5495 20.7913 20.3532C20.8931 20.2589 21.013 20.1862 21.1436 20.1394C21.2743 20.0925 21.4131 20.0725 21.5516 20.0806C21.6905 20.0899 21.826 20.1278 21.9495 20.1919C22.0731 20.256 22.182 20.345 22.2695 20.4532L30.195 30.2587C30.3499 30.4504 30.4294 30.6922 30.4184 30.9385C30.4075 31.1847 30.3068 31.4185 30.1354 31.5956C28.2703 33.5226 26.8173 35.8091 25.8647 38.3159C24.9121 40.8227 24.4801 43.4973 24.5948 46.1765C24.7095 48.8557 25.3687 51.4835 26.5321 53.8997C27.6955 56.3159 29.3387 58.4698 31.3616 60.2303C33.3846 61.9907 35.7448 63.3207 38.2985 64.1393C40.8522 64.9579 43.5459 65.2478 46.2153 64.9914C48.8847 64.735 51.4739 63.9377 53.8252 62.6481C56.1764 61.3585 58.2404 59.6036 59.8913 57.4903C60.0431 57.2971 60.2602 57.1659 60.5018 57.1213C60.7435 57.0767 60.9931 57.1217 61.2039 57.2479L72.0152 63.7496C72.1345 63.8213 72.2377 63.9169 72.3184 64.0303C72.399 64.1438 72.4553 64.2727 72.4837 64.4089C72.5122 64.5452 72.5122 64.6858 72.4837 64.8221C72.4551 64.9583 72.3988 65.0872 72.3181 65.2006C69.1412 69.665 64.9443 73.3063 60.0765 75.8216C55.2086 78.3369 49.8106 79.6536 44.3312 79.6621ZM21.3951 22.5837C18.4081 25.5687 16.0418 29.1156 14.4327 33.0198C12.8235 36.9241 12.0034 41.1083 12.0197 45.3311C12.0181 52.0918 14.1377 58.6826 18.0798 64.175C22.0219 69.6674 27.5879 73.7847 33.9936 75.9467C40.3993 78.1087 47.3219 78.2064 53.7861 76.2263C60.2503 74.2461 65.9303 70.2877 70.026 64.9088L60.9151 59.429C59.048 61.6174 56.7656 63.414 54.2 64.7149C51.6343 66.0159 48.8362 66.7955 45.9674 67.0086C43.0987 67.2217 40.2161 66.8641 37.4864 65.9564C34.7566 65.0488 32.2339 63.6091 30.0639 61.7206C27.8939 59.8321 26.1197 57.5323 24.844 54.954C23.5682 52.3757 22.816 49.5701 22.631 46.6994C22.446 43.8287 22.8319 40.9498 23.7662 38.2291C24.7005 35.5084 26.1649 32.9998 28.0745 30.8484L21.3951 22.5837Z" fill="white"/>
<path d="M74.1034 61.3012C73.9202 61.3011 73.7404 61.2512 73.5834 61.1568L62.7792 54.6571C62.5672 54.5303 62.409 54.3302 62.3345 54.0947C62.2601 53.8591 62.2746 53.6044 62.3753 53.3788C63.8188 50.1725 64.3735 46.637 63.9812 43.1426C63.589 39.6483 62.2643 36.3238 60.1458 33.5173C59.9978 33.3199 59.9271 33.0751 59.9472 32.8292C59.9673 32.5832 60.0767 32.3532 60.2549 32.1824L69.3738 23.4482C69.4737 23.3513 69.5928 23.2764 69.7234 23.2284C69.854 23.1804 69.9933 23.1603 70.1321 23.1695C70.2709 23.1778 70.4065 23.2146 70.5303 23.2777C70.6542 23.3407 70.7638 23.4287 70.8521 23.5361C75.8964 29.68 78.6564 37.3818 78.6624 45.3312C78.6755 50.6859 77.4223 55.9678 75.0051 60.7458C74.9426 60.8697 74.8551 60.9794 74.7483 61.068C74.6414 61.1566 74.5175 61.2222 74.3841 61.2608C74.293 61.2877 74.1984 61.3013 74.1034 61.3012ZM64.5685 53.3788L73.6763 58.8556C75.6417 54.6185 76.6544 50.002 76.6429 45.3312C76.6384 38.222 74.294 31.3119 69.9716 25.6676L62.2855 33.0296C64.3186 35.9684 65.5913 39.3654 65.9898 42.9167C66.3882 46.4679 65.8999 50.0625 64.5685 53.3788Z" fill="white"/>
<path d="M57.4751 30.2568C57.2417 30.2575 57.0153 30.1768 56.835 30.0286C53.6448 27.4072 49.7105 25.8566 45.5898 25.5965C41.469 25.3365 37.371 26.3802 33.8766 28.5796C33.6674 28.7107 33.4173 28.7607 33.1738 28.7199C32.9302 28.6792 32.71 28.5506 32.5549 28.3585L24.6204 18.5449C24.533 18.4368 24.469 18.3119 24.4321 18.1779C24.3953 18.0439 24.3865 17.9038 24.4063 17.7663C24.4261 17.6287 24.4741 17.4968 24.5472 17.3786C24.6204 17.2605 24.7171 17.1588 24.8314 17.0797C31.1769 12.6971 38.8137 10.5797 46.51 11.0692C54.2063 11.5587 61.5133 14.6265 67.2524 19.7777C67.3558 19.8706 67.4389 19.9838 67.4966 20.1102C67.5543 20.2366 67.5852 20.3736 67.5875 20.5126C67.5897 20.6515 67.5633 20.7895 67.5098 20.9177C67.4563 21.046 67.377 21.1618 67.2766 21.258L58.1729 29.9761C57.9855 30.1566 57.7353 30.2573 57.4751 30.2568ZM44.3314 23.538C49.0488 23.5435 53.6372 25.0782 57.4085 27.9122L65.0825 20.5653C59.8065 16.1428 53.2554 13.5219 46.3849 13.0848C39.5144 12.6478 32.6841 14.4175 26.8903 18.1359L33.5777 26.4066C36.8513 24.5303 40.5582 23.5415 44.3314 23.538Z" fill="white"/>
<path d="M44.3318 54.649C42.9627 54.6474 41.6502 54.1028 40.6822 53.1348C39.7141 52.1667 39.1696 50.8542 39.168 49.4852C39.168 49.2174 39.2744 48.9606 39.4637 48.7712C39.6531 48.5818 39.9099 48.4755 40.1777 48.4755C40.4455 48.4755 40.7023 48.5818 40.8917 48.7712C41.0811 48.9606 41.1874 49.2174 41.1874 49.4852C41.1874 50.1071 41.3719 50.715 41.7174 51.2321C42.0629 51.7492 42.5539 52.1522 43.1285 52.3902C43.703 52.6282 44.3352 52.6904 44.9452 52.5691C45.5551 52.4478 46.1154 52.1483 46.5551 51.7086C46.9949 51.2688 47.2943 50.7086 47.4156 50.0986C47.537 49.4887 47.4747 48.8565 47.2367 48.2819C46.9987 47.7074 46.5957 47.2163 46.0786 46.8708C45.5616 46.5253 44.9536 46.3409 44.3318 46.3409C43.3105 46.3409 42.3121 46.038 41.4629 45.4706C40.6137 44.9032 39.9519 44.0968 39.561 43.1532C39.1702 42.2096 39.0679 41.1714 39.2672 40.1697C39.4664 39.168 39.9582 38.2479 40.6804 37.5257C41.4026 36.8036 42.3227 36.3118 43.3243 36.1125C44.326 35.9133 45.3643 36.0155 46.3078 36.4064C47.2514 36.7972 48.0579 37.4591 48.6253 38.3082C49.1927 39.1574 49.4955 40.1558 49.4955 41.1771C49.4955 41.4449 49.3892 41.7017 49.1998 41.8911C49.0104 42.0804 48.7536 42.1868 48.4858 42.1868C48.218 42.1868 47.9612 42.0804 47.7718 41.8911C47.5824 41.7017 47.4761 41.4449 47.4761 41.1771C47.4761 40.5552 47.2917 39.9473 46.9462 39.4302C46.6007 38.9131 46.1096 38.5101 45.535 38.2721C44.9605 38.0341 44.3283 37.9719 43.7183 38.0932C43.1084 38.2145 42.5481 38.514 42.1084 38.9537C41.6686 39.3935 41.3692 39.9537 41.2479 40.5637C41.1265 41.1736 41.1888 41.8058 41.4268 42.3804C41.6648 42.9549 42.0678 43.446 42.5849 43.7915C43.1019 44.137 43.7099 44.3214 44.3318 44.3214C45.7013 44.3214 47.0147 44.8655 47.9831 45.8338C48.9515 46.8022 49.4955 48.1157 49.4955 49.4852C49.4955 50.8547 48.9515 52.1681 47.9831 53.1365C47.0147 54.1049 45.7013 54.649 44.3318 54.649Z" fill="white"/>
<path d="M44.331 38.0327C44.0632 38.0327 43.8064 37.9263 43.617 37.737C43.4277 37.5476 43.3213 37.2908 43.3213 37.023V35.7174C43.3213 35.4496 43.4277 35.1927 43.617 35.0034C43.8064 34.814 44.0632 34.7076 44.331 34.7076C44.5988 34.7076 44.8557 34.814 45.045 35.0034C45.2344 35.1927 45.3408 35.4496 45.3408 35.7174V37.023C45.3408 37.2908 45.2344 37.5476 45.045 37.737C44.8557 37.9263 44.5988 38.0327 44.331 38.0327Z" fill="white"/>
<path d="M44.331 55.9547C44.0632 55.9547 43.8064 55.8483 43.617 55.659C43.4277 55.4696 43.3213 55.2128 43.3213 54.945V53.6394C43.3213 53.3716 43.4277 53.1147 43.617 52.9254C43.8064 52.736 44.0632 52.6296 44.331 52.6296C44.5988 52.6296 44.8557 52.736 45.045 52.9254C45.2344 53.1147 45.3408 53.3716 45.3408 53.6394V54.945C45.3408 55.2128 45.2344 55.4696 45.045 55.659C44.8557 55.8483 44.5988 55.9547 44.331 55.9547Z" fill="white"/>
<path d="M78.0454 15.9484C81.8606 20.2879 84.7836 25.3365 86.6476 30.8057C88.5116 36.275 89.2801 42.0578 88.9093 47.824C88.5384 53.5903 87.0354 59.227 84.4862 64.4124C81.9369 69.5978 78.3912 74.2303 74.0516 78.0455C69.7121 81.8606 64.6635 84.7836 59.1943 86.6476C53.725 88.5116 47.9422 89.2801 42.176 88.9093C36.4097 88.5384 30.773 87.0354 25.5876 84.4862C20.4022 81.9369 15.7697 78.3912 11.9545 74.0516C8.13943 69.7121 5.21642 64.6635 3.3524 59.1943C1.48838 53.725 0.719862 47.9422 1.09072 42.176C1.46158 36.4097 2.96456 30.773 5.51383 25.5876C8.06311 20.4022 11.6088 15.7697 15.9484 11.9545C20.2879 8.13943 25.3365 5.21642 30.8057 3.3524C36.275 1.48838 42.0578 0.719862 47.8241 1.09072C53.5903 1.46158 59.227 2.96456 64.4124 5.51383C69.5978 8.06311 74.2303 11.6088 78.0455 15.9484L78.0454 15.9484Z" stroke="white" stroke-width="2"/>
</svg>
