<svg width="90" height="90" viewBox="0 0 90 90" fill="none" xmlns="http://www.w3.org/2000/svg">
<path d="M44.7892 60.7911C41.6251 60.7911 38.5321 59.8528 35.9013 58.095C33.2705 56.3371 31.2201 53.8387 30.0093 50.9155C28.7984 47.9923 28.4816 44.7757 29.0989 41.6724C29.7162 38.5692 31.2398 35.7187 33.4771 33.4814C35.7144 31.2441 38.5649 29.7204 41.6682 29.1032C44.7714 28.4859 47.988 28.8027 50.9112 30.0135C53.8344 31.2244 56.3329 33.2748 58.0907 35.9056C59.8486 38.5364 60.7868 41.6294 60.7868 44.7934C60.7819 49.0348 59.0949 53.101 56.0958 56.1001C53.0967 59.0992 49.0305 60.7862 44.7892 60.7911ZM44.7892 30.549C41.9719 30.549 39.2178 31.3844 36.8753 32.9496C34.5329 34.5148 32.7071 36.7395 31.629 39.3423C30.5508 41.9451 30.2688 44.8092 30.8184 47.5724C31.368 50.3356 32.7247 52.8737 34.7168 54.8658C36.7089 56.8579 39.247 58.2146 42.0102 58.7642C44.7734 59.3138 47.6375 59.0317 50.2403 57.9536C52.8431 56.8755 55.0678 55.0497 56.633 52.7072C58.1982 50.3647 59.0336 47.6107 59.0336 44.7934C59.0292 41.0169 57.5271 37.3963 54.8567 34.7259C52.1863 32.0555 48.5657 30.5534 44.7892 30.549Z" fill="white"/>
<path d="M48.6768 75.5835H40.9032C40.7099 75.5834 40.5221 75.5193 40.3689 75.4014C40.2158 75.2834 40.1059 75.1182 40.0564 74.9313L38.1332 67.6557C36.4646 67.1698 34.8545 66.5016 33.3322 65.6632L26.827 69.4474C26.6598 69.5447 26.4651 69.584 26.2733 69.5591C26.0814 69.5342 25.9032 69.4466 25.7664 69.3098L20.2693 63.8154C20.1326 63.6785 20.0449 63.5003 20.02 63.3084C19.9951 63.1166 20.0344 62.9219 20.1317 62.7547L23.9168 56.2496C23.0783 54.7269 22.4098 53.1165 21.9234 51.4476L14.6522 49.5271C14.4652 49.4775 14.2998 49.3675 14.1818 49.2142C14.0639 49.0609 13.9999 48.8728 14 48.6794V40.9067C13.9999 40.7133 14.0639 40.5252 14.1818 40.3719C14.2998 40.2186 14.4652 40.1086 14.6522 40.0591L21.9278 38.1376C22.4142 36.4687 23.0827 34.8584 23.9212 33.3357L20.1317 26.8306C20.0344 26.6633 19.9951 26.4686 20.02 26.2768C20.0449 26.0849 20.1326 25.9067 20.2693 25.7699L25.7681 20.2737C25.905 20.1369 26.0832 20.0493 26.275 20.0244C26.4669 19.9995 26.6616 20.0388 26.8288 20.1361L33.3339 23.9203C34.8563 23.0819 36.4663 22.4137 38.135 21.9278L40.0582 14.6522C40.1077 14.4653 40.2175 14.3001 40.3707 14.1821C40.5238 14.0642 40.7117 14.0001 40.905 14H48.6785C48.8718 14.0001 49.0597 14.0642 49.2128 14.1821C49.3659 14.3001 49.4758 14.4653 49.5253 14.6522L51.4485 21.9278C53.1172 22.4137 54.7272 23.0819 56.2496 23.9203L62.7547 20.1361C62.9219 20.0388 63.1166 19.9995 63.3084 20.0244C63.5003 20.0493 63.6785 20.1369 63.8154 20.2737L69.3124 25.7699C69.4492 25.9067 69.5368 26.0849 69.5617 26.2768C69.5866 26.4686 69.5474 26.6633 69.45 26.8306L65.6649 33.3357C66.5035 34.8584 67.1719 36.4687 67.6583 38.1376L74.9339 40.0591C75.1209 40.1086 75.2863 40.2186 75.4043 40.3719C75.5222 40.5252 75.5862 40.7133 75.5861 40.9067V48.6803C75.5862 48.8737 75.5222 49.0618 75.4043 49.2151C75.2863 49.3684 75.1209 49.4784 74.9339 49.5279L67.6583 51.4494C67.1719 53.1183 66.5035 54.7286 65.6649 56.2513L69.45 62.7564C69.5474 62.9236 69.5866 63.1183 69.5617 63.3102C69.5368 63.5021 69.4492 63.6803 69.3124 63.8171L63.8119 69.3133C63.675 69.4501 63.4968 69.5377 63.3049 69.5626C63.1131 69.5875 62.9184 69.5482 62.7512 69.4509L56.2461 65.6667C54.7237 66.5051 53.1137 67.1733 51.445 67.6592L49.5218 74.9348C49.4717 75.1207 49.3618 75.285 49.2091 75.4022C49.0564 75.5195 48.8693 75.5832 48.6768 75.5835ZM41.5764 73.8303H48L49.8786 66.73C49.918 66.5805 49.9963 66.4442 50.1054 66.3347C50.2146 66.2253 50.3507 66.1466 50.5001 66.1067C52.3606 65.6084 54.1473 64.8668 55.8139 63.9013C55.9472 63.8243 56.0983 63.7838 56.2522 63.7838C56.4061 63.7838 56.5572 63.8243 56.6905 63.9013L63.0457 67.5996L67.5882 63.0571L63.8995 56.6993C63.8226 56.566 63.7821 56.4148 63.7821 56.261C63.7821 56.1071 63.8226 55.9559 63.8995 55.8227C64.8645 54.1555 65.606 52.3686 66.105 50.5079C66.1448 50.3587 66.2233 50.2226 66.3326 50.1135C66.4419 50.0043 66.5781 49.926 66.7274 49.8865L73.8277 48.0088V41.5817L66.7274 39.7041C66.5781 39.6645 66.4419 39.5862 66.3326 39.477C66.2233 39.3679 66.1448 39.2318 66.105 39.0826C65.606 37.2219 64.8645 35.435 63.8995 33.7678C63.8226 33.6346 63.7821 33.4834 63.7821 33.3295C63.7821 33.1757 63.8226 33.0245 63.8995 32.8912L67.5969 26.536L63.0545 21.9936L56.6993 25.6919C56.5658 25.7683 56.4147 25.8085 56.261 25.8085C56.1072 25.8085 55.9561 25.7683 55.8227 25.6919C54.1561 24.7263 52.3694 23.9847 50.5088 23.4864C50.3595 23.4465 50.2233 23.3679 50.1142 23.2584C50.005 23.149 49.9268 23.0126 49.8873 22.8631L48.0088 15.7628H41.5782L39.6997 22.8631C39.6602 23.0126 39.582 23.149 39.4728 23.2584C39.3637 23.3679 39.2275 23.4465 39.0782 23.4864C37.2176 23.9847 35.4309 24.7263 33.7643 25.6919C33.6311 25.7688 33.4799 25.8093 33.326 25.8093C33.1722 25.8093 33.021 25.7688 32.8877 25.6919L26.5325 21.9936L21.9901 26.536L25.6875 32.8912C25.7644 33.0245 25.8049 33.1757 25.8049 33.3295C25.8049 33.4834 25.7644 33.6346 25.6875 33.7678C24.7225 35.435 23.981 37.2219 23.482 39.0826C23.4422 39.2318 23.3637 39.3679 23.2544 39.477C23.1451 39.5862 23.0089 39.6645 22.8596 39.7041L15.7593 41.5817V48.0053L22.8596 49.8829C23.0089 49.9225 23.1451 50.0008 23.2544 50.11C23.3637 50.2191 23.4422 50.3552 23.482 50.5044C23.981 52.3651 24.7225 54.152 25.6875 55.8192C25.7644 55.9524 25.8049 56.1036 25.8049 56.2575C25.8049 56.4113 25.7644 56.5625 25.6875 56.6957L21.9901 63.051L26.5325 67.5934L32.8877 63.8951C33.021 63.8182 33.1722 63.7777 33.326 63.7777C33.4799 63.7777 33.6311 63.8182 33.7643 63.8951C35.4309 64.8607 37.2176 65.6023 39.0782 66.1006C39.2275 66.1405 39.3637 66.2191 39.4728 66.3286C39.582 66.438 39.6602 66.5744 39.6997 66.7239L41.5764 73.8303Z" fill="white"/>
<path d="M44.7887 54.8478C43.3397 54.8462 41.9505 54.2699 40.9258 53.2452C39.9012 52.2206 39.3249 50.8314 39.3232 49.3823C39.3232 49.1499 39.4156 48.9269 39.58 48.7625C39.7444 48.5981 39.9673 48.5058 40.1998 48.5058C40.4323 48.5058 40.6553 48.5981 40.8197 48.7625C40.9841 48.9269 41.0764 49.1499 41.0764 49.3823C41.0764 50.1166 41.2941 50.8343 41.7021 51.4448C42.11 52.0553 42.6898 52.5311 43.3681 52.8121C44.0464 53.0931 44.7929 53.1666 45.513 53.0233C46.2331 52.8801 46.8946 52.5265 47.4138 52.0074C47.9329 51.4882 48.2865 50.8267 48.4297 50.1066C48.573 49.3865 48.4995 48.64 48.2185 47.9617C47.9375 47.2834 47.4617 46.7036 46.8512 46.2957C46.2407 45.8877 45.523 45.67 44.7887 45.67C43.7078 45.67 42.6511 45.3495 41.7523 44.7489C40.8535 44.1484 40.153 43.2948 39.7393 42.2961C39.3256 41.2974 39.2174 40.1985 39.4283 39.1382C39.6392 38.078 40.1597 37.1042 40.9241 36.3398C41.6884 35.5755 42.6623 35.0549 43.7225 34.844C44.7827 34.6331 45.8816 34.7414 46.8803 35.1551C47.879 35.5687 48.7326 36.2693 49.3331 37.168C49.9337 38.0668 50.2542 39.1235 50.2542 40.2045C50.2542 40.437 50.1619 40.66 49.9975 40.8244C49.8331 40.9887 49.6101 41.0811 49.3777 41.0811C49.1452 41.0811 48.9222 40.9887 48.7578 40.8244C48.5934 40.66 48.5011 40.437 48.5011 40.2045C48.5011 39.4703 48.2834 38.7525 47.8754 38.1421C47.4675 37.5316 46.8877 37.0557 46.2094 36.7748C45.5311 36.4938 44.7846 36.4203 44.0645 36.5635C43.3444 36.7068 42.6829 37.0603 42.1637 37.5795C41.6445 38.0987 41.291 38.7602 41.1477 39.4803C41.0045 40.2004 41.078 40.9468 41.359 41.6252C41.64 42.3035 42.1158 42.8833 42.7263 43.2912C43.3368 43.6991 44.0545 43.9168 44.7887 43.9168C46.2383 43.9168 47.6285 44.4927 48.6534 45.5177C49.6784 46.5426 50.2542 47.9328 50.2542 49.3823C50.2542 50.8319 49.6784 52.2221 48.6534 53.247C47.6285 54.272 46.2383 54.8478 44.7887 54.8478Z" fill="white"/>
<path d="M44.7892 36.4922C44.5567 36.4922 44.3337 36.3999 44.1693 36.2355C44.005 36.0711 43.9126 35.8482 43.9126 35.6157V34.1719C43.9126 33.9394 44.005 33.7165 44.1693 33.5521C44.3337 33.3877 44.5567 33.2953 44.7892 33.2953C45.0217 33.2953 45.2446 33.3877 45.409 33.5521C45.5734 33.7165 45.6658 33.9394 45.6658 34.1719V35.6157C45.6658 35.8482 45.5734 36.0711 45.409 36.2355C45.2446 36.3999 45.0217 36.4922 44.7892 36.4922Z" fill="white"/>
<path d="M44.7892 56.2917C44.5567 56.2917 44.3337 56.1993 44.1693 56.0349C44.005 55.8705 43.9126 55.6476 43.9126 55.4151V53.9714C43.9126 53.7389 44.005 53.5159 44.1693 53.3515C44.3337 53.1871 44.5567 53.0948 44.7892 53.0948C45.0217 53.0948 45.2446 53.1871 45.409 53.3515C45.5734 53.5159 45.6658 53.7389 45.6658 53.9714V55.4151C45.6658 55.6476 45.5734 55.8705 45.409 56.0349C45.2446 56.1993 45.0217 56.2917 44.7892 56.2917Z" fill="white"/>
<path d="M77.8432 15.72C85.6088 24.4305 89.596 35.8692 88.9278 47.5196C88.2596 59.1699 82.9906 70.0777 74.28 77.8432C65.5695 85.6088 54.1308 89.596 42.4804 88.9278C30.8301 88.2596 19.9223 82.9906 12.1568 74.28C4.3912 65.5695 0.403969 54.1308 1.0722 42.4804C1.74043 30.8301 7.00938 19.9223 15.7199 12.1568C24.4305 4.39121 35.8692 0.40397 47.5196 1.0722C59.1699 1.74042 70.0777 7.00938 77.8432 15.7199L77.8432 15.72Z" stroke="white" stroke-width="2"/>
</svg>
