<svg width="90" height="90" viewBox="0 0 90 90" fill="none" xmlns="http://www.w3.org/2000/svg">
<path d="M45 43C41.6377 43 38.3509 42.0029 35.5552 40.1349C32.7595 38.2669 30.5806 35.6118 29.294 32.5054C28.0073 29.399 27.6707 25.9808 28.3267 22.6831C28.9828 19.3854 30.602 16.3563 32.9796 13.9788C35.3572 11.6014 38.3864 9.98236 41.6841 9.32653C44.9819 8.6707 48.4 9.00751 51.5064 10.2944C54.6127 11.5812 57.2677 13.7603 59.1355 16.5561C61.0034 19.3519 62.0002 22.6387 62 26.0011C61.9949 30.5081 60.2022 34.829 57.0151 38.0159C53.8281 41.2027 49.507 42.9952 45 43ZM45 11.1378C42.0603 11.1378 39.1867 12.0095 36.7424 13.6427C34.2982 15.2759 32.3931 17.5973 31.2682 20.3132C30.1432 23.0291 29.8489 26.0176 30.4224 28.9007C30.9959 31.7839 32.4114 34.4323 34.4901 36.511C36.5688 38.5896 39.2171 40.0052 42.1003 40.5787C44.9835 41.1522 47.972 40.8579 50.6879 39.7329C53.4038 38.608 55.7251 36.7029 57.3583 34.2586C58.9915 31.8144 59.8632 28.9407 59.8632 26.0011C59.8587 22.0605 58.2913 18.2826 55.5049 15.4962C52.7185 12.7097 48.9406 11.1424 45 11.1378Z" fill="white"/>
<path d="M45.0668 60.5844C44.7835 60.5844 44.5117 60.4718 44.3114 60.2715C44.111 60.0711 43.9985 59.7993 43.9985 59.516L43.9312 41.9359C43.9312 41.6525 44.0437 41.3808 44.2441 41.1804C44.4444 40.98 44.7162 40.8675 44.9995 40.8675C45.2829 40.8675 45.5546 40.98 45.755 41.1804C45.9553 41.3808 46.0679 41.6525 46.0679 41.9359L46.1352 59.5203C46.1352 59.8036 46.0226 60.0754 45.8223 60.2757C45.6219 60.4761 45.3502 60.5886 45.0668 60.5886V60.5844Z" fill="white"/>
<path d="M40.318 53.7393C38.4867 53.7783 36.7031 53.1533 35.2967 51.9797C34.2983 51.0627 33.5396 49.9152 33.0867 48.6375C32.6338 47.3598 32.5005 45.9907 32.6984 44.6496C32.7185 44.4296 32.8064 44.2212 32.9499 44.0532C33.0934 43.8852 33.2855 43.7659 33.4997 43.7116C34.793 43.3047 36.1663 43.221 37.4995 43.4678C38.8327 43.7146 40.0851 44.2843 41.1471 45.1272C42.1458 46.0439 42.9048 47.1913 43.3577 48.4691C43.8107 49.7469 43.9438 51.1162 43.7454 52.4573C43.7252 52.6773 43.6373 52.8856 43.4938 53.0536C43.3503 53.2216 43.1583 53.341 42.9441 53.3953C42.0864 53.6185 41.2043 53.7341 40.318 53.7393ZM34.787 45.6197C34.7326 46.5001 34.8746 47.3815 35.2028 48.2003C35.531 49.019 36.0371 49.7546 36.6845 50.3536C37.3776 50.899 38.1833 51.2833 39.0433 51.4788C39.9033 51.6743 40.796 51.6761 41.6567 51.484C41.7115 50.6038 41.5698 49.7225 41.2418 48.9039C40.9138 48.0852 40.4078 47.3499 39.7603 46.7511C39.0672 46.2055 38.2613 45.821 37.4011 45.6255C36.5409 45.4299 35.6479 45.4283 34.787 45.6207V45.6197Z" fill="white"/>
<path d="M45.0671 55.2617C44.8187 55.2621 44.5782 55.1751 44.3876 55.016L36.4047 48.4017C36.1949 48.2185 36.065 47.9607 36.0425 47.6831C36.0201 47.4055 36.1069 47.1301 36.2845 46.9156C36.4621 46.7011 36.7164 46.5645 36.9933 46.5347C37.2702 46.505 37.5477 46.5845 37.7669 46.7564L45.7487 53.375C45.918 53.5153 46.0399 53.7044 46.0978 53.9166C46.1556 54.1287 46.1466 54.3536 46.0719 54.5604C45.9972 54.7672 45.8606 54.946 45.6805 55.0723C45.5005 55.1985 45.2859 55.2662 45.066 55.266L45.0671 55.2617Z" fill="white"/>
<path d="M50.2159 55.9349C49.3297 55.9302 48.4474 55.8146 47.5899 55.5909C47.3757 55.5366 47.1836 55.4172 47.0401 55.2492C46.8966 55.0812 46.8088 54.8729 46.7886 54.6529C46.5406 53.3105 46.6503 51.9266 47.1065 50.64C47.5627 49.3535 48.3495 48.2097 49.3877 47.3234C50.426 46.4372 51.6791 45.8398 53.0213 45.5912C54.3635 45.3426 55.7475 45.4515 57.0343 45.9071C57.2485 45.9614 57.4405 46.0808 57.584 46.2488C57.7275 46.4168 57.8154 46.6252 57.8356 46.8452C58.0334 48.1864 57.9 49.5557 57.4471 50.8335C56.9943 52.1114 56.2356 53.259 55.2373 54.1764C53.8307 55.3496 52.0471 55.9742 50.2159 55.9349ZM48.8773 53.6817C49.7357 53.9094 50.6367 53.9255 51.5027 53.7285C52.3688 53.5315 53.1741 53.1273 53.8496 52.5506C54.5251 51.974 55.0506 51.2421 55.3811 50.4177C55.7116 49.5932 55.8371 48.701 55.7469 47.8174C54.8884 47.5897 53.9875 47.5736 53.1215 47.7706C52.2554 47.9676 51.4501 48.3718 50.7746 48.9485C50.0991 49.5251 49.5735 50.257 49.2431 51.0815C48.9126 51.9059 48.7871 52.7981 48.8773 53.6817Z" fill="white"/>
<path d="M45.0679 57.7191C44.8477 57.719 44.6329 57.6509 44.4529 57.524C44.2729 57.3972 44.1365 57.2178 44.0624 57.0104C43.9882 56.8031 43.98 56.5779 44.0387 56.3657C44.0975 56.1535 44.2204 55.9646 44.3906 55.8249L52.7699 48.9584C52.8779 48.8657 53.0033 48.7954 53.1388 48.7518C53.2743 48.7083 53.4171 48.6922 53.5589 48.7046C53.7007 48.717 53.8386 48.7575 53.9645 48.824C54.0904 48.8904 54.2018 48.9813 54.292 49.0914C54.3823 49.2014 54.4497 49.3284 54.4902 49.4649C54.5307 49.6013 54.5435 49.7445 54.5279 49.886C54.5123 50.0275 54.4686 50.1644 54.3993 50.2888C54.3301 50.4131 54.2367 50.5224 54.1246 50.6101L45.7474 57.4744C45.5562 57.6324 45.316 57.7189 45.0679 57.7191Z" fill="white"/>
<path d="M57.6468 66.0149H32.2867C31.7484 66.0149 31.2321 65.8011 30.8514 65.4204C30.4707 65.0397 30.2568 64.5234 30.2568 63.985V60.4808C30.2585 59.9429 30.4729 59.4276 30.8533 59.0473C31.2336 58.6669 31.7489 58.4525 32.2867 58.4508H57.6468C58.1852 58.4508 58.7015 58.6647 59.0822 59.0454C59.4628 59.4261 59.6767 59.9424 59.6767 60.4808V63.9829C59.677 64.2496 59.6247 64.5138 59.5228 64.7604C59.4209 65.0069 59.2714 65.2309 59.0829 65.4196C58.8944 65.6084 58.6705 65.7581 58.4241 65.8602C58.1777 65.9624 57.9135 66.0149 57.6468 66.0149ZM32.3947 63.8782H57.5421V60.5844H32.3936L32.3947 63.8782Z" fill="white"/>
<path d="M53.3148 81.6506H36.6214C36.0704 81.6529 35.5368 81.4572 35.118 81.0991C34.6991 80.7411 34.4228 80.2445 34.3393 79.6998L32.1791 65.1036C32.1565 64.9518 32.1669 64.7968 32.2097 64.6493C32.2524 64.5018 32.3265 64.3652 32.4267 64.2489C32.527 64.1326 32.6512 64.0393 32.7908 63.9753C32.9304 63.9114 33.0821 63.8782 33.2357 63.8782H56.7004C56.854 63.8782 57.0058 63.9114 57.1454 63.9753C57.285 64.0393 57.4091 64.1326 57.5094 64.2489C57.6097 64.3652 57.6837 64.5018 57.7265 64.6493C57.7692 64.7968 57.7796 64.9518 57.7571 65.1036L55.5979 79.6912C55.5158 80.2375 55.24 80.736 54.8209 81.0957C54.4017 81.4554 53.8671 81.6524 53.3148 81.6506ZM34.474 66.015L36.4526 79.3782C36.4609 79.4167 36.4822 79.4513 36.513 79.476C36.5437 79.5007 36.582 79.514 36.6214 79.5139H53.3148C53.3557 79.5139 53.3954 79.4992 53.4265 79.4726C53.4577 79.446 53.4783 79.4091 53.4846 79.3686L55.4622 66.0139L34.474 66.015Z" fill="white"/>
<path d="M45.0002 35.6507C43.5792 35.6493 42.2169 35.0842 41.212 34.0796C40.2071 33.0749 39.6418 31.7127 39.6401 30.2917C39.6401 30.0084 39.7527 29.7366 39.9531 29.5363C40.1534 29.3359 40.4252 29.2233 40.7085 29.2233C40.9919 29.2233 41.2636 29.3359 41.464 29.5363C41.6643 29.7366 41.7769 30.0084 41.7769 30.2917C41.7767 30.9293 41.9655 31.5526 42.3196 32.0828C42.6736 32.613 43.177 33.0263 43.7659 33.2704C44.3549 33.5145 45.003 33.5785 45.6284 33.4543C46.2537 33.33 46.8281 33.0231 47.279 32.5724C47.7299 32.1216 48.037 31.5473 48.1615 30.922C48.2859 30.2967 48.2221 29.6486 47.9782 29.0595C47.7343 28.4705 47.3211 27.967 46.7911 27.6128C46.261 27.2586 45.6377 27.0695 45.0002 27.0695C43.9398 27.0695 42.9033 26.755 42.0217 26.1658C41.1402 25.5766 40.4532 24.7391 40.0476 23.7594C39.6421 22.7797 39.5363 21.7017 39.7435 20.6618C39.9508 19.6219 40.4618 18.6668 41.2119 17.9174C41.9621 17.168 42.9177 16.658 43.9578 16.4517C44.9979 16.2455 46.0758 16.3524 47.0551 16.7589C48.0344 17.1655 48.8712 17.8533 49.4595 18.7355C50.0478 19.6176 50.3613 20.6544 50.3602 21.7148C50.3602 21.9981 50.2477 22.2699 50.0473 22.4702C49.8469 22.6706 49.5752 22.7832 49.2918 22.7832C49.0085 22.7832 48.7368 22.6706 48.5364 22.4702C48.336 22.2699 48.2235 21.9981 48.2235 21.7148C48.2245 21.0771 48.0364 20.4533 47.6828 19.9226C47.3293 19.3918 46.8263 18.9778 46.2374 18.7331C45.6485 18.4883 45.0002 18.4237 44.3746 18.5474C43.749 18.6712 43.1742 18.9778 42.7229 19.4283C42.2715 19.8789 41.964 20.4532 41.8392 21.0786C41.7144 21.7041 41.7779 22.3524 42.0217 22.9417C42.2655 23.531 42.6787 24.0347 43.2089 24.3891C43.739 24.7436 44.3624 24.9327 45.0002 24.9327C46.4215 24.9327 47.7845 25.4973 48.7895 26.5023C49.7946 27.5073 50.3592 28.8704 50.3592 30.2917C50.3592 31.713 49.7946 33.0761 48.7895 34.0811C47.7845 35.0861 46.4215 35.6507 45.0002 35.6507Z" fill="white"/>
<path d="M44.9995 18.4873C44.7162 18.4873 44.4444 18.3747 44.2441 18.1744C44.0437 17.974 43.9312 17.7023 43.9312 17.4189V16.0685C43.9312 15.7851 44.0437 15.5134 44.2441 15.313C44.4444 15.1127 44.7162 15.0001 44.9995 15.0001C45.2829 15.0001 45.5546 15.1127 45.755 15.313C45.9553 15.5134 46.0679 15.7851 46.0679 16.0685V17.4189C46.0679 17.7023 45.9553 17.974 45.755 18.1744C45.5546 18.3747 45.2829 18.4873 44.9995 18.4873Z" fill="white"/>
<path d="M44.9995 37.0011C44.7162 37.0011 44.4444 36.8886 44.2441 36.6882C44.0437 36.4878 43.9312 36.2161 43.9312 35.9327V34.5823C43.9312 34.299 44.0437 34.0272 44.2441 33.8269C44.4444 33.6265 44.7162 33.5139 44.9995 33.5139C45.2829 33.5139 45.5546 33.6265 45.755 33.8269C45.9553 34.0272 46.0679 34.299 46.0679 34.5823V35.9327C46.0679 36.2161 45.9553 36.4878 45.755 36.6882C45.5546 36.8886 45.2829 37.0011 44.9995 37.0011Z" fill="white"/>
<path d="M86.5867 30.6284C88.474 36.0896 89.2672 41.8692 88.9209 47.6369C88.5746 53.4047 87.0957 59.0478 84.5685 64.244C82.0414 69.4402 78.5155 74.0878 74.1922 77.9214C69.8689 81.7549 64.8328 84.6994 59.3716 86.5867C53.9104 88.474 48.1308 89.2672 42.3631 88.9209C36.5953 88.5746 30.9522 87.0957 25.756 84.5685C20.5598 82.0414 15.9122 78.5155 12.0786 74.1922C8.24506 69.8689 5.30056 64.8328 3.41326 59.3716C1.52595 53.9103 0.7328 48.1308 1.07909 42.3631C1.42537 36.5953 2.90432 30.9522 5.43148 25.756C7.95864 20.5598 11.4845 15.9122 15.8078 12.0786C20.1311 8.24506 25.1672 5.30056 30.6284 3.41326C36.0897 1.52595 41.8692 0.7328 47.6369 1.07909C53.4047 1.42537 59.0478 2.90432 64.244 5.43148C69.4402 7.95864 74.0878 11.4845 77.9214 15.8078C81.7549 20.1311 84.6994 25.1672 86.5867 30.6284L86.5867 30.6284Z" stroke="white" stroke-width="2"/>
</svg>
