<svg width="90" height="90" viewBox="0 0 90 90" fill="none" xmlns="http://www.w3.org/2000/svg">
<path d="M43.8501 62.7966C40.8839 62.7968 37.9842 61.909 35.5178 60.2457C33.0515 58.5823 31.1291 56.218 29.9939 53.4517C28.8587 50.6855 28.5615 47.6416 29.1401 44.7049C29.7187 41.7682 31.147 39.0707 33.2444 36.9534C35.3418 34.8362 38.014 33.3942 40.9232 32.8101C43.8324 32.2259 46.8479 32.5256 49.5884 33.6714C52.3288 34.8172 54.6711 36.7576 56.3191 39.2471C57.967 41.7367 58.8466 44.6637 58.8466 47.6579C58.842 51.6714 57.2606 55.5191 54.4492 58.3572C51.6378 61.1952 47.8261 62.7918 43.8501 62.7966ZM43.8501 34.0484C41.1833 34.0483 38.5764 34.8464 36.359 36.3418C34.1417 37.8373 32.4134 39.9629 31.3928 42.4499C30.3722 44.9369 30.1051 47.6735 30.6254 50.3137C31.1456 52.9539 32.4297 55.379 34.3154 57.2825C36.2011 59.186 38.6036 60.4822 41.2191 61.0074C43.8346 61.5325 46.5457 61.2629 49.0094 60.2327C51.4731 59.2025 53.5789 57.4579 55.0604 55.2196C56.5418 52.9813 57.3325 50.3498 57.3323 47.6579C57.3283 44.0497 55.9066 40.5904 53.3791 38.039C50.8515 35.4876 47.4246 34.0525 43.8501 34.0484Z" fill="#E41A32"/>
<path d="M43.8499 59.0218C41.6233 59.022 39.4466 58.3556 37.5952 57.107C35.7437 55.8584 34.3007 54.0837 33.4485 52.0072C32.5963 49.9307 32.3732 47.6457 32.8075 45.4413C33.2418 43.2368 34.314 41.2119 35.8884 39.6225C37.4628 38.0332 39.4687 36.9508 41.6525 36.5122C43.8364 36.0737 46.1 36.2987 48.1571 37.1588C50.2142 38.0189 51.9725 39.4754 53.2096 41.3442C54.4466 43.2131 55.1069 45.4102 55.1069 47.6578C55.1035 50.6706 53.9164 53.5589 51.8061 55.6893C49.6957 57.8197 46.8344 59.0182 43.8499 59.0218ZM43.8499 37.8231C41.9227 37.823 40.0388 38.3997 38.4364 39.4804C36.8339 40.5611 35.585 42.0972 34.8474 43.8944C34.1098 45.6916 33.9168 47.6692 34.2928 49.5772C34.6687 51.4852 35.5967 53.2378 36.9594 54.6133C38.3221 55.9889 40.0583 56.9256 41.9484 57.3051C43.8386 57.6846 45.7977 57.4897 47.5781 56.7452C49.3586 56.0007 50.8803 54.74 51.9509 53.1224C53.0215 51.5049 53.5928 49.6032 53.5926 47.6578C53.5896 45.0504 52.5622 42.5507 50.7357 40.707C48.9093 38.8633 46.4329 37.8262 43.8499 37.8231Z" fill="#E41A32"/>
<path d="M33.3573 38.6913C33.1669 38.6918 32.9835 38.6194 32.8439 38.4888L26.7339 32.8003C26.5863 32.6628 26.4989 32.4717 26.4908 32.2691C26.4828 32.0665 26.5549 31.869 26.6911 31.72C26.8273 31.571 27.0166 31.4828 27.2173 31.4747C27.418 31.4666 27.6137 31.5393 27.7613 31.6768L33.8706 37.3653C33.9826 37.4696 34.0608 37.6055 34.095 37.7554C34.1292 37.9052 34.1179 38.062 34.0624 38.2052C34.007 38.3485 33.91 38.4715 33.7842 38.5582C33.6584 38.6449 33.5096 38.6913 33.3573 38.6913Z" fill="#E41A32"/>
<path d="M52.585 37.071C52.4426 37.0709 52.3032 37.0302 52.1827 36.9538C52.0623 36.8773 51.9656 36.7681 51.9037 36.6387C51.8419 36.5093 51.8175 36.3649 51.8333 36.2221C51.849 36.0793 51.9044 35.9439 51.9929 35.8314L59.0524 26.8672C59.1131 26.7854 59.1895 26.7168 59.2769 26.6653C59.3644 26.6138 59.4612 26.5806 59.5616 26.5675C59.662 26.5545 59.764 26.5619 59.8615 26.5893C59.9591 26.6168 60.0501 26.6637 60.1294 26.7273C60.2086 26.7909 60.2745 26.8698 60.3229 26.9596C60.3714 27.0493 60.4016 27.1479 60.4116 27.2496C60.4217 27.3513 60.4115 27.454 60.3815 27.5516C60.3516 27.6492 60.3025 27.7398 60.2373 27.818L53.1778 36.7821C53.1069 36.8722 53.0168 36.945 52.9141 36.995C52.8115 37.0451 52.699 37.071 52.585 37.071Z" fill="#E41A32"/>
<path d="M61.2056 57.0645C61.0896 57.0655 60.9751 57.0394 60.8709 56.9881L56.288 54.6952C56.1982 54.6511 56.1179 54.5895 56.0518 54.5139C55.9857 54.4383 55.9351 54.3503 55.9029 54.2549C55.8706 54.1595 55.8574 54.0586 55.8639 53.958C55.8705 53.8574 55.8967 53.7591 55.941 53.6688C55.9854 53.5784 56.047 53.4979 56.1223 53.4317C56.1976 53.3655 56.2852 53.315 56.3799 53.2831C56.4747 53.2512 56.5747 53.2385 56.6743 53.2458C56.7739 53.2532 56.8711 53.2803 56.9603 53.3257L61.5425 55.6185C61.6973 55.6941 61.8219 55.8207 61.8959 55.9775C61.97 56.1342 61.9889 56.3116 61.9497 56.4807C61.9105 56.6497 61.8154 56.8002 61.6802 56.9074C61.5449 57.0147 61.3775 57.0722 61.2056 57.0706V57.0645Z" fill="#E41A32"/>
<path d="M26.9791 63.4432C26.8257 63.4433 26.6758 63.3964 26.5493 63.3086C26.4229 63.2209 26.3258 63.0964 26.271 62.9516C26.2163 62.8069 26.2064 62.6488 26.2426 62.4983C26.2789 62.3478 26.3596 62.2119 26.4741 62.1087L32.6273 56.5509C32.7773 56.418 32.9731 56.3501 33.1724 56.3621C33.3716 56.3742 33.5581 56.4652 33.6912 56.6153C33.8243 56.7654 33.8934 56.9625 33.8833 57.1637C33.8732 57.3649 33.7848 57.5539 33.6373 57.6897L27.4841 63.2483C27.3453 63.3738 27.1655 63.4432 26.9791 63.4432Z" fill="#E41A32"/>
<path d="M24.5473 34.1951C23.6718 34.1951 22.8161 33.933 22.0881 33.442C21.3602 32.951 20.7929 32.2532 20.4579 31.4367C20.123 30.6203 20.0354 29.7219 20.2062 28.8552C20.377 27.9885 20.7987 27.1923 21.4178 26.5675C22.0369 25.9427 22.8256 25.5172 23.6842 25.3449C24.5429 25.1726 25.4329 25.2612 26.2416 25.5995C27.0504 25.9378 27.7416 26.5106 28.2279 27.2454C28.7142 27.9803 28.9736 28.8442 28.9735 29.7279C28.9721 30.9123 28.5053 32.0479 27.6755 32.8854C26.8457 33.7228 25.7207 34.1939 24.5473 34.1951ZM24.5473 26.7885C23.9714 26.7885 23.4084 26.9609 22.9295 27.2839C22.4506 27.6068 22.0774 28.0659 21.857 28.603C21.6366 29.1401 21.579 29.7311 21.6913 30.3013C21.8037 30.8715 22.081 31.3953 22.4882 31.8063C22.8955 32.2174 23.4143 32.4974 23.9792 32.6108C24.5441 32.7242 25.1296 32.666 25.6616 32.4435C26.1937 32.2211 26.6485 31.8443 26.9685 31.3609C27.2884 30.8775 27.4592 30.3092 27.4592 29.7279C27.4584 28.9485 27.1514 28.2014 26.6055 27.6503C26.0595 27.0992 25.3193 26.7893 24.5473 26.7885Z" fill="#E41A32"/>
<path d="M62.4933 29.0774C61.4081 29.0774 60.3472 28.7526 59.4449 28.144C58.5426 27.5354 57.8393 26.6703 57.424 25.6583C57.0087 24.6462 56.9001 23.5326 57.1118 22.4582C57.3235 21.3838 57.8461 20.3969 58.6134 19.6223C59.3808 18.8476 60.3585 18.3201 61.4228 18.1064C62.4872 17.8927 63.5904 18.0024 64.593 18.4216C65.5957 18.8408 66.4526 19.5507 67.0555 20.4616C67.6584 21.3724 67.9802 22.4433 67.9802 23.5387C67.9786 25.0072 67.4 26.415 66.3714 27.4534C65.3427 28.4917 63.948 29.0758 62.4933 29.0774ZM62.4933 19.5293C61.7075 19.5293 60.9394 19.7645 60.2861 20.2052C59.6328 20.6459 59.1236 21.2722 58.8229 22.005C58.5223 22.7378 58.4437 23.5442 58.597 24.3221C58.7504 25.1 59.1288 25.8145 59.6845 26.3753C60.2401 26.9361 60.948 27.318 61.7187 27.4727C62.4894 27.6273 63.2882 27.5478 64.0141 27.2441C64.74 26.9405 65.3604 26.4264 65.7968 25.7668C66.2332 25.1073 66.4661 24.3319 66.466 23.5387C66.4648 22.4756 66.0458 21.4564 65.301 20.7047C64.5562 19.953 63.5465 19.5303 62.4933 19.5293Z" fill="#E41A32"/>
<path d="M65.5133 63.7953C64.4281 63.7953 63.3672 63.4704 62.4648 62.8618C61.5625 62.2532 60.8592 61.3881 60.444 60.376C60.0287 59.3639 59.9201 58.2502 60.1319 57.1758C60.3436 56.1013 60.8663 55.1144 61.6337 54.3399C62.4012 53.5653 63.3789 53.0379 64.4433 52.8242C65.5077 52.6106 66.611 52.7204 67.6136 53.1397C68.6162 53.5591 69.4731 54.2691 70.0759 55.18C70.6787 56.091 71.0004 57.1619 71.0002 58.2574C70.9984 59.7257 70.4198 61.1333 69.3911 62.1715C68.3625 63.2097 66.9679 63.7937 65.5133 63.7953ZM65.5133 54.2472C64.7276 54.2472 63.9595 54.4824 63.3062 54.923C62.6529 55.3637 62.1437 55.99 61.843 56.7227C61.5424 57.4555 61.4637 58.2618 61.617 59.0397C61.7703 59.8176 62.1486 60.5321 62.7042 61.093C63.2598 61.6538 63.9677 62.0357 64.7383 62.1905C65.5089 62.3452 66.3077 62.2658 67.0336 61.9623C67.7595 61.6587 68.3799 61.1448 68.8165 60.4853C69.253 59.8258 69.486 59.0505 69.486 58.2574C69.485 57.1941 69.0661 56.1747 68.3213 55.4229C67.5765 54.671 66.5666 54.2482 65.5133 54.2472Z" fill="#E41A32"/>
<path d="M23.4877 71.4358C22.4024 71.436 21.3415 71.1112 20.439 70.5027C19.5366 69.8941 18.8332 69.0291 18.4178 68.017C18.0024 67.0049 17.8937 65.8912 18.1054 64.8167C18.3171 63.7423 18.8397 62.7553 19.6071 61.9807C20.3745 61.206 21.3522 60.6785 22.4167 60.4648C23.4811 60.2511 24.5844 60.3608 25.587 60.7802C26.5897 61.1995 27.4466 61.9095 28.0495 62.8204C28.6523 63.7314 28.974 64.8024 28.9739 65.8979C28.9723 67.3661 28.3938 68.7738 27.3652 69.812C26.3367 70.8502 24.9422 71.4342 23.4877 71.4358ZM23.4877 61.8877C22.7019 61.8876 21.9338 62.1226 21.2804 62.5632C20.627 63.0037 20.1177 63.63 19.8169 64.3627C19.5161 65.0955 19.4373 65.9018 19.5905 66.6797C19.7437 67.4577 20.122 68.1723 20.6776 68.7332C21.2331 69.2941 21.941 69.6761 22.7116 69.8309C23.4823 69.9857 24.2811 69.9063 25.007 69.6028C25.733 69.2993 26.3535 68.7854 26.79 68.1259C27.2266 67.4664 27.4596 66.691 27.4596 65.8979C27.4584 64.8348 27.0396 63.8156 26.295 63.0639C25.5504 62.3121 24.5408 61.8891 23.4877 61.8877Z" fill="#E41A32"/>
<path d="M43.8491 54.4445C42.8575 54.4435 41.9067 54.0454 41.2055 53.3376C40.5043 52.6297 40.1099 51.67 40.1089 50.669C40.1089 50.4663 40.1887 50.2719 40.3306 50.1286C40.4726 49.9852 40.6652 49.9047 40.866 49.9047C41.0668 49.9047 41.2594 49.9852 41.4014 50.1286C41.5434 50.2719 41.6232 50.4663 41.6232 50.669C41.6232 51.1134 41.7537 51.5478 41.9983 51.9173C42.2429 52.2868 42.5905 52.5748 42.9973 52.7449C43.404 52.915 43.8516 52.9595 44.2834 52.8728C44.7152 52.7861 45.1118 52.5721 45.4231 52.2578C45.7344 51.9436 45.9464 51.5432 46.0323 51.1073C46.1182 50.6715 46.0741 50.2197 45.9056 49.8091C45.7372 49.3985 45.4519 49.0476 45.0858 48.8007C44.7197 48.5538 44.2894 48.422 43.8491 48.422C43.1093 48.422 42.3862 48.2006 41.7711 47.7857C41.156 47.3708 40.6766 46.7811 40.3935 46.0911C40.1105 45.4012 40.0364 44.642 40.1808 43.9096C40.3252 43.1772 40.6815 42.5045 41.2046 41.9765C41.7278 41.4485 42.3943 41.089 43.1199 40.9434C43.8455 40.7978 44.5975 40.8727 45.281 41.1586C45.9644 41.4445 46.5485 41.9285 46.9594 42.5495C47.3703 43.1705 47.5895 43.9005 47.5894 44.6473C47.5894 44.85 47.5096 45.0443 47.3676 45.1877C47.2256 45.331 47.033 45.4115 46.8322 45.4115C46.6314 45.4115 46.4388 45.331 46.2969 45.1877C46.1549 45.0443 46.0751 44.85 46.0751 44.6473C46.0752 44.2028 45.9448 43.7683 45.7003 43.3987C45.4558 43.0291 45.1082 42.741 44.7015 42.5708C44.2948 42.4006 43.8472 42.356 43.4153 42.4426C42.9835 42.5292 42.5868 42.7432 42.2754 43.0574C41.964 43.3716 41.7519 43.772 41.666 44.2078C41.58 44.6437 41.6241 45.0956 41.7925 45.5062C41.961 45.9168 42.2463 46.2678 42.6124 46.5147C42.9784 46.7617 43.4088 46.8935 43.8491 46.8935C44.8411 46.8935 45.7924 47.2912 46.4939 47.9993C47.1953 48.7073 47.5894 49.6676 47.5894 50.669C47.5894 51.6703 47.1953 52.6306 46.4939 53.3387C45.7924 54.0467 44.8411 54.4445 43.8491 54.4445Z" fill="#E41A32"/>
<path d="M43.848 42.4003C43.6471 42.4003 43.4546 42.3198 43.3126 42.1764C43.1706 42.0331 43.0908 41.8387 43.0908 41.636V40.6891C43.0908 40.4864 43.1706 40.292 43.3126 40.1487C43.4546 40.0053 43.6471 39.9248 43.848 39.9248C44.0488 39.9248 44.2413 40.0053 44.3833 40.1487C44.5253 40.292 44.6051 40.4864 44.6051 40.6891V41.636C44.6051 41.8387 44.5253 42.0331 44.3833 42.1764C44.2413 42.3198 44.0488 42.4003 43.848 42.4003Z" fill="#E41A32"/>
<path d="M43.848 55.3914C43.6471 55.3914 43.4546 55.3109 43.3126 55.1676C43.1706 55.0243 43.0908 54.8299 43.0908 54.6272V53.6802C43.0908 53.4775 43.1706 53.2831 43.3126 53.1398C43.4546 52.9965 43.6471 52.916 43.848 52.916C44.0488 52.916 44.2413 52.9965 44.3833 53.1398C44.5253 53.2831 44.6051 53.4775 44.6051 53.6802V54.6272C44.6051 54.8299 44.5253 55.0243 44.3833 55.1676C44.2413 55.3109 44.0488 55.3914 43.848 55.3914Z" fill="#E41A32"/>
<path d="M81.9015 21.0359C88.2572 30.8228 90.4647 42.7336 88.0385 54.1481C85.6123 65.5626 78.751 75.5458 68.9641 81.9015C59.1772 88.2572 47.2664 90.4647 35.8519 88.0385C24.4374 85.6123 14.4542 78.751 8.0985 68.9641C1.74282 59.1772 -0.464725 47.2664 1.9615 35.8519C4.38773 24.4374 11.249 14.4542 21.0359 8.0985C30.8228 1.74282 42.7336 -0.464725 54.1481 1.9615C65.5626 4.38773 75.5458 11.249 81.9015 21.0359L81.9015 21.0359Z" stroke="#E41A32" stroke-width="2"/>
</svg>
