<svg width="90" height="90" viewBox="0 0 90 90" fill="none" xmlns="http://www.w3.org/2000/svg">
<path d="M31.3439 69.8943H22.9577C22.7386 69.8943 22.5284 69.8072 22.3734 69.6522C22.2184 69.4972 22.1313 69.2871 22.1313 69.0679V46.6894C22.1313 46.4703 22.2184 46.2601 22.3734 46.1051C22.5284 45.9501 22.7386 45.863 22.9577 45.863H31.3439C31.563 45.863 31.7732 45.9501 31.9282 46.1051C32.0832 46.2601 32.1703 46.4703 32.1703 46.6894V69.0679C32.1703 69.2871 32.0832 69.4972 31.9282 69.6522C31.7732 69.8072 31.563 69.8943 31.3439 69.8943ZM23.7841 68.2415H30.5175V47.5158H23.7841V68.2415Z" fill="white"/>
<path d="M66.2726 69.8945H57.8864C57.6673 69.8945 57.4571 69.8074 57.3021 69.6524C57.1471 69.4975 57.0601 69.2873 57.0601 69.0681V37.5102C57.0601 37.291 57.1471 37.0808 57.3021 36.9258C57.4571 36.7708 57.6673 36.6838 57.8864 36.6838H66.2726C66.4918 36.6838 66.7019 36.7708 66.8569 36.9258C67.0119 37.0808 67.099 37.291 67.099 37.5102V69.0681C67.099 69.2873 67.0119 69.4975 66.8569 69.6524C66.7019 69.8074 66.4918 69.8945 66.2726 69.8945ZM58.7128 68.2417H65.4462V38.3365H58.7128V68.2417Z" fill="white"/>
<path d="M54.6266 69.8944H46.2404C46.0213 69.8944 45.8111 69.8073 45.6561 69.6523C45.5011 69.4973 45.4141 69.2871 45.4141 69.068V50.0562C45.4141 49.837 45.5011 49.6268 45.6561 49.4718C45.8111 49.3169 46.0213 49.2298 46.2404 49.2298H54.6266C54.8458 49.2298 55.0559 49.3169 55.2109 49.4718C55.3659 49.6268 55.453 49.837 55.453 50.0562V69.068C55.453 69.2871 55.3659 69.4973 55.2109 69.6523C55.0559 69.8073 54.8458 69.8944 54.6266 69.8944ZM47.0668 68.2416H53.8002V50.8826H47.0668V68.2416Z" fill="white"/>
<path d="M42.9893 69.8942H34.5949C34.3758 69.8942 34.1656 69.8071 34.0106 69.6521C33.8556 69.4971 33.7686 69.2869 33.7686 69.0678V42.6863C33.7686 42.4671 33.8556 42.2569 34.0106 42.102C34.1656 41.947 34.3758 41.8599 34.5949 41.8599H42.9893C43.2085 41.8599 43.4187 41.947 43.5737 42.102C43.7287 42.2569 43.8157 42.4671 43.8157 42.6863V69.0678C43.8157 69.2869 43.7287 69.4971 43.5737 69.6521C43.4187 69.8071 43.2085 69.8942 42.9893 69.8942ZM35.4213 68.2414H42.163V43.5127H35.4213V68.2414Z" fill="white"/>
<path d="M70.4043 73.0213H18.8264C18.6072 73.0213 18.397 72.9342 18.242 72.7792C18.0871 72.6242 18 72.414 18 72.1949V69.0678C18 68.8487 18.0871 68.6385 18.242 68.4835C18.397 68.3285 18.6072 68.2415 18.8264 68.2415H70.4043C70.6235 68.2415 70.8336 68.3285 70.9886 68.4835C71.1436 68.6385 71.2307 68.8487 71.2307 69.0678V72.1949C71.2307 72.414 71.1436 72.6242 70.9886 72.7792C70.8336 72.9342 70.6235 73.0213 70.4043 73.0213ZM19.6528 71.3685H69.5779V69.8942H19.6528V71.3685Z" fill="white"/>
<path d="M27.1518 42.2599C26.9773 42.26 26.8073 42.205 26.6661 42.1026C26.5248 42.0002 26.4196 41.8557 26.3655 41.6899C26.3114 41.524 26.3111 41.3453 26.3648 41.1793C26.4184 41.0133 26.5232 40.8686 26.6642 40.7658L38.3063 32.2929C38.4287 32.2041 38.573 32.1506 38.7237 32.1383C38.8744 32.1259 39.0255 32.1551 39.1608 32.2226L50.3293 37.8536L64.1547 26.8544C64.3264 26.7176 64.5453 26.6545 64.7634 26.679C64.9816 26.7036 65.181 26.8138 65.3179 26.9854C65.4548 27.157 65.5178 27.376 65.4933 27.5941C65.4687 27.8122 65.3585 28.0117 65.1869 28.1485L50.9483 39.4766C50.8247 39.5751 50.6755 39.636 50.5184 39.6523C50.3612 39.6686 50.2027 39.6394 50.0616 39.5683L38.8707 33.9258L27.6369 42.102C27.4958 42.2045 27.3261 42.2597 27.1518 42.2599Z" fill="white"/>
<path d="M63.7051 33.756C63.656 33.756 63.6071 33.7518 63.5588 33.7436C63.4519 33.7245 63.3499 33.6845 63.2585 33.6259C63.1671 33.5673 63.0882 33.4913 63.0262 33.4022C62.9642 33.3131 62.9203 33.2127 62.8971 33.1066C62.874 33.0006 62.8719 32.891 62.8911 32.7842L63.7001 28.2622L58.7641 27.9168C58.6556 27.9092 58.5496 27.8804 58.4522 27.8319C58.3549 27.7834 58.268 27.7162 58.1966 27.6341C58.0524 27.4684 57.9799 27.2521 57.9952 27.033C58.0104 26.8138 58.1121 26.6097 58.2778 26.4654C58.4436 26.3212 58.6598 26.2488 58.879 26.264L64.7331 26.6772C64.8488 26.6853 64.9616 26.7176 65.064 26.7721C65.1665 26.8266 65.2563 26.9021 65.3276 26.9936C65.3989 27.0851 65.4502 27.1906 65.478 27.3033C65.5059 27.4159 65.5097 27.5332 65.4892 27.6474L64.5182 33.0759C64.4839 33.2666 64.3837 33.4392 64.2351 33.5635C64.0864 33.6878 63.8988 33.756 63.7051 33.756Z" fill="white"/>
<path d="M30.4548 33.7557C28.6989 33.7558 26.9823 33.2353 25.5223 32.2598C24.0622 31.2844 22.9242 29.8979 22.2521 28.2756C21.5801 26.6534 21.4042 24.8683 21.7467 23.1461C22.0892 21.4239 22.9348 19.8419 24.1764 18.6003C25.4181 17.3586 27 16.5131 28.7222 16.1705C30.4444 15.828 32.2296 16.0039 33.8518 16.6759C35.474 17.348 36.8606 18.486 37.836 19.9461C38.8115 21.4062 39.332 23.1227 39.3319 24.8787C39.329 27.2321 38.3928 29.4884 36.7287 31.1525C35.0646 32.8167 32.8083 33.7528 30.4548 33.7557ZM30.4548 17.6536C29.0258 17.6534 27.6288 18.077 26.4406 18.8708C25.2523 19.6646 24.3261 20.793 23.7792 22.1132C23.2322 23.4334 23.089 24.8861 23.3677 26.2877C23.6464 27.6893 24.3344 28.9767 25.3448 29.9873C26.3552 30.9978 27.6426 31.686 29.0442 31.9649C30.4457 32.2437 31.8985 32.1007 33.2187 31.5538C34.539 31.007 35.6674 30.081 36.4614 28.8928C37.2553 27.7046 37.6791 26.3077 37.6791 24.8787C37.6769 22.9633 36.9151 21.1269 35.5608 19.7725C34.2065 18.418 32.3702 17.656 30.4548 17.6536Z" fill="white"/>
<path d="M30.4541 25.7043C30.2972 25.7043 30.1436 25.6598 30.0112 25.5758C29.8788 25.4918 29.773 25.3718 29.7062 25.2299L26.2742 17.9487C26.2233 17.85 26.1927 17.7421 26.1844 17.6314C26.1761 17.5206 26.1902 17.4094 26.2259 17.3042C26.2616 17.1991 26.318 17.1022 26.392 17.0193C26.4659 16.9365 26.5558 16.8694 26.6562 16.8221C26.7567 16.7747 26.8656 16.7481 26.9766 16.7438C27.0876 16.7396 27.1982 16.7577 27.302 16.7971C27.4058 16.8365 27.5006 16.8965 27.5807 16.9734C27.6608 17.0503 27.7246 17.1425 27.7683 17.2446L30.8648 23.8127L37.5767 21.027C37.6771 20.9842 37.7849 20.9618 37.8941 20.961C38.0032 20.9602 38.1114 20.981 38.2124 21.0222C38.3135 21.0635 38.4053 21.1243 38.4827 21.2012C38.5601 21.2782 38.6215 21.3697 38.6634 21.4704C38.7052 21.5712 38.7267 21.6793 38.7266 21.7884C38.7264 21.8976 38.7047 22.0056 38.6626 22.1062C38.6205 22.2069 38.5588 22.2983 38.4813 22.375C38.4037 22.4517 38.3116 22.5123 38.2105 22.5533L30.773 25.6415C30.6718 25.683 30.5635 25.7044 30.4541 25.7043Z" fill="white"/>
<path d="M37.9827 28.5537C37.8828 28.5536 37.7836 28.5354 37.6902 28.5L30.1618 25.6506C29.9614 25.5698 29.8006 25.4136 29.7139 25.2157C29.6272 25.0177 29.6216 24.7937 29.6981 24.5916C29.7746 24.3895 29.9272 24.2254 30.1233 24.1345C30.3193 24.0436 30.5432 24.0331 30.7469 24.1052L38.2753 26.9538C38.4565 27.022 38.6081 27.1516 38.7035 27.3202C38.7989 27.4887 38.8321 27.6854 38.7973 27.8759C38.7624 28.0664 38.6618 28.2387 38.5129 28.3625C38.364 28.4864 38.1764 28.5541 37.9827 28.5537Z" fill="white"/>
<path d="M79.2407 17.3671C86.5694 26.4483 89.9904 38.0688 88.7512 49.6724C87.512 61.2759 81.7141 71.912 72.6329 79.2407C63.5517 86.5694 51.9312 89.9904 40.3276 88.7512C28.7241 87.512 18.088 81.7141 10.7593 72.6329C3.43064 63.5517 0.00959192 51.9312 1.24878 40.3276C2.48798 28.7241 8.28591 18.088 17.3671 10.7593C26.4483 3.43064 38.0688 0.00959245 49.6724 1.24878C61.2759 2.48798 71.9119 8.2859 79.2407 17.3671L79.2407 17.3671Z" stroke="white" stroke-width="2"/>
</svg>
