<svg width="90" height="90" viewBox="0 0 90 90" fill="none" xmlns="http://www.w3.org/2000/svg">
<path d="M41.8017 63.6099C41.6095 63.6098 41.4242 63.5374 41.282 63.4069L27.7353 50.9854C27.6188 50.8787 27.5372 50.7387 27.5016 50.584C27.4659 50.4293 27.4778 50.2673 27.5358 50.1197C30.024 44.2346 33.5075 38.8314 37.8304 34.1515C49.6593 21.0056 67.9144 19.0227 68.0977 19.0039C68.2056 18.993 68.3145 19.005 68.4174 19.0393C68.5204 19.0736 68.615 19.1294 68.6953 19.203C68.7755 19.2766 68.8395 19.3665 68.8831 19.4666C68.9267 19.5668 68.949 19.6752 68.9484 19.7846C68.9484 19.9704 68.7427 38.5023 56.9137 51.649C52.7137 56.4409 47.72 60.4588 42.1559 63.5232C42.0464 63.5802 41.9249 63.6099 41.8017 63.6099ZM29.1754 50.1962L41.9216 61.883C47.1258 58.9249 51.8046 55.1109 55.7652 50.5982C65.7195 39.5367 67.1588 24.4828 67.3661 20.6785C63.6345 21.2499 48.9285 24.14 38.9742 35.1992C34.9052 39.6139 31.5935 44.6823 29.1754 50.1962Z" fill="#E41A32"/>
<path d="M39.1312 65.7561C38.939 65.7559 38.7537 65.6836 38.6115 65.5531L25.8738 53.874C25.7813 53.7893 25.7106 53.6833 25.6675 53.565C25.6245 53.4467 25.6105 53.3196 25.6266 53.1947C25.6428 53.0697 25.6888 52.9506 25.7605 52.8474C25.8322 52.7442 25.9276 52.6601 26.0385 52.6023L29.2342 50.9371C29.3743 50.8641 29.5331 50.836 29.6894 50.8566C29.8458 50.8773 29.9921 50.9457 30.1089 51.0526L40.9866 61.0267C41.1035 61.1336 41.1852 61.2741 41.2207 61.4293C41.2562 61.5845 41.2439 61.7469 41.1853 61.8948L39.8489 65.265C39.7916 65.4099 39.6926 65.5341 39.5646 65.6216C39.4367 65.7091 39.2858 65.756 39.1312 65.7561ZM27.7377 53.4743L38.8265 63.6412L39.5496 61.8183L29.467 52.5726L27.7377 53.4743Z" fill="#E41A32"/>
<path d="M20.7729 47.1375C20.66 47.1374 20.5484 47.1124 20.446 47.0641C20.3436 47.0158 20.253 46.9455 20.1805 46.858C20.1079 46.7706 20.0552 46.6682 20.0261 46.558C19.997 46.4478 19.9922 46.3325 20.0119 46.2202C20.2832 44.6577 20.8694 43.1681 21.7343 41.8437C24.8951 36.9722 31.5849 34.3358 36.9507 35.8441C37.0495 35.8707 37.1421 35.9168 37.2232 35.9797C37.3042 36.0426 37.3721 36.1211 37.4229 36.2107C37.4737 36.3003 37.5064 36.3991 37.5191 36.5015C37.5318 36.604 37.5242 36.7079 37.4969 36.8074C37.4695 36.9068 37.4229 36.9998 37.3597 37.0809C37.2965 37.1621 37.218 37.2298 37.1288 37.2801C37.0395 37.3304 36.9412 37.3624 36.8396 37.3741C36.738 37.3859 36.6352 37.3772 36.5369 37.3485C31.7767 36.012 25.8417 38.3634 23.0266 42.7001C22.605 43.351 22.2593 44.0488 21.9964 44.7798C24.8669 43.482 28.1106 43.298 31.107 44.263C31.2945 44.3315 31.4486 44.4706 31.537 44.651C31.6254 44.8315 31.6413 45.0395 31.5814 45.2315C31.5215 45.4235 31.3905 45.5848 31.2156 45.6816C31.0407 45.7784 30.8355 45.8033 30.6429 45.751C29.0768 45.2382 27.4169 45.0849 25.7846 45.3022C24.1522 45.5195 22.5885 46.102 21.2076 47.0071C21.0789 47.0934 20.9275 47.1389 20.7729 47.1375Z" fill="#E41A32"/>
<path d="M46.5131 70.7383C46.3793 70.7383 46.2477 70.7032 46.1313 70.6365C46.0148 70.5698 45.9176 70.4737 45.849 70.3576C45.7804 70.2416 45.7428 70.1095 45.7399 69.9744C45.737 69.8393 45.769 69.7057 45.8326 69.5868C46.5925 68.1121 47.0167 66.4849 47.0744 64.8236C47.1321 63.1624 46.8217 61.5091 46.1659 59.9844C46.0855 59.7939 46.0833 59.579 46.1599 59.3869C46.2365 59.1948 46.3855 59.0413 46.5742 58.9601C46.763 58.879 46.9759 58.8768 47.1662 58.9541C47.3564 59.0314 47.5085 59.1819 47.5889 59.3723C48.8287 62.2918 48.9576 65.5703 47.9509 68.5797C48.6464 68.2446 49.3008 67.8286 49.9006 67.34C53.9091 64.0947 55.6585 57.9062 53.8843 53.2502C53.8482 53.1544 53.831 53.0523 53.834 52.9499C53.8369 52.8474 53.8598 52.7465 53.9013 52.6529C53.9429 52.5594 54.0022 52.475 54.0761 52.4046C54.1499 52.3342 54.2368 52.2792 54.3317 52.2427C54.4266 52.2062 54.5277 52.189 54.6293 52.1919C54.7308 52.1949 54.8307 52.218 54.9234 52.2599C55.0161 52.3018 55.0997 52.3618 55.1694 52.4363C55.2391 52.5109 55.2936 52.5986 55.3298 52.6944C57.3313 57.9468 55.3731 64.916 50.872 68.5602C49.6487 69.5555 48.2363 70.287 46.722 70.7094C46.654 70.7287 46.5837 70.7385 46.5131 70.7383Z" fill="#E41A32"/>
<path d="M66.6208 31.569C66.5885 31.5692 66.5562 31.5671 66.5241 31.5628C64.171 31.268 61.9667 30.2429 60.2156 28.629C58.4561 27.0241 57.2337 24.9072 56.7176 22.5708C56.6876 22.4682 56.6789 22.3604 56.6919 22.2542C56.7049 22.148 56.7394 22.0456 56.7933 21.9535C56.8472 21.8613 56.9192 21.7813 57.005 21.7184C57.0908 21.6555 57.1885 21.6111 57.292 21.588C57.3955 21.5648 57.5026 21.5634 57.6067 21.5837C57.7107 21.6041 57.8096 21.6459 57.897 21.7064C57.9844 21.767 58.0585 21.845 58.1148 21.9357C58.1711 22.0264 58.2083 22.1278 58.2241 22.2336C58.677 24.2535 59.7345 26.0839 61.2532 27.4764C62.772 28.8688 64.6783 29.7558 66.7136 30.017C66.9085 30.042 67.0866 30.141 67.2119 30.2937C67.3371 30.4465 67.4001 30.6417 67.388 30.8396C67.3758 31.0375 67.2896 31.2233 67.1467 31.3594C67.0038 31.4954 66.8149 31.5715 66.6185 31.5721L66.6208 31.569Z" fill="#E41A32"/>
<path d="M55.1376 39.1425C53.8581 39.1446 52.6294 38.6377 51.7177 37.7315C50.806 36.8253 50.2848 35.593 50.2671 34.3015C50.2494 33.0101 50.7366 31.7637 51.6231 30.8324C52.5096 29.9011 53.7239 29.36 55.003 29.3263C56.282 29.2927 57.5227 29.7692 58.456 30.6526C59.3894 31.5361 59.9402 32.7552 59.9892 34.0458C60.0381 35.3364 59.5812 36.5945 58.7175 37.5474C57.8538 38.5002 56.6529 39.0711 55.375 39.1363C55.2954 39.1402 55.2157 39.1425 55.1376 39.1425ZM55.1446 30.9453C54.6861 30.9443 54.2326 31.0404 53.8133 31.2273C53.3939 31.4142 53.018 31.6878 52.7099 32.0305C52.2018 32.5937 51.9009 33.3161 51.8576 34.0767C51.8143 34.8372 52.0313 35.5897 52.4722 36.2079C52.9132 36.8262 53.5512 37.2727 54.2794 37.4726C55.0076 37.6725 55.7818 37.6136 56.4722 37.3059C57.1625 36.9982 57.7272 36.4603 58.0714 35.7824C58.4157 35.1045 58.5186 34.3277 58.363 33.5823C58.2074 32.8369 57.8027 32.1681 57.2168 31.688C56.6308 31.2079 55.8992 30.9457 55.1446 30.9453Z" fill="#E41A32"/>
<path d="M35.7702 49.3163C35.6204 49.3164 35.4737 49.2724 35.3481 49.1899C35.2225 49.1074 35.1233 48.9898 35.0627 48.8514C35.0021 48.713 34.9826 48.5599 35.0066 48.4105C35.0306 48.2612 35.0971 48.1221 35.1979 48.0102L41.1871 41.3549C41.255 41.2776 41.3374 41.2147 41.4296 41.1698C41.5218 41.1249 41.6219 41.099 41.7241 41.0934C41.8262 41.0879 41.9285 41.1028 42.0249 41.1375C42.1214 41.1721 42.21 41.2257 42.2857 41.2952C42.3615 41.3647 42.4228 41.4487 42.4662 41.5422C42.5095 41.6358 42.534 41.7372 42.5383 41.8404C42.5426 41.9436 42.5265 42.0466 42.491 42.1435C42.4556 42.2405 42.4014 42.3293 42.3317 42.4049L36.3426 49.0602C36.2701 49.1408 36.1818 49.2052 36.0832 49.2493C35.9847 49.2934 35.8781 49.3162 35.7702 49.3163Z" fill="#E41A32"/>
<path d="M42.9265 55.8811C42.7766 55.8812 42.6299 55.8372 42.5043 55.7547C42.3787 55.6722 42.2796 55.5546 42.2189 55.4162C42.1583 55.2779 42.1388 55.1247 42.1628 54.9753C42.1868 54.826 42.2533 54.6869 42.3542 54.575L48.3433 47.9181C48.4112 47.8408 48.4937 47.7779 48.5859 47.7331C48.678 47.6882 48.7781 47.6622 48.8803 47.6566C48.9825 47.6511 49.0848 47.6661 49.1812 47.7007C49.2776 47.7354 49.3663 47.789 49.442 47.8585C49.5177 47.9279 49.5791 48.0119 49.6224 48.1055C49.6658 48.1991 49.6903 48.3004 49.6946 48.4036C49.6988 48.5068 49.6828 48.6099 49.6473 48.7068C49.6118 48.8037 49.5577 48.8925 49.4879 48.9681L43.4957 55.6211C43.424 55.702 43.3363 55.767 43.2383 55.8117C43.1403 55.8565 43.0341 55.8801 42.9265 55.8811Z" fill="#E41A32"/>
<path d="M40.8411 50.9386C40.6913 50.9387 40.5447 50.8948 40.4191 50.8124C40.2936 50.73 40.1944 50.6125 40.1337 50.4742C40.073 50.336 40.0534 50.1829 40.0772 50.0337C40.1011 49.8844 40.1674 49.7453 40.268 49.6333L46.2579 42.9772C46.3259 42.8999 46.4083 42.837 46.5005 42.7921C46.5926 42.7472 46.6927 42.7213 46.7949 42.7157C46.8971 42.7102 46.9994 42.7252 47.0958 42.7598C47.1922 42.7944 47.2809 42.8481 47.3566 42.9175C47.4324 42.987 47.4937 43.071 47.537 43.1646C47.5804 43.2581 47.6049 43.3595 47.6092 43.4627C47.6135 43.5659 47.5974 43.669 47.5619 43.7659C47.5265 43.8628 47.4723 43.9516 47.4025 44.0272L41.4134 50.6833C41.3409 50.7638 41.2525 50.828 41.154 50.872C41.0554 50.916 40.9489 50.9387 40.8411 50.9386Z" fill="#E41A32"/>
<path d="M30.6097 73.6425C30.4679 73.643 30.3287 73.6038 30.2076 73.5292C30.0865 73.4546 29.9882 73.3477 29.9237 73.2201C29.2702 71.7185 28.8929 70.1093 28.8101 68.4712C28.2577 68.6386 27.6852 68.729 27.1086 68.7398C25.6577 68.7858 24.3507 70.8586 23.6121 72.7837C23.6075 72.7946 23.5843 72.8555 23.5789 72.8665C23.5179 73.0116 23.4144 73.1343 23.2822 73.218C23.1499 73.3018 22.9954 73.3426 22.8395 73.3349C22.6846 73.3277 22.5354 73.2737 22.4113 73.1799C22.2872 73.0861 22.1938 72.9567 22.1435 72.8087C22.1218 72.7447 20.2471 66.2744 24.773 64.0463C24.7869 64.0385 25.7119 63.5178 25.5464 62.8355C25.4998 62.782 25.437 62.7458 25.3677 62.7324C24.6531 62.5388 23.0723 63.2313 22.4211 63.6279C22.2964 63.7058 22.1522 63.7463 22.0055 63.7446C21.8588 63.743 21.7156 63.6993 21.5926 63.6186C21.4696 63.5379 21.3719 63.4235 21.3109 63.2889C21.2498 63.1542 21.228 63.0048 21.2479 62.8581C21.9545 60.1711 23.3773 57.731 25.3615 55.8031C26.1017 55.1057 26.9722 54.5646 27.9222 54.2112C28.0177 54.1746 28.1195 54.1573 28.2216 54.1606C28.3238 54.1639 28.4243 54.1875 28.5173 54.2302C28.6103 54.2729 28.6941 54.3338 28.7636 54.4093C28.8332 54.4849 28.8873 54.5736 28.9227 54.6704C28.9581 54.7671 28.9742 54.87 28.9699 54.9731C28.9657 55.0762 28.9413 55.1774 28.8981 55.2709C28.8549 55.3644 28.7938 55.4483 28.7183 55.5178C28.6428 55.5873 28.5544 55.641 28.4582 55.6758C27.6999 55.9582 27.0051 56.3902 26.4141 56.9468C25.0891 58.2301 24.0428 59.7773 23.3414 61.4903C24.1015 61.1738 24.9343 61.0789 25.7451 61.2163C25.997 61.276 26.2336 61.3886 26.4395 61.5468C26.6454 61.705 26.816 61.9052 26.94 62.1344C26.9603 62.1724 26.9774 62.2121 26.9911 62.2531C27.5324 63.8355 26.2385 65.0276 25.4768 65.4367C23.6206 66.3509 23.2448 68.3526 23.2811 69.9647C24.1318 68.5868 25.3917 67.237 27.0661 67.1839C27.941 67.1716 28.7946 66.9099 29.5285 66.429C29.6797 66.3371 29.8574 66.3002 30.0322 66.3243C30.2069 66.3485 30.3683 66.4322 30.4895 66.5616C30.6106 66.691 30.6843 66.8584 30.6983 67.0359C30.7123 67.2134 30.6658 67.3904 30.5664 67.5375C30.2261 68.0403 30.3213 69.1176 30.5571 70.1755C31.1413 69.0469 32.0992 68.1612 33.264 67.6726L33.4063 67.6062C34.2634 67.2205 35.0242 66.6463 35.633 65.9255C36.2419 65.2048 36.6834 64.3557 36.9252 63.4405C36.9784 63.2405 37.108 63.07 37.2857 62.9665C37.4634 62.8629 37.6745 62.8349 37.8726 62.8885C38.0708 62.9422 38.2397 63.0731 38.3422 63.2524C38.4448 63.4318 38.4725 63.6449 38.4194 63.8449C38.1189 64.9833 37.5702 66.0395 36.8134 66.9364C36.0565 67.8333 35.1108 68.5481 34.0451 69.0286L33.8905 69.0989C33.1681 69.4299 32.5511 69.957 32.1081 70.6212C31.6651 71.2855 31.4136 72.0609 31.3816 72.861C31.3817 72.9642 31.3616 73.0664 31.3226 73.1618C31.2835 73.2572 31.2262 73.3438 31.154 73.4169C31.0817 73.4899 30.9959 73.5478 30.9015 73.5873C30.807 73.6268 30.7058 73.6472 30.6036 73.6472L30.6097 73.6425Z" fill="#E41A32"/>
<path d="M81.7891 20.8636C88.1904 30.6207 90.4536 42.5211 88.0808 53.9468C85.7079 65.3726 78.8934 75.3877 69.1364 81.7891C59.3793 88.1904 47.4789 90.4536 36.0532 88.0808C24.6275 85.7079 14.6123 78.8934 8.21093 69.1364C1.80957 59.3793 -0.453633 47.4789 1.91921 36.0532C4.29205 24.6275 11.1066 14.6123 20.8636 8.21093C30.6207 1.80957 42.5211 -0.453633 53.9468 1.91921C65.3725 4.29205 75.3877 11.1066 81.7891 20.8636L81.7891 20.8636Z" stroke="#E41A32" stroke-width="2"/>
</svg>
