<svg id="Layer_1" data-name="Layer 1" xmlns="http://www.w3.org/2000/svg" width="283.83" height="2028.29" viewBox="0 0 283.83 2028.29"><defs><style>.cls-1,.cls-5{fill:none;}.cls-1,.cls-4{stroke:#e5b049;stroke-width:1.5px;}.cls-2{isolation:isolate;font-size:26.65px;fill:#d6a443;}.cls-2,.cls-7{font-family:NotoSansKR-Light-KSCpc-EUC-H, Noto Sans KR;}.cls-3,.cls-6{fill:#e5b049;}.cls-3{fill-rule:evenodd;}.cls-4{fill:#fff;}.cls-5{stroke:#b2b2b2;stroke-width:2px;stroke-dasharray:2 10;}.cls-7{font-size:18px;}.cls-8{letter-spacing:-0.01em;}.cls-9{letter-spacing:-0.01em;}.cls-10{letter-spacing:-0.02em;}.cls-11{letter-spacing:-0.04em;}.cls-12{letter-spacing:-0.02em;}.cls-13{letter-spacing:-0.05em;}.cls-14{letter-spacing:-0.05em;}.cls-15{letter-spacing:-0.02em;}.cls-16{letter-spacing:0em;}.cls-17{letter-spacing:-0.02em;}.cls-18{letter-spacing:-0.05em;}.cls-19{letter-spacing:-0.01em;}.cls-20{letter-spacing:-0.03em;}.cls-21{letter-spacing:-0.02em;}.cls-22{letter-spacing:-0.09em;}.cls-23{letter-spacing:0.02em;}.cls-24{letter-spacing:-0.02em;}</style></defs><title>info_mob</title><path class="cls-1" d="M135.42,606.09H62.92a17,17,0,0,1-17-17V510.86a2,2,0,0,1,2.64-1.9l4.23,1.41a2,2,0,0,0,1.27,0l6.3-2.1a2,2,0,0,1,1.14,0l8.43,2.21a2,2,0,0,0,1,0l9-2.25a2,2,0,0,1,1,0l8.49,2.23a2,2,0,0,0,1,0l8.45-2.22a2,2,0,0,1,1.08,0l7.34,2.16a2,2,0,0,0,1.24,0l6.38-2.29c.67-.16,2-.2,2,1" transform="translate(-16 -32)"/><path class="cls-1" d="M117.92,543.08h48.5" transform="translate(-16 -32)"/><path class="cls-1" d="M150.92,560.08h33c.5,0,1.4-.3,1-1.5" transform="translate(-16 -32)"/><circle class="cls-1" cx="77.92" cy="498.1" r="3.3"/><circle class="cls-1" cx="87.92" cy="509.1" r="3.3"/><path class="cls-1" d="M103.92,527.6l-10,17m6,12h-43m33,8h-33m43,8.5h-43" transform="translate(-16 -32)"/><text class="cls-2" transform="translate(36.9 514.26) scale(1.21 1)">50</text><path class="cls-1" d="M116.92,509.08v80a17,17,0,0,0,17,17h0a17,17,0,0,0,17-17v-29" transform="translate(-16 -32)"/><path class="cls-1" d="M150.92,585.58v-25.5a17,17,0,0,1,17-17h1a16,16,0,0,1,16,16h0" transform="translate(-16 -32)"/><path class="cls-3" d="M101.5,311.2l46.84-31.05.82,1.25-46.83,31.05a8.77,8.77,0,0,1-9.71,0l-46.29-31,.84-1.25,46.29,31A7.24,7.24,0,0,0,101.5,311.2Z" transform="translate(-16 -32)"/><path class="cls-3" d="M101.58,245.91l46.73,34.47.89-1.21-46.73-34.46a8.75,8.75,0,0,0-10.46,0L46.3,279.17l.9,1.2L92.91,246A7.26,7.26,0,0,1,101.58,245.91Z" transform="translate(-16 -32)"/><path class="cls-3" d="M147.28,351.36l-47.09-38,1-1.17,47.08,38Zm-100-1.17,46.6-38,1,1.17-46.61,38Z" transform="translate(-16 -32)"/><path class="cls-3" d="M93.78,268.92,79,302.6,77.52,302l14.8-33.68A2.79,2.79,0,0,1,96,266.83l24.85,10.74-.63,1.47L95.35,268.3A1.2,1.2,0,0,0,93.78,268.92Z" transform="translate(-16 -32)"/><path class="cls-3" d="M123.58,277.57,84.73,306.91l-1-1.27,38.84-29.34a2.8,2.8,0,0,1,3.86.46l9.4,11.51-1.24,1-9.4-11.51A1.2,1.2,0,0,0,123.58,277.57Z" transform="translate(-16 -32)"/><path class="cls-3" d="M64.16,273a2.8,2.8,0,0,1,2.78-2.8L92.47,270v1.6L67,271.75a1.2,1.2,0,0,0-1.19,1.2v20.32h-1.6Z" transform="translate(-16 -32)"/><path class="cls-3" d="M70,278.27a2.75,2.75,0,0,1,2.75-2.75h16.5V277H72.75a1.25,1.25,0,0,0-1.25,1.25v18H70Z" transform="translate(-16 -32)"/><path class="cls-3" d="M96.15,277.2a2.75,2.75,0,0,1,3.58-1.35l15.21,6.54-.59,1.38-15.22-6.54a1.24,1.24,0,0,0-1.62.61L84.43,305.59,83.07,305Z" transform="translate(-16 -32)"/><path class="cls-3" d="M121.61,286.19a2.74,2.74,0,0,1,3.79.48l4.93,6.13-1.17.94-4.93-6.13a1.24,1.24,0,0,0-1.72-.22L91.2,310.87l-.9-1.2Z" transform="translate(-16 -32)"/><path class="cls-3" d="M46.75,279a.76.76,0,0,1,.75.75v69A1.25,1.25,0,0,0,48.75,350h98a1.25,1.25,0,0,0,1.25-1.25v-69a.75.75,0,0,1,1.5,0v69a2.75,2.75,0,0,1-2.75,2.75h-98A2.75,2.75,0,0,1,46,348.77v-69A.76.76,0,0,1,46.75,279Z" transform="translate(-16 -32)"/><path class="cls-3" d="M115,39.13a1.25,1.25,0,0,0-1.36,1.8l11.08,21.29-1.34.69L112.26,41.62a2.75,2.75,0,0,1,3-4l88.21,17.78a1.25,1.25,0,0,1,1.3,2l-52.53,57a2.75,2.75,0,0,1-4.49-.63l-17.3-34.69L197,57.55l-64.88,5.76-.14-1.49,66.34-5.9Zm88.06,18L132.56,80l16.52,33.13a1.25,1.25,0,0,0,2,.28Z" transform="translate(-16 -32)"/><path class="cls-3" d="M123.37,63.24l-1.05-2.37,1.36-.61,1.06,2.37a4.75,4.75,0,0,1-.52,4.75L110.59,85.82a.21.21,0,0,0,0,.15.3.3,0,0,0,0,.15.26.26,0,0,0,.13.09.23.23,0,0,0,.16,0l20.86-7.69.52,1.41L111.4,87.61a1.75,1.75,0,0,1-2-2.68L123,66.49A3.25,3.25,0,0,0,123.37,63.24Z" transform="translate(-16 -32)"/><path class="cls-3" d="M111,86.32l23.5-1,.06,1.49-23.5,1Z" transform="translate(-16 -32)"/><path class="cls-3" d="M76.49,38.64A14.52,14.52,0,0,1,96.66,37l3.82,3.15-1,1.16L95.7,38.16a13,13,0,0,0-18.08,1.46,16.13,16.13,0,0,1-22.06,2.11l-3-2.35.92-1.19,3,2.36A14.63,14.63,0,0,0,76.49,38.64Z" transform="translate(-16 -32)"/><path class="cls-3" d="M76.49,67.64A14.52,14.52,0,0,1,96.66,66l3.82,3.15-1,1.16L95.7,67.16a13,13,0,0,0-18.08,1.46,16.13,16.13,0,0,1-22.06,2.11l-3-2.35.92-1.19,3,2.36A14.63,14.63,0,0,0,76.49,67.64Z" transform="translate(-16 -32)"/><path class="cls-3" d="M76.49,99.64A14.52,14.52,0,0,1,96.66,98l3.82,3.15-1,1.16L95.7,99.16a13,13,0,0,0-18.08,1.47,16.14,16.14,0,0,1-22.06,2.1l-3-2.35.92-1.19,3,2.36A14.64,14.64,0,0,0,76.49,99.64Z" transform="translate(-16 -32)"/><path class="cls-3" d="M46.49,32l4,3.5-1,1.13-4-3.5Z" transform="translate(-16 -32)"/><path class="cls-3" d="M46.49,61.5l4,3.5-1,1.13-4-3.5Z" transform="translate(-16 -32)"/><path class="cls-3" d="M46.49,93.5l4,3.5-1,1.13-4-3.5Z" transform="translate(-16 -32)"/><path class="cls-1" d="M91.42,769H46.92a1,1,0,0,0-1,1v83a1,1,0,0,0,1,1h24" transform="translate(-16 -32)"/><path class="cls-1" d="M92.5,776H56a1,1,0,0,0-1,1v57a1,1,0,0,0,1,1H71.5" transform="translate(-16 -32)"/><path class="cls-1" d="M55,814.5l9.5-9.5a5,5,0,0,1,7,0" transform="translate(-16 -32)"/><path class="cls-1" d="M92,784.5V763a1,1,0,0,1,1-1h69a1,1,0,0,1,1,1v83a1,1,0,0,1-1,1H142" transform="translate(-16 -32)"/><path class="cls-1" d="M100,784.5V770a1,1,0,0,1,1-1h53a1,1,0,0,1,1,1v57a1,1,0,0,1-1,1H141" transform="translate(-16 -32)"/><path class="cls-1" d="M140,784.75H73A1.25,1.25,0,0,0,71.75,786v81A1.25,1.25,0,0,0,73,868.25h67a1.25,1.25,0,0,0,1.25-1.25V786A1.25,1.25,0,0,0,140,784.75Z" transform="translate(-16 -32)"/><path class="cls-1" d="M132,791.75H81A1.25,1.25,0,0,0,79.75,793v55A1.25,1.25,0,0,0,81,849.25h51a1.25,1.25,0,0,0,1.25-1.25V793A1.25,1.25,0,0,0,132,791.75Z" transform="translate(-16 -32)"/><path class="cls-1" d="M133,823.5l-12-12a7,7,0,0,0-9.9,0l-10.64,10.64a2,2,0,0,1-2.82,0l-.64-.64a7,7,0,0,0-9.9,0l-7,7" transform="translate(-16 -32)"/><path class="cls-1" d="M97,809.25A4.25,4.25,0,1,0,92.75,805,4.25,4.25,0,0,0,97,809.25Z" transform="translate(-16 -32)"/><path class="cls-1" d="M153.23,1071.31V998a2,2,0,0,0-2-2H47.92a2,2,0,0,0-2,2v94.08a2,2,0,0,0,2,2h83.5" transform="translate(-16 -32)"/><path class="cls-1" d="M146,1070.47v-63.16a2,2,0,0,0-2-2H59a2,2,0,0,0-2,2v76a2,2,0,0,0,2,2h73.11" transform="translate(-16 -32)"/><path class="cls-1" d="M66.46,1057.15c7-6.33,28-20,53.79-19.26m27-9.58a119.92,119.92,0,0,0-27,9.58Zm-53.09,28.84a94.84,94.84,0,0,1,26.11-19.26Z" transform="translate(-16 -32)"/><path class="cls-1" d="M141,1073.31H110.67m35.41-16.16h0Zm0,8.27h0Z" transform="translate(-16 -32)"/><path class="cls-1" d="M72.62,1027.17a4.25,4.25,0,1,0-4.25-4.25A4.25,4.25,0,0,0,72.62,1027.17Z" transform="translate(-16 -32)"/><path class="cls-1" d="M150.12,1104.86A17.13,17.13,0,1,0,133,1087.73,17.13,17.13,0,0,0,150.12,1104.86Z" transform="translate(-16 -32)"/><path class="cls-1" d="M150.12,1100.25a12.52,12.52,0,1,0-12.52-12.52A12.52,12.52,0,0,0,150.12,1100.25Z" transform="translate(-16 -32)"/><path class="cls-1" d="M156,1082.31l-5.94,9-4.06-4" transform="translate(-16 -32)"/><path class="cls-1" d="M136.92,1352h12a2,2,0,0,0,2-2V1235a2,2,0,0,0-2-2h-101a2,2,0,0,0-2,2v115a2,2,0,0,0,2,2h81.5" transform="translate(-16 -32)"/><path class="cls-1" d="M125.92,1342h14a1,1,0,0,0,1-1v-97a1,1,0,0,0-1-1h-83a1,1,0,0,0-1,1v97a1,1,0,0,0,1,1h62.51" transform="translate(-16 -32)"/><path class="cls-1" d="M150.42,1233.5l-5,5-5,5m-94-10,5,5,5,5Z" transform="translate(-16 -32)"/><path class="cls-1" d="M150.42,1351.5l-5-5-5-5m-94,10,5-5,5-5Z" transform="translate(-16 -32)"/><path class="cls-1" d="M93.67,1295.38a.64.64,0,0,1,.64-.63h9.23a.63.63,0,0,1,.63.63V1297a5.25,5.25,0,0,1-10.5,0Z" transform="translate(-16 -32)"/><path class="cls-1" d="M98.92,1317.25A24.25,24.25,0,1,0,74.67,1293,24.25,24.25,0,0,0,98.92,1317.25Z" transform="translate(-16 -32)"/><path class="cls-1" d="M137.76,1352.45,114.46,1332,112,1334.5l22,22a2.75,2.75,0,1,0,3.76-4Z" transform="translate(-16 -32)"/><path class="cls-1" d="M105.12,1327.68v.09c-.41,2.33-.67,3.78.45,5.28a4.48,4.48,0,0,0,3.67,2,5.39,5.39,0,0,0,3.82-1.79,6,6,0,0,0-.62-8.48,9.19,9.19,0,0,0-5.58-2.07,7,7,0,0,0-5,1.29h0a8.1,8.1,0,0,0,1.08.9l.14.1a13.12,13.12,0,0,1,1.29,1,3.37,3.37,0,0,1,.57.68A1.61,1.61,0,0,1,105.12,1327.68Z" transform="translate(-16 -32)"/><path class="cls-1" d="M67.92,1293a31,31,0,0,1,31-31" transform="translate(-16 -32)"/><path class="cls-1" d="M129.92,1293a31,31,0,0,1-17,27.67" transform="translate(-16 -32)"/><path class="cls-1" d="M98.92,1324a30.91,30.91,0,0,1-19-6.5" transform="translate(-16 -32)"/><path class="cls-1" d="M112.92,1265.33a31,31,0,0,1,13,12.43" transform="translate(-16 -32)"/><path class="cls-1" d="M89.17,1291a2.25,2.25,0,1,0-2.25,2.25A2.25,2.25,0,0,0,89.17,1291Z" transform="translate(-16 -32)"/><path class="cls-1" d="M113.17,1291a2.25,2.25,0,1,0-2.25,2.25A2.25,2.25,0,0,0,113.17,1291Z" transform="translate(-16 -32)"/><path class="cls-4" d="M101.38,1577.73,47.5,1638.54a6.25,6.25,0,0,0,.53,8.83l44,39a6.25,6.25,0,0,0,8.83-.54l53.88-60.8a6.26,6.26,0,0,0-.53-8.83l-44-39A6.25,6.25,0,0,0,101.38,1577.73Z" transform="translate(-16 -32)"/><path class="cls-4" d="M133.91,1612l-10.73,12.1a1.25,1.25,0,0,0,.11,1.77l8.55,7.58a1.25,1.25,0,0,0,1.77-.11l10.73-12.1a1.26,1.26,0,0,0-.11-1.77l-8.56-7.58A1.24,1.24,0,0,0,133.91,1612Z" transform="translate(-16 -32)"/><path class="cls-1" d="M67.29,1688h71" transform="translate(-16 -32)"/><path class="cls-1" d="M115.79,1582l-62.31,70.5" transform="translate(-16 -32)"/><path class="cls-1" d="M122,1588l-61.5,69.5" transform="translate(-16 -32)"/><path class="cls-1" d="M101.79,1649l-19.31,21.5" transform="translate(-16 -32)"/><path class="cls-1" d="M113.68,1649l-24.32,27.5" transform="translate(-16 -32)"/><path class="cls-1" d="M110.25,1646l-24.46,27.5" transform="translate(-16 -32)"/><path class="cls-3" d="M167.83,1826.25a7.75,7.75,0,0,1,7.75,7.75v69a7.75,7.75,0,0,1-7.75,7.75H101.69l-14.5,18a1.75,1.75,0,0,1-3.11-1.1v-16.91H60.83a7.75,7.75,0,0,1-7.75-7.75v-69a7.75,7.75,0,0,1,7.75-7.75ZM85.33,1910h.25v17.66a.25.25,0,0,0,.44.16l14.73-18.29.08.07v-.35h67a6.25,6.25,0,0,0,6.25-6.25v-69a6.25,6.25,0,0,0-6.25-6.25h-107a6.25,6.25,0,0,0-6.25,6.25v69a6.25,6.25,0,0,0,6.25,6.25h24.5Z" transform="translate(-16 -32)"/><path class="cls-1" d="M115.83,1918h57a10,10,0,0,0,10-10v-5" transform="translate(-16 -32)"/><path class="cls-1" d="M78.83,1819.2H55.92a10,10,0,0,0-10,10v5" transform="translate(-16 -32)"/><path class="cls-1" d="M74.44,1867.17l-.09-.06c-.25-.17-.61-.43-1-.77a27.39,27.39,0,0,1-3.18-2.91c-2.32-2.51-4.55-6-4.55-9.93a8.75,8.75,0,0,1,17.5,0c0,4-2.23,7.55-4.56,10.12a22.35,22.35,0,0,1-3.16,2.92A9.74,9.74,0,0,1,74.44,1867.17Z" transform="translate(-16 -32)"/><path class="cls-1" d="M74.33,1857.25a3.75,3.75,0,1,0-3.75-3.75A3.75,3.75,0,0,0,74.33,1857.25Z" transform="translate(-16 -32)"/><path class="cls-1" d="M65.83,1880h99" transform="translate(-16 -32)"/><path class="cls-1" d="M65.83,1888h99" transform="translate(-16 -32)"/><path class="cls-1" d="M65.83,1896h62" transform="translate(-16 -32)"/><path class="cls-1" d="M162.83,1844.75h-67a1.25,1.25,0,0,0-1.25,1.25v21a1.25,1.25,0,0,0,1.25,1.25h67a1.25,1.25,0,0,0,1.25-1.25v-21A1.25,1.25,0,0,0,162.83,1844.75Z" transform="translate(-16 -32)"/><path class="cls-1" d="M108.83,1862v-7.72a1,1,0,0,0-1.68-.73l-2.32,2.13" transform="translate(-16 -32)"/><path class="cls-1" d="M117.83,1862v-7.72a1,1,0,0,0-1.68-.73l-2.32,2.13" transform="translate(-16 -32)"/><path class="cls-1" d="M126.83,1862v-7.72a1,1,0,0,0-1.68-.73l-2.32,2.13" transform="translate(-16 -32)"/><path class="cls-1" d="M134.83,1862v-7.72a1,1,0,0,0-1.68-.73l-2.32,2.13" transform="translate(-16 -32)"/><path class="cls-1" d="M143.83,1862v-7.72a1,1,0,0,0-1.68-.73l-2.32,2.13" transform="translate(-16 -32)"/><path class="cls-1" d="M152.83,1862v-7.72a1,1,0,0,0-1.68-.73l-2.32,2.13" transform="translate(-16 -32)"/><path class="cls-5" d="M20,56.5v1814" transform="translate(-16 -32)"/><path class="cls-6" d="M20,62a4,4,0,1,0-4-4A4,4,0,0,0,20,62Z" transform="translate(-16 -32)"/><path class="cls-6" d="M20,312a4,4,0,1,0-4-4A4,4,0,0,0,20,312Z" transform="translate(-16 -32)"/><path class="cls-6" d="M20,565a4,4,0,1,0-4-4A4,4,0,0,0,20,565Z" transform="translate(-16 -32)"/><path class="cls-6" d="M20,818a4,4,0,1,0-4-4A4,4,0,0,0,20,818Z" transform="translate(-16 -32)"/><path class="cls-6" d="M20,1035a4,4,0,1,0-4-4A4,4,0,0,0,20,1035Z" transform="translate(-16 -32)"/><path class="cls-6" d="M20,1275a4,4,0,1,0-4-4A4,4,0,0,0,20,1275Z" transform="translate(-16 -32)"/><path class="cls-6" d="M20,1646a4,4,0,1,0-4-4A4,4,0,0,0,20,1646Z" transform="translate(-16 -32)"/><path class="cls-6" d="M20,1877a4,4,0,1,0-4-4A4,4,0,0,0,20,1877Z" transform="translate(-16 -32)"/><text class="cls-7" transform="translate(29.51 121.89)">Send us in<tspan class="cls-8" x="83.73" y="0">f</tspan><tspan x="88.9" y="0">orm</tspan><tspan class="cls-9" x="122.33" y="0">a</tspan><tspan x="131.94" y="0">tion </tspan><tspan x="0" y="25">about your oil </tspan><tspan class="cls-10" x="117.05" y="25">p</tspan><tspan x="127.64" y="25">ainting.</tspan></text><text class="cls-7" transform="translate(29.51 356.82)"><tspan class="cls-11">Y</tspan><tspan x="8.33" y="0">ou will </tspan><tspan class="cls-9" x="65.66" y="0">g</tspan><tspan class="cls-8" x="75.2" y="0">e</tspan><tspan x="84.69" y="0">t full in</tspan><tspan class="cls-8" x="139.91" y="0">f</tspan><tspan x="145.08" y="0">orm</tspan><tspan class="cls-9" x="178.5" y="0">a</tspan><tspan x="188.12" y="0">tion</tspan><tspan x="0" y="25">and our </tspan><tspan class="cls-12" x="67.18" y="25">c</tspan><tspan x="75.78" y="25">ommen</tspan><tspan class="cls-8" x="139.37" y="25">t</tspan><tspan x="145.51" y="25">s by email</tspan><tspan x="0" y="50">(1-3 hour)</tspan></text><text class="cls-7" transform="translate(29.92 617.79)"><tspan class="cls-11">Y</tspan><tspan x="8.33" y="0">ou will </tspan><tspan class="cls-9" x="65.66" y="0">g</tspan><tspan class="cls-8" x="75.2" y="0">e</tspan><tspan x="84.69" y="0">t an invoi</tspan><tspan class="cls-12" x="158.96" y="0">c</tspan><tspan x="167.56" y="0">e with</tspan><tspan x="0" y="25">50 or 100% of the pri</tspan><tspan class="cls-12" x="166.08" y="25">c</tspan><tspan x="174.69" y="25">e on </tspan><tspan x="0" y="50">your </tspan><tspan class="cls-13" x="40.59" y="50">P</tspan><tspan x="50.67" y="50">ay</tspan><tspan class="cls-14" x="69.34" y="50">P</tspan><tspan x="79.42" y="50">al</tspan></text><text class="cls-7" transform="translate(29.92 873.74)"><tspan class="cls-11">Y</tspan><tspan x="8.33" y="0">ou will </tspan><tspan class="cls-9" x="65.66" y="0">g</tspan><tspan class="cls-8" x="75.2" y="0">e</tspan><tspan x="84.69" y="0">t ph</tspan><tspan class="cls-15" x="116.51" y="0">o</tspan><tspan class="cls-9" x="126.94" y="0">t</tspan><tspan class="cls-16" x="133.04" y="0">os </tspan><tspan x="0" y="25">of the </tspan><tspan class="cls-10" x="50.67" y="25">p</tspan><tspan x="61.25" y="25">ainting p</tspan><tspan class="cls-8" x="132.69" y="25">r</tspan><tspan x="138.96" y="25">o</tspan><tspan class="cls-12" x="149.65" y="25">c</tspan><tspan x="158.25" y="25">ess.</tspan></text><text class="cls-7" transform="translate(29.92 1114.34)"><tspan class="cls-11">Y</tspan><tspan x="8.33" y="0">ou will </tspan><tspan class="cls-9" x="65.66" y="0">g</tspan><tspan class="cls-8" x="75.2" y="0">e</tspan><tspan x="84.69" y="0">t ph</tspan><tspan class="cls-15" x="116.51" y="0">o</tspan><tspan class="cls-9" x="126.94" y="0">t</tspan><tspan class="cls-16" x="133.04" y="0">o of a </tspan><tspan class="cls-12" x="0" y="25">c</tspan><tspan x="8.6" y="25">ompl</tspan><tspan class="cls-8" x="51.26" y="25">e</tspan><tspan class="cls-9" x="60.75" y="25">t</tspan><tspan x="66.85" y="25">ed </tspan><tspan class="cls-17" x="91.42" y="25">p</tspan><tspan x="102.01" y="25">ainting.</tspan></text><text class="cls-7" transform="translate(29.92 1366.44)">When the <tspan class="cls-10" x="81" y="0">p</tspan><tspan x="91.58" y="0">ainting is </tspan><tspan class="cls-8" x="168.89" y="0">r</tspan><tspan class="cls-17" x="175.15" y="0">e</tspan><tspan x="184.53" y="0">ady </tspan><tspan x="0" y="25">you will </tspan><tspan class="cls-9" x="66.15" y="25">t</tspan><tspan x="72.25" y="25">ell me about some </tspan><tspan x="0" y="50">edition o</tspan><tspan class="cls-18" x="72.22" y="50">r</tspan><tspan x="77.83" y="50">, li</tspan><tspan class="cls-19" x="95.76" y="50">k</tspan><tspan x="104.87" y="50">e usuall</tspan><tspan class="cls-20" x="167.38" y="50">y</tspan><tspan x="175.75" y="50">, you </tspan><tspan x="0" y="75">will </tspan><tspan class="cls-9" x="32.02" y="75">t</tspan><tspan x="38.12" y="75">ell me “It looks </tspan><tspan class="cls-21" x="161.76" y="75">f</tspan><tspan x="166.73" y="75">abulous, </tspan><tspan x="0" y="100">I </tspan><tspan class="cls-8" x="8.89" y="100">c</tspan><tspan x="17.68" y="100">ant </tspan><tspan class="cls-9" x="48.53" y="100">t</tspan><tspan x="54.63" y="100">o see it in person</tspan><tspan class="cls-22" x="191.61" y="100">.</tspan><tspan x="194.4" y="100">”</tspan></text><text class="cls-7" transform="translate(29.92 1697.97)"><tspan class="cls-11">Y</tspan><tspan x="8.33" y="0">ou will send the se</tspan><tspan class="cls-12" x="157.48" y="0">c</tspan><tspan x="166.08" y="0">ond</tspan><tspan class="cls-10" x="0" y="25">p</tspan><tspan x="10.58" y="25">art of the </tspan><tspan class="cls-17" x="87.89" y="25">p</tspan><tspan x="98.48" y="25">aymen</tspan><tspan class="cls-23" x="153.77" y="25">t</tspan><tspan x="160.41" y="25">.</tspan></text><text class="cls-7" transform="translate(29.92 1935.06)"><tspan class="cls-11">Y</tspan><tspan x="8.33" y="0">ou will </tspan><tspan class="cls-9" x="65.66" y="0">g</tspan><tspan class="cls-8" x="75.2" y="0">e</tspan><tspan x="84.69" y="0">t a messa</tspan><tspan class="cls-9" x="160.94" y="0">g</tspan><tspan x="170.48" y="0">e</tspan><tspan x="0" y="25">with a t</tspan><tspan class="cls-24" x="59.52" y="25">r</tspan><tspan x="65.56" y="25">acking number</tspan><tspan x="0" y="50">of your shiipping.</tspan></text></svg>