<svg width="207" height="361" viewBox="0 0 207 361" fill="none" xmlns="http://www.w3.org/2000/svg">
<g opacity="0.8">
<path d="M44.3816 88.3706C44.8826 82.2838 48.9004 79.362 56.509 79.321C60.3263 78.834 61.619 76.3731 62.9116 73.9122C64.3154 71.0248 66.9925 69.9152 71.983 72.4234C75.3406 75.3662 77.1133 79.3925 82.0928 81.1098C83.3181 82.2389 83.8807 83.4121 83.7805 84.6295C83.5952 85.3403 83.0176 85.891 82.2807 86.2194C71.4695 86.0546 64.0378 90.4144 55.7732 93.8052C55.1955 94.3559 54.2624 94.6043 53.1702 94.6305C50.2379 94.2204 47.7612 92.8952 45.4326 91.0014C44.5998 90.0324 44.1593 89.2236 44.3816 88.3706Z" fill="#F8AF5A"/>
<path d="M83.6588 197.306C81.9535 195.697 80.2482 194.089 78.5429 192.48C76.6817 190.655 73.5187 188.915 74.793 186.523C75.3981 185.85 75.9665 185.314 77.0758 185.151C79.2945 184.825 82.0541 184.871 84.2912 186.083C96.1732 192.73 108.798 197.383 121.422 202.035C126.272 203.846 127.299 206.404 122.486 207.669C115.28 207.507 108.789 203.042 104.324 201.387C100.473 199.828 101.188 201.955 101.252 200.909C101.289 200.771 101.482 200.849 101.674 200.927C106.176 202.443 110.824 203.407 114.051 207.316C114.409 208.379 114.033 208.992 113.08 209.371C105.525 208.914 98.3096 204.768 90.8833 202.221C88.3804 201.207 86.0975 199.365 83.6588 197.306Z" fill="#F4A13E"/>
<path d="M142.023 74.9702C146.624 77.5743 152.843 74.186 156.643 80.5443C160.073 80.4132 163.29 81.8572 166.662 83.5143C175.209 88.0064 183.984 92.4392 193.311 94.829C199.944 98.5518 207.593 100.871 212.872 106.465C213.034 107.436 212.623 108.176 212.019 108.84C208.678 110.214 204.614 107.977 200.941 106.652C184.179 100.367 168.196 91.9811 151.846 84.9567C147.635 83.2643 143.652 81.5126 140.758 78.085C139.749 76.3207 140.043 75.2312 142.023 74.9702Z" fill="#F89C2C"/>
<path d="M180.748 72.97C192.707 75.3628 204.686 79.2972 216.508 83.015C224.602 83.0744 231.047 89.3683 238.482 91.9215C239.638 92.3903 240.529 93.058 241.382 93.8643C242.532 100.006 236.556 97.5842 233.463 95.5633C222.557 88.3819 210.682 89.7049 199.556 83.3547C191.249 78.4535 195.721 86.5559 193.905 88.581C191.134 90.9863 188.838 88.3685 186.433 86.1664C183.394 82.3267 179.015 78.7109 179.115 74.3024C179.298 73.6097 179.83 73.2117 180.748 72.97Z" fill="#F8AE54"/>
<path d="M159.56 267.353C156.389 266.373 153.145 265.672 150.315 264.212C144.146 260.776 145.312 264.497 144.918 266.81L144.374 266.434C138.78 265.706 133.36 263.502 128.269 260.041C124.811 257.707 121.62 255.173 123.349 251.856C123.559 250.241 128.722 253.422 126.866 249.885C127.186 247.851 128.992 247.503 131.499 247.749C132.734 247.942 133.702 248.335 134.863 248.808C143.271 252.69 150.281 258.632 158.044 263.335C159.41 264.663 160.351 265.974 159.56 267.353Z" fill="#FDDAB2"/>
<path d="M123.509 252.387C127.246 260.778 137.371 261.97 144.206 266.723C136.747 267.526 116.315 259.412 111.074 253.47C108.472 250.43 109.334 248.791 113.017 249.364C116.664 250.076 120.128 251.477 123.509 252.387Z" fill="#F9AF5A"/>
<path d="M219.052 78.0262C218.865 75.4779 216.903 75.6074 214.664 75.1608C209.836 73.9706 205.872 71.1229 203.205 67.4122C202.071 66.0239 202.071 66.0239 206.962 66.1582C211.927 66.0134 217.753 69.927 222.311 68.0714C222.891 68.3074 223.509 68.4039 224.126 68.5003C226.318 68.3098 227.876 69.7159 229.775 70.6423C230.322 74.2642 231.56 77.7033 236.215 80.3682C237.193 81.5383 237.747 82.6906 237.066 83.65C236.145 83.8937 235.067 83.9191 234.257 83.744C231.834 83.9954 228.771 79.3507 226.693 82.3687C223.303 82.2267 220.667 80.846 219.052 78.0262Z" fill="#F8A94A"/>
<path d="M108.997 241.962C100.97 240.856 94.1631 235.953 86.7965 232.356C82.4389 230.284 77.76 227.009 78.952 224.121C80.52 220.618 85.4468 225.373 88.8685 226.146C96.3265 227.788 101.602 232.837 107.593 236.796C109.648 238.701 110.474 240.415 108.997 241.962Z" fill="#FCC079"/>
<path d="M142.522 75.6422C142.11 76.3936 141.66 77.2831 141.055 77.9565C139.772 79.5797 137.397 79.6897 134.711 79.3673C133.097 79.0201 131.557 78.3965 130.017 77.7728C121.93 74.4987 113.275 74.974 105.729 68.8576C105.106 67.9929 105.097 67.2239 105.665 66.6887C117.85 66.5711 130.264 69.6075 142.522 75.6422Z" fill="#F9BC73"/>
<path d="M60.4118 175.685C57.2863 173.463 51.9413 172.23 53.0575 167.949C57.1548 163.938 47.9073 160.955 47.7781 157.271C47.9641 156.558 48.3471 155.925 48.89 155.515C50.8379 154.731 53.0683 154.536 55.4584 154.563C57.5771 154.796 59.5098 155.743 61.0967 157.179C61.773 157.929 62.2152 158.741 62.6573 159.552C63.222 160.73 63.5525 161.97 64.1173 163.147C63.9116 168.115 65.7502 173.601 64.1284 178.149C62.4409 177.934 61.1735 176.943 60.4118 175.685Z" fill="#F9B768"/>
<path d="M99.2552 216.614C95.8813 215.551 95.635 211.568 91.9567 210.847C90.6712 210.013 89.5799 209.258 88.2943 208.424C84.7581 203.878 87.2506 202.564 91.2963 201.882C98.8837 203.264 105.92 206.75 113.067 209.815C113.502 210.614 113.512 211.394 113.135 212.017C110.007 214.936 103.632 208.924 100.384 211.483C98.778 212.693 101.832 215.8 99.2552 216.614Z" fill="#FAAA4D"/>
<path d="M34.9599 130.876C29.678 124.288 32.5794 120.719 37.1004 117.653C40.1199 116.983 42.9634 117.826 45.743 119.751C47.828 122.66 44.5094 124.474 46.7922 127.464C51.2299 135.608 40.0536 132.319 38.2532 135.861C33.4429 135.008 36.3177 132.379 34.9599 130.876Z" fill="#F7AB4F"/>
<path d="M105.671 67.213C105.561 67.6351 105.414 68.198 105.303 68.6202C108.011 71.4364 112.133 72.9603 114.877 75.6358C116.092 76.7535 116.649 77.9149 116.549 79.1199C116.365 79.8235 115.987 80.4478 115.22 80.9136C113.064 81.748 110.583 81.3597 108.054 80.3292C107.081 79.9328 106.109 79.5365 105.173 78.9994C104.2 78.6031 103.265 78.066 102.329 77.529C99.8735 76.217 97.4183 74.9051 95.536 73.0481C94.2373 71.4289 93.5958 69.7661 95.1675 68.6939C97.3752 66.0123 100.056 63.9906 105.671 67.213Z" fill="#F7AD53"/>
<path d="M95.4785 69.2739C95.6108 70.4229 95.78 71.4305 95.9123 72.5796C96.3505 73.384 96.5565 74.2503 96.5674 75.0369C96.3829 75.7438 95.808 76.2915 95.2331 76.8392C93.1179 78.323 90.4061 78.7813 86.9393 77.9931C83.7047 77.1431 80.8498 75.6658 78.4114 73.4197C73.5435 63.9253 82.6724 67.0229 88.1437 66.7516C90.8555 66.2933 93.0878 67.6731 95.4785 69.2739Z" fill="#FAC687"/>
<path d="M107.965 238.248C111.034 237.955 114.601 240.632 117.43 239.628C118.349 239.385 119.424 239.36 120.618 239.691C123.972 240.744 127.143 242.492 129.708 244.917C130.876 246.16 131.391 247.445 131.024 248.834C129.839 249.276 128.691 249.579 127.506 250.021C121.321 246.742 115.098 243.602 108.583 241.574C108.454 240.445 108.095 239.377 107.965 238.248Z" fill="#FCC787"/>
<path d="M165.765 74.5059C170.634 78.0375 177.437 79.1011 181.246 84.2168C175.994 83.7845 169.475 80.8211 166.953 85.5301C163.572 83.6893 160.155 81.9885 156.775 80.1477C158.626 77.1807 159.774 73.6179 165.765 74.5059Z" fill="#F9BA6E"/>
<path d="M45.9934 119.741C43.2251 119.554 40.3348 119.003 37.5076 117.378C35.1503 113.119 38.9283 110.265 36.5711 106.006C37.1957 106.104 37.5505 106.405 37.9052 106.707C41.1763 106.629 44.1145 107.828 46.7568 110.162C47.695 113.214 48.2044 116.247 49.7673 119.397C48.8837 120.293 47.7564 120.461 45.9934 119.741Z" fill="#FAC788"/>
<path d="M222.561 68.0153C223.691 71.8826 220.757 71.6183 217.279 70.9774C213.45 70.039 210.375 67.8587 207.19 66.0984C210.613 59.5921 216.652 64.3723 222.561 68.0153Z" fill="#FAC381"/>
<path d="M180.725 74.5632C175.073 71.6503 168.523 73.7702 162.998 68.7499C170.218 64.8974 173.034 65.5788 181.405 73.6058C181.138 73.8059 181.028 74.2238 180.725 74.5632Z" fill="#FBD7AB"/>
<path d="M49.629 157.107C48.302 156.41 46.9382 155.854 45.4164 155.077C43.5417 154.001 41.4723 152.845 39.5976 151.769C38.5177 149.301 39.3493 147.767 41.8238 147.372C42.8716 147.487 43.8826 147.743 44.8199 148.281C45.7572 148.819 46.4261 149.56 47.0949 150.301C47.2529 150.521 47.6057 150.821 47.9217 151.262C48.7118 152.364 49.5018 153.466 50.0601 154.63C50.1813 154.992 50.3025 155.353 50.2289 155.635C50.0816 156.199 49.7394 156.684 49.629 157.107Z" fill="#FCE4C6"/>
<path d="M36.4408 142.944C33.8316 141.415 32.9601 139.817 33.8632 138.009C34.5562 137.825 35.4067 137.861 36.378 138.256C38.478 139.267 40.5044 140.559 42.2999 141.911C43.9012 143.185 45.0404 144.581 45.4866 146.162C45.4131 146.443 45.3028 146.864 45.2293 147.145C44.4995 147.469 43.649 147.433 42.6778 147.038C39.848 146.352 37.895 144.779 36.4408 142.944Z" fill="#FCE8CE"/>
<path d="M197.077 64.4045C196.955 64.0407 196.796 63.8188 196.637 63.5969C196.87 63.5349 197.299 63.5528 197.495 63.6328C197.69 63.7127 197.812 64.0766 197.738 64.3605C197.542 64.2805 197.31 64.3425 197.077 64.4045Z" fill="#F7A544"/>
<path d="M210.15 289.692C207.278 285.35 202.355 285.489 198.137 283.79C191.255 279.349 182.688 278.021 176.329 272.426C173.763 271.695 173.865 270.523 174.616 269.31C179.98 267.529 185.793 271.994 191.19 273.258C201.453 276.181 211.093 281.429 220.952 285.856C223.791 287.152 228.576 288.322 227.092 292.272C222.037 294.481 215.686 289.648 210.15 289.692Z" fill="#FCBD74"/>
<path d="M175.127 270.173C175.753 271.043 176.149 271.973 176.581 272.764C170.468 272.438 165.033 267.923 158.947 266.684C158.515 265.893 157.889 265.024 157.457 264.232C164.256 261.144 167.226 262.042 175.127 270.173Z" fill="#FCC079"/>
<path d="M54.0265 92.144C54.017 91.3716 53.6215 90.4427 53.9978 89.8269C55.6863 86.6696 66.1609 92.3018 63.6859 84.6891C69.5283 85.2148 74.7359 84.0998 80.7808 85.476C83.812 85.3224 86.2835 86.4787 88.6913 88.685C94.7667 95.6065 103.1 98.8331 111.469 101.921C126.087 107.236 138.593 115.69 150.309 125.515C144.415 130.04 139.385 120.776 134.6 121.909C136.034 122.951 139.184 123.154 141.546 124.726C144.643 126.751 147.353 128.619 144.581 131.029C142.028 132.606 138.85 133.315 134.891 132.939C130.885 131.929 127.092 132.542 123.013 131.809C115.039 129.65 107.835 124.576 100.127 122.218C97.4621 120.983 95.0639 119.549 92.7391 117.838C89.054 114.806 84.4873 111.878 83.7409 107.425C77.5093 100.287 70.1218 95.9066 60.679 96.0721C59.641 95.9584 58.6029 95.8447 57.6382 95.4534C55.9385 94.6101 54.7346 93.507 54.0265 92.144Z" fill="#F6941E"/>
<path d="M88.9634 88.9757C86.3559 87.6245 83.5569 86.1963 80.9494 84.8451C81.2878 84.3765 81.398 83.9673 81.7365 83.4988C83.2896 82.4606 85.4618 82.2762 87.87 82.7913C100.679 89.6067 113.783 95.3309 126.776 101.464C130.532 103.278 134.097 105.014 138.038 106.145C148.106 109.742 158.476 113.006 168.36 117.284C174.562 119.476 181.175 120.927 185.92 126.162C189.126 130.021 195.739 131.472 198.076 136.191C197.696 139.968 193.947 138.914 190.463 137.664C187.016 136.277 183.79 134.072 180.196 133.231C178.627 132.752 177.095 132.135 175.6 131.383C168.247 124.797 162.344 129.377 155.539 127.849C154.692 127.054 154.073 126.201 153.49 125.211C140.93 116.682 128.297 108.425 113.897 102.784C105.088 99.2411 95.9778 96.0299 88.9634 88.9757Z" fill="#FA9822"/>
<path d="M87.0557 83.7014C85.4057 83.4925 83.9482 83.3615 82.3349 83.0144C81.9041 82.228 81.51 81.3035 80.8867 80.4392C80.1717 78.3138 74.571 77.7295 75.9185 75.0621C77.0461 73.2236 80.1351 75.2391 82.5184 75.8978C84.3242 76.3228 86.1759 77.3784 87.7434 77.0949C89.8059 76.5529 91.905 75.8727 94.0042 75.1924C94.4259 75.2101 94.655 75.1499 95.1134 75.0295C95.4983 75.1853 95.8833 75.3411 96.2683 75.497C97.5425 76.3188 99.0091 77.2185 100.549 77.8418C101.319 78.1535 101.933 78.2492 102.74 78.4227C103.51 78.7344 104.665 79.2019 105.545 79.0992C106.196 79.0566 106.846 79.0141 107.497 78.9716C109.881 79.6303 112.071 80.2112 114.262 80.792C115.335 80.7672 116.297 81.1568 117.186 81.8227C121.742 87.9508 131.697 87.3907 136.142 93.9332C132.549 101.046 126.169 92.9559 120.293 91.8014C120.119 93.2608 124.253 96.1583 120.623 96.9838C111.567 95.7656 103.427 91.0936 95.3605 86.1453C92.4273 84.3459 90.0257 82.1497 87.0557 83.7014Z" fill="#F89824"/>
<path d="M88.1044 77.6166C85.1865 78.9132 81.4134 76.9108 77.6979 76.3297C78.994 77.9446 80.096 79.4805 81.1979 81.0164C76.1233 79.8817 72.7281 77.2567 72.3611 72.9139C72.6655 72.5719 72.9699 72.23 73.2743 71.888C74.985 72.74 76.5751 73.2322 78.0708 72.4435C81.4555 74.2878 84.6829 75.9126 88.1044 77.6166Z" fill="#F6A33F"/>
<path d="M53.3239 96.0898C50.5773 94.3616 46.6192 93.9852 46.0391 90.5244C48.6661 91.8969 51.2931 93.2695 53.9202 94.642C54.1592 95.3533 54.0126 95.9082 53.3239 96.0898Z" fill="#F39B33"/>
<path d="M53.1918 95.9937C53.3396 95.4268 53.646 95.0815 53.7938 94.5146C54.1372 94.0276 54.248 93.6024 54.5914 93.1154C55.9237 93.8158 57.2561 94.5162 58.5516 95.3583C59.2232 96.1027 59.0385 96.8113 58.4995 97.2185C57.4954 97.7495 56.2109 97.6958 54.9633 97.5004C53.9483 97.243 53.2027 96.7821 52.7267 96.1175L53.1918 95.9937Z" fill="#F89F36"/>
<path d="M111.739 210.184C112.078 209.71 112.188 209.297 112.527 208.824C112.674 208.272 112.976 207.937 113.123 207.386C120.778 207.428 128.047 213.725 135.821 214.121C143.321 213.948 150.912 215.033 158.62 219.676C165.99 224.793 173.461 228.729 182.499 229.178C187.975 229.408 194.393 231.698 199.382 236.157C197.394 239.626 203.208 242.588 204.049 245.828C200.449 248.951 195.78 245.689 191.394 243.764C190.048 243.219 189.362 243.4 190.708 243.944C191.092 244.099 191.293 244.944 191.339 245.573C188.747 246.509 186.192 247.307 188.452 250.816C187.766 250.996 186.731 250.883 185.733 250.632C174.618 245.985 165.839 238.162 156.08 231.622C153.031 229.474 149.982 227.325 146.375 226.477C144.644 225.777 142.95 224.94 139.792 223.205C143.298 225.233 145.34 226.364 146.319 228.286C146.328 229.053 145.952 229.664 145.229 229.982C136.365 228.077 128.199 223.554 119.775 219.996C114.621 217.759 114.494 213.434 111.739 210.184Z" fill="#FCA946"/>
<path d="M158.433 220.43C151.346 217.579 144.231 215.623 137.448 216.373C132.754 212.518 124.786 212.942 122.049 206.547C122.918 205.687 125.848 205.051 121.406 203.415C116.161 201.607 110.909 199.04 105.826 198.205C95.3155 196.244 87.355 186.387 76.5949 186.141C74.9367 184.415 74.2729 182.938 76.4375 181.994C81.9028 182.983 87.6332 183.776 92.9673 186.83C96.9764 190.863 102.523 192.338 107.43 194.615C109.117 195.445 107.451 192.96 108.592 192.663C109.961 192.306 111.376 192.573 113.136 193.13C126.36 199.207 138.797 206.631 152.69 211.011C155.799 212.867 157.62 215.565 160.007 217.736C160.663 218.454 161.246 219.444 161.673 220.221C160.96 221.295 160.319 222.096 158.433 220.43Z" fill="#F79D32"/>
<path d="M122.059 206.97C126.145 211.48 134.337 210.999 137.445 216.777C129.165 216.015 121.575 211.908 113.985 207.801C109.347 205.333 104.709 202.865 100.035 200.533C107.594 201.609 114.859 203.774 122.059 206.97Z" fill="#EA942E"/>
<path d="M76.828 182.669C77.1211 184.05 77.2545 185.209 77.5475 186.59C77.2021 187.08 77.0906 187.508 76.7451 187.998C69.9908 186.346 68.6961 180.455 63.8769 177.227C60.1202 171.594 62.8357 167.024 61.3552 161.846C67.6678 162.686 67.4887 166.714 69.2555 169.958C70.4911 174.406 72.8593 178.684 76.828 182.669Z" fill="#F6A94C"/>
<path d="M130.913 76.5715C132.254 77.1111 133.558 77.7873 135.091 78.4041C143.895 81.1907 151.508 86.8265 159.553 90.0645C157.055 88.3026 152.061 88.7137 152.434 84.1732C165.024 87.8785 176.623 95.2699 188.92 100.067C196.391 103.074 203.752 106.49 211.326 108.328C217.023 113.192 212.486 113.485 209.253 114.453C205.511 114.158 201.414 112.812 197.99 113.703C192.385 114.02 187.139 112.211 181.038 108.848C168.526 101.694 155.895 94.1906 142.184 89.1265C136.246 86.7366 130.535 84.2873 125.722 80.0809C122.728 74.6393 128.438 77.0887 130.913 76.5715Z" fill="#FC9A24"/>
<path d="M192.714 87.9611C192.253 84.8585 187.322 80.0967 191.682 78.9481C195.546 78.0591 201.138 80.3257 205.398 83.5878C206.794 84.7675 207.511 86.8998 209.502 86.633C218.92 84.9257 227.395 90.8171 236.08 95.1056C238.55 96.2603 240.193 95.6985 241.524 94.7032C249.482 92.8646 256.103 100.921 263.87 102.227C267.533 103.713 271.838 104.384 273.345 108.371C269.638 112.7 263.405 111.248 256.923 108.313C251.175 105.83 246.144 102.255 240.333 100.82C233.264 100.103 226.891 93.5289 219.612 94.4149C216.584 97.7917 213.308 99.6865 208.807 92.4902C207.475 90.262 204.739 89.3063 202.775 88.6633C208.357 93.3823 212.344 99.2957 217.816 104.431C217.276 107.281 214.733 106.404 212.07 105.171C205.166 102.218 198.445 98.5727 192.027 94.5895C190.356 92.8376 189.685 91.3379 192.173 90.8115C194.082 90.0507 194.495 89.2972 192.714 87.9611Z" fill="#F59726"/>
<path d="M193.241 89.0625C195.443 90.4146 198.057 91.0142 199.654 93.0407C199.389 96.4587 190.91 89.8046 192.591 95.5437C183.269 95.2927 175.186 89.5649 166.699 85.3597C165.44 76.419 165.44 76.419 180.717 83.9882C182.717 84.492 184.91 85.0739 186.91 85.5777C189.075 87.0682 189.92 90.3229 193.241 89.0625Z" fill="#F59E36"/>
<path d="M152.795 84.0869C153.442 87.2418 157.998 87.7112 160.795 91.5819C151.558 86.3286 141.842 86.0595 135.178 78.3426C136.505 77.3558 138.298 77.0141 140.64 77.8075C144.792 79.789 148.871 82.0455 152.795 84.0869Z" fill="#F89927"/>
<path d="M175.239 269.883C169.485 267.563 164.265 261.663 157.682 264.019C148.549 260.033 141.219 253.283 132.46 248.689C134.419 246.139 137.651 248.353 140.492 249.65C143.753 250.965 146.985 253.179 150.494 252.772C154.844 252.401 159.673 257.383 164.006 255.488C164.92 255.249 165.761 255.284 166.757 255.534C172.364 258.402 177.972 261.27 183.616 264.001C187.787 268.263 195.006 268.289 198.802 273.159C198.971 278.084 192.926 273.674 190.686 274.896C185.495 275.232 180.658 269.487 175.239 269.883Z" fill="#EE9C3D"/>
<path d="M150.921 253.651C151.299 256.261 150.307 256.78 146.717 255.017C142.199 252.725 138.048 249.046 132.944 248.972C132.136 248.798 131.365 248.486 130.749 248.39C130.125 247.522 129.73 246.595 129.105 245.727C133.767 241.016 139.892 246.11 145.64 248.594C147.881 249.809 150.048 251.302 150.921 253.651Z" fill="#E99533"/>
<path d="M92.8445 117.423C95.4684 118.793 98.285 120.241 100.872 121.749C101.34 122.398 101.23 122.813 101.12 123.228C100.818 123.566 100.552 123.764 100.552 123.764C93.5157 125.358 88.7259 119.28 83.1388 117.016C85.1207 119.199 90.8819 120 90.0111 124.092C86.9565 125.153 83.7913 123.411 80.5528 121.946C77.9289 120.576 75.3783 118.93 73.0937 117.085C69.7539 113.586 65.0567 111.989 60.8089 109.502C56.9463 107.171 53.0838 104.84 52.0006 100.876C52.1473 100.322 52.4499 99.9853 52.7893 99.5097C53.2846 99.2506 53.5506 99.0518 54.0459 98.7927C55.1559 98.6294 56.1925 98.7428 57.4218 98.9343C58.6144 99.2643 59.8071 99.5942 60.963 100.062C71.8806 105.558 83.7336 109.134 92.8445 117.423Z" fill="#F69622"/>
<path d="M52.1629 101.317C57.6791 105.563 62.9286 110.009 70.1084 112.001C72.6949 112.743 73.2947 114.529 73.4712 116.298C73.0479 116.28 72.5879 116.402 72.1645 116.384C64.5149 113.739 57.0317 112.087 49.9283 113.057C48.925 112.804 48.0318 112.132 47.5985 111.339C44.4221 109.586 41.2089 107.972 38.2258 106.297C41.7661 103.417 45.1864 100.179 52.1629 101.317Z" fill="#F69F36"/>
<path d="M52.6916 96.2609C53.4745 96.5803 54.2573 96.8997 55.2359 97.2989C55.3577 97.6624 55.7121 97.9638 55.8339 98.3273C55.5752 99.3198 54.999 99.869 53.9944 100.4L53.3225 99.6555C48.7842 97.9607 51.3805 97.1377 52.6916 96.2609Z" fill="#FBD5A9"/>
<path d="M233.917 293.597C233.148 293.287 232.417 292.84 231.649 292.529C230.195 292.399 228.585 292.053 227.131 291.923C218.949 285.119 208.559 282.598 199.37 277.975C196.563 276.537 193.225 275.493 190.152 274.253C191.965 272.245 195.924 274.148 198.321 273.137C204.15 271.229 208.838 276.775 213.904 278.516C218.138 280.986 223.113 281.473 227.31 284.081C231.543 286.551 235.401 289.631 233.917 293.597Z" fill="#E89432"/>
<path d="M106.845 226.238C106.361 224.795 106.035 223.572 105.552 222.13C108.133 221.313 111.271 221.658 114.409 222.003C119.067 223.122 123.199 225.429 127.258 228.017C130.769 230.226 133.125 232.743 129.398 234.65C128.215 235.88 123.095 234.884 126.554 238.94C125.177 240.092 123.353 239.66 121.287 238.507C116.976 234.414 112.581 229.821 106.845 226.238Z" fill="#EE9B38"/>
<path d="M106.805 226.472C115.279 226.969 118.101 232.63 121.458 237.887C122.136 239.407 121.684 240.312 120.103 240.601C119.325 240.285 118.548 239.968 117.77 239.651C116.026 236.451 112.012 236.994 109.511 235.042C106.427 232.852 101.799 230.811 105.429 227.623C105.77 227.14 106.306 226.736 106.805 226.472Z" fill="#F8AA4B"/>
<path d="M114.097 222.773C112.473 225.69 109.316 223.781 106.279 222.233C103.437 220.764 100.825 219.233 99.1283 216.675C100.153 215.225 95.587 212.121 99.2489 211.279C105.669 211.406 110.891 214.467 115.478 219.136C116.277 221.017 115.946 222.282 114.097 222.773Z" fill="#F0A145"/>
<path d="M131.512 77.003C130.696 79.27 127.234 77.8694 125.52 78.704C121.746 80.0798 117.689 76.9109 113.851 76.1221C109.848 74.3502 106.944 71.6482 105.223 68.5076C113.998 72.3627 122.81 72.8721 131.512 77.003Z" fill="#F89C2C"/>
<path d="M60.362 159.045C60.5091 158.501 60.8474 158.034 60.9577 157.627C60.5678 156.717 60.5604 155.96 60.9355 155.358C61.5019 154.832 62.414 154.595 63.4439 154.707C67.5707 155.912 71.6314 158.145 75.8759 159.698C85.9099 164.932 95.8262 169.817 106.382 173.904C120.933 181.252 135.889 187.106 150.814 193.851C153.227 195.121 155.375 196.586 156.766 198.5C157.347 199.487 157.126 200.303 156.332 200.888C143.098 199.643 130.379 192.578 117.27 188.521C110.002 185.603 103.036 182.354 95.7313 179.572C88.7649 176.323 81.9088 172.667 75.0527 169.011C69.5796 166.512 65.1216 162.613 60.362 159.045Z" fill="#FDAD4C"/>
<path d="M60.4438 159.449C65.9159 162.295 71.3512 165.28 76.6295 168.046C78.0429 170.015 79.0688 171.825 75.9525 172.261C73.1767 172.215 70.4744 171.89 67.6782 170.288C65.5999 167.585 66.5543 163.948 61.7471 161.837C61.3127 161.041 60.8783 160.245 60.4438 159.449Z" fill="#E8922A"/>
<path d="M62.3277 156.543C62.0221 156.887 61.8747 157.451 61.5323 157.937C59.6558 156.859 57.5475 155.843 55.476 154.686C55.3547 154.324 55.2333 153.962 55.112 153.6C55.1857 153.317 55.4544 153.114 55.5281 152.832C55.7968 152.629 56.0287 152.567 56.4924 152.444C57.188 152.259 58.0418 152.295 58.8956 152.331C59.7125 152.508 60.4557 152.967 61.1989 153.426C61.9898 154.53 61.7318 155.518 62.3277 156.543Z" fill="#F7AF57"/>
<path d="M55.5648 154.896C54.6196 156.862 52.6745 156.852 50.0101 155.452C50.0773 151.873 51.705 151.44 55.5648 154.896Z" fill="#F8A84A"/>
<path d="M115.213 219.582C109.786 216.779 104.396 213.838 99.1611 211.113C100.379 210.538 94.7144 207.029 100.197 208.025C104.261 208.752 108.122 211.837 111.976 210.955C113.972 211.456 116.187 211.132 118.118 212.675C121.247 215.311 117.339 214.799 117.045 215.9C116.495 217.965 119.753 218.52 121.446 219.356C129.408 223.031 137.856 225.683 145.524 230.459C148.545 230.307 151.043 231.317 153.367 233.781C154.62 236.269 152.597 236.671 150.766 237.151C137.385 234.641 125.909 228.174 115.213 219.582Z" fill="#FEAD4B"/>
<path d="M37.6028 135.246C39.3033 132.851 38.3968 128.162 45.3115 130.354C46.5084 130.686 44.2047 128.053 44.3415 126.72C46.2522 122.713 50.2029 124.781 54.347 126.928C61.9114 134.785 72.2334 138.67 81.7652 143.932C83.9121 146.347 84.4021 148.552 83.0417 150.469C81.4045 151.809 79.3241 151.581 76.847 150.42C68.5122 145.491 59.8472 141.816 50.6587 139.317C49.3517 139.403 47.8514 139.41 46.3877 139.279C44.7307 139.068 42.6503 138.84 40.6799 138.194C39.1329 137.565 37.8894 136.597 37.106 135.507L37.6028 135.246Z" fill="#F4931F"/>
<path d="M54.3116 128.149C50.9537 126.156 47.6432 124.806 44.8017 126.611C38.8172 122.3 46.7218 122.56 45.5213 119.731C46.4107 119.626 47.458 119.741 48.3473 119.636C51.5735 120.483 54.4945 121.674 57.1578 123.851C58.9425 126.918 58.5008 128.609 54.3116 128.149Z" fill="#F7A138"/>
<path d="M113.414 76.1794C117.09 73.5649 121.114 78.3723 124.823 78.8052C130.776 81.9631 136.921 85.1982 142.874 88.3561C152.034 91.4411 160.076 97.1098 168.943 101.29C173.725 105.645 169.212 105.04 166.727 104.797C160.15 103.967 153.74 100.928 147.403 97.6154C146.555 96.8182 145.477 96.0806 144.592 95.4204C135.244 89.0737 124.166 85.2158 115.083 78.6726C114.463 77.8158 114.035 77.0363 113.414 76.1794Z" fill="#F18F19"/>
<path d="M115.181 78.8852C126.936 82.558 137.638 87.7758 147.149 95.8455C136.014 93.0279 125.703 88.7248 116.428 81.356L115.123 80.6792L114.202 80.1568C114.541 79.6874 114.842 79.3546 115.181 78.8852Z" fill="#F79622"/>
<path d="M94.8084 73.6769C95.1493 73.1953 95.2595 72.7748 95.6004 72.2932C98.2429 73.679 101.043 75.284 103.685 76.6698C104.361 78.1858 103.91 79.0879 102.138 79.2971C100.161 78.6476 98.1374 77.3585 96.0769 76.2096L96.1136 76.0694C95.6418 75.4121 95.4374 74.5534 94.8084 73.6769Z" fill="#F8AC52"/>
<path d="M102.171 79.2828C102.624 78.3714 103.078 77.4601 103.728 76.6285C104.277 77.0093 105.059 77.3283 105.608 77.7091C106.242 78.5943 106.681 79.3999 107.12 80.2054C105.456 80.7799 103.893 80.142 102.171 79.2828Z" fill="#F7A33E"/>
<path d="M106.9 80.0835C106.46 79.2762 106.02 78.4688 105.385 77.5815C106.131 78.0431 106.915 78.3628 107.661 78.8243C107.55 79.25 107.244 79.5958 106.9 80.0835Z" fill="#F8AD55"/>
<path d="M94.8759 73.7593C95.3164 74.5686 95.7569 75.3778 96.1975 76.1871C95.4125 75.8666 94.8608 75.4841 94.1129 75.0214C94.4203 74.6749 94.7277 74.3283 94.8759 73.7593Z" fill="#FAC280"/>
<path d="M119.678 240.069C120.128 239.178 120.577 238.287 121.026 237.396C122.687 238.376 124.265 238.862 125.715 238.223C130.366 235.968 135.55 239.755 140.477 241.291C143.871 242.973 146.661 245.33 149.45 247.686C150.111 248.414 150.579 249.063 150.974 249.99C150.084 252.542 146.946 249.891 145.148 250.235C139.9 247.496 134.798 244.202 129.331 245.513C126.165 243.77 122.807 241.95 119.678 240.069Z" fill="#FCA947"/>
<path d="M56.8003 123.788C53.9646 122.324 50.5677 122.182 48.5238 119.334C48.4297 118.056 47.3762 117.162 46.286 116.408C40.641 112.56 44.3787 112.221 47.3039 111.706C48.0797 112.022 48.8188 112.477 49.4006 112.714C52.3729 112.839 55.1983 113.523 58.3014 114.786C61.3311 116.33 63.3646 118.397 64.596 121.069C65.2352 122.725 65.2926 124.143 64.5007 125.527C63.9659 125.929 63.0432 126.174 62.194 126.138C60.1444 125.769 58.3254 125.339 56.8003 123.788Z" fill="#F6A33F"/>
<path d="M55.6414 154.9C52.7841 153.421 50.9994 153.632 50.0549 155.596C48.3331 154.737 46.8806 153.675 46.8588 152.1C47.6557 150.702 48.611 149.526 51.1405 149.775C53.5592 150.449 55.4395 151.529 56.4383 153.502C56.0952 153.989 55.9845 154.413 55.6414 154.9Z" fill="#F9BC71"/>
<path d="M50.3633 150.248C49.8363 151.441 49.1509 152.412 47.0885 152.04L46.8933 151.961C46.4552 151.157 46.0172 150.352 45.7743 149.628C44.9936 149.309 44.2497 148.85 43.5059 148.39C43.8117 148.046 43.9592 147.48 43.6794 146.897L44.4971 147.074C47.0974 147.04 48.9754 148.119 50.3633 150.248Z" fill="#FCDBB5"/>
<path d="M45.731 149.658C45.9767 150.391 46.4201 151.205 46.8635 152.018C46.4201 151.205 45.9767 150.391 45.731 149.658Z" fill="#FCE9D2"/>
<path d="M44.62 145.479C43.143 144.568 41.9333 143.457 41.8761 142.039C42.7614 141.935 43.6467 141.831 44.375 141.508L44.5688 141.586C46.1089 141.439 47.5389 141.711 49.0525 142.481C51.1108 143.629 52.6714 145.038 52.8123 146.954C51.0622 148.719 48.5326 146.916 46.1703 146.11C45.5889 145.873 45.2013 145.715 44.62 145.479Z" fill="#F8B35F"/>
<path d="M50.311 150.082C48.459 149.026 46.607 147.97 44.5258 146.974C44.6358 146.559 44.5533 146.067 44.4707 145.574L45.5434 145.549C49.3941 147.108 53.8499 147.994 57.0681 151.134C57.8474 152.215 57.664 152.906 56.4814 153.345C54.4001 152.35 52.3556 151.216 50.311 150.082Z" fill="#F8B35F"/>
<path d="M132.966 130.442C136.505 131.568 138.2 129.194 141.115 129.456C142.646 129.311 143.957 129.995 145.387 131.033C147.605 133.919 150.63 136.98 154.333 135.878C164.26 133.012 173.032 139.317 180.283 143.323C177.194 141.307 176.607 140.305 176.415 137.014C181.942 137.875 186.956 140.669 192.263 142.359C198.781 145.915 205.28 147.934 212.109 148.709C213.071 149.099 213.997 149.627 214.657 150.353C216.508 154.621 212.906 154.54 209.615 154.891C208.313 154.976 207.589 155.295 208.735 154.994C209.047 155.426 209.551 155.936 210.284 156.386C210.981 156.974 211.448 157.622 211.879 158.408C211.696 159.099 211.32 159.712 210.596 160.031C201.008 162.422 191.209 156.772 181.584 152.876C175.232 150.305 169.329 146.844 162.821 147.27C156.523 146.097 150.162 145.97 143.837 142.492C140.244 139.966 135.817 138.174 132.526 135.312C129.547 132.882 127.641 130.428 132.966 130.442Z" fill="#FDAA48"/>
<path d="M88.9784 89.2874C108.914 100.504 130.416 108.257 150.278 119.747C154.504 122.208 158.648 124.181 155.748 127.864C153.153 128.032 151.31 126.986 149.76 124.845C144.191 121.844 138.815 118.919 133.732 114.9C126.879 109.561 118.818 105.556 110.354 103.055C102.848 100.94 96.423 96.3807 89.2843 92.8979C85.7149 91.1565 87.8443 90.3467 88.9784 89.2874Z" fill="#F08E18"/>
<path d="M93.0534 117.063C82.1415 110.057 69.2868 107.149 58.1092 100.341C57.6791 99.5568 57.1757 99.0481 56.6723 98.5394C56.5534 98.1861 56.4345 97.8329 56.2789 97.6174C56.4256 97.0663 56.7646 96.593 57.607 96.6283C57.946 96.155 58.056 95.7417 58.395 95.2684C59.164 95.5793 59.7041 95.9502 60.4364 96.3989C69.8216 97.1412 77.2729 102.748 85.1366 107.605C85.5654 111.594 91.4065 113.65 93.0534 117.063Z" fill="#ED9020"/>
<path d="M85.294 107.419C76.0132 106.262 68.8499 99.5439 60.4216 95.9812C61.4389 94.559 62.099 92.0754 65.1038 93.5967C72.4601 97.1842 79.7431 101.048 86.7603 105.109C87.6489 105.774 86.0912 106.825 85.294 107.419Z" fill="#EE8D18"/>
<path d="M149.301 125.093C151.389 126.095 153.246 127.157 155.334 128.158C156.451 134.461 153.63 136.241 145.776 131.975C144.461 131.287 143.182 130.461 141.674 129.694C142.776 128.756 144.881 128.071 141.359 126.026C137.836 123.98 133.864 122.829 130.985 119.967C137.235 118.964 143.234 125.401 149.301 125.093Z" fill="#FC9A25"/>
<path d="M133.241 131.345C132.136 132.288 130.062 132.837 133.559 135.032C137.636 137.464 142.965 138.394 145.22 142.869C142.262 143.523 138.859 142.603 135.577 142.042C134.608 141.648 133.64 141.254 132.708 140.72C129.636 138.543 126.223 136.845 123.418 134.466C122.246 133.216 121.692 132.062 122.797 131.119C125.902 129.907 129.09 129.193 133.241 131.345Z" fill="#F69F39"/>
<path d="M123.335 131.639C123.766 132.425 124.197 133.211 124.591 134.135C118.734 137.728 113.172 130.585 107.564 129.232C106.565 128.981 105.41 128.514 104.485 127.986C101.635 126.68 99.7381 124.995 99.7475 122.552C100.087 122.078 100.197 121.664 100.536 121.189C108.417 123.614 115.821 127.834 123.335 131.639Z" fill="#F7951F"/>
<path d="M214.918 149.838C214.149 149.527 213.609 149.156 212.877 148.707C205.974 147.443 199.328 145.214 192.609 143.26C186.814 141.833 181.083 139.364 175.765 136.146C174.31 136.016 173.083 135.825 171.545 135.203C168.121 133.667 166.145 131.495 166.457 128.722C167.091 123.944 172.243 129.383 174.569 128.645C175.878 129.327 177.187 130.009 178.496 130.69C187.101 133.559 194.981 139.948 203.469 139.26C202.499 138.105 197.985 138.263 196.686 135.145C192.366 132.178 186.424 131.302 183.46 126.442C186.995 124.362 191.077 126.623 195.041 128.53C197.274 129.738 199.471 131.084 201.402 132.627C209.814 138.621 219.471 143.135 228.561 148.182C232.067 150.209 236.14 151.704 238.208 155.133C238.261 159.731 233.619 158.77 229.509 157.414C224.209 155.729 218.982 153.768 214.918 149.838Z" fill="#FEB152"/>
<path d="M120.801 96.2823C119.759 92.2008 114.148 90.0855 111.156 86.1309C117.125 86.1031 121.344 90.2484 126.149 92.1907C129.416 93.5114 132.857 96.5798 135.193 93.4059C140.549 93.2827 144.804 97.2903 149.499 99.6457C150.387 100.309 151.045 101.033 151.631 102.033C151.428 104.391 148.811 103.028 147.044 102.467C149.314 103.536 151.767 103.918 153.854 105.676C156.863 111.163 166.512 111.708 168.651 118.063C158.51 114.574 148.405 110.947 138.299 107.321C132.781 103.26 125 102.098 120.801 96.2823Z" fill="#F6951F"/>
<path d="M174.806 129.526C173.516 131.171 169.024 127.018 168.568 130.397C167.854 134.758 174.406 134.324 176.026 137.154C177.933 141.341 184.59 142.965 186.665 148.15C181.963 145.616 177.639 142.461 173.613 141.443C168.157 140.152 161.538 132.652 156.452 138.954C155.125 140.74 148.364 137.058 144.742 134.498C142.174 132.833 144.674 132.3 145.319 131.478C150.896 133.127 153.885 131.553 154.876 127.771C155.919 127.885 157.738 128.315 157.848 127.895C161.409 120.042 168.59 126.22 174.806 129.526Z" fill="#FDAE4E"/>
<path d="M120.981 96.8405C126.539 100.574 134.208 101.995 138.221 107.517C123.392 102.02 108.254 96.0984 94.4616 87.5575C91.9325 85.9413 89.5946 84.4018 86.9257 84.0835C86.5073 80.1546 89.1907 81.9831 91.9844 83.4046C101.439 88.4004 110.82 93.6676 120.981 96.8405Z" fill="#F08F19"/>
<path d="M168.123 117.735C164.8 114.268 160.158 112.548 155.781 110.631C152.711 109.393 152.813 108.218 153.254 106.573C164.851 108.516 175.283 115.61 186.476 119.061C190.624 121.038 194.168 123.683 196.422 127.174C196.859 128.718 196.758 129.892 194.966 130.232C191.467 128.214 187.895 126.469 184.111 126.31C180.341 120.536 172.863 121.47 168.123 117.735Z" fill="#F4911B"/>
<path d="M196.801 135.296C200.137 137.091 203.51 138.75 207.384 140.912C193.902 138.966 193.902 138.966 178.679 130.879C182.677 130.22 185.682 133.242 189.283 134.841C192.31 136.21 195.227 137.987 196.801 135.296Z" fill="#FDAE4E"/>
<path d="M151.446 101.681C146.035 98.8967 140.854 96.0534 135.444 93.2696C131.684 91.4534 128.227 89.3044 124.211 88.4446C119.812 87.4305 116.583 85.222 116.123 81.4028C125.92 87.6183 136.9 90.2219 146.843 95.8909C147.287 98.1894 153.779 98.5316 151.446 101.681Z" fill="#F18F19"/>
<path d="M96.0155 76.2964C98.5588 76.4029 100.652 77.4086 102.064 79.3744C99.2636 80.2457 97.401 79.179 96.0155 76.2964Z" fill="#F7A33E"/>
<path d="M57.8945 96.8558C57.7837 97.2807 57.4772 97.6259 57.3295 98.1926C56.3993 98.4401 55.617 98.1209 54.7868 97.1554L55.0193 97.0935C56.1081 97.0674 57.0013 96.9616 57.8945 96.8558Z" fill="#F39B33"/>
<path d="M157.726 219.645C158.604 219.543 159.482 219.441 160.359 219.339C171.016 222.422 181.264 223.061 191.92 226.144C198.82 228.168 205.308 230.938 211.842 234.333C212.993 234.798 213.879 235.459 214.957 236.198C221.406 242.294 218.479 243.697 211.788 243.277C209.073 243.094 206.349 242.147 203.581 240.574C201.964 239.466 200.767 238.375 200.101 236.891C192.49 232.757 185.471 230.381 177.024 230.165C170.716 229.9 162.913 225.688 157.726 219.645Z" fill="#FDAE4C"/>
<path d="M152.903 234.085C150.272 232.709 147.448 231.254 144.853 229.739C145 229.182 145.303 228.843 145.643 228.365C144.778 226.781 147.665 227.184 147.03 225.539C150.441 224.768 152.778 227.257 155.686 229.208C165.843 236.105 175.091 244.019 186.195 249.76C183.76 251.698 191.054 254.043 188.425 255.903C173.36 253.02 161.317 245.974 152.903 234.085Z" fill="#F09C39"/>
<path d="M187.476 250.291C182.388 245.311 185.371 244.525 190.209 244.798C196.049 245.323 201.613 248.5 207.389 250.074C210.051 251.308 212.604 252.957 214.662 254.866C220.521 260.158 219.356 262.142 211.974 260.991C203.582 258.817 194.878 256.209 187.476 250.291Z" fill="#FCAD4A"/>
<path d="M199.613 236.973C200.928 237.66 202.242 238.347 203.556 239.034C209.118 244.673 217.975 243.5 223.573 249.001C224.891 256.148 217.907 253.468 212.872 253.116C211.254 252.767 209.747 252.002 208.277 251.098C206.41 249.264 203.515 248.09 202.678 245.597C200.736 240.811 193.744 240.588 190.581 236.383C192.656 233.381 197.446 238.707 199.613 236.973Z" fill="#EC9632"/>
<path d="M187.374 250.655C195.283 253.696 203.001 256.659 210.911 259.7C213.28 259.592 215.208 261.131 217.174 262.533C217.841 264.02 217.547 265.119 216.485 265.908C214.619 266.524 212.552 266.298 210.138 265.78C202.457 262.679 193.952 261.072 188.029 254.572C186.101 253.032 182.927 252.968 182.096 250.503C181.978 250.15 184.155 249.964 185.298 249.665C186.066 249.975 186.834 250.285 187.374 250.655Z" fill="#E18D29"/>
<path d="M202.859 246.017C205.09 247.221 207.814 248.168 208.223 250.614C208.689 251.258 208.808 251.61 208.35 251.73C207.893 251.849 207.664 251.909 207.472 251.832C201.685 250.409 196 247.81 190.653 244.74C189.383 243.923 188.076 243.244 186.23 242.195C191.937 239.936 197.473 246.276 202.859 246.017Z" fill="#E5912F"/>
<path d="M147.609 225.911C154.444 230.664 145.016 226.849 146.225 228.714C142.212 226.173 137.448 224.857 133.38 220.918C138.96 219.966 142.991 224.043 147.609 225.911Z" fill="#EB9735"/>
<path d="M154.666 212.745C139.144 208.921 125.254 200.616 111.107 193.266C110.024 191.772 107.271 190.967 107.365 189.041C107.74 188.437 108.462 188.122 109.529 188.098C113.388 188.743 116.503 191.356 119.876 193.014C128.875 196.633 137.719 200.038 146.754 203.52C149.663 204.538 152.306 205.753 155.068 207.316C157.182 208.922 160.591 210.444 159.51 212.88C158.878 214.438 156.816 214.214 154.666 212.745Z" fill="#EE9936"/>
<path d="M67.1987 170.31C69.3421 169.484 72.0851 170.444 74.7449 170.908C76.6146 172.747 78.521 174.447 80.3907 176.286C85.4832 180.514 92.7726 182.087 96.9184 187.473C97.0949 189.241 96.3315 189.702 94.1218 188.341C88.359 185.846 82.1393 186.712 76.3934 182.527C67.5941 180.187 69.4847 174.631 67.1987 170.31Z" fill="#F49420"/>
<path d="M192.537 227.488C181.879 225.009 171.231 226.525 160.59 219.141L159.662 218.612L158.735 218.083C157.587 215.162 159.881 214.557 162.461 215.296C168.658 216.887 174.33 216.424 180.297 218.076C181.876 218.563 183.419 219.188 184.924 219.952C185.852 220.481 186.742 221.149 187.633 221.817C189.69 223.725 191.82 225.356 192.537 227.488Z" fill="#F39F3D"/>
<path d="M181.377 219.76C174.392 221.088 165.596 216.28 158.851 218.323C155.83 216.787 154.419 214.825 154.196 212.419C155.853 212.629 158.091 213.075 157.877 211.446C157.674 210.591 155.16 209.57 153.723 208.523C160.018 207.377 173.749 212.956 181.377 219.76Z" fill="#FBA746"/>
<path d="M96.7587 187.71C90.4239 183.462 82.1272 181.786 77.3417 175.717C89.7546 175.539 99.2981 182.157 108.401 190.434C110.061 191.412 111.528 192.311 111.738 193.927C110.858 194.03 109.978 194.133 108.906 194.158C103.689 193.729 99.7931 191.54 96.7587 187.71Z" fill="#E8922A"/>
<path d="M96.5162 187.81C100.446 189.858 104.567 191.984 108.689 194.109C109.156 194.757 109.852 195.344 110.512 196.069C105.849 196.779 96.9548 192.571 93.6856 188.04C94.565 187.938 95.4444 187.835 96.5162 187.81Z" fill="#FBA237"/>
<path d="M198.306 111.868C200.908 108.489 204.628 112.134 207.899 113.457L207.862 113.595C210.986 118.68 216.904 120.464 222.182 123.058C235.045 129.18 249.338 133.129 259.388 144.226C257.06 148.175 251.939 145.797 247.33 144.697C241.292 142.559 235.548 139.318 230.106 135.74C223.491 130.16 215.492 127.382 208.621 122.768C204.865 119.261 197.911 117.364 198.306 111.868Z" fill="#F7A74C"/>
<path d="M199.016 112.58C201.089 116.763 207.215 117.715 209.59 121.563C210.256 123.049 209.734 124.207 208.481 124.918C202.032 125.966 196.219 122.251 190.259 119.085C185.143 112.761 175.589 109.513 170.775 102.855C161.278 97.8045 151.935 92.9691 142.63 87.9963C146.252 87.1766 149.377 89.8071 152.531 91.5363C163.61 97.8331 175.357 102.423 185.877 110.015C189.962 113.033 194.527 111.073 199.016 112.58Z" fill="#F7951F"/>
<path d="M229.488 111.043C226.618 106.707 221.165 107.238 217.398 104.66C213.638 102.843 210.601 100.711 208.085 97.4264C205.606 94.0049 203.083 89.9594 197.798 88.2858C196.073 87.5912 195.299 86.522 195.784 85.5057C195.931 84.959 197.265 84.7387 198.105 84.774C202.423 85.3012 211.581 92.321 212.918 96.0402C215.703 95.95 217.293 94.7729 218.383 93.0909C228.463 93.5149 236.405 101.106 245.568 104.947C259.484 110.854 274.343 115.625 286.282 125.734C285.637 129.715 284.878 130.167 279.194 126.818C270.746 121.901 261.93 118.351 253.114 114.801C250.239 113.644 247.438 112.213 246.475 115.006C241.541 117.563 235.996 112.906 230.756 111.857C230.409 111.566 230.063 111.275 229.488 111.043Z" fill="#F59420"/>
<path d="M216.557 116.171C235.883 126.36 255.208 136.55 275.491 147.125C269.358 147.832 263.9 143.673 258.481 143.307C244.973 135.154 231.017 127.879 216.126 122.495C212.68 121.109 205.029 118.788 207.794 113.251C210.711 115.028 213.693 115.774 216.557 116.171Z" fill="#FEB459"/>
<path d="M183.06 264.803C176.616 262.495 170.391 259.354 164.883 255.118C162.962 255.107 160.911 253.967 161.241 252.716C161.709 250.136 164.898 250.2 167.858 250.324C173.52 251.545 178.283 254.555 183.276 257.505C185.989 259.375 188.242 261.367 187.352 263.929C186.599 265.162 184.908 265.091 183.06 264.803Z" fill="#E5912E"/>
<path d="M182.598 264.595C183.475 264.493 184.352 264.392 185.23 264.29C194.512 264.542 203.212 270.931 212.402 273.118C215.315 274.141 219.371 274.865 219.559 278.127C219.747 281.39 215.948 279.707 213.345 279.112C207.698 279.567 204.151 272.979 198.614 273.023C193.876 269.293 186.593 270.302 182.598 264.595Z" fill="#F49F3C"/>
<path d="M167.386 251.348C169.047 254.048 159.797 250.746 165.237 255.452C164.896 255.936 164.785 256.358 164.444 256.841C159.241 255.344 153.77 254.048 150.069 249.272C146.337 242.148 154.126 246.1 156.938 245.222C161.437 246.122 165.205 247.346 167.386 251.348Z" fill="#E6922F"/>
<path d="M150.292 249.503C154.946 251.991 159.637 254.342 164.483 256.907C159.962 259.496 155.393 254.303 150.984 253.284C148.945 252.156 147.098 251.106 145.023 250.116C146.587 249.834 148.536 249.708 150.292 249.503Z" fill="#F9A441"/>
<path d="M80.745 119.923C83.6261 121.086 86.2959 123.84 89.5352 122.864C94.9609 122.466 99.8622 126.425 105.076 127.617C112.019 129.507 117.652 133.914 124.109 136.827C126.65 141.66 121.317 140.115 118.764 140.911C107.274 139.317 97.0675 132.911 86.6779 127.192C83.8615 124.988 79.3336 123.617 80.745 119.923Z" fill="#F7951F"/>
<path d="M81.0319 120.441C82.0774 123.805 85.7834 124.384 88.5047 126.264C90.8956 129.402 89.911 130.703 86.0114 130.045C82.9231 129.563 79.5475 127.726 76.6731 128.877C73.2545 129.652 69.4018 129.632 68.1524 125.412C67.2638 122.266 63.8085 123.181 62.6263 121.154C61.9415 118.864 59.6076 117.142 57.9647 115.236C61.4895 110.792 67.7535 115.505 72.9251 116.216C75.5628 117.598 78.3942 119.059 81.0319 120.441Z" fill="#F3921E"/>
<path d="M105.341 127.474C100 127.594 94.8267 125.512 89.8368 122.746C85.9439 119.059 79.9018 117.838 75.7278 112.827C84.8358 115.282 91.5087 122.056 99.9891 122.897C101.722 124.351 103.417 125.942 105.341 127.474Z" fill="#F2901B"/>
<path d="M54.7165 97.1954C55.5078 97.518 56.2991 97.8406 57.3257 98.1007L57.0156 98.4496C57.4969 99.121 57.4222 99.4074 57.1495 99.6131C56.8769 99.8188 56.6417 99.8813 56.4439 99.8007C55.5404 99.9076 54.6369 100.014 53.8938 100.345C54.193 99.1998 54.4547 98.1976 54.7165 97.1954Z" fill="#F9BB71"/>
<path d="M56.397 99.7411C56.5081 99.3144 56.8527 98.8256 56.9639 98.399C58.1415 98.8796 58.5821 99.6888 58.3227 100.684C57.5746 100.222 56.9858 99.9814 56.397 99.7411Z" fill="#FAC585"/>
<path d="M73.2562 116.307C68.2235 115.956 63.1909 115.605 58.3512 115.332C55.1007 116.318 52.3812 113.679 49.5246 112.367C56.5389 108.453 64.9064 111.539 73.2562 116.307Z" fill="#F69622"/>
<path d="M213.332 278.924C214.473 277.844 218.305 279.556 217.971 277.568C217.554 275.083 214.563 275.874 212.629 275.088C208.014 272.286 202.608 270.861 198.103 267.641C195.772 265.922 193.985 264.578 195.539 262.74C202.268 262.387 208.331 267.012 214.97 268.63C222.623 271.277 230.176 275.118 238.307 275.952C240.811 276.198 243.252 277.499 244.552 279.88C245.466 282.103 244.989 283.916 245.286 286.044C245.416 287.177 245.546 288.311 245.059 289.348C243.045 291.308 239.667 291.942 236.952 293.308C236.068 293.412 235.185 293.516 234.301 293.62C230.88 287.908 226.171 283.833 218.731 282.816C216.07 282.352 214.926 280.189 213.332 278.924Z" fill="#F19B37"/>
<path d="M114.876 219.807C126.262 225.952 137.573 232.374 149.894 236.599C150.151 238.849 148.436 239.687 146.179 240.152C141.85 240.39 137.125 236.483 132.841 237.353C130.685 236.633 129.024 235.654 128.235 233.802C125.877 232.233 132.932 232.179 127.574 229.856C122.794 227.766 118.198 224.984 113.528 222.48C113.978 221.589 114.427 220.698 114.876 219.807Z" fill="#FBA744"/>
<path d="M128.016 234.043C130.062 235.178 131.952 236.098 133.999 237.234C137.577 238.224 141.798 238.401 141.469 242.867C136.174 242.715 131.173 238.235 125.879 238.083C123.658 235.19 124.41 233.961 128.016 234.043Z" fill="#E4902D"/>
<path d="M105.574 175.305C94.051 171.41 83.3439 165.253 72.719 159.587C72.3449 156.996 74.5148 156.043 76.337 154.797C78.3514 153.629 80.5947 152.401 83.4409 153.704C97.5533 159.864 113.306 162.266 125.256 173.347C127.057 176.973 134.544 179.236 132.491 183.743C127.145 184.633 122.469 180.608 117.591 178.942C113.711 177.526 109.858 175.206 105.574 175.305Z" fill="#FAA644"/>
<path d="M156.314 198.494C154.279 197.371 152.436 196.326 150.364 195.339C150.111 193.116 141.701 192.001 146.555 188.955C152.2 188.501 157.804 191.364 163.098 193.8C174.836 199.135 187.537 201.675 198.761 208.924C201.962 212.033 200.755 213.365 197.594 214.062C189.082 214.119 181.235 208.533 172.845 205.759C168.746 204.411 164.492 202.849 160.356 201.638C158.594 201.08 157.208 199.915 156.314 198.494Z" fill="#E59230"/>
<path d="M117.965 194.785C115.566 191.847 112.261 189.909 108.5 188.09C107.586 188.328 106.819 188.019 106.008 187.085C106.929 180.481 113.506 188.439 116.622 187.117C129.873 190.788 142.756 195.827 155.675 200.73C157.674 201.991 159.29 203.096 159.424 204.97C159.049 205.577 158.29 206.03 157.413 206.131C153.787 206.186 150.144 204.719 146.611 202.84C137.106 199.465 127.621 194.43 117.965 194.785Z" fill="#F29F3D"/>
<path d="M146.218 189.981C146.433 192.337 150.602 193.409 150.817 195.764C135.641 189.053 120.053 183.084 105.171 175.281C109.676 171.952 115.136 176.115 120.153 177.982C124.175 179.6 127.455 183.188 132.102 182.487C138.016 182.598 142.885 185.011 146.218 189.981Z" fill="#EA9735"/>
<path d="M158.46 203.689C156.959 202.93 155.339 201.818 155.129 200.208C155.468 199.734 155.578 199.321 155.725 198.771C157.034 199.452 158.535 200.211 159.844 200.893C171.184 205.477 182.37 209.845 193.078 216.003C196.894 218.461 201.965 220.205 202.476 224.682C200.598 227.736 197.147 227.104 192.873 224.766C186.732 219.844 179.767 216.419 172.728 213.269C167.419 210.818 161.808 208.703 158.46 203.689Z" fill="#EE9B39"/>
<path d="M107.125 187.679C107.858 188.129 108.435 188.363 109.169 188.813C108.83 189.287 108.72 189.702 108.38 190.177C98.2055 185.14 88.4706 178.445 77.324 175.462C75.619 173.854 74.7574 172.281 74.7758 170.606C77.6541 171.006 75.6742 168.828 76.16 167.8C83.6399 171.746 90.9274 175.614 98.4073 179.56C100.323 182.784 105.548 183.981 107.125 187.679Z" fill="#F09C3A"/>
<path d="M77.531 157.301C76.1984 158.3 74.6727 159.221 73.3401 160.22C69.5233 159.286 66.193 157.318 62.9728 154.932C62.0901 155.036 61.5106 154.801 61.271 154.087C60.3418 153.556 59.6058 153.103 58.8332 152.79C58.1803 152.832 57.6008 152.597 57.1314 151.945C53.2216 149.741 49.3119 147.538 45.4388 145.195C47.6174 144.231 49.6786 146.146 51.6103 146.93C56.3367 146.847 61.7355 148.269 65.8262 146.542C68.6772 147.083 71.115 148.381 73.2129 150.157C75.3939 152.429 79.5702 154.432 77.531 157.301Z" fill="#F49828"/>
<path d="M106.906 187.456C103.735 184.949 97.0253 184.527 98.1897 179.339C104.725 181.219 110.967 184.205 117.098 187.604C114.559 189.942 108.776 183.624 106.906 187.456Z" fill="#F6A240"/>
<path d="M61.0972 154.268C61.6873 154.508 62.2774 154.749 62.7933 155.275C62.6818 155.702 62.5704 156.13 62.2622 156.477C61.8207 155.666 61.3791 154.856 61.0972 154.268Z" fill="#F9BE78"/>
<path d="M57.0592 152.188C57.6445 152.427 58.2299 152.665 58.7784 153.045C57.8873 153.151 57.2282 153.195 56.3372 153.3C56.4478 152.876 56.7535 152.532 57.0592 152.188Z" fill="#FAC280"/>
<path d="M145.038 239.011C146.365 238.028 147.727 236.907 149.246 236.001C150.462 235.428 151.449 234.915 152.665 234.343C161.413 241.363 170.161 248.383 181.097 252.792C183.399 253.721 185.709 255.412 188.031 254.678C195.632 258.046 203.195 261.552 210.796 264.92C214.743 266.056 219.338 267.15 215.368 270.864C208.927 268.722 202.506 264.918 195.927 264.087C190.899 265.4 187.853 259.313 183.228 259.119C177.812 256.327 172.587 253.613 167.17 250.821C163.562 249.214 160.394 245.963 156.354 246.763C151.941 244.984 146.321 244.54 145.038 239.011Z" fill="#FAA845"/>
<path d="M77.1428 156.427C76.9635 153.929 72.5627 152.915 72.3834 150.417C72.094 148.331 72.3062 146.749 75.8015 148.763C77.49 149.595 79.2152 150.29 80.6958 149.522C91.4878 152.051 101.957 156.571 112.721 159.998C113.871 160.461 115.021 160.924 116.134 161.524C121.718 166.047 129.186 168.297 134.202 173.349C135.213 175.12 134.92 176.214 133.822 177.136C131.428 178.142 128.671 177.334 126.053 175.219C113.993 164.754 98.433 162.578 85.0718 155.377C80.773 153.191 80.2018 156.901 77.1428 156.427Z" fill="#F09C3B"/>
<path d="M113.473 161.248C102.342 158.733 91.321 155.797 80.8304 149.209C81.8886 147.628 81.0935 145.757 80.7224 143.904C80.9121 140.731 84.2316 141.153 87.0801 140.919C88.122 141.033 89.1273 141.287 90.1692 141.402C94.1534 142.558 97.9439 143.636 101.928 144.792C108.541 146.553 108.922 149.184 106.188 152.25C104.165 156.689 112.961 157.481 113.473 161.248Z" fill="#FEAC4A"/>
<path d="M87.6754 142.306C85.6068 142.853 83.5016 143.538 81.3964 144.223C70.902 141.041 60.9675 136.545 53.8621 127.808C55.7741 127.044 56.5272 125.809 56.0015 123.748C57.6568 123.958 59.0823 124.229 60.7377 124.439C62.8649 128.537 66.9213 130.184 71.1709 131.909C77.3522 134.419 84.0664 136.529 87.6754 142.306Z" fill="#F69724"/>
<path d="M76.2759 149.204C74.2448 148.84 73.567 149.785 72.8527 150.868C70.2364 149.506 67.4281 148.067 64.8119 146.706C58.0773 146.423 52.6528 143.622 48.8038 138.106C49.1059 137.771 49.7102 137.101 49.9024 137.179C59.0784 140.276 68.7768 142.213 76.2759 149.204Z" fill="#ED8D1A"/>
<path d="M48.7353 138.287C54.1615 141.264 59.4309 144.023 64.857 147.001C64.8036 148.832 66.7313 152.085 61.7854 150.539C58.4236 149.481 55.0718 149.2 51.8102 146.948C51.5967 145.317 50.1226 144.409 48.4551 143.423C47.8181 141.774 45.9105 140.073 45.9639 138.242C47.0044 138.356 47.8882 138.252 48.7353 138.287Z" fill="#F69F37"/>
<path d="M46.1818 138.396C48.3287 140.047 50.0136 141.821 48.6855 143.611C47.3627 142.917 46.04 142.223 44.7172 141.529C44.5387 139.747 42.8643 138.754 41.2265 137.621C42.7226 136.832 44.3971 137.825 46.1818 138.396Z" fill="#FBD3A4"/>
<path d="M170.779 103.087C177.885 105.956 183.104 111.108 189.341 114.844C191.188 115.894 191.013 117.346 190.646 118.72C189.731 118.96 188.469 118.907 187.28 118.579C174.833 113.401 161.387 111.169 151.03 101.354C151.04 98.9224 146.632 97.9034 146.451 95.3945C154.59 98.3767 162.261 103.91 170.779 103.087Z" fill="#ED8A14"/>
<path d="M145.285 239.671C148.174 243.308 152.58 245.251 156.719 247.393C155.433 249.026 149.03 244.117 150.634 249.388C147.001 247.759 143.708 245.652 141.287 242.668C140.209 239.459 136.356 238.664 133.799 237.01C137.577 234.848 141.459 237.964 145.285 239.671Z" fill="#ED9936"/>
<path d="M87.5383 141.788C80.9255 138.66 74.6796 134.158 67.2791 132.387C62.3303 130.998 59.4685 128.167 60.7611 124.12C61.5295 124.431 62.069 124.801 62.8373 125.111C66.543 124.78 68.2696 128.676 71.453 129.504C74.2155 130.316 77.06 131.617 77.6383 128.652C88.0107 132.841 99.6024 133.259 108.307 142.104C109.312 143.12 110.547 144.075 111.324 145.15C111.486 149.328 107.472 146.031 105.367 145.943C100.198 145.378 94.7381 142.716 89.6145 142.779C88.8462 142.468 88.3066 142.098 87.5383 141.788Z" fill="#F59522"/>
<path d="M76.6251 128.979C75.399 129.565 81.3075 133.208 75.3564 132.18C70.0234 131.25 66.8181 127.932 63.0049 125.296C62.911 124.019 62.6232 122.662 62.5293 121.385C67.8887 121.397 67.2338 121.441 70.1924 126.517C71.9675 129.562 74.1055 127.954 75.358 126.45C77.7573 127.116 77.7308 128.035 76.6251 128.979Z" fill="#F69724"/>
<path d="M44.495 141.565C44.078 142.335 43.1851 142.441 41.975 142.104C42.9048 141.857 43.6022 141.671 44.495 141.565Z" fill="#FCE8CE"/>
<path d="M134.924 141.214C137.742 139.439 141.021 140.769 144.346 142.731C150.591 144.957 156.679 143.739 162.823 147.153C164.503 146.452 166.615 146.54 168.663 147.678C179.556 153.324 191.229 156.829 202.305 161.781C205.182 167.862 202.869 170.15 195.329 168.782C194.714 168.686 193.869 168.65 193.327 168.277C189.543 166.435 185.475 166.475 182.729 164.747C186.669 166.806 192.124 167.175 196.845 170.318C205.876 180.584 193.284 174.095 190.961 175.611C189.308 175.401 187.692 175.053 186.113 174.566C172.336 168.519 158.77 160.867 144.087 159.059C138.457 156.93 135.682 152.887 132.797 149.26C131.602 145.703 132.878 143.302 134.924 141.214Z" fill="#FDAB4A"/>
<path d="M196.102 171.03C187.671 166.531 177.818 164.994 168.88 156.752C178.044 158.47 184.527 163.871 191.687 165.084C196.769 166.07 202.91 168.716 203.062 162.47C204.385 160.699 206.958 160.666 209.651 160.99C212.96 161.409 209.365 159.643 209.935 159.105C210.274 158.627 210.384 158.21 210.724 157.733C222.542 156.683 228.154 166.191 235.868 171.783C236.432 176.935 231.477 173.847 228.398 173.367C226.66 172.662 224.73 171.878 223.718 170.853C220.021 167.044 219.288 169.824 217.763 170.743C212.12 171.069 205.42 169.734 200.486 171.424C198.988 171.432 197.407 170.944 196.102 171.03Z" fill="#FDA740"/>
<path d="M235.835 172.194C231.246 169.42 226.207 167.535 223.047 162.588C220.665 158.721 214.435 159.715 210.496 156.899C209.726 156.588 208.993 156.138 208.416 155.905C215.38 152.151 223.707 156.896 231.779 159.397C241.041 165.436 251.375 168.242 261.453 172.014C262.955 172.774 264.384 173.811 265.319 175.106C262.899 181.004 256.294 176.192 251.603 174.6C245.337 172.523 250.934 176.316 250.329 176.988C250.109 177.816 249.733 178.428 248.973 178.885C243.191 178.991 238.913 176.649 235.835 172.194Z" fill="#FEAE47"/>
<path d="M231.816 160.85C224.036 157.841 216.23 155.75 208.565 155.57C205.975 154.826 202.171 155.443 201.476 152.379C200.902 149.672 204.967 151.325 207.012 151.693C210.33 152.114 213.103 152.16 214.344 149.882C218.352 150.121 221.92 152.035 225.488 153.949C229.83 156.178 234.402 158.346 237.402 155.083C238.046 154.263 237.298 153.032 237.942 152.212C238.669 151.889 239.36 151.706 240.401 151.821C242.41 152.328 244.153 153.037 245.978 154.242C250.257 157.528 249.816 159.204 245.395 159.724C244.243 160.029 242.935 160.115 241.784 160.42C238.911 161.57 235.086 160.634 231.816 160.85Z" fill="#FEAD4D"/>
<path d="M210.093 159.082C211.394 159.755 212.505 160.351 216.027 162.216C210.695 162.335 206.886 162.311 203.268 162.365C189.885 156.995 176.465 151.761 163.081 146.392C164.994 143.246 168.942 145.884 172.266 146.916C178.722 148.904 184.892 152.734 191.657 155.148C198.077 157.272 203.916 158.41 210.093 159.082Z" fill="#F5A13E"/>
<path d="M192.422 143.623C199.184 143.768 205.889 145.713 212.611 149.182C205.71 150.346 199.033 147.503 192.422 143.623Z" fill="#FEAD4D"/>
<path d="M135.619 141.923C138.076 145.736 134.646 147.305 134.141 150.066C127.507 149.86 122.269 146.787 118.511 141.35C118.463 140.706 118.574 140.282 118.452 139.92C119.115 137.379 122.857 138.749 124.785 137.973C127.92 137.534 130.808 138.868 133.548 140.766C134.291 141.225 135.071 141.543 135.619 141.923Z" fill="#FEB04C"/>
<path d="M133.691 140.566C130.828 140.17 127.811 139.561 125.087 137.863C118.419 134.278 111.713 130.829 105.044 127.244C108.658 126.433 111.507 129.237 114.723 130.681C117.976 131.988 120.788 134.929 124.402 134.117C127.663 136.182 132.167 136.784 133.691 140.566Z" fill="#F4911B"/>
<path d="M239.331 151.889C238.993 152.361 238.883 152.773 238.58 153.108C225.137 147.68 212.747 140.698 200.312 133.09C198.273 131.962 196.234 130.834 194.195 129.706C194.607 128.959 195.248 128.153 195.697 127.268C196.154 127.149 196.804 127.107 197.225 127.124C199.676 127.505 201.944 128.573 203.909 129.976C212.221 134.702 220.496 139.565 229.037 144.231C232.96 146.272 237.377 148.055 239.331 151.889Z" fill="#FEA738"/>
<path d="M200.231 133.308C212.888 139.913 225.545 146.517 238.393 153.199C239.55 154.421 239.403 154.967 237.798 154.623C227.94 149.447 217.892 144.194 208.071 138.882C205.043 137.513 201.486 136.535 200.231 133.308Z" fill="#FEB85B"/>
<path d="M151.004 101.714C162.803 109.004 176.198 111.969 188.556 117.978C189.217 119.447 188.769 120.32 187.21 120.597C175.565 117.431 164.398 112.501 153.525 106.486C150.195 104.699 146.864 102.912 142.961 100.895C145.806 99.7802 148.923 103.136 151.004 101.714Z" fill="#FC9923"/>
<path d="M186.624 120.182C187.073 119.303 187.522 118.424 187.971 117.545C188.545 117.776 189.275 118.221 189.85 118.453C195.921 118.777 201.282 124.115 207.39 124.303C215.613 126.1 222.947 130.415 230.09 134.654C236.038 137.805 242.178 141.034 248.126 144.186C250.368 146.906 253.442 148.9 256.818 150.562C259.655 151.856 260.895 153.566 259.924 155.598C257.677 156.056 255.341 155.267 253.078 154.205C245.56 150.572 238.454 146.197 230.826 142.975C229.905 142.452 228.947 142.067 227.797 141.604C220.014 138.168 212.341 134.321 204.779 130.065C201.86 128.285 199.169 126.444 195.891 126.79L195.854 126.927C192.022 125.384 189.927 122.118 186.624 120.182Z" fill="#FDB358"/>
<path d="M223.706 249.036C216.503 246.423 208.585 244.901 203.482 238.387C206.611 240.269 209.456 240.808 212.639 240.872C220.502 240.991 215.41 238.468 212.391 236.171C213.014 233.817 215.519 234.833 217.941 235.354C228.163 240.263 239.44 243.606 246.911 252.459C248.196 254.053 250.664 255.206 250.187 257.006C249.711 258.806 247.49 259.133 245.527 258.491C238.094 255.939 229.883 255.524 223.706 249.036Z" fill="#FAA33D"/>
<path d="M212.597 232.389C212.147 233.28 211.698 234.172 211.248 235.063C204.925 232.347 198.601 229.631 192.277 226.915C190.074 225.562 187.303 224.745 186.889 222.277C189.147 221.812 191.413 222.117 193.662 224.102C196.673 225.629 198.976 225.795 201.224 224.559C202.142 224.317 203.179 224.431 204.372 224.761C208.383 226.54 211.403 228.837 212.597 232.389Z" fill="#E28E2C"/>
<path d="M206.973 251.69C207.277 251.35 207.424 250.791 207.728 250.451C209.046 251.141 210.365 251.832 211.683 252.523C218.198 253.007 223.299 257.246 228.85 260.585C231.544 263.381 232.579 265.967 229.715 267.894C225.126 267.42 220.416 266.587 217.011 262.42C214.955 261.274 212.862 260.269 211 259.202C212.926 259.212 214.851 259.222 216.971 259.311C213.429 256.48 211.002 253.483 206.973 251.69Z" fill="#FCA844"/>
<path d="M147.197 201.637C150.571 204.043 154.453 203.795 158.012 205.523C167.334 208.66 175.575 214.222 184.338 218.639C185.83 219.388 185.955 220.491 185.279 221.423C183.977 220.75 182.676 220.078 181.375 219.406C172.053 216.269 163.466 210.418 153.85 208.367C151.247 207.022 148.454 205.601 145.851 204.256C143.947 204.244 141.844 203.401 142.058 201.832C142.418 199.721 145.638 201.914 147.197 201.637Z" fill="#FEAC4A"/>
<path d="M147.473 201.954C148.678 203.808 139.274 200.014 146.09 204.74C136.4 202.807 127.465 196.465 117.894 194.884C118.755 193.255 120.575 192.014 123.262 193.098C131.131 196.272 139.926 196.781 147.473 201.954Z" fill="#FBA746"/>
<path d="M185.251 221.34C177.528 213.67 166.838 210.727 157.879 205.292C158.218 204.821 158.328 204.41 158.666 203.939C167.965 208.903 177.299 213.73 186.598 218.694C189.365 220.265 192.928 221.247 194.222 224.35C192.039 223.773 189.663 223.119 187.48 222.542C186.521 222.155 185.982 221.786 185.251 221.34Z" fill="#F7A442"/>
<path d="M182.873 259.189C187.715 258.562 191.309 262.588 195.564 264.151C200.353 269.264 208.528 269.677 213.052 274.987C203.592 272.237 194.499 268.119 185.443 263.863C186.495 262.316 185.447 260.681 182.873 259.189Z" fill="#EB9733"/>
<path d="M76.323 128.431C75.8932 127.648 75.4634 126.864 75.0335 126.081C77.8899 124.948 80.8181 126.741 83.893 127.984C86.9313 129.364 88.7989 128.746 88.0405 126.001C97.6759 132.181 108.246 136.453 118.853 140.586L119.045 140.664C119.831 142.506 119.62 144.098 118.255 145.224C116.314 146.117 114.492 147.362 111.445 145.216C107.748 143.112 104.097 141.637 101.041 138.725C98.5252 136.184 94.554 133.512 91.5788 134.291C85.2806 135.558 81.0997 131.276 76.323 128.431Z" fill="#F2901B"/>
<path d="M125.381 175.014C127.557 175.585 129.923 176.233 132.098 176.804C142.997 178.017 153.035 184.744 163.646 187.795C169.157 190.906 174.882 192.449 180.577 194.881C185.398 197.414 190.888 198.262 195.826 201.143C198.427 202.486 201.219 203.905 202.762 206.026C206.193 210.556 204.413 211.646 198.916 210.043C181.449 202.592 163.798 195.818 146.073 189.316C141.443 186.859 136.814 184.403 131.993 181.87C130.105 179.461 124.579 178.748 125.381 175.014Z" fill="#FDAA48"/>
<path d="M198.157 209.743C199.545 209.374 202.174 209.199 202.09 208.698C201.269 205.249 197.231 204.226 194.071 202.315C197.425 198.542 203.062 203.331 207.284 203.65C214.483 206.584 222.133 208.612 228.28 213.92C231.083 218.022 226.167 217.887 225.032 219.76C223.302 220.613 221.467 219.398 219.558 218.464C216.529 217.697 213.821 214.88 210.304 215.16C213.122 217.555 216.566 217.556 219.448 218.886C220.42 219.283 221.356 219.82 222.024 220.559C223.202 221.818 224.612 223.016 226.289 224.011C235.502 229.945 235.391 230.368 227.352 233.944C225.139 233.354 222.694 232.824 220.48 232.234C219.134 229.972 218.529 228.168 214.633 229.072C211.236 229.713 207.497 225.074 203.433 224.975C202.691 224.517 202.108 224.279 201.366 223.821C199.804 219.914 195.035 219.217 191.949 217.024C192.185 214.473 194.766 213.656 196.801 212.461C197.216 211.695 200.124 212.102 198.157 209.743Z" fill="#F9A23B"/>
<path d="M197.201 213.421C198.731 217.221 195.488 217.431 192.4 217.855C184.11 213.908 176.298 208.183 167.112 205.997C164.126 205.249 162.229 202.817 160.222 200.795C168.38 199.685 175.891 205.744 183.707 208.286C187.998 209.712 192.563 211.703 197.201 213.421Z" fill="#FCAD4B"/>
<path d="M134.12 173.702C127.504 169.635 119.759 167.416 114.465 161.58C120.148 155.432 128.942 161.766 136.686 163.985C141.602 167.209 143.418 161.952 148.554 164.343C152.919 166.42 157.539 167.526 160.775 171.451C163.246 172.608 155.457 172.983 161.695 174.437C164.506 175.117 167.024 176.906 167.595 179.597C162.213 182.178 155.8 178.962 149.672 177.091C141.542 174.715 134.228 170.058 127.475 167.318C130.435 170.671 138.49 170.096 140.982 176.025C138.393 177.741 136.224 176.247 134.12 173.702Z" fill="#FDAD4B"/>
<path d="M138.023 167.065C130.158 162.964 122.422 159.985 114.896 161.834C114.126 161.523 113.585 161.151 112.852 160.701C110.037 159.256 107.297 157.534 104.446 156.227C98.1302 153.517 101.944 152.001 103.034 150.301C108.324 150.453 113.668 152.004 119.131 153.91C123.403 155.486 127.482 156.984 131.68 158.837C133.779 161.369 142.295 162.216 138.023 167.065Z" fill="#FEB352"/>
<path d="M133.818 174.009C136.084 175.075 138.394 176.766 140.525 175.954C148.137 176.898 154.869 181.131 161.482 185.013C163.18 186.609 165.336 188.086 163.789 189.892C153.164 185.911 142.465 182.204 132.243 176.715C132.729 175.696 133.177 174.814 133.818 174.009Z" fill="#E38F2D"/>
<path d="M118.833 154.87C113.611 154.44 108.406 152.331 103.431 150.161C104.302 149.286 106.22 149.297 106.156 147.122C100.575 145.627 94.7736 144.964 89.2199 142.559C95.9104 140.668 104.145 145.847 111.084 145.438C112.846 145.231 114.608 145.025 116.37 144.819C120.116 146.797 125.045 148.335 125.863 152.502C126.838 156.887 119.603 151.96 118.833 154.87Z" fill="#FCA843"/>
<path d="M195.397 171.445C196.276 171.343 197.155 171.241 198.033 171.138C207.451 171.743 215.96 176.552 224.579 180.949C227.927 182.76 231.57 183.469 234.808 185.692C241.45 191.119 250.5 193.099 256.501 199.334C258.028 202.39 255.538 202.146 253.049 201.902C249.297 201.606 245.527 199.778 241.848 199.206C230.738 197.765 220.033 191.611 209.098 188.717C207.561 188.096 205.832 187.397 204.404 186.363C199.153 182.108 192.611 178.702 189.182 173.201C191.086 172.447 193.895 173.886 195.881 173.622C199.588 173.291 196.056 172.168 195.397 171.445Z" fill="#FDA73F"/>
<path d="M143.819 158.853C147.37 155.119 152.923 159.791 157.1 160.868C167.601 163.737 177.699 168.114 187.018 174.609C190.215 176.962 197.07 178.36 195.695 181.908C194.247 185.731 188.061 182.628 183.803 181.062C178.548 179.246 173.778 176.41 168.634 174.183C160.594 169.268 152.407 164.901 143.844 161.143C142.84 160.13 142.831 159.367 143.819 158.853Z" fill="#F29F3D"/>
<path d="M144.499 159.391C144.389 159.812 144.047 160.295 143.9 160.857C140.865 165.061 135.289 158.437 131.556 159.559C126.915 159.223 122.861 156.639 118.503 154.398C117.059 153.344 114.581 152.956 114.366 151.314C114.271 150.032 116.13 150.323 117.563 150.596C119.58 151.106 121.533 152.679 124.232 152.224C122.756 148.825 116.293 148.058 116.009 144.212C116.802 142.825 117.595 141.438 118.194 139.972C122.084 144.821 128.411 146.932 133.824 150.069C139.18 151.784 139.983 156.93 144.499 159.391Z" fill="#F5A13E"/>
<path d="M169.858 172.636C177.68 176.11 185.172 180.828 194.58 182.341C193.269 178.441 187.208 177.977 186.822 174.606C187.703 174.503 188.583 174.4 189.463 174.297C195.827 177.64 201.283 181.993 206.207 186.743C204.64 190.242 199.229 186.52 196.369 187.658C194.608 187.864 192.536 187.637 190.573 186.996C185.567 184.968 180.789 182.881 175.645 182.175C172.491 181.204 169.226 180.648 166.934 178.035C162.615 175.827 158.525 173.558 153.665 170.978C154.793 169.138 158.818 172.452 160.258 171.045C163.275 170.123 166.759 173.065 169.858 172.636Z" fill="#EE9A37"/>
<path d="M141.732 146.656C148.663 147.78 154.64 152.473 161.497 153.872C163.911 154.39 166.726 156.591 165.755 158.633C165.159 160.065 162.17 159.315 160.168 158.051C153.861 154.593 146.913 151.941 141.732 146.656Z" fill="#E69231"/>
<path d="M225.446 183.32C216.875 177.68 207.157 175.583 198.367 170.778C203.01 166.959 209.598 167.94 216.74 170.07C221.975 170.5 222.558 173.975 223.977 176.71C218.035 178.151 228.886 181.634 225.446 183.32Z" fill="#F69E36"/>
<path d="M248.369 153.089C254.548 156.934 261.197 158.248 267.552 160.652C273.332 162.825 279.259 164.453 283.164 169.65C275.117 169.587 267.192 162.774 259.263 163.06C253.005 162.659 251.102 155.548 244.954 154.738C242.921 153.618 240.852 152.635 239.011 151.593C227.67 146.428 217.72 139.254 206.498 134.439C204.583 133.669 203.191 131.75 201.46 130.298C203.107 127.335 206.113 130.356 208.182 131.339C215.156 134.597 221.644 138.868 228.838 141.308C235.738 144.838 243.352 147.295 248.369 153.089Z" fill="#F9A23B"/>
<path d="M229.474 141.227C224.639 141.85 220.826 137.902 216.615 136.21C211.639 134.211 207.517 129.837 201.916 130.152C199.884 129.034 197.816 128.052 195.975 127.011C196.954 125.744 198.588 125.193 201.039 126.329C210.505 131.34 220.008 136.215 229.474 141.227Z" fill="#F9AA4F"/>
<path d="M202.948 225.233C208.849 224.842 215.792 230.307 221.079 227.339C222.82 230.53 216.28 229.264 219.951 232.465C217.884 233.796 215.372 233.549 212.341 232.005C208.958 230.162 206.829 226.813 202.948 225.233Z" fill="#E7922D"/>
<path d="M208.341 206.135C203.969 204.978 199.578 202.291 194.875 202.371C190.403 199.194 184.858 199.239 180.084 196.397C180.131 193.827 183.004 194.226 185.026 193.824C186.134 193.662 187.168 193.775 188.165 194.026C191.925 195.087 195.428 197.111 199.077 198.585C203.075 200.352 208.93 200.737 208.341 206.135Z" fill="#EC9835"/>
<path d="M185.847 196.033C184.089 196.238 182.294 196.58 180.344 196.707C174.953 193.766 168.71 193.225 163.539 189.457C163.329 187.847 161.902 186.812 160.208 185.975C163.423 182.699 167.559 186.354 171.633 187.847C176.218 190.616 182.727 190.959 185.847 196.033Z" fill="#E69330"/>
<path d="M208.103 205.362C206.279 200.924 202.012 200.886 198.195 199.952C198.346 193.698 206.682 199.393 209.771 197.413C210.79 195.978 207.8 193.531 209.592 192.411C211.927 191.664 214.632 192.763 217.143 193.782C228.467 198.689 241.039 198.864 251.336 207.666C254.383 211.522 251.495 211.12 248.377 210.778C246.915 210.646 243.428 208.46 245.472 212.063C245.905 212.855 245.952 213.49 245.382 214.029C238.78 214.737 231.759 209.73 225.137 208.889C228.964 210.597 233.461 210.575 236.545 214.292C237.41 215.875 236.417 216.397 235.075 216.622C232.96 216.533 231.028 215.749 229.206 214.547C222.435 211.027 215.508 207.29 208.103 205.362Z" fill="#F9A13A"/>
<path d="M219.973 217.813C219.632 218.294 219.522 218.715 219.181 219.197C215.666 221.955 210.821 217.5 206.877 216.981C204.171 216.655 204.748 213.632 207.056 213.019C211.902 211.734 216.208 213.332 219.973 217.813Z" fill="#F49D36"/>
<path d="M171.427 189.821C167.747 188.49 164.619 185.107 160.581 185.906C153.862 182.441 147.336 179.054 140.655 175.453C135.242 172.666 130.021 169.956 124.645 167.032C138.799 169.702 152.635 178.308 166.92 178.909C169.979 179.384 172.81 179.918 175.694 181.838C177.831 181.789 179.793 183.186 181.637 184.232C184.749 186.092 186.764 188.875 186.176 191.063C185.524 194.287 181.8 192.332 178.659 191.37C176.285 190.717 173.829 189.576 171.427 189.821Z" fill="#FDAD4B"/>
<path d="M170.21 173.148C167.399 174.909 164.132 173.588 160.627 171.562C155.777 168.992 151 166.147 145.518 165.152C139.267 163.845 147.503 168.088 144.784 167.904C142.524 167.601 140.144 166.944 137.728 166.425C138.984 162.511 133.199 161.851 131.068 159.465C134.209 156.465 139.588 161.841 143.287 160.743C153.062 162.406 161.095 169.007 170.21 173.148Z" fill="#FDAD4B"/>
<path d="M209.696 188.311C213.786 190.58 217.84 192.987 222.792 193.614C222.141 196.873 217.776 194.033 216.373 195.303C214.062 194.367 211.934 192.739 209.605 193.481C203.59 193.648 198.958 191.007 195.565 186.11C197.509 181.997 202.984 187.89 205.762 186.259C207.074 186.943 208.385 187.627 209.696 188.311Z" fill="#DD851D"/>
<path d="M171.002 189.446C174.148 184.819 180.135 193.166 184.006 190.7C184.063 186.37 179.085 184.031 175.298 181.245C180.77 180.053 185.917 183.394 191.017 186.093C186.59 187.399 192.057 188.693 192.577 189.993C193.884 192.392 196.931 194.721 195.649 197.153C192.488 197.731 189.809 193.997 186.684 194.434C186.38 194.777 186.233 195.339 185.928 195.681C181.401 192.438 175.797 192.487 171.002 189.446Z" fill="#FDAA48"/>
<path d="M191.32 189.472C189.853 188.572 188.385 187.671 187.11 186.848C188.293 186.408 189.632 186.184 190.815 185.744C192.274 185.875 193.888 186.223 195.539 186.432C200.208 188.936 204.913 191.302 209.582 193.806C212.361 195.391 215.792 196.934 214.37 199.882C206.143 197.928 197.43 197.003 191.32 189.472Z" fill="#FDAD4B"/>
<path d="M191.171 189.698C198.212 194.546 206.895 195.611 214.046 200.043C211.459 201.756 207.686 200.687 204.299 199.775C201.683 199.174 199.489 198.592 198.554 200.514C194.423 198.38 190.292 196.245 186.354 194.189C187.235 194.086 188.383 193.784 189.154 194.096C195.019 196.934 194.156 195.357 191.007 191.932C190.695 191.499 191.181 190.469 191.171 189.698Z" fill="#FBA744"/>
</g>
</svg>
