<svg width="74" height="289" viewBox="0 0 74 289" fill="none" xmlns="http://www.w3.org/2000/svg">
<g opacity="0.8">
<path d="M37.8705 111.995C37.135 114.838 36.1597 117.641 34.0752 120.534C33.4569 131.32 34.5509 131.934 45.5394 129.167C47.0538 128.155 48.2833 126.953 49.1383 125.262C50.3991 120.387 55.2276 115.281 54.8995 110.414C51.542 109.833 52.8766 108.225 55.6205 106.012C59.9694 100.822 60.3455 96.7847 56.704 93.7496C55.865 92.4726 54.8311 91.3034 53.7972 90.1342C53.093 89.305 51.9989 88.6913 50.6049 88.5916C44.9077 91.567 48.534 95.3069 45.6249 98.4818C42.9251 103.108 39.461 107.46 37.8705 111.995Z" fill="#F8AE55"/>
<path d="M48.1083 127.18C37.7562 131.831 37.5552 125.089 35.409 120.297C27.1415 128.016 35.1714 131.674 32.8937 137.849C39.401 137.25 36.8801 143.383 38.7213 146.41C40.0908 148.642 42.2337 146.583 44.1641 145.343C47.7187 138.816 52.1551 132.154 48.1083 127.18Z" fill="#FACE99"/>
<path d="M50.1226 166.279C48.8344 172.55 53.1527 174.851 58.1446 174.869C61.5522 174.895 63.4794 176.782 66.7975 176.51C70.7455 171.547 71.6592 167.047 69.0453 163.63C63.9038 163.868 61.245 160.302 56.2979 160.433C53.4875 161.64 51.0506 163.335 50.1226 166.279Z" fill="#FCE0BE"/>
<path d="M82.1011 45.9195C81.9704 45.4878 81.651 45.1602 81.5202 44.7285C79.4887 46.0169 77.6893 47.3452 75.6578 48.6337C72.8866 51.8414 73.2653 55.9989 68.3604 58.7042C67.0112 60.7918 67.2149 62.1909 68.2603 63.4616C68.8555 63.9729 69.7844 64.1323 70.6698 64.1478C74.7915 63.218 78.6803 60.0655 82.7727 58.3122C89.2304 54.9184 92.0731 48.3125 97.8048 43.9756C98.7045 43.3115 97.8041 41.7929 96.7443 41.2018C93.0864 40.0286 89.575 42.9729 85.7584 44.91C84.5972 44.7108 83.1901 47.3341 82.1011 45.9195Z" fill="#F79E32"/>
<path d="M37.3332 111.698C41.4026 107.701 44.9424 103.47 46.7422 98.7977C47.4817 86.8268 47.4817 86.8268 42.7003 85.4356C42.3677 87.3711 42.5647 89.5399 41.4605 91.2004C35.9997 98.9438 35.8645 105.325 37.3332 111.698Z" fill="#FCE1C0"/>
<path d="M67.7506 164.552C68.2853 168.59 66.8962 173 66.372 177.277C69.1455 177.476 71.5159 178.592 75.0063 176.661C76.6492 171.591 83.2434 165.689 79.2195 161.328C77.8481 160.526 75.8796 160.749 74.0604 160.715C72.0919 160.937 70.1681 161.308 68.4523 163.124C68.1538 163.636 68.0491 164.04 67.7506 164.552Z" fill="#F7AD52"/>
<path d="M77.0378 162.208C78.5578 164.288 78.7927 166.564 75.9252 169.697C73.2497 172.725 72.6721 175.278 74.3842 177.252C75.5809 176.762 76.674 176.672 77.1756 177.597C78.0766 177.614 78.8892 177.336 79.7612 176.51C80.7811 175.43 81.8009 174.35 82.8208 173.27C86.9293 169.793 93.503 168.561 94.5409 162.315C92.1047 160.914 87.3468 163.719 85.6941 161.197C82.6221 160.664 80.9404 157.298 76.2267 160.251C75.9752 160.906 75.9157 161.454 76.2405 161.79C76.6094 162.273 76.8457 162.314 77.0378 162.208Z" fill="#F49A2D"/>
<path d="M44.28 145.1C42.7239 145.961 41.2574 147.119 39.5821 146.829C40.4327 151.92 36.45 160.553 46.7126 159.223C50.3178 159.141 53.101 157.081 55.0023 153.596C56.1274 146.022 45.5644 150.125 44.28 145.1Z" fill="#F9BA6E"/>
<path d="M70.0137 61.4167C69.6645 60.261 69.359 59.2499 70.4644 57.7969C73.2428 56.7687 76.3265 54.5607 74.4935 52.8758C72.0204 50.5329 68.6312 53.9208 65.8094 56.9956C58.8128 63.0492 52.049 69.1429 48.7038 77.0574C48.7766 78.0285 49.4748 78.1487 50.5513 78.0601C52.1514 77.5139 53.3878 76.4942 54.5806 75.3301C58.3478 69.5423 63.5843 64.966 70.0137 61.4167Z" fill="#FBD4A6"/>
<path d="M53.7807 153.008C53.0454 156.484 49.3917 157.653 46.8525 159.569C49.1848 160.666 44.6338 166.254 49.7399 165.476C52.323 163.706 54.906 161.936 57.5331 160.312C59.2512 157.144 63.948 153.523 61.5579 150.752C59.8569 148.794 56.5846 149.751 53.7807 153.008Z" fill="#F8BB71"/>
<path d="M50.8307 77.5109C50.5412 77.3186 50.4038 76.8666 50.1143 76.6743C45.9121 78.8131 43.1116 81.7628 41.7585 85.674C47.0905 88.0133 42.2826 95.7623 45.8333 99.0829C52.0295 95.1421 45.7226 92.6362 48.7817 89.0165C50.5764 85.0379 52.3253 80.9087 50.8307 77.5109Z" fill="#FAC485"/>
<path d="M65.1118 57.1863C66.4944 56.5923 67.7889 55.705 69.0243 55.3634C70.2157 54.8752 71.8196 52.7906 72.4071 54.0046C73.3179 55.5527 71.0233 56.8224 69.8609 58.1496C79.8609 56.5493 74.82 51.6434 75.9837 48.0924C70.4396 48.9371 67.3348 52.7072 65.1118 57.1863Z" fill="#FACB92"/>
<path d="M53.0304 152.956C59.862 151.834 59.862 151.834 56.1293 157.058C54.3162 159.464 56.619 159.428 56.9859 160.634C57.0056 166.784 61.1692 166.78 67.557 163.438L67.3735 162.835C72.0513 156.915 70.6754 152.393 68.9949 148.389C67.773 145.894 63.9747 144.817 67.3569 139.963C68.0121 139.074 68.1939 137.39 67.1112 137.634C55.3692 139.347 64.7706 127.658 61.1688 124.184C61.747 122.282 62.0811 120.338 60.6316 119.376C59.6554 119.209 58.725 119.194 57.6424 119.438C54.1963 120.279 51.2235 121.916 49.2433 125.294C48.8322 126.225 48.6193 127.046 48.2082 127.977C46.5196 133.835 45.075 139.735 43.3864 145.593C42.7788 148.92 39.8846 153.857 47.188 151.244C50.1002 150.169 51.9919 151.063 53.0304 152.956Z" fill="#F49C32"/>
<path d="M47.1802 125.263C49.8247 123.14 52.7736 122.017 55.6217 121.283C62.5721 115.288 70.7248 111.801 78.0806 106.416C81.896 103.815 86.2037 102.111 90.106 99.7961C93.1698 97.6089 96.2771 95.5647 96.7659 92.1259C93.1627 88.9379 87.9311 92.6521 83.6095 95.0313C79.4322 97.1641 75.1245 98.8683 73.3325 100.188C76.3389 98.5334 81.774 96.2085 86.8612 92.7407C89.65 90.3712 93.3645 88.1595 92.3205 84.7303C83.5867 84.8674 75.6672 90.5618 67.6607 95.9706C63.2695 101.725 56.1294 105.655 52.7943 111.996C52.9857 116.228 46.439 120.666 47.1802 125.263Z" fill="#F79622"/>
<path d="M52.1487 111.271C57.3414 106.844 63.5121 103.429 66.6003 97.2349C67.2093 95.5178 68.53 93.9244 69.8951 92.4789C72.1953 89.6533 75.3556 86.6968 74.809 83.3768C72.6172 79.0699 67.5009 80.004 61.8352 82.1047C58.199 87.2221 57.7871 82.1026 55.4884 82.6848C48.7101 85.5738 51.4804 89.5605 50.2179 92.8468C51.0919 94.2606 51.7287 95.6331 52.6026 97.0469C55.0345 96.9085 59.6473 95.0456 59.6917 95.1935C59.3628 99.343 56.2316 103.146 52.626 106.866C48.7097 109.551 50.3106 110.39 52.1487 111.271Z" fill="#F59A2C"/>
<path d="M49.8169 92.2511C53.1873 89.1733 51.0729 85.144 55.6356 82.2731C59.0213 78.4937 61.3038 74.8047 58.4434 72.0547C56.8035 72.6154 55.2974 73.6219 54.4469 75.3055C53.1347 76.2048 51.8225 77.104 50.5103 78.0033C48.9878 81.9651 45.7807 86.3389 48.2981 89.452C48.8044 90.385 49.3107 91.3181 49.8169 92.2511Z" fill="#F6A23D"/>
<path d="M53.0743 106.891C62.1648 102.89 61.7853 96.4063 63.9731 89.5317C60.2091 92.6447 57.0206 95.4392 53.1986 96.868C59.3795 98.0811 54.5816 102.968 53.0743 106.891Z" fill="#F7A039"/>
<path d="M84.764 58.404C84.4007 57.9317 84.2698 57.4994 83.9066 57.0271C79.0111 56.8692 75.5984 61.6112 71.2118 63.8633C65.5902 64.9468 60.6808 67.6556 57.5733 73.4064C56.5717 76.6499 55.57 79.8935 54.7572 83.0328C55.8906 84.5937 56.0948 88.181 60.2628 83.0223C67.3792 75.2277 79 72.8522 84.9393 63.3526C85.8686 61.3263 86.3766 59.3642 84.764 58.404Z" fill="#F69621"/>
<path d="M57.6046 72.4472C62.1674 69.4369 66.6867 66.2839 71.206 63.1309C70.8444 62.6637 70.4827 62.1964 70.0776 61.5865C60.3391 61.2821 57.7171 69.2207 53.605 75.1477C54.8756 74.282 56.1462 73.4162 57.6046 72.4472Z" fill="#F8A849"/>
<path d="M58.5439 125.921C57.8288 128.046 51.8333 131.364 58.0347 131.737C60.5629 131.895 60.3084 134.803 57.8234 137.043C55.8741 138.814 52.3192 139.743 54.1767 142.174C55.3803 143.93 57.7749 143.643 60.4825 142.144C61.6429 141.502 62.9967 140.753 64.5439 139.897C63.9916 143.316 60.9862 145.325 58.575 148.562C69.7145 148.106 66.0804 157.035 65.883 163.89C67.6682 163.075 69.4087 162.112 70.9254 162.656C72.6952 162.542 74.0491 161.793 74.8532 159.964C78.6907 159.224 79.4018 163.847 84.0879 161.427C84.4747 161.213 85.0549 160.892 85.3972 160.529C87.6289 158.948 89.5337 157.029 90.2043 154.756C90.5479 152.144 90.2667 149.705 88.8252 147.908C86.8035 146.433 84.0374 146.234 80.6605 147.756C79.8869 148.184 79.009 149.016 78.0573 148.851C79.4111 148.102 80.6758 147.056 81.4202 145.779C81.6887 144.42 81.377 143.382 80.4406 142.516C79.5347 140.25 74.7137 144.474 74.4478 141.335C80.6253 131.863 90.8729 130.69 98.8328 124.901C99.7553 124.218 100.44 123.493 101.273 122.513C105.872 117.547 97.3495 118.457 100.118 114.158C95.1676 111.189 89.0538 113.362 82.1067 116.514C76.1711 119.28 70.1744 124.847 63.8839 124.176C62.025 123.994 60.1954 124.661 58.5439 125.921Z" fill="#F49522"/>
<path d="M76.1337 160.246C74.8578 161.118 73.5819 161.989 72.3059 162.86C73.829 163.53 75.337 162.698 76.99 161.619C76.8157 161.045 76.4529 160.574 76.1337 160.246Z" fill="#F49B2F"/>
<path d="M58.0067 124.78C59.5163 125.433 61.0084 124.616 62.6436 123.556C71.692 123.203 79.7635 116.151 88.1434 112.218C91.3703 109.957 95.0571 107.773 95.178 103.925C90.8357 101.864 85.4011 106.156 80.3478 107.444C72.5274 111.071 64.8935 114.595 58.3141 120.83C58.2883 122.16 58.0326 123.451 58.0067 124.78Z" fill="#F79622"/>
<path d="M58.2624 120.192C65.9199 116.176 73.3917 112.262 81.0927 108.386C81.9831 104.969 79.4943 105.35 76.7763 105.693C70.778 109.455 64.6374 113.457 58.5523 116.94C55.3952 118.663 55.7857 119.915 56.2629 121.446C57.0058 121.04 57.7052 120.496 58.2624 120.192Z" fill="#EC8B17"/>
<path d="M71.9498 87.0018C71.188 90.2488 67.2049 92.2732 65.663 95.1175C70.1562 97.6366 74.034 91.6777 78.335 89.9774C82.2608 88.4835 86.2849 84.4403 90.1993 85.7806C89.2933 89.2731 85.6993 90.4182 83.0592 92.5357C85.8206 95.841 89.815 90.9824 93.2215 89.9405C103.45 81.8192 114.447 76.9348 125.719 72.2321C127.682 71.4852 127.755 72.443 128.579 72.9881C134.962 73.8024 142.077 70.5544 148.832 69.001C150.42 68.4604 151.834 67.3501 152.655 65.7339C152.797 63.327 151.351 61.4607 149.301 61.9228C143.152 63.309 149.4 59.3734 148.72 58.5827C147.462 56.6132 145.385 58.4212 143.509 59.453C151.864 54.5249 160.857 52.4063 168.864 46.3386C170.955 43.8577 170.072 41.6819 170.676 39.3535C168.667 37.7968 166.272 39.2806 163.689 40.8676C160.919 42.5578 162.49 40.5289 162.692 39.7528C161.303 37.3559 157.146 38.8106 155.281 37.0082C149.304 36.803 143.431 40.5322 137.659 43.8733C131.514 49.5821 123.527 47.82 119.389 52.9243C116.186 55.3513 117.526 53.2832 117.831 54.2802C117.918 54.5651 118.062 54.3195 118.625 54.0099C120.37 52.5508 122.621 51.3126 122.2 49.2152C117.332 46.9025 113.511 52.3309 109.053 54.9498C107.758 59.3217 103.628 59.4304 100.583 60.9389C98.8949 61.8676 97.1197 62.5113 95.5182 63.7249C91.2767 67.0559 83.7568 69.695 85.3651 74.9652C87.1039 80.6628 93.4776 72.832 97.5635 72.5808C104.029 69.3575 109.741 64.3855 116.25 61.3046C108.991 64.7983 102.514 70.8559 94.8502 73.7405C87.2023 78.1135 78.3669 79.3135 71.9498 87.0018Z" fill="#F6941D"/>
<path d="M95.3917 92.0362C97.0184 90.9867 98.3729 89.7606 98.4957 88.0684C98.8595 85.7571 96.5459 86.6936 95.0299 86.7075C91.504 88.6299 88.5855 92.4966 84.5076 91.957C79.4177 96.5201 72.5128 97.3594 66.6879 104.436C77.2415 99.982 86.4094 95.9585 95.3917 92.0362Z" fill="#ED8B16"/>
<path d="M91.1082 84.6954C93.2375 83.2202 95.6818 82.0556 97.8874 78.7743C90.2072 81.1731 83.8846 84.4402 77.5511 88.355C74.129 90.531 70.9566 94.1759 66.9375 93.7879C65.5359 95.5102 65.8834 96.6053 66.459 97.7372C74.4221 92.1368 82.8954 88.8268 91.1082 84.6954Z" fill="#F18F1A"/>
<path d="M72.1457 85.095C79.8604 81.0243 87.388 77.0564 95.1462 73.1274C95.7209 72.1497 96.5695 71.3527 96.2655 70.361C95.3434 70.2053 94.478 69.5218 93.7296 69.9328C91.4844 71.1656 88.798 75.9511 87.0641 72.4342C85.417 69.2007 90.442 67.7656 92.7007 65.8633C97.2614 62.2003 102.3 60.0957 107.612 58.1718C111.946 56.6199 111.05 55.1253 108.758 54.0666C100.489 53.4761 92.3767 61.2411 84.2845 63.3673C80.0847 67.4942 76.2156 71.2739 70.4855 73.2617C65.7779 75.0191 62.1393 78.8377 60.5188 83.5345C64.3944 84.0547 70.0944 81.2558 72.1457 85.095Z" fill="#F3911B"/>
<path d="M87.717 111.126C79.8682 116.733 71.4427 121.179 62.8563 124.402C63.9485 125.116 59.223 128.85 63.4384 127.691C66.4494 126.863 69.4297 125.232 72.3667 123.461C81.0346 118.39 89.6464 113.842 98.1438 115.259C104.283 114.687 109.152 110.711 113.487 105.715C114.155 97.3152 107.176 100.806 101.098 102.984C96.2241 104.831 92.7643 109.84 87.717 111.126Z" fill="#F18F19"/>
<path d="M79.3 143.138C87.0008 139.262 94.7329 136.183 102.13 131.332C104.805 130.85 106.16 129.622 105.881 127.332C104.661 126.207 102.587 126.524 100.37 127.082C90.7499 130.378 81.6067 135.204 73.0277 141.839C71.6288 142.928 69.1278 143.967 69.1468 145.422C69.2093 147.016 71.5245 146.078 73.2393 145.305C75.1832 144.57 77.3561 143.873 79.3 143.138Z" fill="#ED8B15"/>
<path d="M72.7932 141.556C82.2986 138.486 90.9616 131.286 100.281 128.318C101.064 125.922 100.4 124.481 97.9608 124.34C89.5223 129.45 77.8578 129.765 72.7932 141.556Z" fill="#F79620"/>
</g>
</svg>
