<svg width="131" height="80" viewBox="0 0 131 80" fill="none" xmlns="http://www.w3.org/2000/svg">
<path fill-rule="evenodd" clip-rule="evenodd" d="M123.954 29.9275L64.3069 60.7998C63.9924 60.9425 63.7092 61.0694 63.4261 61.1804V61.2279C61.9475 61.7195 60.988 61.7829 59.5094 61.2279V46.7669H55.8916V4.2561H59.5094V0.609142C60.7049 0.133452 62.1677 0.0383139 63.3789 0.52986C63.5991 0.593286 63.8351 0.672568 64.071 0.767706C85.2902 8.85444 106.525 16.957 127.76 25.0438C128.342 25.5353 128.374 26.0269 128.374 26.5184V54.6475L130.23 55.6941V67.5705C128.704 68.8073 127.682 69.0293 126.486 69.0927C125.165 69.1561 123.671 68.9183 122.16 67.5705L122.176 55.7258L123.985 54.6634L123.954 29.9275ZM59.8083 8.34704H63.143V42.676H59.8083V8.34704Z" fill="white" fill-opacity="0.3"/>
<path fill-rule="evenodd" clip-rule="evenodd" d="M106.052 44.0083C92.0681 51.2388 78.0688 58.4534 64.0852 65.6839C62.0403 66.5243 60.8606 66.4292 58.9416 65.6522L18.3906 44.0083V63.8129C26.2082 73.8182 43.8883 79.7485 61.5999 79.9863C79.8305 80.24 98.1083 74.4842 105.847 63.8129L106.052 44.0083Z" fill="white" fill-opacity="0.3"/>
<path fill-rule="evenodd" clip-rule="evenodd" d="M32.4064 12.2318H28.7886V41.1537H32.4064V47.3218L36.4646 49.4149V41.1537H40.0824V12.2318H36.4646V9.29834L32.4064 10.8523V12.2318ZM32.8468 16.3227H36.1815V37.0628H32.8468V16.3227Z" fill="white" fill-opacity="0.3"/>
<path fill-rule="evenodd" clip-rule="evenodd" d="M45.6007 39.4572H41.9829V52.2691L53.2768 58.1518V39.4572H49.659V4.28784L45.6007 5.84176V39.4572ZM46.0412 43.3896H49.3758V54.2036H46.0412V43.3896Z" fill="white" fill-opacity="0.3"/>
<path fill-rule="evenodd" clip-rule="evenodd" d="M11.4072 36.429V23.2683H7.78944V20.208L3.71547 21.7302V23.2683H0.0976562V30.5463L11.4072 36.429ZM4.1559 27.2007H7.49057V34.3836L4.1559 32.6552V27.2007Z" fill="white" fill-opacity="0.3"/>
<path fill-rule="evenodd" clip-rule="evenodd" d="M18.0612 32.8145H14.4434V37.9995L25.753 43.914V32.8145H22.1194V14.7542L18.0612 16.3081V32.8145Z" fill="white" fill-opacity="0.3"/>
</svg>
