<svg width="50" height="31" viewBox="0 0 50 31" fill="none" xmlns="http://www.w3.org/2000/svg">
<path fill-rule="evenodd" clip-rule="evenodd" d="M47.589 11.4207L24.6709 23.2828C24.5501 23.3376 24.4413 23.3864 24.3325 23.429V23.4473C23.7644 23.6362 23.3957 23.6605 22.8276 23.4473V17.891H21.4375V1.55699H22.8276V0.155723C23.2869 -0.0270519 23.849 -0.0636069 24.3143 0.12526C24.399 0.14963 24.4896 0.180093 24.5803 0.216648C32.7334 3.32382 40.8925 6.43708 49.0516 9.54425C49.2752 9.73311 49.2873 9.92198 49.2873 10.1108V20.9189L50.0005 21.321V25.8843C49.4142 26.3595 49.0214 26.4448 48.5621 26.4692C48.0544 26.4935 47.4802 26.4022 46.9 25.8843L46.9061 21.3332L47.6011 20.925L47.589 11.4207ZM22.9424 3.12886H24.2237V16.3191H22.9424V3.12886Z" fill="#FFC536"/>
<path fill-rule="evenodd" clip-rule="evenodd" d="M40.7109 16.8311C35.3379 19.6092 29.959 22.3813 24.586 25.1595C23.8003 25.4824 23.3471 25.4458 22.6097 25.1473L7.02881 16.8311V24.4406C10.0326 28.2849 16.8258 30.5635 23.6311 30.6549C30.6359 30.7524 37.6588 28.5408 40.6323 24.4406L40.7109 16.8311Z" fill="#FFC536"/>
<path fill-rule="evenodd" clip-rule="evenodd" d="M12.414 4.6215H11.0239V15.7342H12.414V18.1042L13.9733 18.9084V15.7342H15.3634V4.6215H13.9733V3.49438L12.414 4.09145V4.6215ZM12.5832 6.19336H13.8645V14.1623H12.5832V6.19336Z" fill="#FFC536"/>
<path fill-rule="evenodd" clip-rule="evenodd" d="M17.4838 15.0822H16.0938V20.005L20.4332 22.2653V15.0822H19.0431V1.56909L17.4838 2.16616V15.0822ZM17.653 16.5932H18.9343V20.7482H17.653V16.5932Z" fill="#FFC536"/>
<path fill-rule="evenodd" clip-rule="evenodd" d="M17.4838 15.0822H16.0938V20.005L20.4332 22.2653V15.0822H19.0431V1.56909L17.4838 2.16616V15.0822ZM17.653 16.5932H18.9343V20.7482H17.653V16.5932Z" fill="#FFC536"/>
<path fill-rule="evenodd" clip-rule="evenodd" d="M4.34549 13.9189V8.86213H2.95542V7.68628L1.39007 8.27116V8.86213H0V11.6586L4.34549 13.9189ZM1.5593 10.3731H2.84058V13.133L1.5593 12.4689V10.3731Z" fill="#FFC536"/>
<path fill-rule="evenodd" clip-rule="evenodd" d="M6.90228 12.5299H5.51221V14.5222L9.8577 16.7947V12.5299H8.46158V5.59058L6.90228 6.18764V12.5299Z" fill="#FFC536"/>
</svg>
