<svg width="254" height="531" viewBox="0 0 254 531" fill="none" xmlns="http://www.w3.org/2000/svg">
<rect width="109" height="109" rx="10" transform="matrix(-1 0 0 1 254 422)" fill="url(#paint0_linear)"/>
<path d="M2.97217 52.6943C2.97217 32.9809 18.8739 17 38.4896 17H190.327C209.942 17 225.844 32.9809 225.844 52.6943V440.573C225.844 460.286 209.942 476.267 190.327 476.267H38.4896C18.8739 476.267 2.97217 460.286 2.97217 440.573V52.6943Z" fill="white"/>
<path fill-rule="evenodd" clip-rule="evenodd" d="M190.327 19.3796H38.4896C20.1816 19.3796 5.34 34.2951 5.34 52.6943V440.573C5.34 458.972 20.1816 473.887 38.4896 473.887H190.327C208.635 473.887 223.476 458.972 223.476 440.573V52.6943C223.476 34.2951 208.635 19.3796 190.327 19.3796ZM38.4896 17C18.8739 17 2.97217 32.9809 2.97217 52.6943V440.573C2.97217 460.286 18.8739 476.267 38.4896 476.267H190.327C209.942 476.267 225.844 460.286 225.844 440.573V52.6943C225.844 32.9809 209.942 17 190.327 17H38.4896Z" fill="#232A38"/>
<path d="M0.900391 90.4704C0.900391 90.1418 1.16542 89.8755 1.49235 89.8755H2.97224V107.128H1.49235C1.16542 107.128 0.900391 106.861 0.900391 106.533V90.4704Z" fill="#232A38"/>
<path d="M1.49243 123.487C1.49243 123.159 1.75746 122.893 2.08439 122.893H2.97233V157.397H2.08439C1.75746 157.397 1.49243 157.131 1.49243 156.802V123.487Z" fill="#232A38"/>
<path d="M1.49243 167.213C1.49243 166.884 1.75746 166.618 2.08439 166.618H2.97233V201.123H2.08439C1.75746 201.123 1.49243 200.856 1.49243 200.528V167.213Z" fill="#232A38"/>
<path d="M227.324 188.629C227.324 188.958 227.059 189.224 226.732 189.224L225.844 189.224L225.844 134.494L226.732 134.494C227.059 134.494 227.324 134.76 227.324 135.088L227.324 188.629Z" fill="#232A38"/>
<path fill-rule="evenodd" clip-rule="evenodd" d="M6.52417 53.289C6.52417 35.3827 20.9682 20.8667 38.7859 20.8667H189.735C207.553 20.8667 221.997 35.3827 221.997 53.289V440.275C221.997 458.181 207.553 472.697 189.735 472.697H38.7858C20.9682 472.697 6.52417 458.181 6.52417 440.275V53.289ZM13.6277 52.9916C13.6277 39.1922 24.7589 28.0056 38.4899 28.0056H57.1365C58.7712 28.0056 60.0963 29.3373 60.0963 30.9801V33.6572C60.0963 39.5712 64.8668 44.3655 70.7516 44.3655H157.473C163.358 44.3655 168.129 39.5712 168.129 33.6572V30.9801C168.129 29.3373 169.454 28.0056 171.088 28.0056H190.031C203.762 28.0056 214.893 39.1922 214.893 52.9916V440.275C214.893 454.074 203.762 465.261 190.031 465.261H38.4899C24.7589 465.261 13.6277 454.074 13.6277 440.275V52.9916Z" fill="#232A38"/>
<path d="M101.829 33.9551C101.829 32.8052 102.757 31.873 103.901 31.873H124.915C126.06 31.873 126.987 32.8052 126.987 33.9551C126.987 35.105 126.06 36.0372 124.915 36.0372H103.901C102.757 36.0372 101.829 35.105 101.829 33.9551Z" fill="#4F5560"/>
<path d="M138.826 33.955C138.826 35.1048 137.899 36.0369 136.754 36.0369C135.61 36.0369 134.683 35.1048 134.683 33.955C134.683 32.8052 135.61 31.873 136.754 31.873C137.899 31.873 138.826 32.8052 138.826 33.955Z" fill="#4F5560"/>
<rect width="109" height="109" rx="10" transform="matrix(-1 0 0 1 203 0)" fill="url(#paint1_linear)"/>
<rect width="56" height="56" rx="10" transform="matrix(-1 0 0 1 94 271)" fill="url(#paint2_linear)"/>
<rect width="65" height="65" rx="10" transform="matrix(-1 0 0 1 191 423)" fill="url(#paint3_linear)"/>
<defs>
<linearGradient id="paint0_linear" x1="155.734" y1="135.986" x2="47.6364" y2="-47.0588" gradientUnits="userSpaceOnUse">
<stop offset="2.1e-07" stop-color="#FFC536"/>
<stop offset="1" stop-color="#FF5936"/>
</linearGradient>
<linearGradient id="paint1_linear" x1="155.734" y1="135.986" x2="47.6364" y2="-47.0588" gradientUnits="userSpaceOnUse">
<stop offset="2.1e-07" stop-color="#FFC536"/>
<stop offset="1" stop-color="#FF5936"/>
</linearGradient>
<linearGradient id="paint2_linear" x1="6.11092" y1="0.275936" x2="14.9739" y2="54.2472" gradientUnits="userSpaceOnUse">
<stop offset="2.1e-07" stop-color="#3EC9FE"/>
<stop offset="1" stop-color="#B1DEF7"/>
</linearGradient>
<linearGradient id="paint3_linear" x1="7.09304" y1="0.320283" x2="17.3805" y2="62.9655" gradientUnits="userSpaceOnUse">
<stop offset="2.1e-07" stop-color="#3EC9FE"/>
<stop offset="1" stop-color="#B1DEF7"/>
</linearGradient>
</defs>
</svg>
