<svg width="366" height="396" viewBox="0 0 366 396" fill="none" xmlns="http://www.w3.org/2000/svg">
<path d="M115.667 92.0099C114.289 91.4574 112.894 90.9017 111.489 90.3605" stroke="#D6A443" stroke-width="2" stroke-miterlimit="10"/>
<path d="M103.182 87.2412C93.0453 83.6613 82.3133 80.8583 70.1836 80.8158C52.9689 80.7637 32.0526 87.7351 21.3066 100.776C12.123 111.921 12.4259 124.501 15.1371 135.223C21.434 160.094 38.4354 180.782 60.3738 197.05C82.325 213.313 109.132 225.392 136.976 235.985C149.799 240.859 163.001 245.513 177.684 247.876C194.136 250.526 212.182 247.087 230.277 245.017C236.355 244.317 244.007 242.726 246.867 238.05C248.433 235.5 247.874 232.862 246.458 230.895C243.654 226.99 237.501 225.071 230.885 226.05C224.281 227.022 217.47 230.843 213.641 235.723C208.378 242.443 209.217 250.157 213.598 255.242C216.285 258.357 220.075 260.66 224.325 262.51" stroke="#D6A443" stroke-width="2" stroke-miterlimit="10" stroke-dasharray="7.87 7.87"/>
<path d="M228.454 264.117C229.876 264.629 231.342 265.101 232.804 265.564" stroke="#D6A443" stroke-width="2" stroke-miterlimit="10"/>
<path d="M273.975 276.095L241.008 268.761" stroke="#D6A443" stroke-width="2" stroke-miterlimit="10" stroke-linecap="round" stroke-linejoin="round"/>
<path d="M364.84 292.026L276.832 264.56L276.353 264.412L241.008 268.762L281.208 251.273L281.628 250.973" stroke="#D6A443" stroke-width="2" stroke-miterlimit="10" stroke-linecap="round" stroke-linejoin="round"/>
<path d="M285.353 230.016L281.557 251.372L364.839 292.026L288.262 228.845C287.404 228.148 285.549 228.889 285.353 230.016Z" stroke="#D6A443" stroke-width="2" stroke-miterlimit="10" stroke-linecap="round" stroke-linejoin="round"/>
<path d="M364.84 292.026L276.353 264.412L270.645 292.426C270.462 293.338 271.194 294.027 272.334 294L364.84 292.026Z" stroke="#D6A443" stroke-width="2" stroke-miterlimit="10" stroke-linecap="round" stroke-linejoin="round"/>
</svg>
