<svg width="415" height="679" viewBox="0 0 415 679" fill="none" xmlns="http://www.w3.org/2000/svg">
<mask id="mask0" mask-type="alpha" maskUnits="userSpaceOnUse" x="0" y="10" width="416" height="670">
<g opacity="0.5">
<path opacity="0.5" d="M111.569 563.778V530.088" stroke="#F7941D" stroke-miterlimit="10"/>
<path opacity="0.5" d="M111.569 359.886V10" stroke="#F7941D" stroke-miterlimit="10"/>
<path opacity="0.5" d="M127.582 563.778V530.088" stroke="#F7941D" stroke-miterlimit="10"/>
<path opacity="0.5" d="M127.582 359.886V10" stroke="#F7941D" stroke-miterlimit="10"/>
<path opacity="0.5" d="M143.595 563.778V530.088" stroke="#F7941D" stroke-miterlimit="10"/>
<path opacity="0.5" d="M143.595 359.886V10" stroke="#F7941D" stroke-miterlimit="10"/>
<path opacity="0.5" d="M159.607 563.778V530.088" stroke="#F7941D" stroke-miterlimit="10"/>
<path opacity="0.5" d="M159.607 359.886V10" stroke="#F7941D" stroke-miterlimit="10"/>
<path opacity="0.5" d="M175.62 563.778V530.088" stroke="#F7941D" stroke-miterlimit="10"/>
<path opacity="0.5" d="M175.62 359.886V10" stroke="#F7941D" stroke-miterlimit="10"/>
<path opacity="0.5" d="M191.633 563.778V530.088" stroke="#F7941D" stroke-miterlimit="10"/>
<path opacity="0.5" d="M191.633 359.907V10" stroke="#F7941D" stroke-miterlimit="10"/>
<path opacity="0.5" d="M207.645 563.778V530.088" stroke="#F7941D" stroke-miterlimit="10"/>
<path opacity="0.5" d="M207.645 372.052V10" stroke="#F7941D" stroke-miterlimit="10"/>
<path opacity="0.5" d="M223.658 563.778V530.088" stroke="#F7941D" stroke-miterlimit="10"/>
<path opacity="0.5" d="M223.658 360.281V10" stroke="#F7941D" stroke-miterlimit="10"/>
<path opacity="0.5" d="M239.671 563.778V530.088" stroke="#F7941D" stroke-miterlimit="10"/>
<path opacity="0.5" d="M239.671 359.886V10" stroke="#F7941D" stroke-miterlimit="10"/>
<path opacity="0.5" d="M255.684 563.778V530.088" stroke="#F7941D" stroke-miterlimit="10"/>
<path opacity="0.5" d="M255.684 359.886V10" stroke="#F7941D" stroke-miterlimit="10"/>
<path opacity="0.5" d="M271.696 563.778V530.088" stroke="#F7941D" stroke-miterlimit="10"/>
<path opacity="0.5" d="M271.696 359.886V10" stroke="#F7941D" stroke-miterlimit="10"/>
<path opacity="0.5" d="M287.709 563.778V530.088" stroke="#F7941D" stroke-miterlimit="10"/>
<path opacity="0.5" d="M287.709 359.886V10" stroke="#F7941D" stroke-miterlimit="10"/>
<path opacity="0.5" d="M303.722 563.778V530.088" stroke="#F7941D" stroke-miterlimit="10"/>
<path opacity="0.5" d="M303.722 359.886V10" stroke="#F7941D" stroke-miterlimit="10"/>
<path opacity="0.5" d="M319.735 563.778V530.088" stroke="#F7941D" stroke-miterlimit="10"/>
<path opacity="0.5" d="M319.735 359.886V10" stroke="#F7941D" stroke-miterlimit="10"/>
<path opacity="0.5" d="M1.09045 602L111.799 564" stroke="#F7941D" stroke-miterlimit="10"/>
<path opacity="0.5" d="M127.757 564L1.09052 614" stroke="#F7941D" stroke-miterlimit="10"/>
<path opacity="0.5" d="M143.715 564L1.09052 647" stroke="#F7941D" stroke-miterlimit="10"/>
<path opacity="0.5" d="M159.607 563.777L1 678.701" stroke="#F7941D" stroke-miterlimit="10"/>
<path opacity="0.5" d="M175.62 563.777L71.4819 678.493" stroke="#F7941D" stroke-miterlimit="10"/>
<path opacity="0.5" d="M191.633 563.777L144.651 678.264" stroke="#F7941D" stroke-miterlimit="10"/>
<path opacity="0.5" d="M207.645 563.777V676.829" stroke="#F7941D" stroke-miterlimit="10"/>
<path opacity="0.5" d="M223.658 563.777L254.905 677.952" stroke="#F7941D" stroke-miterlimit="10"/>
<path opacity="0.5" d="M239.671 563.777L316.343 677.765" stroke="#F7941D" stroke-miterlimit="10"/>
<path opacity="0.5" d="M255.684 563.777L378.318 677.578" stroke="#F7941D" stroke-miterlimit="10"/>
<path opacity="0.5" d="M271.378 564L414.003 663" stroke="#F7941D" stroke-miterlimit="10"/>
<path opacity="0.5" d="M287.336 564L415 647" stroke="#F7941D" stroke-miterlimit="10"/>
<path opacity="0.5" d="M303.294 564L415 610" stroke="#F7941D" stroke-miterlimit="10"/>
<path opacity="0.5" d="M319.735 563.777L414.501 596.5" stroke="#F7941D" stroke-miterlimit="10"/>
<path opacity="0.5" d="M1.09045 563.916H414.003" stroke="#F7941D" stroke-miterlimit="10"/>
</g>
<path d="M73.1314 393.328H43.886C35.1013 393.328 29.0038 402.041 30.227 412.669L41.9771 513.637C43.0335 522.767 50.3726 530.088 58.379 530.088H68.4611H85.141H109.716H125.729H141.741H157.754H173.767H189.78H205.792H221.805H237.818H253.83H269.843H285.856H301.869H317.881H329.372H346.052H356.319C364.325 530.088 371.665 522.767 372.721 513.637L384.471 412.669C385.694 402.041 379.597 393.328 370.812 393.328H340.01" stroke="#F7941D" stroke-miterlimit="10"/>
<path d="M200.214 457.485C202.605 455.406 204.532 452.681 205.792 449.541C206.774 447.066 207.312 444.342 207.349 441.472V380.121C207.312 377.251 206.756 374.527 205.792 372.052C203.031 365.106 196.933 360.198 189.78 359.907C189.557 359.886 189.316 359.886 189.094 359.886H173.767H157.754H141.741H125.729H109.716H91.3866C81.3045 359.886 73.1314 369.057 73.1314 380.371V393.327V459.212" stroke="#F7941D" stroke-miterlimit="10"/>
<path d="M214.41 457.527C210.111 453.825 207.349 448.002 207.349 441.472V380.121C207.349 370.326 213.558 362.153 221.805 360.281C222.954 360.032 224.159 359.886 225.382 359.886H237.818H253.83H269.843H285.856H301.869H317.881H321.977C331.929 359.886 340.01 368.953 340.01 380.121V393.327V457.693" stroke="#F7941D" stroke-miterlimit="10"/>
<path d="M207.349 473.499V482.109C207.349 485.02 206.793 487.786 205.792 490.282C203.049 497.186 196.933 502.011 189.78 502.136H85.6414C75.7817 502.136 67.7939 493.173 67.7939 482.109V473.499C67.7939 467.904 69.8326 462.851 73.1315 459.211C76.3377 455.676 80.7672 453.471 85.6414 453.471H189.502C193.523 453.471 197.23 454.969 200.214 457.485C202.623 459.502 204.551 462.206 205.792 465.326C206.793 467.821 207.349 470.587 207.349 473.499Z" stroke="#F7941D" stroke-miterlimit="10"/>
<path d="M346.904 473.499V482.109C346.904 493.173 338.916 502.136 329.057 502.136H225.197C224.029 502.136 222.898 502.011 221.805 501.762C213.576 499.994 207.349 491.862 207.349 482.109V473.499C207.349 466.989 210.111 461.208 214.41 457.527C216.542 455.717 219.062 454.428 221.805 453.846C222.898 453.596 224.029 453.471 225.197 453.471H329.057C333.19 453.471 336.989 455.052 340.01 457.693C344.198 461.353 346.904 467.073 346.904 473.499Z" stroke="#F7941D" stroke-miterlimit="10"/>
<path d="M109.938 419.531C112.579 419.531 114.72 417.129 114.72 414.166C114.72 411.203 112.579 408.8 109.938 408.8C107.298 408.8 105.157 411.203 105.157 414.166C105.157 417.129 107.298 419.531 109.938 419.531Z" stroke="#F7941D" stroke-miterlimit="10"/>
<path d="M141.612 419.531C144.252 419.531 146.393 417.129 146.393 414.166C146.393 411.203 144.252 408.8 141.612 408.8C138.971 408.8 136.83 411.203 136.83 414.166C136.83 417.129 138.971 419.531 141.612 419.531Z" stroke="#F7941D" stroke-miterlimit="10"/>
<path d="M173.266 419.531C175.907 419.531 178.048 417.129 178.048 414.166C178.048 411.203 175.907 408.8 173.266 408.8C170.625 408.8 168.485 411.203 168.485 414.166C168.485 417.129 170.625 419.531 173.266 419.531Z" stroke="#F7941D" stroke-miterlimit="10"/>
<path d="M246.806 414.166C246.806 417.119 244.656 419.531 242.025 419.531C240.227 419.531 238.652 418.408 237.818 416.766C237.447 415.996 237.225 415.102 237.225 414.166C237.225 413.209 237.447 412.336 237.818 411.566C238.652 409.903 240.227 408.8 242.025 408.8C244.656 408.8 246.806 411.192 246.806 414.166Z" stroke="#F7941D" stroke-miterlimit="10"/>
<path d="M278.461 414.166C278.461 417.119 276.33 419.531 273.679 419.531C272.104 419.531 270.695 418.679 269.843 417.348C269.25 416.474 268.898 415.351 268.898 414.166C268.898 412.96 269.25 411.857 269.843 410.963C270.695 409.653 272.104 408.8 273.679 408.8C276.33 408.8 278.461 411.192 278.461 414.166Z" stroke="#F7941D" stroke-miterlimit="10"/>
<path d="M310.134 414.166C310.134 417.119 307.984 419.531 305.334 419.531C303.981 419.531 302.739 418.887 301.868 417.847C301.053 416.89 300.552 415.601 300.552 414.166C300.552 412.71 301.053 411.421 301.868 410.464C302.739 409.445 303.981 408.8 305.334 408.8C307.984 408.8 310.134 411.192 310.134 414.166Z" stroke="#F7941D" stroke-miterlimit="10"/>
<path d="M85.1409 530.087L66.2926 563.715H58.7867L68.461 530.087H85.1409Z" stroke="#F7941D" stroke-miterlimit="10"/>
<path d="M355.726 563.715H348.22L329.372 530.087H346.052L355.726 563.715Z" stroke="#F7941D" stroke-miterlimit="10"/>
</mask>
<g mask="url(#mask0)">
<rect x="0.0904846" y="307" width="414" height="295" fill="#D6A443"/>
</g>
<path d="M72.717 112.65C74.2726 112.65 75.5338 111.123 75.5338 109.239C75.5338 107.355 74.2726 105.828 72.717 105.828C71.1613 105.828 69.9001 107.355 69.9001 109.239C69.9001 111.123 71.1613 112.65 72.717 112.65Z" stroke="#D6A443" stroke-miterlimit="10"/>
<path d="M70.2676 107.57L64.8177 120.657" stroke="#D6A443" stroke-miterlimit="10"/>
<path d="M75.1664 107.57L79.4528 120.657" stroke="#D6A443" stroke-miterlimit="10"/>
<path d="M111.081 213.922V123.278C111.081 122.03 110.254 121.029 109.223 121.029H35.3739C34.3431 121.029 33.5165 122.03 33.5165 123.278V214.824C33.5165 215.429 33.7104 215.973 34.0268 216.369C34.3635 216.801 34.8432 217.073 35.3739 217.073H100.793" stroke="#D6A443" stroke-miterlimit="10"/>
<path d="M40.4157 181.681V207.632H67.2978H103.764L103.843 181.681M40.4157 181.681V128.74H103.855V158.646V177.739L103.843 181.681M40.4157 181.681H103.843" stroke="#D6A443" stroke-miterlimit="10"/>
<path d="M60.0211 181.68H49.0702H40.4157" stroke="#D6A443" stroke-miterlimit="10"/>
<path d="M104.21 188.593H48.9877" stroke="#D6A443" stroke-miterlimit="10"/>
<path d="M53.9581 158.23C55.8911 158.23 57.4581 156.663 57.4581 154.73C57.4581 152.797 55.8911 151.23 53.9581 151.23C52.0251 151.23 50.4581 152.797 50.4581 154.73C50.4581 156.663 52.0251 158.23 53.9581 158.23Z" stroke="#D6A443" stroke-miterlimit="10"/>
<path d="M85.1283 166.357H85.1171" stroke="#D6A443" stroke-miterlimit="10"/>
<path d="M85.1283 166.357H85.1171" stroke="#D6A443" stroke-miterlimit="10"/>
<path d="M34.037 121.597L40.6503 128.999" stroke="#D6A443" stroke-miterlimit="10"/>
<path d="M103.855 128.74L110.499 121.646" stroke="#D6A443" stroke-miterlimit="10"/>
<path d="M34.0269 216.369L40.4157 207.632" stroke="#D6A443" stroke-miterlimit="10"/>
<path d="M103.764 161.044C100.134 161.468 93.8685 163.144 87.2981 166.806M70.8325 181.588C75.4984 174.79 81.5163 170.029 87.2981 166.806M87.2981 166.806C79.4361 166.637 65.9373 170.122 57.482 181.588" stroke="#D6A443"/>
<path d="M172.872 92.2114C174.82 92.2114 176.398 90.3728 176.398 88.1047C176.398 85.8367 174.82 83.998 172.872 83.998C170.925 83.998 169.346 85.8367 169.346 88.1047C169.346 90.3728 170.925 92.2114 172.872 92.2114Z" stroke="#D6A443" stroke-miterlimit="10"/>
<path d="M169.806 86.0955L162.984 101.853" stroke="#D6A443" stroke-miterlimit="10"/>
<path d="M175.939 86.0955L181.304 101.853" stroke="#D6A443" stroke-miterlimit="10"/>
<path d="M220.897 214.147V105.008C220.897 103.505 219.862 102.3 218.572 102.3H126.125C124.835 102.3 123.8 103.505 123.8 105.008V215.233C123.8 215.962 124.043 216.616 124.439 217.093C124.861 217.613 125.461 217.941 126.125 217.941H208.019" stroke="#D6A443" stroke-miterlimit="10"/>
<path d="M132.437 175.327V206.573H166.088H211.737L211.837 175.327M132.437 175.327V111.584H211.852V147.592V170.58L211.837 175.327M132.437 175.327H211.837" stroke="#D6A443" stroke-miterlimit="10"/>
<path d="M156.979 175.326H143.271H132.437" stroke="#D6A443" stroke-miterlimit="10"/>
<path d="M212.296 183.649H143.168" stroke="#D6A443" stroke-miterlimit="10"/>
<path d="M149.008 146.664C151.217 146.664 153.008 144.873 153.008 142.664C153.008 140.455 151.217 138.664 149.008 138.664C146.799 138.664 145.008 140.455 145.008 142.664C145.008 144.873 146.799 146.664 149.008 146.664Z" stroke="#D6A443" stroke-miterlimit="10"/>
<path d="M188.41 156.876H188.395" stroke="#D6A443" stroke-miterlimit="10"/>
<path d="M188.41 156.876H188.395" stroke="#D6A443" stroke-miterlimit="10"/>
<path d="M124.452 102.984L132.73 111.897" stroke="#D6A443" stroke-miterlimit="10"/>
<path d="M211.852 111.584L220.169 103.044" stroke="#D6A443" stroke-miterlimit="10"/>
<path d="M124.439 217.092L132.437 206.573" stroke="#D6A443" stroke-miterlimit="10"/>
<path d="M211.737 148.069C207.194 148.626 199.35 150.834 191.125 155.658M170.513 175.127C176.354 166.173 183.888 159.903 191.125 155.658M191.125 155.658C181.284 155.436 164.385 160.025 153.801 175.127" stroke="#D6A443"/>
<path d="M309.528 14.3378C312.577 14.3378 315.049 11.352 315.049 7.6689C315.049 3.98577 312.577 1 309.528 1C306.479 1 304.007 3.98577 304.007 7.6689C304.007 11.352 306.479 14.3378 309.528 14.3378Z" stroke="#D6A443" stroke-miterlimit="10"/>
<path d="M304.728 4.40625L294.047 29.9945" stroke="#D6A443" stroke-miterlimit="10"/>
<path d="M314.329 4.40625L322.729 29.9945" stroke="#D6A443" stroke-miterlimit="10"/>
<path d="M384.715 212.351V35.1178C384.715 32.6774 383.095 30.7202 381.075 30.7202H236.341C234.321 30.7202 232.701 32.6774 232.701 35.1178V214.115C232.701 215.299 233.081 216.362 233.701 217.135C234.361 217.981 235.301 218.513 236.341 218.513H364.553" stroke="#D6A443" stroke-miterlimit="10"/>
<path d="M246.222 149.311V200.053H298.907H370.375L370.53 149.311M246.222 149.311V45.7983H370.554V104.272V141.603L370.53 149.311M246.222 149.311H370.53" stroke="#D6A443" stroke-miterlimit="10"/>
<path d="M284.646 149.31H263.184H246.222" stroke="#D6A443" stroke-miterlimit="10"/>
<path d="M371.25 162.827H263.022" stroke="#D6A443" stroke-miterlimit="10"/>
<path d="M272.904 103.773C276.77 103.773 279.904 100.639 279.904 96.7732C279.904 92.9072 276.77 89.7732 272.904 89.7732C269.038 89.7732 265.904 92.9072 265.904 96.7732C265.904 100.639 269.038 103.773 272.904 103.773Z" stroke="#D6A443" stroke-miterlimit="10"/>
<path d="M333.853 119.349H333.831" stroke="#D6A443" stroke-miterlimit="10"/>
<path d="M333.853 119.349H333.831" stroke="#D6A443" stroke-miterlimit="10"/>
<path d="M233.721 31.832L246.682 46.3055" stroke="#D6A443" stroke-miterlimit="10"/>
<path d="M370.554 45.7981L383.575 31.9287" stroke="#D6A443" stroke-miterlimit="10"/>
<path d="M233.701 217.135L246.222 200.052" stroke="#D6A443" stroke-miterlimit="10"/>
<path d="M370.375 105.046C363.261 105.952 350.982 109.537 338.105 117.37M305.835 148.987C314.979 134.446 326.774 124.264 338.105 117.37M338.105 117.37C322.697 117.009 296.241 124.462 279.67 148.987" stroke="#D6A443"/>
<path d="M47.459 246H53.087V244.936H51.029V236.018H50.049C49.489 236.354 48.831 236.592 47.921 236.746V237.572H49.741V244.936H47.459V246ZM58.0806 240.862C59.3126 240.862 59.9286 241.688 59.9286 242.976C59.9286 244.306 59.1726 245.188 58.1786 245.188C56.9186 245.188 56.1486 244.138 55.9806 242.192C56.6526 241.212 57.4366 240.862 58.0806 240.862ZM58.1926 246.182C59.7886 246.182 61.1326 244.894 61.1326 242.976C61.1326 240.946 60.0126 239.91 58.2906 239.91C57.4786 239.91 56.5966 240.386 55.9526 241.156C56.0086 237.978 57.1846 236.9 58.5986 236.9C59.2146 236.9 59.8306 237.194 60.2366 237.684L60.9506 236.886C60.3906 236.284 59.6206 235.836 58.5566 235.836C56.5546 235.836 54.7486 237.376 54.7486 241.394C54.7486 244.586 56.2186 246.182 58.1926 246.182ZM63.1022 239.252C64.1802 238.622 64.7682 237.726 64.7682 236.48C64.7682 235.584 64.4042 235.066 63.7742 235.066C63.2982 235.066 62.9622 235.388 62.9622 235.92C62.9622 236.438 63.3542 236.718 63.7742 236.718C63.8302 236.718 63.8862 236.718 63.9282 236.704C63.9282 237.586 63.5222 238.118 62.7382 238.65L63.1022 239.252ZM65.8602 239.252C66.9242 238.622 67.5122 237.726 67.5122 236.48C67.5122 235.584 67.1482 235.066 66.5322 235.066C66.0562 235.066 65.7062 235.388 65.7062 235.92C65.7062 236.438 66.0982 236.718 66.5322 236.718C66.5742 236.718 66.6302 236.718 66.6722 236.704C66.6722 237.586 66.2802 238.118 65.4822 238.65L65.8602 239.252ZM71.7436 246H73.0876L74.1096 244.222C74.3756 243.76 74.6276 243.298 74.8936 242.864H74.9636C75.2436 243.298 75.5236 243.76 75.7756 244.222L76.8956 246H78.2956L75.7896 242.164L78.0996 238.398H76.7696L75.8316 240.064C75.6076 240.498 75.3836 240.918 75.1456 241.338H75.0896C74.8376 240.918 74.5716 240.498 74.3336 240.064L73.3116 238.398H71.9396L74.2496 242.038L71.7436 246ZM82.2531 246H88.7071V244.894H85.8091C85.2771 244.894 84.6611 244.95 84.1291 244.992C86.4951 242.5 88.2031 240.638 88.2031 238.762C88.2031 236.998 87.0551 235.836 85.2211 235.836C83.9191 235.836 83.0371 236.438 82.1971 237.348L82.9391 238.062C83.4991 237.404 84.2271 236.872 85.0671 236.872C86.3411 236.872 86.9571 237.684 86.9571 238.818C86.9571 240.456 85.2631 242.248 82.2531 245.244V246ZM93.2948 246.182C95.2828 246.182 96.4868 244.32 96.4868 240.974C96.4868 237.642 95.2828 235.836 93.2948 235.836C91.3068 235.836 90.0888 237.628 90.0888 240.974C90.0888 244.32 91.3068 246.182 93.2948 246.182ZM93.2948 245.16C92.1188 245.16 91.3348 243.9 91.3348 240.974C91.3348 238.048 92.1188 236.858 93.2948 236.858C94.4568 236.858 95.2408 238.048 95.2408 240.974C95.2408 243.9 94.4568 245.16 93.2948 245.16ZM98.5124 239.252C99.5904 238.622 100.178 237.726 100.178 236.48C100.178 235.584 99.8144 235.066 99.1844 235.066C98.7084 235.066 98.3724 235.388 98.3724 235.92C98.3724 236.438 98.7644 236.718 99.1844 236.718C99.2404 236.718 99.2964 236.718 99.3384 236.704C99.3384 237.586 98.9324 238.118 98.1484 238.65L98.5124 239.252ZM101.27 239.252C102.334 238.622 102.922 237.726 102.922 236.48C102.922 235.584 102.558 235.066 101.942 235.066C101.466 235.066 101.116 235.388 101.116 235.92C101.116 236.438 101.508 236.718 101.942 236.718C101.984 236.718 102.04 236.718 102.082 236.704C102.082 237.586 101.69 238.118 100.892 238.65L101.27 239.252ZM44.5759 268.758L45.3739 268.38C44.1559 266.392 43.5819 264.026 43.5819 261.646C43.5819 259.266 44.1559 256.914 45.3739 254.912L44.5759 254.548C43.2879 256.634 42.5179 258.902 42.5179 261.646C42.5179 264.404 43.2879 266.658 44.5759 268.758ZM47.5704 262.22L49.9084 258.79C50.2024 258.3 50.4824 257.866 50.7344 257.39H50.7904C50.7624 257.922 50.7204 258.776 50.7204 259.294V262.22H47.5704ZM50.7204 266H51.9244V263.242H53.2824V262.22H51.9244V256.018H50.5104L46.2404 262.402V263.242H50.7204V266ZM57.618 266.182C59.606 266.182 60.81 264.32 60.81 260.974C60.81 257.642 59.606 255.836 57.618 255.836C55.63 255.836 54.412 257.628 54.412 260.974C54.412 264.32 55.63 266.182 57.618 266.182ZM57.618 265.16C56.442 265.16 55.658 263.9 55.658 260.974C55.658 258.048 56.442 256.858 57.618 256.858C58.78 256.858 59.564 258.048 59.564 260.974C59.564 263.9 58.78 265.16 57.618 265.16ZM61.7016 266H63.0456L64.0676 264.222C64.3336 263.76 64.5856 263.298 64.8516 262.864H64.9216C65.2016 263.298 65.4816 263.76 65.7336 264.222L66.8536 266H68.2536L65.7476 262.164L68.0576 258.398H66.7276L65.7896 260.064C65.5656 260.498 65.3416 260.918 65.1036 261.338H65.0476C64.7956 260.918 64.5296 260.498 64.2916 260.064L63.2696 258.398H61.8976L64.2076 262.038L61.7016 266ZM72.1183 266.182C73.8543 266.182 75.4783 264.964 75.4783 262.808C75.4783 260.652 74.0923 259.672 72.3843 259.672C71.7683 259.672 71.3203 259.84 70.8583 260.092L71.1103 257.11H74.9883V256.018H69.9903L69.6683 260.82L70.3543 261.254C70.9423 260.862 71.3763 260.638 72.0623 260.638C73.3503 260.638 74.1903 261.464 74.1903 262.85C74.1903 264.236 73.2103 265.118 72.0063 265.118C70.8163 265.118 70.0743 264.572 69.4863 263.984L68.8563 264.824C69.5423 265.51 70.5223 266.182 72.1183 266.182ZM80.1219 266.182C82.1099 266.182 83.3139 264.32 83.3139 260.974C83.3139 257.642 82.1099 255.836 80.1219 255.836C78.1339 255.836 76.9159 257.628 76.9159 260.974C76.9159 264.32 78.1339 266.182 80.1219 266.182ZM80.1219 265.16C78.9459 265.16 78.1619 263.9 78.1619 260.974C78.1619 258.048 78.9459 256.858 80.1219 256.858C81.2839 256.858 82.0679 258.048 82.0679 260.974C82.0679 263.9 81.2839 265.16 80.1219 265.16ZM88.2795 266.182C89.1895 266.182 90.0575 265.832 90.7435 265.216L90.1835 264.362C89.7075 264.796 89.0915 265.118 88.3915 265.118C86.9915 265.118 86.0395 263.956 86.0395 262.206C86.0395 260.456 87.0475 259.266 88.4335 259.266C89.0355 259.266 89.4975 259.546 89.9455 259.938L90.6035 259.098C90.0575 258.622 89.3715 258.202 88.3775 258.202C86.4315 258.202 84.7095 259.672 84.7095 262.206C84.7095 264.726 86.2635 266.182 88.2795 266.182ZM92.4066 266H93.6806V260.484C94.3806 259.7 95.0246 259.322 95.5986 259.322C96.5646 259.322 97.0126 259.924 97.0126 261.352V266H98.2866V260.484C99.0006 259.7 99.6166 259.322 100.205 259.322C101.171 259.322 101.619 259.924 101.619 261.352V266H102.893V261.184C102.893 259.238 102.151 258.202 100.583 258.202C99.6586 258.202 98.8606 258.804 98.0766 259.658C97.7686 258.762 97.1386 258.202 95.9766 258.202C95.0666 258.202 94.2686 258.776 93.6106 259.504H93.5686L93.4566 258.398H92.4066V266ZM105.466 268.758C106.768 266.658 107.538 264.404 107.538 261.646C107.538 258.902 106.768 256.634 105.466 254.548L104.682 254.912C105.886 256.914 106.474 259.266 106.474 261.646C106.474 264.026 105.886 266.392 104.682 268.38L105.466 268.758ZM59.5332 294.214H60.7212V292.18C62.6292 291.91 63.8352 290.596 63.8352 288.688C63.8352 284.368 58.2012 285.178 58.2012 282.244C58.2012 281.074 58.9932 280.3 60.2352 280.3C61.3332 280.3 61.9452 280.714 62.6832 281.434L63.5652 280.462C62.8452 279.706 62.0172 279.094 60.7212 278.968V276.952H59.5332V278.986C57.7872 279.238 56.5992 280.516 56.5992 282.316C56.5992 286.24 62.2332 285.52 62.2332 288.796C62.2332 290.056 61.4592 290.866 59.9652 290.866C58.7412 290.866 57.7152 290.272 56.8692 289.552L56.0952 290.668C56.9592 291.46 58.2552 292.09 59.5332 292.216V294.214ZM69.7876 292.234C72.1276 292.234 74.0176 290.83 74.0176 288.472C74.0176 286.672 72.7756 285.484 71.2276 285.124V285.052C72.6136 284.53 73.5676 283.468 73.5676 281.866C73.5676 279.778 71.9476 278.554 69.7336 278.554C68.2036 278.554 67.0336 279.22 66.0436 280.138L66.9256 281.182C67.6636 280.426 68.5996 279.904 69.6616 279.904C71.0296 279.904 71.8936 280.732 71.8936 281.992C71.8936 283.414 70.9576 284.512 68.2396 284.512V285.772C71.2816 285.772 72.3436 286.834 72.3436 288.4C72.3436 289.93 71.2276 290.866 69.6616 290.866C68.1676 290.866 67.1596 290.164 66.3856 289.354L65.5576 290.434C66.4216 291.37 67.7176 292.234 69.7876 292.234ZM79.718 292.234C81.95 292.234 84.038 290.596 84.038 287.698C84.038 284.8 82.256 283.504 80.06 283.504C79.268 283.504 78.692 283.702 78.098 284.026L78.422 280.21H83.408V278.788H76.982L76.568 284.98L77.45 285.52C78.206 285.016 78.764 284.746 79.646 284.746C81.302 284.746 82.382 285.862 82.382 287.752C82.382 289.678 81.122 290.866 79.574 290.866C78.044 290.866 77.09 290.164 76.334 289.408L75.524 290.488C76.406 291.37 77.666 292.234 79.718 292.234ZM90.0083 292.234C92.5103 292.234 94.1123 289.948 94.1123 285.358C94.1123 280.786 92.5103 278.554 90.0083 278.554C87.4883 278.554 85.8863 280.768 85.8863 285.358C85.8863 289.948 87.4883 292.234 90.0083 292.234ZM90.0083 290.92C88.4963 290.92 87.4883 289.246 87.4883 285.358C87.4883 281.506 88.4963 279.868 90.0083 279.868C91.5023 279.868 92.5103 281.506 92.5103 285.358C92.5103 289.246 91.5023 290.92 90.0083 290.92Z" fill="#404040"/>
<path d="M282.923 246.182C284.743 246.182 286.213 245.118 286.213 243.34C286.213 241.968 285.247 241.086 284.043 240.792V240.736C285.121 240.344 285.863 239.574 285.863 238.37C285.863 236.746 284.603 235.836 282.881 235.836C281.691 235.836 280.781 236.354 280.011 237.082L280.697 237.88C281.271 237.292 281.999 236.872 282.825 236.872C283.889 236.872 284.561 237.488 284.561 238.454C284.561 239.504 283.833 240.33 281.719 240.33V241.31C284.085 241.31 284.911 242.094 284.911 243.284C284.911 244.404 284.043 245.118 282.825 245.118C281.663 245.118 280.879 244.572 280.277 243.942L279.633 244.782C280.305 245.51 281.313 246.182 282.923 246.182ZM287.609 246H294.063V244.894H291.165C290.633 244.894 290.017 244.95 289.485 244.992C291.851 242.5 293.559 240.638 293.559 238.762C293.559 236.998 292.411 235.836 290.577 235.836C289.275 235.836 288.393 236.438 287.553 237.348L288.295 238.062C288.855 237.404 289.583 236.872 290.423 236.872C291.697 236.872 292.313 237.684 292.313 238.818C292.313 240.456 290.619 242.248 287.609 245.244V246ZM296.102 239.252C297.18 238.622 297.768 237.726 297.768 236.48C297.768 235.584 297.404 235.066 296.774 235.066C296.298 235.066 295.962 235.388 295.962 235.92C295.962 236.438 296.354 236.718 296.774 236.718C296.83 236.718 296.886 236.718 296.928 236.704C296.928 237.586 296.522 238.118 295.738 238.65L296.102 239.252ZM298.86 239.252C299.924 238.622 300.512 237.726 300.512 236.48C300.512 235.584 300.148 235.066 299.532 235.066C299.056 235.066 298.706 235.388 298.706 235.92C298.706 236.438 299.098 236.718 299.532 236.718C299.574 236.718 299.63 236.718 299.672 236.704C299.672 237.586 299.28 238.118 298.482 238.65L298.86 239.252ZM304.744 246H306.088L307.11 244.222C307.376 243.76 307.628 243.298 307.894 242.864H307.964C308.244 243.298 308.524 243.76 308.776 244.222L309.896 246H311.296L308.79 242.164L311.1 238.398H309.77L308.832 240.064C308.608 240.498 308.384 240.918 308.146 241.338H308.09C307.838 240.918 307.572 240.498 307.334 240.064L306.312 238.398H304.94L307.25 242.038L304.744 246ZM318.333 246.182C320.153 246.182 321.623 245.118 321.623 243.34C321.623 241.968 320.657 241.086 319.453 240.792V240.736C320.531 240.344 321.273 239.574 321.273 238.37C321.273 236.746 320.013 235.836 318.291 235.836C317.101 235.836 316.191 236.354 315.421 237.082L316.107 237.88C316.681 237.292 317.409 236.872 318.235 236.872C319.299 236.872 319.971 237.488 319.971 238.454C319.971 239.504 319.243 240.33 317.129 240.33V241.31C319.495 241.31 320.321 242.094 320.321 243.284C320.321 244.404 319.453 245.118 318.235 245.118C317.073 245.118 316.289 244.572 315.687 243.942L315.043 244.782C315.715 245.51 316.723 246.182 318.333 246.182ZM324.223 239.028C324.223 237.712 324.979 236.844 325.959 236.844C327.233 236.844 328.017 237.88 328.185 239.812C327.541 240.764 326.729 241.17 326.085 241.17C324.839 241.17 324.223 240.33 324.223 239.028ZM325.609 246.182C327.597 246.182 329.403 244.642 329.403 240.638C329.403 237.432 327.933 235.836 325.959 235.836C324.363 235.836 323.019 237.124 323.019 239.028C323.019 241.072 324.139 242.122 325.875 242.122C326.687 242.122 327.569 241.632 328.213 240.834C328.157 244.026 326.967 245.118 325.567 245.118C324.937 245.118 324.321 244.824 323.929 244.334L323.215 245.132C323.761 245.734 324.545 246.182 325.609 246.182ZM331.512 239.252C332.59 238.622 333.178 237.726 333.178 236.48C333.178 235.584 332.814 235.066 332.184 235.066C331.708 235.066 331.372 235.388 331.372 235.92C331.372 236.438 331.764 236.718 332.184 236.718C332.24 236.718 332.296 236.718 332.338 236.704C332.338 237.586 331.932 238.118 331.148 238.65L331.512 239.252ZM334.27 239.252C335.334 238.622 335.922 237.726 335.922 236.48C335.922 235.584 335.558 235.066 334.942 235.066C334.466 235.066 334.116 235.388 334.116 235.92C334.116 236.438 334.508 236.718 334.942 236.718C334.984 236.718 335.04 236.718 335.082 236.704C335.082 237.586 334.69 238.118 333.892 238.65L334.27 239.252ZM273.693 268.758L274.491 268.38C273.273 266.392 272.699 264.026 272.699 261.646C272.699 259.266 273.273 256.914 274.491 254.912L273.693 254.548C272.405 256.634 271.635 258.902 271.635 261.646C271.635 264.404 272.405 266.658 273.693 268.758ZM278.984 266.182C280.916 266.182 282.204 265.02 282.204 263.522C282.204 262.192 281.35 261.492 280.468 260.96V260.89C281.07 260.428 281.84 259.532 281.84 258.482C281.84 256.928 280.776 255.836 279.026 255.836C277.43 255.836 276.212 256.858 276.212 258.384C276.212 259.448 276.856 260.19 277.598 260.694V260.75C276.66 261.254 275.708 262.15 275.708 263.452C275.708 265.034 277.094 266.182 278.984 266.182ZM279.684 260.568C278.48 260.092 277.374 259.588 277.374 258.384C277.374 257.418 278.06 256.788 279.012 256.788C280.118 256.788 280.748 257.572 280.748 258.552C280.748 259.294 280.37 259.952 279.684 260.568ZM279.012 265.23C277.78 265.23 276.87 264.432 276.87 263.34C276.87 262.416 277.458 261.674 278.27 261.156C279.726 261.73 280.986 262.192 280.986 263.494C280.986 264.516 280.188 265.23 279.012 265.23ZM286.735 266.182C288.723 266.182 289.927 264.32 289.927 260.974C289.927 257.642 288.723 255.836 286.735 255.836C284.747 255.836 283.529 257.628 283.529 260.974C283.529 264.32 284.747 266.182 286.735 266.182ZM286.735 265.16C285.559 265.16 284.775 263.9 284.775 260.974C284.775 258.048 285.559 256.858 286.735 256.858C287.897 256.858 288.681 258.048 288.681 260.974C288.681 263.9 287.897 265.16 286.735 265.16ZM290.819 266H292.163L293.185 264.222C293.451 263.76 293.703 263.298 293.969 262.864H294.039C294.319 263.298 294.599 263.76 294.851 264.222L295.971 266H297.371L294.865 262.164L297.175 258.398H295.845L294.907 260.064C294.683 260.498 294.459 260.918 294.221 261.338H294.165C293.913 260.918 293.647 260.498 293.409 260.064L292.387 258.398H291.015L293.325 262.038L290.819 266ZM298.813 266H304.441V264.936H302.383V256.018H301.403C300.843 256.354 300.185 256.592 299.275 256.746V257.572H301.095V264.936H298.813V266ZM309.239 266.182C311.227 266.182 312.431 264.32 312.431 260.974C312.431 257.642 311.227 255.836 309.239 255.836C307.251 255.836 306.033 257.628 306.033 260.974C306.033 264.32 307.251 266.182 309.239 266.182ZM309.239 265.16C308.063 265.16 307.279 263.9 307.279 260.974C307.279 258.048 308.063 256.858 309.239 256.858C310.401 256.858 311.185 258.048 311.185 260.974C311.185 263.9 310.401 265.16 309.239 265.16ZM317.005 266.182C318.993 266.182 320.197 264.32 320.197 260.974C320.197 257.642 318.993 255.836 317.005 255.836C315.017 255.836 313.799 257.628 313.799 260.974C313.799 264.32 315.017 266.182 317.005 266.182ZM317.005 265.16C315.829 265.16 315.045 263.9 315.045 260.974C315.045 258.048 315.829 256.858 317.005 256.858C318.167 256.858 318.951 258.048 318.951 260.974C318.951 263.9 318.167 265.16 317.005 265.16ZM325.162 266.182C326.072 266.182 326.94 265.832 327.626 265.216L327.066 264.362C326.59 264.796 325.974 265.118 325.274 265.118C323.874 265.118 322.922 263.956 322.922 262.206C322.922 260.456 323.93 259.266 325.316 259.266C325.918 259.266 326.38 259.546 326.828 259.938L327.486 259.098C326.94 258.622 326.254 258.202 325.26 258.202C323.314 258.202 321.592 259.672 321.592 262.206C321.592 264.726 323.146 266.182 325.162 266.182ZM329.289 266H330.563V260.484C331.263 259.7 331.907 259.322 332.481 259.322C333.447 259.322 333.895 259.924 333.895 261.352V266H335.169V260.484C335.883 259.7 336.499 259.322 337.087 259.322C338.053 259.322 338.501 259.924 338.501 261.352V266H339.775V261.184C339.775 259.238 339.033 258.202 337.465 258.202C336.541 258.202 335.743 258.804 334.959 259.658C334.651 258.762 334.021 258.202 332.859 258.202C331.949 258.202 331.151 258.776 330.493 259.504H330.451L330.339 258.398H329.289V266ZM342.348 268.758C343.65 266.658 344.42 264.404 344.42 261.646C344.42 258.902 343.65 256.634 342.348 254.548L341.564 254.912C342.768 256.914 343.356 259.266 343.356 261.646C343.356 264.026 342.768 266.392 341.564 268.38L342.348 268.758ZM292.533 294.214H293.721V292.18C295.629 291.91 296.835 290.596 296.835 288.688C296.835 284.368 291.201 285.178 291.201 282.244C291.201 281.074 291.993 280.3 293.235 280.3C294.333 280.3 294.945 280.714 295.683 281.434L296.565 280.462C295.845 279.706 295.017 279.094 293.721 278.968V276.952H292.533V278.986C290.787 279.238 289.599 280.516 289.599 282.316C289.599 286.24 295.233 285.52 295.233 288.796C295.233 290.056 294.459 290.866 292.965 290.866C291.741 290.866 290.715 290.272 289.869 289.552L289.095 290.668C289.959 291.46 291.255 292.09 292.533 292.216V294.214ZM303.058 292.234C305.542 292.234 307.198 290.74 307.198 288.814C307.198 287.014 306.118 286.024 304.966 285.358V285.268C305.758 284.656 306.73 283.468 306.73 282.082C306.73 280.048 305.362 278.608 303.112 278.608C301.06 278.608 299.494 279.94 299.494 281.956C299.494 283.342 300.304 284.332 301.276 284.998V285.088C300.07 285.736 298.846 286.96 298.846 288.724C298.846 290.758 300.628 292.234 303.058 292.234ZM303.958 284.836C302.41 284.224 300.988 283.54 300.988 281.956C300.988 280.678 301.87 279.814 303.094 279.814C304.516 279.814 305.326 280.876 305.326 282.172C305.326 283.144 304.858 284.044 303.958 284.836ZM303.094 291.01C301.51 291.01 300.34 289.984 300.34 288.58C300.34 287.32 301.078 286.276 302.14 285.592C304.012 286.348 305.632 287.014 305.632 288.778C305.632 290.092 304.606 291.01 303.094 291.01ZM312.718 292.234C314.95 292.234 317.038 290.596 317.038 287.698C317.038 284.8 315.256 283.504 313.06 283.504C312.268 283.504 311.692 283.702 311.098 284.026L311.422 280.21H316.408V278.788H309.982L309.568 284.98L310.45 285.52C311.206 285.016 311.764 284.746 312.646 284.746C314.302 284.746 315.382 285.862 315.382 287.752C315.382 289.678 314.122 290.866 312.574 290.866C311.044 290.866 310.09 290.164 309.334 289.408L308.524 290.488C309.406 291.37 310.666 292.234 312.718 292.234ZM323.008 292.234C325.51 292.234 327.112 289.948 327.112 285.358C327.112 280.786 325.51 278.554 323.008 278.554C320.488 278.554 318.886 280.768 318.886 285.358C318.886 289.948 320.488 292.234 323.008 292.234ZM323.008 290.92C321.496 290.92 320.488 289.246 320.488 285.358C320.488 281.506 321.496 279.868 323.008 279.868C324.502 279.868 325.51 281.506 325.51 285.358C325.51 289.246 324.502 290.92 323.008 290.92Z" fill="#404040"/>
<path d="M156.343 246H162.797V244.894H159.899C159.367 244.894 158.751 244.95 158.219 244.992C160.585 242.5 162.293 240.638 162.293 238.762C162.293 236.998 161.145 235.836 159.311 235.836C158.009 235.836 157.127 236.438 156.287 237.348L157.029 238.062C157.589 237.404 158.317 236.872 159.157 236.872C160.431 236.872 161.047 237.684 161.047 238.818C161.047 240.456 159.353 242.248 156.343 245.244V246ZM167.385 246.182C169.373 246.182 170.577 244.32 170.577 240.974C170.577 237.642 169.373 235.836 167.385 235.836C165.397 235.836 164.179 237.628 164.179 240.974C164.179 244.32 165.397 246.182 167.385 246.182ZM167.385 245.16C166.209 245.16 165.425 243.9 165.425 240.974C165.425 238.048 166.209 236.858 167.385 236.858C168.547 236.858 169.331 238.048 169.331 240.974C169.331 243.9 168.547 245.16 167.385 245.16ZM172.602 239.252C173.68 238.622 174.268 237.726 174.268 236.48C174.268 235.584 173.904 235.066 173.274 235.066C172.798 235.066 172.462 235.388 172.462 235.92C172.462 236.438 172.854 236.718 173.274 236.718C173.33 236.718 173.386 236.718 173.428 236.704C173.428 237.586 173.022 238.118 172.238 238.65L172.602 239.252ZM175.36 239.252C176.424 238.622 177.012 237.726 177.012 236.48C177.012 235.584 176.648 235.066 176.032 235.066C175.556 235.066 175.206 235.388 175.206 235.92C175.206 236.438 175.598 236.718 176.032 236.718C176.074 236.718 176.13 236.718 176.172 236.704C176.172 237.586 175.78 238.118 174.982 238.65L175.36 239.252ZM181.244 246H182.588L183.61 244.222C183.876 243.76 184.128 243.298 184.394 242.864H184.464C184.744 243.298 185.024 243.76 185.276 244.222L186.396 246H187.796L185.29 242.164L187.6 238.398H186.27L185.332 240.064C185.108 240.498 184.884 240.918 184.646 241.338H184.59C184.338 240.918 184.072 240.498 183.834 240.064L182.812 238.398H181.44L183.75 242.038L181.244 246ZM191.753 246H198.207V244.894H195.309C194.777 244.894 194.161 244.95 193.629 244.992C195.995 242.5 197.703 240.638 197.703 238.762C197.703 236.998 196.555 235.836 194.721 235.836C193.419 235.836 192.537 236.438 191.697 237.348L192.439 238.062C192.999 237.404 193.727 236.872 194.567 236.872C195.841 236.872 196.457 237.684 196.457 238.818C196.457 240.456 194.763 242.248 191.753 245.244V246ZM200.513 242.22L202.851 238.79C203.145 238.3 203.425 237.866 203.677 237.39H203.733C203.705 237.922 203.663 238.776 203.663 239.294V242.22H200.513ZM203.663 246H204.867V243.242H206.225V242.22H204.867V236.018H203.453L199.183 242.402V243.242H203.663V246ZM208.012 239.252C209.09 238.622 209.678 237.726 209.678 236.48C209.678 235.584 209.314 235.066 208.684 235.066C208.208 235.066 207.872 235.388 207.872 235.92C207.872 236.438 208.264 236.718 208.684 236.718C208.74 236.718 208.796 236.718 208.838 236.704C208.838 237.586 208.432 238.118 207.648 238.65L208.012 239.252ZM210.77 239.252C211.834 238.622 212.422 237.726 212.422 236.48C212.422 235.584 212.058 235.066 211.442 235.066C210.966 235.066 210.616 235.388 210.616 235.92C210.616 236.438 211.008 236.718 211.442 236.718C211.484 236.718 211.54 236.718 211.582 236.704C211.582 237.586 211.19 238.118 210.392 238.65L210.77 239.252ZM154.076 268.758L154.874 268.38C153.656 266.392 153.082 264.026 153.082 261.646C153.082 259.266 153.656 256.914 154.874 254.912L154.076 254.548C152.788 256.634 152.018 258.902 152.018 261.646C152.018 264.404 152.788 266.658 154.076 268.758ZM159.114 266.182C160.85 266.182 162.474 264.964 162.474 262.808C162.474 260.652 161.088 259.672 159.38 259.672C158.764 259.672 158.316 259.84 157.854 260.092L158.106 257.11H161.984V256.018H156.986L156.664 260.82L157.35 261.254C157.938 260.862 158.372 260.638 159.058 260.638C160.346 260.638 161.186 261.464 161.186 262.85C161.186 264.236 160.206 265.118 159.002 265.118C157.812 265.118 157.07 264.572 156.482 263.984L155.852 264.824C156.538 265.51 157.518 266.182 159.114 266.182ZM167.118 266.182C169.106 266.182 170.31 264.32 170.31 260.974C170.31 257.642 169.106 255.836 167.118 255.836C165.13 255.836 163.912 257.628 163.912 260.974C163.912 264.32 165.13 266.182 167.118 266.182ZM167.118 265.16C165.942 265.16 165.158 263.9 165.158 260.974C165.158 258.048 165.942 256.858 167.118 256.858C168.28 256.858 169.064 258.048 169.064 260.974C169.064 263.9 168.28 265.16 167.118 265.16ZM171.202 266H172.546L173.568 264.222C173.834 263.76 174.086 263.298 174.352 262.864H174.422C174.702 263.298 174.982 263.76 175.234 264.222L176.354 266H177.754L175.248 262.164L177.558 258.398H176.228L175.29 260.064C175.066 260.498 174.842 260.918 174.604 261.338H174.548C174.296 260.918 174.03 260.498 173.792 260.064L172.77 258.398H171.398L173.708 262.038L171.202 266ZM182.052 260.862C183.284 260.862 183.9 261.688 183.9 262.976C183.9 264.306 183.144 265.188 182.15 265.188C180.89 265.188 180.12 264.138 179.952 262.192C180.624 261.212 181.408 260.862 182.052 260.862ZM182.164 266.182C183.76 266.182 185.104 264.894 185.104 262.976C185.104 260.946 183.984 259.91 182.262 259.91C181.45 259.91 180.568 260.386 179.924 261.156C179.98 257.978 181.156 256.9 182.57 256.9C183.186 256.9 183.802 257.194 184.208 257.684L184.922 256.886C184.362 256.284 183.592 255.836 182.528 255.836C180.526 255.836 178.72 257.376 178.72 261.394C178.72 264.586 180.19 266.182 182.164 266.182ZM189.622 266.182C191.61 266.182 192.814 264.32 192.814 260.974C192.814 257.642 191.61 255.836 189.622 255.836C187.634 255.836 186.416 257.628 186.416 260.974C186.416 264.32 187.634 266.182 189.622 266.182ZM189.622 265.16C188.446 265.16 187.662 263.9 187.662 260.974C187.662 258.048 188.446 256.858 189.622 256.858C190.784 256.858 191.568 258.048 191.568 260.974C191.568 263.9 190.784 265.16 189.622 265.16ZM197.78 266.182C198.69 266.182 199.558 265.832 200.244 265.216L199.684 264.362C199.208 264.796 198.592 265.118 197.892 265.118C196.492 265.118 195.54 263.956 195.54 262.206C195.54 260.456 196.548 259.266 197.934 259.266C198.536 259.266 198.998 259.546 199.446 259.938L200.104 259.098C199.558 258.622 198.872 258.202 197.878 258.202C195.932 258.202 194.21 259.672 194.21 262.206C194.21 264.726 195.764 266.182 197.78 266.182ZM201.907 266H203.181V260.484C203.881 259.7 204.525 259.322 205.099 259.322C206.065 259.322 206.513 259.924 206.513 261.352V266H207.787V260.484C208.501 259.7 209.117 259.322 209.705 259.322C210.671 259.322 211.119 259.924 211.119 261.352V266H212.393V261.184C212.393 259.238 211.651 258.202 210.083 258.202C209.159 258.202 208.361 258.804 207.577 259.658C207.269 258.762 206.639 258.202 205.477 258.202C204.567 258.202 203.769 258.776 203.111 259.504H203.069L202.957 258.398H201.907V266ZM214.966 268.758C216.268 266.658 217.038 264.404 217.038 261.646C217.038 258.902 216.268 256.634 214.966 254.548L214.182 254.912C215.386 256.914 215.974 259.266 215.974 261.646C215.974 264.026 215.386 266.392 214.182 268.38L214.966 268.758ZM169.033 294.214H170.221V292.18C172.129 291.91 173.335 290.596 173.335 288.688C173.335 284.368 167.701 285.178 167.701 282.244C167.701 281.074 168.493 280.3 169.735 280.3C170.833 280.3 171.445 280.714 172.183 281.434L173.065 280.462C172.345 279.706 171.517 279.094 170.221 278.968V276.952H169.033V278.986C167.287 279.238 166.099 280.516 166.099 282.316C166.099 286.24 171.733 285.52 171.733 288.796C171.733 290.056 170.959 290.866 169.465 290.866C168.241 290.866 167.215 290.272 166.369 289.552L165.595 290.668C166.459 291.46 167.755 292.09 169.033 292.216V294.214ZM176.606 287.05L179.612 282.55C179.99 281.902 180.35 281.254 180.674 280.606H180.746C180.71 281.29 180.656 282.352 180.656 283V287.05H176.606ZM180.656 292H182.204V288.364H183.95V287.05H182.204V278.788H180.386L174.896 287.284V288.364H180.656V292ZM186.104 292H193.34V290.632H190.694V278.788H189.434C188.714 279.22 187.868 279.526 186.698 279.742V280.786H189.038V290.632H186.104V292ZM199.508 292.234C202.01 292.234 203.612 289.948 203.612 285.358C203.612 280.786 202.01 278.554 199.508 278.554C196.988 278.554 195.386 280.768 195.386 285.358C195.386 289.948 196.988 292.234 199.508 292.234ZM199.508 290.92C197.996 290.92 196.988 289.246 196.988 285.358C196.988 281.506 197.996 279.868 199.508 279.868C201.002 279.868 202.01 281.506 202.01 285.358C202.01 289.246 201.002 290.92 199.508 290.92Z" fill="#404040"/>
</svg>
