<svg width="83" height="220" viewBox="0 0 83 220" fill="none" xmlns="http://www.w3.org/2000/svg">
<path d="M36.4071 56.2339C39.5959 58.0158 41.0053 60.2924 40.7826 63.1659C40.9164 64.7297 42.1706 65.8603 43.4249 66.9909C44.9001 68.275 45.3983 69.5727 43.9175 70.7938C42.2601 71.2868 40.0833 70.8997 39.0192 72.3238C38.3853 72.4892 37.7495 72.3937 37.1117 72.0373C36.7434 71.7815 36.472 71.42 36.3227 71.0568C36.7567 67.0321 34.6998 63.0946 33.1798 59.0973C32.9084 58.7358 32.8076 58.3197 32.8289 57.9019C33.139 56.9059 33.9162 56.3209 34.9882 55.9406C35.5251 55.8809 35.9651 55.9269 36.4071 56.2339Z" fill="#F8AF5A"/>
<path d="M40.2781 96.477C38.7577 97.5269 40.343 100.756 36.8701 100.52C36.8288 101.846 35.9643 102.679 34.9825 103.514C32.3402 105.554 29.7218 107.696 28.1621 110.581C25.9868 112.103 24.5185 114.375 21.4006 114.896C20.8837 114.703 20.5069 114.354 20.1768 113.953C19.56 112.335 20.8698 111.391 21.6865 110.356C25.5376 105.692 30.4714 101.873 34.6994 97.5582C35.7268 96.4164 36.7781 95.3761 38.6775 95.1848C39.6397 95.2672 40.2043 95.6633 40.2781 96.477Z" fill="#F89C2C"/>
<path d="M33.7132 138.65C34.0466 139.307 34.3102 140.17 33.7929 140.486C30.9466 141.97 29.6392 144.7 27.1707 146.279C25.0077 147.647 23.3645 149.21 21.9824 151.125C20.8058 151.658 20.0855 153.867 18.0218 151.405C20.8711 145.684 24.9755 141.011 31.4934 138.028C32.2947 137.911 33.0503 138.101 33.7132 138.65Z" fill="#FBDBB4"/>
<path d="M40.0634 111.57C38.4183 115.445 35.9603 118.922 33.6215 122.398C33.3299 125.43 29.8068 126.207 28.2226 128.336C27.9385 128.649 27.558 128.809 27.1058 128.919C23.8331 127.743 25.3012 126.128 26.4653 125.493C30.5995 123.27 30.2843 118.453 33.9876 115.929C36.8368 114.086 32.4244 113.647 31.4159 112.433C30.2378 110.76 31.6907 110.581 32.9283 110.253C35.0489 110.115 37.0946 109.414 39.414 110.606C39.7731 110.857 39.9656 111.161 40.0634 111.57Z" fill="#F8AE54"/>
<path d="M36.1505 124.653C37.4989 125.25 37.4937 124.477 37.8009 123.752C38.583 122.246 40.2105 121.5 42.2508 121.469C43.0186 121.405 43.0186 121.405 42.7906 123.211C42.7074 125.118 40.4586 126.285 41.2896 128.487C41.1466 128.643 41.0759 128.85 41.0053 129.057C41.0352 129.932 40.2444 130.151 39.6954 130.623C37.77 129.88 35.9186 129.445 34.3652 130.499C33.7175 130.561 33.0927 130.467 32.6092 129.96C32.5104 129.549 32.5316 129.137 32.6499 128.878C32.5954 127.9 35.1405 127.964 33.6175 126.391C33.8013 125.153 34.6133 124.522 36.1505 124.653Z" fill="#F8A94A"/>
<path d="M7.34189 167.29C5.86371 169.823 4.78909 172.552 1.21907 173.537C-0.506749 174.029 0.120241 176.165 -1.05806 177.209C-2.3844 177.131 -3.07452 176.479 -3.55346 175.465C-2.72377 171.205 1.12327 168.886 4.49545 166.319C5.58368 166.146 6.57912 166.332 7.34189 167.29Z" fill="#FACC96"/>
<path d="M18.5725 151.74C20.0617 152.019 20.883 150.982 22.2529 151.007C19.0107 154.337 16.7879 158.465 12.266 160.899C11.6071 161.371 11.2047 161.174 11.0117 160.361C11.7339 158.406 12.4562 156.452 13.5098 154.644C13.8373 154.025 14.307 153.505 14.8237 152.934C15.7402 152.048 16.6568 151.163 18.5725 151.74Z" fill="#FBD09D"/>
<path d="M39.9161 96.4871C39.5335 96.135 39.0793 95.7329 38.744 95.3287C37.9301 94.4204 37.9485 93.4978 38.2047 92.5711C38.4396 92.0547 38.8177 91.6383 39.1958 91.2219C41.1809 89.0357 41.2088 85.6535 44.6739 84.4155C45.1495 84.4073 45.555 84.6053 45.8187 84.9595C45.4888 89.5767 43.4898 93.4539 39.9161 96.4871Z" fill="#F9BC73"/>
<path d="M-10.0354 39.4432C-8.76507 38.849 -7.94416 37.1609 -5.72649 38.7012C-3.74615 41.2928 -1.87865 38.5945 0.0647238 39.5101C0.434335 39.7668 0.755316 40.0766 0.953739 40.3882C1.3039 41.3262 1.33502 42.2164 1.24359 43.1084C1.05295 43.8445 0.492706 44.324 -0.314601 44.5449C-0.730899 44.6032 -1.17248 44.557 -1.61407 44.5109C-2.25214 44.4151 -2.91549 44.2149 -3.55356 44.1192C-6.16223 42.7415 -9.10939 41.9972 -11.4516 40.1967C-11.2843 39.618 -10.7221 39.4005 -10.0354 39.4432Z" fill="#F9B768"/>
<path d="M14.3648 41.581C18.0023 41.3182 19.7876 43.3437 21.2567 45.847C21.5122 47.1582 20.9773 48.0074 19.8747 48.5492C18.2765 48.5723 17.4278 46.8489 15.7808 46.9252C11.3511 46.4631 13.4415 43.1195 11.6347 41.5152C12.238 39.9286 13.5296 41.6982 14.3648 41.581Z" fill="#F7AB4F"/>
<path d="M45.5506 84.8265C45.3318 84.6745 45.0401 84.4717 44.8213 84.3196C43.2511 84.6012 42.3161 85.7532 40.8188 86.0855C40.1911 86.2498 39.5616 86.1554 38.9301 85.8024C38.5655 85.5489 38.2488 85.243 38.0282 84.8322C37.6579 83.8026 37.9422 82.9705 38.5662 82.2887C38.8061 82.0265 39.0461 81.7642 39.359 81.5527C39.599 81.2905 39.9119 81.0789 40.2249 80.8674C40.9947 80.287 41.7645 79.7066 42.803 79.4845C43.6975 79.4198 44.5938 79.6138 45.108 80.486C46.4494 82.019 47.4281 83.5573 45.5506 84.8265Z" fill="#F7AD53"/>
<path d="M44.8021 80.4523C44.1928 80.2012 43.6567 80.0011 43.0474 79.75C42.6096 79.7043 42.1468 79.555 41.7322 79.3531C41.3659 79.0986 41.0959 78.7389 40.8259 78.3791C40.1125 77.1947 39.9582 76.0542 40.4847 74.9561C41.0362 73.9615 41.9059 73.274 43.167 72.9446C48.3233 73.5987 46.3988 76.2228 46.366 78.3527C46.5203 79.4931 45.7219 79.9719 44.8021 80.4523Z" fill="#FAC687"/>
<path d="M11.341 160.646C11.7245 160.743 12.1556 160.787 12.5392 160.884C12.9965 161.288 13.7915 162.097 13.3375 162.208C10.1118 163.03 9.48423 165.919 7.12406 167.344C6.45203 167.047 5.80458 166.851 5.13255 166.554C4.31606 162.403 8.26126 161.826 11.341 160.646Z" fill="#FBD3A4"/>
<path d="M39.7504 105.531C37.7338 106.438 36.955 108.72 34.138 108.814C34.5345 106.95 36.3049 105.273 33.9056 103.09C34.9838 102.3 35.9894 101.46 37.0676 100.67C38.571 102.143 40.4107 103.509 39.7504 105.531Z" fill="#F9BA6E"/>
<path d="M19.8643 48.6412C20.052 47.6486 20.4351 46.7054 21.3813 46.067C23.6996 46.295 25.0814 48.4639 27.3997 48.6919C27.3281 48.9013 27.1578 48.9558 26.9875 49.0102C26.9237 50.2616 26.1981 51.0533 24.8842 51.4364C23.247 50.9904 21.6331 50.3878 19.9244 50.1513C19.4813 49.5844 19.429 49.1162 19.8643 48.6412Z" fill="#FAC788"/>
<path d="M41.3092 128.592C39.2357 128.005 39.4692 126.97 39.9186 125.829C40.536 124.633 41.7832 124.047 42.8129 123.31C46.1301 126.302 43.418 127.323 41.3092 128.592Z" fill="#FAC381"/>
<path d="M39.2296 111.14C40.9458 109.775 40.0395 106.755 42.8618 105.99C44.6592 109.716 44.2097 110.598 39.7121 111.646C39.6152 111.493 39.3986 111.343 39.2296 111.14Z" fill="#FBD7AB"/>
<path d="M36.5922 133.007C36.9132 134.087 35.7824 134.413 35.3802 135.504C36.706 135.484 37.7302 133.713 39.1166 135.448C36.4419 135.643 35.322 137.518 33.5461 138.68C33.1118 138.635 32.6297 138.642 32.1954 138.597C31.4257 135.408 32.6165 133.325 36.5922 133.007Z" fill="#FBD09E"/>
<path d="M0.0915546 40.2436C0.501263 39.9268 0.837892 39.5592 1.29569 39.1898C1.92275 38.7662 2.59789 38.2901 3.22495 37.8665C4.55974 38.1065 5.34055 38.8209 5.4693 39.8556C5.37502 40.2198 5.20766 40.5331 4.89413 40.745C4.5806 40.9568 4.16899 41.0145 3.75739 41.0722C3.63621 41.0739 3.46695 41.1282 3.22461 41.1317C2.61875 41.1403 2.01289 41.149 1.38204 41.0544C1.18779 41.0054 0.993539 40.9563 0.847374 40.8548C0.555045 40.6516 0.310801 40.396 0.0915546 40.2436Z" fill="#FCE4C6"/>
<path d="M7.97154 38.9853C8.86066 38.4038 9.7304 38.4943 10.6536 39.3076C10.7282 39.6166 10.6821 39.9273 10.4426 40.1893C9.84275 40.7149 9.09738 41.1393 8.32712 41.4607C7.60478 41.7297 6.83269 41.7928 5.98598 41.5468C5.84041 41.4456 5.62206 41.2938 5.47649 41.1926C5.32908 40.833 5.37516 40.5222 5.61471 40.2603C6.06711 39.3751 6.95806 39.0519 7.97154 38.9853Z" fill="#FCE8CE"/>
<path d="M44.0377 119.948C44.2332 119.997 44.3551 119.995 44.477 119.994C44.5022 120.097 44.479 120.254 44.4306 120.307C44.3822 120.36 44.1868 120.31 44.0397 120.208C44.088 120.155 44.0629 120.051 44.0377 119.948Z" fill="#F7A544"/>
<path d="M34.1084 58.8801C34.5156 59.0788 35.0177 59.1733 35.33 59.4762C36.939 60.9388 33.6351 63.406 37.7252 64.4685C37.2604 66.5298 37.6804 68.782 36.761 70.6967C36.7445 71.8778 36.0559 72.5052 34.8162 72.8336C30.9745 73.3072 29.0067 75.5985 27.1109 77.94C23.8411 82.0495 18.9852 84.5422 13.4326 86.3788C11.2384 82.9748 16.2803 83.5083 15.8374 81.4105C15.2421 81.677 15.0342 82.8099 14.1298 83.2868C12.9636 83.922 11.8923 84.453 10.7118 82.778C9.96297 81.4041 9.69168 80.0223 10.0173 78.6307C10.6782 77.3877 10.4773 75.7993 10.9943 74.456C12.388 72.0201 15.2927 70.6376 16.7829 68.3541C17.519 67.6746 18.3515 67.1476 19.3279 66.7208C21.0436 66.128 22.7331 65.1761 25.1027 66.0615C29.0638 65.5859 31.6087 63.9526 31.8251 60.3551C31.9184 59.9942 32.0117 59.6332 32.2488 59.3726C32.7477 58.9537 33.3676 58.7895 34.1084 58.8801Z" fill="#F6941E"/>
<path d="M34.6429 72.8549C35.4388 72.2273 36.2815 71.5478 37.0775 70.9202C37.3135 71.1704 37.5256 71.3191 37.7616 71.5693C38.2586 72.4259 38.2859 73.292 37.9369 74.0636C33.9333 77.1 30.4951 80.5329 26.8449 83.8172C25.7685 84.7562 24.7388 85.6433 24.0157 86.8302C21.7966 89.6781 19.7427 92.7266 17.1701 95.3267C15.8154 97.0869 14.838 99.1964 11.9269 99.6113C9.79013 99.8068 8.81274 101.916 6.25069 101.56C4.27251 100.427 4.94877 99.2916 5.71966 98.3077C6.56124 97.3733 7.82696 96.7364 8.38578 95.6038C8.68913 95.1389 9.06317 94.7237 9.50789 94.358C13.2149 93.3155 10.9918 89.8935 12.0159 87.7321C12.4617 87.6213 12.9315 87.6119 13.472 87.6521C18.3706 85.1586 23.1279 82.5659 26.5638 78.6233C28.7145 76.2355 30.6999 73.6471 34.6429 72.8549Z" fill="#FA9822"/>
<path d="M37.4735 73.5084C37.6367 72.9421 37.7526 72.4278 37.9873 71.9115C38.4155 71.9553 38.9153 72.0491 39.3907 72.0409C40.5334 72.3286 41.0214 70.3735 42.3834 71.5795C43.3158 72.4855 42.1546 73.1203 41.7308 73.8448C41.4489 74.4132 40.8332 74.8337 40.9321 75.4979C41.1514 76.4163 41.4422 77.3846 41.7331 78.3529C41.7102 78.507 41.7346 78.609 41.7833 78.8131C41.6888 78.9172 41.5943 79.0213 41.4998 79.1254C41.0259 79.3897 40.5047 79.7061 40.1267 80.1224C39.9378 80.3306 39.8676 80.5367 39.7503 80.7949C39.5613 81.0031 39.2778 81.3153 39.3036 81.6735C39.3051 81.9296 39.3066 82.1857 39.3081 82.4418C38.8843 83.1663 38.5079 83.8388 38.1314 84.5113C38.11 84.9215 37.8737 85.1817 37.4943 85.3419C34.1192 85.4514 34.0941 89.3452 30.5041 89.3047C26.8721 86.0887 31.3398 85.8067 32.137 83.8975C31.3737 83.4496 29.7142 84.2466 29.396 82.664C30.3291 79.5742 33.0524 77.7342 35.9189 75.9942C36.9612 75.3615 38.1955 75.0328 37.4735 73.5084Z" fill="#F89824"/>
<path d="M40.6525 75.4966C40.0633 74.059 41.2392 73.1634 41.6647 71.9173C40.7724 71.9822 39.9281 71.9947 39.0837 72.0072C39.8444 70.3946 41.3361 69.8043 43.6352 70.8034C43.8056 71.0075 43.9759 71.2116 44.1462 71.4157C43.6425 71.8364 43.3322 72.3059 43.6995 73.0754C42.6194 73.8662 41.6599 74.6552 40.6525 75.4966Z" fill="#F6A33F"/>
<path d="M32.0668 57.5814C33.0656 57.0003 33.3911 55.6091 35.2332 56.2974C34.4256 56.9266 33.618 57.5559 32.8104 58.1851C32.4279 58.0887 32.1403 57.8882 32.0668 57.5814Z" fill="#F39B33"/>
<path d="M32.1209 57.5576C32.4147 57.7616 32.5867 57.9673 32.8804 58.1713C33.1258 58.4281 33.3461 58.5811 33.5915 58.8378C33.1799 59.1558 32.7684 59.4737 32.2833 59.7407C31.8698 59.7986 31.5027 59.5436 31.3055 59.2341C31.0582 58.7173 31.1277 58.248 31.2707 57.8297C31.4388 57.5152 31.7055 57.3553 32.0707 57.3502L32.1209 57.5576Z" fill="#F89F36"/>
<path d="M39.8004 91.8803C39.4728 92.2437 39.0746 92.5575 38.7002 92.9728C36.9485 95.557 33.7337 96.9462 31.7685 99.1267C32.7774 98.6478 32.7214 96.6602 35.102 97.9901C32.7443 101.759 28.4761 104.189 25.5524 107.561C23.7276 109.586 21.6905 111.462 20.4786 113.831C17.7316 114.701 17.7236 112.917 17.3174 111.446C17.5935 110.115 18.4346 108.925 18.0751 107.403C18.0888 105.21 19.2106 103.709 21.1792 102.293C25.3515 99.4572 29.712 96.6686 32.8218 92.8338C34.2723 91.2244 35.7467 89.7166 38.1182 89.0069C41.0819 89.3054 39.6075 90.8133 39.8004 91.8803Z" fill="#FC9A24"/>
<path d="M31.78 112.151C33.4293 112.79 36.0965 112.182 36.5614 114.124C36.9056 115.811 35.5316 117.322 33.6761 118.071C33.0097 118.287 31.8633 117.998 31.9398 118.818C32.5365 122.81 29.1602 124.457 26.6216 126.602C25.9339 127.229 26.177 127.995 26.6586 128.757C27.3714 132.234 22.9143 132.616 21.9761 135.196C21.076 136.186 20.584 137.631 18.4348 137.154C16.2732 134.624 17.2389 132.659 18.9934 130.988C20.4866 129.475 22.5316 128.517 23.4745 126.706C24.0794 124.233 27.7478 123.557 27.515 120.585C25.8334 118.56 24.9405 116.831 28.8764 117.022C30.0932 117.104 30.6846 116.325 31.0865 115.754C28.4209 116.619 25.1774 116.57 22.2962 117.285C20.8119 116.335 21.356 115.608 22.0911 114.929C23.8685 113.103 26.0052 111.529 28.31 110.156C29.2867 109.986 30.0983 110.127 30.2957 111.201C30.6351 112.119 31.0188 112.471 31.78 112.151Z" fill="#F59726"/>
<path d="M31.198 112.062C30.4149 112.536 30.0149 113.364 28.8959 113.434C27.1037 112.438 30.882 110.99 27.8044 110.119C28.2364 106.677 31.514 105.134 34.0023 103.041C38.7531 104.91 38.7531 104.91 34.2741 108.677C33.9443 109.298 33.5673 109.971 33.2375 110.592C32.3827 111.016 30.6408 110.482 31.198 112.062Z" fill="#F59E36"/>
<path d="M21.7404 114.584C21.7945 115.311 21.8003 116.092 21.8544 116.819C21.895 119.003 21.0297 120.472 17.9352 120.047C14.151 118.54 14.7672 116.295 15.2616 114.051C15.6672 112.953 15.926 111.753 17.4327 111.42C17.6761 111.416 17.9195 111.413 18.1629 111.409C18.8042 112.545 18.8641 114.052 20.9812 113.97C21.2748 114.174 21.5202 114.431 21.7404 114.584Z" fill="#FCA132"/>
<path d="M35.1334 98.1444C33.4502 97.5616 33.0563 99.1536 30.9269 99.1925C33.992 97.0917 34.4464 93.5048 38.7268 93.0177C39.2041 93.7759 39.3264 94.5405 38.833 95.2141C37.6554 96.258 36.3352 97.2023 35.1334 98.1444Z" fill="#F89927"/>
<path d="M36.4579 132.887C34.0594 134.159 32.9466 136.167 32.2548 138.47C27.1026 139.497 25.8583 143.949 22.4146 146.515C20.623 147.876 19.5803 149.933 18.2799 151.639C17.2784 152.119 16.0427 152.349 15.5797 153.376C12.3998 151.309 14.5659 150.296 15.7506 148.846C21.092 141.865 28.7258 136.665 34.3478 129.881C36.0263 129.54 36.4876 128.004 38.0021 127.463C39.2184 128.403 38.2196 129.645 39.272 130.385C38.3652 131.269 37.4348 132.052 36.4579 132.887Z" fill="#F89A29"/>
<path d="M21.6576 134.392C23.2069 132.422 25.8943 131.248 27.0168 128.979C27.394 128.819 27.6061 128.713 27.8651 128.555C29.1873 128.377 29.5058 125.97 31.7363 127.87C31.3427 129.461 29.6688 130.156 28.8485 131.449C26.5625 132.564 25.8947 135.999 21.6576 134.392Z" fill="#F5A543"/>
<path d="M19.5598 66.8764C18.7539 67.5052 17.9007 68.1862 17.023 68.765C16.6658 68.771 16.4506 68.6209 16.2354 68.4707C16.0675 68.2684 15.9713 68.1162 15.9713 68.1162C15.3577 65.0504 18.7142 64.8398 20.0864 63.3298C18.873 63.5041 18.2655 65.4627 16.1377 64.063C15.6768 62.6353 16.6964 61.9002 17.5725 61.0651C18.3784 60.4362 19.3279 59.9075 20.3734 59.5309C22.3241 59.1903 23.3163 57.8405 24.7633 56.8931C26.1156 56.0499 27.468 55.2068 29.5912 55.8374C29.8781 56.0376 30.046 56.2399 30.2857 56.4922C30.4063 56.7465 30.5024 56.8987 30.623 57.153C30.6734 57.6136 30.5803 57.974 30.4398 58.3866C30.2277 58.7491 30.0155 59.1115 29.7316 59.424C26.485 62.0937 24.2199 65.6184 19.5598 66.8764Z" fill="#F69622"/>
<path d="M29.3596 55.7838C26.9455 56.7478 24.4346 57.559 23.1548 59.7397C22.6806 60.5188 21.7204 60.2767 20.7832 59.8799C20.8062 59.7253 20.7569 59.5203 20.7799 59.3656C22.4191 57.1792 23.5298 54.7955 23.247 51.8678C23.4127 51.5566 23.7951 51.3962 24.2267 51.4409C25.2524 50.7045 26.2058 49.9179 27.1838 49.2338C28.5874 51.3207 30.1831 53.456 29.3596 55.7838Z" fill="#F69F36"/>
<path d="M31.999 57.3006C31.8056 57.5115 31.6123 57.7225 31.3706 57.9862C31.1754 57.9368 31.0052 57.9913 30.81 57.942C30.2957 57.5848 30.025 57.2242 29.7775 56.7071L30.1912 56.6492C31.2294 55.3853 31.5794 56.5777 31.999 57.3006Z" fill="#FBD5A9"/>
<path d="M34.1919 129.585C34.8124 131.714 33.456 133.22 31.9797 134.217C25.0892 138.535 21.3586 145.237 15.1753 150.05C14.0744 150.888 14.2204 152.006 15.2596 153.158C14.6744 153.68 14.0891 154.201 13.5506 154.671C6.86079 161.839 -0.631026 168.361 -6.61362 176.025C-6.56571 176.228 -6.70604 176.384 -6.98781 176.441C-7.22055 176.955 -7.33579 177.467 -7.70998 177.883C-8.50741 178.255 -9.44403 179.039 -10.2961 177.679C-11.0536 176.47 -11.9057 175.11 -10.6645 174.117C-9.25899 173.07 -8.60754 171.578 -7.88537 170.136C-6.36463 168.577 -5.12681 166.819 -3.65285 165.311C1.96459 160.101 6.73331 154.296 13.1961 148.917C11.9058 149.452 11.6731 149.966 11.2282 150.332C10.1957 150.709 9.11541 150.884 7.98378 150.091C7.434 148.011 10.0635 147.398 10.2199 145.56C8.74481 146.812 7.90627 148.512 5.53342 148.711C4.80446 148.624 4.23864 148.227 3.88388 147.724C3.33862 146.665 3.00442 145.499 2.74094 144.382C2.6406 142.956 3.64908 142.478 5.05909 142.45C9.47058 140.884 14.311 140.635 19.2209 140.181C21.2413 139.988 22.1277 138.492 23.321 137.295C26.1058 134.589 28.2769 131.283 32.1465 129.422C32.4043 129.264 32.6393 129.259 32.8275 129.306C33.3215 129.398 33.7447 129.441 34.1919 129.585Z" fill="#F2921F"/>
<path d="M32.6243 128.461C33.1717 127.99 33.7913 127.569 34.3387 127.097C35.7616 128.771 33.293 128.245 33.0587 129.02C32.7472 128.973 32.603 128.873 32.5784 128.771C32.5538 128.668 32.5767 128.514 32.6243 128.461Z" fill="#FDEDDA"/>
<path d="M32.6476 128.435C32.6977 128.642 32.8692 128.847 33.0888 128.999C33.0175 129.208 32.8249 129.418 32.6071 129.525L32.6322 129.629C31.8518 129.173 31.6302 128.761 32.5513 128.54L32.6476 128.435Z" fill="#FDEDDA"/>
<path d="M-5.79948 176.234C-2.87714 172.459 -2.17224 167.208 3.29407 165.054C4.10836 164.782 4.61807 163.958 5.08136 163.185C7.18941 159.682 10.3015 156.97 14.2076 154.902C13.4456 156.901 13.4766 159.289 11.2447 160.507C9.52825 162.68 5.89731 163.421 5.13854 166.437C2.26013 169.397 -1.17854 171.964 -3.28658 175.467C-4.10087 175.739 -4.98519 175.962 -5.79948 176.234Z" fill="#F89A29"/>
<path d="M39.558 91.9888C38.3899 91.0879 39.2392 90.1515 38.8545 89.288C38.2511 87.5068 40.0512 86.8097 40.5902 85.5716C41.6525 84.5291 43.1695 84.1441 44.8796 84.3188C42.5662 86.6119 42.0144 89.7956 39.558 91.9888Z" fill="#F89C2C"/>
<path d="M-1.28174 43.7802C-0.999997 43.978 -0.764879 44.2277 -0.553572 44.376C-0.0615288 44.4677 0.337275 44.663 0.642832 44.9622C0.901767 45.3132 0.997021 45.7186 0.904784 46.0769C0.137036 47.3148 -1.17038 48.2584 -2.12562 49.4493C-5.20668 51.8554 -8.10024 54.3085 -10.594 57.2116C-14.9348 60.7639 -18.5009 64.8603 -22.5362 68.7118C-23.2831 69.2874 -24.1243 69.7122 -25.1779 69.734C-25.7165 69.6943 -26.1391 69.3976 -26.4219 68.9452C-25.3399 64.2894 -21.2073 61.3524 -18.6471 57.4805C-16.8755 55.509 -14.9392 53.7376 -13.238 51.7166C-11.3017 49.9453 -9.15409 48.3223 -7.00647 46.6994C-5.51358 45.2936 -3.31532 44.637 -1.28174 43.7802Z" fill="#FDAD4C"/>
<path d="M-0.02515 45.1703C-0.196521 44.9653 -0.489212 44.7619 -0.733754 44.506C-0.105969 44.0821 0.49679 43.5547 1.17272 43.0782C1.36721 43.1273 1.5617 43.1764 1.75618 43.2255C1.90253 43.3272 2.00072 43.4814 2.14706 43.5831C2.24526 43.7373 2.27029 43.8407 2.32035 44.0475C2.39543 44.3577 2.34919 44.6696 2.30296 44.9816C2.18356 45.2426 1.91781 45.4021 1.65206 45.5615C1.04549 45.5701 0.533284 45.2143 -0.02515 45.1703Z" fill="#F7AF57"/>
<path d="M1.06239 43.0566C0.0576321 42.1862 0.125235 41.4569 0.948311 40.821C2.83027 41.7831 3.00612 42.509 1.06239 43.0566Z" fill="#F8A84A"/>
<path d="M11.9736 41.4327C13.1806 42.7 15.6798 43.5869 14.3026 45.6152C14.0893 45.9787 15.5505 45.8014 16.2484 46.2021C18.2978 47.9707 17.0814 48.916 15.8173 49.9134C11.4353 50.7025 9.05677 53.5698 5.97868 55.7791C4.6373 55.9545 3.45999 55.5614 2.49435 54.5475C1.84068 53.5801 2.0277 52.8569 2.71881 52.2286C5.58353 50.3828 7.79797 48.0841 9.40973 45.2804C9.40634 44.7659 9.45055 44.1992 9.56702 43.6829C9.73109 43.1143 9.91812 42.3911 10.3219 41.8188C10.7027 41.4012 11.2527 41.1867 11.852 41.1773L11.9736 41.4327Z" fill="#F4931F"/>
<path d="M15.1714 49.5744C16.3287 48.8325 17.1457 47.9401 16.2867 46.3983C18.7492 45.2751 18.3586 48.1817 19.8867 48.4705C19.9135 48.8328 19.8193 49.1968 19.8462 49.559C19.2963 50.5512 18.5754 51.3386 17.3432 51.7707C15.6709 51.6394 14.7945 51.0303 15.1714 49.5744Z" fill="#F7A138"/>
<path d="M40.5767 85.3979C41.8361 87.4667 39.1735 87.7217 38.826 89.0044C36.9705 90.4181 35.0681 91.8836 33.2125 93.2973C31.2921 95.9372 28.0464 97.4795 25.5583 99.7219C23.1098 100.381 23.5738 98.841 23.7818 97.9692C24.431 95.7109 26.2384 94.094 28.1878 92.5765C28.6352 92.4658 29.0585 92.2536 29.4349 92.0933C33.0799 90.2371 35.4693 87.0778 39.2093 85.373C39.6808 85.364 40.1053 85.4069 40.5767 85.3979Z" fill="#F18F19"/>
<path d="M39.0967 85.3537C36.7831 88.8165 33.6892 91.4783 29.1308 92.9445C30.974 89.491 33.5733 86.7368 37.7547 85.1759L38.1532 84.8621L38.4582 84.6521C38.6946 84.9025 38.8603 85.1033 39.0967 85.3537Z" fill="#F79622"/>
<path d="M42.501 79.0487C42.7438 79.3031 42.9617 79.4547 43.2045 79.7092C42.3896 80.3407 41.4542 80.974 40.6393 81.6056C39.819 81.463 39.3583 81.057 39.3051 80.3352C39.7107 79.7614 40.4548 79.3373 41.1262 78.8628L41.1988 78.9133C41.5602 78.9079 42.0191 79.0559 42.501 79.0487Z" fill="#F8AC52"/>
<path d="M39.3109 80.3523C39.7762 80.7616 40.2415 81.171 40.6585 81.633C40.4403 81.7401 40.2473 81.9508 40.0291 82.0578C39.5426 82.0647 39.1044 82.0189 38.6661 81.973C38.4171 81.1967 38.8032 80.7753 39.3109 80.3523Z" fill="#F7A33E"/>
<path d="M38.7362 81.9223C39.1755 81.9682 39.6148 82.0142 40.1025 82.0073C39.8354 82.1674 39.6419 82.3785 39.3749 82.5386C39.1543 82.3853 38.982 82.1793 38.7362 81.9223Z" fill="#F8AD55"/>
<path d="M42.4559 79.052C42.0159 79.006 41.5758 78.96 41.1357 78.9139C41.3296 78.7025 41.5486 78.595 41.8161 78.4347C41.9887 78.641 42.1612 78.8474 42.4559 79.052Z" fill="#FAC280"/>
<path d="M32.6335 128.219C32.2293 128.533 32.2555 128.893 32.712 129.296C29.8626 132.167 27.1098 135.191 23.9724 137.861C22.2376 139.379 21.3962 142.371 17.1333 140.848C15.96 140.457 15.775 141.435 15.1563 141.856C14.3479 142.486 13.397 143.272 12.1271 142.727C10.9047 142.131 12.4513 141.079 11.3942 140.171C9.70847 141.894 8.36144 144.278 4.43237 142.647C4.56184 140.437 3.30036 137.427 7.93975 138.019C11.5941 137.754 13.4435 135.464 15.3665 133.481C17.4794 131.29 20.1208 129.552 22.0177 127.21C22.6102 126.43 23.6315 125.438 25.2891 126.849C24.8716 128.859 23.0141 129.865 21.3481 130.919C18.8965 132.448 18.1681 134.412 19.3085 137.167C23.5291 135.763 25.899 132.642 28.75 130.028C28.8352 128.383 30.6272 128.354 31.7941 127.719C32.1295 127.867 32.3455 128.018 32.6335 128.219Z" fill="#F69520"/>
<path d="M17.3813 51.6489C18.2437 50.9652 18.4278 49.724 19.9933 49.7006C20.6698 50 21.1745 49.8377 21.6066 49.6248C23.8149 48.5081 23.8734 50.0036 24.0506 51.2393C23.8594 51.4486 23.5956 51.6073 23.4521 51.7643C23.2911 52.8503 22.8396 53.7343 22.0746 54.5714C21.1644 55.3074 20.0098 55.5311 18.5629 55.2948C17.6703 55.1018 16.9212 54.7518 16.2181 54.0916C16.0232 53.7849 15.924 53.3736 15.97 53.0633C16.2303 52.3886 16.5154 51.8167 17.3813 51.6489Z" fill="#F6A33F"/>
<path d="M1.05814 43.0842C1.92862 42.3962 1.87457 41.6693 0.870891 40.7998C1.37851 40.3768 1.98457 40.1083 2.81453 40.5125C3.52483 41.1782 4.11353 41.8456 3.90123 42.7323C3.46889 43.4661 2.83967 43.8908 1.76844 43.7499C1.52331 43.4935 1.30327 43.3407 1.05814 43.0842Z" fill="#F9BC71"/>
<path d="M3.67732 42.3148C3.06628 41.8043 2.57668 41.292 2.83885 40.6133L2.88704 40.5607C3.32461 40.6064 3.76218 40.6521 4.15155 40.7505C4.34432 40.5401 4.61033 40.3805 4.87635 40.221C5.0479 40.4262 5.34089 40.6298 5.65701 40.6772L5.5375 40.9385C5.47194 41.9259 4.84352 42.3502 3.67732 42.3148Z" fill="#FCDBB5"/>
<path d="M4.13824 40.7266C3.74431 40.6271 3.30161 40.5809 2.85892 40.5347C3.30161 40.5809 3.74431 40.6271 4.13824 40.7266Z" fill="#FCE9D2"/>
<path d="M6.36972 41.3993C6.89683 41.082 7.52122 40.9178 8.26944 41.2674C8.29598 41.6279 8.32252 41.9885 8.46933 42.3472L8.42157 42.3994C8.44988 43.0177 8.26062 43.4847 7.80604 43.8525C7.13566 44.3267 6.34322 44.545 5.32968 44.0963C4.45587 42.9752 5.48709 42.4955 5.98766 41.8176C6.13094 41.6608 6.22645 41.5562 6.36972 41.3993Z" fill="#F8B35F"/>
<path d="M3.76424 42.3379C4.38014 41.9174 4.99605 41.4969 5.58758 40.9744C5.8025 41.1244 6.06468 41.2224 6.32686 41.3204L6.30546 41.7306C5.3602 42.7716 4.75026 44.2168 2.9926 44.6056C2.39809 44.6158 2.0399 44.3658 1.84638 43.8055C2.43791 43.2829 3.10107 42.8104 3.76424 42.3379Z" fill="#F8B35F"/>
<path d="M11.387 78.5699C10.6798 79.6067 11.8757 80.8667 11.6439 81.8953C11.6712 82.5096 11.2689 82.8239 10.6761 83.0902C9.08386 83.1689 7.37421 83.5058 7.83559 85.1884C9.0263 89.6759 5.42246 91.3261 3.07871 93.0059C4.23988 92.3711 4.78688 92.4129 6.5268 93.2025C5.89565 95.0576 4.26204 96.2128 3.20126 97.768C1.11809 99.2895 -0.154545 101.207 -0.782739 103.574C-1.01896 103.834 -1.32678 104.045 -1.73057 104.103C-4.03889 103.682 -3.88019 102.347 -3.95918 101.016C-3.96213 100.504 -4.10682 100.148 -3.98502 100.658C-4.22271 100.662 -4.50765 100.719 -4.76823 100.877C-5.10042 100.985 -5.45696 100.991 -5.88511 100.947C-6.24314 100.697 -6.55392 100.395 -6.6986 100.039C-7.65014 95.8036 -4.35856 93.5953 -1.99635 90.9931C-0.4373 89.2757 1.57574 87.9602 1.56097 85.3991C2.38109 83.3358 2.65274 80.9747 4.68867 79.5051C6.13478 78.8142 7.22139 77.6172 8.83507 77.1283C10.2111 76.6435 11.5656 76.5689 11.387 78.5699Z" fill="#FDAA48"/>
<path d="M34.4822 72.7803C27.9304 77.3461 23.1528 83.4089 16.4593 87.8754C15.0265 88.8215 13.8535 89.8647 12.006 87.8079C12.0012 86.7873 12.6117 86.3673 13.7897 86.3447C15.5505 85.035 17.2644 83.7772 19.5457 82.9169C22.5794 81.7358 24.9496 79.751 26.5398 77.2198C27.8955 74.9483 30.5049 73.7243 32.5698 71.9495C33.6023 71.0621 33.9605 72.0759 34.4822 72.7803Z" fill="#F08E18"/>
<path d="M19.7365 67.0449C23.7787 64.7727 25.7244 60.6958 29.6709 58.2718C30.0979 58.3154 30.3822 58.2592 30.6664 58.203C30.8563 58.2508 31.0463 58.2985 31.1648 58.2964C31.4505 58.496 31.689 58.7476 31.6432 59.0555C31.8817 59.3071 32.0959 59.4567 32.3344 59.7083C32.1459 59.9164 31.9331 60.0225 31.6731 60.1806C30.9801 63.5189 27.7864 64.8549 24.974 66.5423C22.8588 65.6589 21.5875 67.3189 19.7365 67.0449Z" fill="#ED9020"/>
<path d="M25.0631 66.6471C25.9711 63.4568 29.7413 62.5204 31.8894 60.2812C32.606 61.0367 33.8933 61.9358 32.9951 62.6683C30.8684 64.4976 28.5987 66.2269 26.2331 67.8043C25.8541 67.9645 25.3506 67.1029 25.0631 66.6471Z" fill="#EE8D18"/>
<path d="M13.6801 86.1143C13.0855 86.6377 12.4663 87.0588 11.8716 87.5822C8.51513 86.3515 7.66822 84.8235 10.168 82.9848C10.5726 82.67 11.0493 82.4054 11.5014 82.0384C11.9601 82.699 12.2533 83.6707 13.4442 82.8807C14.6351 82.0908 15.3689 80.8971 16.9694 80.563C17.297 83.1784 13.7128 83.75 13.6801 86.1143Z" fill="#FC9A25"/>
<path d="M10.9151 78.4388C10.4539 77.776 10.2313 76.8519 8.96252 77.5927C7.55055 78.4903 6.88954 80.2525 4.4598 79.9289C4.21072 78.6445 4.80453 77.6048 5.20573 76.5165C5.4443 76.2552 5.68288 75.9939 5.9939 75.7831C7.23974 75.1972 8.24351 74.3573 9.58653 73.9245C10.2828 73.8108 10.9083 73.9043 11.3695 74.5671C11.9084 76.0533 12.1822 77.4404 10.9151 78.4388Z" fill="#F69F39"/>
<path d="M11.0838 74.6326C10.6559 74.5888 10.228 74.545 9.72849 74.4513C8.02365 71.3055 11.9664 71.0834 12.8592 69.3266C13.0237 69.0165 13.3071 68.7043 13.6147 68.494C14.3946 67.7635 15.3434 67.4909 16.6301 68.1344C16.8691 68.3863 17.0838 68.5362 17.3228 68.7881C15.7918 71.1194 13.3304 72.801 11.0838 74.6326Z" fill="#F7951F"/>
<path d="M-1.48684 104.328C-1.29833 104.12 -1.08556 104.014 -0.825666 103.856C0.0627581 101.589 1.4509 99.6714 2.69626 97.6539C3.6346 95.8464 5.11979 94.3362 6.98618 93.1773C7.1019 92.6636 7.24188 92.2518 7.61889 91.8358C8.53856 90.9496 9.74657 90.7746 11.1972 91.6185C13.6944 93.1088 10.6629 93.6233 10.9769 94.6921C10.5756 95.0063 10.1744 95.3204 9.7731 95.6345C7.98508 98.1223 4.36524 99.4148 4.45478 102.79C5.09448 102.727 5.15609 100.987 6.84095 101.315C8.5431 100.466 9.19589 98.4588 11.8517 98.616C12.8339 100.492 11.5115 101.436 10.3791 102.428C9.67082 102.953 8.89113 103.427 8.0158 103.75C4.58726 105.346 1.89825 107.798 -1.05345 109.897C-2.2344 110.686 -3.15267 111.828 -5.02604 111.708C-7.45044 110.523 -6.79486 109.028 -5.94798 107.836C-4.88972 106.282 -3.6887 104.828 -1.48684 104.328Z" fill="#FEB152"/>
<path d="M29.7561 82.9189C31.9401 83.596 33.2351 82.0381 35.4149 81.9479C35.2375 84.202 32.9178 84.7039 31.7399 86.0039C30.9389 86.8879 29.2116 87.3793 30.8087 89.09C30.7013 91.1382 28.4529 91.69 27.0609 92.8403C26.6826 93.0006 26.2801 93.059 25.7348 93.0176C24.4987 92.3235 25.301 91.6953 25.6537 91.1774C25.0169 91.7515 24.737 92.575 23.7434 92.8997C20.7557 92.5951 20.1585 96.0845 16.7412 95.2248C18.9057 92.3213 21.1416 89.4677 23.3775 86.6141C25.6945 85.6006 26.5571 82.9762 29.7561 82.9189Z" fill="#F6951F"/>
<path d="M10.5189 94.5533C9.69359 93.637 12.0257 93.0344 10.2601 91.9773C7.98623 90.5667 8.00417 93.1463 6.46177 93.0147C4.19507 92.6359 3.12567 94.7159 0.327705 94.1387C1.81333 93.0328 3.6142 92.2318 4.27992 90.9835C5.13508 89.2679 9.29826 88.741 6.14232 85.1765C5.24442 84.2096 7.40116 82.6293 8.86557 81.9365C9.82532 81.4061 10.0255 82.4867 10.4382 82.9449C9.38998 84.6118 10.1232 86.1487 12.0837 87.5125C11.9898 87.8751 11.7048 88.4469 11.9226 88.5984C15.9445 91.9952 12.4596 93.0795 10.5189 94.5533Z" fill="#FDAE4E"/>
<path d="M29.4637 82.8414C27.3172 83.9554 26.3214 86.4701 23.2826 86.5343C26.6568 82.3919 30.2647 78.2445 35.2096 75.2901C36.1427 74.7615 37.0292 74.2847 37.2829 73.3634C39.3668 74.2353 38.3168 74.7664 37.4777 75.4457C34.5407 77.696 31.4629 79.8476 29.4637 82.8414Z" fill="#F08F19"/>
<path d="M16.9283 95.1157C18.8622 94.773 19.918 93.4763 21.0689 92.3312C21.8201 91.4999 22.4356 91.8458 23.2883 92.4427C21.8912 96.2992 17.8178 98.3676 15.639 101.677C14.464 102.721 12.9565 103.362 11.0442 103.296C10.2168 103.056 9.60136 102.71 9.47954 101.946C10.6559 101.158 11.6901 100.27 11.8956 98.8874C15.0591 98.9812 14.8079 95.9216 16.9283 95.1157Z" fill="#F4911B"/>
<path d="M6.75973 101.318C5.70644 102.104 4.72382 102.939 3.45965 103.831C4.91926 99.2652 4.91925 99.2652 9.67046 95.6532C9.88905 97.3308 8.19982 97.6704 7.24112 98.6071C6.42263 99.388 5.39216 100.02 6.75973 101.318Z" fill="#FDAE4E"/>
<path d="M25.9206 93.0349C27.5617 91.7276 29.2267 90.5219 30.8678 89.2147C31.9458 88.2755 33.1895 87.5371 33.7718 86.2505C34.4478 84.8601 35.7154 84.2233 37.7427 85.0508C34.1522 87.1102 32.4269 90.5614 29.1196 92.8193C27.8941 92.3842 27.5049 94.7381 25.9206 93.0349Z" fill="#F18F19"/>
<path d="M41.0839 78.8177C40.9461 79.747 40.3491 80.2713 39.2683 80.288C38.8993 79.0059 39.521 78.5842 41.0839 78.8177Z" fill="#F7A33E"/>
<path d="M31.5166 59.1021C31.2964 58.9492 31.1244 58.7435 30.8307 58.5395C30.7302 58.1247 30.9234 57.9139 31.4586 57.8543L31.4838 57.958C31.4625 58.3745 31.4896 58.7383 31.5166 59.1021Z" fill="#F39B33"/>
<path d="M19.0304 108.011C20.7272 109.876 18.6872 110.321 17.8848 111.205L17.8132 111.155C15.0336 110.999 13.9036 112.76 12.3673 114.067C8.72821 117.305 6.18788 121.651 0.0179348 122.526C-1.98786 120.615 -0.570279 119.311 0.157765 117.864C1.47804 116.151 3.37057 114.838 5.43049 113.727C8.58337 112.699 10.3042 110.416 12.9563 109.038C14.9247 108.543 16.1477 106.422 19.0304 108.011Z" fill="#F7A74C"/>
<path d="M18.6401 108.088C16.3695 107.772 15.671 109.829 13.5669 109.715C12.7626 109.576 12.1691 109.076 11.8349 108.418C11.4901 105.716 13.6347 104.501 15.4947 103.087C18.9913 102.818 21.0099 100.073 24.673 100.005C27.6396 97.7529 30.4879 95.503 33.4074 93.3029C33.7228 94.8811 32.2363 95.3684 31.2237 96.1025C27.5495 98.6232 24.7534 101.843 20.4145 103.814C18.693 104.561 19.5789 106.793 18.6401 108.088Z" fill="#F7951F"/>
<path d="M18.4384 119.949C20.8158 120.004 20.7116 117.813 22.1909 117.07C23.2693 116.131 24.4905 115.546 26.3024 115.459C28.1851 115.423 30.398 115.533 31.45 113.982C31.8715 113.515 32.4599 113.503 32.9797 113.952C33.2631 114.151 33.3363 114.71 33.2906 115.017C32.8738 116.505 28.8801 118.113 26.8773 117.642C26.8352 118.714 27.4043 119.621 28.2555 120.472C27.7076 124.155 23.4522 125.156 21.1333 127.599C17.5728 131.29 14.5802 135.634 8.86941 137.479C6.79227 136.193 6.57858 135.789 8.52628 134.527C11.389 132.635 13.5433 130.247 15.6976 127.858C16.4001 127.079 17.2443 126.4 15.8035 125.305C14.615 122.778 17.2471 121.91 17.9689 120.213C18.1334 120.159 18.2979 120.104 18.4384 119.949Z" fill="#F59420"/>
<path d="M8.03935 137.498C14.0737 134.624 17.8976 129.86 22.2388 125.543C24.0595 123.774 26.6319 122.448 28.4287 120.578C29.366 120.559 31.0291 120.372 29.8627 121.669C28.2058 123.384 26.0315 124.651 24.9387 126.761C21.1709 128.01 19.2144 130.953 17.0453 133.494C14.6429 136.293 10.4282 137.144 9.13009 140.634C7.53234 139.597 8.02069 138.67 7.45562 138.02C7.43073 137.664 7.61736 137.456 8.03935 137.498Z" fill="#F08F1A"/>
<path d="M28.7087 130.204C26.1643 133.415 24.0436 136.923 19.4264 138.341C19.3796 138.393 19.1211 138.296 19.0972 138.195C18.8136 137.742 19.1884 137.582 19.422 137.322C20.8039 136.683 20.8213 135.255 21.7796 134.319C25.1583 134.149 26.3675 131.526 28.7087 130.204Z" fill="#EF9222"/>
<path d="M1.11795 118.528C1.50497 119.903 -0.506441 120.706 0.711963 122.322C1.35758 123.283 1.12467 124.054 0.88895 124.314C4.33476 121.285 8.82481 118.391 12.7192 114.996C13.7107 114.159 14.7735 113.373 16.5535 113.597C16.659 115.54 15.1761 117.562 18.1973 119.248C18.2243 119.862 17.7515 120.126 17.1601 120.392C13.3589 119.18 11.7345 121.359 9.87014 123.029C7.32149 125.326 5.15423 127.974 1.22288 128.965C-2.6842 130.058 -4.85005 132.962 -7.68439 135.059C-9.99168 138.119 -12.4418 141.08 -15.2962 143.843C-15.6505 144.105 -16.0291 144.265 -16.479 144.375C-19.6775 144.944 -20.7777 147.573 -23.1891 148.946C-24.8677 149.897 -25.8535 151.757 -28.5591 151.396C-29.729 149.984 -28.6661 149.197 -27.9118 148.365C-24.5402 144.774 -21.6214 140.782 -17.9642 137.391C-15.177 135.346 -12.9855 132.799 -10.6982 130.405C-10.2739 129.937 -9.28105 129.356 -10.9681 128.772C-13.9066 129.182 -14.8896 131.554 -17.0653 132.667C-18.3896 133.356 -19.2825 134.856 -21.5181 133.718C-21.9322 131.73 -20.2293 130.881 -18.9307 129.835C-14.7749 126.537 -10.3091 123.541 -6.53473 119.892C-3.80768 119.843 -2.06614 117.407 1.11795 118.528Z" fill="#FDAA46"/>
<path d="M16.1734 113.752C10.182 118.357 4.19057 122.963 -2.03456 127.828C-2.20972 125.334 0.157773 124.369 0.525072 122.425C5.25565 119.476 9.53834 116.128 12.8546 111.933C13.6959 110.999 15.1654 108.727 17.9941 111.218C16.9636 111.851 16.4745 112.778 16.1734 113.752Z" fill="#FEB459"/>
<path d="M18.634 61.6739C17.9282 62.4536 16.3916 62.7372 16.8016 64.2123C16.8366 66.3588 14.5929 67.1665 13.7971 68.817C12.5777 70.9352 10.0746 71.9011 8.33237 73.5688C5.70423 73.2589 6.68963 71.6561 6.35221 70.4864C7.56212 66.5791 11.2657 64.4155 14.6131 62.0028C15.8647 61.5199 16.7331 60.1749 18.634 61.6739Z" fill="#F7951F"/>
<path d="M18.3593 61.6454C16.5537 61.1579 16.1295 62.401 15.0517 62.9327C13.322 63.0108 12.6683 62.2994 13.1402 61.0041C13.4936 59.9682 14.5697 59.1788 14.0556 57.7955C13.7572 56.3059 13.8915 54.8611 16.1548 55.4962C17.8403 55.9857 17.4694 54.4456 18.5754 54.5317C19.8033 54.8735 20.7857 54.4463 21.8422 54.327C24.07 56.8176 21.3861 57.9408 20.8453 59.7009C20.0326 60.3317 19.1721 61.0147 18.3593 61.6454Z" fill="#F3921E"/>
<path d="M13.8606 68.9497C13.9689 66.9074 15.2329 65.5056 16.8509 64.3518C18.9189 63.8523 19.7569 61.8977 22.5317 61.6394C20.9447 64.4247 17.1604 65.1618 16.4447 68.1341C15.6225 68.4052 14.7295 68.6267 13.8606 68.9497Z" fill="#F2901B"/>
<path d="M31.4407 57.8181C31.2454 58.0314 31.0502 58.2446 30.8804 58.5627L30.7067 58.3548C30.3378 58.3601 30.1894 58.257 30.0899 58.1007C29.9904 57.9443 29.965 57.8394 30.0138 57.7861C29.9866 57.4182 29.9593 57.0503 29.8091 56.6842C30.4024 57.0965 30.9215 57.4573 31.4407 57.8181Z" fill="#F9BB71"/>
<path d="M30.0457 57.7842C30.2668 57.9377 30.513 58.1953 30.7341 58.3488C30.4432 58.6661 30.0031 58.62 29.4873 58.2618C29.7549 58.1015 29.9003 57.9428 30.0457 57.7842Z" fill="#FAC585"/>
<path d="M20.786 59.7984C21.1329 57.9962 21.4798 56.194 21.7792 54.4439C21.3643 52.9622 22.8421 52.6299 23.6252 51.8984C25.4618 55.5638 23.5668 57.9048 20.786 59.7984Z" fill="#F69622"/>
<path d="M5.5552 148.227C7.03789 147.076 8.59038 145.974 9.42143 144.28C9.69844 143.715 10.5338 143.543 11.3243 143.931C12.3007 144.366 11.9774 144.983 11.8863 145.594C11.5203 147.532 9.64232 148.489 8.22942 149.689C7.8001 153.863 4.16099 156.028 1.499 158.882C-2.80734 163.196 -6.32244 168.151 -11.0475 172.169C-14.1297 174.22 -15.8623 177.307 -17.9674 180.046C-20.2342 183.094 -23.1298 185.446 -26.2112 187.751C-27.3486 187.878 -28.2779 187.646 -29.0236 186.698C-29.4666 186.048 -29.5613 185.39 -29.4937 184.678C-27.3466 180.363 -22.6635 177.92 -19.6554 174.296C-14.5401 168.695 -9.1456 163.29 -4.8678 157.099C-4.84574 156.692 -4.6378 156.332 -4.54594 155.974C-0.581371 153.954 0.845686 149.554 5.5552 148.227Z" fill="#FA9924"/>
<path d="M8.09191 137.287C7.90614 137.495 7.69672 137.601 7.44085 137.759C4.97252 138.474 6.26382 141.242 4.47276 142.349C3.37749 142.424 2.79652 142.945 2.63611 143.762C0.994637 147.763 -2.8197 150.236 -5.37237 153.597C-6.23114 154.683 -7.44038 155.523 -7.17853 157.144C-7.268 158.265 -7.5441 159.339 -9.08186 159.525C-11.6001 159.275 -13.8134 159.578 -14.9255 161.585C-15.4372 161.901 -15.9726 162.116 -16.7191 161.929C-17.3964 161.537 -17.8642 161.039 -17.9597 160.38C-17.9708 157.076 -14.1977 156.18 -12.8543 153.659C-11.9491 152.521 -10.7635 151.58 -10.1851 150.296C-6.44684 145.994 -2.28803 141.989 1.54398 137.838C5.37683 133.941 9.44361 130.293 12.9961 126.199C13.8794 125.467 14.8564 124.887 16.3722 125.108C19.4266 125.397 19.3135 126.416 17.7564 127.772C14.7122 130.533 12.673 134.086 8.4136 135.908C7.94831 136.172 8.02011 136.73 8.09191 137.287Z" fill="#FB9923"/>
<path d="M-7.19513 157.541C-9.00795 156.863 -9.43575 155.8 -8.17049 154.909C-3.78945 151.712 -1.76654 146.777 3.03889 143.877C4.07705 144.775 5.11522 145.672 3.82715 146.717C1.91155 149.355 0.632535 152.44 -2.86314 153.886C-3.98919 154.367 -4.47978 155.039 -4.07481 156.255C-4.33265 156.413 -4.47298 156.569 -4.73082 156.727C-4.88944 158.056 -5.82952 158.074 -7.19513 157.541Z" fill="#F69520"/>
<path d="M10.8816 149.995C12.0636 149.054 13.2455 148.113 14.4972 147.221C10.0812 154.33 3.57033 159.964 -2.31208 166.04C-3.91884 164.655 -2.66709 163.763 -2.20549 162.736C-0.654591 160.873 0.826487 158.96 2.51705 157.195C5.71661 155.141 6.58762 151.109 10.8816 149.995Z" fill="#F99925"/>
<path d="M-3.97879 156.347C-4.61738 155.645 -4.99785 154.785 -4.22346 154.311C-0.985453 152.259 0.504772 148.812 3.88443 146.859C4.33338 147.258 4.78233 147.657 5.3021 148.106C4.31758 148.941 3.23825 149.626 2.4902 150.711C1.27508 152.572 0.627719 155.084 -3.02061 154.9C-3.39756 154.805 -3.62818 155.83 -3.97879 156.347Z" fill="#F08E18"/>
<path d="M10.8132 149.93C7.52382 152.188 5.82991 155.735 2.23534 157.694C1.98157 158.616 1.53954 159.236 0.318684 158.04C3.58426 155.681 5.51302 152.383 8.21573 149.628C9.08187 149.814 9.92423 149.898 10.8132 149.93Z" fill="#E88712"/>
<path d="M-1.60667 163.349C-0.987928 164.461 -2.70751 164.953 -2.08877 166.064C-3.85029 167.629 -4.68868 169.841 -7.01827 171.008C-7.44308 170.965 -7.86789 170.922 -8.36371 170.829C-7.53155 167.342 -5.35022 164.799 -1.60667 163.349Z" fill="#F69520"/>
<path d="M-11.3131 56.5337C-8.8905 53.2165 -5.30206 50.7991 -1.97479 48.2841C-0.597623 48.8221 -0.165364 49.8885 0.432462 50.9008C0.983181 51.9651 1.55815 53.1313 0.780189 53.8614C-2.91979 57.5596 -4.69189 62.8601 -10.9148 64.4551C-12.8829 64.1836 -14.3162 66.4088 -16.6251 64.4553C-16.9216 62.21 -14.6508 61.5042 -13.6158 60.1045C-12.745 59.0147 -11.399 58.1721 -11.3131 56.5337Z" fill="#FAA644"/>
<path d="M-0.918785 50.6907C-1.40229 49.9275 -1.83827 49.1121 -2.32178 48.3488C-1.70725 47.1568 -0.563354 46.4189 0.796888 45.8317C0.770649 45.4723 0.913226 45.3159 1.29673 45.4125C1.60647 45.202 1.86868 45.0436 2.05878 44.8349C2.05713 44.578 2.1997 44.4215 2.55861 44.4157C3.84509 43.5214 5.13157 42.627 6.49016 41.7828C6.92779 42.8552 5.8527 43.1294 5.37745 43.651C5.26937 45.4517 4.34676 47.1113 5.12532 49.1034C4.74842 50.0346 3.98637 50.6122 2.98339 50.9367C1.71655 51.1626 0.526778 52.2096 -0.918785 50.6907Z" fill="#F49828"/>
<path d="M1.21124 45.3032C1.06553 45.4622 0.919818 45.6212 0.626439 45.6777C0.404943 45.5238 0.183445 45.37 0.0105196 45.1632C0.451563 45.2093 0.892603 45.2554 1.21124 45.3032Z" fill="#F9BE78"/>
<path d="M2.43728 44.3273C2.29276 44.4851 2.14825 44.6429 1.93051 44.7498C1.90354 44.3868 1.90163 44.1273 1.87466 43.7644C2.09432 43.917 2.2658 44.1222 2.43728 44.3273Z" fill="#FAC280"/>
<path d="M-0.456706 50.7733C0.864855 51.36 1.54129 49.9693 2.86285 50.556C3.97176 50.9938 4.79834 51.4881 3.62452 52.2761C3.13193 52.6939 2.71021 53.1612 3.06702 53.9197C1.38735 57.3198 -1.33155 60.0766 -3.48338 63.2307C-3.76452 63.5423 -4.04566 63.8539 -4.39769 64.1158C-6.96035 65.0327 -8.3865 67.2544 -11.2099 67.8192C-12.1758 67.7358 -12.7429 67.3386 -13.1934 66.684C-13.6463 65.5191 -13.1321 64.6928 -11.9331 64.2614C-6.0304 62.4635 -4.38312 57.1762 -0.158824 54.0331C1.13153 52.9876 -0.805142 51.8005 -0.456706 50.7733Z" fill="#F09C3B"/>
<path d="M-4.1715 63.1793C-2.48862 59.649 -0.588341 56.27 3.21909 54.0473C4.018 54.8597 5.02904 55.0504 6.0171 55.3961C7.68211 56.2984 7.35329 57.4372 7.38506 58.5706C7.29136 58.9328 7.1252 59.2446 7.0315 59.6068C6.29437 60.8034 5.60497 61.9478 4.86785 63.1444C3.72768 65.1718 2.32956 64.6262 0.802456 62.7942C-1.47055 60.8704 -2.17065 63.9734 -4.1715 63.1793Z" fill="#FEAC4A"/>
<path d="M6.63706 58.426C6.41577 57.5044 6.12237 56.5325 5.82898 55.5606C7.84299 52.4444 10.5306 49.8828 15.3619 49.497C15.7028 50.4168 16.3289 51.0235 17.4319 51.3657C17.268 51.9337 17.0796 52.3993 16.9157 52.9673C14.6885 52.6946 13.6905 53.7899 12.6449 54.9375C11.1242 56.6066 9.79678 58.581 6.63706 58.426Z" fill="#F69724"/>
<path d="M3.38178 52.3361C3.63862 51.6667 3.16252 51.164 2.61514 50.6115C3.41665 49.9834 4.26523 49.3033 5.06674 48.6752C5.43245 46.2142 7.08254 44.906 10.1125 44.9021C10.2793 45.1036 10.6128 45.5066 10.5657 45.5586C8.63865 48.2013 7.30602 51.3445 3.38178 52.3361Z" fill="#ED8D1A"/>
<path d="M10.0223 44.8311C8.27964 46.0936 6.65688 47.3541 4.9142 48.6166C3.95141 48.1169 2.17552 47.9902 3.14933 46.5339C3.81441 45.5456 4.07039 44.3579 5.36146 43.7201C6.22729 44.0668 6.75291 43.7498 7.32615 43.3806C8.21494 43.5726 9.17261 43.3003 10.1354 43.8C10.0419 44.1617 10.0682 44.5216 10.0223 44.8311Z" fill="#F69F37"/>
<path d="M10.0488 43.8396C9.11018 44.2151 8.12178 44.3847 7.22185 43.4162C7.62993 43.1002 8.03801 42.7841 8.44609 42.4681C9.39026 42.8675 9.96691 42.4973 10.6163 42.1777C10.9838 42.9474 10.4072 43.3176 10.0488 43.8396Z" fill="#FBD3A4"/>
<path d="M24.5543 99.9471C22.8139 101.87 19.9312 102.485 17.7621 103.854C17.1493 104.274 16.39 103.828 15.6777 103.33C15.581 102.923 15.6495 102.461 15.8606 102.1C18.9893 98.7711 20.5981 94.2946 26.1028 92.967C27.3835 93.6081 28.0622 92.2155 29.39 92.8046C27.5568 95.0873 24.3946 96.5253 24.5543 99.9471Z" fill="#ED8A14"/>
<path d="M6.90747 58.5087C8.76808 56.8388 11.3412 55.6672 12.5121 53.3453C13.4035 51.8465 14.9871 51.5109 17.0776 53.0576C16.8894 53.2655 16.677 53.3716 16.4888 53.5795C16.5439 55.0611 14.4359 54.6905 13.8968 55.6717C13.3806 56.4991 12.6036 57.229 14.1469 58.2233C11.606 61.0303 11.0131 65.2843 6.0726 66.2435C5.50528 66.3561 4.96215 66.5705 4.37063 66.5813C2.16453 65.5479 4.03051 64.9004 4.14478 64.1315C4.60859 62.3337 6.18688 60.9757 6.31864 59.0306C6.50685 58.8227 6.71926 58.7166 6.90747 58.5087Z" fill="#F59522"/>
<path d="M14.0075 57.7535C13.7385 57.1387 11.6297 58.4083 12.3621 56.4376C13.0237 54.6743 14.8743 54.3369 16.3852 53.5921C17.061 53.8912 17.7846 54.1381 18.4605 54.4373C18.2818 56.4512 18.2801 56.1934 15.5112 55.9774C13.85 55.8479 14.6284 57.0737 15.3804 57.939C14.9522 58.6674 14.4692 58.4169 14.0075 57.7535Z" fill="#F69724"/>
<path d="M8.43583 42.3764C8.04377 42.0179 8.01672 41.6542 8.23302 41.2871C8.33345 41.7018 8.40878 42.0128 8.43583 42.3764Z" fill="#FCE8CE"/>
<path d="M5.662 76.495C6.50659 78.0207 5.70071 78.9065 4.55984 79.6439C3.18669 81.4115 3.63229 84.0217 1.63656 85.4403C1.9518 86.2563 1.83724 87.028 1.172 87.5009C-2.15263 90.122 -4.37432 93.5973 -7.33948 96.4691C-10.6357 95.9589 -11.7663 94.4892 -10.8032 92.0098C-10.7328 91.8034 -10.687 91.4947 -10.4729 91.3885C-9.38102 90.4466 -9.2712 88.9051 -8.27254 88.3241C-9.48373 89.2679 -9.85349 91.2243 -11.6612 92.1779C-17.36 92.8879 -13.5368 89.8481 -14.2605 88.5769C-14.097 88.0097 -13.8615 87.4926 -13.5542 87.0256C-9.92538 83.4243 -5.4583 80.3225 -4.03379 75.2693C-2.73096 73.7081 -0.511637 73.7228 1.49199 73.5871C3.40397 74.0687 4.62779 75.1776 5.662 76.495Z" fill="#FDAB4A"/>
<path d="M-12.0266 91.7088C-9.38593 89.714 -8.25946 86.4081 -3.62977 85.203C-4.8299 88.2019 -7.88308 89.2273 -8.75249 91.6044C-9.43523 93.2593 -11.0265 94.8775 -7.74104 96.5708C-6.85053 97.5324 -6.91606 98.5095 -7.17313 99.4383C-7.5006 100.574 -6.45447 99.6835 -6.18929 100.039C-5.94865 100.292 -5.73257 100.442 -5.49193 100.695C-5.31865 105.418 -10.5081 105.04 -13.7021 106.479C-16.4343 105.342 -14.6482 104.285 -14.2962 103.252C-13.8689 102.783 -13.3941 102.262 -12.8211 102.15C-10.6962 101.756 -12.1368 100.752 -12.5722 99.9367C-12.5623 97.7277 -11.6438 95.5553 -12.3754 93.2555C-12.3312 92.6898 -12.0234 92.2224 -12.0266 91.7088Z" fill="#FDA740"/>
<path d="M-7.83022 107.809C-5.99552 105.67 -4.64278 103.28 -4.30166 100.442C-3.82662 99.6617 -4.02945 98.0683 -2.39284 98.6095C-0.948669 99.1023 -1.94989 100.199 -2.20951 100.873C-2.53806 102.011 -2.65119 103.043 -1.49135 104.106C-1.74578 105.552 -2.86879 106.394 -3.9918 107.235C-5.30552 108.286 -6.59453 109.439 -4.97223 111.422C-4.56091 111.879 -3.88824 111.92 -3.47692 112.378C-3.33043 112.736 -3.25631 113.044 -3.34993 113.406C-3.68194 114.029 -4.11103 114.499 -4.80495 114.87C-6.67302 115.62 -7.5416 115.015 -7.67379 113.215C-7.79731 112.702 -7.80077 112.187 -7.9243 111.674C-8.4379 110.291 -7.82156 109.097 -7.83022 107.809Z" fill="#FEAD4D"/>
<path d="M-6.18453 100.102C-6.58094 100.416 -6.93077 100.678 -8.02685 101.515C-7.91769 99.4773 -7.78281 98.0493 -7.6945 96.6732C-4.43393 93.0419 -1.24371 89.3611 2.01687 85.7297C3.6132 87.274 2.09597 88.0693 1.44482 89.0501C0.189115 90.9597 -2.02779 92.2787 -3.51737 94.1932C-4.84343 96.0534 -5.6314 97.9532 -6.18453 100.102Z" fill="#F5A13E"/>
<path d="M2.51801 97.4929C2.22361 100 0.983277 102.015 -1.06098 103.636C-1.45257 100.734 0.260732 98.9653 2.51801 97.4929Z" fill="#FEAD4D"/>
<path d="M5.27528 76.5673C3.18845 76.4934 2.47243 74.792 1.03442 73.8789C1.35609 71.4366 3.14268 70.2701 6.12661 70.2794C6.46735 70.4302 6.6868 70.5826 6.88123 70.6317C8.19795 71.5466 7.3566 72.5959 7.70306 73.5245C7.83388 74.8193 7.03876 75.5568 5.95103 76.0909C5.68535 76.2503 5.49282 76.4605 5.27528 76.5673Z" fill="#FEB04C"/>
<path d="M6.04727 76.1946C6.34806 75.2205 6.76608 74.2441 7.74848 73.6637C9.85229 72.0926 11.8855 70.4719 13.9893 68.9008C14.3007 70.4736 12.7311 70.8113 11.8669 71.644C11.0734 72.5262 9.43321 72.8143 9.74455 74.3872C8.55155 75.0737 8.08897 76.6114 6.04727 76.1946Z" fill="#F4911B"/>
<path d="M-3.35996 112.978C-3.5978 112.727 -3.81145 112.577 -3.97806 112.376C-0.685652 108.738 3.39148 105.903 7.8005 103.215C8.46031 102.743 9.12012 102.271 9.77994 101.799C10.1602 102.15 10.5646 102.602 11.0161 103.003C11.0645 103.206 11.0658 103.462 11.043 103.616C10.7634 104.439 10.1278 105.013 9.32555 105.385C6.56805 107.276 3.73934 109.117 1.00602 111.109C-0.195355 112.051 -1.27715 113.247 -3.35996 112.978Z" fill="#FEA738"/>
<path d="M7.6911 103.13C3.80346 106.164 -0.0841881 109.198 -4.0186 112.284C-4.6996 112.4 -4.98249 112.201 -4.74976 111.687C-1.70513 109.332 1.38628 106.926 4.50163 104.621C5.32069 103.84 5.95042 102.757 7.6911 103.13Z" fill="#FEB85B"/>
<path d="M25.9191 92.8653C21.6981 95.3973 19.7039 99.6631 16.1393 102.741C15.3441 102.605 14.8986 102.207 14.8026 101.548C16.8462 97.9935 19.8037 95.0812 23.3236 92.5641C24.3725 91.7786 25.4213 90.9931 26.6098 90.052C27.1057 91.4154 25.237 91.7094 25.9191 92.8653Z" fill="#FC9923"/>
<path d="M15.0361 101.44C15.4849 101.839 15.9338 102.239 16.3826 102.638C16.2422 102.794 15.9841 102.952 15.8436 103.108C15.4773 105.308 12.492 105.927 12.1965 108.178C10.985 110.803 8.47497 112.433 6.01174 114.011C4.15949 115.425 2.26042 116.89 0.40817 118.303C-1.09702 118.435 -2.24699 119.069 -3.23135 119.905C-4.00444 120.634 -4.94548 120.652 -5.98481 119.754C-6.15392 118.789 -5.66291 118.116 -5.03027 117.542C-2.87429 115.664 -0.340257 114.135 1.6033 112.108C1.9082 111.898 2.1423 111.638 2.42321 111.327C4.48439 109.297 6.75801 107.417 9.24406 105.685C10.2764 105.053 11.3327 104.522 11.2561 103.197L11.1853 103.148C12.1217 102.109 13.9101 102.176 15.0361 101.44Z" fill="#FDB358"/>
<path d="M6.2315 114.237C7.89794 112.009 9.89597 109.928 12.4403 108.399C12.8913 108.799 13.3424 109.2 13.7934 109.6C11.1068 111.03 9.89265 113.913 6.2315 114.237Z" fill="#F69C30"/>
<path d="M15.957 124.989C15.1567 125.617 14.3095 126.297 13.4381 126.875C11.2162 126.763 11.3729 129.672 8.8181 129.158C7.86774 128.153 8.36056 127.48 8.82922 126.705C11.869 125.014 12.8429 121.368 16.9511 120.679C17.4224 120.414 17.8695 120.048 18.3408 119.784C19.1567 122.222 15.8754 122.896 15.957 124.989Z" fill="#F29320"/>
<path d="M16.9536 120.558C14.6 122.901 12.6268 125.596 9.56095 127.441C8.32576 126.492 9.03142 125.712 9.66719 125.138C11.3635 123.778 12.8702 122.371 14.3528 120.861C12.5422 122.99 9.92393 124.469 8.28005 126.8C6.21412 129.853 3.38745 132.205 -0.62736 133.557C-2.90153 132.985 -2.05608 131.794 -1.87191 130.819C-1.00226 129.73 -0.03718 128.792 1.7612 128.861C5.38896 125.881 8.85139 122.955 12.5033 120.077C13.752 119.083 15.3072 117.879 16.9536 120.558Z" fill="#FEB85E"/>
<path d="M-6.84541 136.394C-7.42213 135.226 -5.761 134.941 -5.83836 133.867C-7.07459 133.684 -7.51801 135.075 -8.89879 134.535C-6.48663 132.65 -4.07448 130.764 -1.54357 128.877C-0.645096 128.144 0.300588 127.359 1.89891 128.561C0.834467 129.347 -0.158431 130.184 -1.22287 130.971C-2.39734 133.295 -2.54585 136.422 -6.84541 136.394Z" fill="#F7A23E"/>
<path d="M14.2991 57.7834C14.7258 57.8269 15.1524 57.8704 15.5791 57.9139C16.084 59.2858 15.045 59.9183 14.2914 60.7502C13.4664 61.5322 13.7317 62.397 15.2029 62.8309C11.6364 64.8387 9.0458 67.6984 6.52656 70.608L6.47946 70.66C5.48344 70.4734 4.65159 69.9768 4.10234 69.1683C3.6944 68.2038 3.09667 67.1916 4.32544 66.6069C5.55283 65.7664 6.44776 64.7785 8.08033 64.3911C9.50027 64.1098 11.0359 63.315 10.7208 61.9908C10.2561 59.2883 12.6464 58.8361 14.2991 57.7834Z" fill="#F2901B"/>
<path d="M-10.8697 172.648C-11.1016 172.4 -11.3102 172.253 -11.5422 172.005C-7.50381 167.343 -3.51155 162.733 0.457331 158.022C1.29115 158.357 1.79947 158.04 2.35395 157.672C1.73473 160.02 -0.52995 161.292 -1.77498 163.199C-4.54679 165.294 -7.04045 167.585 -8.42155 170.662C-9.18344 171.39 -10.0844 172.021 -10.8697 172.648Z" fill="#EB8A15"/>
<path d="M2.2094 138.134C1.86929 140.941 -1.35809 141.721 -2.80113 143.838C-4.56947 146.573 -7.51117 148.569 -9.88949 150.961C-10.5173 152.043 -10.9804 153.325 -13.0673 152.452C-13.469 151.493 -13.3321 150.574 -12.7728 149.951C-9.06844 145.445 -5.08242 141.136 0.0541422 137.72C0.732549 137.604 1.45857 137.691 2.2094 138.134Z" fill="#E6830D"/>
<path d="M1.98377 138.183C1.56104 138.14 1.1383 138.098 0.715567 138.056C0.127647 137.813 -0.202728 137.411 -0.087549 136.9C2.50528 133.892 4.34392 130.185 9.22216 129.119C10.7685 128.425 11.3238 126.528 13.6961 126.838C10.122 130.935 6.38272 134.833 1.98377 138.183Z" fill="#ED8C18"/>
<path d="M-11.4043 67.6933C-9.04914 66.2685 -7.63092 63.9349 -4.38624 63.471C-1.33025 67.2202 -4.94961 68.8711 -6.36783 71.2047C-8.22414 72.2106 -5.51297 74.2711 -6.93759 75.578C-8.17246 76.6764 -8.90369 78.126 -11.0755 78.3156C-11.7641 78.943 -11.7113 75.913 -12.6781 77.8798C-13.1264 78.7599 -14.1502 79.2388 -15.586 78.7489C-16.7729 76.0472 -14.8723 74.4758 -13.6897 72.6595C-12.1766 70.2217 -9.48778 68.6887 -7.82759 66.8646C-9.6887 67.1004 -9.64501 70.2829 -12.8486 69.6679C-13.6694 68.2438 -12.8124 67.819 -11.4043 67.6933Z" fill="#FDAD4B"/>
<path d="M-8.03189 70.8982C-5.61788 69.0123 -3.79964 66.8806 -4.532 63.5633C-4.34301 63.3551 -4.12966 63.249 -3.86906 63.0908C-3.01715 62.4101 -2.02202 61.8295 -1.24171 61.0988C0.389034 59.4313 1.06528 61.2639 1.92607 62.12C1.67582 64.071 0.686601 65.6762 -0.493083 67.2334C-1.4609 68.4283 -2.38146 69.5713 -3.49249 70.6662C-4.8944 70.7929 -5.61415 73.7766 -8.03189 70.8982Z" fill="#FEB352"/>
<path d="M-0.992904 66.8642C-0.598853 65.0108 0.680024 63.6044 1.98336 62.3002C2.41587 62.8573 2.34871 63.5766 3.49638 64.1217C4.46349 62.4127 4.99964 60.4031 6.44507 58.9426C7.22626 61.9562 4.23289 63.699 4.22554 66.418C4.27757 67.1353 4.32961 67.8527 4.38164 68.57C3.21885 69.4615 2.25019 70.914 0.0282317 70.1303C-2.31292 69.3486 0.515454 67.9163 -0.992904 66.8642Z" fill="#FCA843"/>
<path d="M-4.20602 75.3395C-4.42441 75.1876 -4.66769 74.9328 -4.95887 74.7303C-7.0755 72.4873 -3.40796 72.1233 -3.87882 70.4247C-3.55259 68.766 -2.06161 67.9171 -0.741096 66.864C-0.139359 66.5967 0.144474 65.7656 1.0162 66.1146C1.69441 66.4147 1.48154 67.0381 1.2917 67.506C0.958115 68.1311 0.067029 68.4543 0.219979 69.5891C2.05742 69.9239 2.66933 67.6925 4.70396 68.5929C5.40889 69.2544 6.11382 69.916 6.86667 70.5251C4.1879 70.7196 2.8729 72.5478 1.04649 73.7634C-0.0289083 75.3298 -2.76479 74.2846 -4.20602 75.3395Z" fill="#F5A13E"/>
<path d="M2.58074 77.6314C1.76538 79.9459 -0.900092 80.966 -1.85777 83.1809C-2.20833 83.9539 -3.45848 84.4369 -4.503 83.5365C-5.23874 82.9369 -4.74717 82.0081 -4.01666 81.5858C-1.99162 80.1176 -0.370665 78.197 2.58074 77.6314Z" fill="#E69231"/>
<path d="M-4.28657 116.068C-6.51124 117.387 -7.41756 119.546 -8.88905 121.308C-10.2203 122.915 -11.2691 124.719 -14.1328 124.828C-13.8406 121.815 -9.99546 120.617 -9.89124 117.557C-9.47833 115.306 -5.67008 116.453 -5.04524 114.351C-4.3899 113.879 -3.80521 113.357 -3.19661 112.937C-0.110154 110.021 3.99034 108.155 6.88877 105.192C7.35609 104.673 8.41248 104.652 9.23301 104.38C10.7416 105.777 9.05266 106.117 8.46798 106.638C6.52698 108.41 4.06756 109.734 2.55044 111.803C0.468162 113.475 -1.07178 115.698 -4.28657 116.068Z" fill="#F9A23B"/>
<path d="M2.57018 112.058C2.39775 110.075 4.60057 109.673 5.62771 108.532C6.84159 107.182 9.27891 106.776 9.29324 104.585C9.94793 104.113 10.5321 103.592 11.1401 103.172C11.7762 103.872 12.0139 104.632 11.3364 105.257C8.39078 107.507 5.51576 109.807 2.57018 112.058Z" fill="#F9AA4F"/>
<path d="M-4.23562 116.133C-2.18898 114.511 -0.0953732 112.838 2.66361 111.969C1.68742 115.103 -1.99208 116.091 -4.13009 118.328C-4.18093 117.613 -4.18479 116.847 -4.23562 116.133Z" fill="#F9AA4F"/>
<path d="M9.01661 129.021C5.6603 131.484 3.57029 135.09 -0.0909532 137.254C-2.90863 140.011 -5.49166 143.017 -9.76373 144.329C-10.5351 144.294 -11.4233 144.262 -11.4271 143.245C-8.63698 139.369 -5.89339 135.545 -1.01712 133.305C4.92885 129.617 8.67089 124.042 14.6862 120.149C14.3717 123.565 10.3552 124.464 9.68827 127.379C9.19903 127.796 8.78008 128.263 9.01661 129.021Z" fill="#FEBC5F"/>
<path d="M-1.05199 133.168C-5.63575 135.762 -7.47838 140.373 -11.2956 143.507C-11.7754 146.209 -13.6951 147.979 -15.8003 149.703C-16.6104 150.23 -17.444 150.655 -18.6038 150.428C-18.2627 147.883 -15.0418 147.198 -14.422 144.849C-11.3217 142.391 -10.1029 138.607 -6.58453 136.444C-4.2233 135.069 -2.8611 132.905 -1.08079 131.037C-1.14847 131.749 -1.10023 132.458 -1.05199 133.168Z" fill="#FEAC47"/>
<path d="M-16.8589 152.835C-16.9815 150.047 -12.6058 150.096 -12.6126 147.306C-12.7794 145.331 -10.4417 145.123 -9.63454 143.836C-6.35233 141.678 -2.69886 139.866 0.188688 137.261C0.420802 137.509 0.629522 137.656 0.861637 137.904C-4.15125 142.386 -9.37285 146.721 -12.9943 152.185C-14.821 153.091 -15.0014 155.074 -16.6194 156.127C-19.2305 158.168 -22.5835 159.769 -22.0183 163.713C-22.8039 164.341 -23.6357 165.02 -24.4909 165.598C-27.2836 169.114 -29.9606 172.628 -34.1916 174.961C-37.3667 173.565 -35.7265 172.105 -34.7568 171.017C-29.1923 164.898 -24.3931 158.239 -17.112 153.5C-16.9039 153.394 -16.8583 153.089 -16.8589 152.835Z" fill="#FD9F29"/>
</svg>
