<svg width="96" height="191" viewBox="0 0 96 191" fill="none" xmlns="http://www.w3.org/2000/svg">
<g opacity="0.6">
<path d="M45.0344 150.276C36.9303 143.073 36.2046 132.62 36.2046 132.62C35.6583 130.174 38.3071 128.601 40.1016 130.7C40.1016 130.7 40.16 131.359 40.3657 132.514L40.3791 132.541C40.9763 135.867 42.9345 142.998 48.9381 148.37C49.7451 149.983 46.6073 151.831 45.0344 150.276Z" fill="#707070"/>
<path d="M41.1412 152.191C33.0647 144.974 32.3118 134.535 32.3118 134.535C31.8379 132.64 34.9603 131.236 36.2357 132.602C36.2357 132.602 36.9614 143.055 45.0651 150.258C45.0577 152.205 42.4029 153.597 41.1412 152.191Z" fill="#9E9E9E"/>
<path d="M37.2345 154.113C29.1581 146.896 28.4052 136.457 28.4052 136.457C28.1286 134.381 31.3982 133.441 32.3291 134.524C32.3291 134.524 33.082 144.963 41.1584 152.18C41.2545 153.624 38.4691 155.532 37.2345 154.113Z" fill="#707070"/>
<path d="M54.5178 141.41C54.5178 141.41 44.8477 139.847 40.3354 132.543L40.322 132.516C40.1098 131.382 40.0582 130.704 40.0582 130.704L50.6721 106.632C50.9104 109.78 51.3772 113.351 52.2826 117.225L54.5178 141.41Z" fill="#DEDEDE"/>
<path d="M74.1483 153.594L48.8939 148.387C42.9038 143.032 40.9411 135.893 40.3446 132.569C44.8585 139.874 54.5317 141.438 54.5317 141.438L52.2823 117.254C54.8591 128.396 60.8453 141.86 74.1483 153.594Z" fill="#A6A6A6"/>
<path d="M110.628 95.2886C108.773 92.6251 99.5961 79.4622 98.7819 78.6432C98.7819 78.6432 82.862 77.6476 70.1353 80.7116C74.1165 78.4816 78.1775 76.58 81.8227 75.6356C94.692 72.3508 119.319 68.5192 119.319 68.5192L122.093 51.7883C122.477 46.9852 126.879 44.2132 130.323 42.766C128.943 43.4468 121.6 48.3704 127.642 73.6607C127.642 73.6607 110.051 75.161 109.365 76.1847C109.371 76.1981 107.332 89.8084 110.628 95.2886Z" fill="#E07800"/>
<path d="M198.383 105.817L206.181 93.3618L194.437 84.8893L184.243 77.5254L184.382 62.8106L184.409 62.7972L184.413 61.5911L184.432 60.3447L184.567 48.1896L184.57 45.6969L184.687 34.8551L184.691 33.649L184.716 32.4161L184.81 22.1706L184.822 20.9779L184.827 19.7047L184.924 12.0994L184.94 9.63356L184.974 6.08887L176.239 23.0855L134.513 41.4991C134.513 41.4991 132.768 41.8575 130.569 42.7579L130.339 42.8714C128.958 43.5522 121.608 48.4631 127.651 73.7572C127.651 73.7572 110.057 75.2576 109.371 76.2815C109.371 76.2815 107.318 89.9004 110.614 95.3814C108.76 92.7176 99.5814 79.5527 98.7738 78.747C98.7738 78.747 98.7467 78.7604 98.6927 78.7536C98.6522 78.7401 98.5644 78.7332 98.4766 78.7263C97.9091 78.7051 96.5107 78.6421 94.5717 78.6116L94.565 78.5982L94.5379 78.6115C94.0582 78.5972 93.5853 78.5963 93.065 78.6019C92.9367 78.5816 92.8083 78.5948 92.6867 78.5878C92.1529 76.8446 91.6931 75.2154 91.2803 73.6465L91.2669 73.6197C91.0843 73.6596 90.8815 73.6927 90.7124 73.7259C90.4825 73.7723 90.2864 73.8188 90.0498 73.8519C89.9687 73.8584 89.8672 73.8917 89.813 73.9184C89.5087 73.9849 89.2044 74.0513 88.9137 74.111C88.8732 74.0975 88.8596 74.1042 88.8326 74.1176C88.251 74.2371 87.6966 74.3432 87.1284 74.4895C87.088 74.476 87.0473 74.4961 87.0067 74.5161C86.9527 74.5093 86.9256 74.5226 86.8716 74.5158C86.4929 74.6022 86.1073 74.7087 85.7219 74.7816C85.5731 74.8216 85.4041 74.8547 85.2553 74.8946C85.1742 74.9012 85.0998 74.9212 85.0187 74.9277C83.9095 75.207 82.8071 75.4662 81.813 75.7055C81.2449 75.8518 80.6834 76.0115 80.1219 76.2048C79.8174 76.3047 79.5198 76.3845 79.2423 76.5046C78.9514 76.5979 78.6537 76.7112 78.3424 76.8312C77.7672 77.0646 77.1582 77.298 76.5693 77.5716C76.258 77.6916 75.9399 77.8317 75.6285 77.9852C75.3307 78.1321 75.0463 78.2722 74.7215 78.3989C73.185 79.1062 71.6346 79.9207 70.1178 80.7688L70.0907 80.7822C68.7972 81.5369 67.5105 82.305 66.2642 83.0865C61.5771 86.0326 57.3353 89.1604 54.4618 91.3795C50.6262 130.673 96.2127 144.665 96.2127 144.665L96.2804 144.632L103.896 139.105L114.345 131.547L116.896 127.062L117.95 125.221L117.977 125.208L124.08 114.525C125.819 115.54 145.911 122.99 145.911 122.99C161.887 122.204 198.383 105.817 198.383 105.817ZM133.62 48.8281L175.415 31.8017C172.839 37.5192 176.596 45.983 176.596 45.983C164.589 51.3004 136.839 70.4982 136.839 70.4982C133.465 62.5646 133.62 48.8281 133.62 48.8281Z" fill="#FFAC1C"/>
<path d="M110.628 95.2886C108.773 92.6251 99.5961 79.4622 98.7819 78.6432C98.7819 78.6432 82.862 77.6476 70.1353 80.7116C74.1165 78.4816 78.1775 76.58 81.8227 75.6356C94.692 72.3508 119.319 68.5192 119.319 68.5192L122.093 51.7883C122.477 46.9852 126.879 44.2132 130.323 42.766C128.943 43.4468 121.6 48.3704 127.642 73.6607C127.642 73.6607 110.051 75.161 109.365 76.1847C109.371 76.1981 107.332 89.8084 110.628 95.2886Z" fill="#A6A6A6"/>
<path d="M198.383 105.817L206.181 93.3618L194.437 84.8893L184.243 77.5254L184.382 62.8106L184.409 62.7972L184.413 61.5911L184.432 60.3447L184.567 48.1896L184.57 45.6969L184.687 34.8551L184.691 33.649L184.716 32.4161L184.81 22.1706L184.822 20.9779L184.827 19.7047L184.924 12.0994L184.94 9.63356L184.974 6.08887L176.239 23.0855L134.513 41.4991C134.513 41.4991 132.768 41.8575 130.569 42.7579L130.339 42.8714C128.958 43.5522 121.608 48.4631 127.651 73.7572C127.651 73.7572 110.057 75.2576 109.371 76.2815C109.371 76.2815 107.318 89.9004 110.614 95.3814C108.76 92.7176 99.5814 79.5527 98.7738 78.747C98.7738 78.747 98.7467 78.7604 98.6927 78.7536C98.6522 78.7401 98.5644 78.7332 98.4766 78.7263C97.9091 78.7051 96.5107 78.6421 94.5717 78.6116L94.565 78.5982L94.5379 78.6115C94.0582 78.5972 93.5853 78.5963 93.065 78.6019C92.9367 78.5816 92.8083 78.5948 92.6867 78.5878C92.1529 76.8446 91.6931 75.2154 91.2803 73.6465L91.2669 73.6197C91.0843 73.6596 90.8815 73.6927 90.7124 73.7259C90.4825 73.7723 90.2864 73.8188 90.0498 73.8519C89.9687 73.8584 89.8672 73.8917 89.813 73.9184C89.5087 73.9849 89.2044 74.0513 88.9137 74.111C88.8732 74.0975 88.8596 74.1042 88.8326 74.1176C88.251 74.2371 87.6966 74.3432 87.1284 74.4895C87.088 74.476 87.0473 74.4961 87.0067 74.5161C86.9527 74.5093 86.9256 74.5226 86.8716 74.5158C86.4929 74.6022 86.1073 74.7087 85.7219 74.7816C85.5731 74.8216 85.4041 74.8547 85.2553 74.8946C85.1742 74.9012 85.0998 74.9212 85.0187 74.9277C83.9095 75.207 82.8071 75.4662 81.813 75.7055C81.2449 75.8518 80.6834 76.0115 80.1219 76.2048C79.8174 76.3047 79.5198 76.3845 79.2423 76.5046C78.9514 76.5979 78.6537 76.7112 78.3424 76.8312C77.7672 77.0646 77.1582 77.298 76.5693 77.5716C76.258 77.6916 75.9399 77.8317 75.6285 77.9852C75.3307 78.1321 75.0463 78.2722 74.7215 78.3989C73.185 79.1062 71.6346 79.9207 70.1178 80.7688L70.0907 80.7822C68.7972 81.5369 67.5105 82.305 66.2642 83.0865C61.5771 86.0326 57.3353 89.1604 54.4618 91.3795C50.6262 130.673 96.2127 144.665 96.2127 144.665L96.2804 144.632L103.896 139.105L114.345 131.547L116.896 127.062L117.95 125.221L117.977 125.208L124.08 114.525C125.819 115.54 145.911 122.99 145.911 122.99C161.887 122.204 198.383 105.817 198.383 105.817ZM133.62 48.8281L175.415 31.8017C172.839 37.5192 176.596 45.983 176.596 45.983C164.589 51.3004 136.839 70.4982 136.839 70.4982C133.465 62.5646 133.62 48.8281 133.62 48.8281Z" fill="#DEDEDE"/>
<path d="M84.4281 161.418C80.5463 158.96 77.1116 156.382 74.0835 153.671L74.0429 153.658C60.7427 141.926 54.7577 128.463 52.1948 117.317C51.296 113.456 50.8224 109.871 50.584 106.722L50.5977 106.682C49.9969 99.1907 50.8481 94.2325 50.8481 94.2325C50.8481 94.2325 52.2332 93.0473 54.5543 91.2667C50.7162 130.623 96.3752 144.642 96.3752 144.642L96.443 144.609L104.07 139.074C106.197 142.112 108.473 145.211 110.917 148.41C112.294 147.648 113.67 146.886 115.027 146.083C112.972 147.314 110.856 148.491 108.774 149.634C96.2826 156.495 84.4281 161.418 84.4281 161.418Z" fill="#E07800"/>
<path d="M96.412 144.645L96.3443 144.678C96.3443 144.678 50.6994 130.662 54.5363 91.3144C57.4131 89.0925 61.6669 85.9406 66.3527 83.011C67.6005 82.2284 68.8888 81.4594 70.1838 80.7037L70.2109 80.6904C71.7431 79.8346 73.2751 79.0123 74.8202 78.3176C75.1454 78.1907 75.4436 78.0437 75.7283 77.9034C76.0401 77.7497 76.3653 77.6229 76.6702 77.4893C77.2666 77.2288 77.8696 76.9817 78.4455 76.748C78.7436 76.6346 79.0486 76.501 79.3465 76.4211C79.6311 76.3143 79.9223 76.2209 80.2271 76.1209C80.8029 75.9207 81.365 75.7608 81.9203 75.621C82.9157 75.3815 84.0127 75.1086 85.1299 74.8424C85.2111 74.8359 85.2856 74.8159 85.3669 74.8094C85.5158 74.7694 85.6851 74.7362 85.8341 74.6963C86.2606 74.6032 86.6805 74.4967 87.1137 74.417C87.1544 74.397 87.2086 74.3702 87.2356 74.3904C87.8044 74.2439 88.3596 74.1377 88.9418 74.0181C88.969 74.0047 88.9825 73.9981 89.023 74.0116C89.3277 73.9451 89.6189 73.8853 89.9235 73.8188C90.3975 73.7191 90.8917 73.6262 91.3994 73.5265C91.7177 73.4534 92.0224 73.3869 92.3676 73.3339C92.4895 73.3073 92.6452 73.2808 92.767 73.2542L92.7941 73.2408C93.3763 74.9128 94.0055 76.6789 94.6887 78.4853L94.7021 78.5122C98.3049 88.1888 103.329 99.5258 109.96 111.51C110.612 112.713 111.284 113.888 111.976 115.104C112.063 115.279 112.151 115.454 112.272 115.628C113.878 118.403 115.559 121.191 117.314 123.993C117.522 124.308 117.704 124.604 117.906 124.906C117.959 125.014 118.054 125.135 118.121 125.236L118.094 125.249L117.038 127.092L114.484 131.583L104.023 139.151L96.412 144.645Z" fill="#FFAC1C"/>
<path d="M104.012 139.167C86.1373 113.806 78.3775 93.415 75.097 79.7151C74.9836 79.2515 74.8499 78.7811 74.7501 78.3108C75.0757 78.1839 75.3743 78.0368 75.6593 77.8963C75.9715 77.7425 76.2972 77.6155 76.6025 77.4818C77.1996 77.2211 77.8034 76.9739 78.3801 76.74C78.6786 76.6264 78.9839 76.4928 79.2823 76.4128C79.5672 76.3059 79.8589 76.2125 80.1641 76.1123C80.7406 75.912 81.3035 75.752 81.8595 75.6121C82.8562 75.3724 83.9546 75.0992 85.0733 74.8329C85.1546 74.8263 85.2292 74.8063 85.3105 74.7998C85.4597 74.7598 85.6292 74.7265 85.7784 74.6866C86.2055 74.5934 86.6259 74.4868 87.0597 74.4071C87.1004 74.387 87.1547 74.3603 87.1817 74.3805C87.7513 74.2339 88.3072 74.1276 88.8902 74.0079C88.9173 73.9945 88.9309 73.9878 88.9715 74.0013C89.2766 73.9348 89.5681 73.8749 89.8732 73.8084C89.941 73.7749 90.0495 73.755 90.1105 73.7417C90.3477 73.7086 90.5444 73.662 90.7749 73.6154C90.9579 73.5755 91.1545 73.5289 91.3307 73.5091C91.4256 73.4959 91.5274 73.4625 91.6358 73.4426C91.873 73.4095 92.0697 73.3629 92.3069 73.3298C92.4289 73.3032 92.5848 73.2766 92.7068 73.25C93.2898 74.9234 93.9198 76.6909 94.6039 78.4988C98.2046 88.1699 103.255 99.5565 109.923 111.537C110.575 112.741 111.248 113.917 111.941 115.134C112.028 115.309 112.116 115.484 112.237 115.659C113.832 118.442 115.528 121.226 117.286 124.03C117.495 124.346 117.676 124.642 117.878 124.944C117.932 125.052 117.999 125.186 118.08 125.281L117.023 127.125L114.466 131.62L104.012 139.167Z" fill="#FFEEB5"/>
</g>
</svg>
