<svg width="118" height="779" viewBox="0 0 118 779" fill="none" xmlns="http://www.w3.org/2000/svg">
<g opacity="0.6">
<path d="M79.0874 272.796C80.3513 268.939 81.9143 265.239 84.8939 261.853C86.9357 246.352 85.6206 245.016 71.3704 244.642C69.3331 245.511 67.6345 246.772 66.3536 248.898C64.1869 255.509 57.4714 261.025 57.3195 268.263C61.5073 270.46 59.6281 272.272 55.8922 274.401C49.7749 280.231 48.8272 285.976 53.0886 291.87C54.003 294.071 55.177 296.194 56.3511 298.316C57.1469 299.81 58.4621 301.146 60.2173 301.851C67.7852 299.795 63.6253 292.878 67.6828 289.411C71.6443 283.741 76.5426 278.778 79.0874 272.796Z" fill="#F8AE55"/>
<path d="M-36.6834 382.833C-26.0658 373.686 -13.8157 367.862 -1.0404 363.55C4.7172 361.583 10.6877 359.313 14.5607 354.098C14.7916 352.361 13.8404 351.454 11.9591 351.304C-14.6565 361.441 -41.9145 369.387 -65.904 387.077C-58.8975 392.363 -51.3935 391.301 -36.6834 382.833Z" fill="#FB9F30"/>
<path d="M22.3451 120.096C17.6168 118.882 12.2657 120.257 7.38164 121.251C-3.6124 123.85 -15.0539 125.383 -24.5304 133.769C-27.6049 137.579 -28.8309 141.312 -25.348 144.584C-9.62559 143.2 5.59098 138.846 18.9203 128.096C21.1775 125.733 24.2714 123.598 22.3451 120.096Z" fill="#EC9835"/>
<path d="M68.6086 246.669C82.2009 244.043 81.6681 253.933 83.815 261.763C95.1373 253.839 85.4411 245.305 89.0324 237.232C80.7593 235.501 84.6525 227.585 82.6843 222.445C81.2181 218.649 78.2767 220.789 75.6987 221.82C70.4565 229.895 64.087 237.814 68.6086 246.669Z" fill="#FACE99"/>
<path d="M71.1155 189.899C73.4818 181.254 68.2711 176.155 61.9391 174.122C57.6183 172.714 55.3931 169.182 51.1511 168.245C45.5626 173.909 43.878 180.118 46.796 186.163C53.3476 187.882 56.3051 194.163 62.5976 195.961C66.3045 195.327 69.5944 193.829 71.1155 189.899Z" fill="#FCE0BE"/>
<path d="M13.0699 351.834C13.1865 352.526 13.5574 353.141 13.6739 353.833C16.4333 352.753 18.8994 351.519 21.6587 350.439C25.5947 346.819 25.602 340.511 32.2159 338.503C34.1945 335.962 34.0992 333.808 32.9086 331.501C32.2056 330.502 31.0326 329.888 29.8986 329.505C24.5001 329.204 19.1368 332.287 13.6782 333.217C4.99032 335.612 0.559562 344.234 -7.30868 348.32C-8.54173 348.937 -7.56664 351.552 -6.27712 352.858C-1.72312 356.083 3.13137 353.154 8.25786 351.84C9.72406 352.607 11.8405 349.297 13.0699 351.834Z" fill="#F79E32"/>
<path d="M79.4922 273.179C73.8866 277.371 68.9226 282.116 66.1049 288.201C63.7754 305.341 63.7754 305.341 69.6519 309.282C70.2976 306.596 70.3016 303.359 71.8898 301.382C79.6894 292.291 80.6041 283.049 79.4922 273.179Z" fill="#FCE1C0"/>
<path d="M-2.76344 119.786C1.28109 113.728 7.99582 112.418 13.8921 109.424C20.296 106.275 18.8145 103.825 15.1863 101.301C4.64665 102.078 -4.16014 108.371 -13.1612 113.514C-16.5793 116.966 -21.792 119.27 -19.7665 124.938C-13.7171 126.004 -7.93966 125.461 -2.76344 119.786Z" fill="#FBB665"/>
<path d="M48.3156 185.712C48.1079 179.592 50.3868 173.704 51.5517 167.66C48.0527 166.253 45.1726 163.668 40.5145 165.087C37.8362 171.839 28.7728 177.815 33.3739 185.812C35.0221 187.536 37.548 188.003 39.8544 188.784C42.3803 189.252 44.8667 189.483 47.2578 187.518C47.6966 186.89 47.8768 186.34 48.3156 185.712Z" fill="#F7AD52"/>
<path d="M36.0106 185.674C34.3168 182.009 34.284 178.575 38.3058 175.135C42.0703 171.773 43.1056 168.26 41.1545 164.672C39.5717 164.909 38.1681 164.599 37.6371 163.039C36.4907 162.65 35.4225 162.73 34.2143 163.59C32.7879 164.763 31.3616 165.936 29.9352 167.109C24.2916 170.551 15.7687 169.705 13.7144 178.449C16.6555 181.489 23.0482 179.294 24.8593 183.662C28.7122 185.685 30.4616 191.302 36.8153 188.873C37.2125 188.014 37.3525 187.233 36.9779 186.61C36.5642 185.752 36.2679 185.596 36.0106 185.674Z" fill="#F49A2D"/>
<path d="M75.873 222.515C77.9473 221.884 79.9426 220.781 82.0338 221.878C81.5491 214.098 87.6083 203.086 74.4356 200.904C69.8531 199.574 66.0823 201.466 63.264 205.793C60.953 216.406 74.8303 214.657 75.873 222.515Z" fill="#F9BA6E"/>
<path d="M22.3957 120.421C22.0155 122.993 20.0776 124.321 17.8438 125.493C15.4188 133.6 4.94844 135.564 1.89257 143.126C5.21345 151.693 12.0773 145.916 17.9855 144.116C20.0015 143.255 21.4256 142.085 22.1799 140.135C20.5893 135.463 23.678 131.328 25.7002 127.273C28.197 122.828 27.2928 120.648 22.3957 120.421Z" fill="#F8A441"/>
<path d="M-2.38145 120.094C-7.93084 121.763 -14.0835 121.464 -19.3209 124.949C-24.813 125.406 -28.0325 128.285 -29.5228 133.509C-28.6673 135.401 -26.9979 135.854 -24.7277 135.172C-14.1152 130.548 -3.54158 125.697 7.07099 121.073C4.5851 118.955 0.182428 122.667 -2.38145 120.094Z" fill="#FCD4A6"/>
<path d="M30.8442 333.56C31.1551 335.41 31.4272 337.029 29.8381 338.727C26.1548 339.117 21.9404 341.127 24.0908 344.363C26.984 348.831 31.7295 345.201 35.7108 341.803C45.3962 335.7 54.7879 329.443 60.0126 319.104C60.0342 317.639 59.1533 317.178 57.7629 316.871C55.6471 317.028 53.9414 318.032 52.2746 319.268C46.7605 326.292 39.5062 330.927 30.8442 333.56Z" fill="#FBD4A6"/>
<path d="M64.7427 207.506C66.0908 202.688 70.897 202.448 74.3667 200.656C71.5156 198.097 77.9875 191.718 71.3714 190.795C67.8627 192.354 64.354 193.912 60.8064 195.238C58.2386 199.204 51.8115 202.631 54.5399 207.676C56.4832 211.247 60.7771 211.163 64.7427 207.506Z" fill="#F8BB71"/>
<path d="M58.0526 317.623C58.3949 318.018 58.5152 318.73 58.8575 319.126C64.401 317.695 68.2731 314.524 70.4338 309.377C63.9892 303.843 70.95 294.495 66.864 288.246C58.5983 291.5 66.2516 297.666 61.9757 301.708C59.2507 306.777 56.5658 312.083 58.0526 317.623Z" fill="#FAC485"/>
<path d="M36.2863 341.792C34.4514 342.106 32.6945 342.887 31.0771 342.889C29.4988 343.125 27.2063 345.541 26.5988 343.518C25.6176 340.874 28.6962 339.936 30.3361 338.455C17.381 336.762 23.241 346.013 21.3385 350.763C28.5159 351.764 32.9224 347.478 36.2863 341.792Z" fill="#FACB92"/>
<path d="M34.1105 163.189C35.1466 162.873 35.9236 162.637 36.9597 162.321C38.1759 161.455 41.5037 160.194 39.3754 158.862C34.2236 155.728 30.5864 151.886 31.1554 145.524C29.3649 144.584 27.5124 144.901 25.7387 145.689C24.483 146.319 23.5258 147.105 22.6079 148.128C21.9885 149.306 21.8871 150.327 21.8251 151.584C22.4388 153.625 24.0491 155.115 25.8396 156.054C27.0726 156.917 28.2663 157.543 29.0207 158.798C29.7751 160.054 30.4902 161.074 31.5036 162.25C32.1398 162.799 33.0351 163.269 34.1105 163.189Z" fill="#FCCD96"/>
<path d="M22.8095 148.872C23.539 148.405 24.5635 148.093 25.2929 147.626C25.4156 145.141 31.8353 144.898 29.0461 141.097C26.702 141.566 24.1797 142.58 22.2923 140.952C20.7946 141.653 19.0406 142.432 17.5428 143.133C16.5738 145.386 17.6539 147.016 18.2217 148.801C18.6337 149.655 19.2628 150.197 20.4042 150.584C21.4287 150.272 22.158 149.805 22.8095 148.872Z" fill="#FDA842"/>
<path d="M28.872 140.976C27.6081 143.074 26.3832 145.406 25.1193 147.504C26.873 146.725 28.8828 145.868 30.6365 145.089C32.1176 142.68 33.3425 140.349 28.872 140.976Z" fill="#F8B15C"/>
<path d="M65.3359 207.724C56.603 206.624 56.6029 206.624 61.9123 200.521C64.476 197.746 61.5721 196.878 61.2508 194.978C61.9432 186.028 56.7001 184.371 48.2672 186.676L48.4278 187.627C41.8473 194.365 43.0523 201.491 44.7014 207.983C45.9489 212.1 50.606 215.184 45.781 220.891C44.8524 221.921 44.4271 224.297 45.8188 224.375C60.8038 226.577 47.6026 239.816 51.7327 246.305C50.7828 248.841 50.1353 251.534 51.8484 253.512C53.0581 254.144 54.2277 254.539 55.6194 254.617C60.0568 254.77 63.9909 253.578 66.8783 249.457C67.5045 248.269 67.8684 247.16 68.4946 245.971C71.3041 238.128 73.8111 230.127 76.6206 222.284C77.7737 217.689 81.9938 211.666 72.4929 212.547C68.7005 212.947 66.4228 210.89 65.3359 207.724Z" fill="#F49C32"/>
<path d="M68.6233 249.921C64.9727 251.993 61.0501 252.457 57.3035 252.384C47.6593 258.446 36.7692 260.296 26.677 265.285C21.4652 267.589 15.7275 268.361 10.438 270.205C6.24104 272.201 2.00528 273.968 0.967533 278.871C5.21712 285.071 12.3811 281.693 18.217 279.925C23.8381 278.463 29.5757 277.691 32.0354 276.463C27.9756 277.693 20.7155 278.926 13.7664 281.998C9.90093 284.376 4.86507 286.144 5.79779 291.658C17.0354 295.016 27.8888 289.796 38.82 285.035C45.1473 278.287 54.7893 275.366 59.8296 267.318C60.0878 260.96 69.028 257.044 68.6233 249.921Z" fill="#F79622"/>
<path d="M60.2028 268.24C53.0766 272.631 44.824 275.147 40.1694 282.977C39.1935 285.247 37.3264 287.049 35.42 288.616C32.1623 291.828 27.7946 294.886 28.1019 299.97C30.3879 307.164 37.0085 307.858 44.4648 307.065C49.6908 301.034 49.6164 308.7 52.61 308.774C61.5744 307.275 58.5149 300.317 60.5059 296.011C59.5589 293.587 58.909 291.319 57.962 288.896C54.8508 288.118 48.7624 288.988 48.7232 288.753C49.6269 282.806 54.0566 278.497 59.0804 274.5C64.3786 272.145 62.4393 270.27 60.2028 268.24Z" fill="#F59A2C"/>
<path d="M60.7779 296.633C56.1376 299.778 58.3528 306.522 52.2222 308.884C47.4805 313.049 44.1506 317.526 47.4627 322.699C49.6112 322.539 51.6417 321.673 52.9186 319.553C54.6903 318.766 56.462 317.979 58.2337 317.191C60.6301 312.01 65.2143 306.904 62.3803 301.338C61.8462 299.77 61.312 298.201 60.7779 296.633Z" fill="#F6A23D"/>
<path d="M58.7094 274.282C46.649 276.484 46.3732 286.155 42.778 295.363C47.9424 292.314 52.3355 289.499 57.3764 288.946C49.6372 284.668 56.3277 279.433 58.7094 274.282Z" fill="#F7A039"/>
<path d="M-78.4133 384.826C-74.0855 385.424 -69.9692 386.32 -65.6414 386.918C-39.2189 375.057 -12.7572 363.42 13.916 351.484C15.1309 350.887 17.2706 349.544 16.3609 348.873C14.5414 347.529 12.3081 349.842 10.3014 350.439C-1.85676 353.347 -13.897 356.927 -25.8193 361.179C-44.1305 366.623 -62.4024 372.292 -80.9737 374.751C-98.448 375.942 -115.324 383.551 -132.719 385.19C-134.264 385.413 -135.557 385.562 -137.062 386.01C-143.215 388.546 -150.066 390.112 -153.968 396.454C-154.505 403.917 -148.062 401.53 -143.601 401.382C-133.888 401.085 -123.604 398.027 -114.555 401.461C-110.674 401.014 -108.692 398.776 -107.157 395.493C-105.867 387.806 -98.8341 388.778 -94.2797 387.659C-89.2629 386.167 -83.8624 383.855 -78.4133 384.826Z" fill="#FC9D27"/>
<path d="M-24.6948 144.591C-26.7999 147.876 -26.0212 149.326 -22.1051 148.864C-19.4945 148.556 -16.8449 148.478 -14.2342 148.17C-8.1563 149.462 -2.19504 150.067 2.52189 143.344C8.56307 138.146 18.1881 135.235 17.8603 125.462C5.83569 137.767 -11.1326 136.637 -24.6948 144.591Z" fill="#FCA53D"/>
<path d="M-4.9242 351.052C-5.00223 350.598 -5.08026 350.145 -5.11928 349.918C3.49158 347.57 6.41194 338.344 13.9934 334.635C14.3025 333.349 13.8553 332.291 12.9039 331.384C-0.287009 331.769 -5.81246 335.099 -11.389 345.838C-11.6021 346.141 -11.5631 346.368 -12.8627 346.519C-24.3849 347.357 -36.5434 352.202 -47.7204 348.881C-57.0515 348.583 -66.3617 349.949 -75.7289 352.525C-80.402 354.644 -87.5001 356.538 -86.8549 361.83C-86.3057 368.106 -78.9344 367.8 -73.1148 367.721C-69.9334 367.719 -66.773 366.054 -63.5916 366.053C-58.1411 365.369 -52.6907 364.686 -47.2012 364.23C-35.7361 364.602 -24.1599 359.455 -12.7548 357.937C-8.68193 356.952 -5.23037 355.438 -4.9242 351.052Z" fill="#F89620"/>
<path d="M11.6616 332.511C12.0716 333.358 12.1882 334.05 12.5981 334.897C18.8584 337.122 23.7974 331.495 29.6905 329.948C37.0291 330.632 43.6469 328.621 48.3141 321.378C49.9831 316.987 51.6523 312.596 53.0668 308.282C51.7981 305.512 51.9614 300.122 46.0041 306.058C35.953 314.695 20.7667 313.482 12.0232 325.119C10.5912 327.739 9.70703 330.435 11.6616 332.511Z" fill="#F69621"/>
<path d="M-4.93938 351.916C-15.9128 360.141 -28.5586 357.298 -40.2386 361.485C-42.4977 362.158 -44.8353 362.382 -46.8827 362.756C-49.3381 362.307 -51.809 363.279 -51.9185 365.672C-52.0673 367.84 -49.7452 369.037 -47.4075 368.813C-40.6456 368.215 -34.0799 366.496 -27.475 365C-14.2652 362.01 -1.98921 356.702 10.4593 350.87C5.23451 348.178 -0.201094 353.337 -4.93938 351.916Z" fill="#EB8913"/>
<path d="M48.132 322.356C41.9089 324.964 35.7246 327.802 29.5403 330.639C29.9494 331.481 30.3584 332.322 30.8063 333.393C43.2858 337.818 47.6026 327.101 53.5944 319.978C51.8582 320.745 50.1219 321.512 48.132 322.356Z" fill="#F8A849"/>
<path d="M54.6132 245.652C55.7706 242.829 63.7799 240.388 55.9399 237.344C52.7444 236.094 53.4077 231.94 56.8284 229.663C59.5133 227.857 64.1411 227.928 62.0637 223.622C60.7387 220.567 57.661 220.023 54.0439 221.126C52.4938 221.598 50.6852 222.149 48.6183 222.779C49.7198 217.998 53.7751 216.268 57.2185 212.501C43.0041 208.683 48.667 197.077 49.7187 187.124C47.3541 187.597 45.0289 188.306 43.1645 186.898C40.9012 186.353 39.0926 186.904 37.8566 189.257C32.8919 188.794 32.5278 181.742 26.2878 183.397C25.7711 183.554 24.996 183.79 24.5186 184.183C21.4968 185.598 18.8512 187.639 17.7331 190.697C16.9912 194.381 17.0637 198.064 18.6863 201.274C21.0841 204.248 24.5773 205.654 29.048 204.785C30.0814 204.47 31.2947 203.606 32.4853 204.231C30.6768 204.783 28.9467 205.804 27.8513 207.373C27.3512 209.254 27.6261 210.899 28.7155 212.543C29.6023 216.225 36.2246 211.984 36.1958 216.685C27.2361 228.061 14.0718 225.651 3.27637 230.917C2.02384 231.545 1.06896 232.33 -0.105018 233.429C-6.53091 238.845 4.40939 240.945 0.387331 246.123C6.33411 252.461 14.36 251.744 23.5599 249.929C31.4286 248.272 39.7023 242.539 47.6208 246.054C49.9627 247.069 52.3665 246.83 54.6132 245.652Z" fill="#F49522"/>
<path d="M36.9368 188.595C38.6778 187.824 40.4187 187.053 42.1597 186.282C40.2845 184.67 38.2504 185.287 36.001 186.213C36.1563 187.135 36.566 187.98 36.9368 188.595Z" fill="#F49B2F"/>
<path d="M25.8347 181.561C27.8542 169.833 20.217 176.739 15.3948 178.2C13.1518 175.98 11.0851 173.223 7.2598 172.691C-1.50426 172.931 -9.17783 176.464 -15.8775 182.602C-14.1676 192.716 -4.59852 186.192 1.2365 187.565C9.29866 186.33 17.7495 187.394 25.8347 181.561Z" fill="#F39625"/>
<path d="M7.47427 175.839C9.395 177.692 11.6708 178.463 14.5569 178.072C18.0246 169.947 27.2664 172.254 32.594 167.22C33.8536 165.13 32.1881 163.199 33.7419 161.263C33.2144 159.717 32.6868 158.171 31.8651 156.471C19.8099 158.189 13.4172 166.473 7.47427 175.839Z" fill="#F59A2C"/>
<path d="M33.4411 161.465C31.3178 163.607 31.6403 165.509 32.2659 167.57C32.8527 166.142 33.4799 164.953 34.0667 163.525C33.9458 162.812 33.8248 162.099 33.4411 161.465Z" fill="#F8A94A"/>
<path d="M3.01859 143.95C-2.52759 145.616 -8.11278 147.055 -13.659 148.721C-13.0557 150.687 -12.7436 152.501 -14.7784 154.543C-25.0754 157.875 -35.8016 158.712 -45.3393 164.916C-48.4785 168.244 -54.685 169.155 -55.0481 174.749C-52.7552 178.831 -48.3915 177.997 -44.4359 176.332C-24.328 168.383 -4.86241 158.243 15.6536 151.126C17.4183 150.596 18.6968 148.781 19.7232 147.041C22.3973 144.091 18.6727 144.018 18.1085 142.279C13.1625 142.811 7.7935 147.047 3.01859 143.95Z" fill="#EB9630"/>
<path d="M7.83708 175.195C15.8094 168.952 24.0346 162.632 31.968 156.161C30.84 155.781 29.6732 155.174 28.5452 154.794C25.1421 155.101 22.1859 153.354 18.6468 154.422C11.0243 159.6 1.55358 158.619 -5.62147 164.861C-7.15751 166.764 -1.32314 169.802 -8.3044 170.948C-14.7801 171.942 -20.8275 175.446 -26.2916 179.253C-29.3833 181.385 -33.3113 183.29 -30.9771 187.624C-25.7847 188.456 -21.1565 187.54 -16.7815 183.581C-8.43912 181.065 -1.12806 174.061 7.83708 175.195Z" fill="#F79F37"/>
<path d="M19.1187 156.168C22.047 156.009 25.131 156.779 28.0036 154.684C26.4921 153.679 24.9418 152.442 23.6859 151.36C22.5468 150.974 21.2299 151.131 19.9519 151.52C18.3573 153.226 17.5294 154.699 19.1187 156.168Z" fill="#FAB96B"/>
<path d="M20.9179 152.549C21.9404 152.238 22.6684 151.772 23.6908 151.461C23.5351 150.532 23.1626 149.913 23.0459 149.216C22.0234 149.528 21.0399 150.071 20.0174 150.382C19.8397 150.925 19.6619 151.467 19.4842 152.009C20.0343 152.086 20.5845 152.163 20.9179 152.549Z" fill="#F8B15C"/>
<path d="M20.1655 147.555C-0.768491 153.071 -20.6261 163.211 -40.7588 171.785C-45.1945 173.574 -50.1616 178.347 -53.849 172.379C-66.546 175.211 -78.6533 181.399 -91.0752 185.797C-107.721 191.687 -124.564 196.457 -141.21 202.346C-148.114 205.105 -155.097 207.416 -160.777 212.636C-161.874 213.904 -162.43 215.246 -161.904 216.738C-154.814 224.049 -144.737 216.816 -136.279 216.892C-130.299 214.88 -124.374 214.06 -118.355 212.271C-109.656 209.215 -101.561 204.219 -92.3752 202.431C-88.5739 201.537 -84.9299 199.747 -81.9841 196.988C-65.9129 186.325 -47.5262 181.331 -30.1129 173.801C-16.6337 167.911 -3.83772 159.634 10.7721 157.175C14.8635 156.43 18.5618 153.447 21.0995 149.868C20.7308 149.271 20.3227 148.45 20.1655 147.555Z" fill="#FCA53D"/>
<path d="M54.9548 246.783C53.0891 245.191 51.0688 245.799 48.8351 246.712C37.1382 243.532 25.8928 250.75 14.6258 253.186C10.1971 255.238 5.18548 256.987 4.56624 262.679C9.91094 267.533 17.4276 263.354 24.0914 263.501C34.6008 261.293 44.8577 259.161 54.083 252.552C54.2765 250.578 54.7614 248.757 54.9548 246.783Z" fill="#F79622"/>
<path d="M54.0718 253.145C43.708 256.014 33.5961 258.808 23.1933 261.451C21.6301 266.202 24.8864 266.653 28.4335 267.255C36.6264 264.085 45.0321 260.613 53.3031 257.896C57.5841 256.612 57.2325 254.576 56.8027 252.088C55.7955 252.39 54.8272 252.918 54.0718 253.145Z" fill="#EC8B17"/>
<path d="M31.3062 296.892C32.6731 292.38 38.035 290.998 40.3568 287.403C34.8815 281.827 29.1852 289.096 23.4532 289.866C18.2282 290.483 12.5725 294.847 7.70052 291.258C9.28208 286.44 14.039 286.206 17.6856 284.138C14.5305 278.101 8.81555 283.688 4.3121 283.845C-9.80637 291.734 -24.5266 294.502 -39.578 296.887C-42.1905 297.195 -42.1702 295.743 -43.1639 294.597C-51.2719 290.782 -60.806 292.703 -69.676 292.253C-71.7816 292.408 -73.7317 293.48 -74.9804 295.546C-75.4501 299.064 -73.8143 302.426 -71.124 302.576C-63.0533 303.027 -71.5548 306.323 -70.7758 307.775C-69.3934 311.214 -66.5071 309.376 -63.9724 308.609C-75.301 312.52 -87.1148 311.997 -98.1325 317.742C-101.117 320.574 -100.241 324.167 -101.295 327.379C-98.8992 330.511 -95.643 329.285 -92.1332 327.981C-88.3699 326.601 -90.6325 328.974 -90.984 330.045C-89.4849 334.172 -83.9676 333.708 -81.7859 337.146C-74.1257 339.891 -66.1311 336.748 -58.3122 334.141C-49.7314 328.168 -39.6749 334.045 -33.7454 328.152C-29.3383 325.854 -31.3086 328.379 -31.5807 326.774C-31.6585 326.315 -31.8731 326.621 -32.6335 326.851C-35.0517 328.307 -38.0934 329.227 -37.8026 332.514C-31.8204 337.937 -26.2609 331.433 -20.2164 329.362C-18.0299 323.396 -12.7085 324.92 -8.61402 323.922C-6.33274 323.232 -3.9738 323 -1.77027 321.851C4.0799 318.634 14.0619 317.783 12.6236 309.297C11.0686 300.124 1.94033 309.155 -3.34218 307.861C-12.0381 310.01 -19.9752 315.064 -28.71 316.984C-18.9613 314.757 -9.91232 308.402 0.284207 307.245C10.6378 303.871 22.139 305.694 31.3062 296.892Z" fill="#F6941D"/>
<path d="M28.9252 266.694C27.2715 264.792 25.6178 262.89 23.6723 260.836C17.8553 259.47 11.766 262.749 6.00747 263.287C-1.98845 261.618 -8.68082 266.039 -15.4121 270.232C-20.2757 272.9 -14.3807 277.844 -19.4972 280.589C-18.933 282.339 -17.5129 282.871 -15.6258 283.022C-5.82065 281.263 1.12445 270.523 11.9413 271.58C17.5053 269.9 23.4196 270.276 28.9252 266.694Z" fill="#F28F19"/>
<path d="M12.4055 271.779C1.46724 266.911 -6.18316 276.672 -15.1955 281.557C-20.8017 286.135 -30.1054 284.618 -33.493 292.852C-22.7493 296.577 -12.4328 291.538 -2.19408 286.042C0.141816 284.135 1.85495 281.695 2.43918 278.875C4.01629 274.072 9.05744 273.992 12.4055 271.779Z" fill="#F6941E"/>
<path d="M2.44054 279.737C0.21435 280.641 -1.68198 281.922 -2.04615 284.407C-2.79645 287.721 0.30209 287.268 2.25943 287.87C7.04168 286.438 11.2767 281.843 16.4718 284.326C23.5927 279.579 32.6024 281.158 40.977 272.947C26.8209 275.286 14.5049 277.549 2.44054 279.737Z" fill="#ED8B16"/>
<path d="M6.8792 292.039C3.94707 293.382 0.64615 294.128 -2.60649 298.16C7.61047 297.714 16.1801 295.4 24.8435 292.116C29.5319 290.25 34.0782 286.069 39.2229 288.31C41.2452 286.294 40.9309 284.502 40.3264 282.56C29.3505 287.711 17.997 289.203 6.8792 292.039Z" fill="#F18F1A"/>
<path d="M30.9913 298.577C20.5775 301.482 10.4166 304.31 -0.036163 306.987C-0.892744 308.207 -2.08018 309.046 -1.80786 310.647C-0.640063 311.255 0.391417 312.626 1.40361 312.32C4.44018 311.403 8.47005 305.379 10.2796 311.322C12.0113 316.808 5.37389 316.89 2.23988 318.798C-4.06706 322.385 -10.8019 323.458 -17.8676 324.15C-23.6292 324.688 -22.6563 327.279 -19.8342 329.791C-9.26548 334.05 2.10277 325.809 12.7693 325.952C18.6676 321.527 24.0987 317.483 31.7094 316.867C37.9771 316.175 43.1162 311.979 45.7641 305.651C40.8398 303.293 33.1706 305.129 30.9913 298.577Z" fill="#F3911B"/>
<path d="M13.913 325.755C9.3804 322.563 4.30339 322.415 -1.27918 325.539C-7.11463 328.741 -13.1838 327.452 -18.9221 329.663C-24.4853 331.342 -30.0874 332.793 -35.6506 334.472C-49.3062 332.352 -60.413 337.384 -65.5477 347.814C-53.6232 353.817 -41.8163 343.533 -29.795 342.306C-26.8966 342.151 -23.9012 341.007 -22.9286 340.474C-18.8048 339.709 -20.9832 342.527 -20.2052 340.852C-20.0302 340.319 -20.5749 340.243 -21.3335 340.472C-30.3202 343.904 -40.9023 341.097 -48.0406 350.692C-36.6608 356.619 -23.8812 348.922 -11.957 348.684C-10.9066 348.607 -10.4787 347.998 -9.83685 347.084C-3.84612 338.556 3.05917 333.831 13.038 331.54C13.2713 329.79 13.4657 327.811 13.913 325.755Z" fill="#F7941E"/>
<path d="M15.0969 255.53C25.887 250.373 37.2802 247.184 48.733 245.89C47.4119 244.376 53.9516 240.736 48.38 240.739C44.4003 240.741 40.3632 241.956 36.3651 243.397C24.5842 247.419 12.9387 250.684 2.16055 245.084C-5.81936 243.423 -12.5724 247.366 -18.7612 253.051C-20.6358 265.324 -11.222 262.97 -3.1273 262.207C3.37554 261.446 8.43814 255.383 15.0969 255.53Z" fill="#F18F19"/>
<path d="M19.738 198.735C20.7099 195.083 20.8844 191.431 19.0366 188.39C15.0692 186.948 11.3939 188.777 7.67969 190.377C-8.53772 201.267 -28.3538 205.086 -43.5985 218.561C-41.2639 226.013 -35.2359 220.836 -30.6855 219.464C-24.0737 217.709 -18.0848 212.304 -11.142 214.048C-4.82152 215.26 0.720516 211.909 6.26248 208.557C11.3767 205.815 17.2301 204.289 19.738 198.735Z" fill="#F9A138"/>
<path d="M4.08579 206.76C-0.296263 209.031 -3.66691 214.099 -9.21644 212.665C-17.7914 212.14 -25.1779 216.983 -32.3512 221.524C-34.5363 228.86 -28.3504 226.286 -25.208 226.057C-16.8281 225.448 -8.43027 223.402 -0.20647 221.886C10.0523 218.326 21.1304 219.531 30.2787 211.057C29.7535 209.545 29.2283 208.033 28.7031 206.521C21.4038 201.08 11.9254 209.176 4.08579 206.76Z" fill="#F79520"/>
<path d="M30.2493 212.088C19.8466 214.731 9.5003 216.167 -0.628947 220.393C-4.13699 220.018 -6.03433 221.3 -5.95198 224.844C-4.51497 227.031 -1.80145 227.407 1.12483 227.481C13.9328 226.496 26.311 223.023 38.1813 216.609C40.1177 215.553 43.4695 215.023 43.6215 212.837C43.7345 210.424 40.6346 210.877 38.3292 211.33C35.7328 211.633 32.8456 211.785 30.2493 212.088Z" fill="#ED8B15"/>
<path d="M38.3486 216.921C25.7303 217.611 13.6989 224.815 1.33296 225.428C0.0345067 228.686 0.715631 231.11 3.84204 232.32C15.3319 228.147 30.3998 232.456 38.3486 216.921Z" fill="#F79620"/>
<path d="M4.09982 231.677C3.16549 229.311 2.52336 227.097 1.58903 224.731C-0.554119 224.656 -2.40515 224.734 -4.5483 224.66C-14.0752 223.447 -23.5844 227.045 -33.2491 229.727C-37.1855 231.64 -39.6997 234.087 -38.4543 238.285C-34.3647 243.551 -27.3498 240.948 -21.427 241.324C-14.5675 237.805 -8.72018 231.461 -0.420922 233.285C0.0857039 233.132 0.884517 233.132 1.39114 232.978C2.36551 232.443 3.37877 232.136 4.09982 231.677Z" fill="#F49B31"/>
<path d="M-19.026 253.99C-11.8343 250.59 -4.85844 247.498 2.37211 244.329C4.29303 243.016 7.81989 241.702 4.29726 239.857C1.36174 238.319 1.52128 236.084 1.89672 233.54C-5.52397 232.393 -11.2479 236.562 -16.8164 241.656C-19.8942 244.049 -22.8942 246.905 -24.1718 250.451C-23.9601 253.303 -23.7096 256.385 -19.026 253.99Z" fill="#F99721"/>
<path d="M8.13912 192.533C11.5842 191.026 15.2809 189.444 18.726 187.938C21.6287 186.356 24.9785 185.828 25.902 181.988C18.1176 182.893 10.0424 183.649 2.25793 184.554C-5.63393 190.956 -17.2032 186.819 -24.3742 195.855C-20.9535 203.383 -13.7555 199.09 -7.92813 197.582C-2.89489 196.075 2.44617 193.288 8.13912 192.533Z" fill="#EA8D1D"/>
<path d="M3.64497 206.772C10.5085 214.289 20.1859 205.62 28.3109 206.526C30.0407 205.765 31.7703 205.004 36.9595 202.721C29.3008 201.435 23.5864 202.199 19.6787 199.542C14.2759 202.13 9.08678 204.413 3.64497 206.772Z" fill="#F08F19"/>
<path d="M-24.4883 195.891C-16.1358 190.242 -4.26114 194.348 2.22318 183.974C-3.73384 183.37 -10.5481 187.111 -16.3491 184.296C-21.2159 183.842 -25.9857 185.524 -30.6388 187.891C-33.9871 186.979 -36.6933 188.278 -39.1661 190.948C-40.763 194.075 -40.0041 196.972 -38.525 199.41C-37.5323 200.553 -36.3254 201.39 -34.9433 201.694C-30.1931 201.461 -26.7277 199.933 -24.4883 195.891Z" fill="#EC8B18"/>
<path d="M20.9124 150.052C-4.67815 157.928 -28.9433 170.378 -54.1421 180.503C-63.2824 184.178 -71.8972 189.353 -81.6806 190.854C-86.5724 191.604 -83.684 194.528 -82.3262 196.253C-81.1644 196.853 -79.7904 197.152 -78.2436 196.927C-60.3964 194.676 -45.5528 181.252 -28.1136 178.176C-20.0959 174.126 -10.6029 172.476 -4.83732 164.602C3.76815 163.926 12.5073 162.5 19.8818 156.276C20.4789 155.151 21.076 154.026 21.6731 152.901C21.438 151.552 21.0692 150.952 20.9124 150.052Z" fill="#FDA842"/>
<path d="M-4.68122 164.372C-13.6078 168.276 -22.4956 172.41 -31.4222 176.315C-38.0297 179.759 -40.8969 186.408 -45.342 191.607C-43.1019 193.82 -40.9973 193.665 -38.8525 190.607C-36.1433 189.306 -33.3952 188.234 -30.9393 187.009C-22.7703 177.07 -10.4346 175.989 0.538988 170.02C-1.15551 167.883 -2.77224 166.203 -4.68122 164.372Z" fill="#F49A30"/>
<path d="M-18.3051 254.412C-20.951 254.491 -22.0211 252.893 -22.6242 250.914C-23.7137 250.762 -25.0172 250.916 -26.204 251.754C-28.9667 254.269 -31.1067 257.316 -34.1223 259.907C-41.7293 266.766 -50.2704 271.265 -60.0176 271.806C-61.2822 272.188 -62.5078 272.798 -63.6946 273.636C-65.2705 275.313 -66.3016 277.065 -66.2432 278.968C-66.0487 280.11 -65.3482 281.099 -64.142 281.936C-58.0913 284.672 -50.9706 282.762 -44.1612 282.148C-35.1144 280.617 -25.7369 279.468 -17.5462 272.913C-9.64726 269.328 -1.49539 265.667 6.40352 262.082C7.97938 257.284 12.7266 257.052 16.3647 254.993C9.71094 253.399 3.01827 257.821 -3.46041 258.816C-10.6589 260.269 -15.5229 259.816 -18.3051 254.412Z" fill="#F7951F"/>
<path d="M-32.3961 292.257C-36.2043 293.157 -40.0516 293.832 -43.8598 294.732C-44.2217 297.206 -46.4047 298.331 -49.1456 300.806C-30.9532 297.505 -13.6252 296.829 2.7161 287.455C1.18547 286.256 -0.0547026 285.206 -1.58534 284.007C-11.2993 290.456 -21.8362 292.181 -32.3961 292.257Z" fill="#F18E18"/>
<path d="M-1.68185 309.763C-1.08383 308.635 -0.485803 307.507 0.0730945 306.154C-11.8319 306.156 -21.4954 314.503 -32.4054 318.715C-21.4674 319.239 -11.7591 314.2 -1.68185 309.763Z" fill="#F08D17"/>
<path d="M-24.1599 196.51C-27.6172 198.03 -31.3271 199.626 -34.7844 201.146C-36.8608 206.08 -41.4639 208.663 -45.406 212.004C-49.8143 215.725 -48.6282 218.001 -43.7322 218.681C-25.9795 210.701 -7.81853 203.556 8.59223 192.391C-2.2299 189.666 -13.2988 199.462 -24.1599 196.51Z" fill="#F19A33"/>
<path d="M-32.7063 223.26C-36.1499 224.765 -39.8451 226.345 -43.2887 227.851C-46.6764 228.152 -51.1485 228.304 -50.6177 232.892C-50.07 236.05 -46.3917 235.899 -42.8307 235.071C-39.2697 234.243 -36.7986 230.181 -32.9247 231.157C-23.343 229.952 -13.9179 227.843 -4.80573 223.93C-4.44222 221.448 -2.54706 220.169 -0.322121 219.266C-11.0105 218.667 -21.9787 224.085 -32.7063 223.26Z" fill="#EF8E1A"/>
<path d="M-20.7711 240.556C-22.5078 241.323 -24.2444 242.09 -26.2347 242.935C-24.6392 249.21 -19.7975 243.157 -16.4427 244.073C-10.7439 239.933 -5.08381 235.564 1.47217 233.337C-8.94175 228.525 -11.9856 229.447 -20.7711 240.556Z" fill="#FBA33A"/>
</g>
</svg>
