<svg width="90" height="40" viewBox="0 0 90 40" fill="none" xmlns="http://www.w3.org/2000/svg">
<g clip-path="url(#clip0)">
<rect width="375" height="7890" transform="translate(-143 -3720)" fill="white"/>
<g filter="url(#filter0_d)">
<path d="M-127 47.5995C-127 42.0767 -122.523 37.5995 -117 37.5995H26.8437C30.6738 37.5995 34.1675 35.4119 35.84 31.9662L42.4895 18.267C44.3124 14.5114 49.6628 14.5114 51.4857 18.267L58.1352 31.9662C59.8077 35.4119 63.3013 37.5995 67.1314 37.5995H205.422C210.945 37.5995 215.422 42.0767 215.422 47.5995V446C215.422 451.523 210.945 456 205.422 456H-117C-122.523 456 -127 451.523 -127 446V47.5995Z" fill="white"/>
<path d="M-126.5 47.5995C-126.5 42.3528 -122.247 38.0995 -117 38.0995H26.8437C30.8653 38.0995 34.5336 35.8025 36.2898 32.1846L42.9393 18.4853C44.5799 15.1053 49.3953 15.1053 51.0359 18.4853L57.6854 32.1846C59.4415 35.8025 63.1098 38.0995 67.1314 38.0995H205.422C210.669 38.0995 214.922 42.3528 214.922 47.5995V446C214.922 451.247 210.669 455.5 205.422 455.5H-117C-122.247 455.5 -126.5 451.247 -126.5 446V47.5995Z" stroke="url(#paint0_linear)"/>
</g>
</g>
<defs>
<filter id="filter0_d" x="-142" y="0.450302" width="372.422" height="470.55" filterUnits="userSpaceOnUse" color-interpolation-filters="sRGB">
<feFlood flood-opacity="0" result="BackgroundImageFix"/>
<feColorMatrix in="SourceAlpha" type="matrix" values="0 0 0 0 0 0 0 0 0 0 0 0 0 0 0 0 0 0 127 0" result="hardAlpha"/>
<feOffset/>
<feGaussianBlur stdDeviation="7.5"/>
<feColorMatrix type="matrix" values="0 0 0 0 0 0 0 0 0 0 0 0 0 0 0 0 0 0 0.1 0"/>
<feBlend mode="normal" in2="BackgroundImageFix" result="effect1_dropShadow"/>
<feBlend mode="normal" in="SourceGraphic" in2="effect1_dropShadow" result="shape"/>
</filter>
<linearGradient id="paint0_linear" x1="44.2112" y1="9" x2="44.2112" y2="456" gradientUnits="userSpaceOnUse">
<stop stop-color="#FFC536"/>
<stop offset="1" stop-color="#FFC536" stop-opacity="0"/>
</linearGradient>
<clipPath id="clip0">
<rect width="375" height="7890" fill="white" transform="translate(-143 -3720)"/>
</clipPath>
</defs>
</svg>
