<svg width="373" height="471" viewBox="0 0 373 471" fill="none" xmlns="http://www.w3.org/2000/svg">
<g filter="url(#filter0_d)">
<path d="M15 47.5995C15 42.0767 19.4772 37.5995 25 37.5995H168.844C172.674 37.5995 176.167 35.4119 177.84 31.9662L184.489 18.267C186.312 14.5114 191.663 14.5114 193.486 18.267L200.135 31.9662C201.808 35.4119 205.301 37.5995 209.131 37.5995H347.422C352.945 37.5995 357.422 42.0767 357.422 47.5995V446C357.422 451.523 352.945 456 347.422 456H25C19.4772 456 15 451.523 15 446V47.5995Z" fill="white"/>
<path d="M15.5 47.5995C15.5 42.3528 19.7533 38.0995 25 38.0995H168.844C172.865 38.0995 176.534 35.8025 178.29 32.1846L184.939 18.4853C186.58 15.1053 191.395 15.1053 193.036 18.4853L199.685 32.1846C201.441 35.8025 205.11 38.0995 209.131 38.0995H347.422C352.669 38.0995 356.922 42.3528 356.922 47.5995V446C356.922 451.247 352.669 455.5 347.422 455.5H25C19.7533 455.5 15.5 451.247 15.5 446V47.5995Z" stroke="url(#paint0_linear)"/>
</g>
<defs>
<filter id="filter0_d" x="0" y="0.450302" width="372.422" height="470.55" filterUnits="userSpaceOnUse" color-interpolation-filters="sRGB">
<feFlood flood-opacity="0" result="BackgroundImageFix"/>
<feColorMatrix in="SourceAlpha" type="matrix" values="0 0 0 0 0 0 0 0 0 0 0 0 0 0 0 0 0 0 127 0" result="hardAlpha"/>
<feOffset/>
<feGaussianBlur stdDeviation="7.5"/>
<feColorMatrix type="matrix" values="0 0 0 0 0 0 0 0 0 0 0 0 0 0 0 0 0 0 0.1 0"/>
<feBlend mode="normal" in2="BackgroundImageFix" result="effect1_dropShadow"/>
<feBlend mode="normal" in="SourceGraphic" in2="effect1_dropShadow" result="shape"/>
</filter>
<linearGradient id="paint0_linear" x1="186.211" y1="9" x2="186.211" y2="456" gradientUnits="userSpaceOnUse">
<stop stop-color="#FFC536"/>
<stop offset="1" stop-color="#FFC536" stop-opacity="0"/>
</linearGradient>
</defs>
</svg>
