<svg width="26" height="20" viewBox="0 0 26 20" fill="none" xmlns="http://www.w3.org/2000/svg">
<path d="M7.15 15.9202C7.71 13.6002 10.59 6.56024 12.35 3.44024C12.67 2.80024 12.83 2.32024 12.83 1.92024C12.83 1.04024 11.87 0.880242 11.23 0.800243C10.11 0.800243 9.23 1.52024 8.83 2.40024C8.67 2.72024 8.43 3.12024 8.11 3.60024C7.87 4.08024 7.55 4.72024 7.15 5.28024C6.43 6.40024 5.63 7.68024 5.07 8.88024C4.03 11.2002 2.03 14.0002 0.67 16.5602C0.43 16.9602 0.35 17.2802 0.35 17.6002C0.35 18.6402 1.63 18.8002 3.23 19.0402C3.47 19.0402 3.63 19.1202 3.79 19.1202C5.63 19.1202 6.59 17.7602 7.15 15.9202ZM19.87 15.9202C20.43 13.6002 23.31 6.56024 25.07 3.44024C25.39 2.80024 25.55 2.32024 25.55 1.92024C25.55 1.04024 24.59 0.880242 24.03 0.800243C22.83 0.800243 21.95 1.52024 21.63 2.40024C21.39 2.72024 21.23 3.12024 20.83 3.60024C20.59 4.08024 20.27 4.72024 19.87 5.28024C19.15 6.40024 18.35 7.68024 17.79 8.88024C16.75 11.2002 14.83 14.0002 13.39 16.5602C13.15 16.9602 13.07 17.2802 13.07 17.6002C13.07 18.6402 14.43 18.8002 16.03 19.0402C16.19 19.0402 16.35 19.1202 16.51 19.1202C18.35 19.1202 19.31 17.7602 19.87 15.9202Z" fill="#FB273E"/>
</svg>
