<svg width="28" height="20" viewBox="0 0 28 20" fill="none" xmlns="http://www.w3.org/2000/svg">
<path d="M10.48 19.48C8.34667 19.48 6.53333 19.08 5.04 18.28C3.57333 17.48 2.45333 16.3733 1.68 14.96C0.906667 13.5467 0.52 11.92 0.52 10.08C0.52 8.32 0.973333 6.73333 1.88 5.32C2.78667 3.90667 4 2.78667 5.52 1.96C7.04 1.10667 8.73333 0.679999 10.6 0.679999C13.1067 0.679999 15.16 1.41333 16.76 2.88C18.3867 4.32 19.44 6.41333 19.92 9.16L7.12 13.24C7.97333 14.2267 9.13333 14.72 10.6 14.72C11.2133 14.72 11.8 14.6133 12.36 14.4C12.9467 14.1867 13.52 13.9067 14.08 13.56L16.56 17.72C15.6267 18.2533 14.6133 18.68 13.52 19C12.4533 19.32 11.44 19.48 10.48 19.48ZM6.04 9.76C6.04 9.89333 6.04 10.0133 6.04 10.12L13.72 7.52C13.48 6.85333 13.0933 6.28 12.56 5.8C12.0267 5.29333 11.2267 5.04 10.16 5.04C8.90667 5.04 7.90667 5.46667 7.16 6.32C6.41333 7.17333 6.04 8.32 6.04 9.76ZM21.7094 16.12C21.7094 15.2933 22.0027 14.6 22.5894 14.04C23.2027 13.48 23.8694 13.2 24.5894 13.2C25.256 13.2 25.8827 13.48 26.4694 14.04C27.0827 14.6 27.3894 15.2933 27.3894 16.12C27.3894 17 27.0827 17.7067 26.4694 18.24C25.8827 18.7467 25.256 19 24.5894 19C23.8694 19 23.2027 18.7467 22.5894 18.24C22.0027 17.7067 21.7094 17 21.7094 16.12Z" fill="#FB273E"/>
</svg>
