<svg width="160" height="10" viewBox="0 0 160 10" fill="none" xmlns="http://www.w3.org/2000/svg">
<path d="M156.086 6.69147C156.086 6.57879 156.112 6.62105 156.15 6.71964C156.137 6.71964 156.112 6.70555 156.086 6.69147ZM158.147 0.00133148C131.329 2.22668 104.381 2.73373 77.4984 2.80415C56.1634 2.86049 34.8283 3.55063 13.5062 2.93091C9.46212 2.81823 5.41805 2.69147 1.37398 2.53654C-0.609169 2.45203 -0.32401 4.87457 1.45175 4.94499C13.2988 5.40978 25.1588 5.67739 37.0188 5.88865C62.6831 6.33936 88.3733 7.3957 114.038 6.69147C127.388 6.32527 140.726 5.73372 154.051 4.73372C153.649 5.42387 153.39 6.17034 153.441 7.01541C153.506 8.26894 154.297 9.42386 155.373 9.87457C157.084 10.5929 157.602 8.05767 156.513 6.98725C157.174 6.2126 159.196 4.32527 159.326 4.24077C160.726 3.19851 159.728 -0.125429 158.147 0.00133148Z" fill="#FB273E"/>
</svg>
