<svg width="19" height="28" viewBox="0 0 19 28" fill="none" xmlns="http://www.w3.org/2000/svg">
<path d="M17.5536 14.5282C18.2813 13.1002 18.688 11.4623 18.6658 9.72383C18.5975 4.28008 14.3614 -0.0729107 9.20702 0.000925598C4.0526 0.0747619 -0.0690356 4.54689 0.000876404 9.99065C0.0231211 11.7275 0.471194 13.3536 1.23705 14.7598H1.23387L1.24658 14.7799C1.4452 15.1424 1.66446 15.4915 1.9028 15.822L8.69285 26.6145C9.09113 27.2476 10.0179 27.2354 10.3994 26.5921L16.9132 15.6072C17.1436 15.2683 17.3534 14.9142 17.5424 14.5467L17.5536 14.5282Z" fill="#FB273E"/>
<path d="M13.0659 9.28296C13.0934 11.3446 11.4448 13.0387 9.38317 13.0662C7.32155 13.0937 5.62742 11.445 5.59995 9.38342C5.57247 7.32179 7.22109 5.62767 9.28271 5.60019C11.3443 5.57272 13.0385 7.22133 13.0659 9.28296Z" fill="#922C3C"/>
</svg>
