<?xml version="1.0" encoding="UTF-8" standalone="no"?>
<svg
   height="512pt"
   viewBox="-64 0 512 512"
   width="512pt"
   version="1.1"
   id="svg4"
   sodipodi:docname="lock.svg"
   inkscape:version="1.1 (c68e22c387, 2021-05-23)"
   xmlns:inkscape="http://www.inkscape.org/namespaces/inkscape"
   xmlns:sodipodi="http://sodipodi.sourceforge.net/DTD/sodipodi-0.dtd"
   xmlns="http://www.w3.org/2000/svg"
   xmlns:svg="http://www.w3.org/2000/svg">
  <defs
     id="defs8" />
  <sodipodi:namedview
     id="namedview6"
     pagecolor="#ffffff"
     bordercolor="#666666"
     borderopacity="1.0"
     inkscape:pageshadow="2"
     inkscape:pageopacity="0.0"
     inkscape:pagecheckerboard="0"
     inkscape:document-units="pt"
     showgrid="false"
     inkscape:zoom="1.21875"
     inkscape:cx="341.74359"
     inkscape:cy="341.74359"
     inkscape:window-width="1920"
     inkscape:window-height="1017"
     inkscape:window-x="-8"
     inkscape:window-y="-8"
     inkscape:window-maximized="1"
     inkscape:current-layer="svg4" />
  <path
     d="m336 192h-16v-64c0-70.59375-57.40625-128-128-128s-128 57.40625-128 128v64h-16c-26.453125 0-48 21.523438-48 48v224c0 26.476562 21.546875 48 48 48h288c26.453125 0 48-21.523438 48-48v-224c0-26.476562-21.546875-48-48-48zm-229.332031-64c0-47.0625 38.269531-85.332031 85.332031-85.332031s85.332031 38.269531 85.332031 85.332031v64h-170.664062zm0 0"
     id="path2"
     style="fill:#ffffff" />
</svg>
