<svg width="213" height="62" viewBox="0 0 213 62" fill="none" xmlns="http://www.w3.org/2000/svg">
<path d="M133.629 58.3343L209.762 34.1277L142.281 49.8182" fill="white"/>
<path d="M140.725 58.4253L212.079 22.6995L147.921 48.674" fill="white"/>
<g opacity="0.7">
<g opacity="0.7">
<path opacity="0.7" d="M146.578 58.2031L212.432 13.3179L152.382 47.5836" fill="white"/>
</g>
</g>
<g opacity="0.7">
<g opacity="0.7">
<path opacity="0.7" d="M153.205 58.1684L207.411 0L156.496 46.5426" fill="white"/>
</g>
</g>
<path d="M0 11.3137H3.87345V23.368H18.8335V11.3137H22.7222V39.7674H18.8335V26.6268H3.87345V39.7674H0V11.3137Z" fill="white"/>
<path d="M44.2695 26.4001V34.7581C44.2695 35.8745 44.3915 36.6138 44.6202 37.006C44.8642 37.3681 45.3065 37.5492 45.9317 37.5492H46.2825C46.3892 37.5492 46.4655 37.5341 46.5112 37.5039V39.9631L45.5047 40.2346C45.2912 40.2799 45.1387 40.295 45.0472 40.3101C44.9405 40.3251 44.7727 40.3251 44.544 40.3251C43.4918 40.3251 42.6835 40.0234 42.0888 39.435C41.7685 39.1182 41.5245 38.7259 41.3568 38.2884C41.189 37.8509 41.0975 37.338 41.0975 36.7345C40.0911 37.9565 39.0541 38.8617 38.0018 39.4501C36.9496 40.0385 35.7754 40.3251 34.5096 40.3251C32.5729 40.3251 31.0174 39.7669 29.8432 38.6505C28.669 37.5341 28.0742 36.0405 28.0742 34.1546C28.0742 32.6007 28.5317 31.2882 29.4772 30.2472C30.4074 29.2062 31.8104 28.4217 33.7014 27.9238L35.9126 27.4863C38.2306 27.079 39.9081 26.566 40.9908 25.9475V25.7212V25.3591C40.9908 24.2728 40.64 23.4129 39.9233 22.7943C39.2066 22.1758 38.2153 21.8589 36.9343 21.8589C35.6229 21.8589 34.5249 22.1305 33.6251 22.6585C32.7254 23.1866 31.9629 24.0163 31.3377 25.1629L28.913 23.8806C29.7669 22.3719 30.8649 21.2706 32.2069 20.5615C33.5489 19.8524 35.2264 19.5054 37.2393 19.5054C39.6641 19.5054 41.4483 20.0485 42.5768 21.1499C43.7053 22.2663 44.2695 24.0013 44.2695 26.4001ZM40.9755 28.0747C40.518 28.2859 39.9538 28.4971 39.3286 28.7083C38.7033 28.9195 37.9713 29.1157 37.1478 29.3269C35.5161 29.689 34.5096 29.9454 34.1131 30.1114C33.2134 30.4282 32.5272 30.911 32.0544 31.5748C31.5817 32.2235 31.3529 33.0382 31.3529 34.0038C31.3529 35.1956 31.6884 36.1159 32.3442 36.7647C33.0151 37.4134 33.9606 37.7453 35.1959 37.7453C36.8733 37.7453 38.2611 37.2474 39.3438 36.2366C40.4265 35.2258 40.9755 33.9283 40.9755 32.3141V28.0747Z" fill="white"/>
<path d="M61.4099 19.6861V23.2466L60.6169 23.0504H59.9764C58.3294 23.0504 57.0332 23.8048 56.0725 25.2984C55.1117 26.792 54.6237 28.8588 54.6237 31.4839V39.7666H51.2383V20.0783H54.334V25.585H54.5627C55.188 23.488 55.9352 21.9642 56.835 20.9836C57.7347 20.018 58.8174 19.5201 60.0832 19.5201C60.2662 19.5201 60.4034 19.5352 60.5101 19.5503C60.6169 19.5654 60.8456 19.6107 61.2116 19.7012H61.4099V19.6861Z" fill="white"/>
<path d="M75.7146 19.6861V23.2466L74.9216 23.0504H74.2811C72.6341 23.0504 71.3379 23.8048 70.3772 25.2984C69.4164 26.792 68.9284 28.8588 68.9284 31.4839V39.7666H65.543V20.0783H68.6387V25.585H68.8674C69.4927 23.488 70.2399 21.9642 71.1397 20.9836C72.0394 20.018 73.1221 19.5201 74.3879 19.5201C74.5709 19.5201 74.7081 19.5352 74.8149 19.5503C74.9216 19.5654 75.1503 19.6107 75.5163 19.7012H75.7146V19.6861Z" fill="white"/>
<path d="M86.6965 19.5201C89.4567 19.5201 91.7137 20.4857 93.437 22.4017C95.1602 24.3177 96.0294 26.8372 96.0294 29.9149C96.0294 33.0228 95.1602 35.5272 93.437 37.4432C91.7137 39.3592 89.4567 40.3097 86.6965 40.3097C83.9516 40.3097 81.7098 39.3441 79.9714 37.4281C78.2481 35.5121 77.3789 32.9926 77.3789 29.8998C77.3789 26.7769 78.2329 24.2574 79.9409 22.3564C81.6488 20.4555 83.9058 19.5201 86.6965 19.5201ZM86.6965 22.1C84.8971 22.1 83.4788 22.794 82.4418 24.1819C81.4049 25.5699 80.8711 27.4859 80.8711 29.9149C80.8711 32.359 81.3896 34.2599 82.4266 35.6328C83.4636 37.0057 84.8818 37.6846 86.7118 37.6846C88.496 37.6846 89.899 36.9906 90.9512 35.6026C91.9882 34.2146 92.5067 32.3288 92.5067 29.9149C92.5067 27.501 91.9882 25.6001 90.9512 24.197C89.899 22.794 88.4808 22.1 86.6965 22.1Z" fill="white"/>
<path d="M97.9355 20.0778H101.199L105.774 35.6926L110.761 20.0778H113.933L118.828 35.6775L123.403 20.0929H126.681L120.521 39.7962H117.227L112.27 24.2569L107.314 39.7962H104.051L97.9355 20.0778Z" fill="white"/>
<path d="M9.07233 50.3478L7.95367 51.1184C7.59054 50.4753 7.16299 49.9943 6.66515 49.6699C6.16731 49.3454 5.60505 49.1889 4.96665 49.1889C3.90069 49.1889 3.06316 49.5771 2.4599 50.342C1.85664 51.1068 1.55208 52.1962 1.55208 53.5868C1.55208 54.9368 1.86249 55.9972 2.48918 56.7678C3.11587 57.5385 3.97683 57.9209 5.07207 57.9209C5.7339 57.9209 6.31959 57.7471 6.84085 57.3936C7.35626 57.046 7.8131 56.5187 8.19965 55.8176L9.29489 56.6404C8.80292 57.5443 8.19966 58.2106 7.48512 58.6452C6.77058 59.0797 5.91547 59.2941 4.92565 59.2941C3.41457 59.2941 2.21391 58.7842 1.32952 57.7644C0.445127 56.7447 0 55.354 0 53.581C0 51.8079 0.439267 50.4115 1.3178 49.3975C2.19634 48.3835 3.40871 47.8794 4.95493 47.8794C5.90375 47.8794 6.71786 48.088 7.40897 48.4994C8.10009 48.9108 8.6565 49.5366 9.07233 50.3478Z" fill="white"/>
<path d="M13.7172 51.2866C14.7773 51.2866 15.6442 51.6575 16.306 52.3933C16.9678 53.1292 17.3017 54.0968 17.3017 55.2789C17.3017 56.4725 16.9678 57.4343 16.306 58.1702C15.6442 58.9061 14.7773 59.2711 13.7172 59.2711C12.663 59.2711 11.802 58.9003 11.1343 58.1644C10.4667 57.4285 10.1387 56.4609 10.1387 55.2731C10.1387 54.0737 10.4667 53.106 11.1226 52.3759C11.7845 51.6517 12.6454 51.2866 13.7172 51.2866ZM13.7172 52.2774C13.0261 52.2774 12.4814 52.544 12.0832 53.077C11.679 53.6101 11.4799 54.346 11.4799 55.2789C11.4799 56.2175 11.679 56.9476 12.0773 57.4749C12.4756 58.0022 13.0203 58.2629 13.7231 58.2629C14.4083 58.2629 14.9472 57.9964 15.3513 57.4633C15.7496 56.9302 15.9487 56.2059 15.9487 55.2789C15.9487 54.3518 15.7496 53.6217 15.3513 53.0828C14.953 52.544 14.4084 52.2774 13.7172 52.2774Z" fill="white"/>
<path d="M19.334 48.1344H20.6284V59.0624H19.334V48.1344Z" fill="white"/>
<path d="M23.457 48.1344H24.7514V59.0624H23.457V48.1344Z" fill="white"/>
<path d="M33.5089 55.6555H28.1147C28.1147 56.5131 28.308 57.162 28.6886 57.6024C29.0693 58.0427 29.6257 58.2629 30.352 58.2629C30.803 58.2629 31.1837 58.1528 31.5 57.9384C31.8104 57.7241 32.1032 57.3706 32.3726 56.8781L33.3039 57.4227C32.9876 58.0485 32.5776 58.5179 32.0739 58.8192C31.5702 59.1205 30.9553 59.2769 30.2232 59.2769C29.1396 59.2769 28.3021 58.9293 27.6988 58.2397C27.0956 57.5502 26.7969 56.5594 26.7969 55.2789C26.7969 54.0505 27.0956 53.0713 27.6871 52.3586C28.2845 51.6401 29.0986 51.2866 30.1353 51.2866C31.2188 51.2866 32.0564 51.6401 32.6362 52.3412C33.216 53.0423 33.5089 54.0563 33.5089 55.3716V55.6555ZM32.1676 54.6936C32.1676 53.9056 31.9919 53.2914 31.6405 52.8627C31.2891 52.4339 30.7854 52.2195 30.1412 52.2195C29.5086 52.2195 29.0166 52.4339 28.6594 52.8685C28.4837 53.0828 28.3489 53.3436 28.2552 53.6507C28.1615 53.9578 28.1147 54.3054 28.1147 54.6936H32.1676Z" fill="white"/>
<path d="M40.3316 57.7818C40.0095 58.2801 39.6464 58.6567 39.2364 58.9059C38.8264 59.155 38.3637 59.2767 37.8483 59.2767C36.8995 59.2767 36.1557 58.9232 35.6051 58.2163C35.0546 57.5094 34.7852 56.5302 34.7852 55.2845C34.7852 54.0503 35.0604 53.071 35.611 52.3583C36.1615 51.6457 36.9053 51.2864 37.8483 51.2864C38.3696 51.2864 38.8323 51.4081 39.2364 51.6514C39.6405 51.8948 40.0036 52.2714 40.3316 52.7813V51.5008H41.6084V59.1956C41.6084 60.0763 41.3039 60.76 40.6889 61.2583C40.0739 61.7566 39.213 62 38.106 62C37.1513 62 36.4134 61.7856 35.8862 61.3626C35.3591 60.9339 35.0956 60.3255 35.0956 59.5316V59.5027L36.3431 59.6997C36.4368 60.1632 36.6359 60.5167 36.9405 60.76C37.245 60.9976 37.655 61.1193 38.1763 61.1193C38.8733 61.1193 39.4004 60.9512 39.7694 60.6094C40.1383 60.2675 40.3258 59.7808 40.3258 59.1434V57.7818H40.3316ZM38.2583 58.3148C38.5277 58.3148 38.7678 58.2569 38.9845 58.1468C39.2012 58.0367 39.4355 57.8571 39.6757 57.6137C39.9041 57.3646 40.0681 57.0923 40.1735 56.8025C40.2789 56.5128 40.3316 56.0899 40.3316 55.5394C40.3316 54.931 40.3023 54.4675 40.2438 54.143C40.1852 53.8185 40.0856 53.5462 39.9451 53.326C39.7342 52.9783 39.4824 52.7118 39.1954 52.5264C38.9084 52.341 38.5921 52.2483 38.2583 52.2483C37.5965 52.2483 37.0693 52.5148 36.6945 53.0537C36.3197 53.5925 36.1264 54.3342 36.1264 55.2787C36.1264 56.2231 36.3197 56.959 36.7004 57.5037C37.081 58.0425 37.6023 58.3148 38.2583 58.3148Z" fill="white"/>
<path d="M44.2012 48.3197H45.4956V49.9305H44.2012V48.3197ZM44.2012 51.5008H45.4956V59.0681H44.2012V51.5008Z" fill="white"/>
<path d="M53.7727 53.9285V57.1386C53.7727 57.5673 53.8196 57.8513 53.9074 58.0019C54.0012 58.141 54.171 58.2105 54.4111 58.2105H54.5458C54.5868 58.2105 54.6161 58.2047 54.6337 58.1931V59.1376L54.2471 59.2419C54.171 59.2593 54.1066 59.2651 54.0714 59.2708C54.0304 59.2766 53.966 59.2766 53.8782 59.2766C53.474 59.2766 53.1636 59.1608 52.9352 58.9348C52.8122 58.8131 52.7185 58.6625 52.6541 58.4944C52.5896 58.3264 52.5545 58.1294 52.5545 57.8976C52.168 58.3669 51.7697 58.7146 51.3656 58.9406C50.9614 59.1666 50.5105 59.2766 50.0243 59.2766C49.2805 59.2766 48.6831 59.0623 48.2321 58.6335C47.7811 58.2047 47.5527 57.6311 47.5527 56.9068C47.5527 56.31 47.7284 55.8059 48.0857 55.4061C48.443 55.0063 48.9818 54.705 49.7081 54.5138L50.5573 54.3457C51.4476 54.1893 52.0918 53.9923 52.5077 53.7547V53.6678V53.5287C52.5077 53.1115 52.3729 52.7813 52.0977 52.5437C51.8224 52.3061 51.4417 52.1845 50.9497 52.1845C50.446 52.1845 50.0243 52.2888 49.6788 52.4916C49.3332 52.6944 49.0404 53.013 48.8002 53.4534L47.869 52.9609C48.197 52.3815 48.6187 51.9585 49.1341 51.6861C49.6495 51.4138 50.2938 51.2805 51.0669 51.2805C51.9981 51.2805 52.6834 51.4891 53.1168 51.9121C53.556 52.3409 53.7727 53.0072 53.7727 53.9285ZM52.5077 54.5717C52.3319 54.6528 52.1211 54.7339 51.8751 54.8151C51.6291 54.8962 51.3538 54.9715 51.0317 55.0526C50.405 55.1917 50.0185 55.2902 49.8662 55.3539C49.5206 55.4756 49.2571 55.661 49.0755 55.916C48.894 56.1651 48.8061 56.478 48.8061 56.8488C48.8061 57.3066 48.935 57.66 49.1868 57.9092C49.4445 58.1583 49.8076 58.2858 50.282 58.2858C50.9263 58.2858 51.4593 58.0946 51.8751 57.7064C52.2968 57.324 52.5018 56.8199 52.5018 56.1999V54.5717H52.5077Z" fill="white"/>
<path d="M57.8212 48.198V51.4949H59.3439V52.5205H57.8212V57.1038C57.8212 57.5383 57.8914 57.8223 58.0262 57.9671C58.1609 58.112 58.4303 58.1873 58.8285 58.1873L59.057 58.1641L59.4201 58.1004V59.1086C59.3732 59.126 59.2854 59.1433 59.1682 59.1665C59.0511 59.1897 58.9223 59.2129 58.7817 59.2418C58.6411 59.265 58.483 59.2766 58.3073 59.2766C57.6864 59.2766 57.2413 59.1376 56.9661 58.8594C56.6966 58.5813 56.5561 58.1178 56.5561 57.4688V52.5205H55.2324V51.4949H56.5561V48.9107L57.8212 48.198Z" fill="white"/>
<path d="M67.2315 55.6555H61.8373C61.8373 56.5131 62.0306 57.162 62.4113 57.6024C62.792 58.0427 63.3484 58.2629 64.0747 58.2629C64.5256 58.2629 64.9064 58.1528 65.2226 57.9384C65.533 57.7241 65.8259 57.3706 66.0953 56.8781L67.0266 57.4227C66.7103 58.0485 66.3003 58.5179 65.7966 58.8192C65.2988 59.1205 64.6779 59.2769 63.9458 59.2769C62.8623 59.2769 62.0248 58.9293 61.4215 58.2397C60.8182 57.5502 60.5195 56.5594 60.5195 55.2789C60.5195 54.0505 60.8182 53.0713 61.4098 52.3586C62.0072 51.6401 62.8213 51.2866 63.858 51.2866C64.9415 51.2866 65.779 51.6401 66.3589 52.3412C66.9387 53.0423 67.2315 54.0563 67.2315 55.3716V55.6555ZM65.8962 54.6936C65.8962 53.9056 65.7205 53.2914 65.369 52.8627C65.0176 52.4339 64.5198 52.2195 63.8697 52.2195C63.2371 52.2195 62.7451 52.4339 62.3879 52.8685C62.2122 53.0828 62.0775 53.3436 61.9838 53.6507C61.89 53.9578 61.8432 54.3054 61.8432 54.6936H65.8962Z" fill="white"/>
<path d="M76.0099 48.135H77.7728L82.0893 59.063H80.6134L79.6119 56.444H74.2118L73.1869 59.063H71.7402L76.0099 48.135ZM76.8884 49.3982L74.6628 55.1925H79.155L76.8884 49.3982Z" fill="white"/>
<path d="M83.4902 48.135H84.7846V59.063H83.4902V48.135Z" fill="white"/>
<path d="M87.6191 48.135H88.9135V59.063H87.6191V48.135Z" fill="white"/>
<path d="M91.7305 48.3203H93.0249V49.9311H91.7305V48.3203ZM91.7305 51.5014H93.0249V59.0687H91.7305V51.5014Z" fill="white"/>
<path d="M101.294 53.9291V57.1391C101.294 57.5679 101.341 57.8518 101.429 58.0025C101.523 58.1415 101.693 58.211 101.933 58.211H102.067C102.108 58.211 102.138 58.2053 102.155 58.1937V59.1381L101.769 59.2424C101.693 59.2598 101.628 59.2656 101.593 59.2714C101.552 59.2772 101.488 59.2772 101.4 59.2772C100.996 59.2772 100.685 59.1613 100.457 58.9353C100.334 58.8136 100.24 58.663 100.176 58.495C100.111 58.3269 100.076 58.1299 100.076 57.8982C99.6894 58.3675 99.2912 58.7151 98.8871 58.9411C98.4829 59.1671 98.0319 59.2772 97.5458 59.2772C96.802 59.2772 96.2046 59.0628 95.7536 58.634C95.3026 58.2053 95.0742 57.6316 95.0742 56.9073C95.0742 56.3105 95.2558 55.8064 95.6131 55.4066C95.9703 55.0068 96.5091 54.7055 97.2354 54.5143L98.0847 54.3463C98.9749 54.1898 99.6192 53.9928 100.035 53.7553V53.6683V53.5293C100.035 53.1121 99.9003 52.7818 99.625 52.5442C99.3498 52.3067 98.969 52.185 98.4771 52.185C97.9734 52.185 97.5517 52.2893 97.2061 52.4921C96.8606 52.6949 96.5677 53.0136 96.3276 53.4539L95.3905 52.9614C95.7185 52.382 96.1402 51.959 96.6556 51.6867C97.171 51.4144 97.8152 51.2811 98.5883 51.2811C99.5196 51.2811 100.205 51.4897 100.638 51.9127C101.078 52.3415 101.294 53.0078 101.294 53.9291ZM100.029 54.5722C99.8534 54.6534 99.6367 54.7345 99.3966 54.8156C99.1506 54.8967 98.8753 54.972 98.5532 55.0532C97.9265 55.1922 97.54 55.2907 97.3877 55.3545C97.0421 55.4761 96.7786 55.6616 96.597 55.9165C96.4154 56.1657 96.3276 56.4786 96.3276 56.8494C96.3276 57.3071 96.4564 57.6606 96.7083 57.9097C96.966 58.1589 97.3291 58.2864 97.8035 58.2864C98.4478 58.2864 98.9808 58.0952 99.3966 57.7069C99.8124 57.3187 100.023 56.8204 100.023 56.2004V54.5722H100.029Z" fill="white"/>
<path d="M110.202 54.1317V59.0626H108.937V54.3924C108.937 53.6392 108.814 53.0945 108.562 52.7526C108.311 52.4108 107.906 52.2369 107.338 52.2369C106.682 52.2369 106.155 52.4687 105.757 52.9265C105.359 53.3842 105.16 53.9984 105.16 54.769V59.0684H103.895V51.5011H105.16V52.967C105.447 52.405 105.81 51.982 106.243 51.6981C106.677 51.4141 107.186 51.2751 107.766 51.2751C108.586 51.2751 109.195 51.5127 109.599 51.9878C109.997 52.4571 110.202 53.1756 110.202 54.1317Z" fill="white"/>
<path d="M118.757 53.338L117.679 53.8769C117.468 53.3496 117.199 52.9498 116.871 52.6833C116.543 52.4167 116.145 52.2835 115.676 52.2835C115.009 52.2835 114.47 52.5558 114.06 53.0946C113.656 53.6335 113.451 54.3636 113.451 55.2849C113.451 56.1946 113.65 56.9189 114.054 57.4693C114.458 58.014 114.997 58.2921 115.676 58.2921C116.133 58.2921 116.525 58.1588 116.853 57.8923C117.181 57.6258 117.457 57.226 117.673 56.6871L118.751 57.2144C118.441 57.8981 118.019 58.4138 117.492 58.7615C116.965 59.1091 116.332 59.2829 115.6 59.2829C114.563 59.2829 113.72 58.9121 113.076 58.1646C112.432 57.4172 112.109 56.4437 112.109 55.2443C112.109 54.0623 112.432 53.1062 113.082 52.382C113.732 51.6577 114.581 51.2926 115.623 51.2926C116.35 51.2926 116.976 51.4665 117.504 51.8141C118.048 52.1502 118.464 52.6601 118.757 53.338Z" fill="white"/>
<path d="M126.591 55.6557H121.197C121.197 56.5132 121.39 57.1622 121.771 57.6025C122.151 58.0429 122.708 58.2631 123.434 58.2631C123.885 58.2631 124.266 58.153 124.582 57.9386C124.892 57.7242 125.185 57.3708 125.455 56.8782L126.386 57.4229C126.07 58.0487 125.66 58.518 125.156 58.8193C124.658 59.1206 124.037 59.2771 123.305 59.2771C122.222 59.2771 121.384 58.9294 120.781 58.2399C120.178 57.5504 119.879 56.5596 119.879 55.279C119.879 54.0506 120.178 53.0714 120.769 52.3587C121.367 51.6402 122.181 51.2868 123.217 51.2868C124.301 51.2868 125.138 51.6402 125.718 52.3413C126.298 53.0424 126.591 54.0564 126.591 55.3717V55.6557ZM125.256 54.6938C125.256 53.9058 125.08 53.2916 124.728 52.8628C124.377 52.434 123.879 52.2197 123.229 52.2197C122.596 52.2197 122.105 52.434 121.747 52.8686C121.572 53.083 121.437 53.3437 121.343 53.6508C121.249 53.9579 121.203 54.3056 121.203 54.6938H125.256Z" fill="white"/>
</svg>
