<svg width="22" height="26" viewBox="0 0 22 26" fill="none" xmlns="http://www.w3.org/2000/svg">
<path d="M3.52 0.84H9.12V8.44H13.36V12.8H9.12V26H3.52V12.8H0.8V8.44H3.52V0.84ZM15.3422 23.12C15.3422 22.2933 15.6355 21.6 16.2222 21.04C16.8355 20.48 17.5022 20.2 18.2222 20.2C18.8889 20.2 19.5155 20.48 20.1022 21.04C20.7155 21.6 21.0222 22.2933 21.0222 23.12C21.0222 24 20.7155 24.7067 20.1022 25.24C19.5155 25.7467 18.8889 26 18.2222 26C17.5022 26 16.8355 25.7467 16.2222 25.24C15.6355 24.7067 15.3422 24 15.3422 23.12Z" fill="#FB273E"/>
</svg>
