<svg width="300" height="174" viewBox="0 0 300 174" fill="none" xmlns="http://www.w3.org/2000/svg">
<g clip-path="url(#clip0)">
<path d="M92.0893 174C91.4677 174 90.8412 173.866 90.2437 173.586C88.0753 172.566 87.1501 169.987 88.1717 167.822C88.2873 167.576 99.7606 143.294 108.343 124.951C110.453 120.437 110.405 118.661 110.342 118.228C108.858 117.391 102.873 117.959 99.2594 118.3C96.1225 118.599 92.8747 118.902 89.5498 118.955C85.1263 119.022 73.4892 120.264 61.1679 121.577C36.029 124.258 17.6988 126.101 10.7551 125.331C5.58953 124.758 2.21648 122.766 0.72751 119.398C-1.37824 114.643 1.6816 109.658 2.50078 108.455C3.50788 106.747 10.307 95.9243 26.8928 84.5437C34.9207 79.0339 79.5897 55.5124 124.846 34.3104C149.942 22.5545 170.638 13.6377 186.357 7.81508C212.209 -1.76578 219.543 -1.27494 222.993 2.61803C227.677 7.89688 221.012 15.4422 218.502 18.2814C201.593 37.4094 171.934 54.7762 130.349 69.8909C99.6112 81.0646 73.364 86.8006 73.1038 86.8535C70.7619 87.3636 68.4538 85.8766 67.9478 83.538C67.4418 81.1993 68.926 78.8943 71.2678 78.389C72.2894 78.1677 173.804 55.7626 212.006 12.5454C213.519 10.8371 214.454 9.57149 215.028 8.67644C209.371 9.01328 189.706 13.3057 124.933 43.8431C81.5123 64.3137 39.1659 86.6273 31.803 91.68C15.9352 102.57 9.99861 112.805 9.94078 112.906C9.84923 113.065 9.78177 113.18 9.67094 113.325C9.13125 114.09 8.63493 115.351 8.66866 115.861C8.85659 116.005 9.61793 116.486 11.714 116.717C18.2578 117.439 41.5464 114.956 60.2524 112.959C73.3206 111.564 84.6059 110.361 89.4246 110.288C92.4073 110.245 95.4768 109.951 98.4451 109.672C106.757 108.888 113.932 108.21 117.459 113.209C120.63 117.699 118.452 123.801 116.202 128.613C107.61 146.971 96.1321 171.272 96.0165 171.512C95.2744 173.086 93.718 174 92.0893 174Z" fill="#041F32"/>
<path d="M141.63 126.635H139.905C139.697 126.635 137.809 126.62 135.582 126.125C132.031 125.331 129.458 123.752 127.926 121.428C126.668 119.527 125.593 116.284 127.588 111.635C131.983 101.4 147.899 94.1676 149.696 93.3736C149.971 93.2533 150.255 93.1619 150.539 93.0993C150.612 92.9405 150.689 92.7866 150.771 92.6278C157.257 79.6785 173.809 67.2489 178.55 66.2094C180.401 65.8052 181.711 66.4501 182.405 66.9505C182.497 67.0034 182.608 67.0612 182.728 67.1334C184.241 67.9707 187.783 69.934 188.66 73.9376C189.257 76.6517 188.477 79.5004 186.347 82.4069C183.995 85.6069 174.454 95.1204 164.87 104.427C166.894 105.043 169 105.457 170.667 105.62C173.047 105.856 174.792 107.973 174.556 110.351C174.324 112.728 172.204 114.47 169.829 114.239C168.874 114.147 163.179 113.512 157.999 111.058C150.674 118.098 144.425 123.998 142.883 125.451L141.63 126.635ZM149.744 102.998C144.256 105.938 137.438 110.678 135.558 115.047C135.134 116.034 135.134 116.558 135.168 116.669C135.409 117.078 136.787 117.593 138.324 117.833C142.256 114.119 146.675 109.913 151.118 105.644C150.886 105.317 150.674 104.976 150.477 104.619C150.221 104.143 149.966 103.599 149.744 102.998ZM179.418 75.2273C175.23 77.6814 163.526 86.526 158.529 96.5015C157.902 97.7478 157.739 98.6332 157.753 99.2492C168.147 89.1727 177.403 79.9383 179.355 77.2772C179.904 76.5314 180.107 76.0261 180.165 75.7999C180.015 75.6315 179.721 75.4246 179.418 75.2273ZM177.153 73.8366L177.158 73.8414C177.158 73.8414 177.153 73.8414 177.153 73.8366ZM182.468 66.9986C182.502 67.0275 182.535 67.0516 182.569 67.0756C182.54 67.0516 182.506 67.0227 182.468 66.9986Z" fill="#041F32"/>
<path d="M184.887 124.277L181.22 119.999C180.955 119.691 174.773 112.338 175.534 101.934C176.32 91.213 187.224 83.735 187.687 83.4222C189.672 82.0845 192.366 82.6042 193.71 84.5867C195.05 86.5645 194.534 89.2497 192.554 90.5922C190.361 92.0936 184.579 97.1655 184.184 102.565C184.01 104.932 184.4 107.083 184.979 108.883L187.706 104.932L189.749 104.764C190.347 104.716 194.876 104.427 198.962 106.703C199.758 105.202 200.702 102.926 201.348 100.828L202.292 97.7719L209.342 97.767C211.452 95.1156 215.616 90.2361 219.625 87.5702C226.376 83.0758 230.125 86.7955 231.113 88.0418C232.597 89.9185 232.283 92.6422 230.404 94.1243C228.872 95.3369 226.776 95.3466 225.248 94.2927C225.041 94.3986 224.766 94.5526 224.434 94.7787C220.96 97.0934 216.42 102.704 214.965 104.672L213.664 106.429H208.605C206.455 112.16 203.897 115.451 200.967 116.231C199.015 116.751 197.021 116.231 195.483 114.802C194.664 114.042 193.407 113.671 192.322 113.503L184.887 124.277Z" fill="#041F32"/>
<path d="M229.002 117.458C228.698 117.458 228.395 117.424 228.091 117.362C226.723 117.068 225.58 116.135 225.022 114.85L222.993 110.182L217.668 114.066C216.666 114.797 215.399 115.062 214.189 114.802C212.98 114.537 211.939 113.772 211.327 112.694L209.404 109.282C208.667 107.973 208.662 106.376 209.39 105.062L218.237 89.0812C219.393 86.988 222.034 86.2277 224.13 87.3874C226.226 88.5423 226.988 91.1793 225.826 93.2725L222.005 100.183L222.256 99.9998C223.321 99.2251 224.684 98.9749 225.952 99.3165C227.224 99.663 228.269 100.568 228.795 101.775L230.563 105.856L250.218 87.9793C251.992 86.3672 254.733 86.4971 256.343 88.2632C257.957 90.0292 257.827 92.7721 256.059 94.3793L231.917 116.337C231.117 117.063 230.071 117.458 229.002 117.458Z" fill="#041F32"/>
<path d="M262.419 118.189C259.629 118.189 257.74 117.189 256.526 116.135C255.798 115.5 252.223 111.992 253.591 105.043C253.664 104.643 255.678 94.2638 263.662 87.806C268.303 84.0574 273.271 84.375 277.27 86.2276C277.371 85.3326 277.439 84.3413 277.439 83.2586C277.439 76.1752 288.565 57.6776 291.977 52.1773C293.104 50.3584 295.393 49.6318 297.364 50.4739C299.335 51.3112 300.4 53.4574 299.87 55.5314L291.529 88.0803C291.461 88.3498 291.365 88.6144 291.244 88.8646C290.073 91.3332 279.439 113.118 267.594 117.222C265.599 117.91 263.884 118.189 262.419 118.189ZM262.207 109.528C262.496 109.557 263.272 109.552 264.756 109.037C268.52 107.733 273.025 102.425 276.865 96.641C276.755 96.5351 276.649 96.4244 276.552 96.3089C276.494 96.2416 275.256 94.8509 273.565 94.0473C271.854 93.2292 270.563 93.3736 269.122 94.5381C263.662 98.9508 262.12 106.607 262.106 106.684C261.928 107.656 261.985 108.989 262.207 109.528Z" fill="#041F32"/>
</g>
<defs>
<clipPath id="clip0">
<rect width="300" height="174" fill="white"/>
</clipPath>
</defs>
</svg>
