<svg width="24" height="20" viewBox="0 0 24 20" fill="none" xmlns="http://www.w3.org/2000/svg">
<path d="M23.6196 2.8797C22.8116 3.20275 21.9503 3.42088 21.0497 3.5258C22.0036 2.97358 22.7471 2.11488 23.137 1.08775C23.1623 1.02424 23.0893 0.963499 23.0276 0.999393C22.127 1.49363 21.1423 1.85533 20.093 2.05413C19.2009 1.13193 17.93 0.557617 16.5188 0.557617C13.8171 0.557617 11.6232 2.6809 11.6232 5.30119C11.6232 5.67394 11.6681 6.03564 11.7495 6.38354C7.69551 6.18474 4.09604 4.30995 1.6833 1.45774C1.67208 1.44393 1.64684 1.44393 1.63842 1.4605C1.23162 2.15353 0.995956 2.95701 0.995956 3.81296C0.995956 5.41992 1.82358 6.84465 3.08887 7.70335C3.11412 7.71991 3.10009 7.75857 3.06923 7.75581C2.32296 7.71715 1.61597 7.51559 0.995956 7.18702C0.979123 7.17874 0.956678 7.18978 0.959483 7.20911C0.970705 7.41895 1.04085 8.34668 1.29054 8.94584C1.90775 10.4258 3.23756 11.5578 4.88719 11.8781C4.47478 11.9831 4.03993 12.0466 3.59386 12.0466C3.29647 12.0466 3.0047 12.0189 2.71573 11.9665C2.6961 11.9637 2.67926 11.9831 2.68487 12.0024C3.31611 13.8385 5.07236 15.1804 7.16246 15.2494C7.19052 15.2494 7.20174 15.2853 7.1793 15.3019C5.51283 16.5472 3.43114 17.2844 1.16429 17.2844C0.768712 17.2844 0.384355 17.2623 0 17.2181C2.16585 18.5628 4.74131 19.3469 7.50473 19.3469C11.3146 19.3469 14.3923 18.0547 16.6759 16.0888C18.9821 14.1036 20.4774 11.4364 21.1002 8.71667C21.3191 7.76133 21.4341 6.79495 21.4341 5.85341C21.4341 5.64909 21.4285 5.44477 21.4172 5.24045C22.3038 4.6192 23.0809 3.85989 23.7094 2.99567C23.757 2.9294 23.6897 2.85209 23.6196 2.8797Z" fill="white"/>
</svg>
