<?xml version="1.0" encoding="UTF-8" standalone="no"?>
<svg
   width="24"
   height="23"
   viewBox="0 0 24 23"
   fill="none"
   version="1.1"
   id="svg15"
   sodipodi:docname="social-instagram.svg"
   inkscape:version="1.1 (c68e22c387, 2021-05-23)"
   xmlns:inkscape="http://www.inkscape.org/namespaces/inkscape"
   xmlns:sodipodi="http://sodipodi.sourceforge.net/DTD/sodipodi-0.dtd"
   xmlns="http://www.w3.org/2000/svg"
   xmlns:svg="http://www.w3.org/2000/svg">
  <sodipodi:namedview
     id="namedview17"
     pagecolor="#ffffff"
     bordercolor="#666666"
     borderopacity="1.0"
     inkscape:pageshadow="2"
     inkscape:pageopacity="0.0"
     inkscape:pagecheckerboard="0"
     showgrid="false"
     inkscape:zoom="36.173913"
     inkscape:cx="12.011418"
     inkscape:cy="11.513822"
     inkscape:window-width="1920"
     inkscape:window-height="1017"
     inkscape:window-x="-8"
     inkscape:window-y="-8"
     inkscape:window-maximized="1"
     inkscape:current-layer="svg15" />
  <g
     clip-path="url(#clip0)"
     id="g8"
     style="fill:#fb273e;fill-opacity:1">
    <path
       d="M16.5977 0H7.97266C4.00372 0 0.785156 3.21856 0.785156 7.1875V15.8125C0.785156 19.7814 4.00372 23 7.97266 23H16.5977C20.5666 23 23.7852 19.7814 23.7852 15.8125V7.1875C23.7852 3.21856 20.5666 0 16.5977 0ZM21.6289 15.8125C21.6289 18.5869 19.372 20.8438 16.5977 20.8438H7.97266C5.19828 20.8438 2.94141 18.5869 2.94141 15.8125V7.1875C2.94141 4.41313 5.19828 2.15625 7.97266 2.15625H16.5977C19.372 2.15625 21.6289 4.41313 21.6289 7.1875V15.8125Z"
       fill="white"
       id="path2"
       style="fill:#fb273e;fill-opacity:1" />
    <path
       d="M12.2852 5.75006C9.10972 5.75006 6.53516 8.32462 6.53516 11.5001C6.53516 14.6755 9.10972 17.2501 12.2852 17.2501C15.4606 17.2501 18.0352 14.6755 18.0352 11.5001C18.0352 8.32462 15.4606 5.75006 12.2852 5.75006ZM12.2852 15.0938C10.3043 15.0938 8.69141 13.4809 8.69141 11.5001C8.69141 9.51775 10.3043 7.90631 12.2852 7.90631C14.266 7.90631 15.8789 9.51775 15.8789 11.5001C15.8789 13.4809 14.266 15.0938 12.2852 15.0938Z"
       fill="white"
       id="path4"
       style="fill:#fb273e;fill-opacity:1" />
    <path
       d="M18.4664 6.08499C18.8895 6.08499 19.2326 5.74195 19.2326 5.3188C19.2326 4.89565 18.8895 4.55261 18.4664 4.55261C18.0432 4.55261 17.7002 4.89565 17.7002 5.3188C17.7002 5.74195 18.0432 6.08499 18.4664 6.08499Z"
       fill="white"
       id="path6"
       style="fill:#fb273e;fill-opacity:1" />
  </g>
  <defs
     id="defs13">
    <clipPath
       id="clip0">
      <rect
         width="23"
         height="23"
         fill="white"
         transform="translate(0.785156)"
         id="rect10" />
    </clipPath>
  </defs>
</svg>
