<svg width="35" height="24" viewBox="0 0 35 24" fill="none" xmlns="http://www.w3.org/2000/svg">
<path d="M33.3402 2.565C32.4179 0.9245 31.417 0.62275 29.3792 0.508C27.3434 0.369875 22.2243 0.3125 17.7894 0.3125C13.346 0.3125 8.22478 0.369875 6.19116 0.505875C4.15753 0.62275 3.15453 0.922375 2.22378 2.565C1.27391 4.20337 0.785156 7.02537 0.785156 11.9936C0.785156 11.9979 0.785156 12 0.785156 12C0.785156 12.0042 0.785156 12.0064 0.785156 12.0064V12.0106C0.785156 16.9576 1.27391 19.8009 2.22378 21.4222C3.15453 23.0627 4.15541 23.3602 6.18903 23.4984C8.22478 23.6174 13.346 23.6875 17.7894 23.6875C22.2243 23.6875 27.3434 23.6174 29.3813 23.5005C31.4192 23.3624 32.42 23.0649 33.3423 21.4244C34.3007 19.803 34.7852 16.9597 34.7852 12.0127C34.7852 12.0127 34.7852 12.0064 34.7852 12.0021C34.7852 12.0021 34.7852 11.9979 34.7852 11.9957C34.7852 7.02537 34.3007 4.20337 33.3402 2.565ZM13.5352 18.375V5.625L24.1602 12L13.5352 18.375Z" fill="white"/>
</svg>
