<svg class="MuiSvgIcon-root" focusable="false" viewBox="0 0 112 30" aria-hidden="true" style=""><defs><path id="prefix__a" d="M28.046 0.353L25.849 0.353 25.849 0.371 24.56 0.382 0.416 29.269 7.39 29.211 25.849 7.125 25.849 29.24 31.475 29.24 31.475 0.394 31.533 0.324z"></path><path id="prefix__b" d="M70.198 0.324L66.711 0.353 64.514 0.353 64.514 0.371 63.224 0.382 39.082 29.269 46.055 29.211 64.514 7.125 64.514 29.24 70.139 29.24 70.139 0.394z"></path><path id="prefix__c" d="M84.296 0.382L77.746 0.324 100.423 29.211 106.973 29.269z"></path></defs><g fill="none" fill-rule="evenodd" transform="translate(2.026 .667)"><use fill="#666" xlink:href="#prefix__a"></use><use fill="#FFF" xlink:href="#prefix__a"></use><use fill="#666" xlink:href="#prefix__b"></use><use fill="#FFF" xlink:href="#prefix__b"></use><g><use fill="#666" xlink:href="#prefix__c"></use><use fill="#FFF" xlink:href="#prefix__c"></use></g><path fill="#0188FF" d="M100.423 0.382L106.973 0.324 84.296 29.211 77.747 29.269z"></path></g></svg>