<svg width="323" height="93" viewBox="0 0 323 93" fill="none" xmlns="http://www.w3.org/2000/svg">
<path d="M167.132 58.6551V51.3439H181.832V45.6778H167.132V38.8054H183.771V32.9199H159.891V64.5405H184.356V58.6551H167.132Z" fill="#408EDD"/>
<path d="M253.545 64.5405L253.508 45.5682L244.219 61.1774H240.928L231.676 45.9703V64.504H224.801V32.9199H230.835L242.683 52.5868L254.349 32.9565H260.346L260.42 64.5405H253.545Z" fill="#408EDD"/>
<path d="M282.434 38.5129C288.066 38.5129 292.674 43.1189 292.674 48.7485C292.674 54.3781 288.066 58.9841 282.434 58.9841C276.803 58.9841 272.195 54.3781 272.195 48.7485C272.195 43.1189 276.766 38.5129 282.434 38.5129ZM282.434 32.1888C273.292 32.1888 265.868 39.6096 265.868 48.7485C265.868 57.8874 273.292 65.3082 282.434 65.3082C291.576 65.3082 299 57.8874 299 48.7485C299 39.6096 291.576 32.1888 282.434 32.1888Z" fill="#408EDD"/>
<path d="M220.084 32.9199H212.002L204.505 43.192L200.483 48.7485L188.927 64.5405H197.009L204.505 54.2684L212.002 64.5405H220.084L208.565 48.7485L220.084 32.9199Z" fill="#408EDD"/>
<path d="M201.946 39.7193L197.009 32.9199H188.927L197.923 45.2392L201.946 39.7193Z" fill="#408EDD"/>
<path d="M86.0213 32.9196L44.8444 32.883L42.2846 28.4232L44.8444 24H86.0213L83.4614 28.4598L86.0213 32.9196Z" fill="#408EDD"/>
<path d="M78.1223 64.5402L101.563 24H106.719L109.279 28.4598L85.8384 69L83.2786 64.5402H78.1223Z" fill="#408EDD"/>
<path d="M115.789 64.5402L139.229 24H144.386L146.945 28.4598L123.505 69L120.945 64.5402H115.789Z" fill="#408EDD"/>
<path d="M121.274 40.2671L107.268 64.5401H102.112L99.5519 60.0803L113.558 35.8073L116.118 40.2671H121.274Z" fill="#408EDD"/>
<path d="M67.7367 64.5396H26.5598L24 60.1164L26.5598 55.6566H67.7367L65.1769 60.1164L67.7367 64.5396Z" fill="#408EDD"/>
<path d="M35.7387 39.8283H63.7507L66.3105 44.2881L63.7507 48.7479H35.7387L38.2985 44.2881L35.7387 39.8283Z" fill="#408EDD"/>
</svg>
