<svg xmlns="http://www.w3.org/2000/svg" width="160" height="51" viewBox="0 0 160 51"><g><g><g><g><path d="M0 32.218l18.198 18.199 4.624-4.625L8.95 31.92l13.574-13.574-4.326-4.326z"/></g><g><path d="M35.65 18.198L17.453 36.397l-4.624-4.625L26.701 17.9 13.127 4.326 17.452 0z"/></g></g><g><path d="M55.753 13.334H51.99v-1.163h9.186v1.163H57.43v9.939h-1.677zm11.615 10.11c-3.102 0-4.653-1.004-4.653-3.01v-5.252c0-2.121 1.55-3.182 4.653-3.182 3.136 0 4.704 1.055 4.704 3.165v5.268c0 1.072-.433 1.842-1.3 2.31-.867.467-2.002.701-3.404.701zm.034-1.112c2.041 0 3.062-.639 3.062-1.916V15.13c0-1.368-1.026-2.052-3.08-2.052-.991 0-1.755.154-2.291.462-.525.307-.787.838-.787 1.59v5.286c0 1.278 1.032 1.916 3.096 1.916zm7.231-10.16h3.627c.513 0 .923.01 1.231.033.32.023.656.074 1.01.154.364.08.655.2.872.36.228.16.422.376.581.65.149.262.223.593.223.992v2.309c0 .924-.36 1.59-1.078 2.001-.707.4-1.756.6-3.147.6h-1.66v4.002h-1.659zm3.54 6.055c.72 0 1.295-.132 1.729-.394.433-.262.65-.678.65-1.249v-2.018c0-.308-.08-.559-.24-.753-.16-.205-.387-.348-.684-.427a6.368 6.368 0 0 0-.719-.137 6.884 6.884 0 0 0-.77-.034h-1.864v5.012zm12.895-4.893h-3.763v-1.163h9.186v1.163h-3.746v9.939h-1.677zm7.27-1.163h3.9c.98 0 1.745.063 2.292.188.559.114.964.325 1.215.633.262.308.393.759.393 1.352v1.915c0 .662-.274 1.175-.821 1.54-.536.354-1.22.53-2.053.53l3.558 4.944h-2.035l-3.182-4.738h-1.608v4.738h-1.66zm3.832 5.269c.82 0 1.408-.097 1.761-.291.365-.205.548-.57.548-1.095v-1.54c0-.832-.719-1.248-2.156-1.248h-2.326v4.174zm10.21-5.269h1.915l4.31 11.102h-1.727l-1.266-3.37h-4.755l-1.25 3.37h-1.641zm2.822 6.586l-1.882-5.012h-.154l-1.882 5.012zm5.103-6.586h4.413c3.114 0 4.67 1.06 4.67 3.182v4.91c0 2.006-1.55 3.01-4.652 3.01h-4.43zm4.31 9.973c2.122 0 3.183-.639 3.183-1.916v-4.892c0-.41-.086-.759-.257-1.044a1.553 1.553 0 0 0-.719-.633 3.964 3.964 0 0 0-.957-.256 6.93 6.93 0 0 0-1.164-.086h-2.737v8.827zm7.3-9.973h7.459v1.163h-5.8v3.627h5.235v1.163h-5.234v3.986h5.97v1.163h-7.63zm9.923 0h3.9c.981 0 1.745.063 2.293.188.558.114.963.325 1.214.633.262.308.394.759.394 1.352v1.915c0 .662-.274 1.175-.822 1.54-.536.354-1.22.53-2.052.53l3.558 4.944h-2.036l-3.182-4.738h-1.607v4.738h-1.66zm3.832 5.269c.821 0 1.408-.097 1.762-.291.365-.205.547-.57.547-1.095v-1.54c0-.832-.718-1.248-2.155-1.248h-2.326v4.174zm10.175 6.004c-.946 0-2.075-.091-3.387-.274v-1.385c1.323.285 2.486.427 3.49.427.844 0 1.46-.09 1.847-.273.388-.194.582-.548.582-1.06V19.44c0-.479-.137-.815-.411-1.01-.273-.193-.752-.29-1.436-.29h-1.301c-1.083 0-1.853-.217-2.309-.65-.456-.433-.684-1.106-.684-2.018v-.89c0-.604.131-1.095.393-1.471.274-.376.725-.656 1.352-.838.638-.183 1.511-.274 2.617-.274.741 0 1.693.063 2.857.188v1.249c-1.3-.194-2.293-.29-2.977-.29-1.06 0-1.762.102-2.104.307-.353.217-.53.576-.53 1.078v1.266c0 .387.137.672.41.855.286.17.77.256 1.454.256h1.335c.764 0 1.357.092 1.779.274.433.183.735.462.906.838.183.365.274.861.274 1.489v.804c0 .786-.148 1.408-.445 1.864-.285.456-.73.781-1.334.975-.604.194-1.397.291-2.378.291zm-103.068 4.79h8.467v1.9h-5.799v2.549h5.235v1.898h-5.235v2.857h5.97v1.899h-8.638zm13.503 5.44l-3.918-5.44h3.08l2.377 3.696 2.36-3.695h3.08l-3.917 5.44 4.105 5.662h-3.096l-2.532-3.935-2.549 3.935h-3.079zm12.073 5.765a9.1 9.1 0 0 1-1.283-.256c-.525-.137-.958-.314-1.3-.53a2.737 2.737 0 0 1-.856-.941c-.24-.4-.36-.873-.36-1.42v-4.875c0-2.236 1.717-3.353 5.15-3.353.878 0 2.053.125 3.524.376v2.002c-1.323-.32-2.486-.48-3.49-.48-.422 0-.753.012-.992.035-.228.023-.468.08-.718.17-.537.183-.805.588-.805 1.215v4.722c0 1.003.919 1.505 2.755 1.505.787 0 1.893-.165 3.318-.496v2.019c-1.22.25-2.418.376-3.592.376-.502 0-.952-.023-1.351-.069zM85 28.235h2.669v4.448h4.721v-4.448h2.669v11.102H92.39V34.58H87.67v4.756H85zm15.388 0h3.25l4.003 11.102h-2.703l-.992-2.925h-4.054l-.975 2.925h-2.634zm2.976 6.398l-1.402-4.174h-.069l-1.402 4.174zm5.508-6.398h2.703l5.371 7.578v-7.578h2.378v11.102h-2.703l-5.371-7.698v7.698h-2.378zm16.439 11.187a9.11 9.11 0 0 1-1.454-.29c-.513-.137-.935-.32-1.266-.548a2.743 2.743 0 0 1-.804-.924 2.95 2.95 0 0 1-.308-1.368v-4.619c0-.559.114-1.06.342-1.505.228-.456.536-.815.924-1.078.365-.24.798-.444 1.3-.616a7.495 7.495 0 0 1 1.505-.342c.41-.045.907-.068 1.488-.068 1.574 0 3.08.12 4.517.36v2.018c-1.323-.32-2.829-.48-4.517-.48-1.927 0-2.89.56-2.89 1.677v4.465c0 .547.256.935.77 1.163.524.228 1.31.342 2.36.342a6.96 6.96 0 0 0 1.796-.256V34.77h-1.813v-1.745h4.362v5.764c-.57.206-1.3.377-2.19.514-.878.136-1.687.205-2.429.205-.638 0-1.203-.029-1.693-.086zm8.469-11.187h8.467v1.899h-5.799v2.549h5.235v1.898h-5.235v2.857h5.97v1.899h-8.638z"/></g></g></g></svg>