<svg width="916" height="1680" viewBox="0 0 916 1680" fill="none" xmlns="http://www.w3.org/2000/svg">
<g opacity="0.26">
<path opacity="0.04" d="M174.382 659.642C210.94 649.626 297.629 656.876 351.918 766.002C419.778 902.409 490.535 930.158 597.057 912.862C703.578 895.566 583.702 599.597 783.849 619.88C983.997 640.163 1121.96 850.034 1087.68 976.244C1053.41 1102.45 1249.69 1261.95 1385.54 1140.22" stroke="url(#paint0_linear_698_13187)"/>
<path opacity="0.08" d="M167.744 652.314C204.589 643.005 291.408 651.78 343.926 761.352C409.573 898.317 480.05 927.205 587.196 911.91C694.343 896.616 579.351 599.93 779.738 623.717C980.124 647.504 1114.78 858.837 1078.17 983.816C1041.56 1108.8 1235.6 1271.04 1374.01 1152.35" stroke="url(#paint1_linear_698_13187)"/>
<path opacity="0.12" d="M161.437 645.523C198.558 636.922 285.484 647.216 336.216 757.197C399.631 894.673 469.807 924.687 577.547 911.395C685.288 898.103 575.213 600.799 775.78 628.075C976.347 655.351 1107.66 868.073 1068.72 991.782C1029.78 1115.49 1221.53 1280.44 1362.47 1164.82" stroke="url(#paint2_linear_698_13187)"/>
<path opacity="0.16" d="M155.176 638.624C192.563 630.733 279.569 642.539 328.502 752.891C389.668 890.832 459.524 921.96 567.826 910.671C676.129 899.381 571 601.559 771.691 632.307C972.382 663.054 1100.31 877.091 1059.06 999.492C1017.81 1121.89 1207.21 1289.48 1350.62 1176.96" stroke="url(#paint3_linear_698_13187)"/>
<path opacity="0.2" d="M148.955 631.618C186.596 624.438 273.657 637.749 320.777 748.436C379.678 886.794 449.194 919.024 558.028 909.736C666.862 900.448 566.707 602.208 767.464 636.41C968.221 670.612 1092.74 885.89 1049.18 1006.95C1005.63 1128 1192.63 1298.16 1338.48 1188.77" stroke="url(#paint4_linear_698_13187)"/>
<path opacity="0.24" d="M142.788 624.505C180.672 618.036 267.764 632.844 313.06 743.828C369.678 882.557 438.834 915.875 548.169 908.588C657.503 901.3 562.348 602.742 763.114 640.379C963.88 678.017 1084.95 894.463 1039.1 1014.13C993.26 1133.81 1177.81 1306.48 1326.05 1200.25" stroke="url(#paint5_linear_698_13187)"/>
<path opacity="0.28" d="M136.671 617.292C174.788 611.535 261.886 627.833 305.344 739.076C359.667 878.129 428.443 912.523 538.246 907.234C648.049 901.945 557.92 603.169 758.637 644.222C959.355 685.275 1076.94 902.814 1028.82 1021.07C980.704 1139.32 1162.74 1314.44 1313.35 1211.41" stroke="url(#paint6_linear_698_13187)"/>
<path opacity="0.32" d="M130.889 610.614C169.228 605.571 256.308 623.349 297.917 734.814C349.929 874.144 418.307 909.599 528.547 906.307C638.787 903.015 553.705 604.12 754.317 648.568C954.929 693.017 1069 911.574 1018.62 1028.37C968.247 1145.17 1147.73 1322.68 1300.64 1222.86" stroke="url(#paint7_linear_698_13187)"/>
<path opacity="0.36" d="M125.447 604.481C163.996 600.151 251.032 619.402 290.782 731.05C340.47 870.611 408.43 907.113 519.076 905.815C629.722 904.517 549.709 605.603 750.159 653.425C950.609 701.247 1061.14 920.749 1008.52 1036.05C955.895 1151.36 1132.78 1331.19 1287.95 1234.62" stroke="url(#paint8_linear_698_13187)"/>
<path opacity="0.4" d="M120.064 598.256C158.814 594.639 245.782 615.352 283.663 727.148C331.013 866.892 398.537 904.427 509.557 905.119C620.577 905.811 545.653 606.979 745.883 658.152C946.114 709.326 1053.07 929.696 998.221 1043.47C943.372 1157.25 1117.6 1339.34 1274.99 1246.04" stroke="url(#paint9_linear_698_13187)"/>
<path opacity="0.44" d="M114.742 591.923C153.68 589.018 240.556 611.186 276.557 723.09C321.56 862.97 388.627 901.525 499.99 904.204C611.352 906.882 541.535 608.23 741.49 662.732C941.446 717.234 1044.8 938.398 987.742 1050.61C930.682 1162.82 1102.21 1347.11 1261.77 1257.11" stroke="url(#paint10_linear_698_13187)"/>
<path opacity="0.48" d="M109.476 585.497C148.592 583.305 235.351 606.916 269.465 718.892C312.107 858.861 378.701 898.42 490.374 903.081C602.048 907.742 537.353 609.369 736.977 667.175C936.601 724.981 1036.33 946.863 977.077 1057.48C917.824 1168.09 1086.6 1354.51 1248.29 1267.83" stroke="url(#paint11_linear_698_13187)"/>
<path opacity="0.52" d="M104.271 578.979C143.552 577.499 230.17 602.543 262.388 714.553C302.661 854.565 368.762 895.114 480.715 901.751C592.668 908.389 533.109 610.395 732.346 671.48C931.582 732.565 1027.66 955.091 966.231 1064.07C904.804 1173.06 1070.79 1361.54 1234.56 1278.2" stroke="url(#paint12_linear_698_13187)"/>
<path opacity="0.56" d="M99.4227 573.003C138.859 572.235 225.312 598.7 255.627 710.707C293.52 850.715 359.11 892.238 471.311 900.847C583.511 909.456 529.102 611.94 727.896 676.278C926.689 740.616 1019.09 963.71 955.506 1071.03C891.923 1178.34 1055.07 1368.82 1220.87 1288.85" stroke="url(#paint13_linear_698_13187)"/>
<path opacity="0.6" d="M94.6321 566.942C134.213 566.884 220.476 594.761 248.88 706.727C284.386 846.684 349.448 889.166 461.864 899.74C574.28 910.314 525.032 613.374 723.327 680.939C921.622 748.503 1010.32 972.09 944.604 1077.71C878.884 1183.33 1039.16 1375.74 1206.94 1299.15" stroke="url(#paint14_linear_698_13187)"/>
<path opacity="0.64" d="M89.9123 560.79C129.626 561.442 215.675 590.718 242.163 702.606C275.274 842.466 339.789 885.891 452.389 898.424C564.99 910.957 520.91 614.691 718.652 685.454C916.394 756.218 1001.37 980.221 933.539 1084.11C865.704 1188 1023.05 1382.27 1192.77 1309.09" stroke="url(#paint15_linear_698_13187)"/>
<path opacity="0.68" d="M85.2644 554.549C125.099 555.909 210.911 586.572 235.477 698.345C266.185 838.061 330.136 882.413 442.889 896.897C555.643 911.382 516.74 615.888 713.874 689.822C911.007 763.755 992.247 988.101 922.317 1090.22C852.387 1192.35 1006.77 1388.42 1178.37 1318.67" stroke="url(#paint16_linear_698_13187)"/>
<path opacity="0.72" d="M80.9719 548.872C120.917 550.939 206.468 582.978 229.107 694.598C257.406 834.124 320.776 879.386 433.65 895.815C546.524 912.244 512.804 617.619 709.275 694.694C905.746 771.769 983.226 996.381 911.223 1096.71C839.22 1197.04 990.601 1394.83 1164.04 1328.53" stroke="url(#paint17_linear_698_13187)"/>
<path opacity="0.76" d="M76.7509 543.101C116.795 545.873 202.061 579.275 222.769 690.706C248.654 829.995 311.426 876.152 424.389 894.516C537.353 912.881 508.819 619.223 704.573 699.408C900.327 779.594 974.03 1004.4 899.976 1102.9C825.922 1201.4 974.261 1400.86 1149.48 1338.02" stroke="url(#paint18_linear_698_13187)"/>
<path opacity="0.8" d="M72.6102 537.249C112.742 540.724 197.7 575.475 216.473 686.68C239.94 825.686 302.096 872.721 415.118 893.013C528.139 913.304 504.794 620.709 699.777 703.975C894.761 787.24 964.67 1012.16 888.588 1108.81C812.506 1205.45 957.764 1406.5 1134.72 1347.14" stroke="url(#paint19_linear_698_13187)"/>
<path opacity="0.84" d="M68.83 531.958C109.039 536.134 193.665 572.222 210.5 683.164C231.544 821.841 293.069 869.737 406.117 891.947C519.164 914.156 501.008 622.721 695.168 709.034C889.328 795.348 955.428 1020.31 877.342 1115.07C799.255 1209.83 941.396 1412.4 1120.03 1356.53" stroke="url(#paint20_linear_698_13187)"/>
<path opacity="0.88" d="M65.1237 526.594C105.398 531.469 189.669 568.88 204.565 679.522C223.183 817.825 284.06 866.565 397.102 890.682C510.145 914.8 497.177 624.619 690.46 713.948C883.742 803.278 946.02 1028.2 865.954 1121.05C785.887 1213.9 924.874 1417.91 1105.14 1365.55" stroke="url(#paint21_linear_698_13187)"/>
<path opacity="0.92" d="M61.7875 521.786C102.116 527.358 186.01 566.077 198.963 676.383C215.154 814.266 275.367 863.833 388.373 889.848C501.379 915.863 493.595 627.032 685.949 719.344C878.302 811.656 936.745 1036.47 854.723 1127.38C772.701 1218.28 908.5 1423.68 1090.35 1374.84" stroke="url(#paint22_linear_698_13187)"/>
<path opacity="0.96" d="M58.2814 517.351C98.6521 523.616 182.146 563.63 193.156 673.564C206.919 810.981 266.452 861.358 379.39 889.26C492.328 917.162 489.725 629.775 681.097 725.036C872.469 820.296 927.065 1044.93 843.113 1133.86C759.161 1222.79 891.739 1429.5 1075.11 1384.2" stroke="url(#paint23_linear_698_13187)"/>
<path d="M55.6471 512.6C96.0492 519.556 179.12 560.849 188.187 670.374C199.521 807.281 258.358 858.45 371.197 888.228C484.036 918.005 486.607 632.157 676.945 730.331C867.284 828.505 918.025 1052.88 832.168 1139.81C746.312 1226.75 875.636 1434.7 1060.48 1392.94" stroke="url(#paint24_linear_698_13187)"/>
</g>
<defs>
<linearGradient id="paint0_linear_698_13187" x1="875.342" y1="639.266" x2="651.935" y2="1012.18" gradientUnits="userSpaceOnUse">
<stop offset="0.416667" stop-color="#0C6F97"/>
<stop offset="0.864583" stop-color="#0C6F97" stop-opacity="0"/>
</linearGradient>
<linearGradient id="paint1_linear_698_13187" x1="871.16" y1="644.655" x2="643.011" y2="1013.3" gradientUnits="userSpaceOnUse">
<stop offset="0.416667" stop-color="#0C6F97"/>
<stop offset="0.864583" stop-color="#0C6F97" stop-opacity="0"/>
</linearGradient>
<linearGradient id="paint2_linear_698_13187" x1="867.106" y1="650.556" x2="634.293" y2="1014.93" gradientUnits="userSpaceOnUse">
<stop offset="0.416667" stop-color="#0C6F97"/>
<stop offset="0.864583" stop-color="#0C6F97" stop-opacity="0"/>
</linearGradient>
<linearGradient id="paint3_linear_698_13187" x1="862.895" y1="656.319" x2="625.493" y2="1016.42" gradientUnits="userSpaceOnUse">
<stop offset="0.416667" stop-color="#0C6F97"/>
<stop offset="0.864583" stop-color="#0C6F97" stop-opacity="0"/>
</linearGradient>
<linearGradient id="paint4_linear_698_13187" x1="858.52" y1="661.942" x2="616.6" y2="1017.77" gradientUnits="userSpaceOnUse">
<stop offset="0.416667" stop-color="#0C6F97"/>
<stop offset="0.864583" stop-color="#0C6F97" stop-opacity="0"/>
</linearGradient>
<linearGradient id="paint5_linear_698_13187" x1="853.995" y1="667.42" x2="607.627" y2="1018.98" gradientUnits="userSpaceOnUse">
<stop offset="0.416667" stop-color="#0C6F97"/>
<stop offset="0.864583" stop-color="#0C6F97" stop-opacity="0"/>
</linearGradient>
<linearGradient id="paint6_linear_698_13187" x1="849.318" y1="672.759" x2="598.567" y2="1020.05" gradientUnits="userSpaceOnUse">
<stop offset="0.416667" stop-color="#0C6F97"/>
<stop offset="0.864583" stop-color="#0C6F97" stop-opacity="0"/>
</linearGradient>
<linearGradient id="paint7_linear_698_13187" x1="844.772" y1="678.589" x2="589.7" y2="1021.62" gradientUnits="userSpaceOnUse">
<stop offset="0.416667" stop-color="#0C6F97"/>
<stop offset="0.864583" stop-color="#0C6F97" stop-opacity="0"/>
</linearGradient>
<linearGradient id="paint8_linear_698_13187" x1="840.363" y1="684.917" x2="581.028" y2="1023.68" gradientUnits="userSpaceOnUse">
<stop offset="0.416667" stop-color="#0C6F97"/>
<stop offset="0.864583" stop-color="#0C6F97" stop-opacity="0"/>
</linearGradient>
<linearGradient id="paint9_linear_698_13187" x1="835.81" y1="691.102" x2="572.27" y2="1025.61" gradientUnits="userSpaceOnUse">
<stop offset="0.416667" stop-color="#0C6F97"/>
<stop offset="0.864583" stop-color="#0C6F97" stop-opacity="0"/>
</linearGradient>
<linearGradient id="paint10_linear_698_13187" x1="831.115" y1="697.125" x2="563.423" y2="1027.37" gradientUnits="userSpaceOnUse">
<stop offset="0.416667" stop-color="#0C6F97"/>
<stop offset="0.864583" stop-color="#0C6F97" stop-opacity="0"/>
</linearGradient>
<linearGradient id="paint11_linear_698_13187" x1="826.275" y1="702.998" x2="554.48" y2="1028.98" gradientUnits="userSpaceOnUse">
<stop offset="0.416667" stop-color="#0C6F97"/>
<stop offset="0.864583" stop-color="#0C6F97" stop-opacity="0"/>
</linearGradient>
<linearGradient id="paint12_linear_698_13187" x1="821.292" y1="708.719" x2="545.442" y2="1030.44" gradientUnits="userSpaceOnUse">
<stop offset="0.416667" stop-color="#0C6F97"/>
<stop offset="0.864583" stop-color="#0C6F97" stop-opacity="0"/>
</linearGradient>
<linearGradient id="paint13_linear_698_13187" x1="816.465" y1="714.917" x2="536.606" y2="1032.37" gradientUnits="userSpaceOnUse">
<stop offset="0.416667" stop-color="#0C6F97"/>
<stop offset="0.864583" stop-color="#0C6F97" stop-opacity="0"/>
</linearGradient>
<linearGradient id="paint14_linear_698_13187" x1="811.495" y1="720.963" x2="527.668" y2="1034.16" gradientUnits="userSpaceOnUse">
<stop offset="0.416667" stop-color="#0C6F97"/>
<stop offset="0.864583" stop-color="#0C6F97" stop-opacity="0"/>
</linearGradient>
<linearGradient id="paint15_linear_698_13187" x1="806.395" y1="726.849" x2="518.641" y2="1035.78" gradientUnits="userSpaceOnUse">
<stop offset="0.416667" stop-color="#0C6F97"/>
<stop offset="0.864583" stop-color="#0C6F97" stop-opacity="0"/>
</linearGradient>
<linearGradient id="paint16_linear_698_13187" x1="801.167" y1="732.571" x2="509.522" y2="1037.23" gradientUnits="userSpaceOnUse">
<stop offset="0.416667" stop-color="#0C6F97"/>
<stop offset="0.864583" stop-color="#0C6F97" stop-opacity="0"/>
</linearGradient>
<linearGradient id="paint17_linear_698_13187" x1="796.095" y1="738.781" x2="500.596" y2="1039.16" gradientUnits="userSpaceOnUse">
<stop offset="0.416667" stop-color="#0C6F97"/>
<stop offset="0.864583" stop-color="#0C6F97" stop-opacity="0"/>
</linearGradient>
<linearGradient id="paint18_linear_698_13187" x1="790.896" y1="744.816" x2="491.575" y2="1040.92" gradientUnits="userSpaceOnUse">
<stop offset="0.416667" stop-color="#0C6F97"/>
<stop offset="0.864583" stop-color="#0C6F97" stop-opacity="0"/>
</linearGradient>
<linearGradient id="paint19_linear_698_13187" x1="785.58" y1="750.687" x2="482.467" y2="1042.51" gradientUnits="userSpaceOnUse">
<stop offset="0.416667" stop-color="#0C6F97"/>
<stop offset="0.864583" stop-color="#0C6F97" stop-opacity="0"/>
</linearGradient>
<linearGradient id="paint20_linear_698_13187" x1="780.426" y1="757.033" x2="473.551" y2="1044.56" gradientUnits="userSpaceOnUse">
<stop offset="0.416667" stop-color="#0C6F97"/>
<stop offset="0.864583" stop-color="#0C6F97" stop-opacity="0"/>
</linearGradient>
<linearGradient id="paint21_linear_698_13187" x1="775.151" y1="763.217" x2="464.54" y2="1046.43" gradientUnits="userSpaceOnUse">
<stop offset="0.416667" stop-color="#0C6F97"/>
<stop offset="0.864583" stop-color="#0C6F97" stop-opacity="0"/>
</linearGradient>
<linearGradient id="paint22_linear_698_13187" x1="770.051" y1="769.864" x2="455.728" y2="1048.77" gradientUnits="userSpaceOnUse">
<stop offset="0.416667" stop-color="#0C6F97"/>
<stop offset="0.864583" stop-color="#0C6F97" stop-opacity="0"/>
</linearGradient>
<linearGradient id="paint23_linear_698_13187" x1="764.586" y1="776.789" x2="446.576" y2="1051.36" gradientUnits="userSpaceOnUse">
<stop offset="0.416667" stop-color="#0C6F97"/>
<stop offset="0.864583" stop-color="#0C6F97" stop-opacity="0"/>
</linearGradient>
<linearGradient id="paint24_linear_698_13187" x1="759.8" y1="783.3" x2="438.124" y2="1053.53" gradientUnits="userSpaceOnUse">
<stop offset="0.416667" stop-color="#0C6F97"/>
<stop offset="0.864583" stop-color="#0C6F97" stop-opacity="0"/>
</linearGradient>
</defs>
</svg>
