<?xml version="1.0" encoding="utf-8"?>
<!-- Generator: Adobe Illustrator 23.1.0, SVG Export Plug-In . SVG Version: 6.00 Build 0)  -->
<svg version="1.1" id="Слой_1" xmlns="http://www.w3.org/2000/svg" xmlns:xlink="http://www.w3.org/1999/xlink" x="0px" y="0px"
	 viewBox="0 0 568.7 888" style="enable-background:new 0 0 568.7 888;" xml:space="preserve">
<style type="text/css">
	.st0{opacity:0.26;}
	.st1{opacity:4.000000e-02;fill:none;stroke:url(#SVGID_1_);enable-background:new    ;}
	.st2{opacity:8.000000e-02;fill:none;stroke:url(#SVGID_2_);enable-background:new    ;}
	.st3{opacity:0.12;fill:none;stroke:url(#SVGID_3_);enable-background:new    ;}
	.st4{opacity:0.16;fill:none;stroke:url(#SVGID_4_);enable-background:new    ;}
	.st5{opacity:0.2;fill:none;stroke:url(#SVGID_5_);enable-background:new    ;}
	.st6{opacity:0.24;fill:none;stroke:url(#SVGID_6_);enable-background:new    ;}
	.st7{opacity:0.28;fill:none;stroke:url(#SVGID_7_);enable-background:new    ;}
	.st8{opacity:0.32;fill:none;stroke:url(#SVGID_8_);enable-background:new    ;}
	.st9{opacity:0.36;fill:none;stroke:url(#SVGID_9_);enable-background:new    ;}
	.st10{opacity:0.4;fill:none;stroke:url(#SVGID_10_);enable-background:new    ;}
	.st11{opacity:0.44;fill:none;stroke:url(#SVGID_11_);enable-background:new    ;}
	.st12{opacity:0.48;fill:none;stroke:url(#SVGID_12_);enable-background:new    ;}
	.st13{opacity:0.52;fill:none;stroke:url(#SVGID_13_);enable-background:new    ;}
	.st14{opacity:0.56;fill:none;stroke:url(#SVGID_14_);enable-background:new    ;}
	.st15{opacity:0.6;fill:none;stroke:url(#SVGID_15_);enable-background:new    ;}
	.st16{opacity:0.64;fill:none;stroke:url(#SVGID_16_);enable-background:new    ;}
	.st17{opacity:0.68;fill:none;stroke:url(#SVGID_17_);enable-background:new    ;}
	.st18{opacity:0.72;fill:none;stroke:url(#SVGID_18_);enable-background:new    ;}
	.st19{opacity:0.76;fill:none;stroke:url(#SVGID_19_);enable-background:new    ;}
	.st20{opacity:0.8;fill:none;stroke:url(#SVGID_20_);enable-background:new    ;}
	.st21{opacity:0.84;fill:none;stroke:url(#SVGID_21_);enable-background:new    ;}
	.st22{opacity:0.88;fill:none;stroke:url(#SVGID_22_);enable-background:new    ;}
	.st23{opacity:0.92;fill:none;stroke:url(#SVGID_23_);enable-background:new    ;}
	.st24{opacity:0.96;fill:none;stroke:url(#SVGID_24_);enable-background:new    ;}
	.st25{fill:none;stroke:url(#SVGID_25_);}
	.st26{opacity:4.000000e-02;fill:none;stroke:url(#SVGID_26_);enable-background:new    ;}
	.st27{opacity:8.000000e-02;fill:none;stroke:url(#SVGID_27_);enable-background:new    ;}
	.st28{opacity:0.12;fill:none;stroke:url(#SVGID_28_);enable-background:new    ;}
	.st29{opacity:0.16;fill:none;stroke:url(#SVGID_29_);enable-background:new    ;}
	.st30{opacity:0.2;fill:none;stroke:url(#SVGID_30_);enable-background:new    ;}
	.st31{opacity:0.24;fill:none;stroke:url(#SVGID_31_);enable-background:new    ;}
	.st32{opacity:0.28;fill:none;stroke:url(#SVGID_32_);enable-background:new    ;}
	.st33{opacity:0.32;fill:none;stroke:url(#SVGID_33_);enable-background:new    ;}
	.st34{opacity:0.36;fill:none;stroke:url(#SVGID_34_);enable-background:new    ;}
	.st35{opacity:0.4;fill:none;stroke:url(#SVGID_35_);enable-background:new    ;}
	.st36{opacity:0.44;fill:none;stroke:url(#SVGID_36_);enable-background:new    ;}
	.st37{opacity:0.48;fill:none;stroke:url(#SVGID_37_);enable-background:new    ;}
	.st38{opacity:0.52;fill:none;stroke:url(#SVGID_38_);enable-background:new    ;}
	.st39{opacity:0.56;fill:none;stroke:url(#SVGID_39_);enable-background:new    ;}
	.st40{opacity:0.6;fill:none;stroke:url(#SVGID_40_);enable-background:new    ;}
	.st41{opacity:0.64;fill:none;stroke:url(#SVGID_41_);enable-background:new    ;}
	.st42{opacity:0.68;fill:none;stroke:url(#SVGID_42_);enable-background:new    ;}
	.st43{opacity:0.72;fill:none;stroke:url(#SVGID_43_);enable-background:new    ;}
	.st44{opacity:0.76;fill:none;stroke:url(#SVGID_44_);enable-background:new    ;}
	.st45{opacity:0.8;fill:none;stroke:url(#SVGID_45_);enable-background:new    ;}
	.st46{opacity:0.84;fill:none;stroke:url(#SVGID_46_);enable-background:new    ;}
	.st47{opacity:0.88;fill:none;stroke:url(#SVGID_47_);enable-background:new    ;}
	.st48{opacity:0.92;fill:none;stroke:url(#SVGID_48_);enable-background:new    ;}
	.st49{opacity:0.96;fill:none;stroke:url(#SVGID_49_);enable-background:new    ;}
	.st50{fill:none;stroke:url(#SVGID_50_);}
</style>
<g class="st0">
	
		<linearGradient id="SVGID_1_" gradientUnits="userSpaceOnUse" x1="240.972" y1="121.2367" x2="549.412" y2="165.6767" gradientTransform="matrix(1 0 0 -1 0 699.144)">
		<stop  offset="0.4167" style="stop-color:#0C6F97"/>
		<stop  offset="0.8646" style="stop-color:#0C6F97;stop-opacity:0"/>
	</linearGradient>
	<path class="st1" d="M574.7,995.6c-22.1-15.8-57.3-67.3-21.2-146.8c45.2-99.4,28.6-151.3-29.2-202.8
		c-57.8-51.4-168.2,149.1-247.4,28.7S252,382.5,337.7,344.4c85.7-38,85.6-219.3-43.6-239.8"/>
	
		<linearGradient id="SVGID_2_" gradientUnits="userSpaceOnUse" x1="246.5754" y1="120.1449" x2="554.7854" y2="160.0049" gradientTransform="matrix(1 0 0 -1 0 699.144)">
		<stop  offset="0.4167" style="stop-color:#0C6F97"/>
		<stop  offset="0.8646" style="stop-color:#0C6F97;stop-opacity:0"/>
	</linearGradient>
	<path class="st2" d="M573.6,1002.6c-21.8-16.3-56.2-68.5-19-147.3c46.5-98.5,30.7-150.7-26.3-203.4
		c-57-52.7-169.9,145.5-247.4,23.3c-77.4-122.2-20.8-292.7,65.3-328.9c86.1-36.2,88.5-217.5-40.1-240.8"/>
	
		<linearGradient id="SVGID_3_" gradientUnits="userSpaceOnUse" x1="252.3518" y1="119.2969" x2="560.2917" y2="154.6369" gradientTransform="matrix(1 0 0 -1 0 699.144)">
		<stop  offset="0.4167" style="stop-color:#0C6F97"/>
		<stop  offset="0.8646" style="stop-color:#0C6F97;stop-opacity:0"/>
	</linearGradient>
	<path class="st3" d="M572.7,1009.2c-21.6-16.8-55.2-69.8-17-147.7c47.8-97.4,32.7-150-23.4-204c-56.1-53.9-171.7,141.8-247.2,17.9
		c-75.6-123.9-16.6-293.1,69.8-327.4c86.4-34.3,91.4-215.5-36.6-241.6"/>
	
		<linearGradient id="SVGID_4_" gradientUnits="userSpaceOnUse" x1="258.0918" y1="118.2601" x2="565.7418" y2="149.1201" gradientTransform="matrix(1 0 0 -1 0 699.144)">
		<stop  offset="0.4167" style="stop-color:#0C6F97"/>
		<stop  offset="0.8646" style="stop-color:#0C6F97;stop-opacity:0"/>
	</linearGradient>
	<path class="st4" d="M571.7,1015.8c-21.3-17.2-54.1-71-14.9-148.1c49-96.4,34.8-149.3-20.5-204.5c-55.3-55.1-173.3,138.1-247,12.5
		c-73.7-125.5-12.5-293.5,74.2-325.9s94.3-213.6-33.2-242.4"/>
	
		<linearGradient id="SVGID_5_" gradientUnits="userSpaceOnUse" x1="263.7959" y1="117.0323" x2="571.106" y2="143.4423" gradientTransform="matrix(1 0 0 -1 0 699.144)">
		<stop  offset="0.4167" style="stop-color:#0C6F97"/>
		<stop  offset="0.8646" style="stop-color:#0C6F97;stop-opacity:0"/>
	</linearGradient>
	<path class="st5" d="M570.6,1022.4c-21-17.7-53-72.1-12.8-148.4c50.3-95.3,36.8-148.6-17.6-204.9c-54.4-56.3-174.9,134.3-246.7,7.2
		c-71.8-127.1-8.4-293.7,78.6-324.3c87-30.5,97.1-211.5-29.7-243.1"/>
	
		<linearGradient id="SVGID_6_" gradientUnits="userSpaceOnUse" x1="269.4397" y1="115.6089" x2="576.3898" y2="137.6189" gradientTransform="matrix(1 0 0 -1 0 699.144)">
		<stop  offset="0.4167" style="stop-color:#0C6F97"/>
		<stop  offset="0.8646" style="stop-color:#0C6F97;stop-opacity:0"/>
	</linearGradient>
	<path class="st6" d="M569.5,1029c-20.7-18.1-51.9-73.3-10.7-148.7c51.5-94.2,38.8-147.8-14.7-205.3
		c-53.5-57.5-176.5,130.5-246.4,1.8c-69.9-128.7-4.3-293.9,83-322.6c87.3-28.6,99.8-209.4-26.3-243.8"/>
	
		<linearGradient id="SVGID_7_" gradientUnits="userSpaceOnUse" x1="275.0332" y1="114.0024" x2="581.6031" y2="131.6523" gradientTransform="matrix(1 0 0 -1 0 699.144)">
		<stop  offset="0.4167" style="stop-color:#0C6F97"/>
		<stop  offset="0.8646" style="stop-color:#0C6F97;stop-opacity:0"/>
	</linearGradient>
	<path class="st7" d="M568.2,1035.7c-20.4-18.6-50.8-74.4-8.6-148.9c52.8-93.1,40.8-146.9-11.8-205.6s-178,126.6-246-3.6
		c-68-130.2-0.2-294,87.4-320.7c87.5-26.7,102.6-207.2-22.9-244.3"/>
	
		<linearGradient id="SVGID_8_" gradientUnits="userSpaceOnUse" x1="280.807" y1="112.6624" x2="586.957" y2="125.9724" gradientTransform="matrix(1 0 0 -1 0 699.144)">
		<stop  offset="0.4167" style="stop-color:#0C6F97"/>
		<stop  offset="0.8646" style="stop-color:#0C6F97;stop-opacity:0"/>
	</linearGradient>
	<path class="st8" d="M567.1,1041.9c-20.1-19-49.6-75.5-6.5-149.1c54-92,42.8-146-8.9-205.8c-51.7-59.8-179.4,122.7-245.5-9
		c-66-131.7,3.9-294,91.7-318.8s105.3-204.9-19.4-244.8"/>
	
		<linearGradient id="SVGID_9_" gradientUnits="userSpaceOnUse" x1="286.7584" y1="111.5892" x2="592.4585" y2="120.5991" gradientTransform="matrix(1 0 0 -1 0 699.144)">
		<stop  offset="0.4167" style="stop-color:#0C6F97"/>
		<stop  offset="0.8646" style="stop-color:#0C6F97;stop-opacity:0"/>
	</linearGradient>
	<path class="st9" d="M566.2,1047.7c-19.8-19.5-48.5-76.6-4.4-149.2c55.1-90.8,44.7-145.1-6.1-206
		c-50.8-60.9-180.8,118.8-244.9-14.3c-64.1-133.1,8-293.9,95.9-316.8c87.9-22.9,107.9-202.6-16-245.2"/>
	
		<linearGradient id="SVGID_10_" gradientUnits="userSpaceOnUse" x1="292.6374" y1="110.3428" x2="597.8774" y2="115.0828" gradientTransform="matrix(1 0 0 -1 0 699.144)">
		<stop  offset="0.4167" style="stop-color:#0C6F97"/>
		<stop  offset="0.8646" style="stop-color:#0C6F97;stop-opacity:0"/>
	</linearGradient>
	<path class="st10" d="M565.2,1053.5c-19.5-19.9-47.4-77.7-2.3-149.3c56.3-89.5,46.6-144.1-3.2-206.1
		c-49.8-62.1-182.1,114.8-244.2-19.7c-62.1-134.5,12.1-293.7,100.1-314.6c88.1-21,110.5-200.2-12.5-245.5"/>
	
		<linearGradient id="SVGID_11_" gradientUnits="userSpaceOnUse" x1="298.4621" y1="108.9016" x2="603.2022" y2="109.4116" gradientTransform="matrix(1 0 0 -1 0 699.144)">
		<stop  offset="0.4167" style="stop-color:#0C6F97"/>
		<stop  offset="0.8646" style="stop-color:#0C6F97;stop-opacity:0"/>
	</linearGradient>
	<path class="st11" d="M564,1059.4c-19.2-20.3-46.2-78.7-0.3-149.3c57.4-88.3,48.5-143-0.3-206.2c-48.9-63.1-183.4,110.8-243.5-25.1
		S336,385.4,424.2,366.4c88.2-19,113.1-197.8-9.1-245.8"/>
	
		<linearGradient id="SVGID_12_" gradientUnits="userSpaceOnUse" x1="304.2134" y1="107.3103" x2="608.4434" y2="103.6102" gradientTransform="matrix(1 0 0 -1 0 699.144)">
		<stop  offset="0.4167" style="stop-color:#0C6F97"/>
		<stop  offset="0.8646" style="stop-color:#0C6F97;stop-opacity:0"/>
	</linearGradient>
	<path class="st12" d="M562.8,1065.2c-18.9-20.8-45-79.7,1.8-149.3c58.6-87,50.4-142,2.5-206.2c-47.9-64.2-184.6,106.7-242.7-30.4
		c-58.1-137.2,20.1-293,108.5-310.1c88.3-17.1,115.6-195.3-5.7-246"/>
	
		<linearGradient id="SVGID_13_" gradientUnits="userSpaceOnUse" x1="309.9097" y1="105.5383" x2="613.5997" y2="97.6583" gradientTransform="matrix(1 0 0 -1 0 699.144)">
		<stop  offset="0.4167" style="stop-color:#0C6F97"/>
		<stop  offset="0.8646" style="stop-color:#0C6F97;stop-opacity:0"/>
	</linearGradient>
	<path class="st13" d="M561.6,1071c-18.6-21.2-43.8-80.7,3.9-149.3c59.6-85.7,52.3-140.8,5.3-206.1
		c-46.9-65.3-185.7,102.7-241.9-35.8s24.2-292.5,112.5-307.7c88.4-15.1,118.1-192.7-2.3-246.1"/>
	
		<linearGradient id="SVGID_14_" gradientUnits="userSpaceOnUse" x1="315.7511" y1="104.05" x2="618.8912" y2="92.0101" gradientTransform="matrix(1 0 0 -1 0 699.144)">
		<stop  offset="0.4167" style="stop-color:#0C6F97"/>
		<stop  offset="0.8646" style="stop-color:#0C6F97;stop-opacity:0"/>
	</linearGradient>
	<path class="st14" d="M560.4,1076.4c-18.3-21.6-42.7-81.6,5.9-149.2c60.7-84.4,54.1-139.7,8.2-205.9c-46-66.3-186.8,98.5-241-41.1
		c-54.1-139.7,28.1-292,116.6-305.1c88.4-13.2,120.6-190.1,1.1-246.1"/>
	
		<linearGradient id="SVGID_15_" gradientUnits="userSpaceOnUse" x1="321.5267" y1="102.3947" x2="624.0867" y2="86.2247" gradientTransform="matrix(1 0 0 -1 0 699.144)">
		<stop  offset="0.4167" style="stop-color:#0C6F97"/>
		<stop  offset="0.8646" style="stop-color:#0C6F97;stop-opacity:0"/>
	</linearGradient>
	<path class="st15" d="M559.2,1081.8c-17.9-22-41.5-82.6,8-149c61.8-83.1,56-138.4,11-205.8s-187.8,94.4-240-46.4
		s32.1-291.3,120.6-302.5c88.5-11.2,123-187.4,4.5-246.1"/>
	
		<linearGradient id="SVGID_16_" gradientUnits="userSpaceOnUse" x1="327.2269" y1="100.5822" x2="629.1868" y2="80.2921" gradientTransform="matrix(1 0 0 -1 0 699.144)">
		<stop  offset="0.4167" style="stop-color:#0C6F97"/>
		<stop  offset="0.8646" style="stop-color:#0C6F97;stop-opacity:0"/>
	</linearGradient>
	<path class="st16" d="M558,1087.3c-17.6-22.4-40.2-83.5,10-148.8c62.8-81.7,57.8-137.2,13.8-205.5c-44-68.3-188.8,90.2-238.9-51.8
		c-50.1-142,36-290.6,124.5-299.8c88.5-9.3,125.3-184.6,7.9-245.9"/>
	
		<linearGradient id="SVGID_17_" gradientUnits="userSpaceOnUse" x1="332.8509" y1="98.6109" x2="634.201" y2="74.221" gradientTransform="matrix(1 0 0 -1 0 699.144)">
		<stop  offset="0.4167" style="stop-color:#0C6F97"/>
		<stop  offset="0.8646" style="stop-color:#0C6F97;stop-opacity:0"/>
	</linearGradient>
	<path class="st17" d="M556.6,1092.7c-17.3-22.8-39-84.4,12-148.6c63.8-80.3,59.5-135.9,16.6-205.2c-43-69.3-189.7,86-237.7-57
		c-48.1-143.1,40-289.7,128.4-297c88.4-7.3,127.6-181.9,11.2-245.7"/>
	
		<linearGradient id="SVGID_18_" gradientUnits="userSpaceOnUse" x1="338.6176" y1="96.9332" x2="639.3378" y2="68.4731" gradientTransform="matrix(1 0 0 -1 0 699.144)">
		<stop  offset="0.4167" style="stop-color:#0C6F97"/>
		<stop  offset="0.8646" style="stop-color:#0C6F97;stop-opacity:0"/>
	</linearGradient>
	<path class="st18" d="M555.4,1097.6c-16.9-23.2-37.8-85.2,14-148.3c64.8-78.8,61.3-134.6,19.4-204.8
		c-41.9-70.2-190.5,81.8-236.5-62.3c-46-144.1,43.9-288.8,132.2-294.2c88.4-5.3,129.9-179,14.6-245.5"/>
	
		<linearGradient id="SVGID_19_" gradientUnits="userSpaceOnUse" x1="344.3093" y1="95.097" x2="644.3792" y2="62.577" gradientTransform="matrix(1 0 0 -1 0 699.144)">
		<stop  offset="0.4167" style="stop-color:#0C6F97"/>
		<stop  offset="0.8646" style="stop-color:#0C6F97;stop-opacity:0"/>
	</linearGradient>
	<path class="st19" d="M554.1,1102.6c-16.6-23.5-36.6-86.1,16-148c65.8-77.4,63-133.2,22.1-204.3C551.4,679.2,401,827.9,357,682.7
		c-44-145.1,47.7-287.8,136-291.2c88.3-3.4,132.1-176.1,17.9-245.1"/>
	
		<linearGradient id="SVGID_20_" gradientUnits="userSpaceOnUse" x1="349.9139" y1="93.1199" x2="649.3139" y2="56.55" gradientTransform="matrix(1 0 0 -1 0 699.144)">
		<stop  offset="0.4167" style="stop-color:#0C6F97"/>
		<stop  offset="0.8646" style="stop-color:#0C6F97;stop-opacity:0"/>
	</linearGradient>
	<path class="st20" d="M552.7,1107.5c-16.2-23.9-35.3-86.8,18-147.6c66.7-75.9,64.7-131.8,24.9-203.8c-39.8-72-192,73.3-233.9-72.8
		s51.6-286.7,139.7-288.1c88.2-1.4,134.3-173.1,21.2-244.7"/>
	
		<linearGradient id="SVGID_21_" gradientUnits="userSpaceOnUse" x1="355.6615" y1="91.4434" x2="654.3715" y2="50.8334" gradientTransform="matrix(1 0 0 -1 0 699.144)">
		<stop  offset="0.4167" style="stop-color:#0C6F97"/>
		<stop  offset="0.8646" style="stop-color:#0C6F97;stop-opacity:0"/>
	</linearGradient>
	<path class="st21" d="M551.5,1112c-15.9-24.3-34.1-87.6,20-147.2c67.6-74.4,66.4-130.3,27.6-203.2c-38.8-72.9-192.7,69-232.5-78
		c-39.8-147,55.4-285.5,143.4-285s136.4-170.1,24.5-244.2"/>
	
		<linearGradient id="SVGID_22_" gradientUnits="userSpaceOnUse" x1="361.3329" y1="89.6205" x2="659.3329" y2="44.9905" gradientTransform="matrix(1 0 0 -1 0 699.144)">
		<stop  offset="0.4167" style="stop-color:#0C6F97"/>
		<stop  offset="0.8646" style="stop-color:#0C6F97;stop-opacity:0"/>
	</linearGradient>
	<path class="st22" d="M550.2,1116.5c-15.5-24.6-32.8-88.4,22-146.7c68.5-72.9,68.1-128.8,30.3-202.6
		c-37.7-73.8-193.2,64.7-231-83.2c-37.8-147.9,59.2-284.3,147-281.7c87.9,2.5,138.4-167,27.8-243.6"/>
	
		<linearGradient id="SVGID_23_" gradientUnits="userSpaceOnUse" x1="367.1276" y1="88.1047" x2="664.4177" y2="39.4647" gradientTransform="matrix(1 0 0 -1 0 699.144)">
		<stop  offset="0.4167" style="stop-color:#0C6F97"/>
		<stop  offset="0.8646" style="stop-color:#0C6F97;stop-opacity:0"/>
	</linearGradient>
	<path class="st23" d="M549,1120.5c-15.1-24.9-31.6-89.1,23.9-146.2c69.3-71.4,69.7-127.3,33-201.9
		c-36.6-74.6-193.8,60.4-229.4-88.4c-35.7-148.7,62.9-282.9,150.6-278.4c87.7,4.5,140.5-163.9,31-243"/>
	
		<linearGradient id="SVGID_24_" gradientUnits="userSpaceOnUse" x1="373.198" y1="86.5317" x2="669.748" y2="33.8717" gradientTransform="matrix(1 0 0 -1 0 699.144)">
		<stop  offset="0.4167" style="stop-color:#0C6F97"/>
		<stop  offset="0.8646" style="stop-color:#0C6F97;stop-opacity:0"/>
	</linearGradient>
	<path class="st24" d="M548.1,1124.5c-14.8-25.3-30.3-89.8,25.9-145.7c70.2-69.8,71.3-125.7,35.7-201.1s-194.2,56-227.8-93.5
		c-33.6-149.5,66.6-281.5,154.1-275c87.4,6.5,142.4-160.8,34.3-242.3"/>
	
		<linearGradient id="SVGID_25_" gradientUnits="userSpaceOnUse" x1="378.6917" y1="85.1387" x2="674.4818" y2="28.4787" gradientTransform="matrix(1 0 0 -1 0 699.144)">
		<stop  offset="0.4167" style="stop-color:#0C6F97"/>
		<stop  offset="0.8646" style="stop-color:#0C6F97;stop-opacity:0"/>
	</linearGradient>
	<path class="st25" d="M546.7,1128.1c-14.4-25.6-29-90.5,27.8-145.1c71-68.2,72.8-124.1,38.4-200.3s-194.6,51.7-226.1-98.6
		s70.3-280,157.5-271.5c87.2,8.4,144.3-157.6,37.5-241.5"/>
	<g class="st0">
		
			<linearGradient id="SVGID_26_" gradientUnits="userSpaceOnUse" x1="-1221.5009" y1="364.2864" x2="-1532.9529" y2="61.0153" gradientTransform="matrix(1 0 0 -1 0 699.144)">
			<stop  offset="0.4167" style="stop-color:#0C6F97"/>
			<stop  offset="0.8646" style="stop-color:#0C6F97;stop-opacity:0"/>
		</linearGradient>
		<path class="st26" d="M-1940.7,137.7c37.9-0.3,119.8,28.9,144.4,148.3c30.7,149.2,92,194.2,199.4,204.7
			c107.4,10.6,67.3-306.2,255.6-235.4c188.3,70.9,267.9,309.1,202.4,422.3c-65.4,113.2,83.4,317.7,245.9,234.8"/>
		
			<linearGradient id="SVGID_27_" gradientUnits="userSpaceOnUse" x1="-1228.7072" y1="360.9348" x2="-1543.6505" y2="63.0128" gradientTransform="matrix(1 0 0 -1 0 699.144)">
			<stop  offset="0.4167" style="stop-color:#0C6F97"/>
			<stop  offset="0.8646" style="stop-color:#0C6F97;stop-opacity:0"/>
		</linearGradient>
		<path class="st27" d="M-1945.3,128.9c38,0.4,119.7,31.2,142.4,150.5c28.4,149.2,89.1,195.2,196.6,207.8
			c107.5,12.7,72.3-303.6,259.9-229.3c187.6,74.3,263.7,313.1,196.3,424.5c-67.4,111.4,78.6,318,242.8,238.7"/>
		
			<linearGradient id="SVGID_28_" gradientUnits="userSpaceOnUse" x1="-1235.9203" y1="357.1401" x2="-1554.2782" y2="64.5431" gradientTransform="matrix(1 0 0 -1 0 699.144)">
			<stop  offset="0.4167" style="stop-color:#0C6F97"/>
			<stop  offset="0.8646" style="stop-color:#0C6F97;stop-opacity:0"/>
		</linearGradient>
		<path class="st28" d="M-1949.6,120.7c38.1,1.2,119.5,33.4,140.4,152.7c26.1,149.1,86.2,196.1,193.8,210.9
			c107.6,14.7,77.3-300.8,264.2-223.1c186.9,77.7,259.4,317,190,426.6c-69.3,109.6,73.8,318.2,239.6,242.5"/>
		
			<linearGradient id="SVGID_29_" gradientUnits="userSpaceOnUse" x1="-1243.2467" y1="353.5981" x2="-1564.9468" y2="66.3041" gradientTransform="matrix(1 0 0 -1 0 699.144)">
			<stop  offset="0.4167" style="stop-color:#0C6F97"/>
			<stop  offset="0.8646" style="stop-color:#0C6F97;stop-opacity:0"/>
		</linearGradient>
		<path class="st29" d="M-1953.9,112.4c38.2,1.9,119.2,35.6,138.3,154.8c23.8,149,83.4,197,190.9,213.8
			c107.6,16.8,82.2-298,268.4-216.9c186.1,81.1,255,320.8,183.8,428.5c-71.2,107.8,68.9,318.3,236.4,246.2"/>
		
			<linearGradient id="SVGID_30_" gradientUnits="userSpaceOnUse" x1="-1250.6886" y1="350.3144" x2="-1575.6625" y2="68.2953" gradientTransform="matrix(1 0 0 -1 0 699.144)">
			<stop  offset="0.4167" style="stop-color:#0C6F97"/>
			<stop  offset="0.8646" style="stop-color:#0C6F97;stop-opacity:0"/>
		</linearGradient>
		<path class="st30" d="M-1958.1,104.1c38.2,2.7,119,37.9,136.2,156.9c21.5,148.8,80.4,197.8,188,216.7
			c107.6,18.9,87.1-295.1,272.4-210.6c185.3,84.5,250.5,324.5,177.4,430.3c-73.1,105.9,64.1,318.2,233.1,249.8"/>
		
			<linearGradient id="SVGID_31_" gradientUnits="userSpaceOnUse" x1="-1258.2224" y1="347.2794" x2="-1586.4038" y2="70.5274" gradientTransform="matrix(1 0 0 -1 0 699.144)">
			<stop  offset="0.4167" style="stop-color:#0C6F97"/>
			<stop  offset="0.8646" style="stop-color:#0C6F97;stop-opacity:0"/>
		</linearGradient>
		<path class="st31" d="M-1962.3,95.6c38.3,3.4,118.7,40.1,134,158.9c19.2,148.6,77.5,198.5,185.1,219.5
			c107.6,21,92-292,276.5-204.2c184.4,87.8,246,328,171.1,432c-75,104,59.2,318.1,229.7,253.4"/>
		
			<linearGradient id="SVGID_32_" gradientUnits="userSpaceOnUse" x1="-1265.8517" y1="344.49" x2="-1597.1776" y2="72.991" gradientTransform="matrix(1 0 0 -1 0 699.144)">
			<stop  offset="0.4167" style="stop-color:#0C6F97"/>
			<stop  offset="0.8646" style="stop-color:#0C6F97;stop-opacity:0"/>
		</linearGradient>
		<path class="st32" d="M-1966.3,87.1c38.3,4.2,118.3,42.3,131.9,160.9c16.9,148.3,74.6,199.2,182.1,222.2
			c107.5,23,96.9-288.9,280.4-197.8s241.5,331.5,164.7,433.5c-76.8,102,54.3,317.9,226.3,256.9"/>
		
			<linearGradient id="SVGID_33_" gradientUnits="userSpaceOnUse" x1="-1273.4662" y1="341.2711" x2="-1607.876" y2="74.9942" gradientTransform="matrix(1 0 0 -1 0 699.144)">
			<stop  offset="0.4167" style="stop-color:#0C6F97"/>
			<stop  offset="0.8646" style="stop-color:#0C6F97;stop-opacity:0"/>
		</linearGradient>
		<path class="st33" d="M-1970.2,79.1c38.4,4.9,118,44.4,129.7,162.8c14.6,148,71.6,199.8,179,224.8
			c107.4,25.1,101.7-285.7,284.2-191.3c182.5,94.3,236.8,334.8,158.2,434.8c-78.6,100,49.4,317.6,222.8,260.2"/>
		
			<linearGradient id="SVGID_34_" gradientUnits="userSpaceOnUse" x1="-1281.054" y1="337.6044" x2="-1618.4917" y2="76.5445" gradientTransform="matrix(1 0 0 -1 0 699.144)">
			<stop  offset="0.4167" style="stop-color:#0C6F97"/>
			<stop  offset="0.8646" style="stop-color:#0C6F97;stop-opacity:0"/>
		</linearGradient>
		<path class="st34" d="M-1973.9,71.8c38.4,5.7,117.6,46.6,127.4,164.7c12.3,147.6,68.6,200.3,175.9,227.4
			c107.3,27.1,106.5-282.4,288-184.8c181.5,97.6,232.2,338,151.8,436c-80.4,98,44.5,317.1,219.3,263.5"/>
		
			<linearGradient id="SVGID_35_" gradientUnits="userSpaceOnUse" x1="-1288.7184" y1="334.1801" x2="-1629.1309" y2="78.3131" gradientTransform="matrix(1 0 0 -1 0 699.144)">
			<stop  offset="0.4167" style="stop-color:#0C6F97"/>
			<stop  offset="0.8646" style="stop-color:#0C6F97;stop-opacity:0"/>
		</linearGradient>
		<path class="st35" d="M-1977.5,64.4c38.4,6.4,117.1,48.7,125.1,166.5c10,147.2,65.6,200.8,172.8,229.9
			c107.1,29.1,111.2-279,291.7-178.2c180.4,100.7,227.4,341.2,145.3,437.1c-82.2,95.9,39.6,316.6,215.7,266.7"/>
		
			<linearGradient id="SVGID_36_" gradientUnits="userSpaceOnUse" x1="-1296.4526" y1="331.0125" x2="-1639.7871" y2="80.3365" gradientTransform="matrix(1 0 0 -1 0 699.144)">
			<stop  offset="0.4167" style="stop-color:#0C6F97"/>
			<stop  offset="0.8646" style="stop-color:#0C6F97;stop-opacity:0"/>
		</linearGradient>
		<path class="st36" d="M-1981,56.9c38.4,7.2,116.7,50.8,122.8,168.2c7.7,146.7,62.6,201.2,169.6,232.3
			c107,31.1,116-275.5,295.3-171.6s222.6,344.1,138.7,438c-83.9,93.9,34.7,315.9,212,269.8"/>
		
			<linearGradient id="SVGID_37_" gradientUnits="userSpaceOnUse" x1="-1304.2609" y1="328.0956" x2="-1650.4702" y2="82.5867" gradientTransform="matrix(1 0 0 -1 0 699.144)">
			<stop  offset="0.4167" style="stop-color:#0C6F97"/>
			<stop  offset="0.8646" style="stop-color:#0C6F97;stop-opacity:0"/>
		</linearGradient>
		<path class="st37" d="M-1984.5,49.4c38.4,7.9,116.2,52.9,120.5,169.9c5.4,146.2,59.6,201.5,166.4,234.6
			C-1590.8,487-1577,182-1398.8,289s217.7,347,132.1,438.8c-85.6,91.8,29.8,315.2,208.3,272.8"/>
		
			<linearGradient id="SVGID_38_" gradientUnits="userSpaceOnUse" x1="-1312.1359" y1="325.4244" x2="-1661.1736" y2="85.0693" gradientTransform="matrix(1 0 0 -1 0 699.144)">
			<stop  offset="0.4167" style="stop-color:#0C6F97"/>
			<stop  offset="0.8646" style="stop-color:#0C6F97;stop-opacity:0"/>
		</linearGradient>
		<path class="st38" d="M-1987.8,41.7c38.4,8.6,115.7,55,118.1,171.5c3.1,145.7,56.6,201.8,163.1,236.9
			c106.5,35.1,125.3-268.2,302.2-158.2c177,110.1,212.8,349.8,125.6,439.4c-87.3,89.6,24.9,314.3,204.5,275.7"/>
		
			<linearGradient id="SVGID_39_" gradientUnits="userSpaceOnUse" x1="-1319.9475" y1="322.3105" x2="-1671.7694" y2="87.1015" gradientTransform="matrix(1 0 0 -1 0 699.144)">
			<stop  offset="0.4167" style="stop-color:#0C6F97"/>
			<stop  offset="0.8646" style="stop-color:#0C6F97;stop-opacity:0"/>
		</linearGradient>
		<path class="st39" d="M-1991,34.7c38.3,9.4,115.1,57.1,115.7,173.1c0.8,145,53.5,202,159.8,239
			c106.3,37.1,129.8-264.5,305.5-151.4c175.7,113.1,207.9,352.4,118.9,439.9c-88.9,87.5,20,313.4,200.7,278.5"/>
		
			<linearGradient id="SVGID_40_" gradientUnits="userSpaceOnUse" x1="-1327.8198" y1="319.4347" x2="-1682.3859" y2="89.3668" gradientTransform="matrix(1 0 0 -1 0 699.144)">
			<stop  offset="0.4167" style="stop-color:#0C6F97"/>
			<stop  offset="0.8646" style="stop-color:#0C6F97;stop-opacity:0"/>
		</linearGradient>
		<path class="st40" d="M-1994.1,27.6c38.3,10.1,114.5,59.1,113.3,174.6c-1.5,144.4,50.5,202.1,156.5,241.1
			c106,39,134.4-260.6,308.8-144.5s202.9,354.9,112.3,440.2c-90.6,85.3,15.1,312.3,196.9,281.2"/>
		
			<linearGradient id="SVGID_41_" gradientUnits="userSpaceOnUse" x1="-1335.7383" y1="316.8026" x2="-1693.0082" y2="91.8687" gradientTransform="matrix(1 0 0 -1 0 699.144)">
			<stop  offset="0.4167" style="stop-color:#0C6F97"/>
			<stop  offset="0.8646" style="stop-color:#0C6F97;stop-opacity:0"/>
		</linearGradient>
		<path class="st41" d="M-1997.1,20.5c38.2,10.8,113.9,61.1,110.9,176.1c-3.8,143.7,47.4,202.2,153.1,243.1
			c105.6,41,138.9-256.7,311.9-137.7c173,119,197.8,357.3,105.6,440.4c-92.2,83,10.2,311.1,193,283.9"/>
		
			<linearGradient id="SVGID_42_" gradientUnits="userSpaceOnUse" x1="-1343.698" y1="314.4167" x2="-1703.6349" y2="94.6046" gradientTransform="matrix(1 0 0 -1 0 699.144)">
			<stop  offset="0.4167" style="stop-color:#0C6F97"/>
			<stop  offset="0.8646" style="stop-color:#0C6F97;stop-opacity:0"/>
		</linearGradient>
		<path class="st42" d="M-2000,13.2c38.2,11.5,113.3,63.1,108.4,177.5c-6.1,142.9,44.4,202.2,149.7,245
			c105.3,42.9,143.3-252.7,315-130.8c171.6,122,192.7,359.6,99,440.4c-93.8,80.8,5.3,309.9,189,286.4"/>
		
			<linearGradient id="SVGID_43_" gradientUnits="userSpaceOnUse" x1="-1351.5894" y1="311.571" x2="-1714.1582" y2="96.873" gradientTransform="matrix(1 0 0 -1 0 699.144)">
			<stop  offset="0.4167" style="stop-color:#0C6F97"/>
			<stop  offset="0.8646" style="stop-color:#0C6F97;stop-opacity:0"/>
		</linearGradient>
		<path class="st43" d="M-2002.6,6.7c38.1,12.2,112.6,65.1,105.9,178.8c-8.4,142.1,41.3,202.1,146.2,246.9
			c104.9,44.8,147.8-248.6,317.9-123.8c170.2,124.8,187.6,361.8,92.3,440.3c-95.3,78.5,0.4,308.5,185,288.8"/>
		
			<linearGradient id="SVGID_44_" gradientUnits="userSpaceOnUse" x1="-1359.5126" y1="308.9727" x2="-1724.6802" y2="99.3878" gradientTransform="matrix(1 0 0 -1 0 699.144)">
			<stop  offset="0.4167" style="stop-color:#0C6F97"/>
			<stop  offset="0.8646" style="stop-color:#0C6F97;stop-opacity:0"/>
		</linearGradient>
		<path class="st44" d="M-2005.3,0c38,12.9,111.9,67.1,103.3,180.1c-10.6,141.3,38.2,202,142.7,248.6
			c104.5,46.7,152.1-244.5,320.8-116.9c168.7,127.6,182.4,363.8,85.6,440.1c-96.8,76.3-4.5,307.1,181,291.2"/>
		
			<linearGradient id="SVGID_45_" gradientUnits="userSpaceOnUse" x1="-1367.455" y1="306.6005" x2="-1735.1899" y2="102.1385" gradientTransform="matrix(1 0 0 -1 0 699.144)">
			<stop  offset="0.4167" style="stop-color:#0C6F97"/>
			<stop  offset="0.8646" style="stop-color:#0C6F97;stop-opacity:0"/>
		</linearGradient>
		<path class="st45" d="M-2007.8-6.7c37.9,13.6,111.1,69,100.8,181.3c-12.9,140.4,35.1,201.8,139.2,250.3
			c104.1,48.6,156.4-240.3,323.6-109.8c167.2,130.4,177.1,365.7,78.8,439.7c-98.3,73.9-9.4,305.5,176.9,293.4"/>
		
			<linearGradient id="SVGID_46_" gradientUnits="userSpaceOnUse" x1="-1375.3148" y1="303.773" x2="-1745.5863" y2="104.427" gradientTransform="matrix(1 0 0 -1 0 699.144)">
			<stop  offset="0.4167" style="stop-color:#0C6F97"/>
			<stop  offset="0.8646" style="stop-color:#0C6F97;stop-opacity:0"/>
		</linearGradient>
		<path class="st46" d="M-2010.1-12.8c37.8,14.3,110.4,70.9,98.2,182.4c-15.2,139.4,32,201.5,135.6,251.9
			c103.6,50.4,160.7-235.9,326.3-102.8c165.6,133.2,171.9,367.5,72.1,439.1c-99.7,71.6-14.2,303.8,172.8,295.6"/>
		
			<linearGradient id="SVGID_47_" gradientUnits="userSpaceOnUse" x1="-1383.2004" y1="301.1763" x2="-1755.9808" y2="106.9463" gradientTransform="matrix(1 0 0 -1 0 699.144)">
			<stop  offset="0.4167" style="stop-color:#0C6F97"/>
			<stop  offset="0.8646" style="stop-color:#0C6F97;stop-opacity:0"/>
		</linearGradient>
		<path class="st47" d="M-2012.3-18.9c37.7,15,109.6,72.8,95.6,183.5c-17.4,138.5,28.9,201.2,132,253.4
			c103.1,52.3,164.9-231.6,328.8-95.7c164,135.8,166.6,369.2,65.4,438.5c-101.2,69.3-19.1,302.1,168.6,297.6"/>
		
			<linearGradient id="SVGID_48_" gradientUnits="userSpaceOnUse" x1="-1390.9836" y1="298.1245" x2="-1766.2465" y2="109.0144" gradientTransform="matrix(1 0 0 -1 0 699.144)">
			<stop  offset="0.4167" style="stop-color:#0C6F97"/>
			<stop  offset="0.8646" style="stop-color:#0C6F97;stop-opacity:0"/>
		</linearGradient>
		<path class="st48" d="M-2014.3-24.4c37.6,15.7,108.7,74.6,93,184.6c-19.7,137.4,25.9,200.8,128.4,254.9
			c102.6,54.1,169-227.1,331.3-88.6c162.3,138.5,161.2,370.8,58.7,437.6c-102.6,66.9-23.9,300.2,164.4,299.6"/>
		
			<linearGradient id="SVGID_49_" gradientUnits="userSpaceOnUse" x1="-1399.1309" y1="294.9235" x2="-1776.8491" y2="110.9475" gradientTransform="matrix(1 0 0 -1 0 699.144)">
			<stop  offset="0.4167" style="stop-color:#0C6F97"/>
			<stop  offset="0.8646" style="stop-color:#0C6F97;stop-opacity:0"/>
		</linearGradient>
		<path class="st49" d="M-2016.5-29.6c37.4,16.4,107.9,76.5,90.4,185.5c-21.9,136.4,22.8,200.3,124.8,256.2
			c102,55.9,173.1-222.6,333.7-81.5c160.6,141.1,155.8,372.2,51.9,436.7c-103.9,64.5-28.7,298.2,160.2,301.4"/>
		
			<linearGradient id="SVGID_50_" gradientUnits="userSpaceOnUse" x1="-1406.4624" y1="291.9844" x2="-1786.6119" y2="113.1464" gradientTransform="matrix(1 0 0 -1 0 699.144)">
			<stop  offset="0.4167" style="stop-color:#0C6F97"/>
			<stop  offset="0.8646" style="stop-color:#0C6F97;stop-opacity:0"/>
		</linearGradient>
		<path class="st50" d="M-2017.8-34.9c37.3,17.1,107,78.3,87.7,186.5c-24.1,135.2,19.7,199.8,121.1,257.5
			c101.5,57.7,177.1-218,336-74.3c158.9,143.6,150.4,373.5,45.2,435.6c-105.3,62.1-33.5,296.2,155.9,303.2"/>
	</g>
</g>
</svg>
