<svg width="934" height="1384" viewBox="0 0 934 1384" fill="none" xmlns="http://www.w3.org/2000/svg">
<g opacity="0.26">
<path opacity="0.04" d="M420.513 136.201C420.507 174.107 390.595 255.794 270.999 279.299C121.504 308.679 76.0345 369.581 64.5513 476.885C53.0681 584.189 370.199 546.831 297.72 734.494C225.241 922.156 -13.6372 999.716 -126.295 933.294C-238.952 866.872 -444.664 1014 -363.184 1177.2" stroke="url(#paint0_linear_698_11932)"/>
<path opacity="0.08" d="M429.336 131.737C428.572 169.732 397.154 251.142 277.596 272.821C128.148 299.919 81.6549 360.25 68.076 467.627C54.497 575.004 371.029 542.547 295.107 729.514C219.185 916.48 -20.2296 990.466 -131.081 922.114C-241.933 853.763 -449.713 998.002 -371.84 1162.87" stroke="url(#paint1_linear_698_11932)"/>
<path opacity="0.12" d="M437.553 127.451C436.033 165.525 403.123 246.635 283.642 266.483C134.291 291.294 86.7909 351.037 71.1239 458.458C55.4569 565.878 371.284 538.326 291.95 724.545C212.616 910.763 -27.2538 981.157 -136.266 910.898C-245.278 840.638 -455.052 981.951 -380.807 1148.44" stroke="url(#paint2_linear_698_11932)"/>
<path opacity="0.16" d="M445.862 123.237C443.587 161.379 409.197 242.167 289.834 260.182C140.63 282.701 92.1399 341.841 74.3931 449.274C56.6463 556.708 371.666 534.063 288.95 719.483C206.235 904.902 -34.0095 971.69 -141.148 899.543C-248.286 827.396 -459.983 965.748 -389.385 1133.81" stroke="url(#paint3_linear_698_11932)"/>
<path opacity="0.2" d="M454.263 119.089C451.235 157.288 415.379 237.732 296.173 253.911C147.165 274.134 97.7026 332.654 77.8848 440.071C58.0671 547.488 372.175 529.751 286.111 714.321C200.047 898.891 -40.4924 962.057 -145.724 888.046C-250.956 814.035 -464.501 949.39 -397.57 1118.98" stroke="url(#paint4_linear_698_11932)"/>
<path opacity="0.24" d="M462.754 115.022C458.976 153.268 421.667 233.346 302.658 247.686C153.895 265.61 103.478 323.496 81.5989 430.867C59.7196 538.237 372.812 525.406 283.432 709.076C194.053 892.747 -46.7001 952.278 -149.993 876.425C-253.286 800.572 -468.607 932.897 -405.358 1103.96" stroke="url(#paint5_linear_698_11932)"/>
<path opacity="0.28" d="M471.327 111.03C466.801 149.312 428.054 229.002 309.28 241.502C160.813 257.126 109.459 314.362 85.5281 421.655C61.5971 528.949 373.571 521.022 280.91 703.743C188.25 886.463 -52.6372 942.348 -153.959 864.677C-255.282 787.006 -472.304 916.267 -412.754 1088.75" stroke="url(#paint6_linear_698_11932)"/>
<path opacity="0.32" d="M479.296 107.219C474.023 145.527 433.854 224.807 315.355 235.465C167.231 248.788 114.959 305.358 88.9866 412.546C63.0146 519.734 373.768 516.706 277.861 698.427C181.953 880.148 -58.9869 932.375 -158.307 852.91C-257.627 773.446 -476.276 899.611 -420.441 1073.47" stroke="url(#paint7_linear_698_11932)"/>
<path opacity="0.36" d="M486.65 103.592C480.634 141.914 439.056 220.764 320.871 229.58C173.139 240.6 119.968 296.491 91.9654 403.542C63.9632 510.594 373.395 512.46 274.276 693.133C175.158 873.805 -65.7554 922.365 -163.043 841.131C-260.33 759.897 -480.532 882.936 -428.426 1058.12" stroke="url(#paint8_linear_698_11932)"/>
<path opacity="0.4" d="M494.076 100.047C487.32 138.374 444.349 216.771 326.517 223.745C179.226 232.463 125.174 287.659 95.1529 394.546C65.1323 501.432 373.14 508.184 270.848 687.76C168.555 867.335 -72.2517 912.22 -167.477 829.241C-262.701 746.262 -484.381 866.145 -436.016 1042.6" stroke="url(#paint9_linear_698_11932)"/>
<path opacity="0.44" d="M501.591 96.5885C494.097 134.909 449.749 212.832 332.309 217.966C185.508 224.383 130.592 278.87 98.5655 385.562C66.5384 492.253 373.022 503.882 267.593 682.312C162.163 860.742 -78.4574 901.945 -171.59 817.247C-264.723 732.55 -487.805 849.248 -443.194 1026.93" stroke="url(#paint10_linear_698_11932)"/>
<path opacity="0.48" d="M509.181 93.2093C500.953 131.512 455.244 208.941 338.233 212.235C191.969 216.353 136.211 270.118 102.19 376.585C68.1697 483.052 373.03 499.548 264.501 676.784C155.973 854.021 -84.3819 891.536 -175.394 805.146C-266.406 718.756 -490.815 832.242 -449.97 1011.09" stroke="url(#paint11_linear_698_11932)"/>
<path opacity="0.52" d="M516.843 89.9124C507.884 128.187 460.831 205.101 344.288 206.558C198.61 208.379 142.028 261.407 106.027 367.621C70.0256 473.835 373.162 495.184 261.574 671.18C149.985 847.176 -90.0242 880.999 -178.887 792.943C-267.751 704.887 -493.411 815.134 -456.34 995.108" stroke="url(#paint12_linear_698_11932)"/>
<path opacity="0.56" d="M523.888 86.8168C514.202 125.053 465.821 201.432 349.785 201.054C204.74 200.581 147.353 252.859 109.385 358.791C71.4174 464.722 372.732 490.911 258.123 665.62C143.514 840.329 -96.0706 870.455 -182.758 780.761C-269.445 691.066 -496.281 798.05 -462.994 979.092" stroke="url(#paint13_linear_698_11932)"/>
<path opacity="0.6" d="M531 83.7993C520.591 121.987 470.899 197.809 355.407 195.6C211.043 192.838 152.871 244.353 112.951 349.973C73.0301 455.593 372.425 486.606 254.836 659.981C137.248 833.356 -101.834 859.785 -186.318 768.48C-270.802 677.174 -498.739 780.87 -469.243 962.928" stroke="url(#paint14_linear_698_11932)"/>
<path opacity="0.64" d="M538.181 80.8738C527.052 119.002 476.067 194.248 361.157 190.211C217.52 185.165 158.583 235.903 116.725 341.183C74.8666 446.463 372.244 482.283 251.717 654.279C131.19 826.274 -107.311 849.005 -189.566 756.117C-271.821 663.228 -500.782 763.613 -475.083 946.636" stroke="url(#paint15_linear_698_11932)"/>
<path opacity="0.68" d="M545.429 78.0415C533.585 116.099 481.325 190.75 367.034 184.89C224.171 177.565 164.49 227.514 120.709 332.425C76.9277 437.336 372.192 477.945 248.768 648.516C125.345 819.086 -112.497 838.119 -192.498 743.677C-272.498 649.234 -502.407 746.286 -480.512 930.22" stroke="url(#paint16_linear_698_11932)"/>
<path opacity="0.72" d="M552.039 75.4027C539.484 113.38 485.966 187.415 372.332 179.737C230.289 170.139 169.883 219.287 124.195 323.801C78.5077 428.314 371.563 473.692 245.286 642.793C119.008 811.894 -118.097 827.23 -195.818 731.263C-273.54 635.296 -504.321 728.994 -486.233 913.787" stroke="url(#paint17_linear_698_11932)"/>
<path opacity="0.76" d="M558.72 72.8577C545.459 110.744 490.702 184.145 377.762 174.654C236.586 162.79 175.475 211.124 127.896 315.213C80.3183 419.301 371.07 469.424 241.982 637.012C112.894 804.599 -123.397 816.242 -198.815 718.779C-274.234 621.317 -505.81 711.642 -491.534 897.241" stroke="url(#paint18_linear_698_11932)"/>
<path opacity="0.8" d="M565.459 70.4117C551.497 108.197 495.52 180.943 383.309 169.646C243.045 155.525 181.25 203.034 131.798 306.668C82.3462 410.303 370.701 465.149 238.846 631.179C106.991 797.209 -128.408 805.162 -201.501 706.235C-274.593 607.307 -506.888 694.241 -496.425 880.592" stroke="url(#paint19_linear_698_11932)"/>
<path opacity="0.84" d="M571.561 68.1648C556.902 105.839 499.724 177.912 388.279 164.816C248.973 148.445 186.514 195.117 135.206 298.27C83.8974 401.422 369.762 460.967 235.185 625.396C100.608 789.825 -133.823 794.095 -204.567 693.733C-275.311 593.371 -508.249 676.896 -501.6 863.946" stroke="url(#paint20_linear_698_11932)"/>
<path opacity="0.88" d="M577.714 66.0086C562.364 103.56 504.004 174.942 393.361 160.054C255.057 141.444 191.956 187.267 138.809 289.91C85.6615 392.554 368.945 456.769 231.691 619.556C94.4375 782.342 -138.95 782.934 -207.324 681.169C-275.697 579.403 -509.201 659.503 -506.367 847.199" stroke="url(#paint21_linear_698_11932)"/>
<path opacity="0.92" d="M583.233 64.0623C567.197 101.482 507.674 172.154 397.869 155.482C260.612 134.641 196.889 179.606 141.921 281.712C86.9535 383.818 367.564 452.677 227.68 613.779C87.7956 774.881 -144.473 771.803 -210.455 668.665C-276.437 565.528 -510.431 642.188 -511.411 830.475" stroke="url(#paint22_linear_698_11932)"/>
<path opacity="0.96" d="M588.437 61.8536C571.721 99.1312 511.056 169.075 402.123 150.627C265.957 127.568 201.633 171.662 144.864 273.204C88.0941 374.746 365.942 448.219 223.474 607.595C81.0056 766.97 -150.07 760.232 -213.64 655.754C-277.21 551.276 -511.618 624.483 -516.409 813.307" stroke="url(#paint23_linear_698_11932)"/>
<path d="M593.716 60.5692C576.325 97.6945 514.538 166.892 406.513 146.678C271.482 121.411 206.577 164.626 148.025 265.576C89.473 366.527 364.469 444.582 219.464 602.191C74.4594 759.8 -155.348 749.411 -216.486 643.625C-277.624 537.839 -512.371 607.579 -520.971 796.887" stroke="url(#paint24_linear_698_11932)"/>
</g>
<defs>
<linearGradient id="paint0_linear_698_11932" x1="254.834" y1="817.605" x2="-45.7387" y2="503.552" gradientUnits="userSpaceOnUse">
<stop offset="0.416667" stop-color="#0C6F97"/>
<stop offset="0.864583" stop-color="#0C6F97" stop-opacity="0"/>
</linearGradient>
<linearGradient id="paint1_linear_698_11932" x1="250.742" y1="812.147" x2="-44.459" y2="494.649" gradientUnits="userSpaceOnUse">
<stop offset="0.416667" stop-color="#0C6F97"/>
<stop offset="0.864583" stop-color="#0C6F97" stop-opacity="0"/>
</linearGradient>
<linearGradient id="paint2_linear_698_11932" x1="246.123" y1="806.677" x2="-43.7256" y2="485.811" gradientUnits="userSpaceOnUse">
<stop offset="0.416667" stop-color="#0C6F97"/>
<stop offset="0.864583" stop-color="#0C6F97" stop-opacity="0"/>
</linearGradient>
<linearGradient id="paint3_linear_698_11932" x1="241.679" y1="801.092" x2="-42.8384" y2="476.929" gradientUnits="userSpaceOnUse">
<stop offset="0.416667" stop-color="#0C6F97"/>
<stop offset="0.864583" stop-color="#0C6F97" stop-opacity="0"/>
</linearGradient>
<linearGradient id="paint4_linear_698_11932" x1="237.412" y1="795.386" x2="-41.793" y2="467.995" gradientUnits="userSpaceOnUse">
<stop offset="0.416667" stop-color="#0C6F97"/>
<stop offset="0.864583" stop-color="#0C6F97" stop-opacity="0"/>
</linearGradient>
<linearGradient id="paint5_linear_698_11932" x1="233.325" y1="789.574" x2="-40.5874" y2="459.022" gradientUnits="userSpaceOnUse">
<stop offset="0.416667" stop-color="#0C6F97"/>
<stop offset="0.864583" stop-color="#0C6F97" stop-opacity="0"/>
</linearGradient>
<linearGradient id="paint6_linear_698_11932" x1="229.413" y1="783.652" x2="-39.2256" y2="450" gradientUnits="userSpaceOnUse">
<stop offset="0.416667" stop-color="#0C6F97"/>
<stop offset="0.864583" stop-color="#0C6F97" stop-opacity="0"/>
</linearGradient>
<linearGradient id="paint7_linear_698_11932" x1="224.992" y1="777.726" x2="-38.3905" y2="441.035" gradientUnits="userSpaceOnUse">
<stop offset="0.416667" stop-color="#0C6F97"/>
<stop offset="0.864583" stop-color="#0C6F97" stop-opacity="0"/>
</linearGradient>
<linearGradient id="paint8_linear_698_11932" x1="220.056" y1="771.8" x2="-38.0881" y2="432.127" gradientUnits="userSpaceOnUse">
<stop offset="0.416667" stop-color="#0C6F97"/>
<stop offset="0.864583" stop-color="#0C6F97" stop-opacity="0"/>
</linearGradient>
<linearGradient id="paint9_linear_698_11932" x1="215.295" y1="765.775" x2="-37.6264" y2="423.172" gradientUnits="userSpaceOnUse">
<stop offset="0.416667" stop-color="#0C6F97"/>
<stop offset="0.864583" stop-color="#0C6F97" stop-opacity="0"/>
</linearGradient>
<linearGradient id="paint10_linear_698_11932" x1="210.727" y1="759.654" x2="-36.9861" y2="414.173" gradientUnits="userSpaceOnUse">
<stop offset="0.416667" stop-color="#0C6F97"/>
<stop offset="0.864583" stop-color="#0C6F97" stop-opacity="0"/>
</linearGradient>
<linearGradient id="paint11_linear_698_11932" x1="206.343" y1="753.433" x2="-36.1762" y2="405.122" gradientUnits="userSpaceOnUse">
<stop offset="0.416667" stop-color="#0C6F97"/>
<stop offset="0.864583" stop-color="#0C6F97" stop-opacity="0"/>
</linearGradient>
<linearGradient id="paint12_linear_698_11932" x1="202.143" y1="747.115" x2="-35.194" y2="396.021" gradientUnits="userSpaceOnUse">
<stop offset="0.416667" stop-color="#0C6F97"/>
<stop offset="0.864583" stop-color="#0C6F97" stop-opacity="0"/>
</linearGradient>
<linearGradient id="paint13_linear_698_11932" x1="197.441" y1="740.822" x2="-34.7252" y2="386.987" gradientUnits="userSpaceOnUse">
<stop offset="0.416667" stop-color="#0C6F97"/>
<stop offset="0.864583" stop-color="#0C6F97" stop-opacity="0"/>
</linearGradient>
<linearGradient id="paint14_linear_698_11932" x1="192.924" y1="734.43" x2="-34.0815" y2="377.896" gradientUnits="userSpaceOnUse">
<stop offset="0.416667" stop-color="#0C6F97"/>
<stop offset="0.864583" stop-color="#0C6F97" stop-opacity="0"/>
</linearGradient>
<linearGradient id="paint15_linear_698_11932" x1="188.597" y1="727.955" x2="-33.2567" y2="368.761" gradientUnits="userSpaceOnUse">
<stop offset="0.416667" stop-color="#0C6F97"/>
<stop offset="0.864583" stop-color="#0C6F97" stop-opacity="0"/>
</linearGradient>
<linearGradient id="paint16_linear_698_11932" x1="184.461" y1="721.4" x2="-32.2465" y2="359.584" gradientUnits="userSpaceOnUse">
<stop offset="0.416667" stop-color="#0C6F97"/>
<stop offset="0.864583" stop-color="#0C6F97" stop-opacity="0"/>
</linearGradient>
<linearGradient id="paint17_linear_698_11932" x1="179.813" y1="714.867" x2="-31.7533" y2="350.463" gradientUnits="userSpaceOnUse">
<stop offset="0.416667" stop-color="#0C6F97"/>
<stop offset="0.864583" stop-color="#0C6F97" stop-opacity="0"/>
</linearGradient>
<linearGradient id="paint18_linear_698_11932" x1="175.367" y1="708.257" x2="-31.0617" y2="341.298" gradientUnits="userSpaceOnUse">
<stop offset="0.416667" stop-color="#0C6F97"/>
<stop offset="0.864583" stop-color="#0C6F97" stop-opacity="0"/>
</linearGradient>
<linearGradient id="paint19_linear_698_11932" x1="171.111" y1="701.577" x2="-30.1812" y2="332.096" gradientUnits="userSpaceOnUse">
<stop offset="0.416667" stop-color="#0C6F97"/>
<stop offset="0.864583" stop-color="#0C6F97" stop-opacity="0"/>
</linearGradient>
<linearGradient id="paint20_linear_698_11932" x1="166.352" y1="694.93" x2="-29.8023" y2="322.955" gradientUnits="userSpaceOnUse">
<stop offset="0.416667" stop-color="#0C6F97"/>
<stop offset="0.864583" stop-color="#0C6F97" stop-opacity="0"/>
</linearGradient>
<linearGradient id="paint21_linear_698_11932" x1="161.784" y1="688.207" x2="-29.2315" y2="313.768" gradientUnits="userSpaceOnUse">
<stop offset="0.416667" stop-color="#0C6F97"/>
<stop offset="0.864583" stop-color="#0C6F97" stop-opacity="0"/>
</linearGradient>
<linearGradient id="paint22_linear_698_11932" x1="156.721" y1="681.531" x2="-29.15" y2="304.654" gradientUnits="userSpaceOnUse">
<stop offset="0.416667" stop-color="#0C6F97"/>
<stop offset="0.864583" stop-color="#0C6F97" stop-opacity="0"/>
</linearGradient>
<linearGradient id="paint23_linear_698_11932" x1="151.488" y1="674.43" x2="-29.2331" y2="295.141" gradientUnits="userSpaceOnUse">
<stop offset="0.416667" stop-color="#0C6F97"/>
<stop offset="0.864583" stop-color="#0C6F97" stop-opacity="0"/>
</linearGradient>
<linearGradient id="paint24_linear_698_11932" x1="146.474" y1="668.093" x2="-29.0871" y2="286.417" gradientUnits="userSpaceOnUse">
<stop offset="0.416667" stop-color="#0C6F97"/>
<stop offset="0.864583" stop-color="#0C6F97" stop-opacity="0"/>
</linearGradient>
</defs>
</svg>
