<svg width="667" height="1421" viewBox="0 0 667 1421" fill="none" xmlns="http://www.w3.org/2000/svg">
<path d="M10.2105 1418.36C-489.04 1053.34 -4.61753 913.098 137.584 754.203C405.124 455.258 159.181 344.168 14.4434 318.339C-37.8295 304.593 -111.228 239.665 13.3631 89.9125" stroke="url(#paint0_linear_698_12415)"/>
<path d="M1.41555 1410.95C-497.835 1045.93 -13.4125 905.689 128.789 746.794C396.329 447.849 150.386 336.758 5.64845 310.93C-46.6244 297.184 -120.023 232.255 4.5681 82.5031" stroke="url(#paint1_linear_698_12415)"/>
<path d="M-7.37941 1403.54C-506.63 1038.52 -22.2074 898.279 119.994 739.385C387.534 440.44 141.591 329.349 -3.14651 303.52C-55.4194 289.775 -128.817 224.846 -4.22685 75.0937" stroke="url(#paint2_linear_698_12415)"/>
<path d="M-16.1744 1396.13C-515.425 1031.11 -31.0024 890.87 111.2 731.975C378.739 433.03 132.796 321.94 -11.9415 296.111C-64.2143 282.365 -137.612 217.436 -13.0218 67.6845" stroke="url(#paint3_linear_698_12415)"/>
<path d="M-24.9693 1388.72C-524.22 1023.7 -39.7973 883.461 102.405 724.566C369.944 425.621 124.001 314.53 -20.7364 288.702C-73.0093 274.956 -146.407 210.027 -21.8168 60.2751" stroke="url(#paint4_linear_698_12415)"/>
<path d="M-33.7643 1381.31C-533.015 1016.29 -48.5923 876.051 93.6096 717.157C361.149 418.212 115.206 307.121 -29.5314 281.292C-81.8042 267.547 -155.202 202.618 -30.6117 52.8656" stroke="url(#paint5_linear_698_12415)"/>
<path d="M-42.5592 1373.91C-541.81 1008.88 -57.3872 868.642 84.8147 709.747C352.354 410.802 106.411 299.711 -38.3263 273.883C-90.5992 260.137 -163.997 195.208 -39.4067 45.4562" stroke="url(#paint6_linear_698_12415)"/>
<path d="M-51.3542 1366.5C-550.605 1001.47 -66.1822 861.232 76.0197 702.338C343.559 403.393 97.6161 292.302 -47.1213 266.473C-99.3941 252.728 -172.792 187.799 -48.2016 38.0468" stroke="url(#paint7_linear_698_12415)"/>
<path d="M-60.1491 1359.09C-559.4 994.061 -74.9771 853.823 67.2248 694.929C334.764 395.984 88.8211 284.893 -55.9162 259.064C-108.189 245.319 -181.587 180.39 -56.9966 30.6376" stroke="url(#paint8_linear_698_12415)"/>
<path d="M-68.9441 1351.68C-568.195 986.652 -83.7721 846.414 58.4298 687.519C325.969 388.574 80.0262 277.483 -64.7112 251.655C-116.984 237.909 -190.382 172.98 -65.7915 23.2282" stroke="url(#paint9_linear_698_12415)"/>
<path d="M-77.739 1344.27C-576.99 979.242 -92.5671 839.004 49.6349 680.11C317.174 381.165 71.2312 270.074 -73.5061 244.245C-125.779 230.5 -199.177 165.571 -74.5865 15.8188" stroke="url(#paint10_linear_698_12415)"/>
<path d="M-86.534 1336.86C-585.785 971.833 -101.362 831.595 40.8399 672.7C308.379 373.755 62.4363 262.665 -82.3011 236.836C-134.574 223.09 -207.972 158.161 -83.3814 8.40933" stroke="url(#paint11_linear_698_12415)"/>
<path d="M-95.3289 1329.45C-594.58 964.423 -110.157 824.185 32.045 665.291C299.584 366.346 53.6413 255.255 -91.096 229.426C-143.369 215.681 -216.767 150.752 -92.1764 0.999907" stroke="url(#paint12_linear_698_12415)"/>
<defs>
<linearGradient id="paint0_linear_698_12415" x1="-31.171" y1="281.684" x2="-530.655" y2="745.802" gradientUnits="userSpaceOnUse">
<stop stop-color="#0C6F97" stop-opacity="0.03"/>
<stop offset="0.25" stop-color="#0C6F97" stop-opacity="0.15"/>
<stop offset="0.544311" stop-color="#0C6F97" stop-opacity="0.03"/>
<stop offset="1" stop-color="#0C6F97" stop-opacity="0.04"/>
</linearGradient>
<linearGradient id="paint1_linear_698_12415" x1="-39.966" y1="274.274" x2="-539.45" y2="738.392" gradientUnits="userSpaceOnUse">
<stop stop-color="#0C6F97" stop-opacity="0.03"/>
<stop offset="0.25" stop-color="#0C6F97" stop-opacity="0.15"/>
<stop offset="0.544311" stop-color="#0C6F97" stop-opacity="0.03"/>
<stop offset="1" stop-color="#0C6F97" stop-opacity="0.04"/>
</linearGradient>
<linearGradient id="paint2_linear_698_12415" x1="-48.7609" y1="266.865" x2="-548.245" y2="730.983" gradientUnits="userSpaceOnUse">
<stop stop-color="#0C6F97" stop-opacity="0.03"/>
<stop offset="0.25" stop-color="#0C6F97" stop-opacity="0.15"/>
<stop offset="0.544311" stop-color="#0C6F97" stop-opacity="0.03"/>
<stop offset="1" stop-color="#0C6F97" stop-opacity="0.04"/>
</linearGradient>
<linearGradient id="paint3_linear_698_12415" x1="-57.5559" y1="259.456" x2="-557.04" y2="723.574" gradientUnits="userSpaceOnUse">
<stop stop-color="#0C6F97" stop-opacity="0.03"/>
<stop offset="0.25" stop-color="#0C6F97" stop-opacity="0.15"/>
<stop offset="0.544311" stop-color="#0C6F97" stop-opacity="0.03"/>
<stop offset="1" stop-color="#0C6F97" stop-opacity="0.04"/>
</linearGradient>
<linearGradient id="paint4_linear_698_12415" x1="-66.3508" y1="252.046" x2="-565.835" y2="716.164" gradientUnits="userSpaceOnUse">
<stop stop-color="#0C6F97" stop-opacity="0.03"/>
<stop offset="0.25" stop-color="#0C6F97" stop-opacity="0.15"/>
<stop offset="0.544311" stop-color="#0C6F97" stop-opacity="0.03"/>
<stop offset="1" stop-color="#0C6F97" stop-opacity="0.04"/>
</linearGradient>
<linearGradient id="paint5_linear_698_12415" x1="-75.1458" y1="244.637" x2="-574.63" y2="708.755" gradientUnits="userSpaceOnUse">
<stop stop-color="#0C6F97" stop-opacity="0.03"/>
<stop offset="0.25" stop-color="#0C6F97" stop-opacity="0.15"/>
<stop offset="0.544311" stop-color="#0C6F97" stop-opacity="0.03"/>
<stop offset="1" stop-color="#0C6F97" stop-opacity="0.04"/>
</linearGradient>
<linearGradient id="paint6_linear_698_12415" x1="-83.9407" y1="237.228" x2="-583.425" y2="701.345" gradientUnits="userSpaceOnUse">
<stop stop-color="#0C6F97" stop-opacity="0.03"/>
<stop offset="0.25" stop-color="#0C6F97" stop-opacity="0.15"/>
<stop offset="0.544311" stop-color="#0C6F97" stop-opacity="0.03"/>
<stop offset="1" stop-color="#0C6F97" stop-opacity="0.04"/>
</linearGradient>
<linearGradient id="paint7_linear_698_12415" x1="-92.7357" y1="229.818" x2="-592.219" y2="693.936" gradientUnits="userSpaceOnUse">
<stop stop-color="#0C6F97" stop-opacity="0.03"/>
<stop offset="0.25" stop-color="#0C6F97" stop-opacity="0.15"/>
<stop offset="0.544311" stop-color="#0C6F97" stop-opacity="0.03"/>
<stop offset="1" stop-color="#0C6F97" stop-opacity="0.04"/>
</linearGradient>
<linearGradient id="paint8_linear_698_12415" x1="-101.531" y1="222.409" x2="-601.014" y2="686.527" gradientUnits="userSpaceOnUse">
<stop stop-color="#0C6F97" stop-opacity="0.03"/>
<stop offset="0.25" stop-color="#0C6F97" stop-opacity="0.15"/>
<stop offset="0.544311" stop-color="#0C6F97" stop-opacity="0.03"/>
<stop offset="1" stop-color="#0C6F97" stop-opacity="0.04"/>
</linearGradient>
<linearGradient id="paint9_linear_698_12415" x1="-110.326" y1="215" x2="-609.809" y2="679.117" gradientUnits="userSpaceOnUse">
<stop stop-color="#0C6F97" stop-opacity="0.03"/>
<stop offset="0.25" stop-color="#0C6F97" stop-opacity="0.15"/>
<stop offset="0.544311" stop-color="#0C6F97" stop-opacity="0.03"/>
<stop offset="1" stop-color="#0C6F97" stop-opacity="0.04"/>
</linearGradient>
<linearGradient id="paint10_linear_698_12415" x1="-119.121" y1="207.59" x2="-618.604" y2="671.708" gradientUnits="userSpaceOnUse">
<stop stop-color="#0C6F97" stop-opacity="0.03"/>
<stop offset="0.25" stop-color="#0C6F97" stop-opacity="0.15"/>
<stop offset="0.544311" stop-color="#0C6F97" stop-opacity="0.03"/>
<stop offset="1" stop-color="#0C6F97" stop-opacity="0.04"/>
</linearGradient>
<linearGradient id="paint11_linear_698_12415" x1="-127.916" y1="200.181" x2="-627.399" y2="664.298" gradientUnits="userSpaceOnUse">
<stop stop-color="#0C6F97" stop-opacity="0.03"/>
<stop offset="0.25" stop-color="#0C6F97" stop-opacity="0.15"/>
<stop offset="0.544311" stop-color="#0C6F97" stop-opacity="0.03"/>
<stop offset="1" stop-color="#0C6F97" stop-opacity="0.04"/>
</linearGradient>
<linearGradient id="paint12_linear_698_12415" x1="-136.71" y1="192.771" x2="-636.194" y2="656.889" gradientUnits="userSpaceOnUse">
<stop stop-color="#0C6F97" stop-opacity="0.03"/>
<stop offset="0.25" stop-color="#0C6F97" stop-opacity="0.15"/>
<stop offset="0.544311" stop-color="#0C6F97" stop-opacity="0.03"/>
<stop offset="1" stop-color="#0C6F97" stop-opacity="0.04"/>
</linearGradient>
</defs>
</svg>
