<svg width="960" height="788" viewBox="0 0 960 788" fill="none" xmlns="http://www.w3.org/2000/svg">
<g opacity="0.26">
<path opacity="0.04" d="M711.321 713.736C696.952 678.659 693.653 591.73 795.402 524.628C922.59 440.751 941.567 367.155 911.501 263.511C881.435 159.867 602.158 314.697 598.058 113.567C593.958 -87.5642 785.581 -249.919 915.012 -231.18C1044.44 -212.441 1179 -426.589 1041.71 -546.701" stroke="url(#paint0_linear_698_12388)"/>
<path opacity="0.08" d="M704.85 721.213C691.148 685.766 689.347 598.522 791.754 533.124C919.763 451.377 939.905 377.921 911.75 273.415C883.595 168.908 603.014 318.976 602.364 117.184C601.714 -84.6085 795.188 -243.859 923.681 -222.65C1052.17 -201.441 1189.73 -413.7 1055.16 -536.724" stroke="url(#paint1_linear_698_12388)"/>
<path opacity="0.12" d="M698.871 728.295C685.839 692.488 685.532 604.956 788.562 541.281C917.348 461.687 938.645 388.393 912.405 283.055C886.166 177.716 604.377 322.979 607.168 120.584C609.959 -81.81 805.217 -237.91 932.73 -214.237C1060.24 -190.565 1200.76 -400.874 1068.92 -526.772" stroke="url(#paint2_linear_698_12388)"/>
<path opacity="0.16" d="M692.782 735.345C680.422 699.189 681.607 611.394 785.223 549.46C914.743 472.042 937.184 398.931 912.864 292.792C888.545 186.653 605.643 327.068 611.865 124.131C618.087 -78.8065 815.06 -231.711 941.555 -205.582C1068.05 -179.453 1211.47 -387.751 1082.41 -516.487" stroke="url(#paint3_linear_698_12388)"/>
<path opacity="0.2" d="M686.582 742.369C674.897 705.874 677.569 617.842 781.736 557.666C911.945 482.447 935.521 409.54 913.124 302.631C890.727 195.722 606.807 331.251 616.45 127.83C626.093 -75.5915 824.712 -225.256 950.15 -196.679C1075.59 -168.103 1221.85 -374.328 1095.61 -505.865" stroke="url(#paint4_linear_698_12388)"/>
<path opacity="0.24" d="M680.266 749.352C669.258 712.53 673.413 624.285 778.096 565.885C908.949 492.886 933.649 420.205 913.177 312.557C892.705 204.91 607.865 335.513 620.916 131.667C633.968 -72.1786 834.163 -218.561 958.506 -187.545C1082.85 -156.529 1231.91 -360.624 1108.51 -494.921" stroke="url(#paint5_linear_698_12388)"/>
<path opacity="0.28" d="M673.848 756.297C663.519 719.158 669.151 630.727 774.314 574.119C905.767 503.36 931.58 430.925 913.035 322.57C894.491 214.216 608.825 339.858 625.273 135.646C641.722 -68.5652 843.424 -211.624 966.632 -178.179C1089.84 -144.733 1241.63 -346.638 1121.12 -483.656" stroke="url(#paint6_linear_698_12388)"/>
<path opacity="0.32" d="M667.92 762.845C658.271 725.399 665.376 636.807 770.982 582.008C902.99 513.509 929.905 441.342 913.289 332.311C896.674 223.28 610.28 343.926 630.111 139.408C649.942 -65.1097 853.081 -204.805 975.117 -168.94C1097.15 -133.075 1251.63 -332.732 1134.03 -472.432" stroke="url(#paint7_linear_698_12388)"/>
<path opacity="0.36" d="M662.491 768.99C653.524 731.249 662.095 642.522 768.11 589.546C900.628 523.326 928.633 451.446 913.947 341.772C899.262 232.097 612.235 347.713 635.435 142.948C658.635 -61.8175 863.139 -198.11 983.966 -159.836C1104.79 -121.563 1261.89 -318.916 1147.24 -461.255" stroke="url(#paint8_linear_698_12388)"/>
<path opacity="0.4" d="M656.962 775.086C648.679 737.06 658.711 648.224 765.097 597.086C898.08 533.163 927.164 461.592 914.409 351.305C901.653 241.018 614.091 351.573 640.645 146.619C667.198 -58.3345 872.997 -191.185 992.576 -150.516C1112.16 -109.846 1271.81 -304.84 1160.15 -449.777" stroke="url(#paint9_linear_698_12388)"/>
<path opacity="0.44" d="M651.32 781.136C643.722 742.837 655.208 653.916 761.93 604.63C895.332 543.022 925.483 471.78 914.658 360.912C903.833 250.045 615.832 355.509 645.722 150.426C675.613 -54.6578 882.635 -184.031 1000.93 -140.978C1119.23 -97.9245 1281.39 -290.503 1172.73 -437.995" stroke="url(#paint10_linear_698_12388)"/>
<path opacity="0.48" d="M645.579 787.141C638.667 748.579 651.6 659.6 758.621 612.179C892.398 552.903 923.603 482.009 914.708 370.593C905.813 259.177 617.469 359.522 650.679 154.368C683.89 -50.7864 892.065 -176.646 1009.04 -131.223C1126.01 -85.7991 1290.63 -275.909 1185.01 -425.913" stroke="url(#paint11_linear_698_12388)"/>
<path opacity="0.52" d="M639.739 793.098C633.514 754.284 647.886 665.272 755.171 619.728C889.277 562.799 921.524 492.275 914.558 380.342C907.591 268.409 619.001 363.61 655.513 158.444C692.026 -46.7233 901.282 -169.036 1016.9 -121.256C1132.52 -73.4759 1299.52 -261.064 1196.96 -413.536" stroke="url(#paint12_linear_698_12388)"/>
<path opacity="0.56" d="M634.395 798.634C628.857 759.58 644.661 670.56 752.173 626.906C886.563 572.339 919.839 502.204 914.799 389.787C909.76 277.369 621.02 367.401 660.815 162.28C700.611 -42.8409 910.875 -161.573 1025.1 -111.451C1139.33 -61.3299 1308.65 -246.343 1209.19 -401.24" stroke="url(#paint13_linear_698_12388)"/>
<path opacity="0.6" d="M628.958 804.123C624.108 764.84 641.335 675.837 749.038 634.085C883.667 581.894 917.958 512.168 914.844 399.298C911.729 286.429 622.936 371.268 665.995 166.251C709.053 -38.7656 920.254 -153.886 1033.05 -101.438C1145.85 -48.9904 1317.44 -231.379 1221.11 -388.653" stroke="url(#paint14_linear_698_12388)"/>
<path opacity="0.64" d="M623.424 809.553C619.263 770.053 637.905 681.092 745.762 641.251C880.584 591.45 915.878 522.152 914.685 408.863C913.493 295.573 624.744 375.199 671.044 170.345C717.344 -34.51 929.411 -145.987 1040.75 -91.2298C1152.08 -36.4725 1325.87 -216.185 1232.69 -375.792" stroke="url(#paint15_linear_698_12388)"/>
<path opacity="0.68" d="M617.791 814.922C614.318 775.216 634.366 686.323 742.342 648.404C877.312 601.005 913.594 532.155 914.32 418.477C915.047 304.8 626.437 379.194 675.958 174.559C725.479 -30.0756 938.337 -137.881 1048.18 -80.8307C1158.02 -23.7805 1333.95 -200.769 1243.94 -362.662" stroke="url(#paint16_linear_698_12388)"/>
<path opacity="0.72" d="M612.674 819.871C609.89 779.969 631.334 691.168 739.393 655.181C874.465 610.197 911.722 541.813 914.363 427.78C917.005 313.747 628.63 382.891 681.35 178.534C734.069 -25.8232 947.647 -129.929 1055.96 -70.6035C1164.27 -11.278 1342.28 -185.494 1255.46 -349.625" stroke="url(#paint17_linear_698_12388)"/>
<path opacity="0.76" d="M607.458 824.759C605.361 784.674 628.193 695.991 736.297 661.943C871.426 619.384 909.644 551.486 914.196 437.13C918.748 322.774 630.705 386.653 686.599 182.63C742.493 -21.392 956.718 -121.771 1063.46 -60.189C1170.21 1.39325 1350.23 -170.003 1266.64 -336.325" stroke="url(#paint18_linear_698_12388)"/>
<path opacity="0.8" d="M602.15 829.578C600.74 789.32 624.95 700.78 733.063 668.681C868.205 628.556 907.368 561.162 913.826 446.515C920.284 331.869 632.669 390.469 691.713 186.838C750.758 -16.7924 965.558 -113.42 1070.71 -49.5998C1175.85 14.2203 1357.83 -154.311 1277.48 -322.775" stroke="url(#paint19_linear_698_12388)"/>
<path opacity="0.84" d="M597.356 833.971C596.633 793.552 622.209 705.179 730.296 675.035C865.405 637.355 905.5 570.484 913.858 455.579C922.217 340.674 635.123 393.983 697.293 190.801C759.463 -12.381 974.765 -105.233 1078.28 -39.1945C1181.8 26.8436 1365.67 -138.777 1288.58 -309.335" stroke="url(#paint20_linear_698_12388)"/>
<path opacity="0.88" d="M592.48 838.299C592.443 797.731 619.375 709.55 727.4 681.368C862.43 646.141 903.441 579.811 913.694 464.68C923.947 349.549 637.472 397.556 702.741 194.88C768.011 -7.79704 983.742 -96.8502 1085.6 -28.6145C1187.46 39.6213 1373.15 -123.045 1299.35 -295.646" stroke="url(#paint21_linear_698_12388)"/>
<path opacity="0.92" d="M588.112 842.193C588.76 801.487 617.036 713.522 724.962 687.309C859.87 654.542 901.782 588.771 913.923 473.446C926.065 358.122 640.301 400.819 708.644 198.704C776.987 -3.41152 993.074 -88.6448 1093.24 -18.2324C1193.4 52.1799 1380.85 -107.49 1310.35 -282.084" stroke="url(#paint22_linear_698_12388)"/>
<path opacity="0.96" d="M584.134 846.211C585.465 805.378 615.075 717.654 722.866 693.414C857.606 663.114 900.404 597.92 914.427 482.434C928.449 366.949 643.492 404.329 714.881 202.831C786.269 1.33328 1002.64 -80.06 1101.08 -7.49295C1199.52 65.0741 1388.66 -91.5566 1321.49 -268.094" stroke="url(#paint23_linear_698_12388)"/>
<path d="M579.736 849.401C581.749 808.454 612.681 720.994 720.302 698.732C854.829 670.906 898.498 606.306 914.394 490.692C930.29 375.077 646.234 407.136 720.64 206.311C795.045 5.48575 1011.63 -72.0488 1108.31 2.65057C1205 77.3499 1395.77 -76.2015 1331.94 -254.63" stroke="url(#paint24_linear_698_12388)"/>
</g>
<defs>
<linearGradient id="paint0_linear_698_12388" x1="606.223" y1="20.4" x2="1003.44" y2="197.012" gradientUnits="userSpaceOnUse">
<stop offset="0.416667" stop-color="#0C6F97"/>
<stop offset="0.864583" stop-color="#0C6F97" stop-opacity="0"/>
</linearGradient>
<linearGradient id="paint1_linear_698_12388" x1="612.079" y1="23.8987" x2="1005.63" y2="205.735" gradientUnits="userSpaceOnUse">
<stop offset="0.416667" stop-color="#0C6F97"/>
<stop offset="0.864583" stop-color="#0C6F97" stop-opacity="0"/>
</linearGradient>
<linearGradient id="paint2_linear_698_12388" x1="618.426" y1="27.2081" x2="1008.3" y2="214.191" gradientUnits="userSpaceOnUse">
<stop offset="0.416667" stop-color="#0C6F97"/>
<stop offset="0.864583" stop-color="#0C6F97" stop-opacity="0"/>
</linearGradient>
<linearGradient id="paint3_linear_698_12388" x1="624.657" y1="30.6907" x2="1010.85" y2="222.746" gradientUnits="userSpaceOnUse">
<stop offset="0.416667" stop-color="#0C6F97"/>
<stop offset="0.864583" stop-color="#0C6F97" stop-opacity="0"/>
</linearGradient>
<linearGradient id="paint4_linear_698_12388" x1="630.77" y1="34.3529" x2="1013.27" y2="231.409" gradientUnits="userSpaceOnUse">
<stop offset="0.416667" stop-color="#0C6F97"/>
<stop offset="0.864583" stop-color="#0C6F97" stop-opacity="0"/>
</linearGradient>
<linearGradient id="paint5_linear_698_12388" x1="636.754" y1="38.1808" x2="1015.56" y2="240.17" gradientUnits="userSpaceOnUse">
<stop offset="0.416667" stop-color="#0C6F97"/>
<stop offset="0.864583" stop-color="#0C6F97" stop-opacity="0"/>
</linearGradient>
<linearGradient id="paint6_linear_698_12388" x1="642.621" y1="42.1772" x2="1017.72" y2="249.034" gradientUnits="userSpaceOnUse">
<stop offset="0.416667" stop-color="#0C6F97"/>
<stop offset="0.864583" stop-color="#0C6F97" stop-opacity="0"/>
</linearGradient>
<linearGradient id="paint7_linear_698_12388" x1="648.959" y1="45.9837" x2="1020.35" y2="257.646" gradientUnits="userSpaceOnUse">
<stop offset="0.416667" stop-color="#0C6F97"/>
<stop offset="0.864583" stop-color="#0C6F97" stop-opacity="0"/>
</linearGradient>
<linearGradient id="paint8_linear_698_12388" x1="655.773" y1="49.5947" x2="1023.45" y2="266.004" gradientUnits="userSpaceOnUse">
<stop offset="0.416667" stop-color="#0C6F97"/>
<stop offset="0.864583" stop-color="#0C6F97" stop-opacity="0"/>
</linearGradient>
<linearGradient id="paint9_linear_698_12388" x1="662.463" y1="53.3644" x2="1026.41" y2="274.464" gradientUnits="userSpaceOnUse">
<stop offset="0.416667" stop-color="#0C6F97"/>
<stop offset="0.864583" stop-color="#0C6F97" stop-opacity="0"/>
</linearGradient>
<linearGradient id="paint10_linear_698_12388" x1="669.011" y1="57.2957" x2="1029.23" y2="283.034" gradientUnits="userSpaceOnUse">
<stop offset="0.416667" stop-color="#0C6F97"/>
<stop offset="0.864583" stop-color="#0C6F97" stop-opacity="0"/>
</linearGradient>
<linearGradient id="paint11_linear_698_12388" x1="675.427" y1="61.3895" x2="1031.92" y2="291.716" gradientUnits="userSpaceOnUse">
<stop offset="0.416667" stop-color="#0C6F97"/>
<stop offset="0.864583" stop-color="#0C6F97" stop-opacity="0"/>
</linearGradient>
<linearGradient id="paint12_linear_698_12388" x1="681.709" y1="65.643" x2="1034.46" y2="300.51" gradientUnits="userSpaceOnUse">
<stop offset="0.416667" stop-color="#0C6F97"/>
<stop offset="0.864583" stop-color="#0C6F97" stop-opacity="0"/>
</linearGradient>
<linearGradient id="paint13_linear_698_12388" x1="688.447" y1="69.6837" x2="1037.45" y2="309.047" gradientUnits="userSpaceOnUse">
<stop offset="0.416667" stop-color="#0C6F97"/>
<stop offset="0.864583" stop-color="#0C6F97" stop-opacity="0"/>
</linearGradient>
<linearGradient id="paint14_linear_698_12388" x1="695.05" y1="73.8853" x2="1040.3" y2="317.703" gradientUnits="userSpaceOnUse">
<stop offset="0.416667" stop-color="#0C6F97"/>
<stop offset="0.864583" stop-color="#0C6F97" stop-opacity="0"/>
</linearGradient>
<linearGradient id="paint15_linear_698_12388" x1="701.51" y1="78.2352" x2="1043.01" y2="326.468" gradientUnits="userSpaceOnUse">
<stop offset="0.416667" stop-color="#0C6F97"/>
<stop offset="0.864583" stop-color="#0C6F97" stop-opacity="0"/>
</linearGradient>
<linearGradient id="paint16_linear_698_12388" x1="707.823" y1="82.732" x2="1045.55" y2="335.343" gradientUnits="userSpaceOnUse">
<stop offset="0.416667" stop-color="#0C6F97"/>
<stop offset="0.864583" stop-color="#0C6F97" stop-opacity="0"/>
</linearGradient>
<linearGradient id="paint17_linear_698_12388" x1="714.6" y1="87.0148" x2="1048.55" y2="343.97" gradientUnits="userSpaceOnUse">
<stop offset="0.416667" stop-color="#0C6F97"/>
<stop offset="0.864583" stop-color="#0C6F97" stop-opacity="0"/>
</linearGradient>
<linearGradient id="paint18_linear_698_12388" x1="721.221" y1="91.4447" x2="1051.39" y2="352.712" gradientUnits="userSpaceOnUse">
<stop offset="0.416667" stop-color="#0C6F97"/>
<stop offset="0.864583" stop-color="#0C6F97" stop-opacity="0"/>
</linearGradient>
<linearGradient id="paint19_linear_698_12388" x1="727.693" y1="96.0114" x2="1054.06" y2="361.561" gradientUnits="userSpaceOnUse">
<stop offset="0.416667" stop-color="#0C6F97"/>
<stop offset="0.864583" stop-color="#0C6F97" stop-opacity="0"/>
</linearGradient>
<linearGradient id="paint20_linear_698_12388" x1="734.616" y1="100.358" x2="1057.18" y2="370.163" gradientUnits="userSpaceOnUse">
<stop offset="0.416667" stop-color="#0C6F97"/>
<stop offset="0.864583" stop-color="#0C6F97" stop-opacity="0"/>
</linearGradient>
<linearGradient id="paint21_linear_698_12388" x1="741.393" y1="104.846" x2="1060.14" y2="378.88" gradientUnits="userSpaceOnUse">
<stop offset="0.416667" stop-color="#0C6F97"/>
<stop offset="0.864583" stop-color="#0C6F97" stop-opacity="0"/>
</linearGradient>
<linearGradient id="paint22_linear_698_12388" x1="748.609" y1="109.104" x2="1063.52" y2="387.345" gradientUnits="userSpaceOnUse">
<stop offset="0.416667" stop-color="#0C6F97"/>
<stop offset="0.864583" stop-color="#0C6F97" stop-opacity="0"/>
</linearGradient>
<linearGradient id="paint23_linear_698_12388" x1="756.145" y1="113.69" x2="1067.2" y2="396.116" gradientUnits="userSpaceOnUse">
<stop offset="0.416667" stop-color="#0C6F97"/>
<stop offset="0.864583" stop-color="#0C6F97" stop-opacity="0"/>
</linearGradient>
<linearGradient id="paint24_linear_698_12388" x1="763.187" y1="117.652" x2="1070.37" y2="404.243" gradientUnits="userSpaceOnUse">
<stop offset="0.416667" stop-color="#0C6F97"/>
<stop offset="0.864583" stop-color="#0C6F97" stop-opacity="0"/>
</linearGradient>
</defs>
</svg>
