<svg width="767" height="1629" viewBox="0 0 767 1629" fill="none" xmlns="http://www.w3.org/2000/svg">
<g opacity="0.26">
<path opacity="0.04" d="M83.0723 180.448C94.9801 216.435 92.259 303.384 -13.8885 363.287C-146.573 438.166 -170.596 510.273 -147.771 615.748C-124.945 721.223 164.372 586.082 154.55 787.015C144.727 987.947 -57.6668 1136.66 -185.492 1109.01C-313.317 1081.36 -462.36 1285.69 -333.714 1415.01" stroke="url(#paint0_linear_698_12171)"/>
<path opacity="0.08" d="M90.0444 173.438C101.261 209.748 97.0238 296.907 -9.6617 355.064C-143.019 427.762 -168.193 499.648 -147.335 605.852C-126.476 712.055 163.813 581.755 150.503 783.109C137.194 984.463 -66.8327 1129.95 -193.55 1099.9C-320.267 1069.86 -472.181 1272.09 -346.435 1404.13" stroke="url(#paint1_linear_698_12171)"/>
<path opacity="0.12" d="M96.4986 166.786C107.023 203.408 101.274 290.752 -5.91327 347.148C-139.897 417.643 -166.212 489.288 -147.322 596.189C-128.432 703.09 162.73 577.667 145.946 779.384C129.162 981.1 -76.4258 1123.32 -201.996 1090.88C-327.567 1058.45 -482.294 1258.53 -359.483 1393.25" stroke="url(#paint2_linear_698_12171)"/>
<path opacity="0.16" d="M103.062 160.173C112.891 197.097 105.637 284.6 -2.01514 339.219C-136.58 407.492 -164.025 478.876 -147.105 586.443C-130.185 694.01 161.752 573.5 141.508 775.521C121.263 977.541 -85.8144 1116.45 -210.199 1081.64C-334.585 1046.82 -492.067 1244.7 -372.224 1382.06" stroke="url(#paint3_linear_698_12171)"/>
<path opacity="0.2" d="M109.732 153.595C118.865 190.811 110.11 278.448 2.03019 331.274C-133.07 397.306 -161.632 468.408 -146.684 576.61C-131.735 684.812 160.879 569.247 137.188 771.514C113.498 973.781 -94.9976 1109.35 -218.159 1072.16C-341.32 1034.98 -501.5 1230.59 -384.658 1370.55" stroke="url(#paint4_linear_698_12171)"/>
<path opacity="0.24" d="M116.516 147.066C124.95 184.562 114.702 272.308 6.23033 323.326C-129.359 387.1 -159.027 457.899 -146.05 566.704C-133.073 675.51 160.119 564.922 132.998 767.377C105.877 969.832 -103.964 1102.02 -225.863 1062.47C-347.762 1022.93 -510.58 1216.23 -396.772 1358.74" stroke="url(#paint5_linear_698_12171)"/>
<path opacity="0.28" d="M123.399 140.581C131.134 178.347 119.399 266.176 10.5724 315.374C-125.46 376.871 -156.222 447.347 -145.217 556.725C-134.211 666.103 159.461 560.521 128.926 763.106C98.3919 965.69 -112.722 1094.46 -233.322 1052.57C-353.922 1010.68 -519.318 1201.6 -408.573 1346.63" stroke="url(#paint6_linear_698_12171)"/>
<path opacity="0.32" d="M129.766 134.459C136.801 172.483 123.585 260.371 14.4413 307.734C-121.989 366.938 -153.831 437.071 -144.797 546.99C-135.763 656.909 158.291 556.362 124.36 759.018C90.4295 961.675 -121.885 1086.98 -241.148 1042.76C-360.411 998.543 -528.324 1187.04 -420.674 1334.54" stroke="url(#paint7_linear_698_12171)"/>
<path opacity="0.36" d="M135.608 128.705C141.943 166.976 127.255 254.898 17.8299 300.413C-118.951 357.308 -151.861 427.079 -144.797 537.506C-137.733 647.934 156.603 552.449 119.295 755.119C81.9869 957.789 -131.455 1079.61 -249.344 1033.07C-367.234 986.531 -537.604 1172.54 -433.077 1322.47" stroke="url(#paint8_linear_698_12171)"/>
<path opacity="0.4" d="M141.545 123.005C147.178 161.513 131.025 249.443 21.3567 293.1C-115.729 347.67 -149.694 417.058 -144.598 527.964C-139.502 638.869 155.019 548.47 114.352 751.096C73.6855 953.721 -140.81 1072.02 -257.29 1023.18C-373.769 974.332 -546.534 1157.81 -445.159 1310.13" stroke="url(#paint9_linear_698_12171)"/>
<path opacity="0.44" d="M147.59 117.36C152.521 156.093 134.912 244.006 25.0367 285.792C-112.308 338.025 -147.314 407.011 -144.184 518.362C-141.054 629.713 153.553 544.423 109.548 746.947C65.5434 949.472 -149.932 1064.22 -264.966 1013.08C-380 961.95 -555.097 1142.85 -456.901 1297.51" stroke="url(#paint10_linear_698_12171)"/>
<path opacity="0.48" d="M153.733 111.766C157.96 150.714 138.904 238.586 28.8589 278.49C-108.698 328.371 -144.732 396.936 -143.565 508.701C-142.398 620.466 152.197 540.305 104.875 742.671C57.5535 945.037 -158.829 1056.2 -272.382 1002.79C-385.934 949.384 -563.301 1127.65 -468.311 1284.6" stroke="url(#paint11_linear_698_12171)"/>
<path opacity="0.52" d="M159.972 106.227C163.498 145.378 143.003 233.184 32.8251 271.197C-104.898 318.714 -141.945 386.838 -142.738 498.985C-143.531 611.131 150.953 536.121 100.336 738.27C49.7201 940.42 -167.495 1047.97 -279.531 992.303C-391.568 936.64 -571.141 1112.23 -479.382 1271.43" stroke="url(#paint12_linear_698_12171)"/>
<path opacity="0.56" d="M165.687 101.076C168.51 140.419 146.587 228.133 36.3124 264.245C-101.53 309.386 -139.577 377.051 -142.326 489.548C-145.075 602.044 149.201 532.201 95.3125 734.078C41.4244 935.955 -176.55 1039.86 -287.035 981.956C-397.521 924.053 -579.236 1096.91 -490.732 1258.32" stroke="url(#paint13_linear_698_12171)"/>
<path opacity="0.6" d="M171.49 95.9749C173.611 135.499 150.269 223.097 39.9356 257.3C-97.9807 300.053 -137.013 367.24 -141.713 480.055C-146.413 592.87 147.556 528.21 90.42 729.757C33.2839 931.304 -185.375 1031.54 -294.275 971.415C-403.176 911.291 -586.969 1081.37 -501.745 1244.93" stroke="url(#paint14_linear_698_12171)"/>
<path opacity="0.64" d="M177.386 90.9413C178.805 130.635 154.055 218.093 43.6995 250.378C-94.2443 290.733 -134.247 357.424 -140.893 470.525C-147.54 583.626 146.025 524.163 85.6659 725.325C25.3065 926.486 -193.963 1023.03 -301.245 960.7C-408.527 898.373 -594.333 1065.63 -512.411 1231.3" stroke="url(#paint15_linear_698_12171)"/>
<path opacity="0.68" d="M183.378 85.9739C184.096 125.826 157.947 213.119 47.6067 243.478C-90.3186 281.427 -131.276 347.603 -139.864 460.958C-148.452 574.313 144.613 520.061 81.0556 720.78C17.4984 921.499 -202.307 1014.32 -307.938 949.811C-413.568 885.3 -601.321 1049.7 -522.724 1217.43" stroke="url(#paint16_linear_698_12171)"/>
<path opacity="0.72" d="M188.824 81.3915C188.842 121.39 161.306 208.495 51.0177 236.922C-86.843 272.455 -128.741 338.098 -139.263 451.675C-149.786 565.253 142.68 516.22 75.9517 716.442C9.22327 916.663 -211.045 1005.75 -314.991 939.071C-418.937 872.396 -608.572 1033.88 -533.319 1203.62" stroke="url(#paint17_linear_698_12171)"/>
<path opacity="0.76" d="M194.366 76.8754C193.686 117.01 164.774 203.901 54.5738 230.389C-83.1764 263.5 -125.999 328.592 -138.45 442.359C-150.901 556.127 140.87 512.324 70.9979 711.992C1.12553 911.659 -219.53 996.98 -321.76 928.162C-423.99 859.343 -615.44 1017.88 -543.552 1189.58" stroke="url(#paint18_linear_698_12171)"/>
<path opacity="0.8" d="M199.995 72.4351C198.617 112.694 168.341 199.348 58.2659 223.892C-79.328 254.572 -123.059 319.096 -137.432 433.022C-151.804 546.947 139.176 508.382 66.1875 707.44C-6.80087 906.499 -227.77 988.037 -328.252 917.097C-428.734 846.157 -621.933 1001.7 -553.429 1175.32" stroke="url(#paint19_linear_698_12171)"/>
<path opacity="0.84" d="M205.081 68.3838C203.007 108.756 171.379 195.148 61.4659 217.743C-75.9258 245.988 -120.55 309.925 -136.836 423.977C-153.123 538.029 136.97 504.706 60.895 703.101C-15.1805 901.496 -236.389 979.232 -335.092 906.192C-433.796 833.151 -628.676 985.657 -563.573 1161.14" stroke="url(#paint20_linear_698_12171)"/>
<path opacity="0.88" d="M210.245 64.4029C207.476 104.876 174.509 190.984 64.7937 211.626C-72.3504 237.429 -117.851 300.763 -136.043 414.909C-154.235 529.055 134.875 500.978 55.7421 698.655C-23.3906 896.331 -244.765 970.249 -341.659 895.131C-438.553 820.013 -635.047 969.446 -573.363 1146.74" stroke="url(#paint21_linear_698_12171)"/>
<path opacity="0.92" d="M214.872 60.8216C211.411 101.385 177.117 187.184 67.6363 205.869C-69.2148 229.226 -115.576 291.94 -135.665 406.149C-155.754 520.357 132.278 497.529 50.1187 694.433C-32.0409 891.336 -253.506 961.419 -348.561 884.246C-443.616 807.074 -641.657 953.396 -583.407 1132.45" stroke="url(#paint22_linear_698_12171)"/>
<path opacity="0.96" d="M219.119 57.0883C214.966 97.7307 179.359 183.197 70.1489 199.923C-66.3641 220.83 -113.569 282.908 -135.546 397.147C-157.523 511.386 129.337 493.806 44.1816 689.883C-40.9736 885.96 -262.456 952.192 -355.643 872.99C-448.829 793.787 -648.349 936.96 -593.548 1117.72" stroke="url(#paint23_linear_698_12171)"/>
<path d="M223.726 54.2106C218.885 94.9204 181.978 180.031 73.0743 194.795C-63.0554 213.25 -111.088 274.674 -134.943 388.912C-158.798 503.15 126.795 490.816 38.6765 686.014C-49.4422 881.211 -270.868 943.579 -362.158 862.371C-453.447 781.162 -654.377 921.15 -603.04 1103.57" stroke="url(#paint24_linear_698_12171)"/>
</g>
<defs>
<linearGradient id="paint0_linear_698_12171" x1="139.96" y1="879.393" x2="-244.09" y2="675.729" gradientUnits="userSpaceOnUse">
<stop offset="0.416667" stop-color="#0C6F97"/>
<stop offset="0.864583" stop-color="#0C6F97" stop-opacity="0"/>
</linearGradient>
<linearGradient id="paint1_linear_698_12171" x1="134.359" y1="875.499" x2="-245.673" y2="666.875" gradientUnits="userSpaceOnUse">
<stop offset="0.416667" stop-color="#0C6F97"/>
<stop offset="0.864583" stop-color="#0C6F97" stop-opacity="0"/>
</linearGradient>
<linearGradient id="paint2_linear_698_12171" x1="128.256" y1="871.758" x2="-247.754" y2="658.254" gradientUnits="userSpaceOnUse">
<stop offset="0.416667" stop-color="#0C6F97"/>
<stop offset="0.864583" stop-color="#0C6F97" stop-opacity="0"/>
</linearGradient>
<linearGradient id="paint3_linear_698_12171" x1="122.282" y1="867.852" x2="-249.703" y2="649.543" gradientUnits="userSpaceOnUse">
<stop offset="0.416667" stop-color="#0C6F97"/>
<stop offset="0.864583" stop-color="#0C6F97" stop-opacity="0"/>
</linearGradient>
<linearGradient id="paint4_linear_698_12171" x1="116.437" y1="863.776" x2="-251.52" y2="640.734" gradientUnits="userSpaceOnUse">
<stop offset="0.416667" stop-color="#0C6F97"/>
<stop offset="0.864583" stop-color="#0C6F97" stop-opacity="0"/>
</linearGradient>
<linearGradient id="paint5_linear_698_12171" x1="110.731" y1="859.544" x2="-253.195" y2="631.837" gradientUnits="userSpaceOnUse">
<stop offset="0.416667" stop-color="#0C6F97"/>
<stop offset="0.864583" stop-color="#0C6F97" stop-opacity="0"/>
</linearGradient>
<linearGradient id="paint6_linear_698_12171" x1="105.155" y1="855.151" x2="-254.739" y2="622.844" gradientUnits="userSpaceOnUse">
<stop offset="0.416667" stop-color="#0C6F97"/>
<stop offset="0.864583" stop-color="#0C6F97" stop-opacity="0"/>
</linearGradient>
<linearGradient id="paint7_linear_698_12171" x1="99.0953" y1="850.915" x2="-256.764" y2="614.071" gradientUnits="userSpaceOnUse">
<stop offset="0.416667" stop-color="#0C6F97"/>
<stop offset="0.864583" stop-color="#0C6F97" stop-opacity="0"/>
</linearGradient>
<linearGradient id="paint8_linear_698_12171" x1="92.5483" y1="846.842" x2="-259.275" y2="605.519" gradientUnits="userSpaceOnUse">
<stop offset="0.416667" stop-color="#0C6F97"/>
<stop offset="0.864583" stop-color="#0C6F97" stop-opacity="0"/>
</linearGradient>
<linearGradient id="paint9_linear_698_12171" x1="86.1352" y1="842.618" x2="-261.651" y2="596.873" gradientUnits="userSpaceOnUse">
<stop offset="0.416667" stop-color="#0C6F97"/>
<stop offset="0.864583" stop-color="#0C6F97" stop-opacity="0"/>
</linearGradient>
<linearGradient id="paint10_linear_698_12171" x1="79.8734" y1="838.243" x2="-263.873" y2="588.129" gradientUnits="userSpaceOnUse">
<stop offset="0.416667" stop-color="#0C6F97"/>
<stop offset="0.864583" stop-color="#0C6F97" stop-opacity="0"/>
</linearGradient>
<linearGradient id="paint11_linear_698_12171" x1="73.7554" y1="833.715" x2="-265.95" y2="579.282" gradientUnits="userSpaceOnUse">
<stop offset="0.416667" stop-color="#0C6F97"/>
<stop offset="0.864583" stop-color="#0C6F97" stop-opacity="0"/>
</linearGradient>
<linearGradient id="paint12_linear_698_12171" x1="67.7849" y1="829.037" x2="-267.876" y2="570.332" gradientUnits="userSpaceOnUse">
<stop offset="0.416667" stop-color="#0C6F97"/>
<stop offset="0.864583" stop-color="#0C6F97" stop-opacity="0"/>
</linearGradient>
<linearGradient id="paint13_linear_698_12171" x1="61.3426" y1="824.541" x2="-270.271" y2="561.61" gradientUnits="userSpaceOnUse">
<stop offset="0.416667" stop-color="#0C6F97"/>
<stop offset="0.864583" stop-color="#0C6F97" stop-opacity="0"/>
</linearGradient>
<linearGradient id="paint14_linear_698_12171" x1="55.0456" y1="819.892" x2="-272.517" y2="552.777" gradientUnits="userSpaceOnUse">
<stop offset="0.416667" stop-color="#0C6F97"/>
<stop offset="0.864583" stop-color="#0C6F97" stop-opacity="0"/>
</linearGradient>
<linearGradient id="paint15_linear_698_12171" x1="48.9013" y1="815.106" x2="-274.606" y2="543.846" gradientUnits="userSpaceOnUse">
<stop offset="0.416667" stop-color="#0C6F97"/>
<stop offset="0.864583" stop-color="#0C6F97" stop-opacity="0"/>
</linearGradient>
<linearGradient id="paint16_linear_698_12171" x1="42.9153" y1="810.183" x2="-276.531" y2="534.816" gradientUnits="userSpaceOnUse">
<stop offset="0.416667" stop-color="#0C6F97"/>
<stop offset="0.864583" stop-color="#0C6F97" stop-opacity="0"/>
</linearGradient>
<linearGradient id="paint17_linear_698_12171" x1="36.4507" y1="805.442" x2="-278.929" y2="526.002" gradientUnits="userSpaceOnUse">
<stop offset="0.416667" stop-color="#0C6F97"/>
<stop offset="0.864583" stop-color="#0C6F97" stop-opacity="0"/>
</linearGradient>
<linearGradient id="paint18_linear_698_12171" x1="30.1517" y1="800.564" x2="-281.153" y2="517.085" gradientUnits="userSpaceOnUse">
<stop offset="0.416667" stop-color="#0C6F97"/>
<stop offset="0.864583" stop-color="#0C6F97" stop-opacity="0"/>
</linearGradient>
<linearGradient id="paint19_linear_698_12171" x1="24.0115" y1="795.561" x2="-283.21" y2="508.072" gradientUnits="userSpaceOnUse">
<stop offset="0.416667" stop-color="#0C6F97"/>
<stop offset="0.864583" stop-color="#0C6F97" stop-opacity="0"/>
</linearGradient>
<linearGradient id="paint20_linear_698_12171" x1="17.4053" y1="790.745" x2="-285.723" y2="499.275" gradientUnits="userSpaceOnUse">
<stop offset="0.416667" stop-color="#0C6F97"/>
<stop offset="0.864583" stop-color="#0C6F97" stop-opacity="0"/>
</linearGradient>
<linearGradient id="paint21_linear_698_12171" x1="10.9552" y1="785.799" x2="-288.069" y2="490.374" gradientUnits="userSpaceOnUse">
<stop offset="0.416667" stop-color="#0C6F97"/>
<stop offset="0.864583" stop-color="#0C6F97" stop-opacity="0"/>
</linearGradient>
<linearGradient id="paint22_linear_698_12171" x1="4.05107" y1="781.053" x2="-290.856" y2="481.697" gradientUnits="userSpaceOnUse">
<stop offset="0.416667" stop-color="#0C6F97"/>
<stop offset="0.864583" stop-color="#0C6F97" stop-opacity="0"/>
</linearGradient>
<linearGradient id="paint23_linear_698_12171" x1="-3.14963" y1="775.957" x2="-293.925" y2="472.691" gradientUnits="userSpaceOnUse">
<stop offset="0.416667" stop-color="#0C6F97"/>
<stop offset="0.864583" stop-color="#0C6F97" stop-opacity="0"/>
</linearGradient>
<linearGradient id="paint24_linear_698_12171" x1="-9.90109" y1="771.517" x2="-296.529" y2="464.364" gradientUnits="userSpaceOnUse">
<stop offset="0.416667" stop-color="#0C6F97"/>
<stop offset="0.864583" stop-color="#0C6F97" stop-opacity="0"/>
</linearGradient>
</defs>
</svg>
