<svg width="1544" height="1772" viewBox="0 0 1544 1772" fill="none" xmlns="http://www.w3.org/2000/svg">
<g opacity="0.26">
<path opacity="0.04" d="M1017.97 208.297C981.712 238.844 928.304 324.588 1004.75 423.182C1100.31 546.424 1079.66 625.781 986.495 719.893C893.333 814.004 666.732 572.683 547.148 772.17C427.564 971.658 550.968 1193.25 707.71 1214.77C864.452 1236.28 893.864 1491.84 670.321 1569.07" stroke="url(#paint0_linear_698_12084)"/>
<path opacity="0.08" d="M1016.84 201.018C981.12 232.143 929.222 318.666 1007.38 415.763C1105.09 537.135 1085.83 616.714 994.331 712.28C902.833 807.846 672.039 570.874 555.969 772.093C439.898 973.312 567.166 1192.38 724.26 1211.14C881.355 1229.89 915.24 1484.51 693.086 1565.49" stroke="url(#paint1_linear_698_12084)"/>
<path opacity="0.12" d="M1015.56 193.733C980.391 225.424 930.015 312.7 1009.86 408.271C1109.68 527.735 1091.81 607.511 1002 704.503C912.187 801.494 677.283 568.943 564.751 771.833C452.219 974.722 583.3 1191.2 740.698 1207.2C898.096 1223.19 936.43 1476.77 715.727 1561.47" stroke="url(#paint2_linear_698_12084)"/>
<path opacity="0.16" d="M1014.14 186.444C979.529 218.693 930.685 306.695 1012.19 400.71C1114.07 518.229 1097.61 598.179 1009.5 696.566C921.398 794.954 682.468 566.895 573.496 771.392C464.525 975.89 599.367 1189.72 757.02 1202.94C914.674 1216.16 957.432 1468.64 738.242 1557.04" stroke="url(#paint3_linear_698_12084)"/>
<path opacity="0.2" d="M1012.57 179.154C978.531 211.951 931.229 300.652 1014.36 393.083C1118.28 508.621 1103.21 588.719 1016.83 688.473C930.458 788.226 687.587 564.729 582.199 770.772C476.811 976.815 615.361 1187.92 773.221 1198.37C931.081 1208.82 978.235 1460.11 760.62 1552.18" stroke="url(#paint4_linear_698_12084)"/>
<path opacity="0.24" d="M1010.87 171.865C977.399 205.199 931.65 294.572 1016.38 385.391C1122.29 498.914 1108.62 579.137 1023.99 680.225C939.368 781.314 692.643 562.447 590.858 769.973C489.073 977.5 631.278 1185.82 789.296 1193.49C947.314 1201.17 998.836 1451.2 782.858 1546.91" stroke="url(#paint5_linear_698_12084)"/>
<path opacity="0.28" d="M1009.01 164.58C976.13 198.442 931.941 288.46 1018.24 377.639C1126.11 489.112 1113.83 569.434 1030.97 671.828C948.12 774.221 697.628 560.05 599.467 768.997C501.305 977.943 647.109 1183.41 805.236 1188.31C963.364 1193.21 1019.22 1441.91 804.943 1541.23" stroke="url(#paint6_linear_698_12084)"/>
<path opacity="0.32" d="M1007.01 157.3C974.725 191.68 932.105 282.316 1019.94 369.828C1129.72 479.218 1118.84 559.615 1037.78 663.283C956.713 766.95 702.543 557.54 608.023 767.843C513.503 978.147 662.851 1180.7 821.038 1182.82C979.226 1184.94 1039.39 1432.23 826.87 1535.13" stroke="url(#paint7_linear_698_12084)"/>
<path opacity="0.36" d="M1004.87 150.03C973.185 184.916 932.142 276.143 1021.47 361.962C1133.14 469.235 1123.65 549.684 1044.4 654.594C965.143 759.504 707.385 554.918 616.525 766.515C525.665 978.112 678.498 1177.7 836.697 1177.04C994.896 1176.38 1059.34 1422.18 848.633 1528.63" stroke="url(#paint8_linear_698_12084)"/>
<path opacity="0.4" d="M1002.59 142.771C971.508 178.154 932.05 269.944 1022.85 354.044C1136.36 459.168 1128.26 539.645 1050.84 645.766C973.409 751.887 712.153 552.186 624.969 765.013C537.784 977.84 694.046 1174.39 852.207 1170.95C1010.37 1167.51 1079.05 1411.76 870.224 1521.73" stroke="url(#paint9_linear_698_12084)"/>
<path opacity="0.44" d="M1000.16 135.526C969.695 171.394 931.83 263.72 1024.07 346.076C1139.37 449.02 1132.67 529.5 1057.09 636.801C981.506 744.101 716.846 549.344 633.352 763.338C549.858 977.332 709.488 1170.79 867.563 1164.57C1025.64 1158.36 1098.53 1400.97 891.636 1514.43" stroke="url(#paint10_linear_698_12084)"/>
<path opacity="0.48" d="M997.586 128.297C967.747 164.641 931.48 257.475 1025.12 338.062C1142.18 438.795 1136.87 519.254 1063.15 627.702C989.432 736.149 721.46 546.395 641.671 761.492C561.882 976.588 724.821 1166.9 882.761 1157.91C1040.7 1148.91 1117.77 1389.82 912.863 1506.73" stroke="url(#paint11_linear_698_12084)"/>
<path opacity="0.52" d="M994.87 121.087C965.663 157.894 931.002 251.209 1026.02 330.004C1144.78 428.497 1140.86 508.911 1069.02 618.473C997.185 728.036 725.994 543.341 649.923 759.475C573.853 975.61 740.038 1162.72 897.795 1150.95C1055.55 1139.18 1136.75 1378.31 933.897 1498.64" stroke="url(#paint12_linear_698_12084)"/>
<path opacity="0.56" d="M992.013 113.898C963.443 151.159 930.393 244.926 1026.74 321.905C1147.18 418.129 1144.64 498.474 1074.7 609.119C1004.76 719.764 730.446 540.182 658.106 757.291C585.766 974.4 755.136 1158.25 912.66 1143.71C1070.18 1129.17 1155.48 1366.46 954.733 1490.16" stroke="url(#paint13_linear_698_12084)"/>
<path opacity="0.6" d="M989.012 106.732C961.089 144.436 929.654 238.628 1027.31 313.768C1149.37 407.694 1148.21 487.947 1080.18 599.642C1012.16 711.336 734.815 536.92 666.216 754.939C597.617 972.958 770.109 1153.49 927.352 1136.19C1084.59 1118.88 1173.94 1354.25 975.363 1481.3" stroke="url(#paint14_linear_698_12084)"/>
<path opacity="0.64" d="M985.87 99.5934C958.599 137.728 928.785 232.318 1027.7 305.598C1151.35 397.198 1151.57 477.335 1085.47 590.046C1019.37 702.757 739.099 533.558 674.251 752.423C609.402 971.287 784.952 1148.45 941.865 1128.39C1098.78 1108.33 1192.14 1341.71 995.78 1472.07" stroke="url(#paint15_linear_698_12084)"/>
<path opacity="0.68" d="M982.587 92.4831C955.974 131.038 927.785 225.997 1027.94 297.395C1153.13 386.644 1154.71 466.641 1090.56 580.335C1026.4 694.03 743.296 530.097 682.207 749.742C621.118 969.388 799.66 1143.13 956.195 1120.32C1112.73 1097.5 1210.07 1328.83 1015.98 1462.46" stroke="url(#paint16_linear_698_12084)"/>
<path opacity="0.72" d="M979.163 85.4042C953.215 124.367 926.655 219.668 1028 289.164C1154.69 376.035 1157.64 455.869 1095.44 570.513C1033.24 685.157 747.405 526.538 690.083 746.9C632.761 967.262 814.229 1137.54 970.338 1111.98C1126.45 1086.41 1227.71 1315.62 1035.95 1452.47" stroke="url(#paint17_linear_698_12084)"/>
<path opacity="0.76" d="M975.599 78.3586C950.322 117.719 925.394 213.333 1027.9 280.907C1156.04 365.375 1160.35 445.023 1100.12 560.583C1039.9 676.144 751.423 522.883 697.874 743.897C644.326 964.912 828.654 1131.67 984.288 1103.37C1139.92 1075.07 1245.07 1302.08 1055.7 1442.13" stroke="url(#paint18_linear_698_12084)"/>
<path opacity="0.8" d="M971.895 71.3488C947.295 111.095 924.003 206.994 1027.64 272.627C1157.18 354.668 1162.84 434.107 1104.6 550.55C1046.36 666.992 755.35 519.133 705.58 740.735C655.809 962.338 842.931 1125.53 998.042 1094.5C1153.15 1063.47 1262.14 1288.23 1075.2 1431.42" stroke="url(#paint19_linear_698_12084)"/>
<path opacity="0.84" d="M968.052 64.378C944.135 104.498 922.48 200.655 1027.2 264.328C1158.1 343.919 1165.12 423.125 1108.87 540.416C1052.63 657.707 759.183 515.292 713.196 737.418C667.208 959.543 857.054 1119.12 1011.59 1085.37C1166.14 1051.62 1278.92 1274.06 1094.46 1420.36" stroke="url(#paint20_linear_698_12084)"/>
<path opacity="0.88" d="M964.071 57.4479C940.842 97.9297 920.827 194.317 1026.6 256.012C1158.81 333.131 1167.17 412.081 1112.94 530.186C1058.7 648.291 762.921 511.36 720.72 733.944C678.518 956.529 871.019 1112.45 1024.94 1075.99C1178.86 1039.53 1295.39 1259.59 1113.48 1408.94" stroke="url(#paint21_linear_698_12084)"/>
<path opacity="0.92" d="M959.952 50.561C937.417 91.3932 919.043 187.983 1025.83 247.682C1159.31 322.307 1169.01 400.98 1116.79 519.865C1064.57 638.749 766.562 507.34 728.149 730.318C689.736 953.297 884.822 1105.52 1038.08 1066.36C1191.34 1027.2 1311.56 1244.81 1132.23 1397.18" stroke="url(#paint22_linear_698_12084)"/>
<path opacity="0.96" d="M955.697 43.7201C933.861 84.8909 917.128 181.654 1024.89 239.342C1159.59 311.452 1170.62 389.824 1120.43 509.455C1070.25 629.085 770.106 503.233 735.482 726.542C700.858 949.851 898.459 1098.32 1051 1056.48C1203.55 1014.63 1327.42 1229.74 1150.73 1385.08" stroke="url(#paint23_linear_698_12084)"/>
<path d="M951.308 36.9271C930.175 78.4245 915.085 175.334 1023.79 230.994C1159.66 300.57 1172.01 378.619 1123.86 498.96C1075.72 619.301 773.552 499.041 742.717 722.616C711.882 946.19 911.926 1090.88 1063.71 1046.36C1215.49 1001.84 1342.96 1214.38 1168.96 1372.65" stroke="url(#paint24_linear_698_12084)"/>
</g>
<defs>
<linearGradient id="paint0_linear_698_12084" x1="503.11" y1="867.703" x2="1046.91" y2="901.161" gradientUnits="userSpaceOnUse">
<stop stop-color="#0C6F97"/>
<stop offset="1" stop-color="#0C6F97" stop-opacity="0"/>
</linearGradient>
<linearGradient id="paint1_linear_698_12084" x1="513.611" y1="868.225" x2="1057.91" y2="892.187" gradientUnits="userSpaceOnUse">
<stop stop-color="#0C6F97"/>
<stop offset="1" stop-color="#0C6F97" stop-opacity="0"/>
</linearGradient>
<linearGradient id="paint2_linear_698_12084" x1="524.082" y1="868.535" x2="1068.71" y2="882.994" gradientUnits="userSpaceOnUse">
<stop stop-color="#0C6F97"/>
<stop offset="1" stop-color="#0C6F97" stop-opacity="0"/>
</linearGradient>
<linearGradient id="paint3_linear_698_12084" x1="534.523" y1="868.635" x2="1079.32" y2="873.588" gradientUnits="userSpaceOnUse">
<stop stop-color="#0C6F97"/>
<stop offset="1" stop-color="#0C6F97" stop-opacity="0"/>
</linearGradient>
<linearGradient id="paint4_linear_698_12084" x1="544.927" y1="868.526" x2="1089.73" y2="863.97" gradientUnits="userSpaceOnUse">
<stop stop-color="#0C6F97"/>
<stop offset="1" stop-color="#0C6F97" stop-opacity="0"/>
</linearGradient>
<linearGradient id="paint5_linear_698_12084" x1="555.294" y1="868.209" x2="1099.94" y2="854.144" gradientUnits="userSpaceOnUse">
<stop stop-color="#0C6F97"/>
<stop offset="1" stop-color="#0C6F97" stop-opacity="0"/>
</linearGradient>
<linearGradient id="paint6_linear_698_12084" x1="565.616" y1="867.684" x2="1109.93" y2="844.116" gradientUnits="userSpaceOnUse">
<stop stop-color="#0C6F97"/>
<stop offset="1" stop-color="#0C6F97" stop-opacity="0"/>
</linearGradient>
<linearGradient id="paint7_linear_698_12084" x1="575.89" y1="866.952" x2="1119.71" y2="833.889" gradientUnits="userSpaceOnUse">
<stop stop-color="#0C6F97"/>
<stop offset="1" stop-color="#0C6F97" stop-opacity="0"/>
</linearGradient>
<linearGradient id="paint8_linear_698_12084" x1="586.115" y1="866.016" x2="1129.28" y2="823.466" gradientUnits="userSpaceOnUse">
<stop stop-color="#0C6F97"/>
<stop offset="1" stop-color="#0C6F97" stop-opacity="0"/>
</linearGradient>
<linearGradient id="paint9_linear_698_12084" x1="596.285" y1="864.876" x2="1138.62" y2="812.853" gradientUnits="userSpaceOnUse">
<stop stop-color="#0C6F97"/>
<stop offset="1" stop-color="#0C6F97" stop-opacity="0"/>
</linearGradient>
<linearGradient id="paint10_linear_698_12084" x1="606.398" y1="863.533" x2="1147.74" y2="802.053" gradientUnits="userSpaceOnUse">
<stop stop-color="#0C6F97"/>
<stop offset="1" stop-color="#0C6F97" stop-opacity="0"/>
</linearGradient>
<linearGradient id="paint11_linear_698_12084" x1="616.45" y1="861.989" x2="1156.64" y2="791.071" gradientUnits="userSpaceOnUse">
<stop stop-color="#0C6F97"/>
<stop offset="1" stop-color="#0C6F97" stop-opacity="0"/>
</linearGradient>
<linearGradient id="paint12_linear_698_12084" x1="626.437" y1="860.245" x2="1165.31" y2="779.91" gradientUnits="userSpaceOnUse">
<stop stop-color="#0C6F97"/>
<stop offset="1" stop-color="#0C6F97" stop-opacity="0"/>
</linearGradient>
<linearGradient id="paint13_linear_698_12084" x1="636.357" y1="858.302" x2="1173.74" y2="768.575" gradientUnits="userSpaceOnUse">
<stop stop-color="#0C6F97"/>
<stop offset="1" stop-color="#0C6F97" stop-opacity="0"/>
</linearGradient>
<linearGradient id="paint14_linear_698_12084" x1="646.205" y1="856.163" x2="1181.94" y2="757.071" gradientUnits="userSpaceOnUse">
<stop stop-color="#0C6F97"/>
<stop offset="1" stop-color="#0C6F97" stop-opacity="0"/>
</linearGradient>
<linearGradient id="paint15_linear_698_12084" x1="655.978" y1="853.829" x2="1189.9" y2="745.402" gradientUnits="userSpaceOnUse">
<stop stop-color="#0C6F97"/>
<stop offset="1" stop-color="#0C6F97" stop-opacity="0"/>
</linearGradient>
<linearGradient id="paint16_linear_698_12084" x1="665.674" y1="851.302" x2="1197.63" y2="733.573" gradientUnits="userSpaceOnUse">
<stop stop-color="#0C6F97"/>
<stop offset="1" stop-color="#0C6F97" stop-opacity="0"/>
</linearGradient>
<linearGradient id="paint17_linear_698_12084" x1="675.289" y1="848.582" x2="1205.11" y2="721.588" gradientUnits="userSpaceOnUse">
<stop stop-color="#0C6F97"/>
<stop offset="1" stop-color="#0C6F97" stop-opacity="0"/>
</linearGradient>
<linearGradient id="paint18_linear_698_12084" x1="684.818" y1="845.673" x2="1212.34" y2="709.451" gradientUnits="userSpaceOnUse">
<stop stop-color="#0C6F97"/>
<stop offset="1" stop-color="#0C6F97" stop-opacity="0"/>
</linearGradient>
<linearGradient id="paint19_linear_698_12084" x1="694.261" y1="842.575" x2="1219.32" y2="697.167" gradientUnits="userSpaceOnUse">
<stop stop-color="#0C6F97"/>
<stop offset="1" stop-color="#0C6F97" stop-opacity="0"/>
</linearGradient>
<linearGradient id="paint20_linear_698_12084" x1="703.612" y1="839.291" x2="1226.06" y2="684.742" gradientUnits="userSpaceOnUse">
<stop stop-color="#0C6F97"/>
<stop offset="1" stop-color="#0C6F97" stop-opacity="0"/>
</linearGradient>
<linearGradient id="paint21_linear_698_12084" x1="712.869" y1="835.822" x2="1232.54" y2="672.179" gradientUnits="userSpaceOnUse">
<stop stop-color="#0C6F97"/>
<stop offset="1" stop-color="#0C6F97" stop-opacity="0"/>
</linearGradient>
<linearGradient id="paint22_linear_698_12084" x1="722.029" y1="832.171" x2="1238.76" y2="659.483" gradientUnits="userSpaceOnUse">
<stop stop-color="#0C6F97"/>
<stop offset="1" stop-color="#0C6F97" stop-opacity="0"/>
</linearGradient>
<linearGradient id="paint23_linear_698_12084" x1="731.089" y1="828.341" x2="1244.73" y2="646.661" gradientUnits="userSpaceOnUse">
<stop stop-color="#0C6F97"/>
<stop offset="1" stop-color="#0C6F97" stop-opacity="0"/>
</linearGradient>
<linearGradient id="paint24_linear_698_12084" x1="740.047" y1="824.331" x2="1250.44" y2="633.714" gradientUnits="userSpaceOnUse">
<stop stop-color="#0C6F97"/>
<stop offset="1" stop-color="#0C6F97" stop-opacity="0"/>
</linearGradient>
</defs>
</svg>
