<svg width="1154" height="1678" viewBox="0 0 1154 1678" fill="none" xmlns="http://www.w3.org/2000/svg">
<g opacity="0.26">
<path opacity="0.04" d="M481.722 -324.085C435.297 -284.974 366.916 -175.192 464.794 -48.9574C587.143 108.835 560.7 210.44 441.421 330.936C322.142 451.431 32.0131 142.456 -121.096 397.869C-274.206 653.282 -116.205 937.002 84.4789 964.545C285.163 992.088 322.821 1319.3 36.6086 1418.18" stroke="url(#paint0_linear_698_12292)"/>
<path opacity="0.08" d="M480.272 -333.404C434.539 -293.554 368.092 -182.774 468.167 -58.4559C593.261 96.9419 568.603 198.831 451.454 321.189C334.305 443.547 38.8077 140.14 -109.803 397.77C-258.413 655.401 -95.4661 935.89 105.67 959.903C306.805 983.915 350.19 1309.91 65.7552 1413.59" stroke="url(#paint1_linear_698_12292)"/>
<path opacity="0.12" d="M478.635 -342.732C433.606 -302.156 369.108 -190.412 471.342 -68.0481C599.136 84.9068 576.263 187.049 461.273 311.232C346.282 435.415 45.5233 137.668 -98.5572 397.437C-242.638 657.206 -74.8087 934.379 126.716 954.853C328.24 975.328 377.321 1300 94.7446 1408.45" stroke="url(#paint2_linear_698_12292)"/>
<path opacity="0.16" d="M476.816 -352.065C432.503 -310.775 369.966 -198.101 474.322 -77.729C604.768 72.7363 583.683 175.1 470.879 301.07C358.075 427.04 52.1611 135.045 -87.3601 396.873C-226.881 658.701 -54.2367 932.472 147.615 949.403C349.466 966.333 404.211 1289.59 123.571 1402.77" stroke="url(#paint3_linear_698_12292)"/>
<path opacity="0.2" d="M474.812 -361.398C431.225 -319.407 370.663 -205.839 477.102 -87.495C610.152 60.4348 590.856 162.988 480.266 290.707C369.676 418.426 58.7165 132.272 -76.2174 396.079C-211.151 659.886 -33.7586 930.172 168.357 943.553C370.473 956.934 430.847 1278.68 152.224 1396.56" stroke="url(#paint4_linear_698_12292)"/>
<path opacity="0.24" d="M472.623 -370.731C429.775 -328.051 371.199 -213.622 479.683 -97.3427C615.288 48.0066 597.78 150.719 489.431 280.148C381.081 409.577 65.187 129.35 -65.133 395.056C-195.453 660.762 -13.3813 927.481 188.937 937.309C391.255 947.137 457.221 1267.27 180.693 1389.81" stroke="url(#paint5_linear_698_12292)"/>
<path opacity="0.28" d="M470.25 -380.058C428.15 -336.703 371.572 -221.448 482.061 -107.268C620.172 35.4563 604.452 138.297 498.37 269.396C392.287 400.496 71.57 126.282 -54.111 393.806C-179.792 661.331 6.88832 924.401 209.346 930.673C411.804 936.944 483.325 1255.36 208.97 1382.53" stroke="url(#paint6_linear_698_12292)"/>
<path opacity="0.32" d="M467.692 -389.378C426.351 -345.361 371.783 -229.314 484.236 -117.269C624.802 22.7882 610.87 125.725 507.08 258.456C403.289 391.186 77.8628 123.068 -43.1553 392.33C-164.173 661.592 27.0435 920.934 229.579 923.648C432.114 926.361 509.15 1242.98 237.045 1374.73" stroke="url(#paint7_linear_698_12292)"/>
<path opacity="0.36" d="M464.95 -398.687C424.379 -354.02 371.83 -237.218 486.207 -127.34C629.178 10.0069 617.031 113.01 515.557 247.331C414.083 381.653 84.063 119.71 -32.2699 390.629C-148.603 661.547 47.0775 917.084 249.627 916.238C452.177 915.393 534.687 1230.11 264.909 1366.4" stroke="url(#paint8_linear_698_12292)"/>
<path opacity="0.4" d="M462.024 -407.981C422.232 -362.679 371.713 -245.155 487.972 -137.478C633.295 -2.88228 622.933 100.156 523.8 236.028C424.666 371.9 90.1682 116.212 -21.4585 388.705C-133.085 661.199 66.984 912.853 269.486 908.449C471.988 904.045 559.929 1216.76 292.553 1357.57" stroke="url(#paint9_linear_698_12292)"/>
<path opacity="0.44" d="M458.915 -417.257C419.912 -371.333 371.431 -253.124 489.53 -147.68C637.154 -15.8749 628.573 87.1671 531.803 224.549C435.034 361.931 96.1759 112.575 -10.725 386.561C-117.626 660.548 86.756 908.244 289.147 900.283C491.539 892.322 584.867 1202.95 319.969 1348.22" stroke="url(#paint10_linear_698_12292)"/>
<path opacity="0.48" d="M455.621 -426.513C417.418 -379.981 370.984 -261.121 490.881 -157.941C640.751 -28.9669 633.949 74.0483 539.566 212.899C445.182 351.75 102.084 108.799 -0.0733443 384.197C-102.23 659.595 106.387 903.26 308.606 891.744C510.824 880.228 609.493 1188.67 347.147 1338.36" stroke="url(#paint11_linear_698_12292)"/>
<path opacity="0.52" d="M452.145 -435.745C414.749 -388.618 370.371 -269.142 492.022 -168.258C644.086 -42.1524 639.059 60.8055 547.084 201.084C455.108 341.362 107.889 104.888 10.4929 381.616C-86.9037 658.343 125.871 897.905 327.855 882.838C529.838 867.771 633.8 1173.94 374.078 1328" stroke="url(#paint12_linear_698_12292)"/>
<path opacity="0.56" d="M448.484 -444.949C411.906 -397.241 369.59 -277.187 492.952 -178.627C647.155 -55.4271 643.899 47.4429 554.353 189.107C464.806 330.771 113.589 100.844 20.9678 378.819C-71.6528 656.794 145.2 892.181 346.886 873.567C548.571 854.954 657.777 1158.76 400.753 1317.15" stroke="url(#paint13_linear_698_12292)"/>
<path opacity="0.6" d="M444.643 -454.123C408.891 -405.849 368.644 -285.25 493.673 -189.044C649.96 -68.7867 648.47 33.965 561.373 176.973C474.276 319.981 119.183 96.6679 31.3518 375.808C-56.4791 654.948 164.37 886.091 365.696 863.937C567.022 841.783 681.42 1143.14 427.167 1305.81" stroke="url(#paint14_linear_698_12292)"/>
<path opacity="0.64" d="M440.621 -463.263C405.703 -414.438 367.532 -293.33 494.183 -199.506C652.498 -82.2253 652.769 20.3778 568.142 164.687C483.514 308.996 124.668 92.363 41.6393 372.586C-41.3893 652.808 183.375 879.64 384.279 853.953C585.182 828.265 704.721 1127.08 453.309 1293.98" stroke="url(#paint15_linear_698_12292)"/>
<path opacity="0.68" d="M436.417 -472.367C402.343 -423.004 366.252 -301.423 494.481 -210.008C654.768 -95.7387 656.795 6.68579 574.655 152.254C492.515 297.822 130.042 87.9311 51.8265 369.154C-26.3888 650.377 202.207 872.831 402.627 843.618C603.046 814.405 727.671 1110.59 479.171 1281.67" stroke="url(#paint16_linear_698_12292)"/>
<path opacity="0.72" d="M432.034 -481.431C398.811 -431.545 364.805 -309.527 494.566 -220.547C656.768 -109.322 660.544 -7.10648 580.91 139.678C501.277 286.462 135.302 83.3737 61.91 365.514C-11.4824 647.654 220.861 865.667 420.734 832.937C620.608 800.208 750.264 1093.67 504.745 1268.89" stroke="url(#paint17_linear_698_12292)"/>
<path opacity="0.76" d="M427.47 -490.451C395.107 -440.057 363.191 -317.637 494.438 -231.119C658.497 -122.97 664.016 -20.9929 586.906 126.964C509.796 274.922 140.447 78.6941 71.8862 361.67C3.32509 644.645 239.33 858.153 438.596 821.917C637.862 785.681 772.492 1076.34 530.023 1255.65" stroke="url(#paint18_linear_698_12292)"/>
<path opacity="0.8" d="M422.728 -499.426C391.232 -448.538 361.41 -325.753 494.096 -241.72C659.954 -136.679 667.209 -34.9695 592.64 114.118C518.07 263.205 145.475 73.8936 81.7517 357.622C18.0286 641.35 257.609 850.291 456.206 810.56C654.803 770.829 794.349 1058.61 554.997 1241.94" stroke="url(#paint19_linear_698_12292)"/>
<path opacity="0.84" d="M417.809 -508.352C387.186 -456.984 359.46 -333.869 493.54 -252.346C661.139 -150.441 670.122 -49.0299 598.109 101.143C526.095 251.316 150.383 68.9755 91.5031 353.374C32.6234 637.772 275.692 842.088 473.558 798.874C671.424 755.659 815.827 1040.47 579.659 1227.77" stroke="url(#paint20_linear_698_12292)"/>
<path opacity="0.88" d="M412.711 -517.224C382.97 -465.393 357.344 -341.984 492.769 -262.993C662.05 -164.254 672.753 -63.1697 603.311 88.0458C533.869 239.261 155.169 63.9415 101.137 348.927C47.1045 633.913 293.572 833.545 490.647 786.861C687.722 740.178 836.92 1021.94 604.002 1213.16" stroke="url(#paint21_linear_698_12292)"/>
<path opacity="0.92" d="M407.438 -526.042C378.585 -473.762 355.06 -350.094 491.783 -273.658C662.687 -178.112 675.101 -77.3836 608.245 74.8304C541.389 227.044 159.832 58.7942 110.65 344.285C61.4674 629.775 311.245 824.667 507.468 774.529C703.691 724.39 857.622 1003.02 628.018 1198.1" stroke="url(#paint22_linear_698_12292)"/>
<path opacity="0.96" d="M401.99 -534.801C374.032 -482.088 352.609 -358.197 490.582 -284.336C663.049 -192.011 677.164 -91.667 612.909 61.5014C548.653 214.67 164.369 53.5353 120.038 339.449C75.7074 625.362 328.705 815.459 524.015 761.881C719.325 708.303 877.925 983.72 651.7 1182.61" stroke="url(#paint23_linear_698_12292)"/>
<path d="M396.368 -543.498C369.311 -490.367 349.99 -366.289 489.166 -295.024C663.135 -205.944 678.943 -106.014 617.3 48.0648C555.656 202.143 168.779 48.1683 129.3 334.422C89.8198 620.676 345.946 805.925 540.282 748.925C734.619 691.924 897.823 964.053 675.04 1166.69" stroke="url(#paint24_linear_698_12292)"/>
</g>
<defs>
<linearGradient id="paint0_linear_698_12292" x1="-177.48" y1="520.184" x2="518.768" y2="563.022" gradientUnits="userSpaceOnUse">
<stop stop-color="white"/>
<stop offset="1" stop-color="white" stop-opacity="0"/>
</linearGradient>
<linearGradient id="paint1_linear_698_12292" x1="-164.035" y1="520.853" x2="532.856" y2="551.533" gradientUnits="userSpaceOnUse">
<stop stop-color="white"/>
<stop offset="1" stop-color="white" stop-opacity="0"/>
</linearGradient>
<linearGradient id="paint2_linear_698_12292" x1="-150.628" y1="521.25" x2="546.692" y2="539.763" gradientUnits="userSpaceOnUse">
<stop stop-color="white"/>
<stop offset="1" stop-color="white" stop-opacity="0"/>
</linearGradient>
<linearGradient id="paint3_linear_698_12292" x1="-137.26" y1="521.378" x2="560.277" y2="527.719" gradientUnits="userSpaceOnUse">
<stop stop-color="white"/>
<stop offset="1" stop-color="white" stop-opacity="0"/>
</linearGradient>
<linearGradient id="paint4_linear_698_12292" x1="-123.938" y1="521.239" x2="573.603" y2="515.404" gradientUnits="userSpaceOnUse">
<stop stop-color="white"/>
<stop offset="1" stop-color="white" stop-opacity="0"/>
</linearGradient>
<linearGradient id="paint5_linear_698_12292" x1="-110.667" y1="520.832" x2="586.665" y2="502.825" gradientUnits="userSpaceOnUse">
<stop stop-color="white"/>
<stop offset="1" stop-color="white" stop-opacity="0"/>
</linearGradient>
<linearGradient id="paint6_linear_698_12292" x1="-97.4519" y1="520.16" x2="599.461" y2="489.986" gradientUnits="userSpaceOnUse">
<stop stop-color="white"/>
<stop offset="1" stop-color="white" stop-opacity="0"/>
</linearGradient>
<linearGradient id="paint7_linear_698_12292" x1="-84.2964" y1="519.224" x2="611.983" y2="476.891" gradientUnits="userSpaceOnUse">
<stop stop-color="white"/>
<stop offset="1" stop-color="white" stop-opacity="0"/>
</linearGradient>
<linearGradient id="paint8_linear_698_12292" x1="-71.2056" y1="518.024" x2="624.229" y2="463.546" gradientUnits="userSpaceOnUse">
<stop stop-color="white"/>
<stop offset="1" stop-color="white" stop-opacity="0"/>
</linearGradient>
<linearGradient id="paint9_linear_698_12292" x1="-58.1837" y1="516.564" x2="636.194" y2="449.958" gradientUnits="userSpaceOnUse">
<stop stop-color="white"/>
<stop offset="1" stop-color="white" stop-opacity="0"/>
</linearGradient>
<linearGradient id="paint10_linear_698_12292" x1="-45.2356" y1="514.845" x2="647.874" y2="436.13" gradientUnits="userSpaceOnUse">
<stop stop-color="white"/>
<stop offset="1" stop-color="white" stop-opacity="0"/>
</linearGradient>
<linearGradient id="paint11_linear_698_12292" x1="-32.3655" y1="512.868" x2="659.265" y2="422.068" gradientUnits="userSpaceOnUse">
<stop stop-color="white"/>
<stop offset="1" stop-color="white" stop-opacity="0"/>
</linearGradient>
<linearGradient id="paint12_linear_698_12292" x1="-19.5779" y1="510.635" x2="670.363" y2="407.779" gradientUnits="userSpaceOnUse">
<stop stop-color="white"/>
<stop offset="1" stop-color="white" stop-opacity="0"/>
</linearGradient>
<linearGradient id="paint13_linear_698_12292" x1="-6.87914" y1="508.149" x2="681.161" y2="393.267" gradientUnits="userSpaceOnUse">
<stop stop-color="white"/>
<stop offset="1" stop-color="white" stop-opacity="0"/>
</linearGradient>
<linearGradient id="paint14_linear_698_12292" x1="5.73026" y1="505.41" x2="691.661" y2="378.537" gradientUnits="userSpaceOnUse">
<stop stop-color="white"/>
<stop offset="1" stop-color="white" stop-opacity="0"/>
</linearGradient>
<linearGradient id="paint15_linear_698_12292" x1="18.2442" y1="502.421" x2="701.856" y2="363.597" gradientUnits="userSpaceOnUse">
<stop stop-color="white"/>
<stop offset="1" stop-color="white" stop-opacity="0"/>
</linearGradient>
<linearGradient id="paint16_linear_698_12292" x1="30.6582" y1="499.185" x2="711.743" y2="348.451" gradientUnits="userSpaceOnUse">
<stop stop-color="white"/>
<stop offset="1" stop-color="white" stop-opacity="0"/>
</linearGradient>
<linearGradient id="paint17_linear_698_12292" x1="42.9682" y1="495.703" x2="721.319" y2="333.106" gradientUnits="userSpaceOnUse">
<stop stop-color="white"/>
<stop offset="1" stop-color="white" stop-opacity="0"/>
</linearGradient>
<linearGradient id="paint18_linear_698_12292" x1="55.1701" y1="491.978" x2="730.579" y2="317.566" gradientUnits="userSpaceOnUse">
<stop stop-color="white"/>
<stop offset="1" stop-color="white" stop-opacity="0"/>
</linearGradient>
<linearGradient id="paint19_linear_698_12292" x1="67.2596" y1="488.011" x2="739.522" y2="301.839" gradientUnits="userSpaceOnUse">
<stop stop-color="white"/>
<stop offset="1" stop-color="white" stop-opacity="0"/>
</linearGradient>
<linearGradient id="paint20_linear_698_12292" x1="79.2327" y1="483.807" x2="748.144" y2="285.93" gradientUnits="userSpaceOnUse">
<stop stop-color="white"/>
<stop offset="1" stop-color="white" stop-opacity="0"/>
</linearGradient>
<linearGradient id="paint21_linear_698_12292" x1="91.0853" y1="479.366" x2="756.441" y2="269.846" gradientUnits="userSpaceOnUse">
<stop stop-color="white"/>
<stop offset="1" stop-color="white" stop-opacity="0"/>
</linearGradient>
<linearGradient id="paint22_linear_698_12292" x1="102.814" y1="474.692" x2="764.412" y2="253.591" gradientUnits="userSpaceOnUse">
<stop stop-color="white"/>
<stop offset="1" stop-color="white" stop-opacity="0"/>
</linearGradient>
<linearGradient id="paint23_linear_698_12292" x1="114.413" y1="469.787" x2="772.052" y2="237.173" gradientUnits="userSpaceOnUse">
<stop stop-color="white"/>
<stop offset="1" stop-color="white" stop-opacity="0"/>
</linearGradient>
<linearGradient id="paint24_linear_698_12292" x1="125.881" y1="464.653" x2="779.36" y2="220.598" gradientUnits="userSpaceOnUse">
<stop stop-color="white"/>
<stop offset="1" stop-color="white" stop-opacity="0"/>
</linearGradient>
</defs>
</svg>
