<svg width="816" height="1710" viewBox="0 0 816 1710" fill="none" xmlns="http://www.w3.org/2000/svg">
<g opacity="0.26">
<path opacity="0.04" d="M665.157 568.594C627.413 565.099 543.312 587.34 508.864 704.254C465.803 850.397 400.962 890.048 293.056 891.573C185.15 893.098 251.635 580.771 58.0815 635.611C-135.472 690.45 -234.761 921.144 -179.027 1039.45C-123.293 1157.76 -288.788 1349.01 -443.767 1252.81" stroke="url(#paint0_linear_698_12834)"/>
<path opacity="0.08" d="M670.414 560.221C632.511 557.473 548.547 581.238 515.921 698.284C475.137 844.59 410.77 885.314 302.598 888.918C194.425 892.523 255.975 580.341 62.7964 638.673C-130.382 697.004 -226.161 928.563 -168.339 1045.25C-110.517 1161.94 -273.327 1355.51 -430.301 1262.75" stroke="url(#paint1_linear_698_12834)"/>
<path opacity="0.12" d="M675.443 552.435C637.391 550.432 553.589 575.712 522.791 692.849C484.294 839.27 420.42 881.05 312.011 886.73C203.603 892.41 260.204 580.476 67.4546 642.275C-125.295 704.073 -217.54 936.417 -157.647 1051.45C-97.7546 1166.49 -257.837 1362.31 -416.758 1273.01" stroke="url(#paint2_linear_698_12834)"/>
<path opacity="0.16" d="M680.41 544.551C642.22 543.294 558.601 570.076 529.64 687.266C493.439 833.752 430.074 876.574 321.461 884.324C212.847 892.073 264.487 580.491 72.2211 645.73C-120.045 710.968 -208.733 944.018 -146.789 1057.36C-84.8447 1170.71 -242.155 1368.72 -402.979 1282.9" stroke="url(#paint3_linear_698_12834)"/>
<path opacity="0.2" d="M685.312 536.569C646.996 536.055 563.584 564.33 536.466 681.532C502.569 828.036 439.731 871.883 330.943 881.696C222.154 891.509 268.824 580.382 77.0943 649.033C-114.635 717.685 -199.744 951.363 -135.768 1062.98C-71.7909 1174.6 -226.288 1374.73 -388.968 1292.42" stroke="url(#paint4_linear_698_12834)"/>
<path opacity="0.24" d="M690.144 528.489C651.712 528.719 568.531 558.473 543.262 675.65C511.676 822.121 449.382 866.977 340.45 878.847C231.518 890.718 273.208 580.149 82.0681 652.184C-109.071 724.22 -190.581 958.447 -124.592 1068.3C-58.6023 1178.16 -210.246 1380.34 -374.733 1301.56" stroke="url(#paint5_linear_698_12834)"/>
<path opacity="0.28" d="M694.913 520.322C656.376 521.294 573.448 552.515 550.034 669.628C520.766 816.018 459.032 861.866 349.986 875.787C240.941 889.707 277.645 579.798 87.1479 655.189C-103.349 730.58 -181.24 965.276 -113.258 1073.34C-45.2763 1181.4 -194.027 1385.56 -360.274 1310.33" stroke="url(#paint6_linear_698_12834)"/>
<path opacity="0.32" d="M699.444 512.741C660.813 514.453 578.162 547.13 556.606 664.138C529.661 810.399 468.505 857.223 359.377 873.186C250.249 889.148 281.962 580.002 92.16 658.718C-97.6416 737.434 -171.896 972.521 -101.943 1078.76C-31.9896 1184.99 -177.808 1391.05 -345.767 1319.4" stroke="url(#paint7_linear_698_12834)"/>
<path opacity="0.36" d="M703.736 505.751C665.022 508.202 582.67 542.321 562.977 659.187C538.361 805.269 477.799 853.052 368.619 871.049C259.438 889.045 286.156 580.764 97.102 662.774C-91.952 744.783 -162.553 980.183 -90.6497 1084.56C-18.747 1188.93 -161.595 1396.83 -331.219 1328.77" stroke="url(#paint8_linear_698_12834)"/>
<path opacity="0.4" d="M707.952 498.683C669.165 501.871 587.135 537.418 569.308 654.103C547.025 799.959 487.073 848.683 377.871 868.705C268.669 888.726 290.39 581.411 102.136 666.683C-86.1189 751.955 -153.05 987.588 -79.2199 1090.07C-5.38973 1192.55 -145.232 1402.21 -316.469 1337.76" stroke="url(#paint9_linear_698_12834)"/>
<path opacity="0.44" d="M712.089 491.52C673.24 495.443 591.554 532.406 575.597 648.871C555.65 794.452 496.325 844.1 387.131 866.138C277.938 888.175 294.662 581.927 107.258 670.428C-80.1452 758.929 -143.393 994.717 -67.6581 1095.27C8.07668 1195.83 -128.724 1407.18 -301.526 1346.35" stroke="url(#paint10_linear_698_12834)"/>
<path opacity="0.48" d="M716.154 484.277C677.255 488.933 595.935 527.296 581.849 643.503C564.242 788.761 505.558 839.316 396.404 863.359C287.249 887.402 298.978 582.322 112.476 674.019C-74.0254 765.716 -133.576 1001.58 -55.9604 1100.18C21.6556 1198.78 -112.069 1411.75 -286.386 1354.56" stroke="url(#paint11_linear_698_12834)"/>
<path opacity="0.52" d="M720.144 476.95C681.206 482.336 600.275 522.086 588.062 637.995C572.795 782.883 514.769 834.326 405.684 860.365C296.599 886.403 303.336 582.591 117.787 677.45C-67.7622 772.308 -123.605 1008.17 -44.1317 1104.78C35.3415 1201.4 -95.2741 1415.91 -271.055 1362.38" stroke="url(#paint12_linear_698_12834)"/>
<path opacity="0.56" d="M723.877 470.222C684.909 476.336 604.389 517.457 594.05 633.032C581.125 777.501 523.771 829.814 414.786 857.837C305.801 885.86 307.55 583.415 123.004 681.4C-61.5421 779.385 -113.666 1015.16 -32.3599 1109.76C48.946 1204.36 -78.5284 1420.35 -255.723 1370.49" stroke="url(#paint13_linear_698_12834)"/>
<path opacity="0.6" d="M727.536 463.417C688.55 470.255 608.463 512.733 599.997 627.935C589.415 771.938 532.749 825.103 423.894 855.1C315.038 885.096 311.806 584.116 128.313 685.191C-55.1804 786.266 -103.576 1021.89 -20.4622 1114.44C62.6511 1207 -61.6509 1424.38 -240.208 1378.2" stroke="url(#paint14_linear_698_12834)"/>
<path opacity="0.64" d="M731.116 456.54C692.124 464.101 612.49 507.919 605.898 622.71C597.658 766.2 541.694 820.199 432.999 852.156C324.303 884.113 316.098 584.698 133.707 688.827C-48.6838 792.955 -93.3427 1028.34 -8.44752 1118.82C76.4477 1209.3 -44.6522 1428.01 -224.52 1385.52" stroke="url(#paint15_linear_698_12834)"/>
<path opacity="0.68" d="M734.605 449.583C695.616 457.862 616.458 503.005 611.739 617.349C605.84 760.278 550.593 815.092 442.087 848.997C333.581 882.902 320.413 585.15 139.173 692.294C-42.0669 799.438 -82.9827 1034.51 3.66813 1122.89C90.3189 1211.27 -27.5499 1431.23 -208.676 1392.44" stroke="url(#paint16_linear_698_12834)"/>
<path opacity="0.72" d="M737.841 443.243C698.866 452.237 620.205 498.69 617.357 612.547C613.796 754.869 559.28 810.479 450.994 846.319C342.707 882.16 324.587 586.166 144.547 696.288C-35.4927 806.41 -72.6599 1041.08 15.7197 1127.34C104.099 1213.59 -10.5109 1434.73 -192.844 1399.65" stroke="url(#paint17_linear_698_12834)"/>
<path opacity="0.76" d="M740.993 436.827C702.044 446.532 623.901 494.277 622.921 607.611C621.696 749.28 567.925 805.666 459.888 843.428C351.851 881.191 328.792 587.052 150 700.113C-28.7924 813.173 -62.2067 1047.38 27.8744 1131.48C117.955 1215.57 6.63052 1437.82 -176.857 1406.46" stroke="url(#paint18_linear_698_12834)"/>
<path opacity="0.8" d="M744.054 430.343C705.141 440.756 627.536 489.776 628.422 602.551C629.53 743.52 576.517 800.663 468.759 840.333C361 880.004 333.018 587.816 155.521 703.775C-21.9764 819.734 -51.6348 1053.39 40.12 1135.31C131.875 1217.22 23.8604 1440.5 -160.728 1412.87" stroke="url(#paint19_linear_698_12834)"/>
<path opacity="0.84" d="M746.853 424.475C707.986 435.592 630.941 485.87 633.689 598.048C637.125 738.271 584.885 796.153 477.434 837.716C369.984 879.279 337.094 589.136 160.939 707.954C-15.2159 826.771 -41.1166 1059.81 52.2834 1139.52C145.683 1219.23 41.004 1443.45 -144.633 1419.56" stroke="url(#paint20_linear_698_12834)"/>
<path opacity="0.88" d="M749.568 418.546C710.759 430.363 634.293 481.882 638.9 593.427C644.659 732.858 593.204 791.458 486.091 834.899C378.978 878.34 341.198 590.337 166.432 711.971C-8.33426 833.605 -30.4769 1065.94 64.5396 1143.42C159.556 1220.9 58.2346 1446.01 -128.397 1425.85" stroke="url(#paint21_linear_698_12834)"/>
<path opacity="0.92" d="M752.016 413.231C713.275 425.743 637.409 478.484 643.869 589.36C651.945 727.955 601.288 787.254 494.542 832.557C387.796 877.861 345.145 592.09 171.813 716.499C-1.51806 840.908 -19.9033 1072.47 76.7003 1147.69C173.304 1222.92 75.3623 1448.83 -112.21 1432.42" stroke="url(#paint22_linear_698_12834)"/>
<path opacity="0.96" d="M754.698 408.254C716.036 421.456 640.789 475.403 649.098 585.574C659.484 723.287 609.637 783.265 503.287 830.415C396.936 877.564 349.436 594.118 177.585 721.26C5.7334 848.401 -8.89652 1079.11 89.2643 1152.06C187.425 1225 92.8842 1451.65 -95.5757 1438.98" stroke="url(#paint23_linear_698_12834)"/>
<path d="M756.46 403.116C717.888 417.004 643.28 472.137 653.431 581.567C666.12 718.355 617.097 778.991 511.17 827.97C405.244 876.949 352.917 595.92 182.591 725.75C12.265 855.58 1.38714 1085.36 101.075 1156.01C200.762 1226.66 109.642 1453.96 -79.651 1445.04" stroke="url(#paint24_linear_698_12834)"/>
</g>
<defs>
<linearGradient id="paint0_linear_698_12834" x1="-28.635" y1="670.638" x2="256.318" y2="998.929" gradientUnits="userSpaceOnUse">
<stop offset="0.416667" stop-color="#0C6F97"/>
<stop offset="0.864583" stop-color="#0C6F97" stop-opacity="0"/>
</linearGradient>
<linearGradient id="paint1_linear_698_12834" x1="-23.5807" y1="675.217" x2="265.299" y2="998.477" gradientUnits="userSpaceOnUse">
<stop offset="0.416667" stop-color="#0C6F97"/>
<stop offset="0.864583" stop-color="#0C6F97" stop-opacity="0"/>
</linearGradient>
<linearGradient id="paint2_linear_698_12834" x1="-18.5591" y1="680.321" x2="274.169" y2="998.563" gradientUnits="userSpaceOnUse">
<stop offset="0.416667" stop-color="#0C6F97"/>
<stop offset="0.864583" stop-color="#0C6F97" stop-opacity="0"/>
</linearGradient>
<linearGradient id="paint3_linear_698_12834" x1="-13.4053" y1="685.263" x2="283.098" y2="998.5" gradientUnits="userSpaceOnUse">
<stop offset="0.416667" stop-color="#0C6F97"/>
<stop offset="0.864583" stop-color="#0C6F97" stop-opacity="0"/>
</linearGradient>
<linearGradient id="paint4_linear_698_12834" x1="-8.12107" y1="690.037" x2="292.086" y2="998.284" gradientUnits="userSpaceOnUse">
<stop offset="0.416667" stop-color="#0C6F97"/>
<stop offset="0.864583" stop-color="#0C6F97" stop-opacity="0"/>
</linearGradient>
<linearGradient id="paint5_linear_698_12834" x1="-2.71279" y1="694.643" x2="301.131" y2="997.912" gradientUnits="userSpaceOnUse">
<stop offset="0.416667" stop-color="#0C6F97"/>
<stop offset="0.864583" stop-color="#0C6F97" stop-opacity="0"/>
</linearGradient>
<linearGradient id="paint6_linear_698_12834" x1="2.82482" y1="699.086" x2="310.242" y2="997.39" gradientUnits="userSpaceOnUse">
<stop offset="0.416667" stop-color="#0C6F97"/>
<stop offset="0.864583" stop-color="#0C6F97" stop-opacity="0"/>
</linearGradient>
<linearGradient id="paint7_linear_698_12834" x1="8.31775" y1="704.037" x2="319.247" y2="997.388" gradientUnits="userSpaceOnUse">
<stop offset="0.416667" stop-color="#0C6F97"/>
<stop offset="0.864583" stop-color="#0C6F97" stop-opacity="0"/>
</linearGradient>
<linearGradient id="paint8_linear_698_12834" x1="13.7635" y1="709.498" x2="328.146" y2="997.907" gradientUnits="userSpaceOnUse">
<stop offset="0.416667" stop-color="#0C6F97"/>
<stop offset="0.864583" stop-color="#0C6F97" stop-opacity="0"/>
</linearGradient>
<linearGradient id="paint9_linear_698_12834" x1="19.3236" y1="714.794" x2="337.106" y2="998.273" gradientUnits="userSpaceOnUse">
<stop offset="0.416667" stop-color="#0C6F97"/>
<stop offset="0.864583" stop-color="#0C6F97" stop-opacity="0"/>
</linearGradient>
<linearGradient id="paint10_linear_698_12834" x1="24.9953" y1="719.908" x2="346.124" y2="998.468" gradientUnits="userSpaceOnUse">
<stop offset="0.416667" stop-color="#0C6F97"/>
<stop offset="0.864583" stop-color="#0C6F97" stop-opacity="0"/>
</linearGradient>
<linearGradient id="paint11_linear_698_12834" x1="30.7842" y1="724.85" x2="355.21" y2="998.499" gradientUnits="userSpaceOnUse">
<stop offset="0.416667" stop-color="#0C6F97"/>
<stop offset="0.864583" stop-color="#0C6F97" stop-opacity="0"/>
</linearGradient>
<linearGradient id="paint12_linear_698_12834" x1="36.6877" y1="729.613" x2="364.364" y2="998.36" gradientUnits="userSpaceOnUse">
<stop offset="0.416667" stop-color="#0C6F97"/>
<stop offset="0.864583" stop-color="#0C6F97" stop-opacity="0"/>
</linearGradient>
<linearGradient id="paint13_linear_698_12834" x1="42.5196" y1="734.877" x2="373.402" y2="998.728" gradientUnits="userSpaceOnUse">
<stop offset="0.416667" stop-color="#0C6F97"/>
<stop offset="0.864583" stop-color="#0C6F97" stop-opacity="0"/>
</linearGradient>
<linearGradient id="paint14_linear_698_12834" x1="48.4649" y1="739.963" x2="382.511" y2="998.925" gradientUnits="userSpaceOnUse">
<stop offset="0.416667" stop-color="#0C6F97"/>
<stop offset="0.864583" stop-color="#0C6F97" stop-opacity="0"/>
</linearGradient>
<linearGradient id="paint15_linear_698_12834" x1="54.5168" y1="744.873" x2="391.688" y2="998.95" gradientUnits="userSpaceOnUse">
<stop offset="0.416667" stop-color="#0C6F97"/>
<stop offset="0.864583" stop-color="#0C6F97" stop-opacity="0"/>
</linearGradient>
<linearGradient id="paint16_linear_698_12834" x1="60.661" y1="749.596" x2="400.919" y2="998.79" gradientUnits="userSpaceOnUse">
<stop offset="0.416667" stop-color="#0C6F97"/>
<stop offset="0.864583" stop-color="#0C6F97" stop-opacity="0"/>
</linearGradient>
<linearGradient id="paint17_linear_698_12834" x1="66.7347" y1="754.825" x2="410.044" y2="999.139" gradientUnits="userSpaceOnUse">
<stop offset="0.416667" stop-color="#0C6F97"/>
<stop offset="0.864583" stop-color="#0C6F97" stop-opacity="0"/>
</linearGradient>
<linearGradient id="paint18_linear_698_12834" x1="72.9071" y1="759.864" x2="419.234" y2="999.298" gradientUnits="userSpaceOnUse">
<stop offset="0.416667" stop-color="#0C6F97"/>
<stop offset="0.864583" stop-color="#0C6F97" stop-opacity="0"/>
</linearGradient>
<linearGradient id="paint19_linear_698_12834" x1="79.1677" y1="764.72" x2="428.482" y2="999.272" gradientUnits="userSpaceOnUse">
<stop offset="0.416667" stop-color="#0C6F97"/>
<stop offset="0.864583" stop-color="#0C6F97" stop-opacity="0"/>
</linearGradient>
<linearGradient id="paint20_linear_698_12834" x1="85.3458" y1="770.071" x2="437.616" y2="999.739" gradientUnits="userSpaceOnUse">
<stop offset="0.416667" stop-color="#0C6F97"/>
<stop offset="0.864583" stop-color="#0C6F97" stop-opacity="0"/>
</linearGradient>
<linearGradient id="paint21_linear_698_12834" x1="91.6181" y1="775.24" x2="446.817" y2="1000.02" gradientUnits="userSpaceOnUse">
<stop offset="0.416667" stop-color="#0C6F97"/>
<stop offset="0.864583" stop-color="#0C6F97" stop-opacity="0"/>
</linearGradient>
<linearGradient id="paint22_linear_698_12834" x1="97.7984" y1="780.898" x2="455.9" y2="1000.78" gradientUnits="userSpaceOnUse">
<stop offset="0.416667" stop-color="#0C6F97"/>
<stop offset="0.864583" stop-color="#0C6F97" stop-opacity="0"/>
</linearGradient>
<linearGradient id="paint23_linear_698_12834" x1="104.388" y1="786.766" x2="465.366" y2="1001.74" gradientUnits="userSpaceOnUse">
<stop offset="0.416667" stop-color="#0C6F97"/>
<stop offset="0.864583" stop-color="#0C6F97" stop-opacity="0"/>
</linearGradient>
<linearGradient id="paint24_linear_698_12834" x1="110.231" y1="792.342" x2="474.063" y2="1002.4" gradientUnits="userSpaceOnUse">
<stop offset="0.416667" stop-color="#0C6F97"/>
<stop offset="0.864583" stop-color="#0C6F97" stop-opacity="0"/>
</linearGradient>
</defs>
</svg>
