<svg width="1920" height="491" viewBox="0 0 1920 491" fill="none" xmlns="http://www.w3.org/2000/svg">
<path fill-rule="evenodd" clip-rule="evenodd" d="M-11 5.21431C173.667 -4.13916 691.63 0.662607 1025 34.0542C1453 76.9243 1873 66.7913 1957 39.5104V101.432C2005.15 97.584 2048.49 94.328 2084.07 91.8068V369.293C2060.07 376.828 1969.27 389.871 1798.07 381.765C1712.5 377.713 1619.58 397.589 1513.8 420.215C1355.04 454.173 1167.33 494.324 932.071 469.064C619.974 435.553 491.702 438.603 331.255 442.42C290.177 443.397 246.991 444.424 198.071 444.901C6.07089 446.771 -73.9291 435.287 -89.9291 429.311C-110.596 362.278 -144.729 222.911 -115.929 201.71C-106.171 194.527 -72.4631 189.463 -25 185.524V9.89103L-11 5.21431Z" fill="#E9E4DC"/>
<path d="M1025 34.0542L1024.95 34.5518L1025 34.0542ZM-11 5.21431L-11.0253 4.71495L-11.0936 4.71841L-11.1584 4.74007L-11 5.21431ZM1957 39.5104H1957.5V38.8223L1956.85 39.0348L1957 39.5104ZM1957 101.432H1956.5V101.974L1957.04 101.93L1957 101.432ZM2084.07 91.8068H2084.57V91.2701L2084.04 91.3081L2084.07 91.8068ZM2084.07 369.293L2084.22 369.77L2084.57 369.66V369.293H2084.07ZM1798.07 381.765L1798.05 382.264L1798.05 382.264L1798.07 381.765ZM1513.8 420.215L1513.69 419.726L1513.69 419.726L1513.8 420.215ZM932.071 469.064L932.124 468.567L932.071 469.064ZM331.255 442.42L331.243 441.92L331.243 441.92L331.255 442.42ZM198.071 444.901L198.076 445.401L198.076 445.401L198.071 444.901ZM-89.9291 429.311L-90.4069 429.459L-90.3344 429.694L-90.104 429.78L-89.9291 429.311ZM-115.929 201.71L-116.226 201.307L-116.226 201.307L-115.929 201.71ZM-25 185.524L-24.9586 186.022L-24.5 185.984V185.524H-25ZM-25 9.89103L-25.1584 9.41679L-25.5 9.5309V9.89103H-25ZM1025.05 33.5567C691.652 0.162402 173.664 -4.63969 -11.0253 4.71495L-10.9747 5.71367C173.669 -3.63864 691.607 1.16281 1024.95 34.5518L1025.05 33.5567ZM1956.85 39.0348C1935.91 45.8336 1893.97 51.58 1836.09 55.6969C1778.23 59.8124 1704.49 62.2967 1620 62.589C1451.01 63.1735 1239.03 54.9899 1025.05 33.5567L1024.95 34.5518C1238.97 55.9887 1450.99 64.1736 1620 63.5889C1704.51 63.2966 1778.27 60.8119 1836.16 56.6943C1894.03 52.5782 1936.09 46.8276 1957.15 39.9859L1956.85 39.0348ZM1957.5 101.432V39.5104H1956.5V101.432H1957.5ZM1957.04 101.93C2005.19 98.0825 2048.53 94.8266 2084.11 92.3056L2084.04 91.3081C2048.45 93.8293 2005.11 97.0855 1956.96 100.934L1957.04 101.93ZM2083.57 91.8068V369.293H2084.57V91.8068H2083.57ZM2083.92 368.816C2071.98 372.565 2043.33 377.707 1996.24 380.895C1949.16 384.083 1883.68 385.318 1798.09 381.265L1798.05 382.264C1883.66 386.318 1949.18 385.084 1996.3 381.893C2043.41 378.703 2072.16 373.556 2084.22 369.77L2083.92 368.816ZM1798.09 381.265C1712.45 377.21 1619.45 397.104 1513.69 419.726L1513.9 420.704C1619.7 398.074 1712.56 378.216 1798.05 382.264L1798.09 381.265ZM1513.69 419.726C1354.94 453.683 1167.29 493.818 932.124 468.567L932.018 469.561C1167.36 494.83 1355.14 454.662 1513.9 420.704L1513.69 419.726ZM932.124 468.567C620 435.052 491.705 438.103 331.243 441.92L331.267 442.92C491.699 439.104 619.948 436.053 932.018 469.561L932.124 468.567ZM331.243 441.92C290.165 442.897 246.982 443.924 198.066 444.401L198.076 445.401C247 444.924 290.19 443.897 331.267 442.92L331.243 441.92ZM198.066 444.401C102.076 445.336 34.0902 442.933 -11.8924 439.55C-34.8839 437.858 -52.3712 435.922 -65.1059 434.037C-77.8526 432.149 -85.8074 430.317 -89.7542 428.843L-90.104 429.78C-86.0508 431.294 -78.0056 433.138 -65.2523 435.026C-52.487 436.916 -34.9743 438.854 -11.9658 440.547C34.0516 443.932 102.066 446.336 198.076 445.401L198.066 444.401ZM-89.4513 429.164C-99.7805 395.661 -113.474 344.084 -120.986 298.243C-124.742 275.32 -126.949 253.853 -126.423 236.806C-126.16 228.282 -125.215 220.884 -123.449 214.971C-121.682 209.051 -119.109 204.672 -115.633 202.113L-116.226 201.307C-119.949 204.048 -122.61 208.662 -124.407 214.685C-126.207 220.712 -127.158 228.205 -127.423 236.775C-127.951 253.917 -125.733 275.457 -121.973 298.405C-114.451 344.305 -100.744 395.929 -90.4069 429.459L-89.4513 429.164ZM-115.633 202.113C-113.266 200.37 -109.398 198.727 -104.139 197.184C-98.8904 195.645 -92.2997 194.22 -84.52 192.893C-68.9613 190.24 -48.6851 187.991 -24.9586 186.022L-25.0414 185.025C-48.778 186.995 -69.0874 189.247 -84.6881 191.907C-92.4881 193.237 -99.1204 194.671 -104.42 196.225C-109.708 197.775 -113.714 199.458 -116.226 201.307L-115.633 202.113ZM-25.5 9.89103V185.524H-24.5V9.89103H-25.5ZM-11.1584 4.74007L-25.1584 9.41679L-24.8416 10.3653L-10.8416 5.68855L-11.1584 4.74007Z" fill="#B69970"/>
<path fill-rule="evenodd" clip-rule="evenodd" d="M2098.89 367.435C2050.73 371.137 1983.81 372.179 1896.41 366.282C1841.88 362.601 1784.29 370.865 1722.32 384.454C1685.16 392.601 1646.46 402.655 1605.9 413.191C1578.79 420.234 1550.85 427.492 1521.99 434.54C1377.94 469.716 1211.16 499.602 1011.14 471.015C692.815 425.521 561.83 428.376 397.953 431.947C355.994 432.861 311.879 433.823 261.91 434.031C163.855 434.441 94.4214 430.803 47.4602 426.087C23.9799 423.729 6.11341 421.101 -6.90611 418.574C-19.9118 416.05 -28.1162 413.62 -32.2471 411.643L-31.8155 410.741C-27.8077 412.659 -19.711 415.07 -6.71556 417.593C6.26613 420.112 24.1011 422.736 47.5601 425.092C94.4779 429.804 163.875 433.441 261.906 433.031C311.86 432.823 355.968 431.861 397.925 430.947C561.817 427.375 692.873 424.519 1011.28 470.025C1211.12 498.586 1377.75 468.732 1521.75 433.568C1550.58 426.529 1578.51 419.274 1605.62 412.232C1646.2 401.69 1684.94 391.627 1722.1 383.477C1784.11 369.881 1841.8 361.594 1896.48 365.284C1983.83 371.179 2050.71 370.135 2098.81 366.438C2146.93 362.74 2176.23 356.388 2188.46 351.687L2188.81 352.62C2176.45 357.376 2147.03 363.735 2098.89 367.435Z" fill="#E9E4DC"/>
<path d="M1896.41 366.282L1896.38 366.781L1896.41 366.282ZM2098.89 367.435L2098.93 367.934L2098.89 367.435ZM1722.32 384.454L1722.43 384.943L1722.32 384.454ZM1605.9 413.191L1606.03 413.675L1605.9 413.191ZM1521.99 434.54L1522.1 435.026L1521.99 434.54ZM1011.14 471.015L1011.21 470.52L1011.14 471.015ZM397.953 431.947L397.942 431.447L397.953 431.947ZM261.91 434.031L261.908 433.531L261.91 434.031ZM47.4602 426.087L47.5102 425.59L47.4602 426.087ZM-6.90611 418.574L-6.81083 418.084L-6.90611 418.574ZM-32.2471 411.643L-32.6981 411.428L-32.9139 411.879L-32.4629 412.094L-32.2471 411.643ZM-31.8155 410.741L-31.5997 410.29L-32.0507 410.074L-32.2665 410.526L-31.8155 410.741ZM-6.71556 417.593L-6.81083 418.084L-6.71556 417.593ZM47.5601 425.092L47.5102 425.59L47.5601 425.092ZM261.906 433.031L261.904 432.532L261.906 433.031ZM397.925 430.947L397.914 430.447L397.925 430.947ZM1011.28 470.025L1011.35 469.53L1011.28 470.025ZM1521.75 433.568L1521.63 433.083L1521.75 433.568ZM1605.62 412.232L1605.74 412.716L1605.62 412.232ZM1722.1 383.477L1722 382.989L1722.1 383.477ZM1896.48 365.284L1896.45 365.783L1896.48 365.284ZM2098.81 366.438L2098.85 366.937L2098.81 366.438ZM2188.46 351.687L2188.92 351.508L2188.74 351.041L2188.28 351.22L2188.46 351.687ZM2188.81 352.62L2188.99 353.087L2189.46 352.908L2189.28 352.441L2188.81 352.62ZM1896.38 366.781C1983.79 372.68 2050.74 371.637 2098.93 367.934L2098.85 366.937C2050.72 370.636 1983.82 371.679 1896.45 365.783L1896.38 366.781ZM1722.43 384.943C1784.38 371.357 1841.91 363.105 1896.38 366.781L1896.45 365.783C1841.84 362.098 1784.2 370.373 1722.21 383.966L1722.43 384.943ZM1606.03 413.675C1646.59 403.138 1685.28 393.087 1722.43 384.943L1722.21 383.966C1685.05 392.115 1646.33 402.171 1605.78 412.707L1606.03 413.675ZM1522.1 435.026C1550.97 427.976 1578.92 420.717 1606.03 413.675L1605.78 412.707C1578.66 419.75 1550.73 427.007 1521.87 434.054L1522.1 435.026ZM1011.06 471.51C1211.18 500.11 1378.03 470.208 1522.1 435.026L1521.87 434.054C1377.84 469.224 1211.14 499.094 1011.21 470.52L1011.06 471.51ZM397.964 432.447C561.822 428.876 692.778 426.021 1011.06 471.51L1011.21 470.52C692.851 425.021 561.838 427.875 397.942 431.447L397.964 432.447ZM261.912 434.531C311.886 434.323 356.005 433.361 397.964 432.447L397.942 431.447C355.983 432.361 311.872 433.323 261.908 433.531L261.912 434.531ZM47.4103 426.585C94.3932 431.303 163.845 434.941 261.912 434.531L261.908 433.531C163.865 433.941 94.4496 430.303 47.5102 425.59L47.4103 426.585ZM-7.00137 419.065C6.03704 421.596 23.9193 424.226 47.4103 426.585L47.5102 425.59C24.0405 423.233 6.18977 420.607 -6.81083 418.084L-7.00137 419.065ZM-32.4629 412.094C-28.2705 414.1 -20.0123 416.54 -7.00137 419.065L-6.81083 418.084C-19.8114 415.56 -27.9619 413.139 -32.0313 411.192L-32.4629 412.094ZM-32.2665 410.526L-32.6981 411.428L-31.796 411.859L-31.3644 410.957L-32.2665 410.526ZM-6.62029 417.102C-19.6106 414.581 -27.6534 412.178 -31.5997 410.29L-32.0313 411.192C-27.9619 413.139 -19.8114 415.56 -6.81083 418.084L-6.62029 417.102ZM47.6101 424.595C24.1616 422.24 6.34249 419.618 -6.62029 417.102L-6.81083 418.084C6.18977 420.607 24.0405 423.233 47.5102 425.59L47.6101 424.595ZM261.904 432.532C163.886 432.941 94.5061 429.304 47.6101 424.595L47.5102 425.59C94.4496 430.303 163.865 433.941 261.908 433.531L261.904 432.532ZM397.914 430.447C355.957 431.362 311.853 432.323 261.904 432.532L261.908 433.531C311.867 433.323 355.98 432.361 397.935 431.447L397.914 430.447ZM1011.35 469.53C692.909 424.02 561.826 426.875 397.914 430.447L397.935 431.447C561.809 427.876 692.836 425.019 1011.21 470.52L1011.35 469.53ZM1521.63 433.083C1377.66 468.24 1211.1 498.078 1011.35 469.53L1011.21 470.52C1211.14 499.094 1377.84 469.224 1521.87 434.054L1521.63 433.083ZM1605.49 411.748C1578.38 418.79 1550.45 426.044 1521.63 433.083L1521.87 434.054C1550.7 427.013 1578.63 419.757 1605.74 412.716L1605.49 411.748ZM1722 382.989C1684.82 391.141 1646.07 401.207 1605.49 411.748L1605.74 412.716C1646.32 402.174 1685.06 392.113 1722.21 383.966L1722 382.989ZM1896.52 364.785C1841.77 361.091 1784.02 369.389 1722 382.989L1722.21 383.966C1784.2 370.373 1841.84 362.098 1896.45 365.783L1896.52 364.785ZM2098.77 365.94C2050.7 369.635 1983.85 370.679 1896.52 364.785L1896.45 365.783C1983.82 371.679 2050.72 370.636 2098.85 366.937L2098.77 365.94ZM2188.28 351.22C2176.12 355.895 2146.88 362.242 2098.77 365.94L2098.85 366.937C2146.98 363.237 2176.34 356.882 2188.63 352.154L2188.28 351.22ZM2189.28 352.441L2188.92 351.508L2187.99 351.866L2188.35 352.8L2189.28 352.441ZM2098.93 367.934C2147.08 364.233 2176.56 357.869 2188.99 353.087L2188.63 352.154C2176.34 356.882 2146.98 363.237 2098.85 366.937L2098.93 367.934Z" fill="#B69970"/>
</svg>
