<svg width="854" height="1593" viewBox="0 0 854 1593" fill="none" xmlns="http://www.w3.org/2000/svg">
<g opacity="0.26">
<path opacity="0.04" d="M193.61 734.107C227.71 717.554 314.258 708.776 387.646 806.089C479.382 927.73 554.029 942.026 655.569 905.48C757.109 868.934 584.966 599.983 785.437 583.2C985.908 566.418 1160.03 747.415 1149.5 877.77C1138.96 1008.13 1361.17 1128.9 1472.38 984.31" stroke="url(#paint0_linear_698_11997)"/>
<path opacity="0.08" d="M185.74 728.121C220.252 712.21 307.208 704.907 378.937 802.984C468.599 925.58 543.179 941.046 645.701 906.354C748.222 871.661 580.75 601.108 782.099 587.727C983.448 574.345 1154.59 757.386 1141.53 886.96C1128.47 1016.53 1348.99 1140.43 1463.27 998.356" stroke="url(#paint1_linear_698_11997)"/>
<path opacity="0.12" d="M178.294 722.602C213.207 707.336 300.545 701.507 370.595 800.313C458.156 923.821 532.648 940.451 636.12 907.617C739.593 874.783 576.84 602.722 779.007 592.736C981.174 582.751 1149.28 767.77 1133.7 896.523C1118.12 1025.28 1336.88 1152.24 1454.21 1012.73" stroke="url(#paint2_linear_698_11997)"/>
<path opacity="0.16" d="M170.874 716.968C206.178 702.352 293.873 697.994 362.221 797.496C447.657 921.873 522.039 939.656 626.432 908.688C730.825 877.719 572.839 604.241 775.764 597.646C978.69 591.051 1143.72 777.983 1125.62 905.875C1107.53 1033.77 1324.46 1163.76 1444.8 1026.83" stroke="url(#paint3_linear_698_11997)"/>
<path opacity="0.2" d="M163.472 711.224C199.156 697.26 287.182 694.372 353.811 794.534C437.096 919.738 511.345 938.666 616.627 909.568C721.91 880.47 568.737 605.668 772.361 602.456C975.986 599.244 1137.88 788.024 1117.28 915.015C1096.67 1042.01 1311.72 1174.97 1435.03 1040.68" stroke="url(#paint4_linear_698_11997)"/>
<path opacity="0.24" d="M156.104 705.363C192.159 692.053 280.49 690.632 345.378 791.421C426.489 917.407 500.584 937.472 606.725 910.248C712.866 883.025 564.55 606.993 768.813 607.157C973.077 607.32 1131.8 797.88 1108.69 923.932C1085.58 1049.98 1298.68 1185.87 1424.92 1054.24" stroke="url(#paint5_linear_698_11997)"/>
<path opacity="0.28" d="M148.769 699.394C185.183 686.742 273.793 686.783 336.923 788.164C415.836 914.891 489.755 936.082 596.724 910.737C703.693 885.393 560.276 608.224 765.119 611.754C969.961 615.285 1125.46 807.558 1099.86 932.631C1074.25 1057.7 1285.33 1196.46 1414.47 1067.54" stroke="url(#paint6_linear_698_11997)"/>
<path opacity="0.32" d="M141.86 693.892C178.622 681.9 267.486 683.4 328.839 785.338C405.531 912.761 479.253 935.069 587.018 911.607C694.783 888.145 556.307 609.933 761.669 616.821C967.03 623.708 1119.26 817.627 1091.17 941.683C1063.08 1065.74 1272.08 1207.31 1404.09 1081.13" stroke="url(#paint7_linear_698_11997)"/>
<path opacity="0.36" d="M135.385 688.861C172.486 677.531 261.577 680.486 321.137 782.947C395.586 911.022 469.089 934.436 577.619 912.86C686.149 891.283 552.652 612.124 758.473 622.357C964.294 632.591 1113.22 828.088 1082.65 951.088C1052.07 1074.09 1258.94 1218.42 1393.77 1095.02" stroke="url(#paint8_linear_698_11997)"/>
<path opacity="0.4" d="M128.951 683.727C166.378 673.062 255.671 677.468 313.419 780.416C385.605 909.1 458.869 933.61 568.132 913.921C677.394 894.233 548.915 614.219 755.136 627.788C961.356 641.356 1106.93 838.362 1073.88 960.269C1040.84 1082.18 1245.52 1229.21 1383.12 1108.62" stroke="url(#paint9_linear_698_11997)"/>
<path opacity="0.44" d="M122.557 678.48C160.301 668.481 249.769 674.332 305.691 777.732C375.593 906.981 448.596 932.576 558.56 914.778C668.524 896.979 545.097 616.206 751.658 633.097C958.219 649.987 1100.4 848.434 1064.89 969.211C1029.39 1089.99 1231.82 1239.68 1372.16 1121.93" stroke="url(#paint10_linear_698_11997)"/>
<path opacity="0.48" d="M116.201 673.129C154.25 663.798 243.869 671.09 297.948 774.906C365.547 904.676 438.268 931.346 548.901 915.439C659.534 899.531 541.195 618.093 748.036 638.293C954.877 658.492 1093.62 858.311 1055.67 977.919C1017.72 1097.53 1217.83 1249.81 1360.88 1134.94" stroke="url(#paint11_linear_698_11997)"/>
<path opacity="0.52" d="M109.888 667.676C148.231 659.014 237.973 667.741 290.195 771.938C355.473 902.185 427.891 929.917 539.161 915.902C650.431 901.887 537.211 619.879 744.273 643.373C951.334 666.867 1086.61 867.988 1046.22 986.391C1005.83 1104.79 1203.58 1259.62 1349.28 1147.65" stroke="url(#paint12_linear_698_11997)"/>
<path opacity="0.56" d="M104.028 662.691C142.654 654.701 232.495 664.855 282.845 769.399C345.783 900.078 417.878 928.862 529.753 916.739C641.629 904.617 533.558 622.133 740.781 648.907C948.004 675.68 1079.77 878.034 1036.95 995.195C994.138 1112.36 1189.47 1269.67 1337.78 1160.64" stroke="url(#paint13_linear_698_11997)"/>
<path opacity="0.6" d="M98.2067 657.612C137.105 650.294 227.018 661.87 275.483 766.724C336.064 897.792 407.815 927.615 520.263 917.385C632.712 907.155 529.819 624.291 737.144 654.327C944.469 684.363 1072.69 887.88 1027.46 1003.76C982.235 1119.65 1175.09 1279.38 1325.97 1173.32" stroke="url(#paint14_linear_698_11997)"/>
<path opacity="0.64" d="M92.4376 652.431C131.597 645.785 221.556 658.777 268.123 763.906C326.332 895.317 397.719 926.167 510.707 917.829C623.696 909.491 526.009 626.341 733.377 659.623C940.745 692.905 1065.38 897.515 1017.76 1012.08C970.134 1126.65 1160.46 1288.76 1313.86 1185.69" stroke="url(#paint15_linear_698_11997)"/>
<path opacity="0.68" d="M86.7228 647.148C126.131 641.177 216.112 655.576 260.768 760.944C316.589 892.655 387.591 924.52 501.088 918.072C614.585 911.624 522.128 628.284 729.48 664.794C936.832 701.304 1057.85 906.937 1007.85 1020.16C957.841 1133.38 1145.58 1297.79 1301.47 1197.74" stroke="url(#paint16_linear_698_11997)"/>
<path opacity="0.72" d="M81.461 642.354C121.108 637.057 211.084 652.857 253.818 758.429C307.236 890.394 377.834 923.261 491.807 918.702C605.779 914.143 518.576 630.706 725.853 670.426C933.129 710.145 1050.5 916.729 998.131 1028.57C945.758 1140.4 1130.86 1307.07 1289.19 1210.07" stroke="url(#paint17_linear_698_11997)"/>
<path opacity="0.76" d="M76.2537 637.456C116.127 632.834 206.074 650.025 246.875 755.765C297.876 887.94 368.05 921.797 482.465 919.124C596.881 916.452 514.954 633.014 722.097 675.923C929.239 718.832 1042.94 926.297 988.211 1036.72C933.487 1147.13 1115.9 1315.99 1276.62 1222.06" stroke="url(#paint18_linear_698_11997)"/>
<path opacity="0.8" d="M71.1089 632.463C111.197 628.516 201.089 647.09 239.946 752.963C288.518 885.304 358.249 920.137 473.074 919.348C587.9 918.559 511.269 635.214 718.219 681.292C925.17 727.371 1035.16 935.646 978.1 1044.61C921.041 1153.58 1100.72 1324.56 1263.78 1233.74" stroke="url(#paint19_linear_698_11997)"/>
<path opacity="0.84" d="M66.4233 627.956C106.716 624.684 196.527 644.633 233.431 750.602C279.561 883.065 348.828 918.86 464.032 919.951C579.235 921.043 507.918 637.885 714.617 687.111C921.317 736.337 1027.57 945.351 968.194 1052.83C908.82 1160.31 1085.71 1333.36 1251.07 1245.67" stroke="url(#paint20_linear_698_11997)"/>
<path opacity="0.88" d="M61.7944 623.362C102.279 620.766 191.984 642.08 226.926 748.111C270.603 880.65 339.389 917.394 454.937 920.362C570.486 923.33 504.498 640.454 710.889 692.806C917.28 745.157 1019.77 954.839 958.096 1060.8C896.423 1166.76 1070.48 1341.81 1238.08 1257.27" stroke="url(#paint21_linear_698_11997)"/>
<path opacity="0.92" d="M57.6344 619.248C98.3001 617.326 187.874 639.996 220.845 746.053C262.059 878.624 330.344 916.303 446.205 921.143C562.065 925.984 501.422 643.484 707.447 698.937C913.472 754.391 1012.17 964.669 948.218 1069.08C884.266 1173.49 1055.44 1350.48 1225.24 1269.11" stroke="url(#paint22_linear_698_11997)"/>
<path opacity="0.96" d="M53.3732 615.532C94.2081 614.284 183.626 638.3 214.619 744.348C253.361 876.907 321.125 915.506 437.265 922.214C553.406 928.921 498.12 646.891 703.72 705.423C909.321 763.955 1004.21 974.759 937.994 1077.58C871.783 1180.41 1040.04 1359.29 1211.98 1281.11" stroke="url(#paint23_linear_698_11997)"/>
<path d="M49.9131 611.345C90.9057 610.77 180.143 636.121 209.151 742.124C245.41 874.627 312.637 914.133 429.024 922.702C545.411 931.272 495.493 649.804 700.612 711.39C905.732 772.976 996.778 984.234 928.328 1085.44C859.878 1186.65 1025.16 1367.35 1199.21 1292.38" stroke="url(#paint24_linear_698_11997)"/>
</g>
<defs>
<linearGradient id="paint0_linear_698_11997" x1="878.933" y1="585.471" x2="727.737" y2="993.04" gradientUnits="userSpaceOnUse">
<stop offset="0.416667" stop-color="#0C6F97"/>
<stop offset="0.864583" stop-color="#0C6F97" stop-opacity="0"/>
</linearGradient>
<linearGradient id="paint1_linear_698_11997" x1="875.811" y1="591.536" x2="719.169" y2="995.778" gradientUnits="userSpaceOnUse">
<stop offset="0.416667" stop-color="#0C6F97"/>
<stop offset="0.864583" stop-color="#0C6F97" stop-opacity="0"/>
</linearGradient>
<linearGradient id="paint2_linear_698_11997" x1="872.908" y1="598.08" x2="710.897" y2="998.979" gradientUnits="userSpaceOnUse">
<stop offset="0.416667" stop-color="#0C6F97"/>
<stop offset="0.864583" stop-color="#0C6F97" stop-opacity="0"/>
</linearGradient>
<linearGradient id="paint3_linear_698_11997" x1="869.825" y1="604.517" x2="702.521" y2="1002.06" gradientUnits="userSpaceOnUse">
<stop offset="0.416667" stop-color="#0C6F97"/>
<stop offset="0.864583" stop-color="#0C6F97" stop-opacity="0"/>
</linearGradient>
<linearGradient id="paint4_linear_698_11997" x1="866.555" y1="610.849" x2="694.027" y2="1005.02" gradientUnits="userSpaceOnUse">
<stop offset="0.416667" stop-color="#0C6F97"/>
<stop offset="0.864583" stop-color="#0C6F97" stop-opacity="0"/>
</linearGradient>
<linearGradient id="paint5_linear_698_11997" x1="863.113" y1="617.064" x2="685.428" y2="1007.86" gradientUnits="userSpaceOnUse">
<stop offset="0.416667" stop-color="#0C6F97"/>
<stop offset="0.864583" stop-color="#0C6F97" stop-opacity="0"/>
</linearGradient>
<linearGradient id="paint6_linear_698_11997" x1="859.496" y1="623.17" x2="676.72" y2="1010.58" gradientUnits="userSpaceOnUse">
<stop offset="0.416667" stop-color="#0C6F97"/>
<stop offset="0.864583" stop-color="#0C6F97" stop-opacity="0"/>
</linearGradient>
<linearGradient id="paint7_linear_698_11997" x1="856.096" y1="629.736" x2="668.29" y2="1013.74" gradientUnits="userSpaceOnUse">
<stop offset="0.416667" stop-color="#0C6F97"/>
<stop offset="0.864583" stop-color="#0C6F97" stop-opacity="0"/>
</linearGradient>
<linearGradient id="paint8_linear_698_11997" x1="852.923" y1="636.765" x2="660.145" y2="1017.36" gradientUnits="userSpaceOnUse">
<stop offset="0.416667" stop-color="#0C6F97"/>
<stop offset="0.864583" stop-color="#0C6F97" stop-opacity="0"/>
</linearGradient>
<linearGradient id="paint9_linear_698_11997" x1="849.581" y1="643.679" x2="651.886" y2="1020.86" gradientUnits="userSpaceOnUse">
<stop offset="0.416667" stop-color="#0C6F97"/>
<stop offset="0.864583" stop-color="#0C6F97" stop-opacity="0"/>
</linearGradient>
<linearGradient id="paint10_linear_698_11997" x1="846.072" y1="650.463" x2="643.513" y2="1024.21" gradientUnits="userSpaceOnUse">
<stop offset="0.416667" stop-color="#0C6F97"/>
<stop offset="0.864583" stop-color="#0C6F97" stop-opacity="0"/>
</linearGradient>
<linearGradient id="paint11_linear_698_11997" x1="842.39" y1="657.124" x2="635.017" y2="1027.44" gradientUnits="userSpaceOnUse">
<stop offset="0.416667" stop-color="#0C6F97"/>
<stop offset="0.864583" stop-color="#0C6F97" stop-opacity="0"/>
</linearGradient>
<linearGradient id="paint12_linear_698_11997" x1="838.541" y1="663.661" x2="626.4" y2="1030.53" gradientUnits="userSpaceOnUse">
<stop offset="0.416667" stop-color="#0C6F97"/>
<stop offset="0.864583" stop-color="#0C6F97" stop-opacity="0"/>
</linearGradient>
<linearGradient id="paint13_linear_698_11997" x1="834.936" y1="670.64" x2="618.071" y2="1034.05" gradientUnits="userSpaceOnUse">
<stop offset="0.416667" stop-color="#0C6F97"/>
<stop offset="0.864583" stop-color="#0C6F97" stop-opacity="0"/>
</linearGradient>
<linearGradient id="paint14_linear_698_11997" x1="831.159" y1="677.496" x2="609.612" y2="1037.45" gradientUnits="userSpaceOnUse">
<stop offset="0.416667" stop-color="#0C6F97"/>
<stop offset="0.864583" stop-color="#0C6F97" stop-opacity="0"/>
</linearGradient>
<linearGradient id="paint15_linear_698_11997" x1="827.225" y1="684.217" x2="601.034" y2="1040.7" gradientUnits="userSpaceOnUse">
<stop offset="0.416667" stop-color="#0C6F97"/>
<stop offset="0.864583" stop-color="#0C6F97" stop-opacity="0"/>
</linearGradient>
<linearGradient id="paint16_linear_698_11997" x1="823.135" y1="690.801" x2="592.337" y2="1043.8" gradientUnits="userSpaceOnUse">
<stop offset="0.416667" stop-color="#0C6F97"/>
<stop offset="0.864583" stop-color="#0C6F97" stop-opacity="0"/>
</linearGradient>
<linearGradient id="paint17_linear_698_11997" x1="819.288" y1="697.835" x2="583.916" y2="1047.34" gradientUnits="userSpaceOnUse">
<stop offset="0.416667" stop-color="#0C6F97"/>
<stop offset="0.864583" stop-color="#0C6F97" stop-opacity="0"/>
</linearGradient>
<linearGradient id="paint18_linear_698_11997" x1="815.285" y1="704.722" x2="575.371" y2="1050.72" gradientUnits="userSpaceOnUse">
<stop offset="0.416667" stop-color="#0C6F97"/>
<stop offset="0.864583" stop-color="#0C6F97" stop-opacity="0"/>
</linearGradient>
<linearGradient id="paint19_linear_698_11997" x1="811.135" y1="711.469" x2="566.708" y2="1053.95" gradientUnits="userSpaceOnUse">
<stop offset="0.416667" stop-color="#0C6F97"/>
<stop offset="0.864583" stop-color="#0C6F97" stop-opacity="0"/>
</linearGradient>
<linearGradient id="paint20_linear_698_11997" x1="807.235" y1="718.653" x2="558.321" y2="1057.6" gradientUnits="userSpaceOnUse">
<stop offset="0.416667" stop-color="#0C6F97"/>
<stop offset="0.864583" stop-color="#0C6F97" stop-opacity="0"/>
</linearGradient>
<linearGradient id="paint21_linear_698_11997" x1="803.182" y1="725.7" x2="549.806" y2="1061.1" gradientUnits="userSpaceOnUse">
<stop offset="0.416667" stop-color="#0C6F97"/>
<stop offset="0.864583" stop-color="#0C6F97" stop-opacity="0"/>
</linearGradient>
<linearGradient id="paint22_linear_698_11997" x1="799.39" y1="733.17" x2="541.574" y2="1065.01" gradientUnits="userSpaceOnUse">
<stop offset="0.416667" stop-color="#0C6F97"/>
<stop offset="0.864583" stop-color="#0C6F97" stop-opacity="0"/>
</linearGradient>
<linearGradient id="paint23_linear_698_11997" x1="795.288" y1="740.98" x2="533.052" y2="1069.24" gradientUnits="userSpaceOnUse">
<stop offset="0.416667" stop-color="#0C6F97"/>
<stop offset="0.864583" stop-color="#0C6F97" stop-opacity="0"/>
</linearGradient>
<linearGradient id="paint24_linear_698_11997" x1="791.779" y1="748.258" x2="525.142" y2="1072.92" gradientUnits="userSpaceOnUse">
<stop offset="0.416667" stop-color="#0C6F97"/>
<stop offset="0.864583" stop-color="#0C6F97" stop-opacity="0"/>
</linearGradient>
</defs>
</svg>
