<svg width="983" height="1646" viewBox="0 0 983 1646" fill="none" xmlns="http://www.w3.org/2000/svg">
<g opacity="0.26">
<path opacity="0.04" d="M697.595 184.202C684.452 219.755 684.167 306.746 788.182 370.281C918.201 449.699 939.718 522.592 913.263 627.216C886.807 731.84 602.331 586.785 605.206 787.937C608.082 989.089 805.218 1144.7 933.921 1121.49C1062.63 1098.27 1204.52 1307.63 1071.48 1432.43" stroke="url(#paint0_linear_698_12861)"/>
<path opacity="0.08" d="M690.871 176.951C678.407 212.852 679.631 300.105 784.243 361.914C915.009 439.175 937.686 511.888 913.17 617.307C888.655 722.727 603.041 582.476 609.387 784.17C615.732 985.863 814.611 1138.31 942.291 1112.66C1069.97 1087.01 1214.81 1294.37 1084.58 1421.99" stroke="url(#paint1_linear_698_12861)"/>
<path opacity="0.12" d="M684.652 170.081C672.869 206.318 675.597 293.808 780.772 353.873C912.24 428.955 936.065 501.467 913.493 607.651C890.922 713.835 604.266 578.429 614.072 780.605C623.877 982.781 824.429 1132.02 951.045 1103.94C1077.66 1075.86 1225.38 1281.17 1097.99 1411.57" stroke="url(#paint2_linear_698_12861)"/>
<path opacity="0.16" d="M678.322 163.246C667.223 199.808 671.451 287.51 777.152 345.815C909.277 418.696 934.24 490.985 913.614 597.903C892.988 704.822 605.389 574.298 618.642 776.898C631.896 979.497 834.051 1125.48 959.564 1094.98C1085.08 1064.49 1235.63 1267.69 1111.11 1400.82" stroke="url(#paint3_linear_698_12861)"/>
<path opacity="0.2" d="M671.879 156.444C661.466 193.321 667.188 281.208 773.379 337.737C906.117 408.397 932.206 480.442 913.528 588.064C894.851 695.685 606.404 570.08 623.093 773.045C639.782 976.009 843.469 1118.7 967.841 1085.79C1092.21 1052.88 1245.54 1253.91 1123.93 1389.75" stroke="url(#paint4_linear_698_12861)"/>
<path opacity="0.24" d="M665.326 149.681C655.601 186.863 662.813 274.91 769.457 329.646C902.762 398.065 929.967 469.846 913.239 578.139C896.511 686.432 607.314 565.781 627.425 769.052C647.535 972.323 852.685 1111.68 975.877 1076.37C1099.07 1041.06 1255.11 1239.87 1136.45 1378.36" stroke="url(#paint5_linear_698_12861)"/>
<path opacity="0.28" d="M658.671 142.963C649.635 180.438 658.33 268.621 765.391 321.549C899.219 387.708 927.527 459.205 912.75 568.137C897.973 677.07 608.123 561.406 631.641 764.925C655.159 968.443 861.699 1104.42 983.674 1066.73C1105.65 1029.03 1264.35 1225.55 1148.66 1366.67" stroke="url(#paint6_linear_698_12861)"/>
<path opacity="0.32" d="M652.522 136.625C644.178 174.383 654.349 262.675 761.792 313.78C896.095 377.662 925.495 448.853 912.669 558.394C899.844 667.935 609.439 557.29 636.349 760.998C663.258 964.705 871.117 1097.27 991.836 1057.2C1112.56 1017.13 1273.86 1211.31 1161.18 1355" stroke="url(#paint7_linear_698_12861)"/>
<path opacity="0.36" d="M646.882 130.672C639.23 168.701 650.872 257.078 758.659 306.347C893.392 367.933 923.873 438.798 912.998 548.916C902.123 659.034 611.261 553.438 641.546 757.276C671.83 961.114 880.936 1090.23 1000.36 1047.8C1119.79 1005.36 1283.63 1197.15 1173.99 1343.37" stroke="url(#paint8_linear_698_12861)"/>
<path opacity="0.4" d="M641.143 124.77C634.183 163.061 647.288 251.496 755.383 298.915C890.502 358.189 922.05 428.709 913.125 539.372C904.201 650.035 612.979 549.515 646.622 753.425C680.264 957.335 890.545 1082.97 1008.64 1038.18C1126.74 993.391 1293.06 1182.73 1186.49 1331.45" stroke="url(#paint9_linear_698_12861)"/>
<path opacity="0.44" d="M635.297 118.919C629.032 157.459 643.592 245.928 751.959 291.485C887.417 348.431 920.019 418.585 913.044 529.761C906.069 640.938 614.585 545.521 651.567 749.444C688.549 953.368 899.932 1075.49 1016.66 1028.36C1133.4 981.231 1302.14 1168.07 1198.66 1319.24" stroke="url(#paint10_linear_698_12861)"/>
<path opacity="0.48" d="M629.354 113.115C623.784 151.893 639.793 240.371 748.394 284.053C884.145 338.656 917.789 408.425 912.762 520.083C907.735 631.741 616.085 541.451 656.387 745.331C696.69 949.211 909.103 1067.78 1024.43 1018.33C1139.76 968.876 1310.87 1153.16 1210.51 1306.74" stroke="url(#paint11_linear_698_12861)"/>
<path opacity="0.52" d="M623.308 107.365C618.432 146.371 635.881 234.832 744.68 276.628C880.68 328.874 915.352 398.238 912.27 510.345C909.188 622.452 617.471 537.313 661.074 741.091C704.677 944.869 918.047 1059.85 1031.94 1008.09C1145.83 956.335 1319.23 1138.02 1222.03 1293.96" stroke="url(#paint12_linear_698_12861)"/>
<path opacity="0.56" d="M617.777 102.018C613.597 141.24 632.477 229.66 741.438 269.56C877.639 319.435 913.326 388.374 912.187 500.899C911.047 613.423 619.36 533.456 666.242 737.074C713.124 940.692 927.379 1052.06 1039.8 998.012C1152.22 943.961 1327.85 1122.99 1233.83 1281.24" stroke="url(#paint13_linear_698_12861)"/>
<path opacity="0.6" d="M612.15 96.7216C608.665 136.149 628.967 224.501 738.053 262.495C874.41 309.987 911.098 378.483 911.898 491.392C912.698 604.302 621.138 529.525 671.277 732.926C721.417 936.327 936.482 1044.06 1047.39 987.73C1158.31 931.403 1336.12 1107.73 1245.29 1268.25" stroke="url(#paint14_linear_698_12861)"/>
<path opacity="0.64" d="M606.432 91.4848C603.642 131.106 625.357 219.367 734.531 255.444C870.998 300.541 908.673 368.574 911.408 481.837C914.144 595.1 622.808 525.531 676.182 728.658C729.556 931.784 945.36 1035.84 1054.73 977.259C1164.1 918.675 1344.02 1092.26 1256.42 1255" stroke="url(#paint15_linear_698_12861)"/>
<path opacity="0.68" d="M600.616 86.3137C598.522 126.117 621.639 214.262 730.865 248.415C867.397 291.106 906.044 358.657 910.711 472.241C915.377 585.825 624.362 521.48 680.947 724.276C737.532 927.071 954 1027.43 1061.8 966.609C1169.59 905.785 1351.55 1076.57 1267.21 1241.48" stroke="url(#paint16_linear_698_12861)"/>
<path opacity="0.72" d="M595.329 81.5503C593.929 121.525 618.44 209.528 727.68 241.748C864.231 282.023 903.836 349.074 910.429 462.947C917.022 576.82 626.424 517.714 686.196 720.121C745.968 922.528 963.027 1019.17 1069.21 956.122C1175.4 893.078 1359.34 1061.02 1278.27 1228.06" stroke="url(#paint17_linear_698_12861)"/>
<path opacity="0.76" d="M589.948 76.8446C589.242 116.979 615.135 204.817 724.354 235.096C860.878 272.946 901.426 339.478 909.94 453.608C918.453 567.737 628.369 513.882 691.302 715.844C754.235 917.806 971.812 1010.7 1076.36 945.453C1180.9 880.207 1366.76 1045.26 1288.99 1214.38" stroke="url(#paint18_linear_698_12861)"/>
<path opacity="0.8" d="M584.478 72.2104C584.465 112.493 611.729 200.141 720.891 228.473C857.342 263.888 898.818 329.884 909.247 444.238C919.675 558.592 630.201 509.998 696.269 711.459C762.337 912.921 980.358 1002.04 1083.23 934.617C1186.1 867.19 1373.81 1029.31 1299.35 1200.46" stroke="url(#paint19_linear_698_12861)"/>
<path opacity="0.84" d="M579.535 67.9856C580.213 108.405 608.837 195.838 717.905 222.217C854.239 255.191 896.627 320.632 908.964 435.178C921.3 549.725 632.532 506.4 701.708 707.305C770.884 908.209 989.276 993.541 1090.44 923.954C1191.61 854.367 1381.11 1013.51 1309.98 1186.64" stroke="url(#paint20_linear_698_12861)"/>
<path opacity="0.88" d="M574.509 63.8321C575.878 104.377 605.851 191.572 714.788 215.992C850.959 246.517 894.244 311.386 908.482 426.092C922.72 540.798 634.752 502.751 707.009 703.043C779.266 903.335 997.954 984.856 1097.39 913.13C1196.82 841.404 1388.03 997.536 1320.26 1172.59" stroke="url(#paint21_linear_698_12861)"/>
<path opacity="0.92" d="M570.01 60.0916C572.068 100.751 603.377 187.683 712.147 210.139C848.11 238.209 892.277 302.488 908.408 417.322C924.54 532.156 637.468 499.391 712.776 699.016C788.085 898.64 1007 976.331 1104.66 902.489C1202.32 828.647 1395.19 981.722 1330.79 1158.66" stroke="url(#paint22_linear_698_12861)"/>
<path opacity="0.96" d="M565.896 56.2113C568.642 96.9729 601.275 183.618 709.843 204.107C845.552 229.718 890.585 293.389 908.602 408.319C926.619 523.249 640.538 495.769 718.869 694.672C797.199 893.574 1016.26 967.417 1112.13 891.481C1208 815.545 1402.45 965.525 1341.44 1144.28" stroke="url(#paint23_linear_698_12861)"/>
<path d="M561.39 53.1776C564.822 94.0303 598.767 180.365 707.095 198.882C842.506 222.029 888.388 285.076 908.282 400.07C928.177 515.063 643.18 492.871 724.503 690.996C805.826 889.121 1024.97 959.101 1119.01 881.095C1213.05 803.089 1409.02 949.935 1351.41 1130.47" stroke="url(#paint24_linear_698_12861)"/>
</g>
<defs>
<linearGradient id="paint0_linear_698_12861" x1="616.596" y1="880.764" x2="1007.45" y2="690.489" gradientUnits="userSpaceOnUse">
<stop offset="0.416667" stop-color="#0C6F97"/>
<stop offset="0.864583" stop-color="#0C6F97" stop-opacity="0"/>
</linearGradient>
<linearGradient id="paint1_linear_698_12861" x1="622.33" y1="877.062" x2="1009.34" y2="681.692" gradientUnits="userSpaceOnUse">
<stop offset="0.416667" stop-color="#0C6F97"/>
<stop offset="0.864583" stop-color="#0C6F97" stop-opacity="0"/>
</linearGradient>
<linearGradient id="paint2_linear_698_12861" x1="628.559" y1="873.535" x2="1011.72" y2="673.148" gradientUnits="userSpaceOnUse">
<stop offset="0.416667" stop-color="#0C6F97"/>
<stop offset="0.864583" stop-color="#0C6F97" stop-opacity="0"/>
</linearGradient>
<linearGradient id="paint3_linear_698_12861" x1="634.666" y1="869.838" x2="1013.97" y2="664.51" gradientUnits="userSpaceOnUse">
<stop offset="0.416667" stop-color="#0C6F97"/>
<stop offset="0.864583" stop-color="#0C6F97" stop-opacity="0"/>
</linearGradient>
<linearGradient id="paint4_linear_698_12861" x1="640.644" y1="865.969" x2="1016.09" y2="655.771" gradientUnits="userSpaceOnUse">
<stop offset="0.416667" stop-color="#0C6F97"/>
<stop offset="0.864583" stop-color="#0C6F97" stop-opacity="0"/>
</linearGradient>
<linearGradient id="paint5_linear_698_12861" x1="646.494" y1="861.933" x2="1018.07" y2="646.934" gradientUnits="userSpaceOnUse">
<stop offset="0.416667" stop-color="#0C6F97"/>
<stop offset="0.864583" stop-color="#0C6F97" stop-opacity="0"/>
</linearGradient>
<linearGradient id="paint6_linear_698_12861" x1="652.218" y1="857.736" x2="1019.92" y2="638.001" gradientUnits="userSpaceOnUse">
<stop offset="0.416667" stop-color="#0C6F97"/>
<stop offset="0.864583" stop-color="#0C6F97" stop-opacity="0"/>
</linearGradient>
<linearGradient id="paint7_linear_698_12861" x1="658.424" y1="853.713" x2="1022.25" y2="629.303" gradientUnits="userSpaceOnUse">
<stop offset="0.416667" stop-color="#0C6F97"/>
<stop offset="0.864583" stop-color="#0C6F97" stop-opacity="0"/>
</linearGradient>
<linearGradient id="paint8_linear_698_12861" x1="665.108" y1="849.868" x2="1025.06" y2="620.843" gradientUnits="userSpaceOnUse">
<stop offset="0.416667" stop-color="#0C6F97"/>
<stop offset="0.864583" stop-color="#0C6F97" stop-opacity="0"/>
</linearGradient>
<linearGradient id="paint9_linear_698_12861" x1="671.66" y1="845.868" x2="1027.73" y2="612.284" gradientUnits="userSpaceOnUse">
<stop offset="0.416667" stop-color="#0C6F97"/>
<stop offset="0.864583" stop-color="#0C6F97" stop-opacity="0"/>
</linearGradient>
<linearGradient id="paint10_linear_698_12861" x1="678.07" y1="841.711" x2="1030.25" y2="603.621" gradientUnits="userSpaceOnUse">
<stop offset="0.416667" stop-color="#0C6F97"/>
<stop offset="0.864583" stop-color="#0C6F97" stop-opacity="0"/>
</linearGradient>
<linearGradient id="paint11_linear_698_12861" x1="684.343" y1="837.396" x2="1032.64" y2="594.85" gradientUnits="userSpaceOnUse">
<stop offset="0.416667" stop-color="#0C6F97"/>
<stop offset="0.864583" stop-color="#0C6F97" stop-opacity="0"/>
</linearGradient>
<linearGradient id="paint12_linear_698_12861" x1="690.471" y1="832.927" x2="1034.87" y2="585.973" gradientUnits="userSpaceOnUse">
<stop offset="0.416667" stop-color="#0C6F97"/>
<stop offset="0.864583" stop-color="#0C6F97" stop-opacity="0"/>
</linearGradient>
<linearGradient id="paint13_linear_698_12861" x1="697.067" y1="828.656" x2="1037.57" y2="577.338" gradientUnits="userSpaceOnUse">
<stop offset="0.416667" stop-color="#0C6F97"/>
<stop offset="0.864583" stop-color="#0C6F97" stop-opacity="0"/>
</linearGradient>
<linearGradient id="paint14_linear_698_12861" x1="703.517" y1="824.229" x2="1040.11" y2="568.589" gradientUnits="userSpaceOnUse">
<stop offset="0.416667" stop-color="#0C6F97"/>
<stop offset="0.864583" stop-color="#0C6F97" stop-opacity="0"/>
</linearGradient>
<linearGradient id="paint15_linear_698_12861" x1="709.823" y1="819.656" x2="1042.51" y2="559.734" gradientUnits="userSpaceOnUse">
<stop offset="0.416667" stop-color="#0C6F97"/>
<stop offset="0.864583" stop-color="#0C6F97" stop-opacity="0"/>
</linearGradient>
<linearGradient id="paint16_linear_698_12861" x1="715.976" y1="814.943" x2="1044.74" y2="550.776" gradientUnits="userSpaceOnUse">
<stop offset="0.416667" stop-color="#0C6F97"/>
<stop offset="0.864583" stop-color="#0C6F97" stop-opacity="0"/>
</linearGradient>
<linearGradient id="paint17_linear_698_12861" x1="722.599" y1="810.432" x2="1047.44" y2="542.054" gradientUnits="userSpaceOnUse">
<stop offset="0.416667" stop-color="#0C6F97"/>
<stop offset="0.864583" stop-color="#0C6F97" stop-opacity="0"/>
</linearGradient>
<linearGradient id="paint18_linear_698_12861" x1="729.064" y1="805.775" x2="1049.98" y2="533.218" gradientUnits="userSpaceOnUse">
<stop offset="0.416667" stop-color="#0C6F97"/>
<stop offset="0.864583" stop-color="#0C6F97" stop-opacity="0"/>
</linearGradient>
<linearGradient id="paint19_linear_698_12861" x1="735.376" y1="800.984" x2="1052.35" y2="524.28" gradientUnits="userSpaceOnUse">
<stop offset="0.416667" stop-color="#0C6F97"/>
<stop offset="0.864583" stop-color="#0C6F97" stop-opacity="0"/>
</linearGradient>
<linearGradient id="paint20_linear_698_12861" x1="742.144" y1="796.399" x2="1055.16" y2="515.574" gradientUnits="userSpaceOnUse">
<stop offset="0.416667" stop-color="#0C6F97"/>
<stop offset="0.864583" stop-color="#0C6F97" stop-opacity="0"/>
</linearGradient>
<linearGradient id="paint21_linear_698_12861" x1="748.759" y1="791.682" x2="1057.81" y2="506.763" gradientUnits="userSpaceOnUse">
<stop offset="0.416667" stop-color="#0C6F97"/>
<stop offset="0.864583" stop-color="#0C6F97" stop-opacity="0"/>
</linearGradient>
<linearGradient id="paint22_linear_698_12861" x1="755.824" y1="787.176" x2="1060.9" y2="498.186" gradientUnits="userSpaceOnUse">
<stop offset="0.416667" stop-color="#0C6F97"/>
<stop offset="0.864583" stop-color="#0C6F97" stop-opacity="0"/>
</linearGradient>
<linearGradient id="paint23_linear_698_12861" x1="763.198" y1="782.329" x2="1064.28" y2="489.29" gradientUnits="userSpaceOnUse">
<stop offset="0.416667" stop-color="#0C6F97"/>
<stop offset="0.864583" stop-color="#0C6F97" stop-opacity="0"/>
</linearGradient>
<linearGradient id="paint24_linear_698_12861" x1="770.098" y1="778.127" x2="1067.17" y2="481.059" gradientUnits="userSpaceOnUse">
<stop offset="0.416667" stop-color="#0C6F97"/>
<stop offset="0.864583" stop-color="#0C6F97" stop-opacity="0"/>
</linearGradient>
</defs>
</svg>
