<svg width="1121" height="1513" viewBox="0 0 1121 1513" fill="none" xmlns="http://www.w3.org/2000/svg">
<g opacity="0.26">
<path opacity="0.04" d="M1159.3 396.11C1117.61 399.488 1035.35 433.736 1039.78 543.697C1045.33 681.148 989.865 727.578 874.762 747.484C759.659 767.389 720.438 478.028 532.405 560.099C344.372 642.17 319.563 864.527 421.14 960.228C522.718 1055.93 413.002 1254.56 212.884 1195.59" stroke="url(#paint0_linear_698_12139)"/>
<path opacity="0.08" d="M1162.21 390.302C1120.62 394.372 1039.04 429.953 1045.48 539.717C1053.52 676.923 998.942 724.226 884.289 746.028C769.637 767.83 725.178 479.446 538.782 564.56C352.386 649.674 331.645 872.197 434.887 966.098C538.129 1060 432.113 1260.24 231.074 1204.67" stroke="url(#paint1_linear_698_12139)"/>
<path opacity="0.12" d="M1165.02 384.414C1123.54 389.173 1042.67 426.074 1051.09 535.605C1061.63 672.52 1007.95 720.679 893.78 744.368C779.609 768.057 729.934 480.745 545.225 568.87C360.515 656.995 343.839 879.609 448.714 971.681C553.589 1063.75 451.296 1265.53 249.394 1213.38" stroke="url(#paint2_linear_698_12139)"/>
<path opacity="0.16" d="M1167.73 378.45C1126.36 383.896 1046.22 422.102 1056.64 531.365C1069.65 667.943 1016.89 716.941 903.232 742.507C789.572 768.073 734.706 481.927 551.731 573.03C368.756 664.134 356.142 886.765 462.617 976.979C569.093 1067.19 470.543 1270.44 267.836 1221.72" stroke="url(#paint3_linear_698_12139)"/>
<path opacity="0.2" d="M1170.34 372.413C1129.1 378.542 1049.71 418.041 1062.1 526.998C1077.59 663.195 1025.76 713.015 912.643 740.448C799.527 767.88 739.494 482.993 558.301 577.041C377.109 671.09 368.551 893.664 476.595 981.993C584.638 1070.32 489.852 1274.97 286.398 1229.69" stroke="url(#paint4_linear_698_12139)"/>
<path opacity="0.24" d="M1172.85 366.302C1131.74 373.113 1053.12 413.889 1067.49 522.506C1085.45 658.277 1034.55 708.901 922.008 738.189C809.465 767.477 744.293 483.942 564.93 580.9C385.567 677.859 381.061 900.303 490.639 986.719C600.216 1073.13 509.213 1279.12 305.07 1237.29" stroke="url(#paint5_linear_698_12139)"/>
<path opacity="0.28" d="M1175.25 360.12C1134.29 367.609 1056.46 409.647 1072.79 517.887C1093.2 653.188 1043.26 704.599 931.322 735.731C819.383 766.862 749.1 484.772 571.613 584.606C394.125 684.439 393.664 906.68 504.742 991.156C615.82 1075.63 528.617 1282.88 323.844 1244.51" stroke="url(#paint6_linear_698_12139)"/>
<path opacity="0.32" d="M1177.54 353.869C1136.74 362.033 1059.73 405.318 1078.01 513.147C1100.87 647.933 1051.89 700.113 940.584 733.076C829.279 766.039 753.917 485.485 578.351 588.159C402.784 690.832 406.359 912.795 518.903 995.306C631.447 1077.82 548.061 1286.25 342.716 1251.36" stroke="url(#paint7_linear_698_12139)"/>
<path opacity="0.36" d="M1179.72 347.549C1139.1 356.385 1062.91 400.902 1083.14 508.284C1108.43 642.511 1060.43 695.442 949.788 730.224C839.146 765.006 758.737 486.081 585.137 591.556C411.537 697.032 419.137 918.645 533.113 999.165C647.088 1079.69 567.534 1289.24 361.676 1257.83" stroke="url(#paint8_linear_698_12139)"/>
<path opacity="0.4" d="M1181.8 341.165C1141.36 350.67 1066.02 396.403 1088.19 503.302C1115.9 636.927 1068.88 690.591 958.931 727.179C848.982 763.767 763.56 486.56 591.971 594.801C420.381 703.043 431.996 924.232 547.368 1002.74C662.74 1081.24 587.03 1291.85 380.719 1263.93" stroke="url(#paint9_linear_698_12139)"/>
<path opacity="0.44" d="M1183.76 334.717C1143.51 344.886 1069.05 391.819 1093.14 498.201C1123.26 631.179 1077.24 685.558 968.011 723.939C858.784 762.319 768.385 486.92 598.849 597.889C429.314 708.858 444.931 929.552 561.663 1006.02C678.395 1082.48 606.544 1294.07 399.838 1269.65" stroke="url(#paint10_linear_698_12139)"/>
<path opacity="0.48" d="M1185.61 328.208C1145.57 339.037 1071.99 387.154 1098 492.985C1130.51 625.274 1085.5 680.349 977.025 720.507C868.55 760.666 773.21 487.165 605.771 600.823C438.333 714.481 457.939 934.606 575.996 1009.01C694.052 1083.41 626.069 1295.91 419.027 1274.99" stroke="url(#paint11_linear_698_12139)"/>
<path opacity="0.52" d="M1187.36 321.639C1147.53 333.125 1074.86 382.409 1102.77 487.654C1137.65 619.21 1093.66 674.963 985.969 716.885C878.274 758.807 778.032 487.293 612.733 603.6C447.433 719.907 471.013 939.393 590.357 1011.71C709.702 1084.02 645.598 1297.37 438.279 1279.95" stroke="url(#paint12_linear_698_12139)"/>
<path opacity="0.56" d="M1188.98 315.01C1149.38 327.149 1077.64 377.582 1107.43 482.207C1144.68 612.989 1101.72 669.4 994.835 713.071C887.948 756.742 782.845 487.302 619.726 606.219C456.608 725.136 484.144 943.91 604.74 1014.12C725.335 1084.32 665.118 1298.44 457.583 1284.52" stroke="url(#paint13_linear_698_12139)"/>
<path opacity="0.6" d="M1190.5 308.327C1151.13 321.114 1080.33 372.681 1112.01 476.652C1151.6 606.616 1109.68 663.667 1003.63 709.071C897.577 754.476 787.654 487.197 626.757 608.682C465.86 730.168 497.335 948.16 619.145 1016.24C740.954 1084.31 684.632 1299.13 476.938 1288.72" stroke="url(#paint14_linear_698_12139)"/>
<path opacity="0.64" d="M1191.9 301.591C1152.78 315.022 1082.94 367.703 1116.48 470.987C1158.4 600.091 1117.52 657.764 1012.34 704.886C907.153 752.008 792.454 486.975 633.818 610.989C475.182 735.002 510.578 952.141 633.564 1018.07C756.549 1083.99 704.128 1299.43 496.336 1292.54" stroke="url(#paint15_linear_698_12139)"/>
<path opacity="0.68" d="M1193.18 294.803C1154.32 308.872 1085.46 362.651 1120.84 465.213C1165.07 593.417 1125.25 651.691 1020.96 700.514C916.67 749.337 797.24 486.637 640.905 613.137C484.569 739.636 523.865 955.85 647.989 1019.6C772.113 1083.36 723.597 1299.36 515.765 1295.98" stroke="url(#paint16_linear_698_12139)"/>
<path opacity="0.72" d="M1194.34 287.965C1155.76 302.668 1087.89 357.526 1125.1 459.335C1171.63 586.596 1132.87 645.453 1029.5 695.961C926.129 746.468 802.015 486.184 648.018 615.127C494.022 744.07 537.196 959.291 662.42 1020.85C787.644 1082.41 743.037 1298.9 535.225 1299.03" stroke="url(#paint17_linear_698_12139)"/>
<path opacity="0.76" d="M1195.39 281.079C1157.08 296.41 1090.22 352.33 1129.26 453.352C1178.06 579.63 1140.37 639.05 1037.95 691.225C935.523 743.399 806.772 485.616 655.152 616.959C503.532 748.302 550.562 962.46 676.847 1021.81C803.132 1081.16 762.436 1298.07 554.703 1301.71" stroke="url(#paint18_linear_698_12139)"/>
<path opacity="0.8" d="M1196.32 274.148C1158.3 290.103 1092.47 347.064 1133.31 447.268C1184.36 572.522 1147.76 632.486 1046.3 686.31C944.851 740.135 811.513 484.933 662.306 618.633C513.1 752.333 563.962 965.359 691.269 1022.48C818.576 1079.61 781.792 1296.86 574.198 1304" stroke="url(#paint19_linear_698_12139)"/>
<path opacity="0.84" d="M1197.13 267.173C1159.41 283.747 1094.62 341.732 1137.24 441.085C1190.52 565.275 1155.01 625.763 1054.56 681.219C954.107 736.675 816.232 484.137 669.475 620.15C522.718 756.162 577.387 967.988 705.677 1022.86C833.967 1077.74 801.094 1295.27 593.697 1305.92" stroke="url(#paint20_linear_698_12139)"/>
<path opacity="0.88" d="M1197.81 260.157C1160.4 277.343 1096.68 336.332 1141.07 434.802C1196.56 557.889 1162.14 618.881 1062.71 675.95C963.288 733.019 820.93 483.226 676.657 621.507C532.385 759.787 590.834 970.344 720.067 1022.96C849.3 1075.57 820.338 1293.31 613.197 1307.45" stroke="url(#paint21_linear_698_12139)"/>
<path opacity="0.92" d="M1198.38 253.102C1161.29 270.895 1098.64 330.87 1144.78 428.425C1202.46 550.37 1169.14 611.846 1070.77 670.509C972.393 729.173 825.605 482.203 683.852 622.706C542.098 763.21 604.3 972.431 734.436 1022.77C864.573 1073.1 839.518 1290.97 632.693 1308.61" stroke="url(#paint22_linear_698_12139)"/>
<path opacity="0.96" d="M1198.83 246.008C1162.06 264.402 1100.5 325.343 1148.38 421.953C1208.22 542.716 1176.01 604.657 1078.71 664.896C981.415 725.134 830.253 481.067 691.052 623.747C551.851 766.428 617.776 974.246 748.776 1022.29C879.776 1070.33 858.624 1288.27 652.173 1309.39" stroke="url(#paint23_linear_698_12139)"/>
<path d="M1199.15 238.881C1162.73 257.87 1102.27 319.756 1151.86 415.391C1213.84 534.934 1182.75 597.32 1086.55 659.113C990.355 720.907 834.874 479.819 698.259 624.631C561.644 769.442 631.262 975.792 763.085 1021.52C894.908 1067.25 877.653 1285.19 671.635 1309.79" stroke="url(#paint24_linear_698_12139)"/>
</g>
<defs>
<linearGradient id="paint0_linear_698_12139" x1="451.861" y1="606.175" x2="825.351" y2="908.621" gradientUnits="userSpaceOnUse">
<stop stop-color="#0C6F97"/>
<stop offset="1" stop-color="#0C6F97" stop-opacity="0"/>
</linearGradient>
<linearGradient id="paint1_linear_698_12139" x1="459.138" y1="611.928" x2="837.85" y2="907.81" gradientUnits="userSpaceOnUse">
<stop stop-color="#0C6F97"/>
<stop offset="1" stop-color="#0C6F97" stop-opacity="0"/>
</linearGradient>
<linearGradient id="paint2_linear_698_12139" x1="466.502" y1="617.512" x2="850.319" y2="906.739" gradientUnits="userSpaceOnUse">
<stop stop-color="#0C6F97"/>
<stop offset="1" stop-color="#0C6F97" stop-opacity="0"/>
</linearGradient>
<linearGradient id="paint3_linear_698_12139" x1="473.949" y1="622.929" x2="862.756" y2="905.413" gradientUnits="userSpaceOnUse">
<stop stop-color="#0C6F97"/>
<stop offset="1" stop-color="#0C6F97" stop-opacity="0"/>
</linearGradient>
<linearGradient id="paint4_linear_698_12139" x1="481.48" y1="628.178" x2="875.157" y2="903.834" gradientUnits="userSpaceOnUse">
<stop stop-color="#0C6F97"/>
<stop offset="1" stop-color="#0C6F97" stop-opacity="0"/>
</linearGradient>
<linearGradient id="paint5_linear_698_12139" x1="489.089" y1="633.257" x2="887.517" y2="902" gradientUnits="userSpaceOnUse">
<stop stop-color="#0C6F97"/>
<stop offset="1" stop-color="#0C6F97" stop-opacity="0"/>
</linearGradient>
<linearGradient id="paint6_linear_698_12139" x1="496.771" y1="638.164" x2="899.829" y2="899.913" gradientUnits="userSpaceOnUse">
<stop stop-color="#0C6F97"/>
<stop offset="1" stop-color="#0C6F97" stop-opacity="0"/>
</linearGradient>
<linearGradient id="paint7_linear_698_12139" x1="504.527" y1="642.899" x2="912.092" y2="897.574" gradientUnits="userSpaceOnUse">
<stop stop-color="#0C6F97"/>
<stop offset="1" stop-color="#0C6F97" stop-opacity="0"/>
</linearGradient>
<linearGradient id="paint8_linear_698_12139" x1="512.35" y1="647.46" x2="924.298" y2="894.983" gradientUnits="userSpaceOnUse">
<stop stop-color="#0C6F97"/>
<stop offset="1" stop-color="#0C6F97" stop-opacity="0"/>
</linearGradient>
<linearGradient id="paint9_linear_698_12139" x1="520.239" y1="651.849" x2="936.443" y2="892.145" gradientUnits="userSpaceOnUse">
<stop stop-color="#0C6F97"/>
<stop offset="1" stop-color="#0C6F97" stop-opacity="0"/>
</linearGradient>
<linearGradient id="paint10_linear_698_12139" x1="528.19" y1="656.061" x2="948.525" y2="889.057" gradientUnits="userSpaceOnUse">
<stop stop-color="#0C6F97"/>
<stop offset="1" stop-color="#0C6F97" stop-opacity="0"/>
</linearGradient>
<linearGradient id="paint11_linear_698_12139" x1="536.202" y1="660.099" x2="960.539" y2="885.723" gradientUnits="userSpaceOnUse">
<stop stop-color="#0C6F97"/>
<stop offset="1" stop-color="#0C6F97" stop-opacity="0"/>
</linearGradient>
<linearGradient id="paint12_linear_698_12139" x1="544.27" y1="663.96" x2="972.481" y2="882.144" gradientUnits="userSpaceOnUse">
<stop stop-color="#0C6F97"/>
<stop offset="1" stop-color="#0C6F97" stop-opacity="0"/>
</linearGradient>
<linearGradient id="paint13_linear_698_12139" x1="552.387" y1="667.642" x2="984.34" y2="878.32" gradientUnits="userSpaceOnUse">
<stop stop-color="#0C6F97"/>
<stop offset="1" stop-color="#0C6F97" stop-opacity="0"/>
</linearGradient>
<linearGradient id="paint14_linear_698_12139" x1="560.558" y1="671.148" x2="996.122" y2="874.255" gradientUnits="userSpaceOnUse">
<stop stop-color="#0C6F97"/>
<stop offset="1" stop-color="#0C6F97" stop-opacity="0"/>
</linearGradient>
<linearGradient id="paint15_linear_698_12139" x1="568.775" y1="674.476" x2="1007.82" y2="869.95" gradientUnits="userSpaceOnUse">
<stop stop-color="#0C6F97"/>
<stop offset="1" stop-color="#0C6F97" stop-opacity="0"/>
</linearGradient>
<linearGradient id="paint16_linear_698_12139" x1="577.032" y1="677.624" x2="1019.42" y2="865.406" gradientUnits="userSpaceOnUse">
<stop stop-color="#0C6F97"/>
<stop offset="1" stop-color="#0C6F97" stop-opacity="0"/>
</linearGradient>
<linearGradient id="paint17_linear_698_12139" x1="585.332" y1="680.593" x2="1030.93" y2="860.626" gradientUnits="userSpaceOnUse">
<stop stop-color="#0C6F97"/>
<stop offset="1" stop-color="#0C6F97" stop-opacity="0"/>
</linearGradient>
<linearGradient id="paint18_linear_698_12139" x1="593.667" y1="683.382" x2="1042.34" y2="855.61" gradientUnits="userSpaceOnUse">
<stop stop-color="#0C6F97"/>
<stop offset="1" stop-color="#0C6F97" stop-opacity="0"/>
</linearGradient>
<linearGradient id="paint19_linear_698_12139" x1="602.036" y1="685.991" x2="1053.64" y2="850.363" gradientUnits="userSpaceOnUse">
<stop stop-color="#0C6F97"/>
<stop offset="1" stop-color="#0C6F97" stop-opacity="0"/>
</linearGradient>
<linearGradient id="paint20_linear_698_12139" x1="610.434" y1="688.421" x2="1064.84" y2="844.886" gradientUnits="userSpaceOnUse">
<stop stop-color="#0C6F97"/>
<stop offset="1" stop-color="#0C6F97" stop-opacity="0"/>
</linearGradient>
<linearGradient id="paint21_linear_698_12139" x1="618.859" y1="690.668" x2="1075.93" y2="839.179" gradientUnits="userSpaceOnUse">
<stop stop-color="#0C6F97"/>
<stop offset="1" stop-color="#0C6F97" stop-opacity="0"/>
</linearGradient>
<linearGradient id="paint22_linear_698_12139" x1="627.309" y1="692.736" x2="1086.9" y2="833.247" gradientUnits="userSpaceOnUse">
<stop stop-color="#0C6F97"/>
<stop offset="1" stop-color="#0C6F97" stop-opacity="0"/>
</linearGradient>
<linearGradient id="paint23_linear_698_12139" x1="635.777" y1="694.622" x2="1097.75" y2="827.091" gradientUnits="userSpaceOnUse">
<stop stop-color="#0C6F97"/>
<stop offset="1" stop-color="#0C6F97" stop-opacity="0"/>
</linearGradient>
<linearGradient id="paint24_linear_698_12139" x1="644.265" y1="696.328" x2="1108.48" y2="820.714" gradientUnits="userSpaceOnUse">
<stop stop-color="#0C6F97"/>
<stop offset="1" stop-color="#0C6F97" stop-opacity="0"/>
</linearGradient>
</defs>
</svg>
