<svg width="1211" height="1380" viewBox="0 0 1211 1380" fill="none" xmlns="http://www.w3.org/2000/svg">
<path d="M1387.4 532.875C1100.64 1080.84 889.95 622.645 711.683 505.642C376.29 285.513 302.992 545.237 298.965 692.205C293.143 745.941 239.846 828.175 73.2372 727.229" stroke="url(#paint0_linear_698_11915)"/>
<path d="M1381.38 542.674C1094.62 1090.64 883.931 632.443 705.663 515.441C370.27 295.311 296.973 555.035 292.946 702.004C287.123 755.739 233.826 837.974 67.2176 737.027" stroke="url(#paint1_linear_698_11915)"/>
<path d="M1375.36 552.472C1088.6 1100.44 877.911 642.242 699.644 525.239C364.251 305.11 290.953 564.834 286.926 711.803C281.104 765.538 227.807 847.772 61.1981 746.826" stroke="url(#paint2_linear_698_11915)"/>
<path d="M1369.34 562.271C1082.58 1110.24 871.89 652.041 693.623 535.038C358.23 314.909 284.933 574.633 280.906 721.601C275.083 775.337 221.786 857.571 55.1776 756.625" stroke="url(#paint3_linear_698_11915)"/>
<path d="M1363.32 572.07C1076.56 1120.03 865.871 661.839 687.604 544.837C352.211 324.707 278.913 584.431 274.886 731.4C269.064 785.135 215.767 867.37 49.1581 766.423" stroke="url(#paint4_linear_698_11915)"/>
<path d="M1357.3 581.868C1070.54 1129.83 859.851 671.638 681.584 554.635C346.191 334.506 272.894 594.23 268.867 741.199C263.044 794.934 209.747 877.168 43.1385 776.222" stroke="url(#paint5_linear_698_11915)"/>
<path d="M1351.28 591.667C1064.52 1139.63 853.832 681.436 675.565 564.434C340.172 344.304 266.874 604.028 262.847 750.997C257.025 804.732 203.727 886.967 37.119 786.021" stroke="url(#paint6_linear_698_11915)"/>
<path d="M1345.26 601.465C1058.5 1149.43 847.812 691.235 669.545 574.232C334.152 354.103 260.855 613.827 256.828 760.796C251.005 814.531 197.708 896.765 31.0995 795.819" stroke="url(#paint7_linear_698_11915)"/>
<path d="M1339.24 611.264C1052.48 1159.23 841.793 701.034 663.525 584.031C328.133 363.902 254.835 623.626 250.808 770.595C244.986 824.33 191.688 906.564 25.08 805.618" stroke="url(#paint8_linear_698_11915)"/>
<path d="M1333.22 621.063C1046.46 1169.03 835.772 710.832 657.505 593.83C322.112 373.7 248.814 633.424 244.788 780.393C238.965 834.128 185.668 916.363 19.0594 815.417" stroke="url(#paint9_linear_698_11915)"/>
<path d="M1327.2 630.861C1040.44 1178.83 829.753 720.631 651.485 603.628C316.092 383.499 242.795 643.223 238.768 790.192C232.946 843.927 179.648 926.161 13.0399 825.215" stroke="url(#paint10_linear_698_11915)"/>
<path d="M1321.18 640.66C1034.42 1188.62 823.733 730.43 645.466 613.427C310.073 393.298 236.775 653.022 232.748 799.99C226.926 853.726 173.629 935.96 7.02038 835.014" stroke="url(#paint11_linear_698_11915)"/>
<path d="M1315.16 650.458C1028.4 1198.42 817.714 740.228 639.446 623.226C304.053 403.096 230.756 662.82 226.729 809.789C220.906 863.524 167.609 945.758 1.00085 844.812" stroke="url(#paint12_linear_698_11915)"/>
<defs>
<linearGradient id="paint0_linear_698_11915" x1="269.498" y1="742.762" x2="802.707" y2="1167.71" gradientUnits="userSpaceOnUse">
<stop stop-color="#0C6F97" stop-opacity="0.03"/>
<stop offset="0.25" stop-color="#0C6F97" stop-opacity="0.15"/>
<stop offset="0.544311" stop-color="#0C6F97" stop-opacity="0.03"/>
<stop offset="1" stop-color="#0C6F97" stop-opacity="0.04"/>
</linearGradient>
<linearGradient id="paint1_linear_698_11915" x1="263.478" y1="752.56" x2="796.687" y2="1177.5" gradientUnits="userSpaceOnUse">
<stop stop-color="#0C6F97" stop-opacity="0.03"/>
<stop offset="0.25" stop-color="#0C6F97" stop-opacity="0.15"/>
<stop offset="0.544311" stop-color="#0C6F97" stop-opacity="0.03"/>
<stop offset="1" stop-color="#0C6F97" stop-opacity="0.04"/>
</linearGradient>
<linearGradient id="paint2_linear_698_11915" x1="257.459" y1="762.359" x2="790.668" y2="1187.3" gradientUnits="userSpaceOnUse">
<stop stop-color="#0C6F97" stop-opacity="0.03"/>
<stop offset="0.25" stop-color="#0C6F97" stop-opacity="0.15"/>
<stop offset="0.544311" stop-color="#0C6F97" stop-opacity="0.03"/>
<stop offset="1" stop-color="#0C6F97" stop-opacity="0.04"/>
</linearGradient>
<linearGradient id="paint3_linear_698_11915" x1="251.438" y1="772.158" x2="784.647" y2="1197.1" gradientUnits="userSpaceOnUse">
<stop stop-color="#0C6F97" stop-opacity="0.03"/>
<stop offset="0.25" stop-color="#0C6F97" stop-opacity="0.15"/>
<stop offset="0.544311" stop-color="#0C6F97" stop-opacity="0.03"/>
<stop offset="1" stop-color="#0C6F97" stop-opacity="0.04"/>
</linearGradient>
<linearGradient id="paint4_linear_698_11915" x1="245.419" y1="781.956" x2="778.628" y2="1206.9" gradientUnits="userSpaceOnUse">
<stop stop-color="#0C6F97" stop-opacity="0.03"/>
<stop offset="0.25" stop-color="#0C6F97" stop-opacity="0.15"/>
<stop offset="0.544311" stop-color="#0C6F97" stop-opacity="0.03"/>
<stop offset="1" stop-color="#0C6F97" stop-opacity="0.04"/>
</linearGradient>
<linearGradient id="paint5_linear_698_11915" x1="239.399" y1="791.755" x2="772.608" y2="1216.7" gradientUnits="userSpaceOnUse">
<stop stop-color="#0C6F97" stop-opacity="0.03"/>
<stop offset="0.25" stop-color="#0C6F97" stop-opacity="0.15"/>
<stop offset="0.544311" stop-color="#0C6F97" stop-opacity="0.03"/>
<stop offset="1" stop-color="#0C6F97" stop-opacity="0.04"/>
</linearGradient>
<linearGradient id="paint6_linear_698_11915" x1="233.38" y1="801.553" x2="766.589" y2="1226.5" gradientUnits="userSpaceOnUse">
<stop stop-color="#0C6F97" stop-opacity="0.03"/>
<stop offset="0.25" stop-color="#0C6F97" stop-opacity="0.15"/>
<stop offset="0.544311" stop-color="#0C6F97" stop-opacity="0.03"/>
<stop offset="1" stop-color="#0C6F97" stop-opacity="0.04"/>
</linearGradient>
<linearGradient id="paint7_linear_698_11915" x1="227.36" y1="811.352" x2="760.569" y2="1236.3" gradientUnits="userSpaceOnUse">
<stop stop-color="#0C6F97" stop-opacity="0.03"/>
<stop offset="0.25" stop-color="#0C6F97" stop-opacity="0.15"/>
<stop offset="0.544311" stop-color="#0C6F97" stop-opacity="0.03"/>
<stop offset="1" stop-color="#0C6F97" stop-opacity="0.04"/>
</linearGradient>
<linearGradient id="paint8_linear_698_11915" x1="221.341" y1="821.151" x2="754.549" y2="1246.1" gradientUnits="userSpaceOnUse">
<stop stop-color="#0C6F97" stop-opacity="0.03"/>
<stop offset="0.25" stop-color="#0C6F97" stop-opacity="0.15"/>
<stop offset="0.544311" stop-color="#0C6F97" stop-opacity="0.03"/>
<stop offset="1" stop-color="#0C6F97" stop-opacity="0.04"/>
</linearGradient>
<linearGradient id="paint9_linear_698_11915" x1="215.32" y1="830.949" x2="748.529" y2="1255.89" gradientUnits="userSpaceOnUse">
<stop stop-color="#0C6F97" stop-opacity="0.03"/>
<stop offset="0.25" stop-color="#0C6F97" stop-opacity="0.15"/>
<stop offset="0.544311" stop-color="#0C6F97" stop-opacity="0.03"/>
<stop offset="1" stop-color="#0C6F97" stop-opacity="0.04"/>
</linearGradient>
<linearGradient id="paint10_linear_698_11915" x1="209.301" y1="840.748" x2="742.509" y2="1265.69" gradientUnits="userSpaceOnUse">
<stop stop-color="#0C6F97" stop-opacity="0.03"/>
<stop offset="0.25" stop-color="#0C6F97" stop-opacity="0.15"/>
<stop offset="0.544311" stop-color="#0C6F97" stop-opacity="0.03"/>
<stop offset="1" stop-color="#0C6F97" stop-opacity="0.04"/>
</linearGradient>
<linearGradient id="paint11_linear_698_11915" x1="203.281" y1="850.547" x2="736.49" y2="1275.49" gradientUnits="userSpaceOnUse">
<stop stop-color="#0C6F97" stop-opacity="0.03"/>
<stop offset="0.25" stop-color="#0C6F97" stop-opacity="0.15"/>
<stop offset="0.544311" stop-color="#0C6F97" stop-opacity="0.03"/>
<stop offset="1" stop-color="#0C6F97" stop-opacity="0.04"/>
</linearGradient>
<linearGradient id="paint12_linear_698_11915" x1="197.262" y1="860.345" x2="730.47" y2="1285.29" gradientUnits="userSpaceOnUse">
<stop stop-color="#0C6F97" stop-opacity="0.03"/>
<stop offset="0.25" stop-color="#0C6F97" stop-opacity="0.15"/>
<stop offset="0.544311" stop-color="#0C6F97" stop-opacity="0.03"/>
<stop offset="1" stop-color="#0C6F97" stop-opacity="0.04"/>
</linearGradient>
</defs>
</svg>
