<?xml version="1.0" encoding="utf-8"?>
<!-- Generator: Adobe Illustrator 23.1.0, SVG Export Plug-In . SVG Version: 6.00 Build 0)  -->
<svg version="1.1" id="Слой_1" xmlns="http://www.w3.org/2000/svg" xmlns:xlink="http://www.w3.org/1999/xlink" x="0px" y="0px"
	 viewBox="0 0 1920 191.6" style="enable-background:new 0 0 1920 191.6;" xml:space="preserve">
<style type="text/css">
	.st0{fill-rule:evenodd;clip-rule:evenodd;fill:#E9E4DC;}
	.st1{fill:none;stroke:#B69970;stroke-width:2;}
	.st2{fill-rule:evenodd;clip-rule:evenodd;fill:#FFFFFF;}
</style>
<path class="st0" d="M2192.8-897.2c-200.3-17.5-842.4-72.7-1203.9-10.2C524.7-827.1,69.1-846.1-22-897.2v52.8h-9v961.1l14,11.5
	c184.7,23,702.6,57.2,1036-24.8C1447-1.9,1867,23,1951,90v-852.1l106.2-2.2L2182-805l26-83.4L2192.8-897.2z"/>
<path class="st1" d="M-58-871.2c83.3,48.2,548,45.2,975.5-11.1c363.5-47.9,867.4-5.4,1050.6,11.1l13.9,8.3"/>
<path class="st2" d="M-2.5,77.6c94.7,15.4,274.8,37.3,474.6,46.8c199.9,9.5,419.4,6.7,592.5-27.1c222.4-43.4,441.5-54.4,615.6-45.7
	c87,4.4,162.8,13.6,222.1,26.2c29.6,6.3,55.2,13.4,75.9,21.2c20.8,7.8,36.8,16.2,47.4,25.2l-1.3,1.5c-10.4-8.7-26.2-17.1-46.8-24.8
	c-20.6-7.7-46.1-14.9-75.7-21.1C1842.6,67.2,1767,57.9,1680,53.6c-173.9-8.7-392.8,2.3-615.1,45.7c-173.3,33.9-393,36.6-593,27.1
	C272,116.9,91.6,95-3.1,79.5l-0.3,0l-0.2-0.2l-14-12.1l1.3-1.5L-2.5,77.6z"/>
</svg>
