<svg width="917" height="1060" viewBox="0 0 917 1060" fill="none" xmlns="http://www.w3.org/2000/svg">
<g opacity="0.26">
<path opacity="0.04" d="M181.594 206.077C214 232.516 297.055 264.796 370.023 182.415C461.234 79.4376 533.399 84.369 630.204 149.741C727.01 215.114 554.865 450.982 747.332 522.034C939.799 593.087 1111.71 449.896 1104.74 310.512C1097.77 171.128 1314.49 103.861 1417.98 285.009" stroke="url(#paint0_linear_698_11393)"/>
<path opacity="0.08" d="M175.468 208.248C208.286 234.123 291.77 264.967 363.16 181.343C452.399 76.8124 524.528 80.4995 622.323 144.192C720.118 207.885 552.427 446.677 745.822 514.4C939.216 582.123 1108.31 435.996 1098.89 296.757C1089.47 157.518 1304.64 86.5287 1411.15 265.861" stroke="url(#paint1_linear_698_11393)"/>
<path opacity="0.12" d="M169.363 210.547C202.582 235.852 286.47 265.254 356.262 180.417C443.502 74.3717 515.574 76.8172 614.329 138.815C713.084 200.813 549.897 442.445 744.161 506.829C938.425 571.212 1104.65 422.204 1092.79 283.153C1080.92 144.102 1294.47 69.4241 1403.97 246.891" stroke="url(#paint2_linear_698_11393)"/>
<path opacity="0.16" d="M163.278 212.971C196.889 237.701 281.155 265.656 349.328 179.637C434.544 72.1135 506.538 73.3204 606.224 133.61C705.909 193.899 547.275 438.287 742.351 499.321C937.426 560.355 1100.74 408.52 1086.43 269.7C1072.12 130.88 1283.99 52.5494 1396.44 228.1" stroke="url(#paint3_linear_698_11393)"/>
<path opacity="0.2" d="M157.213 215.518C191.206 239.667 275.826 266.171 342.36 179C425.527 70.0374 497.421 70.0093 598.008 128.577C698.595 187.144 544.559 434.202 740.389 491.878C936.219 549.553 1096.56 394.949 1079.82 256.403C1063.08 117.857 1273.2 35.9084 1388.57 209.494" stroke="url(#paint4_linear_698_11393)"/>
<path opacity="0.24" d="M151.173 218.19C185.538 241.751 270.487 266.8 335.362 178.51C416.455 68.146 488.229 66.8868 589.688 123.719C691.147 180.551 541.754 430.193 738.28 484.503C934.807 538.812 1092.14 381.495 1072.96 243.266C1053.79 105.037 1262.1 19.5079 1380.37 191.08" stroke="url(#paint5_linear_698_11393)"/>
<path opacity="0.28" d="M145.161 220.989C179.888 243.957 265.142 267.547 328.339 178.167C407.336 66.4425 478.968 63.9562 581.268 119.04C683.568 174.125 538.862 426.265 736.028 477.201C933.193 528.138 1087.47 368.166 1065.87 230.297C1044.27 92.4271 1250.71 3.35537 1371.83 172.866" stroke="url(#paint6_linear_698_11393)"/>
<path opacity="0.32" d="M139.177 223.909C174.256 246.279 259.788 268.408 321.29 177.971C398.167 64.9238 469.636 61.215 572.748 114.539C675.86 167.864 535.882 422.414 733.628 469.971C931.375 517.529 1082.54 354.962 1058.53 217.495C1034.51 80.0272 1239.03 -12.548 1362.97 154.854" stroke="url(#paint7_linear_698_11393)"/>
<path opacity="0.36" d="M133.226 226.955C168.645 248.721 254.432 269.386 314.22 177.923C388.956 63.5946 460.242 58.6683 564.135 110.221C668.029 161.774 532.818 418.646 731.088 462.82C929.357 506.994 1077.38 341.892 1050.95 204.868C1024.52 67.8452 1227.06 -28.1933 1353.77 137.053" stroke="url(#paint8_linear_698_11393)"/>
<path opacity="0.4" d="M127.308 230.123C163.058 251.28 249.074 270.479 307.132 178.023C379.705 62.4524 450.787 56.3138 555.431 106.084C660.075 155.854 529.671 414.959 728.406 455.746C927.141 496.533 1071.98 328.955 1043.14 192.418C1014.31 55.8818 1214.8 -43.579 1344.26 119.466" stroke="url(#paint9_linear_698_11393)"/>
<path opacity="0.44" d="M121.425 233.414C157.496 253.957 243.716 271.689 300.027 178.271C370.416 61.5 441.274 54.1547 546.638 102.132C652.003 150.109 526.442 411.357 725.585 448.754C924.728 486.151 1066.33 316.158 1035.11 180.151C1003.88 44.1429 1202.27 -58.698 1334.43 102.1" stroke="url(#paint10_linear_698_11393)"/>
<path opacity="0.48" d="M115.578 236.824C151.959 256.748 238.358 273.011 292.906 178.666C361.092 60.7347 431.705 52.1887 537.759 98.3628C643.814 144.537 523.131 407.839 722.623 441.844C922.116 475.849 1060.45 303.503 1026.84 168.066C993.227 32.629 1189.46 -73.5491 1324.29 84.9569" stroke="url(#paint11_linear_698_11393)"/>
<path opacity="0.52" d="M109.772 240.354C146.452 259.656 233.006 274.449 285.777 179.209C351.74 60.1588 422.087 50.4185 528.801 94.78C635.514 139.142 519.742 404.406 719.528 435.018C919.313 465.631 1054.34 290.994 1018.35 156.17C982.366 21.3454 1176.38 -88.1258 1313.84 68.0443" stroke="url(#paint12_linear_698_11393)"/>
<path opacity="0.56" d="M104.009 244.01C140.977 262.684 227.66 276.007 278.638 179.905C342.362 59.7777 412.423 48.8497 519.765 91.3897C627.106 133.93 516.277 401.066 716.297 428.285C916.317 455.505 1048 278.64 1009.65 144.471C971.298 10.3006 1163.04 -102.419 1303.09 51.372" stroke="url(#paint13_linear_698_11393)"/>
<path opacity="0.6" d="M98.2867 247.781C135.533 265.823 222.32 277.675 271.492 180.746C332.958 59.5833 402.714 47.4745 510.652 88.1847C618.591 128.895 512.735 397.811 712.932 421.639C913.129 445.467 1041.43 266.438 1000.72 132.964C960.024 -0.510381 1149.44 -116.432 1292.04 34.9366" stroke="url(#paint14_linear_698_11393)"/>
<path opacity="0.64" d="M92.6127 251.67C130.127 269.076 216.992 279.459 264.345 181.735C323.536 59.5795 392.966 46.2973 501.471 85.1696C609.976 124.042 509.121 394.645 709.438 415.084C909.755 435.523 1034.63 254.394 991.593 121.657C948.555 -11.0808 1135.6 -130.158 1280.69 18.7465" stroke="url(#paint15_linear_698_11393)"/>
<path opacity="0.68" d="M86.9847 255.679C124.755 272.446 211.675 281.359 257.196 182.875C314.096 59.7691 383.181 45.3211 492.221 82.3482C601.26 119.375 505.433 391.574 705.813 408.626C906.192 425.678 1027.62 242.514 982.253 110.555C936.889 -21.4048 1121.5 -143.59 1269.06 2.8093" stroke="url(#paint16_linear_698_11393)"/>
<path opacity="0.72" d="M81.4088 259.803C119.424 275.927 206.375 283.372 250.051 184.162C304.646 60.1481 373.366 44.5424 482.909 79.7175C592.452 114.893 501.677 388.593 702.062 402.263C902.448 415.933 1020.39 230.799 972.711 99.658C925.036 -31.4831 1107.17 -156.728 1257.14 -12.8743" stroke="url(#paint17_linear_698_11393)"/>
<path opacity="0.76" d="M75.8848 264.045C114.135 279.522 201.09 285.502 242.91 185.599C295.185 60.721 363.522 43.9658 473.537 77.2825C583.551 110.599 497.852 385.708 698.186 396.001C898.52 406.293 1012.94 219.255 962.97 88.9733C912.999 -41.3087 1092.6 -169.563 1244.94 -28.2957" stroke="url(#paint18_linear_698_11393)"/>
<path opacity="0.8" d="M70.4129 268.4C108.887 283.228 195.822 287.743 235.776 187.183C285.717 61.4832 353.651 43.5871 464.106 75.0398C574.561 106.492 493.959 382.916 694.185 389.837C894.411 396.758 1005.28 207.883 953.033 78.4998C900.78 -50.8831 1077.8 -182.098 1232.47 -43.4547" stroke="url(#paint19_linear_698_11393)"/>
<path opacity="0.84" d="M64.9991 272.871C103.685 287.045 190.577 290.099 228.653 188.916C276.249 62.4382 343.76 43.4103 454.625 72.9936C565.489 102.577 490.004 380.222 690.065 383.778C890.126 387.334 997.423 196.688 942.906 68.2439C888.389 -60.1998 1062.78 -194.323 1219.74 -58.3434" stroke="url(#paint20_linear_698_11393)"/>
<path opacity="0.88" d="M59.6434 277.455C98.531 290.974 185.354 292.569 221.544 190.799C266.782 63.5858 333.852 43.4353 445.094 71.1445C556.336 98.8538 485.985 377.625 685.825 377.824C885.666 378.024 989.357 185.674 932.592 58.2087C875.827 -69.2562 1047.54 -206.237 1206.74 -72.9574" stroke="url(#paint21_linear_698_11393)"/>
<path opacity="0.92" d="M54.3457 282.15C93.4236 295.01 180.153 295.15 214.448 192.827C257.317 64.923 323.928 43.6594 435.516 69.4904C547.103 95.3214 481.904 375.124 681.467 371.976C881.03 368.827 981.089 174.841 922.094 48.3942C863.099 -78.0526 1032.09 -217.838 1193.47 -87.2957" stroke="url(#paint22_linear_698_11393)"/>
<path opacity="0.96" d="M49.112 286.958C88.3691 299.157 174.981 297.845 207.373 195.004C247.862 66.4533 313.995 44.0866 425.897 68.0357C537.799 91.9848 477.765 372.725 676.995 366.238C876.225 359.751 972.627 164.197 911.42 38.8071C850.213 -86.5826 1016.43 -229.119 1179.96 -101.35" stroke="url(#paint23_linear_698_11393)"/>
<path d="M43.9402 291.873C83.3654 303.409 169.836 300.649 200.316 197.326C238.417 68.1728 304.054 44.7131 416.238 66.7771C528.423 88.8412 473.567 370.423 672.408 360.608C871.249 350.793 963.97 153.74 900.57 29.4466C837.17 -94.8473 1000.57 -240.081 1166.2 -115.12" stroke="url(#paint24_linear_698_11393)"/>
</g>
<defs>
<linearGradient id="paint0_linear_698_11393" x1="837.34" y1="544.593" x2="777.458" y2="67.7465" gradientUnits="userSpaceOnUse">
<stop stop-color="#0C6F97"/>
<stop offset="1" stop-color="#0C6F97" stop-opacity="0"/>
</linearGradient>
<linearGradient id="paint1_linear_698_11393" x1="836.075" y1="535.403" x2="767.88" y2="59.6747" gradientUnits="userSpaceOnUse">
<stop stop-color="#0C6F97"/>
<stop offset="1" stop-color="#0C6F97" stop-opacity="0"/>
</linearGradient>
<linearGradient id="paint2_linear_698_11393" x1="834.633" y1="526.276" x2="758.146" y2="51.8096" gradientUnits="userSpaceOnUse">
<stop stop-color="#0C6F97"/>
<stop offset="1" stop-color="#0C6F97" stop-opacity="0"/>
</linearGradient>
<linearGradient id="paint3_linear_698_11393" x1="833.014" y1="517.21" x2="748.258" y2="44.151" gradientUnits="userSpaceOnUse">
<stop stop-color="#0C6F97"/>
<stop offset="1" stop-color="#0C6F97" stop-opacity="0"/>
</linearGradient>
<linearGradient id="paint4_linear_698_11393" x1="831.217" y1="508.208" x2="738.218" y2="36.7001" gradientUnits="userSpaceOnUse">
<stop stop-color="#0C6F97"/>
<stop offset="1" stop-color="#0C6F97" stop-opacity="0"/>
</linearGradient>
<linearGradient id="paint5_linear_698_11393" x1="829.247" y1="499.274" x2="728.033" y2="29.4611" gradientUnits="userSpaceOnUse">
<stop stop-color="#0C6F97"/>
<stop offset="1" stop-color="#0C6F97" stop-opacity="0"/>
</linearGradient>
<linearGradient id="paint6_linear_698_11393" x1="827.105" y1="490.413" x2="717.707" y2="22.4386" gradientUnits="userSpaceOnUse">
<stop stop-color="#0C6F97"/>
<stop offset="1" stop-color="#0C6F97" stop-opacity="0"/>
</linearGradient>
<linearGradient id="paint7_linear_698_11393" x1="824.791" y1="481.625" x2="707.242" y2="15.6312" gradientUnits="userSpaceOnUse">
<stop stop-color="#0C6F97"/>
<stop offset="1" stop-color="#0C6F97" stop-opacity="0"/>
</linearGradient>
<linearGradient id="paint8_linear_698_11393" x1="822.308" y1="472.917" x2="696.645" y2="9.04511" gradientUnits="userSpaceOnUse">
<stop stop-color="#0C6F97"/>
<stop offset="1" stop-color="#0C6F97" stop-opacity="0"/>
</linearGradient>
<linearGradient id="paint9_linear_698_11393" x1="819.658" y1="464.287" x2="685.918" y2="2.67934" gradientUnits="userSpaceOnUse">
<stop stop-color="#0C6F97"/>
<stop offset="1" stop-color="#0C6F97" stop-opacity="0"/>
</linearGradient>
<linearGradient id="paint10_linear_698_11393" x1="816.842" y1="455.742" x2="675.066" y2="-3.4618" gradientUnits="userSpaceOnUse">
<stop stop-color="#0C6F97"/>
<stop offset="1" stop-color="#0C6F97" stop-opacity="0"/>
</linearGradient>
<linearGradient id="paint11_linear_698_11393" x1="813.859" y1="447.28" x2="664.091" y2="-9.3795" gradientUnits="userSpaceOnUse">
<stop stop-color="#0C6F97"/>
<stop offset="1" stop-color="#0C6F97" stop-opacity="0"/>
</linearGradient>
<linearGradient id="paint12_linear_698_11393" x1="810.716" y1="438.906" x2="653" y2="-15.0699" gradientUnits="userSpaceOnUse">
<stop stop-color="#0C6F97"/>
<stop offset="1" stop-color="#0C6F97" stop-opacity="0"/>
</linearGradient>
<linearGradient id="paint13_linear_698_11393" x1="807.412" y1="430.628" x2="641.797" y2="-20.5263" gradientUnits="userSpaceOnUse">
<stop stop-color="#0C6F97"/>
<stop offset="1" stop-color="#0C6F97" stop-opacity="0"/>
</linearGradient>
<linearGradient id="paint14_linear_698_11393" x1="803.947" y1="422.44" x2="630.484" y2="-25.7553" gradientUnits="userSpaceOnUse">
<stop stop-color="#0C6F97"/>
<stop offset="1" stop-color="#0C6F97" stop-opacity="0"/>
</linearGradient>
<linearGradient id="paint15_linear_698_11393" x1="800.326" y1="414.348" x2="619.068" y2="-30.7515" gradientUnits="userSpaceOnUse">
<stop stop-color="#0C6F97"/>
<stop offset="1" stop-color="#0C6F97" stop-opacity="0"/>
</linearGradient>
<linearGradient id="paint16_linear_698_11393" x1="796.549" y1="406.358" x2="607.55" y2="-35.5109" gradientUnits="userSpaceOnUse">
<stop stop-color="#0C6F97"/>
<stop offset="1" stop-color="#0C6F97" stop-opacity="0"/>
</linearGradient>
<linearGradient id="paint17_linear_698_11393" x1="792.621" y1="398.467" x2="595.939" y2="-40.0358" gradientUnits="userSpaceOnUse">
<stop stop-color="#0C6F97"/>
<stop offset="1" stop-color="#0C6F97" stop-opacity="0"/>
</linearGradient>
<linearGradient id="paint18_linear_698_11393" x1="788.542" y1="390.683" x2="584.237" y2="-44.3205" gradientUnits="userSpaceOnUse">
<stop stop-color="#0C6F97"/>
<stop offset="1" stop-color="#0C6F97" stop-opacity="0"/>
</linearGradient>
<linearGradient id="paint19_linear_698_11393" x1="784.313" y1="383.003" x2="572.447" y2="-48.3683" gradientUnits="userSpaceOnUse">
<stop stop-color="#0C6F97"/>
<stop offset="1" stop-color="#0C6F97" stop-opacity="0"/>
</linearGradient>
<linearGradient id="paint20_linear_698_11393" x1="779.938" y1="375.434" x2="560.576" y2="-52.1742" gradientUnits="userSpaceOnUse">
<stop stop-color="#0C6F97"/>
<stop offset="1" stop-color="#0C6F97" stop-opacity="0"/>
</linearGradient>
<linearGradient id="paint21_linear_698_11393" x1="775.419" y1="367.977" x2="548.628" y2="-55.7372" gradientUnits="userSpaceOnUse">
<stop stop-color="#0C6F97"/>
<stop offset="1" stop-color="#0C6F97" stop-opacity="0"/>
</linearGradient>
<linearGradient id="paint22_linear_698_11393" x1="770.756" y1="360.633" x2="536.605" y2="-59.0591" gradientUnits="userSpaceOnUse">
<stop stop-color="#0C6F97"/>
<stop offset="1" stop-color="#0C6F97" stop-opacity="0"/>
</linearGradient>
<linearGradient id="paint23_linear_698_11393" x1="765.955" y1="353.407" x2="524.515" y2="-62.1349" gradientUnits="userSpaceOnUse">
<stop stop-color="#0C6F97"/>
<stop offset="1" stop-color="#0C6F97" stop-opacity="0"/>
</linearGradient>
<linearGradient id="paint24_linear_698_11393" x1="761.014" y1="346.297" x2="512.358" y2="-64.9674" gradientUnits="userSpaceOnUse">
<stop stop-color="#0C6F97"/>
<stop offset="1" stop-color="#0C6F97" stop-opacity="0"/>
</linearGradient>
</defs>
</svg>
