<svg width="490" height="1156" viewBox="0 0 490 1156" fill="none" xmlns="http://www.w3.org/2000/svg">
<path d="M-192.755 172.279C-189.879 106.794 1.88596 -52.878 116.225 136.396C230.565 325.671 -90.7839 305.019 -53.7362 511.389C-16.6885 717.759 361.074 733.656 348.097 964.316" stroke="url(#paint0_linear_698_11966)"/>
<path d="M-188.856 181.788C-185.981 116.303 5.7844 -43.3688 120.124 145.906C234.463 335.18 -86.8855 314.529 -49.8378 520.898C-12.7901 727.268 364.972 743.165 351.996 973.825" stroke="url(#paint1_linear_698_11966)"/>
<path d="M-184.958 191.297C-182.082 125.812 9.68284 -33.8595 124.022 155.415C238.361 344.689 -82.987 324.038 -45.9393 530.408C-8.89166 736.777 368.871 752.675 355.894 983.335" stroke="url(#paint2_linear_698_11966)"/>
<path d="M-181.06 200.806C-178.184 135.322 13.5813 -24.3502 127.921 164.924C242.26 354.198 -79.0886 333.547 -42.0409 539.917C-4.99322 746.287 372.769 762.184 359.793 992.844" stroke="url(#paint3_linear_698_11966)"/>
<path d="M-177.161 210.316C-174.286 144.831 17.4797 -14.8408 131.819 174.434C246.158 363.708 -75.1901 343.057 -38.1425 549.426C-1.09479 755.796 376.667 771.693 363.691 1002.35" stroke="url(#paint4_linear_698_11966)"/>
<path d="M-173.263 219.825C-170.387 154.34 21.3782 -5.33152 135.717 183.943C250.057 373.217 -71.2917 352.566 -34.244 558.936C2.80365 765.305 380.566 781.203 367.59 1011.86" stroke="url(#paint5_linear_698_11966)"/>
<path d="M-169.365 229.334C-166.49 163.85 25.2756 4.17776 139.615 193.452C253.954 382.726 -67.3942 362.075 -30.3466 568.445C6.70111 774.815 384.463 790.712 371.487 1021.37" stroke="url(#paint6_linear_698_11966)"/>
<path d="M-165.467 238.844C-162.591 173.359 29.174 13.687 143.513 202.961C257.853 392.236 -63.4958 371.584 -26.4481 577.954C10.5995 784.324 388.362 800.221 375.385 1030.88" stroke="url(#paint7_linear_698_11966)"/>
<path d="M-161.568 248.353C-158.693 182.868 33.0725 23.1963 147.412 212.471C261.751 401.745 -59.5974 381.094 -22.5497 587.463C14.498 793.833 392.26 809.73 379.284 1040.39" stroke="url(#paint8_linear_698_11966)"/>
<path d="M-157.67 257.862C-154.794 192.378 36.9709 32.7056 151.31 221.98C265.65 411.254 -55.6989 390.603 -18.6513 596.973C18.3964 803.342 396.159 819.24 383.182 1049.9" stroke="url(#paint9_linear_698_11966)"/>
<path d="M-153.772 267.371C-150.896 201.887 40.8694 42.2149 155.209 231.489C269.548 420.764 -51.8005 400.112 -14.7528 606.482C22.2949 812.852 400.057 828.749 387.081 1059.41" stroke="url(#paint10_linear_698_11966)"/>
<path d="M-149.873 276.881C-146.997 211.396 44.7678 51.7243 159.107 240.999C273.446 430.273 -47.9021 409.622 -10.8544 615.991C26.1933 822.361 403.956 838.258 390.979 1068.92" stroke="url(#paint11_linear_698_11966)"/>
<path d="M-145.975 286.39C-143.099 220.905 48.6662 61.2335 163.006 250.508C277.345 439.782 -44.0036 419.131 -6.95594 625.501C30.0917 831.87 407.854 847.768 394.878 1078.43" stroke="url(#paint12_linear_698_11966)"/>
<defs>
<linearGradient id="paint0_linear_698_11966" x1="-98.3141" y1="75.74" x2="-245.824" y2="699.417" gradientUnits="userSpaceOnUse">
<stop stop-color="#0C6F97" stop-opacity="0.02"/>
<stop offset="0.276042" stop-color="#0C6F97" stop-opacity="0.14"/>
<stop offset="1" stop-color="#0C6F97" stop-opacity="0"/>
</linearGradient>
<linearGradient id="paint1_linear_698_11966" x1="-94.4156" y1="85.2493" x2="-241.926" y2="708.926" gradientUnits="userSpaceOnUse">
<stop stop-color="#0C6F97" stop-opacity="0.02"/>
<stop offset="0.276042" stop-color="#0C6F97" stop-opacity="0.14"/>
<stop offset="1" stop-color="#0C6F97" stop-opacity="0"/>
</linearGradient>
<linearGradient id="paint2_linear_698_11966" x1="-90.5172" y1="94.7585" x2="-238.028" y2="718.435" gradientUnits="userSpaceOnUse">
<stop stop-color="#0C6F97" stop-opacity="0.02"/>
<stop offset="0.276042" stop-color="#0C6F97" stop-opacity="0.14"/>
<stop offset="1" stop-color="#0C6F97" stop-opacity="0"/>
</linearGradient>
<linearGradient id="paint3_linear_698_11966" x1="-86.6187" y1="104.268" x2="-234.129" y2="727.945" gradientUnits="userSpaceOnUse">
<stop stop-color="#0C6F97" stop-opacity="0.02"/>
<stop offset="0.276042" stop-color="#0C6F97" stop-opacity="0.14"/>
<stop offset="1" stop-color="#0C6F97" stop-opacity="0"/>
</linearGradient>
<linearGradient id="paint4_linear_698_11966" x1="-82.7203" y1="113.777" x2="-230.231" y2="737.454" gradientUnits="userSpaceOnUse">
<stop stop-color="#0C6F97" stop-opacity="0.02"/>
<stop offset="0.276042" stop-color="#0C6F97" stop-opacity="0.14"/>
<stop offset="1" stop-color="#0C6F97" stop-opacity="0"/>
</linearGradient>
<linearGradient id="paint5_linear_698_11966" x1="-78.8219" y1="123.286" x2="-226.332" y2="746.963" gradientUnits="userSpaceOnUse">
<stop stop-color="#0C6F97" stop-opacity="0.02"/>
<stop offset="0.276042" stop-color="#0C6F97" stop-opacity="0.14"/>
<stop offset="1" stop-color="#0C6F97" stop-opacity="0"/>
</linearGradient>
<linearGradient id="paint6_linear_698_11966" x1="-74.9244" y1="132.796" x2="-222.435" y2="756.472" gradientUnits="userSpaceOnUse">
<stop stop-color="#0C6F97" stop-opacity="0.02"/>
<stop offset="0.276042" stop-color="#0C6F97" stop-opacity="0.14"/>
<stop offset="1" stop-color="#0C6F97" stop-opacity="0"/>
</linearGradient>
<linearGradient id="paint7_linear_698_11966" x1="-71.026" y1="142.305" x2="-218.536" y2="765.982" gradientUnits="userSpaceOnUse">
<stop stop-color="#0C6F97" stop-opacity="0.02"/>
<stop offset="0.276042" stop-color="#0C6F97" stop-opacity="0.14"/>
<stop offset="1" stop-color="#0C6F97" stop-opacity="0"/>
</linearGradient>
<linearGradient id="paint8_linear_698_11966" x1="-67.1275" y1="151.814" x2="-214.638" y2="775.491" gradientUnits="userSpaceOnUse">
<stop stop-color="#0C6F97" stop-opacity="0.02"/>
<stop offset="0.276042" stop-color="#0C6F97" stop-opacity="0.14"/>
<stop offset="1" stop-color="#0C6F97" stop-opacity="0"/>
</linearGradient>
<linearGradient id="paint9_linear_698_11966" x1="-63.2291" y1="161.324" x2="-210.739" y2="785" gradientUnits="userSpaceOnUse">
<stop stop-color="#0C6F97" stop-opacity="0.02"/>
<stop offset="0.276042" stop-color="#0C6F97" stop-opacity="0.14"/>
<stop offset="1" stop-color="#0C6F97" stop-opacity="0"/>
</linearGradient>
<linearGradient id="paint10_linear_698_11966" x1="-59.3307" y1="170.833" x2="-206.841" y2="794.51" gradientUnits="userSpaceOnUse">
<stop stop-color="#0C6F97" stop-opacity="0.02"/>
<stop offset="0.276042" stop-color="#0C6F97" stop-opacity="0.14"/>
<stop offset="1" stop-color="#0C6F97" stop-opacity="0"/>
</linearGradient>
<linearGradient id="paint11_linear_698_11966" x1="-55.4322" y1="180.342" x2="-202.943" y2="804.019" gradientUnits="userSpaceOnUse">
<stop stop-color="#0C6F97" stop-opacity="0.02"/>
<stop offset="0.276042" stop-color="#0C6F97" stop-opacity="0.14"/>
<stop offset="1" stop-color="#0C6F97" stop-opacity="0"/>
</linearGradient>
<linearGradient id="paint12_linear_698_11966" x1="-51.5338" y1="189.852" x2="-199.044" y2="813.528" gradientUnits="userSpaceOnUse">
<stop stop-color="#0C6F97" stop-opacity="0.02"/>
<stop offset="0.276042" stop-color="#0C6F97" stop-opacity="0.14"/>
<stop offset="1" stop-color="#0C6F97" stop-opacity="0"/>
</linearGradient>
</defs>
</svg>
