<svg width="870" height="1409" viewBox="0 0 870 1409" fill="none" xmlns="http://www.w3.org/2000/svg">
<g opacity="0.26">
<path opacity="0.04" d="M665.942 634.114C634.552 655.362 550.142 676.397 463.622 590.549C355.472 483.239 279.549 479.738 184.261 530.395C88.9732 581.053 297.723 822.696 101.696 867.905C-94.3303 913.115 -292.492 758.809 -300.661 628.283C-308.83 497.758 -545.998 409.92 -635.444 568.895" stroke="url(#paint0_linear_698_10805)"/>
<path opacity="0.08" d="M674.586 638.916C642.697 659.588 557.672 679.22 472.685 592.38C366.452 483.829 290.428 479.159 193.904 528.123C97.3798 577.086 301.736 820.981 104.355 862.949C-93.0258 904.917 -288.528 748.163 -294.087 618.051C-299.646 487.939 -535.582 396.77 -628.432 553.693" stroke="url(#paint1_linear_698_10805)"/>
<path opacity="0.12" d="M682.742 643.317C650.364 663.407 564.75 681.635 481.322 593.833C377.037 484.079 300.935 478.247 203.204 525.506C105.474 572.764 305.374 818.826 106.699 857.55C-91.9759 896.273 -284.76 737.128 -287.707 607.469C-290.654 477.811 -525.286 383.35 -621.512 538.177" stroke="url(#paint2_linear_698_10805)"/>
<path opacity="0.16" d="M690.891 647.834C658.033 667.337 571.857 684.16 490.012 595.427C387.707 484.51 311.55 477.519 212.642 523.063C113.735 568.607 309.118 816.751 109.209 852.227C-90.7002 887.704 -280.708 726.226 -281.042 597.06C-281.377 467.895 -514.634 370.182 -614.207 522.871" stroke="url(#paint3_linear_698_10805)"/>
<path opacity="0.2" d="M699.036 652.464C665.708 671.376 578.995 686.792 498.759 597.159C398.464 485.117 322.274 476.974 222.22 520.794C122.165 564.614 312.974 814.754 111.89 846.982C-89.1933 879.209 -276.367 715.457 -274.089 586.824C-271.811 458.192 -503.623 357.268 -606.513 507.776" stroke="url(#paint4_linear_698_10805)"/>
<path opacity="0.24" d="M707.164 657.214C673.377 675.531 586.152 689.539 507.549 599.038C409.296 485.911 333.096 476.622 231.924 518.708C130.752 560.795 316.929 812.846 114.732 841.823C-87.4659 870.801 -271.75 704.833 -266.86 576.774C-261.97 448.715 -492.268 344.621 -598.444 492.906" stroke="url(#paint5_linear_698_10805)"/>
<path opacity="0.28" d="M715.277 662.075C681.04 679.792 593.33 692.392 516.383 601.054C420.199 486.881 344.013 476.452 241.754 516.797C139.495 557.142 320.984 811.017 117.733 836.745C-85.5174 862.472 -266.857 694.349 -259.357 566.902C-251.856 439.456 -480.571 332.236 -590.001 478.256" stroke="url(#paint6_linear_698_10805)"/>
<path opacity="0.32" d="M722.901 666.537C688.225 683.65 600.057 694.842 524.788 602.699C430.703 487.52 354.553 475.958 251.237 514.553C147.921 553.149 324.67 808.76 120.426 831.239C-83.8177 853.718 -262.159 683.5 -252.05 556.705C-241.942 429.91 -469.006 319.607 -581.657 463.323" stroke="url(#paint7_linear_698_10805)"/>
<path opacity="0.36" d="M730.028 670.591C694.923 687.098 606.322 696.882 532.755 603.966C440.796 487.821 364.704 475.133 260.363 511.971C156.021 548.809 327.976 806.069 122.8 825.302C-82.3755 844.535 -257.666 672.283 -244.952 546.179C-232.238 420.075 -457.585 306.733 -573.423 448.104" stroke="url(#paint8_linear_698_10805)"/>
<path opacity="0.4" d="M737.126 674.753C701.602 690.649 612.595 699.026 540.75 605.37C450.945 488.299 374.934 474.492 269.598 509.566C164.261 544.64 331.372 803.461 125.325 819.45C-80.7218 835.44 -252.909 661.215 -237.594 535.841C-222.28 410.467 -445.841 294.132 -564.833 433.119" stroke="url(#paint9_linear_698_10805)"/>
<path opacity="0.44" d="M744.203 679.037C708.272 694.318 618.884 701.289 548.783 606.925C461.158 488.97 385.25 474.05 278.95 507.354C172.65 540.658 334.869 800.952 128.011 813.701C-78.8466 826.45 -247.88 650.316 -229.97 525.71C-212.059 401.104 -433.77 281.822 -555.88 418.387" stroke="url(#paint10_linear_698_10805)"/>
<path opacity="0.48" d="M751.257 683.426C714.928 698.09 625.186 703.657 556.85 608.617C471.429 489.818 395.648 473.795 288.415 505.322C181.183 536.85 338.461 798.527 130.854 808.042C-76.7528 817.556 -242.584 639.574 -222.083 515.775C-201.581 391.976 -421.377 269.794 -546.568 403.899" stroke="url(#paint11_linear_698_10805)"/>
<path opacity="0.52" d="M758.284 687.922C721.568 701.965 631.499 706.13 564.946 610.448C481.756 490.846 406.122 473.728 297.989 503.473C189.857 533.218 342.149 796.19 133.854 802.475C-74.4418 808.76 -237.022 628.994 -213.937 506.04C-190.851 383.087 -408.667 258.052 -536.902 389.66" stroke="url(#paint12_linear_698_10805)"/>
<path opacity="0.56" d="M764.797 692.02C727.706 705.439 637.336 708.204 572.586 611.913C491.65 491.549 416.186 473.344 307.184 501.303C198.183 529.261 345.446 793.438 136.523 796.501C-72.3998 799.563 -231.682 618.075 -206.02 496.005C-180.357 373.935 -396.13 246.096 -527.371 375.17" stroke="url(#paint13_linear_698_10805)"/>
<path opacity="0.6" d="M771.283 696.217C733.827 709.009 643.182 710.378 580.255 613.51C501.595 492.426 426.324 473.143 316.485 499.31C206.646 525.477 348.839 790.77 139.349 790.617C-70.1401 790.464 -226.079 607.32 -197.847 486.17C-169.615 365.021 -383.282 234.428 -517.491 360.933" stroke="url(#paint14_linear_698_10805)"/>
<path opacity="0.64" d="M777.732 700.522C739.922 712.686 649.029 712.66 587.941 615.25C511.581 493.486 436.523 473.135 325.88 497.507C215.236 521.879 352.318 788.197 142.323 784.837C-67.6724 781.478 -220.223 596.741 -189.431 476.549C-158.639 356.358 -370.138 223.061 -507.275 346.962" stroke="url(#paint15_linear_698_10805)"/>
<path opacity="0.68" d="M784.142 704.936C745.988 716.468 654.873 715.053 595.642 617.133C521.604 494.732 446.781 473.322 335.365 495.895C223.949 518.468 355.881 785.721 145.441 779.164C-64.9983 772.607 -214.117 586.343 -180.774 467.147C-147.431 347.95 -356.703 212 -496.726 333.263" stroke="url(#paint16_linear_698_10805)"/>
<path opacity="0.72" d="M790.033 708.929C751.547 719.827 660.237 717.026 602.879 618.63C531.182 495.635 456.617 473.175 344.461 493.946C232.305 514.718 359.05 782.815 148.227 773.071C-62.5961 763.327 -208.241 575.6 -172.358 457.436C-136.474 339.272 -343.458 200.72 -486.328 319.311" stroke="url(#paint17_linear_698_10805)"/>
<path opacity="0.76" d="M795.887 713.034C757.081 723.297 665.602 719.114 610.134 620.275C540.799 496.728 466.512 473.228 353.648 492.195C240.784 511.163 362.308 780.015 151.162 767.095C-59.9833 754.175 -202.113 565.051 -163.7 447.955C-125.288 330.86 -329.925 189.757 -475.598 305.645" stroke="url(#paint18_linear_698_10805)"/>
<path opacity="0.8" d="M801.689 717.243C762.574 726.868 670.952 721.308 617.389 622.061C550.434 498.003 476.448 473.474 362.909 490.635C249.37 507.797 365.639 777.312 154.232 761.228C-57.1756 745.144 -195.751 554.689 -154.821 438.698C-113.891 322.707 -316.122 179.108 -464.557 292.259" stroke="url(#paint19_linear_698_10805)"/>
<path opacity="0.84" d="M806.972 721.035C767.559 730.021 675.82 723.089 624.177 623.467C559.622 498.941 485.956 473.393 371.775 488.747C257.594 504.102 368.577 774.189 156.969 754.954C-54.6397 735.719 -189.622 544 -146.187 429.149C-102.752 314.299 -302.522 168.255 -453.674 278.641" stroke="url(#paint20_linear_698_10805)"/>
<path opacity="0.88" d="M812.208 724.921C772.508 733.267 680.68 724.968 630.969 625.006C568.831 500.053 495.507 473.498 380.717 487.044C265.927 500.59 371.594 771.159 159.845 748.786C-51.9031 726.413 -183.255 533.497 -137.329 419.822C-91.4032 306.147 -288.654 157.715 -442.48 265.303" stroke="url(#paint21_linear_698_10805)"/>
<path opacity="0.92" d="M816.913 728.4C776.937 736.103 685.045 726.444 637.281 626.175C577.577 500.839 504.615 473.287 389.249 485.024C273.883 496.762 374.206 767.721 162.378 742.226C-49.4505 716.73 -177.137 522.682 -128.734 410.218C-80.3304 297.755 -275.008 146.987 -431.462 251.75" stroke="url(#paint22_linear_698_10805)"/>
<path opacity="0.96" d="M821.659 731.47C781.42 738.531 689.491 727.517 643.686 626.975C586.431 501.298 513.853 472.761 397.943 482.69C282.034 492.619 376.988 763.879 165.14 735.276C-46.708 706.672 -170.694 511.56 -119.829 400.342C-68.9634 289.124 -261.014 136.077 -420.049 237.985" stroke="url(#paint23_linear_698_10805)"/>
<path d="M825.683 735.121C785.191 741.538 693.25 729.176 649.417 628.396C594.626 502.421 522.451 472.909 406.032 481.031C289.613 489.152 379.174 760.62 167.367 728.926C-44.441 697.232 -164.693 501.123 -111.381 391.184C-58.0699 281.246 -247.439 125.976 -409.011 225.001" stroke="url(#paint24_linear_698_10805)"/>
</g>
<defs>
<linearGradient id="paint0_linear_698_10805" x1="8.83276" y1="878.996" x2="100.34" y2="454.026" gradientUnits="userSpaceOnUse">
<stop offset="0.416667" stop-color="#0C6F97"/>
<stop offset="0.864583" stop-color="#0C6F97" stop-opacity="0"/>
</linearGradient>
<linearGradient id="paint1_linear_698_10805" x1="11.0578" y1="872.547" x2="108.43" y2="450.094" gradientUnits="userSpaceOnUse">
<stop offset="0.416667" stop-color="#0C6F97"/>
<stop offset="0.864583" stop-color="#0C6F97" stop-opacity="0"/>
</linearGradient>
<linearGradient id="paint2_linear_698_10805" x1="12.9967" y1="865.656" x2="116.159" y2="445.746" gradientUnits="userSpaceOnUse">
<stop offset="0.416667" stop-color="#0C6F97"/>
<stop offset="0.864583" stop-color="#0C6F97" stop-opacity="0"/>
</linearGradient>
<linearGradient id="paint3_linear_698_10805" x1="15.1297" y1="858.845" x2="124.011" y2="441.5" gradientUnits="userSpaceOnUse">
<stop offset="0.416667" stop-color="#0C6F97"/>
<stop offset="0.864583" stop-color="#0C6F97" stop-opacity="0"/>
</linearGradient>
<linearGradient id="paint4_linear_698_10805" x1="17.4622" y1="852.112" x2="131.994" y2="437.356" gradientUnits="userSpaceOnUse">
<stop offset="0.416667" stop-color="#0C6F97"/>
<stop offset="0.864583" stop-color="#0C6F97" stop-opacity="0"/>
</linearGradient>
<linearGradient id="paint5_linear_698_10805" x1="19.9831" y1="845.469" x2="140.101" y2="433.323" gradientUnits="userSpaceOnUse">
<stop offset="0.416667" stop-color="#0C6F97"/>
<stop offset="0.864583" stop-color="#0C6F97" stop-opacity="0"/>
</linearGradient>
<linearGradient id="paint6_linear_698_10805" x1="22.693" y1="838.91" x2="148.334" y2="429.392" gradientUnits="userSpaceOnUse">
<stop offset="0.416667" stop-color="#0C6F97"/>
<stop offset="0.864583" stop-color="#0C6F97" stop-opacity="0"/>
</linearGradient>
<linearGradient id="paint7_linear_698_10805" x1="25.1219" y1="831.927" x2="156.227" y2="425.057" gradientUnits="userSpaceOnUse">
<stop offset="0.416667" stop-color="#0C6F97"/>
<stop offset="0.864583" stop-color="#0C6F97" stop-opacity="0"/>
</linearGradient>
<linearGradient id="paint8_linear_698_10805" x1="27.2607" y1="824.516" x2="163.773" y2="420.312" gradientUnits="userSpaceOnUse">
<stop offset="0.416667" stop-color="#0C6F97"/>
<stop offset="0.864583" stop-color="#0C6F97" stop-opacity="0"/>
</linearGradient>
<linearGradient id="paint9_linear_698_10805" x1="29.5786" y1="817.195" x2="171.445" y2="415.673" gradientUnits="userSpaceOnUse">
<stop offset="0.416667" stop-color="#0C6F97"/>
<stop offset="0.864583" stop-color="#0C6F97" stop-opacity="0"/>
</linearGradient>
<linearGradient id="paint10_linear_698_10805" x1="32.0855" y1="809.981" x2="179.255" y2="411.158" gradientUnits="userSpaceOnUse">
<stop offset="0.416667" stop-color="#0C6F97"/>
<stop offset="0.864583" stop-color="#0C6F97" stop-opacity="0"/>
</linearGradient>
<linearGradient id="paint11_linear_698_10805" x1="34.7783" y1="802.863" x2="187.203" y2="406.754" gradientUnits="userSpaceOnUse">
<stop offset="0.416667" stop-color="#0C6F97"/>
<stop offset="0.864583" stop-color="#0C6F97" stop-opacity="0"/>
</linearGradient>
<linearGradient id="paint12_linear_698_10805" x1="37.6553" y1="795.843" x2="195.291" y2="402.464" gradientUnits="userSpaceOnUse">
<stop offset="0.416667" stop-color="#0C6F97"/>
<stop offset="0.864583" stop-color="#0C6F97" stop-opacity="0"/>
</linearGradient>
<linearGradient id="paint13_linear_698_10805" x1="40.2306" y1="788.421" x2="203.034" y2="397.786" gradientUnits="userSpaceOnUse">
<stop offset="0.416667" stop-color="#0C6F97"/>
<stop offset="0.864583" stop-color="#0C6F97" stop-opacity="0"/>
</linearGradient>
<linearGradient id="paint14_linear_698_10805" x1="42.9906" y1="781.097" x2="210.922" y2="393.222" gradientUnits="userSpaceOnUse">
<stop offset="0.416667" stop-color="#0C6F97"/>
<stop offset="0.864583" stop-color="#0C6F97" stop-opacity="0"/>
</linearGradient>
<linearGradient id="paint15_linear_698_10805" x1="45.9256" y1="773.883" x2="218.949" y2="388.783" gradientUnits="userSpaceOnUse">
<stop offset="0.416667" stop-color="#0C6F97"/>
<stop offset="0.864583" stop-color="#0C6F97" stop-opacity="0"/>
</linearGradient>
<linearGradient id="paint16_linear_698_10805" x1="49.034" y1="766.783" x2="227.114" y2="384.474" gradientUnits="userSpaceOnUse">
<stop offset="0.416667" stop-color="#0C6F97"/>
<stop offset="0.864583" stop-color="#0C6F97" stop-opacity="0"/>
</linearGradient>
<linearGradient id="paint17_linear_698_10805" x1="51.8374" y1="759.272" x2="234.943" y2="379.768" gradientUnits="userSpaceOnUse">
<stop offset="0.416667" stop-color="#0C6F97"/>
<stop offset="0.864583" stop-color="#0C6F97" stop-opacity="0"/>
</linearGradient>
<linearGradient id="paint18_linear_698_10805" x1="54.8183" y1="751.884" x2="242.92" y2="375.202" gradientUnits="userSpaceOnUse">
<stop offset="0.416667" stop-color="#0C6F97"/>
<stop offset="0.864583" stop-color="#0C6F97" stop-opacity="0"/>
</linearGradient>
<linearGradient id="paint19_linear_698_10805" x1="57.9609" y1="744.615" x2="251.032" y2="370.771" gradientUnits="userSpaceOnUse">
<stop offset="0.416667" stop-color="#0C6F97"/>
<stop offset="0.864583" stop-color="#0C6F97" stop-opacity="0"/>
</linearGradient>
<linearGradient id="paint20_linear_698_10805" x1="60.7986" y1="736.947" x2="258.814" y2="365.96" gradientUnits="userSpaceOnUse">
<stop offset="0.416667" stop-color="#0C6F97"/>
<stop offset="0.864583" stop-color="#0C6F97" stop-opacity="0"/>
</linearGradient>
<linearGradient id="paint21_linear_698_10805" x1="63.8037" y1="729.395" x2="266.742" y2="361.281" gradientUnits="userSpaceOnUse">
<stop offset="0.416667" stop-color="#0C6F97"/>
<stop offset="0.864583" stop-color="#0C6F97" stop-opacity="0"/>
</linearGradient>
<linearGradient id="paint22_linear_698_10805" x1="66.4919" y1="721.46" x2="274.333" y2="356.238" gradientUnits="userSpaceOnUse">
<stop offset="0.416667" stop-color="#0C6F97"/>
<stop offset="0.864583" stop-color="#0C6F97" stop-opacity="0"/>
</linearGradient>
<linearGradient id="paint23_linear_698_10805" x1="69.4368" y1="713.145" x2="282.163" y2="350.836" gradientUnits="userSpaceOnUse">
<stop offset="0.416667" stop-color="#0C6F97"/>
<stop offset="0.864583" stop-color="#0C6F97" stop-opacity="0"/>
</linearGradient>
<linearGradient id="paint24_linear_698_10805" x1="71.8731" y1="705.44" x2="289.468" y2="346.065" gradientUnits="userSpaceOnUse">
<stop offset="0.416667" stop-color="#0C6F97"/>
<stop offset="0.864583" stop-color="#0C6F97" stop-opacity="0"/>
</linearGradient>
</defs>
</svg>
