<svg width="62" height="62" viewBox="0 0 62 62" fill="none" xmlns="http://www.w3.org/2000/svg">
<path d="M10.5111 37.8678C10.9622 38.1693 11.4711 38.3135 11.975 38.3135C12.8258 38.3135 13.6608 37.9029 14.1689 37.1427C17.9097 31.5528 24.1637 28.215 30.8976 28.215C37.6116 28.215 43.856 31.537 47.5996 37.1022C48.4126 38.31 50.0509 38.6307 51.2587 37.8177C52.4672 37.0054 52.7879 35.3664 51.9749 34.1586C49.0003 29.7373 44.7761 26.4393 39.9407 24.6012C42.7677 22.1148 44.5564 18.4749 44.5564 14.4237C44.5564 6.9482 38.4748 0.866577 30.9999 0.866577C23.5244 0.866577 17.4428 6.9482 17.4428 14.4237C17.4428 18.4461 19.2054 22.0626 21.9973 24.5476C17.0837 26.3816 12.7922 29.7187 9.78671 34.2101C8.97647 35.42 9.30125 37.0583 10.5111 37.8678ZM30.9999 6.14001C35.5675 6.14001 39.2829 9.85614 39.2829 14.4237C39.2829 18.9906 35.5675 22.7067 30.9999 22.7067C26.4324 22.7067 22.7169 18.9906 22.7169 14.4237C22.7169 9.85614 26.4324 6.14001 30.9999 6.14001Z" fill="url(#paint0_linear_9_602)" stroke="#2A2D2C"/>
<path d="M39.4917 39.9037H35.1645C34.5204 39.9037 33.9498 39.6558 33.7507 39.0475L32.4138 34.9345C32.1913 34.2547 31.596 33.9148 31 33.9148C30.4046 33.9148 29.8093 34.2547 29.5868 34.9345L28.2493 39.0475C28.0508 39.6558 27.4802 39.9037 26.8361 39.9037H22.5089C21.069 39.9037 20.4703 41.897 21.6348 42.7368L25.136 45.2623C25.6565 45.6386 25.8748 46.3046 25.6757 46.9123L24.2674 50.9985C24.2077 51.1805 24.1843 51.359 24.1912 51.5286C24.2344 52.6259 25.6167 53.3764 26.6253 52.6485L30.1266 50.1224C30.3868 49.9342 30.6937 49.8409 31 49.8409C31.3069 49.8409 31.6131 49.9349 31.8741 50.1224L35.3746 52.6485C36.384 53.3764 37.7593 52.6259 37.8094 51.5286C37.817 51.359 37.7936 51.1812 37.7346 50.9985L36.3242 46.9123C36.1258 46.3046 36.3434 45.6386 36.8646 45.2623L40.3658 42.7368C41.5297 41.897 40.9316 39.9037 39.4917 39.9037Z" fill="url(#paint1_linear_9_602)" stroke="#2A2D2C"/>
<path d="M59.5706 48.1229H55.2427C54.5993 48.1229 54.0287 47.875 53.8295 47.2673L52.4926 43.1543C52.2702 42.4745 51.6742 42.1346 51.0788 42.1346C50.4835 42.1346 49.8875 42.4745 49.665 43.1543L48.3281 47.2673C48.129 47.875 47.5584 48.1229 46.9143 48.1229H42.5871C41.1472 48.1229 40.5485 50.1162 41.7137 50.9567L45.2142 53.4821C45.7354 53.8577 45.953 54.5238 45.7546 55.1322L44.3456 59.2184C44.2865 59.4003 44.2625 59.5782 44.2694 59.7478C44.3133 60.8457 45.6955 61.5962 46.7042 60.8684L50.2054 58.3422C50.4657 58.1541 50.7726 58.06 51.0788 58.06C51.3858 58.06 51.692 58.1541 51.9523 58.3422L55.4535 60.8684C56.4628 61.5962 57.8382 60.845 57.8883 59.7478C57.8959 59.5782 57.8725 59.4003 57.8135 59.2184L56.4031 55.1322C56.2047 54.5238 56.4223 53.8577 56.9435 53.4821L60.444 50.9567C61.6086 50.1162 61.0105 48.1229 59.5706 48.1229Z" fill="url(#paint2_linear_9_602)" stroke="#2A2D2C"/>
<path d="M19.4129 48.1229H15.0856C14.4416 48.1229 13.871 47.875 13.6718 47.2673L12.3349 43.1543C12.1125 42.4745 11.5165 42.1346 10.9211 42.1346C10.3258 42.1346 9.7298 42.4745 9.50733 43.1543L8.17043 47.2673C7.9713 47.875 7.4007 48.1229 6.75731 48.1229H2.42939C0.98949 48.1229 0.390735 50.1162 1.55597 50.9567L5.05649 53.4821C5.57766 53.8577 5.79532 54.5238 5.59688 55.1322L4.18788 59.2184C4.12883 59.4003 4.1048 59.5782 4.11167 59.7478C4.15561 60.8457 5.53783 61.5962 6.54651 60.8684L10.0477 58.3422C10.308 58.1541 10.6149 58.06 10.9211 58.06C11.2281 58.06 11.5343 58.1541 11.7945 58.3422L15.2957 60.8684C16.3051 61.5962 17.6805 60.845 17.7306 59.7478C17.7381 59.5782 17.7148 59.4003 17.6558 59.2184L16.2454 55.1322C16.0469 54.5238 16.2646 53.8577 16.7858 53.4821L20.287 50.9567C21.4508 50.1162 20.8528 48.1229 19.4129 48.1229Z" fill="url(#paint3_linear_9_602)" stroke="#2A2D2C"/>
<defs>
<linearGradient id="paint0_linear_9_602" x1="18.3416" y1="3.74444" x2="52.0272" y2="43.6707" gradientUnits="userSpaceOnUse">
<stop offset="0.442708" stop-color="#242528"/>
<stop offset="1" stop-color="#B6B6B6" stop-opacity="0.26"/>
</linearGradient>
<linearGradient id="paint1_linear_9_602" x1="25.1897" y1="35.3767" x2="42.4966" y2="54.0862" gradientUnits="userSpaceOnUse">
<stop offset="0.442708" stop-color="#242528"/>
<stop offset="1" stop-color="#B6B6B6" stop-opacity="0.26"/>
</linearGradient>
<linearGradient id="paint2_linear_9_602" x1="45.2682" y1="43.5965" x2="62.575" y2="62.3063" gradientUnits="userSpaceOnUse">
<stop offset="0.442708" stop-color="#242528"/>
<stop offset="1" stop-color="#B6B6B6" stop-opacity="0.26"/>
</linearGradient>
<linearGradient id="paint3_linear_9_602" x1="5.11049" y1="43.5965" x2="22.4173" y2="62.3065" gradientUnits="userSpaceOnUse">
<stop offset="0.442708" stop-color="#242528"/>
<stop offset="1" stop-color="#B6B6B6" stop-opacity="0.26"/>
</linearGradient>
</defs>
</svg>
