<svg width="54" height="56" viewBox="0 0 54 56" fill="none" xmlns="http://www.w3.org/2000/svg">
<path d="M25.3325 20.9979V24.6814C25.1269 24.5547 24.9358 24.4255 24.767 24.2931C24.3603 23.974 24.1847 23.3041 24.3198 22.5866C24.4243 22.0324 24.7433 21.3871 25.3325 20.9979ZM28.443 29.412V34.883C29.4481 34.3599 30.0445 33.3694 30.2022 32.4311C30.2897 31.9102 30.4131 30.1811 28.443 29.412ZM27.0002 44.0709C18.1387 44.0709 10.9292 36.8616 10.9292 28C10.9292 19.1383 18.1385 11.929 27.0002 11.929C35.8618 11.929 43.0711 19.1383 43.0711 28C43.0711 36.8616 35.8616 44.0709 27.0002 44.0709ZM32.6645 29.1447C31.979 27.8927 30.8341 26.9546 29.3542 26.4315C29.0545 26.3255 28.7488 26.2153 28.4431 26.1014V20.6803C29.0269 20.8727 29.3273 21.1661 29.3653 21.205C29.9308 21.8445 30.9074 21.9086 31.552 21.3468C32.1996 20.7824 32.2669 19.7999 31.7023 19.1525C31.1614 18.532 30.037 17.7524 28.4431 17.4923V16.5949C28.4431 15.7361 27.7469 15.0396 26.8878 15.0396C26.029 15.0396 25.3325 15.7359 25.3325 16.5949V17.6663C25.2148 17.6967 25.0961 17.7292 24.9759 17.7655C23.0713 18.3392 21.6485 19.9659 21.2632 22.0106C20.9099 23.8848 21.5168 25.6972 22.8473 26.7407C23.4898 27.2446 24.2754 27.7064 25.3325 28.1881V35.1989C24.5452 35.0996 23.9658 34.8486 23.0498 34.2492C22.3311 33.7789 21.3671 33.9802 20.8969 34.6992C20.4266 35.4179 20.6281 36.3819 21.3469 36.8521C22.9052 37.8717 23.9976 38.2192 25.3323 38.3261V39.4052C25.3323 40.264 26.0286 40.9605 26.8877 40.9605C27.7465 40.9605 28.443 40.2642 28.443 39.4052V38.1819C29.4878 37.93 30.4377 37.4259 31.2414 36.6876C32.3086 35.7069 33.0289 34.3784 33.2697 32.9466C33.4935 31.616 33.2785 30.2658 32.6645 29.1447ZM12.4609 45.3708H10.9292V38.4593C8.96325 35.4491 7.81873 31.8559 7.81873 28C7.81873 21.5817 10.9879 15.8902 15.843 12.4064C8.8518 14.1491 3.67153 20.4691 3.67153 28V45.3708H2.13977C0.793636 45.3708 0.0673079 46.9499 0.943402 47.9719L6.10416 53.9927C6.73293 54.7264 7.86795 54.7264 8.4969 53.9927L13.6577 47.9719C14.5334 46.9497 13.8072 45.3708 12.4609 45.3708ZM53.0571 8.02805L47.8963 2.00719C47.2676 1.27348 46.1325 1.27348 45.5036 2.00719L40.3428 8.02805C39.4667 9.05022 40.1931 10.6291 41.5392 10.6291H43.071V17.5406C45.0369 20.5509 46.1814 24.144 46.1814 28C46.1814 34.4183 43.0123 40.1097 38.1572 43.5935C45.1485 41.8508 50.3286 35.5308 50.3286 28V10.6291H51.8604C53.2069 10.6291 53.9332 9.05022 53.0571 8.02805Z" fill="url(#paint0_linear_45_1662)" stroke="black"/>
<defs>
<linearGradient id="paint0_linear_45_1662" x1="4.5" y1="9.5" x2="55.5" y2="46" gradientUnits="userSpaceOnUse">
<stop offset="0.385417" stop-color="#242528"/>
<stop offset="1" stop-color="#B6B6B6" stop-opacity="0.26"/>
</linearGradient>
</defs>
</svg>
