<svg width="55" height="55" viewBox="0 0 55 55" fill="none" xmlns="http://www.w3.org/2000/svg">
<path d="M50.7394 26.5746C49.9294 30.021 46.8464 32.602 43.1564 32.602H19.7362V43.5314C19.7362 46.1143 21.8373 48.2154 24.4202 48.2154H39.3871L45.1751 54.0034C45.6252 54.4536 46.3008 54.5822 46.8766 54.3419C47.4606 54.1011 47.8403 53.5307 47.8403 52.8995V48.2154H49.4016C51.9845 48.2154 54.0856 46.1143 54.0856 43.5314V31.0405C54.0858 28.9255 52.6677 27.1544 50.7394 26.5746ZM30.6656 41.9699C29.8033 41.9699 29.1043 41.2708 29.1043 40.4086C29.1043 39.5463 29.8033 38.8473 30.6656 38.8473C31.5278 38.8473 32.2268 39.5463 32.2268 40.4086C32.227 41.2708 31.5278 41.9699 30.6656 41.9699ZM36.9111 41.9699C36.0489 41.9699 35.3498 41.2708 35.3498 40.4086C35.3498 39.5463 36.0489 38.8473 36.9111 38.8473C37.7733 38.8473 38.4723 39.5463 38.4723 40.4086C38.4723 41.2708 37.7733 41.9699 36.9111 41.9699ZM43.1564 41.9699C42.2942 41.9699 41.5951 41.2708 41.5951 40.4086C41.5951 39.5463 42.2942 38.8473 43.1564 38.8473C44.0186 38.8473 44.7177 39.5463 44.7177 40.4086C44.7177 41.2708 44.0186 41.9699 43.1564 41.9699ZM47.8404 24.7952V6.05904C47.8404 3.47611 45.7393 1.375 43.1564 1.375H5.68404C3.10111 1.375 1 3.47611 1 6.05904V24.7952C1 27.3781 3.10111 29.4793 5.68404 29.4793H7.24533V34.1633C7.24533 34.7945 7.62502 35.3648 8.20897 35.6058C8.7843 35.8459 9.45982 35.7179 9.91053 35.2672L15.6985 29.4793H43.1562C45.7393 29.4793 47.8404 27.3781 47.8404 24.7952ZM19.2788 13.4083L13.0335 19.6536C12.7285 19.9586 12.3291 20.111 11.9296 20.111C11.53 20.111 11.1306 19.9586 10.8256 19.6536L7.70289 16.5309C7.09293 15.9211 7.09293 14.9328 7.70289 14.323C8.31285 13.7131 9.30092 13.7131 9.9107 14.323L11.9296 16.3419L17.071 11.2005C17.6809 10.5905 18.6688 10.5905 19.2788 11.2005C19.8886 11.8104 19.8886 12.7985 19.2788 13.4083ZM40.0336 20.1112H24.4202C23.5571 20.1112 22.8589 19.4128 22.8589 18.5499C22.8589 17.687 23.5573 16.9886 24.4202 16.9886H40.0336C40.8967 16.9886 41.5949 17.687 41.5949 18.5499C41.5949 19.4128 40.8967 20.1112 40.0336 20.1112ZM40.0336 13.8658H24.4202C23.5571 13.8658 22.8589 13.1675 22.8589 12.3046C22.8589 11.4416 23.5573 10.7433 24.4202 10.7433H40.0336C40.8967 10.7433 41.5949 11.4416 41.5949 12.3046C41.5949 13.1675 40.8967 13.8658 40.0336 13.8658Z" fill="url(#paint0_linear_9_558)" stroke="#2A2D2C"/>
<defs>
<linearGradient id="paint0_linear_9_558" x1="5.04297" y1="12.7305" x2="74.2305" y2="52.668" gradientUnits="userSpaceOnUse">
<stop offset="0.401042" stop-color="#2F2F2F"/>
<stop offset="1" stop-color="#B6B6B6" stop-opacity="0.26"/>
</linearGradient>
</defs>
</svg>
