<svg width="56" height="56" viewBox="0 0 56 56" fill="none" xmlns="http://www.w3.org/2000/svg">
<path d="M24.8772 29.5613C32.626 29.5613 38.9294 23.2579 38.9294 15.5092C38.9294 7.76019 32.626 1.45703 24.8772 1.45703C17.1285 1.45703 10.8251 7.76037 10.8251 15.5092C10.8251 23.2579 17.1285 29.5613 24.8772 29.5613ZM24.8772 17.0704C22.2943 17.0704 20.1932 14.9693 20.1932 12.3864C20.1932 9.80348 22.2943 7.70236 24.8772 7.70236C27.4602 7.70236 29.5613 9.80348 29.5613 12.3864C29.5613 13.2495 28.8629 13.9477 28 13.9477C27.1371 13.9477 26.4387 13.2493 26.4387 12.3864C26.4387 11.5249 25.7389 10.8251 24.8774 10.8251C24.0159 10.8251 23.3161 11.5249 23.3161 12.3864C23.3161 13.2479 24.0159 13.9477 24.8774 13.9477C27.4604 13.9477 29.5615 16.0488 29.5615 18.6317C29.5615 21.2147 27.4604 23.3158 24.8774 23.3158C22.2945 23.3158 20.1934 21.2147 20.1934 18.6317C20.1934 17.7687 20.8918 17.0703 21.7547 17.0703C22.6178 17.0703 23.316 17.7687 23.316 18.6317C23.316 19.4932 24.0157 20.193 24.8772 20.193C25.7388 20.193 26.4385 19.4932 26.4385 18.6317C26.4387 17.7704 25.7388 17.0704 24.8772 17.0704ZM52.9817 17.0704H43.6136C42.7505 17.0704 42.0523 17.7688 42.0523 18.6319C42.0523 19.4948 42.7507 20.1932 43.6136 20.1932H49.2126L28 41.4056L16.6131 30.0187C16.0031 29.4087 15.015 29.4087 14.4053 30.0187L1.91441 42.5095C1.60943 42.8145 1.45703 43.2139 1.45703 43.6134V52.9815C1.45703 53.8446 2.15541 54.5428 3.01832 54.5428H9.26365C10.1267 54.5428 10.8249 53.8444 10.8249 52.9815V38.0144L13.9477 34.8917V52.9815C13.9477 53.8446 14.6461 54.5428 15.509 54.5428H21.7543C22.6174 54.5428 23.3156 53.8444 23.3156 52.9815V41.1372L26.4384 44.2599V52.9815C26.4384 53.8446 27.1367 54.5428 27.9996 54.5428H34.245C35.1081 54.5428 35.8063 53.8444 35.8063 52.9815V38.0144L38.929 34.8917V52.9815C38.929 53.8446 39.6274 54.5428 40.4903 54.5428H46.7356C47.5987 54.5428 48.2969 53.8444 48.2969 52.9815V25.5238L51.4197 22.401V28C51.4197 28.8631 52.1181 29.5613 52.981 29.5613C53.8441 29.5613 54.5423 28.8629 54.5423 28V18.6319C54.543 17.7688 53.8446 17.0704 52.9817 17.0704Z" fill="url(#paint0_linear_45_1369)" stroke="black"/>
<defs>
<linearGradient id="paint0_linear_45_1369" x1="5" y1="7" x2="51" y2="55.5" gradientUnits="userSpaceOnUse">
<stop offset="0.385417" stop-color="#242528"/>
<stop offset="1" stop-color="#B6B6B6" stop-opacity="0.26"/>
</linearGradient>
</defs>
</svg>
