<svg width="34" height="56" viewBox="0 0 34 56" fill="none" xmlns="http://www.w3.org/2000/svg">
<path d="M27.9295 1.45703H6.07076C3.48783 1.45703 1.38672 3.55815 1.38672 6.14107V49.8589C1.38672 52.4419 3.48783 54.543 6.07076 54.543H27.9297C30.5126 54.543 32.6137 52.4419 32.6137 49.8589V6.14107C32.6137 3.55815 30.5126 1.45703 27.9295 1.45703ZM17.0001 7.70236C17.8623 7.70236 18.5614 8.40127 18.5614 9.26365C18.5614 10.1259 17.8623 10.8251 17.0001 10.8251C16.1379 10.8251 15.4388 10.126 15.4388 9.26365C15.4388 8.40127 16.1379 7.70236 17.0001 7.70236ZM12.3161 23.316C12.3161 22.4529 13.0145 21.7547 13.8774 21.7547H15.4387V17.0706C15.4387 16.2077 16.137 15.5093 17 15.5093C17.8629 15.5093 18.5613 16.2077 18.5613 17.0706V21.7547H20.1225C20.9856 21.7547 21.6838 22.453 21.6838 23.316V32.684C21.6838 33.5471 20.9854 34.2453 20.1225 34.2453H18.5613V38.9294C18.5613 39.7923 17.8629 40.4907 17 40.4907C16.137 40.4907 15.4387 39.7923 15.4387 38.9294V34.2453H13.8774C13.0143 34.2453 12.3161 33.547 12.3161 32.684V23.316ZM21.6842 48.2976H12.3161C11.453 48.2976 10.7548 47.5993 10.7548 46.7362C10.7548 45.8733 11.4532 45.1749 12.3161 45.1749H21.6842C22.5473 45.1749 23.2455 45.8733 23.2455 46.7362C23.2455 47.5993 22.5473 48.2976 21.6842 48.2976ZM18.5614 24.8772H15.4387V31.1226H18.5614V24.8772Z" fill="url(#paint0_linear_45_1692)" stroke="black"/>
<defs>
<linearGradient id="paint0_linear_45_1692" x1="-1.5" y1="5.5" x2="39" y2="53.5" gradientUnits="userSpaceOnUse">
<stop offset="0.348958" stop-color="#242528"/>
<stop offset="1" stop-color="#B6B6B6" stop-opacity="0.26"/>
</linearGradient>
</defs>
</svg>
