<svg width="56" height="56" viewBox="0 0 56 56" fill="none" xmlns="http://www.w3.org/2000/svg">
<path d="M31.1228 26.4387C30.2482 26.4387 29.5615 27.1256 29.5615 27.9999V48.2976H38.9296V27.9999C38.9296 27.1254 38.2426 26.4387 37.3683 26.4387H31.1228ZM20.6506 29.1039C20.9556 29.4088 21.3551 29.5612 21.7545 29.5612C22.1539 29.5612 22.5534 29.4088 22.8584 29.1039L45.1747 6.78754V9.26377C45.1747 10.1269 45.8731 10.8251 46.736 10.8251C47.5989 10.8251 48.2973 10.1267 48.2973 9.26377V3.01844C48.2973 2.16432 47.597 1.45715 46.736 1.45715H40.4907C39.6276 1.45715 38.9294 2.15553 38.9294 3.01844C38.9294 3.88153 39.6278 4.57973 40.4907 4.57973H42.9669L21.7547 25.7921L10.3677 14.4052C9.75777 13.7952 8.76971 13.7952 8.15992 14.4052C7.54996 15.0152 7.54996 16.0031 8.15992 16.613L20.6506 29.1039ZM42.0521 18.6319V48.2976H51.4202V18.6319C51.4202 17.7573 50.7333 17.0706 49.8589 17.0706H43.6134C42.7391 17.0704 42.0521 17.7573 42.0521 18.6319ZM18.6319 35.8067C17.7574 35.8067 17.0706 36.4937 17.0706 37.368V48.2974H26.4387V37.368C26.4387 36.4935 25.7518 35.8067 24.8774 35.8067H18.6319ZM13.9479 27.9999C13.9479 27.1254 13.2609 26.4387 12.3866 26.4387H6.14107C5.26656 26.4387 4.57979 27.1256 4.57979 27.9999V48.2976H13.9479V27.9999ZM52.9817 51.4202H3.01832C2.14381 51.4202 1.45703 52.1071 1.45703 52.9814C1.45703 53.8558 2.14399 54.5427 3.01832 54.5427H52.9815C53.856 54.5427 54.5428 53.8556 54.5428 52.9814C54.543 52.1071 53.856 51.4202 52.9817 51.4202Z" fill="url(#paint0_linear_45_1668)" stroke="black"/>
<defs>
<linearGradient id="paint0_linear_45_1668" x1="3.5" y1="5" x2="58.5" y2="50.5" gradientUnits="userSpaceOnUse">
<stop offset="0.359375" stop-color="#242528"/>
<stop offset="1" stop-color="#B6B6B6" stop-opacity="0.26"/>
</linearGradient>
</defs>
</svg>
