<svg width="56" height="56" viewBox="0 0 56 56" fill="none" xmlns="http://www.w3.org/2000/svg">
<path d="M18.681 40.8092C18.6825 40.3196 18.9137 39.8589 19.3055 39.565L22.127 37.4489V35.6451C22.127 35.2311 22.2915 34.8338 22.5844 34.541L23.9676 33.1578L21.4483 32.6538C21.1212 32.5884 20.8237 32.4198 20.5993 32.173L16.6113 27.7862L13.1885 27.832V29.8422L17.0541 33.818C17.3375 34.1095 17.496 34.4999 17.496 34.9064V39.3875L18.681 40.8092ZM10.3298 23.5499L10.8327 18.4779C10.8856 17.9443 11.2087 17.4751 11.6884 17.2353L17.4415 14.3599L18.8205 11.3233C18.9877 10.955 19.2914 10.666 19.6674 10.5171L22.2476 9.49568L15.6199 4.50789C13.2957 5.73643 11.1431 7.31951 9.23131 9.23131C7.68848 10.7741 6.35992 12.4738 5.25848 14.2938L7.77021 21.8436L10.3298 23.5499ZM54.543 28C54.543 24.0237 53.6741 20.1809 52.027 16.6881L44.8732 19.1521C44.6275 19.2368 44.3645 19.2586 44.1081 19.2159L38.939 18.3544C38.5133 18.2833 38.1359 18.0394 37.8967 17.6804L36.9534 16.2655L31.0145 19.382L34.6066 20.2354C34.9991 20.3287 35.3401 20.5703 35.5586 20.9093L37.3183 23.6433L39.6787 23.0532C40.1054 22.9465 40.5575 23.0247 40.9234 23.2688L43.5081 24.9919C43.9425 25.2814 44.2033 25.769 44.2033 26.2911V29.1266L48.7758 34.0783C49.0421 34.3668 49.1901 34.7449 49.1901 35.1376V43.9899C52.6623 39.408 54.543 33.8489 54.543 28ZM41.0804 29.7371V27.1265L39.7657 26.2503L36.9898 26.9443C36.3406 27.1065 35.6604 26.8372 35.2983 26.2747L33.2729 23.1284L26.2353 21.4564C25.6018 21.3059 25.1283 20.778 25.0471 20.1319C24.9658 19.4859 25.2942 18.8573 25.8708 18.5547L36.747 12.8475C37.4546 12.4762 38.3284 12.6991 38.7717 13.3639L40.1194 15.3856L44.2306 16.0708L50.5044 13.9099C49.4509 12.2345 48.2024 10.6652 46.7685 9.23148C41.7554 4.21803 35.0898 1.45703 28 1.45703C24.8414 1.45703 21.7673 2.00635 18.8857 3.05752L26.3501 8.67496C26.8015 9.01457 27.0341 9.57145 26.9587 10.1313C26.8831 10.691 26.5111 11.1665 25.9861 11.3743L21.4031 13.1885L20.0561 16.1548C19.9081 16.4807 19.6527 16.7458 19.3324 16.9059L13.8552 19.6434L13.3532 24.7067L17.2728 24.6545C17.724 24.647 18.1482 24.8345 18.4489 25.1655L22.5645 29.6926L27.4407 30.6682C28.0053 30.7812 28.462 31.1957 28.6288 31.7468C28.7956 32.2979 28.6456 32.896 28.2384 33.3031L25.2495 36.292V38.2298C25.2495 38.7213 25.0182 39.1841 24.625 39.4789L21.8034 41.5949V45.1218C21.8034 45.7792 21.3917 46.3662 20.7735 46.5899C20.5996 46.6529 20.42 46.6833 20.2422 46.6833C19.7877 46.6833 19.3451 46.4845 19.0425 46.1213L14.735 40.9523C14.5012 40.6717 14.3731 40.3181 14.3731 39.9526V35.5401L10.5075 31.5643C10.2241 31.2729 10.0656 30.8825 10.0656 30.4759V27.1267L5.59176 24.1442C5.3026 23.9514 5.08604 23.6679 4.97635 23.3381L3.29043 18.2709C2.08773 21.3284 1.45703 24.6155 1.45703 28C1.45703 35.0898 4.21803 41.7554 9.23131 46.7687C14.2446 51.782 20.9102 54.543 28 54.543C34.7646 54.543 41.1416 52.0279 46.067 47.443V35.7483L41.4946 30.7965C41.2282 30.508 41.0804 30.1298 41.0804 29.7371Z" fill="url(#paint0_linear_9_614)" stroke="#2A2D2C"/>
<defs>
<linearGradient id="paint0_linear_9_614" x1="7" y1="3.5" x2="64.5" y2="52" gradientUnits="userSpaceOnUse">
<stop offset="0.307292" stop-color="#242528"/>
<stop offset="1" stop-color="#B6B6B6" stop-opacity="0.26"/>
</linearGradient>
</defs>
</svg>
