<svg width="56" height="56" viewBox="0 0 56 56" fill="none" xmlns="http://www.w3.org/2000/svg">
<path d="M41.9133 23.388C41.9565 22.8426 42.0521 22.3094 42.0521 21.7547C42.0521 10.563 32.9463 1.45703 21.7545 1.45703C10.5629 1.45703 1.45703 10.5629 1.45703 21.7547C1.45703 32.9463 10.5629 42.0521 21.7547 42.0521C22.3096 42.0521 22.8426 41.9565 23.388 41.9133C22.5038 31.2207 31.3669 22.516 41.9133 23.388ZM23.316 21.7547C23.316 22.1597 23.1504 22.5675 22.8566 22.8605L16.6131 29.1041C16.0033 29.7139 15.0152 29.714 14.4053 29.1041C13.7953 28.4943 13.7953 27.5061 14.4053 26.8963L20.1932 21.1083V12.3868C20.1932 11.5237 20.8916 10.8255 21.7545 10.8255C22.6174 10.8255 23.3158 11.5238 23.3158 12.3868V21.7547H23.316ZM40.4908 26.4387C32.5872 26.4387 26.4387 32.8312 26.4387 40.4908C26.4387 48.2396 32.742 54.543 40.4908 54.543C48.2396 54.543 54.543 48.2396 54.543 40.4908C54.543 32.742 48.2396 26.4387 40.4908 26.4387ZM46.974 38.4233L40.0333 45.364C39.4235 45.9738 38.4354 45.974 37.8255 45.364L33.1993 40.738C32.5893 40.128 32.5893 39.14 33.1993 38.5302C33.8092 37.9202 34.7973 37.9202 35.4071 38.5302L38.9292 42.0523L44.766 36.2155C45.376 35.6057 46.3639 35.6057 46.9738 36.2155C47.584 36.8253 47.584 37.8133 46.974 38.4233Z" fill="url(#paint0_linear_9_595)" stroke="#2A2D2C"/>
<defs>
<linearGradient id="paint0_linear_9_595" x1="3.5" y1="8.5" x2="67.5" y2="51" gradientUnits="userSpaceOnUse">
<stop offset="0.291667" stop-color="#242528"/>
<stop offset="1" stop-color="#B6B6B6" stop-opacity="0.26"/>
</linearGradient>
</defs>
</svg>
