<svg width="56" height="56" viewBox="0 0 56 56" fill="none" xmlns="http://www.w3.org/2000/svg">
<path d="M48.2182 37.0304V47.8036C48.2182 48.6624 47.522 49.3589 46.6629 49.3589H43.7479L44.8387 41.724C45.0301 40.3842 44.6312 39.0296 43.7446 38.0071C42.858 36.9847 41.5732 36.3983 40.2198 36.3983H15.7803C14.4269 36.3983 13.1421 36.9847 12.2555 38.0071C11.3689 39.0294 10.97 40.3842 11.1614 41.724L12.2522 49.3589H9.33717C8.4783 49.3589 7.78186 48.6626 7.78186 47.8036V37.0304C7.78186 33.5129 10.1556 30.4232 13.5545 29.5167L18.5989 28.1714C20.783 30.9679 24.1851 32.7693 28 32.7693C31.815 32.7693 35.2173 30.9679 37.4012 28.1714L42.4456 29.5167C45.8445 30.4232 48.2182 33.5129 48.2182 37.0304ZM54.0876 14.3547C53.4802 13.7473 52.4955 13.7473 51.888 14.3547L50.3956 15.8471V3.01239C50.3956 2.15352 49.6994 1.45707 48.8403 1.45707C47.9815 1.45707 47.285 2.15334 47.285 3.01239V15.8471L45.7926 14.3547C45.1853 13.7473 44.2006 13.7473 43.5931 14.3547C42.9857 14.962 42.9857 15.9467 43.5931 16.5542L47.7405 20.7016C48.3478 21.3089 49.3325 21.3089 49.94 20.7016L54.0874 16.5542C54.6949 15.9467 54.6949 14.962 54.0876 14.3547ZM8.71491 19.6017V6.76707L10.2073 8.25946C10.8146 8.86678 11.7993 8.86678 12.4068 8.25946C13.0143 7.65213 13.0142 6.66741 12.4068 6.05991L8.25946 1.91252C7.65213 1.3052 6.66741 1.3052 6.05991 1.91252L1.91252 6.05991C1.3052 6.66723 1.3052 7.65196 1.91252 8.25946C2.51985 8.86678 3.50457 8.86678 4.11207 8.25946L5.60446 6.76707V19.6017C5.60446 20.4606 6.30073 21.1571 7.15977 21.1571C8.01881 21.1571 8.71491 20.4606 8.71491 19.6017ZM41.7595 41.2842L40.0562 53.2078C39.9467 53.974 39.2905 54.543 38.5165 54.543H17.4836C16.7096 54.543 16.0534 53.9738 15.9439 53.2078L14.2406 41.2842C14.1068 40.3473 14.8339 39.509 15.7803 39.509H40.2198C41.1662 39.509 41.8933 40.3471 41.7595 41.2842ZM29.5554 45.7299C29.5554 44.871 28.8591 44.1746 28 44.1746C27.1412 44.1746 26.4447 44.8708 26.4447 45.7299C26.4447 46.5889 27.141 47.2852 28 47.2852C28.8589 47.2852 29.5554 46.5889 29.5554 45.7299ZM28 29.6591C32.8674 29.6591 36.8132 25.7133 36.8132 20.8459V15.7655H19.1869V20.8459C19.1869 25.7133 23.1327 29.6591 28 29.6591ZM40.442 5.66862V4.25657C40.442 3.3977 39.7457 2.70125 38.8867 2.70125H25.9264C22.2044 2.70125 19.1869 5.71854 19.1869 9.44071V12.6549H36.813C39.0892 11.0556 40.442 8.46002 40.442 5.66862Z" fill="url(#paint0_linear_45_1699)" stroke="black"/>
<defs>
<linearGradient id="paint0_linear_45_1699" x1="6" y1="3.00006" x2="55" y2="55.0001" gradientUnits="userSpaceOnUse">
<stop offset="0.364583" stop-color="#242528"/>
<stop offset="1" stop-color="#B6B6B6" stop-opacity="0.26"/>
</linearGradient>
</defs>
</svg>
