<svg width="42" height="56" viewBox="0 0 42 56" fill="none" xmlns="http://www.w3.org/2000/svg">
<path d="M24.581 25.3352L19.4382 30.4766L17.419 28.458C16.8088 27.848 15.8206 27.848 15.2106 28.458C14.6007 29.0679 14.6005 30.0558 15.2106 30.6658L18.3341 33.7883C18.6391 34.0933 19.0386 34.2459 19.4384 34.2459C19.8379 34.2459 20.2376 34.0933 20.5426 33.7883L26.7895 27.543C27.3997 26.9331 27.3997 25.9452 26.7895 25.3352C26.1794 24.7252 25.1912 24.7252 24.581 25.3352ZM39.7409 7.70311C33.9194 7.70311 28.284 5.99698 23.4402 2.76911L21.8663 1.72004C21.3415 1.36936 20.6583 1.36936 20.1338 1.72004L18.5598 2.76911C13.716 5.99698 8.0806 7.70311 2.25908 7.70311C1.39582 7.70311 0.697266 8.40149 0.697266 9.2644V26.9863C0.697266 39.4724 8.65857 50.5145 20.5059 54.462C20.666 54.5154 20.8337 54.5428 21 54.5428C21.1663 54.5428 21.334 54.5154 21.4941 54.462C33.3414 50.5146 41.3027 39.4726 41.3027 26.9865V9.26458C41.3027 8.40149 40.6042 7.70311 39.7409 7.70311ZM21 42.0523C13.2493 42.0523 6.94418 35.749 6.94418 28.0004C6.94418 20.2518 13.2491 13.9484 21 13.9484C28.7509 13.9484 35.0558 20.2518 35.0558 28.0004C35.0558 35.749 28.7507 42.0523 21 42.0523Z" fill="url(#paint0_linear_9_566)" stroke="#2A2D2C"/>
<defs>
<linearGradient id="paint0_linear_9_566" x1="0.5" y1="6.5" x2="48.5" y2="50.5" gradientUnits="userSpaceOnUse">
<stop offset="0.385417" stop-color="#2F2F2F"/>
<stop offset="1" stop-color="#B6B6B6" stop-opacity="0.26"/>
</linearGradient>
</defs>
</svg>
