<svg width="56" height="56" viewBox="0 0 56 56" fill="none" xmlns="http://www.w3.org/2000/svg">
<path d="M29.5613 2.3718V10.8251H38.0146L29.5613 2.3718ZM35.36 27.9527C36.4879 27.4013 37.6862 27.0132 38.9294 26.762V13.9479H28C27.1369 13.9479 26.4387 13.2495 26.4387 12.3866V1.45703H3.01832C2.15524 1.45703 1.45703 2.15541 1.45703 3.01832V46.7362C1.45703 47.5993 2.15541 48.2976 3.01832 48.2976H27.7657C26.9008 46.3688 26.4385 44.2677 26.4385 42.0521C26.4385 39.8672 26.9146 37.748 27.7683 35.8066H12.3864C11.5233 35.8066 10.8251 35.1082 10.8251 34.2453C10.8251 33.3824 11.5235 32.684 12.3864 32.684H28C28.489 32.684 28.9076 32.9221 29.1937 33.2736C30.7279 31.0268 32.822 29.1568 35.36 27.9527ZM12.3864 10.8251H18.6317C19.4948 10.8251 20.193 11.5235 20.193 12.3864C20.193 13.2493 19.4946 13.9477 18.6317 13.9477H12.3864C11.5233 13.9477 10.8251 13.2493 10.8251 12.3864C10.8251 11.5235 11.5235 10.8251 12.3864 10.8251ZM28 29.5613H12.3864C11.5233 29.5613 10.8251 28.8629 10.8251 28C10.8251 27.1371 11.5235 26.4387 12.3864 26.4387H28C28.8631 26.4387 29.5613 27.1371 29.5613 28C29.5613 28.8629 28.8631 29.5613 28 29.5613ZM28 23.316H12.3864C11.5233 23.316 10.8251 22.6176 10.8251 21.7547C10.8251 20.8916 11.5235 20.1932 12.3864 20.1932H28C28.8631 20.1932 29.5613 20.8916 29.5613 21.7547C29.5613 22.6176 28.8631 23.316 28 23.316ZM42.0521 29.5613C35.0379 29.5613 29.5613 35.3169 29.5613 42.0521C29.5613 49.0663 35.3169 54.543 42.0521 54.543C48.9394 54.543 54.543 48.9394 54.543 42.0521C54.543 35.1648 48.9394 29.5613 42.0521 29.5613ZM47.8401 41.5947L41.5947 47.8403C41.2898 48.1452 40.8904 48.2976 40.4908 48.2976C40.0913 48.2976 39.6919 48.1451 39.3869 47.8403L36.2642 44.7175C35.6542 44.1077 35.6542 43.1196 36.2642 42.5097C36.8741 41.8997 37.8622 41.8997 38.472 42.5097L40.4908 44.5285L45.6323 39.3871C46.2422 38.7771 47.2303 38.7771 47.8401 39.3871C48.45 39.9967 48.45 40.9848 47.8401 41.5947Z" fill="url(#paint0_linear_9_622)" stroke="#2A2D2C"/>
<defs>
<linearGradient id="paint0_linear_9_622" x1="3" y1="2.5" x2="67" y2="46.5" gradientUnits="userSpaceOnUse">
<stop offset="0.307292" stop-color="#242528"/>
<stop offset="1" stop-color="#B6B6B6" stop-opacity="0.26"/>
</linearGradient>
</defs>
</svg>
