<svg width="42" height="56" viewBox="0 0 42 56" fill="none" xmlns="http://www.w3.org/2000/svg">
<path d="M13.1931 10.8252H28.8065C29.6688 10.8252 30.3678 10.1261 30.3678 9.26371V6.14095C30.3678 5.27857 29.6688 4.57966 28.8065 4.57966H24.1225C24.1225 2.8549 22.7245 1.45691 20.9997 1.45691C19.275 1.45691 17.877 2.8549 17.877 4.57966H13.1929C12.3307 4.57966 11.6317 5.27857 11.6317 6.14095V9.26371C11.6318 10.1261 12.3309 10.8252 13.1931 10.8252ZM39.7361 7.70242H33.4908V9.26371C33.4908 11.8466 31.3896 13.9477 28.8067 13.9477H13.1933C10.6104 13.9477 8.50926 11.8466 8.50926 9.26371V7.70242H2.26392C1.40084 7.70242 0.702637 8.40079 0.702637 9.26371V52.9816C0.702637 53.8446 1.40101 54.5428 2.26392 54.5428H39.7364C40.5995 54.5428 41.2977 53.8445 41.2977 52.9816V9.26388C41.2976 8.4008 40.5992 7.70242 39.7361 7.70242ZM22.5612 26.4388C22.5612 25.5757 23.2596 24.8775 24.1225 24.8775H25.6838V20.1934C25.6838 19.3305 26.3822 18.6321 27.2451 18.6321C28.1082 18.6321 28.8064 19.3305 28.8064 20.1934V24.8775H30.3677C31.2307 24.8775 31.9289 25.5759 31.9289 26.4388V35.8069C31.9289 36.6699 31.2306 37.3681 30.3677 37.3681H28.8064V42.0522C28.8064 42.9151 28.108 43.6135 27.2451 43.6135C26.382 43.6135 25.6838 42.9151 25.6838 42.0522V37.3681H24.1225C23.2594 37.3681 22.5612 36.6698 22.5612 35.8069V26.4388ZM10.0705 26.4388C10.0705 25.5757 10.7689 24.8775 11.6318 24.8775H13.1931V20.1934C13.1931 19.3305 13.8915 18.6321 14.7544 18.6321C15.6175 18.6321 16.3157 19.3305 16.3157 20.1934V24.8775H17.877C18.7401 24.8775 19.4383 25.5759 19.4383 26.4388V35.8069C19.4383 36.6699 18.7399 37.3681 17.877 37.3681H16.3157V42.0522C16.3157 42.9151 15.6173 43.6135 14.7544 43.6135C13.8913 43.6135 13.1931 42.9151 13.1931 42.0522V37.3681H11.6318C10.7687 37.3681 10.0705 36.6698 10.0705 35.8069V26.4388ZM33.4908 49.859H8.50908C7.64599 49.859 6.94779 49.1606 6.94779 48.2977C6.94779 47.4346 7.64617 46.7364 8.50908 46.7364H33.4908C34.3538 46.7364 35.0521 47.4348 35.0521 48.2977C35.0521 49.1606 34.3537 49.859 33.4908 49.859ZM16.3159 28.0001H13.1931V34.2454H16.3159V28.0001ZM28.8067 28.0001H25.684V34.2454H28.8067V28.0001Z" fill="url(#paint0_linear_45_1677)" stroke="black"/>
<defs>
<linearGradient id="paint0_linear_45_1677" x1="-1" y1="4.5" x2="45" y2="57" gradientUnits="userSpaceOnUse">
<stop offset="0.338542" stop-color="#242528"/>
<stop offset="1" stop-color="#B6B6B6" stop-opacity="0.26"/>
</linearGradient>
</defs>
</svg>
