<svg width="56" height="56" viewBox="0 0 56 56" fill="none" xmlns="http://www.w3.org/2000/svg">
<path d="M15.5094 29.5613H17.0707V34.2454C17.0707 35.1084 17.7691 35.8067 18.632 35.8067C19.4951 35.8067 20.1933 35.1083 20.1933 34.2454V29.5613H21.7545C22.6176 29.5613 23.3158 28.8629 23.3158 28V18.6319C23.3158 17.769 22.6175 17.0707 21.7545 17.0707H20.1933V12.3866C20.1933 11.5235 19.4949 10.8253 18.632 10.8253C17.7689 10.8253 17.0707 11.5237 17.0707 12.3866V17.0707H15.5094C14.6463 17.0707 13.9481 17.769 13.9481 18.6319V28C13.9481 28.8631 14.6465 29.5613 15.5094 29.5613ZM28.0002 23.316H29.5615V28C29.5615 28.8631 30.2599 29.5613 31.1228 29.5613C31.9857 29.5613 32.6841 28.8629 32.6841 28V23.316H34.2454C35.1085 23.316 35.8067 22.6176 35.8067 21.7547V12.3866C35.8067 11.5235 35.1083 10.8253 34.2454 10.8253H32.6841V6.14128C32.6841 5.27837 31.9857 4.57999 31.1228 4.57999C30.2599 4.57999 29.5615 5.27837 29.5615 6.14128V10.8253H28.0002C27.1371 10.8253 26.4389 11.5237 26.4389 12.3866V21.7547C26.4389 22.6176 27.1371 23.316 28.0002 23.316ZM40.4911 29.5613H42.0524V34.2454C42.0524 35.1084 42.7507 35.8067 43.6136 35.8067C44.4766 35.8067 45.1749 35.1083 45.1749 34.2454V29.5613H46.7362C47.5993 29.5613 48.2975 28.8629 48.2975 28V18.6319C48.2975 17.769 47.5991 17.0707 46.7362 17.0707H45.1749V12.3866C45.1749 11.5235 44.4766 10.8253 43.6136 10.8253C42.7507 10.8253 42.0524 11.5237 42.0524 12.3866V17.0707H40.4911C39.628 17.0707 38.9298 17.769 38.9298 18.6319V28C38.9296 28.8631 39.628 29.5613 40.4911 29.5613ZM54.0858 48.755L50.9631 45.6323C50.3531 45.0223 49.365 45.0223 48.7552 45.6323C48.1453 46.2423 48.1453 47.2303 48.7552 47.8401L49.2126 48.2975H45.1751V40.4907C45.1751 39.6276 44.4767 38.9294 43.6138 38.9294C42.7509 38.9294 42.0525 39.6278 42.0525 40.4907V48.2975H32.6844V34.2454C32.6844 33.3824 31.9861 32.6841 31.1232 32.6841C30.2602 32.6841 29.5619 33.3824 29.5619 34.2454V48.2975H20.1938V40.4907C20.1938 39.6276 19.4954 38.9294 18.6325 38.9294C17.7694 38.9294 17.0712 39.6278 17.0712 40.4907V48.2975H7.70312V6.78762L8.1605 7.24501C8.77046 7.85479 9.75853 7.85479 10.3683 7.24501C10.9783 6.63505 10.9783 5.64698 10.3683 5.03719L7.24556 1.91444C6.6356 1.30448 5.64753 1.30448 5.03775 1.91444L1.91499 5.03719C1.30503 5.64716 1.30503 6.63522 1.91499 7.24501C2.52495 7.85479 3.51302 7.85479 4.1228 7.24501L4.58019 6.78762V49.859C4.58019 50.7219 5.27856 51.4202 6.14147 51.4202H49.2128L48.7554 51.8776C48.1455 52.4876 48.1455 53.4757 48.7554 54.0854C49.3654 54.6954 50.3534 54.6954 50.9632 54.0854L54.086 50.9627C54.6956 50.3529 54.6956 49.3648 54.0858 48.755Z" fill="url(#paint0_linear_45_1705)" stroke="black"/>
<defs>
<linearGradient id="paint0_linear_45_1705" x1="3.5" y1="6.5" x2="50" y2="57.5" gradientUnits="userSpaceOnUse">
<stop offset="0.286458" stop-color="#242528"/>
<stop offset="1" stop-color="#B6B6B6" stop-opacity="0.26"/>
</linearGradient>
</defs>
</svg>
