<svg width="56" height="56" viewBox="0 0 56 56" fill="none" xmlns="http://www.w3.org/2000/svg">
<path d="M34.2453 13.5529H35.8066V23.982C37.298 23.5578 38.8652 23.316 40.4907 23.316C42.1161 23.316 43.6834 23.5578 45.1747 23.982V13.5529H46.736C47.3124 13.5529 47.8399 13.2358 48.1113 12.7281C48.3857 12.2203 48.3553 11.6044 48.035 11.1255L41.7897 2.10883C41.2103 1.23977 39.7708 1.23977 39.1915 2.10883L32.9461 11.1255C32.6259 11.6044 32.5955 12.2203 32.8698 12.7281C33.1414 13.2358 33.6689 13.5529 34.2453 13.5529ZM40.4908 26.4387C32.742 26.4387 26.4387 32.742 26.4387 40.4908C26.4387 48.2398 32.742 54.543 40.4908 54.543C48.2396 54.543 54.543 48.2396 54.543 40.4908C54.543 32.742 48.2396 26.4387 40.4908 26.4387ZM40.4908 38.9294C43.0738 38.9294 45.1749 41.0305 45.1749 43.6134C45.1749 45.6463 43.8657 47.3632 42.0521 48.0099V49.8589C42.0521 50.722 41.3537 51.4202 40.4908 51.4202C39.6278 51.4202 38.9296 50.7218 38.9296 49.8589V48.0099C37.116 47.3632 35.8068 45.6463 35.8068 43.6134C35.8068 42.7505 36.5052 42.0521 37.3681 42.0521C38.231 42.0521 38.9294 42.7505 38.9294 43.6134C38.9294 44.4749 39.6307 45.1749 40.4907 45.1749C41.3506 45.1749 42.052 44.4751 42.052 43.6134C42.052 42.7521 41.3506 42.0521 40.4907 42.0521C37.9077 42.0521 35.8066 39.951 35.8066 37.3681C35.8066 35.3354 37.1158 33.6183 38.9294 32.9716V31.1226C38.9294 30.2595 39.6278 29.5613 40.4907 29.5613C41.3538 29.5613 42.052 30.2597 42.052 31.1226V32.9716C43.8655 33.6183 45.1747 35.3352 45.1747 37.3681C45.1747 38.2312 44.4763 38.9294 43.6134 38.9294C42.7503 38.9294 42.0521 38.231 42.0521 37.3681C42.0521 36.5066 41.3508 35.8068 40.4908 35.8068C39.6309 35.8068 38.9296 36.5066 38.9296 37.3681C38.9296 38.2296 39.6309 38.9294 40.4908 38.9294ZM21.7547 42.0521H20.1934V32.018C18.7021 32.4422 17.1348 32.684 15.5093 32.684C13.8839 32.684 12.3166 32.4422 10.8253 32.018V42.0521H9.264C8.68762 42.0521 8.1601 42.3692 7.88869 42.8769C7.6143 43.3847 7.64471 44.0007 7.96498 44.4795L14.2103 53.8476C14.5 54.2821 14.988 54.543 15.5093 54.543C16.0307 54.543 16.5187 54.2823 16.8084 53.8476L23.0537 44.4795C23.374 44.0007 23.4044 43.3847 23.13 42.8769C22.8586 42.3692 22.3311 42.0521 21.7547 42.0521ZM15.5092 1.45703C7.76037 1.45703 1.45703 7.76037 1.45703 15.5092C1.45703 23.2579 7.76037 29.5613 15.5092 29.5613C23.2579 29.5613 29.5613 23.2579 29.5613 15.5092C29.5613 7.76037 23.2579 1.45703 15.5092 1.45703ZM15.5092 13.9479C18.0921 13.9479 20.1932 16.049 20.1932 18.6319C20.1932 20.6646 18.884 22.3817 17.0704 23.0284V24.8774C17.0704 25.7405 16.3721 26.4387 15.5092 26.4387C14.6461 26.4387 13.9479 25.7403 13.9479 24.8774V23.0284C12.1343 22.3817 10.8251 20.6648 10.8251 18.6319C10.8251 17.7688 11.5235 17.0704 12.3864 17.0704C13.2495 17.0704 13.9477 17.7688 13.9477 18.6319C13.9477 19.4934 14.6491 20.1932 15.509 20.1932C16.3689 20.1932 17.0703 19.4934 17.0703 18.6319C17.0703 17.7704 16.3689 17.0704 15.509 17.0704C12.9261 17.0704 10.8249 14.9693 10.8249 12.3864C10.8249 10.3537 12.1342 8.63664 13.9477 7.98994V6.1409C13.9477 5.27781 14.6461 4.57961 15.509 4.57961C16.3721 4.57961 17.0703 5.27799 17.0703 6.1409V7.98994C18.8838 8.63664 20.193 10.3535 20.193 12.3864C20.193 13.2495 19.4946 13.9477 18.6317 13.9477C17.7688 13.9477 17.0704 13.2493 17.0704 12.3864C17.0704 11.5249 16.3691 10.8251 15.5092 10.8251C14.6492 10.8251 13.9479 11.5249 13.9479 12.3864C13.9479 13.2479 14.6492 13.9479 15.5092 13.9479Z" fill="url(#paint0_linear_45_1684)" stroke="black"/>
<defs>
<linearGradient id="paint0_linear_45_1684" x1="8.5" y1="3" x2="50" y2="52.5" gradientUnits="userSpaceOnUse">
<stop offset="0.328125" stop-color="#242528"/>
<stop offset="1" stop-color="#B6B6B6" stop-opacity="0.26"/>
</linearGradient>
</defs>
</svg>
