<svg width="56" height="56" viewBox="0 0 56 56" fill="none" xmlns="http://www.w3.org/2000/svg">
<path d="M43.9033 41.7192L35.9531 36.4185C34.1044 35.1875 31.615 35.4269 30.0407 37.0042L27.9479 39.0955C26.7184 38.9185 23.8019 38.1879 20.806 35.1921C17.8102 32.1978 17.0811 29.2783 16.9042 28.0503L18.9939 25.959C20.568 24.3833 20.8152 21.8971 19.5796 20.0452L14.2773 12.0934C13.4963 10.9218 12.2455 10.1684 10.8422 10.0295C9.4511 9.89383 8.05996 10.3804 7.06539 11.3795L3.75227 14.6941C2.169 16.2759 1.33914 18.4343 1.47027 20.611C1.72041 24.8591 3.55697 33.4074 13.0754 42.9242C22.5876 52.438 31.1358 54.2789 35.3853 54.5293C37.4803 54.6602 39.6739 53.8757 41.3037 52.2459L44.6198 48.9313C45.6174 47.9338 46.1055 46.5579 45.9682 45.1561C45.8283 43.7525 45.0747 42.5002 43.9033 41.7192ZM40.4835 1.45703C32.7316 1.45703 26.4258 7.76301 26.4258 15.5148C26.4258 17.9309 27.045 20.2876 28.2196 22.3805L26.505 27.5164C26.3189 28.0779 26.4653 28.6971 26.8833 29.115C27.3115 29.5453 27.9415 29.6754 28.4819 29.4919L33.6193 27.7805C35.7089 28.955 38.0672 29.5727 40.4833 29.5727C48.2353 29.5727 54.5411 23.2667 54.5411 15.515C54.5411 7.76318 48.2355 1.45703 40.4835 1.45703ZM34.2355 17.0768C33.373 17.0768 32.6736 16.3773 32.6736 15.5148C32.6736 14.6521 33.373 13.9528 34.2355 13.9528C35.0981 13.9528 35.7975 14.6521 35.7975 15.5148C35.7975 16.3775 35.0981 17.0768 34.2355 17.0768ZM40.4835 17.0768C39.621 17.0768 38.9215 16.3773 38.9215 15.5148C38.9215 14.6521 39.621 13.9528 40.4835 13.9528C41.3461 13.9528 42.0455 14.6521 42.0455 15.5148C42.0455 16.3775 41.3461 17.0768 40.4835 17.0768ZM46.7313 17.0768C45.8688 17.0768 45.1693 16.3773 45.1693 15.5148C45.1693 14.6521 45.8688 13.9528 46.7313 13.9528C47.5939 13.9528 48.2933 14.6521 48.2933 15.5148C48.2933 16.3775 47.594 17.0768 46.7313 17.0768Z" fill="url(#paint0_linear_9_577)" stroke="#2A2D2C"/>
<defs>
<linearGradient id="paint0_linear_9_577" x1="6.5" y1="12.5" x2="52" y2="51" gradientUnits="userSpaceOnUse">
<stop offset="0.442708" stop-color="#242528"/>
<stop offset="1" stop-color="#B6B6B6" stop-opacity="0.26"/>
</linearGradient>
</defs>
</svg>
