<svg width="42" height="56" viewBox="0 0 42 56" fill="none" xmlns="http://www.w3.org/2000/svg">
<path d="M31.9296 48.2976H3.82515C2.10038 48.2976 0.702393 49.6956 0.702393 51.4204C0.702393 53.145 2.10038 54.5431 3.82515 54.5431H32.7979C32.26 53.6208 31.9294 52.563 31.9294 51.4204V48.2976H31.9296ZM39.7362 1.45703H5.38661C4.5244 1.45703 3.82532 2.15594 3.82532 3.01832V45.1747H33.491C34.3532 45.1747 35.0523 45.8736 35.0523 46.736V51.42C35.0523 53.1446 36.4503 54.5428 38.1751 54.5428C39.8999 54.5428 41.2978 53.1446 41.2978 51.42V3.01832C41.2977 2.15594 40.5984 1.45703 39.7362 1.45703ZM33.4909 40.4908H11.6319C10.769 40.4908 10.0707 39.7925 10.0707 38.9296C10.0707 38.0665 10.769 37.3683 11.6319 37.3683H33.4909C34.3538 37.3683 35.0522 38.0666 35.0522 38.9296C35.0522 39.7925 34.3538 40.4908 33.4909 40.4908ZM33.4909 34.2453H11.6319C10.769 34.2453 10.0707 33.547 10.0707 32.684C10.0707 31.8211 10.769 31.1228 11.6319 31.1228H33.4909C34.3538 31.1228 35.0522 31.8211 35.0522 32.684C35.0522 33.5471 34.3538 34.2453 33.4909 34.2453ZM35.0522 13.9479C35.0522 14.8108 34.3538 15.5092 33.4909 15.5092C32.8189 15.5092 32.2583 15.0806 32.038 14.4858L25.2265 21.2973C24.9338 21.5901 24.5367 21.7545 24.1228 21.7545H18.5238L15.401 24.8772H33.4907C34.3536 24.8772 35.052 25.5756 35.052 26.4385C35.052 27.3014 34.3538 28 33.4909 28H11.6319C10.7731 28 10.0707 27.2972 10.0707 26.4387V7.70236C10.0707 6.83945 10.769 6.14107 11.6319 6.14107C12.495 6.14107 13.1934 6.83945 13.1934 7.70236V22.6694L16.7737 19.0889C17.0664 18.7964 17.4635 18.6319 17.8774 18.6319H23.4764L29.8302 12.2781C29.2354 12.0579 28.8068 11.4973 28.8068 10.8253C28.8068 9.96221 29.5052 9.26383 30.3683 9.26383H33.491C34.3499 9.26383 35.0523 9.96643 35.0523 10.8253V13.9479H35.0522Z" fill="url(#paint0_linear_9_586)" stroke="#2A2D2C"/>
<defs>
<linearGradient id="paint0_linear_9_586" x1="4.5" y1="1.5" x2="56" y2="54.5" gradientUnits="userSpaceOnUse">
<stop offset="0.432292" stop-color="#242528"/>
<stop offset="1" stop-color="#B6B6B6" stop-opacity="0.26"/>
</linearGradient>
</defs>
</svg>
