<svg width="46" height="52" viewBox="0 0 46 52" fill="none" xmlns="http://www.w3.org/2000/svg">
<path d="M30.4707 43.9285C30.4707 44.7543 29.8024 45.4226 28.9766 45.4226C28.1507 45.4226 27.4824 44.7543 27.4824 43.9285V18.5281H9.55273V46.9167C9.55273 49.3886 11.5633 51.3992 14.0352 51.3992H31.9648C34.4367 51.3992 36.4473 49.3886 36.4473 46.9167V18.5281H30.4707V43.9285ZM18.5176 43.9285C18.5176 44.7543 17.8493 45.4226 17.0234 45.4226C16.1976 45.4226 15.5293 44.7543 15.5293 43.9285V40.9402C15.5293 40.1143 16.1976 39.446 17.0234 39.446C17.8493 39.446 18.5176 40.1143 18.5176 40.9402V43.9285ZM18.0799 9.12552L21.5059 5.69954V14.0456C21.5059 14.8715 22.1742 15.5398 23 15.5398C23.8258 15.5398 24.4941 14.8715 24.4941 14.0456V5.69954L27.9201 9.12552C28.2119 9.41732 28.5942 9.56321 28.9766 9.56321C29.3589 9.56321 29.7412 9.41732 30.033 9.12552C30.6166 8.54192 30.6166 7.5964 30.033 7.01263L24.0582 1.03782C23.4815 0.459501 22.5275 0.450361 21.9418 1.03782L15.967 7.01263C15.3834 7.59622 15.3834 8.54175 15.967 9.12552C16.5506 9.70929 17.4961 9.70911 18.0799 9.12552ZM0.587891 23.0105C0.587891 25.4823 2.59848 27.4929 5.07031 27.4929H6.56445V18.5281H5.07031C2.59848 18.5281 0.587891 20.5388 0.587891 23.0105ZM40.9297 18.5281H39.4355V27.4929H40.9297C43.4015 27.4929 45.4121 25.4823 45.4121 23.0105C45.4121 20.5386 43.4015 18.5281 40.9297 18.5281Z" fill="url(#paint0_linear_45_1361)" stroke="black"/>
<defs>
<linearGradient id="paint0_linear_45_1361" x1="-2.5" y1="5.5" x2="44" y2="47" gradientUnits="userSpaceOnUse">
<stop offset="0.348958" stop-color="#242528"/>
<stop offset="1" stop-color="#B6B6B6" stop-opacity="0.26"/>
</linearGradient>
</defs>
</svg>
