<svg width="16" height="11" viewBox="0 0 16 11" fill="none" xmlns="http://www.w3.org/2000/svg">
<g clip-path="url(#clip0_317_1060)">
<path d="M0.234757 0.127536C0.239974 0.122222 0.250408 0.116908 0.255624 0.111594C0.260841 0.10628 0.266058 0.10628 0.271275 0.100966C0.281709 0.0956522 0.286925 0.0903382 0.297359 0.0850241C0.302576 0.0797101 0.307793 0.0797101 0.318226 0.0743961C0.32866 0.0690821 0.333877 0.0637681 0.34431 0.0637681C0.34431 0.0584541 0.354744 0.0531401 0.359961 0.0531401C0.370395 0.0478261 0.375611 0.0478261 0.386045 0.0425121C0.391262 0.0425121 0.401695 0.0371981 0.406912 0.0371981C0.417346 0.0318841 0.422563 0.0318841 0.432996 0.02657C0.438213 0.02657 0.448647 0.021256 0.453864 0.021256C0.464297 0.015942 0.469514 0.015942 0.479948 0.010628C0.485165 0.010628 0.490381 0.00531401 0.500815 0.00531401C0.511249 0.00531401 0.521682 0 0.532116 0C0.537333 0 0.54255 0 0.547767 0C0.563417 0 0.579067 0 0.599935 0H15.4001C15.4157 0 15.4314 0 15.4522 0C15.4575 0 15.4627 0 15.4679 0C15.4783 0 15.4888 0 15.4992 0.00531401C15.5044 0.00531401 15.5096 0.010628 15.5201 0.010628C15.5305 0.010628 15.5409 0.015942 15.5514 0.015942C15.5566 0.015942 15.567 0.021256 15.5722 0.021256C15.5827 0.02657 15.5931 0.02657 15.5983 0.0318841C15.6035 0.0318841 15.614 0.0371981 15.6192 0.0371981C15.6296 0.0425121 15.6348 0.0425121 15.6453 0.0478261C15.6453 0.0531401 15.6505 0.0584541 15.6557 0.0637681C15.6661 0.0690821 15.6713 0.0743961 15.6818 0.0743961C15.687 0.0797101 15.6922 0.0797101 15.7026 0.0850241C15.7131 0.0903382 15.7183 0.0956522 15.7287 0.100966C15.7339 0.10628 15.7392 0.10628 15.7444 0.111594C15.7548 0.116908 15.76 0.122222 15.7652 0.127536C15.7705 0.13285 15.7757 0.13285 15.7757 0.138164L8.41995 7.63092C8.30518 7.74783 8.1539 7.81159 7.99739 7.81159C7.83567 7.81159 7.68438 7.74783 7.57483 7.63092L0.219107 0.138164C0.224323 0.138164 0.22954 0.13285 0.234757 0.127536ZM0 1.64203L3.79263 5.50531L0 9.3686V1.64203ZM15.4001 11H0.610368C0.469514 11 0.333877 10.9469 0.22954 10.8618L4.63776 6.3715L6.72449 8.4971C7.06358 8.84251 7.51744 9.03382 7.99739 9.03382C8.47734 9.03382 8.9312 8.84251 9.2703 8.4971L11.3675 6.36087L15.7809 10.8565C15.6766 10.9469 15.5461 11 15.4001 11ZM16 9.34734L12.2178 5.49469L16 1.64203V9.34734Z" fill="#25225B"/>
</g>
<defs>
<clipPath id="clip0_317_1060">
<rect width="16" height="11" fill="white"/>
</clipPath>
</defs>
</svg>
