<svg width="38" height="39" viewBox="0 0 38 39" fill="none" xmlns="http://www.w3.org/2000/svg">
<path d="M37.9732 19.5277C37.9732 8.98477 29.4727 0.440919 18.9866 0.440919C8.50047 0.43826 0 8.98477 0 19.5277C0 30.0706 8.50047 38.6171 18.9866 38.6171C29.4727 38.6171 37.9732 30.0706 37.9732 19.5277Z" fill="#25225B"/>
<path d="M20.6596 15.006V13.1983C20.6596 12.3184 21.2439 12.1111 21.6537 12.1111C22.0636 12.1111 24.1788 12.1111 24.1788 12.1111V8.24056L20.7019 8.22461C16.8443 8.22461 15.9691 11.1142 15.9691 12.9644V15.006H13.7402V19.5278H15.9903C15.9903 24.6531 15.9903 30.8337 15.9903 30.8337H20.4877C20.4877 30.8337 20.4877 24.5893 20.4877 19.5278H23.8218L24.2316 15.006H20.6596Z" fill="white"/>
</svg>
