<svg width="39" height="39" viewBox="0 0 39 39" fill="none" xmlns="http://www.w3.org/2000/svg">
<path d="M38.9229 19.0868C38.9229 8.54386 30.4224 0 19.9363 0C9.45017 0 0.949707 8.54652 0.949707 19.0868C0.949707 29.6297 9.44753 38.1762 19.9336 38.1762C30.4198 38.1762 38.9229 29.6297 38.9229 19.0868Z" fill="#25225B"/>
<path d="M25.8224 11.9238C25.1117 11.9238 24.5283 12.4966 24.5283 13.218C24.5283 13.9287 25.1011 14.5121 25.8224 14.5121C26.533 14.5121 27.1164 13.9393 27.1164 13.218C27.1164 12.4966 26.533 11.9238 25.8224 11.9238Z" fill="white"/>
<path d="M20.0937 13.5791C17.1024 13.5791 14.6733 16.0082 14.6733 18.9995C14.6733 21.9909 17.1024 24.42 20.0937 24.42C23.085 24.42 25.5141 21.9909 25.5141 18.9995C25.5035 16.0082 23.0744 13.5791 20.0937 13.5791ZM20.0937 22.4682C18.1844 22.4682 16.6251 20.9089 16.6251 18.9995C16.6251 17.0902 18.1844 15.5309 20.0937 15.5309C22.0031 15.5309 23.5624 17.0902 23.5624 18.9995C23.5624 20.9089 22.0031 22.4682 20.0937 22.4682Z" fill="white"/>
<path d="M24.3915 30H15.6085C11.9595 30 9 27.0299 9 23.3915V14.6085C9 10.9595 11.9595 8 15.6085 8H24.3915C28.0405 8 31 10.9595 31 14.6085V23.3915C31 27.0299 28.0405 30 24.3915 30ZM15.6085 10.0685C13.1051 10.0685 11.0685 12.1051 11.0685 14.6085V23.3915C11.0685 25.8949 13.1051 27.9316 15.6085 27.9316H24.3915C26.8949 27.9316 28.9315 25.8949 28.9315 23.3915V14.6085C28.9315 12.1051 26.8949 10.0685 24.3915 10.0685H15.6085Z" fill="white"/>
</svg>
