<svg width="28.9" height="28.9" xmlns="http://www.w3.org/2000/svg" viewBox="0 0 28.9 28.9"><defs><style>.cls-1{fill:#12213a;}</style></defs><g id="Слой_2" data-name="Слой 2"><g id="Home"><path class="cls-1" d="M22.1,5.16a1.7,1.7,0,1,0,1.69,1.69A1.69,1.69,0,0,0,22.1,5.16Z"/><path class="cls-1" d="M14.57,7.33a7.12,7.12,0,1,0,7.11,7.12A7.12,7.12,0,0,0,14.57,7.33Zm0,11.68a4.56,4.56,0,1,1,4.56-4.56A4.56,4.56,0,0,1,14.57,19Z"/><path class="cls-1" d="M20.22,28.9H8.68A8.69,8.69,0,0,1,0,20.22V8.68A8.68,8.68,0,0,1,8.68,0H20.22A8.69,8.69,0,0,1,28.9,8.68V20.22A8.7,8.7,0,0,1,20.22,28.9ZM8.68,2.72a6,6,0,0,0-6,6V20.22a6,6,0,0,0,6,6H20.22a6,6,0,0,0,6-6V8.68a6,6,0,0,0-6-6Z"/></g></g></svg>