<svg width="36" height="36" viewBox="0 0 36 36" fill="none" xmlns="http://www.w3.org/2000/svg">
<path fill-rule="evenodd" clip-rule="evenodd" d="M18 1.125C14.6624 1.12475 11.3997 2.11424 8.62447 3.96833C5.84923 5.82241 3.68613 8.45783 2.4087 11.5413C1.13127 14.6248 0.7969 18.0178 1.44787 21.2913C2.09883 24.5648 3.7059 27.5718 6.06583 29.9319C8.42577 32.292 11.4326 33.8994 14.706 34.5506C17.9795 35.2019 21.3725 34.8678 24.4561 33.5907C27.5397 32.3135 30.1753 30.1506 32.0296 27.3756C33.884 24.6005 34.8737 21.3378 34.8738 18.0002C34.8715 13.5256 33.0931 9.23487 29.9291 6.07069C26.7652 2.9065 22.4747 1.12768 18 1.125ZM10.9276 19.7658L14.4639 23.3024C14.6376 23.4769 14.8442 23.6154 15.0716 23.7098C15.2991 23.8043 15.5429 23.853 15.7892 23.853C16.0355 23.853 16.2794 23.8043 16.5068 23.7098C16.7343 23.6154 16.9408 23.4769 17.1146 23.3024L25.0724 15.3492C25.424 14.9977 25.6215 14.5209 25.6215 14.0237C25.6215 13.5266 25.424 13.0498 25.0725 12.6982C24.721 12.3467 24.2442 12.1491 23.747 12.1491C23.2499 12.1491 22.7731 12.3466 22.4215 12.6981L15.7918 19.3284L13.5785 17.1147C13.2269 16.7632 12.7501 16.5657 12.253 16.5658C11.7558 16.5658 11.279 16.7633 10.9275 17.1148C10.576 17.4664 10.3785 17.9432 10.3785 18.4404C10.3785 18.9375 10.576 19.4143 10.9276 19.7658Z" fill="url(#paint0_linear_11_32)" stroke="black"/>
<defs>
<linearGradient id="paint0_linear_11_32" x1="1" y1="0.999999" x2="44" y2="35" gradientUnits="userSpaceOnUse">
<stop offset="0.40625" stop-color="#242528"/>
<stop offset="1" stop-color="#B6B6B6" stop-opacity="0.26"/>
</linearGradient>
</defs>
</svg>
