<svg xmlns="http://www.w3.org/2000/svg" viewBox="0 0 34 48.51"><defs><style>.cls-1{fill:#12213a;fill-rule:evenodd;}</style></defs><g id="Слой_2" data-name="Слой 2"><g id="Home"><path class="cls-1" d="M21.07,48.51c0-1.15,0-2.3-.06-3.41H17.93c-.1,1.14-.2,2.26-.33,3.41"/><path class="cls-1" d="M18.2,41c-.07,1.09-.13,2.15-.2,3.23h3c0-1.08-.06-2.14-.13-3.23Z"/><path class="cls-1" d="M18.37,37.7c0,.79-.07,1.57-.1,2.36h2.54c0-.79-.07-1.57-.1-2.36Z"/><path class="cls-1" d="M18.44,34.89c0,.64,0,1.27,0,1.91h2.24c0-.64-.07-1.27-.1-1.91Z"/><path class="cls-1" d="M18.44,32.12V34h2c0-.63-.06-1.27-.1-1.9Z"/><path class="cls-1" d="M18.37,29.13c0,.27,0,.57,0,.84v1.24h1.91c-.07-.69-.1-1.39-.14-2.08Z"/><path class="cls-1" d="M18.3,26.32c0,.64,0,1.27,0,1.91h1.77L20,26.32Z"/><path class="cls-1" d="M18.2,23.55c0,.6,0,1.23.07,1.87h1.64c0-.64-.07-1.27-.14-1.87Z"/><path class="cls-1" d="M18.1,20.68c0,.63,0,1.3.07,2h1.57c0-.66-.1-1.3-.14-2Z"/><path class="cls-1" d="M26.32,22c.37-3.45-.94-5.47-3.91-6.86,5.14-.75,7.42,2.45,10.45,4.53-2.57-4.5-5.77-6.67-10.08-7.06,3.64-2.57,7.88-1.81,11.12-1.75-4.58-2.63-8.35-2.72-12.09-.49C24.72,6.16,30.19,6,34,5.43,28.29,4,24.21,4.77,20.84,7.73c.8-4,4.84-5.95,7.52-7.73a11.94,11.94,0,0,0-9.12,6.49A30.9,30.9,0,0,0,17.7.33a36.73,36.73,0,0,1-.07,6.94C15.2,4.62,12.49,1.57,6.68.9c3.47,2,6.21,2.09,9.79,8.34C12,5.77,7.05,5.89,0,8.09c4.37.45,11.46-.27,15.53,3.38A12.19,12.19,0,0,0,3,18.32c2.94-1.81,5.95-5.13,11.26-4-2.81,1-4.68,3-5.81,6.43,2-2,4.21-5,8.21-5.16l.1.12c-2.4,2.5-2.87,5.28-1.17,9,.14-2.29-.16-5.43,2.21-7.64.13.16.2.25.23.22,0,.81,0,1.6.07,2.41h1.5c0-.39,0-.78,0-1.15,0,0,0-1,.1-.9A15.19,15.19,0,0,1,21,16.18c3.81.6,4.47,3.71,5.31,5.77Z"/></g></g></svg>