<svg width="16" height="16" viewBox="0 0 16 16" fill="none" xmlns="http://www.w3.org/2000/svg">
<g clip-path="url(#clip0_317_1062)">
<path d="M0.0170898 1.89441C0.0170898 1.42651 0.19398 0.970014 0.507817 0.627646C0.861598 0.239629 1.36374 0.0170898 1.89441 0.0170898H4.41081C5.36374 0.0170898 6.1683 0.730357 6.27101 1.67757C6.33378 2.23678 6.4479 2.78456 6.61338 3.32094C6.8188 3.98856 6.64191 4.70753 6.15118 5.19826L5.12979 6.21966C6.19683 8.17116 7.82879 9.80311 9.78028 10.8702L10.8017 9.84876C11.2924 9.35803 12.0114 9.18114 12.679 9.38656C13.2154 9.55204 13.7632 9.66616 14.3224 9.72893C15.2639 9.83164 15.9771 10.6305 15.9771 11.5834V14.0998C15.9771 14.6248 15.7546 15.1269 15.3666 15.4864C14.9786 15.8402 14.4536 16.0171 13.9229 15.9714C12.1141 15.806 10.3737 15.3266 8.74177 14.5506C7.15546 13.7917 5.71752 12.776 4.46787 11.5321C3.21823 10.2824 2.20254 8.84448 1.44933 7.25817C0.673295 5.62622 0.19398 3.88014 0.0285021 2.077C0.0170898 2.00853 0.0170898 1.95147 0.0170898 1.89441Z" fill="#25225B"/>
</g>
<defs>
<clipPath id="clip0_317_1062">
<rect width="16" height="16" fill="white"/>
</clipPath>
</defs>
</svg>
