<svg width="28.51" height="23.46" xmlns="http://www.w3.org/2000/svg" viewBox="0 0 28.51 23.46"><defs><style>.cls-1{fill:#12213a;}</style></defs><g id="Слой_2" data-name="Слой 2"><g id="Home"><path class="cls-1" d="M28.39,2.81a11.56,11.56,0,0,1-2.88.82c.46-.07,1.14-.91,1.42-1.25A5.32,5.32,0,0,0,27.88.63c0-.05.05-.11,0-.15a.18.18,0,0,0-.16,0A14.72,14.72,0,0,1,24.3,1.8a.22.22,0,0,1-.23-.06,2.13,2.13,0,0,0-.3-.3,6,6,0,0,0-1.66-1A5.76,5.76,0,0,0,19.58,0a6.13,6.13,0,0,0-2.41.68,6.26,6.26,0,0,0-2,1.59,6,6,0,0,0-1.16,2.33A6.31,6.31,0,0,0,14,7.06c0,.14,0,.16-.12.14-4.69-.7-8.58-2.38-11.74-6-.14-.16-.21-.16-.33,0-1.38,2.07-.71,5.4,1,7a8.77,8.77,0,0,0,.72.63,6,6,0,0,1-2.27-.63c-.13-.09-.2,0-.22.12a3.88,3.88,0,0,0,0,.67,6,6,0,0,0,3.71,4.8,3.34,3.34,0,0,0,.76.23,6.78,6.78,0,0,1-2.23.07c-.16,0-.22.05-.16.2a6.28,6.28,0,0,0,4.67,3.92c.21,0,.43,0,.64.08,0,0,0,0,0,0-.52.8-2.34,1.39-3.19,1.69a11.4,11.4,0,0,1-4.84.62c-.26,0-.32,0-.39,0s0,.11.08.17a11.5,11.5,0,0,0,1,.6,16.13,16.13,0,0,0,3.24,1.3c5.82,1.61,12.38.42,16.75-3.92,3.43-3.41,4.63-8.11,4.63-12.82,0-.18.22-.28.35-.38a11.4,11.4,0,0,0,2.28-2.37.71.71,0,0,0,.15-.45v0C28.51,2.74,28.51,2.76,28.39,2.81Z"/></g></g></svg>