<svg width="39" height="39" viewBox="0 0 39 39" fill="none" xmlns="http://www.w3.org/2000/svg">
<path d="M38.9456 19.1983C38.9456 8.65806 30.4452 0.108887 19.9617 0.108887C9.47292 0.108887 0.975098 8.65806 0.975098 19.1983C0.975098 29.7412 9.47557 38.2878 19.9617 38.2878C30.4478 38.2878 38.9456 29.7412 38.9456 19.1983Z" fill="#25225B"/>
<path d="M30.9767 13.4725C30.2152 13.7835 29.4035 13.9935 28.5548 14.0945C29.4537 13.5629 30.1544 12.7361 30.5219 11.7472C30.5457 11.6861 30.477 11.6276 30.4188 11.6621C29.5701 12.138 28.642 12.4862 27.6531 12.6776C26.8124 11.7897 25.6146 11.2368 24.2847 11.2368C21.7385 11.2368 19.6709 13.2811 19.6709 15.8038C19.6709 16.1627 19.7132 16.5109 19.7899 16.8459C15.9693 16.6545 12.577 14.8495 10.3032 12.1034C10.2926 12.0901 10.2688 12.0901 10.2609 12.1061C9.87752 12.7733 9.65542 13.5469 9.65542 14.371C9.65542 15.9181 10.4354 17.2898 11.6278 18.1166C11.6516 18.1325 11.6384 18.1697 11.6093 18.1671C10.906 18.1299 10.2397 17.9358 9.65542 17.6195C9.63955 17.6115 9.6184 17.6221 9.62105 17.6407C9.63162 17.8428 9.69772 18.736 9.93304 19.3128C10.5147 20.7377 11.768 21.8276 13.3227 22.136C12.934 22.237 12.5242 22.2981 12.1038 22.2981C11.8235 22.2981 11.5485 22.2715 11.2762 22.221C11.2577 22.2184 11.2418 22.237 11.2471 22.2556C11.842 24.0234 13.4972 25.3153 15.4669 25.3818C15.4934 25.3818 15.504 25.4163 15.4828 25.4323C13.9123 26.6312 11.9504 27.341 9.81406 27.341C9.44126 27.341 9.07903 27.3197 8.7168 27.2772C10.758 28.5718 13.1852 29.3267 15.7895 29.3267C19.3801 29.3267 22.2805 28.0826 24.4328 26.1899C26.6061 24.2786 28.0154 21.7106 28.6023 19.0922C28.8086 18.1724 28.917 17.242 28.917 16.3355C28.917 16.1388 28.9117 15.9421 28.9011 15.7453C29.7366 15.1472 30.469 14.4162 31.0613 13.5841C31.1062 13.5203 31.0428 13.4459 30.9767 13.4725Z" fill="white"/>
</svg>
