<svg xmlns="http://www.w3.org/2000/svg" viewBox="0 0 28.08 40.06"><defs><style>.cls-1{fill:#fff;fill-rule:evenodd;}</style></defs><g id="Слой_2" data-name="Слой 2"><g id="Home"><path class="cls-1" d="M17.4,40.06c0-1,0-1.9,0-2.82H14.81c-.08.95-.16,1.87-.28,2.82"/><path class="cls-1" d="M15,33.83c0,.9-.11,1.77-.16,2.66h2.45c0-.89-.05-1.76-.11-2.66Z"/><path class="cls-1" d="M15.17,31.14c0,.64-.06,1.29-.08,1.94h2.09c0-.65-.05-1.3-.08-1.94Z"/><path class="cls-1" d="M15.22,28.82c0,.52,0,1,0,1.57H17c0-.53-.05-1.05-.08-1.57Z"/><path class="cls-1" d="M15.22,26.52v1.57h1.69l-.09-1.57Z"/><path class="cls-1" d="M15.17,24.05c0,.23,0,.48,0,.7v1h1.57c-.06-.58-.08-1.15-.11-1.73Z"/><path class="cls-1" d="M15.11,21.74c0,.52,0,1,0,1.57H16.6l-.11-1.57Z"/><path class="cls-1" d="M15,19.44c0,.5,0,1,.06,1.55h1.35c0-.52-.06-1-.11-1.55Z"/><path class="cls-1" d="M15,17.07c0,.53,0,1.08.05,1.63h1.3c0-.55-.08-1.08-.11-1.63Z"/><path class="cls-1" d="M21.73,18.12a5,5,0,0,0-3.22-5.66c4.24-.62,6.12,2,8.63,3.74-2.12-3.71-4.77-5.51-8.33-5.83,3-2.12,6.51-1.5,9.19-1.45-3.78-2.16-6.9-2.24-10-.4,2.4-3.44,6.92-3.54,10.07-4C23.36,3.29,20,3.94,17.21,6.38c.66-3.31,4-4.91,6.21-6.38a9.88,9.88,0,0,0-7.53,5.36A25.67,25.67,0,0,0,14.62.27,30.72,30.72,0,0,1,14.56,6c-2-2.2-4.24-4.71-9-5.26,2.86,1.67,5.13,1.72,8.08,6.88C9.87,4.76,5.82,4.86,0,6.68c3.61.37,9.46-.22,12.83,2.79A10,10,0,0,0,2.46,15.13c2.42-1.5,4.9-4.24,9.29-3.26-2.32.79-3.86,2.44-4.8,5.3,1.63-1.62,3.48-4.13,6.79-4.26l.08.1c-2,2.07-2.37,4.36-1,7.45.11-1.89-.14-4.48,1.82-6.3.11.12.17.2.2.17,0,.68,0,1.32.05,2h1.24c0-.33,0-.65,0-.95,0,0,0-.85.08-.75a13.29,13.29,0,0,1,1.13-1.27c3.14.5,3.69,3.07,4.38,4.76Z"/></g></g></svg>