<svg width="39" height="39" viewBox="0 0 39 39" fill="none" xmlns="http://www.w3.org/2000/svg">
<path d="M38.8989 19.2572C38.8989 8.71427 30.3985 0.17041 19.9124 0.17041C9.42625 0.17041 0.925781 8.71692 0.925781 19.2572C0.925781 29.8001 9.42625 38.3466 19.9124 38.3466C30.3985 38.3493 38.8989 29.8001 38.8989 19.2572Z" fill="#25225B"/>
<path d="M24.7671 26.3042H15.0609C12.4645 26.3042 10.3599 24.1882 10.3599 21.5777V16.9443C10.3599 14.3338 12.4645 12.2178 15.0609 12.2178H24.7671C27.3635 12.2178 29.4681 14.3338 29.4681 16.9443V21.5777C29.4681 24.1882 27.3635 26.3042 24.7671 26.3042Z" fill="white"/>
<path d="M23.7961 19.3025L17.4162 22.769C17.202 22.886 16.9455 22.7291 16.9455 22.4872L16.9429 15.5277C16.9429 15.2832 17.202 15.129 17.4162 15.2459L23.7988 18.739C24.0209 18.8613 24.0209 19.1829 23.7961 19.3025Z" fill="#25225B"/>
</svg>
