<svg width="35" height="12" viewBox="0 0 35 12" fill="none" xmlns="http://www.w3.org/2000/svg">
<g opacity="0.2" clip-path="url(#clip0_448_171)">
<g filter="url(#filter0_d_448_171)">
<path d="M0.386564 6.93611L5.09308 11.619C5.31223 11.8456 5.60952 11.981 5.92507 11.9982C6.24061 12.0153 6.55095 11.9128 6.79355 11.7113C6.91408 11.602 7.01115 11.4696 7.07893 11.3221C7.1467 11.1745 7.18378 11.0148 7.18792 10.8526C7.19206 10.6905 7.16319 10.5291 7.10303 10.3783C7.04287 10.2275 6.95267 10.0904 6.83786 9.9752L4.70624 7.85426C4.66104 7.79824 4.63179 7.73117 4.62156 7.66006C4.61133 7.58894 4.6205 7.5164 4.64809 7.45002C4.67568 7.38364 4.72069 7.32585 4.77841 7.2827C4.83614 7.23955 4.90445 7.21262 4.97622 7.20473H12.6686C12.9847 7.21109 13.2915 7.09795 13.5271 6.88813C13.7626 6.6783 13.9094 6.3874 13.9379 6.0741C13.9461 5.91116 13.9209 5.74826 13.8639 5.59531C13.8068 5.44237 13.719 5.30258 13.606 5.18444C13.4929 5.0663 13.3568 4.97229 13.2061 4.90812C13.0553 4.84394 12.893 4.81094 12.7291 4.81115H5.05519C4.99728 4.81115 4.9383 4.809 4.88471 4.78705C4.84847 4.77221 4.81446 4.75212 4.78381 4.72732C4.73055 4.68421 4.68924 4.62826 4.66381 4.5648C4.63837 4.50134 4.62966 4.43246 4.6385 4.36471C4.64413 4.32154 4.65676 4.27974 4.67576 4.24089C4.69745 4.19655 4.73186 4.1602 4.76686 4.12538L6.79758 2.10483C7.02612 1.88727 7.16287 1.59134 7.18008 1.2771C7.1973 0.962857 7.09367 0.653871 6.89025 0.412886C6.78077 0.293302 6.64817 0.196924 6.50038 0.129509C6.3526 0.0620937 6.19266 0.0250311 6.03015 0.0205393C5.86763 0.0160475 5.70588 0.0442142 5.55457 0.103362C5.40325 0.16251 5.26547 0.251422 5.14948 0.364775L0.394619 5.09582C0.150654 5.34005 0.0130558 5.66998 0.011548 6.01432C0.0100403 6.35866 0.144748 6.68977 0.386564 6.93611Z" fill="white"/>
</g>
<g filter="url(#filter1_d_448_171)">
<path d="M17.2059 7.20508H18.588C18.9086 7.20508 19.2161 7.07836 19.4428 6.85279C19.6695 6.62722 19.7969 6.32128 19.7969 6.00227C19.7969 5.68327 19.6695 5.37733 19.4428 5.15176C19.2161 4.92619 18.9086 4.79946 18.588 4.79946H17.2059C16.8853 4.79946 16.5778 4.92619 16.3511 5.15176C16.1244 5.37733 15.997 5.68327 15.997 6.00227C15.997 6.32128 16.1244 6.62722 16.3511 6.85279C16.5778 7.07836 16.8853 7.20508 17.2059 7.20508Z" fill="white"/>
</g>
<g filter="url(#filter2_d_448_171)">
<path d="M22.409 7.20508H23.7911C24.1117 7.20508 24.4192 7.07836 24.6459 6.85279C24.8726 6.62722 25 6.32128 25 6.00227C25 5.68327 24.8726 5.37733 24.6459 5.15176C24.4192 4.92619 24.1117 4.79946 23.7911 4.79946H22.409C22.0884 4.79946 21.7809 4.92619 21.5542 5.15176C21.3275 5.37733 21.2001 5.68327 21.2001 6.00227C21.2001 6.32128 21.3275 6.62722 21.5542 6.85279C21.7809 7.07836 22.0884 7.20508 22.409 7.20508Z" fill="white"/>
</g>
<g filter="url(#filter3_d_448_171)">
<path d="M27.2088 7.20508H28.5909C28.9116 7.20508 29.219 7.07836 29.4457 6.85279C29.6724 6.62722 29.7998 6.32128 29.7998 6.00227C29.7998 5.68327 29.6724 5.37733 29.4457 5.15176C29.219 4.92619 28.9116 4.79946 28.5909 4.79946H27.2088C26.8882 4.79946 26.5807 4.92619 26.354 5.15176C26.1273 5.37733 25.9999 5.68327 25.9999 6.00227C25.9999 6.32128 26.1273 6.62722 26.354 6.85279C26.5807 7.07836 26.8882 7.20508 27.2088 7.20508Z" fill="white"/>
</g>
<g filter="url(#filter4_d_448_171)">
<path d="M32.4119 7.20508H33.7941C34.1147 7.20508 34.4222 7.07836 34.6489 6.85279C34.8756 6.62722 35.0029 6.32128 35.0029 6.00227C35.0029 5.68327 34.8756 5.37733 34.6489 5.15176C34.4222 4.92619 34.1147 4.79946 33.7941 4.79946H32.4119C32.0913 4.79946 31.7838 4.92619 31.5571 5.15176C31.3304 5.37733 31.2031 5.68327 31.2031 6.00227C31.2031 6.32128 31.3304 6.62722 31.5571 6.85279C31.7838 7.07836 32.0913 7.20508 32.4119 7.20508Z" fill="white"/>
</g>
</g>
<defs>
<filter id="filter0_d_448_171" x="-3.98828" y="0.0205078" width="21.9277" height="19.9795" filterUnits="userSpaceOnUse" color-interpolation-filters="sRGB">
<feFlood flood-opacity="0" result="BackgroundImageFix"/>
<feColorMatrix in="SourceAlpha" type="matrix" values="0 0 0 0 0 0 0 0 0 0 0 0 0 0 0 0 0 0 127 0" result="hardAlpha"/>
<feOffset dy="4"/>
<feGaussianBlur stdDeviation="2"/>
<feComposite in2="hardAlpha" operator="out"/>
<feColorMatrix type="matrix" values="0 0 0 0 0 0 0 0 0 0 0 0 0 0 0 0 0 0 0.25 0"/>
<feBlend mode="normal" in2="BackgroundImageFix" result="effect1_dropShadow_448_171"/>
<feBlend mode="normal" in="SourceGraphic" in2="effect1_dropShadow_448_171" result="shape"/>
</filter>
<filter id="filter1_d_448_171" x="11.9971" y="4.7998" width="11.7998" height="10.4053" filterUnits="userSpaceOnUse" color-interpolation-filters="sRGB">
<feFlood flood-opacity="0" result="BackgroundImageFix"/>
<feColorMatrix in="SourceAlpha" type="matrix" values="0 0 0 0 0 0 0 0 0 0 0 0 0 0 0 0 0 0 127 0" result="hardAlpha"/>
<feOffset dy="4"/>
<feGaussianBlur stdDeviation="2"/>
<feComposite in2="hardAlpha" operator="out"/>
<feColorMatrix type="matrix" values="0 0 0 0 0 0 0 0 0 0 0 0 0 0 0 0 0 0 0.25 0"/>
<feBlend mode="normal" in2="BackgroundImageFix" result="effect1_dropShadow_448_171"/>
<feBlend mode="normal" in="SourceGraphic" in2="effect1_dropShadow_448_171" result="shape"/>
</filter>
<filter id="filter2_d_448_171" x="17.2002" y="4.7998" width="11.7998" height="10.4053" filterUnits="userSpaceOnUse" color-interpolation-filters="sRGB">
<feFlood flood-opacity="0" result="BackgroundImageFix"/>
<feColorMatrix in="SourceAlpha" type="matrix" values="0 0 0 0 0 0 0 0 0 0 0 0 0 0 0 0 0 0 127 0" result="hardAlpha"/>
<feOffset dy="4"/>
<feGaussianBlur stdDeviation="2"/>
<feComposite in2="hardAlpha" operator="out"/>
<feColorMatrix type="matrix" values="0 0 0 0 0 0 0 0 0 0 0 0 0 0 0 0 0 0 0.25 0"/>
<feBlend mode="normal" in2="BackgroundImageFix" result="effect1_dropShadow_448_171"/>
<feBlend mode="normal" in="SourceGraphic" in2="effect1_dropShadow_448_171" result="shape"/>
</filter>
<filter id="filter3_d_448_171" x="22" y="4.7998" width="11.7998" height="10.4053" filterUnits="userSpaceOnUse" color-interpolation-filters="sRGB">
<feFlood flood-opacity="0" result="BackgroundImageFix"/>
<feColorMatrix in="SourceAlpha" type="matrix" values="0 0 0 0 0 0 0 0 0 0 0 0 0 0 0 0 0 0 127 0" result="hardAlpha"/>
<feOffset dy="4"/>
<feGaussianBlur stdDeviation="2"/>
<feComposite in2="hardAlpha" operator="out"/>
<feColorMatrix type="matrix" values="0 0 0 0 0 0 0 0 0 0 0 0 0 0 0 0 0 0 0.25 0"/>
<feBlend mode="normal" in2="BackgroundImageFix" result="effect1_dropShadow_448_171"/>
<feBlend mode="normal" in="SourceGraphic" in2="effect1_dropShadow_448_171" result="shape"/>
</filter>
<filter id="filter4_d_448_171" x="27.2031" y="4.7998" width="11.7998" height="10.4053" filterUnits="userSpaceOnUse" color-interpolation-filters="sRGB">
<feFlood flood-opacity="0" result="BackgroundImageFix"/>
<feColorMatrix in="SourceAlpha" type="matrix" values="0 0 0 0 0 0 0 0 0 0 0 0 0 0 0 0 0 0 127 0" result="hardAlpha"/>
<feOffset dy="4"/>
<feGaussianBlur stdDeviation="2"/>
<feComposite in2="hardAlpha" operator="out"/>
<feColorMatrix type="matrix" values="0 0 0 0 0 0 0 0 0 0 0 0 0 0 0 0 0 0 0.25 0"/>
<feBlend mode="normal" in2="BackgroundImageFix" result="effect1_dropShadow_448_171"/>
<feBlend mode="normal" in="SourceGraphic" in2="effect1_dropShadow_448_171" result="shape"/>
</filter>
<clipPath id="clip0_448_171">
<rect width="35" height="12" fill="white" transform="translate(35 12) rotate(-180)"/>
</clipPath>
</defs>
</svg>
