<svg width="35" height="12" viewBox="0 0 35 12" fill="none" xmlns="http://www.w3.org/2000/svg">
<g opacity="0.2">
<g clip-path="url(#clip0_448_166)">
<g filter="url(#filter0_d_448_166)">
<path d="M34.6134 5.06389L29.9069 0.380963C29.6878 0.154429 29.3905 0.018955 29.0749 0.00184335C28.7594 -0.0152683 28.4491 0.0872495 28.2065 0.288743C28.0859 0.398 27.9888 0.530388 27.9211 0.677945C27.8533 0.825502 27.8162 0.985179 27.8121 1.14736C27.8079 1.30955 27.8368 1.47088 27.897 1.62168C27.9571 1.77247 28.0473 1.9096 28.1621 2.0248L30.2938 4.14574C30.339 4.20176 30.3682 4.26883 30.3784 4.33994C30.3887 4.41106 30.3795 4.4836 30.3519 4.54998C30.3243 4.61636 30.2793 4.67415 30.2216 4.7173C30.1639 4.76045 30.0955 4.78738 30.0238 4.79527H22.3314C22.0153 4.78891 21.7085 4.90205 21.4729 5.11187C21.2374 5.3217 21.0906 5.6126 21.0621 5.9259C21.0539 6.08884 21.0791 6.25174 21.1361 6.40469C21.1932 6.55763 21.281 6.69742 21.394 6.81556C21.5071 6.9337 21.6432 7.02771 21.7939 7.09188C21.9447 7.15606 22.107 7.18906 22.2709 7.18885H29.9448C30.0027 7.18885 30.0617 7.191 30.1153 7.21295C30.1515 7.22779 30.1855 7.24788 30.2162 7.27268C30.2695 7.31579 30.3108 7.37174 30.3362 7.4352C30.3616 7.49866 30.3703 7.56754 30.3615 7.63529C30.3559 7.67846 30.3432 7.72026 30.3242 7.75911C30.3026 7.80345 30.2681 7.8398 30.2331 7.87462L28.2024 9.89517C27.9739 10.1127 27.8371 10.4087 27.8199 10.7229C27.8027 11.0371 27.9063 11.3461 28.1097 11.5871C28.2192 11.7067 28.3518 11.8031 28.4996 11.8705C28.6474 11.9379 28.8073 11.975 28.9699 11.9795C29.1324 11.984 29.2941 11.9558 29.4454 11.8966C29.5968 11.8375 29.7345 11.7486 29.8505 11.6352L34.6054 6.90418C34.8493 6.65995 34.9869 6.33002 34.9885 5.98568C34.99 5.64134 34.8553 5.31023 34.6134 5.06389Z" fill="white"/>
</g>
<g filter="url(#filter1_d_448_166)">
<path d="M17.7941 4.79492H16.412C16.0914 4.79492 15.7839 4.92164 15.5572 5.14721C15.3305 5.37278 15.2031 5.67872 15.2031 5.99773C15.2031 6.31673 15.3305 6.62267 15.5572 6.84824C15.7839 7.07381 16.0914 7.20054 16.412 7.20054H17.7941C18.1147 7.20054 18.4222 7.07381 18.6489 6.84824C18.8756 6.62267 19.003 6.31673 19.003 5.99773C19.003 5.67872 18.8756 5.37278 18.6489 5.14721C18.4222 4.92164 18.1147 4.79492 17.7941 4.79492Z" fill="white"/>
</g>
<g filter="url(#filter2_d_448_166)">
<path d="M12.591 4.79492H11.2089C10.8883 4.79492 10.5808 4.92164 10.3541 5.14721C10.1274 5.37278 10 5.67872 10 5.99773C10 6.31673 10.1274 6.62267 10.3541 6.84824C10.5808 7.07381 10.8883 7.20054 11.2089 7.20054H12.591C12.9116 7.20054 13.2191 7.07381 13.4458 6.84824C13.6725 6.62267 13.7999 6.31673 13.7999 5.99773C13.7999 5.67872 13.6725 5.37278 13.4458 5.14721C13.2191 4.92164 12.9116 4.79492 12.591 4.79492Z" fill="white"/>
</g>
<g filter="url(#filter3_d_448_166)">
<path d="M7.79412 4.79492H6.41199C6.09138 4.79492 5.78389 4.92164 5.55719 5.14721C5.33048 5.37278 5.20312 5.67872 5.20312 5.99773C5.20312 6.31673 5.33048 6.62267 5.55719 6.84824C5.78389 7.07381 6.09138 7.20054 6.41199 7.20054H7.79412C8.11473 7.20054 8.42221 7.07381 8.64891 6.84824C8.87562 6.62267 9.00299 6.31673 9.00299 5.99773C9.00299 5.67872 8.87562 5.37278 8.64891 5.14721C8.42221 4.92164 8.11473 4.79492 7.79412 4.79492Z" fill="white"/>
</g>
<g filter="url(#filter4_d_448_166)">
<path d="M2.591 4.79492H1.20887C0.888254 4.79492 0.580768 4.92164 0.354061 5.14721C0.127355 5.37278 0 5.67872 0 5.99773C0 6.31673 0.127355 6.62267 0.354061 6.84824C0.580768 7.07381 0.888254 7.20054 1.20887 7.20054H2.591C2.91161 7.20054 3.21908 7.07381 3.44579 6.84824C3.6725 6.62267 3.79986 6.31673 3.79986 5.99773C3.79986 5.67872 3.6725 5.37278 3.44579 5.14721C3.21908 4.92164 2.91161 4.79492 2.591 4.79492Z" fill="white"/>
</g>
</g>
</g>
<defs>
<filter id="filter0_d_448_166" x="17.0605" y="0" width="21.9277" height="19.9795" filterUnits="userSpaceOnUse" color-interpolation-filters="sRGB">
<feFlood flood-opacity="0" result="BackgroundImageFix"/>
<feColorMatrix in="SourceAlpha" type="matrix" values="0 0 0 0 0 0 0 0 0 0 0 0 0 0 0 0 0 0 127 0" result="hardAlpha"/>
<feOffset dy="4"/>
<feGaussianBlur stdDeviation="2"/>
<feComposite in2="hardAlpha" operator="out"/>
<feColorMatrix type="matrix" values="0 0 0 0 0 0 0 0 0 0 0 0 0 0 0 0 0 0 0.25 0"/>
<feBlend mode="normal" in2="BackgroundImageFix" result="effect1_dropShadow_448_166"/>
<feBlend mode="normal" in="SourceGraphic" in2="effect1_dropShadow_448_166" result="shape"/>
</filter>
<filter id="filter1_d_448_166" x="11.2031" y="4.79492" width="11.7998" height="10.4053" filterUnits="userSpaceOnUse" color-interpolation-filters="sRGB">
<feFlood flood-opacity="0" result="BackgroundImageFix"/>
<feColorMatrix in="SourceAlpha" type="matrix" values="0 0 0 0 0 0 0 0 0 0 0 0 0 0 0 0 0 0 127 0" result="hardAlpha"/>
<feOffset dy="4"/>
<feGaussianBlur stdDeviation="2"/>
<feComposite in2="hardAlpha" operator="out"/>
<feColorMatrix type="matrix" values="0 0 0 0 0 0 0 0 0 0 0 0 0 0 0 0 0 0 0.25 0"/>
<feBlend mode="normal" in2="BackgroundImageFix" result="effect1_dropShadow_448_166"/>
<feBlend mode="normal" in="SourceGraphic" in2="effect1_dropShadow_448_166" result="shape"/>
</filter>
<filter id="filter2_d_448_166" x="6" y="4.79492" width="11.7998" height="10.4053" filterUnits="userSpaceOnUse" color-interpolation-filters="sRGB">
<feFlood flood-opacity="0" result="BackgroundImageFix"/>
<feColorMatrix in="SourceAlpha" type="matrix" values="0 0 0 0 0 0 0 0 0 0 0 0 0 0 0 0 0 0 127 0" result="hardAlpha"/>
<feOffset dy="4"/>
<feGaussianBlur stdDeviation="2"/>
<feComposite in2="hardAlpha" operator="out"/>
<feColorMatrix type="matrix" values="0 0 0 0 0 0 0 0 0 0 0 0 0 0 0 0 0 0 0.25 0"/>
<feBlend mode="normal" in2="BackgroundImageFix" result="effect1_dropShadow_448_166"/>
<feBlend mode="normal" in="SourceGraphic" in2="effect1_dropShadow_448_166" result="shape"/>
</filter>
<filter id="filter3_d_448_166" x="1.20312" y="4.79492" width="11.7998" height="10.4053" filterUnits="userSpaceOnUse" color-interpolation-filters="sRGB">
<feFlood flood-opacity="0" result="BackgroundImageFix"/>
<feColorMatrix in="SourceAlpha" type="matrix" values="0 0 0 0 0 0 0 0 0 0 0 0 0 0 0 0 0 0 127 0" result="hardAlpha"/>
<feOffset dy="4"/>
<feGaussianBlur stdDeviation="2"/>
<feComposite in2="hardAlpha" operator="out"/>
<feColorMatrix type="matrix" values="0 0 0 0 0 0 0 0 0 0 0 0 0 0 0 0 0 0 0.25 0"/>
<feBlend mode="normal" in2="BackgroundImageFix" result="effect1_dropShadow_448_166"/>
<feBlend mode="normal" in="SourceGraphic" in2="effect1_dropShadow_448_166" result="shape"/>
</filter>
<filter id="filter4_d_448_166" x="-4" y="4.79492" width="11.7998" height="10.4053" filterUnits="userSpaceOnUse" color-interpolation-filters="sRGB">
<feFlood flood-opacity="0" result="BackgroundImageFix"/>
<feColorMatrix in="SourceAlpha" type="matrix" values="0 0 0 0 0 0 0 0 0 0 0 0 0 0 0 0 0 0 127 0" result="hardAlpha"/>
<feOffset dy="4"/>
<feGaussianBlur stdDeviation="2"/>
<feComposite in2="hardAlpha" operator="out"/>
<feColorMatrix type="matrix" values="0 0 0 0 0 0 0 0 0 0 0 0 0 0 0 0 0 0 0.25 0"/>
<feBlend mode="normal" in2="BackgroundImageFix" result="effect1_dropShadow_448_166"/>
<feBlend mode="normal" in="SourceGraphic" in2="effect1_dropShadow_448_166" result="shape"/>
</filter>
<clipPath id="clip0_448_166">
<rect width="35" height="12" fill="white"/>
</clipPath>
</defs>
</svg>
