<svg width="191" height="245" viewBox="0 0 191 245" fill="none" xmlns="http://www.w3.org/2000/svg">
<path d="M82.5895 163.618C82.5895 155.243 84.1061 148.201 87.1394 142.49C90.3622 136.59 94.1538 131.831 98.5141 128.214C102.874 124.598 108.467 120.696 115.292 116.508C123.065 111.75 128.752 107.562 132.354 103.946C135.956 100.139 137.757 95.4754 137.757 89.9554V79.6769C137.757 73.7762 135.672 69.1128 131.501 65.6866C127.33 62.0701 121.738 60.2618 114.723 60.2618H90.2674C82.6842 60.2618 76.6177 62.8315 72.0678 67.9707C68.4614 71.8934 66.2843 76.8923 65.5364 82.9675C65.199 85.7083 63.0044 87.9568 60.2429 87.9568H31C28.2386 87.9568 25.9813 85.7151 26.1539 82.959C26.7892 72.8123 29.392 63.7238 33.9623 55.6936C39.2706 46.1764 46.7589 38.8482 56.4275 33.7089C66.2856 28.5696 77.5656 26 90.2674 26H114.723C127.046 26 137.852 28.2841 147.141 32.8524C156.62 37.2303 163.919 43.5116 169.038 51.6964C174.346 59.6908 177 69.0176 177 79.6769V89.9554C177 98.5209 175.483 105.659 172.45 111.369C169.606 117.079 166.099 121.552 161.928 124.788C157.947 128.024 152.544 131.736 145.719 135.923C137.757 140.492 131.785 144.87 127.804 149.057C123.823 153.054 121.832 158.669 121.832 165.902C121.832 168.11 120.043 169.9 117.835 169.9H87.5895C84.828 169.9 82.5895 167.661 82.5895 164.9V163.618ZM102.211 231C95.1965 231 89.5091 228.906 85.1488 224.719C80.978 220.341 78.8927 214.63 78.8927 207.588C78.8927 200.545 80.978 194.93 85.1488 190.742C89.5091 186.364 95.1965 184.175 102.211 184.175C109.225 184.175 114.818 186.364 118.989 190.742C123.349 194.93 125.529 200.545 125.529 207.588C125.529 214.63 123.349 220.341 118.989 224.719C114.818 228.906 109.225 231 102.211 231Z" fill="#3A393E"/>
<g filter="url(#filter0_d_450_183)">
<path d="M72.5895 153.618C72.5895 145.243 74.1061 138.201 77.1394 132.49C80.3622 126.59 84.1538 121.831 88.5141 118.214C92.8745 114.598 98.467 110.696 105.292 106.508C113.065 101.75 118.752 97.5622 122.354 93.9457C125.956 90.1388 127.757 85.4754 127.757 79.9554V69.6769C127.757 63.7762 125.672 59.1128 121.501 55.6866C117.33 52.0701 111.738 50.2618 104.723 50.2618H80.2674C72.6842 50.2618 66.6177 52.8315 62.0678 57.9707C58.4614 61.8934 56.2843 66.8923 55.5364 72.9675C55.199 75.7083 53.0044 77.9568 50.2429 77.9568H21C18.2386 77.9568 15.9813 75.7151 16.1539 72.959C16.7892 62.8123 19.392 53.7238 23.9623 45.6936C29.2706 36.1764 36.7589 28.8482 46.4275 23.7089C56.2856 18.5696 67.5656 16 80.2674 16H104.723C117.046 16 127.852 18.2841 137.141 22.8524C146.62 27.2303 153.919 33.5116 159.038 41.6964C164.346 49.6908 167 59.0176 167 69.6769V79.9554C167 88.5209 165.483 95.6588 162.45 101.369C159.606 107.079 156.099 111.552 151.928 114.788C147.947 118.024 142.544 121.736 135.719 125.923C127.757 130.492 121.785 134.87 117.804 139.057C113.823 143.054 111.832 148.669 111.832 155.902C111.832 158.11 110.043 159.9 107.835 159.9H77.5895C74.828 159.9 72.5895 157.661 72.5895 154.9V153.618ZM92.2109 221C85.1965 221 79.5091 218.906 75.1488 214.719C70.978 210.341 68.8927 204.63 68.8927 197.588C68.8927 190.545 70.978 184.93 75.1488 180.742C79.5091 176.364 85.1965 174.175 92.2109 174.175C99.2254 174.175 104.818 176.364 108.989 180.742C113.349 184.93 115.529 190.545 115.529 197.588C115.529 204.63 113.349 210.341 108.989 214.719C104.818 218.906 99.2254 221 92.2109 221Z" fill="url(#paint0_linear_450_183)"/>
</g>
<defs>
<filter id="filter0_d_450_183" x="0.144531" y="0" width="190.855" height="245" filterUnits="userSpaceOnUse" color-interpolation-filters="sRGB">
<feFlood flood-opacity="0" result="BackgroundImageFix"/>
<feColorMatrix in="SourceAlpha" type="matrix" values="0 0 0 0 0 0 0 0 0 0 0 0 0 0 0 0 0 0 127 0" result="hardAlpha"/>
<feOffset dx="4" dy="4"/>
<feGaussianBlur stdDeviation="10"/>
<feComposite in2="hardAlpha" operator="out"/>
<feColorMatrix type="matrix" values="0 0 0 0 0 0 0 0 0 0 0 0 0 0 0 0 0 0 0.5 0"/>
<feBlend mode="normal" in2="BackgroundImageFix" result="effect1_dropShadow_450_183"/>
<feBlend mode="normal" in="SourceGraphic" in2="effect1_dropShadow_450_183" result="shape"/>
</filter>
<linearGradient id="paint0_linear_450_183" x1="167" y1="221" x2="17.7379" y2="111.056" gradientUnits="userSpaceOnUse">
<stop stop-color="#8E2486"/>
<stop offset="0.333333" stop-color="#D23A63"/>
<stop offset="0.6875" stop-color="#EB5145"/>
<stop offset="1" stop-color="#F16A26"/>
</linearGradient>
</defs>
</svg>
