<svg width="236" height="807" viewBox="0 0 236 807" fill="none" xmlns="http://www.w3.org/2000/svg">
<g opacity="0.8">
<path d="M139.578 428.33C138.909 433.692 138.641 438.802 140.046 443.327C134.117 465.177 132.016 467.206 116.627 469.138C114.909 468.103 113.757 466.476 113.503 463.578C114.65 454.386 110.375 447.199 113.998 436.918C119.612 433.381 118.556 430.988 115.686 428.326C112.212 420.634 114.206 412.556 121.832 403.752C123.959 400.53 126.32 397.396 128.682 394.261C130.312 392.058 132.413 390.029 134.653 388.853C141.647 391.033 133.594 401.282 136.107 405.815C137.366 413.492 139.993 420.07 139.578 428.33Z" fill="#F8AE55"/>
<path d="M-51.516 182.003C-50.7699 181.058 -50.0239 180.112 -49.4464 179.512C-37.9792 179.239 -29.066 185.34 -17.2617 184.379C-15.7947 183.697 -14.0873 183.103 -12.6203 182.422C-11.0815 182.172 -9.71132 182.267 -8.43802 183.139C-2.74584 188.875 0.180822 195.629 -11.4874 205.573C-24.2604 214.301 -34.16 209.057 -45.3868 209.418C-51.2047 209.726 -52.9298 203.411 -51.0716 195.564C-49.5291 191.256 -50.6805 188.399 -52.0004 185.886C-52.1438 185.022 -52.1187 183.813 -51.516 182.003Z" fill="#F89C2E"/>
<path d="M61.5851 280C68.4951 292.819 79.0947 300.406 91.1264 305.637C96.5358 308.031 102.018 310.862 103.495 318.399C102.791 321.021 101.213 322.5 99.0053 322.926C74.5787 310.273 48.21 301.024 30.9445 276.593C41.7922 267.811 49.6768 268.642 61.5851 280Z" fill="#FB9F30"/>
<path d="M6.89235 641.384C0.919396 643.698 -4.32612 642.189 -9.25763 641.203C-20.1598 638.442 -32.1508 637.328 -38.1644 625.723C-39.5152 620.321 -38.8352 614.845 -33.1265 609.571C-16.2514 610.018 -1.57887 614.976 7.45501 629.73C8.68618 633.043 10.9813 635.928 6.89235 641.384Z" fill="#EC9835"/>
<path d="M117.534 465.974C130.435 468.362 134.973 454.471 141.26 443.224C149.05 453.301 134.483 466.269 134.088 477.305C124.52 480.545 124.523 491.329 119.81 498.766C116.316 504.259 114.334 501.528 112.162 500.323C110.826 489.445 108.227 478.897 117.534 465.974Z" fill="#FACE99"/>
<path d="M93.7733 542.592C91.7697 554.684 83.5191 562.467 75.677 565.991C70.315 568.424 66.0811 573.68 61.0508 575.433C58.0427 567.909 59.4975 559.224 65.7911 550.317C73.7033 547.22 80.1627 537.974 87.839 534.79C91.4729 535.328 94.2076 537.139 93.7733 542.592Z" fill="#FCE0BE"/>
<path d="M102.875 321.181C103.38 320.148 104.127 319.202 104.632 318.169C107.108 319.48 109.174 321.048 111.649 322.359C114.049 327.298 110.627 336.604 116.876 338.89C117.69 342.436 116.413 345.624 113.837 349.149C112.514 350.695 110.878 351.722 109.411 352.403C103.254 353.401 98.9782 349.401 93.4249 348.588C85.0841 345.944 84.8547 333.678 78.3436 328.454C77.3104 327.67 79.8146 323.713 81.9563 321.654C88.7653 316.428 92.5608 320.252 97.5365 321.665C99.5814 320.383 100.13 325.05 102.875 321.181Z" fill="#F79E32"/>
<path d="M60.7683 279.821C50.9326 277.855 41.532 274.418 30.7542 274.959C24.5282 282.461 18.6212 282.338 12.4731 282.127C7.96538 280.887 5.60491 277.579 6.55002 270.999C13.8152 260.211 23.2158 263.648 30.816 256.242C35.2298 254.189 38.6043 255.423 41.0618 257.951C45.0345 265.514 54.1001 265.569 58.2418 272.787C60.3142 274.359 61.7354 276.101 60.7683 279.821Z" fill="#FBD09D"/>
<path d="M32.9822 223.442C36.8879 222.426 40.7937 221.411 44.6995 220.395C52.048 225.118 61.1334 228.032 60.5203 242.063C58.9994 245.172 57.0465 245.68 55.1906 245.409C51.6479 244.521 50.108 240.7 46.9032 239.121C44.2524 238.152 41.3356 238.307 38.0088 238.72C35.574 239.052 32.9701 239.729 30.1972 240.751C28.0754 241.605 26.0505 241.679 24.3636 241.062C21.3998 239.572 20.004 236.618 20.586 231.943C20.949 230.039 21.6249 228.657 22.9518 227.106C26.3287 224.268 29.4614 225.413 32.9822 223.442Z" fill="#F9B769"/>
<path d="M139.031 428.656C135.29 423.273 132.512 417.048 132.692 408.719C139.113 384.712 139.113 384.712 147.352 378.568C146.641 382.303 144.969 386.881 145.62 389.52C149.137 401.616 145.315 414.592 139.031 428.656Z" fill="#FCE1C0"/>
<path d="M-19.6883 642.492C-18.4898 651.074 -11.7184 652.328 -6.7806 656.169C-1.36092 660.186 -4.35235 663.979 -9.77818 668.103C-21.1056 668.034 -27.4859 659.593 -34.7111 652.88C-36.6356 648.104 -41.1885 645.218 -35.8315 636.589C-28.5032 634.382 -22.3575 634.593 -19.6883 642.492Z" fill="#FBB665"/>
<path d="M66.8237 549.5C63.3819 558.263 62.7299 566.448 60.8011 574.965C56.3067 577.322 51.8567 581.299 47.6052 579.733C48.2829 570.353 41.7018 562.713 50.8447 550.835C53.5198 548.21 56.4757 547.293 59.3613 545.948C62.3171 545.031 65.1069 544.454 66.6388 547.025C66.7791 547.879 66.6834 548.646 66.8237 549.5Z" fill="#F7AD52"/>
<path d="M53.0904 549.815C49.3027 555.266 47.4412 560.217 49.978 564.771C52.2771 569.238 51.5328 574.196 47.5075 579.56C45.9151 579.378 44.2265 579.965 42.8206 582.266C41.3696 582.941 40.2523 582.933 39.3982 581.814C38.4735 580.267 37.5487 578.72 36.624 577.173C32.328 572.778 22.6264 574.85 25.0457 562.457C29.8544 557.783 35.6269 560.306 39.9153 553.831C45.1736 550.53 50.0589 542.263 55.6646 545.126C55.639 546.324 55.3759 547.435 54.6376 548.371C53.7324 549.649 53.328 549.903 53.0904 549.815Z" fill="#F49A2D"/>
<path d="M114.436 497.992C116.322 498.688 117.876 500.063 120.687 498.293C116.091 509.425 116.796 524.516 101.572 528.923C95.9774 531.269 92.9383 528.945 92.1937 523.059C95.2863 508.166 109.203 509.29 114.436 497.992Z" fill="#F9BA6E"/>
<path d="M6.72897 641.675C7.68651 637.998 6.28439 636.275 4.47711 634.806C6.15998 623.338 -4.19375 621.553 -3.4882 610.935C4.69588 598.227 9.08936 605.882 14.5622 607.89C16.2987 608.93 17.225 610.479 17.0068 613.219C12.783 620.129 13.9415 625.791 13.9811 631.445C14.3294 637.616 12.182 640.857 6.72897 641.675Z" fill="#F8A441"/>
<path d="M26.2106 189.434C20.7375 194.807 16.8216 183.541 10.5957 193.965C-0.154143 199.046 -5.20973 191.869 -10.8713 186.52C-11.5002 185.47 -12.129 184.42 -12.5159 183.459C4.91718 173.448 15.2247 182.137 26.2106 189.434Z" fill="#FCE6CC"/>
<path d="M113.933 347.255C115.281 344.504 116.459 342.097 115.621 339.763C111.756 339.566 108.182 337.042 112.316 332.066C117.941 325.203 121.225 330.054 123.789 334.641C131.199 342.623 138.201 350.861 138.379 365.523C137.608 367.674 136.383 368.443 134.678 369.035C132.421 369.021 131.078 367.718 129.903 366.072C127.609 356.312 122.093 350.24 113.933 347.255Z" fill="#FBD4A6"/>
<path d="M95.1471 519.2C94.0401 526.059 99.1728 525.922 102.011 528.173C97.5176 532.177 101.183 540.784 93.4455 542.792C90.4401 540.883 87.4346 538.975 84.2616 537.408C83.5764 531.91 78.3777 527.584 84.0692 519.984C88.1106 514.604 92.7662 514.292 95.1471 519.2Z" fill="#F8BB71"/>
<path d="M138.045 367.714C138.606 367.124 139.099 366.109 139.661 365.519C144.727 366.999 147.148 371.092 146.761 378.134C137.168 386.551 139.644 399.047 132.152 408.244C125.174 404.458 136.358 395.033 133.962 389.753C133.718 382.876 133.638 375.66 138.045 367.714Z" fill="#FAC485"/>
<path d="M123.127 334.66C121.292 334.39 119.791 333.436 118.027 333.596C116.43 333.413 115.219 330.147 113.475 333.136C110.99 337.063 113.849 338.111 114.848 340.09C99.801 343.845 111.143 329.862 111.605 323.177C119.975 321.005 122.494 326.767 123.127 334.66Z" fill="#FACB92"/>
<path d="M40.949 581.241C41.893 581.589 42.601 581.85 43.5449 582.198C44.3931 583.312 47.2951 584.783 44.3161 586.893C37.1526 591.873 31.2391 597.714 28.508 606.733C26.0967 608.251 24.2789 607.982 22.7929 607.033C21.7788 606.258 21.1666 605.231 20.7203 603.863C20.6759 602.242 21.1034 600.796 21.6968 599.009C23.4257 596.037 25.9328 593.753 28.344 592.235C30.1174 590.884 31.7248 589.872 33.1921 588.007C34.6593 586.141 35.9607 584.616 37.664 582.837C38.6336 581.992 39.8392 581.233 40.949 581.241Z" fill="#FCCD96"/>
<path d="M57.3128 243.709C58.613 243.371 59.9132 243.033 61.1415 242.263C66.0513 243.245 69.4422 247.33 75.1241 246.155C75.3397 247.454 75.3146 248.664 74.4707 250.389C73.5549 251.68 72.3266 252.451 71.267 252.877C66.6446 253.627 62.8194 251.008 57.3279 254.693L57.4248 253.915C53.8619 254.239 53.5995 251.297 54.0842 247.408C54.4468 245.508 55.6032 244.304 57.3128 243.709Z" fill="#F8B360"/>
<path d="M21.7089 601.803C22.2573 602.408 23.212 602.758 23.7605 603.362C22.562 606.96 29.4632 606.663 24.3697 612.466C22.0541 612.021 19.8349 610.804 16.8946 613.36C15.6302 612.493 14.127 611.538 12.8626 610.671C13.0099 607.496 15.0666 605.02 16.646 602.37C17.555 601.088 18.5351 600.237 19.9925 599.56C20.9472 599.909 21.4956 600.514 21.7089 601.803Z" fill="#FDA842"/>
<path d="M57.2127 254.549C63.0996 247.741 67.0996 250.017 71.1716 252.728C67.2656 253.744 63.3597 254.759 59.4537 255.775L58.4177 254.989L57.2127 254.549Z" fill="#F9BD75"/>
<path d="M24.3157 612.902C24.0567 609.981 23.9653 606.718 23.7063 603.797C25.2096 604.752 26.9517 605.794 28.4551 606.749C28.7852 610.099 28.8765 613.362 24.3157 612.902Z" fill="#F8B15C"/>
<path d="M71.175 253.009C72.082 251.73 72.5837 250.705 73.4907 249.426C74.7066 248.663 76.1607 247.987 77.5183 248.082C78.6123 249.29 78.6577 250.918 77.3454 252.452C74.7917 255.948 73.0797 253.708 71.175 253.009Z" fill="#F9BD75"/>
<path d="M77.6039 247.778C76.146 248.456 74.8556 248.79 73.5653 249.125C74.0682 248.098 74.8099 247.159 75.3128 246.132C75.8614 246.736 76.6489 247.429 77.6039 247.778Z" fill="#F9C07C"/>
<path d="M94.4334 519.4C84.7416 521.789 84.7415 521.789 87.1539 529.869C88.4075 533.527 84.9266 535.029 83.6143 537.734C79.739 550.265 73.4077 553.103 65.7791 550.671L66.4353 549.318C63.0207 540.468 67.9419 530.321 73.0016 521.024C76.4208 515.109 82.8725 510.32 80.7626 502.752C80.3217 501.391 81.0983 498.087 82.5927 497.844C99.3848 493.3 92.3915 475.938 100.043 466.405C100.353 462.928 101.06 459.2 103.867 456.25C105.456 455.244 106.881 454.575 108.376 454.332C113.092 453.688 116.591 454.986 117.491 460.509C117.535 462.121 117.345 463.647 117.389 465.26C116.294 476.029 114.803 487.05 113.709 497.818C112.553 504.174 113.868 512.245 104.392 511.921C100.634 511.724 97.1965 514.838 94.4334 519.4Z" fill="#F49C32"/>
<path d="M115.871 461.078C112.933 458.374 108.811 458.089 104.592 458.583C97.15 450.568 86.015 448.94 77.4867 442.564C72.9331 439.678 66.9556 439.121 62.0641 436.926C58.4744 434.392 54.7157 432.203 56.2397 425.022C64.3701 415.369 70.5135 419.651 76.056 421.678C81.5266 423.271 87.5041 423.827 89.5759 425.399C85.7202 423.989 78.2968 422.904 72.2254 419.055C69.2147 415.918 64.564 413.811 68.6198 405.519C82.9907 399.37 92.2418 406.01 101.831 411.959C105.199 421.336 114.356 424.684 115.577 436.127C112.388 445.55 120.218 450.449 115.871 461.078Z" fill="#F79622"/>
<path d="M114.635 436.247C109.261 430.653 101.677 427.865 100.792 417.09C100.94 413.929 99.8764 411.528 98.6465 409.468C96.8273 405.182 93.727 401.228 96.7503 393.9C103.027 383.347 110.547 381.691 118.183 382.087C120.636 390.224 124.614 379.227 127.887 378.823C136.778 380.083 129.79 390.374 129.662 396.356C127.356 399.929 125.453 403.249 123.147 406.822C119.375 408.248 113.257 407.606 113.091 407.947C110.919 416.393 113.424 422.136 116.736 427.373C121.213 430.226 118.126 433.109 114.635 436.247Z" fill="#F59A2C"/>
<path d="M129.155 396.875C125.828 392.841 131.755 382.986 126.417 380.217C123.519 374.736 122.3 368.669 128.577 360.95C130.799 360.966 132.523 362.002 132.778 364.905C134.266 365.854 135.754 366.804 137.241 367.753C137.088 374.919 139.322 381.761 133.351 389.994C131.952 392.288 130.553 394.581 129.155 396.875Z" fill="#F6A23D"/>
<path d="M116.933 427.723C104.994 425.756 109.843 411.833 110.837 398.911C114.828 402.792 118.106 406.411 123.291 406.704C112.6 413.651 117.086 420.532 116.933 427.723Z" fill="#F7A039"/>
<path d="M-44.3494 191.972C-54.096 202.023 -47.0991 207.068 -43.4053 205.945C-31.9108 202.317 -23.578 209.917 -11.6939 203.128C-5.93433 200.699 -2.217 202.476 0.138857 207.057C-1.19908 212.76 5.28939 210.599 4.70499 215.34C3.65925 218.672 1.98197 220.947 -0.982908 222.337C-31.2354 221.56 -57.8894 212.193 -85.9049 205.63C-88.8205 204.56 -91.5659 203.14 -93.5579 200.757C-96.0111 196.967 -96.739 192.57 -91.5617 186.624C-74.9894 186.098 -57.8819 183.29 -44.3494 191.972Z" fill="#FA9A27"/>
<path d="M-0.789118 211.548C-4.60483 208.935 -8.34888 206.755 -12.1646 204.142C-1.49358 195.067 -10.3756 191.818 -10.6582 186.037C-3.69656 188.583 3.67347 190.873 10.6351 193.419L9.8181 193.932C10.8421 202.823 7.5703 208.927 -0.789118 211.548Z" fill="#F69F36"/>
<path d="M15.664 278.571C20.9265 277.182 26.1159 275.35 31.3784 273.961C54.7881 289.653 78.3684 304.992 102.022 320.774C103.069 321.576 104.75 323.443 103.337 324.586C100.51 326.872 99.2684 323.503 97.3196 322.785C85.1146 319.538 73.4214 315.231 62.24 309.865C44.4565 303.316 26.8437 296.413 7.08623 294.543C-12.1355 294.534 -27.0681 284.459 -45.9487 283.744C-47.5809 283.558 -48.9695 283.463 -50.4312 282.924C-56.0096 279.622 -62.9282 277.906 -63.8039 268.434C-60.2209 256.86 -54.2283 259.899 -49.2341 259.659C-38.3441 259.095 -28.3561 262.774 -16.1253 256.465C-11.9594 256.752 -10.9611 260.031 -11.0593 264.985C-13.9114 276.828 -5.3599 274.57 -0.804358 275.832C4.06782 277.627 8.91542 280.66 15.664 278.571Z" fill="#FC9D27"/>
<path d="M-33.1746 610.45C-33.7269 605.758 -32.0594 603.51 -27.9306 603.795C-25.1781 603.985 -22.2563 603.829 -19.5037 604.019C-11.9926 601.459 -4.98927 599.938 -3.40173 609.499C0.505396 616.642 9.67877 619.996 3.94677 634.637C-2.75492 617.491 -22.3638 620.934 -33.1746 610.45Z" fill="#FCA53D"/>
<path d="M81.9503 321.577C81.6105 322.275 81.2707 322.973 81.1008 323.322C89.5158 325.994 87.6919 339.718 94.1901 344.566C93.8256 346.489 92.7335 348.145 91.1565 349.623C76.4828 350.417 72.0946 345.931 71.7607 330.182C71.6881 329.744 71.858 329.395 70.4756 329.3C57.9365 329.23 46.9033 323.133 32.446 329.352C21.7497 330.779 12.0002 329.676 2.85765 326.738C-1.24021 324.003 -8.2002 321.865 -4.53498 313.749C-0.432673 304.149 7.71662 303.844 14.241 303.355C17.8306 303.025 20.4735 305.227 24.0631 304.897C29.8353 305.366 35.6075 305.836 41.5495 305.956C54.6956 304.192 64.904 310.81 76.9333 311.926C80.9833 312.999 84.0385 314.94 81.9503 321.577Z" fill="#F89620"/>
<path d="M93.1026 348.963C94.017 347.674 94.5225 346.641 95.4369 345.352C103.586 341.433 106.006 349.217 111.7 350.894C120.208 349.135 126.453 351.419 127.693 361.613C127.158 367.911 126.624 374.209 125.849 380.419C122.938 384.63 120.191 392.555 116.81 384.419C110.358 372.724 92.861 376.066 89.4881 359.816C89.3234 356.103 89.8076 352.222 93.1026 348.963Z" fill="#F69621"/>
<path d="M81.6688 322.4C73.8065 310.79 57.8335 316.537 46.9023 311.269C44.7111 310.463 42.179 310.362 40.0608 309.998C37.0172 310.954 34.7531 309.705 35.9711 306.002C37.0186 302.651 40.3302 300.549 42.8624 300.65C50.2153 300.864 56.7158 302.841 63.3868 304.465C76.7288 307.713 87.7083 314.659 98.5904 322.399C91.1393 327.13 87.8536 319.694 81.6688 322.4Z" fill="#EB8913"/>
<path d="M127.342 361.763C121.822 358.522 116.47 354.936 111.118 351.349C112.036 350.054 112.953 348.759 114.04 347.119C130.397 339.243 129.349 354.754 132.14 364.74C130.621 363.777 129.102 362.814 127.342 361.763Z" fill="#F8A849"/>
<path d="M54.9275 245.802C55.7682 248.143 56.6089 250.484 57.0402 253.081C50.9445 258.58 44.9959 260.879 38.8317 261.878C36.7876 259.097 34.237 257.352 29.7326 260.178C24.3623 261.875 18.4856 264.607 14.8536 260.432C12.4501 255.486 5.92657 254.321 8.4621 245.081C15.4302 232.581 20.7186 242.648 26.8611 238.794C28.3302 238.111 29.9682 237.083 31.6781 236.488C34.8571 235.21 36.4918 238.248 39.5738 237.748C42.3183 237.938 45.5692 237.093 48.2168 238.061C51.008 239.895 53.4616 242.419 54.9275 245.802Z" fill="#F19423"/>
<path d="M16.3364 255.397C19.9023 259.145 25.9319 257.275 30.271 258.862C23.0303 268.438 15.0752 265.529 7.54929 269.297C-4.78171 282.309 -9.23702 274.568 -13.5233 266.482C-14.7506 263.181 -15.1578 259.366 -18.2917 258.22C-18.3387 256.573 -17.7345 254.757 -16.6483 253.117C-14.5728 250.616 -12.4503 249.762 -10.4247 249.688C-9.05037 249.783 -7.8451 250.223 -6.63978 250.664C1.60637 251.234 8.16222 255.261 16.3364 255.397Z" fill="#F9B86B"/>
<path d="M-13.2607 266.145C-6.89531 268.884 -1.74201 275.278 7.89585 268.969C9.10409 273.51 10.8936 277.443 14.9359 278.512C-0.0288247 286.97 -8.44872 277.332 -19.7769 274.826C-17.1125 271.703 -15.2714 269.098 -13.2607 266.145Z" fill="#FB9F30"/>
<path d="M-0.158585 211.832C4.86069 206.78 8.68087 201.289 10.9191 194.408C15.6566 206.677 23.6127 215.261 32.1452 223.245C29.4778 227.537 26.5496 228.897 23.7685 227.069C13.4017 229.76 6.71215 226.097 4.85242 214.881C2.93388 214.179 -1.48384 217.425 -0.158585 211.832Z" fill="#F9BA6E"/>
<path d="M26.4952 238.012C23.7417 241.899 20.9411 244.137 18.1433 242.299C14.863 240.284 11.605 241.132 8.5854 246.145C4.52873 250.371 1.05434 249.917 -2.15384 248.336C-7.94078 242.142 -18.1227 240.866 -15.7963 226.22C-8.65066 221.492 -2.66693 222.048 2.27706 225.895C5.04438 237.102 16.707 225.461 21.9643 229.83C23.531 232.442 24.9285 235.4 26.4952 238.012Z" fill="#F89E33"/>
<path d="M21.6267 230.206C12.6655 234.634 3.70427 239.062 -1.354 230.318C-1.1352 227.559 -0.267866 224.631 0.839503 221.792C2.25854 219.472 3.67763 217.152 5.09667 214.832C11.3843 218.754 17.9119 222.764 24.0311 227.03C23.2858 227.974 22.5405 228.918 21.6267 230.206Z" fill="#F59C31"/>
<path d="M54.6893 246.431C51.6626 244.512 48.3957 242.505 45.2004 240.931C45.1073 237.649 46.7678 235.415 49.4611 233.964C51.8135 237.26 54.3345 240.212 56.9272 243.596C56.1812 244.541 55.4353 245.486 54.6893 246.431Z" fill="#F9BD75"/>
<path d="M49.2579 233.835C47.8454 236.144 46.433 238.453 45.0205 240.762C42.7748 240.747 40.6967 240.39 38.4509 240.375C37.8311 239.34 37.6177 238.05 38.2173 236.251C42.0431 233.614 45.5539 234.497 49.2579 233.835Z" fill="#FBD8AE"/>
<path d="M38.165 236.064C38.3819 237.37 38.4293 239.024 38.4044 240.242C36.1565 239.01 33.6669 237.691 31.2495 236.807C34.1527 233.778 36.1588 234.921 38.165 236.064Z" fill="#FDECD7"/>
<path d="M101.565 464.154C101.322 468.079 108.656 470.779 98.6108 475.915C94.5121 478.02 93.0348 483.901 95.5155 486.822C97.4527 489.141 102.472 488.579 97.964 494.951C94.9266 499.454 91.3267 500.538 88.0147 499.319C86.5953 498.797 84.9393 498.187 83.0467 497.49C81.71 504.226 85.1627 506.3 86.8824 511.35C69.5672 518.227 69.5407 534.279 65.4223 548.422C63.1269 547.979 60.9978 547.195 58.2482 549.395C55.5243 550.401 53.8683 549.791 53.7789 546.546C48.1905 547.701 44.0787 557.832 38.2347 556.082C37.7615 555.908 37.0518 555.647 36.7449 555.133C34.2386 553.407 32.4675 550.747 32.877 546.481C34.0218 541.281 36.0426 536.002 39.4828 531.245C43.6327 526.75 48.1342 524.391 52.4884 525.191C53.4347 525.539 54.2851 526.655 55.8964 525.642C54.2404 525.033 52.9169 523.743 52.5653 521.606C53.0194 518.962 54.1832 516.58 56.2231 514.118C59.1198 508.76 64.0109 514.174 66.4602 507.446C62.8164 492.052 47.3747 496.808 38.5321 490.34C37.5155 489.565 36.9018 488.536 36.2177 487.079C32.1579 479.963 45.0419 475.872 43.4438 468.859C53.1887 459.196 61.4498 459.426 70.3949 461.112C77.9908 462.704 83.8729 470.089 94.2506 464.272C97.307 462.586 99.7687 462.689 101.565 464.154Z" fill="#F49522"/>
<path d="M55.2512 546.652C56.7659 547.612 58.2806 548.572 59.7953 549.532C56.8341 552.106 54.9103 551.403 52.9146 550.267C53.5894 548.888 54.5047 547.598 55.2512 546.652Z" fill="#F49B2F"/>
<path d="M39.5813 555.195C35.4232 572.404 30.683 562.935 26.1056 561.261C22.3918 564.789 18.581 569.096 14.0255 570.281C4.38574 570.828 -2.2379 566.37 -6.35224 557.944C1.08173 542.747 8.18398 551.451 15.4396 548.811C23.7528 549.815 33.7556 547.365 39.5813 555.195Z" fill="#F39625"/>
<path d="M17.3106 565.518C20.4281 562.612 23.3522 561.254 26.3225 561.532C25.7586 573.062 37.1905 568.747 40.345 575.568C40.6053 578.496 37.7272 581.49 38.3949 584.162C36.9789 586.477 35.5629 588.792 33.7394 591.362C21.3796 590.075 18.8052 578.611 17.3106 565.518Z" fill="#F59A2C"/>
<path d="M38.6864 584.321C37.5733 581.514 38.8834 578.81 40.5902 575.854C40.4699 577.804 40.5134 579.416 40.3932 581.366C39.9019 582.38 39.4105 583.394 38.6864 584.321Z" fill="#F8A94A"/>
<path d="M-4.20929 610.069C-9.54467 608.114 -15.05 606.509 -20.3853 604.554C-18.6136 601.502 -17.2544 598.71 -18.4176 595.816C-28.1909 591.825 -39.8331 591.673 -47.1551 583.233C-48.8513 578.499 -55.3513 577.763 -52.656 569.291C-47.8027 562.843 -43.3401 563.656 -39.7997 565.775C-21.5151 575.763 -5.17203 589.152 14.0347 597.833C15.7324 598.455 16.168 601.082 16.3612 603.62C17.7422 607.828 13.4973 608.329 11.8956 611.033C6.60809 610.741 2.89924 604.858 -4.20929 610.069Z" fill="#EB9630"/>
<path d="M17.1232 564.94C22.6344 573.506 28.3874 582.16 33.7291 591.073C32.2531 591.761 30.6076 592.797 29.1315 593.485C25.4787 593.376 21.1953 596.312 17.8091 595.074C12.1035 588.074 0.925807 590.535 -3.69028 581.887C-4.36624 579.184 3.86148 574.007 -3.34706 573.007C-10.0719 572.184 -14.9319 567.541 -18.9692 562.38C-21.2659 559.493 -24.6273 557.036 -19.6161 550.272C-13.3254 548.48 -8.63268 549.378 -5.9019 554.88C2.07978 557.8 6.42916 567.578 17.1232 564.94Z" fill="#F79F37"/>
<path d="M20.8285 592.124C23.9632 592.059 27.7694 590.623 29.8 593.387C27.5968 595.007 25.2256 596.968 23.2615 598.675C21.8011 599.353 20.4373 599.258 19.2415 598.82C18.4067 596.493 18.2894 594.429 20.8285 592.124Z" fill="#FAB96B"/>
<path d="M21.061 596.916C22.0175 597.266 22.5671 597.872 23.5237 598.222C22.8522 599.593 22.1094 600.533 21.6058 601.562C20.6492 601.211 19.8605 600.519 18.904 600.168C19.0005 599.395 19.0972 598.622 19.1938 597.849C19.8399 597.682 20.4861 597.514 21.061 596.916Z" fill="#F8B15C"/>
<path d="M15.6771 604.114C-5.05717 597.723 -21.965 584.005 -40.067 572.759C-44.1114 570.437 -47.083 563.517 -54.6377 573.216C-67.5023 570.141 -77.8078 561.768 -89.4781 556.22C-105.12 548.793 -121.614 543.132 -137.256 535.705C-143.566 532.132 -150.218 529.266 -153.75 521.723C-154.285 519.862 -154.163 517.826 -152.725 515.443C-140.541 503.288 -133.135 513.506 -123.462 512.493C-117.785 515.001 -111.499 515.652 -105.651 517.806C-97.4651 521.654 -91.0579 528.592 -81.6043 530.41C-77.7791 531.403 -74.6362 533.81 -72.8337 537.802C-60.5312 552.737 -42.4041 558.583 -26.8115 568.488C-14.776 576.251 -4.86088 587.81 10.3917 590.1C14.6312 590.83 17.1647 595.092 18.0411 600.408C17.2856 601.378 16.3595 602.701 15.6771 604.114Z" fill="#FCA53D"/>
<path d="M100.782 465.043C97.8017 467.643 95.8647 466.935 93.8553 465.789C78.9351 471.81 70.2701 462.078 58.9379 459.571C55.0886 456.933 50.4157 454.812 52.8655 446.278C61.5628 438.389 67.7113 443.92 75.2915 443.003C85.8973 445.244 96.261 447.397 102.989 456.42C102.116 459.381 101.655 462.083 100.782 465.043Z" fill="#F79622"/>
<path d="M102.787 456.974C92.6636 453.675 82.7829 450.464 72.4894 447.515C73.3656 440.417 77.2992 439.387 81.6455 438.095C89.1466 442.081 96.7204 446.507 104.562 449.794C108.689 451.307 107.158 454.455 105.287 458.303C104.316 457.947 103.515 457.241 102.787 456.974Z" fill="#EC8B17"/>
<path d="M96.8074 393.967C95.8619 400.554 101.097 402.06 101.721 407.182C92.5456 416.061 90.1638 405.811 84.1802 405.254C78.6791 404.874 74.7502 398.952 67.3386 404.806C66.4652 411.827 71.6529 411.685 74.5948 414.392C67.76 423.719 64.4355 415.979 59.4889 416.209C48.0347 405.904 33.1007 403.298 17.5871 401.297C14.8366 401.107 14.063 403.271 12.3245 405.082C1.17243 411.607 -8.42959 409.728 -18.589 411.315C-20.8571 411.301 -22.4486 409.903 -22.712 406.952C-21.309 401.756 -17.6379 396.574 -14.5491 396.072C-5.28253 394.566 -12.9769 390.53 -11.3105 388.284C-7.88057 383.013 -5.66238 385.456 -3.25009 386.338C-13.7671 381.677 -27.2566 383.677 -36.4205 376.249C-38.2033 372.335 -35.2558 366.888 -34.6735 362.207C-30.2787 357.289 -27.3119 358.781 -24.1039 360.362C-20.6546 362.031 -21.8828 358.727 -21.6887 357.167C-17.7514 350.858 -11.8399 350.981 -7.51719 345.629C2.54792 340.745 9.75986 344.605 17.0688 347.685C23.3851 355.704 37.845 345.902 41.2416 354.077C44.9072 357.048 44.0892 353.486 42.9053 355.908C42.567 356.6 42.4949 356.166 41.7712 355.901C39.8663 353.981 36.9716 352.923 39.0983 347.991C48.7558 339.288 51.4038 348.413 57.0241 350.875C56.1978 359.545 62.98 356.723 67.0088 357.788C69.1799 358.582 71.6891 358.684 73.5219 360.17C78.2966 364.362 88.9856 364.6 82.7275 377.401C75.9619 391.239 70.7103 378.716 64.0973 381.192C55.5573 378.885 49.4572 372.169 40.748 370.208C50.4221 372.522 57.0517 381.063 67.8128 381.735C77.534 385.697 91.3867 381.79 96.8074 393.967Z" fill="#F6941D"/>
<path d="M81.2726 437.589C78.3692 440.618 75.4658 443.646 72.1512 446.934C64.8712 449.589 59.8438 445.296 53.6776 445.086C43.7857 448.422 38.7107 442.475 33.4664 436.875C29.4784 433.371 38.8168 425.333 34.587 421.741C36.1844 419.053 38.071 418.106 40.2717 417.684C50.3061 419.309 52.184 434.722 64.9048 432.011C70.2237 433.957 77.0677 432.779 81.2726 437.589Z" fill="#F28F19"/>
<path d="M64.2895 432.212C49.348 440.646 46.1415 426.802 38.7252 420.411C34.9584 414.128 23.6936 417.366 24.4256 405.371C38.5201 398.672 47.314 405.158 55.7691 412.338C57.3386 414.955 57.9167 418.437 57.0201 422.605C56.1459 429.643 61.7534 429.241 64.2895 432.212Z" fill="#F6941E"/>
<path d="M57.5114 423.014C55.4957 421.862 54.063 420.099 55.0357 416.33C56.0329 411.333 59.2876 411.701 61.8384 410.574C66.453 412.267 68.6858 418.861 75.9497 414.512C81.3645 421.036 92.4416 417.673 97.3449 429.372C82.6259 427.274 69.9472 425.1 57.5114 423.014Z" fill="#ED8B16"/>
<path d="M68.022 405.524C65.4404 403.742 62.1035 402.929 60.6673 396.996C72.0424 396.612 80.4941 399.308 88.5072 403.506C92.7937 405.915 95.6183 411.943 102.731 407.912C103.9 410.836 102.536 413.659 100.757 416.745C91.1611 409.886 79.0799 408.764 68.022 405.524Z" fill="#F18F1A"/>
<path d="M96.5686 395.472C86.4921 392.196 76.6572 389.008 66.4114 386.079C66.1224 384.338 65.253 383.203 66.4386 380.775C68.0827 379.741 69.9933 377.579 70.9598 377.932C73.8595 378.993 75.0629 387.608 80.3611 378.509C85.3205 370.105 77.9246 370.67 75.4609 368.134C70.364 363.409 63.4039 362.498 55.8635 362.193C49.7006 361.983 52.2164 357.998 56.7624 353.938C70.9537 346.457 79.1647 357.635 91.2014 356.314C95.3792 362.338 99.243 367.839 107.436 367.974C114.082 368.361 117.535 374.12 117.022 383.333C110.204 387.379 102.617 385.422 96.5686 395.472Z" fill="#F3911B"/>
<path d="M0.621418 220.781C1.54547 223.606 0.425646 226.51 -1.59447 229.496C-3.32053 221.818 -13.0795 231.905 -15.4871 225.633C-36.3166 233.723 -49.8914 222.104 -66.2417 218.581C-72.4217 217.138 -78.5771 214.461 -83.8076 210.467C-85.0724 208.345 -85.9965 205.519 -83.149 202.008C-71.0553 197.751 -63.6114 205.459 -54.6093 208.768C-37.1646 214.765 -15.4356 210.735 0.621418 220.781Z" fill="#ED8C18"/>
<path d="M-46.6198 277.389C-45.6475 277.746 -45.0885 278.364 -44.2864 279.072C-29.2397 285.836 -12.1499 288.39 2.65376 295.065C7.00374 302.036 3.08884 305.973 -4.05904 308.31C-12.2767 311.081 -19.521 310.075 -26.5223 309.158C-47.842 305.879 -66.7535 296.456 -87.7327 292.474C-92.4488 291.57 -96.1433 288.56 -97.3331 282.749C-90.4008 266.69 -86.0045 283.6 -79.9983 277.124C-85.4199 278.854 -88.896 277.164 -88.6756 270.217C-77.9041 262.183 -71.4874 267.846 -64.4625 271.665C-58.4582 273.456 -54.8375 280.16 -46.6198 277.389Z" fill="#FC9A23"/>
<path d="M62.5918 304.603C54.3891 307.36 49.1253 301.727 41.4324 303.436C35.7053 304.63 37.1117 307.616 39.3433 310.08C33.1789 312.761 28.3264 310.983 23.3038 309.554C17.0914 310.571 14.5212 304.689 9.32865 303.61C6.70907 300.18 7.29305 295.454 8.94481 290.297C29.3283 289.533 45.5351 297.941 62.5918 304.603Z" fill="#F3901A"/>
<path d="M8.80318 289.217C11.8679 291.171 11.9645 294.519 8.9227 299.613C4.7867 302.235 3.76624 296.062 -0.369771 298.684C-9.49105 293.262 -21.533 295.049 -31.4086 290.592C-37.0761 288.096 -40.9189 284.199 -44.8346 279.862C-27.8295 274.929 -17.2741 286.261 -2.43531 287.572C1.48119 287.769 4.95956 289.461 8.80318 289.217Z" fill="#E7850E"/>
<path d="M0.392744 296.735C4.85118 293.444 6.90891 296.248 9.64548 297.66C14.4645 300.655 18.8716 303.908 23.6907 306.903C14.8976 307.377 6.76035 303.578 -3.65918 312.072C-2.06286 317.579 2.56353 318.041 5.51754 320.764C4.98365 323.03 3.57824 324.156 1.93064 325.194C-0.540774 326.751 -2.28386 324.472 -4.58555 325.681C-2.23613 326.13 -0.80775 327.884 0.450924 329.986C1.34542 334.005 3.30586 337.594 -1.51676 342.803C-7.23388 343.993 -12.9509 345.182 -17.2856 342.365C-27.2843 330.09 -44.7521 337.235 -58.7037 335.41C-69.1673 334.042 -79.9705 333.37 -88.9068 328.868C-90.5049 327.463 -91.5213 325.45 -92.4653 323.874C-99.655 313.448 -115.452 322.435 -124.097 315.578C-125.283 313.913 -126.057 311.989 -126.832 310.065C-127.846 303.95 -137.343 307.038 -135.28 297.537C-125.803 283.365 -119.023 289.949 -111.66 291.824C-93.1565 297.776 -72.7859 299.898 -56.6582 310.724C-69.6375 301.051 -87.853 300.948 -98.5535 287.185C-99.0131 285.786 -98.8911 283.78 -98.527 281.862C-97.9454 281.254 -96.9518 280.387 -96.3702 279.78C-67.5266 293.208 -36.986 303.156 -3.09876 304.482C1.38265 304.071 4.43572 301.907 0.392744 296.735Z" fill="#F7951E"/>
<path d="M90.1417 356.866C83.2946 362.135 77.514 362.885 72.9695 358.768C68.1832 354.562 60.6603 357.129 55.4378 354.401C50.1182 352.455 44.6291 350.856 39.3095 348.911C22.8131 353.515 13.1185 347.105 13.1024 331.96C29.7953 321.699 37.3818 335.931 50.1993 336.528C53.3676 336.459 56.0996 337.867 56.8973 338.568C61.1051 339.289 60.2125 335.28 60.1628 337.717C60.0656 338.5 59.4125 338.67 58.6871 338.405C50.4908 334.179 37.0654 339.498 34.3398 325.817C50.3797 315.726 60.4834 325.969 73.7372 325.088C74.8738 325.095 75.0185 325.966 75.2354 327.273C77.2604 339.47 82.4085 345.854 92.3471 348.262C91.6443 350.869 90.7721 353.823 90.1417 356.866Z" fill="#F7941E"/>
<path d="M34.0766 324.745C41.7587 332.53 55.5465 328.907 61.8663 339.5C42.5827 344.414 31.9849 327.286 13.285 331.588C7.81305 335.783 2.70625 338.044 -0.453633 332.747C-3.12724 327.629 -13.0495 333.913 -12.6825 323.707C-5.33827 319.785 -0.646687 326.058 6.38158 321.607C15.4997 322.887 24.7882 323.816 34.0766 324.745Z" fill="#EF8C16"/>
<path d="M-0.130135 244.937C2.86408 245.215 6.09974 245.582 9.09396 245.86C11.4584 249.174 13.8228 252.488 16.3565 255.456C6.11429 260.692 -1.00653 256.047 -8.66005 253.657C-7.49758 248.367 -3.97064 246.39 -0.130135 244.937Z" fill="#F3982A"/>
<path d="M-0.710536 244.52C-3.63096 247.59 -6.55143 250.661 -9.30146 253.379C-10.1043 252.67 -11.0775 252.312 -11.8803 251.603C-22.9977 239.643 -39.543 237.706 -53.9708 231.989C-57.0362 230.033 -60.9537 229.837 -64.1895 228.233C-69.2252 222.653 -76.0376 220.149 -83.1908 218.348C-87.4974 217.18 -94.2861 217.585 -89.661 206.854C-87.6416 208.011 -85.6952 208.726 -82.7019 206.097C-60.7072 213.352 -38.9803 221.752 -15.1842 224.697C-13.8481 235.548 -4.31013 236.567 -0.710536 244.52Z" fill="#F79623"/>
<path d="M61.6998 453.909C71.0035 460.6 82.0775 464.244 94.2676 465.011C91.94 467.444 97.2941 472.279 91.0169 472.855C86.5332 473.267 82.6561 471.847 78.9488 470.079C67.8994 465.213 56.583 461.48 41.3351 471.091C31.4215 474.442 25.9949 469.17 22.169 461.2C26.8538 442.794 36.1592 445.38 44.8596 445.691C51.7665 446.166 54.1138 454.827 61.6998 453.909Z" fill="#F18F19"/>
<path d="M39.9948 531.839C39.0728 537.232 37.2556 542.708 33.5035 547.475C28.2526 550.057 25.1331 547.688 21.8441 545.666C9.63502 530.967 -10.5145 527.28 -20.2056 508.589C-13.4745 497.134 -9.55912 504.297 -5.20549 505.89C1.2526 507.843 4.99831 515.353 13.7573 512.008C21.524 509.528 25.9004 513.994 30.2768 518.46C34.5084 522.055 40.2409 523.742 39.9948 531.839Z" fill="#F9A138"/>
<path d="M25.7396 523.51C22.0542 520.516 21.0625 513.162 14.0038 515.922C4.03516 517.616 -1.61346 511.024 -7.18947 504.87C-5.58483 493.943 -0.0320002 497.211 3.38769 497.23C12.5069 497.28 20.8491 499.514 29.2887 500.96C38.8914 505.3 52.0619 502.311 57.6844 514.24C56.2526 516.594 54.8208 518.948 53.3891 521.302C42.1323 530.337 35.9276 519.018 25.7396 523.51Z" fill="#F79520"/>
<path d="M57.6376 514.656C47.344 511.706 36.4428 510.595 27.3397 505.197C23.1633 506.139 21.7314 504.377 23.7967 498.952C26.6385 495.46 29.9164 494.601 33.2671 494.181C47.2035 494.344 59.2692 498.356 69.1241 506.914C70.7261 508.326 74.2222 508.783 73.1772 512.11C71.9621 515.786 68.7088 515.417 66.3539 514.966C63.5861 514.776 60.4054 514.846 57.6376 514.656Z" fill="#ED8B15"/>
<path d="M68.824 507.228C54.9858 507.5 45.417 497.838 31.8212 498.198C32.1624 493.396 34.2723 489.652 38.4658 487.491C49.1028 492.617 68.4696 484.515 68.824 507.228Z" fill="#F79620"/>
<path d="M37.8782 486.757C35.5338 490.39 33.6001 493.764 31.2558 497.397C28.817 497.729 26.7888 497.804 24.35 498.137C13.0245 500.934 4.35961 496.542 -4.9823 493.534C-8.33677 491.083 -9.80738 487.688 -6.10918 481.285C1.35675 472.995 7.77707 476.159 14.6107 474.984C20.3541 479.533 23.4147 488.407 33.7025 484.822C34.1852 484.999 35.0786 484.917 35.5614 485.094C36.3577 485.793 37.3233 486.146 37.8782 486.757Z" fill="#F49B31"/>
<path d="M23.2072 457.831C29.3267 462.097 35.3745 465.932 41.6624 469.855C43.0776 471.589 46.27 473.162 41.368 476.237C37.2831 478.799 36.2472 482.07 35.283 485.774C26.4434 488.219 22.3664 482.671 18.9631 475.748C16.853 472.542 15.0798 468.649 15.5891 463.562C17.3703 459.346 19.3199 454.787 23.2072 457.831Z" fill="#F99721"/>
<path d="M25.113 541.248C28.1734 543.196 31.4767 545.233 34.5371 547.181C36.9416 549.301 40.4397 549.759 39.3449 555.547C31.0369 554.976 22.3157 554.666 14.0076 554.094C8.64127 545.11 -6.76262 552.666 -9.84433 539.568C-1.77583 527.671 3.98008 533.496 9.73709 535.195C14.5952 536.977 19.0884 540.689 25.113 541.248Z" fill="#EA8D1D"/>
<path d="M26.2442 523.507C38.1099 511.461 44.2034 523.522 53.8376 521.312C55.362 522.279 56.8863 523.247 61.4594 526.149C52.1396 528.884 46.1373 528.327 40.2779 532.738C35.6324 529.4 31.0593 526.497 26.2442 523.507Z" fill="#F08F19"/>
<path d="M-9.62261 538.306C-3.3684 545.905 12.1979 538.521 13.7599 553.395C6.75128 554.918 1.17208 550.017 -6.87757 554.838C-12.5811 556.021 -17.002 553.996 -20.9149 550.93C-25.1689 552.644 -27.4877 550.979 -28.7904 547.233C-28.8603 542.713 -26.417 538.294 -23.4184 534.487C-21.6775 532.672 -19.8643 531.291 -18.1483 530.693C-12.9528 530.55 -9.90918 532.48 -9.62261 538.306Z" fill="#EC8B18"/>
<path d="M18.1807 600.598C-6.45995 591.131 -27.0366 574.46 -49.9737 561.477C-58.2924 556.765 -65.1753 549.68 -75.4407 548.393C-80.5734 547.75 -75.6586 542.93 -73.1524 540.124C-71.498 539.075 -69.7707 538.468 -68.1409 538.652C-49.1423 540.25 -39.8049 559.416 -21.731 562.33C-14.8965 567.74 -5.0446 569.289 -2.90622 580.842C6.4837 580.979 15.6058 582.26 20.4936 591.096C20.5419 592.77 20.5902 594.444 20.6385 596.118C19.6164 598.227 18.8621 599.192 18.1807 600.598Z" fill="#FDA842"/>
<path d="M-3.60596 581.759C-11.4482 576.852 -19.1212 571.598 -26.9634 566.69C-32.4643 562.231 -32.0235 552.599 -34.143 545.295C-30.4232 541.759 -28.1541 541.772 -27.4327 546.117C-25.1164 547.78 -22.6309 549.096 -20.5559 550.671C-16.8717 564.668 -3.66743 565.007 5.33159 572.786C2.26365 576.152 -0.46588 578.827 -3.60596 581.759Z" fill="#F49A30"/>
<path d="M22.2039 458.229C19.278 458.386 17.1971 460.897 15.4303 463.932C14.1244 464.272 12.7462 464.177 11.8763 463.041C10.1614 459.551 9.43838 455.196 7.48172 451.617C2.72339 442.105 -4.38251 436.233 -15.022 436.432C-16.2308 435.99 -17.27 435.201 -18.1399 434.065C-18.9849 431.71 -19.177 429.186 -18.0632 426.321C-17.2159 424.585 -15.8851 423.027 -14.0708 421.645C-5.77435 416.908 1.16426 419.037 8.46662 419.253C17.7753 420.613 27.6646 421.367 33.2454 430.362C40.1343 434.927 47.265 439.58 54.1539 444.145C53.2796 451.188 58.4785 451.044 61.427 453.759C53.0831 456.843 48.0085 450.896 41.2868 450.074C34.0092 448.639 28.302 449.824 22.2039 458.229Z" fill="#F7951F"/>
<path d="M0.166261 332.28C4.44787 333.437 10.063 328.941 13.836 331.14C17.9666 343.705 29.4821 344.642 39.569 347.923C37.9935 353.487 42.7838 353.602 43.9663 359.357C36.782 357.138 32.1883 351.364 23.1123 358.278C17.2553 362.686 16.0976 355.712 14.2369 351.347C12.8622 343.066 0.906187 351.792 0.209552 342.122C0.356366 338.9 0.261334 335.59 0.166261 332.28Z" fill="#F3911B"/>
<path d="M24.5847 405.682C29.084 408.147 33.6556 411.048 38.3244 413.166C41.4694 414.316 40.113 417.096 38.5871 420.223C37.1107 420.911 35.6344 421.6 34.1581 422.288C22.2027 426.923 14.8996 418.518 4.66449 418.459C-2.254 415.109 -15.0819 422.701 -16.8416 409.363C-5.87659 401.5 2.80772 405.905 13.0924 403.525C17.7633 401.549 23.3544 398.271 24.5847 405.682Z" fill="#FA9721"/>
<path d="M24.2793 406.446C20.4602 405.457 16.4706 404.819 12.6515 403.83C13.6253 400.047 11.7767 398.539 10.0502 395.006C28.8544 398.188 48.1459 397.408 61.4503 410.165C59.0415 412.179 57.0463 413.93 54.6375 415.944C47.2196 407.007 36.2241 405.451 24.2793 406.446Z" fill="#F18E18"/>
<path d="M-46.2927 369.692C-43.2818 369.971 -40.0281 370.34 -37.0173 370.619C-25.3152 376.558 -8.77824 373.14 -0.477635 386.077C-4.55823 390.352 -6.69293 382.974 -11.3565 387.86C-21.7743 391.048 -28.644 383.995 -38.697 385.256C-43.0673 383.654 -48.458 384.151 -51.3949 380.188C-54.4773 375.348 -52.6065 371.499 -46.2927 369.692Z" fill="#F08E17"/>
<path d="M-10.9703 349.755C-14.7787 348.771 -18.757 348.137 -22.5654 347.153C-24.4537 335.764 -17.7592 339.04 -13.4164 337.751C-9.99723 341.883 -3.59184 339.293 0.67697 341.68C3.48898 347.647 15.3061 339.222 14.7441 350.947C5.86518 350.986 -0.512596 344.124 -10.9703 349.755Z" fill="#EF8D16"/>
<path d="M66.6092 379.952C66.6574 381.623 66.7057 383.293 66.5836 385.315C53.0936 386.561 46.8012 374.748 36.7885 369.42C49.4766 367.466 57.666 374.191 66.6092 379.952Z" fill="#F08D17"/>
<path d="M6.67031 413.651C16.848 414.496 26.3451 416.741 34.4813 421.788C36.0841 423.201 37.687 424.614 39.2898 426.028C37.0546 427.683 34.7466 428.9 32.5114 430.556C21.8233 430.761 14.3676 424.313 4.70031 422.418C-0.230169 420.197 2.68563 417.141 6.67031 413.651Z" fill="#EC8A13"/>
<path d="M-7.32509 501.354C-0.403869 505.955 6.76025 510.645 13.6815 515.246C7.55816 523.726 4.64487 518.533 0.516078 517.018C-7.01289 514.257 -10.7263 504.231 -21.3175 507.773C-22.1435 508.295 -22.7994 508.467 -23.6254 508.989C-39.7522 503.899 -57.7258 501.433 -66.0034 483.133C-59.2489 475.709 -52.181 477.064 -45.2574 473.415C-36.6104 473.286 -32.6775 480.504 -27.894 485.971C-24.1301 489.414 -19.8557 491.807 -14.488 492.538C-10.4319 493.613 -7.37205 495.561 -7.32509 501.354Z" fill="#FEA941"/>
<path d="M-10.2411 538.886C-13.2916 536.949 -16.5842 534.924 -19.6348 532.988C-19.244 525.749 -22.9962 522.326 -25.5853 517.687C-28.4891 512.524 -25.8962 508.962 -20.0107 507.425C-4.44356 517.633 12.0444 526.538 24.3399 541.7C10.6548 546.944 3.61374 533.294 -10.2411 538.886Z" fill="#F19A33"/>
<path d="M-7.36793 501.944C-10.4294 499.994 -13.7339 497.955 -16.7955 496.006C-20.465 495.898 -25.4468 496.135 -22.2858 489.035C-19.903 484.127 -15.8203 483.973 -12.2482 484.871C-8.67611 485.768 -8.14295 491.746 -3.20924 489.84C6.97292 490.685 16.4742 492.932 24.614 497.984C23.6409 501.758 25.0743 503.523 27.091 504.676C14.6481 506.718 5.2452 499.551 -7.36793 501.944Z" fill="#EF8E1A"/>
<path d="M-3.64603 489.27C-9.56298 493.227 -11.6355 487.573 -15.7633 487.288C-17.6219 487.016 -20.3016 487.26 -21.1726 490.206C-22.1406 493.933 -18.7368 493.953 -17.3137 495.698C-24.3652 499.648 -26.5819 493.125 -31.1674 491.449C-31.5923 476.603 -45.6678 479.21 -50.4173 469.721C-45.6795 460.027 -41.3131 464.48 -37.3545 465.112C-28.544 466.293 -20.8458 470.331 -11.4307 469.693C-7.39993 470.759 -4.11819 472.775 -3.83228 478.592C-6.85307 483.608 -6.68646 487.342 -3.64603 489.27Z" fill="#F89928"/>
<path d="M-4.08573 479.79C-7.14725 477.841 -10.4518 475.802 -13.3431 473.502C-22.9655 469.145 -37.8147 473.196 -40.8486 457.627C-39.6572 455.173 -38.5633 453.509 -36.3271 451.852C-27.2133 449.001 -22.7923 456.405 -16.0612 458.462C-6.24407 461.238 3.1599 464.276 12.1261 468.805C13.8024 470.659 15.0656 472.775 14.919 476.025C6.84897 483.802 1.99014 477.889 -4.08573 479.79Z" fill="#EF972E"/>
<path d="M14.4638 476.975C12.9454 476.013 11.4271 475.05 9.66758 473.999C14.8828 464.497 16.9744 473.004 21.2195 471.296C25.3146 476.868 29.2408 482.785 35.3394 485.422C21.0828 493.656 18.19 492.598 14.4638 476.975Z" fill="#FBA33A"/>
<path d="M20.5485 471.188C16.2247 475.376 13.4822 469.834 8.91554 473.933C-0.749139 472.038 -8.20261 465.593 -18.8878 465.799C-22.916 455.25 -35.423 456.849 -40.7872 447.872C-40.4951 445.505 -39.6447 443.755 -37.8956 441.922C-34.8352 439.745 -32.285 438.619 -29.7594 438.72C-14.3891 444.769 2.68211 447.318 13.6546 461.238C14.4558 461.944 15.1843 462.211 15.9855 462.917C17.5632 465.558 18.9708 468.548 20.5485 471.188Z" fill="#FEAA41"/>
<path d="M-20.4594 506.477C-31.0477 517.672 -20.2497 515.919 -17.9374 517.579C-12.7589 521.508 -10.8095 525.071 -19.8521 531.944C-20.7689 533.237 -21.2758 534.274 -22.1926 535.567C-34.8022 542.765 -43.7667 541.93 -47.4684 529.176C-56.5238 520.98 -62.3938 507.433 -77.6507 509.591C-79.4342 509.754 -80.4699 508.968 -80.1789 506.631C-69.6595 490.933 -65.429 505.509 -57.6191 503.478C-49.3774 504.048 -43.4041 508.675 -37.7688 513.993C-35.9133 514.264 -35.1624 509.245 -36.2732 512.097C-36.78 513.133 -37.1899 513.39 -37.9127 513.126C-46.5112 506.318 -56.5333 501.839 -64.553 494.429C-67.973 491.55 -72.9606 490.133 -71.7498 482.433C-68.1077 478.471 -65.7704 478.918 -64.8817 482.908C-49.994 490.794 -35.3472 498.592 -20.4594 506.477Z" fill="#F69F38"/>
<path d="M-29.0904 429.251C-25.4482 430.586 -23.2641 435.511 -17.4836 431.858C-16.9252 432.475 -15.954 432.831 -15.3957 433.448C-6.02347 437.709 1.91536 444.331 10.4371 450.342C13.9819 452.467 14.6363 456.417 13.0563 462.023C-3.30934 456.847 -19.3348 450.97 -33.6593 441.594C-35.115 436.938 -34.8709 432.904 -29.0904 429.251Z" fill="#ED952D"/>
<path d="M-16.1973 423.601C-18.7476 421.855 -22.0448 421.056 -20.9568 415.355C-19.5346 413.028 -18.1124 410.702 -16.5214 408.03C-11.3524 416.02 0.715608 407.013 6.48794 413.19C4.72812 416.206 3.3777 418.966 4.53082 421.827C-2.59526 422.475 -9.4807 423.21 -16.1973 423.601Z" fill="#EE8B15"/>
<path d="M10.4044 450.242C-1.79632 450.695 -10.4599 445.067 -15.3443 433.445C-0.454518 428.648 6.44051 437.318 10.4044 450.242Z" fill="#FAA239"/>
</g>
</svg>
