<svg width="288" height="1120" viewBox="0 0 288 1120" fill="none" xmlns="http://www.w3.org/2000/svg">
<path d="M135.851 918.115C126.031 911.276 122.694 903.516 125.401 894.456C125.992 889.432 122.419 885.374 118.846 881.317C114.613 876.691 113.765 872.379 119.707 869.038C125.767 868.077 133.03 870.107 137.668 865.967C139.97 865.674 142.103 866.211 144.068 867.578C145.168 868.527 145.863 869.777 146.134 870.987C141.921 883.633 146.377 896.915 148.936 910.19C149.63 911.439 149.698 912.8 149.343 914.122C147.6 917.176 144.519 918.752 140.558 919.569C138.662 919.562 137.172 919.254 135.851 918.115Z" fill="#F8AF5A"/>
<path d="M151.219 788.537C157.235 785.737 153.902 774.789 165.854 776.841C166.9 772.605 170.481 770.257 174.473 767.945C185.076 762.387 195.665 756.495 203.066 747.825C211.688 743.757 218.354 737.019 229.583 736.51C231.254 737.324 232.331 738.584 233.21 739.993C234.261 745.413 229.051 747.95 225.498 750.967C208.896 764.486 189.091 774.894 171.411 787.153C167.051 790.431 162.677 793.375 155.923 793.279C152.623 792.656 150.923 791.174 151.219 788.537Z" fill="#F89C2C"/>
<path d="M204.426 656.532C203.711 654.301 203.378 651.437 205.396 650.617C216.322 646.923 222.733 638.66 232.407 634.521C240.874 630.942 247.662 626.546 253.779 620.923C258.24 619.654 262.251 612.843 267.77 621.504C253.956 638.777 236.479 652.222 211.74 659.351C208.868 659.429 206.364 658.538 204.426 656.532Z" fill="#FBDBB4"/>
<path d="M162.956 740.533C171.303 728.748 182.207 718.535 192.696 708.284C195.764 698.695 208.543 697.517 215.496 691.292C216.696 690.398 218.127 690.026 219.775 689.842C230.36 694.82 224.16 699.44 219.681 701.04C203.797 706.618 201.63 722.143 187.04 728.843C175.882 733.681 190.931 736.724 193.616 740.983C196.58 746.772 191.406 746.803 186.879 747.394C179.41 747.049 171.82 748.532 164.562 743.857C163.483 742.922 163.019 741.876 162.956 740.533Z" fill="#F8AE54"/>
<path d="M185.959 700.5C181.68 698.094 181.176 700.563 179.618 702.768C175.884 707.288 169.728 709.069 162.621 708.415C159.912 708.333 159.912 708.333 161.925 702.649C163.504 696.589 172.103 693.691 170.706 686.351C171.309 685.904 171.694 685.268 172.08 684.633C172.568 681.827 175.461 681.422 177.687 680.118C183.871 683.202 190.006 685.276 196.113 682.484C198.404 682.527 200.51 683.057 201.846 684.857C201.911 686.204 201.559 687.513 200.973 688.298C200.501 691.441 191.706 690.296 195.931 695.884C194.455 699.773 191.208 701.487 185.959 700.5Z" fill="#F8A94A"/>
<path d="M266.217 620.078C261.218 618.63 257.653 621.647 252.898 621.055C266.454 611.594 277.001 599.195 294.408 593.081C297.024 591.814 298.292 592.595 298.412 595.274C294.569 601.267 290.725 607.261 285.827 612.66C284.266 614.521 282.277 616.011 280.089 617.65C276.294 620.146 272.5 622.641 266.217 620.078Z" fill="#FBD09D"/>
<path d="M152.21 788.751C153.303 790.02 154.611 791.475 155.503 792.893C157.72 796.103 157.03 799.049 155.511 801.919C154.344 803.485 152.746 804.677 151.148 805.869C142.759 812.128 140.369 822.942 127.473 825.617C125.813 825.466 124.536 824.682 123.859 823.45C128.136 808.796 137.72 797.13 152.21 788.751Z" fill="#F9BC73"/>
<path d="M283.714 987.336C278.928 988.759 274.957 993.824 268.339 988.116C263.247 979.153 254.982 987.045 248.89 983.423C247.787 982.472 246.887 981.37 246.412 980.307C245.835 977.197 246.327 974.357 247.243 971.555C248.397 969.285 250.655 967.967 253.591 967.56C255.067 967.527 256.56 967.836 258.054 968.144C260.192 968.682 262.348 969.562 264.486 970.1C272.564 975.434 282.238 978.879 289.111 985.46C288.144 987.238 286.056 987.723 283.714 987.336Z" fill="#F9B768"/>
<path d="M201.075 972.181C188.353 971.685 183.56 964.6 180.178 956.114C180.18 951.857 182.596 949.357 186.763 948.04C192.291 948.551 194.057 954.334 199.789 954.694C214.755 957.782 205.295 967.633 210.446 973.389C207.298 978.206 204.034 972.114 201.075 972.181Z" fill="#F7AB4F"/>
<path d="M124.426 823.885C125.082 824.451 125.956 825.205 126.612 825.771C132.244 825.452 136.263 822.122 141.677 821.614C143.963 821.322 146.082 821.855 148.032 823.214C149.125 824.156 150.016 825.249 150.503 826.64C151.091 830.061 149.544 832.61 146.921 834.554C145.912 835.302 144.903 836.05 143.675 836.609C142.667 837.357 141.439 837.916 140.212 838.476C137.151 840.043 134.091 841.61 130.342 841.936C127.198 841.813 124.222 840.863 123.029 837.892C119.414 832.508 117.061 827.241 124.426 823.885Z" fill="#F7AD53"/>
<path d="M123.761 838.13C125.701 839.154 127.422 839.989 129.362 841.013C130.846 841.32 132.347 841.965 133.646 842.761C134.743 843.707 135.435 844.952 136.127 846.197C137.797 850.233 137.562 853.923 134.998 857.228C132.418 860.194 128.944 862.064 124.356 862.65C106.947 858.669 115.38 851.017 116.931 844.244C117.166 840.554 120.253 839.322 123.761 838.13Z" fill="#FAC687"/>
<path d="M159.479 759.93C167.09 757.778 171.335 750.781 181.173 751.522C178.538 757.324 171.261 762.026 178.111 769.88C173.835 772.004 169.778 774.316 165.502 776.44C161.282 771.18 155.821 766.141 159.479 759.93Z" fill="#F9BA6E"/>
<path d="M187.088 947.925C185.77 951.015 183.809 953.876 180.107 955.561C172.244 953.984 168.928 946.573 161.064 944.996C161.453 944.356 162.079 944.245 162.704 944.134C163.769 940.175 166.812 937.921 171.614 937.184C176.974 939.205 182.149 941.715 187.899 943.096C189.049 945.063 188.914 946.572 187.088 947.925Z" fill="#FAC788"/>
<path d="M170.763 686.124C177.562 688.766 176.052 691.984 173.721 695.462C170.77 699.051 166.045 700.462 161.973 702.436C152.484 691.655 162.586 689.398 170.763 686.124Z" fill="#FAC381"/>
<path d="M165.379 742.436C158.493 746.161 159.598 756.149 149.276 757.548C145.553 744.973 147.711 742.322 164.045 740.638C164.278 741.162 164.929 741.724 165.379 742.436Z" fill="#FBD7AB"/>
<path d="M190.48 673.633C190.096 670.069 194.24 669.445 196.372 666.113C191.759 665.687 187.01 670.96 183.373 664.911C192.783 665.277 197.935 659.705 204.881 656.651C206.357 656.956 208.034 657.111 209.51 657.415C210.025 667.88 204.486 674.088 190.48 673.633Z" fill="#FBD09E"/>
<path d="M249.271 981.305C247.638 982.164 246.224 983.212 244.388 984.221C241.93 985.341 239.27 986.61 236.812 987.729C232.35 986.473 230.127 983.908 230.38 980.562C230.952 979.436 231.744 978.498 232.973 977.939C234.202 977.379 235.667 977.346 237.131 977.314C237.552 977.353 238.175 977.242 239.017 977.321C241.122 977.516 243.226 977.712 245.348 978.245C245.988 978.473 246.628 978.701 247.065 979.079C247.941 979.834 248.614 980.739 249.271 981.305Z" fill="#FCE4C6"/>
<path d="M221.192 982.575C217.716 984.103 214.761 983.493 212.109 980.557C212.059 979.544 212.429 978.569 213.436 977.822C215.872 976.366 218.743 975.287 221.631 974.546C224.318 973.954 227.038 974.038 229.808 975.135C230.244 975.512 230.899 976.077 231.335 976.453C231.604 977.655 231.234 978.629 230.226 979.377C228.059 982.034 224.751 982.737 221.192 982.575Z" fill="#FCE8CE"/>
<path d="M155.199 712.727C154.556 712.499 154.133 712.459 153.711 712.42C153.694 712.08 153.88 711.59 154.082 711.44C154.285 711.29 154.928 711.519 155.368 711.898C155.165 712.048 155.182 712.388 155.199 712.727Z" fill="#F7A544"/>
<path d="M145.684 910.301C144.403 909.514 142.722 909.026 141.841 907.941C137.238 902.667 150.395 896.003 136.895 891.088C139.907 884.668 139.972 877.31 144.465 871.528C145.322 867.757 148.141 866.006 152.673 865.415C166.35 865.325 174.743 858.728 182.919 851.943C197.07 840.013 215.64 833.843 236.188 830.029C241.512 841.729 224.344 838.153 224.463 845.026C226.713 844.394 228.203 840.848 231.671 839.659C236.155 838.06 240.239 836.759 243.209 842.554C244.882 847.225 244.889 851.745 242.815 856.074C239.675 859.804 239.298 864.958 236.591 869.062C230.096 876.335 219.061 879.679 212.334 886.429C209.315 888.329 206.064 889.706 202.38 890.708C196.014 891.968 189.496 894.385 181.857 890.675C167.764 890.727 157.81 895.006 154.621 906.43C154.053 907.55 153.484 908.67 152.483 909.415C150.465 910.57 148.199 910.865 145.684 910.301Z" fill="#F6941E"/>
<path d="M153.639 865.572C150.437 867.288 147.037 869.152 143.835 870.867C143.182 869.977 142.544 869.421 141.891 868.531C140.74 865.598 141.234 862.81 142.975 860.466C159 852.224 173.322 842.499 188.283 833.33C192.675 830.721 196.868 828.26 200.196 824.724C209.87 816.42 219.104 807.411 229.843 800.034C235.763 794.895 240.605 788.495 251.038 788.252C258.622 788.423 263.464 782.023 272.156 784.124C278.283 788.496 275.154 791.883 271.797 794.75C268.227 797.432 263.38 799.002 260.662 802.426C259.288 803.803 257.702 804.995 255.902 806.002C242.267 807.96 247.693 819.764 242.653 826.313C241.023 826.502 239.378 826.356 237.521 826.026C218.744 832.193 200.393 838.731 185.732 850.091C176.61 856.945 167.927 864.504 153.639 865.572Z" fill="#FA9822"/>
<path d="M144.524 862.821C143.572 864.573 142.82 866.176 141.654 867.741C140.193 867.442 138.518 866.956 136.858 866.805C133.076 865.46 130.053 871.536 126.131 867.17C123.501 863.924 127.972 862.324 129.938 860.162C131.304 858.448 133.732 857.331 133.838 855.168C133.697 852.147 133.341 848.94 132.986 845.733C133.17 845.248 133.154 844.912 133.123 844.241C133.522 843.943 133.922 843.645 134.321 843.347C136.149 842.677 138.177 841.858 139.775 840.666C140.574 840.07 140.957 839.437 141.541 838.654C142.34 838.058 143.538 837.164 143.691 836.008C143.859 835.188 144.027 834.367 144.196 833.547C146.162 831.386 147.928 829.373 149.693 827.361C150.046 826.056 151.044 825.311 152.473 824.939C164.292 825.843 167.019 813.39 179.484 814.854C189.942 826.497 174.205 825.739 170.136 831.553C172.489 833.27 178.804 831.336 178.838 836.52C173.497 846.062 162.773 850.939 151.619 855.443C147.563 857.081 143.045 857.674 144.524 862.821Z" fill="#F89824"/>
<path d="M134.57 855.339C135.642 860.145 130.958 862.569 128.641 866.388C131.779 866.511 134.716 866.782 137.653 867.054C133.925 871.92 128.352 873.253 121.053 869.216C120.6 868.502 120.148 867.787 119.695 867.073C121.726 865.916 123.12 864.533 122.365 861.942C126.646 859.817 130.507 857.653 134.57 855.339Z" fill="#F6A33F"/>
<path d="M151.392 915.301C147.526 916.788 145.452 921.117 139.513 918.233C142.747 916.52 145.981 914.807 149.216 913.094C150.48 913.544 151.344 914.292 151.392 915.301Z" fill="#F39B33"/>
<path d="M151.234 915.316C150.355 914.559 149.899 913.84 149.02 913.083C148.344 912.175 147.685 911.607 147.009 910.699C148.648 909.838 150.286 908.977 152.144 908.305C153.614 908.273 154.712 909.22 155.185 910.277C155.693 912.014 155.136 913.483 154.359 914.762C153.565 915.702 152.535 916.113 151.268 915.995L151.234 915.316Z" fill="#F89F36"/>
<path d="M301.287 974.869C303.662 975.937 305.612 976.967 307.987 978.036C308.666 978.947 309.327 979.518 310.006 980.429C304.833 986.735 294.69 982.23 287.635 984.629C277.017 983.303 270.503 975.402 261.463 971.848C265.143 965.233 271.69 969.574 277.66 970.807C285.412 973.903 293.299 975.484 301.287 974.869Z" fill="#F6A94C"/>
<path d="M149.492 803.246C150.881 802.203 152.483 801.345 154.07 800.153C161.934 792.521 174.086 789.267 182.42 783.009C178.577 784.168 177.421 790.562 170.025 785.409C180.807 774.205 197.339 768.007 209.825 758.286C217.563 752.475 225.94 747.221 231.776 740.075C241.945 738.311 240.76 744.036 241.177 748.903C239.309 753.069 235.568 756.569 235.787 761.585C234.249 768.611 229.317 773.005 221.492 776.809C205.018 784.345 187.919 791.658 174.471 802.793C168.32 807.412 162.154 811.697 153.404 813.087C143.274 811.024 149.439 806.739 149.492 803.246Z" fill="#FC9A24"/>
<path d="M192.198 741.576C186.896 738.919 177.208 739.876 176.907 733.492C176.853 727.966 182.654 723.644 189.614 721.936C192.078 721.491 195.87 722.84 196.159 720.19C196.788 707.199 209.645 703.185 219.926 697.263C222.743 695.512 222.416 692.973 221.257 690.359C221.134 678.972 236.893 679.404 241.903 671.496C245.704 668.664 248.394 664.226 255.544 666.55C261.348 675.443 256.658 681.373 249.425 686.067C243.208 690.351 235.447 692.655 230.941 698.1C227.162 705.785 213.947 706.588 212.743 716.181C217.22 723.28 219.153 729.144 205.595 727.072C201.42 726.357 198.835 728.631 197.051 730.309C206.907 728.53 218.153 729.89 228.657 728.672C233.175 732.262 230.791 734.387 227.774 736.287C220.356 741.466 211.859 745.71 202.914 749.244C199.403 749.426 196.675 748.676 196.717 745.167C196.158 742.105 195.062 740.834 192.198 741.576Z" fill="#F59726"/>
<path d="M193.656 742.102C196.702 740.874 198.653 738.376 202.593 738.567C208.153 742.417 194.029 745.647 204.145 749.577C200.309 760.431 187.863 764.149 177.789 769.921C162.53 762.18 162.53 762.18 180.662 751.789C182.23 749.925 183.998 747.912 185.565 746.048C188.827 745.007 194.524 747.364 193.656 742.102Z" fill="#F59E36"/>
<path d="M228.36 737.201C228.664 734.865 229.17 732.378 229.473 730.042C230.806 723.072 234.79 718.713 245.211 721.203C257.287 727.393 253.641 734.317 250.417 741.28C248.273 744.627 246.568 748.354 241.131 748.861C240.286 748.783 239.442 748.704 238.597 748.625C237.144 744.774 237.954 739.951 230.573 739.434C229.695 738.677 229.019 737.769 228.36 737.201Z" fill="#FCA132"/>
<path d="M170.094 785.098C175.561 787.591 178.013 782.638 185.456 783.307C173.355 788.895 169.338 800.215 154.1 800.181C152.952 797.575 153.045 795.081 155.22 793.107C160.03 790.201 165.269 787.668 170.094 785.098Z" fill="#F89927"/>
<path d="M190.7 673.931C199.938 670.744 205.189 664.717 209.173 657.582C227.855 656.214 235.229 642.391 248.997 635.442C256.177 631.744 261.217 625.532 266.918 620.541C270.74 619.377 275.21 619.101 277.525 615.977C287.217 623.802 278.967 626.244 273.844 630.453C250.447 650.863 220.261 664.697 196.019 684.368C189.928 684.836 187.272 689.593 181.617 690.764C178.012 687.292 182.344 683.678 179.174 680.909C182.941 678.411 186.722 676.246 190.7 673.931Z" fill="#F89A29"/>
<path d="M242.95 674.401C236.215 680.136 226.056 682.896 220.605 689.747C219.182 690.12 218.371 690.381 217.362 690.791C212.635 690.868 209.891 698.462 203.41 691.543C205.862 686.592 212.165 684.988 215.9 681.153C224.621 678.431 229.28 667.673 242.95 674.401Z" fill="#F5A543"/>
<path d="M201.133 889.894C204.363 888.181 207.792 886.319 211.237 884.793C212.484 884.906 213.131 885.466 213.778 886.027C214.225 886.736 214.456 887.259 214.456 887.259C214.513 897.296 202.695 896.724 196.898 901.046C201.237 900.938 204.678 894.897 211.131 900.166C211.767 904.905 207.722 906.879 204.108 909.225C200.879 910.938 197.218 912.277 193.326 913.094C186.309 913.459 181.943 917.41 176.268 919.904C170.992 922.099 165.716 924.295 158.758 921.489C157.895 920.741 157.448 920.032 156.786 919.136C156.538 918.277 156.307 917.755 156.06 916.896C156.197 915.404 156.765 914.285 157.533 913.017C158.517 911.936 159.5 910.855 160.7 909.961C173.802 902.625 184.07 892.188 201.133 889.894Z" fill="#F69622"/>
<path d="M159.317 921.738C168.355 919.551 177.627 917.889 183.549 911.394C185.723 909.08 188.895 910.209 191.882 911.824C191.698 912.31 191.73 912.983 191.546 913.469C184.372 919.849 178.9 927.056 177.902 936.516C177.115 937.45 175.678 937.821 174.209 937.518C170.148 939.491 166.303 941.652 162.443 943.476C158.979 936.287 154.881 928.872 159.317 921.738Z" fill="#F69F36"/>
<path d="M151.393 916.14C152.204 915.54 153.015 914.939 154.029 914.188C154.671 914.417 155.296 914.306 155.938 914.535C157.477 915.861 158.17 917.109 158.677 918.846L157.207 918.878C152.764 922.521 152.357 918.596 151.393 916.14Z" fill="#FBD5A9"/>
<path d="M196.187 684.869C195.471 677.81 201.224 673.489 207.049 670.84C234.009 659.569 251.572 639.471 276.403 626.346C280.811 624.071 281.062 620.429 278.222 616.347C280.617 614.894 283.012 613.44 285.208 612.135C313.406 591.647 343.961 573.532 370.03 551.189C370.001 550.52 370.596 550.073 371.617 549.997C372.778 548.434 373.528 546.835 375.115 545.643C378.149 544.745 381.947 542.583 383.994 547.261C385.813 551.42 387.86 556.098 382.857 558.82C377.245 561.654 373.959 566.193 370.461 570.547C364.099 574.981 358.588 580.156 352.424 584.44C329.296 599.049 308.724 615.882 282.533 630.719C287.396 629.484 288.557 627.921 290.357 626.915C294.213 626.09 298.099 625.934 301.505 628.901C302.009 635.774 292.424 636.758 290.629 642.595C296.624 639.128 300.702 633.993 309.112 634.238C311.594 634.79 313.297 636.273 314.192 638.018C315.373 641.62 315.746 645.484 315.906 649.162C315.287 653.771 311.445 654.93 306.51 654.493C290.063 657.868 273.017 656.859 255.589 656.482C248.413 656.347 244.305 660.813 239.332 664.204C227.782 671.843 217.965 681.633 203.208 686.156C202.202 686.567 201.379 686.494 200.755 686.272C199.095 685.792 197.649 685.498 196.187 684.869Z" fill="#F2921F"/>
<path d="M200.78 689.502C198.559 690.806 196.121 691.922 193.899 693.226C190.088 687.349 198.31 689.945 199.649 687.555C200.699 687.819 201.133 688.194 201.149 688.53C201.165 688.867 200.981 689.352 200.78 689.502Z" fill="#FDEDDA"/>
<path d="M200.694 689.543C200.661 688.865 200.205 688.148 199.548 687.581C199.935 686.942 200.744 686.343 201.571 686.082L201.554 685.743C203.948 687.484 204.437 688.878 201.099 689.243L200.694 689.543Z" fill="#FDEDDA"/>
<path d="M367.968 550.435C355.194 561.46 349.156 578.054 328.605 582.923C325.577 583.492 323.236 585.948 321.092 588.255C311.346 598.712 298.634 606.253 283.588 611.432C287.61 605.299 289.129 597.62 297.751 594.544C305.223 588.211 318.404 587.192 323.107 577.794C335.173 569.366 348.927 562.414 358.672 551.957C361.7 551.388 364.94 551.003 367.968 550.435Z" fill="#F89A29"/>
<path d="M150.262 803.196C153.717 806.515 150.126 809.197 150.879 812.105C151.772 818.031 145.033 819.594 142.318 823.357C137.913 826.3 132.372 826.968 126.538 825.773C136.145 819.292 140.225 809.304 150.262 803.196Z" fill="#F89C2C"/>
<path d="M256.702 970.307C255.853 969.567 255.203 968.678 254.567 968.123C252.912 967.645 251.654 966.869 250.791 965.795C250.127 964.572 250.07 963.236 250.636 962.121C254.156 958.436 259.36 955.897 263.502 952.434C275.888 945.866 287.652 939.077 298.327 930.696C315.887 920.921 331.115 909.112 347.813 898.264C350.81 896.696 354.034 895.648 357.724 895.972C359.577 896.3 360.849 897.41 361.528 898.967C354.586 913.5 338.17 921.378 326.605 932.843C319.083 938.506 311.122 943.466 303.813 949.314C295.852 954.273 287.256 958.677 278.659 963.081C272.495 967.033 264.379 968.318 256.702 970.307Z" fill="#FDAD4C"/>
<path d="M257.217 970.603C263.918 967.025 270.836 963.635 277.336 960.207C281.104 960.554 284.469 961.2 284.047 965.357C282.956 968.613 281.43 971.494 277.761 973.169C272.537 972.855 266.881 967.97 261.637 971.514C260.163 971.211 258.69 970.907 257.217 970.603Z" fill="#E8922A"/>
<path d="M253.199 965.604C253.654 966.321 254.53 967.077 255.204 967.982C252.744 969.102 250.301 970.561 247.639 971.831C246.998 971.603 246.358 971.375 245.717 971.146C245.279 970.769 245.043 970.241 244.605 969.863C244.369 969.335 244.352 968.997 244.318 968.319C244.268 967.303 244.638 966.326 245.009 965.349C245.599 964.561 246.627 964.15 247.655 963.74C249.761 963.936 251.295 965.259 253.199 965.604Z" fill="#F7AF57"/>
<path d="M247.892 971.935C250.781 975.076 250.055 977.373 246.779 979.096C240.917 975.341 240.798 972.965 247.892 971.935Z" fill="#F8A84A"/>
<path d="M209.428 973.454C206.093 968.957 198.012 965.197 204.168 959.226C205.155 958.143 199.959 958.169 197.806 956.63C191.884 950.22 196.749 947.65 201.814 944.93C217.57 944.031 227.772 935.749 239.959 929.829C244.737 929.765 248.561 931.457 251.229 935.055C252.845 938.388 251.706 940.63 248.88 942.381C237.68 947.219 228.433 953.745 220.937 962.107C220.601 963.753 220.064 965.547 219.31 967.154C218.355 968.91 217.216 971.152 215.426 972.831C213.821 974.025 211.765 974.506 209.677 974.315L209.428 973.454Z" fill="#F4931F"/>
<path d="M203.932 946.495C199.422 948.434 195.988 950.979 197.924 956.211C188.633 958.885 191.949 949.762 186.85 948.278C187.001 947.113 187.573 945.987 187.725 944.822C190.3 941.862 193.329 939.617 197.89 938.693C203.596 939.728 206.221 941.992 203.932 946.495Z" fill="#F7A138"/>
<path d="M142.168 823.697C139.184 816.597 148.637 816.773 150.719 812.791C158.146 808.952 165.771 804.964 173.198 801.125C181.683 793.38 194.043 789.648 204.237 783.388C213.218 782.188 210.554 786.952 209.237 789.668C205.441 796.664 198.044 801.172 190.22 805.309C188.585 805.497 186.966 806.019 185.545 806.393C171.582 810.983 161.109 820.218 146.917 824.287C145.267 824.14 143.817 823.844 142.168 823.697Z" fill="#F18F19"/>
<path d="M147.207 824.393C157.625 814.155 170.219 806.776 187.106 803.776C178.334 814.161 167.401 822.021 151.764 825.464L150.162 826.322L148.956 826.881C148.302 825.99 147.861 825.284 147.207 824.393Z" fill="#F79622"/>
<path d="M130.921 843.38C130.251 842.479 129.597 841.914 128.927 841.012C132.181 839.297 135.854 837.621 139.108 835.906C141.858 836.664 143.182 838.13 142.879 840.454C141.083 842.136 138.215 843.215 135.565 844.482L135.347 844.294C134.09 844.177 132.598 843.535 130.921 843.38Z" fill="#F8AC52"/>
<path d="M142.909 840.348C141.575 838.873 140.241 837.398 139.11 835.774C139.937 835.513 140.747 834.913 141.574 834.652C143.263 834.809 144.748 835.116 146.234 835.423C146.572 837.987 144.952 839.187 142.909 840.348Z" fill="#F7A33E"/>
<path d="M145.979 835.557C144.491 835.249 143.003 834.942 141.312 834.784C142.343 834.373 143.155 833.772 144.186 833.361C144.846 833.929 145.303 834.648 145.979 835.557Z" fill="#F8AD55"/>
<path d="M131.04 843.401C132.53 843.709 134.02 844.017 135.51 844.325C134.697 844.927 133.867 845.188 132.835 845.6C132.377 844.88 131.92 844.16 131.04 843.401Z" fill="#FAC280"/>
<path d="M200.542 689.834C202.16 688.978 202.312 687.82 200.999 686.36C212.847 678.236 224.464 669.589 237.178 662.213C244.236 658.004 249.187 648.747 262.975 655.197C266.788 656.885 268.094 653.823 270.529 652.707C273.766 650.994 277.603 648.834 281.649 651.045C285.494 653.405 279.406 656.197 282.466 659.49C289.492 654.608 295.789 647.483 308.343 654.155C306.396 661.175 308.743 671.267 293.017 667.653C280.135 667.145 272.155 673.781 264.128 679.409C255.299 685.633 244.941 690.21 236.761 696.995C234.173 699.27 229.951 702.065 225.145 696.938C227.957 690.666 235.095 688.138 241.6 685.385C251.158 681.404 255.019 675.395 252.92 666.164C237.298 669.088 226.947 678.186 215.267 685.488C213.857 690.716 207.608 690.145 203.122 691.744C202.056 691.144 201.407 690.583 200.542 689.834Z" fill="#F69520"/>
<path d="M197.877 939.19C194.423 941.054 192.945 944.948 187.497 944.445C185.353 943.239 183.492 943.571 181.848 944.091C173.432 946.84 174.239 942.044 174.46 938.034C175.265 937.436 176.287 937.027 176.891 936.579C178.184 933.171 180.348 930.516 183.568 928.126C187.224 926.113 191.381 925.825 196.242 927.114C199.208 928.06 201.571 929.454 203.565 931.821C204.033 932.872 204.1 934.222 203.73 935.196C202.371 937.253 200.995 938.974 197.877 939.19Z" fill="#F6A33F"/>
<path d="M247.932 971.879C244.456 973.75 244.152 976.085 247.039 979.224C244.997 980.384 242.719 981.017 240.119 979.424C238.11 977.043 236.523 974.7 237.855 971.954C239.847 969.776 242.311 968.655 245.923 969.497C246.598 970.404 247.257 970.972 247.932 971.879Z" fill="#F9BC71"/>
<path d="M238.317 973.424C240.088 975.276 241.438 977.088 240.072 979.154L239.87 979.304C238.386 978.997 236.902 978.691 235.62 978.234C234.811 978.833 233.782 979.244 232.754 979.654C232.298 978.937 231.421 978.181 230.359 977.914L230.949 977.125C231.842 974.003 234.304 972.883 238.317 973.424Z" fill="#FCDBB5"/>
<path d="M235.629 978.295C236.921 978.755 238.417 979.063 239.913 979.372C238.417 979.063 236.921 978.755 235.629 978.295Z" fill="#FCE9D2"/>
<path d="M228.488 975.453C226.444 976.272 224.166 976.565 221.805 975.172C221.957 974.011 222.109 972.85 221.842 971.651L222.043 971.501C222.363 969.517 223.335 968.096 225.162 967.089C227.809 965.823 230.707 965.418 233.921 967.226C236.196 971.129 232.293 972.279 230.097 974.259C229.494 974.707 229.091 975.005 228.488 975.453Z" fill="#F8B35F"/>
<path d="M238.12 973.331C235.692 974.448 233.264 975.565 230.851 977.017C230.205 976.457 229.359 976.046 228.514 975.635L228.866 974.33C232.861 971.35 235.963 966.952 242.342 966.36C244.417 966.549 245.494 967.482 245.788 969.347C243.375 970.799 240.748 972.065 238.12 973.331Z" fill="#F8B35F"/>
<path d="M238.304 855.342C241.467 852.287 238.16 847.809 239.664 844.603C239.985 842.627 241.598 841.771 243.842 841.138C249.436 841.478 255.613 841.035 255.148 835.479C254.047 820.673 267.706 816.731 277.001 812.225C272.53 813.826 270.655 813.489 265.135 810.315C268.589 804.612 275.057 801.521 279.802 796.938C288.083 792.842 293.811 787.179 297.602 779.835C298.6 779.09 299.814 778.532 301.258 778.495C309.005 780.701 307.548 784.914 306.921 789.202C306.584 790.843 306.846 792.036 306.768 790.358C307.598 790.433 308.628 790.36 309.642 789.95C310.871 789.727 312.116 789.84 313.576 790.14C314.653 791.073 315.529 792.155 315.791 793.348C316.231 807.258 303.28 813.103 293.296 820.554C286.707 825.471 278.81 828.933 277.126 837.136C272.873 843.435 270.327 850.891 262.246 854.838C256.746 856.512 252.153 859.939 246.207 860.904C241.09 861.945 236.326 861.68 238.304 855.342Z" fill="#FDAA48"/>
<path d="M154.009 865.822C179.945 853.63 200.715 835.979 227.079 824.159C232.715 821.661 237.512 818.754 242.554 826.036C241.878 829.309 239.464 830.428 235.343 830.061C228.317 833.602 221.489 836.995 212.953 838.902C201.577 841.556 191.968 847.034 184.707 854.554C178.438 861.329 168.512 864.279 160.11 869.198C155.908 871.657 155.348 868.274 154.009 865.822Z" fill="#F08E18"/>
<path d="M200.838 889.456C185.224 895.228 175.685 907.558 160.301 913.852C158.844 913.553 157.816 913.628 156.788 913.702C156.159 913.478 155.531 913.255 155.116 913.217C154.257 912.472 153.598 911.578 153.966 910.609C153.306 909.715 152.662 909.155 152.002 908.261C152.8 907.665 153.613 907.405 154.625 906.995C159.302 896.563 171.327 893.474 182.263 889.117C189.027 892.732 194.579 887.89 200.838 889.456Z" fill="#ED9020"/>
<path d="M182.131 888.858C176.807 898.734 163.05 900.329 154.055 906.699C152.073 904.014 148.203 900.657 151.825 898.646C160.468 893.581 169.54 888.889 178.843 884.719C180.271 884.347 181.439 887.292 182.131 888.858Z" fill="#EE8D18"/>
<path d="M235.388 830.572C237.809 829.119 240.246 828.002 242.667 826.549C253.499 831.727 255.408 836.926 245.476 841.878C243.856 842.735 242.021 843.404 240.201 844.41C239.054 842.128 238.693 838.913 234.019 840.997C229.345 843.081 225.987 846.625 220.199 847.1C220.83 838.617 233.674 838.118 235.388 830.572Z" fill="#FC9A25"/>
<path d="M239.428 855.895C240.581 858.183 240.729 861.216 245.634 859.319C251.143 856.975 254.63 851.591 262.846 853.523C262.842 857.717 260.077 860.818 257.949 864.146C256.944 864.892 255.939 865.638 254.716 866.197C249.995 867.607 245.943 869.919 240.987 870.804C238.494 870.91 236.385 870.38 235.232 868.093C234.367 863.147 234.354 858.615 239.428 855.895Z" fill="#F69F39"/>
<path d="M236.078 868.055C237.538 868.354 238.997 868.653 240.672 869.139C244.472 879.842 230.6 879.087 226.302 884.378C225.519 885.31 224.322 886.204 223.108 886.763C219.899 888.811 216.412 889.331 212.371 886.793C211.709 885.898 211.064 885.338 210.403 884.443C217.312 877.55 227.018 873.082 236.078 868.055Z" fill="#F7951F"/>
<path d="M301.175 777.934C300.377 778.53 299.564 778.791 298.552 779.2C293.921 786.129 287.788 791.754 282.083 797.751C277.59 803.189 271.395 807.473 264.111 810.489C263.359 812.091 262.593 813.358 260.998 814.55C257.195 817.045 252.87 817.156 248.392 813.914C240.708 808.213 251.612 807.693 251.244 804.154C252.854 803.297 254.464 802.44 256.074 801.584C263.987 794.283 277.467 791.491 279.444 780.65C277.175 780.612 275.779 786.163 270.136 784.486C263.634 786.571 260 792.755 250.86 791.263C248.712 784.892 253.957 782.36 258.573 779.603C261.394 778.188 264.431 776.959 267.697 776.252C280.717 772.417 291.743 765.563 303.443 759.94C308.09 757.854 312.062 754.539 318.503 755.621C326.14 760.316 322.843 764.861 319.086 768.362C314.348 772.944 309.18 777.153 301.175 777.934Z" fill="#FEB152"/>
<path d="M177.886 835.393C170.741 832.412 165.175 836.919 157.524 836.396C159.671 829.244 168.088 828.5 173.072 824.775C176.46 822.242 182.808 821.312 178.407 815.239C180.171 808.72 188.373 807.79 194 804.624C195.426 804.252 196.868 804.214 198.738 804.55C202.571 807.233 199.351 808.946 197.772 810.473C200.379 808.871 201.912 806.338 205.592 805.668C215.788 807.756 220.234 796.804 231.55 800.828C222.043 809.321 212.323 817.627 202.602 825.933C193.847 828.316 189.063 836.4 177.886 835.393Z" fill="#F6951F"/>
<path d="M252.308 804.715C254.552 807.945 246.053 809.008 251.465 813.034C258.401 818.378 260.082 810.136 265.345 811.126C272.954 813.172 278.071 806.927 287.389 809.804C281.487 812.785 274.697 814.677 271.543 818.416C267.416 823.577 252.614 823.721 261.156 836.266C263.618 839.685 255.066 843.933 249.516 845.604C245.828 846.942 245.863 843.419 244.741 841.804C249.505 836.87 248 831.692 242.119 826.614C242.69 825.491 244.065 823.771 243.412 823.207C231.753 810.877 244.578 808.703 252.308 804.715Z" fill="#FDAE4E"/>
<path d="M178.605 835.725C186.854 832.953 192.04 825.256 202.687 826.186C188.094 838.218 172.682 850.177 153.416 857.808C149.8 859.156 146.382 860.354 144.87 863.216C138.192 859.638 142.217 858.327 145.607 856.461C157.388 850.338 169.592 844.585 178.605 835.725Z" fill="#F08F19"/>
<path d="M230.925 800.922C223.954 801.3 219.395 805.061 214.607 808.302C211.425 810.686 209.516 809.348 206.95 807.118C214.437 795.28 230.033 790.171 239.872 780.378C244.675 777.472 250.363 775.979 256.981 776.904C259.701 777.981 261.61 779.319 261.516 781.812C256.882 783.899 252.676 786.358 251.021 790.712C240.062 789.233 238.86 799.13 230.925 800.922Z" fill="#F4911B"/>
<path d="M270.366 784.529C274.573 782.403 278.567 780.091 283.582 777.703C275.388 791.8 275.388 791.8 256.364 801.609C256.743 796.147 262.864 795.689 266.844 793.043C270.229 790.844 274.252 789.201 270.366 784.529Z" fill="#FDAE4E"/>
<path d="M198.291 804.605C191.682 808.184 185.058 811.428 178.449 815.007C174.052 817.615 169.215 819.519 166.311 823.426C163.009 827.631 158.157 829.2 151.652 825.791C165.569 820.528 173.929 810.107 186.992 804.103C190.969 805.955 193.925 798.553 198.291 804.605Z" fill="#F18F19"/>
<path d="M135.625 844.598C136.732 841.681 139.159 840.227 142.923 840.573C143.337 844.805 140.893 845.922 135.625 844.598Z" fill="#F7A33E"/>
<path d="M154.349 910.596C155.008 911.164 155.464 911.883 156.343 912.64C156.411 913.998 155.6 914.598 153.708 914.591L153.691 914.252C154.045 912.933 154.197 911.765 154.349 910.596Z" fill="#F39B33"/>
<path d="M277.552 973.532C276.972 970.127 279.564 967.851 281.304 965.162C285.029 964.834 288.537 964.318 292.262 963.99C301.115 962.289 306.386 955.231 316.806 955.853C319.794 957.468 320.276 958.852 317.218 960.08C310.983 964.367 310.136 972.669 301.114 975.192C294.021 983.255 285.532 975.27 277.552 973.532Z" fill="#F49420"/>
<path d="M317.259 956.229C307.901 959.392 302.081 967.554 290.276 966.985C294.538 951.997 308.998 947.458 326.043 945.16C328.271 944.192 330.3 943.373 333.052 944.793C332.899 945.949 332.747 947.105 332.394 948.41C329.77 954.188 324.715 956.571 317.259 956.229Z" fill="#E8922A"/>
<path d="M232.951 758.91C228.31 752.309 235.712 751.642 239.104 749.109L239.319 749.296C248.888 750.83 254.014 745.614 260.248 742.001C275.109 732.988 286.897 720.021 308.965 719.512C314.65 726.374 308.831 730.025 305.317 734.384C299.56 739.376 292.083 742.876 284.16 745.668C272.49 747.786 264.953 754.455 254.788 757.879C247.602 758.732 241.907 765.066 232.951 758.91Z" fill="#F7A74C"/>
<path d="M234.093 759C241.788 760.858 245.617 754.528 252.87 755.678C255.577 756.422 257.305 758.245 258.023 760.477C257.39 769.262 249.095 772.355 241.656 776.193C229.292 775.752 220.397 783.796 207.59 782.648C195.728 788.758 184.278 794.905 172.615 800.866C172.588 795.693 178.097 794.685 182.122 792.71C196.632 786.004 208.558 776.73 225.01 772.032C231.515 770.279 229.943 762.799 234.093 759Z" fill="#F7951F"/>
<path d="M243.851 721.496C235.601 720.43 234.476 727.494 228.814 729.324C224.417 731.933 219.762 733.353 213.388 732.953C206.8 732.368 199.16 731.19 194.439 735.769C192.652 737.11 190.594 736.927 189.086 735.294C188.234 734.552 188.359 732.73 188.726 731.763C191.19 727.15 206.205 723.485 212.866 725.742C213.741 722.321 212.374 719.2 209.985 716.156C214.397 704.551 229.912 702.93 239.655 695.964C254.574 685.459 267.957 672.651 289.119 668.865C295.486 673.762 295.957 675.137 288.309 678.457C277.045 683.455 267.912 690.308 258.779 697.162C255.801 699.397 252.397 701.261 256.676 705.306C259.101 713.852 249.337 715.651 245.667 720.824C245.057 720.936 244.447 721.049 243.851 721.496Z" fill="#F59420"/>
<path d="M292.244 669.18C269.24 676.145 252.661 690 234.582 702.224C227.027 707.219 217.152 710.511 209.612 715.84C206.33 715.551 200.401 715.53 205.352 711.804C212.298 706.922 220.744 703.671 225.992 697.308C239.985 694.71 248.811 686 258.105 678.662C268.389 670.578 283.67 669.425 290.572 658.715C295.44 662.638 293.106 665.428 294.635 667.726C294.48 668.877 293.687 669.474 292.244 669.18Z" fill="#F08F1A"/>
<path d="M215.557 685.152C226.614 675.805 236.395 665.346 253.462 662.523C253.66 662.374 254.496 662.781 254.51 663.115C255.191 664.673 253.775 665.048 252.784 665.793C247.53 667.327 246.499 671.898 242.52 674.544C230.621 673.827 224.62 681.789 215.557 685.152Z" fill="#EF9222"/>
<path d="M302.76 731.665C302.345 727.119 309.893 725.295 306.747 719.668C305.151 716.351 306.485 713.967 307.482 713.222C293.432 721.639 275.837 729.236 259.976 738.659C255.958 740.968 251.724 743.091 245.679 741.711C246.63 735.451 253.164 729.528 243.789 723.005C244.111 721.03 245.937 720.36 248.176 719.727C260.588 725.022 267.72 718.652 275.344 713.996C285.774 707.59 295.116 699.917 309.474 698.206C323.817 696.161 333.327 687.668 344.617 682.007C354.725 673.067 365.263 664.5 377.074 656.715C378.485 656.007 379.912 655.635 381.553 655.449C393.074 654.819 398.687 646.809 408.014 643.309C414.502 640.889 419.196 635.301 428.37 637.465C431.485 642.421 427.251 644.544 424.061 646.928C409.887 657.171 397.019 668.867 381.986 678.365C370.896 683.877 361.539 691.215 351.952 698.031C350.158 699.372 346.307 700.862 351.784 703.359C362.293 703.139 367.323 695.911 375.653 693.156C380.73 691.444 384.856 686.973 391.868 691.446C391.961 697.967 385.457 700.052 380.226 702.92C363.521 711.933 345.942 719.865 330.327 730.145C320.801 729.285 313.085 736.437 302.76 731.665Z" fill="#FDAA46"/>
<path d="M246.873 741.635C270.897 729.103 294.921 716.572 319.937 703.295C318.852 711.359 309.94 713.569 307.338 719.667C288.836 727.358 271.626 736.495 257.21 748.709C253.641 751.391 246.972 758.129 238.802 749.081C242.825 747.438 245.161 744.647 246.873 741.635Z" fill="#FEB459"/>
<path d="M200.779 906.631C203.766 904.396 209.31 904.06 208.883 899.183C210.218 892.294 218.58 890.542 222.472 885.552C228.156 879.22 237.529 877.059 244.729 872.366C253.672 874.337 249.152 879.104 249.534 882.976C242.668 895.042 228.301 900.593 215.006 907.075C210.319 908.156 206.382 912.141 200.779 906.631Z" fill="#F7951F"/>
<path d="M201.475 906.861C207.414 909.086 209.727 905.272 213.828 903.972C219.886 904.363 221.674 906.876 219.16 910.839C217.233 914.017 212.963 916.14 213.812 920.749C213.841 925.617 212.398 930.182 204.97 927.316C199.449 925.13 199.695 930.186 195.914 929.502C191.882 927.956 188.183 928.957 184.434 928.947C178.384 920.168 188.461 917.574 191.529 912.152C194.777 910.438 198.227 908.575 201.475 906.861Z" fill="#F3921E"/>
<path d="M222.441 885.257C220.675 891.765 215.316 895.787 208.891 898.883C201.343 899.712 197.093 905.666 187.244 905.459C194.669 897.121 208.363 896.17 212.878 886.908C215.928 886.346 219.192 885.969 222.441 885.257Z" fill="#F2901B"/>
<path d="M153.716 914.683C154.532 914.077 155.349 913.472 156.149 912.524L156.608 913.247C157.884 913.365 158.326 913.747 158.564 914.28C158.802 914.813 158.819 915.155 158.615 915.306C158.461 916.484 158.307 917.662 158.579 918.88C156.811 917.354 155.263 916.018 153.716 914.683Z" fill="#F9BB71"/>
<path d="M158.535 915.294C157.874 914.725 157.197 913.815 156.536 913.246C157.755 912.343 159.245 912.651 160.786 913.98C159.754 914.392 159.144 914.843 158.535 915.294Z" fill="#FAC585"/>
<path d="M191.796 911.989C189.369 917.624 186.942 923.259 184.716 928.746C185.155 933.638 179.792 934.153 176.574 936.202C172.67 923.798 180.845 917.013 191.796 911.989Z" fill="#F69622"/>
<path d="M308.74 635.641C302.777 638.783 296.604 641.74 292.546 646.872C291.194 648.582 288.159 648.82 285.663 647.277C282.549 645.516 284.099 643.656 284.834 641.726C287.433 635.639 294.644 633.269 300.397 629.943C304.742 616.699 318.928 611.108 330.17 602.94C348.151 590.7 363.805 576.101 383.047 564.966C395.21 559.534 403.365 550.27 412.585 542.26C422.579 533.32 434.295 526.853 446.628 520.605C450.687 520.621 453.775 521.716 455.733 525.039C456.837 527.293 456.719 529.442 455.998 531.704C445.558 544.758 427.536 550.85 414.56 561.36C392.876 577.434 370.352 592.771 351.191 611.054C350.836 612.352 349.864 613.431 349.3 614.545C334.076 619.549 326.093 633.145 308.74 635.641Z" fill="#FA9924"/>
<path d="M291.878 669.539C292.668 668.943 293.471 668.68 294.472 668.268C303.575 666.897 300.953 657.528 307.959 654.645C311.833 654.815 314.216 653.359 315.332 650.797C323.788 638.566 338.787 632.055 349.987 622.222C353.725 619.056 358.518 616.812 358.708 611.51C359.783 607.946 361.478 604.603 366.973 604.581C375.594 606.326 383.526 606.183 388.775 600.156C390.777 599.332 392.792 598.842 395.271 599.722C397.368 601.233 398.662 603.008 398.547 605.158C396.335 615.77 382.554 617.235 376.147 624.823C372.212 628.139 367.433 630.716 364.539 634.62C348.56 647.03 331.314 658.333 315.11 670.224C299.076 681.3 282.396 691.488 267.206 703.301C263.625 705.318 259.819 706.816 254.678 705.539C244.212 703.468 245.301 700.238 251.66 696.468C264.167 688.743 273.706 678.102 289.815 673.848C291.619 673.173 291.749 671.356 291.878 669.539Z" fill="#FB9923"/>
<path d="M291.494 628.222C286.724 630.801 281.955 633.381 276.976 635.776C297.244 614.599 323.822 598.947 348.507 581.637C353.174 586.688 348.194 589.083 345.883 592.206C339.196 597.61 332.72 603.199 325.613 608.235C313.039 613.631 307.249 626.254 291.494 628.222Z" fill="#F99925"/>
<path d="M300.604 933.369C289.918 943.091 275.783 949.497 262.492 956.313C258.061 954.078 257.28 950.502 255.885 947.037C254.689 943.424 253.478 939.475 256.683 937.427C272.075 926.961 281.841 910.646 304.591 907.853C311.259 909.456 317.76 902.863 324.474 909.978C323.983 917.279 315.597 918.694 311.044 922.791C307.273 925.957 302.014 928.154 300.604 933.369Z" fill="#FAA644"/>
<path d="M321.133 943.962C322.147 943.553 322.746 943.106 323.76 942.696C324.421 943.592 325.067 944.152 325.729 945.047C313.654 951.974 298.995 956.662 289.966 966.873C286.677 967.243 283.757 966.644 280.989 964.889C282.708 961.87 278.374 961.978 276.852 960.336C286.131 955.496 295.21 950.804 304.49 945.963C310.53 947.012 314.43 942.018 321.133 943.962Z" fill="#F09C3A"/>
<path d="M260.21 948.388C261.374 951.007 262.337 953.775 263.5 956.394C260.558 959.977 256.083 961.912 250.959 963.285C250.807 964.443 250.205 964.891 248.938 964.44C247.719 964.998 246.701 965.407 245.899 966.004C245.731 966.826 245.13 967.273 243.878 967.159C238.802 969.541 233.726 971.923 228.434 974.118C227.639 970.528 231.561 970.05 233.565 968.559C235.16 962.842 239.489 957.879 238.132 951.222C240.072 948.385 243.111 946.821 246.816 946.156C251.371 945.903 256.215 942.997 260.21 948.388Z" fill="#F49828"/>
<path d="M249.05 964.714C249.661 964.262 250.271 963.81 251.322 963.738C251.984 964.308 252.645 964.878 253.103 965.599C251.611 965.291 250.119 964.983 249.05 964.714Z" fill="#F9BE78"/>
<path d="M244.106 967.409C244.713 966.96 245.32 966.51 246.146 966.25C245.994 967.416 245.826 968.244 245.674 969.41C245.017 968.843 244.562 968.126 244.106 967.409Z" fill="#FAC280"/>
<path d="M259.038 947.947C254.83 945.573 251.528 949.779 247.32 947.405C243.752 945.588 241.207 943.695 245.833 941.607C247.834 940.451 249.622 939.111 248.893 936.546C257.058 926.273 268.408 918.45 278.051 909.142C279.242 908.248 280.434 907.354 281.839 906.646C291.394 904.663 297.875 898.073 308.1 897.316C311.41 897.944 313.117 899.428 314.242 901.695C315.03 905.598 312.676 908.055 308.203 908.99C286.408 912.552 277.074 928.886 260.214 937.386C255.006 940.256 260.95 944.784 259.038 947.947Z" fill="#F09C3B"/>
<path d="M280.554 909.826C272.325 920.478 263.443 930.567 248.723 936.257C246.5 933.367 243.119 932.385 239.923 930.915C234.753 927.418 236.665 923.903 237.321 920.271C237.891 919.149 238.678 918.215 239.249 917.093C242.617 913.544 245.784 910.144 249.152 906.595C254.48 900.542 258.965 902.801 263.027 909.216C269.617 916.201 274.145 906.55 280.554 909.826Z" fill="#FEAC4A"/>
<path d="M239.715 921.233C239.86 924.261 240.222 927.477 240.583 930.692C231.475 939.907 220.402 947.1 203.352 946.543C202.79 943.477 201.025 941.305 197.423 939.802C198.377 938.047 199.347 936.629 200.301 934.874C207.856 936.571 212.066 933.439 216.476 930.158C222.89 925.386 228.84 919.566 239.715 921.233Z" fill="#F69724"/>
<path d="M246.561 941.646C245.213 943.694 246.53 945.482 248.061 947.455C244.843 949.169 241.427 951.031 238.209 952.745C235.266 960.491 228.632 964.067 218.077 962.951C217.633 962.244 216.745 960.829 216.944 960.68C225.448 952.933 232.222 943.361 246.561 941.646Z" fill="#ED8D1A"/>
<path d="M218.246 963.154C225.153 959.765 231.642 956.338 238.549 952.949C241.555 954.902 247.637 955.964 243.27 960.257C240.291 963.168 238.598 966.869 233.683 968.429C230.91 967 228.87 967.819 226.629 968.786C223.672 967.844 220.162 968.359 217.156 966.406C217.726 965.285 217.877 964.126 218.246 963.154Z" fill="#F69F37"/>
<path d="M217.422 966.378C220.931 965.526 224.473 965.35 226.939 968.773C225.311 969.63 223.682 970.488 222.053 971.346C219.049 969.723 216.799 970.692 214.331 971.472C213.576 968.88 215.826 967.912 217.422 966.378Z" fill="#FBD3A4"/>
<path d="M207.854 782.835C215.221 777.323 225.678 776.426 234.162 772.849C236.582 771.732 238.924 773.443 241.066 775.304C241.127 776.645 240.575 778.097 239.595 779.177C226.439 788.674 217.797 802.415 197.723 804.618C193.698 802.087 190.389 806.295 186.164 803.914C194.098 797.284 206.088 793.856 207.854 782.835Z" fill="#ED8A14"/>
<path d="M239.077 920.914C231.464 925.57 221.707 928.365 216.053 935.366C211.932 939.835 206.189 940.321 199.958 934.588C200.754 933.992 201.566 933.731 202.363 933.135C203.176 928.369 210.266 930.341 212.81 927.399C215.169 924.941 218.371 922.892 213.67 919.133C224.424 911.087 229.376 897.682 247.234 896.449C249.286 896.3 251.323 895.815 253.39 896.001C260.373 900.132 253.434 901.512 252.515 903.932C249.679 909.518 243.261 913.28 241.482 919.461C240.686 920.057 239.874 920.318 239.077 920.914Z" fill="#F59522"/>
<path d="M213.809 920.819C214.327 922.881 222.504 919.607 218.63 925.629C215.141 931.014 208.491 931.408 202.743 933.228C200.6 932.023 198.256 930.967 196.112 929.762C198.094 923.398 197.926 924.222 207.389 925.934C213.067 926.962 211.194 922.76 209.17 919.719C211.148 917.552 212.655 918.53 213.809 920.819Z" fill="#F69724"/>
<path d="M221.958 971.611C223.072 972.896 222.921 974.064 221.925 975.154C221.857 973.797 221.806 972.779 221.958 971.611Z" fill="#FCE8CE"/>
<path d="M256.398 863.741C254.495 858.548 257.897 856.014 262.363 854.079C268.335 848.934 268.554 840.421 276.454 836.624C275.91 833.897 276.831 831.471 279.465 830.206C292.8 823.056 302.879 812.765 315.135 804.68C326.25 807.534 329.186 812.655 324.158 820.227C323.774 820.862 323.405 821.832 322.589 822.092C318.154 824.699 316.728 829.589 312.862 831.077C317.713 828.508 320.324 822.387 327.255 820.008C347.552 819.851 332.199 828.156 333.854 832.49C332.902 834.243 331.733 835.81 330.348 837.19C315.291 847.361 297.657 855.625 289.282 871.258C283.694 875.768 275.987 874.898 268.928 874.589C262.606 872.339 259.102 868.338 256.398 863.741Z" fill="#FDAB4A"/>
<path d="M328.669 821.689C318.14 827.088 311.986 837.24 295.078 839.377C301.28 830.234 312.587 828.087 317.218 820.809C320.712 815.771 327.339 811.187 317.065 804.554C314.621 801.15 315.51 798.05 317.032 795.175C318.939 791.667 314.7 794.125 314.019 792.891C313.354 791.993 312.705 791.431 312.04 790.533C314.635 775.367 332.417 778.501 344.493 775.085C353.22 779.734 346.297 782.449 344.374 785.622C342.571 786.964 340.567 788.455 338.5 788.6C330.847 789.072 335.175 792.817 336.136 795.584C334.606 802.643 329.943 809.248 330.929 816.873C330.392 818.665 329.006 820.045 328.669 821.689Z" fill="#FDA740"/>
<path d="M325.555 768.937C317.737 775.094 311.423 782.229 308.319 791.168C306.142 793.483 305.769 798.649 300.452 796.314C295.771 794.206 299.989 791.072 301.346 789.016C303.257 785.502 304.347 782.248 301.04 778.421C302.901 773.896 307.37 771.624 311.838 769.352C317.11 766.482 322.366 763.276 318.074 756.34C316.955 754.727 314.647 754.347 313.528 752.734C313.262 751.536 313.213 750.525 313.783 749.403C315.357 747.535 317.165 746.192 319.826 745.263C326.819 743.559 329.426 745.812 328.667 751.612C328.749 753.297 328.413 754.943 328.495 756.628C329.343 761.235 326.395 764.821 325.555 768.937Z" fill="#FEAD4D"/>
<path d="M314.107 792.764C315.704 791.905 317.103 791.196 321.497 788.919C319.729 795.418 318.287 799.949 317.042 804.332C303.194 814.765 289.558 825.383 275.71 835.816C271.191 830.264 277.026 828.279 279.966 825.375C285.646 819.717 294.279 816.314 300.78 810.728C306.672 805.255 310.715 799.453 314.107 792.764Z" fill="#F5A13E"/>
<path d="M282.395 798.175C285.124 790.249 290.814 784.255 299.039 779.82C298.432 789.269 291.261 794.298 282.395 798.175Z" fill="#FEAD4D"/>
<path d="M257.477 863.825C264.655 864.829 265.986 870.515 270.35 873.955C267.588 881.621 260.613 884.681 250.285 883.553C249.207 882.947 248.55 882.38 247.909 882.152C243.967 878.752 247.589 875.717 247.016 872.63C247.436 868.455 250.688 866.397 254.816 865.095C255.843 864.685 256.652 864.086 257.477 863.825Z" fill="#FEB04C"/>
<path d="M254.695 864.838C252.983 867.85 250.861 870.825 247.04 872.32C238.634 876.574 230.439 881.013 222.033 885.266C222.017 880.105 227.721 879.608 231.301 877.26C234.669 874.727 240.586 874.415 240.57 869.254C245.198 867.497 247.857 862.738 254.695 864.838Z" fill="#F4911B"/>
<path d="M313.81 751.02C314.468 751.913 315.111 752.471 315.554 753.179C301.617 763.607 285.493 771.17 268.312 778.138C265.693 779.404 263.075 780.671 260.456 781.938C259.37 780.672 258.268 779.072 256.967 777.62C256.937 776.95 257.106 776.131 257.29 775.647C258.822 773.115 261.425 771.513 264.473 770.619C275.36 765.589 286.462 760.746 297.335 755.381C302.158 752.811 306.738 749.384 313.81 751.02Z" fill="#FEA738"/>
<path d="M268.521 778.366C284.138 770.089 299.756 761.811 315.572 753.384C318.025 753.268 318.876 754.009 317.715 755.572C305.499 761.986 293.084 768.548 280.655 774.777C277.268 776.975 274.336 780.213 268.521 778.366Z" fill="#FEB85B"/>
<path d="M198.121 804.926C214.573 798.379 224.435 785.436 238.969 776.892C241.651 777.626 242.936 779.068 242.822 781.221C233.271 791.863 220.969 800.102 206.973 806.863C202.778 808.991 198.583 811.12 193.796 813.695C192.993 809.135 199.714 808.89 198.121 804.926Z" fill="#FC9923"/>
<path d="M242.062 781.269C240.769 779.822 239.475 778.374 238.182 776.926C238.777 776.48 239.785 776.069 240.38 775.622C243.153 768.704 253.98 767.832 256.54 760.729C262.547 752.765 272.405 748.475 282.064 744.334C289.482 740.494 297.098 736.505 304.516 732.665C309.852 732.805 314.292 731.2 318.292 728.889C321.482 726.84 324.775 727.132 327.788 730.398C327.722 733.558 325.553 735.531 322.958 737.133C314.165 742.351 304.293 746.306 296.14 752.08C294.934 752.64 293.942 753.385 292.751 754.279C284.186 760.016 274.982 765.197 265.138 769.822C261.11 771.464 257.067 772.771 256.434 777.046L256.647 777.232C252.677 780.212 246.488 779.329 242.062 781.269Z" fill="#FDB358"/>
<path d="M281.622 743.719C274.305 750.237 265.932 756.159 256.03 760.109C254.731 758.658 253.432 757.208 252.132 755.757C262.462 752.178 268.649 743.391 281.622 743.719Z" fill="#F69C30"/>
<path d="M255.722 706.039C258.936 704.325 262.349 702.463 265.777 700.935C273.441 702.122 274.87 692.742 283.421 695.343C286.05 698.914 283.876 700.888 281.717 703.197C269.98 707.483 264.112 718.801 249.333 719.478C247.512 720.149 245.706 721.155 243.885 721.826C242.697 713.713 254.585 712.776 255.722 706.039Z" fill="#F29320"/>
<path d="M249.129 719.665C258.916 713.035 267.617 705.139 279.547 700.37C283.206 703.869 280.219 706.104 277.615 707.706C270.784 711.431 264.581 715.379 258.393 719.662C266.144 713.517 276.267 709.754 283.574 702.901C292.841 693.889 304.283 687.407 319.183 684.573C326.716 687.252 322.963 690.753 321.66 693.806C317.892 696.972 313.894 699.617 307.677 698.725C293.02 706.92 278.975 715.003 264.302 722.863C259.279 725.582 253.045 728.86 249.129 719.665Z" fill="#FEB85E"/>
<path d="M213.059 920.583C211.603 920.285 210.147 919.987 208.691 919.688C207.863 915.107 211.91 913.468 215.099 911.084C218.502 908.887 218.165 906.019 213.336 904.081C227.117 898.979 238.078 890.785 248.824 882.404L249.023 882.255C252.364 883.224 254.924 885.123 256.288 887.917C257.054 891.158 258.449 894.622 253.773 896.037C248.93 898.272 245.143 901.103 239.196 901.736C234.061 902.108 228.174 904.082 228.373 908.44C228.158 917.268 219.528 917.826 213.059 920.583Z" fill="#F2901B"/>
<path d="M313.502 668.862C314.947 669.156 316.392 669.451 317.838 669.745C319.723 670.744 320.602 672.153 319.853 673.752C308.765 682.431 299.834 693.631 282.097 695.229C276.232 696.875 273.006 702.751 264.943 700.874C280.194 689.066 295.883 677.963 313.502 668.862Z" fill="#ED8C18"/>
<path d="M309.046 897.837C299.893 901.52 293.382 908.456 281.788 908.737C273.702 895.613 287.403 891.676 293.914 884.739C301.049 882.211 293.019 874.616 298.857 870.965C303.894 867.91 307.417 863.545 315.096 863.745C317.915 861.994 315.68 871.664 320.373 865.733C322.527 863.084 326.411 861.933 331.071 864.032C333.368 873.112 325.696 877.432 320.355 882.802C313.443 890.037 303.057 893.942 296.05 899.16C302.68 899.096 304.683 888.903 315.405 892.057C317.294 896.916 314.027 897.957 309.046 897.837Z" fill="#FDAD4B"/>
<path d="M299.414 886.466C289.736 891.605 281.964 897.752 282.263 908.641C281.465 909.237 280.65 909.498 279.636 909.907C276.21 911.769 272.354 913.258 269.143 915.306C262.339 920.037 261.228 913.92 258.813 910.861C261.006 904.709 265.536 899.939 270.697 895.394C274.875 891.929 278.853 888.613 283.461 885.521C288.425 885.637 292.952 876.355 299.414 886.466Z" fill="#FEB352"/>
<path d="M272.295 896.975C269.669 902.758 264.268 906.782 258.852 910.471C257.725 908.528 258.446 906.252 254.824 904.082C250.303 909.19 247.077 915.42 241.06 919.555C240.385 909.625 251.976 905.161 253.844 896.466C254.149 894.152 254.454 891.838 254.758 889.524C259.406 887.104 263.759 882.816 270.956 886.148C278.568 889.518 267.762 893.05 272.295 896.975Z" fill="#FCA843"/>
<path d="M288.482 871.105C283.596 862.996 293.383 861.203 296.705 857.331C305.322 847.762 316.292 840.238 330.485 835.837C335.563 834.457 340.401 827.718 345.778 833.035C351.584 838.725 344.164 842.897 340.002 846.361C335.059 850.755 328.604 853.513 323.02 857.35C311.915 861.86 301.666 867.114 292.287 873.446C290.238 873.597 288.969 872.816 288.482 871.105Z" fill="#F29F3D"/>
<path d="M289.391 871.061C290.046 871.626 290.718 872.529 291.591 873.282C297.415 881.22 284.451 881.028 284.936 886.621C282.685 891.793 276.941 893.952 271.65 896.825C269.383 897.455 267.837 900.002 265.05 898.567C262.901 897.359 264.061 895.449 265.035 894.026C266.614 892.155 269.922 891.452 270.159 887.775C264.013 886.029 260.384 892.923 253.937 889.299C251.939 886.928 249.942 884.557 247.743 882.336C257.163 882.704 262.958 877.356 270.113 874.151C274.9 869.55 283.681 873.895 289.391 871.061Z" fill="#F5A13E"/>
<path d="M267.739 861.298C272.15 854.187 282.128 851.912 286.967 845.172C288.713 842.827 293.396 841.745 296.423 845.019C298.579 847.214 296.236 850.006 293.405 851.087C285.354 855.037 278.404 860.586 267.739 861.298Z" fill="#E69231"/>
<path d="M319.246 741.365C327.9 737.966 332.529 731.382 338.858 726.279C344.593 721.624 349.477 716.227 359.538 716.949C356.471 726.502 342.247 728.909 339.803 738.684C336.833 745.748 324.332 740.648 320.724 747.157C318.117 748.425 315.724 749.879 313.316 750.998C300.57 759.198 285.002 763.651 272.879 772.072C270.897 773.562 267.199 773.235 264.153 773.799C259.841 768.756 265.962 768.297 268.356 766.843C276.329 761.886 285.806 758.56 292.503 752.491C300.902 747.904 307.783 741.352 319.246 741.365Z" fill="#F9A23B"/>
<path d="M292.66 751.868C291.913 758.294 283.957 758.759 279.598 762.037C274.447 765.912 265.669 766.304 264.13 773.326C261.525 774.595 259.133 776.049 256.727 777.169C254.985 774.685 254.672 772.161 257.46 770.409C269.264 764.29 280.856 757.987 292.66 751.868Z" fill="#F9AA4F"/>
<path d="M282.585 695.461C295.974 688.813 305.721 678.022 319.97 672.447C331.679 664.654 342.739 655.974 358.539 653.362C361.208 653.761 364.285 654.196 363.606 657.463C351.232 668.856 339.055 680.101 320.514 685.467C297.255 695.078 280.403 711.569 256.762 721.813C260.185 710.968 274.813 709.584 279.124 700.481C281.115 699.324 282.895 697.982 282.585 695.461Z" fill="#FEBC5F"/>
<path d="M349.486 869.881C345.925 872.898 339.164 873.129 339.003 878.781C330.785 883.217 322.766 887.503 314.334 891.752C307.72 895.33 301.305 898.76 294.478 902.152C304.114 888.01 323.478 880.4 329.73 863.957C331.643 860.794 333.57 857.966 337.815 856.51C338.521 853.906 341.559 853.01 343.973 851.892C348.203 850.101 353.559 850.578 356.974 853.548C362.08 857.669 357.468 860.092 354.716 862.847C352.759 865.006 349.964 866.757 349.486 869.881Z" fill="#FDAD4B"/>
<path d="M321.629 854.339C323.514 859.517 320.126 862.049 315.482 864.135C309.442 867.264 302.973 870.02 299.309 875.533C294.848 881.641 304.904 876.203 303.601 879.257C302.267 881.641 300.305 883.802 298.557 886.148C292.534 880.598 289.314 886.818 284.578 886.893C280.761 880.039 291.645 879.183 291.185 873.633C297.532 863.687 311.42 860.932 321.629 854.339Z" fill="#FDAD4B"/>
</svg>
