<svg width="283" height="1129" viewBox="0 0 283 1129" fill="none" xmlns="http://www.w3.org/2000/svg">
<g opacity="0.6">
<path d="M124.808 933.544C128.061 946.772 134.868 954.096 145.453 956.147C150.96 958.18 153.789 963.809 156.618 969.439C159.78 976.014 163.965 979.093 169.842 974.983C173.27 969.517 174.041 961.31 180.235 958.899C181.463 956.786 181.751 954.406 181.101 951.761C180.545 950.183 179.511 948.849 178.35 947.952C163.403 945.517 151.25 934.217 138.347 924.788C137.314 923.454 135.913 922.679 134.385 922.341C130.485 922.466 127.602 924.679 125.163 928.154C124.413 930.024 124.141 931.651 124.808 933.544Z" fill="#F8AF5A"/>
<path d="M133.378 709.682C131.688 712.707 129.998 715.731 128.308 718.755C126.493 722.204 122.835 725.135 125.609 730.613C126.731 732.218 127.745 733.516 129.353 734.153C132.568 735.426 136.378 736.037 138.972 734.004C152.665 722.753 168.227 715.988 183.789 709.222C189.757 706.573 190.107 701.33 182.896 697.367C172.966 695.862 165.836 703.803 160.336 706.216C155.648 708.581 155.747 704.188 156.276 706.455C156.385 706.761 156.619 706.643 156.853 706.525C162.462 704.419 168.507 703.541 171.342 695.958C171.391 693.762 170.612 692.345 169.13 691.283C158.839 690.322 150.57 697.389 141.337 700.962C138.29 702.499 135.897 705.878 133.378 709.682Z" fill="#F4A13E"/>
<path d="M265.808 987.309C271.094 982.887 281.144 991.774 283.741 979.068C288.553 980.231 292.408 977.95 296.387 975.249C306.352 967.778 316.659 960.492 328.59 957.744C336.224 951.436 345.857 948.409 350.826 937.727C350.643 935.68 349.761 933.981 348.645 932.399C343.433 928.584 338.737 932.354 334.2 934.263C313.594 943.482 294.954 957.425 275.231 968.343C270.103 970.903 265.316 973.65 262.743 980.282C262.086 983.82 262.952 986.24 265.808 987.309Z" fill="#F89C2C"/>
<path d="M209.141 578.653C205.151 579.945 200.943 580.617 197.627 583.031C190.509 588.837 190.564 581.129 189.045 576.047L188.448 576.716C180.99 576.842 174.392 580.19 168.781 586.329C164.962 590.461 161.597 595.094 165.39 602.68C166.36 606.211 172.19 600.692 171.1 607.829C172.399 612.291 175.051 613.505 178.427 613.622C180.06 613.524 181.238 612.927 182.652 612.209C192.691 606.018 199.924 595.033 208.724 586.91C210.061 584.403 210.818 581.825 209.141 578.653Z" fill="#FDDAB2"/>
<path d="M165.42 601.616C167.079 584.515 180.626 584.553 188.111 576.081C177.425 572.432 152.486 584.642 147.712 596.085C145.38 601.959 147.264 605.708 152.134 605.422C156.895 604.829 161.111 602.704 165.42 601.616Z" fill="#F9AF5A"/>
<path d="M149.74 620.263C139.067 620.578 131.682 629.38 122.972 635.228C117.797 638.566 112.68 644.41 115.548 650.935C119.196 658.878 124.034 649.912 128.457 649.128C138.115 647.513 143.314 638.003 149.962 631.022C152.013 627.45 152.439 623.973 149.74 620.263Z" fill="#FCC079"/>
<path d="M266.287 986.008C265.399 984.284 264.402 982.254 263.279 980.649C260.816 976.824 257.475 975.976 253.883 975.979C251.79 976.311 249.915 977.257 248.04 978.203C238.196 983.17 225.987 979.919 218.088 991.143C217.586 992.844 217.897 994.497 218.911 995.796C235.866 999.185 251.815 995.844 266.287 986.008Z" fill="#F9BC73"/>
<path d="M110.313 750.177C106.905 754.151 99.9983 755.426 103.347 764.924C110.724 774.612 99.1315 778.645 100.499 786.537C101.058 788.12 101.856 789.581 102.782 790.603C105.817 792.792 108.997 793.788 112.305 794.344C115.151 794.39 117.438 792.852 119.038 790.171C119.663 788.733 119.936 787.1 120.209 785.467C120.499 783.079 120.437 780.497 120.727 778.109C118.354 767.368 118.604 756.039 114.441 745.835C112.187 745.862 110.842 747.667 110.313 750.177Z" fill="#F9B768"/>
<path d="M146.893 672.194C142.656 673.613 143.987 682.122 139.184 682.726C137.75 684.19 136.552 685.534 135.118 686.998C132.118 695.871 136.13 699.343 142.033 701.854C151.986 700.837 160.289 695.146 168.922 690.39C169.191 688.784 168.878 687.106 168.092 685.668C162.524 678.578 156.2 689.876 150.615 683.529C147.878 680.512 150.812 674.611 146.893 672.194Z" fill="#FAAA4D"/>
<path d="M93.8782 839.913C89.3085 852.723 94.8385 861.148 102.407 868.911C106.883 871.13 110.48 870.051 113.532 866.627C115.207 860.907 109.834 856.147 111.749 850.305C114.492 833.929 100.348 838.123 96.3588 830.038C90.0344 830.631 95.1327 837.028 93.8782 839.913Z" fill="#F7AB4F"/>
<path d="M218.72 994.713C218.39 993.776 217.949 992.526 217.619 991.589C220.195 986.226 225.277 984.008 227.964 978.957C229.18 976.865 229.467 974.508 228.822 971.889C228.271 970.327 227.483 968.885 226.222 967.685C222.879 965.333 219.597 965.528 216.519 967.094C215.336 967.697 214.152 968.299 213.078 969.214C211.894 969.816 210.821 970.731 209.747 971.645C206.889 973.836 204.032 976.027 202.198 979.538C201.075 982.689 200.883 986.103 203.516 988.816C207.707 995.158 212.278 1000.2 218.72 994.713Z" fill="#F7AD53"/>
<path d="M203.751 987.696C203.452 985.257 203.263 983.132 202.964 980.693C203.235 979.075 203.157 977.264 202.842 975.574C202.289 974.004 201.261 972.677 200.232 971.35C196.672 967.611 192.714 965.925 188.231 966.727C184.096 967.722 180.752 970.165 178.31 974.37C175.538 993.549 186.913 989.237 194.625 991.233C198.583 992.919 201.103 990.525 203.751 987.696Z" fill="#FAC687"/>
<path d="M149.819 627.986C154.201 629.406 158.025 624.561 162.374 627.453C163.75 628.211 165.253 628.542 166.771 628.138C170.984 626.734 174.65 623.788 177.19 619.229C178.288 616.854 178.463 614.22 177.371 611.135C175.541 609.879 173.82 608.931 171.99 607.675C164.783 613.139 157.468 618.296 149.279 620.985C149.573 623.382 149.524 625.589 149.819 627.986Z" fill="#FCC787"/>
<path d="M113.891 866.648C110.125 866.338 106.342 866.778 103.098 869.545C101.613 878.102 108.059 885.22 106.574 893.777C107.401 893.728 107.767 893.17 108.133 892.612C112.708 893.625 116.285 891.803 118.975 887.462C118.996 881.136 118.429 874.738 119.276 868.363C117.673 866.208 116.037 865.555 113.891 866.648Z" fill="#FAC788"/>
<path d="M292.47 505.925C294.163 502.888 292.945 500.233 291.384 497.389C286.949 503.629 279.894 502.473 272.757 504.992C277.928 512.553 283.001 508.897 287.413 508.846C287.79 507.565 288.62 506.782 289.778 506.923C290.826 506.756 291.766 506.281 292.47 505.925Z" fill="#FAB35F"/>
<path d="M103.188 787.343C101.638 788.501 99.9782 789.346 98.1914 790.625C96.0406 792.458 93.6527 794.412 91.5019 796.245C91.0393 801.28 92.8379 804.795 96.4398 806.285C97.8463 806.307 99.1424 806.017 100.218 805.1C101.293 804.184 101.911 802.762 102.528 801.34C102.655 800.906 103.019 800.352 103.273 799.484C103.906 797.315 104.54 795.147 104.827 792.786C104.843 792.039 104.86 791.292 104.639 790.666C104.198 789.414 103.519 788.282 103.188 787.343Z" fill="#FCE4C6"/>
<path d="M90.8506 814.397C87.8705 817.015 87.332 820.231 89.3451 824.355C90.3844 824.93 91.5502 825.073 92.7323 824.472C95.2231 822.838 97.4939 820.58 99.4181 818.131C101.106 815.801 102.101 813.089 102.057 809.802C101.837 809.179 101.507 808.243 101.286 807.62C100.137 806.733 98.9714 806.59 97.7892 807.192C94.1491 807.939 92.0984 810.821 90.8506 814.397Z" fill="#FCE8CE"/>
<path d="M269.826 543.556C267.668 552.16 260.78 550.596 255.644 553.17C247.965 560.959 236.641 561.617 230.172 572.024C226.92 572.937 227.554 575.485 229.105 578.29C237.295 583.501 243.481 575.386 250.436 574.05C263.444 570.398 274.608 561.58 286.423 554.585C289.816 552.526 295.962 551.238 292.241 542.355C284.301 536.302 277.523 545.073 269.826 543.556Z" fill="#FCBD74"/>
<path d="M229.503 576.562C230.006 574.852 230.165 572.951 230.433 571.359C222.087 570.488 216.44 578.807 208.515 579.906C208.247 581.498 207.745 583.209 207.477 584.801C218.211 593.201 221.955 592.033 229.503 576.562Z" fill="#FCC079"/>
<path d="M136.544 927.944C136.855 929.604 136.697 931.502 137.478 932.925C141.148 940.156 153.317 930.729 153.081 946.48C160.968 946.853 168.663 950.595 176.473 949.189C180.744 950.3 183.688 948.448 186.102 944.318C191.625 930.983 201.833 926.183 212.15 921.691C230.201 914.015 244.003 899.036 256.134 880.903C246.053 869.644 242.966 888.291 235.85 884.62C237.401 882.745 241.688 883.121 244.305 880.344C247.751 876.783 250.728 873.46 245.867 867.557C241.662 863.504 236.954 861.16 231.618 860.951C226.484 862.093 220.963 859.797 215.61 860.323C205.451 862.917 197.586 871.985 187.881 875.076C184.702 877.048 181.977 879.517 179.47 882.603C175.63 888.18 170.523 893.308 171.358 902.701C165.71 916.463 157.299 923.99 144.125 921.201C142.733 921.179 141.34 921.156 140.166 921.75C138.161 923.128 136.954 925.192 136.544 927.944Z" fill="#F6941E"/>
<path d="M186.337 943.706C183.289 945.944 180.007 948.299 176.959 950.537C177.625 951.632 177.95 952.541 178.617 953.636C181.207 956.268 184.298 957.223 187.421 956.733C202.322 945.357 218.089 936.404 233.531 926.542C237.979 923.604 242.194 920.783 247.183 919.361C259.635 914.207 272.646 909.846 284.557 903.178C292.236 900.053 300.799 898.629 305.18 888.584C308.003 881.102 316.565 879.679 317.822 870.123C315.706 861.897 310.949 863.204 306.643 864.999C302.445 867.098 298.897 871.014 294.266 871.9C292.292 872.53 290.426 873.463 288.669 874.698C281.24 886.982 271.126 875.612 262.33 877.152C261.489 878.644 260.99 880.322 260.598 882.303C246.764 897.431 232.714 911.953 215.114 920.394C204.386 925.757 193.099 930.327 186.337 943.706Z" fill="#FA9822"/>
<path d="M185.951 954.492C183.749 954.517 181.782 954.424 179.69 954.756C179.422 956.338 179.264 958.227 178.763 959.927C178.664 964.318 171.138 964.135 174.129 970.223C176.466 974.471 179.905 970.928 182.935 970.123C185.262 969.673 187.388 967.877 189.682 968.891C192.771 970.588 195.97 972.593 199.168 974.597C199.746 974.668 200.089 974.857 200.776 975.234C201.244 974.997 201.713 974.761 202.182 974.525C203.604 973.083 205.261 971.524 207.136 970.579C208.073 970.106 208.885 970.058 209.931 969.892C210.869 969.419 212.275 968.71 213.539 969.158C214.46 969.417 215.381 969.676 216.302 969.935C219.332 969.13 222.127 968.444 224.923 967.757C226.421 968.087 227.593 967.496 228.547 966.291C232.292 954.272 246.34 958.04 249.759 945.1C241.783 928.863 236.332 944.637 228.664 945.61C227.809 942.424 232.327 937.25 226.944 934.539C214.89 934.831 205.559 942.793 196.447 951.369C193.133 954.487 190.724 958.597 185.951 954.492Z" fill="#F89824"/>
<path d="M190.014 967.884C185.418 964.341 181.021 967.678 176.108 967.971C177.229 964.829 178.113 961.807 178.998 958.785C172.43 959.919 168.819 964.694 170.134 973.947C170.7 974.762 171.266 975.577 171.832 976.391C173.849 974.998 175.85 974.349 178.258 976.432C182.182 973.335 185.98 970.67 190.014 967.884Z" fill="#F6A33F"/>
<path d="M134.01 919.319C130.924 922.332 125.59 922.123 126.239 929.425C129.308 927.146 132.377 924.868 135.445 922.589C135.478 921.12 135.041 919.887 134.01 919.319Z" fill="#F39B33"/>
<path d="M133.851 919.49C134.295 920.748 134.865 921.57 135.309 922.828C135.99 923.965 136.323 924.908 137.004 926.045C138.56 924.881 140.116 923.718 141.562 922.24C142.182 920.811 141.628 919.239 140.708 918.223C139.09 916.821 137.329 916.605 135.679 916.704C134.377 916.996 133.535 917.796 133.154 919.103L133.851 919.49Z" fill="#F89F36"/>
<path d="M166.822 689.207C167.491 690.314 167.818 691.232 168.487 692.338C168.922 693.562 169.483 694.363 169.918 695.587C180.521 697.464 187.959 685.78 198.578 686.928C209.056 689.229 219.131 688.846 227.875 680.835C235.949 671.718 244.659 665.167 257.01 666.525C264.51 667.439 272.453 664.161 277.5 655.846C273.283 647.866 280.105 642.988 279.91 636.23C273.603 628.581 268.496 634.4 263.221 637.418C261.582 638.243 260.554 637.678 262.192 636.853C262.66 636.617 262.585 634.851 262.383 633.509C258.394 630.827 254.514 628.452 256.175 621.481C255.146 620.916 253.758 620.894 252.479 621.177C239.011 628.32 230.12 642.9 219.329 654.468C216.002 658.308 212.676 662.148 208.027 663.046C205.92 664.107 203.922 665.474 200.269 668.396C204.282 664.932 206.639 663.023 207.189 659.138C206.879 657.49 206.101 656.077 204.964 655.207C193.467 657.027 184.038 664.662 173.847 670.154C167.636 673.643 169.278 682.919 166.822 689.207Z" fill="#FCA946"/>
<path d="M227.357 679.111C218.726 683.427 209.679 685.807 199.956 682.452C195.067 689.542 183.836 686.584 182.729 699.642C184.296 701.716 188.628 703.837 183.155 706.217C176.64 708.76 170.434 712.936 163.736 713.427C149.982 714.947 143.086 734.115 128.264 731.881C126.69 735.169 126.391 738.177 129.79 740.764C136.955 740.039 144.569 739.804 150.684 734.602C154.548 726.953 161.621 725.203 167.469 721.564C169.46 720.211 168.195 725.131 169.903 726.063C171.952 727.182 173.802 726.972 176.009 726.225C191.796 716.544 205.924 703.762 223.352 697.905C226.884 694.71 228.274 689.37 230.673 685.312C231.281 683.936 231.673 681.954 231.939 680.392C230.498 677.897 229.273 676.009 227.357 679.111Z" fill="#F79D32"/>
<path d="M182.559 698.763C186.33 690.106 197.894 693.245 199.775 681.61C188.611 681.124 179.811 688.013 171.012 694.902C165.617 699.022 160.223 703.141 154.72 706.959C164.752 706.584 173.918 703.79 182.559 698.763Z" fill="#EA942E"/>
<path d="M130.133 739.389C129.959 736.493 129.658 734.034 129.485 731.138C128.799 729.995 128.465 729.045 127.779 727.902C119.091 729.713 119.767 742.054 114.429 747.756C111.577 758.909 117.269 769.443 117.388 780.202C125.803 780.022 123.862 771.31 124.954 764.784C124.802 755.534 126.294 746.94 130.133 739.389Z" fill="#F6A94C"/>
<path d="M249.722 981.05C251.355 980.233 252.88 979.113 254.746 978.179C265.786 974.444 273.975 964.271 283.774 959.369C281.049 962.519 273.95 960.352 276.376 970.218C292.282 965.478 305.262 952.552 320.301 945.386C329.399 940.834 338.172 935.373 347.904 933.365C353.761 924.359 347.345 922.564 342.453 919.65C337.387 919.325 332.271 921.169 327.147 918.371C319.239 916.251 312.723 918.795 305.675 924.466C291.328 936.647 276.965 949.551 260.076 956.927C252.844 960.544 245.954 964.349 241.047 972.165C239.182 983.105 246.072 979.301 249.722 981.05Z" fill="#FC9A24"/>
<path d="M276.944 970.474C276.516 963.85 282.639 964.011 284.893 956.399C274.286 965.331 260.92 963.412 254.918 978.308C257.174 980.774 259.806 981.97 262.721 980.865C267.649 977.667 272.359 973.859 276.944 970.474Z" fill="#F89927"/>
<path d="M229.782 577.192C222.775 580.706 218.014 592.061 207.894 585.3C196.9 591.531 189.569 604.174 179.351 611.809C183.14 617.799 186.693 613.866 190.088 611.804C194.059 609.813 197.612 605.879 202.651 607.656C208.841 609.573 213.444 600.091 220.253 605.285C221.621 606.033 222.772 606.173 224.049 605.892C230.621 601.161 237.194 596.43 243.876 592.003C247.87 583.903 257.873 585.701 261.091 576.196C259.253 565.64 252.723 573.578 249.102 570.373C241.76 568.316 237.466 579.436 229.782 577.192Z" fill="#EE9C3D"/>
<path d="M202.917 605.868C202.344 600.349 200.75 598.976 196.509 601.846C191.203 605.617 186.989 612.467 179.936 611.312C178.888 611.479 177.95 611.953 177.136 612.001C176.634 613.707 176.476 615.603 175.973 617.309C184.422 628.651 190.782 619.264 197.714 615.397C200.312 613.357 202.692 610.702 202.917 605.868Z" fill="#E99533"/>
<path d="M179.822 883.611C182.887 881.338 186.187 878.947 189.143 876.367C189.52 875.09 189.192 874.167 188.865 873.245C188.304 872.442 187.851 871.945 187.851 871.945C177.418 866.702 173.327 878.555 166.525 881.989C168.358 877.801 176.016 877.559 173.088 868.527C168.403 865.455 164.743 868.391 160.865 870.712C157.8 872.984 154.953 875.872 152.558 879.256C149.394 885.928 143.548 888.155 138.699 892.416C134.319 896.44 129.939 900.464 130.102 908.718C130.538 909.948 131.099 910.751 131.77 911.863C132.566 912.548 133.019 913.044 133.815 913.729C135.424 914.367 136.815 914.389 138.44 914.294C139.956 913.89 141.472 913.487 142.88 912.777C155.719 903.756 170.663 899.109 179.822 883.611Z" fill="#F69622"/>
<path d="M130.173 907.837C136.044 900.117 141.462 891.898 150.59 889.461C153.868 888.53 153.95 884.839 153.452 881.078C152.872 881.007 152.182 880.626 151.602 880.555C142.097 884.278 132.405 885.906 122.139 881.987C120.853 882.274 119.895 883.489 119.627 885.085C115.955 888.04 112.174 890.687 108.737 893.523C114.861 900.636 120.968 908.488 130.173 907.837Z" fill="#F69F36"/>
<path d="M133.048 918.804C134.001 918.319 134.954 917.833 136.146 917.226C136.162 916.476 136.528 915.918 136.544 915.168C135.768 912.965 134.737 911.634 133.119 910.232L132.499 911.661C126.908 914.137 130.859 916.579 133.048 918.804Z" fill="#FBD5A9"/>
<path d="M301.143 541.237C300.208 541.707 299.381 542.482 298.446 542.952C296.483 542.859 294.396 543.189 292.433 543.096C283.943 555.636 270.589 558.39 259.784 565.978C256.494 568.351 252.302 569.738 248.561 571.618C251.92 576.406 256.613 573.328 260.363 576.12C269.251 581.726 273.424 570.995 279.72 568.551C284.555 564.322 291.253 564.554 295.979 560.02C300.813 555.792 304.87 550.156 301.143 541.237Z" fill="#E89432"/>
<path d="M153.322 653.483C153.256 656.463 153.317 659.011 153.251 661.992C157.178 664.415 161.39 664.483 165.602 664.55C171.599 663.342 176.367 659.443 180.914 654.919C184.862 651.069 187.075 646.259 181.099 641.194C178.941 638.239 172.251 639.064 175.35 631.225C172.954 628.391 170.603 628.85 168.219 630.8C163.952 638.496 159.78 647.25 153.322 653.483Z" fill="#EE9B38"/>
<path d="M153.174 652.997C164.73 654.113 166.269 642.656 168.722 632.206C169.024 629.108 168.017 627.044 165.7 626.013C164.754 626.495 163.807 626.976 162.861 627.457C161.783 633.895 155.983 631.692 153.331 635.249C149.969 639.167 144.401 642.367 150.78 650.166C151.457 651.294 152.37 652.301 153.174 652.997Z" fill="#F8AA4B"/>
<path d="M164.886 662.779C161.407 656.082 157.825 659.377 154.259 661.926C150.93 664.356 147.948 666.977 146.666 672.046C148.697 675.43 143.663 680.936 149.1 683.692C157.96 685.075 163.925 679.833 168.332 670.966C168.65 667.123 167.659 664.314 164.886 662.779Z" fill="#F0A145"/>
<path d="M250.443 980.269C248.358 975.18 244.143 977.304 241.416 975.066C235.601 971.134 231.303 976.911 226.309 977.621C221.501 980.405 218.608 985.475 217.54 991.792C228.094 985.751 240.107 986.922 250.443 980.269Z" fill="#F89C2C"/>
<path d="M117.18 785.938C117.613 787.145 118.278 788.236 118.603 789.142C118.445 790.999 118.752 792.625 119.526 794.018C120.533 795.295 121.898 796.038 123.279 796.061C128.495 794.528 133.188 790.765 138.421 788.512C150.136 779.826 161.834 771.86 174.755 765.775C191.845 753.698 210.124 744.942 227.987 734.258C230.799 732.145 233.162 729.544 234.285 725.782C234.676 723.808 234.027 721.997 232.679 720.535C214.849 719.817 200.181 731.754 183.707 737.12C174.855 741.533 166.56 746.735 157.599 750.846C149.304 756.049 141.333 762.157 133.362 768.265C126.823 772.236 122.28 779.482 117.18 785.938Z" fill="#FDAD4C"/>
<path d="M117.148 785.1C123.548 780.385 129.839 775.36 136.003 770.766C137.138 766.893 137.802 763.26 133.293 761.52C129.46 760.902 125.845 760.906 122.637 763.634C120.888 768.917 123.74 776.992 117.954 780.295C117.686 781.897 117.417 783.498 117.148 785.1Z" fill="#E8922A"/>
<path d="M121.021 791.807C120.452 790.987 120.01 789.733 119.331 788.601C117.178 790.436 114.677 792.079 112.287 794.036C112.271 794.783 112.254 795.531 112.238 796.279C112.459 796.906 112.917 797.412 113.138 798.038C113.596 798.544 113.944 798.737 114.64 799.122C115.683 799.7 116.854 799.843 118.024 799.987C119.084 799.817 119.923 799.02 120.762 798.223C121.397 796.051 120.624 793.857 121.021 791.807Z" fill="#F7AF57"/>
<path d="M112.336 793.624C110.198 789.15 107.501 788.669 104.389 790.996C105.986 798.713 108.428 800.065 112.336 793.624Z" fill="#F8A84A"/>
<path d="M167.739 669.911C161.388 674.549 155.147 679.492 149.03 684.012C150.961 685.563 144.577 691.659 151.765 690.926C157.097 690.405 161.158 684.758 166.875 687.648C169.433 687.082 172.643 688.35 174.673 685.526C177.906 680.655 172.699 680.752 171.829 678.306C170.198 673.72 174.485 673.365 176.482 671.999C185.983 666.137 196.589 662.602 205.22 654.294C209.474 655.397 212.516 653.866 214.705 649.16C215.397 644.126 212.421 642.74 209.679 641.236C192.169 643.199 178.967 654.168 167.739 669.911Z" fill="#FEAD4B"/>
<path d="M95.6656 831.183C99.032 836.778 99.7438 846.638 108.42 843.701C109.941 843.294 107.85 848.37 108.6 851.275C112.936 860.394 117.55 856.959 122.4 853.406C129.597 838.441 142.291 832.736 153.309 823.865C155.274 819.219 155.028 814.598 152.335 810.123C149.499 806.814 146.708 806.769 143.757 808.63C134.261 817.095 123.778 822.773 112.076 825.785C110.226 825.263 108.14 824.86 106.164 824.766C103.953 824.792 101.161 824.747 98.6979 825.631C96.815 826.585 95.4958 828.349 94.8664 830.493L95.6656 831.183Z" fill="#F4931F"/>
<path d="M121.876 850.728C118.05 854.151 114.021 856.202 109.317 851.585C102.819 859.32 113.685 860.8 113.206 866.578C114.485 867.034 115.891 867.057 117.17 867.513C121.293 866.521 124.849 864.712 127.632 860.713C128.822 854.572 127.499 850.819 121.876 850.728Z" fill="#F7A138"/>
<path d="M225.642 977.417C231.841 983.989 235.4 974.676 240.363 974.698C247.293 969.431 254.457 964.048 261.387 958.781C272.796 954.495 281.569 944.362 292.11 937.643C296.913 929.5 290.907 929.643 287.563 929.527C278.788 929.624 271.174 934.517 263.777 940.017C262.935 941.515 261.751 942.826 260.8 944.019C250.502 955.276 236.757 960.732 226.909 972.481C226.409 974.165 226.142 975.733 225.642 977.417Z" fill="#F18F19"/>
<path d="M226.97 972.054C241.731 967.17 254.382 958.69 264.182 943.768C249.921 946.971 237.428 953.583 227.662 967.058L226.136 968.179L225.078 969.066C225.745 970.164 226.304 970.957 226.97 972.054Z" fill="#F79622"/>
<path d="M200.936 978.033C201.612 979.158 201.941 980.091 202.617 981.216C205.703 978.914 208.915 976.181 212.001 973.879C212.303 970.79 211.298 968.732 208.75 967.824C206.278 968.713 204.011 970.966 201.633 972.908L201.743 973.219C201.364 974.513 201.441 976.309 200.936 978.033Z" fill="#F8AC52"/>
<path d="M208.785 967.863C209.798 969.941 210.811 972.02 212.062 973.977C212.665 973.299 213.617 972.815 214.22 972.137C214.728 970.395 214.999 968.775 215.27 967.154C212.719 965.488 210.815 966.458 208.785 967.863Z" fill="#F7A33E"/>
<path d="M215.012 967.356C214.741 968.98 214.469 970.604 213.959 972.35C214.802 971.549 215.756 971.063 216.599 970.263C216.266 969.318 215.694 968.494 215.012 967.356Z" fill="#F8AD55"/>
<path d="M201.004 977.876C201.276 976.249 201.548 974.621 201.82 972.994C200.864 973.481 200.259 974.161 199.414 974.964C199.987 975.789 200.559 976.614 201.004 977.876Z" fill="#FAC280"/>
<path d="M165.284 627.046C166.282 629.08 167.28 631.113 168.278 633.147C170.171 631.466 172.156 630.826 174.436 632.574C181.837 638.624 187.439 631.808 193.63 629.769C197.633 627.022 200.514 622.668 203.394 618.313C204.005 616.917 204.382 615.639 204.54 613.747C202.233 608.024 198.993 612.923 196.353 611.719C190.222 616.265 184.527 622.041 176.39 617.813C172.73 620.749 168.835 623.803 165.284 627.046Z" fill="#FCA947"/>
<path d="M127.161 860.71C123.84 863.131 119.184 862.562 117.543 868.164C117.95 870.893 116.863 872.545 115.666 873.887C109.446 880.715 114.777 882.409 119.054 884.272C119.998 883.792 120.833 883.001 121.541 882.642C125.615 883.14 129.249 882.394 133.026 880.475C136.584 877.935 138.538 874.007 139.125 868.573C139.316 865.174 138.8 862.135 137.12 858.953C136.208 857.949 134.825 857.184 133.661 857.042C130.971 857.308 128.627 857.765 127.161 860.71Z" fill="#F6A33F"/>
<path d="M112.447 793.633C109.1 796.078 106.533 795.162 104.396 790.692C102.366 792.097 100.795 794.009 101.427 797.392C103.12 800.606 104.941 803.384 108.349 803.501C111.425 802.675 113.582 800.836 114.14 796.846C113.459 795.711 113.127 794.768 112.447 793.633Z" fill="#F9BC71"/>
<path d="M107.087 802.278C105.854 799.576 104.494 797.308 101.787 797.576L101.549 797.697C101.279 799.315 101.008 800.933 100.975 802.43C100.025 802.914 99.185 803.712 98.3452 804.51C98.9145 805.33 99.3568 806.585 99.2133 807.768L100.274 807.598C103.899 808.342 106.054 806.505 107.087 802.278Z" fill="#FCDBB5"/>
<path d="M100.902 802.361C100.935 800.847 101.21 799.211 101.484 797.574C101.21 799.211 100.935 800.847 100.902 802.361Z" fill="#FCE9D2"/>
<path d="M101.122 811.034C99.4548 812.614 98.2426 814.695 98.7585 817.731C100.031 818.184 101.304 818.637 102.451 819.52L102.686 819.4C104.886 820.116 106.757 819.898 108.534 818.63C110.909 816.691 112.484 814.059 111.874 809.971C108.703 805.719 105.95 808.949 103.009 810.076C102.302 810.435 101.83 810.675 101.122 811.034Z" fill="#F8B35F"/>
<path d="M107.075 802.61C104.949 804.407 102.823 806.203 100.354 807.811C100.681 808.732 100.774 809.771 100.866 810.81L102.365 811.14C107.053 808.775 112.863 808.015 116.008 802.085C116.636 799.959 116.091 798.424 114.265 797.173C111.796 798.781 109.436 800.696 107.075 802.61Z" fill="#F8B35F"/>
<path d="M229.855 865.843C234.29 864.329 237.641 869.875 241.575 870.061C243.76 870.768 245.292 869.634 246.84 867.768C248.704 862.124 251.615 856.315 257.216 859.64C272.195 868.364 281.716 857.05 290.093 850.293C286.654 853.836 286.261 855.843 287.377 862.877C294.685 862.447 300.467 857.722 307.121 855.451C314.669 849.473 322.838 846.8 331.987 846.888C333.159 846.297 334.221 845.399 334.832 844.006C335.607 835.295 330.643 834.543 325.93 832.941C324.088 832.423 322.949 831.55 324.665 832.493C324.916 831.643 325.401 830.675 326.23 829.895C326.949 828.809 327.325 827.534 327.593 825.952C327.048 824.418 326.269 823.002 325.13 822.129C310.821 814.514 299.6 824.153 287.883 830.063C280.15 833.963 273.414 839.893 264.205 837.303C255.96 838.205 247.187 836.842 239.874 842.702C235.95 847.213 230.56 849.932 227.197 855.246C224.085 859.709 222.471 864.503 229.855 865.843Z" fill="#FDAA48"/>
<path d="M186.24 943.051C209.177 924.035 235.742 912.873 258.462 893.249C263.29 889.039 268.209 885.858 262.637 877.186C258.968 876.158 256.85 877.936 255.6 882.145C249.138 887.174 242.91 892.086 237.549 899.429C230.288 909.158 220.791 915.707 210.101 918.914C200.579 921.536 193.584 929.698 185.146 935.359C180.927 938.19 184.221 940.48 186.24 943.051Z" fill="#F08E18"/>
<path d="M180.269 884.4C168.075 896.673 151.463 899.626 138.816 911.405C138.549 912.982 138.065 913.948 137.58 914.913C137.564 915.643 137.547 916.373 137.422 916.797C137.857 918.021 138.526 919.127 139.68 919.267C140.35 920.373 140.676 921.291 141.345 922.397C142.281 921.926 142.875 921.267 143.702 920.489C156.411 921.306 164.392 911.154 173.261 902.72C172.179 894.246 179.419 891.322 180.269 884.4Z" fill="#ED9020"/>
<path d="M173.564 903.137C161.174 903.239 154.059 915.858 143.863 921.359C145.872 924.682 147.831 930.198 151.361 927.696C160.06 921.867 168.541 915.425 176.57 908.487C177.523 907.284 174.92 904.622 173.564 903.137Z" fill="#EE8D18"/>
<path d="M254.827 881.544C257.303 879.926 259.435 878.118 261.911 876.5C260.813 863.218 256.15 858.66 247.043 865.82C245.506 866.962 244.08 868.413 242.308 869.674C244.233 871.977 247.441 873.994 243.413 877.49C239.384 880.987 234.354 882.44 231.561 887.861C240.657 891.631 246.277 879.317 254.827 881.544Z" fill="#FC9A25"/>
<path d="M229.914 864.023C227.984 861.708 224.876 859.992 228.806 856.167C233.444 851.983 240.45 851.355 241.7 842.302C237.319 840.133 232.983 841.236 228.663 841.598C227.484 842.196 226.306 842.794 225.237 843.703C221.887 847.599 217.864 850.374 214.969 854.771C213.867 857.161 213.582 859.501 215.512 861.816C220.331 865.227 225.057 867.586 229.914 864.023Z" fill="#F69F39"/>
<path d="M216.086 860.851C216.353 859.271 216.62 857.69 216.779 855.802C207.143 846.56 202.428 860.507 195.215 861.974C193.935 862.258 192.529 862.967 191.467 863.864C188.062 865.942 186.138 869.081 187.178 874.342C187.848 875.45 188.174 876.37 188.844 877.479C198.76 874.287 207.26 867.109 216.086 860.851Z" fill="#F7951F"/>
<path d="M335.371 845.09C334.435 845.561 333.842 846.22 333.014 846.997C323.969 847.944 315.685 851.032 307.184 853.508C299.744 855.09 292.832 858.93 286.806 864.488C284.842 864.395 283.22 864.49 281.347 865.433C277.244 867.859 275.414 872.026 277.013 878.074C279.9 888.522 284.763 878.14 288.299 880.327C289.829 879.196 291.358 878.066 292.888 876.935C303.621 872.975 311.868 861.249 323.933 864.913C323.073 867.15 316.744 865.647 316.252 872.026C311.506 877.301 303.631 877.658 301.561 887.356C307.339 892.743 312.053 888.927 316.75 885.841C319.341 883.815 321.823 881.484 323.854 878.658C333.004 867.921 344.505 860.688 354.994 852.162C359.006 848.7 364.029 846.532 365.457 839.682C363.598 829.798 357.562 830.672 352.43 832.535C345.784 834.798 339.356 837.673 335.371 845.09Z" fill="#FEB152"/>
<path d="M227.424 936.1C227.694 944.618 220.799 947.728 218.311 955.47C226.603 957.065 230.713 949.228 236.563 946.283C240.542 944.281 244.026 938.561 248.6 945.994C256.082 947.637 260.301 940.105 265.825 936.243C266.777 935.042 267.387 933.654 267.779 931.654C266.507 926.525 263.449 928.785 261.234 929.54C263.933 927.821 267.176 927.63 269.332 924.382C271.201 913.346 284.358 914.656 284.655 901.526C272.051 906.428 259.556 911.635 247.061 916.842C241.112 924.163 230.806 924.663 227.424 936.1Z" fill="#F6951F"/>
<path d="M288.313 878.554C285.831 874.68 281.341 882.463 279.287 875.069C276.465 865.498 285.743 868.121 286.802 862.448C287.69 853.926 296.249 852.146 296.951 841.518C291.489 845.76 286.812 851.438 281.651 852.592C274.619 853.963 268.581 868.402 258.874 853.525C256.282 849.339 248.443 855.522 244.491 860.098C241.626 863.021 245.32 864.812 246.561 866.749C253.61 864.636 258.42 868.796 261.385 877.194C262.785 877.216 265.129 876.759 265.458 877.692C273.7 895.516 281.072 884.067 288.313 878.554Z" fill="#FDAE4E"/>
<path d="M227.475 934.969C233.612 928.363 243.649 927.272 246.893 916.424C228.639 924.445 210.136 933.301 194.601 948.138C191.774 950.966 189.179 953.678 185.612 953.678C186.684 962.023 189.636 958.778 192.913 956.436C203.924 948.114 214.718 939.189 227.475 934.969Z" fill="#F08F19"/>
<path d="M284.001 902.107C280.848 908.715 275.132 911.224 269.867 914.226C266.129 916.101 266.764 918.655 268.066 922.309C283.337 921.107 294.826 908.522 308.902 903.971C313.825 900.782 317.63 896.001 319.289 889.066C319.246 885.856 318.611 883.303 315.982 882.109C311.978 885.555 307.756 888.392 302.573 887.761C299.772 899.219 289.006 895.288 284.001 902.107Z" fill="#F4911B"/>
<path d="M267.681 932.328C261.347 936.929 255.355 941.717 249.021 946.318C244.571 949.261 240.679 952.998 235.47 953.817C229.794 954.869 226.244 958.793 227.212 966.894C238.188 956.034 252.323 953.251 263.732 943.605C263.381 938.773 272.241 939.704 267.681 932.328Z" fill="#F18F19"/>
<path d="M201.509 972.717C204.995 973.143 207.477 971.518 208.611 967.651C204.359 965.053 202.221 966.869 201.509 972.717Z" fill="#F7A33E"/>
<path d="M140.018 918.854C139.686 917.911 139.115 917.089 138.672 915.831C137.276 915.058 136.324 915.543 135.576 917.407L135.925 917.601C137.448 917.938 138.733 918.396 140.018 918.854Z" fill="#F39B33"/>
<path d="M226.614 680.615C227.874 681.06 229.135 681.505 230.395 681.95C243.882 678.053 257.829 679.312 271.315 675.415C280.037 672.833 287.873 668.54 295.508 662.912C296.91 662.208 297.862 661.012 299.046 659.699C305.429 648.235 300.779 644.464 291.673 643.647C287.984 643.344 284.604 644.682 281.424 647.355C279.647 649.325 278.446 651.365 278.146 654.388C269.326 661.33 260.588 664.639 248.961 662.933C240.322 661.882 231.268 668.941 226.614 680.615Z" fill="#FDAE4C"/>
<path d="M213.855 648.386C210.782 650.671 207.473 653.075 204.51 655.67C204.947 656.906 205.51 657.714 206.183 658.83C205.647 662.017 209.486 661.895 209.294 665.271C214.352 667.811 216.551 663.053 219.766 659.603C230.965 647.372 240.474 632.718 253.472 623.22C249.278 618.421 258.416 615.25 253.986 610.57C234.29 612.894 220.537 624.961 213.855 648.386Z" fill="#F09C39"/>
<path d="M254.956 622.384C249.988 631.793 254.459 634.254 261.058 634.912C268.94 635.285 275.327 629.878 282.679 627.977C285.856 626.008 288.706 623.115 290.758 619.536C296.665 609.652 294.215 605.081 284.455 605.657C273.724 608.177 262.741 611.55 254.956 622.384Z" fill="#FCAD4A"/>
<path d="M277.395 654.126C278.931 652.986 280.466 651.845 282.001 650.705C287.35 639.996 300.134 644.804 305.592 634.404C304.418 619.358 295.851 623.329 289.011 622.788C286.914 623.122 285.143 624.382 283.483 625.949C281.663 629.416 278.139 631.199 278.024 636.349C277.341 646.152 267.731 644.831 265.109 653.068C269.25 660.066 273.659 649.834 277.395 654.126Z" fill="#EC9632"/>
<path d="M254.665 621.609C264.359 617.097 273.82 612.703 283.514 608.192C286.846 609.035 288.875 606.217 291.012 603.705C291.312 600.677 290.443 598.236 288.638 596.265C285.79 594.459 283.018 594.414 279.886 594.908C270.534 599.607 259.411 600.88 253.928 613.347C251.899 616.165 247.523 615.486 247.407 620.58C247.391 621.307 250.489 622.268 252.202 623.206C253.137 622.736 254.072 622.267 254.665 621.609Z" fill="#E18D29"/>
<path d="M278.112 635.518C280.699 633.5 284.08 632.162 283.619 627.002C283.995 625.736 284.011 625.009 283.327 624.634C282.642 624.259 282.3 624.071 282.066 624.189C274.636 625.764 267.842 629.895 261.715 635.128C260.296 636.559 258.769 637.685 256.649 639.469C265.516 645.797 270.531 633.575 278.112 635.518Z" fill="#E5912F"/>
<path d="M210.002 664.601C217.488 656.129 206.01 661.915 206.904 658.212C202.404 662.648 196.347 664.256 192.359 671.687C200.501 675.172 204.381 667.434 210.002 664.601Z" fill="#EB9735"/>
<path d="M225.349 694.651C205.429 698.895 189.657 713.199 173.126 725.384C172.252 728.319 168.771 729.345 169.713 733.513C170.487 734.911 171.62 735.772 173.111 736.098C178.191 735.701 181.413 730.879 185.394 728.176C196.353 722.7 207.188 717.644 218.255 712.471C221.861 711.026 225.017 709.092 228.19 706.436C230.447 703.524 234.536 701.124 232.012 695.605C230.479 692.088 227.714 692.042 225.349 694.651Z" fill="#EE9936"/>
<path d="M121.924 763.495C125.246 765.825 128.649 764.465 132.146 764.152C133.968 760.675 135.9 757.507 137.722 754.03C143.013 746.24 152.469 744.732 155.96 734.206C155.462 730.445 154.209 729.256 151.714 731.615C144.764 735.502 135.768 732.034 129.552 739.563C118.323 742.334 123.281 754.781 121.924 763.495Z" fill="#F49420"/>
<path d="M271.637 672.669C257.889 675.261 242.477 669.257 230.813 682.412L229.749 683.312L228.684 684.213C228.318 690.206 231.756 692.098 235.026 691.172C242.956 689.342 251.022 691.799 258.608 689.78C260.595 689.139 262.472 688.19 264.24 686.933C265.305 686.032 266.26 684.824 267.215 683.615C269.267 680.037 271.538 677.074 271.637 672.669Z" fill="#F39F3D"/>
<path d="M259.421 686.432C249.168 681.772 238.98 689.858 228.76 683.721C225.213 686.249 224.08 690.11 224.781 695.231C226.992 695.205 229.91 694.821 230.299 698.275C230.375 700.062 227.315 701.613 225.761 703.496C234.979 707.585 251.692 699.113 259.421 686.432Z" fill="#FBA746"/>
<path d="M155.61 733.649C148.606 741.163 137.799 742.634 133.71 754.468C151.007 758.045 161.467 746.255 170.62 730.781C172.512 729.103 174.169 727.543 173.782 724.12C172.518 723.672 171.253 723.224 169.755 722.894C162.697 722.474 158.211 726.185 155.61 733.649Z" fill="#E8922A"/>
<path d="M155.213 733.391C159.805 729.994 164.63 726.479 169.455 722.964C169.831 721.691 170.55 720.606 171.16 719.215C164.392 716.485 153.821 723.256 151.189 732.168C152.453 732.615 153.716 733.062 155.213 733.391Z" fill="#FBA237"/>
<path d="M329.034 921.088C330.15 912.618 338.249 912.145 339.925 904.472C340.225 901.446 339.014 898.819 336.976 896.966C327.59 893.053 321.088 899.555 314.151 904.837C309.712 917.132 297.824 921.666 293.945 934.759C282.892 943.187 271.965 951.192 261.146 959.503C266.516 962.198 269.745 957.34 273.393 954.429C286.115 943.725 300.483 936.867 311.884 923.231C316.283 917.786 323.44 923.179 329.034 921.088Z" fill="#F7951F"/>
<path d="M242.769 590.094C234.795 593.403 227.477 598.563 221.612 606.264C218.951 605.791 216.584 607.717 217.568 610.495C219.3 616.17 223.7 616.855 227.755 617.351C235.1 616.181 240.445 610.927 246.135 605.863C249.113 602.535 251.403 598.828 249.092 593.082C247.529 590.233 245.212 589.95 242.769 590.094Z" fill="#E5912E"/>
<path d="M242.167 590.443C243.427 590.887 244.687 591.331 245.946 591.775C258.717 593.618 268.099 582.102 279.926 579.757C283.538 578.305 288.86 577.788 287.749 570.815C286.638 563.843 282.076 566.489 278.714 567.099C270.689 564.668 268.54 577.937 260.841 576.419C255.837 583.23 245.31 579.186 242.167 590.443Z" fill="#F49F3C"/>
<path d="M226.711 615.033C227.883 609.649 216.428 614.371 222.003 605.643C221.326 604.514 220.996 603.577 220.319 602.449C213.724 604.33 206.672 605.708 203.541 615.034C201.352 629.405 210.506 622.908 214.778 625.522C220.646 624.747 225.364 623.084 226.711 615.033Z" fill="#E6922F"/>
<path d="M203.762 614.622C209.173 610.464 214.692 606.611 220.336 602.336C212.977 595.601 208.821 605.605 203.133 606.664C200.779 608.567 198.658 610.352 196.195 611.95C198.483 612.958 201.24 613.731 203.762 614.622Z" fill="#F9A441"/>
<path d="M161.932 875.148C165.44 873.385 167.986 868.145 172.891 871.079C180.585 873.33 185.72 866.069 192.453 864.844C201.29 862.561 207.252 854.524 214.986 849.917C216.478 840.168 209.729 842.121 205.853 839.75C190.583 840.228 179.117 851.392 167.107 861.029C164.126 865.047 158.421 866.835 161.932 875.148Z" fill="#F7951F"/>
<path d="M162.158 874.135C162.196 867.162 167.097 866.871 170.084 863.525C172.085 857.386 170.172 854.332 165.035 854.743C160.951 854.986 157.038 858.07 152.564 854.85C147.494 852.3 142.154 851.351 142.193 860.114C142.281 866.657 137.101 863.796 136.312 867.856C136.323 872.608 133.807 875.715 132.327 879.393C139.087 889.87 145.801 881.338 152.681 881.141C155.761 878.845 159.078 876.43 162.158 874.135Z" fill="#F3921E"/>
<path d="M192.9 865.194C185.441 863.562 179.141 866.715 173.382 871.386C169.533 878.32 161.665 879.396 157.983 889.107C169.584 886.163 175.991 873.299 187.401 873.669C189.192 870.984 190.875 867.996 192.9 865.194Z" fill="#F2901B"/>
<path d="M135.46 917.311C136.424 916.821 137.387 916.331 138.704 916.037L138.127 915.206C138.514 913.886 138.289 913.25 137.824 912.738C137.359 912.225 137.006 912.03 136.765 912.152C135.465 911.689 134.165 911.226 132.993 910.323C133.89 912.864 134.675 915.088 135.46 917.311Z" fill="#F9BB71"/>
<path d="M136.719 912.265C137.053 913.212 137.737 914.352 138.07 915.299C139.504 914.569 139.776 912.942 138.998 910.733C138.153 911.535 137.436 911.9 136.719 912.265Z" fill="#FAC585"/>
<path d="M153.132 881.013C146.296 880.473 139.46 879.933 132.858 879.275C127.933 876.315 125.269 881.296 121.856 883.385C133.234 893.617 143.549 889.128 153.132 881.013Z" fill="#F69622"/>
<path d="M278.747 567.49C280.784 570.109 285.382 567.413 285.755 571.606C286.22 576.848 281.736 574.374 279.382 575.567C274.154 580.409 267.25 582.084 262.35 587.855C259.837 590.955 257.921 593.387 260.85 597.745C270.338 600.238 276.809 591.844 285.345 590.073C294.855 586.347 303.724 580.024 314.657 580.324C318.03 580.44 320.871 578.269 321.676 573.479C322.01 568.927 320.586 564.902 320.104 560.399C319.809 557.992 319.513 555.586 318.401 553.228C314.782 548.489 309.828 546.254 305.486 542.613C304.216 542.161 302.945 541.709 301.675 541.258C299.327 552.674 294.503 560.232 284.605 560.503C281.106 560.816 280.428 565.177 278.747 567.49Z" fill="#F19B37"/>
<path d="M167.156 669.374C180.371 659.076 193.369 648.164 208.689 642.24C208.1 637.463 205.368 635.218 202.042 633.636C195.934 632.009 191.019 639.202 184.709 636.227C182.021 637.222 180.128 638.903 179.811 642.687C177.199 645.456 187.01 647.388 180.552 651.011C174.798 654.279 169.589 659.084 164.162 663.274C165.16 665.307 166.158 667.341 167.156 669.374Z" fill="#FBA744"/>
<path d="M179.395 642.147C181.757 640.228 183.994 638.736 186.356 636.817C190.905 635.607 196.687 636.313 194.354 626.613C187.071 625.577 182.014 633.934 174.732 632.898C172.865 638.555 174.425 641.393 179.395 642.147Z" fill="#E4902D"/>
<path d="M173.06 762.511C158.71 767.93 146.444 778.428 134.085 787.892C134.655 793.373 138.066 795.982 141.118 799.132C144.403 802.165 148.032 805.386 151.433 803.314C168.422 793.683 189.267 792.565 201.188 771.787C202.164 764.447 211.599 761.501 206.857 751.271C199.066 747.982 194.271 755.442 188.203 757.774C183.415 759.824 179.045 763.825 173.06 762.511Z" fill="#FAA644"/>
<path d="M233.593 725.67C231.242 727.564 229.124 729.341 226.665 730.931C227.249 735.651 216.052 735.889 224.066 743.691C232.087 746.119 238.656 741.396 244.975 737.514C259.014 729.05 275.564 726.847 288.085 714.13C291.219 708.263 288.984 705.086 284.306 702.774C272.475 700.465 263.939 710.47 253.467 714.282C248.349 716.13 243.105 718.399 237.877 719.943C235.668 720.692 234.234 722.842 233.593 725.67Z" fill="#E59230"/>
<path d="M182.001 723.852C179.909 729.558 176.14 732.88 171.687 735.828C170.319 735.08 169.385 735.548 168.652 737.349C172.707 751.799 178.484 736.363 183.363 740.009C200.199 735.513 215.951 727.978 231.811 720.747C234.053 718.548 235.829 716.583 235.228 712.584C234.452 711.182 233.21 710.013 231.95 709.569C226.897 708.519 222.46 710.742 218.35 713.877C206.584 718.698 195.544 727.097 182.001 723.852Z" fill="#F29F3D"/>
<path d="M223.224 741.394C222.532 736.381 227.864 735.144 227.172 730.131C208.945 740.675 189.834 749.517 172.473 762.486C180.122 770.808 185.945 763.251 192.118 760.522C197.016 758.072 200.057 751.193 206.797 753.896C214.953 755.176 220.693 751.234 223.224 741.394Z" fill="#EA9735"/>
<path d="M234.363 715.085C232.599 716.333 230.819 718.31 231.205 721.722C231.874 722.827 232.2 723.745 232.635 724.968C234.165 723.838 235.928 722.59 237.457 721.459C251.264 714.51 264.946 707.984 277.214 697.483C281.476 693.175 287.778 690.724 286.604 681.218C282.715 674.162 278.193 674.635 273.246 678.567C266.795 687.583 258.572 693.164 250.131 698.134C243.796 702.044 236.9 705.154 234.363 715.085Z" fill="#EE9B39"/>
<path d="M170.015 736.356C170.843 735.576 171.546 735.221 172.375 734.442C171.704 733.332 171.378 732.412 170.707 731.303C158.707 739.527 148.013 751.433 133.801 754.984C132.111 758.007 131.576 761.171 132.306 764.783C136.132 764.662 134.3 768.842 135.406 771.179C144.126 764.609 152.612 758.158 161.332 751.589C162.635 745.143 169.381 743.911 170.015 736.356Z" fill="#F09C3A"/>
<path d="M141.799 794.057C139.53 791.563 137.025 789.188 134.756 786.694C129.851 787.72 126.057 791.1 122.59 795.406C121.321 794.955 120.616 795.312 120.583 796.786C119.517 797.691 118.686 798.476 117.745 798.952C116.821 798.691 116.116 799.049 115.739 800.333C111.238 804.069 106.738 807.805 102.348 811.851C105.776 814.487 107.832 810.895 110.183 809.704C116.777 811.101 123.672 809.431 130.075 814.204C133.804 813.773 136.642 811.607 138.808 808.324C140.88 803.996 145.834 800.758 141.799 794.057Z" fill="#F49828"/>
<path d="M169.778 736.778C166.432 741.359 157.299 740.539 161.096 752.008C169.373 749.642 176.779 744.822 183.857 739.081C179.352 733.396 173.983 745.508 169.778 736.778Z" fill="#F6A240"/>
<path d="M120.259 796.381C120.978 796.015 121.696 795.649 122.192 794.651C121.858 793.702 121.523 792.753 120.949 791.927C120.677 793.557 120.404 795.188 120.259 796.381Z" fill="#F9BE78"/>
<path d="M115.539 799.817C116.252 799.454 116.964 799.091 117.566 798.414C116.285 797.957 115.351 797.693 114.07 797.236C114.401 798.177 114.97 798.997 115.539 799.817Z" fill="#FAC280"/>
<path d="M200.859 635.797C203.112 638.254 205.474 641.017 207.961 643.357C209.889 644.902 211.475 646.26 213.402 647.804C222.586 634.944 231.769 622.084 245.085 615.405C247.888 613.999 250.382 610.953 253.912 613.13C263.038 607.833 272.057 602.233 281.184 596.937C286.181 595.506 292.097 594.333 285.028 585.32C276.993 588.274 269.686 594.811 260.908 594.908C253.381 590.79 251.715 603.108 245.382 602.338C239.042 606.954 232.935 611.452 226.595 616.068C222.265 618.599 219.238 624.783 213.297 622.022C207.924 624.717 200.314 624.229 200.859 635.797Z" fill="#FAA845"/>
<path d="M141.564 795.808C142.365 801.136 136.687 802.19 137.489 807.517C137.965 811.934 138.924 815.392 142.926 811.956C144.918 810.6 147.019 809.547 149.395 811.579C163.302 808.911 175.924 801.872 189.413 797.264C190.813 796.562 192.214 795.86 193.506 794.855C199.349 786.557 208.762 783.633 213.596 774.05C214.254 770.497 213.386 768.067 211.477 765.801C207.733 763.021 204.248 764.051 201.506 767.931C189.178 787.355 168.509 788.04 153.004 800.104C147.96 803.705 145.607 795.573 141.564 795.808Z" fill="#F09C3B"/>
<path d="M189.965 794.728C175.572 797.274 161.507 800.752 149.714 812.231C151.847 815.908 151.529 819.73 151.793 823.624C153.389 830.502 157.819 830.45 161.871 831.688C163.269 831.711 164.558 831.423 165.956 831.446C171.001 829.983 175.809 828.641 180.854 827.179C189.292 825.092 188.716 819.526 183.633 812.221C178.961 802.144 190.837 802.706 189.965 794.728Z" fill="#FEAC4A"/>
<path d="M162.181 828.842C159.081 827.133 155.871 825.115 152.662 823.098C139.435 827.246 127.537 834.364 121.347 851.343C124.321 853.48 125.885 856.331 126.022 860.634C128.231 860.608 130.095 860.392 132.304 860.367C133.535 852.093 138.472 849.592 143.645 846.973C151.169 843.163 159.6 840.35 162.181 828.842Z" fill="#F69724"/>
<path d="M143.458 811.129C140.793 811.389 139.455 809.181 138.009 806.667C134.952 808.925 131.661 811.3 128.603 813.557C119.379 812.434 113.031 817.067 110.01 827.949C110.57 828.748 111.69 830.346 111.924 830.228C123.352 825.921 135.992 824.246 143.458 811.129Z" fill="#ED8D1A"/>
<path d="M109.841 827.558C116.122 822.548 122.276 817.966 128.556 812.956C127.713 809.001 129.021 802.494 122.807 804.549C118.585 805.959 114.051 805.701 110.471 809.708C110.859 813.163 109.195 814.737 107.295 816.431C107.103 819.815 105.171 822.987 106.014 826.942C107.41 826.964 108.681 827.416 109.841 827.558Z" fill="#F69F37"/>
<path d="M106.275 826.669C108.562 823.668 110.156 820.284 107.56 816.089C106.016 817.242 104.471 818.395 102.926 819.548C103.427 823.338 101.519 825.043 99.7216 827.06C102.13 829.144 104.038 827.439 106.275 826.669Z" fill="#FBD3A4"/>
<path d="M293.86 934.276C302.512 929.927 307.587 920.179 314.668 913.741C316.789 911.956 315.936 908.786 314.85 905.734C313.48 904.983 311.751 904.773 310.239 905.173C295.149 913.117 277.434 914.465 267.191 932.927C268.228 938.163 262.54 939.223 263.344 944.577C273.382 940.251 281.698 930.313 293.86 934.276Z" fill="#ED8A14"/>
<path d="M200.97 634.47C203.452 627.385 208.749 624.338 213.593 620.793C211.122 616.945 204.299 625.863 204.31 614.931C199.953 617.501 196.268 621.188 194.163 626.989C194.016 633.62 189.002 634.337 186.148 637.239C192.299 642.867 196.377 637.159 200.97 634.47Z" fill="#ED9936"/>
<path d="M162.18 829.893C154.321 834.924 147.548 843.008 138.026 844.916C131.745 846.634 128.965 851.991 132.459 861.033C133.394 860.563 133.987 859.905 134.923 859.435C140.203 861.1 140.96 853.16 145.028 852.194C148.52 851.159 151.919 849.09 153.968 855.619C166.596 849.27 182.502 851.353 190.859 834.553C191.827 832.626 193.138 830.887 193.764 828.772C192.233 819.823 188.05 825.886 185.168 825.535C178.234 825.422 171.778 829.747 164.644 828.294C163.708 828.765 163.115 829.423 162.18 829.893Z" fill="#F59522"/>
<path d="M152.457 854.646C150.509 853.07 157.18 846.75 149.351 847.428C142.339 848.056 139.284 854.372 135.098 859.064C135.504 861.789 135.674 864.635 136.081 867.36C143.515 868.716 142.588 868.454 144.562 858.289C145.747 852.19 149.39 856.203 151.761 859.764C154.811 858.948 154.388 856.964 152.457 854.646Z" fill="#F69724"/>
<path d="M102.605 819.425C101.703 817.661 100.418 817.203 98.8795 817.615C100.275 818.388 101.321 818.967 102.605 819.425Z" fill="#FCE8CE"/>
<path d="M228.028 843.241C232.685 847.788 236.676 845.77 240.465 842.401C248.196 839.219 257.155 843.407 264.247 837.642C266.873 839.583 269.766 839.936 272.131 838.015C284.874 828.666 299.599 824.127 312.888 816.318C314.324 803.968 310.154 798.448 300.266 799.452C299.453 799.5 298.295 799.358 297.7 800.023C293.223 803.013 287.562 801.88 284.477 804.892C289.079 801.475 296.493 802.086 301.724 796.535C309.942 776.761 295.195 787.486 291.335 783.626C289.13 783.651 287.033 783.984 285.046 784.626C268.47 794.097 252.86 807.074 233.244 807.185C226.327 810.319 224.175 818.309 221.696 825.374C221.532 832.722 224.31 838.219 228.028 843.241Z" fill="#FDAB4A"/>
<path d="M300.333 794.748C290.524 802.26 277.496 803.031 268.556 818.474C280.55 817.134 287.278 807.178 296.704 806.411C303.344 805.598 310.754 801.483 313.589 814.969C316.169 819.122 319.753 819.855 323.354 819.852C327.77 819.801 323.524 822.678 324.54 823.983C325.212 825.098 325.54 826.024 326.212 827.14C343.054 832.444 346.847 813.421 355.202 803.369C353.82 792.423 348.241 797.795 344.17 798.036C342.055 799.106 339.705 800.295 338.732 802.243C335.202 809.489 333.016 803.317 330.514 800.944C322.546 798.79 313.808 799.937 306.251 795.028C304.169 794.626 302.18 795.269 300.333 794.748Z" fill="#FDA740"/>
<path d="M324.78 824.044C326.302 822.93 327.592 821.933 331.692 818.825C324.248 817.202 318.975 816.274 313.935 815.231C297.633 823.35 281.223 831.168 264.921 839.287C268.896 846.546 273.263 841.884 277.438 840.515C285.556 837.893 292.501 831.236 300.868 827.78C308.878 824.857 316.496 823.905 324.78 824.044Z" fill="#F5A13E"/>
<path d="M228.78 841.921C230.589 834.348 225.168 830.086 223.307 824.012C214.183 822.745 208.2 828.008 205.265 838.74C205.47 840.115 205.801 841.054 205.785 841.802C207.773 847.442 212.392 845.459 215.395 847.626C219.933 849.381 223.382 847.255 226.39 843.876C227.229 843.08 228.178 842.596 228.78 841.921Z" fill="#FEB04C"/>
<path d="M226.678 844.307C222.874 844.424 218.945 844.96 215.882 847.914C208.14 853.916 200.291 859.615 192.549 865.617C197.902 868.291 200.674 862.988 204.528 860.708C208.49 858.73 211.154 853.125 216.506 855.798C220.161 852.193 226.154 852.052 226.678 844.307Z" fill="#F4911B"/>
<path d="M267.013 932.168C280.31 919.513 297.639 916.569 312.25 906.811C312.549 903.821 311.56 901.828 309.281 900.832C294.463 904.656 281.05 912.398 268.502 922.55C264.635 925.539 260.768 928.529 256.203 931.867C260.618 934.996 263.529 928.576 267.013 932.168Z" fill="#FC9923"/>
<path d="M305.729 634.315C296.832 638.084 286.484 639.322 282.14 652.031C285.692 648.787 289.412 648.358 293.803 649.041C304.663 650.807 298.657 654.929 295.433 659.095C297.287 664.323 300.337 662.782 303.479 662.283C315.6 654.348 329.843 650.055 336.488 632.92C337.602 629.819 340.542 627.972 339.124 623.974C337.706 619.977 334.488 618.702 332.033 619.579C322.792 623.158 311.572 621.936 305.729 634.315Z" fill="#FAA33D"/>
<path d="M297.37 667.254C296.372 665.219 295.373 663.184 294.375 661.15C286.742 665.369 279.108 669.588 271.475 673.807C268.987 676.152 265.484 677.196 265.947 682.403C269.275 683.987 272.293 683.913 274.579 680.219C278.115 677.707 281.241 677.942 284.88 681.182C286.255 681.938 287.646 681.961 289.163 681.557C293.981 678.761 297.205 674.592 297.37 667.254Z" fill="#E28E2C"/>
<path d="M281.386 624.382C281.95 625.193 282.389 626.434 282.953 627.245C284.493 626.097 286.033 624.95 287.573 623.803C296.413 624.439 301.711 616.629 308.013 610.871C310.578 605.546 310.928 600.248 306.144 595.359C299.973 595.198 293.786 595.777 290.811 603.871C288.438 605.806 285.956 607.432 283.818 609.248C286.487 609.723 289.156 610.197 292.061 610.553C288.334 615.735 286.225 621.561 281.386 624.382Z" fill="#FCA844"/>
<path d="M284.684 586.344C287.886 593.017 284.018 595.322 280.836 598.003C283.109 599.74 285.214 598.682 287.211 597.318C300.687 599.543 310.785 587.623 323.517 586.981C326.558 585.452 328.805 583.242 329.823 579.129C328.726 571.398 325.676 568.251 320.029 572.531C320.088 575.022 319.103 577.678 317.374 577.467C305.175 574.959 295.285 582.814 284.684 586.344Z" fill="#FAA541"/>
<path d="M219.632 716.623C223.299 712.311 228.787 713.841 232.995 711.036C244.604 706.678 253.693 696.827 263.988 689.572C265.742 688.344 265.451 686.003 264.121 683.824C262.599 684.937 261.077 686.05 259.556 687.162C247.947 691.52 238.5 701.904 226.027 703.852C222.983 706.077 219.707 708.418 216.663 710.643C214.027 710.18 211.466 711.454 212.422 714.885C213.811 719.52 217.353 715.626 219.632 716.623Z" fill="#FEAC4A"/>
<path d="M219.918 716.014C220.81 712.333 209.359 718.081 216.828 709.662C204.199 711.332 194.469 722.683 181.857 723.627C183.736 727.353 186.784 730.493 190.055 728.851C199.637 724.04 211.623 725.207 219.918 716.014Z" fill="#FBA746"/>
<path d="M264.112 683.993C256.623 698.513 243.033 702.102 232.889 711.496C233.557 712.596 233.882 713.509 234.55 714.609C245.361 706.316 256.281 698.326 267.092 690.033C270.27 687.362 274.801 686.166 275.292 679.82C272.505 680.5 269.485 681.297 266.698 681.978C265.53 682.564 264.938 683.219 264.112 683.993Z" fill="#F7A442"/>
<path d="M244.83 602.129C251.81 604.722 255.103 596.982 260.348 594.712C264.84 584.938 276.006 586.15 280.049 575.884C268.083 579.372 257.202 585.899 246.43 592.73C248.54 596.33 247.773 599.58 244.83 602.129Z" fill="#EB9733"/>
<path d="M152.222 855.726C151.955 857.302 151.688 858.878 151.421 860.454C155.86 863.627 159.169 860.52 162.912 858.637C166.547 856.447 169.398 858.257 169.5 863.972C180.269 853.147 193.138 846.671 206.116 840.502L206.35 840.384C206.666 836.621 205.704 833.14 203.338 830.366C200.27 827.945 197.218 824.795 193.893 828.631C189.649 832.209 185.203 834.445 182.188 839.927C179.765 844.75 175.379 849.48 170.924 847.037C161.654 842.691 157.653 850.831 152.222 855.726Z" fill="#F2901B"/>
<path d="M200.591 768.229C203.367 767.558 206.376 766.771 209.152 766.1C223.757 766.285 234.846 754.388 248.279 750.546C254.613 745.269 261.903 743.417 268.778 739.644C274.397 735.432 281.654 735.015 287.29 730.085C290.332 727.863 293.607 725.526 294.855 721.359C297.706 712.495 294.781 709.694 287.831 711.731C266.743 723.281 245.113 733.326 223.268 742.769C217.882 746.866 212.495 750.963 206.876 755.175C205.271 759.874 197.906 759.989 200.591 768.229Z" fill="#FDAA48"/>
<path d="M286.827 712.197C288.909 713.349 292.633 714.403 292.726 715.46C293.036 722.673 287.859 723.833 284.274 727.131C290.515 736.117 296.33 727.262 302.058 727.665C310.82 723.207 320.59 720.816 326.895 710.975C329.064 702.869 322.295 701.891 319.931 697.565C317.172 695.284 315.134 697.426 312.876 698.944C308.994 699.814 306.417 705.178 301.416 703.669C304.323 699.242 309.104 700.126 312.546 698.006C313.73 697.404 314.804 696.489 315.42 695.07C316.527 692.664 317.981 690.45 319.891 688.741C330.189 678.343 329.859 677.405 317.195 667.633C314.37 668.333 311.198 668.842 308.373 669.542C307.453 674.064 307.371 677.791 301.582 674.839C296.598 672.585 293.355 681.605 287.754 680.77C286.917 681.564 286.206 681.925 285.369 682.72C284.842 690.727 278.514 690.999 275.149 694.922C276.549 700.474 280.476 702.899 283.803 705.997C284.701 707.751 288.567 707.626 286.827 712.197Z" fill="#F9A23B"/>
<path d="M284.019 704.074C284.543 696.288 279.956 695.004 275.495 693.299C265.656 699.662 257.227 709.976 245.403 712.319C241.575 713.162 239.967 717.909 238.033 721.744C249.817 726.229 257.687 715.12 267.459 711.656C272.812 709.69 278.307 706.578 284.019 704.074Z" fill="#FCAD4B"/>
<path d="M213.286 773.225C205.815 780.276 196 783.06 191.106 794.26C201.575 808.957 211.117 797.588 220.931 794.804C226.399 789.131 231.128 800.916 237.25 797.092C242.434 793.743 248.381 792.552 251.222 784.936C254.166 783.083 243.199 780.27 251.244 778.745C254.859 778.007 257.601 774.802 257.263 769.157C248.711 762.214 241.162 767.486 233.445 769.936C223.161 772.956 214.968 781.099 206.748 785.257C209.447 778.803 220.867 782.114 221.834 769.993C217.519 765.632 215.138 768.29 213.286 773.225Z" fill="#FDAD4B"/>
<path d="M221.533 788.511C212.344 795.317 202.862 799.738 191.642 793.82C190.705 794.293 190.111 794.954 189.282 795.734C185.985 798.12 182.906 801.121 179.5 803.201C171.875 807.408 177.804 811.654 180.032 815.595C187.307 816.628 194.07 814.664 200.849 811.968C206.113 809.675 211.144 807.499 216.19 804.592C218.038 799.68 229.498 800.05 221.533 788.511Z" fill="#FEB352"/>
<path d="M212.723 772.534C215.418 770.823 217.912 767.777 221.209 770.071C231.372 769.996 238.93 762.615 246.472 755.96C248.156 752.961 250.526 750.337 247.621 746.052C234.555 751.89 221.272 757.119 209.401 766.305C210.503 768.623 211.496 770.637 212.723 772.534Z" fill="#E38F2D"/>
<path d="M200.065 809.791C192.998 809.37 186.663 812.572 180.67 815.963C182.247 818.069 184.905 818.541 185.728 823.205C178.612 824.986 170.842 824.921 164.146 828.668C174.224 834.462 183.475 825.433 193.275 828.101C195.807 828.999 198.339 829.897 200.871 830.795C205.237 827.5 211.431 825.458 210.815 816.697C210.324 807.51 202.356 816.254 200.065 809.791Z" fill="#FCA843"/>
<path d="M232.956 807.626C239.451 816.576 245.191 807.949 250.533 806.704C263.894 803.23 276.061 796.404 286.258 784.822C289.704 780.578 298.626 779.332 295.227 771.341C291.611 762.742 284.334 767.831 279.085 770.107C272.559 772.664 267.135 777.541 260.934 781.013C251.847 789.525 242.326 796.818 232.028 802.705C231.06 804.627 231.37 806.268 232.956 807.626Z" fill="#F29F3D"/>
<path d="M233.75 806.647C233.42 805.711 232.743 804.584 232.303 803.337C226.324 793.505 221.365 806.324 215.711 802.947C209.409 802.474 204.867 806.99 199.759 810.69C198.197 812.588 194.919 812.783 195.31 816.262C195.717 818.997 198.176 818.851 200.051 818.633C202.636 818.054 204.687 815.172 208.624 816.848C208.004 823.783 199.353 823.769 200.575 831.974C202.258 835.163 203.941 838.353 205.388 841.663C208.753 832.229 216.649 829.317 222.847 823.959C229.561 821.649 228.515 810.78 233.75 806.647Z" fill="#F5A13E"/>
<path d="M263.261 784.669C272.654 779.205 281.067 770.977 293.485 770.141C293.304 778.198 285.089 777.636 285.971 784.795C287.236 785.243 288.5 785.691 289.765 786.139C297.19 780.581 302.931 772.615 307.768 763.657C304.122 755.721 298.179 762.341 293.731 759.154C291.202 758.258 288.422 758.213 285.969 759.089C279.874 762.165 274.122 765.429 267.281 765.623C263.312 766.902 259.017 767.259 256.934 772.293C251.869 775.935 247.148 779.766 241.489 784.07C243.827 788.321 248.02 782.223 250.609 785.623C255.182 788.384 258.78 782.947 263.261 784.669Z" fill="#EE9A37"/>
<path d="M235.221 833.293C244.364 832.656 250.682 824.09 259.607 822.842C262.738 822.348 265.717 818.335 263.512 813.691C262.083 810.454 258.251 811.3 256.006 813.507C248.71 819.328 240.187 823.25 235.221 833.293Z" fill="#E69231"/>
<path d="M302.531 722.542C296.951 723.908 291.99 728.562 285.432 727.179C280.563 732.868 272.852 731.345 267.423 736.235C268.569 741.779 272.387 741.659 275.361 743.044C276.966 743.677 278.352 743.7 279.631 743.418C284.4 742.099 288.409 738.643 292.853 736.409C297.656 733.634 305.617 734.311 302.531 722.542Z" fill="#EC9835"/>
<path d="M275.605 738.506C273.08 737.613 270.447 736.415 267.688 735.64C261.445 740.585 253.011 740.143 247.42 746.922C247.806 750.334 246.26 752.194 244.263 753.56C250.1 761.439 254.303 754.636 259.326 752.469C264.524 747.689 273.41 748.625 275.605 738.506Z" fill="#E69330"/>
<path d="M258.239 748.142C253.695 750.06 250.778 756.536 244.841 753.78C236.979 759.51 229.35 765.123 221.597 771.157C215.26 775.764 209.157 780.255 202.929 785.166C221.44 783.055 237.014 768.089 256.576 770.466C260.62 770.231 264.322 769.809 267.515 766.418C270.5 767.072 272.634 764.57 274.752 762.792C278.287 759.589 279.912 754.118 278.177 749.256C275.916 742.151 271.572 745.402 267.62 746.666C264.602 747.461 261.675 749.286 258.239 748.142Z" fill="#FDAD4B"/>
<path d="M263.582 783.672C258.942 779.159 254.965 781.16 250.954 784.62C245.306 788.904 239.875 793.799 232.687 794.532C224.564 795.737 234.207 788.722 230.512 788.418C227.504 788.491 224.479 789.292 221.345 789.788C224.732 798.535 216.985 798.469 215.03 803.057C220.649 810.321 225.853 800.134 231.445 803.447C244.307 802.382 252.678 790.24 263.582 783.672Z" fill="#FDAD4B"/>
<path d="M257.755 748.823C264.066 759.594 268.872 743.169 275.281 749.476C277.18 758.812 271.25 762.563 267.164 767.584C275.262 771.561 281.004 765.697 286.949 761.202C280.255 757.248 287.301 755.872 287.477 753.208C288.285 748.382 291.535 744.153 288.734 738.587C284.103 736.528 281.953 743.875 277.431 742.128C276.864 741.312 276.424 740.065 275.857 739.249C270.935 745.064 263.134 743.512 257.755 748.823Z" fill="#FDAA48"/>
<path d="M285.919 753.98C284.261 755.541 282.603 757.103 281.18 758.546C283.006 759.797 284.958 760.623 286.785 761.875C288.753 761.968 290.847 761.636 293.05 761.61C298.476 757.422 304.011 753.541 309.437 749.353C312.627 746.656 316.739 744.218 313.528 737.507C302.933 739.595 291.231 739.343 285.919 753.98Z" fill="#FDAD4B"/>
<path d="M285.613 753.482C293.346 744.858 304.947 744.802 313.007 737.101C308.696 732.748 303.911 734.077 299.594 735.17C296.217 735.788 293.417 736.477 291.311 732.098C286.477 735.63 281.642 739.161 277.041 742.574C278.307 743.023 280.026 743.969 280.965 743.495C287.911 738.896 287.376 742.069 284.446 748.63C284.194 749.482 285.302 751.825 285.613 753.482Z" fill="#FBA744"/>
</g>
</svg>
