<svg width="327" height="345" viewBox="0 0 327 345" fill="none" xmlns="http://www.w3.org/2000/svg">
<g opacity="0.6">
<path d="M53.3207 85.261C59.7847 71.8895 74.2542 66.5939 74.2542 66.5939C77.4665 64.8734 80.9163 67.6027 78.7708 70.7742C78.7708 70.7742 77.8653 71.124 76.3234 71.8699L76.2915 71.8983C71.8563 74.0516 62.6606 79.5348 57.8213 89.4555C55.9081 91.1616 51.8442 87.9218 53.3207 85.261Z" fill="#707070"/>
<path d="M48.8108 81.0862C55.3061 67.7445 69.7437 62.42 69.7437 62.42C72.209 61.0224 75.638 64.4277 74.2916 66.6293C74.2916 66.6293 59.8225 71.9246 53.3586 85.2955C50.5966 86.0998 47.401 83.2871 48.8108 81.0862Z" fill="#9E9E9E"/>
<path d="M44.2851 76.897C50.7803 63.5555 65.2177 58.2311 65.2177 58.2311C68.0303 57.0099 70.8703 60.7974 69.7655 62.4402C69.7655 62.4402 55.3282 67.7646 48.833 81.1061C46.8318 81.8325 42.8439 79.0686 44.2851 76.897Z" fill="#707070"/>
<path d="M70.2738 93.6771C70.2738 93.6771 68.0251 80.6563 76.2852 71.8339L76.317 71.8055C77.8257 71.0601 78.7618 70.711 78.7618 70.711L117.743 74.2305C113.396 75.8503 108.554 77.9391 103.487 80.7155L70.2738 93.6771Z" fill="#DEDEDE"/>
<path d="M62.0601 123.866L57.7801 89.3925C62.5996 79.4944 71.8036 74.0017 76.2352 71.8502C67.9728 80.6751 70.2221 93.6995 70.2221 93.6995L103.428 80.7198C88.8409 88.6698 72.5373 101.95 62.0601 123.866Z" fill="#A6A6A6"/>
<path d="M252.502 311.821L352.284 253.055L350.84 213.7L339.424 218.221L326.12 223.482L312.005 229.095L295.159 235.771L278.425 242.404L258.912 250.144L235.446 259.436L252.613 294.059L245.081 302.376L210.953 308.228L252.502 311.821ZM320.515 232.396L342.192 225.241L343.635 249.277L317.217 266.232L320.515 232.396Z" fill="#DEDEDE"/>
<path d="M235.59 259.456L220.433 232.578L241.348 226.583L243.108 226.128L244.899 225.616L262.167 220.702L265.719 219.677L281.148 215.29L282.86 214.791L284.62 214.307L299.193 210.14L300.89 209.655L302.697 209.129L313.527 206.071L315.256 205.558L317.032 205.06L322.074 203.62L327.719 202.043L329.431 201.545L331.207 201.047L340.944 198.25L350.944 213.757L341.2 217.646L339.518 218.289L337.82 218.946L327.934 222.877L326.22 223.548L324.522 224.205L313.778 228.501L312.112 229.158L310.414 229.815L296.941 235.173L295.274 235.831L293.576 236.488L280.246 241.775L280.23 241.79L278.548 242.432L276.85 243.118L260.742 249.511L260.727 249.525L257.331 250.839L235.59 259.456Z" fill="#FCFCFC"/>
<path d="M161.532 146.101C164.448 142.616 178.854 125.379 179.638 123.995C179.638 123.995 173.704 103.218 163.495 88.2221C168.489 92.3819 173.055 96.7811 176.074 101.048C186.661 116.135 203.447 146.03 203.447 146.03L228.417 142.587C235.395 141.071 241.351 145.543 244.989 149.343C243.388 147.862 233.029 140.528 200.006 158.824C200.006 158.824 189.767 136.952 188.001 136.502C187.985 136.517 167.772 139.596 161.532 146.101Z" fill="#E07800"/>
<path d="M208.755 169.098C218.427 161.471 237.923 155.917 237.923 155.917L281.272 202.248C271.993 201.343 261.747 209.68 261.747 209.68C248.702 196.538 208.755 169.098 208.755 169.098Z" fill="#FCFCFC"/>
<path d="M317.239 266.126L320.536 232.303L342.189 225.137L343.631 249.163L317.239 266.126Z" fill="#FCFCFC"/>
<path d="M327.748 201.928C327.748 202.014 327.795 202.115 327.841 202.216L337.83 218.797L339.54 218.127L341.219 217.486C341.22 217.429 341.188 217.371 341.157 217.342L331.246 200.919L327.748 201.928Z" fill="#DEDEDE"/>
<path d="M313.551 205.992C313.582 206.107 313.629 206.208 313.676 206.309L324.508 224.104L326.218 223.434L327.929 222.764C327.929 222.707 327.898 222.649 327.882 222.635L317.049 204.983L313.551 205.992Z" fill="#DEDEDE"/>
<path d="M310.409 229.736L299.319 210.373C299.273 210.272 299.21 210.185 299.211 210.099L300.904 209.615L302.708 209.09L313.721 228.294C313.752 228.323 313.767 228.395 313.783 228.438L312.104 229.08L310.409 229.736Z" fill="#DEDEDE"/>
<path d="M293.562 236.45L281.251 215.584C281.205 215.483 281.142 215.396 281.158 215.296L282.883 214.784L284.624 214.315L296.888 234.995C296.92 235.024 296.935 235.096 296.935 235.124L295.256 235.766L293.562 236.45Z" fill="#DEDEDE"/>
<path d="M276.824 243.123L262.345 221.088C262.251 220.972 262.205 220.872 262.174 220.756L265.687 219.734L280.104 241.595C280.151 241.639 280.182 241.725 280.213 241.783L280.181 241.811L278.503 242.453L276.824 243.123Z" fill="#DEDEDE"/>
<path d="M257.293 250.893L241.486 227.081C241.408 226.951 241.33 226.849 241.331 226.706L243.087 226.223L244.859 225.726L260.557 249.351C260.604 249.452 260.651 249.496 260.682 249.554L260.65 249.582L257.293 250.893Z" fill="#DEDEDE"/>
<path d="M245.083 302.499L252.6 294.199L235.468 259.648L220.335 232.812L214.611 248.926L208.031 267.485L204.5 277.508L194.218 281.399L149.157 241.747L198.372 294.78L203.452 280.41L201.275 286.601L198.372 294.78L201.116 297.752L203.421 300.204L206.697 303.727L208.36 305.497L211.025 308.34L245.083 302.499Z" fill="#A6A6A6"/>
<path d="M201.225 286.582L207.985 267.459L214.566 248.894L241.618 293.904L233.063 294.485L231.752 292.116L216.49 264.925L227.202 283.048L201.225 286.582Z" fill="#848484"/>
<path d="M198.43 294.832L191.473 287.353C190.235 286.006 188.934 284.629 187.634 283.223C186.647 282.165 185.644 281.092 184.641 279.962C177.496 272.31 169.631 263.817 161.969 255.542C160.512 253.962 159.054 252.411 157.629 250.861L149.262 241.818C136.571 228.079 126.262 216.805 123.632 213.707C115.631 204.194 114.623 188.504 114.623 188.504C112.515 187.419 110.329 186.205 108.128 184.832C109.96 182.485 111.872 180.183 113.751 177.937C116.554 174.582 119.435 171.329 122.316 168.19L140.244 171.529C139.61 174.176 138.33 202.966 138.33 202.966C146.886 222.985 186.896 262.788 186.896 262.788L208.114 267.554L204.585 277.571L201.378 286.645L198.43 294.832Z" fill="#D27100"/>
<path d="M187.095 262.701L208.328 267.471L214.907 248.911L220.632 232.796L241.532 226.825L241.563 226.854L243.273 226.356L245.046 225.858L262.32 220.952L265.851 219.915L281.256 215.534L282.966 215.036L284.723 214.553L299.274 210.392L300.968 209.908L302.773 209.382L313.587 206.329L317.086 205.319L322.121 203.882L294.025 199.812L248.704 154.14C248.704 154.14 247.392 152.058 245.103 149.621L244.836 149.374C243.235 147.892 232.891 140.544 199.863 158.842C199.863 158.842 189.623 136.968 187.856 136.518C187.856 136.518 167.625 139.582 161.385 146.088C164.301 142.603 178.709 125.364 179.477 123.994C179.477 123.994 179.445 123.965 179.43 123.893C179.431 123.836 179.4 123.721 179.369 123.606C179.137 122.871 178.581 121.056 177.73 118.563L177.746 118.549L177.715 118.52C177.514 117.901 177.297 117.295 177.049 116.632C177.019 116.46 176.941 116.301 176.894 116.143C179.117 114.732 181.211 113.463 183.242 112.279L183.274 112.251C183.133 112.034 182.993 111.788 182.868 111.586C182.696 111.311 182.54 111.08 182.384 110.791C182.337 110.69 182.243 110.574 182.181 110.516C181.946 110.155 181.712 109.793 181.493 109.446C181.493 109.389 181.478 109.374 181.446 109.345C181.009 108.652 180.603 107.987 180.134 107.321C180.134 107.264 180.087 107.22 180.04 107.177C180.024 107.105 179.993 107.076 179.978 107.004C179.681 106.556 179.352 106.107 179.071 105.645C178.946 105.471 178.821 105.269 178.696 105.095C178.649 104.994 178.587 104.907 178.54 104.806C177.633 103.504 176.757 102.203 175.96 101.031C175.491 100.366 175.005 99.7144 174.473 99.0769C174.191 98.7293 173.941 98.382 173.643 98.0773C173.376 97.7442 173.078 97.4108 172.765 97.0628C172.169 96.4247 171.558 95.7433 170.899 95.1044C170.585 94.7565 170.24 94.4082 169.879 94.074C169.534 93.7544 169.204 93.4494 168.875 93.0869C167.165 91.4173 165.296 89.7747 163.396 88.1891L163.364 88.16C161.699 86.8211 160.018 85.4963 158.336 84.229C152.003 79.4654 145.617 75.3471 141.15 72.5993C83.7428 84.1122 84.9581 148.262 84.9581 148.262L85.0366 148.335L96.3755 155.766L111.898 165.971L119.424 167.36L122.517 167.939L122.549 167.968L140.49 171.309C139.855 173.958 138.574 202.768 138.574 202.768C147.057 222.872 187.095 262.701 187.095 262.701ZM237.915 156.059L281.303 202.4C272.018 201.494 261.767 209.836 261.767 209.836C248.7 196.701 208.716 169.232 208.716 169.232C218.393 161.601 237.915 156.059 237.915 156.059Z" fill="#FFAC1C"/>
<path d="M161.532 146.101C164.448 142.616 178.854 125.379 179.638 123.995C179.638 123.995 173.704 103.218 163.495 88.2221C168.489 92.3819 173.055 96.7811 176.074 101.048C186.661 116.135 203.447 146.03 203.447 146.03L228.417 142.587C235.395 141.071 241.351 145.543 244.989 149.343C243.388 147.862 233.029 140.528 200.006 158.824C200.006 158.824 189.767 136.952 188.001 136.502C187.985 136.517 167.772 139.596 161.532 146.101Z" fill="#A6A6A6"/>
<path d="M198.43 294.832L191.473 287.353C190.235 286.006 188.934 284.629 187.634 283.223C186.647 282.165 185.644 281.092 184.641 279.962C177.496 272.31 169.631 263.817 161.969 255.542C160.512 253.962 159.054 252.411 157.629 250.861L149.262 241.818C136.571 228.079 126.262 216.805 123.632 213.707C115.631 204.194 114.623 188.504 114.623 188.504C112.515 187.419 110.329 186.205 108.128 184.832C109.96 182.485 111.872 180.183 113.751 177.937C116.554 174.582 119.435 171.329 122.316 168.19L140.244 171.529C139.61 174.176 138.33 202.966 138.33 202.966C146.886 222.985 186.896 262.788 186.896 262.788L208.114 267.554L204.585 277.571L201.378 286.645L198.43 294.832Z" fill="#A6A6A6"/>
<path d="M187.095 262.701L208.328 267.471L214.907 248.911L220.632 232.796L241.532 226.825L241.563 226.854L243.273 226.356L245.046 225.858L262.32 220.952L265.851 219.915L281.256 215.534L282.966 215.036L284.723 214.553L299.274 210.392L300.968 209.908L302.773 209.382L313.587 206.329L317.086 205.319L322.121 203.882L294.025 199.812L248.704 154.14C248.704 154.14 247.392 152.058 245.103 149.621L244.836 149.374C243.235 147.892 232.891 140.544 199.863 158.842C199.863 158.842 189.623 136.968 187.856 136.518C187.856 136.518 167.625 139.582 161.385 146.088C164.301 142.603 178.709 125.364 179.477 123.994C179.477 123.994 179.445 123.965 179.43 123.893C179.431 123.836 179.4 123.721 179.369 123.606C179.137 122.871 178.581 121.056 177.73 118.563L177.746 118.549L177.715 118.52C177.514 117.901 177.297 117.295 177.049 116.632C177.019 116.46 176.941 116.301 176.894 116.143C179.117 114.732 181.211 113.463 183.242 112.279L183.274 112.251C183.133 112.034 182.993 111.788 182.868 111.586C182.696 111.311 182.54 111.08 182.384 110.791C182.337 110.69 182.243 110.574 182.181 110.516C181.946 110.155 181.712 109.793 181.493 109.446C181.493 109.389 181.478 109.374 181.446 109.345C181.009 108.652 180.603 107.987 180.134 107.321C180.134 107.264 180.087 107.22 180.04 107.177C180.024 107.105 179.993 107.076 179.978 107.004C179.681 106.556 179.352 106.107 179.071 105.645C178.946 105.471 178.821 105.269 178.696 105.095C178.649 104.994 178.587 104.907 178.54 104.806C177.633 103.504 176.757 102.203 175.96 101.031C175.491 100.366 175.005 99.7144 174.473 99.0769C174.191 98.7293 173.941 98.382 173.643 98.0773C173.376 97.7442 173.078 97.4108 172.765 97.0628C172.169 96.4247 171.558 95.7433 170.899 95.1044C170.585 94.7565 170.24 94.4082 169.879 94.074C169.534 93.7544 169.204 93.4494 168.875 93.0869C167.165 91.4173 165.296 89.7747 163.396 88.1891L163.364 88.16C161.699 86.8211 160.018 85.4963 158.336 84.229C152.003 79.4654 145.617 75.3471 141.15 72.5993C83.7428 84.1122 84.9581 148.262 84.9581 148.262L85.0366 148.335L96.3755 155.766L111.898 165.971L119.424 167.36L122.517 167.939L122.549 167.968L140.49 171.309C139.855 173.958 138.574 202.768 138.574 202.768C147.057 222.872 187.095 262.701 187.095 262.701ZM237.915 156.059L281.303 202.4C272.018 201.494 261.767 209.836 261.767 209.836C248.7 196.701 208.716 169.232 208.716 169.232C218.393 161.601 237.915 156.059 237.915 156.059Z" fill="#DEDEDE"/>
<path d="M55.7472 140.252C57.436 134.261 59.5009 128.791 61.9422 123.786L61.9427 123.729C72.418 101.817 88.7187 88.5391 103.319 80.605C108.372 77.8426 113.229 75.7393 117.577 74.1193L117.641 74.12C127.971 70.2222 135.385 69.2398 135.385 69.2398C135.385 69.2398 137.702 70.5161 141.294 72.741C83.7957 84.2723 85.013 148.525 85.013 148.525L85.0916 148.598L96.4486 156.041C93.1283 160.03 89.7906 164.235 86.3878 168.697C88.1025 170.14 89.8171 171.582 91.5796 172.982C88.8885 170.867 86.2457 168.653 83.6659 166.468C68.1873 153.358 55.7472 140.252 55.7472 140.252Z" fill="#E07800"/>
<path d="M85.0429 148.564L84.9643 148.491C84.9643 148.491 83.7474 84.2561 141.23 72.7279C145.704 75.4794 152.129 79.6034 158.44 84.373C160.123 85.6421 161.807 86.9686 163.474 88.3093L163.506 88.3384C165.424 89.9406 167.296 91.5567 168.992 93.2427C169.322 93.6056 169.668 93.9257 169.998 94.2311C170.359 94.5657 170.689 94.9287 171.019 95.2629C171.663 95.9168 172.291 96.5849 172.887 97.2239C173.186 97.5578 173.516 97.892 173.766 98.2397C174.049 98.5591 174.315 98.8926 174.598 99.2407C175.147 99.8935 175.632 100.546 176.087 101.197C176.885 102.371 177.778 103.66 178.67 104.977C178.717 105.079 178.779 105.166 178.826 105.267C178.951 105.44 179.077 105.643 179.202 105.817C179.531 106.324 179.875 106.816 180.188 107.337C180.235 107.381 180.298 107.439 180.282 107.482C180.752 108.148 181.158 108.814 181.596 109.509C181.628 109.538 181.643 109.552 181.643 109.61C181.878 109.972 182.097 110.319 182.331 110.681C182.691 111.245 183.051 111.839 183.426 112.447C183.677 112.823 183.911 113.185 184.146 113.604C184.24 113.749 184.349 113.937 184.443 114.082L184.474 114.111C182.376 115.554 180.165 117.097 177.923 118.725L177.891 118.753C165.852 127.403 152.118 138.564 138.21 152.052C136.808 153.388 135.453 154.739 134.051 156.132C133.844 156.316 133.637 156.501 133.446 156.729C130.258 159.942 127.086 163.256 123.929 166.671C123.578 167.07 123.243 167.426 122.908 167.81C122.781 167.924 122.653 168.095 122.541 168.223L122.51 168.194L119.413 167.614L111.876 166.223L96.3336 156.005L85.0429 148.564Z" fill="#FFAC1C"/>
<path d="M86.1978 168.691C89.5968 164.262 92.9469 160.048 96.248 156.048L111.778 166.258L119.309 167.648L122.404 168.228L122.435 168.257C119.551 171.399 116.682 174.671 113.86 178.015C111.978 180.264 110.065 182.569 108.23 184.919C107.789 184.656 107.348 184.392 106.908 184.129C105.9 183.486 104.878 182.828 103.839 182.099C103.194 181.675 102.565 181.266 101.936 180.828C101.007 180.201 100.064 179.53 99.1359 178.844C97.5001 177.677 95.8333 176.424 94.1984 175.142C93.2549 174.442 92.2956 173.728 91.3684 172.957C89.6235 171.573 87.9107 170.132 86.1978 168.691Z" fill="#F5D773"/>
<path d="M96.3012 155.981C123.972 122.529 149.271 104.088 167.159 94.169C167.764 93.8303 168.368 93.4628 168.988 93.1387C169.318 93.5021 169.664 93.8224 169.995 94.1282C170.357 94.4631 170.687 94.8265 171.017 95.161C171.661 95.8156 172.29 96.4844 172.887 97.1241C173.186 97.4583 173.516 97.7929 173.767 98.141C174.05 98.4607 174.317 98.7945 174.599 99.143C175.149 99.7965 175.635 100.449 176.09 101.102C176.889 102.276 177.783 103.567 178.676 104.886C178.723 104.987 178.785 105.074 178.832 105.175C178.958 105.349 179.083 105.552 179.208 105.726C179.537 106.233 179.882 106.726 180.195 107.248C180.243 107.292 180.305 107.35 180.289 107.393C180.76 108.06 181.167 108.726 181.605 109.422C181.637 109.451 181.652 109.465 181.652 109.523C181.887 109.885 182.106 110.233 182.341 110.595C182.42 110.668 182.498 110.798 182.545 110.871C182.701 111.16 182.858 111.392 183.03 111.668C183.171 111.885 183.328 112.117 183.437 112.334C183.5 112.45 183.594 112.566 183.672 112.696C183.829 112.986 183.985 113.218 184.142 113.507C184.236 113.652 184.345 113.84 184.439 113.985C182.338 115.43 180.126 116.974 177.881 118.604C165.845 127.249 152.049 138.464 138.158 151.995C136.754 153.333 135.398 154.685 133.995 156.079C133.788 156.264 133.58 156.449 133.389 156.677C130.182 159.879 127.022 163.211 123.862 166.63C123.511 167.029 123.176 167.385 122.84 167.77C122.713 167.884 122.553 168.026 122.457 168.169L119.357 167.588L111.813 166.195L96.3012 155.981Z" fill="#FFEEB5"/>
<path d="M156.027 161.73L144.416 172.083L142.372 203.444L150.5 199.795L156.027 161.73Z" fill="#FCFCFC"/>
</g>
</svg>
