<svg width="412" height="1814" viewBox="0 0 412 1814" fill="none" xmlns="http://www.w3.org/2000/svg">
<path fill-rule="evenodd" clip-rule="evenodd" d="M837.938 34.5928C709.226 14.6504 579.202 -5.29332 449.231 2.71388C319.175 10.7263 187.064 48.9992 87.8876 133.578C35.5331 178.13 -8.77195 243.005 1.57326 310.962C13.8115 391.121 94.5746 440.893 170.21 469.965C180.978 474.104 191.931 478.126 202.937 482.168C269.239 506.513 337.492 531.576 379.141 587.304C382.477 590.904 385.02 595.165 386.606 599.811C388.191 604.456 388.783 609.383 388.344 614.272C386.038 624.601 376.569 630.963 367.824 636.684C305.512 677.952 252.508 761.226 293.198 823.969C311.518 852.151 344.383 868.409 376.416 884.256C416.87 904.27 455.999 923.627 462.827 965.515C467.256 992.861 454.773 1018.03 442.135 1043.51C432.114 1063.72 421.995 1084.12 420.133 1105.96C415.58 1158.51 460.457 1203.51 508.929 1224.21C535.019 1235.36 562.706 1241.8 590.412 1248.25C614.182 1253.78 637.967 1259.31 660.768 1267.82C710.145 1286.25 758.15 1325.92 760.866 1378.55C761.814 1396.76 757.076 1414.66 752.365 1432.46C750.024 1441.31 747.69 1450.13 746.063 1458.95C726.892 1558.33 791.392 1658.77 876.893 1713.02C962.394 1767.26 1065.18 1785.1 1164.97 1801.86L1164.94 1801.7C1293.65 1821.65 1423.67 1841.59 1553.65 1833.58C1683.7 1825.57 1815.81 1787.3 1914.99 1702.72C1967.34 1658.17 2011.65 1593.29 2001.3 1525.33C1989.07 1445.18 1908.3 1395.4 1832.67 1366.33C1821.9 1362.19 1810.95 1358.17 1799.94 1354.13C1733.64 1329.78 1665.38 1304.72 1623.74 1248.99C1620.4 1245.39 1617.86 1241.13 1616.27 1236.49C1614.69 1231.84 1614.09 1226.91 1614.53 1222.02C1616.84 1211.7 1626.31 1205.33 1635.05 1199.61C1697.36 1158.34 1750.37 1075.07 1709.68 1012.33C1691.36 984.146 1658.49 967.888 1626.46 952.041C1586.01 932.027 1546.88 912.67 1540.05 870.782C1535.62 843.436 1548.1 818.267 1560.74 792.785C1570.76 772.578 1580.88 752.175 1582.74 730.335C1587.3 677.791 1542.42 632.785 1493.95 612.082C1467.86 600.94 1440.17 594.497 1412.47 588.05C1388.69 582.519 1364.91 576.984 1342.11 568.475C1292.73 550.049 1244.73 510.378 1242.01 457.751C1241.06 439.534 1245.8 421.633 1250.51 403.832C1252.85 394.987 1255.19 386.166 1256.81 377.344C1275.98 277.963 1211.48 177.525 1125.98 123.279C1040.48 69.0336 937.697 51.2021 837.909 34.4377L837.938 34.5928Z" fill="url(#paint0_linear_411_202)"/>
<defs>
<linearGradient id="paint0_linear_411_202" x1="2186.5" y1="1501.43" x2="576.985" y2="1774.78" gradientUnits="userSpaceOnUse">
<stop stop-color="#8E2486"/>
<stop offset="0.333333" stop-color="#D23A63"/>
<stop offset="0.6875" stop-color="#EB5145"/>
<stop offset="1" stop-color="#F16A26"/>
</linearGradient>
</defs>
</svg>
