<svg width="1146" height="1942" viewBox="0 0 1146 1942" fill="none" xmlns="http://www.w3.org/2000/svg">
<g filter="url(#filter0_d_411_199)">
<path fill-rule="evenodd" clip-rule="evenodd" d="M96.2273 2171.16C254.626 2184.64 414.624 2198 572.211 2177.34C729.9 2156.67 887.551 2098.97 1001.21 1987.66C1061.22 1929.01 1109.72 1846.3 1091.42 1764.42C1069.79 1667.84 967.268 1614.02 872.73 1584.97C859.27 1580.83 845.596 1576.86 831.855 1572.86C749.079 1548.78 663.867 1523.99 608.474 1459.64C604.11 1455.53 600.655 1450.56 598.335 1445.03C596.014 1439.51 594.879 1433.56 595.004 1427.57C596.945 1414.8 607.941 1406.26 618.109 1398.56C690.517 1343.08 748.066 1237.23 693.253 1164.24C668.579 1131.47 627.197 1114.43 586.861 1097.82C535.921 1076.85 486.652 1056.57 474.82 1006.13C467.131 973.208 480.218 941.512 493.467 909.423C503.973 883.978 514.582 858.285 515.014 831.534C516.148 767.172 457.725 716.139 396.964 695C364.261 683.622 330.007 678.102 295.73 672.578C266.322 667.839 236.896 663.097 208.417 654.65C146.746 636.359 84.9625 592.085 77.2375 528.231C74.5534 506.129 78.8191 483.934 83.061 461.863C85.1688 450.897 87.2707 439.96 88.5112 429.081C103.51 306.461 16.5401 189.578 -92.1243 130.705C-200.789 71.8313 -327.442 58.7486 -450.356 46.7135L-450.308 46.9004C-608.707 33.4241 -768.705 20.0563 -926.292 40.7185C-1083.98 61.394 -1241.63 119.088 -1355.29 230.402C-1415.3 289.046 -1463.8 371.76 -1445.5 453.64C-1423.87 550.218 -1321.35 604.041 -1226.81 633.091C-1213.35 637.227 -1199.68 641.204 -1185.94 645.201C-1103.16 669.28 -1017.95 694.066 -962.555 758.426C-958.19 762.53 -954.736 767.505 -952.415 773.029C-950.095 778.552 -948.96 784.502 -949.084 790.492C-951.026 803.262 -962.021 811.803 -972.19 819.504C-1044.6 874.986 -1102.15 980.834 -1047.33 1053.82C-1022.66 1086.59 -981.277 1103.63 -940.942 1120.24C-890.002 1141.21 -840.732 1161.5 -828.901 1211.93C-821.212 1244.85 -834.299 1276.55 -847.548 1308.64C-858.054 1334.08 -868.662 1359.78 -869.095 1386.53C-870.228 1450.89 -811.805 1501.92 -751.045 1523.06C-718.342 1534.44 -684.088 1539.96 -649.811 1545.48C-620.402 1550.22 -590.976 1554.96 -562.498 1563.41C-500.827 1581.7 -439.043 1625.98 -431.318 1689.83C-428.634 1711.93 -432.9 1734.13 -437.142 1756.2C-439.249 1767.16 -441.351 1778.1 -442.592 1788.98C-457.591 1911.6 -370.621 2028.48 -261.956 2087.36C-153.292 2146.23 -26.6382 2159.31 96.2754 2171.35L96.2273 2171.16Z" fill="url(#paint0_linear_411_199)" fill-opacity="0.8" shape-rendering="crispEdges"/>
</g>
<defs>
<filter id="filter0_d_411_199" x="-1499.42" y="0.0410156" width="2644.75" height="2257.98" filterUnits="userSpaceOnUse" color-interpolation-filters="sRGB">
<feFlood flood-opacity="0" result="BackgroundImageFix"/>
<feColorMatrix in="SourceAlpha" type="matrix" values="0 0 0 0 0 0 0 0 0 0 0 0 0 0 0 0 0 0 127 0" result="hardAlpha"/>
<feOffset dy="20"/>
<feGaussianBlur stdDeviation="25"/>
<feComposite in2="hardAlpha" operator="out"/>
<feColorMatrix type="matrix" values="0 0 0 0 0 0 0 0 0 0 0 0 0 0 0 0 0 0 1 0"/>
<feBlend mode="normal" in2="BackgroundImageFix" result="effect1_dropShadow_411_199"/>
<feBlend mode="normal" in="SourceGraphic" in2="effect1_dropShadow_411_199" result="shape"/>
</filter>
<linearGradient id="paint0_linear_411_199" x1="1284.94" y1="1657.46" x2="-1255.54" y2="2271.28" gradientUnits="userSpaceOnUse">
<stop stop-color="#E034BC"/>
<stop offset="0.489583" stop-color="#6603AC"/>
<stop offset="1" stop-color="#0D002E"/>
</linearGradient>
</defs>
</svg>
