<svg width="1920" height="191" viewBox="0 0 1920 191" fill="none" xmlns="http://www.w3.org/2000/svg">
<g clip-path="url(#clip0)" filter="url(#filter0_d)">
<g filter="url(#filter1_dd)">
<rect x="-233.603" y="20.5149" width="2703.46" height="130.037" fill="#7E9CEE"/>
</g>
<path d="M-15.8379 106.394V63.7378H-2.09766C1.67187 63.7378 5.06055 64.5972 8.06836 66.3159C11.0762 68.0151 13.4199 70.4272 15.0996 73.5522C16.7988 76.6577 17.6582 80.144 17.6777 84.0112V85.9741C17.6777 89.8804 16.8477 93.3862 15.1875 96.4917C13.5469 99.5776 11.2227 102 8.21484 103.757C5.22656 105.496 1.88672 106.375 -1.80469 106.394H-15.8379ZM-5.55469 71.6772V98.4839H-1.98047C0.968749 98.4839 3.23437 97.439 4.8164 95.3491C6.39844 93.2397 7.18945 90.1147 7.18945 85.9741V84.1284C7.18945 80.0073 6.39844 76.9019 4.8164 74.812C3.23437 72.7222 0.929686 71.6772 -2.09766 71.6772H-5.55469ZM38.8008 91.3354H33.2344V106.394H22.9512V63.7378H39.7383C44.7969 63.7378 48.7519 64.8608 51.6035 67.1069C54.4551 69.353 55.8809 72.5269 55.8809 76.6284C55.8809 79.5972 55.2754 82.0581 54.0644 84.0112C52.873 85.9644 50.998 87.5464 48.4394 88.7573L57.3457 105.955V106.394H46.3301L38.8008 91.3354ZM33.2344 83.396H39.7383C41.6914 83.396 43.1562 82.8882 44.1328 81.8726C45.1289 80.8374 45.6269 79.4019 45.6269 77.5659C45.6269 75.73 45.1289 74.2944 44.1328 73.2593C43.1367 72.2046 41.6719 71.6772 39.7383 71.6772H33.2344V83.396ZM95.5488 63.7378V91.6577C95.5488 94.8218 94.875 97.5659 93.5273 99.8901C92.1797 102.195 90.2461 103.953 87.7266 105.164C85.207 106.375 82.2285 106.98 78.791 106.98C73.5957 106.98 69.5039 105.632 66.5156 102.937C63.5273 100.242 62.0039 96.5503 61.9453 91.8628V63.7378H72.2871V92.0679C72.4043 96.7358 74.5723 99.0698 78.791 99.0698C80.9199 99.0698 82.5312 98.4839 83.625 97.312C84.7187 96.1401 85.2656 94.2358 85.2656 91.5991V63.7378H95.5488ZM136.916 101.121C135.334 102.878 133.02 104.294 129.973 105.369C126.926 106.443 123.586 106.98 119.953 106.98C114.367 106.98 109.904 105.271 106.564 101.853C103.225 98.4351 101.437 93.6792 101.203 87.5854L101.174 83.894C101.174 79.6948 101.916 76.0327 103.4 72.9077C104.885 69.7632 107.004 67.3511 109.758 65.6714C112.531 63.9722 115.734 63.1226 119.367 63.1226C124.68 63.1226 128.801 64.3433 131.73 66.7847C134.68 69.2065 136.398 72.8296 136.887 77.6538H126.984C126.633 75.271 125.871 73.5718 124.699 72.5562C123.527 71.5405 121.867 71.0327 119.719 71.0327C117.141 71.0327 115.148 72.1265 113.742 74.314C112.336 76.5015 111.623 79.6265 111.604 83.689V86.2671C111.604 90.5249 112.326 93.728 113.771 95.8765C115.236 98.0054 117.531 99.0698 120.656 99.0698C123.332 99.0698 125.324 98.4741 126.633 97.2827V90.6616H119.484V83.6011H136.916V101.121ZM179.016 85.9448C179.016 90.105 178.244 93.7866 176.701 96.9897C175.158 100.193 172.961 102.664 170.109 104.402C167.277 106.121 164.045 106.98 160.412 106.98C156.779 106.98 153.557 106.15 150.744 104.49C147.932 102.81 145.734 100.417 144.152 97.312C142.59 94.2065 141.77 90.6421 141.691 86.6187V84.2163C141.691 80.0366 142.453 76.355 143.977 73.1714C145.52 69.9683 147.717 67.4976 150.568 65.7593C153.439 64.021 156.701 63.1519 160.354 63.1519C163.967 63.1519 167.189 64.0112 170.021 65.73C172.854 67.4487 175.051 69.8999 176.613 73.0835C178.195 76.2476 178.996 79.8804 179.016 83.9819V85.9448ZM168.557 84.1577C168.557 79.9194 167.844 76.7065 166.418 74.519C165.012 72.312 162.99 71.2085 160.354 71.2085C155.197 71.2085 152.473 75.0757 152.18 82.8101L152.15 85.9448C152.15 90.1245 152.844 93.3374 154.23 95.5835C155.617 97.8296 157.678 98.9526 160.412 98.9526C163.01 98.9526 165.012 97.8491 166.418 95.6421C167.824 93.4351 168.537 90.2612 168.557 86.1206V84.1577ZM198.645 82.2534L206.496 63.7378H217.6L203.859 91.0718V106.394H193.43V91.0718L179.719 63.7378H190.764L198.645 82.2534Z" fill="#101010"/>
<path d="M273.799 106.394V63.7378H285.605C288.906 63.7378 291.895 64.519 294.57 66.0815C297.246 67.644 299.346 69.8413 300.869 72.6733C302.393 75.4858 303.174 78.6401 303.213 82.1362V87.6733C303.213 91.228 302.461 94.4311 300.957 97.2827C299.473 100.134 297.393 102.361 294.717 103.962C292.041 105.564 289.053 106.375 285.752 106.394H273.799ZM275.381 65.3198V104.812H285.605C288.594 104.812 291.309 104.089 293.75 102.644C296.211 101.179 298.135 99.1479 299.521 96.5503C300.908 93.9331 301.611 91.0327 301.631 87.8491V82.3706C301.631 79.187 300.947 76.2964 299.58 73.6987C298.232 71.1011 296.338 69.0698 293.896 67.605C291.475 66.1206 288.789 65.3589 285.84 65.3198H275.381ZM329.287 88.1421H314.492V106.394H312.91V63.7378H326.504C330.781 63.7378 334.18 64.8413 336.699 67.0483C339.238 69.2554 340.508 72.2534 340.508 76.0425C340.508 78.9526 339.6 81.5015 337.783 83.689C335.986 85.8569 333.691 87.2046 330.898 87.7319L342.295 105.984V106.394H340.625L329.287 88.1421ZM314.492 86.5601H327.939C331.221 86.5601 333.867 85.564 335.879 83.5718C337.91 81.5796 338.926 79.0698 338.926 76.0425C338.926 72.7222 337.803 70.105 335.557 68.1909C333.33 66.2769 330.273 65.3198 326.387 65.3198H314.492V86.5601ZM381.025 63.7378V92.6245C381.025 97.1362 379.717 100.662 377.1 103.201C374.482 105.72 370.937 106.98 366.465 106.98C361.992 106.98 358.447 105.72 355.83 103.201C353.213 100.662 351.895 97.1753 351.875 92.7417V63.7378H353.457V92.5659C353.457 96.5112 354.639 99.6362 357.002 101.941C359.385 104.246 362.539 105.398 366.465 105.398C370.391 105.398 373.535 104.246 375.898 101.941C378.262 99.6362 379.443 96.5015 379.443 92.5366V63.7378H381.025ZM422.393 101.824C421.318 103.308 419.434 104.539 416.738 105.515C414.043 106.492 411.074 106.98 407.832 106.98C404.668 106.98 401.846 106.208 399.365 104.666C396.885 103.123 394.941 100.945 393.535 98.1323C392.148 95.3198 391.436 92.1362 391.396 88.5815V81.2573C391.396 77.7612 392.07 74.6265 393.418 71.853C394.766 69.0796 396.66 66.9409 399.102 65.437C401.543 63.9136 404.287 63.1519 407.334 63.1519C411.572 63.1519 415.02 64.2358 417.676 66.4038C420.352 68.5718 421.904 71.5308 422.334 75.2808H420.752C420.225 71.8823 418.809 69.2749 416.504 67.4585C414.199 65.6421 411.143 64.7339 407.334 64.7339C403.037 64.7339 399.57 66.2671 396.934 69.3335C394.297 72.3999 392.979 76.4331 392.979 81.4331V88.23C392.979 91.5698 393.594 94.5483 394.824 97.1655C396.074 99.7827 397.822 101.814 400.068 103.259C402.334 104.685 404.922 105.398 407.832 105.398C410.684 105.398 413.33 104.978 415.771 104.138C418.213 103.298 419.893 102.283 420.811 101.091V88.6694H407.773V87.0581H422.393V101.824ZM463.73 88.2593C463.73 91.9507 463.066 95.2222 461.738 98.0737C460.43 100.906 458.555 103.103 456.113 104.666C453.672 106.208 450.859 106.98 447.676 106.98C442.871 106.98 438.984 105.271 436.016 101.853C433.047 98.4351 431.562 93.8257 431.562 88.0249V81.8726C431.562 78.2007 432.217 74.939 433.525 72.0874C434.854 69.2358 436.738 67.0386 439.18 65.4956C441.641 63.9331 444.453 63.1519 447.617 63.1519C450.801 63.1519 453.613 63.9331 456.055 65.4956C458.516 67.0386 460.41 69.2456 461.738 72.1167C463.066 74.9683 463.73 78.2202 463.73 81.8726V88.2593ZM462.148 81.814C462.148 76.6577 460.84 72.5269 458.223 69.4214C455.605 66.2964 452.07 64.7339 447.617 64.7339C443.223 64.7339 439.717 66.2866 437.1 69.3921C434.482 72.478 433.174 76.687 433.174 82.019V88.2593C433.174 91.6577 433.76 94.6655 434.932 97.2827C436.123 99.8804 437.812 101.882 440 103.289C442.187 104.695 444.746 105.398 447.676 105.398C452.129 105.398 455.654 103.845 458.252 100.74C460.85 97.6343 462.148 93.396 462.148 88.0249V81.814ZM484.18 88.7573L499.121 63.7378H501.055L484.971 90.1929V106.394H483.389V90.1929L467.305 63.7378H469.414L484.18 88.7573Z" fill="#101010"/>
<path d="M558.162 106.394V63.7378H571.902C575.672 63.7378 579.061 64.5972 582.068 66.3159C585.076 68.0151 587.42 70.4272 589.1 73.5522C590.799 76.6577 591.658 80.144 591.678 84.0112V85.9741C591.678 89.8804 590.848 93.3862 589.187 96.4917C587.547 99.5776 585.223 102 582.215 103.757C579.227 105.496 575.887 106.375 572.195 106.394H558.162ZM568.445 71.6772V98.4839H572.02C574.969 98.4839 577.234 97.439 578.816 95.3491C580.398 93.2397 581.189 90.1147 581.189 85.9741V84.1284C581.189 80.0073 580.398 76.9019 578.816 74.812C577.234 72.7222 574.93 71.6772 571.902 71.6772H568.445ZM612.801 91.3354H607.234V106.394H596.951V63.7378H613.738C618.797 63.7378 622.752 64.8608 625.604 67.1069C628.455 69.353 629.881 72.5269 629.881 76.6284C629.881 79.5972 629.275 82.0581 628.064 84.0112C626.873 85.9644 624.998 87.5464 622.439 88.7573L631.346 105.955V106.394H620.33L612.801 91.3354ZM607.234 83.396H613.738C615.691 83.396 617.156 82.8882 618.133 81.8726C619.129 80.8374 619.627 79.4019 619.627 77.5659C619.627 75.73 619.129 74.2944 618.133 73.2593C617.137 72.2046 615.672 71.6772 613.738 71.6772H607.234V83.396ZM669.549 63.7378V91.6577C669.549 94.8218 668.875 97.5659 667.527 99.8901C666.18 102.195 664.246 103.953 661.727 105.164C659.207 106.375 656.229 106.98 652.791 106.98C647.596 106.98 643.504 105.632 640.516 102.937C637.527 100.242 636.004 96.5503 635.945 91.8628V63.7378H646.287V92.0679C646.404 96.7358 648.572 99.0698 652.791 99.0698C654.92 99.0698 656.531 98.4839 657.625 97.312C658.719 96.1401 659.266 94.2358 659.266 91.5991V63.7378H669.549ZM710.916 101.121C709.334 102.878 707.02 104.294 703.973 105.369C700.926 106.443 697.586 106.98 693.953 106.98C688.367 106.98 683.904 105.271 680.564 101.853C677.225 98.4351 675.437 93.6792 675.203 87.5854L675.174 83.894C675.174 79.6948 675.916 76.0327 677.4 72.9077C678.885 69.7632 681.004 67.3511 683.758 65.6714C686.531 63.9722 689.734 63.1226 693.367 63.1226C698.68 63.1226 702.801 64.3433 705.73 66.7847C708.68 69.2065 710.398 72.8296 710.887 77.6538H700.984C700.633 75.271 699.871 73.5718 698.699 72.5562C697.527 71.5405 695.867 71.0327 693.719 71.0327C691.141 71.0327 689.148 72.1265 687.742 74.314C686.336 76.5015 685.623 79.6265 685.604 83.689V86.2671C685.604 90.5249 686.326 93.728 687.771 95.8765C689.236 98.0054 691.531 99.0698 694.656 99.0698C697.332 99.0698 699.324 98.4741 700.633 97.2827V90.6616H693.484V83.6011H710.916V101.121ZM753.016 85.9448C753.016 90.105 752.244 93.7866 750.701 96.9897C749.158 100.193 746.961 102.664 744.109 104.402C741.277 106.121 738.045 106.98 734.412 106.98C730.779 106.98 727.557 106.15 724.744 104.49C721.932 102.81 719.734 100.417 718.152 97.312C716.59 94.2065 715.77 90.6421 715.691 86.6187V84.2163C715.691 80.0366 716.453 76.355 717.977 73.1714C719.52 69.9683 721.717 67.4976 724.568 65.7593C727.439 64.021 730.701 63.1519 734.354 63.1519C737.967 63.1519 741.189 64.0112 744.021 65.73C746.854 67.4487 749.051 69.8999 750.613 73.0835C752.195 76.2476 752.996 79.8804 753.016 83.9819V85.9448ZM742.557 84.1577C742.557 79.9194 741.844 76.7065 740.418 74.519C739.012 72.312 736.99 71.2085 734.354 71.2085C729.197 71.2085 726.473 75.0757 726.18 82.8101L726.15 85.9448C726.15 90.1245 726.844 93.3374 728.23 95.5835C729.617 97.8296 731.678 98.9526 734.412 98.9526C737.01 98.9526 739.012 97.8491 740.418 95.6421C741.824 93.4351 742.537 90.2612 742.557 86.1206V84.1577ZM772.645 82.2534L780.496 63.7378H791.6L777.859 91.0718V106.394H767.43V91.0718L753.719 63.7378H764.764L772.645 82.2534Z" fill="#101010"/>
<path d="M847.799 106.394V63.7378H859.605C862.906 63.7378 865.895 64.519 868.57 66.0815C871.246 67.644 873.346 69.8413 874.869 72.6733C876.393 75.4858 877.174 78.6401 877.213 82.1362V87.6733C877.213 91.228 876.461 94.4311 874.957 97.2827C873.473 100.134 871.393 102.361 868.717 103.962C866.041 105.564 863.053 106.375 859.752 106.394H847.799ZM849.381 65.3198V104.812H859.605C862.594 104.812 865.309 104.089 867.75 102.644C870.211 101.179 872.135 99.1479 873.521 96.5503C874.908 93.9331 875.611 91.0327 875.631 87.8491V82.3706C875.631 79.187 874.947 76.2964 873.58 73.6987C872.232 71.1011 870.338 69.0698 867.896 67.605C865.475 66.1206 862.789 65.3589 859.84 65.3198H849.381ZM903.287 88.1421H888.492V106.394H886.91V63.7378H900.504C904.781 63.7378 908.18 64.8413 910.699 67.0483C913.238 69.2554 914.508 72.2534 914.508 76.0425C914.508 78.9526 913.6 81.5015 911.783 83.689C909.986 85.8569 907.691 87.2046 904.898 87.7319L916.295 105.984V106.394H914.625L903.287 88.1421ZM888.492 86.5601H901.939C905.221 86.5601 907.867 85.564 909.879 83.5718C911.91 81.5796 912.926 79.0698 912.926 76.0425C912.926 72.7222 911.803 70.105 909.557 68.1909C907.33 66.2769 904.273 65.3198 900.387 65.3198H888.492V86.5601ZM955.025 63.7378V92.6245C955.025 97.1362 953.717 100.662 951.1 103.201C948.482 105.72 944.937 106.98 940.465 106.98C935.992 106.98 932.447 105.72 929.83 103.201C927.213 100.662 925.895 97.1753 925.875 92.7417V63.7378H927.457V92.5659C927.457 96.5112 928.639 99.6362 931.002 101.941C933.385 104.246 936.539 105.398 940.465 105.398C944.391 105.398 947.535 104.246 949.898 101.941C952.262 99.6362 953.443 96.5015 953.443 92.5366V63.7378H955.025ZM996.393 101.824C995.318 103.308 993.434 104.539 990.738 105.515C988.043 106.492 985.074 106.98 981.832 106.98C978.668 106.98 975.846 106.208 973.365 104.666C970.885 103.123 968.941 100.945 967.535 98.1323C966.148 95.3198 965.436 92.1362 965.396 88.5815V81.2573C965.396 77.7612 966.07 74.6265 967.418 71.853C968.766 69.0796 970.66 66.9409 973.102 65.437C975.543 63.9136 978.287 63.1519 981.334 63.1519C985.572 63.1519 989.02 64.2358 991.676 66.4038C994.352 68.5718 995.904 71.5308 996.334 75.2808H994.752C994.225 71.8823 992.809 69.2749 990.504 67.4585C988.199 65.6421 985.143 64.7339 981.334 64.7339C977.037 64.7339 973.57 66.2671 970.934 69.3335C968.297 72.3999 966.979 76.4331 966.979 81.4331V88.23C966.979 91.5698 967.594 94.5483 968.824 97.1655C970.074 99.7827 971.822 101.814 974.068 103.259C976.334 104.685 978.922 105.398 981.832 105.398C984.684 105.398 987.33 104.978 989.771 104.138C992.213 103.298 993.893 102.283 994.811 101.091V88.6694H981.773V87.0581H996.393V101.824ZM1037.73 88.2593C1037.73 91.9507 1037.07 95.2222 1035.74 98.0737C1034.43 100.906 1032.55 103.103 1030.11 104.666C1027.67 106.208 1024.86 106.98 1021.68 106.98C1016.87 106.98 1012.98 105.271 1010.02 101.853C1007.05 98.4351 1005.56 93.8257 1005.56 88.0249V81.8726C1005.56 78.2007 1006.22 74.939 1007.53 72.0874C1008.85 69.2358 1010.74 67.0386 1013.18 65.4956C1015.64 63.9331 1018.45 63.1519 1021.62 63.1519C1024.8 63.1519 1027.61 63.9331 1030.05 65.4956C1032.52 67.0386 1034.41 69.2456 1035.74 72.1167C1037.07 74.9683 1037.73 78.2202 1037.73 81.8726V88.2593ZM1036.15 81.814C1036.15 76.6577 1034.84 72.5269 1032.22 69.4214C1029.61 66.2964 1026.07 64.7339 1021.62 64.7339C1017.22 64.7339 1013.72 66.2866 1011.1 69.3921C1008.48 72.478 1007.17 76.687 1007.17 82.019V88.2593C1007.17 91.6577 1007.76 94.6655 1008.93 97.2827C1010.12 99.8804 1011.81 101.882 1014 103.289C1016.19 104.695 1018.75 105.398 1021.68 105.398C1026.13 105.398 1029.65 103.845 1032.25 100.74C1034.85 97.6343 1036.15 93.396 1036.15 88.0249V81.814ZM1058.18 88.7573L1073.12 63.7378H1075.05L1058.97 90.1929V106.394H1057.39V90.1929L1041.3 63.7378H1043.41L1058.18 88.7573Z" fill="#101010"/>
<path d="M1132.16 106.394V63.7378H1145.9C1149.67 63.7378 1153.06 64.5972 1156.07 66.3159C1159.08 68.0151 1161.42 70.4272 1163.1 73.5522C1164.8 76.6577 1165.66 80.144 1165.68 84.0112V85.9741C1165.68 89.8804 1164.85 93.3862 1163.19 96.4917C1161.55 99.5776 1159.22 102 1156.21 103.757C1153.23 105.496 1149.89 106.375 1146.2 106.394H1132.16ZM1142.45 71.6772V98.4839H1146.02C1148.97 98.4839 1151.23 97.439 1152.82 95.3491C1154.4 93.2397 1155.19 90.1147 1155.19 85.9741V84.1284C1155.19 80.0073 1154.4 76.9019 1152.82 74.812C1151.23 72.7222 1148.93 71.6772 1145.9 71.6772H1142.45ZM1186.8 91.3354H1181.23V106.394H1170.95V63.7378H1187.74C1192.8 63.7378 1196.75 64.8608 1199.6 67.1069C1202.46 69.353 1203.88 72.5269 1203.88 76.6284C1203.88 79.5972 1203.28 82.0581 1202.06 84.0112C1200.87 85.9644 1199 87.5464 1196.44 88.7573L1205.35 105.955V106.394H1194.33L1186.8 91.3354ZM1181.23 83.396H1187.74C1189.69 83.396 1191.16 82.8882 1192.13 81.8726C1193.13 80.8374 1193.63 79.4019 1193.63 77.5659C1193.63 75.73 1193.13 74.2944 1192.13 73.2593C1191.14 72.2046 1189.67 71.6772 1187.74 71.6772H1181.23V83.396ZM1243.55 63.7378V91.6577C1243.55 94.8218 1242.87 97.5659 1241.53 99.8901C1240.18 102.195 1238.25 103.953 1235.73 105.164C1233.21 106.375 1230.23 106.98 1226.79 106.98C1221.6 106.98 1217.5 105.632 1214.52 102.937C1211.53 100.242 1210 96.5503 1209.95 91.8628V63.7378H1220.29V92.0679C1220.4 96.7358 1222.57 99.0698 1226.79 99.0698C1228.92 99.0698 1230.53 98.4839 1231.62 97.312C1232.72 96.1401 1233.27 94.2358 1233.27 91.5991V63.7378H1243.55ZM1284.92 101.121C1283.33 102.878 1281.02 104.294 1277.97 105.369C1274.93 106.443 1271.59 106.98 1267.95 106.98C1262.37 106.98 1257.9 105.271 1254.56 101.853C1251.22 98.4351 1249.44 93.6792 1249.2 87.5854L1249.17 83.894C1249.17 79.6948 1249.92 76.0327 1251.4 72.9077C1252.88 69.7632 1255 67.3511 1257.76 65.6714C1260.53 63.9722 1263.73 63.1226 1267.37 63.1226C1272.68 63.1226 1276.8 64.3433 1279.73 66.7847C1282.68 69.2065 1284.4 72.8296 1284.89 77.6538H1274.98C1274.63 75.271 1273.87 73.5718 1272.7 72.5562C1271.53 71.5405 1269.87 71.0327 1267.72 71.0327C1265.14 71.0327 1263.15 72.1265 1261.74 74.314C1260.34 76.5015 1259.62 79.6265 1259.6 83.689V86.2671C1259.6 90.5249 1260.33 93.728 1261.77 95.8765C1263.24 98.0054 1265.53 99.0698 1268.66 99.0698C1271.33 99.0698 1273.32 98.4741 1274.63 97.2827V90.6616H1267.48V83.6011H1284.92V101.121ZM1327.02 85.9448C1327.02 90.105 1326.24 93.7866 1324.7 96.9897C1323.16 100.193 1320.96 102.664 1318.11 104.402C1315.28 106.121 1312.04 106.98 1308.41 106.98C1304.78 106.98 1301.56 106.15 1298.74 104.49C1295.93 102.81 1293.73 100.417 1292.15 97.312C1290.59 94.2065 1289.77 90.6421 1289.69 86.6187V84.2163C1289.69 80.0366 1290.45 76.355 1291.98 73.1714C1293.52 69.9683 1295.72 67.4976 1298.57 65.7593C1301.44 64.021 1304.7 63.1519 1308.35 63.1519C1311.97 63.1519 1315.19 64.0112 1318.02 65.73C1320.85 67.4487 1323.05 69.8999 1324.61 73.0835C1326.2 76.2476 1327 79.8804 1327.02 83.9819V85.9448ZM1316.56 84.1577C1316.56 79.9194 1315.84 76.7065 1314.42 74.519C1313.01 72.312 1310.99 71.2085 1308.35 71.2085C1303.2 71.2085 1300.47 75.0757 1300.18 82.8101L1300.15 85.9448C1300.15 90.1245 1300.84 93.3374 1302.23 95.5835C1303.62 97.8296 1305.68 98.9526 1308.41 98.9526C1311.01 98.9526 1313.01 97.8491 1314.42 95.6421C1315.82 93.4351 1316.54 90.2612 1316.56 86.1206V84.1577ZM1346.64 82.2534L1354.5 63.7378H1365.6L1351.86 91.0718V106.394H1341.43V91.0718L1327.72 63.7378H1338.76L1346.64 82.2534Z" fill="#101010"/>
<path d="M1421.8 106.394V63.7378H1433.61C1436.91 63.7378 1439.89 64.519 1442.57 66.0815C1445.25 67.644 1447.35 69.8413 1448.87 72.6733C1450.39 75.4858 1451.17 78.6401 1451.21 82.1362V87.6733C1451.21 91.228 1450.46 94.4311 1448.96 97.2827C1447.47 100.134 1445.39 102.361 1442.72 103.962C1440.04 105.564 1437.05 106.375 1433.75 106.394H1421.8ZM1423.38 65.3198V104.812H1433.61C1436.59 104.812 1439.31 104.089 1441.75 102.644C1444.21 101.179 1446.13 99.1479 1447.52 96.5503C1448.91 93.9331 1449.61 91.0327 1449.63 87.8491V82.3706C1449.63 79.187 1448.95 76.2964 1447.58 73.6987C1446.23 71.1011 1444.34 69.0698 1441.9 67.605C1439.47 66.1206 1436.79 65.3589 1433.84 65.3198H1423.38ZM1477.29 88.1421H1462.49V106.394H1460.91V63.7378H1474.5C1478.78 63.7378 1482.18 64.8413 1484.7 67.0483C1487.24 69.2554 1488.51 72.2534 1488.51 76.0425C1488.51 78.9526 1487.6 81.5015 1485.78 83.689C1483.99 85.8569 1481.69 87.2046 1478.9 87.7319L1490.29 105.984V106.394H1488.62L1477.29 88.1421ZM1462.49 86.5601H1475.94C1479.22 86.5601 1481.87 85.564 1483.88 83.5718C1485.91 81.5796 1486.93 79.0698 1486.93 76.0425C1486.93 72.7222 1485.8 70.105 1483.56 68.1909C1481.33 66.2769 1478.27 65.3198 1474.39 65.3198H1462.49V86.5601ZM1529.03 63.7378V92.6245C1529.03 97.1362 1527.72 100.662 1525.1 103.201C1522.48 105.72 1518.94 106.98 1514.46 106.98C1509.99 106.98 1506.45 105.72 1503.83 103.201C1501.21 100.662 1499.89 97.1753 1499.87 92.7417V63.7378H1501.46V92.5659C1501.46 96.5112 1502.64 99.6362 1505 101.941C1507.38 104.246 1510.54 105.398 1514.46 105.398C1518.39 105.398 1521.54 104.246 1523.9 101.941C1526.26 99.6362 1527.44 96.5015 1527.44 92.5366V63.7378H1529.03ZM1570.39 101.824C1569.32 103.308 1567.43 104.539 1564.74 105.515C1562.04 106.492 1559.07 106.98 1555.83 106.98C1552.67 106.98 1549.85 106.208 1547.37 104.666C1544.88 103.123 1542.94 100.945 1541.54 98.1323C1540.15 95.3198 1539.44 92.1362 1539.4 88.5815V81.2573C1539.4 77.7612 1540.07 74.6265 1541.42 71.853C1542.77 69.0796 1544.66 66.9409 1547.1 65.437C1549.54 63.9136 1552.29 63.1519 1555.33 63.1519C1559.57 63.1519 1563.02 64.2358 1565.68 66.4038C1568.35 68.5718 1569.9 71.5308 1570.33 75.2808H1568.75C1568.22 71.8823 1566.81 69.2749 1564.5 67.4585C1562.2 65.6421 1559.14 64.7339 1555.33 64.7339C1551.04 64.7339 1547.57 66.2671 1544.93 69.3335C1542.3 72.3999 1540.98 76.4331 1540.98 81.4331V88.23C1540.98 91.5698 1541.59 94.5483 1542.82 97.1655C1544.07 99.7827 1545.82 101.814 1548.07 103.259C1550.33 104.685 1552.92 105.398 1555.83 105.398C1558.68 105.398 1561.33 104.978 1563.77 104.138C1566.21 103.298 1567.89 102.283 1568.81 101.091V88.6694H1555.77V87.0581H1570.39V101.824ZM1611.73 88.2593C1611.73 91.9507 1611.07 95.2222 1609.74 98.0737C1608.43 100.906 1606.55 103.103 1604.11 104.666C1601.67 106.208 1598.86 106.98 1595.68 106.98C1590.87 106.98 1586.98 105.271 1584.02 101.853C1581.05 98.4351 1579.56 93.8257 1579.56 88.0249V81.8726C1579.56 78.2007 1580.22 74.939 1581.53 72.0874C1582.85 69.2358 1584.74 67.0386 1587.18 65.4956C1589.64 63.9331 1592.45 63.1519 1595.62 63.1519C1598.8 63.1519 1601.61 63.9331 1604.05 65.4956C1606.52 67.0386 1608.41 69.2456 1609.74 72.1167C1611.07 74.9683 1611.73 78.2202 1611.73 81.8726V88.2593ZM1610.15 81.814C1610.15 76.6577 1608.84 72.5269 1606.22 69.4214C1603.61 66.2964 1600.07 64.7339 1595.62 64.7339C1591.22 64.7339 1587.72 66.2866 1585.1 69.3921C1582.48 72.478 1581.17 76.687 1581.17 82.019V88.2593C1581.17 91.6577 1581.76 94.6655 1582.93 97.2827C1584.12 99.8804 1585.81 101.882 1588 103.289C1590.19 104.695 1592.75 105.398 1595.68 105.398C1600.13 105.398 1603.65 103.845 1606.25 100.74C1608.85 97.6343 1610.15 93.396 1610.15 88.0249V81.814ZM1632.18 88.7573L1647.12 63.7378H1649.05L1632.97 90.1929V106.394H1631.39V90.1929L1615.3 63.7378H1617.41L1632.18 88.7573Z" fill="#101010"/>
<path d="M1706.16 106.394V63.7378H1719.9C1723.67 63.7378 1727.06 64.5972 1730.07 66.3159C1733.08 68.0151 1735.42 70.4272 1737.1 73.5522C1738.8 76.6577 1739.66 80.144 1739.68 84.0112V85.9741C1739.68 89.8804 1738.85 93.3862 1737.19 96.4917C1735.55 99.5776 1733.22 102 1730.21 103.757C1727.23 105.496 1723.89 106.375 1720.2 106.394H1706.16ZM1716.45 71.6772V98.4839H1720.02C1722.97 98.4839 1725.23 97.439 1726.82 95.3491C1728.4 93.2397 1729.19 90.1147 1729.19 85.9741V84.1284C1729.19 80.0073 1728.4 76.9019 1726.82 74.812C1725.23 72.7222 1722.93 71.6772 1719.9 71.6772H1716.45ZM1760.8 91.3354H1755.23V106.394H1744.95V63.7378H1761.74C1766.8 63.7378 1770.75 64.8608 1773.6 67.1069C1776.46 69.353 1777.88 72.5269 1777.88 76.6284C1777.88 79.5972 1777.28 82.0581 1776.06 84.0112C1774.87 85.9644 1773 87.5464 1770.44 88.7573L1779.35 105.955V106.394H1768.33L1760.8 91.3354ZM1755.23 83.396H1761.74C1763.69 83.396 1765.16 82.8882 1766.13 81.8726C1767.13 80.8374 1767.63 79.4019 1767.63 77.5659C1767.63 75.73 1767.13 74.2944 1766.13 73.2593C1765.14 72.2046 1763.67 71.6772 1761.74 71.6772H1755.23V83.396ZM1817.55 63.7378V91.6577C1817.55 94.8218 1816.87 97.5659 1815.53 99.8901C1814.18 102.195 1812.25 103.953 1809.73 105.164C1807.21 106.375 1804.23 106.98 1800.79 106.98C1795.6 106.98 1791.5 105.632 1788.52 102.937C1785.53 100.242 1784 96.5503 1783.95 91.8628V63.7378H1794.29V92.0679C1794.4 96.7358 1796.57 99.0698 1800.79 99.0698C1802.92 99.0698 1804.53 98.4839 1805.62 97.312C1806.72 96.1401 1807.27 94.2358 1807.27 91.5991V63.7378H1817.55ZM1858.92 101.121C1857.33 102.878 1855.02 104.294 1851.97 105.369C1848.93 106.443 1845.59 106.98 1841.95 106.98C1836.37 106.98 1831.9 105.271 1828.56 101.853C1825.22 98.4351 1823.44 93.6792 1823.2 87.5854L1823.17 83.894C1823.17 79.6948 1823.92 76.0327 1825.4 72.9077C1826.88 69.7632 1829 67.3511 1831.76 65.6714C1834.53 63.9722 1837.73 63.1226 1841.37 63.1226C1846.68 63.1226 1850.8 64.3433 1853.73 66.7847C1856.68 69.2065 1858.4 72.8296 1858.89 77.6538H1848.98C1848.63 75.271 1847.87 73.5718 1846.7 72.5562C1845.53 71.5405 1843.87 71.0327 1841.72 71.0327C1839.14 71.0327 1837.15 72.1265 1835.74 74.314C1834.34 76.5015 1833.62 79.6265 1833.6 83.689V86.2671C1833.6 90.5249 1834.33 93.728 1835.77 95.8765C1837.24 98.0054 1839.53 99.0698 1842.66 99.0698C1845.33 99.0698 1847.32 98.4741 1848.63 97.2827V90.6616H1841.48V83.6011H1858.92V101.121ZM1901.02 85.9448C1901.02 90.105 1900.24 93.7866 1898.7 96.9897C1897.16 100.193 1894.96 102.664 1892.11 104.402C1889.28 106.121 1886.04 106.98 1882.41 106.98C1878.78 106.98 1875.56 106.15 1872.74 104.49C1869.93 102.81 1867.73 100.417 1866.15 97.312C1864.59 94.2065 1863.77 90.6421 1863.69 86.6187V84.2163C1863.69 80.0366 1864.45 76.355 1865.98 73.1714C1867.52 69.9683 1869.72 67.4976 1872.57 65.7593C1875.44 64.021 1878.7 63.1519 1882.35 63.1519C1885.97 63.1519 1889.19 64.0112 1892.02 65.73C1894.85 67.4487 1897.05 69.8999 1898.61 73.0835C1900.2 76.2476 1901 79.8804 1901.02 83.9819V85.9448ZM1890.56 84.1577C1890.56 79.9194 1889.84 76.7065 1888.42 74.519C1887.01 72.312 1884.99 71.2085 1882.35 71.2085C1877.2 71.2085 1874.47 75.0757 1874.18 82.8101L1874.15 85.9448C1874.15 90.1245 1874.84 93.3374 1876.23 95.5835C1877.62 97.8296 1879.68 98.9526 1882.41 98.9526C1885.01 98.9526 1887.01 97.8491 1888.42 95.6421C1889.82 93.4351 1890.54 90.2612 1890.56 86.1206V84.1577ZM1920.64 82.2534L1928.5 63.7378H1939.6L1925.86 91.0718V106.394H1915.43V91.0718L1901.72 63.7378H1912.76L1920.64 82.2534Z" fill="#101010"/>
</g>
<defs>
<filter id="filter0_d" x="-264.061" y="0.394043" width="2764" height="190" filterUnits="userSpaceOnUse" color-interpolation-filters="sRGB">
<feFlood flood-opacity="0" result="BackgroundImageFix"/>
<feColorMatrix in="SourceAlpha" type="matrix" values="0 0 0 0 0 0 0 0 0 0 0 0 0 0 0 0 0 0 127 0" result="hardAlpha"/>
<feOffset dy="10"/>
<feGaussianBlur stdDeviation="15"/>
<feColorMatrix type="matrix" values="0 0 0 0 0 0 0 0 0 0 0 0 0 0 0 0 0 0 0.25 0"/>
<feBlend mode="normal" in2="BackgroundImageFix" result="effect1_dropShadow"/>
<feBlend mode="normal" in="SourceGraphic" in2="effect1_dropShadow" result="shape"/>
</filter>
<filter id="filter1_dd" x="-253.603" y="-9.48511" width="2743.46" height="190.037" filterUnits="userSpaceOnUse" color-interpolation-filters="sRGB">
<feFlood flood-opacity="0" result="BackgroundImageFix"/>
<feColorMatrix in="SourceAlpha" type="matrix" values="0 0 0 0 0 0 0 0 0 0 0 0 0 0 0 0 0 0 127 0" result="hardAlpha"/>
<feOffset dy="-10"/>
<feGaussianBlur stdDeviation="10"/>
<feColorMatrix type="matrix" values="0 0 0 0 0 0 0 0 0 0 0 0 0 0 0 0 0 0 0.15 0"/>
<feBlend mode="normal" in2="BackgroundImageFix" result="effect1_dropShadow"/>
<feColorMatrix in="SourceAlpha" type="matrix" values="0 0 0 0 0 0 0 0 0 0 0 0 0 0 0 0 0 0 127 0" result="hardAlpha"/>
<feOffset dy="10"/>
<feGaussianBlur stdDeviation="10"/>
<feColorMatrix type="matrix" values="0 0 0 0 0 0 0 0 0 0 0 0 0 0 0 0 0 0 0.15 0"/>
<feBlend mode="normal" in2="effect1_dropShadow" result="effect2_dropShadow"/>
<feBlend mode="normal" in="SourceGraphic" in2="effect2_dropShadow" result="shape"/>
</filter>
<clipPath id="clip0">
<rect width="2704" height="130" fill="white" transform="translate(-234.061 20.394)"/>
</clipPath>
</defs>
</svg>
