<svg width="59" height="54" viewBox="0 0 59 54" fill="none" xmlns="http://www.w3.org/2000/svg">
<path d="M11.6175 10.3425L12.3079 9.07894L14.834 10.4594L12.3267 15.0475L13.157 15.5013L12.4473 16.8001L9.09085 14.9658L9.8006 13.6671L10.5717 14.0884L12.3885 10.7638L11.6175 10.3425ZM15.2538 7.40833C15.7993 7.70645 15.9977 8.38731 15.7114 8.91125C15.4118 9.45948 14.7377 9.64906 14.1922 9.35094C13.6702 9.06567 13.4599 8.40902 13.7597 7.86044C14.0593 7.31221 14.7203 7.11677 15.2538 7.40833ZM13.6014 15.744L14.3725 16.1654L16.183 12.8525L15.4119 12.4311L16.1088 11.1559L18.6349 12.5364L18.3155 13.1208C19.4214 13.0133 20.0699 13.3206 20.3191 13.4568C21.2202 13.9492 21.6946 14.8281 20.8873 16.3052L19.448 18.939L20.2788 19.3931L19.5689 20.6919L16.9711 19.2723L18.8794 15.7804C19.2178 15.1612 19.2763 14.7444 18.7784 14.4723C18.3987 14.2648 17.9561 14.286 17.6564 14.3545L16.1392 17.1308L17.0291 17.6172L16.3193 18.916L12.8916 17.0429L13.6014 15.744ZM20.7231 19.6359L21.4823 20.0508L23.2992 16.7262L22.54 16.3113L23.2305 15.0478L23.9897 15.4627L24.3413 14.8193C24.986 13.6395 26.1885 13.3838 27.4927 14.0965C27.8722 14.304 28.9259 14.9413 28.7047 16.2756L26.941 16.0079C27.0562 15.6841 26.9658 15.3717 26.7877 15.2743C26.6693 15.2097 26.4337 15.1894 26.1798 15.654L25.7567 16.4283L26.6814 16.9336L25.9909 18.1972L25.0662 17.6918L23.2493 21.0164L24.174 21.5218L23.4642 22.8207L20.0133 20.9348L20.7231 19.6359Z" fill="white"/>
<path d="M26.781 24.85C24.9307 23.8389 24.3686 21.9374 25.3846 20.0784C26.4198 18.184 28.3408 17.6551 30.1674 18.6533C31.9821 19.645 32.617 21.5551 31.5815 23.4498C30.5659 25.3083 28.6192 25.8546 26.781 24.85ZM29.7855 22.4527C30.4496 21.2374 30.0318 20.4517 29.3794 20.0952C28.5376 19.6352 27.71 20.0498 27.1762 21.0267C26.6355 22.0161 26.7271 22.9481 27.5689 23.4082C28.4109 23.8683 29.2448 23.4421 29.7855 22.4527ZM32.8912 21.9681L33.5817 20.7046L35.9536 22.0008L35.1915 23.3953C35.6504 22.9499 36.2986 22.6381 36.8796 22.6462C37.3393 22.65 37.8704 22.8624 38.2023 23.0438L37.2059 24.8671C36.3927 24.4383 35.7231 24.3668 35.2568 24.5445C34.7164 24.7445 34.3756 25.2551 34.1802 25.6127L33.6006 26.6733L34.5136 27.1722L33.8039 28.471L30.3646 26.5915L31.0744 25.2927L31.8456 25.7142L33.6624 22.3896L32.8912 21.9681ZM44.714 29.8989C45.0397 29.303 45.123 28.8694 44.6008 28.5841C44.3281 28.435 43.9192 28.366 43.4909 28.4728L41.9735 31.2493L42.8045 31.7034L42.095 33.0016L39.4975 31.5822L41.4055 28.0909C41.7312 27.4949 41.8139 27.061 41.292 26.7758C41.0192 26.6268 40.6104 26.5578 40.1821 26.6646L38.6647 29.4411L39.5547 29.9274L38.8452 31.2257L35.4175 29.3525L36.127 28.0542L36.8981 28.4756L38.7086 25.1626L37.9376 24.7412L38.6344 23.4661L41.1604 24.8466L40.8413 25.4305C41.3759 25.3819 42.1804 25.4039 42.8212 25.7542C43.3185 26.0259 43.7619 26.4847 43.8133 27.1782C44.5964 27.1266 45.5484 27.2445 46.1771 27.5881C46.841 27.9509 47.6204 28.7792 46.7217 30.4236L45.2823 33.0575L46.1131 33.5115L45.4036 34.8098L42.8058 33.3901L44.7138 29.8988L44.714 29.8989Z" fill="white"/>
<path d="M11.3347 21.4097L12.0363 20.1258L9.63403 18.813L8.35053 21.1617L10.0537 22.0924C10.7967 22.4985 11.1675 23.0141 11.3289 23.445C11.4908 23.8749 11.5426 24.559 11.075 25.4147C10.7392 26.0291 10.2631 26.5106 9.56615 26.6706C8.63745 26.8901 7.70691 26.4383 7.23773 26.1819L4.01572 24.4211L4.55543 23.4335L5.45093 23.9229L8.56319 18.2278L7.6677 17.7384L8.17722 16.8061L13.5287 19.7306L12.3176 21.9468L11.3347 21.4097ZM6.53233 24.5138L7.84311 25.2302C8.32344 25.4927 8.77916 25.5421 9.11111 25.4532C9.37599 25.3837 9.70633 25.1945 9.94652 24.755C10.1504 24.3819 10.199 23.9809 9.95875 23.565C9.76577 23.217 9.44996 23.016 9.11149 22.831L7.83361 22.1327L6.53233 24.5138ZM16.1798 22.3761L15.0103 24.5161L16.0037 25.059C16.6734 24.0424 17.6561 23.411 18.6168 23.2375C19.6046 23.0647 20.4907 23.3637 21.266 23.7874C22.1615 24.2768 23.1237 25.0594 23.3444 26.5762C23.4279 27.1496 23.4262 28.2172 22.6769 29.5883C22.1971 30.4663 21.4862 31.2751 20.6157 31.7254C19.7219 32.192 18.4537 32.4108 16.9905 31.6112C15.4832 30.7875 15.0236 29.5533 14.9303 28.633C14.8514 27.7917 15.0567 26.7919 15.4904 25.9468L14.5187 25.4158L13.0617 28.0818L13.9572 28.5711L13.4175 29.5587L10.545 27.989L11.0847 27.0013L11.9803 27.4908L15.0926 21.7957L14.197 21.3063L14.7065 20.3739L17.5356 21.92L17.0319 22.8416L16.1799 22.376L16.1798 22.3761ZM16.238 28.835C16.3579 29.4989 16.7348 30.132 17.5541 30.5798C18.4603 31.075 19.3099 31.0266 20.0809 30.5495C20.6408 30.2006 21.154 29.5979 21.5081 28.9498C21.9696 28.1053 22.1856 27.1397 22.0138 26.3908C21.8885 25.8662 21.555 25.2569 20.7141 24.7974C19.9932 24.4035 19.2282 24.2982 18.3989 24.7006C17.6093 25.0811 17.1023 25.8012 16.7905 26.3717C16.3887 27.107 16.0914 28.0135 16.238 28.835ZM24.4002 34.278L23.8602 35.2661L20.9767 33.6903L21.5166 32.7022L22.4121 33.1916L25.5241 27.497L24.6286 27.0076L25.1384 26.0748L28.1856 27.74C30.7196 29.1248 30.4013 30.5894 29.8195 31.6541C28.65 33.7941 26.8319 33.099 25.6191 32.4363L24.5489 31.8514L23.4935 33.7826L24.4002 34.278ZM25.953 31.4365C27.5365 32.3019 28.1816 31.8992 28.6434 31.0542C29.1051 30.2092 29.0956 29.4489 27.5121 28.5836L26.6055 28.0881L25.0463 30.9412L25.953 31.4366L25.953 31.4365ZM37.1405 37.5925C35.8813 39.8968 33.42 40.6896 31.192 39.472C28.9535 38.2487 28.2908 35.7487 29.55 33.4444C30.7611 31.2283 33.2382 30.33 35.5096 31.5713C37.7481 32.7948 38.3998 35.2882 37.1405 37.5925ZM34.9407 32.5858C33.4012 31.7445 31.642 32.3938 30.7245 34.0727C29.8013 35.7621 30.1766 37.5923 31.7383 38.4458C33.3001 39.2993 35.0602 38.6221 35.9776 36.9434C36.8712 35.3082 36.5354 33.4573 34.9407 32.5858Z" fill="black"/>
<path d="M29.8307 10.1866L55.1117 24.0023L40.7313 50.3167L21.0862 39.581L22.3796 37.2142L20.0678 35.9509L17.5049 40.6406L41.7731 53.9028L58.6922 22.943L28.7881 6.60081L26.3321 11.095L28.6439 12.3584L29.8307 10.1866ZM11.6177 10.3425L12.3082 9.07897L14.8343 10.4594L12.3269 15.0476L13.1573 15.5013L12.4475 16.8001L9.0911 14.9659L9.80085 13.6671L10.5719 14.0885L12.3888 10.7639L11.6177 10.3425ZM15.2541 7.40837C15.7996 7.70648 15.998 8.38735 15.7116 8.91129C15.412 9.45952 14.738 9.64909 14.1925 9.35098C13.6705 9.06571 13.4601 8.40906 13.7599 7.86048C14.0595 7.31225 14.7206 7.11681 15.2541 7.40837ZM13.6017 15.744L14.3728 16.1654L16.1832 12.8525L15.4122 12.4311L16.109 11.1559L18.6351 12.5364L18.3157 13.1208C19.4216 13.0134 20.0702 13.3206 20.3194 13.4568C21.2205 13.9492 21.6948 14.8281 20.8876 16.3052L19.4482 18.9391L20.279 19.3931L19.5692 20.692L16.9714 19.2723L18.8797 15.7804C19.2181 15.1612 19.2765 14.7444 18.7786 14.4723C18.399 14.2648 17.9563 14.286 17.6567 14.3545L16.1394 17.1309L17.0293 17.6172L16.3195 18.9161L12.8919 17.0429L13.6017 15.744Z" fill="white"/>
<path d="M20.7233 19.6359L21.4825 20.0508L23.2993 16.7262L22.5401 16.3113L23.2306 15.0478L23.9898 15.4627L24.3414 14.8193C24.9862 13.6395 26.1886 13.3838 27.4929 14.0966C27.8724 14.304 28.926 14.9413 28.7048 16.2756L26.9412 16.008C27.0563 15.6841 26.9659 15.3717 26.7878 15.2744C26.6695 15.2097 26.4339 15.1895 26.18 15.654L25.7568 16.4283L26.6815 16.9337L25.991 18.1972L25.0663 17.6919L23.2495 21.0165L24.1742 21.5218L23.4644 22.8207L20.0135 20.9348L20.7233 19.6359Z" fill="white"/>
<path d="M26.781 24.85C24.9307 23.8389 24.3686 21.9374 25.3846 20.0784C26.4198 18.184 28.3408 17.6551 30.1674 18.6533C31.9821 19.645 32.617 21.5551 31.5815 23.4498C30.5659 25.3083 28.6192 25.8546 26.781 24.85ZM29.7855 22.4527C30.4496 21.2374 30.0318 20.4517 29.3794 20.0952C28.5376 19.6352 27.71 20.0498 27.1762 21.0267C26.6355 22.0161 26.7271 22.9481 27.5689 23.4082C28.4109 23.8683 29.2448 23.4421 29.7855 22.4527ZM32.8912 21.9681L33.5817 20.7046L35.9536 22.0008L35.1915 23.3953C35.6504 22.9499 36.2986 22.6381 36.8796 22.6462C37.3393 22.65 37.8704 22.8624 38.2023 23.0438L37.2059 24.8671C36.3927 24.4383 35.7231 24.3668 35.2568 24.5445C34.7164 24.7445 34.3756 25.2551 34.1802 25.6127L33.6006 26.6733L34.5136 27.1722L33.8039 28.471L30.3646 26.5915L31.0744 25.2927L31.8456 25.7142L33.6624 22.3896L32.8912 21.9681ZM44.714 29.8989C45.0397 29.303 45.123 28.8694 44.6008 28.5841C44.3281 28.435 43.9192 28.366 43.4909 28.4728L41.9735 31.2493L42.8045 31.7034L42.095 33.0016L39.4975 31.5822L41.4055 28.0909C41.7312 27.4949 41.8139 27.061 41.292 26.7758C41.0192 26.6268 40.6104 26.5578 40.1821 26.6646L38.6647 29.4411L39.5547 29.9274L38.8452 31.2257L35.4175 29.3525L36.127 28.0542L36.8981 28.4756L38.7086 25.1626L37.9376 24.7412L38.6344 23.4661L41.1604 24.8466L40.8413 25.4305C41.3759 25.3819 42.1804 25.4039 42.8212 25.7542C43.3185 26.0259 43.7619 26.4847 43.8133 27.1782C44.5964 27.1266 45.5484 27.2445 46.1771 27.5881C46.841 27.9509 47.6204 28.7792 46.7217 30.4236L45.2823 33.0575L46.1131 33.5115L45.4036 34.8098L42.8058 33.3901L44.7138 29.8988L44.714 29.8989Z" fill="white"/>
<path d="M11.3347 21.4097L12.0363 20.1258L9.63403 18.813L8.35053 21.1617L10.0537 22.0924C10.7967 22.4985 11.1675 23.0141 11.3289 23.445C11.4908 23.8749 11.5426 24.559 11.075 25.4147C10.7392 26.0291 10.2631 26.5106 9.56615 26.6706C8.63745 26.8901 7.70691 26.4383 7.23773 26.1819L4.01572 24.4211L4.55543 23.4335L5.45093 23.9229L8.56319 18.2278L7.6677 17.7384L8.17722 16.8061L13.5287 19.7306L12.3176 21.9468L11.3347 21.4097ZM6.53233 24.5138L7.84311 25.2302C8.32344 25.4927 8.77916 25.5421 9.11111 25.4532C9.37599 25.3837 9.70633 25.1945 9.94652 24.755C10.1504 24.3819 10.199 23.9809 9.95875 23.565C9.76577 23.217 9.44996 23.016 9.11149 22.831L7.83361 22.1327L6.53233 24.5138ZM16.1798 22.3761L15.0103 24.5161L16.0037 25.059C16.6734 24.0424 17.6561 23.411 18.6168 23.2375C19.6046 23.0647 20.4907 23.3637 21.266 23.7874C22.1615 24.2768 23.1237 25.0594 23.3444 26.5762C23.4279 27.1496 23.4262 28.2172 22.6769 29.5883C22.1971 30.4663 21.4862 31.2751 20.6157 31.7254C19.7219 32.192 18.4537 32.4108 16.9905 31.6112C15.4832 30.7875 15.0236 29.5533 14.9303 28.633C14.8514 27.7917 15.0567 26.7919 15.4904 25.9468L14.5187 25.4158L13.0617 28.0818L13.9572 28.5711L13.4175 29.5587L10.545 27.989L11.0847 27.0013L11.9803 27.4908L15.0926 21.7957L14.197 21.3063L14.7065 20.3739L17.5356 21.92L17.0319 22.8416L16.1799 22.376L16.1798 22.3761ZM16.238 28.835C16.3579 29.4989 16.7348 30.132 17.5541 30.5798C18.4603 31.075 19.3099 31.0266 20.0809 30.5495C20.6408 30.2006 21.154 29.5979 21.5081 28.9498C21.9696 28.1053 22.1856 27.1397 22.0138 26.3908C21.8885 25.8662 21.555 25.2569 20.7141 24.7974C19.9932 24.4035 19.2282 24.2982 18.3989 24.7006C17.6093 25.0811 17.1023 25.8012 16.7905 26.3717C16.3887 27.107 16.0914 28.0135 16.238 28.835ZM24.4002 34.278L23.8602 35.2661L20.9767 33.6903L21.5166 32.7022L22.4121 33.1916L25.5241 27.497L24.6286 27.0076L25.1384 26.0748L28.1856 27.74C30.7196 29.1248 30.4013 30.5894 29.8195 31.6541C28.65 33.7941 26.8319 33.099 25.6191 32.4363L24.5489 31.8514L23.4935 33.7826L24.4002 34.278ZM25.953 31.4365C27.5365 32.3019 28.1816 31.8992 28.6434 31.0542C29.1051 30.2092 29.0956 29.4489 27.5121 28.5836L26.6055 28.0881L25.0463 30.9412L25.953 31.4366L25.953 31.4365ZM37.1405 37.5925C35.8813 39.8968 33.42 40.6896 31.192 39.472C28.9535 38.2487 28.2908 35.7487 29.55 33.4444C30.7611 31.2283 33.2382 30.33 35.5096 31.5713C37.7481 32.7948 38.3998 35.2882 37.1405 37.5925ZM34.9407 32.5858C33.4012 31.7445 31.642 32.3938 30.7245 34.0727C29.8013 35.7621 30.1766 37.5923 31.7383 38.4458C33.3001 39.2993 35.0602 38.6221 35.9776 36.9434C36.8712 35.3082 36.5354 33.4573 34.9407 32.5858Z" fill="black"/>
</svg>
