<svg width="178" height="20" viewBox="0 0 178 20" fill="none" xmlns="http://www.w3.org/2000/svg">
<path d="M0.626356 19.3325C0.501033 19.3905 0.446412 19.5391 0.504358 19.6644C0.562303 19.7897 0.710872 19.8443 0.836196 19.7864L0.626356 19.3325ZM177.346 0.878768C177.464 0.807346 177.502 0.65366 177.431 0.535492C177.359 0.417328 177.205 0.379434 177.087 0.450858L177.346 0.878768ZM0.836196 19.7864C15.0386 13.2196 46.4876 5.44447 91.4955 12.1523L91.5692 11.6578C46.4769 4.93735 14.9278 12.72 0.626356 19.3325L0.836196 19.7864ZM91.4955 12.1523C136.602 18.8748 166.362 7.51787 177.346 0.878768L177.087 0.450858C166.205 7.02808 136.563 18.3636 91.5692 11.6578L91.4955 12.1523Z" fill="white"/>
</svg>
