<svg width="233" height="16" viewBox="0 0 233 16" fill="none" xmlns="http://www.w3.org/2000/svg">
<path d="M0.761012 15.3006C0.633283 15.353 0.572242 15.4991 0.624672 15.6268C0.677103 15.7545 0.823151 15.8156 0.95088 15.7631L0.761012 15.3006ZM232.369 1.13692C232.49 1.07072 232.535 0.918825 232.469 0.79766C232.402 0.676493 232.25 0.63194 232.129 0.69815L232.369 1.13692ZM0.95088 15.7631C19.8746 7.99527 61.3741 -0.36226 119.742 10.9555L119.837 10.4647C61.3855 -0.869361 19.7856 7.49131 0.761012 15.3006L0.95088 15.7631ZM119.742 10.9555C178.207 22.2922 217.673 9.16723 232.369 1.13692L232.129 0.69815C217.538 8.67109 178.191 21.7798 119.837 10.4647L119.742 10.9555Z" fill="white"/>
</svg>
