<svg width="99" height="24" viewBox="0 0 99 24" fill="none" xmlns="http://www.w3.org/2000/svg">
<path d="M53.424 15.822V18H46.188V15.822H48.672V7.506C48.54 7.686 48.306 7.902 47.97 8.154C47.634 8.394 47.262 8.604 46.854 8.784C46.458 8.964 46.098 9.054 45.774 9.054V6.822C46.086 6.822 46.41 6.738 46.746 6.57C47.082 6.402 47.394 6.21 47.682 5.994C47.97 5.766 48.204 5.568 48.384 5.4C48.576 5.22 48.672 5.118 48.672 5.094H51.138V15.822H53.424Z" fill="black"/>
<path d="M0 9C0 6.23858 2.23858 4 5 4H25C30.5228 4 35 8.47715 35 14V19C35 21.7614 32.7614 24 30 24H10C4.47715 24 0 19.5228 0 14V9Z" fill="#DCC29D"/>
<path d="M14 14H22M18 10V18" stroke="white"/>
<path d="M64 9C64 6.23858 66.2386 4 69 4H89C94.5228 4 99 8.47715 99 14V19C99 21.7614 96.7614 24 94 24H74C68.4772 24 64 19.5228 64 14V9Z" fill="#DCC29D"/>
<path d="M78 14H86" stroke="white"/>
</svg>
