<svg width="177" height="1562" viewBox="0 0 177 1562" fill="none" xmlns="http://www.w3.org/2000/svg">
<g opacity="0.6">
<path d="M107.164 1079.32C107.806 1086.27 108.793 1093.05 111.338 1099.7C110.697 1126.79 109.061 1128.7 93.8878 1125.24C91.8853 1123.17 90.313 1120.52 89.34 1116.52C88.2399 1104.59 82.1197 1093.22 83.2689 1080.8C88.1057 1078.25 86.4417 1074.61 82.8669 1069.9C77.4377 1058.17 77.4729 1048.07 83.057 1039.22C84.4248 1035.72 86.0535 1032.42 87.6822 1029.13C88.7962 1026.81 90.432 1024.9 92.4203 1024.2C100.07 1029.89 94.4088 1040.53 98.0823 1047.62C101.255 1058.46 105.549 1068.35 107.164 1079.32Z" fill="#F8AE55"/>
<path d="M18.8108 866.894C27.7636 883.849 38.8943 896.077 50.8004 906.101C56.1623 910.655 61.6836 915.733 64.6311 924.83C64.5651 927.584 63.4708 928.741 61.5845 928.482C36.9749 905.813 11.3589 886.373 -9.37353 852.679C-1.54783 846.315 5.69486 849.921 18.8108 866.894Z" fill="#FB9F30"/>
<path d="M11.6335 1343.39C6.71436 1344.05 1.61611 1340.46 -3.08173 1337.59C-13.5951 1330.55 -24.736 1325.09 -32.7505 1309.32C-35.1649 1302.48 -35.7503 1296.25 -31.7215 1292.01C-16.289 1298.38 -1.86683 1309.31 9.5842 1329.84C11.4309 1334.18 14.1502 1338.37 11.6335 1343.39Z" fill="#EC9835"/>
<path d="M88.1362 1121.56C102.379 1130.09 103.632 1112.78 107.408 1099.82C118.21 1116.87 106.123 1128.85 108.52 1143.9C99.2349 1144.49 101.988 1159.35 98.9034 1167.69C96.6119 1173.85 93.8207 1169.28 91.2181 1166.74C87.0328 1151.2 81.5969 1135.6 88.1362 1121.56Z" fill="#FACE99"/>
<path d="M77.3095 1227.11C78.2489 1242.52 71.8316 1249.72 64.7835 1251.37C59.9703 1252.53 56.9859 1257.91 52.3409 1258.29C47.4642 1247.04 46.8052 1235.97 50.9735 1226.51C58.1968 1225.46 62.4492 1215.6 69.4132 1214.34C73.2106 1216.48 76.4125 1219.98 77.3095 1227.11Z" fill="#FCE0BE"/>
<path d="M60.5125 929.146C60.7494 928.057 61.2296 927.163 61.4665 926.075C64.0639 928.574 66.339 931.243 68.9364 933.743C72.2829 940.674 71.2029 950.885 77.5288 955.936C79.0868 960.587 78.6193 964.047 77.0208 967.455C76.1393 968.881 74.8503 969.555 73.6401 969.866C68.1423 968.883 63.2634 962.432 57.9171 959.44C49.5658 953.197 46.5821 938.038 39.3492 929.281C38.2116 927.947 39.6459 923.982 41.1719 922.219C46.3219 918.24 50.7142 924.303 55.6592 927.825C57.2706 926.983 58.835 932.917 60.5125 929.146Z" fill="#F79E32"/>
<path d="M21.1677 868.687C11.6907 862.846 2.28578 855.386 -7.49839 852.235C-11.5486 859.083 -17.0044 856.851 -22.7013 854.427C-27.1204 851.341 -30.0266 846.521 -30.6243 838.921C-26.3515 828.478 -16.9465 835.938 -11.6123 829.691C-8.01353 828.773 -4.63742 831.451 -1.81576 835.366C3.52045 845.886 11.8639 849.151 17.2784 859.315C19.5333 861.942 21.2275 864.543 21.1677 868.687Z" fill="#FBD09D"/>
<path d="M-12.527 784.146C-9.16078 784.299 -5.79459 784.452 -2.42841 784.606C5.38481 792.906 14.3923 799.636 16.9583 816.364C16.2529 819.581 14.5698 819.505 12.8021 818.521C9.34514 816.197 7.07629 811.039 3.7761 807.999C1.12151 805.892 -1.52688 805.049 -4.49498 804.372C-6.66072 803.913 -8.90489 803.81 -11.2274 804.066C-12.9888 804.346 -14.8349 803.721 -16.5242 802.38C-19.5831 799.532 -21.526 795.472 -22.0334 790.032C-22.1242 787.861 -21.8107 786.431 -20.9361 785.026C-18.4631 782.792 -15.3259 785.282 -12.527 784.146Z" fill="#F9B769"/>
<path d="M108.958 1077.05C103.7 1068.18 99.2329 1058.55 97.3204 1047.22C97.9639 1016.95 97.9639 1016.95 105.008 1011.85C105.209 1016.67 104.618 1022.27 105.963 1026.14C112.681 1044.11 111.967 1060.33 108.958 1077.05Z" fill="#FCE1C0"/>
<path d="M-15.02 1340.55C-12.0005 1351.35 -5.48732 1355.26 -0.0843194 1361.66C5.8016 1368.43 3.89471 1371.96 -0.179085 1375.03C-10.6217 1370.94 -18.3795 1358.47 -26.5295 1347.8C-29.3672 1341.34 -34.2027 1336.24 -31.198 1327.7C-24.9448 1327.63 -19.2405 1330.06 -15.02 1340.55Z" fill="#FBB665"/>
<path d="M53.0671 1230.58C51.75 1240.92 53.0891 1251.57 53.229 1262.18C49.2971 1263.57 45.8045 1267.14 41.1612 1263.4C39.5571 1251.16 31.0998 1238.41 37.3736 1226.13C39.4162 1223.68 42.1561 1223.6 44.7216 1222.93C47.4614 1222.86 50.1176 1223.18 52.279 1227.2C52.6277 1228.4 52.7184 1229.38 53.0671 1230.58Z" fill="#F7AD52"/>
<path d="M40.8272 1229.21C38.4236 1234.88 37.7821 1240.63 41.3409 1247.53C44.6471 1254.23 45.0983 1260.41 42.4419 1265.87C40.8437 1265.03 39.3343 1265.15 38.5081 1267.62C37.2514 1267.95 36.1586 1267.51 35.0589 1265.73C33.7883 1263.36 32.5178 1260.99 31.2473 1258.62C26.0083 1251.26 17.027 1250.27 16.4453 1235.03C20.0306 1230.77 26.2666 1236.25 28.916 1229.44C33.2664 1227.13 36.0728 1218.21 42.2269 1224.07C42.4866 1225.63 42.4935 1226.97 41.995 1227.91C41.4146 1229.24 41.08 1229.41 40.8272 1229.21Z" fill="#F49A2D"/>
<path d="M89.6647 1168.14C91.7426 1169.81 93.652 1172.27 96.0597 1170.99C94.1437 1184.13 98.5595 1204.65 84.2465 1204.59C79.1643 1205.54 75.521 1201.24 73.3237 1193.05C72.7967 1174.28 87.145 1181.24 89.6647 1168.14Z" fill="#F9BA6E"/>
<path d="M12.1593 1341.47C12.2201 1337.07 10.4537 1334.31 8.35428 1331.72C7.27987 1317.5 -3.18269 1311.28 -5.00435 1297.8C-0.0663994 1284.42 6.0011 1296 11.7828 1300.66C13.7123 1302.67 14.9761 1305.02 15.4111 1308.49C12.9456 1315.85 15.4054 1323.62 16.7782 1330.96C18.5723 1339.08 17.2546 1342.47 12.1593 1341.47Z" fill="#F8A441"/>
<path d="M73.8628 961.517C74.4975 958.591 75.0529 956.031 73.738 952.832C70.0771 951.188 66.1586 946.762 68.8949 942.085C72.5962 935.605 76.7722 942.813 80.2147 949.433C88.9632 962.02 97.388 974.776 100.889 993.033C100.657 995.423 99.6859 995.933 98.2255 996.051C96.1108 995.217 94.558 993.114 93.0845 990.647C88.7174 977.706 82.1758 968.174 73.8628 961.517Z" fill="#FBD4A6"/>
<path d="M74.8447 1193.13C75.3835 1201.49 80.2706 1203.23 83.5153 1207.16C80.143 1210.61 85.6633 1222.99 78.7165 1222.67C75.391 1219.11 72.0656 1215.55 68.6594 1212.36C66.7204 1205.07 60.7291 1197.6 64.4108 1190C67.0291 1184.63 71.4181 1185.96 74.8447 1193.13Z" fill="#F8BB71"/>
<path d="M95.7107 994.776C96.156 994.19 96.419 992.988 96.8643 992.401C102.621 996.507 106.239 1003.15 107.631 1012.72C99.6022 1020.45 105.429 1038.72 99.8297 1048.39C91.4539 1040.31 100.913 1031.84 97.0182 1023.57C94.9989 1013.97 93.0671 1003.96 95.7107 994.776Z" fill="#FAC485"/>
<path d="M82.1602 949.768C80.327 948.732 78.6562 946.941 76.9922 946.484C75.4093 945.65 73.4745 940.989 72.4939 944.184C71.0196 948.309 74.023 950.732 75.4504 953.655C61.8206 952.845 69.4767 939.092 68.3534 930.656C75.9157 931 79.6974 939.366 82.1602 949.768Z" fill="#FACB92"/>
<path d="M32.9358 1268.45C33.9709 1269.28 34.7472 1269.91 35.7823 1270.74C36.9083 1272.56 40.1884 1275.66 37.7058 1277.32C31.7125 1281.18 27.1879 1286.68 26.6428 1297.67C24.5868 1298.76 22.6915 1297.69 20.964 1295.84C19.754 1294.41 18.8868 1292.8 18.1034 1290.79C17.6627 1288.61 17.7396 1286.84 17.9003 1284.69C18.9143 1281.39 20.8794 1279.31 22.9355 1278.23C24.3901 1277.11 25.7608 1276.39 26.7818 1274.46C27.8027 1272.54 28.7398 1271.01 30.0195 1269.3C30.7888 1268.55 31.8168 1268 32.9358 1268.45Z" fill="#FCCD96"/>
<path d="M11.9223 815.063C13.0492 815.114 14.1762 815.165 15.1395 814.663C19.9023 817.61 23.9569 823.802 28.9495 824.393C29.4405 826.054 29.6892 827.521 29.2958 829.323C28.7386 830.572 27.7753 831.074 26.8908 831.216C22.7827 830.483 18.6558 825.926 14.403 828.463L14.318 827.549C11.0945 826.674 10.191 822.993 9.76601 818.423C9.67471 816.234 10.4742 815.179 11.9223 815.063Z" fill="#F8B360"/>
<path d="M18.1557 1291.59C18.8216 1292.57 19.8171 1293.37 20.483 1294.34C20.1738 1298.49 26.7114 1300.68 23.1873 1306.2C20.8668 1304.77 18.4588 1302.39 16.2394 1304.56C14.8269 1302.98 13.1654 1301.2 11.7529 1299.63C11.1542 1295.62 12.5464 1293.23 13.4408 1290.43C14.0124 1289.13 14.7523 1288.41 15.9898 1288.08C16.9853 1288.89 17.6511 1289.86 18.1557 1291.59Z" fill="#FDA842"/>
<path d="M13.8202 828.661C17.7157 822.522 21.9021 826.683 26.2514 831.394C22.8858 831.24 19.5203 831.087 16.1547 830.933L15.0266 829.619L13.8202 828.661Z" fill="#F9BD75"/>
<path d="M22.7411 1305.82C21.8132 1302 20.966 1297.8 20.0381 1293.97C21.6987 1295.75 23.6081 1297.73 25.2686 1299.51C26.3646 1303.91 27.2118 1308.11 22.7411 1305.82Z" fill="#F8B15C"/>
<path d="M26.1822 829.343C26.7585 828.032 27.0026 826.896 27.5789 825.585C28.5757 825.056 29.8235 824.731 31.1595 825.365C32.5023 827.337 32.9297 829.459 32.0211 830.947C30.3735 834.503 28.1896 830.963 26.1822 829.343Z" fill="#F9BD75"/>
<path d="M31.4849 824.733C30.2488 825.054 29.0932 825.002 27.9376 824.949C28.1795 823.826 28.6699 822.904 28.9117 821.781C29.5768 822.756 30.4906 823.931 31.4849 824.733Z" fill="#F9C07C"/>
<path d="M77.1397 1192.06C67.4274 1191.41 67.4273 1191.41 72.0721 1203.58C74.347 1209.16 71.024 1209.82 70.3206 1213.03C69.4093 1228.8 63.3926 1230.15 54.6404 1223.67L54.9921 1222.06C49.0815 1208.42 51.7193 1196.37 54.7227 1185.57C56.8468 1178.77 62.4909 1174.77 58.2997 1163.44C57.4804 1161.37 57.4594 1157.11 58.9891 1157.39C75.7132 1157.94 63.8041 1131.05 69.5081 1120.98C68.9456 1116.29 68.7418 1111.42 70.9748 1108.48C72.4096 1107.73 73.7564 1107.39 75.2861 1107.66C80.1457 1108.69 84.2071 1111.92 86.5839 1119.93C87.0445 1122.18 87.2343 1124.22 87.6949 1126.47C89.2944 1140.93 90.5351 1155.58 92.1346 1170.04C92.5352 1178.37 96.009 1190.08 85.8291 1185.77C81.7747 1183.96 78.9122 1186.87 77.1397 1192.06Z" fill="#F49C32"/>
<path d="M92.45 1117.28C89.1434 1112.97 85.2881 1111.17 81.5174 1110.28C72.8826 1097.97 62.2759 1092.07 53.0078 1081.35C48.1747 1076.25 42.5516 1073.47 37.5618 1069.09C33.6941 1064.76 29.748 1060.79 29.5479 1052.65C34.8738 1043.87 41.4809 1051.21 47.0318 1055.62C52.4198 1059.47 58.0429 1062.26 60.2996 1064.89C56.4381 1061.82 49.3669 1057.89 42.9228 1051.1C39.4532 1046.24 34.7046 1042.05 36.5858 1033.47C48.4343 1031.12 58.4263 1042.41 68.5752 1052.99C73.7652 1065.5 82.9363 1072.78 86.6122 1087.03C85.781 1097.29 94.0774 1105.97 92.45 1117.28Z" fill="#F79622"/>
<path d="M89.0825 1083.07C82.4354 1073.65 74.2802 1067.06 70.8217 1052.54C70.2084 1048.43 68.5827 1044.86 66.8744 1041.68C64.0501 1035.34 60.0412 1028.94 61.2665 1020.45C64.9297 1008.97 71.9549 1009.68 79.5864 1013.13C83.9607 1024.78 85.2476 1011.83 88.3814 1012.56C97.4594 1017.63 93.0317 1028.5 94.3409 1036.32C92.9224 1040.14 91.8413 1043.78 90.4227 1047.6C87.0411 1048.03 80.8491 1044.84 80.7665 1045.22C80.6502 1055.51 84.5009 1064.03 89.0265 1072.2C94.1305 1077.67 91.7752 1080.28 89.0825 1083.07Z" fill="#F59A2C"/>
<path d="M95.8406 1032.55C91.5285 1025.89 95.0664 1015.07 89.0478 1009.3C84.8123 1000.87 82.1162 992.317 86.525 984.477C88.754 985.363 90.7324 987.414 91.6938 991.38C93.4144 993.223 95.135 995.066 96.8556 996.909C98.4442 1006.39 102.345 1016.38 98.3686 1025.02C97.5259 1027.53 96.6832 1030.04 95.8406 1032.55Z" fill="#F6A23D"/>
<path d="M87.7881 1072.32C75.7023 1065.24 77.1249 1048.98 75.0322 1032.56C79.8355 1039.11 83.8826 1045.06 88.9989 1047.4C80.2385 1052.38 86.2342 1063.03 87.7881 1072.32Z" fill="#F7A039"/>
<path d="M-21.917 857.708C-17.573 857.907 -13.3863 857.603 -9.04239 857.802C14.869 882.38 38.8566 906.63 63.0014 931.384C64.0922 932.592 65.9642 935.158 64.9592 935.939C62.9493 937.5 61.1486 933.449 59.2815 932.04C47.8499 924.571 36.6469 916.12 25.6725 906.687C8.63459 893.835 -8.32712 880.655 -26.1222 872.232C-43.0551 865.999 -58.3213 850.251 -75.1018 843.363C-76.5783 842.634 -77.8215 842.081 -79.2218 841.024C-84.8282 835.641 -91.2822 831.542 -94.0404 820.998C-93.3121 809.621 -87.3962 814.853 -83.0475 816.21C-73.5737 819.125 -64.0044 826.343 -54.5546 823.469C-50.8251 825.129 -49.2579 829.004 -48.3051 834.339C-48.3333 846.244 -41.2744 846.568 -36.9971 849.41C-32.3291 852.931 -27.4231 857.786 -21.917 857.708Z" fill="#FC9D27"/>
<path d="M-30.3775 1290.52C-31.9198 1284.73 -30.8938 1282.63 -27.0593 1284.41C-24.503 1285.6 -21.8687 1286.44 -19.3124 1287.63C-13.0178 1287.2 -6.95712 1287.83 -3.39236 1299.78C1.7565 1309.66 10.8777 1316.87 8.87994 1332.32C-1.03383 1309.54 -18.1837 1306.79 -30.3775 1290.52Z" fill="#FCA53D"/>
<path d="M43.0673 930.33C42.9131 931.014 42.759 931.698 42.682 932.04C50.807 937.942 52.1339 953.037 59.0095 960.782C59.0976 962.859 58.4756 964.386 57.3802 965.546C44.389 961.496 39.4843 954.878 35.7847 936.736C35.6251 936.211 35.7021 935.869 34.4415 935.293C23.1788 930.976 11.9655 920.268 0.339676 922.501C-8.94677 920.521 -17.9305 915.963 -26.7656 909.511C-31.0318 904.996 -37.7366 900.196 -36.201 892.145C-34.5938 882.541 -27.3496 884.946 -21.6027 886.591C-18.454 887.426 -15.608 890.839 -12.4594 891.674C-7.18031 894.162 -1.90124 896.65 3.45487 898.796C14.8661 901.218 25.4519 912.244 36.4834 917.587C40.3477 920.183 43.5075 923.438 43.0673 930.33Z" fill="#F89620"/>
<path d="M53.4566 961.312C54.0168 960.051 54.2542 958.959 54.8144 957.698C61.522 955.798 65.5399 966.273 71.2256 970.391C78.7566 971.286 85.0944 976.353 88.5586 989.375C89.4868 996.953 90.4149 1004.53 91.0993 1011.91C89.3396 1016.06 88.5743 1024.85 83.5812 1013.59C74.9189 996.841 59.3695 994.663 52.546 973.401C51.5516 968.761 51.1239 964.147 53.4566 961.312Z" fill="#F69621"/>
<path d="M43.7063 925.302C34.3185 910.055 21.4254 911.129 10.664 901.812C8.55942 900.218 6.30232 899.282 4.35532 898.194C1.86926 898.246 -0.392784 896.145 -0.0973932 892.496C0.121691 889.176 2.60278 887.958 4.85993 888.894C11.3975 891.524 17.5536 895.802 23.786 899.75C36.2507 907.646 47.4084 918.812 58.6473 930.814C53.0647 933.555 48.5972 924.361 43.7063 925.302Z" fill="#EB8913"/>
<path d="M89.0673 984.818C83.2792 978.976 77.5694 972.777 71.8595 966.578C72.4135 965.344 72.9674 964.109 73.5996 962.519C86.8605 958.804 89.3496 977.093 94.1327 990.088C92.5245 988.395 90.9164 986.702 89.0673 984.818Z" fill="#F8A849"/>
<path d="M11.0486 823.052C12.3512 826.203 13.6538 829.354 14.6355 832.672C10.2337 837.2 5.24989 837.882 -0.224758 836.905C-2.7387 832.79 -5.48858 829.755 -9.01877 831.595C-13.603 831.75 -18.4232 832.985 -22.718 826.606C-26.05 819.725 -32.3427 815.983 -32.0722 805.63C-28.435 792.883 -21.2865 807.03 -16.4726 804.522C-15.2675 804.213 -13.9838 803.544 -12.5365 803.428C-9.8841 803.003 -7.69111 807.286 -4.95379 807.774C-2.37378 808.983 0.442233 809.111 3.10719 811.233C6.09938 814.461 8.93422 818.409 11.0486 823.052Z" fill="#F19423"/>
<path d="M11.6231 818.773C8.37134 815.321 4.876 811.675 1.54518 808.586C0.716184 804.511 1.7566 802.355 3.93581 801.537C6.8714 806.443 9.88604 810.985 13.0652 816.086C12.5845 816.981 12.1038 817.877 11.6231 818.773Z" fill="#F9BD75"/>
<path d="M4.55525 802.648C3.74293 805.066 2.93064 807.484 2.11832 809.902C-0.0302086 809.049 -2.09822 807.822 -4.24675 806.969C-5.07934 805.42 -5.5829 803.698 -5.42855 801.627C-2.38714 799.688 1.17135 802.116 4.55525 802.648Z" fill="#FBD8AE"/>
<path d="M74.3565 1129.3C75.0639 1134.41 83.0148 1140.82 74.2605 1143.75C70.6909 1144.95 70.6428 1152.17 73.8177 1157.01C76.3064 1160.83 81.1655 1162.03 78.22 1168.73C76.2864 1173.52 72.9663 1173.57 69.3755 1170.67C67.8367 1169.43 66.0413 1167.98 63.9895 1166.32C64.2881 1174.73 68.2255 1178.82 71.158 1186.18C55.59 1188.6 59.4452 1209.86 58.7671 1227.02C56.3756 1225.54 54.0674 1223.68 51.8633 1225.53C49.3956 1225.81 47.6002 1224.36 46.7266 1220.02C41.4447 1219.39 39.8027 1231.23 33.564 1226.65C33.0511 1226.24 32.2817 1225.62 31.8518 1224.82C28.9404 1221.56 26.5348 1217.35 25.9106 1211.85C25.7924 1205.4 26.5267 1199.19 28.7999 1194.21C31.8426 1189.86 35.7519 1188.48 40.2784 1191.22C41.3043 1192.05 42.4204 1193.86 43.7789 1193.14C41.9836 1191.69 40.3545 1189.47 39.4878 1186.5C39.3005 1183.17 39.8825 1180.46 41.3172 1177.99C42.9041 1172.01 49.0807 1181.07 49.8912 1173.1C42.5423 1151.29 28.3258 1151.62 17.9624 1139.63C16.7631 1138.2 15.9035 1136.6 14.8706 1134.41C9.10974 1123.4 20.9418 1122.97 17.6556 1113.05C25.0163 1104.01 33.2928 1107.51 42.6022 1113.21C50.5461 1118.26 58.1854 1130.32 67.106 1126.63C69.7399 1125.57 72.2145 1126.66 74.3565 1129.3Z" fill="#F49522"/>
<path d="M42.6157 1222.29C44.2373 1224.01 45.8588 1225.73 47.4803 1227.45C45.3132 1229.54 43.3699 1227.99 41.2625 1225.89C41.5779 1224.44 42.1363 1223.19 42.6157 1222.29Z" fill="#F49B2F"/>
<path d="M30.0374 1236.27C30.0523 1255.62 23.5717 1242.48 18.9824 1238.84C16.3504 1241.79 13.803 1245.66 9.87238 1245.48C1.11713 1242.73 -5.97845 1234.99 -11.6497 1223.34C-8.1983 1207.58 0.286667 1220.62 6.37875 1220C14.2587 1224.16 22.9232 1224.73 30.0374 1236.27Z" fill="#F39625"/>
<path d="M9.24223 1240.35C11.518 1237.84 13.9668 1237.21 16.8348 1238.64C18.9505 1252.92 28.7523 1251.69 33.2969 1261.41C34.2151 1265.19 32.1854 1267.89 33.4297 1271.49C32.6245 1273.88 31.8193 1276.27 30.688 1278.83C18.7238 1272.69 13.6603 1257.35 9.24223 1240.35Z" fill="#F59A2C"/>
<path d="M32.5985 1270.14C30.6754 1265.78 31.3842 1262.56 32.4543 1259.15C32.8295 1261.81 33.2934 1264.07 33.6686 1266.73C33.4028 1267.94 33.137 1269.15 32.5985 1270.14Z" fill="#F8A94A"/>
<path d="M-1.25382 1296.44C-6.46045 1292.4 -11.7441 1288.7 -16.9508 1284.66C-16.0207 1281.77 -15.4043 1279.03 -17.072 1275.33C-26.6982 1267.46 -37.1719 1263.36 -45.5598 1251.23C-48.1027 1245.24 -54.0908 1242.2 -53.5021 1233.42C-50.5411 1227.68 -46.3638 1230.12 -42.7312 1233.74C-24.1777 1251.34 -6.63138 1272.18 12.467 1288.6C14.1236 1289.88 15.0813 1293.04 15.8024 1296.01C17.9489 1301.29 14.2503 1300.43 13.3973 1302.98C8.59244 1300.86 3.99672 1292.88 -1.25382 1296.44Z" fill="#EB9630"/>
<path d="M9.94404 1244.32C16.8154 1256.27 23.9254 1268.41 30.7192 1280.71C29.5319 1281.01 28.2672 1281.65 27.08 1281.95C23.7452 1280.57 20.5057 1282.53 17.1651 1279.91C10.4606 1269.73 0.867776 1268.77 -5.21017 1257.03C-6.41492 1253.62 -0.0909861 1250.39 -6.84386 1246.73C-13.1195 1243.45 -18.5417 1236.32 -23.3314 1228.87C-26.0454 1224.7 -29.6304 1220.65 -26.5694 1214.45C-21.2599 1214.51 -16.8097 1217.18 -13.1295 1224.58C-5.25535 1230.76 0.828438 1243.73 9.94404 1244.32Z" fill="#F79F37"/>
<path d="M16.3978 1277.51C19.3569 1278.58 22.6367 1278.17 25.2017 1282.41C23.485 1283.65 21.6882 1285.26 20.2186 1286.69C18.9896 1287.01 17.6737 1286.39 16.4379 1285.39C15.1087 1282.14 14.5208 1279.49 16.3978 1277.51Z" fill="#FAB96B"/>
<path d="M17.4217 1284.53C18.4107 1285.33 19.0722 1286.3 20.0612 1287.09C19.7404 1288.58 19.2526 1289.5 19.012 1290.61C18.0231 1289.82 17.1143 1288.65 16.1254 1287.85C16.0385 1286.91 15.9517 1285.97 15.8648 1285.03C16.4395 1285.05 17.0141 1285.08 17.4217 1284.53Z" fill="#F8B15C"/>
<path d="M17.6109 1293.21C-1.98075 1279.6 -19.7395 1259.31 -38.0315 1241.3C-42.0784 1237.48 -46.1443 1229.04 -50.7624 1237.09C-62.7316 1229.6 -73.5582 1217.22 -84.9943 1207.45C-100.32 1194.37 -116.027 1182.91 -131.352 1169.83C-137.656 1163.93 -144.112 1158.68 -148.802 1149.38C-149.664 1147.2 -149.983 1145.04 -149.216 1142.93C-141.037 1133.73 -132.376 1147.17 -124.073 1149.2C-118.55 1153.74 -112.88 1156.48 -107.281 1160.7C-99.2682 1167.5 -92.1742 1177.07 -83.4711 1182.1C-79.8956 1184.41 -76.6247 1188.02 -74.2013 1192.92C-60.2418 1213.04 -43.0593 1225.22 -27.2574 1240.97C-15.0358 1253.25 -3.88534 1268.95 10.0216 1276.36C13.9066 1278.52 17.0299 1283.94 18.9154 1289.97C18.4535 1290.78 17.9156 1291.91 17.6109 1293.21Z" fill="#FCA53D"/>
<path d="M76.4897 1122.21C74.3663 1124.22 72.4636 1122.73 70.4004 1120.71C58.2446 1122.61 48.304 1108.33 37.5295 1101.54C33.4805 1097.16 28.8009 1093.09 29.1534 1084.01C35.2858 1077.82 42.0399 1086.35 48.6823 1087.88C58.7433 1094.11 68.5665 1100.16 76.6044 1112.95C76.4611 1116.09 76.633 1119.07 76.4897 1122.21Z" fill="#F79622"/>
<path d="M77.0527 1109.48C67.3031 1102.35 57.7895 1095.41 47.9631 1088.63C47.2231 1080.89 50.5152 1081.04 54.1201 1081.03C61.6749 1088.05 69.3888 1095.6 77.0973 1101.94C81.1079 1105.04 80.4163 1108.09 79.5709 1111.82C78.6273 1111.09 77.7604 1110.02 77.0527 1109.48Z" fill="#EC8B17"/>
<path d="M66.4146 1034.62C67.0105 1042.19 72.1407 1045.83 73.8492 1052.19C67.4148 1059.61 62.9575 1046.49 57.3523 1043.72C52.2283 1041.33 47.3143 1032.85 41.8239 1037.27C42.5823 1045.38 47.3033 1047.03 50.5992 1051.31C46.4082 1060.09 41.6444 1049.64 37.1639 1048.18C24.3831 1031.81 10.1235 1023.44 -4.533 1015.6C-7.09502 1014.4 -7.32335 1016.73 -8.51398 1018.29C-17.282 1022.19 -26.4957 1016.57 -35.4506 1014.9C-37.5314 1014.09 -39.2997 1011.86 -40.1961 1008.23C-40.0642 1002.49 -37.8515 997.568 -35.1332 998.051C-26.9782 999.499 -34.9231 991.959 -33.8949 989.853C-31.9227 984.739 -29.3485 988.445 -26.9428 990.349C-37.6122 981.07 -49.5259 978.732 -59.5701 966.61C-62.0722 961.292 -60.5811 955.798 -61.0867 950.391C-58.1522 946.039 -55.1031 948.869 -51.8132 951.89C-48.2828 955.102 -50.1414 950.711 -50.3099 948.908C-48.1033 942.728 -42.6605 944.95 -39.8885 940.052C-31.7518 937.731 -24.288 944.891 -16.9084 951.149C-9.34202 962.978 1.72908 956.305 6.6553 967.297C10.673 972.145 9.13306 967.589 8.58598 970.076C8.42967 970.787 8.26723 970.241 7.54552 969.67C5.37427 966.7 2.48743 964.415 3.34102 959.25C10.2565 952.208 14.7077 964.075 20.4032 969C21.5707 979.102 27.1576 978.101 31.0849 980.792C33.25 982.506 35.5714 983.509 37.5802 985.933C42.885 992.635 52.7301 996.673 49.8384 1009.82C46.7122 1024.03 39.1214 1007.18 33.6127 1007.82C25.277 1002.06 18.1978 991.869 9.78393 986.461C19.1601 992.63 27.1295 1005.2 37.137 1009.78C46.9223 1017.94 58.7456 1018.12 66.4146 1034.62Z" fill="#F6941D"/>
<path d="M55.2702 1084.55C53.2988 1087.12 51.3273 1089.68 49.0393 1092.4C43.012 1093.01 37.5048 1086.22 31.86 1083.84C23.6105 1084.35 17.6973 1075.59 11.7064 1067.18C7.31626 1061.68 14.031 1055.44 9.40189 1049.75C10.2623 1047.13 11.7676 1046.67 13.6731 1046.93C23.1408 1052.32 28.2289 1071.12 39.1843 1072.33C44.4407 1076.46 50.3963 1077.43 55.2702 1084.55Z" fill="#F28F19"/>
<path d="M40.8894 1071.34C29.151 1076.13 23.1867 1058.65 15.0325 1048.51C10.2226 1039.78 0.685998 1039.69 -1.28788 1025.76C10.0616 1022.73 19.4902 1033.45 28.7631 1044.88C30.7673 1048.52 32.0594 1052.84 32.161 1057.46C32.9146 1065.48 37.9281 1066.95 40.8894 1071.34Z" fill="#F6941E"/>
<path d="M32.1052 1053.06C30.0616 1051.09 28.4071 1048.63 28.4679 1044.71C28.2878 1039.41 31.2684 1040.91 33.3014 1040.5C37.7777 1043.94 41.1794 1052.11 46.725 1049.64C52.9484 1058.79 62.1047 1058.7 68.9795 1073.51C55.4077 1066.23 43.6386 1059.56 32.1052 1053.06Z" fill="#ED8B16"/>
<path d="M39.7285 1032.38C37.0786 1029.61 33.9664 1027.65 31.4544 1020.74C41.4007 1024.01 49.417 1029.68 57.3619 1036.84C61.6465 1040.85 65.4024 1048.31 70.8256 1046.24C72.47 1049.79 71.8601 1052.42 70.9405 1055.19C61.0415 1044.63 50.1563 1039.49 39.7285 1032.38Z" fill="#F18F1A"/>
<path d="M66.7669 1024.51C56.8768 1017.14 47.2259 1009.95 37.258 1002.93C36.6119 1000.77 35.5708 999.127 36.1154 996.667C37.3839 996.015 38.6464 994.12 39.6037 994.874C42.4756 997.135 45.4669 1007.74 48.2853 998.82C50.9481 990.599 44.3427 988.7 41.5426 984.845C35.8647 977.486 29.3311 973.993 22.4025 971.014C16.7484 968.626 18.1606 964.786 21.4036 961.561C32.6702 957.638 42.602 973.711 53.2641 976.327C58.3915 984.904 63.118 992.752 70.603 995.756C76.7358 998.52 81.1452 1006.53 82.7065 1017.25C77.3933 1019.67 70.058 1014.72 66.7669 1024.51Z" fill="#F3911B"/>
<path d="M24.0672 903.363C17.3179 903.742 11.3933 895.557 4.87491 894.915C0.00534579 894.348 1.90683 898.22 4.43495 901.777C-0.506114 902.755 -5.23269 899.098 -10.0362 895.781C-15.3784 894.849 -18.9452 887.287 -23.8257 884.311C-26.9089 879.525 -27.4034 874.34 -27.035 869.024C-8.95281 875.012 7.36477 890.039 24.0672 903.363Z" fill="#F3901A"/>
<path d="M56.6008 976.621C51.5431 980.454 46.4619 979.339 41.4348 972.926C36.1689 966.326 29.9052 966.746 24.5676 961.733C19.3134 957.606 13.9816 953.83 8.72749 949.703C-5.23264 949.419 -15.4362 938.53 -18.7726 920.711C-5.87478 914.41 4.13111 933.77 15.8936 938.9C18.7536 939.914 21.5417 942.514 22.4194 943.615C26.3959 945.916 24.7065 940.892 25.1959 943.741C25.2795 944.628 24.7241 944.603 24.0077 944.04C15.6429 936.239 4.62635 937.856 -0.847727 920.823C11.4948 914.496 22.9101 930.034 34.7443 933.577C35.7772 933.977 36.0996 935.052 36.5831 936.664C41.096 951.71 47.1679 960.997 56.715 967.263C56.6491 970.087 56.5055 973.26 56.6008 976.621Z" fill="#F7941E"/>
<path d="M-0.326529 924.239C8.14703 935.429 19.6164 935.954 27.4775 949.817C11.404 948.912 -1.64338 926.373 -17.329 924.98C-21.2949 927.836 -25.3477 928.663 -29.2783 921.732C-32.7392 915.16 -40.2118 918.869 -42.0549 907.645C-36.3688 905.711 -30.8711 914.233 -25.578 911.606C-17.2119 916.04 -8.7692 920.139 -0.326529 924.239Z" fill="#EF8C16"/>
<path d="M37.6794 1101.57C47.5012 1112.45 58.2552 1120.42 69.3897 1125.45C67.8229 1127.47 73.6886 1134.86 68.1656 1133.39C64.2206 1132.34 60.4243 1129.39 56.7053 1126.09C45.7084 1116.72 34.7172 1108.57 23.0816 1114.47C14.8884 1114.96 8.86277 1107.04 3.69206 1096.54C3.91646 1076.9 12.8497 1083.05 20.7453 1086.37C27.0629 1089.26 31.0529 1100.05 37.6794 1101.57Z" fill="#F18F19"/>
<path d="M28.9306 1204.47C29.276 1210.48 28.828 1216.28 26.4711 1220.58C22.2769 1221.8 18.9303 1217.94 15.5062 1214.44C1.2199 1192.98 -17.8521 1181.71 -30.7301 1156.43C-27.1375 1145.31 -22.0196 1155.07 -17.7245 1158.44C-11.4428 1162.96 -6.40263 1173.06 0.804313 1172.16C7.30124 1171.92 12.2464 1178.67 17.1915 1185.42C21.8145 1191.1 27.3804 1195.06 28.9306 1204.47Z" fill="#F9A138"/>
<path d="M15.5939 1184.02C11.6413 1179.34 9.16383 1170.59 3.42772 1171.36C-5.14899 1169.93 -11.6395 1160.48 -17.9704 1151.55C-18.89 1139.58 -13.2032 1145.2 -10.1314 1146.38C-1.94005 1149.51 6.02564 1154.89 13.9088 1159.4C23.46 1167.61 34.6295 1168.64 42.2487 1184.2C41.4726 1186.41 40.6965 1188.62 39.9203 1190.83C31.7732 1197.37 23.7632 1182.32 15.5939 1184.02Z" fill="#F79520"/>
<path d="M42.765 1179.17C32.9389 1172.38 22.9644 1167.48 13.6762 1158.32C10.1483 1157.99 8.4915 1155.52 9.17233 1150.07C10.9613 1147.07 13.7046 1147.19 16.607 1147.84C29.0889 1152.69 40.7255 1161.27 51.3631 1174.25C53.0968 1176.39 56.3173 1178.08 56.0975 1181.49C55.8009 1185.24 52.8163 1183.74 50.6162 1182.44C48.1034 1181.3 45.2778 1180.31 42.765 1179.17Z" fill="#ED8B15"/>
<path d="M52.1622 1172.51C39.7689 1168.12 29.0631 1153.72 16.9071 1149.51C16.1727 1144.09 17.2594 1140.48 20.5644 1139.42C31.2477 1148.95 46.9179 1146.19 52.1622 1172.51Z" fill="#F79620"/>
<path d="M21.4213 1143.7C20.083 1147.21 19.0628 1150.56 17.7244 1154.08C15.5697 1153.62 13.7329 1153 11.5782 1152.55C1.84874 1151.92 -7.04059 1143.65 -16.242 1136.8C-19.8495 1132.7 -21.9444 1128.14 -19.9819 1121.8C-14.9944 1114.52 -8.42795 1120.54 -2.44383 1121.52C3.81062 1128.96 8.57071 1140.61 17.1777 1139.93C17.6579 1140.31 18.4562 1140.53 18.9363 1140.91C19.8187 1142.02 20.7791 1142.78 21.4213 1143.7Z" fill="#F49B31"/>
<path d="M2.93845 1098.44C9.62569 1105.94 16.1479 1112.87 22.9144 1120C24.6307 1122.66 27.9712 1125.77 24.0889 1127.8C20.8538 1129.5 20.6289 1133.18 20.569 1137.41C12.8644 1137.25 7.79475 1128.9 3.04214 1119.1C0.342321 1114.37 -2.19893 1108.9 -2.87838 1102.79C-2.17152 1098.21 -1.38545 1093.27 2.93845 1098.44Z" fill="#F99721"/>
<path d="M14.8722 1212.88C18.0157 1216.09 21.3947 1219.49 24.5382 1222.69C27.1339 1225.88 30.3489 1227.56 30.6109 1233.7C23.0856 1230.29 15.2481 1227.04 7.72276 1223.63C1.02036 1211.74 -11.0905 1215.1 -16.6366 1199.35C-11.9902 1188.66 -5.61592 1197.13 -0.122775 1200.96C4.58715 1204.58 9.38438 1210.25 14.8722 1212.88Z" fill="#EA8D1D"/>
<path d="M14.1648 1183.74C22.2669 1173.75 30.4132 1189.93 38.6449 1190.66C40.235 1192.31 41.8251 1193.96 46.5955 1198.92C38.7628 1198.92 33.2118 1196.21 28.875 1199.35C23.9438 1193.85 19.1735 1188.89 14.1648 1183.74Z" fill="#F08F19"/>
<path d="M-16.9536 1201.36C-9.58457 1212.54 2.96292 1209.2 7.66189 1227.36C1.61565 1226.73 -4.54422 1218.98 -10.812 1221.9C-15.7448 1221.32 -20.2165 1217.38 -24.4548 1212.39C-27.9508 1212.94 -30.4291 1210.16 -32.4405 1205.27C-33.5 1199.89 -32.2487 1195.51 -30.3569 1192.04C-29.1716 1190.5 -27.8247 1189.49 -26.3939 1189.38C-21.6946 1191.01 -18.498 1194.36 -16.9536 1201.36Z" fill="#EC8B18"/>
<path d="M18.4835 1288.84C-5.35752 1270.27 -27.1237 1245.08 -50.2001 1223.19C-58.5702 1215.24 -66.1705 1205.15 -75.5398 1200.35C-80.2244 1197.95 -76.8905 1194.24 -75.2644 1191.96C-74.0205 1191.34 -72.6187 1191.24 -71.1353 1191.98C-53.9617 1199.99 -41.626 1224.25 -24.9927 1233.41C-17.79 1241.64 -8.73163 1246.59 -4.38876 1260.07C3.96104 1263.31 12.3158 1267.72 18.5194 1279.1C18.917 1280.97 19.3145 1282.83 19.7121 1284.7C19.2533 1286.69 18.7894 1287.51 18.4835 1288.84Z" fill="#FDA842"/>
<path d="M-3.55076 1259.57C-11.8089 1250.96 -19.9891 1242 -28.2473 1233.39C-34.2653 1226.14 -35.9955 1214.79 -39.5513 1205.32C-36.9329 1202.4 -34.8549 1203.21 -33.2332 1208.65C-30.7467 1211.45 -28.1822 1213.89 -25.9359 1216.5C-19.467 1234.51 -7.31726 1239.53 2.6347 1251.98C0.574902 1254.92 -1.32878 1257.16 -3.55076 1259.57Z" fill="#F49A30"/>
<path d="M5.71751 1096.26C3.09484 1095.43 1.75646 1097.67 0.818308 1100.63C-0.292913 1100.58 -1.56539 1100 -2.60482 1098.36C-4.92853 1093.65 -6.54122 1088.27 -9.10389 1083.38C-15.5135 1070.52 -23.2557 1061.15 -32.8742 1057.7C-34.069 1056.76 -35.186 1055.47 -36.2255 1053.84C-37.5097 1050.77 -38.2384 1047.73 -37.8559 1044.74C-37.4674 1042.99 -36.6011 1041.61 -35.2568 1040.61C-28.7625 1037.9 -21.9939 1042.81 -15.3148 1045.59C-6.56273 1050.41 2.58363 1054.72 9.62655 1067.25C16.8849 1075.01 24.3822 1082.96 31.6405 1090.72C32.3927 1098.71 37.0825 1100.34 40.3562 1104.56C33.4558 1105.31 27.5417 1096.55 21.257 1093.25C14.333 1089.05 9.41014 1088.47 5.71751 1096.26Z" fill="#F7951F"/>
<path d="M-30.9222 924.128C-26.789 926.96 -22.685 923.623 -18.7846 927.502C-12.2909 943.658 -1.65061 948.726 8.20808 956.049C7.9987 962.031 12.3646 963.816 14.696 970.971C7.70012 965.894 2.27322 957.54 -4.43744 962.52C-8.77998 965.67 -11.3558 957.094 -13.9975 951.334C-17.0563 941.15 -25.98 947.263 -28.7284 935.683C-29.3006 931.956 -30.1114 928.042 -30.9222 924.128Z" fill="#F3911B"/>
<path d="M0.0440818 1031.34C4.65825 1035.78 9.43325 1040.75 14.125 1044.84C17.225 1047.27 16.6046 1050.06 15.9067 1053.19C14.7202 1053.49 13.5338 1053.79 12.3473 1054.09C2.53349 1055.4 -5.91943 1043.04 -15.202 1039.45C-22.2008 1033.14 -32.158 1037.62 -36.6695 1021.39C-28.4591 1015.96 -19.6301 1024.11 -10.8361 1024.86C-7.03814 1024.15 -2.69149 1022.24 0.0440818 1031.34Z" fill="#FA9721"/>
<path d="M0.733767 1026.73C-2.85965 1024.38 -6.52955 1022.36 -10.123 1020.02C-10.0617 1016.15 -12.019 1013.88 -14.2973 1009.41C3.0378 1019.11 19.9652 1024.59 34.4559 1043.06C32.7483 1044.49 31.3517 1045.77 29.6441 1047.2C21.1781 1034.89 11.1063 1029.56 0.733767 1026.73Z" fill="#F18E18"/>
<path d="M35.7965 1001.89C36.1953 1003.77 36.5941 1005.66 36.9163 1007.87C25.1872 1004.8 17.0755 989.512 7.03751 980.241C17.9028 982.263 26.6171 992.491 35.7965 1001.89Z" fill="#F08D17"/>
<path d="M-15.4362 1035.22C-6.18331 1039.56 2.76247 1045.26 11.0943 1053.65C12.8253 1055.77 14.5563 1057.9 16.2872 1060.02C14.649 1061.14 12.8519 1061.74 11.2136 1062.86C1.73048 1059.53 -6.2944 1049.79 -15.317 1044.43C-20.1869 1040.29 -18.2416 1037.82 -15.4362 1035.22Z" fill="#EC8A13"/>
<path d="M-17.2413 1153.04C-10.0857 1160.53 -2.69452 1168.2 4.46106 1175.69C0.816 1183.2 -2.8929 1176.38 -6.8982 1173.3C-14.202 1167.68 -19.6581 1155.15 -28.3436 1155.6C-28.9684 1155.91 -29.5164 1155.89 -30.1411 1156.2C-45.609 1145.09 -62.1623 1136.32 -73.4584 1112.94C-69.0245 1106.84 -62.4328 1110.72 -57.0405 1108.92C-49.3582 1111.66 -44.3071 1121.1 -38.8722 1128.85C-34.7795 1133.99 -30.4565 1138.11 -25.5141 1140.72C-21.6676 1143.29 -18.5227 1146.5 -17.2413 1153.04Z" fill="#FEA941"/>
<path d="M-15.3437 1197.88C-18.5184 1194.59 -21.931 1191.11 -25.1057 1187.82C-26.3291 1179.54 -30.4609 1174.28 -33.8075 1168C-37.5524 1161.01 -35.9879 1157.76 -31.0109 1157.99C-14.7389 1175.17 2.08027 1191.16 16.4783 1212.98C5.2692 1214.39 -4.0572 1196.12 -15.3437 1197.88Z" fill="#F19A33"/>
<path d="M-17.2528 1149.5C-20.3928 1146.3 -23.768 1142.92 -26.908 1139.72C-30.1961 1138.38 -34.5783 1136.99 -33.2803 1130.09C-32.207 1125.39 -28.607 1126.57 -25.2371 1128.76C-21.8671 1130.95 -20.1175 1137.82 -16.1343 1137.32C-6.89386 1141.65 2.03979 1147.32 10.3602 1155.68C10.2993 1159.58 11.9512 1162.04 13.9916 1164C3.35555 1162.15 -6.54009 1151 -17.2528 1149.5Z" fill="#EF8E1A"/>
<path d="M-15.9103 1121.71C-19.0503 1118.51 -22.4255 1115.13 -25.4888 1111.59C-34.9802 1103.52 -47.3292 1103.13 -53.3496 1084.69C-52.813 1082.33 -52.1945 1080.84 -50.5583 1079.72C-43.0569 1079.56 -37.5436 1089.31 -31.1156 1093.85C-21.788 1100.22 -12.7723 1106.74 -3.82809 1114.79C-1.94096 1117.42 -0.365688 1120.21 0.197171 1123.8C-5.32468 1129.83 -10.9094 1121.6 -15.9103 1121.71Z" fill="#EF972E"/>
<path d="M-1.55337 1121.29C-3.16264 1119.59 -4.77185 1117.9 -6.6222 1116.01C-3.9475 1106.4 -0.13156 1117.39 3.38786 1116.83C8.39079 1124.99 13.3155 1133.5 19.5053 1138.83C8.24226 1143.72 5.34925 1141.43 -1.55337 1121.29Z" fill="#FBA33A"/>
<path d="M5.305 1117.71C2.34372 1120.99 -1.29072 1113.82 -4.48775 1116.92C-13.5179 1111.55 -21.5496 1101.78 -31.0406 1098.44C-36.8951 1085.19 -47.7131 1082.82 -54.4231 1070.89C-54.6696 1068.31 -54.2856 1066.62 -53.1175 1065.14C-50.8528 1063.71 -48.8185 1063.29 -46.5431 1064.24C-31.5316 1076.21 -15.7521 1084.79 -2.97853 1104.17C-2.11231 1105.24 -1.40503 1105.78 -0.53881 1106.85C1.43473 1110.35 3.33146 1114.2 5.305 1117.71Z" fill="#FEAA41"/>
<path d="M-46.5911 1050.9C-43.0543 1053.63 -40.0498 1059.92 -35.6735 1057.73C-35.0429 1058.61 -34.0998 1059.34 -33.4693 1060.22C-24.1915 1068.17 -15.6871 1078.3 -6.79339 1087.94C-3.17445 1091.52 -1.74374 1096.2 -1.95275 1102C-17.6682 1090.69 -33.23 1078.69 -48.0237 1063.31C-50.3208 1057.57 -50.9674 1053.09 -46.5911 1050.9Z" fill="#ED952D"/>
</g>
</svg>
