<svg width="47" height="47" viewBox="0 0 47 47" fill="none" xmlns="http://www.w3.org/2000/svg">
<g clip-path="url(#clip0)">
<path d="M42.3744 9.52816C36.0561 13.7738 26.7311 23.86 23.0615 31.778C20.0439 27.49 17.2514 23.6924 12.861 20.1C10.7455 18.3689 8.13596 21.5743 10.2499 23.3039C14.9952 27.1861 18.5038 30.9492 21.4964 35.6179C22.4267 37.0686 24.5969 36.879 25.2661 35.2936C28.426 27.8049 36.4345 17.2471 42.3274 12.2902C46.1706 18.7684 46.7476 27.1845 42.3775 34.6293C33.839 49.1789 12.9829 49.0849 4.56015 34.4664C-3.86577 19.8447 6.66623 1.56636 23.5165 1.56636C29.1875 1.56636 34.1423 3.63593 37.8995 6.94003C38.2138 7.21733 38.6907 7.19383 38.9768 6.88676L38.9877 6.87579C39.2848 6.55619 39.2629 6.05173 38.9346 5.76346C34.8381 2.15856 29.411 -0.0770723 23.1991 0.00126101C5.20276 0.229994 -5.79361 19.6316 3.20612 35.2497C12.234 50.9164 34.8006 50.9164 43.8284 35.2497C48.6973 26.7975 47.767 16.868 42.3744 9.52816Z" fill="white"/>
</g>
<defs>
<clipPath id="clip0">
<rect width="47" height="47" fill="white"/>
</clipPath>
</defs>
</svg>
