<svg width="135" height="340" viewBox="0 0 135 340" fill="none" xmlns="http://www.w3.org/2000/svg">
<g opacity="0.6">
<path d="M82.3303 250.603C76.4939 264.253 62.3174 270.196 62.3174 270.196C59.1947 272.059 55.6347 269.488 57.629 266.223C57.629 266.223 58.5153 265.833 60.0179 265.018L60.0484 264.988C64.3698 262.637 73.2837 256.745 77.6572 246.616C79.4862 244.825 83.6812 247.879 82.3303 250.603Z" fill="#707070"/>
<path d="M87.0108 254.57C81.1419 268.192 66.9984 274.161 66.9984 274.161C64.6053 275.669 61.0355 272.421 62.2775 270.161C62.2775 270.161 76.4536 264.219 82.2899 250.57C85.0053 249.642 88.3159 252.308 87.0108 254.57Z" fill="#9E9E9E"/>
<path d="M91.7078 258.551C85.839 272.172 71.6958 278.142 71.6958 278.142C68.9488 279.489 65.9484 275.833 66.9749 274.142C66.9749 274.142 81.1181 268.172 86.9869 254.551C88.9478 253.735 93.0456 256.316 91.7078 258.551Z" fill="#707070"/>
<path d="M65.0614 242.962C65.0614 242.962 67.8893 255.868 60.0585 265.054L60.028 265.084C58.5587 265.897 57.6418 266.288 57.6418 266.288L18.6484 264.528C22.9064 262.714 27.6352 260.409 32.5586 257.407L65.0614 242.962Z" fill="#DEDEDE"/>
<path d="M71.8831 212.432L77.7029 246.678C73.3483 256.784 64.4267 262.686 60.1089 265.035C67.942 255.846 65.1132 242.936 65.1132 242.936L32.6175 257.399C46.7914 248.8 62.4343 234.798 71.8831 212.432Z" fill="#A6A6A6"/>
<path d="M-28.2118 194.713C-30.9595 198.326 -44.532 216.194 -45.2507 217.612C-45.2507 217.612 -38.402 238.099 -27.5551 252.62C-32.7179 248.689 -37.4649 244.5 -40.6645 240.374C-51.8926 225.78 -69.963 196.672 -69.963 196.672L-94.683 201.237C-101.566 203.066 -107.701 198.867 -111.496 195.234C-109.835 196.642 -99.1846 203.501 -67.1125 183.737C-67.1125 183.737 -55.9257 205.124 -54.1459 205.494C-54.1307 205.479 -34.1341 201.493 -28.2118 194.713Z" fill="#E07800"/>
<path d="M-71.6698 47.7972L-64.402 54.9542C-63.1082 56.2447 -61.7504 57.5617 -60.3915 58.9073C-59.3604 59.9198 -58.3129 60.946 -57.2634 62.0295C-49.8002 69.3521 -41.5816 77.4812 -33.5757 85.4023C-32.0529 86.9146 -30.5312 88.3982 -29.0409 89.8829L-20.2981 98.5395C-7.03563 111.691 3.74237 122.489 6.50257 125.465C14.9015 134.607 16.6144 150.235 16.6144 150.235C18.7633 151.224 20.9958 152.339 23.25 153.611C21.5303 156.038 19.7303 158.424 17.9596 160.752C15.3188 164.229 12.5955 167.609 9.86776 170.874L-8.14291 168.347C-7.63004 165.674 -7.65436 136.857 -7.65436 136.857C-17.0816 117.245 -58.7342 79.2875 -58.7342 79.2875L-80.0865 75.4823L-77.0225 65.3171L-74.2371 56.1085L-71.6698 47.7972Z" fill="#D27100"/>
<path d="M-58.9354 79.3853L-80.3031 75.5774L-86.0199 94.4146L-90.9954 110.77L-111.546 117.677L-111.578 117.65L-113.259 118.224L-115.003 118.801L-131.99 124.48L-135.46 125.676L-150.609 130.746L-152.29 131.321L-154.019 131.883L-168.326 136.695L-169.992 137.254L-171.766 137.861L-182.401 141.398L-185.841 142.564L-190.792 144.227L-162.62 147.027L-115.411 190.61C-115.411 190.61 -114.009 192.63 -111.619 194.961L-111.342 195.196C-109.68 196.604 -99.0436 203.479 -66.9676 183.712C-66.9676 183.712 -55.7794 205.102 -53.9994 205.472C-53.9994 205.472 -33.984 201.498 -28.061 194.718C-30.8091 198.331 -44.3833 216.201 -45.0868 217.604C-45.0868 217.604 -45.0542 217.632 -45.0357 217.703C-45.0335 217.76 -44.9977 217.874 -44.9618 217.988C-44.6978 218.711 -44.0622 220.499 -43.1018 222.951L-43.117 222.966L-43.0844 222.993C-42.8562 223.603 -42.6129 224.198 -42.3358 224.849C-42.2978 225.02 -42.213 225.175 -42.1598 225.331C-44.3098 226.841 -46.3393 228.203 -48.3091 229.477L-48.3395 229.507C-48.1896 229.717 -48.0386 229.956 -47.905 230.152C-47.7215 230.419 -47.5553 230.643 -47.3869 230.925C-47.3358 231.023 -47.237 231.135 -47.1718 231.19C-46.922 231.541 -46.6721 231.891 -46.4386 232.228C-46.4364 232.285 -46.4201 232.299 -46.3875 232.327C-45.9204 233 -45.4859 233.646 -44.9884 234.289C-44.9863 234.347 -44.9374 234.388 -44.8885 234.43C-44.87 234.501 -44.8374 234.528 -44.819 234.6C-44.5029 235.034 -44.1553 235.467 -43.8544 235.917C-43.7219 236.084 -43.5883 236.281 -43.4557 236.449C-43.4047 236.547 -43.3384 236.631 -43.2874 236.73C-42.325 237.99 -41.3941 239.251 -40.5468 240.385C-40.0493 241.029 -39.5366 241.657 -38.9772 242.27C-38.6807 242.605 -38.4156 242.94 -38.105 243.231C-37.8248 243.552 -37.513 243.872 -37.185 244.205C-36.5626 244.816 -35.9228 245.469 -35.2375 246.077C-34.9095 246.411 -34.5499 246.743 -34.1752 247.061C-33.8168 247.365 -33.4747 247.654 -33.1303 248.002C-31.3512 249.592 -29.4157 251.149 -27.4509 252.647L-27.4183 252.675C-25.699 253.938 -23.9644 255.185 -22.232 256.375C-15.7077 260.849 -9.16069 264.675 -4.58605 267.219C52.0823 253.131 47.9764 189.103 47.9764 189.103L47.8949 189.034L36.2638 182.121L20.3404 172.627L12.7795 171.578L9.67243 171.139L9.63985 171.111L-8.38379 168.582C-7.87055 165.907 -7.89486 137.07 -7.89486 137.07C-17.2529 117.369 -58.9354 79.3853 -58.9354 79.3853ZM-104.749 188.206L-150.063 143.869C-140.773 144.356 -130.938 135.56 -130.938 135.56C-117.327 148.092 -76.2556 173.732 -76.2556 173.732C-85.5515 181.79 -104.749 188.206 -104.749 188.206Z" fill="#FFAC1C"/>
<path d="M-28.2118 194.713C-30.9595 198.326 -44.532 216.194 -45.2507 217.612C-45.2507 217.612 -38.402 238.099 -27.5551 252.62C-32.7179 248.689 -37.4649 244.5 -40.6645 240.374C-51.8926 225.78 -69.963 196.672 -69.963 196.672L-94.683 201.237C-101.566 203.066 -107.701 198.867 -111.496 195.234C-109.835 196.642 -99.1846 203.501 -67.1125 183.737C-67.1125 183.737 -55.9257 205.124 -54.1459 205.494C-54.1307 205.479 -34.1341 201.493 -28.2118 194.713Z" fill="#A6A6A6"/>
<path d="M-71.6698 47.7972L-64.402 54.9542C-63.1082 56.2447 -61.7504 57.5617 -60.3915 58.9073C-59.3604 59.9198 -58.3129 60.946 -57.2634 62.0295C-49.8002 69.3521 -41.5816 77.4812 -33.5757 85.4023C-32.0529 86.9146 -30.5312 88.3982 -29.0409 89.8829L-20.2981 98.5395C-7.03563 111.691 3.74237 122.489 6.50257 125.465C14.9015 134.607 16.6144 150.235 16.6144 150.235C18.7633 151.224 20.9958 152.339 23.25 153.611C21.5303 156.038 19.7303 158.424 17.9596 160.752C15.3188 164.229 12.5955 167.609 9.86776 170.874L-8.14291 168.347C-7.63004 165.674 -7.65436 136.857 -7.65436 136.857C-17.0816 117.245 -58.7342 79.2875 -58.7342 79.2875L-80.0865 75.4823L-77.0225 65.3171L-74.2371 56.1085L-71.6698 47.7972Z" fill="#A6A6A6"/>
<path d="M-58.9354 79.3853L-80.3031 75.5774L-86.0199 94.4146L-90.9954 110.77L-111.546 117.677L-111.578 117.65L-113.259 118.224L-115.003 118.801L-131.99 124.48L-135.46 125.676L-150.609 130.746L-152.29 131.321L-154.019 131.883L-168.326 136.695L-169.992 137.254L-171.766 137.861L-182.401 141.398L-185.841 142.564L-190.792 144.227L-162.62 147.027L-115.411 190.61C-115.411 190.61 -114.009 192.63 -111.619 194.961L-111.342 195.196C-109.68 196.604 -99.0436 203.479 -66.9676 183.712C-66.9676 183.712 -55.7794 205.102 -53.9994 205.472C-53.9994 205.472 -33.984 201.498 -28.061 194.718C-30.8091 198.331 -44.3833 216.201 -45.0868 217.604C-45.0868 217.604 -45.0542 217.632 -45.0357 217.703C-45.0335 217.76 -44.9977 217.874 -44.9618 217.988C-44.6978 218.711 -44.0622 220.499 -43.1018 222.951L-43.117 222.966L-43.0844 222.993C-42.8562 223.603 -42.6129 224.198 -42.3358 224.849C-42.2978 225.02 -42.213 225.175 -42.1598 225.331C-44.3098 226.841 -46.3393 228.203 -48.3091 229.477L-48.3395 229.507C-48.1896 229.717 -48.0386 229.956 -47.905 230.152C-47.7215 230.419 -47.5553 230.643 -47.3869 230.925C-47.3358 231.023 -47.237 231.135 -47.1718 231.19C-46.922 231.541 -46.6721 231.891 -46.4386 232.228C-46.4364 232.285 -46.4201 232.299 -46.3875 232.327C-45.9204 233 -45.4859 233.646 -44.9884 234.289C-44.9863 234.347 -44.9374 234.388 -44.8885 234.43C-44.87 234.501 -44.8374 234.528 -44.819 234.6C-44.5029 235.034 -44.1553 235.467 -43.8544 235.917C-43.7219 236.084 -43.5883 236.281 -43.4557 236.449C-43.4047 236.547 -43.3384 236.631 -43.2874 236.73C-42.325 237.99 -41.3941 239.251 -40.5468 240.385C-40.0493 241.029 -39.5366 241.657 -38.9772 242.27C-38.6807 242.605 -38.4156 242.94 -38.105 243.231C-37.8248 243.552 -37.513 243.872 -37.185 244.205C-36.5626 244.816 -35.9228 245.469 -35.2375 246.077C-34.9095 246.411 -34.5499 246.743 -34.1752 247.061C-33.8168 247.365 -33.4747 247.654 -33.1303 248.002C-31.3512 249.592 -29.4157 251.149 -27.4509 252.647L-27.4183 252.675C-25.699 253.938 -23.9644 255.185 -22.232 256.375C-15.7077 260.849 -9.16069 264.675 -4.58605 267.219C52.0823 253.131 47.9764 189.103 47.9764 189.103L47.8949 189.034L36.2638 182.121L20.3404 172.627L12.7795 171.578L9.67243 171.139L9.63985 171.111L-8.38379 168.582C-7.87055 165.907 -7.89486 137.07 -7.89486 137.07C-17.2529 117.369 -58.9354 79.3853 -58.9354 79.3853ZM-104.749 188.206L-150.063 143.869C-140.773 144.356 -130.938 135.56 -130.938 135.56C-117.327 148.092 -76.2556 173.732 -76.2556 173.732C-85.5515 181.79 -104.749 188.206 -104.749 188.206Z" fill="#DEDEDE"/>
<path d="M77.4366 195.781C76.0246 201.842 74.2144 207.4 72.0081 212.51L72.0103 212.567C62.5633 234.929 46.9233 248.929 32.7356 257.513C27.8269 260.5 23.0824 262.82 18.824 264.634L18.7609 264.636C8.64525 268.996 1.30401 270.311 1.30401 270.311C1.30401 270.311 -1.06211 269.141 -4.74134 267.08C52.0202 252.969 47.9076 188.835 47.9076 188.835L47.826 188.766L36.1758 181.842C39.3035 177.707 42.4389 173.356 45.6275 168.745C43.8542 167.381 42.0809 166.018 40.2619 164.699C43.0383 166.69 45.7711 168.783 48.4398 170.85C64.4519 183.249 77.4366 195.781 77.4366 195.781Z" fill="#E07800"/>
<path d="M47.8764 188.799L47.958 188.869C47.958 188.869 52.0695 252.985 -4.67623 267.091C-9.25712 264.544 -15.8446 260.714 -22.3463 256.233C-24.0811 255.042 -25.818 253.792 -27.5397 252.528L-27.5723 252.5C-29.5561 250.986 -31.4932 249.456 -33.2595 247.848C-33.6043 247.5 -33.9632 247.196 -34.3058 246.906C-34.6811 246.588 -35.0259 246.24 -35.3695 245.921C-36.0406 245.297 -36.6965 244.658 -37.3197 244.046C-37.6319 243.726 -37.9756 243.407 -38.241 243.071C-38.5368 242.765 -38.8174 242.444 -39.1144 242.109C-39.6908 241.481 -40.2042 240.852 -40.6861 240.221C-41.5345 239.085 -42.4819 237.838 -43.4304 236.561C-43.4816 236.462 -43.5479 236.378 -43.599 236.279C-43.7317 236.111 -43.8655 235.915 -43.9982 235.747C-44.3485 235.255 -44.714 234.779 -45.049 234.272C-45.0979 234.231 -45.1632 234.176 -45.1491 234.132C-45.6472 233.487 -46.0823 232.841 -46.55 232.166C-46.5827 232.139 -46.599 232.125 -46.6012 232.068C-46.8514 231.717 -47.0852 231.379 -47.3354 231.028C-47.7194 230.481 -48.1044 229.904 -48.5058 229.314C-48.7723 228.949 -49.0225 228.598 -49.2748 228.19C-49.3749 228.049 -49.4924 227.866 -49.5925 227.726L-49.6251 227.698C-47.5994 226.162 -45.4671 224.522 -43.3066 222.794L-43.2761 222.764C-31.6731 213.58 -18.4948 201.811 -5.24723 187.711C-3.91094 186.313 -2.62252 184.903 -1.28842 183.448C-1.09053 183.254 -0.892642 183.06 -0.712158 182.824C2.3181 179.47 5.32876 176.016 8.31984 172.462C8.65145 172.048 8.96893 171.678 9.28532 171.279C9.4071 171.16 9.5267 170.983 9.63216 170.85L9.6648 170.878L12.7761 171.318L20.3474 172.368L36.2925 181.875L47.8764 188.799Z" fill="#FFAC1C"/>
<path d="M45.8213 168.743C42.635 173.321 39.4879 177.682 36.3798 181.826L20.4477 172.327L12.8826 171.278L9.77376 170.838L9.74116 170.81C12.4723 167.541 15.1828 164.143 17.8433 160.676C19.6163 158.344 21.4185 155.955 23.1404 153.525C23.5914 153.768 24.0424 154.012 24.4933 154.255C25.5257 154.852 26.5744 155.463 27.6415 156.145C28.3033 156.539 28.9488 156.919 29.5954 157.328C30.5485 157.913 31.5189 158.541 32.4741 159.184C34.1564 160.276 35.8734 161.453 37.56 162.66C38.5315 163.316 39.5193 163.987 40.4778 164.716C42.2785 166.019 44.0499 167.381 45.8213 168.743Z" fill="#F5D773"/>
<path d="M36.3287 181.898C10.271 216.564 -14.1006 236.128 -31.4748 246.843C-32.0615 247.209 -32.6472 247.603 -33.2502 247.955C-33.5954 247.607 -33.9547 247.302 -34.2976 247.012C-34.6733 246.693 -35.0184 246.345 -35.3625 246.026C-36.0343 245.401 -36.6909 244.761 -37.3148 244.149C-37.6273 243.828 -37.9713 243.509 -38.237 243.173C-38.5332 242.866 -38.8141 242.544 -39.1114 242.209C-39.6885 241.581 -40.2024 240.951 -40.6848 240.319C-41.5341 239.182 -42.4825 237.933 -43.432 236.656C-43.4832 236.557 -43.5497 236.472 -43.6008 236.373C-43.7337 236.205 -43.8676 236.008 -44.0005 235.84C-44.3511 235.348 -44.717 234.871 -45.0523 234.364C-45.1013 234.323 -45.1667 234.267 -45.1525 234.224C-45.6512 233.579 -46.0868 232.931 -46.555 232.256C-46.5877 232.228 -46.604 232.215 -46.6062 232.157C-46.8567 231.806 -47.0908 231.468 -47.3412 231.117C-47.4229 231.048 -47.5067 230.921 -47.5568 230.851C-47.7256 230.568 -47.8922 230.344 -48.0762 230.077C-48.2265 229.866 -48.3931 229.641 -48.5118 229.429C-48.5793 229.316 -48.6784 229.205 -48.7622 229.078C-48.931 228.796 -49.0976 228.571 -49.2664 228.289C-49.3666 228.148 -49.4842 227.965 -49.5844 227.825C-47.5565 226.287 -45.4219 224.644 -43.2591 222.915C-31.6588 213.736 -18.4206 201.91 -5.19149 187.766C-3.85377 186.367 -2.56395 184.955 -1.22842 183.498C-1.03031 183.304 -0.832203 183.111 -0.651526 182.874C2.39832 179.53 5.39589 176.059 8.39017 172.501C8.72214 172.087 9.03996 171.716 9.35669 171.317C9.4786 171.197 9.631 171.048 9.72024 170.901L12.8349 171.342L20.4143 172.393L36.3287 181.898Z" fill="#FFEEB5"/>
<path d="M-23.4268 178.849L-12.3275 167.983L-11.7062 136.561L-19.6392 140.572L-23.4268 178.849Z" fill="#FCFCFC"/>
</g>
</svg>
