<svg width="152" height="343" viewBox="0 0 152 343" fill="none" xmlns="http://www.w3.org/2000/svg">
<path d="M104.915 245.762C100.553 260.354 87.6569 267.57 87.6569 267.57C84.8631 269.735 81.2811 267.333 82.89 263.798C82.89 263.798 83.6947 263.327 85.0328 262.387L85.059 262.354C88.9446 259.594 96.8713 252.821 100.149 241.99C101.739 239.98 105.962 242.835 104.915 245.762Z" fill="#707070"/>
<path d="M109.699 249.548C105.304 264.113 92.4405 271.356 92.4405 271.356C90.3061 273.097 86.6575 269.994 87.6404 267.557C87.6404 267.557 100.537 260.341 104.899 245.749C107.387 244.585 110.742 247.104 109.699 249.548Z" fill="#9E9E9E"/>
<path d="M114.499 253.346C110.104 267.912 97.2407 275.155 97.2407 275.155C94.7748 276.769 91.6133 273.186 92.4406 271.356C92.4406 271.356 105.304 264.113 109.699 249.548C111.484 248.556 115.575 250.929 114.499 253.346Z" fill="#707070"/>
<path d="M87.9065 239.027C87.9065 239.027 91.6746 252.22 85.0425 262.341L85.0162 262.374C83.6781 263.314 82.8734 263.785 82.8734 263.785L45.8292 264.857C49.7045 262.657 53.9839 259.911 58.3883 256.428L87.9065 239.027Z" fill="#DEDEDE"/>
<path d="M91.7593 206.853L100.162 241.973C96.8845 252.804 88.9579 259.578 85.0723 262.338C91.7044 252.216 87.9364 239.024 87.9364 239.024L58.4181 256.425C71.0883 246.49 84.7007 230.791 91.7593 206.853Z" fill="#A6A6A6"/>
<path d="M65.9589 165.285C82.1308 177.003 95.4595 189.037 95.4595 189.037C94.6365 195.435 93.3941 201.34 91.7392 206.81L91.7461 206.87C84.7172 230.804 71.0883 246.49 58.3918 256.458C54.0005 259.925 49.708 262.686 45.8327 264.887L45.7732 264.894C36.5717 270.172 29.7375 272.084 29.7375 272.084C29.7375 272.084 27.3998 271.045 23.7446 269.178C76.2524 250.307 66.9344 184.02 66.9344 184.02L66.8514 183.954C69.3035 179.115 71.3441 174.625 73.0165 170.6C70.7742 168.826 68.4095 167.035 65.9589 165.285Z" fill="#E07800"/>
<path d="M-58.6584 46.1098L-51.1722 53.0336C-40.4152 62.9241 -27.0387 75.2387 -14.6622 86.7349L-5.63682 95.0929C8.08573 107.789 19.2061 118.211 22.0928 121.116C30.8332 130.005 33.7832 146.143 33.7832 146.143C36.3159 147.175 38.9789 148.418 41.7055 149.819C38.6537 156.372 35.4544 162.565 32.1506 168.378L11.8411 166.838C12.1174 164.031 9.63348 134.027 9.63348 134.027C-0.970244 114.318 -43.6904 77.9168 -43.6904 77.9168L-64.2789 75.5345L-62.2353 64.7263L-60.3619 54.9181L-58.6584 46.1098Z" fill="#E07800"/>
<path d="M-43.6904 77.9169L-64.2789 75.5346L-68.0832 95.565L-71.412 112.946L-90.3011 121.66L-90.3343 121.634L-91.8918 122.373L-93.4957 123.103L-109.111 130.274L-112.286 131.76L-126.212 138.162L-127.769 138.901L-129.347 139.597L-142.481 145.681L-144.012 146.387L-145.642 147.15L-155.42 151.621L-158.598 153.076L-163.149 155.175L-136.214 155.988L-87.782 197.801C-87.782 197.801 -86.2697 199.781 -83.8197 202.044L-83.5373 202.268C-81.8432 203.608 -71.1678 209.95 -42.4463 187.002C-42.4463 187.002 -30.0307 208.416 -28.3125 208.668C-28.3125 208.668 -9.68159 203.045 -4.63019 195.536C-6.94134 199.514 -18.2771 219.095 -18.838 220.623C-18.838 220.623 -17.6009 223.736 -15.4391 228.445C-11.9766 235.777 -6.16483 246.967 0.901006 255.719L0.93421 255.746C2.67057 256.931 4.42008 258.099 6.16265 259.208C12.7246 263.375 19.2664 266.85 23.8171 269.155C76.325 250.283 67.007 183.996 67.007 183.996L66.924 183.931L39.4343 168.902L32.1804 168.375L11.8709 166.834C12.1472 164.028 9.6632 134.024 9.6632 134.024C-0.970276 114.318 -43.6904 77.9169 -43.6904 77.9169ZM-77.8819 194.507L-124.569 151.752C-115.737 151.583 -107.149 141.687 -107.149 141.687C-93.1885 153.707 -52.094 177.314 -52.094 177.314C-60.2334 186.405 -77.8819 194.507 -77.8819 194.507Z" fill="#FFAC1C"/>
<path d="M-4.67659 195.526C-6.98775 199.505 -18.3235 219.085 -18.8844 220.613C-18.8844 220.613 -10.6567 241.414 0.854603 255.71C-4.37178 252.006 -9.22595 248.002 -12.6083 243.948C-24.4705 229.617 -44.0811 200.673 -44.0811 200.673L-67.1231 207.262C-73.4784 209.661 -79.6618 205.767 -83.5671 202.271C-81.873 203.612 -71.1976 209.953 -42.4761 187.006C-42.4761 187.006 -30.0605 208.419 -28.3423 208.671C-28.3291 208.655 -9.71485 203.019 -4.67659 195.526Z" fill="#E07800"/>
<path d="M73.0593 170.58C71.3868 174.605 69.3463 179.095 66.8942 183.934L39.4045 168.905L32.1506 168.378C35.4544 162.565 38.6702 156.385 41.7054 149.819C42.7338 150.363 43.7787 150.92 44.8472 151.549C45.5206 151.893 46.151 152.257 46.7849 152.651C47.7372 153.188 48.7095 153.768 49.6687 154.365C51.3545 155.375 53.0673 156.488 54.7801 157.6C55.7856 158.207 56.7483 158.834 57.7178 159.52C60.513 161.381 63.2757 163.351 65.9754 165.298C68.4094 167.035 70.7741 168.826 73.0593 170.58Z" fill="#F5D773"/>
<path d="M39.4046 168.905L66.8942 183.934C54.4702 208.542 32.3635 241.289 6.11628 259.198C4.37371 258.089 2.62422 256.921 0.887869 255.736L0.854642 255.71C-4.37174 252.006 -9.22591 248.002 -12.6083 243.948C-14.4894 241.649 -16.5907 239.014 -18.7661 236.131C-19.4921 235.205 -20.2417 234.206 -20.9747 233.221C-19.2291 231.766 -17.395 230.166 -15.4854 228.435C-1.3979 215.651 16.4645 196.05 32.1208 168.381L39.4046 168.905Z" fill="#FFEEB5"/>
<path d="M-2.97624 180.476L6.60603 168.367L4.53471 135.692L-2.63184 140.447L-2.97624 180.476Z" fill="#FFE17D"/>
</svg>
