<svg width="334" height="1073" viewBox="0 0 334 1073" fill="none" xmlns="http://www.w3.org/2000/svg">
<g opacity="0.8">
<path d="M111.885 176.306C114.695 164.324 121.151 157.88 131.453 156.402C136.786 154.75 139.396 149.706 142.005 144.662C144.915 138.764 148.924 136.105 154.793 140.088C158.302 145.219 159.289 152.758 165.42 155.198C166.682 157.179 167.031 159.367 166.47 161.763C165.97 163.186 164.996 164.367 163.885 165.144C149.324 166.808 137.747 176.688 125.385 184.829C124.411 186.011 123.062 186.667 121.576 186.919C117.754 186.656 114.87 184.523 112.385 181.251C111.598 179.512 111.286 178.013 111.885 176.306Z" fill="#F8AF5A"/>
<path d="M375.734 645.257C365.236 646.189 358.236 636.435 348.781 633.633C345.957 633.847 343.587 631.997 341.155 631.099C339.289 630.158 337.521 628.939 335.851 627.441C334.181 625.944 332.94 624.008 332.793 621.313C340.516 617.344 342.186 612.616 334.241 606.317C334.867 605.322 335.591 604.049 336.058 604.285C350.29 611.46 367.701 610.411 377.636 628.197C378.533 634.219 382.291 640.7 375.734 645.257Z" fill="#FCB96A"/>
<path d="M126.613 381.489C124.873 378.658 123.134 375.827 121.394 372.996C119.519 369.771 115.856 366.95 118.416 362.043C119.469 360.617 120.425 359.467 121.981 358.945C125.092 357.902 128.804 357.486 131.401 359.445C145.123 370.257 160.547 377.036 175.971 383.814C181.888 386.464 182.378 391.275 175.432 394.629C165.755 395.63 158.551 388.095 153.099 385.68C148.444 383.339 148.665 387.362 149.118 385.308C149.216 385.031 149.448 385.148 149.681 385.265C155.231 387.404 161.172 388.436 164.162 395.482C164.273 397.493 163.55 398.76 162.129 399.676C152.084 400.166 143.789 393.387 134.65 389.769C131.624 388.247 129.186 385.065 126.613 381.489Z" fill="#F4A13E"/>
<path d="M248.385 132.425C253.685 136.671 263.271 128.919 266.172 140.643C270.85 139.761 274.688 141.994 278.66 144.615C288.626 151.829 298.921 158.885 310.677 161.85C318.328 167.91 327.843 171.044 333.01 181.006C332.889 182.873 332.073 184.394 331.025 185.799C326.031 189.094 321.328 185.466 316.833 183.548C296.402 174.334 277.761 160.872 258.146 150.137C253.053 147.6 248.29 144.906 245.584 138.739C244.841 135.478 245.62 133.296 248.385 132.425Z" fill="#F89C2C"/>
<path d="M301.337 121.52C316.655 124.004 331.459 129.498 346.127 134.597C357.042 133.23 363.543 144.347 372.693 147.974C374.091 148.678 375.06 149.82 375.931 151.239C375.331 163.029 368.107 159.391 364.636 156.009C352.419 143.975 335.912 148.735 323.107 138.365C313.602 130.31 316.804 145.323 313.64 149.612C309.054 154.82 306.87 150.125 304.393 146.263C301.633 139.317 296.984 133.054 298.664 124.422C299.154 123.035 300.012 122.16 301.337 121.52Z" fill="#F8AE54"/>
<path d="M204.485 504.257C200.544 502.923 196.405 502.149 193.092 499.815C185.96 494.233 186.231 501.289 184.889 505.882L184.285 505.247C176.981 504.85 170.429 501.537 164.762 495.708C160.907 491.782 157.483 487.416 160.981 480.618C161.83 477.423 167.693 482.693 166.424 476.122C167.57 472.088 170.132 471.077 173.433 471.098C175.034 471.249 176.204 471.84 177.608 472.55C187.61 478.594 195 488.919 203.844 496.685C205.224 499.029 206.037 501.417 204.485 504.257Z" fill="#FDDAB2"/>
<path d="M332.452 603.962C330.823 603.144 328.962 602.209 327.334 601.391C327.431 588.743 337.017 590.304 342.93 586.764C355.356 592.683 367.82 599.271 381.03 602.978C385.352 605.475 388.155 609.163 388.817 615.03C383.958 623.331 377.677 620.176 371.764 617.53C361.798 613.173 350.755 611.857 341.438 604.896C338.842 602.941 335.622 601.974 332.452 603.962Z" fill="#FBA642"/>
<path d="M161.039 481.593C163.146 497.303 176.406 497.78 183.973 505.815C173.615 508.75 148.859 496.636 143.863 485.985C141.413 480.522 143.152 477.163 147.926 477.609C152.603 478.331 156.791 480.435 161.039 481.593Z" fill="#F9AF5A"/>
<path d="M332.242 604.154C338.465 598.187 343.76 604.089 349.397 605.943C362.163 610.074 373.927 618.571 387.841 614.839C388.966 614.754 390.226 615.061 391.192 616.195C393.161 619.13 394.8 622.224 392.868 626.124C388.882 629.643 384.224 631.202 379.333 632.644C378.074 632.337 377.242 631.595 376.704 630.027C365.074 615.754 348.053 614.357 334.039 606.03L332.877 605.447L332.242 604.154Z" fill="#E49030"/>
<path d="M341.149 588.986C341.039 593.178 339.96 596.228 335.742 595.738C331.291 595.13 329.685 598.895 327.846 602.542C326.89 603.694 325.664 604.057 324.364 603.076C319.422 591.441 307.161 595.069 300.38 587.082C296.248 584.021 290.056 586.784 287.002 580.674C286.855 577.986 286.144 575.341 287.823 572.92C289.111 571.608 290.337 571.246 291.869 572.344C303.199 574.454 313.279 584.755 325.527 578.835C331.511 580.541 337.396 582.524 341.149 588.986Z" fill="#F9AC50"/>
<path d="M351.316 124.475C351.956 119.53 349.259 120.143 346.39 119.68C340.283 118.24 335.924 113.403 333.621 106.642C332.574 104.137 332.574 104.137 339.137 103.502C345.897 102.309 352.398 108.887 359.207 104.426C359.909 104.78 360.709 104.856 361.51 104.931C364.539 104.157 366.152 106.618 368.393 108.08C367.864 115.057 368.332 121.55 373.688 125.903C374.599 128.01 374.944 130.16 373.688 132.16C372.359 132.805 370.893 133.052 369.859 132.858C366.498 133.794 363.986 125.28 360.12 131.558C355.588 131.903 352.51 129.688 351.316 124.475Z" fill="#F8A94A"/>
<path d="M145.16 463.936C134.704 463.245 127.226 454.911 118.535 449.232C113.375 445.982 108.201 440.44 110.824 434.578C114.17 427.448 119.159 435.835 123.511 436.719C133.011 438.562 138.368 447.46 145.073 454.099C147.182 457.446 147.697 460.643 145.16 463.936Z" fill="#FCC079"/>
<path d="M248.889 133.635C248.068 135.179 247.149 136.999 246.096 138.426C243.793 141.832 240.547 142.482 237.031 142.344C234.973 141.961 233.11 141.025 231.248 140.088C221.472 135.171 209.613 137.685 201.564 127.116C201.025 125.54 201.282 124.039 202.237 122.89C218.739 120.429 234.444 124.089 248.889 133.635Z" fill="#F9BC73"/>
<path d="M102.886 343.561C99.4378 339.795 92.6416 338.368 95.6508 329.803C102.597 321.217 91.1366 317.088 92.2524 309.918C92.7539 308.491 93.4937 307.184 94.3714 306.284C97.2804 304.395 100.365 303.605 103.587 303.22C106.371 303.286 108.653 304.779 110.296 307.294C110.948 308.633 111.261 310.137 111.575 311.642C111.926 313.838 111.939 316.199 112.29 318.395C110.271 328.134 110.836 338.51 107.049 347.69C104.842 347.58 103.475 345.878 102.886 343.561Z" fill="#F9B768"/>
<path d="M140.904 416.305C136.716 414.847 137.778 407.111 133.06 406.377C131.614 404.983 130.404 403.708 128.959 402.315C125.771 394.082 129.601 391.057 135.307 388.982C145.078 390.289 153.367 395.81 161.952 400.488C162.26 401.968 162.001 403.491 161.272 404.777C156.023 411.054 149.513 400.477 144.226 406.074C141.632 408.732 144.671 414.242 140.904 416.305Z" fill="#FAAA4D"/>
<path d="M84.2582 260.823C79.4231 248.928 84.5976 241.428 91.7865 234.61C96.105 232.749 99.6555 233.872 102.74 237.121C104.541 242.418 99.4167 246.571 101.457 251.989C104.605 267.078 90.6417 262.706 86.9655 269.953C80.7584 269.171 85.5677 263.51 84.2582 260.823Z" fill="#F7AB4F"/>
<path d="M202.081 123.874C201.784 124.719 201.388 125.846 201.091 126.691C203.764 131.696 208.802 133.917 211.574 138.641C212.824 140.602 213.171 142.768 212.614 145.141C212.119 146.549 211.389 147.839 210.188 148.89C206.983 150.916 203.765 150.612 200.707 149.063C199.532 148.467 198.356 147.872 197.279 146.994C196.103 146.398 195.026 145.521 193.95 144.643C191.091 142.531 188.231 140.418 186.338 137.135C185.149 134.21 184.865 131.079 187.365 128.696C191.288 123.051 195.62 118.609 202.081 123.874Z" fill="#F7AD53"/>
<path d="M187.625 129.731C187.401 131.951 187.277 133.889 187.053 136.109C187.364 137.6 187.339 139.255 187.078 140.79C186.581 142.205 185.612 143.38 184.643 144.556C181.264 147.843 177.437 149.236 173.027 148.333C168.951 147.266 165.609 144.904 163.1 140.964C159.844 123.309 171.101 127.684 178.592 126.15C182.419 124.756 184.954 127.042 187.625 129.731Z" fill="#FAC687"/>
<path d="M145.021 456.872C149.27 455.738 153.15 460.316 157.325 457.834C158.651 457.192 160.112 456.946 161.611 457.373C165.773 458.817 169.445 461.651 172.061 465.919C173.203 468.133 173.449 470.55 172.467 473.331C170.711 474.412 169.053 475.214 167.297 476.295C160.089 471.022 152.782 466.027 144.69 463.258C144.911 461.076 144.8 459.054 145.021 456.872Z" fill="#FCC787"/>
<path d="M280.616 127.213C285.958 133.22 294.78 134.05 298.136 143.347C291.19 143.466 283.417 138.871 278.359 148.535C274.435 145.559 270.413 142.862 266.489 139.886C270.03 133.749 272.831 126.577 280.616 127.213Z" fill="#F9BA6E"/>
<path d="M103.09 237.112C99.4127 237.254 95.6979 236.708 92.4444 234.053C90.749 226.167 96.857 219.897 95.1616 212.011C95.9719 212.087 96.3459 212.612 96.7198 213.136C101.17 212.382 104.723 214.184 107.478 218.259C107.677 224.048 107.303 229.881 108.313 235.746C106.805 237.658 105.222 238.193 103.09 237.112Z" fill="#FAC788"/>
<path d="M300.821 124.641C294.204 119.985 284.611 125.328 278.904 116.532C290.009 107.68 293.576 108.496 302.075 122.645C301.644 123.085 301.349 123.922 300.821 124.641Z" fill="#FBD7AB"/>
<path d="M323.527 579.607C323.074 581.659 323.16 585.285 321.433 584.743C311.013 582.437 299.845 583.013 291.995 571.902C292.914 570.083 293.93 567.989 294.848 566.17L295.583 567.191C304.864 567.296 311.318 577.705 320.857 576.311C322.253 577.013 323.22 578.15 323.527 579.607Z" fill="#FAB35F"/>
<path d="M342.098 629.805C344.218 631.505 346.437 632.933 348.557 634.633C337.224 637.345 328.278 630.312 319.076 624.759C319.04 624.098 319.003 623.436 318.735 622.659C319.454 621.41 320.209 620.822 321.562 620.853C323.646 621.892 325.401 623.088 327.68 623.581C329.167 624.001 330.654 624.421 332.372 624.956C333.761 625.649 335.053 626.614 336.577 627.695C338.1 628.777 339.66 630.519 342.098 629.805Z" fill="#F0A146"/>
<path d="M288.117 573.956C289.86 576.798 288.743 579.182 287.295 581.725C282.778 575.848 275.904 576.639 268.847 574.064C273.695 567.341 278.764 570.878 283.084 571.092C283.489 572.278 284.324 573.026 285.453 572.94C286.484 573.133 287.417 573.603 288.117 573.956Z" fill="#FAB35F"/>
<path d="M94.8593 309.282C93.3096 308.164 91.6608 307.328 89.8757 306.09C87.7186 304.331 85.326 302.453 83.1689 300.695C82.5738 296.07 84.2349 292.921 87.7184 291.694C89.0945 291.727 90.3713 292.042 91.4499 292.921C92.5284 293.8 93.1731 295.125 93.8177 296.449C93.9541 296.851 94.326 297.372 94.5988 298.176C95.2806 300.184 95.9625 302.192 96.3096 304.364C96.3468 305.048 96.384 305.732 96.1857 306.296C95.789 307.425 95.1568 308.435 94.8593 309.282Z" fill="#FCE4C6"/>
<path d="M82.017 284.059C79.026 281.551 78.408 278.588 80.2618 274.89C81.2629 274.403 82.3999 274.317 83.5741 274.912C86.0583 276.501 88.3448 278.653 90.2977 280.966C92.0157 283.161 93.0662 285.681 93.1158 288.687C92.918 289.249 92.6214 290.092 92.4237 290.655C91.3237 291.422 90.1867 291.509 89.0125 290.914C85.4283 290.092 83.3395 287.379 82.017 284.059Z" fill="#FCE8CE"/>
<path d="M336.234 629.025C334.708 627.937 333.181 626.85 331.655 625.763C330.434 626.122 329.213 626.481 327.992 626.84C325.538 625.289 323.181 623.463 320.958 622.027C319.139 621.763 318.211 621.299 318.003 619.578C323.351 618.373 327.698 621.519 332.729 622.743C334.255 623.83 335.916 625.308 337.443 626.395C337.846 627.567 337.882 628.232 337.125 628.824C336.796 628.982 336.466 629.141 336.234 629.025Z" fill="#FDB45D"/>
<path d="M319.195 625.251C313.994 627.535 311.246 622.882 308.105 619.339C307.872 619.221 308.166 618.389 308.264 618.111C308.596 617.951 309.16 617.908 309.491 617.748C313.711 618.239 316.778 620.437 319.06 624.856L319.195 625.251Z" fill="#F0A348"/>
<path d="M319.106 624.721C315.81 622.412 312.748 620.219 309.55 617.633C313.017 614.812 315.259 618.548 317.819 619.836C318.652 620.581 319.485 621.326 320.318 622.071C320.257 623.018 319.73 623.731 319.106 624.721Z" fill="#F7AF5A"/>
<path d="M285.854 572.496C284.427 573.419 283.59 572.668 283.479 570.639C284.316 571.39 284.919 572.024 285.854 572.496Z" fill="#FBBC72"/>
<path d="M326.444 101.878C326.406 101.19 326.269 100.786 326.132 100.382C326.469 100.218 327.042 100.174 327.279 100.295C327.516 100.415 327.553 101.103 327.354 101.671C327.117 101.551 326.78 101.714 326.444 101.878Z" fill="#F7A544"/>
<path d="M264.885 538.663C262.529 530.708 255.83 531.879 250.73 529.33C242.993 521.913 231.89 520.882 225.263 511.116C222.054 510.157 222.602 507.849 224.042 505.341C231.911 500.883 238.196 508.542 245.041 510.026C257.877 513.86 269.055 522.35 280.818 529.197C284.198 531.209 290.25 532.62 286.86 540.608C279.259 545.847 272.376 537.566 264.885 538.663Z" fill="#FCBD74"/>
<path d="M224.478 506.938C225.019 508.523 225.228 510.268 225.535 511.734C217.39 512.217 211.628 504.391 203.84 503.086C203.532 501.619 202.992 500.035 202.685 498.568C212.954 491.288 216.652 492.497 224.478 506.938Z" fill="#FCC079"/>
<path d="M123.534 181.874C123.791 180.366 123.582 178.624 124.307 177.351C127.694 170.873 139.873 179.959 139.196 165.537C146.906 165.494 154.332 162.361 162.017 163.942C166.166 163.087 169.1 164.893 171.58 168.763C177.363 181.174 187.491 185.952 197.717 190.451C215.603 198.158 229.537 212.385 241.924 229.436C232.374 239.357 228.826 222.178 221.964 225.268C223.535 227.043 227.721 226.86 230.361 229.501C233.835 232.889 236.843 236.043 232.252 241.26C228.25 244.81 223.708 246.777 218.491 246.767C213.433 245.527 208.094 247.42 202.839 246.736C192.822 243.979 184.867 235.384 175.279 232.189C172.112 230.265 169.374 227.903 166.833 224.984C162.917 219.736 157.773 214.851 158.325 206.287C152.407 193.481 143.961 186.276 131.145 188.33C129.782 188.298 128.42 188.266 127.254 187.678C125.253 186.342 124.013 184.407 123.534 181.874Z" fill="#F6941E"/>
<path d="M171.828 169.329C168.781 167.166 165.502 164.888 162.454 162.725C163.076 161.748 163.368 160.929 163.99 159.952C166.451 157.641 169.449 156.884 172.521 157.45C187.428 168.423 203.116 177.211 218.51 186.818C222.947 189.674 227.153 192.414 232.077 193.904C244.412 199.09 257.271 203.572 269.118 210.124C276.724 213.273 285.146 214.899 289.718 224.257C292.693 231.209 301.115 232.835 302.616 241.626C300.777 249.073 296.084 247.698 291.818 245.893C287.65 243.814 284.066 240.097 279.507 239.11C277.557 238.46 275.705 237.536 273.949 236.339C266.33 224.818 256.752 234.841 248.098 233.099C247.233 231.702 246.696 230.148 246.257 228.32C232.287 213.955 218.123 200.136 200.656 191.748C190.003 186.435 178.826 181.827 171.828 169.329Z" fill="#FA9822"/>
<path d="M171.143 159.442C168.987 159.336 167.064 159.347 165.007 158.964C164.7 157.507 164.492 155.772 163.953 154.198C163.732 150.176 156.371 150.06 159.126 144.601C161.294 140.802 164.76 144.175 167.749 145.026C170.039 145.525 172.171 147.249 174.388 146.408C177.364 144.971 180.438 143.258 183.512 141.545C184.075 141.502 184.406 141.342 185.067 141.023C185.533 141.257 185.998 141.491 186.464 141.725C187.897 143.098 189.563 144.587 191.425 145.523C192.356 145.991 193.152 146.065 194.181 146.257C195.111 146.725 196.508 147.427 197.733 147.065C198.627 146.863 199.521 146.66 200.415 146.458C203.404 147.309 206.159 148.043 208.915 148.777C210.373 148.532 211.536 149.117 212.504 150.255C216.51 161.395 230.155 158.478 233.867 170.447C226.519 185.003 220.737 170.363 213.204 169.183C212.457 172.067 217.026 176.971 211.833 179.249C200.026 178.527 190.668 170.888 181.505 162.697C178.173 159.718 175.699 155.867 171.143 159.442Z" fill="#F89824"/>
<path d="M174.739 147.342C170.341 150.412 165.943 147.191 161.125 146.738C162.311 149.655 163.262 152.454 164.213 155.253C157.752 153.967 154.083 149.461 155.108 141.043C155.639 140.319 156.171 139.595 156.702 138.871C158.716 140.222 160.692 140.892 162.99 139.076C166.919 142.058 170.711 144.641 174.739 147.342Z" fill="#F6A33F"/>
<path d="M121.293 189.671C118.188 186.798 112.972 186.787 113.401 180.131C116.469 182.331 119.537 184.532 122.606 186.733C122.679 188.079 122.287 189.191 121.293 189.671Z" fill="#F39B33"/>
<path d="M121.134 189.509C121.532 188.375 122.067 187.644 122.466 186.51C123.101 185.495 123.399 184.644 124.034 183.63C125.59 184.754 127.146 185.877 128.603 187.284C129.25 188.615 128.752 190.033 127.881 190.927C126.337 192.149 124.619 192.28 123.001 192.127C121.719 191.811 120.872 191.047 120.462 189.837L121.134 189.509Z" fill="#F89F36"/>
<path d="M159.933 401.489C160.557 400.502 160.851 399.674 161.474 398.687C161.866 397.583 162.392 396.872 162.783 395.768C173.109 394.451 180.72 405.423 191.082 404.774C201.274 403.064 211.147 403.795 219.932 411.456C228.093 420.104 236.805 426.427 248.856 425.651C256.172 425.098 264.039 428.397 269.215 436.196C265.313 443.339 272.128 448.06 272.129 454.236C266.171 460.997 261.008 455.479 255.759 452.519C254.132 451.703 253.141 452.18 254.768 452.997C255.233 453.231 255.209 454.844 255.05 456.064C251.22 458.367 247.489 460.395 249.313 466.836C248.322 467.314 246.964 467.282 245.704 466.974C232.318 459.93 223.202 446.252 212.312 435.26C208.948 431.62 205.583 427.981 201.007 426.984C198.915 425.933 196.92 424.607 193.262 421.796C197.287 425.117 199.649 426.952 200.298 430.528C200.041 432.025 199.319 433.288 198.23 434.041C186.926 431.941 177.48 424.599 167.349 419.189C161.17 415.762 162.515 407.336 159.933 401.489Z" fill="#FCA946"/>
<path d="M219.471 413.012C210.901 408.737 201.977 406.216 192.555 408.919C187.568 402.247 176.659 404.53 175.206 392.54C176.681 390.7 180.862 388.924 175.437 386.539C168.988 383.966 162.795 379.911 156.224 379.208C142.717 377.299 135.425 359.498 120.98 360.983C119.346 357.915 118.968 355.151 122.222 352.912C129.256 353.846 136.716 354.349 142.848 359.339C146.848 366.484 153.821 368.353 159.648 371.904C161.635 373.217 160.257 368.667 161.903 367.879C163.877 366.933 165.694 367.195 167.876 367.962C183.602 377.416 197.793 389.645 215.019 395.663C218.567 398.72 220.079 403.659 222.542 407.462C223.176 408.744 223.615 410.573 223.92 412.012C222.58 414.241 221.434 415.922 219.471 413.012Z" fill="#F79D32"/>
<path d="M175.065 393.339C179.001 401.403 190.232 398.967 192.402 409.684C181.487 409.708 172.679 403.072 163.87 396.435C158.473 392.462 153.076 388.489 147.581 384.788C157.412 385.509 166.464 388.412 175.065 393.339Z" fill="#EA942E"/>
<path d="M122.593 354.182C122.505 356.826 122.28 359.064 122.192 361.708C121.553 362.728 121.253 363.584 120.614 364.605C112.059 362.619 112.372 351.352 106.985 345.933C103.879 335.62 109.152 326.196 108.964 316.355C117.206 316.838 115.553 324.737 116.805 330.749C116.918 339.207 118.622 347.128 122.593 354.182Z" fill="#F6A94C"/>
<path d="M232.817 137.548C234.439 138.357 235.963 139.439 237.816 140.364C248.728 144.199 257.032 153.817 266.762 158.672C264.006 155.687 257.118 157.402 259.214 148.465C274.918 153.403 287.989 165.722 302.913 172.847C311.948 177.355 320.69 182.684 330.273 184.889C336.261 193.351 330.031 194.751 325.325 197.233C320.376 197.339 315.316 195.458 310.378 197.825C302.698 199.467 296.248 196.892 289.188 191.437C274.8 179.75 260.375 167.4 243.635 160.012C236.453 156.429 229.601 152.687 224.577 145.35C222.441 135.269 229.294 139.01 232.817 137.548Z" fill="#FC9A24"/>
<path d="M312.206 148.605C312.672 142.627 307.678 134.227 313.971 131.184C319.503 128.739 326.263 132.143 330.875 137.736C332.348 139.786 332.569 143.821 335.353 142.935C348.675 137.874 358.06 147.832 368.291 154.621C371.223 156.424 373.64 155.026 375.786 152.837C387.182 147.787 393.304 162.315 403.339 163.445C407.767 165.676 413.349 166.199 413.987 173.714C407.462 182.852 399.549 181.156 391.821 176.609C384.926 172.809 379.381 166.746 372.033 165.007C362.735 164.901 356.429 153.223 346.284 156.288C341.01 163.441 335.919 167.743 332.361 154.507C331.343 150.397 327.981 149.031 325.552 148.134C331.441 156.332 334.754 167.156 340.348 176.187C338.619 181.855 335.491 180.607 332.326 178.685C324.033 174.181 316.231 168.29 308.956 161.682C307.312 158.566 306.932 155.758 310.477 154.274C313.322 152.438 314.144 150.89 312.206 148.605Z" fill="#F59726"/>
<path d="M312.61 150.614C315.111 152.853 318.433 153.545 319.88 157.213C318.324 163.94 309.202 152.491 309.46 163.397C296.956 164.614 288.043 154.902 278.051 148.24C279.484 131.002 279.484 131.002 297.469 142.993C299.994 143.611 302.753 144.347 305.278 144.965C307.681 147.48 307.682 153.685 312.61 150.614Z" fill="#F59E36"/>
<path d="M331.471 180.097C333.96 179.356 336.685 178.734 339.174 177.992C346.777 176.171 352.85 177.916 354.692 188.536C353.485 202.286 344.961 201.97 336.574 202.057C332.293 201.556 327.813 201.621 325.026 196.867C324.752 196.06 324.478 195.253 324.204 194.446C327.49 191.437 332.704 190.074 330.14 183.096C330.538 181.962 331.173 180.948 331.471 180.097Z" fill="#FCA132"/>
<path d="M259.761 148.252C259.53 154.297 265.519 154.381 267.94 161.431C257.305 152.858 244.276 154.109 237.98 140.252C240.118 138.081 242.661 137.086 245.545 138.208C250.459 141.319 255.178 144.982 259.761 148.252Z" fill="#F89927"/>
<path d="M224.733 506.371C217.775 502.891 212.793 492.321 203.078 498.125C192.14 492.009 184.607 480.163 174.389 472.79C177.928 467.451 181.517 471.185 184.899 473.2C188.842 475.172 192.431 478.906 197.314 477.47C203.319 475.95 208.093 484.8 214.61 480.305C215.929 479.672 217.052 479.587 218.309 479.893C224.877 484.47 231.444 489.048 238.11 493.351C242.249 500.914 251.989 499.646 255.408 508.465C253.908 518.055 247.291 510.545 243.837 513.341C236.709 514.946 232.191 504.608 224.733 506.371Z" fill="#EE9C3D"/>
<path d="M197.622 479.116C197.218 484.145 195.697 485.341 191.464 482.555C186.164 478.904 181.845 472.476 174.974 473.267C173.944 473.075 173.011 472.605 172.214 472.53C171.674 470.95 171.465 469.21 170.925 467.629C178.875 457.57 185.365 466.4 192.26 470.201C194.861 472.165 197.266 474.685 197.622 479.116Z" fill="#E99533"/>
<path d="M323.501 578.257C322.575 577.794 321.745 577.058 321.148 576.437C314.111 575.502 311.318 571.852 314.804 563.603C328.743 565.084 342.426 568.048 354.037 578.356C360.209 590.138 374.123 587.094 381.015 597.624C382.149 599.802 382.723 602.022 380.821 604.294C365.833 604.224 353.442 596.104 341.344 587.164C334.381 587.555 329.234 582.085 323.501 578.257Z" fill="#EC9631"/>
<path d="M167.148 224.078C170.213 226.273 173.511 228.586 176.478 231.059C176.882 232.242 176.588 233.073 176.294 233.905C175.767 234.619 175.338 235.056 175.338 235.056C165.274 239.459 160.934 228.459 154.179 225.06C156.092 228.961 163.594 229.472 160.984 237.626C156.485 240.259 152.82 237.435 148.958 235.165C145.893 232.97 143.025 230.22 140.585 227.033C137.299 220.809 131.513 218.55 126.646 214.468C122.245 210.62 117.844 206.773 117.77 199.226C118.162 198.117 118.689 197.403 119.314 196.412C120.074 195.815 120.503 195.378 121.263 194.781C122.82 194.258 124.181 194.29 125.774 194.439C127.27 194.865 128.765 195.292 130.163 195.995C142.986 204.734 157.745 209.551 167.148 224.078Z" fill="#F69622"/>
<path d="M117.863 200.036C123.829 207.321 129.364 215.047 138.368 217.621C141.603 218.598 141.788 221.978 141.407 225.401C140.841 225.444 140.177 225.766 139.611 225.808C130.201 222.043 120.669 220.187 110.73 223.385C109.463 223.074 108.492 221.926 108.184 220.456C104.506 217.613 100.73 215.049 97.2859 212.323C103.079 206.046 108.835 199.092 117.863 200.036Z" fill="#F69F36"/>
<path d="M120.367 190.107C121.314 190.587 122.26 191.068 123.443 191.668C123.481 192.355 123.854 192.879 123.892 193.567C123.194 195.553 122.223 196.731 120.678 197.954L120.031 196.622C114.489 194.145 118.287 192.061 120.367 190.107Z" fill="#FBD5A9"/>
<path d="M303.235 555.78C294.568 555.351 292.697 548.15 292.118 539.627C293.213 538.864 294.21 538.381 295.676 538.133C297.473 537.725 299.406 537.714 301.339 537.703C312.862 542.539 326.404 538.519 337.189 548.577C336.106 557.906 329.397 555.832 324.472 557.294C318.871 556.768 314.697 561.572 309.367 561.841C306.264 561.261 304.553 559.079 303.235 555.78Z" fill="#EE9934"/>
<path d="M295.605 541.967C294.677 541.502 293.846 540.761 292.917 540.296C290.998 540.307 288.945 539.926 287.027 539.937C278.361 528.141 265.212 525.117 254.421 517.765C251.134 515.47 246.991 514.042 243.276 512.18C246.428 507.926 251.109 510.92 254.701 508.507C263.242 503.713 267.63 513.689 273.863 516.164C278.715 520.216 285.265 520.257 290.019 524.584C294.871 528.636 299.002 533.947 295.605 541.967Z" fill="#E89432"/>
<path d="M302.667 556.475C305.143 558.056 307.853 559.756 310.329 561.337C312.694 560.885 314.135 562.272 314.85 564.94C313.951 571.405 317.203 574.696 321.354 577.784C310.084 583.948 303.789 572.858 295.856 567.2C295.523 561.101 301.793 561.305 302.667 556.475Z" fill="#FCC27F"/>
<path d="M147.728 433.672C147.579 430.942 147.567 428.613 147.418 425.883C151.193 423.814 155.314 423.911 159.435 424.009C165.339 425.341 170.116 429.089 174.695 433.4C178.668 437.073 180.97 441.558 175.265 445.967C173.235 448.588 166.664 447.581 169.919 454.872C167.654 457.374 165.34 456.865 162.951 454.991C158.557 447.787 154.225 439.619 147.728 433.672Z" fill="#EE9B38"/>
<path d="M147.597 434.111C158.876 433.526 160.707 444.069 163.403 453.723C163.787 456.57 162.859 458.421 160.621 459.276C159.681 458.8 158.741 458.323 157.801 457.847C156.564 451.916 150.949 453.713 148.252 450.357C144.851 446.645 139.31 443.506 145.333 436.612C145.964 435.605 146.83 434.717 147.597 434.111Z" fill="#F8AA4B"/>
<path d="M158.782 425.6C155.566 431.597 151.967 428.447 148.405 425.98C145.078 423.631 142.084 421.12 140.687 416.433C142.579 413.413 137.495 408.185 142.74 405.868C151.373 404.937 157.359 409.959 161.924 418.24C162.344 421.769 161.454 424.301 158.782 425.6Z" fill="#F0A145"/>
<path d="M233.542 138.289C231.645 142.867 227.459 140.764 224.852 142.709C219.272 146.087 214.902 140.639 209.993 139.8C205.208 137.071 202.233 132.323 201.008 126.502C211.51 132.428 223.236 131.81 233.542 138.289Z" fill="#F89C2C"/>
<path d="M108.599 311.097C108.988 310.009 109.609 309.035 109.901 308.219C109.693 306.513 109.949 305.037 110.667 303.792C111.616 302.661 112.931 302.033 114.282 302.064C119.432 303.664 124.132 307.284 129.318 309.543C141.031 317.933 152.707 325.664 165.528 331.721C182.598 343.417 200.738 352.119 218.527 362.57C221.339 364.61 223.726 367.079 224.932 370.564C225.37 372.384 224.786 374.017 223.508 375.305C206.075 375.288 191.379 363.811 175.101 358.279C166.311 353.907 158.044 348.833 149.156 344.733C140.889 339.659 132.914 333.769 124.939 327.879C118.425 323.998 113.774 317.197 108.599 311.097Z" fill="#FDAD4C"/>
<path d="M108.59 311.862C114.988 316.417 121.288 321.253 127.451 325.691C128.672 329.277 129.424 332.627 125.06 334.049C121.325 334.469 117.787 334.33 114.57 331.712C112.708 326.812 115.272 319.53 109.515 316.288C109.207 314.813 108.898 313.337 108.59 311.862Z" fill="#E8922A"/>
<path d="M112.19 305.871C111.656 306.599 111.259 307.73 110.626 308.741C108.467 306.98 105.973 305.382 103.578 303.502C103.54 302.817 103.503 302.132 103.466 301.447C103.665 300.882 104.099 300.436 104.297 299.871C104.732 299.425 105.067 299.262 105.737 298.936C106.742 298.447 107.884 298.36 109.025 298.273C110.068 298.469 110.911 299.229 111.755 299.99C112.438 302.001 111.743 303.98 112.19 305.871Z" fill="#F7AF57"/>
<path d="M103.637 303.88C101.671 307.893 99.0445 308.231 95.9327 305.985C97.2769 298.983 99.6293 297.838 103.637 303.88Z" fill="#F8A84A"/>
<path d="M161.375 419.182C155.027 414.698 148.778 409.939 142.662 405.572C144.509 404.226 138.088 398.407 145.144 399.349C150.379 400.027 154.513 405.348 160.028 402.92C162.547 403.534 165.653 402.495 167.72 405.155C171.023 409.735 165.923 409.449 165.141 411.654C163.674 415.789 167.881 416.276 169.874 417.601C179.34 423.324 189.821 426.959 198.505 434.887C202.638 434.038 205.659 435.554 207.934 439.943C208.754 444.575 205.88 445.731 203.239 447.004C186.044 444.547 172.811 434.011 161.375 419.182Z" fill="#FEAD4B"/>
<path d="M86.2564 268.878C89.3934 263.886 89.8112 254.89 98.3865 257.906C99.8875 258.335 97.6973 253.612 98.3493 250.982C102.335 242.802 106.949 246.119 111.796 249.554C119.265 263.519 131.851 269.219 142.887 277.752C144.942 282.078 144.832 286.297 142.322 290.29C139.64 293.21 136.909 293.146 133.968 291.332C124.433 283.228 114.012 277.636 102.472 274.438C100.676 274.846 98.6457 275.136 96.7142 275.146C94.5488 275.039 91.8176 274.975 89.3816 274.073C87.5115 273.129 86.1704 271.465 85.4936 269.479L86.2564 268.878Z" fill="#F4931F"/>
<path d="M111.357 251.982C107.516 248.706 103.514 246.677 99.041 250.724C92.4614 243.401 103.055 242.457 102.423 237.151C103.662 236.783 105.038 236.815 106.277 236.446C110.341 237.509 113.872 239.299 116.71 243.064C118.048 248.727 116.859 252.113 111.357 251.982Z" fill="#F7A138"/>
<path d="M209.348 139.963C215.229 134.183 218.977 142.839 223.834 143.007C230.767 148.088 237.931 153.285 244.864 158.365C256.153 162.718 265.027 172.322 275.536 178.867C280.467 186.5 274.585 186.143 271.314 186.122C262.722 185.702 255.131 180.938 247.734 175.625C246.868 174.223 245.672 172.979 244.707 171.851C234.308 161.162 220.7 155.65 210.727 144.528C210.19 142.967 209.885 141.523 209.348 139.963Z" fill="#F18F19"/>
<path d="M210.799 144.921C225.386 149.948 238.009 158.185 248.024 172.209C233.974 168.74 221.558 162.218 211.617 149.519L210.092 148.436L209.031 147.584C209.653 146.605 210.177 145.9 210.799 144.921Z" fill="#F79622"/>
<path d="M185.144 138.467C185.774 137.463 186.07 136.622 186.699 135.618C189.785 137.841 193.007 140.463 196.093 142.686C196.476 145.524 195.55 147.37 193.081 148.104C190.637 147.197 188.354 145.05 185.971 143.183L186.07 142.902C185.663 141.704 185.687 140.064 185.144 138.467Z" fill="#F8AC52"/>
<path d="M193.115 148.069C194.048 146.206 194.981 144.342 196.15 142.599C196.759 143.242 197.704 143.721 198.314 144.364C198.861 145.977 199.172 147.47 199.483 148.963C197.033 150.39 195.142 149.431 193.115 148.069Z" fill="#F7A33E"/>
<path d="M199.225 148.769C198.913 147.273 198.602 145.776 198.053 144.159C198.901 144.924 199.848 145.405 200.696 146.169C200.397 147.021 199.861 147.753 199.225 148.769Z" fill="#F8AD55"/>
<path d="M185.215 138.613C185.527 140.112 185.839 141.612 186.152 143.111C185.202 142.629 184.59 141.984 183.741 141.218C184.278 140.485 184.815 139.751 185.215 138.613Z" fill="#FAC280"/>
<path d="M160.186 458.316C161.106 456.493 162.025 454.67 162.944 452.847C164.845 454.456 166.806 455.117 168.988 453.603C176.061 448.347 181.738 454.796 187.855 456.895C191.852 459.56 194.795 463.653 197.737 467.747C198.375 469.047 198.78 470.231 198.988 471.968C196.892 477.117 193.582 472.512 191.032 473.515C184.902 469.123 179.164 463.623 171.319 467.184C167.653 464.36 163.754 461.418 160.186 458.316Z" fill="#FCA947"/>
<path d="M116.248 243.047C112.929 240.706 108.388 241.052 106.623 235.863C106.944 233.382 105.833 231.828 104.624 230.555C98.343 224.072 103.513 222.723 107.647 221.181C108.585 221.655 109.424 222.41 110.127 222.766C114.101 222.464 117.679 223.284 121.431 225.182C124.984 227.642 127.008 231.31 127.736 236.304C128.02 239.422 127.601 242.184 126.046 245.032C125.182 245.916 123.85 246.564 122.715 246.65C120.074 246.305 117.766 245.798 116.248 243.047Z" fill="#F6A33F"/>
<path d="M327.659 626.795C328.899 626.426 330.139 626.057 331.378 625.688C330.139 626.057 328.899 626.426 327.659 626.795Z" fill="#F7AF5A"/>
<path d="M103.745 303.876C100.4 301.512 97.9127 302.252 95.948 306.262C93.9211 304.9 92.3294 303.092 92.8517 300.019C94.4184 297.142 96.122 294.669 99.4545 294.691C102.489 295.562 104.652 297.327 105.311 300.999C104.677 302.013 104.379 302.863 103.745 303.876Z" fill="#F9BC71"/>
<path d="M98.2532 295.762C97.123 298.188 95.8562 300.212 93.1983 299.864L92.9624 299.744C92.6518 298.254 92.3413 296.763 92.2668 295.392C91.3228 294.913 90.4783 294.152 89.6337 293.39C90.1678 292.661 90.5652 291.529 90.3913 290.441L91.4346 290.637C94.9619 290.093 97.123 291.856 98.2532 295.762Z" fill="#FCDBB5"/>
<path d="M92.1971 295.453C92.2726 296.84 92.5871 298.348 92.9017 299.856C92.5871 298.348 92.2726 296.84 92.1971 295.453Z" fill="#FCE9D2"/>
<path d="M92.1671 287.524C90.4902 286.016 89.2448 284.066 89.6639 281.307C90.8969 280.941 92.1299 280.574 93.2272 279.809L93.4615 279.928C95.5946 279.357 97.4317 279.626 99.2073 280.854C101.587 282.718 103.202 285.185 102.722 288.903C99.7379 292.674 96.9512 289.614 94.0413 288.472C93.3385 288.116 92.8699 287.879 92.1671 287.524Z" fill="#F8B35F"/>
<path d="M98.2328 295.458C96.1011 293.734 93.9694 292.01 91.5069 290.445C91.8008 289.615 91.862 288.668 91.9231 287.72L93.3809 287.475C98.0363 289.817 103.745 290.731 106.992 296.277C107.666 298.246 107.176 299.629 105.424 300.705C102.962 299.14 100.597 297.299 98.2328 295.458Z" fill="#F8B35F"/>
<path d="M216.632 242.224C221.017 243.776 224.14 238.829 227.986 238.807C230.105 238.243 231.636 239.339 233.204 241.105C235.188 246.339 238.202 251.764 243.591 248.934C258.006 241.517 267.646 252.229 276.036 258.729C272.57 255.356 272.129 253.505 273.022 247.111C280.187 247.78 285.981 252.323 292.558 254.652C300.116 260.407 308.188 263.161 317.141 263.426C318.305 264.011 319.37 264.873 320.007 266.171C321.012 274.172 316.174 274.672 311.606 275.96C309.818 276.365 308.728 277.12 310.381 276.322C310.651 277.109 311.153 278.013 311.986 278.758C312.721 279.779 313.125 280.96 313.432 282.418C312.942 283.801 312.219 285.067 311.129 285.823C297.339 292.25 286.082 283.006 274.446 277.156C266.766 273.295 260.005 267.614 251.064 269.637C242.968 268.499 234.419 269.415 227.094 263.777C223.125 259.501 217.773 256.81 214.33 251.82C211.158 247.618 209.443 243.171 216.632 242.224Z" fill="#FDAA48"/>
<path d="M171.751 169.925C194.741 188.193 221.06 199.41 243.855 218.225C248.7 222.26 253.605 225.357 248.396 233.082C244.834 233.883 242.71 232.177 241.368 228.278C234.9 223.432 228.665 218.702 223.21 211.78C215.827 202.604 206.345 196.251 195.791 192.913C186.395 190.154 179.317 182.421 170.898 176.922C166.688 174.173 169.848 172.202 171.751 169.925Z" fill="#F08E18"/>
<path d="M167.564 223.371C155.28 211.68 138.936 208.351 126.224 197.095C125.918 195.641 125.416 194.74 124.914 193.838C124.878 193.169 124.841 192.501 124.706 192.108C125.098 191.005 125.721 190.018 126.847 189.933C127.471 188.946 127.764 188.118 128.388 187.132C129.318 187.598 129.917 188.224 130.749 188.967C143.166 188.7 151.266 198.29 160.185 206.342C159.366 214.056 166.536 217.005 167.564 223.371Z" fill="#ED9020"/>
<path d="M160.47 205.971C148.339 205.41 141.018 193.595 130.881 188.177C132.754 185.212 134.516 180.238 138.042 182.661C146.722 188.323 155.205 194.538 163.261 201.189C164.228 202.326 161.756 204.664 160.47 205.971Z" fill="#EE8D18"/>
<path d="M240.629 228.8C243.099 230.374 245.237 232.109 247.707 233.683C247.007 245.794 242.572 249.789 233.455 242.893C231.919 241.791 230.481 240.409 228.712 239.189C230.53 237.154 233.614 235.429 229.571 232.078C225.529 228.726 220.565 227.206 217.677 222.141C226.474 219.035 232.324 230.514 240.629 228.8Z" fill="#FC9A25"/>
<path d="M216.74 243.895C214.916 245.94 211.922 247.393 215.878 251.041C220.535 255.045 227.411 255.884 228.89 264.214C224.664 266.033 220.388 264.861 216.149 264.366C214.979 263.774 213.808 263.182 212.736 262.31C209.347 258.619 205.33 255.928 202.373 251.795C201.227 249.567 200.881 247.415 202.705 245.37C207.326 242.431 211.885 240.451 216.74 243.895Z" fill="#F69F39"/>
<path d="M203.292 246.274C203.599 247.73 203.905 249.187 204.113 250.92C194.943 259.013 189.933 246.073 182.831 244.458C181.57 244.15 180.174 243.448 179.109 242.587C175.717 240.556 173.745 237.611 174.614 232.837C175.238 231.848 175.532 231.019 176.156 230.03C185.952 233.325 194.475 240.214 203.292 246.274Z" fill="#F7951F"/>
<path d="M320.505 265.197C319.576 264.73 318.976 264.104 318.144 263.362C309.264 262.154 301.068 259.015 292.676 256.428C285.349 254.7 278.474 250.925 272.419 245.612C270.498 245.623 268.908 245.474 267.049 244.541C262.963 242.166 261.054 238.284 262.448 232.81C264.979 223.359 270.032 233.042 273.432 231.175C274.961 232.267 276.491 233.36 278.02 234.452C288.638 238.481 297.042 249.522 308.748 246.625C307.843 244.546 301.69 245.682 301.029 239.827C296.233 234.821 288.515 234.196 286.214 225.244C291.718 220.534 296.44 224.203 301.126 227.204C303.719 229.156 306.215 231.383 308.282 234.045C317.543 244.216 329.005 251.268 339.514 259.466C343.538 262.785 348.517 264.959 350.108 271.281C348.568 280.255 342.635 279.227 337.558 277.329C330.989 275.007 324.616 272.133 320.505 265.197Z" fill="#FEB152"/>
<path d="M212.261 177.839C212.285 170.056 205.447 166.949 202.793 159.771C210.865 158.624 215.11 165.951 220.92 168.867C224.87 170.849 228.442 176.214 232.71 169.586C239.987 168.366 244.33 175.417 249.846 179.159C250.813 180.294 251.449 181.587 251.889 183.432C250.789 188.077 247.731 185.893 245.542 185.119C248.233 186.794 251.413 187.091 253.615 190.145C255.756 200.314 268.598 199.612 269.26 211.637C256.784 206.676 244.406 201.439 232.028 196.203C225.998 189.279 215.895 188.432 212.261 177.839Z" fill="#F6951F"/>
<path d="M273.494 232.799C271.174 236.251 266.559 228.96 264.758 235.648C262.265 244.299 271.273 242.249 272.47 247.48C273.581 255.312 282.008 257.264 282.996 267.015C277.529 262.927 272.791 257.555 267.707 256.304C260.785 254.784 254.467 241.343 245.386 254.59C242.967 258.323 235.119 252.368 231.121 248.032C228.234 245.249 231.8 243.75 232.96 242.024C239.919 244.224 244.509 240.6 247.174 233.027C248.544 233.059 250.851 233.566 251.147 232.725C258.711 216.727 266.25 227.482 273.494 232.799Z" fill="#FDAE4E"/>
<path d="M212.342 178.877C218.536 185.154 228.392 186.531 231.874 196.58C213.779 188.551 195.417 179.749 179.79 165.586C176.943 162.891 174.326 160.311 170.834 160.177C171.647 152.581 174.629 155.662 177.903 157.928C188.916 165.96 199.735 174.534 212.342 178.877Z" fill="#F08F19"/>
<path d="M268.606 211.081C265.333 204.915 259.667 202.403 254.428 199.458C250.716 197.601 251.265 195.288 252.437 191.994C267.419 193.67 279.02 205.62 292.929 210.317C297.837 213.42 301.697 217.938 303.517 224.347C303.566 227.283 303.017 229.595 300.477 230.588C296.46 227.284 292.247 224.529 287.192 224.91C284.125 214.32 273.698 217.51 268.606 211.081Z" fill="#F4911B"/>
<path d="M301.145 240.1C305.021 242.997 308.994 245.621 313.467 249.137C295.943 247.797 295.943 247.797 278.222 234.782C283.852 232.765 286.851 238.119 291.153 240.586C294.76 242.706 298.075 245.645 301.145 240.1Z" fill="#FDAE4E"/>
<path d="M251.773 182.81C245.443 178.36 239.442 173.753 233.112 169.303C228.673 166.442 224.758 162.876 219.636 161.93C214.05 160.753 210.464 157.029 211.182 149.653C222.233 160.004 236.148 163.084 247.588 172.341C247.382 176.75 256.028 176.233 251.773 182.81Z" fill="#F18F19"/>
<path d="M185.856 143.353C189.256 143.094 191.731 144.675 192.951 148.257C188.862 150.473 186.718 148.73 185.856 143.353Z" fill="#F7A33E"/>
<path d="M127.188 190.324C126.889 191.175 126.354 191.906 125.955 193.04C124.611 193.695 123.665 193.215 122.881 191.48L123.217 191.317C124.698 191.066 125.943 190.695 127.188 190.324Z" fill="#F39B33"/>
<path d="M218.705 411.607C219.926 411.247 221.147 410.888 222.368 410.529C235.68 414.604 249.297 413.978 262.609 418.053C271.219 420.746 279.011 424.969 286.644 430.408C288.036 431.105 289.001 432.235 290.198 433.481C296.77 444.212 292.325 447.488 283.434 447.891C279.832 448.029 276.486 446.677 273.298 444.111C271.502 442.241 270.269 440.33 269.89 437.552C261.059 430.867 252.413 427.509 241.08 428.631C232.654 429.266 223.591 422.465 218.705 411.607Z" fill="#FDAE4C"/>
<path d="M207.128 440.62C204.055 438.413 200.749 436.088 197.774 433.603C198.167 432.488 198.696 431.77 199.323 430.774C198.708 427.838 202.469 428.095 202.186 424.998C207.065 422.866 209.352 427.301 212.596 430.58C223.904 442.194 233.627 455.963 246.619 465.144C242.649 469.377 251.683 472.623 247.48 476.738C228.134 473.868 214.331 462.307 207.128 440.62Z" fill="#F09C39"/>
<path d="M248.098 465.965C242.969 457.167 247.275 455.084 253.716 454.731C261.421 454.688 267.825 459.877 275.076 461.894C278.242 463.816 281.113 466.57 283.223 469.923C289.284 479.191 287.015 483.281 277.446 482.385C266.87 479.673 256.024 476.172 248.098 465.965Z" fill="#FCAD4A"/>
<path d="M269.164 437.766C270.699 438.867 272.234 439.969 273.769 441.071C279.308 451.071 291.685 447.155 297.322 456.878C296.598 470.602 288.101 466.645 281.421 466.881C279.358 466.496 277.59 465.277 275.919 463.779C274.041 460.538 270.541 458.774 270.283 454.056C269.337 445.061 259.968 445.907 257.167 438.269C261.023 432.022 265.628 441.553 269.164 437.766Z" fill="#EC9632"/>
<path d="M247.834 466.663C257.451 471.158 266.836 475.536 276.453 480.031C279.691 479.385 281.757 482.04 283.92 484.42C284.299 487.202 283.517 489.403 281.807 491.138C279.07 492.683 276.357 492.62 273.278 492.049C263.991 487.396 253.066 485.811 247.346 474.196C245.281 471.541 241.017 471.996 240.759 467.331C240.723 466.664 243.729 465.902 245.378 465.109C246.307 465.574 247.235 466.039 247.834 466.663Z" fill="#E18D29"/>
<path d="M270.391 454.82C272.981 456.765 276.328 458.117 276.024 462.821C276.427 463.995 276.464 464.661 275.804 464.978C275.144 465.295 274.815 465.454 274.582 465.338C267.265 463.616 260.497 459.579 254.352 454.559C252.923 453.195 251.396 452.107 249.27 450.395C257.771 444.939 263.025 456.312 270.391 454.82Z" fill="#E5912F"/>
<path d="M202.896 425.636C210.462 433.671 199.064 427.943 200.044 431.366C195.513 427.136 189.539 425.436 185.425 418.485C193.296 415.604 197.313 422.831 202.896 425.636Z" fill="#EB9735"/>
<path d="M217.067 398.716C197.447 394.08 181.604 380.395 165.078 368.621C164.139 365.903 160.703 364.833 161.506 361.054C162.225 359.804 163.309 359.059 164.759 358.817C169.743 359.372 173.034 363.906 177.007 366.53C187.89 371.954 198.638 376.991 209.618 382.142C213.189 383.601 216.333 385.489 219.514 388.039C221.805 390.789 225.876 393.14 223.561 398.095C222.161 401.255 219.455 401.192 217.067 398.716Z" fill="#EE9936"/>
<path d="M113.877 331.814C117.063 329.807 120.433 331.18 123.865 331.598C125.746 334.849 127.727 337.821 129.609 341.072C135.009 348.399 144.307 350.137 148.022 359.9C147.641 363.323 146.448 364.363 143.939 362.111C137.026 358.291 128.318 361.124 122.021 354.001C110.951 351.04 115.452 339.839 113.877 331.814Z" fill="#F49420"/>
<path d="M262.999 420.579C249.469 417.687 234.553 422.599 222.764 410.122L221.696 409.257L220.629 408.393C220.101 402.896 223.413 401.294 226.639 402.265C234.453 404.239 242.279 402.296 249.762 404.43C251.725 405.092 253.59 406.031 255.356 407.247C256.423 408.112 257.393 409.254 258.362 410.396C260.472 413.748 262.778 416.544 262.999 420.579Z" fill="#F39F3D"/>
<path d="M250.652 407.524C240.748 411.4 230.547 403.617 220.717 408.846C217.173 406.399 215.955 402.824 216.496 398.164C218.661 398.271 221.528 398.733 221.811 395.587C221.836 393.955 218.796 392.42 217.221 390.637C226.129 387.244 242.728 395.628 250.652 407.524Z" fill="#FBA746"/>
<path d="M147.696 360.397C140.628 353.256 130.007 351.501 125.67 340.519C142.5 337.899 153.073 349.083 162.47 363.588C164.368 365.194 166.035 366.684 165.753 369.802C164.528 370.164 163.303 370.526 161.846 370.771C154.949 370.889 150.453 367.325 147.696 360.397Z" fill="#E8922A"/>
<path d="M147.316 360.619C151.906 363.9 156.729 367.299 161.551 370.698C161.955 371.877 162.69 372.896 163.326 374.192C156.778 376.435 146.24 369.839 143.411 361.586C144.635 361.224 145.859 360.863 147.316 360.619Z" fill="#FBA237"/>
<path d="M311.356 194.153C316.056 187.074 319.803 193.514 323.757 195.501L323.659 195.777C326.097 205.141 333.467 207.542 339.687 211.644C354.917 221.25 372.841 226.35 382.526 246.192C377.998 254.334 371.913 250.625 366.073 249.319C358.666 246.248 352.042 240.966 345.945 234.973C338.966 225.28 329.134 221.317 321.47 213.559C317.625 207.395 308.896 204.962 311.356 194.153Z" fill="#F7A74C"/>
<path d="M312.149 195.412C313.482 203.204 321.423 203.943 323.28 211.027C323.66 213.808 322.548 216.166 320.606 217.784C311.529 221.01 304.98 214.815 298.041 209.72C293.348 198.301 281.583 193.704 277.415 181.577C266.358 173.448 255.435 165.71 244.61 157.697C249.79 155.433 253.089 160 256.742 162.802C269.498 173.077 283.755 179.895 295.302 192.803C299.762 197.951 306.615 193.287 312.149 195.412Z" fill="#F7951F"/>
<path d="M353.78 186.947C351.425 179.001 343.876 181.033 339.691 176.687C335.251 173.825 331.897 170.216 329.652 164.259C327.504 158.028 325.515 150.587 318.965 148.283C316.879 147.242 316.208 145.295 317.22 143.221C317.61 142.126 319.488 141.452 320.611 141.368C326.258 141.609 336.163 153.648 336.664 160.668C340.457 159.983 343.018 157.393 345.079 153.909C358.544 152.896 366.608 166.272 377.634 172.101C394.357 181.097 412.751 187.703 425.328 205.268C423.061 213.162 421.878 214.184 415.376 208.68C405.691 200.62 395.03 195.296 384.37 189.972C380.893 188.236 377.612 185.953 375.332 191.584C367.771 197.48 361.916 189.398 355.207 188.304C354.841 187.799 354.475 187.294 353.78 186.947Z" fill="#F59420"/>
<path d="M367.233 245.589C371.625 243.243 376.593 249.313 380.936 244.016C383.603 241.13 386.551 241.31 387.714 241.893C373.423 232.769 358.483 220.068 342.43 209.734C338.441 207.081 334.551 204.153 333.424 198.061C340.104 196.214 348.767 199.588 351.42 188.243C353.537 187.68 354.968 189.049 356.535 190.81C356.377 204.383 365.737 208.107 373.58 213.019C384.347 219.725 395.934 224.891 403.618 237.2C411.633 249.35 424.113 254.315 434.489 262.124C447.666 267.439 460.647 273.306 473.372 280.669C474.669 281.645 475.636 282.781 476.505 284.192C481.926 294.389 492.301 296.022 499.691 302.983C504.818 307.832 512.379 309.678 514.019 318.952C510.337 323.93 506.446 321.002 502.727 319.134C486.552 310.689 469.46 304.059 453.676 294.51C443.533 286.818 432.276 281.492 421.448 275.731C419.356 274.681 416.26 271.826 416.028 277.886C420.617 287.341 429.965 288.783 436.193 295.16C440.023 299.033 446.226 300.847 444.648 309.156C438.14 312.065 433.343 307.056 428.29 303.545C412.298 292.266 397.028 279.724 380.217 269.985C377.121 260.954 366.733 257.04 367.233 245.589Z" fill="#FDAA46"/>
<path d="M334.5 199.232C357.023 215.606 379.546 231.979 403.226 248.929C394.697 251.43 388.785 244.303 381.595 244.577C366.214 231.121 349.919 219.46 331.699 211.664C327.531 209.586 318.013 206.449 323.69 195.13C327.005 198.069 330.771 198.981 334.5 199.232Z" fill="#FEB459"/>
<path d="M237.08 495.053C229.181 491.725 221.872 486.727 215.914 479.459C213.322 479.791 210.951 477.939 211.835 475.434C213.37 470.307 217.657 469.846 221.613 469.546C228.836 470.895 234.216 475.904 239.929 480.752C242.938 483.91 245.285 487.388 243.185 492.559C241.735 495.106 239.475 495.278 237.08 495.053Z" fill="#E5912E"/>
<path d="M236.483 494.713C237.704 494.354 238.924 493.996 240.145 493.637C252.593 492.432 262.103 503.325 273.747 505.917C277.323 507.382 282.547 508.056 281.657 514.395C280.767 520.733 276.226 518.14 272.918 517.455C265.132 519.376 262.653 507.153 255.159 508.251C250.068 501.829 239.878 505.132 236.483 494.713Z" fill="#F49F3C"/>
<path d="M220.655 471.627C221.955 476.597 210.609 471.844 216.313 480.041C215.682 481.048 215.385 481.893 214.754 482.9C208.246 480.929 201.305 479.403 197.976 470.75C195.427 457.517 204.571 463.809 208.678 461.578C214.444 462.509 219.109 464.209 220.655 471.627Z" fill="#E6922F"/>
<path d="M198.203 471.138C203.617 475.147 209.129 478.881 214.775 483.007C207.761 488.89 203.41 479.58 197.813 478.396C195.455 476.566 193.328 474.853 190.872 473.298C193.083 472.461 195.759 471.858 198.203 471.138Z" fill="#F9A441"/>
<path d="M314.986 563.634C313.46 562.545 311.933 561.457 310.503 560.094C313.446 554.123 317.061 550.107 323.266 554.185C339.841 556.011 355.085 562.348 368.314 575.121C369.279 576.252 370.146 577.657 370.782 578.946C367.217 592.05 367.217 592.05 354.757 580.957C346.854 574.734 337.62 573.024 328.545 570.098C323.842 568.715 319.237 567.057 314.986 563.634Z" fill="#FCA743"/>
<path d="M149.879 231.147C153.363 232.893 156.003 237.784 160.721 235.285C168.189 233.515 173.421 240.354 180.046 241.729C188.76 244.152 194.824 251.731 202.525 256.239C204.261 265.216 197.6 263.174 193.872 265.197C178.912 264.183 167.372 253.535 155.344 244.263C152.312 240.473 146.678 238.621 149.879 231.147Z" fill="#F7951F"/>
<path d="M150.127 232.083C150.361 238.465 155.167 238.917 158.185 242.091C160.317 247.784 158.531 250.506 153.491 249.936C149.487 249.56 145.569 246.59 141.281 249.367C136.39 251.508 131.191 252.176 130.981 244.159C130.882 238.175 125.892 240.597 125.005 236.852C124.882 232.504 122.331 229.567 120.778 226.145C127.099 216.814 133.913 224.874 140.652 225.315C143.732 227.532 147.047 229.867 150.127 232.083Z" fill="#F3921E"/>
<path d="M180.473 241.425C173.217 242.636 166.961 239.513 161.192 235.022C157.228 228.531 149.496 227.249 145.617 218.224C157.056 221.356 163.692 233.369 174.85 233.462C176.679 235.986 178.411 238.784 180.473 241.425Z" fill="#F2901B"/>
<path d="M122.77 191.564C123.727 192.049 124.684 192.533 125.982 192.853L125.44 193.591C125.856 194.814 125.654 195.387 125.213 195.838C124.773 196.29 124.433 196.455 124.193 196.334C122.934 196.709 121.674 197.083 120.553 197.866C121.359 195.574 122.065 193.569 122.77 191.564Z" fill="#F9BB71"/>
<path d="M124.146 196.23C124.445 195.376 125.082 194.358 125.382 193.504C126.806 194.227 127.119 195.726 126.419 197.718C125.57 196.952 124.858 196.591 124.146 196.23Z" fill="#FAC585"/>
<path d="M141.096 225.449C134.42 225.685 127.743 225.92 121.3 226.273C116.563 228.795 113.814 224.137 110.414 222.097C121.263 213.163 131.486 217.661 141.096 225.449Z" fill="#F69622"/>
<path d="M272.94 517.097C274.86 514.777 279.437 517.418 279.683 513.595C279.991 508.816 275.671 510.911 273.333 509.73C268.079 505.101 261.273 503.308 256.314 497.843C253.767 494.911 251.822 492.613 254.566 488.736C263.783 486.813 270.355 494.738 278.76 496.681C288.174 500.45 297.034 506.571 307.728 506.71C311.026 506.731 313.868 508.825 314.791 513.239C315.247 517.416 313.967 521.046 313.623 525.149C313.402 527.339 313.18 529.53 312.159 531.646C308.75 535.845 303.964 537.703 299.817 540.871C298.586 541.237 297.356 541.602 296.125 541.967C293.503 531.432 288.569 524.334 278.872 523.712C275.438 523.293 274.651 519.277 272.94 517.097Z" fill="#F19B37"/>
<path d="M299.065 539.393C301.237 533.221 305.124 529.24 311.035 528.927C322.425 528.743 334.062 530.998 345.44 528.494C348.883 528.915 352.425 529.055 352.054 534.816C350.487 541.624 345.391 544.332 340.763 547.277C339.431 547.925 338.295 548.011 336.926 547.979C324.252 545.53 311.381 543.643 299.065 539.393Z" fill="#FBA641"/>
<path d="M336.336 547.308C336.962 546.314 337.256 545.48 337.882 544.487C346.755 545.031 356.77 541.568 362.453 554.251C363.067 557.178 362.785 560.309 363.399 563.237C364.589 568.419 369.683 570.331 370.873 575.513C370.849 577.137 370.223 578.131 368.898 578.772C356.354 569.178 344.044 559.702 328.654 558.164C326.028 557.823 325.083 555.055 323.745 553.399C326.911 549.104 333.514 553.74 336.336 547.308Z" fill="#EE9A38"/>
<path d="M160.82 419.653C174.047 429.575 187.079 440.051 202.242 446.05C201.801 450.398 199.191 452.349 195.979 453.671C190.046 454.93 185.032 448.162 178.94 450.646C176.28 449.634 174.38 448.024 173.963 444.55C171.327 441.917 180.876 440.52 174.453 436.961C168.728 433.753 163.493 429.16 158.063 425.121C158.982 423.298 159.901 421.476 160.82 419.653Z" fill="#FBA744"/>
<path d="M173.571 445.03C175.937 446.874 178.169 448.324 180.535 450.169C185.023 451.448 190.663 451.021 188.653 459.808C181.554 460.481 176.367 452.643 169.268 453.316C167.281 448.07 168.728 445.531 173.571 445.03Z" fill="#E4902D"/>
<path d="M163.959 334.641C149.76 329.141 137.456 319.071 125.091 309.945C125.494 304.951 128.759 302.692 131.657 299.925C134.788 297.274 138.248 294.464 141.636 296.489C158.538 305.943 178.974 307.753 191.231 327.216C192.393 333.969 201.713 337.021 197.36 346.203C189.827 348.918 184.922 341.911 178.917 339.548C174.171 337.492 169.781 333.665 163.959 334.641Z" fill="#FAA644"/>
<path d="M224.26 370.64C221.905 368.818 219.782 367.112 217.33 365.565C217.768 361.267 206.801 360.627 214.424 353.79C222.207 351.871 228.771 356.441 235.067 360.232C249.048 368.507 265.311 371.148 277.927 383.258C281.16 388.745 279.062 391.568 274.549 393.507C263.033 395.173 254.394 385.696 244.036 381.811C238.973 379.927 233.776 377.653 228.616 376.042C226.432 375.274 224.968 373.252 224.26 370.64Z" fill="#E59230"/>
<path d="M173.808 370.357C171.598 365.056 167.815 361.874 163.373 359.009C162.056 359.641 161.128 359.178 160.359 357.502C163.92 344.434 170.011 358.776 174.684 355.624C191.292 360.374 206.923 367.864 222.653 375.08C224.91 377.176 226.704 379.041 226.229 382.677C225.509 383.932 224.326 384.954 223.106 385.313C218.188 386.083 213.783 383.881 209.671 380.857C198.017 376.001 186.973 367.899 173.808 370.357Z" fill="#F29F3D"/>
<path d="M213.663 355.861C213.127 360.422 218.381 361.755 217.846 366.316C199.705 355.979 180.749 347.166 163.388 334.644C170.64 327.318 176.553 334.452 182.673 337.183C187.537 339.609 190.708 346.019 197.229 343.8C205.177 342.937 210.906 346.761 213.663 355.861Z" fill="#EA9735"/>
<path d="M225.314 380.358C223.552 379.149 221.754 377.272 222.035 374.165C222.659 373.179 222.952 372.351 223.343 371.249C224.872 372.341 226.634 373.549 228.163 374.641C241.874 381.522 255.451 388.01 267.757 398.082C272.05 402.186 278.288 404.666 277.409 413.32C273.801 419.63 269.361 419.026 264.407 415.241C257.838 406.747 249.631 401.33 241.228 396.463C234.916 392.647 228.079 389.541 225.314 380.358Z" fill="#EE9B39"/>
<path d="M161.719 358.463C162.552 359.208 163.25 359.559 164.083 360.304C163.458 361.293 163.165 362.123 162.54 363.113C150.56 355.134 139.756 343.836 125.744 340.049C124.004 337.219 123.392 334.304 124.004 331.027C127.752 331.282 125.841 327.388 126.857 325.292C135.578 331.632 144.067 337.855 152.789 344.196C154.247 350.144 160.885 351.526 161.719 358.463Z" fill="#F09C3A"/>
<path d="M132.464 304.595C130.314 306.792 127.93 308.87 125.779 311.067C120.949 309.942 117.139 306.707 113.624 302.636C112.395 303 111.694 302.647 111.62 301.297C110.551 300.429 109.715 299.679 108.781 299.207C107.884 299.411 107.184 299.058 106.778 297.868C102.267 294.279 97.7568 290.69 93.3445 286.823C96.6257 284.541 98.7398 287.905 101.075 289.083C107.49 288.054 114.287 289.843 120.419 285.717C124.081 286.253 126.921 288.342 129.133 291.427C131.284 295.467 136.225 298.616 132.464 304.595Z" fill="#F49828"/>
<path d="M161.476 358.068C158.071 353.749 149.155 354.155 152.547 343.804C160.716 346.282 168.101 350.972 175.193 356.492C170.944 361.524 165.346 350.238 161.476 358.068Z" fill="#F6A240"/>
<path d="M111.315 301.656C112.029 302.018 112.742 302.38 113.256 303.312C112.955 304.168 112.655 305.023 112.116 305.758C111.803 304.255 111.49 302.753 111.315 301.656Z" fill="#F9BE78"/>
<path d="M106.597 298.334C107.305 298.693 108.013 299.052 108.621 299.693C107.38 300.063 106.473 300.27 105.232 300.639C105.53 299.791 106.064 299.062 106.597 298.334Z" fill="#FAC280"/>
<path d="M194.764 451.65C196.9 449.486 199.134 447.047 201.502 444.999C203.345 443.659 204.859 442.476 206.702 441.136C216.055 453.25 225.408 465.365 238.631 471.98C241.415 473.372 243.942 476.253 247.336 474.395C256.42 479.586 265.406 485.052 274.489 490.243C279.422 491.74 285.245 493.038 278.581 501.018C270.633 498.011 263.295 491.754 254.7 491.333C247.449 494.817 245.469 483.483 239.292 483.948C232.955 479.485 226.85 475.137 220.514 470.674C216.204 468.195 213.065 462.422 207.328 464.724C201.992 462.055 194.558 462.214 194.764 451.65Z" fill="#FAA845"/>
<path d="M132.187 302.983C132.821 298.138 127.233 296.96 127.867 292.115C128.208 288.091 129.049 284.963 133.063 288.259C135.052 289.575 137.138 290.617 139.407 288.847C153.095 291.815 165.649 298.732 178.983 303.458C180.374 304.153 181.765 304.848 183.058 305.817C189.013 313.631 198.309 316.662 203.312 325.613C204.057 328.889 203.276 331.08 201.471 333.081C197.885 335.483 194.445 334.41 191.65 330.755C179.034 312.516 158.783 311.109 143.263 299.484C138.225 295.999 136.152 303.351 132.187 302.983Z" fill="#F09C3B"/>
<path d="M179.594 305.798C165.434 302.924 151.569 299.21 139.7 288.261C141.684 284.977 141.265 281.467 141.413 277.915C142.78 271.681 147.119 271.896 151.05 270.916C152.418 270.948 153.687 271.26 155.055 271.293C160.034 272.821 164.779 274.231 169.758 275.76C178.077 277.988 177.671 283.059 172.902 289.551C168.613 298.595 180.223 298.53 179.594 305.798Z" fill="#FEAC4A"/>
<path d="M151.431 273.532C148.445 274.978 145.36 276.703 142.275 278.429C129.211 274.133 117.363 267.17 110.824 251.4C113.675 249.557 115.125 247.007 115.137 243.075C117.3 243.182 119.132 243.449 121.295 243.556C122.733 251.174 127.637 253.648 132.774 256.241C140.246 260.012 148.579 262.904 151.431 273.532Z" fill="#F69724"/>
<path d="M133.605 289.035C130.989 288.697 129.742 290.667 128.398 292.912C125.341 290.731 122.053 288.433 118.996 286.252C109.999 286.931 103.654 282.452 100.389 272.381C100.914 271.671 101.965 270.252 102.198 270.368C113.506 274.741 125.926 276.751 133.605 289.035Z" fill="#ED8D1A"/>
<path d="M100.235 272.731C106.524 277.554 112.678 281.979 118.967 286.801C118.253 290.388 119.718 296.392 113.577 294.277C109.404 292.827 104.974 292.892 101.356 289.09C101.638 285.943 99.9646 284.439 98.057 282.817C97.7738 279.713 95.7922 276.738 96.5058 273.151C97.8719 273.183 99.1026 272.817 100.235 272.731Z" fill="#F69F37"/>
<path d="M96.7682 273.412C99.0915 276.244 100.747 279.401 98.3255 283.141C96.7808 282.028 95.2361 280.915 93.6914 279.801C94.0744 276.353 92.1589 274.72 90.3423 272.807C92.6408 270.991 94.5562 272.623 96.7682 273.412Z" fill="#FBD3A4"/>
<path d="M277.346 182.016C285.938 186.322 291.182 195.433 298.295 201.591C300.422 203.305 299.676 206.173 298.699 208.925C297.379 209.56 295.693 209.687 294.202 209.264C279.206 201.425 261.827 199.523 251.279 182.242C252.146 177.491 246.548 176.306 247.183 171.438C257.132 175.775 265.553 185.182 277.346 182.016Z" fill="#ED8A14"/>
<path d="M194.908 452.869C197.538 459.446 202.809 462.434 207.651 465.861C205.341 469.289 198.41 460.87 198.73 470.874C194.392 468.358 190.681 464.845 188.457 459.457C188.125 453.384 183.197 452.538 180.322 449.775C186.183 444.858 190.336 450.235 194.908 452.869Z" fill="#ED9936"/>
<path d="M151.401 272.569C143.566 267.668 136.708 260.015 127.333 257.909C121.136 256.1 118.263 251.093 121.427 242.951C122.356 243.416 122.955 244.041 123.884 244.507C129.006 243.183 129.972 250.477 133.981 251.514C137.428 252.593 140.814 254.615 142.635 248.717C155.176 255.004 170.686 253.7 179.342 269.388C180.344 271.188 181.677 272.829 182.349 274.787C181.104 282.918 176.837 277.213 174.026 277.425C167.242 277.267 160.801 273.065 153.858 274.125C152.929 273.659 152.33 273.034 151.401 272.569Z" fill="#F59522"/>
<path d="M141.182 249.55C139.32 250.919 146.029 256.954 138.346 256.038C131.465 255.198 128.296 249.303 124.066 244.852C124.386 242.374 124.472 239.777 124.793 237.298C132.032 236.339 131.131 236.543 133.352 245.919C134.684 251.544 138.136 248.009 140.356 244.841C143.365 245.703 143.007 247.503 141.182 249.55Z" fill="#F69724"/>
<path d="M93.3808 279.902C92.5472 281.482 91.303 281.853 89.7852 281.417C91.1288 280.763 92.1366 280.272 93.3808 279.902Z" fill="#FCE8CE"/>
<path d="M215.484 262.84C219.914 258.855 223.878 260.852 227.682 264.078C235.339 267.282 243.99 263.788 251.096 269.331C253.611 267.654 256.433 267.44 258.802 269.288C271.54 278.324 286.082 283.034 299.31 290.681C301.066 302.036 297.14 306.929 287.433 305.637C286.635 305.562 285.506 305.648 284.905 305.018C280.438 302.113 274.929 302.936 271.824 300.062C276.426 303.363 283.666 303.084 288.943 308.361C297.546 326.766 282.808 316.395 279.139 319.781C276.979 319.675 274.917 319.29 272.954 318.628C256.461 309.336 240.814 296.871 221.61 296.029C214.75 292.9 212.418 285.508 209.792 278.949C209.423 272.22 211.987 267.295 215.484 262.84Z" fill="#FDAB4A"/>
<path d="M287.634 309.941C277.819 302.697 265.046 301.499 255.858 287.032C267.636 288.711 274.503 298.074 283.752 299.133C290.274 300.128 297.643 304.172 300.038 291.94C302.445 288.237 305.933 287.702 309.458 287.841C313.781 288.054 309.544 285.261 310.502 284.106C311.128 283.11 311.423 282.276 312.049 281.28C328.384 277.062 332.635 294.613 341.098 304.126C340.055 314.089 334.442 308.964 330.45 308.589C328.349 307.53 326.016 306.353 325.008 304.534C321.348 297.771 319.383 303.336 317 305.412C309.263 307.082 300.677 305.702 293.419 309.909C291.392 310.198 289.427 309.534 287.634 309.941Z" fill="#FDA740"/>
<path d="M340.855 304.984C335.627 300.404 329.482 297.642 326.947 288.556C325.085 281.436 316.32 284.519 311.986 279.737C311.056 279.27 310.223 278.526 309.526 278.176C320.249 269.566 329.835 277.312 339.861 280.722C350.255 290.827 363.232 294.417 375.523 299.942C377.286 301.153 378.853 302.917 379.661 305.276C374.325 317.243 367.089 309.05 361.311 306.798C353.574 303.887 359.806 310.273 358.753 311.698C358.166 313.355 357.443 314.62 356.256 315.651C348.409 316.917 343.451 313.123 340.855 304.984Z" fill="#FEAE47"/>
<path d="M339.434 283.594C329.975 279.143 320.16 276.487 309.864 277.542C306.625 276.563 301.268 278.467 301.403 272.606C301.575 267.423 306.489 269.907 309.125 270.251C313.46 270.465 317.191 270.046 319.666 265.368C324.999 265.099 329.15 268.185 333.3 271.271C338.386 274.83 343.805 278.228 349.002 271.302C350.16 269.582 349.581 267.313 350.738 265.592C351.834 264.828 352.832 264.344 354.199 264.377C356.736 265 358.842 266.065 360.886 268.086C365.517 273.721 364.335 277.076 358.178 278.905C356.515 279.711 354.717 280.12 353.054 280.927C348.769 283.701 343.929 282.572 339.434 283.594Z" fill="#FEAD4D"/>
<path d="M310.735 284.058C312.256 285.135 313.546 286.096 317.648 289.095C310.407 290.299 305.272 290.948 300.368 291.713C284.181 283.668 267.896 275.895 251.709 267.85C255.395 261.358 259.801 265.789 263.927 267.199C271.947 269.904 278.934 276.258 287.222 279.737C295.145 282.714 302.63 283.872 310.735 284.058Z" fill="#F5A13E"/>
<path d="M292.292 257.137C301.374 256.186 309.748 258.758 317.61 264.307C307.882 267.843 299.861 263.508 292.292 257.137Z" fill="#FEAD4D"/>
<path d="M216.254 264.077C218.24 271.075 213.054 274.77 211.404 280.257C202.509 281.072 196.504 276.03 193.328 266.099C193.489 264.849 193.787 264.001 193.75 263.317C195.536 258.231 200.114 260.22 202.992 258.351C207.384 256.916 210.82 258.992 213.86 262.197C214.704 262.958 215.646 263.436 216.254 264.077Z" fill="#FEB04C"/>
<path d="M214.129 261.813C210.402 261.562 206.541 260.924 203.459 258.105C195.711 252.32 187.867 246.809 180.119 241.024C185.283 238.78 188.146 243.737 191.983 245.969C195.918 247.928 198.684 253.158 203.847 250.914C207.526 254.351 213.397 254.706 214.129 261.813Z" fill="#F4911B"/>
<path d="M352.745 264.764C352.122 265.748 351.829 266.574 351.303 267.283C335.049 259.137 320.762 247.764 306.634 235.174C304.275 233.344 301.916 231.513 299.557 229.683C300.376 228.149 301.525 226.455 302.441 224.646C303.101 224.328 303.993 224.127 304.555 224.084C307.732 224.38 310.421 226.052 312.584 228.432C322.154 236.145 331.626 244.133 341.525 251.687C346.108 254.956 351.449 257.632 352.745 264.764Z" fill="#FEA738"/>
<path d="M306.447 235.601C321.222 246.19 335.998 256.779 351.005 267.483C352.139 269.658 351.749 270.751 349.701 270.373C338.205 262.064 326.477 253.639 315.079 245.056C311.47 242.934 307.008 241.674 306.447 235.601Z" fill="#FEB85B"/>
<path d="M251.126 182.932C264.5 195.014 281.546 198.363 296.124 207.843C296.502 210.59 295.59 212.377 293.388 213.202C278.774 209.143 265.426 201.553 252.855 191.79C248.985 188.908 245.116 186.026 240.552 182.799C244.786 180.103 247.817 186.088 251.126 182.932Z" fill="#FC9923"/>
<path d="M292.677 212.486C293.591 210.687 294.505 208.887 295.42 207.088C296.115 207.435 296.944 208.171 297.639 208.518C305.724 208.043 311.092 217.49 319.274 216.742C329.75 218.749 338.141 225.839 346.301 232.813C353.228 237.883 360.388 243.069 367.315 248.139C369.389 253.041 372.841 256.376 376.817 259.006C380.195 261.014 381.269 264.129 379.245 268.275C376.05 269.58 373.172 268.465 370.489 266.803C361.61 261.081 353.548 253.834 344.377 248.933C343.316 248.08 342.157 247.502 340.767 246.808C331.461 241.517 322.448 235.406 313.728 228.474C310.41 225.529 307.422 222.426 302.873 223.7L302.776 223.973C298.141 221.66 296.458 215.663 292.677 212.486Z" fill="#FDB358"/>
<path d="M297.459 456.962C288.644 453.177 278.48 451.654 273.869 439.861C277.437 442.963 281.091 443.496 285.369 443.037C295.95 441.831 289.954 437.833 286.681 433.899C288.348 429.186 291.376 430.71 294.466 431.286C306.555 439.004 320.618 443.471 327.608 459.401C328.785 462.279 331.716 464.081 330.441 467.685C329.166 471.29 326.052 472.335 323.624 471.439C314.478 467.815 303.529 468.509 297.459 456.962Z" fill="#FAA33D"/>
<path d="M293.54 433.56C291.549 432.239 289.693 431.309 287.519 432.81C286.688 432.071 285.992 431.722 285.161 430.982C284.452 428.362 285.368 426.555 286.98 425.096C290.473 422.961 294.443 423.33 298.241 422.642C301.612 422.388 304.788 422.684 307.903 423.92C311.018 425.155 314.462 426.233 317.186 428.568C322.415 435.393 329.792 436.174 336.486 438.878C339.833 440.23 343.778 442.206 343.937 447.141C343.938 453.291 339.114 453.789 335.315 454.476C320.377 449.586 308.503 436.844 293.54 433.56Z" fill="#DB831B"/>
<path d="M288.343 426.504C287.424 428.329 286.504 430.153 285.585 431.977C277.993 427.828 270.402 423.679 262.811 419.53C260.309 417.29 256.851 416.202 257.157 411.455C260.37 410.132 263.325 410.313 265.668 413.78C269.2 416.212 272.253 416.115 275.723 413.288C277.048 412.648 278.409 412.68 279.905 413.106C284.7 415.848 287.975 419.784 288.343 426.504Z" fill="#E28E2C"/>
<path d="M273.913 465.134C274.443 464.414 274.837 463.295 275.367 462.574C276.906 463.682 278.446 464.79 279.986 465.898C288.62 465.65 294.028 472.996 300.359 478.503C303.02 483.472 303.513 488.334 298.968 492.626C292.933 492.54 286.86 491.777 283.719 484.259C281.341 482.398 278.866 480.817 276.722 479.074C279.321 478.741 281.92 478.407 284.753 478.192C280.959 473.309 278.73 467.898 273.913 465.134Z" fill="#FCA844"/>
<path d="M299.127 477.42C290.626 477.389 287.644 466.405 280.358 463.716C285.178 458.624 293.25 465.305 296.856 456.659C307.172 460.874 317.256 464.972 328.504 469.657C321.744 447.615 305.221 443.87 292.45 434.168C295.063 432.215 298.35 432.236 300.252 433.847C310.924 442.493 323.755 445.032 334.293 453.282C339.384 455.192 345.198 455.832 349.112 461.073C356.828 469.537 368.616 469.589 375.511 479.601C375.266 483.401 372.947 484.522 370.494 485.248C364.557 486.508 359.491 482.975 353.836 481.108C356.498 482.122 358.73 483.573 359.479 486.893C353.322 496.543 344.171 492.914 336.112 494.741C334.382 494.196 331.953 493.3 331.744 491.56C329.278 477.566 320.703 476.19 311.209 476.639C307.124 476.544 303.076 477.121 299.127 477.42Z" fill="#EC952E"/>
<path d="M278.218 500.067C281.164 494.083 277.313 491.827 274.122 489.254C276.298 487.75 278.388 488.798 280.381 490.122C293.51 488.595 303.731 499.883 316.212 500.951C319.232 502.465 321.494 504.572 322.607 508.374C321.752 515.407 318.855 518.171 313.207 514.042C313.194 511.765 312.155 509.297 310.468 509.425C298.598 511.259 288.695 503.698 278.218 500.067Z" fill="#FAA541"/>
<path d="M315.255 503.406C302.146 503.994 292.065 493.69 280.39 489.445C281.31 487.621 282.229 485.797 283.149 483.973C288.275 486.554 294.186 486.916 298.625 491.438C303.751 487.811 308.852 485.805 314.677 488.738C319.117 493.261 321.766 498.189 315.255 503.406Z" fill="#E8922D"/>
<path d="M210.849 378.394C214.561 382.477 219.89 381.285 224.088 384.01C235.575 388.436 244.751 397.793 255.034 404.821C256.786 406.011 256.567 408.142 255.327 410.085C253.806 409.01 252.285 407.934 250.763 406.859C239.277 402.433 229.736 392.574 217.471 390.321C214.429 388.17 211.155 385.904 208.113 383.753C205.546 384.078 203.003 382.814 203.841 379.712C205.069 375.523 208.647 379.22 210.849 378.394Z" fill="#FEAC4A"/>
<path d="M211.145 378.962C212.123 382.364 200.752 376.671 208.3 384.657C195.892 382.652 186.046 371.898 173.674 370.558C175.408 367.219 178.302 364.461 181.551 366.087C191.066 370.851 202.766 370.236 211.145 378.962Z" fill="#FBA746"/>
<path d="M255.314 409.931C247.572 396.362 234.167 392.565 223.973 383.586C224.595 382.605 224.888 381.782 225.51 380.8C236.328 388.797 247.243 396.52 258.06 404.517C261.247 407.081 265.715 408.347 266.375 414.172C263.628 413.444 260.649 412.6 257.902 411.873C256.742 411.293 256.144 410.67 255.314 409.931Z" fill="#F7A442"/>
<path d="M346.876 231.917C337.299 228.092 327.879 223.051 319.804 215.768C320.72 213.96 321.636 212.152 322.552 210.344C330.432 218.176 341.817 219.993 346.876 231.917Z" fill="#F69C30"/>
<path d="M238.759 484.118C245.518 482.01 248.96 489.216 254.158 491.491C258.833 500.605 269.728 499.918 273.976 509.464C262.164 505.82 251.329 499.437 240.591 492.779C242.554 489.565 241.712 486.562 238.759 484.118Z" fill="#EB9733"/>
<path d="M140.923 248.553C140.617 247.101 140.311 245.649 140.006 244.197C144.261 241.461 147.587 244.429 151.305 246.294C154.925 248.434 157.664 246.886 157.603 241.661C168.451 251.973 181.231 258.384 194.108 264.52L194.341 264.636C194.757 268.092 193.914 271.24 191.676 273.689C188.741 275.789 185.843 278.556 182.48 274.92C178.224 271.486 173.809 269.272 170.702 264.142C168.195 259.637 163.768 255.143 159.475 257.211C150.524 260.837 146.378 253.238 140.923 248.553Z" fill="#F2901B"/>
<path d="M312.423 513.461C316.396 514.13 319.441 512.648 321.521 508.324C321.583 500.96 325.142 500.412 330.067 501.564C330.681 502.211 331.433 503.265 331.132 504.121C329.365 509.948 329.466 516.05 331.283 519.661C330.719 522.064 329.679 524.226 328.025 525.741C321.872 529.681 315.932 529.023 310.306 523.481C308.589 519.585 310.982 516.764 312.423 513.461Z" fill="#F49D37"/>
<path d="M310.271 523.862C315.492 523.872 320.959 526.302 326.401 524.128C332.346 522.864 338.329 522.275 344.005 526.45C344.976 527.595 345.614 528.901 345.823 530.646C334.141 534.919 322.507 535.937 311.327 528.658C310.885 526.795 310.578 525.328 310.271 523.862Z" fill="#E38C27"/>
<path d="M190.749 330.449C193.486 331.168 196.454 332.002 199.19 332.721C213.481 333.103 224.673 344.408 237.931 348.431C244.28 353.499 251.469 355.469 258.305 359.18C263.925 363.247 271.04 363.902 276.696 368.626C279.737 370.774 283.009 373.037 284.348 376.896C287.39 385.116 284.606 387.568 277.746 385.442C256.776 374.077 235.319 364.069 213.668 354.603C208.28 350.651 202.891 346.699 197.271 342.632C195.567 338.272 188.355 337.888 190.749 330.449Z" fill="#FDAA48"/>
<path d="M276.753 384.979C278.758 384.004 282.373 383.18 282.435 382.216C282.534 375.627 277.434 374.37 273.831 371.217C279.686 363.231 285.628 371.553 291.224 371.401C299.926 375.811 309.557 378.368 316.007 387.611C318.359 395.11 311.761 395.75 309.57 399.618C306.933 401.601 304.878 399.564 302.625 398.09C298.8 397.148 296.126 392.141 291.274 393.334C294.245 397.495 298.899 396.866 302.328 398.936C303.504 399.532 304.581 400.409 305.225 401.731C306.376 403.974 307.862 406.055 309.78 407.691C320.154 417.595 319.857 418.441 307.738 426.904C304.953 426.156 301.833 425.571 299.048 424.824C298.021 420.652 297.835 417.238 292.252 419.72C287.437 421.595 284.008 413.218 278.549 413.771C277.707 413.013 277.001 412.655 276.159 411.897C275.417 404.55 269.215 404.062 265.81 400.345C267.023 395.317 270.799 393.247 273.968 390.538C274.797 388.967 278.585 389.227 276.753 384.979Z" fill="#F9A23B"/>
<path d="M274.232 392.307C274.965 399.451 270.511 400.453 266.192 401.845C256.381 395.651 247.839 385.894 236.198 383.304C232.428 382.388 230.719 377.984 228.717 374.402C240.125 370.743 248.143 381.205 257.807 384.744C263.103 386.745 268.57 389.8 274.232 392.307Z" fill="#FCAD4B"/>
<path d="M203.034 326.355C195.521 319.62 185.836 316.703 180.728 306.27C190.56 293.216 200.222 303.98 209.907 306.898C215.419 312.296 219.715 301.691 225.816 305.421C230.985 308.681 236.84 309.996 239.836 317.072C242.77 318.879 232.115 321.039 240.033 322.738C243.593 323.55 246.367 326.586 246.196 331.739C238.021 337.769 230.483 332.66 222.86 330.127C212.708 326.974 204.458 319.213 196.294 315.098C199.118 321.106 210.203 318.507 211.492 329.636C207.393 333.463 204.986 330.941 203.034 326.355Z" fill="#FDAD4B"/>
<path d="M210.672 312.678C201.486 306.103 192.078 301.7 181.264 306.691C180.333 306.223 179.733 305.595 178.9 304.851C175.605 302.542 172.505 299.68 169.112 297.649C161.53 293.511 167.213 289.85 169.283 286.328C176.375 285.657 183.05 287.71 189.762 290.433C194.98 292.73 199.966 294.911 204.988 297.762C206.936 302.326 218.143 302.42 210.672 312.678Z" fill="#FEB352"/>
<path d="M202.503 326.968C205.19 328.635 207.717 331.516 210.879 329.542C220.83 329.994 228.437 337.033 236.007 343.408C237.741 346.215 240.135 348.706 237.413 352.517C224.458 346.682 211.308 341.396 199.427 332.542C200.441 330.462 201.356 328.657 202.503 326.968Z" fill="#E38F2D"/>
<path d="M189.055 292.394C182.15 292.512 175.858 289.343 169.896 286.014C171.38 284.146 173.968 283.815 174.643 279.579C167.627 277.68 160.022 277.446 153.362 273.764C163.063 268.844 172.373 277.455 181.891 275.384C184.344 274.658 186.797 273.932 189.25 273.206C193.617 276.386 199.737 278.488 199.382 286.481C199.162 294.869 191.115 286.567 189.055 292.394Z" fill="#FCA843"/>
<path d="M286.491 310.809C287.713 310.448 288.936 310.088 290.159 309.728C302.667 309.185 312.474 317.025 322.575 324.039C326.463 326.963 331.134 327.683 334.729 331.434C341.798 340.821 353.328 343.034 359.247 354.117C360.239 359.808 356.962 359.787 353.685 359.766C348.721 359.873 344.269 356.991 339.501 356.547C324.999 355.765 312.698 345.7 298.942 342.046C297.083 341.114 294.992 340.065 293.427 338.306C287.826 330.953 280.183 325.497 277.48 315.377C280.316 313.554 283.606 315.853 286.381 314.973C291.504 313.648 287.127 312.102 286.491 310.809Z" fill="#FDA73F"/>
<path d="M221.316 295.617C227.421 287.673 233.283 295.784 238.547 297.125C251.724 300.809 263.827 307.514 274.136 318.498C277.629 322.511 286.398 323.989 283.297 331.172C280 338.905 272.734 333.973 267.531 331.692C261.07 329.106 255.623 324.438 249.456 321.027C240.32 312.895 230.793 305.862 220.547 300.085C219.545 298.29 219.801 296.801 221.316 295.617Z" fill="#F29F3D"/>
<path d="M222.118 296.544C221.821 297.387 221.191 298.393 220.795 299.518C215.221 308.289 210.004 296.371 204.566 299.248C198.41 299.443 193.837 295.139 188.732 291.559C187.149 289.764 183.936 289.461 184.22 286.293C184.541 283.805 186.951 284.032 188.793 284.303C191.339 284.93 193.429 287.644 197.236 286.26C196.432 279.89 187.965 279.577 188.929 272.115C190.486 269.26 192.044 266.405 193.366 263.431C196.926 272.19 204.738 275.153 210.956 280.29C217.593 282.658 216.877 292.564 222.118 296.544Z" fill="#F5A13E"/>
<path d="M251.631 317.77C260.98 323.125 269.447 330.972 281.626 332.205C281.221 324.826 273.196 325.03 273.857 318.513C275.082 318.151 276.307 317.789 277.532 317.426C284.958 322.792 290.803 330.298 295.79 338.678C292.446 345.802 286.442 339.52 282.178 342.268C279.728 342.992 277.008 342.928 274.582 342.034C268.529 338.99 262.806 335.785 256.104 335.349C252.183 334.03 247.968 333.54 245.787 328.855C240.727 325.331 235.997 321.648 230.336 317.496C232.504 313.694 236.781 319.433 239.219 316.419C243.617 314.066 247.293 319.176 251.631 317.77Z" fill="#EE9A37"/>
<path d="M222.806 272.214C231.773 273.143 238.2 281.22 246.971 282.699C250.05 283.27 253.08 287.055 251.053 291.221C249.746 294.129 245.971 293.209 243.711 291.106C236.404 285.503 227.95 281.592 222.806 272.214Z" fill="#E69231"/>
<path d="M322.949 328.551C313.344 319.102 300.948 316.786 290.753 309.01C298.365 300.697 306.924 301.404 315.827 304.257C322.751 304.138 322.321 310.821 323.28 315.905C314.746 319.81 328.187 324.625 322.949 328.551Z" fill="#F69E36"/>
<path d="M322.232 315.931C317.561 313.573 320.314 305.77 315.643 303.413C320.608 292.459 324.075 299.79 327.862 304.655C332.865 313.09 344.383 307.741 348.034 318.448C348.624 323.014 353.369 326.722 349.571 332.027C339.147 330.377 328.785 327.774 322.232 315.931Z" fill="#FBA23B"/>
<path d="M346.954 317.823C342.933 314.511 338.619 312.024 333.657 312.131C329.025 312.079 327.522 309.38 328.254 304.237C332.287 303.665 336.345 307.643 340.402 305.462C345.609 307.748 349.056 314.986 355.826 312.868C361.081 311.936 365.261 314.031 367.51 320.021C360.007 327.282 356.598 326.87 346.954 317.823Z" fill="#F49C34"/>
<path d="M364.492 265.456C371.487 271.837 380.005 273.189 387.743 276.724C394.787 279.914 402.221 282.012 405.671 291.447C394.826 292.793 386.513 280.934 375.705 282.941C367.395 283.3 367.32 269.759 359.301 269.299C356.949 267.484 354.5 265.941 352.379 264.241C338.876 256.225 327.956 244.03 314.49 236.675C312.175 235.521 310.968 232.026 309.14 229.507C312.404 223.418 315.403 228.771 317.852 230.313C326.127 235.402 333.391 242.559 342.25 246.011C350.33 251.646 359.75 255.055 364.492 265.456Z" fill="#F9A23B"/>
<path d="M343.174 245.761C336.426 247.859 332.661 240.846 327.569 238.31C321.551 235.313 317.518 227.524 309.844 229.162C307.493 227.349 305.045 225.808 302.925 224.11C304.691 221.457 307.09 220.083 310.001 221.854C321.026 229.914 332.149 237.701 343.174 245.761Z" fill="#F9AA4F"/>
<path d="M306.874 425.794C309.177 422.384 311.579 418.697 313.883 415.287C310.108 410.45 300.132 412.284 303.452 400.574C320.99 398.302 334.718 409.126 348.74 419.119C353.802 422.645 358.472 427.28 362.811 432.074C363.78 433.214 364.65 434.631 365.189 436.208C366.011 440.864 363.327 441.472 360.606 441.408C356.856 441.153 353.987 438.404 350.727 436.763C342.772 432.108 342.674 432.385 340.432 441.048C331.461 438.492 322.783 435.104 315.183 428.67C312.193 427.817 309.178 428.585 306.874 425.794Z" fill="#FEA73F"/>
<path d="M314.336 429.325C324.12 430.334 331.591 438.649 340.653 440.923C345.453 439.753 348.882 442.454 352.249 446.101C354.589 449.556 355.703 453.374 355.263 457.713C354.455 461.541 352.141 462.658 348.957 462.361C345.479 456.704 337.079 460.299 334.813 451.994C336.992 450.484 339.502 448.814 342.343 446.984C334.334 437.096 319.554 443.999 314.336 429.325Z" fill="#DB831C"/>
<path d="M277.794 414.313C285.906 412.467 293.375 421.87 301.56 415.101C302.795 421.017 294.4 419.743 298.24 425.324C294.98 428.304 291.672 428.283 288.116 425.821C284.19 422.842 282.486 416.688 277.794 414.313Z" fill="#E7922D"/>
<path d="M312.96 489.272C308.426 490.306 303.829 492.308 299.046 490.883C299.058 486.888 300.45 482.926 298.611 478.66C301.642 473.196 305.605 472.206 310.028 475.449C315.172 475.057 317.209 478.758 317.843 484.08C318.439 488.716 315.718 489.337 312.96 489.272Z" fill="#FBA43E"/>
<path d="M312.566 488.718C319.974 481.841 312.045 479.152 309.877 475.062C324.917 471.721 328.72 474.313 332.523 489.532C332.969 491.419 334.753 492.655 336.103 494.337C339.461 495.042 340.08 498.014 339.931 501.593C337.503 505.346 334.964 507.049 331.656 503.047C327.494 502.266 324.719 503.85 322.427 508.004C320.036 506.128 317.546 504.533 315.391 502.776C317.942 497.092 316.877 492.233 312.566 488.718Z" fill="#F29B35"/>
<path d="M338.779 499.372C337.628 497.131 336.614 495.29 335.463 493.048C342.33 486.907 351.227 490.751 358.54 486.495C361.881 484.87 364.962 484.773 367.127 488.856C372.906 492.115 373.834 496.567 370.048 502.61C366.954 506.682 362.834 506.585 358.751 507.17C351.215 507.332 342.764 511.675 338.779 499.372Z" fill="#F29B35"/>
<path d="M338.47 500.143C344.706 507.615 352.29 504.16 359.355 503.76C360.209 506.846 360.592 509.694 359.269 512.672C357.772 514.567 355.965 514.978 354.023 514.989C345.461 510.983 338.273 525.916 329.686 517.253C329.253 511.395 325.294 516.354 323.067 513.236C325.393 509.77 328.053 506.143 330.812 502.233C333.595 502.981 336.305 502.363 338.47 500.143Z" fill="#FBA43E"/>
<path d="M329.382 517.501C334.231 517.959 339.614 517.686 342.623 513.874C347.136 508.155 350.853 511.042 354.968 512.795C353.862 519.908 347.521 517.359 344.376 520.769C344.289 523.394 344.065 525.616 343.978 528.241C338.707 524.233 331.533 529.603 326.722 523.492C327.518 521.227 328.45 519.364 329.382 517.501Z" fill="#F39C36"/>
<path d="M291.83 376.104C286.329 374.644 281.341 370.197 274.961 371.215C270.034 365.826 262.529 366.928 257.077 362.249C258.042 357.219 261.782 357.473 264.654 356.318C266.207 355.799 267.564 355.831 268.823 356.137C273.529 357.524 277.551 360.837 281.964 363.05C286.744 365.77 294.518 365.452 291.83 376.104Z" fill="#EC9835"/>
<path d="M265.02 360.48C262.574 361.201 260.03 362.199 257.351 362.803C251.101 358.043 242.857 358.129 237.193 351.714C237.474 348.606 235.908 346.846 233.915 345.521C239.406 338.531 243.712 344.915 248.69 347.088C253.913 351.658 262.585 351.137 265.02 360.48Z" fill="#E69330"/>
<path d="M291.734 374.682C290.824 366.345 285.072 367.052 280.242 365.928C282.638 353.679 291.906 363.28 296.773 358.843C298.653 355.854 295.469 351.621 298.284 349.103C301.701 347.216 304.97 348.866 308.006 350.399C321.588 357.909 338.512 355.947 349.341 371.259C352.107 378.235 348.346 377.978 344.253 377.882C342.324 377.893 338.378 374.26 339.878 380.925C340.185 382.393 340.026 383.626 339.067 384.783C329.898 387.377 322.167 378.88 313.514 378.452C318.086 381.088 324.17 380.219 327.034 386.916C327.649 389.852 326.125 391.053 324.232 391.739C321.405 391.953 319.07 390.775 317.03 388.76C309.114 383.124 301.063 377.092 291.734 374.682Z" fill="#F9A13A"/>
<path d="M363.046 435.758C345.358 419.51 326.073 406.977 304.082 400.508C303.155 400.045 302.557 399.424 301.727 398.687C301.556 397.635 301.752 397.087 302.276 396.382C302.703 395.95 303.032 395.792 303.264 395.908C305.252 397.224 307.106 398.149 309.374 396.381C312.776 390.664 316.729 394.895 319.742 396.4C331.793 402.418 344.454 405.194 356.31 411.76C361.043 413.801 365.251 416.548 369.167 420.115C372.387 423.336 374.949 426.872 372.437 432.388C369.926 437.904 366.315 435.779 363.046 435.758Z" fill="#F9A138"/>
<path d="M354.862 414.062C338.99 410.325 324.446 402.091 309.354 396.163C307.193 387.663 314.221 392.465 316.087 389.526C318.259 388.03 320.211 388.682 322.102 390.273C331.887 398.066 344.99 396.546 353.897 406.804C355.264 409.1 355.838 411.323 354.862 414.062Z" fill="#FEA63F"/>
<path d="M303.416 396.748C302.786 397.752 302.49 398.594 301.86 399.598C296.144 405.633 291.156 397.817 286.008 397.526C282.465 397.386 284.304 391.372 287.638 389.753C294.638 386.352 299.897 388.683 303.416 396.748Z" fill="#F49D36"/>
<path d="M247.748 351.005C243.245 349.078 240.207 343.042 234.473 345.34C226.615 339.8 218.989 334.375 211.228 328.561C204.895 324.106 198.795 319.767 192.559 315.038C210.739 317.668 226.406 331.951 245.488 330.514C249.453 330.882 253.089 331.408 256.31 334.632C259.214 334.146 261.374 336.517 263.497 338.223C267.048 341.288 268.793 346.355 267.232 350.738C265.22 357.155 260.876 354.016 256.972 352.71C253.995 351.868 251.078 350.088 247.748 351.005Z" fill="#FDAD4B"/>
<path d="M251.971 318.694C247.557 322.648 243.607 320.667 239.584 317.349C233.933 313.216 228.479 308.532 221.423 307.589C213.437 306.18 223.074 312.963 219.467 313.102C216.519 312.922 213.535 312.074 210.454 311.502C213.522 303.626 205.94 303.394 203.898 299.122C209.192 292.687 214.574 302.205 219.954 299.385C232.575 300.846 241.112 312.272 251.971 318.694Z" fill="#FDAD4B"/>
<path d="M338.221 353.49C343.623 357.475 349.025 361.459 354.756 365.286C353.794 370.282 361.232 372.383 358.063 378.21C354.21 379.83 351.625 377.896 350.38 373.732C337.929 360.431 320.835 360.918 306.433 353.086C305.897 351.53 310.042 349.09 305.482 348.102C302.506 347.261 300.116 344.78 299.762 340.416C308.309 340.172 315.333 344.966 322.649 348.94C327.746 351.484 332.807 353.365 338.221 353.49Z" fill="#E99128"/>
<path d="M321.931 316.299C331.545 320.791 340.281 327.756 350.64 329.383C353.841 328.071 356.626 329.466 359.119 331.686C361.513 334.18 363.248 336.992 361.551 340.999C350.203 346.002 342.09 338.053 333.294 332.028C329.714 330.56 326.037 329.365 322.458 327.897C322.445 325.624 321.675 323.943 320.014 322.463C312.244 316.628 320.783 317.991 321.931 316.299Z" fill="#ED942D"/>
<path d="M332.902 331.966C342.237 335.03 351.436 337.701 360.771 340.765C361.996 340.403 363.552 339.881 364.813 340.189C369.26 340.796 375.532 341.667 375.532 347.861C375.276 355.556 368.894 352.673 364.716 352.854C362.793 352.865 361.274 354.057 359.756 355.249C350.923 346.896 338.906 344.439 332.902 331.966Z" fill="#FCA43C"/>
<path d="M299.903 341.097C304.633 344.782 309.265 348.743 315.735 349.062C313.713 355.548 308.812 350.798 306.471 353.536C303.678 352.13 301.374 349.34 297.968 351.215C289.782 352.643 284.452 348.33 281.584 339.385C285.651 330.992 290.982 341.503 295.307 337.807C296.839 338.904 298.371 340.001 299.903 341.097Z" fill="#DD851D"/>
<path d="M247.257 350.364C253.129 340.747 258.297 355.957 264.393 350.429C265.987 341.958 260.077 338.302 255.935 333.553C263.749 330.22 269.536 335.802 275.483 340.14C269.041 343.505 275.977 345.03 276.225 347.475C277.152 351.921 280.453 355.913 277.869 360.901C273.394 362.61 271.082 355.805 266.705 357.233C266.173 357.958 265.778 359.083 265.246 359.808C260.263 354.302 252.672 355.427 247.257 350.364Z" fill="#FDAA48"/>
<path d="M274.679 346.708C273.012 345.217 271.345 343.725 269.911 342.351C271.664 341.275 273.551 340.593 275.304 339.516C277.228 339.506 279.287 339.889 281.444 339.995C286.873 344.033 292.401 347.793 297.831 351.83C301.03 354.419 305.123 356.805 302.17 362.825C291.74 360.514 280.293 360.302 274.679 346.708Z" fill="#FDAD4B"/>
<path d="M364.61 437.949C366.447 440.499 368.516 443.167 370.255 445.994C365.224 453.232 358.6 447.951 352.638 448.536C348.745 445.603 344.852 442.67 340.86 440.014C341.056 433.275 331.274 432.267 333.881 424.136C345.095 426.515 353.372 437.185 364.61 437.949Z" fill="#FDAB43"/>
<path d="M274.394 347.152C282.207 355.336 293.564 355.826 301.672 363.177C297.576 366.997 292.854 365.6 288.598 364.437C285.274 363.744 282.514 363.008 280.577 366.935C275.744 363.521 270.912 360.107 266.312 356.81C267.539 356.447 269.194 355.647 270.127 356.116C277.056 360.586 276.443 357.663 273.389 351.549C273.119 350.759 274.137 348.657 274.394 347.152Z" fill="#FBA744"/>
<path d="M349.587 373.576C352.27 375.239 354.796 378.113 358.052 375.87C366.224 372.857 372.434 379.183 379.35 381.993C384.621 391.72 392.831 395.498 402.113 396.265C408.249 395.137 412.726 398.663 416.813 403.284C418.374 405.032 419.741 407.327 420.875 409.506C422.742 412.696 423.987 416.865 422.024 420.076C419.536 423.993 415.437 423.236 411.998 422.163C408.094 420.858 404.483 418.732 400.385 417.975C393.041 415.597 385.795 412.945 379.196 407.714C366.947 396.114 350.883 392.927 339.061 380.895C337.536 379.811 336.011 378.727 334.584 377.369C332.23 375.548 330.4 373.022 332.692 369.652C334.46 366.988 336.546 368.03 338.632 369.072C342.243 371.198 344.976 375.788 349.587 373.576Z" fill="#FCA63E"/>
<path d="M338.993 382.076C355.193 385.008 368.325 395.813 381.848 405.515C377.986 413.314 374.403 405.675 371.261 406.047C374.195 410.115 382.167 409.245 382.119 418.632C371.116 421.875 362.801 414.46 354.23 408.539C347.945 403.115 340.193 401.824 333.26 398.996C328.749 397.058 323.614 396.105 322.317 388.965C323.539 388.604 324.762 388.244 325.984 387.883C332.427 379.756 336.988 390.806 342.674 389.438C344.141 391.472 345.045 387.383 343.896 389.078C343.798 389.354 343.432 388.845 342.735 388.496C340.509 387.055 339.372 384.862 338.993 382.076Z" fill="#F9A23B"/>
<path d="M339.348 382.499C342.433 385.328 346.762 386.2 348.738 391.375C340.021 402.81 334.141 384.088 326.606 388.382C319.752 384.638 313.131 381.011 303.594 375.606C318.08 374.783 328.348 381.197 339.348 382.499Z" fill="#EB932B"/>
</g>
</svg>
