<svg width="171" height="657" viewBox="0 0 171 657" fill="none" xmlns="http://www.w3.org/2000/svg">
<g opacity="0.8">
<path d="M101.26 293.948C101.616 299.232 102.312 304.347 104.521 309.229C102.868 330.075 101.214 331.678 86.6706 330.333C84.8128 328.917 83.3929 327.023 82.6043 324.035C81.9949 314.976 76.5086 306.784 78.0931 297.154C82.8683 294.778 81.3976 292.129 78.1198 288.819C73.3158 280.288 73.7344 272.538 79.4723 265.262C80.9286 262.457 82.6292 259.791 84.3298 257.124C85.4957 255.244 87.1504 253.64 89.1002 252.93C96.2822 256.638 90.4014 265.285 93.684 270.413C96.34 278.453 100.116 285.676 101.26 293.948Z" fill="#F8AE55"/>
<path d="M13.7966 134.541C22.2213 147.729 33.0579 156.816 44.7748 164.011C50.0498 167.284 55.4657 170.975 58.0953 178.221C57.9152 180.502 56.7532 181.557 54.8424 181.515C30.7039 165.032 5.40797 151.308 -14.3295 125.367C-6.09745 119.398 1.13221 121.716 13.7966 134.541Z" fill="#FB9F30"/>
<path d="M5.18069 492.953C0.170841 493.937 -4.84835 491.469 -9.49127 489.557C-19.8571 484.783 -30.9221 481.34 -38.4034 469.223C-40.5728 463.873 -40.9143 458.857 -36.6616 455.037C-21.2859 458.828 -7.11788 466.421 3.65231 482.104C5.34787 485.466 7.9329 488.637 5.18069 492.953Z" fill="#EC9835"/>
<path d="M83.5822 327.401C96.808 332.661 98.6526 319.414 102.732 309.26C112.364 321.285 100.417 331.399 102.129 342.622C93.2754 343.857 95.3339 354.909 92.0859 361.503C89.6743 366.371 87.1916 363.139 84.8118 361.431C81.4163 349.991 76.8334 338.615 83.5822 327.401Z" fill="#FACE99"/>
<path d="M71.7112 404.538C72.0342 416.313 65.5315 422.405 58.6285 424.286C53.9131 425.596 50.8112 429.995 46.2887 430.69C41.9859 422.453 41.769 413.999 46.1757 406.356C53.2259 404.921 57.7292 396.97 64.5358 395.397C68.1392 396.717 71.1131 399.128 71.7112 404.538Z" fill="#FCE0BE"/>
<path d="M55.489 181.2C55.77 180.308 56.2875 179.55 56.5686 178.658C59.0768 180.424 61.2548 182.354 63.763 184.121C66.8472 189.364 65.3577 197.627 71.5076 201.099C72.887 204.679 72.2803 207.488 70.5403 210.357C69.5988 211.576 68.278 212.231 67.0508 212.589C61.5706 212.295 56.9289 207.574 51.6807 205.661C43.5448 201.417 41.1515 189.561 34.2381 183.206C33.1491 182.241 34.7464 178.941 36.3483 177.395C41.6763 173.75 45.8449 178.205 50.6693 180.579C52.3203 179.761 53.6552 184.366 55.489 181.2Z" fill="#F79E32"/>
<path d="M14.9383 135.178C5.61438 131.321 -3.57194 126.151 -13.3133 124.492C-17.6721 130.379 -23.085 129.071 -28.7335 127.63C-33.0666 125.539 -35.8046 121.913 -36.1031 115.837C-31.3759 107.029 -22.1895 112.199 -16.5597 106.679C-12.8935 105.615 -9.59589 107.47 -6.90692 110.374C-1.94644 118.378 6.33736 120.26 11.3911 127.969C13.56 129.884 15.1645 131.83 14.9383 135.178Z" fill="#FBD09D"/>
<path d="M-17.7246 73.0328C-14.3372 72.8532 -10.9497 72.6736 -7.56227 72.4941C-0.0175305 78.48 8.79401 83.0926 10.7117 96.3433C9.87181 99.0002 8.17807 99.09 6.43536 98.4567C3.04326 96.8949 0.962326 92.9415 -2.24314 90.7893C-4.83504 89.3302 -7.47126 88.8894 -10.4364 88.6112C-12.6014 88.4357 -14.8597 88.5554 -17.2114 88.9703C-18.9984 89.3553 -20.8344 89.0172 -22.4838 88.0887C-25.4537 86.0692 -27.25 82.9715 -27.5439 78.6331C-27.5486 76.8917 -27.1753 75.7108 -26.2375 74.5C-23.6549 72.4764 -20.5918 74.2007 -17.7246 73.0328Z" fill="#F9B769"/>
<path d="M102.072 293.17C97.3769 286.864 93.4681 279.907 92.0666 271.443C93.8268 248.328 93.8268 248.328 100.758 243.842C100.768 247.501 99.9915 251.811 101.132 254.647C106.879 267.758 105.583 280.177 102.072 293.17Z" fill="#FCE1C0"/>
<path d="M-20.3738 490.831C-17.7626 499.26 -11.3546 501.825 -6.16474 506.487C-0.503504 511.414 -2.56642 514.427 -6.79486 517.265C-17.1559 514.911 -24.4763 505.57 -32.2634 497.706C-34.8654 492.761 -39.5348 489.088 -36.1651 481.94C-29.8598 481.315 -24.2079 482.758 -20.3738 490.831Z" fill="#FBB665"/>
<path d="M47.7499 407.68C46.0724 415.767 46.9675 423.868 46.6978 432.032C42.8185 433.446 39.2833 436.502 34.9083 434.02C33.8159 424.722 26.0743 415.628 32.649 405.619C34.7307 403.546 37.3995 403.253 39.9216 402.515C42.5904 402.221 45.1629 402.234 47.1121 405.148C47.4057 406.038 47.4563 406.79 47.7499 407.68Z" fill="#F7AD52"/>
<path d="M35.4605 406.532C32.8764 411.158 32.023 415.691 35.2576 420.754C38.2515 425.68 38.4563 430.456 35.6314 434.945C34.0915 434.429 32.6017 434.658 31.6934 436.651C30.4443 437.017 29.3859 436.775 28.3729 435.482C27.2144 433.749 26.0559 432.016 24.8975 430.283C20.0276 425.009 11.2291 425.03 11.2461 413.212C14.9386 409.574 20.8621 413.296 23.7323 407.758C28.1018 405.579 31.2081 398.383 37.0363 402.409C37.2317 403.595 37.1864 404.645 36.6596 405.421C36.0374 406.501 35.7013 406.669 35.4605 406.532Z" fill="#F49A2D"/>
<path d="M84.7078 360.999C86.6583 362.105 88.4158 363.827 90.7985 362.64C88.4398 372.902 91.9376 388.297 78.0637 389.492C73.1003 390.664 69.7327 387.667 67.9149 381.562C68.1203 367.179 81.7648 371.292 84.7078 360.999Z" fill="#F9BA6E"/>
<path d="M5.40054 492.262C5.63129 488.819 3.99543 486.817 2.02421 484.983C1.51563 473.97 -8.56649 470.033 -9.84076 459.657C-4.44983 448.776 1.08804 457.282 6.61177 460.419C8.43795 461.813 9.59356 463.542 9.88835 466.212C7.17028 472.176 9.29592 478.03 10.3658 483.642C11.8209 489.831 10.3893 492.593 5.40054 492.262Z" fill="#F8A441"/>
<path d="M68.5925 207.01C69.3437 204.623 70.001 202.534 68.811 200.104C65.2102 199.122 61.4616 195.948 64.3864 191.978C68.3488 186.487 72.2453 191.854 75.4305 196.818C83.6929 206.059 91.6244 215.465 94.408 229.692C94.0817 231.616 93.0888 232.109 91.6217 232.334C89.5373 231.858 88.0655 230.323 86.6877 228.489C82.8265 218.574 76.6532 211.568 68.5925 207.01Z" fill="#FBD4A6"/>
<path d="M69.7396 379.96C69.9477 386.481 74.7257 387.414 77.7895 390.219C74.3112 393.225 79.3022 402.46 72.4263 402.827C69.2678 400.324 66.1094 397.82 62.8562 395.619C61.2179 390.065 55.5686 384.725 59.5157 378.428C62.3216 373.973 66.6214 374.634 69.7396 379.96Z" fill="#F8BB71"/>
<path d="M91.3634 231.365C91.8082 230.882 92.103 229.949 92.5478 229.466C97.8582 232.091 101.043 236.819 102.004 243.961C94.0914 250.502 98.9351 263.865 93.2563 271.665C85.6089 266.256 94.9075 259.029 91.5211 253.087C89.9655 245.977 88.5081 238.556 91.3634 231.365Z" fill="#FAC485"/>
<path d="M76.3501 196.933C74.5774 196.284 72.9946 195.028 71.3667 194.818C69.8337 194.304 68.1015 190.824 67.0074 193.413C65.3889 196.775 68.265 198.407 69.563 200.571C56.1147 201.14 64.2215 189.692 63.4385 183.184C70.9042 182.785 74.319 189.003 76.3501 196.933Z" fill="#FACB92"/>
<path d="M27.6938 436.387C28.6674 436.94 29.3976 437.354 30.3712 437.906C31.3954 439.211 34.4633 441.314 31.9883 442.805C26.0187 446.297 21.4131 450.924 20.4635 459.436C18.4246 460.451 16.6244 459.792 15.0169 458.518C13.8963 457.52 13.1155 456.353 12.4311 454.879C12.0865 453.235 12.2287 451.868 12.4673 450.193C13.5783 447.566 15.5667 445.798 17.6055 444.782C19.0612 443.798 20.4204 443.121 21.4856 441.553C22.5508 439.986 23.5196 438.725 24.8283 437.296C25.6043 436.65 26.6237 436.142 27.6938 436.387Z" fill="#FCCD96"/>
<path d="M6.58947 96.3393C7.72097 96.2792 8.85248 96.2191 9.84138 95.7296C14.5146 97.6667 18.3463 102.271 23.3445 102.297C23.7723 103.585 23.964 104.741 23.4964 106.222C22.8862 107.274 21.8974 107.764 21.002 107.957C16.8991 107.738 12.9296 104.452 8.55087 106.87L8.50173 106.144C5.29427 105.732 4.53218 102.859 4.28673 99.2296C4.28207 97.4816 5.12835 96.5625 6.58947 96.3393Z" fill="#F8B360"/>
<path d="M12.7422 454.294C13.3646 455.002 14.3208 455.545 14.9433 456.253C14.4746 459.543 20.8745 460.685 17.1632 465.335C14.9171 464.416 12.6213 462.758 10.3349 464.66C8.9953 463.545 7.4166 462.294 6.077 461.178C5.63922 458.086 7.11384 456.078 8.11033 453.799C8.7281 452.727 9.49023 452.093 10.7305 451.73C11.6866 452.273 12.3091 452.981 12.7422 454.294Z" fill="#FDA842"/>
<path d="M8.15316 106.879C12.3265 101.579 16.3807 104.556 20.5774 107.961C17.1902 108.141 13.8031 108.321 10.416 108.5L9.33118 107.542L8.15316 106.879Z" fill="#F9BD75"/>
<path d="M16.8961 465.371C16.1248 462.446 15.4481 459.218 14.6768 456.293C16.2551 457.544 18.0724 458.93 19.6507 460.181C20.5664 463.544 21.243 466.771 16.8961 465.371Z" fill="#F8B15C"/>
<path d="M20.5441 107.228C21.1642 106.152 21.4494 105.242 22.0695 104.166C23.0745 103.665 24.3196 103.3 25.6145 103.678C26.8641 105.102 27.2038 106.724 26.2487 107.967C24.4833 110.894 22.4638 108.318 20.5441 107.228Z" fill="#F9BD75"/>
<path d="M25.8243 103.286C24.5847 103.649 23.4397 103.71 22.2948 103.771C22.5787 102.866 23.1016 102.097 23.3855 101.192C24.0076 101.901 24.8686 102.744 25.8243 103.286Z" fill="#F9C07C"/>
<path d="M70.7889 379.581C61.6081 379.916 61.6081 379.916 65.5527 388.742C67.4992 392.773 64.325 393.554 63.5376 396.046C62.0812 408.069 56.3281 409.599 48.2767 405.432L48.6704 404.186C43.5815 394.349 46.5341 385.003 49.7869 376.561C52.0556 371.234 57.5551 367.726 54.0091 359.491C53.3102 357.997 53.4504 354.774 54.8899 354.85C70.7194 353.857 60.4432 334.494 66.2281 326.377C65.8712 322.873 65.8613 319.199 68.0881 316.783C69.4759 316.097 70.7654 315.722 72.2048 315.799C76.7719 316.169 80.4998 318.269 82.4512 324.138C82.8032 325.803 82.9066 327.329 83.2585 328.995C84.2307 339.817 84.8559 350.81 85.8281 361.631C85.8947 367.907 88.7468 376.484 79.2608 374.078C75.4861 373.053 72.6638 375.5 70.7889 379.581Z" fill="#F49C32"/>
<path d="M85.3107 323.313C82.1495 320.142 78.335 319.038 74.5695 318.657C66.3573 309.513 55.9006 305.713 46.9861 297.912C42.3178 294.241 36.7605 292.503 31.9055 289.422C28.1796 286.282 24.3605 283.436 24.4841 276.898C30.2047 269.337 36.5715 274.661 41.9912 277.712C47.2685 280.335 52.8258 282.072 54.9955 283.989C51.2253 281.867 44.2542 279.333 38.0297 274.438C34.7261 270.839 30.1067 267.891 32.3464 260.805C44.3848 257.845 54.0062 266.044 63.8143 273.652C68.5456 283.271 77.4998 288.312 80.6354 299.467C79.3872 307.806 87.4035 314.058 85.3107 323.313Z" fill="#F79622"/>
<path d="M81.6961 297.811C75.5486 291.082 67.8143 286.691 64.9859 275.73C64.5433 272.6 63.0884 269.975 61.5378 267.655C59.0156 262.985 55.3352 258.377 56.8621 251.688C60.8922 242.463 67.746 242.397 75.0878 244.407C78.9236 253.062 80.6827 242.907 83.7243 243.195C92.4205 246.334 87.6654 255.147 88.6464 261.101C87.11 264.186 85.9109 267.103 84.3745 270.189C81.0458 270.817 75.1039 268.882 75.0082 269.188C74.4982 277.173 77.9417 283.446 82.06 289.383C86.8484 293.181 84.441 295.412 81.6961 297.811Z" fill="#F59A2C"/>
<path d="M89.3387 259.789C85.3961 255.021 89.2547 246.368 83.6162 242.445C79.8155 236.312 77.5184 229.948 82.1107 223.518C84.2468 224.007 86.0943 225.417 86.8784 228.392C88.4829 229.664 90.0873 230.936 91.6918 232.208C92.8752 239.386 96.2909 246.746 92.0883 253.759C91.1718 255.769 90.2553 257.779 89.3387 259.789Z" fill="#F6A23D"/>
<path d="M81.4341 289.597C69.8009 285.14 71.8321 272.332 70.4062 259.709C74.8847 264.4 78.6418 268.681 83.5917 270.06C74.7678 274.715 80.2628 282.489 81.4341 289.597Z" fill="#F7A039"/>
<path d="M-27.2695 127.65C-22.8247 127.419 -18.52 126.779 -14.0752 126.548C9.40892 145.103 32.9848 163.373 56.7008 182.055C57.7684 182.974 59.5801 184.969 58.5172 185.72C56.3914 187.222 54.715 183.968 52.8598 182.95C41.4534 177.693 30.3224 171.587 19.4668 164.631C2.5384 155.344 -14.2982 145.774 -32.1882 140.296C-49.286 136.587 -64.277 124.693 -81.1912 120.418C-82.6743 119.938 -83.9256 119.585 -85.317 118.822C-90.8389 114.792 -97.2837 111.923 -99.67 103.276C-98.4473 93.6054 -92.6017 97.4794 -88.2004 98.226C-78.6104 99.8177 -69.1026 105.034 -59.2949 101.741C-55.5411 102.8 -54.0967 105.927 -53.3432 110.343C-53.8702 120.395 -46.6474 120.021 -42.3815 122.028C-37.7435 124.572 -32.9173 128.221 -27.2695 127.65Z" fill="#FC9D27"/>
<path d="M-35.8299 454.791C-37.1563 450.24 -36.0347 448.448 -32.23 449.546C-29.6936 450.279 -27.0641 450.717 -24.5276 451.449C-18.1469 450.534 -12.0455 450.5 -8.92252 459.866C-4.11483 467.409 4.81629 472.424 2.17523 485.127C-6.93056 467.558 -24.1574 466.881 -35.8299 454.791Z" fill="#FCA53D"/>
<path d="M37.4978 180.865C37.3129 181.443 37.128 182.022 37.0356 182.311C45.0662 186.439 45.7995 198.768 52.4826 204.531C52.4873 206.236 51.7915 207.552 50.6289 208.609C37.5683 206.45 32.8455 201.438 29.8213 186.812C29.6803 186.393 29.7727 186.104 28.5129 185.743C17.223 183.208 6.24489 175.396 -5.68278 178.297C-15.0563 177.509 -24.0161 174.567 -32.7472 170.049C-36.9059 166.713 -43.5356 163.365 -41.6427 156.584C-39.6135 148.516 -32.3366 149.841 -26.553 150.675C-23.3814 151.077 -20.6236 153.633 -17.4521 154.036C-12.1793 155.607 -6.90648 157.179 -1.54123 158.461C9.97746 159.42 20.3037 167.551 31.3162 170.954C35.1443 172.743 38.2281 175.14 37.4978 180.865Z" fill="#F89620"/>
<path d="M48.9072 206.576C49.519 205.519 49.8003 204.626 50.4121 203.569C57.2145 201.451 60.8288 209.455 66.3676 212.234C73.8849 212.273 80.0402 215.75 82.9982 225.838C83.6287 231.805 84.2592 237.772 84.6529 243.605C82.7237 247.074 81.6079 254.158 77.0465 245.619C69.0232 233.021 53.5152 232.675 47.5148 216.31C46.7014 212.694 46.4553 209.048 48.9072 206.576Z" fill="#F69621"/>
<path d="M37.8149 179.025C28.8356 167.06 15.5855 169.145 4.95213 162.294C2.86315 161.145 0.590422 160.565 -1.35834 159.828C-3.90679 160.1 -6.13596 158.539 -5.68124 155.443C-5.31841 152.631 -2.72645 151.379 -0.453681 151.959C6.13251 153.573 12.2593 156.607 18.4779 159.357C30.9151 164.857 41.8773 173.227 52.8878 182.293C47.0557 185.11 42.8635 177.785 37.8149 179.025Z" fill="#EB8913"/>
<path d="M83.1786 223.975C77.5724 219.78 72.0594 215.29 66.5464 210.8C67.1548 209.754 67.7632 208.707 68.4648 207.366C81.9943 203.171 83.773 217.713 88.0785 227.773C86.5237 226.551 84.9688 225.329 83.1786 223.975Z" fill="#F8A849"/>
<path d="M5.30695 100.521C6.49192 102.933 7.67691 105.346 8.53232 107.922C3.92325 111.953 -1.11824 112.949 -6.58739 112.657C-8.95266 109.579 -11.5984 107.389 -15.2235 109.183C-19.8419 109.72 -24.7407 111.145 -28.8075 106.409C-31.8856 101.184 -38.0677 98.7457 -37.3828 90.4084C-33.2154 79.8474 -26.587 90.5634 -21.6438 88.1165C-20.419 87.7602 -19.1008 87.1077 -17.64 86.8846C-14.9545 86.3051 -12.9188 89.5465 -10.1842 89.6926C-7.63665 90.4311 -4.80855 90.281 -2.21188 91.7451C0.669927 94.0678 3.36473 96.983 5.30695 100.521Z" fill="#F19423"/>
<path d="M5.58178 98.9835C2.45613 96.5169 -0.90618 93.9167 -4.12556 91.7477C-4.79565 88.5655 -3.66628 86.7502 -1.44736 85.9009C1.30338 89.5575 4.14786 92.9166 7.13525 96.7069C6.61742 97.4657 6.09962 98.2246 5.58178 98.9835Z" fill="#F9BD75"/>
<path d="M69.4531 328.798C69.9474 332.686 77.4622 336.952 68.8049 339.974C65.2743 341.217 64.9501 346.805 67.8638 350.263C70.1462 353.002 74.8432 353.504 71.711 358.941C69.6396 362.815 66.3971 363.139 63.0033 361.213C61.5489 360.387 59.8521 359.424 57.9128 358.323C57.8815 364.799 61.568 367.613 64.148 373.046C48.8592 376.272 51.8062 392.375 50.4858 405.696C48.2081 404.763 46.0265 403.525 43.804 405.149C41.3847 405.58 39.6877 404.616 39.0014 401.341C33.8699 401.314 31.8128 410.608 25.899 407.612C25.4142 407.336 24.687 406.924 24.2982 406.342C21.5813 404.078 19.3948 401.033 18.9965 396.839C19.1286 391.863 20.084 386.994 22.4938 382.951C25.6308 379.32 29.4998 377.909 33.8128 379.636C34.7824 380.186 35.8025 381.487 37.1562 380.812C35.4593 379.849 33.9544 378.273 33.2224 376.054C33.1673 373.497 33.8393 371.353 35.3346 369.316C37.1132 364.554 42.7942 371.025 43.8911 364.794C37.5552 348.57 23.6657 350.065 14.0102 341.698C12.8942 340.704 12.1166 339.541 11.1926 337.934C5.99171 329.931 17.5578 328.56 14.7307 321.183C22.2624 313.554 30.2068 315.538 39.0751 319.129C46.6354 322.339 53.6291 330.999 62.4784 327.364C65.0898 326.321 67.4634 326.947 69.4531 328.798Z" fill="#F49522"/>
<path d="M37.1661 402.365C38.727 403.596 40.2878 404.827 41.8487 406.057C39.5881 407.929 37.6973 406.862 35.6637 405.364C36.0381 404.177 36.6489 403.123 37.1661 402.365Z" fill="#F49B2F"/>
<path d="M24.3394 411.241C23.5809 426.824 17.5756 416.829 13.0968 414.307C10.3264 416.923 7.60514 420.263 3.65146 420.473C-5.0611 419.046 -11.9018 413.454 -17.1508 404.581C-13.0431 391.581 -5.01446 401.323 1.14945 400.27C8.92377 402.908 17.6317 402.591 24.3394 411.241Z" fill="#F39625"/>
<path d="M4.26037 416.364C6.62951 414.174 9.09753 413.453 11.9023 414.335C13.4516 425.455 23.279 423.604 27.4307 430.9C28.1983 433.808 26.067 436.132 27.1667 438.874C26.2694 440.838 25.3721 442.802 24.1427 444.932C12.448 441.133 7.99978 429.431 4.26037 416.364Z" fill="#F59A2C"/>
<path d="M26.7654 438.394C25.1136 435.259 25.9036 432.763 27.0417 430.094C27.2961 432.075 27.6492 433.744 27.9035 435.725C27.6073 436.661 27.311 437.598 26.7654 438.394Z" fill="#F8A94A"/>
<path d="M-7.88556 458.649C-13.0216 455.792 -18.2501 453.223 -23.3862 450.366C-22.3207 447.894 -21.5812 445.581 -23.1277 442.677C-32.607 437.063 -43.1031 434.629 -51.1471 425.386C-53.4911 420.676 -59.4639 418.715 -58.5049 411.417C-55.2553 406.414 -51.1017 408.043 -47.5513 410.7C-29.3808 423.533 -12.3682 439.128 6.40549 450.935C8.03969 451.844 8.88578 454.358 9.49841 456.742C11.4679 460.903 7.73722 460.53 6.76422 462.713C1.95876 461.402 -2.39383 455.234 -7.88556 458.649Z" fill="#EB9630"/>
<path d="M4.58513 417.798C11.0687 426.928 17.7866 436.19 24.1774 445.612C22.9615 445.963 21.6528 446.606 20.4368 446.957C17.1116 446.128 13.747 448.027 10.4658 446.191C4.07973 438.491 -5.60819 438.571 -11.2958 429.543C-12.3796 426.873 -5.83599 423.658 -12.5352 421.284C-18.7657 419.173 -23.9753 413.85 -28.5305 408.206C-31.1132 405.042 -34.5847 402.067 -31.2294 396.724C-25.8482 396.297 -21.4439 398.074 -18.0118 403.777C-10.2776 408.105 -4.63407 418.141 4.58513 417.798Z" fill="#F79F37"/>
<path d="M10.9539 444.024C13.858 444.608 17.1397 443.99 19.5271 447.113C17.7695 448.241 15.9175 449.67 14.3982 450.933C13.1619 451.295 11.8762 450.92 10.6848 450.245C9.48875 447.797 9.00749 445.754 10.9539 444.024Z" fill="#FAB96B"/>
<path d="M11.8556 449.122C12.8089 449.662 13.4294 450.368 14.3827 450.908C14.0051 452.11 13.4836 452.877 13.2004 453.779C12.2472 453.238 11.3883 452.398 10.4351 451.857C10.3855 451.121 10.336 450.385 10.2865 449.649C10.8575 449.618 11.4285 449.588 11.8556 449.122Z" fill="#F8B15C"/>
<path d="M10.4033 455.72C-9.11518 446.018 -26.4744 430.501 -44.476 416.964C-48.4657 414.11 -52.2813 407.351 -57.3533 414.57C-69.3127 409.346 -79.8953 399.877 -91.2122 392.673C-106.379 383.024 -122.004 374.79 -137.171 365.141C-143.387 360.733 -149.787 356.89 -154.206 349.468C-154.998 347.7 -155.235 345.904 -154.36 344.05C-145.588 335.527 -137.271 346.087 -128.843 347.041C-123.37 350.375 -117.67 352.167 -112.106 355.218C-104.175 360.233 -97.3021 367.668 -88.5885 371.112C-85.0191 372.736 -81.8167 375.492 -79.537 379.408C-66.0662 395.127 -48.958 403.841 -33.4148 415.696C-21.3976 424.951 -10.6219 437.192 3.32755 442.174C7.22065 443.642 10.1959 447.94 11.8767 452.861C11.3695 453.583 10.7705 454.588 10.4033 455.72Z" fill="#FCA53D"/>
<path d="M70.4602 326.371C68.2221 328.205 66.35 327.16 64.3366 325.693C51.9135 328.348 42.3977 317.553 31.7306 312.966C27.7964 309.741 23.2088 306.837 23.9361 299.363C30.4163 293.731 36.9293 300.109 43.6135 300.758C53.5786 304.953 63.3097 309.016 70.9535 318.767C70.6801 321.355 70.7335 323.783 70.4602 326.371Z" fill="#F79622"/>
<path d="M71.1737 317.502C61.5242 312.487 52.1078 307.601 42.3659 302.874C41.9293 296.527 45.2804 296.352 48.9568 296.018C56.3724 301.15 63.9287 306.699 71.5289 311.256C75.4916 313.454 74.6609 316.046 73.6456 319.213C72.7132 318.695 71.8731 317.89 71.1737 317.502Z" fill="#EC8B17"/>
<path d="M59.9703 257.715C60.2685 263.777 65.3026 266.26 66.7726 271.247C59.9774 277.83 56.0032 267.621 50.4544 265.889C45.3761 264.421 40.7544 258.009 35.0332 262.074C35.4735 268.563 40.1743 269.472 43.3308 272.633C38.7464 280.112 34.3553 272.095 29.8896 271.319C17.6411 259.232 3.57793 253.754 -10.9069 248.732C-13.446 247.998 -13.7698 249.897 -15.0347 251.266C-24.0452 255.217 -33.1232 251.5 -42.0988 250.963C-44.1674 250.493 -45.8633 248.846 -46.6227 245.992C-46.2593 241.342 -43.8274 237.161 -41.1019 237.306C-32.9253 237.742 -40.6453 232.362 -39.5225 230.566C-37.3258 226.253 -34.8752 229.017 -32.5224 230.34C-42.9236 223.8 -54.8599 222.984 -64.5157 214.089C-66.8289 210.015 -65.1027 205.437 -65.3963 201.111C-62.2584 197.327 -59.2931 199.341 -56.0923 201.487C-52.6563 203.765 -54.3568 200.382 -54.4547 198.94C-51.9784 193.744 -46.5717 195.05 -43.576 190.839C-35.2667 188.228 -28.0172 193.344 -20.8167 197.738C-13.6512 206.621 -2.2041 200.226 2.32913 208.669C6.19145 212.227 4.81936 208.682 4.16711 210.742C3.98076 211.331 3.83863 210.904 3.13279 210.508C1.05954 208.302 -1.76381 206.715 -0.694583 202.461C6.57108 196.143 10.5895 205.337 16.143 208.806C16.9165 216.869 22.5981 215.555 26.4558 217.377C28.5733 218.567 30.8771 219.169 32.8082 220.948C37.8959 225.888 47.6752 228.265 44.2276 239.156C40.5004 250.931 33.5119 237.987 27.9234 239.007C19.7376 235.098 12.9983 227.496 4.71922 223.882C13.9394 228.025 21.4824 237.466 31.4037 240.269C40.957 245.986 52.8886 245.065 59.9703 257.715Z" fill="#F6941D"/>
<path d="M49.5165 297.294C47.4152 299.561 45.3139 301.828 42.8852 304.255C36.753 305.298 31.4472 300.26 25.8235 298.832C17.4437 299.993 11.8058 293.392 6.0752 287.083C1.84921 282.995 8.90552 277.305 4.44501 273.085C5.4225 270.878 6.96652 270.365 8.88676 270.407C18.2628 273.937 22.6585 288.795 33.7109 288.787C38.8703 291.676 44.8655 291.935 49.5165 297.294Z" fill="#F28F19"/>
<path d="M34.5332 288.432C22.4548 293.389 17.1218 279.706 9.27462 272.203C4.75729 265.532 -4.8953 266.329 -6.33149 255.176C5.28219 251.684 14.3958 259.552 23.3235 268.006C25.2057 270.786 26.3397 274.181 26.2561 277.928C26.6954 284.383 31.7122 285.126 34.5332 288.432Z" fill="#F6941E"/>
<path d="M26.4042 276.215C24.3999 274.766 22.813 272.871 23.0365 269.61C23.0708 265.229 26.0507 266.203 28.1425 265.67C32.5686 268.123 35.7033 274.599 41.4644 272.037C47.4383 279.071 56.7859 278.159 63.1913 289.832C49.6412 285.031 37.9062 280.558 26.4042 276.215Z" fill="#ED8B16"/>
<path d="M34.0295 260.289C31.4297 258.194 28.3223 256.822 26.0367 251.226C36.0934 253.074 44.0719 257.121 51.9151 262.428C56.1387 265.415 59.6759 271.364 65.3205 269.12C66.8572 271.967 66.1225 274.235 65.064 276.659C55.3604 268.661 44.4195 265.325 34.0295 260.289Z" fill="#F18F1A"/>
<path d="M60.1428 254.062C50.4271 248.96 40.946 243.99 31.1373 239.181C30.5703 237.483 29.5826 236.24 30.2333 234.19C31.5439 233.545 32.8986 231.889 33.8374 232.416C36.6539 233.995 39.2543 242.351 42.4679 234.839C45.4957 227.913 38.8846 226.966 36.2053 224.084C30.7536 218.613 24.2795 216.364 17.3849 214.568C11.7567 213.138 13.3415 209.887 16.755 206.971C28.3204 202.761 37.7272 214.934 48.4165 216.097C53.2617 222.608 57.7304 228.562 65.1874 230.328C71.2849 232.022 75.426 238.138 76.574 246.715C71.0969 249.164 63.87 245.802 60.1428 254.062Z" fill="#F3911B"/>
<path d="M18.389 160.941C11.4965 161.87 5.7956 155.642 -0.819718 155.705C-5.75811 155.68 -3.97947 158.708 -1.54941 161.418C-6.62402 162.677 -11.29 160.084 -16.0483 157.78C-21.4533 157.496 -24.7774 151.57 -29.6281 149.554C-32.5733 145.878 -32.8645 141.637 -32.2711 137.208C-14.0927 140.512 1.91717 151.448 18.389 160.941Z" fill="#F3901A"/>
<path d="M50.0903 216.435C44.8091 220.018 39.7042 219.569 34.8685 214.796C29.7984 209.892 23.4329 210.802 18.2258 207.198C13.0675 204.31 7.81628 201.714 2.65795 198.826C-11.4797 199.859 -21.3808 191.906 -24.0415 177.681C-10.7141 171.375 -1.35604 186.252 10.3581 189.369C13.2158 189.937 15.9365 191.804 16.7815 192.622C20.7188 194.138 19.2098 190.195 19.5905 192.474C19.6393 193.189 19.0775 193.219 18.3741 192.825C10.2117 187.222 -1.01941 189.539 -5.87847 176.148C6.8871 169.872 17.8283 181.505 29.6794 183.322C30.7101 183.555 30.9934 184.402 31.4182 185.673C35.3835 197.53 41.1618 204.552 50.5847 208.795C50.4036 211.103 50.1297 213.703 50.0903 216.435Z" fill="#F7941E"/>
<path d="M-5.69567 177.176C2.50226 185.746 14.204 185.136 21.6653 195.994C5.27304 196.708 -7.13008 179.078 -23.1056 179.349C-27.2777 182.097 -31.4546 183.158 -35.1852 177.729C-38.4507 172.557 -46.2425 176.337 -47.6616 167.132C-41.7693 164.998 -36.5028 171.612 -30.9836 168.934C-22.6157 171.872 -14.1557 174.524 -5.69567 177.176Z" fill="#EF8C16"/>
<path d="M32.5738 310.676C42.1178 318.729 52.7286 324.302 63.8461 327.425C62.1706 329.224 67.8337 334.772 62.2773 334.066C58.3084 333.562 54.5686 331.477 50.9213 329.102C40.1207 322.398 29.2762 316.695 17.2033 322.604C8.85142 323.756 3.0472 317.788 -1.78282 309.629C-0.753589 293.464 8.0799 297.705 15.9737 299.714C22.2799 301.521 25.8973 310.029 32.5738 310.676Z" fill="#F18F19"/>
<path d="M22.8384 387.523C22.9452 392.397 22.2562 397.169 19.6921 400.892C15.3899 402.267 12.1527 399.424 8.82272 396.873C-4.79434 380.656 -23.6764 373.184 -35.711 353.726C-31.6178 344.325 -26.8234 351.822 -22.6047 354.183C-16.4182 357.301 -11.7167 365.09 -4.37238 363.698C2.2248 362.92 6.96575 367.98 11.7066 373.04C16.1644 377.254 21.6478 379.979 22.8384 387.523Z" fill="#F9A138"/>
<path d="M9.33115 374.393C5.49831 370.898 3.3343 363.903 -2.53721 365.064C-11.2105 364.666 -17.4314 357.457 -23.5113 350.668C-23.9579 340.881 -18.3982 344.997 -15.319 345.688C-7.10803 347.532 0.78168 351.241 8.62288 354.242C18.0107 360.147 29.34 359.979 36.4604 372.117C35.5797 374.011 34.6991 375.905 33.8185 377.8C25.2564 383.936 17.7177 372.247 9.33115 374.393Z" fill="#F79520"/>
<path d="M36.7667 370.11C27.025 365.383 17.0548 362.225 7.95916 355.483C4.37506 355.529 2.78716 353.63 3.70544 349.053C5.65313 346.404 8.44563 346.257 11.3789 346.529C23.9085 349.411 35.4228 355.461 45.7371 365.253C47.4173 366.864 50.6322 367.969 50.2677 370.819C49.811 373.957 46.8292 372.981 44.639 372.104C42.1234 371.387 39.2823 370.828 36.7667 370.11Z" fill="#ED8B15"/>
<path d="M46.1264 364.613C33.7033 362.129 23.4043 351.263 11.2149 348.909C10.6894 344.517 11.9413 341.457 15.3456 340.28C25.8203 347.144 41.8674 343.449 46.1264 364.613Z" fill="#F79620"/>
<path d="M15.6411 341.766C14.147 344.734 12.9811 347.54 11.487 350.508C9.32727 350.333 7.4956 349.997 5.33588 349.822C-4.47367 350.197 -13.1265 344.299 -22.1518 339.577C-25.6335 336.583 -27.5675 333.075 -25.3287 327.757C-19.9946 321.408 -13.5991 325.692 -7.59006 325.952C-1.56698 331.411 2.77583 340.425 11.5032 339.097C11.9733 339.361 12.7715 339.463 13.2417 339.727C14.0888 340.549 15.029 341.077 15.6411 341.766Z" fill="#F49B31"/>
<path d="M-1.98176 309.044C4.42108 314.42 10.6808 319.364 17.1775 324.442C18.7917 326.408 22.0155 328.582 18.0456 330.552C14.7373 332.194 14.3665 335.146 14.1389 338.529C6.42674 339.086 1.67803 332.889 -2.69527 325.5C-5.21274 321.969 -7.54246 317.842 -7.98114 313.028C-7.09185 309.316 -6.10875 305.306 -1.98176 309.044Z" fill="#F99721"/>
<path d="M9.41444 394.464C12.4906 396.845 15.7998 399.355 18.876 401.735C21.3942 404.145 24.6064 405.248 24.6205 410.33C17.0801 408.183 9.21459 406.193 1.67419 404.046C-4.67681 394.777 -17.1769 398.677 -22.1883 386.091C-17.0053 376.784 -10.8481 383.24 -5.39912 385.92C-0.741058 388.5 3.9217 392.775 9.41444 394.464Z" fill="#EA8D1D"/>
<path d="M8.63378 374.298C17.2615 365.391 24.8718 377.883 33.1959 377.731C34.7425 378.939 36.2891 380.147 40.9289 383.771C32.9804 384.476 27.4572 382.761 22.9288 385.722C18.1476 381.676 13.5078 378.052 8.63378 374.298Z" fill="#F08F19"/>
<path d="M-22.3431 386.44C-15.335 394.856 -2.50003 391.009 1.52362 405.345C-4.57084 405.379 -10.4934 399.642 -16.9551 402.576C-21.9245 402.551 -26.292 399.756 -30.3806 396.083C-33.9415 396.847 -36.3379 394.813 -38.1765 391.021C-39.0319 386.745 -37.5885 383.067 -35.5338 380.078C-34.2717 378.715 -32.8679 377.776 -31.4151 377.556C-26.7246 378.46 -23.6239 380.889 -22.3431 386.44Z" fill="#EC8B18"/>
<path d="M11.6551 452.441C-11.9597 439.08 -33.1773 419.982 -55.872 403.767C-64.1035 397.882 -71.4584 390.128 -80.8425 386.969C-85.5346 385.39 -81.9705 381.977 -80.2126 379.922C-78.9148 379.293 -77.4766 379.078 -75.9901 379.562C-58.7568 384.697 -47.1462 403.874 -30.5134 410.023C-23.4877 416.251 -14.428 419.568 -10.5452 430.449C-2.13918 432.396 6.22318 435.328 12.0963 444.281C12.4254 445.808 12.7546 447.334 13.0838 448.86C12.5317 450.572 12.0232 451.3 11.6551 452.441Z" fill="#FDA842"/>
<path d="M-10.2628 430.591C-18.2618 424.366 -26.1676 417.847 -34.1665 411.623C-39.9562 406.293 -41.2482 397.256 -44.4609 389.911C-41.6976 387.308 -39.6304 387.777 -38.2103 392.037C-35.8101 394.078 -33.3169 395.825 -31.1519 397.734C-25.3389 411.734 -13.2637 414.708 -3.70736 423.885C-5.90727 426.458 -7.92094 428.444 -10.2628 430.591Z" fill="#F49A30"/>
<path d="M-0.654887 308.254C-3.27885 307.818 -4.72547 309.763 -5.79591 312.263C-6.9198 312.322 -8.18533 311.958 -9.17224 310.716C-11.3365 307.093 -12.753 302.856 -15.1518 299.101C-21.1267 289.211 -28.5924 282.274 -38.1989 280.337C-39.3716 279.68 -40.4513 278.731 -41.4383 277.49C-42.6156 275.108 -43.231 272.697 -42.7225 270.227C-42.2581 268.765 -41.3246 267.566 -39.9221 266.629C-33.2322 263.832 -26.5724 267.218 -19.9173 268.879C-11.2442 272.015 -2.15092 274.698 4.47882 284.266C11.5195 289.932 18.7947 295.729 25.8354 301.394C26.2744 307.84 30.9604 308.742 34.1069 311.882C27.085 313.115 21.4468 306.513 15.2119 304.399C8.36637 301.597 3.40168 301.572 -0.654887 308.254Z" fill="#F7951F"/>
<path d="M-35.9804 178.619C-31.9036 180.556 -27.6066 177.46 -23.8083 180.273C-17.8775 192.874 -7.29246 196.046 2.40862 201.131C1.95395 206.033 6.30914 207.095 8.38356 212.725C1.49466 209.214 -3.67035 202.886 -10.6774 207.56C-15.2088 210.525 -17.4735 203.757 -19.9191 199.295C-22.6085 191.258 -31.9056 197.057 -34.2238 187.853C-34.6531 184.862 -35.3167 181.741 -35.9804 178.619Z" fill="#F3911B"/>
<path d="M-5.4429 257.721C-0.942452 260.925 3.69944 264.553 8.29267 267.466C11.3386 269.17 10.5963 271.504 9.76127 274.129C8.54571 274.48 7.33018 274.831 6.11462 275.182C-3.89287 277.143 -11.966 267.817 -21.2359 265.724C-28.0793 261.208 -38.3605 265.766 -42.2789 252.922C-33.7306 247.738 -25.1055 253.594 -16.2161 253.412C-12.3351 252.491 -7.84868 250.533 -5.4429 257.721Z" fill="#FA9721"/>
<path d="M-5.109 256.033C-8.68717 254.396 -12.3574 253.044 -15.9355 251.406C-15.7126 248.168 -17.6203 246.444 -19.7651 242.909C-2.43583 249.441 14.6515 252.48 28.7071 266.617C26.9009 267.973 25.4192 269.172 23.613 270.529C15.4645 260.994 5.38362 257.451 -5.109 256.033Z" fill="#F18E18"/>
<path d="M30.0812 236.093C30.4108 237.625 30.7404 239.157 30.9778 240.976C19.1236 239.482 11.4689 227.487 1.59803 220.677C12.6136 221.37 21.0928 229.097 30.0812 236.093Z" fill="#F08D17"/>
<path d="M-20.8709 261.915C-11.6068 264.679 -2.71174 268.593 5.44559 274.804C7.12458 276.412 8.80362 278.019 10.4826 279.626C8.76457 280.704 6.90583 281.366 5.1878 282.445C-4.35298 280.542 -12.1414 273.181 -21.1288 269.555C-25.9281 266.557 -23.8411 264.33 -20.8709 261.915Z" fill="#EC8A13"/>
<path d="M-23.2444 349.818C-16.251 355.386 -9.02469 361.083 -2.03132 366.652C-6.06023 373.22 -9.56399 367.893 -13.5242 365.698C-20.7458 361.696 -25.7974 351.788 -34.6793 352.959C-35.3297 353.275 -35.8879 353.304 -36.5383 353.621C-51.8649 345.804 -68.3953 340.027 -78.9598 321.648C-74.1835 316.171 -67.617 318.794 -62.0402 316.808C-54.3136 318.382 -49.5481 325.762 -44.3215 331.705C-40.3565 335.595 -36.1148 338.623 -31.179 340.343C-27.3594 342.121 -24.2826 344.503 -23.2444 349.818Z" fill="#FEA941"/>
<path d="M-21.5681 385.172C-24.6587 382.761 -27.9834 380.219 -31.0741 377.808C-31.9801 371.136 -35.9628 367.199 -39.1069 362.36C-42.6262 356.969 -40.9049 354.162 -35.859 353.896C-20.0303 366.503 -3.59695 378.078 10.1398 394.655C-1.30277 396.83 -10.0328 382.706 -21.5681 385.172Z" fill="#F19A33"/>
<path d="M-23.2507 348.513C-26.3253 346.136 -29.6327 343.63 -32.7072 341.254C-36.0099 340.439 -40.4279 339.683 -38.8173 333.819C-37.527 329.805 -33.8994 330.461 -30.5483 331.978C-27.1973 333.495 -25.6942 339.055 -21.6058 338.278C-12.3478 341.037 -3.45856 344.943 4.69342 351.142C4.47009 354.396 6.05583 356.287 8.05867 357.733C-2.72717 357.168 -12.3727 348.791 -23.2507 348.513Z" fill="#EF8E1A"/>
<path d="M-7.02403 326.721C-8.57936 325.498 -10.1346 324.276 -11.9255 322.921C-8.84281 314.927 -5.43373 323.447 -1.86136 322.677C2.85828 328.807 7.48469 335.232 13.5148 338.973C1.95824 343.935 -0.867965 342.345 -7.02403 326.721Z" fill="#FBA33A"/>
<path d="M-0.932544 323.009C-4.0885 326.003 -7.50095 320.383 -10.8899 323.247C-19.8809 319.617 -27.6725 312.247 -37.2171 310.342C-42.644 299.879 -53.582 298.895 -59.9363 289.612C-60.0818 287.498 -59.6205 286.06 -58.3678 284.722C-55.9985 283.325 -53.906 282.792 -51.6242 283.379C-36.8028 291.937 -21.0589 297.619 -8.82575 312.534C-7.98592 313.338 -7.28683 313.726 -6.447 314.53C-4.57809 317.261 -2.80146 320.279 -0.932544 323.009Z" fill="#FEAA41"/>
</g>
</svg>
