<svg width="278" height="768" viewBox="0 0 278 768" fill="none" xmlns="http://www.w3.org/2000/svg">
<g opacity="0.6">
<path d="M179.482 239.097C184.078 223.193 191.511 216.193 202.065 217.363C207.659 216.724 211.026 210.477 214.392 204.231C218.187 196.882 222.602 194.417 227.899 201.843C230.657 210.137 230.527 221.01 236.316 226.357C237.287 229.528 237.313 232.704 236.394 235.885C235.681 237.721 234.529 239.071 233.299 239.81C218.446 237.562 205.367 247.766 191.758 255.284C190.605 256.634 189.155 257.13 187.627 257.015C183.833 255.446 181.256 251.549 179.249 246.184C178.718 243.499 178.627 241.3 179.482 239.097Z" fill="#F8AF5A"/>
<path d="M147.341 537.833C146.063 533.603 144.784 529.372 143.506 525.142C142.152 520.355 139.028 515.567 142.158 509.895C143.364 508.338 144.439 507.116 146.002 506.895C149.129 506.453 152.745 507.014 154.966 510.355C166.635 528.62 180.491 542.102 194.347 555.583C199.656 560.82 199.464 567.274 192.343 569.603C182.926 568.033 177.055 556.008 172.16 551.217C168.019 546.76 167.677 552.102 168.394 549.543C168.526 549.209 168.733 549.432 168.94 549.655C173.967 554.112 179.522 557.235 181.419 567.364C181.248 570.034 180.381 571.48 178.892 572.257C169.193 569.909 162.173 558.549 153.908 551.084C151.216 548.187 149.316 543.288 147.341 537.833Z" fill="#F4A13E"/>
<path d="M196.427 731.053C192.791 728.066 188.884 725.771 185.999 721.629C179.869 711.965 179.131 721.531 177.177 727.297L176.681 726.261C169.648 723.512 163.758 717.074 159.085 707.521C155.9 701.076 153.196 694.169 157.555 686.092C158.833 682.056 163.776 690.917 163.477 681.699C165.161 676.625 167.791 676.043 170.992 677.072C172.525 677.76 173.576 678.91 174.839 680.289C183.689 691.445 189.397 707.563 196.88 720.681C197.886 724.251 198.336 727.707 196.427 731.053Z" fill="#FDDAB2"/>
<path d="M157.027 690.785C156.891 711.944 169.523 716.508 175.668 729.258C165.347 730.016 143.301 706.825 139.977 691.42C138.381 683.552 140.506 679.679 145.017 681.681C149.396 684.015 153.117 688.009 157.027 690.785Z" fill="#F9AF5A"/>
<path d="M147.25 662.376C137.307 658.346 131.279 645.154 123.72 635.091C119.214 629.277 115.013 620.445 118.341 613.519C122.538 605.14 126.17 617.659 130.226 620.121C139.092 625.379 143.006 638.681 148.526 649.413C150.088 654.443 150.141 658.802 147.25 662.376Z" fill="#FCC079"/>
<path d="M323.61 207.357C322.611 209.137 321.479 211.25 320.273 212.807C317.596 216.588 314.393 216.473 311.041 215.244C309.12 214.129 307.463 212.346 305.807 210.564C297.109 201.204 285.392 200.968 279.128 184.711C278.828 182.484 279.281 180.593 280.356 179.37C296.517 181.059 311.073 190.536 323.61 207.357Z" fill="#F9BC73"/>
<path d="M133.607 482.34C130.676 475.922 124.004 471.748 128.335 460.598C136.658 450.667 125.663 441.194 127.867 431.414C128.589 429.556 129.534 427.944 130.558 426.95C133.788 425.204 137.032 425.066 140.354 425.545C143.165 426.522 145.254 429.357 146.542 433.432C147.002 435.533 147.095 437.758 147.187 439.984C147.214 443.199 146.874 446.54 146.901 449.755C143.398 462.88 142.417 477.724 137.207 489.496C134.987 488.641 133.857 485.801 133.607 482.34Z" fill="#F9B768"/>
<path d="M154.001 591.635C150.119 588.373 152.268 578.188 147.763 575.748C146.551 573.413 145.551 571.311 144.339 568.975C142.408 556.817 146.584 553.877 152.458 552.803C161.817 557.566 169.123 567.6 176.839 576.58C176.928 578.685 176.456 580.675 175.559 582.199C169.528 589.123 164.687 572.763 158.717 578.75C155.801 581.568 157.978 589.983 154.001 591.635Z" fill="#FAAA4D"/>
<path d="M132.834 359.464C129.676 340.974 136.103 331.949 144.489 324.542C149.19 323.274 152.655 326.011 155.324 331.627C156.369 339.748 150.498 344.021 151.77 352.392C152.72 374.89 139.085 364.19 134.23 373.335C127.994 370.233 133.77 363.71 132.834 359.464Z" fill="#F7AB4F"/>
<path d="M279.074 183.989C278.66 185.053 278.108 186.473 277.694 187.537C279.594 195.204 284.218 199.79 286.256 207.103C287.199 210.169 287.226 213.239 286.336 216.313C285.646 218.087 284.742 219.626 283.412 220.694C279.972 222.479 276.856 221.075 274.08 218.017C273.012 216.84 271.944 215.664 271.013 214.133C269.945 212.957 269.015 211.425 268.085 209.894C265.584 206.126 263.083 202.358 261.699 197.286C260.956 192.92 261.13 188.551 263.929 186.059C268.598 179.545 273.493 174.802 279.074 183.989Z" fill="#F7AD53"/>
<path d="M263.981 191.274C263.434 194.276 263.027 196.917 262.48 199.919C262.569 202.079 262.302 204.36 261.819 206.402C261.119 208.205 259.987 209.53 258.854 210.855C255.025 214.353 251.03 215.092 246.793 212.473C242.912 209.732 239.947 205.427 238.038 199.197C237.4 173.765 247.91 183.312 255.557 183.516C259.552 182.776 261.728 186.725 263.981 191.274Z" fill="#FAC687"/>
<path d="M147.452 650.541C151.706 650.312 154.807 657.549 159.177 655.511C160.545 655.057 161.988 655.169 163.372 656.187C167.183 659.351 170.326 664.213 172.252 670.66C173.043 673.94 172.943 677.22 171.608 680.614C169.764 681.52 168.055 682.087 166.211 682.993C160 673.835 153.655 665.016 146.241 658.912C146.759 656.084 146.935 653.369 147.452 650.541Z" fill="#FCC787"/>
<path d="M157.396 329.724C153.702 328.771 150.073 326.846 147.216 322.124C146.688 310.589 153.715 303.754 153.188 292.219C153.986 292.58 154.282 293.428 154.578 294.277C159.134 294.619 162.416 298.246 164.565 304.793C163.908 312.933 162.672 320.954 162.814 329.455C161.025 331.649 159.365 331.901 157.396 329.724Z" fill="#FAC788"/>
<path d="M132.668 432.217C131.304 430.201 129.801 428.543 128.222 426.291C126.352 423.208 124.267 419.887 122.398 416.804C122.484 410.263 124.579 406.448 128.191 405.838C129.542 406.307 130.755 407.134 131.689 408.676C132.624 410.217 133.067 412.237 133.509 414.257C133.585 414.851 133.876 415.682 134.028 416.87C134.407 419.842 134.787 422.813 134.813 425.904C134.75 426.856 134.687 427.808 134.41 428.522C133.855 429.952 133.085 431.145 132.668 432.217Z" fill="#FCE4C6"/>
<path d="M125.077 393.207C122.512 388.876 122.334 384.654 124.68 380.188C125.729 379.832 126.854 380.062 127.917 381.231C130.119 384.156 132.046 387.785 133.624 391.532C134.989 395.046 135.654 398.797 135.27 402.904C134.995 403.609 134.584 404.666 134.309 405.371C133.122 406.079 131.998 405.849 130.934 404.68C127.546 402.464 125.893 398.13 125.077 393.207Z" fill="#FCE8CE"/>
<path d="M248.508 787.024C247.331 776.146 240.807 775.68 236.298 770.92C229.934 759.153 219.516 754.575 214.52 740.125C211.597 737.956 212.427 735.162 214.13 732.373C222.206 728.973 227.158 740.624 233.467 744.533C245.158 753.208 254.651 767.36 264.919 779.578C267.864 783.146 273.429 786.729 269.139 795.962C261.214 800.44 255.777 787.817 248.508 787.024Z" fill="#FCBD74"/>
<path d="M215.038 736.891C215.338 739.159 215.295 741.542 215.386 743.583C207.46 741.776 202.996 729.642 195.665 725.565C195.574 723.523 195.274 721.255 195.183 719.213C206.11 712.624 209.508 715.343 215.038 736.891Z" fill="#FCC079"/>
<path d="M188.674 247.865C189.133 245.945 189.174 243.574 190.049 242.106C194.216 234.54 204.68 250.229 206.039 230.922C213.471 233.177 221.061 231.255 228.243 235.655C232.359 235.766 234.933 239.039 236.783 244.909C240.623 263.085 249.712 272.452 258.935 281.48C275.09 297.054 286.528 320.081 296.084 346.383C285.502 356.661 284.478 332.839 277.437 334.875C278.704 337.697 282.761 338.711 284.936 343C287.81 348.531 290.268 353.611 285.118 359.145C280.769 362.647 276.12 363.891 271.096 362.312C266.396 359.153 260.989 360.059 256.023 357.577C246.759 350.92 240.294 337.148 231.504 330.039C228.722 326.54 226.414 322.59 224.373 317.962C221.332 309.834 217.058 301.82 218.783 290.642C214.868 271.902 207.737 259.824 195.106 258.701C193.798 258.25 192.49 257.799 191.448 256.67C189.707 254.3 188.782 251.365 188.674 247.865Z" fill="#F6941E"/>
<path d="M238.653 241.32C236.048 237.681 233.239 233.828 230.635 230.189C231.354 229.129 231.739 228.173 232.458 227.113C235.098 224.895 238.041 224.809 240.88 226.426C253.569 244.724 267.286 260.473 280.618 277.178C284.449 282.103 288.075 286.814 292.548 290.146C303.562 300.339 315.166 309.79 325.537 321.576C332.335 327.8 340.108 332.326 343.208 345.553C345.11 355.257 352.883 359.783 353.145 371.393C350.416 380.319 346.147 377.201 342.34 373.661C338.661 369.802 335.753 364.031 331.56 361.446C329.796 360.049 328.161 358.334 326.654 356.301C320.95 339.435 310.541 349.374 302.564 344.633C301.927 342.605 301.624 340.473 301.449 338.023C290.098 315.687 278.49 293.989 263.032 278.228C253.63 268.366 243.638 259.245 238.653 241.32Z" fill="#FA9822"/>
<path d="M242.246 225.386C240.195 224.605 238.35 224.047 236.431 222.933C236.337 220.933 236.376 218.599 236.076 216.376C236.417 211.042 229.378 208.699 232.769 202.369C235.369 198.039 238.228 203.488 240.975 205.492C243.102 206.828 244.908 209.72 247.148 209.279C250.198 208.283 253.38 206.954 256.562 205.624C257.108 205.736 257.447 205.626 258.124 205.404C258.538 205.849 258.952 206.294 259.366 206.74C260.551 208.964 261.943 211.411 263.599 213.191C264.427 214.081 265.18 214.415 266.139 214.972C266.967 215.863 268.209 217.198 269.433 217.088C270.318 217.09 271.202 217.091 272.087 217.092C274.835 219.096 277.375 220.878 279.916 222.659C281.346 222.772 282.381 223.885 283.152 225.664C285.461 241.448 298.939 241.688 300.852 258.472C291.808 275.351 288.279 254.454 281.221 250.666C280.109 254.221 283.814 262.005 278.524 263.442C267.306 258.982 259.386 246.191 251.731 232.734C248.947 227.84 247.105 222.059 242.246 225.386Z" fill="#F89824"/>
<path d="M247.579 213.933C242.84 216.759 239.004 211.037 234.36 208.947C235.1 213.276 235.628 217.37 236.155 221.465C230.025 217.742 227.086 210.495 229.298 199.367C229.921 198.546 230.545 197.724 231.168 196.902C232.942 199.354 234.778 200.869 237.284 199.104C240.696 204.359 244.031 209.029 247.579 213.933Z" fill="#F6A33F"/>
<path d="M185.59 264.635C183.001 259.903 177.982 258.326 179.321 249.649C181.969 253.48 184.616 257.31 187.263 261.141C187.147 262.945 186.614 264.297 185.59 264.635Z" fill="#F39B33"/>
<path d="M185.188 263.743C185.752 262.29 186.392 261.441 186.956 259.988C187.737 258.776 188.16 257.686 188.941 256.473C190.325 258.521 191.708 260.569 192.95 262.98C193.399 265.032 192.694 266.848 191.695 267.82C189.979 269.037 188.249 268.683 186.661 267.966C185.432 267.126 184.701 265.8 184.471 263.989L185.188 263.743Z" fill="#F89F36"/>
<path d="M174.366 570.503C175.097 569.403 175.491 568.412 176.222 567.312C176.746 565.991 177.346 565.222 177.871 563.901C187.923 565.247 193.704 581.787 203.7 584.015C213.677 584.81 223.018 588.689 230.372 601.266C236.996 614.944 244.463 625.759 256.091 628.321C263.161 629.77 270.233 636.398 274.118 648.086C269.413 656.227 275.285 664.394 274.444 672.435C267.825 679.47 263.641 670.756 259.026 665.347C257.582 663.801 256.569 664.129 258.014 665.675C258.426 666.116 258.183 668.209 257.865 669.751C253.889 671.614 250.045 673.147 250.91 682.073C249.898 682.402 248.604 681.958 247.441 681.184C235.604 668.044 228.753 647.536 219.84 629.996C217.12 624.261 214.399 618.525 210.16 615.871C208.303 613.883 206.577 611.565 203.462 606.82C206.858 612.337 208.866 615.427 208.998 620.275C208.549 622.147 207.686 623.577 206.543 624.235C196.02 618.15 187.99 605.791 179.042 595.744C173.602 589.451 176.037 578.88 174.366 570.503Z" fill="#FCA946"/>
<path d="M232.188 602.302C224.623 594.358 216.49 588.543 207.192 589.228C203.344 579.281 192.691 578.997 192.9 563.317C194.542 561.408 198.744 560.369 193.913 555.75C188.135 550.591 182.796 543.622 176.655 540.807C164.092 534.429 159.53 509.651 145.628 507.318C144.484 502.936 144.491 499.31 147.875 497.412C154.425 500.656 161.436 503.476 166.594 511.618C169.443 521.878 175.811 526.294 180.87 532.515C182.582 534.766 181.877 528.574 183.542 528.052C185.541 527.425 187.23 528.29 189.199 529.903C202.868 546.529 214.714 566.236 230.26 578.927C233.222 583.854 234.003 590.58 235.836 596.139C236.268 597.955 236.443 600.41 236.542 602.331C234.975 604.774 233.665 606.579 232.188 602.302Z" fill="#F79D32"/>
<path d="M191.424 566.497C194.093 577.854 205.055 578.043 205.701 592.245C195.357 589.094 187.884 578.124 180.411 567.155C175.82 560.551 171.228 553.947 166.509 547.66C175.729 551.439 183.923 557.752 191.424 566.497Z" fill="#EA942E"/>
<path d="M150.288 501.758C149.804 505.46 149.242 508.545 148.759 512.246C147.961 513.483 147.529 514.595 146.731 515.831C138.381 510.322 140.381 494.53 135.747 485.18C134.147 469.652 140.884 458.03 142.164 444.091C150.422 447.382 147.571 457.999 147.939 466.875C146.79 478.84 147.328 490.552 150.288 501.758Z" fill="#F6A94C"/>
<path d="M216.266 734.371C210.112 727.857 206.788 712.822 196.766 717.419C187.179 706.351 181.598 688.927 172.864 676.458C176.947 670.644 179.862 676.493 182.809 680.073C186.297 683.764 189.211 689.613 194.049 689.205C199.967 689.018 203.323 701.784 210.127 697.928C211.466 697.502 212.545 697.724 213.701 698.486C219.336 706.293 224.972 714.1 230.737 721.584C233.662 732.511 243.1 733.746 245.171 746.074C242.459 757.946 237.17 746.359 233.509 748.934C226.511 748.9 223.598 734.299 216.266 734.371Z" fill="#EE9C3D"/>
<path d="M194.912 692.986C193.824 699.508 192.195 700.632 188.51 695.684C183.919 689.275 180.657 679.491 173.938 678.479C172.973 677.917 172.142 677.017 171.385 676.68C171.085 674.431 171.126 672.069 170.826 669.82C179.87 658.913 184.888 672.519 190.992 679.604C193.222 682.977 195.185 687.026 194.912 692.986Z" fill="#E99533"/>
<path d="M222.585 323.573C225.225 327.376 228.072 331.403 230.579 335.541C230.804 337.219 230.406 338.225 230.009 339.23C229.404 340.013 228.932 340.46 228.932 340.46C218.66 343.248 216.013 327.482 209.997 320.993C211.294 326.696 218.427 329.608 214.793 339.556C210.11 341.677 206.981 336.867 203.586 332.728C200.947 328.925 198.573 324.452 196.67 319.531C194.376 310.361 189.132 305.662 185.023 298.839C181.329 292.464 177.635 286.089 178.606 276.139C179.136 274.798 179.741 274.015 180.478 272.898C181.29 272.339 181.763 271.892 182.575 271.334C184.142 271.111 185.444 271.56 186.954 272.231C188.331 273.238 189.708 274.246 190.953 275.588C202.058 290.913 215.564 301.655 222.585 323.573Z" fill="#F69622"/>
<path d="M178.271 280.026C183.017 291.563 187.284 303.559 195.633 309.718C198.625 311.999 198.327 316.572 197.476 321.032C196.923 320.918 196.235 321.148 195.681 321.035C187.108 313.161 178.146 307.804 168.08 309.078C166.898 308.28 166.119 306.452 166.029 304.395C162.871 299.485 159.579 294.918 156.63 290.236C163.12 283.595 169.669 276.039 178.271 280.026Z" fill="#F69F36"/>
<path d="M183.945 265.271C184.818 266.235 185.69 267.199 186.781 268.405C186.717 269.373 187.012 270.219 186.947 271.188C185.959 273.735 184.818 275.073 183.098 276.292L182.649 274.236C177.492 269.056 181.585 267.341 183.945 265.271Z" fill="#FBD5A9"/>
<path d="M278.07 798.092C277.247 797.216 276.554 796.013 275.731 795.137C273.9 794.585 271.994 793.487 270.163 792.935C263.493 775.126 251.362 767.336 242.064 754.645C239.24 750.707 235.482 747.639 232.19 744.135C235.772 739.566 239.831 744.818 243.583 742.759C252.377 739.081 255.213 753.275 260.822 758.314C264.902 764.985 271.143 766.971 275.092 773.968C279.171 780.639 282.393 788.724 278.07 798.092Z" fill="#E89432"/>
<path d="M155.339 617.281C155.588 613.502 155.913 610.314 156.162 606.535C160.167 604.866 164.198 606.266 168.229 607.665C173.831 611.302 177.977 617.895 181.848 625.198C185.216 631.44 186.827 638.28 180.589 642.556C178.217 645.517 171.912 642.12 174.052 653.089C171.467 655.815 169.269 654.407 167.196 651.111C163.926 639.91 160.856 627.41 155.339 617.281Z" fill="#EE9B38"/>
<path d="M154.568 619.365C165.707 622.028 165.979 636.974 167.228 650.974C167.193 654.976 166.017 657.217 163.699 657.697C162.847 656.759 161.995 655.821 161.142 654.883C160.786 646.41 155.024 647.139 152.866 641.734C150.068 635.625 145.091 629.642 151.989 622.082C152.753 620.902 153.729 619.957 154.568 619.365Z" fill="#F8AA4B"/>
<path d="M169.125 609.726C165.107 616.923 162.034 611.52 158.899 607.059C155.977 602.833 153.406 598.488 152.712 591.662C155.003 588.122 150.775 579.427 156.25 577.875C164.847 579.253 169.989 587.944 173.267 600.645C173.17 605.59 171.931 608.773 169.125 609.726Z" fill="#F0A145"/>
<path d="M307.515 210.687C305.073 216.098 301.355 212.111 298.594 213.874C292.791 216.626 289.355 208.218 284.773 205.667C280.566 200.685 278.369 193.606 277.993 185.647C287.233 196.498 298.538 199.173 307.515 210.687Z" fill="#F89C2C"/>
<path d="M144.528 434.329C145.039 433.071 145.753 432.024 146.136 431.081C146.163 428.871 146.598 427.086 147.44 425.725C148.486 424.576 149.812 424.167 151.087 424.599C155.751 428.111 159.725 434.039 164.338 438.393C174.324 452.369 184.363 465.505 195.703 476.862C210.327 496.561 226.356 512.8 241.822 531.138C244.217 534.526 246.152 538.331 246.838 543.073C247.015 545.495 246.249 547.382 244.871 548.633C228.377 543.546 215.971 524.813 201.291 513.111C193.545 505.046 186.385 496.251 178.511 488.501C171.351 479.705 164.574 469.965 157.797 460.225C152.141 453.442 148.628 443.52 144.528 434.329Z" fill="#FDAD4C"/>
<path d="M143.873 437.821C149.446 445.909 154.884 454.345 160.246 462.202C160.922 467.409 161.176 472.155 156.73 472.747C153.038 472.178 149.617 470.914 146.861 466.407C145.748 459.233 149.279 450.193 144.142 444.071C144.052 441.988 143.963 439.904 143.873 437.821Z" fill="#E8922A"/>
<path d="M150.041 430.37C149.408 431.209 148.851 432.645 148.078 433.842C146.202 430.746 143.972 427.772 141.881 424.438C141.944 423.482 142.007 422.527 142.07 421.571C142.349 420.853 142.843 420.373 143.122 419.656C143.616 419.176 143.97 419.055 144.68 418.813C145.744 418.449 146.885 418.683 148.025 418.916C149.026 419.509 149.749 420.819 150.471 422.129C150.852 425.112 149.876 427.625 150.041 430.37Z" fill="#F7AF57"/>
<path d="M141.79 426.33C139.242 431.296 136.579 430.947 133.814 426.853C136.182 417.539 138.692 416.681 141.79 426.33Z" fill="#F8A84A"/>
<path d="M172.68 598.782C167.227 591.08 161.904 583.049 156.656 575.568C158.603 574.365 153.26 564.907 159.873 568.22C164.781 570.649 168.006 578.784 173.605 577.263C175.928 578.807 179.037 578.376 180.649 582.443C183.181 589.368 178.349 587.488 177.301 590.12C175.338 595.056 179.29 596.934 181.014 599.245C189.279 609.48 198.797 617.303 206.014 630.171C210.078 630.292 212.757 633.154 214.334 639.527C214.487 645.787 211.585 646.437 208.888 647.308C192.797 639.027 181.588 621.427 172.68 598.782Z" fill="#FEAD4B"/>
<path d="M133.106 368.366C136.847 362.636 138.521 350.727 146.397 357.353C147.789 358.38 146.336 351.4 147.338 348.078C152.35 338.339 156.349 344.17 160.557 350.229C165.817 371.169 177.197 382.596 186.677 397.346C188.056 403.754 187.354 409.365 184.361 413.949C181.353 417.046 178.718 416.135 176.127 412.82C168.039 399.097 158.74 388.468 148.02 380.703C146.223 380.706 144.217 380.481 142.346 379.912C140.265 379.114 137.63 378.203 135.398 376.261C133.721 374.433 132.658 371.802 132.283 368.94L133.106 368.366Z" fill="#F4931F"/>
<path d="M161.749 352.68C158.445 346.999 154.8 342.98 149.81 347.155C144.397 335.076 154.962 337.046 155.111 329.57C156.384 329.446 157.733 329.915 159.006 329.79C162.852 332.503 166.068 336.048 168.314 342.09C168.808 350.275 167.146 354.555 161.749 352.68Z" fill="#F7A138"/>
<path d="M282.588 206.114C288.955 200.431 291.362 212.631 295.959 214.272C301.873 222.823 307.992 231.591 313.905 240.142C324.06 249.039 331.215 263.959 340.334 275.439C344.003 286.674 338.457 284.489 335.349 283.502C327.234 280.44 320.651 272.101 314.327 263.117C313.69 261.064 312.719 259.118 311.953 257.388C303.492 240.628 291.287 229.563 283.29 212.374C282.988 210.215 282.891 208.273 282.588 206.114Z" fill="#F18F19"/>
<path d="M283.224 214.238C296.409 224.926 307.303 239.135 314.949 259.968C302.067 251.425 291.143 239.466 283.39 220.347L282.086 218.517L281.192 217.119C281.912 216.052 282.504 215.305 283.224 214.238Z" fill="#F79622"/>
<path d="M259.759 200.687C260.517 199.519 260.927 198.468 261.684 197.301C264.376 201.254 267.143 205.79 269.834 209.743C269.801 213.706 268.634 215.924 266.121 216.165C263.867 214.192 261.947 210.585 259.891 207.329L260.027 206.979C259.801 205.232 260.06 203.016 259.759 200.687Z" fill="#F8AC52"/>
<path d="M265.79 215.543C266.99 213.248 268.19 210.954 269.608 208.899C270.118 209.98 270.987 210.94 271.498 212.022C271.804 214.429 271.894 216.597 271.983 218.765C269.34 219.983 267.603 218.064 265.79 215.543Z" fill="#F7A33E"/>
<path d="M271.745 218.14C271.655 215.954 271.565 213.769 271.256 211.341C271.989 212.673 272.865 213.641 273.598 214.973C273.174 216.068 272.53 216.922 271.745 218.14Z" fill="#F8AD55"/>
<path d="M259.873 201.434C259.964 203.633 260.054 205.832 260.145 208.032C259.264 207.058 258.746 205.961 258.008 204.62C258.655 203.762 259.303 202.903 259.873 201.434Z" fill="#FAC280"/>
<path d="M162.578 653.854C163.713 651.73 164.847 649.605 165.982 647.481C167.585 650.166 169.377 651.621 171.682 650.28C179.202 645.475 183.762 655.657 189.346 660.247C192.816 664.947 195.076 671.212 197.336 677.478C197.768 679.38 197.993 681.058 197.953 683.407C195.229 689.558 192.686 682.509 190.099 683.067C184.819 675.457 180.069 666.505 172.042 668.849C168.912 664.038 165.575 659.002 162.578 653.854Z" fill="#FCA947"/>
<path d="M168.973 339.804C166.072 335.623 161.596 334.707 160.618 327.145C161.286 323.885 160.425 321.443 159.429 319.352C154.234 308.662 159.466 308.412 163.716 307.584C164.563 308.512 165.273 309.79 165.907 310.486C169.824 311.288 173.195 313.489 176.58 317.202C179.692 321.614 181.14 327.196 181.135 334.178C180.966 338.485 180.162 342.095 178.239 345.476C177.271 346.411 175.879 346.881 174.76 346.651C172.236 345.379 170.059 343.99 168.973 339.804Z" fill="#F6A33F"/>
<path d="M142.148 426.36C139.175 422.041 136.597 422.294 134.058 427.242C132.246 424.723 130.931 421.72 131.901 417.623C133.879 414.122 135.934 411.223 139.239 412.29C142.123 414.443 144.011 417.563 144.126 422.859C143.348 424.067 142.927 425.152 142.148 426.36Z" fill="#F9BC71"/>
<path d="M138.372 413.937C136.898 416.939 135.347 419.343 132.767 418.037L132.551 417.799C132.462 415.642 132.373 413.486 132.5 411.568C131.635 410.614 130.911 409.299 130.186 407.984C130.822 407.143 131.381 405.702 131.368 404.144L132.372 404.739C135.943 405.081 137.824 408.188 138.372 413.937Z" fill="#FCDBB5"/>
<path d="M132.222 411.827C132.09 413.824 132.185 416.069 132.279 418.314C132.185 416.069 132.09 413.824 132.222 411.827Z" fill="#FCE9D2"/>
<path d="M134.504 399.594C133.087 397.048 132.154 394.037 132.955 390.442C134.207 390.323 135.458 390.203 136.635 389.504L136.846 389.736C139.003 389.613 140.752 390.536 142.305 392.733C144.354 395.972 145.574 399.793 144.577 404.664C141.136 408.846 138.861 403.869 136.192 401.443C135.559 400.75 135.137 400.287 134.504 399.594Z" fill="#F8B35F"/>
<path d="M138.545 412.453C136.739 409.557 134.932 406.662 132.786 403.877C133.182 402.876 133.371 401.652 133.56 400.428L134.992 400.541C139.133 404.997 144.481 407.897 146.831 416.135C147.207 418.918 146.546 420.586 144.719 421.474C142.573 418.69 140.559 415.571 138.545 412.453Z" fill="#F8B35F"/>
<path d="M267.218 350.467C271.207 353.806 274.88 348.255 278.569 349.372C280.677 349.263 281.994 351.154 283.254 353.934C284.437 361.38 286.579 369.383 292.133 367.28C306.968 361.856 314.735 378.756 321.884 389.766C319.025 384.317 318.856 381.761 320.592 373.653C327.367 376.662 332.295 384.336 338.279 389.344C344.731 399.131 352.089 405.141 360.633 408.153C361.668 409.266 362.571 410.711 363.003 412.601C362.867 423.379 358.161 422.595 353.606 422.922C351.836 422.919 350.688 423.584 352.382 423.031C352.532 424.142 352.889 425.476 353.585 426.699C354.149 428.256 354.375 429.923 354.468 431.923C353.808 433.589 352.942 435.032 351.793 435.697C337.693 440.011 328.175 424.553 317.826 413.427C310.997 406.084 305.297 396.632 296.45 396.62C288.847 392.72 280.528 391.375 274.282 381.811C271.066 375.028 266.306 369.911 263.693 362.351C261.23 355.903 260.197 349.568 267.218 350.467Z" fill="#FDAA48"/>
<path d="M237.967 244.032C257.383 274.167 280.906 296.252 300.063 327.032C304.13 333.62 308.38 339.025 302.397 347.387C298.903 347.368 297.113 344.56 296.357 339.174C290.855 331.072 285.559 323.186 281.298 312.722C275.504 298.806 267.339 287.891 257.751 280.52C249.188 274.23 243.492 262.252 236.222 252.741C232.587 247.985 235.854 246.389 237.967 244.032Z" fill="#F08E18"/>
<path d="M224.438 320.437C214.289 301.583 199.118 292.406 188.5 273.991C188.406 272.009 188.049 270.687 187.693 269.364C187.749 268.484 187.805 267.603 187.73 267.052C188.254 265.732 188.985 264.633 190.073 264.856C190.803 263.757 191.197 262.766 191.928 261.667C192.753 262.55 193.241 263.542 193.935 264.755C205.842 268.088 212.277 282.969 219.706 296.091C217.872 305.886 224.323 311.848 224.438 320.437Z" fill="#ED9020"/>
<path d="M220.908 294.495C209.372 290.158 203.981 272.553 195.02 262.466C197.218 259.15 199.587 253.179 202.63 257.39C210.164 267.363 217.434 278 224.235 289.079C225.005 290.851 222.318 293.17 220.908 294.495Z" fill="#EE8D18"/>
<path d="M293.602 341.298C295.765 344.134 297.585 347.085 299.748 349.922C297.376 365.821 292.536 369.801 284.702 357.885C283.374 355.956 282.18 353.687 280.644 351.531C282.684 349.371 285.902 348.005 282.469 342.331C279.037 336.657 274.459 333.141 272.382 325.536C281.308 324.05 285.345 341.079 293.602 341.298Z" fill="#FC9A25"/>
<path d="M266.3 358.421C264.238 360.621 261.122 361.668 264.447 367.781C268.403 374.585 274.964 377.802 275.216 389.466C270.852 390.632 266.864 387.755 262.816 385.802C261.763 384.65 260.71 383.498 259.792 381.999C257.025 376 253.504 371.159 251.219 364.697C250.422 361.35 250.393 358.347 252.455 356.147C257.362 353.593 262.073 352.311 266.3 358.421Z" fill="#F69F39"/>
<path d="M253.227 360.298C253.32 362.294 253.414 364.291 253.376 366.619C243.481 374.477 240.458 356.063 233.877 351.839C232.711 351.06 231.47 349.728 230.568 348.284C227.597 344.62 226.113 340.182 227.6 334.196C228.334 333.088 228.729 332.091 229.463 330.983C238.394 338.206 245.613 349.75 253.227 360.298Z" fill="#F7951F"/>
<path d="M278.028 259.371C279.109 249.263 272.999 243.202 271.439 233.087C279.308 233.987 282.367 244.766 287.522 250.275C291.027 254.022 293.709 262.052 298.689 254.702C305.809 255.271 308.998 265.72 313.76 272.217C314.529 273.978 314.961 275.847 315.13 278.376C313.447 284.086 310.823 280.342 308.836 278.688C311.179 281.662 314.177 282.989 315.865 287.61C316.528 301.459 328.894 304.35 327.89 320.174C316.644 310.032 305.53 299.561 294.415 289.09C289.596 278.306 280.058 274.214 278.028 259.371Z" fill="#F6951F"/>
<path d="M324.577 353.273C321.822 357.238 318.367 345.963 315.655 354.465C311.988 365.414 321.061 365.385 321.479 372.83C321.442 383.768 329.377 388.978 328.945 402.477C324.202 395.278 320.351 386.564 315.575 383.321C309.046 379.153 304.81 359.038 294.064 374.198C291.173 378.512 284.376 368.062 281.099 360.975C278.683 356.329 282.373 355.386 283.75 353.404C290.219 358.502 295.211 354.996 298.892 345.559C300.222 346.021 302.398 347.41 302.807 346.361C312.467 327.016 318.278 343.868 324.577 353.273Z" fill="#FDAE4E"/>
<path d="M277.517 264.255C282.556 273.93 291.694 278.516 293.68 292.139C277.618 276.814 261.404 260.441 248.474 238.134C246.132 233.926 243.994 229.93 240.71 228.748C242.467 219.45 244.885 224.182 247.685 227.976C257.052 241.25 266.164 255.149 277.517 264.255Z" fill="#F08F19"/>
<path d="M316.504 275.384C311.084 267.853 305.998 260.217 300.578 252.685C296.742 247.735 293.498 242.038 288.76 239.331C283.612 236.193 280.702 230.391 282.364 221.189C291.482 237.633 304.287 245.638 313.921 260.801C313.139 266.366 321.419 268.238 316.504 275.384Z" fill="#F18F19"/>
<path d="M259.385 208.101C262.721 208.785 264.9 211.66 265.576 216.845C261.292 218.583 259.459 215.592 259.385 208.101Z" fill="#F7A33E"/>
<path d="M190.879 266.894C190.457 267.984 189.816 268.833 189.253 270.286C187.819 270.776 186.948 269.814 186.424 267.158L186.782 267.036C188.293 267.149 189.586 267.022 190.879 266.894Z" fill="#F39B33"/>
<path d="M230.795 595.388C232.006 595.285 233.218 595.182 234.429 595.078C246.559 604.246 259.612 607.45 271.742 616.617C279.58 622.619 286.433 630.353 292.972 639.605C294.204 640.912 294.971 642.652 295.943 644.609C300.759 660.363 296.085 663.273 287.563 661.174C284.114 660.291 281.108 657.565 278.418 653.321C276.959 650.385 276.041 647.56 276.054 643.871C268.543 632.662 260.759 625.792 249.815 623.9C241.704 622.237 233.988 610.81 230.795 595.388Z" fill="#FDAE4C"/>
<path d="M212.261 636.796C209.603 632.931 206.736 628.838 204.212 624.632C204.748 623.266 205.359 622.469 206.105 621.33C205.923 617.234 209.519 618.709 209.681 614.499C214.693 613.128 216.278 619.725 218.952 625.069C228.244 643.944 235.703 665.212 246.962 681.354C242.534 685.797 250.804 692.841 246.166 697.056C227.884 687.407 216.175 667.852 212.261 636.796Z" fill="#F09C39"/>
<path d="M247.726 678.689C244.015 665.531 248.446 664.069 254.692 665.531C262.11 667.781 267.55 676.552 274.245 681.388C277.023 684.874 279.402 689.373 280.967 694.433C285.51 708.49 282.759 713.214 273.678 709.165C263.88 702.418 253.933 694.545 247.726 678.689Z" fill="#FCAD4A"/>
<path d="M273.544 644.524C274.869 646.446 276.195 648.368 277.521 650.29C281.463 665.218 293.939 663.74 298.015 678.329C295.401 696.316 287.763 688.516 281.292 686.823C279.357 685.693 277.823 683.545 276.423 681.057C275.064 676.194 271.937 672.803 272.347 666.468C272.691 654.252 263.543 652.561 261.91 641.59C266.498 634.461 269.606 648.485 273.544 644.524Z" fill="#EC9632"/>
<path d="M246.354 681.865C254.917 690.511 263.274 698.939 271.837 707.585C275.012 707.706 276.623 711.747 278.364 715.461C278.35 719.168 277.307 721.782 275.441 723.519C272.623 724.708 270.045 723.827 267.185 722.18C258.958 713.426 248.756 708.154 244.871 691.456C243.26 687.415 239.132 686.745 239.517 680.64C239.572 679.768 242.542 679.67 244.222 679.131C245.044 680.006 245.867 680.882 246.354 681.865Z" fill="#E18D29"/>
<path d="M271.674 669.68C273.88 672.952 276.887 675.683 275.963 681.661C276.189 683.293 276.134 684.163 275.463 684.378C274.791 684.593 274.456 684.7 274.25 684.482C267.51 680.104 261.604 672.902 256.425 664.615C255.247 662.435 253.938 660.581 252.144 657.746C260.98 653.214 264.454 669.433 271.674 669.68Z" fill="#E5912F"/>
<path d="M211.914 616.957C218.058 629.705 207.929 618.833 208.398 623.596C204.64 616.723 199.152 612.726 196.165 602.421C204.097 600.995 206.952 611.633 211.914 616.957Z" fill="#EB9735"/>
<path d="M232.977 579.897C214.988 568.288 201.772 546.298 187.658 526.533C187.126 522.809 184.009 520.449 185.27 515.887C186.116 514.512 187.242 513.882 188.649 513.998C193.301 516.157 195.823 522.872 199.243 527.36C208.845 537.42 218.372 546.948 228.102 556.691C231.295 559.583 234.027 562.898 236.706 567.062C238.516 571.221 242.065 575.391 239.217 581.004C237.472 584.605 234.915 583.737 232.977 579.897Z" fill="#EE9936"/>
<path d="M144.512 466.54C147.877 464.821 150.944 467.672 154.205 469.267C155.567 474.179 157.065 478.747 158.427 483.659C162.619 495.08 171.37 500.208 173.588 514.374C172.738 518.832 171.437 519.863 169.327 516.095C163.177 508.906 154.354 510.063 149.265 498.644C138.973 491.347 144.905 477.739 144.512 466.54Z" fill="#F49420"/>
<path d="M272.85 620.065C260.24 612.2 245.214 614.22 235.608 594.222L234.702 592.762L233.796 591.301C234.051 583.887 237.458 582.764 240.426 585.011C247.666 589.955 255.462 589.731 262.362 594.788C264.158 596.248 265.82 598.046 267.35 600.18C268.257 601.641 269.03 603.438 269.804 605.236C271.368 610.291 273.197 614.673 272.85 620.065Z" fill="#F39F3D"/>
<path d="M263.323 599.823C253.185 602.018 244.407 588.519 234.15 592.547C231.065 588.201 230.39 583.048 231.571 576.975C233.653 577.773 236.364 579.257 237.082 575.133C237.336 572.956 234.61 569.983 233.336 567.122C242.44 565.273 257.329 581.509 263.323 599.823Z" fill="#FBA746"/>
<path d="M172.864 513.312C167.069 501.848 157.129 496.385 154.481 480.699C170.978 482.277 179.575 500.084 186.588 521.893C188.188 524.565 189.58 527.014 188.881 531.017C187.657 531.127 186.433 531.236 185.002 531.123C178.374 529.224 174.554 523.213 172.864 513.312Z" fill="#E8922A"/>
<path d="M171.474 514.159C175.417 519.805 179.568 525.671 183.718 531.538C183.943 533.197 184.507 534.745 184.939 536.625C178.366 537.607 169.182 525.872 167.605 514.262C168.826 514.154 170.046 514.046 171.474 514.159Z" fill="#FBA237"/>
<path d="M230.962 720.821C223.808 714.024 217.456 705.185 212.725 693.737C210.179 693.399 208.151 690.226 209.354 687.164C211.553 680.812 215.753 681.488 219.61 682.279C226.39 686.242 230.879 694.515 235.711 702.675C238.173 707.775 239.95 713.103 237.2 719.342C235.446 722.291 233.241 721.84 230.962 720.821Z" fill="#E5912E"/>
<path d="M229.284 718.95C230.493 718.848 231.702 718.746 232.911 718.644C244.914 720.756 252.501 737.524 263.23 744.27C266.436 747.2 271.315 749.599 269.62 757.47C267.925 765.34 263.953 760.679 260.898 758.828C253.234 759.005 252.512 742.596 245.237 741.804C241.254 732.07 231.119 733.314 229.284 718.95Z" fill="#F49F3C"/>
<path d="M219.086 686.574C219.642 693.764 209.2 683.784 213.61 696.736C212.845 697.918 212.432 698.981 211.667 700.163C205.568 695.472 198.98 691.254 196.966 678.41C196.379 659.548 204.438 670.952 208.79 669.165C214.311 672.208 218.641 675.964 219.086 686.574Z" fill="#E6922F"/>
<path d="M196.564 680.892C201.185 687.672 205.936 694.126 210.763 701.126C203.279 706.662 200.388 693.342 195.211 690.16C193.209 687.098 191.412 684.255 189.28 681.519C191.502 681.091 194.136 681.101 196.564 680.892Z" fill="#F9A441"/>
<path d="M203.241 327.631C206.329 330.92 208.186 338.031 213.025 336.19C220.39 336.105 224.456 346.503 230.591 350.24C238.578 355.951 243.337 367.553 250.074 375.664C250.515 387.798 244.436 383.187 240.605 384.704C226.468 378.972 216.9 361.779 206.68 346.224C204.3 340.422 199.175 336.361 203.241 327.631Z" fill="#F7951F"/>
<path d="M203.315 332.226C202.636 340.885 207.239 342.951 209.72 348.139C210.982 356.447 208.86 359.569 204.046 357.273C200.21 355.551 196.827 350.365 192.267 352.801C187.212 354.199 182.067 353.52 183.002 342.666C183.757 334.584 178.566 336.329 178.236 331.02C178.734 325.132 176.674 320.404 175.652 315.328C183.117 304.689 188.59 317.603 195.074 320.242C197.751 324.16 200.638 328.308 203.315 332.226Z" fill="#F3921E"/>
<path d="M232.182 349.029C225.131 348.45 219.606 342.635 214.725 335.217C211.823 325.778 204.652 321.879 202.167 309.23C212.613 316.575 217.318 333.841 227.9 337.226C229.302 340.982 230.575 345.058 232.182 349.029Z" fill="#F2901B"/>
<path d="M185.971 267.504C186.878 268.502 187.786 269.499 189.067 270.37L188.401 271.249C188.642 273.125 188.35 273.876 187.83 274.379C187.31 274.881 186.937 275.008 186.71 274.758C185.363 274.888 184.017 275.018 182.75 275.774C183.921 272.767 184.946 270.135 185.971 267.504Z" fill="#F9BB71"/>
<path d="M186.619 274.209C187.047 273.107 187.838 271.88 188.265 270.777C189.587 272.238 189.678 274.439 188.68 277.011C187.941 275.67 187.28 274.94 186.619 274.209Z" fill="#FAC585"/>
<path d="M196.434 321.078C189.975 319.389 183.515 317.7 177.263 316.237C172.352 318.154 170.354 311.167 167.365 307.448C179.051 298.881 188.267 307.895 196.434 321.078Z" fill="#F69622"/>
<path d="M260.802 756.664C262.989 754.138 267.05 759.059 267.828 754.014C268.801 747.707 264.322 749.206 262.224 746.918C257.788 739.132 251.45 734.673 247.418 725.855C245.365 721.159 243.806 717.494 247.012 713.132C256.21 713.343 261.456 725.942 269.322 731.085C277.908 738.978 285.626 749.853 295.964 753.271C299.155 754.297 301.613 757.96 301.883 764.149C301.735 769.881 299.982 774.355 299.069 779.744C298.546 782.611 298.022 785.478 296.734 788.002C292.839 792.595 287.94 793.636 283.476 796.625C282.233 796.742 280.989 796.859 279.746 796.976C278.695 782.076 274.917 771.079 265.613 767.315C262.347 765.716 262.151 760.1 260.802 756.664Z" fill="#F19B37"/>
<path d="M170.537 600.701C181.866 617.7 192.931 635.369 206.661 647.786C205.637 653.374 202.86 655.161 199.594 655.941C193.724 655.826 189.845 645.427 183.652 646.876C181.238 644.751 179.636 642.067 179.716 637.372C177.549 633.123 186.91 634.135 181.235 627.536C176.181 621.608 171.79 614.004 167.134 607.07C168.268 604.947 169.403 602.824 170.537 600.701Z" fill="#FBA744"/>
<path d="M178.082 639.444C180.1 642.58 182.043 645.157 184.061 648.293C188.195 651.318 193.672 652.44 190.525 663.411C183.612 662.176 179.714 650.306 172.802 649.071C171.619 641.568 173.36 638.658 178.082 639.444Z" fill="#E4902D"/>
<path d="M195.644 477.442C182.828 466.094 172.443 449.372 161.872 433.856C162.936 427.49 166.362 425.522 169.507 422.785C172.858 420.269 176.546 417.643 179.508 421.276C194.369 438.56 213.645 446.961 222.707 475.871C222.899 484.987 231.387 491.71 225.98 502.348C218.414 503.645 214.681 493.091 209.266 488.244C205.012 484.168 201.338 477.898 195.644 477.442Z" fill="#FAA644"/>
<path d="M246.114 538.196C244.119 535.175 242.329 532.371 240.205 529.672C241.194 524.304 230.857 520.269 239.014 513.759C246.666 513.588 252.294 521.357 257.772 528.052C269.955 542.737 285.057 550.883 295.432 570.072C297.774 578.038 295.404 581.034 290.856 582.19C279.69 580.945 272.744 566.289 263.419 558.284C258.859 554.389 254.223 549.956 249.533 546.383C247.56 544.76 246.438 541.744 246.114 538.196Z" fill="#E59230"/>
<path d="M196.647 529.484C195.254 522.046 192.083 516.86 188.242 511.886C186.905 512.31 186.085 511.444 185.578 509.072C190.709 493.378 194.584 513.536 199.448 510.87C214.602 521.827 228.464 536.008 242.454 549.867C244.321 553.215 245.777 556.13 244.84 560.648C243.988 562.043 242.726 563.006 241.518 563.107C236.74 562.65 232.846 558.538 229.34 553.458C218.91 543.818 209.492 530.199 196.647 529.484Z" fill="#F29F3D"/>
<path d="M238.702 518.897C237.59 524.543 242.398 527.775 241.286 533.422C225.443 514.968 208.624 498.214 193.81 477.207C201.66 470.006 206.326 480.811 211.771 486.074C216.065 490.583 218.225 499.665 224.706 498.748C232.361 499.973 237.291 506.513 238.702 518.897Z" fill="#EA9735"/>
<path d="M243.823 553.418C242.304 551.325 240.841 548.354 241.533 544.398C242.263 543.301 242.656 542.313 243.18 540.995C244.492 542.867 246.011 544.96 247.323 546.832C259.488 559.836 271.578 572.289 281.966 589.025C285.51 595.63 291.133 600.701 289.114 611.687C284.808 618.821 280.648 616.721 276.43 610.334C271.309 597.35 264.204 587.878 256.837 579.064C251.325 572.234 245.215 566.172 243.823 553.418Z" fill="#EE9B39"/>
<path d="M187.49 513.81C188.186 515.033 188.807 515.701 189.503 516.925C188.768 518.035 188.372 519.035 187.638 520.145C177.252 506.127 168.45 488.111 155.54 478.979C154.261 474.754 154.075 470.753 155.112 466.642C158.67 468.092 157.373 462.422 158.636 459.978C166.123 470.88 173.404 481.56 180.892 492.462C181.472 500.687 187.645 504.474 187.49 513.81Z" fill="#F09C3A"/>
<path d="M170.643 432.854C168.258 435.132 165.664 437.183 163.279 439.46C158.772 436.508 155.547 431.053 152.723 424.573C151.485 424.688 150.858 424.006 150.976 422.186C150.065 420.708 149.363 419.458 148.528 418.549C147.633 418.55 147.006 417.869 146.781 416.163C142.928 410.025 139.076 403.888 135.357 397.409C138.846 395.357 140.416 400.474 142.506 402.746C148.846 403.307 155.158 407.736 161.66 404.088C165.121 405.904 167.57 409.541 169.274 414.316C170.784 420.343 175.114 426.025 170.643 432.854Z" fill="#F49828"/>
<path d="M187.003 511.822C184.333 505.154 175.733 503.032 180.405 490.489C187.893 496.164 194.326 504.502 200.364 513.84C195.6 519.164 191.786 502.722 187.003 511.822Z" fill="#F6A240"/>
<path d="M149.693 423.731C150.36 424.467 151.026 425.203 151.405 426.679C150.974 427.789 150.543 428.899 149.89 429.765C149.798 427.548 149.707 425.332 149.693 423.731Z" fill="#F9BE78"/>
<path d="M145.83 418.285C146.478 419 147.125 419.715 147.633 420.789C146.351 420.915 145.424 420.919 144.142 421.045C144.561 419.966 145.196 419.126 145.83 418.285Z" fill="#FAC280"/>
<path d="M197.774 649.035C200.098 646.882 202.551 644.405 205.079 642.469C207.014 641.288 208.613 640.213 210.547 639.032C217.824 657.353 225.101 675.674 236.798 688.064C239.261 690.673 241.28 695.119 244.76 693.728C252.709 703.071 260.528 712.739 268.478 722.082C272.971 725.457 278.34 728.837 270.926 737.133C263.765 730.932 257.62 720.732 249.496 717.664C242.127 720.009 241.764 704.859 235.822 703.641C230.39 696.041 225.162 688.658 219.73 681.058C215.961 676.604 213.748 668.262 207.978 669.533C203.258 664.534 196.161 662.552 197.774 649.035Z" fill="#FAA845"/>
<path d="M170.925 425.173C172.173 419.162 167.02 416.017 168.268 410.006C169.129 404.96 170.345 401.206 173.72 406.598C175.435 408.864 177.278 410.809 179.67 409.211C192.282 417.02 203.29 429.548 215.332 439.502C216.561 440.799 217.79 442.095 218.89 443.713C223.507 455.453 231.937 462.056 235.498 474.972C235.769 479.379 234.735 481.952 232.753 483.983C229.025 486.004 225.899 483.622 223.731 478.129C214.172 451.102 195.116 443.364 181.917 423.946C177.593 418.011 174.644 426.806 170.925 425.173Z" fill="#F09C3B"/>
<path d="M217.714 441.306C204.36 433.133 191.413 423.92 181.435 405.565C183.83 401.743 183.922 396.888 184.571 392.146C186.787 384.163 190.973 385.77 194.934 385.644C196.259 386.103 197.448 386.909 198.773 387.368C203.395 390.939 207.806 394.28 212.428 397.851C220.196 403.38 219.08 410.088 213.521 417.386C208.066 428.268 219.359 431.706 217.714 441.306Z" fill="#FEAC4A"/>
<path d="M196.539 391.31C193.452 392.337 190.231 393.706 187.01 395.074C174.996 385.421 164.531 372.581 160.428 349.612C163.44 348.016 165.199 345.057 165.762 339.824C167.836 340.618 169.567 341.526 171.64 342.32C171.961 352.896 176.349 357.668 180.947 362.667C187.634 369.938 195.276 376.298 196.539 391.31Z" fill="#F69724"/>
<path d="M174.873 410.491C172.422 409.279 170.965 411.463 169.377 413.976C166.756 410.246 163.928 406.296 161.307 402.566C152.627 400.786 147.178 393.107 145.427 379.09C146.025 378.326 147.221 376.798 147.427 377.017C157.627 386.026 169.21 392.302 174.873 410.491Z" fill="#ED8D1A"/>
<path d="M144.64 380.656C150.052 389.018 155.388 396.807 160.799 405.169C159.601 409.759 160.172 418.245 154.521 413.554C150.684 410.35 146.382 409.097 143.414 402.909C144.133 398.779 142.724 396.259 141.105 393.509C141.269 389.265 139.77 384.68 140.968 380.09C142.287 380.546 143.531 380.429 144.64 380.656Z" fill="#F69F37"/>
<path d="M141.635 381.495C143.5 386.059 144.665 390.86 141.758 395.208C140.407 393.22 139.057 391.233 137.706 389.245C138.577 384.671 136.939 381.864 135.437 378.704C137.946 376.937 139.585 379.744 141.635 381.495Z" fill="#FBD3A4"/>
<path d="M197.303 654.801C198.92 664.344 203.591 669.907 207.784 675.925C205.074 679.791 199.563 666.502 198.469 679.912C194.634 675.257 191.544 669.466 190.152 661.627C190.683 653.445 186.044 650.836 183.655 646.294C190.003 641.514 193.259 649.919 197.303 654.801Z" fill="#ED9936"/>
<path d="M197.143 386.743C190.331 378.084 184.824 366.15 176.164 360.654C170.496 356.481 168.433 349.15 172.555 339.544C173.378 340.421 173.865 341.407 174.688 342.284C179.754 342.083 179.688 351.812 183.373 354.339C186.516 356.754 189.473 360.372 192.009 353.275C203.124 365.119 218.1 368.012 224.234 390.88C224.947 393.506 225.996 396.024 226.372 398.758C224.082 408.916 220.784 400.269 218.073 399.713C211.622 397.505 206.045 390.162 199.277 389.483C198.454 388.606 197.967 387.62 197.143 386.743Z" fill="#F59522"/>
<path d="M191.398 354.581C189.391 355.863 195.059 366.052 187.713 362.479C181.135 359.251 178.891 350.326 175.409 343.03C176.075 339.78 176.529 336.3 177.195 333.05C184.377 333.957 183.472 333.959 184.295 347.295C184.789 355.296 188.654 351.573 191.266 347.97C194.071 350.05 193.467 352.371 191.398 354.581Z" fill="#F69724"/>
<path d="M137.071 390.04C136.01 391.975 134.719 392.102 133.274 391.024C134.706 390.534 135.78 390.167 137.071 390.04Z" fill="#FCE8CE"/>
<path d="M260.202 381.961C265.02 378.019 268.557 381.848 271.77 387.253C278.694 393.783 287.506 391.755 293.573 401.214C296.227 399.749 298.973 400.312 300.996 403.465C311.999 419.23 325.339 429.814 337.007 443.889C337.117 459.43 332.658 464.724 323.495 460.108C322.738 459.77 321.64 459.545 321.149 458.532C317.254 453.352 311.837 452.79 309.248 448.06C313.218 453.803 320.225 455.604 324.569 464.162C330.29 491.076 317.547 472.947 313.545 476.326C311.482 475.538 309.551 474.412 307.753 472.949C293.172 455.72 279.847 434.55 261.482 427.683C255.315 421.49 254.098 411.017 252.483 401.558C253.064 392.548 256.217 386.804 260.202 381.961Z" fill="#FDAB4A"/>
<path d="M261.753 388.317C262.692 398.572 257.034 402.058 254.604 409.107C245.704 407.478 240.511 398.675 238.824 384.01C239.166 382.338 239.583 381.263 239.647 380.308C242.152 373.855 246.382 378.01 249.496 376.326C254.041 375.708 257.131 379.631 259.664 384.987C260.386 386.296 261.247 387.246 261.753 388.317Z" fill="#FEB04C"/>
<path d="M260.836 383.207C257.339 381.805 253.765 379.872 251.216 375.409C244.637 365.836 237.93 356.579 231.352 347.005C236.538 345.671 238.599 352.775 241.94 356.716C245.41 360.34 247.342 367.761 252.529 366.426C255.562 371.846 261.076 374.005 260.836 383.207Z" fill="#F4911B"/>
<path d="M299.057 674.182C291.113 666.566 281.56 661.523 278.763 644.619C281.761 649.77 285.197 651.562 289.371 652.236C299.701 653.809 294.495 646.754 291.894 640.596C294.148 634.888 296.846 637.8 299.734 639.48C310.279 653.255 323.17 663.336 327.68 686.398C328.412 690.54 330.978 693.788 329.255 698.153C327.532 702.518 324.396 702.964 322.188 701.06C313.903 693.555 303.29 691.199 299.057 674.182Z" fill="#FAA33D"/>
<path d="M296.608 631.832C295.471 633.962 294.335 636.091 293.198 638.221C286.478 630.483 279.757 622.745 273.036 615.006C270.942 611.306 267.769 608.838 268.721 602.672C271.992 601.889 274.808 603.011 276.579 608.281C279.636 612.542 282.584 613.328 286.311 610.639C287.672 610.191 288.976 610.639 290.355 611.649C294.583 616.696 297.185 622.863 296.608 631.832Z" fill="#E28E2C"/>
<path d="M272.221 683.154C272.837 682.345 273.378 680.961 273.995 680.153C275.332 682.109 276.669 684.065 278.007 686.021C286.423 688.306 290.63 699.82 295.994 709.143C297.872 716.63 297.661 723.315 292.64 727.707C286.793 725.761 281.007 722.894 279.025 711.835C276.981 708.613 274.802 705.737 272.969 702.745C275.539 703.084 278.109 703.424 280.89 703.993C277.9 696.279 276.503 688.33 272.221 683.154Z" fill="#FCA844"/>
<path d="M296.63 700.505C288.459 697.92 287.116 682.531 280.483 676.801C285.825 671.522 292.66 682.756 297.327 672.422C306.663 681.073 315.791 689.499 325.958 699.048C322.516 667.932 307.146 658.045 296.212 641.418C298.996 639.621 302.154 640.633 303.759 643.329C312.822 657.933 324.808 665.124 333.797 679.167C338.427 683.211 343.93 685.796 346.966 693.884C353.211 707.365 364.54 710.961 369.781 726.238C369.018 731.181 366.633 731.967 364.173 732.191C358.289 732.078 353.907 725.899 348.728 721.742C351.147 723.877 353.093 726.461 353.352 731.067C346.092 741.962 337.795 734.434 329.792 734.433C328.204 733.198 325.993 731.288 326.034 728.929C325.604 709.72 317.549 705.338 308.357 703.09C304.442 701.742 300.469 701.292 296.63 700.505Z" fill="#EC952E"/>
<path d="M270.023 732.058C273.646 725.174 270.276 721.113 267.579 716.835C269.86 715.529 271.713 717.506 273.436 719.81C286.174 721.712 294.399 739.36 306.167 744.433C308.844 747.288 310.717 750.687 311.264 755.942C309.494 764.803 306.355 767.529 301.524 760.508C301.82 757.554 301.163 754.049 299.535 753.715C287.957 752.583 279.531 739.86 270.023 732.058Z" fill="#FAA541"/>
<path d="M305.997 745.875C293.317 742.731 285.057 726.137 274.425 717.052C275.561 714.923 276.698 712.793 277.834 710.664C282.403 715.598 288.033 717.842 291.673 725.13C297.102 721.881 302.282 720.762 307.474 726.369C311.114 733.657 312.977 740.945 305.997 745.875Z" fill="#E8922D"/>
<path d="M230.126 549.406C233.104 555.606 238.296 555.655 241.91 560.291C252.192 569.175 259.65 583.575 268.456 595.373C269.958 597.375 269.474 599.985 268.049 602.063C266.751 600.273 265.453 598.483 264.155 596.692C253.873 587.809 246.135 572.674 234.835 566.291C232.239 562.71 229.439 558.918 226.843 555.337C224.375 555 222.135 552.678 223.331 549.028C225.036 544.128 227.937 549.804 230.126 549.406Z" fill="#FEAC4A"/>
<path d="M230.637 552.185C231.111 556.857 221.045 546.172 227.161 558.686C215.61 552.447 207.679 535.69 196.074 530.32C198.175 526.528 201.303 523.827 204.179 526.879C212.601 535.82 223.83 538.474 230.637 552.185Z" fill="#FBA746"/>
<path d="M268.133 601.334C262.585 581.621 250.337 572.801 241.839 558.267C242.563 557.188 242.952 556.217 243.676 555.139C252.898 568.595 262.25 581.728 271.473 595.184C274.161 599.416 278.244 602.356 278.091 610.035C275.574 608.292 272.853 606.332 270.336 604.589C269.31 603.503 268.824 602.527 268.133 601.334Z" fill="#F7A442"/>
<path d="M233.615 705.059C240.322 704.342 242.631 714.579 247.269 719.017C250.496 732.058 260.946 734.375 263.709 747.843C252.967 739.713 243.519 728.36 234.2 716.686C236.496 713.146 236.096 709.054 233.615 705.059Z" fill="#EB9733"/>
<path d="M191.291 349.739C191.196 347.763 191.102 345.787 191.007 343.811C195.443 341.518 198.217 346.356 201.515 349.878C204.682 353.729 207.509 352.53 208.16 345.726C217.12 362.327 228.456 374.434 239.922 386.213L240.128 386.433C240.056 391.043 238.822 394.881 236.352 397.399C233.264 399.256 230.119 401.991 227.401 396.276C223.802 390.557 219.887 386.375 217.616 378.794C215.834 372.203 212.216 365.057 207.835 366.472C198.792 368.531 195.865 357.436 191.291 349.739Z" fill="#F2901B"/>
<path d="M221.112 476.294C223.603 477.985 226.298 479.886 228.79 481.578C242.238 486.191 251.346 503.568 263.347 512.436C268.688 520.612 275.223 525.156 281.199 531.776C285.981 538.489 292.616 541.367 297.347 548.912C299.941 552.479 302.739 556.256 303.504 561.47C305.314 572.63 302.367 574.891 296.163 570.247C277.827 549.965 258.857 531.238 239.633 513.134C235.055 506.632 230.477 500.129 225.695 493.417C224.65 487.471 217.888 484.904 221.112 476.294Z" fill="#FDAA48"/>
<path d="M293.3 567.466C295.411 566.749 299.08 566.733 299.28 565.432C300.332 556.447 295.505 553.159 292.424 547.736C299.331 538.609 303.961 551.824 309.478 553.337C317.385 562.048 326.473 568.509 331.468 583.14C332.692 594.125 326.12 592.971 323.408 597.591C320.532 599.493 318.808 596.074 316.809 593.364C313.189 590.898 311.288 583.225 306.35 583.364C308.665 589.972 313.327 590.543 316.395 594.429C317.464 595.607 318.394 597.139 318.835 599.146C319.641 602.569 320.798 605.873 322.446 608.702C331.199 625.445 330.785 626.51 317.658 634.364C315.031 632.485 312.052 630.725 309.425 628.845C309.02 622.82 309.332 618.092 303.49 619.771C298.489 620.856 296.335 608.339 290.894 607.417C290.177 606.12 289.536 605.414 288.819 604.117C289.153 593.835 283.133 591.261 280.328 585.128C282.248 578.62 286.255 576.949 289.76 574.217C290.802 572.322 294.484 573.842 293.3 567.466Z" fill="#F9A23B"/>
<path d="M289.706 581.832C289.449 591.196 285.081 591.172 280.789 591.687C272.29 580.876 265.471 565.876 254.751 559.144C251.289 556.865 250.252 550.723 248.828 545.549C260.161 544.211 266.387 559.961 275.101 567.328C279.869 571.445 284.658 576.96 289.706 581.832Z" fill="#FCAD4B"/>
<path d="M235.896 471.015C229.598 459.841 220.676 453.071 217.21 437.719C228.5 423.377 236.306 440.534 245.229 447.304C249.786 456.107 255.402 443.348 260.759 450.12C265.282 455.988 270.739 459.486 272.638 469.758C275.213 473.031 264.648 472.696 272.038 477.322C275.354 479.466 277.603 484.319 276.72 491.093C268.005 496.628 261.457 487.6 254.467 481.958C245.127 474.737 238.263 461.983 230.973 454.083C232.856 462.888 243.895 462.771 243.586 477.898C239.103 481.738 237.137 477.675 235.896 471.015Z" fill="#FDAD4B"/>
<path d="M245.988 456.63C238.086 445.284 229.675 436.715 218.623 440.034C217.796 439.144 217.307 438.143 216.611 436.919C213.77 432.915 211.193 428.243 208.22 424.572C201.522 416.894 207.472 413.791 209.94 409.793C216.829 411.025 222.945 415.701 229.004 421.266C233.69 425.829 238.168 430.169 242.59 435.399C243.83 441.957 254.558 445.417 245.988 456.63Z" fill="#FEB352"/>
<path d="M233.719 473.676C236.053 476.61 238.072 481.058 241.347 479.449C250.758 482.957 257.054 494.245 263.405 504.668C264.679 508.787 266.623 512.694 263.52 516.793C251.972 505.48 240.164 494.816 230.043 479.938C231.287 477.562 232.401 475.51 233.719 473.676Z" fill="#E38F2D"/>
<path d="M229.694 422.751C223.039 420.841 217.429 414.778 212.159 408.603C213.845 406.583 216.379 406.92 217.615 401.532C211.133 396.929 203.854 394.345 197.961 387.497C207.971 383.907 215.728 398.052 225.166 398.166C227.625 397.942 230.084 397.718 232.543 397.494C236.3 402.996 241.893 407.599 240.443 418.038C239.068 429.039 232.483 415.679 229.694 422.751Z" fill="#FCA843"/>
<path d="M259.327 430.717C266.209 422.284 270.702 434.456 275.535 437.732C287.589 446.356 298.214 458.554 306.555 475.733C309.342 481.93 317.494 486.414 313.575 494.751C309.396 503.738 303.138 495.248 298.49 490.779C292.685 485.546 288.125 477.931 282.71 471.723C275.102 458.561 266.976 446.7 257.994 436.245C257.281 433.637 257.725 431.795 259.327 430.717Z" fill="#F29F3D"/>
<path d="M261.252 435.535C260.84 436.593 260.078 437.769 259.529 439.18C252.811 449.416 249.422 431.59 243.685 433.841C237.633 432.221 233.777 424.959 229.297 418.522C228.007 415.592 224.905 414.196 225.64 409.968C226.313 406.679 228.639 407.727 230.402 408.659C232.804 410.293 234.457 414.629 238.382 413.91C238.513 404.99 230.272 401.97 232.291 392.104C234.226 388.693 236.161 385.282 237.884 381.637C240.106 394.656 247.325 401.083 252.669 409.983C258.824 415.241 256.696 428.511 261.252 435.535Z" fill="#F5A13E"/>
<path d="M284.429 468.108C292.659 477.922 299.699 490.742 311.211 495.991C311.84 486.187 304.114 484.062 305.646 475.707C306.871 475.597 308.096 475.487 309.321 475.377C315.704 484.631 320.277 496.223 323.906 508.706C319.717 517.058 314.823 507.025 310.355 509.36C307.905 509.58 305.304 508.686 303.1 506.79C297.714 500.99 292.667 495.08 286.298 492.511C282.719 489.61 278.744 487.712 277.297 480.914C272.928 474.781 268.899 468.537 264.041 461.402C266.645 457.059 269.956 465.865 272.71 462.636C277.253 460.858 280.075 468.661 284.429 468.108Z" fill="#EE9A37"/>
<path d="M266.203 398.609C274.624 402.451 279.66 414.771 287.821 419.266C290.679 420.91 293.056 426.688 290.562 431.468C288.924 434.836 285.45 432.536 283.58 429.154C277.372 419.769 269.841 412.229 266.203 398.609Z" fill="#E69231"/>
<path d="M288.432 533.469C285.997 533.682 283.43 534.225 280.788 534.218C275.464 526.179 267.575 523.849 263.036 513.834C263.728 509.878 262.471 507.127 260.746 504.814C266.945 497.355 270.19 506.928 274.651 511.227C279.02 518.714 287.377 520.605 288.432 533.469Z" fill="#E69330"/>
<path d="M274.514 515.417C270.492 511.63 268.409 503.013 262.652 504.272C255.922 494.877 249.397 485.697 242.797 475.98C237.372 468.42 232.152 461.076 226.856 453.195C243.785 461.894 256.771 484.77 275.1 488.528C278.819 490.163 282.205 491.902 284.837 496.973C287.662 497.203 289.398 500.87 291.189 503.677C294.155 508.641 295.138 515.639 293.069 520.791C290.301 528.413 286.591 523.121 283.054 520.305C280.336 518.354 277.802 515.22 274.514 515.417Z" fill="#FDAD4B"/>
<path d="M284.836 472.623C280.082 476.451 276.578 472.709 273.186 467.211C268.351 460.172 263.777 452.475 257.166 449.163C249.729 444.97 258.013 456.63 254.548 455.741C251.757 454.636 249.022 452.652 246.157 450.997C250.158 441.678 242.948 439.133 241.577 432.982C247.509 426.193 251.356 440.145 256.878 438.075C268.734 443.708 275.336 461.07 284.836 472.623Z" fill="#FDAD4B"/>
<path d="M273.456 511.999C280.593 500.691 283.461 523.006 290.227 517.339C293.01 506.283 287.75 499.489 284.378 491.746C292.51 489.6 297.372 498.981 302.57 506.716C295.777 509.328 302.349 513.532 302.239 516.94C302.506 523.284 305.163 529.737 301.914 535.742C297.285 536.7 296.002 526.717 291.51 527.322C290.885 528.147 290.335 529.559 289.71 530.384C285.625 521.352 278.029 520.559 273.456 511.999Z" fill="#FDAA48"/>
</g>
</svg>
