<svg width="90" height="90" viewBox="0 0 90 90" fill="none" xmlns="http://www.w3.org/2000/svg">
<g filter="url(#filter0_b)">
<path d="M43.9527 73.2893C35.1014 73.2893 23.334 71.7028 23.334 57.9875C23.334 47.8281 32.9416 37.2053 37.0718 33.1074C37.2218 32.9587 37.4234 32.8755 37.6332 32.8757H50.2731C50.4829 32.8755 50.6845 32.9587 50.8345 33.1074C54.9639 37.2029 64.5715 47.8321 64.5715 57.9875C64.5715 71.7028 52.8041 73.2893 43.9527 73.2893ZM37.9604 34.5012C33.8591 38.6114 24.9379 48.6302 24.9379 57.9875C24.9379 67.4464 30.8004 71.6638 43.9527 71.6638C57.1051 71.6638 62.9676 67.4464 62.9676 57.9875C62.9676 48.6302 54.0464 38.6114 49.9451 34.4988L37.9604 34.5012Z" fill="#E41A32"/>
<path d="M50.1282 34.5012H37.7778C36.9719 34.488 36.2034 34.1543 35.638 33.572C35.0727 32.9898 34.7559 32.2056 34.7559 31.3888C34.7559 30.5719 35.0727 29.7878 35.638 29.2055C36.2034 28.6232 36.9719 28.2895 37.7778 28.2763H50.1282C50.9341 28.2895 51.7026 28.6232 52.268 29.2055C52.8333 29.7878 53.1501 30.5719 53.1501 31.3888C53.1501 32.2056 52.8333 32.9898 52.268 33.572C51.7026 34.1543 50.9341 34.488 50.1282 34.5012ZM37.7778 29.9018C37.3946 29.9109 37.0301 30.0715 36.7623 30.3494C36.4944 30.6273 36.3445 31.0003 36.3445 31.3888C36.3445 31.7772 36.4944 32.1502 36.7623 32.4281C37.0301 32.706 37.3946 32.8666 37.7778 32.8757H50.1282C50.5114 32.8666 50.8759 32.706 51.1437 32.4281C51.4116 32.1502 51.5615 31.7772 51.5615 31.3888C51.5615 31.0003 51.4116 30.6273 51.1437 30.3494C50.8759 30.0715 50.5114 29.9109 50.1282 29.9018H37.7778Z" fill="#E41A32"/>
<path d="M50.0251 29.9018H37.8639C37.7125 29.9012 37.5644 29.8571 37.4366 29.7747C37.3089 29.6923 37.2068 29.5749 37.1422 29.4361L32.5108 19.5091C32.4598 19.3993 32.4338 19.2793 32.4346 19.1579C32.4354 19.0366 32.463 18.917 32.5154 18.8078C32.5677 18.6987 32.6436 18.6028 32.7373 18.5273C32.831 18.4517 32.9402 18.3984 33.0569 18.3712L41.4616 16.4206C41.6522 16.3775 41.8519 16.4064 42.023 16.5019L44.9093 18.103L55.4825 17.1919C55.6247 17.1797 55.7675 17.2062 55.8962 17.2686C56.0249 17.3311 56.1349 17.4271 56.2147 17.547C56.2946 17.6668 56.3414 17.8061 56.3505 17.9504C56.3595 18.0947 56.3303 18.2389 56.266 18.368L50.7412 29.4556C50.6743 29.5899 50.5719 29.7027 50.4455 29.7815C50.319 29.8602 50.1735 29.9019 50.0251 29.9018ZM38.3724 28.2763H49.5319L54.1833 18.9345L44.8002 19.7399C44.6431 19.7521 44.4858 19.7182 44.3471 19.6424L41.5225 18.0705L34.3874 19.7285L38.3724 28.2763Z" fill="#E41A32"/>
<path d="M43.9511 64.3878C41.9397 64.3878 39.9734 63.7834 38.3009 62.6508C36.6285 61.5183 35.325 59.9086 34.5553 58.0252C33.7856 56.1419 33.5843 54.0695 33.9767 52.0702C34.3692 50.0709 35.3379 48.2345 36.7602 46.7931C38.1826 45.3517 39.9947 44.3702 41.9675 43.9726C43.9404 43.575 45.9852 43.7792 47.8435 44.5594C49.7018 45.3396 51.29 46.6608 52.4074 48.3558C53.5248 50.0508 54.1211 52.0436 54.1209 54.0821C54.1177 56.8145 53.0452 59.434 51.1387 61.3661C49.2321 63.2981 46.6472 64.3848 43.9511 64.3878ZM43.9511 45.401C42.2569 45.401 40.6008 45.9101 39.1921 46.864C37.7835 47.8179 36.6856 49.1737 36.0372 50.76C35.3889 52.3462 35.2193 54.0917 35.5498 55.7757C35.8803 57.4596 36.6961 59.0064 37.8941 60.2205C39.0921 61.4346 40.6184 62.2614 42.28 62.5963C43.9416 62.9313 45.6639 62.7594 47.2291 62.1023C48.7943 61.4453 50.1321 60.3326 51.0734 58.905C52.0146 57.4774 52.517 55.799 52.517 54.0821C52.5146 51.7804 51.6114 49.5737 50.0055 47.9462C48.3996 46.3187 46.2222 45.4034 43.9511 45.401Z" fill="#E41A32"/>
<path d="M43.9537 60.1226C43.0578 60.1215 42.1988 59.7603 41.5652 59.1182C40.9317 58.4762 40.5753 57.6056 40.5742 56.6976C40.5742 56.4821 40.6587 56.2753 40.8091 56.1229C40.9595 55.9705 41.1635 55.8848 41.3762 55.8848C41.5889 55.8848 41.7929 55.9705 41.9433 56.1229C42.0937 56.2753 42.1782 56.4821 42.1782 56.6976C42.1788 57.0534 42.2835 57.401 42.479 57.6964C42.6744 57.9919 42.952 58.2221 43.2765 58.3578C43.601 58.4935 43.9579 58.5286 44.3021 58.4588C44.6463 58.389 44.9624 58.2174 45.2104 57.9656C45.4584 57.7138 45.6272 57.3932 45.6954 57.0442C45.7637 56.6953 45.7283 56.3336 45.5938 56.005C45.4594 55.6764 45.2318 55.3955 44.9399 55.1979C44.6479 55.0004 44.3048 54.8949 43.9537 54.8949C43.2853 54.8949 42.6319 54.694 42.0762 54.3177C41.5204 53.9414 41.0873 53.4065 40.8315 52.7806C40.5757 52.1548 40.5088 51.4661 40.6392 50.8018C40.7696 50.1374 41.0914 49.5271 41.5641 49.0481C42.0367 48.5691 42.6389 48.2429 43.2944 48.1108C43.95 47.9786 44.6295 48.0465 45.247 48.3057C45.8645 48.5649 46.3924 49.0039 46.7637 49.5671C47.1351 50.1304 47.3333 50.7926 47.3333 51.4699C47.3333 51.6855 47.2488 51.8922 47.0984 52.0447C46.948 52.1971 46.744 52.2827 46.5313 52.2827C46.3186 52.2827 46.1146 52.1971 45.9642 52.0447C45.8138 51.8922 45.7293 51.6855 45.7293 51.4699C45.7293 51.1141 45.6252 50.7661 45.4301 50.4702C45.235 50.1743 44.9577 49.9437 44.6332 49.8075C44.3088 49.6713 43.9518 49.6356 43.6073 49.7051C43.2629 49.7745 42.9465 49.9459 42.6982 50.1975C42.4499 50.4492 42.2808 50.7698 42.2123 51.1189C42.1438 51.468 42.1789 51.8298 42.3133 52.1586C42.4477 52.4874 42.6753 52.7684 42.9673 52.9661C43.2593 53.1639 43.6026 53.2694 43.9537 53.2694C44.8505 53.2694 45.7105 53.6304 46.3446 54.273C46.9786 54.9156 47.3349 55.7872 47.3349 56.696C47.3349 57.6048 46.9786 58.4763 46.3446 59.1189C45.7105 59.7616 44.8505 60.1226 43.9537 60.1226Z" fill="#E41A32"/>
<path d="M43.9533 49.6705C43.7406 49.6705 43.5367 49.5849 43.3863 49.4325C43.2359 49.2801 43.1514 49.0733 43.1514 48.8578V48.0361C43.1514 47.8205 43.2359 47.6138 43.3863 47.4614C43.5367 47.309 43.7406 47.2233 43.9533 47.2233C44.166 47.2233 44.37 47.309 44.5204 47.4614C44.6708 47.6138 44.7553 47.8205 44.7553 48.0361V48.8578C44.7553 49.0733 44.6708 49.2801 44.5204 49.4325C44.37 49.5849 44.166 49.6705 43.9533 49.6705Z" fill="#E41A32"/>
<path d="M43.9533 60.9402C43.7406 60.9402 43.5367 60.8546 43.3863 60.7022C43.2359 60.5497 43.1514 60.343 43.1514 60.1275V59.3098C43.1514 59.0943 43.2359 58.8875 43.3863 58.7351C43.5367 58.5827 43.7406 58.4971 43.9533 58.4971C44.166 58.4971 44.37 58.5827 44.5204 58.7351C44.6708 58.8875 44.7553 59.0943 44.7553 59.3098V60.1315C44.7543 60.3464 44.6693 60.5521 44.519 60.7036C44.3687 60.8552 44.1653 60.9402 43.9533 60.9402Z" fill="#E41A32"/>
</g>
<path d="M82.3804 68.21C77.3549 76.3037 69.8382 82.5477 60.96 86.0034C52.0819 89.4591 42.322 89.9399 33.1471 87.3735C23.9723 84.807 15.8784 79.3321 10.0817 71.7715C4.28508 64.2109 1.09898 54.9732 1.00227 45.4466C0.905557 35.9201 3.90347 26.6196 9.54542 18.9429C15.1874 11.2662 23.1685 5.62804 32.2894 2.8759C41.4102 0.123762 51.1779 0.406305 60.1243 3.68107C69.0708 6.95583 76.7127 13.0459 81.9015 21.0359" stroke="#E41A32" stroke-width="2"/>
<defs>
<filter id="filter0_b" x="3.33398" y="-3.59888" width="81.2375" height="96.8882" filterUnits="userSpaceOnUse" color-interpolation-filters="sRGB">
<feFlood flood-opacity="0" result="BackgroundImageFix"/>
<feGaussianBlur in="BackgroundImage" stdDeviation="10"/>
<feComposite in2="SourceAlpha" operator="in" result="effect1_backgroundBlur"/>
<feBlend mode="normal" in="SourceGraphic" in2="effect1_backgroundBlur" result="shape"/>
</filter>
</defs>
</svg>
