<svg width="34" height="34" viewBox="0 0 34 34" fill="none" xmlns="http://www.w3.org/2000/svg">
<circle cx="17" cy="17" r="17" fill="#FF007B"/>
<path d="M11.7071 13.2929C11.3166 12.9024 10.6834 12.9024 10.2929 13.2929C9.90237 13.6834 9.90237 14.3166 10.2929 14.7071L11.7071 13.2929ZM17 20L16.2929 20.7071C16.6834 21.0976 17.3166 21.0976 17.7071 20.7071L17 20ZM23.7071 14.7071C24.0976 14.3166 24.0976 13.6834 23.7071 13.2929C23.3166 12.9024 22.6834 12.9024 22.2929 13.2929L23.7071 14.7071ZM10.2929 14.7071L16.2929 20.7071L17.7071 19.2929L11.7071 13.2929L10.2929 14.7071ZM17.7071 20.7071L23.7071 14.7071L22.2929 13.2929L16.2929 19.2929L17.7071 20.7071Z" fill="white"/>
</svg>
