<svg width="20" height="20" viewBox="0 0 20 20" fill="none" xmlns="http://www.w3.org/2000/svg">
<path d="M17.9611 3.33324C17.8854 3.32544 17.8091 3.32544 17.7333 3.33324H2.17778C2.07808 3.33478 1.97904 3.34973 1.88333 3.37769L9.91111 11.3721L17.9611 3.33324Z" fill="#280DA8"/>
<path d="M18.7833 4.10547L10.6945 12.161C10.4863 12.368 10.2047 12.4841 9.91112 12.4841C9.61758 12.4841 9.33597 12.368 9.12779 12.161L1.11112 4.16658C1.08648 4.25716 1.07341 4.35049 1.07224 4.44436V15.5555C1.07224 15.8502 1.1893 16.1328 1.39767 16.3411C1.60605 16.5495 1.88866 16.6666 2.18335 16.6666H17.7389C18.0336 16.6666 18.3162 16.5495 18.5246 16.3411C18.733 16.1328 18.85 15.8502 18.85 15.5555V4.44436C18.8456 4.32861 18.8231 4.21427 18.7833 4.10547ZM2.94446 15.5555H2.17224V14.761L6.21112 10.7555L6.99446 11.5388L2.94446 15.5555ZM17.7278 15.5555H16.95L12.9 11.5388L13.6833 10.7555L17.7222 14.761L17.7278 15.5555Z" fill="#280DA8"/>
</svg>
