<svg width="145" height="892" viewBox="0 0 145 892" fill="none" xmlns="http://www.w3.org/2000/svg">
<path d="M91.002 639.072C91.4215 642.857 92.1287 646.533 94.1232 650.094C93.1666 664.928 91.7873 666.018 79.3272 664.572C77.7082 663.498 76.4531 662.098 75.7138 659.938C74.9947 653.448 70.1262 647.414 71.2701 640.588C75.2997 639.051 73.9847 637.11 71.1106 634.636C66.8178 628.383 67.0061 622.862 71.7516 617.856C72.9351 615.902 74.3303 614.054 75.7256 612.206C76.6811 610.902 78.0604 609.812 79.7114 609.37C85.9313 612.257 81.0938 618.237 84.0117 622.009C86.4577 627.84 89.8432 633.125 91.002 639.072Z" fill="#F8AE55"/>
<path d="M9.53093 520.914C17.1613 530.849 26.7991 537.864 37.1605 543.524C41.8261 546.097 46.6237 548.982 49.0758 554.372C48.9704 556.035 47.9825 556.767 46.3182 556.672C24.9348 543.796 2.60581 532.899 -15.1593 513.25C-8.1276 509.161 -1.78199 511.102 9.53093 520.914Z" fill="#FB9F30"/>
<path d="M14.7327 775.795C10.4027 776.342 5.98757 774.376 1.91166 772.827C-7.19959 769.001 -16.8883 766.12 -23.658 757.045C-25.6621 753.077 -26.0709 749.414 -22.4622 746.776C-9.021 750.056 3.45611 756.063 13.1625 767.845C14.7105 770.35 17.0269 772.746 14.7327 775.795Z" fill="#EC9835"/>
<path d="M77.3112 662.359C88.6693 666.543 89.9487 657.173 93.1954 650.079C101.646 658.96 91.7097 665.764 93.4103 673.811C85.9104 674.396 87.9013 682.333 85.2839 686.92C83.34 690.305 81.1588 687.922 79.0986 686.627C75.9625 678.37 71.8184 670.119 77.3112 662.359Z" fill="#FACE99"/>
<path d="M69.49 716.181C70.0241 724.608 64.5928 728.745 58.7268 729.859C54.7204 730.638 52.1623 733.678 48.3075 734.024C44.4452 727.993 44.0746 721.943 47.6783 716.627C53.68 715.837 57.3596 710.304 63.1498 709.407C66.2622 710.471 68.8598 712.294 69.49 716.181Z" fill="#FCE0BE"/>
<path d="M47.4118 556.352C47.6353 555.716 48.0666 555.184 48.2901 554.549C50.5009 555.912 52.4293 557.382 54.6401 558.745C57.4267 562.643 56.3205 568.573 61.722 571.294C62.9957 573.931 62.5328 575.943 61.0899 577.961C60.3019 578.811 59.1729 579.241 58.1183 579.458C53.3672 579.061 49.2438 575.487 44.6575 573.926C37.5194 570.58 35.1842 561.919 29.0578 557.087C28.0936 556.351 29.4032 554.017 30.7558 552.952C35.2878 550.494 38.9957 553.859 43.2252 555.74C44.6365 555.203 45.8944 558.581 47.4118 556.352Z" fill="#F79E32"/>
<path d="M10.1306 521.225C1.95864 518.111 -6.12321 514.048 -14.6083 512.515C-18.2573 516.641 -22.9807 515.508 -27.9114 514.272C-31.7158 512.608 -34.171 509.884 -34.5652 505.464C-30.6617 499.232 -22.5798 503.294 -17.8203 499.478C-14.6646 498.829 -11.7634 500.287 -9.36677 502.485C-4.88661 508.462 2.33933 510.107 6.89382 515.873C8.81743 517.337 10.2522 518.803 10.1306 521.225Z" fill="#FBD09D"/>
<path d="M-20.1321 475.577C-17.1988 475.561 -14.2655 475.545 -11.3322 475.529C-4.65672 480.127 3.08664 483.771 5.04447 493.451C4.37535 495.35 2.90867 495.358 1.38343 494.84C-1.5927 493.592 -3.48513 490.653 -6.31256 488.983C-8.59254 487.837 -10.8883 487.428 -13.4656 487.126C-15.3468 486.926 -17.3024 486.936 -19.3323 487.158C-20.8733 487.377 -22.4729 487.07 -23.9238 486.34C-26.544 484.775 -28.1705 482.466 -28.522 479.308C-28.5648 478.045 -28.2674 477.201 -27.4812 476.354C-25.2868 474.973 -22.5924 476.327 -20.1321 475.577Z" fill="#F9B769"/>
<path d="M91.4172 638.727C87.2809 634.077 83.7999 628.989 82.4216 622.911C83.4163 606.497 83.4163 606.497 89.2218 603.531C89.3099 606.139 88.7428 609.184 89.7758 611.243C94.9568 620.778 94.1237 629.584 91.4172 638.727Z" fill="#FCE1C0"/>
<path d="M-7.16579 772.965C-4.71418 779.167 0.898735 781.244 5.50222 784.801C10.5203 788.566 8.79877 790.683 5.19578 792.599C-3.83991 790.541 -10.3947 783.517 -17.3214 777.55C-19.6873 773.875 -23.8176 771.053 -21.0551 765.981C-15.6022 765.741 -10.6697 766.979 -7.16579 772.965Z" fill="#FBB665"/>
<path d="M48.904 717.265C47.6443 722.994 48.5883 728.818 48.5361 734.648C45.2445 735.53 42.2836 737.598 38.4821 735.676C37.3429 728.989 30.5132 722.226 35.9252 715.286C37.6628 713.873 39.9422 713.753 42.0861 713.309C44.3654 713.188 46.5691 713.284 48.3023 715.433C48.5733 716.08 48.6331 716.619 48.904 717.265Z" fill="#F7AD52"/>
<path d="M38.179 715.759C36.059 718.992 35.4249 722.216 38.3169 725.957C40.999 729.592 41.28 733.025 38.9501 736.152C37.6149 735.73 36.3391 735.844 35.6021 737.244C34.5363 737.464 33.621 737.255 32.7217 736.294C31.6877 735.011 30.6537 733.729 29.6197 732.446C25.3172 728.498 17.7538 728.219 17.5087 719.739C20.6033 717.253 25.7774 720.122 28.1232 716.245C31.8318 714.828 34.3441 709.769 39.443 712.854C39.6371 713.711 39.6212 714.463 39.1854 715.002C38.6742 715.756 38.3889 715.865 38.179 715.759Z" fill="#F49A2D"/>
<path d="M79.3805 686.046C81.0733 686.902 82.6143 688.19 84.6266 687.422C82.8334 694.677 86.1623 705.796 74.3203 706.186C70.1001 706.858 67.1538 704.604 65.4653 700.18C65.3264 689.909 77.0882 693.303 79.3805 686.046Z" fill="#F9BA6E"/>
<path d="M14.8385 775.484C14.9613 773.018 13.5096 771.526 11.773 770.142C11.0931 762.215 2.33048 759.049 1.00574 751.555C5.40555 743.921 10.3582 750.216 15.1805 752.654C16.7827 753.717 17.8151 754.997 18.1275 756.925C15.9197 761.117 17.8776 765.393 18.9217 769.459C20.31 773.953 19.1388 775.888 14.8385 775.484Z" fill="#F8A441"/>
<path d="M-6.79131 772.702C-11.328 770.435 -16.7369 769.943 -20.6817 766.008C-25.3822 764.888 -27.6772 761.776 -28.0533 756.677C-26.975 755.006 -25.4418 754.79 -23.5858 755.717C-15.1625 761.398 -6.81324 767.288 1.61004 772.97C-0.927576 774.649 -4.1057 770.606 -6.79131 772.702Z" fill="#FCD4A6"/>
<path d="M59.6854 575.77C60.2822 574.071 60.8045 572.583 59.7213 570.787C56.5849 569.956 53.2721 567.535 55.7141 564.765C59.0198 560.93 62.5091 564.94 65.3743 568.635C72.7259 575.593 79.7948 582.658 82.5178 593.033C82.2782 594.413 81.4303 594.736 80.1662 594.849C78.3527 594.435 77.0456 593.276 75.8132 591.904C72.2537 584.608 66.7587 579.336 59.6854 575.77Z" fill="#FBD4A6"/>
<path d="M67.0489 698.785C67.372 703.484 71.5112 704.315 74.214 706.437C71.282 708.483 75.7877 715.296 69.8688 715.328C67.091 713.421 64.3133 711.513 61.4605 709.82C59.9259 705.769 54.9385 701.737 58.2022 697.338C60.5227 694.227 64.2437 694.847 67.0489 698.785Z" fill="#F8BB71"/>
<path d="M80.585 594.213C80.9523 593.884 81.1825 593.229 81.5498 592.9C86.1187 594.945 88.9275 598.415 89.8996 603.53C83.3198 607.923 87.7262 617.593 83.0717 622.956C76.4567 618.853 84.199 614.018 81.1925 609.677C79.7159 604.566 78.3159 599.236 80.585 594.213Z" fill="#FAC485"/>
<path d="M65.8534 568.705C64.3124 568.179 62.9216 567.224 61.5149 567.017C60.1834 566.597 58.6149 564.037 57.7297 565.861C56.4097 568.223 58.9226 569.493 60.0882 571.092C48.5186 571.049 55.2484 563.093 54.4309 558.389C60.8518 558.353 63.9295 562.937 65.8534 568.705Z" fill="#FACB92"/>
<path d="M32.5755 736.701C33.421 737.128 34.0551 737.449 34.9006 737.876C35.8059 738.843 38.4781 740.449 36.3921 741.433C31.3585 743.73 27.5174 746.884 26.8908 752.938C25.1677 753.596 23.6123 753.064 22.2084 752.1C21.2273 751.349 20.5334 750.488 19.9153 749.411C19.5843 748.225 19.6761 747.252 19.8437 746.063C20.7373 744.221 22.4006 743.023 24.1236 742.366C25.3481 741.711 26.4968 741.272 27.3743 740.187C28.2519 739.101 29.0536 738.233 30.1425 737.254C30.7926 736.819 31.6542 736.49 32.5755 736.701Z" fill="#FCCD96"/>
<path d="M1.78205 493.486C2.76103 493.48 3.74003 493.475 4.58592 493.154C8.67785 494.715 12.0999 498.18 16.4309 498.368C16.8302 499.316 17.0219 500.159 16.6497 501.217C16.1445 501.959 15.2986 502.28 14.5271 502.39C10.9676 502.093 7.45538 499.578 3.71541 501.182L3.65671 500.654C0.86862 500.247 0.144499 498.14 -0.148799 495.502C-0.191683 494.235 0.521098 493.598 1.78205 493.486Z" fill="#F8B360"/>
<path d="M20.2184 748.763C20.7707 749.294 21.607 749.716 22.1593 750.247C21.8277 752.599 27.3704 753.636 24.2733 756.857C22.3166 756.12 20.3008 754.85 18.3715 756.142C17.1921 755.294 15.8034 754.341 14.6239 753.493C14.1783 751.253 15.4054 749.858 16.2143 748.251C16.7233 747.501 17.3663 747.07 18.4276 746.851C19.2639 747.273 19.8161 747.804 20.2184 748.763Z" fill="#FDA842"/>
<path d="M3.42662 501.142C6.92749 497.437 10.5095 499.735 14.2244 502.347C11.2912 502.363 8.35809 502.379 5.42492 502.395L4.4629 501.663L3.42662 501.142Z" fill="#F9BD75"/>
<path d="M24.1056 756.947C23.3761 754.816 22.7215 752.471 21.9919 750.339C23.3803 751.292 24.9778 752.351 26.3662 753.304C27.2298 755.755 27.8844 758.101 24.1056 756.947Z" fill="#F8B15C"/>
<path d="M14.1984 502.011C14.7086 501.258 14.934 500.614 15.4441 499.862C16.2983 499.536 17.362 499.316 18.4849 499.631C19.592 500.696 19.9201 501.872 19.1253 502.733C17.67 504.776 15.8749 502.858 14.1984 502.011Z" fill="#F9BD75"/>
<path d="M18.6189 499.377C17.558 499.597 16.572 499.602 15.5861 499.608C15.8109 498.966 16.2448 498.429 16.4697 497.787C17.0218 498.318 17.7829 498.955 18.6189 499.377Z" fill="#F9C07C"/>
<path d="M67.5905 698.629C59.802 698.562 59.8019 698.562 63.3439 704.973C65.0846 707.906 62.4063 708.357 61.792 710.104C60.8173 718.61 55.9655 719.508 49.0379 716.277L49.345 715.403C44.8094 708.235 47.1129 701.683 49.691 695.784C51.5013 692.069 56.0947 689.755 52.9042 683.778C52.2781 682.692 52.3269 680.403 53.5509 680.505C66.9707 680.323 57.8228 666.205 62.558 660.621C62.1786 658.117 62.0901 655.501 63.9283 653.857C65.0918 653.414 66.1786 653.19 67.4026 653.293C71.2887 653.707 74.5 655.325 76.2849 659.565C76.6201 660.762 76.7412 661.851 77.0763 663.048C78.1377 670.78 78.9082 678.623 79.9696 686.355C80.1629 690.822 82.7717 697.02 74.6644 694.994C71.4368 694.139 69.0936 695.787 67.5905 698.629Z" fill="#F49C32"/>
<path d="M77.8443 659.273C75.0326 656.865 71.7005 655.936 68.4269 655.532C61.1024 648.62 51.9508 645.51 44.0474 639.549C39.9176 636.728 35.0602 635.279 30.7818 632.88C27.4812 630.475 24.1062 628.282 24.0679 623.542C28.86 618.25 34.4992 622.327 39.2665 624.724C43.9009 626.805 48.7583 628.253 50.6824 629.718C47.366 628.05 41.2649 625.977 35.7586 622.215C32.8139 619.492 28.7428 617.197 30.5271 612.132C40.8998 610.39 49.4251 616.664 58.0991 622.515C62.4158 629.654 70.2923 633.614 73.2595 641.813C72.3628 647.822 79.4529 652.628 77.8443 659.273Z" fill="#F79622"/>
<path d="M73.737 640.955C68.3125 635.928 61.5772 632.522 58.909 624.574C58.4604 622.316 57.154 620.387 55.7721 618.673C53.5047 615.242 50.2444 611.816 51.4084 607.075C54.6654 600.6 60.547 600.782 66.8931 602.469C70.3755 608.798 71.6627 601.581 74.2798 601.889C81.8133 604.43 77.925 610.586 78.8976 614.885C77.6465 617.044 76.6813 619.094 75.4301 621.253C72.5866 621.592 67.4438 620.006 67.3683 620.222C67.1058 625.927 70.1992 630.537 73.8645 634.928C78.058 637.811 76.0405 639.328 73.737 640.955Z" fill="#F59A2C"/>
<path d="M79.2426 614.293C75.7609 610.751 78.8768 604.689 73.9608 601.695C70.5708 597.18 68.4637 592.551 72.2567 588.105C74.0973 588.526 75.7107 589.597 76.4476 591.751C77.8498 592.715 79.2521 593.678 80.6544 594.642C81.8253 599.816 84.9124 605.195 81.466 610.071C80.7249 611.478 79.9838 612.886 79.2426 614.293Z" fill="#F6A23D"/>
<path d="M73.5127 635.095C63.409 631.504 64.8746 622.378 63.3707 613.269C67.3257 616.787 70.6513 619.986 74.939 621.142C67.4519 624.187 72.3491 629.953 73.5127 635.095Z" fill="#F7A039"/>
<path d="M-26.4697 513.802C-22.5959 513.783 -18.8535 513.456 -14.9796 513.436C5.93727 527.911 26.9279 542.179 48.05 556.755C49.0027 557.469 50.6291 559.001 49.7185 559.519C47.8974 560.555 46.3604 558.098 44.7182 557.285C34.644 553.023 24.7909 548.145 15.1588 542.649C0.1738 535.229 -14.7375 527.604 -30.4752 522.96C-45.4813 519.647 -58.8347 510.371 -73.6933 506.647C-74.9987 506.243 -76.0987 505.94 -77.3303 505.331C-82.2411 502.172 -87.9309 499.84 -90.21 493.383C-89.3625 486.294 -84.1728 489.348 -80.3147 490.048C-71.909 491.545 -63.4927 495.713 -55.0081 493.617C-51.7079 494.524 -50.3763 496.879 -49.6183 500.161C-49.8499 507.554 -43.5548 507.522 -39.7862 509.146C-35.6807 511.179 -31.3858 514.032 -26.4697 513.802Z" fill="#FC9D27"/>
<path d="M-21.8969 746.834C-23.1498 743.481 -22.2162 742.216 -18.8893 743.143C-16.6713 743.761 -14.379 744.169 -12.161 744.787C-6.64299 744.337 -1.34766 744.518 1.57204 751.432C5.91346 757.078 13.7776 761.025 11.7686 770.17C3.47272 757.091 -11.4954 756.017 -21.8969 746.834Z" fill="#FCA53D"/>
<path d="M31.5822 554.828C31.4342 555.244 31.2863 555.661 31.2124 555.869C38.2945 559.16 39.2099 568.201 45.156 572.641C45.1984 573.889 44.6225 574.828 43.6343 575.561C32.2187 573.541 27.9956 569.716 25.0347 558.917C24.9026 558.606 24.9765 558.398 23.8719 558.091C13.9889 555.856 4.25865 549.772 -6.05722 551.489C-14.233 550.596 -22.0972 548.142 -29.7977 544.543C-33.4922 541.963 -39.3376 539.29 -37.8426 534.395C-36.2579 528.564 -29.8947 529.778 -24.8423 530.584C-22.073 530.985 -19.6153 532.948 -16.8459 533.349C-12.2215 534.677 -7.59705 536.004 -2.89865 537.124C7.14805 538.215 16.3181 544.51 25.9792 547.371C29.3512 548.809 32.089 550.666 31.5822 554.828Z" fill="#F89620"/>
<path d="M42.8067 574.372C43.3127 573.628 43.5364 572.991 44.0424 572.248C49.8827 570.945 53.1883 576.856 58.0437 579.053C64.5505 579.335 69.9549 582.058 72.7387 589.454C73.4167 593.791 74.0947 598.128 74.5648 602.36C72.972 604.804 72.1634 609.891 68.0263 603.561C60.8029 594.178 47.3735 593.404 41.8174 581.365C41.0333 578.722 40.7394 576.077 42.8067 574.372Z" fill="#F69621"/>
<path d="M31.7268 553.995C23.6217 544.881 12.1095 545.967 2.67737 540.563C0.828866 539.646 -1.16705 539.142 -2.88389 538.534C-5.10101 538.648 -7.08116 537.423 -6.75469 535.159C-6.50195 533.1 -4.26909 532.266 -2.27314 532.77C3.50933 534.181 8.92322 536.622 14.4108 538.858C25.3859 543.329 35.1393 549.863 44.9506 556.911C39.9266 558.788 36.1031 553.253 31.7268 553.995Z" fill="#EB8913"/>
<path d="M72.7564 588.488C67.8001 585.253 62.9181 581.807 58.0361 578.361C58.5406 577.622 59.0449 576.883 59.6237 575.932C71.2657 573.344 73.1325 583.961 77.0912 591.41C75.7154 590.471 74.3395 589.531 72.7564 588.488Z" fill="#F8A849"/>
<path d="M0.650083 495.958C1.73046 497.746 2.81085 499.535 3.6093 501.43C-0.294766 504.196 -4.64096 504.747 -9.38635 504.351C-11.5042 502.04 -13.8453 500.364 -16.9465 501.542C-20.9363 501.775 -25.1494 502.642 -28.7784 499.073C-31.5617 495.183 -36.9725 493.207 -36.5644 487.189C-33.1882 479.677 -27.2067 487.666 -22.9778 486.06C-21.9245 485.843 -20.7968 485.414 -19.536 485.302C-17.222 484.973 -15.386 487.39 -13.0134 487.589C-10.7895 488.21 -8.34236 488.196 -6.05986 489.345C-3.51121 491.125 -1.11144 493.329 0.650083 495.958Z" fill="#F19423"/>
<path d="M0.775861 495.26C-1.98446 493.37 -4.95259 491.375 -7.78744 489.697C-8.43806 487.373 -7.50073 486.097 -5.59885 485.558C-3.13666 488.296 -0.599935 490.822 2.07007 493.665C1.63866 494.197 1.20727 494.728 0.775861 495.26Z" fill="#F9BD75"/>
<path d="M64.9112 661.641C65.4202 664.441 71.9567 667.746 64.6003 669.62C61.6005 670.391 61.445 674.38 64.0189 676.953C66.0359 678.99 70.074 679.506 67.5076 683.294C65.8165 685.998 63.0435 686.121 60.0916 684.628C58.8265 683.989 57.3506 683.242 55.6638 682.389C55.7788 687.024 59.0012 689.162 61.3323 693.137C48.2947 694.935 51.1743 706.561 50.3341 716.052C48.3609 715.308 46.4632 714.348 44.5933 715.437C42.5284 715.664 41.0524 714.918 40.3921 712.55C35.9919 712.359 34.4319 718.943 29.2959 716.6C28.8742 716.387 28.2416 716.067 27.8955 715.638C25.5165 713.926 23.5752 711.673 23.1417 708.658C23.1459 705.1 23.8584 701.647 25.8359 698.833C28.4459 696.339 31.7322 695.459 35.4679 696.839C36.3113 697.265 37.2144 698.231 38.3602 697.793C36.8843 697.047 35.5595 695.868 34.8833 694.255C34.7799 692.423 35.3092 690.911 36.5466 689.503C37.9672 686.153 42.9797 690.976 43.7837 686.552C37.9958 674.727 26.12 675.332 17.6582 669.019C16.6796 668.27 15.9874 667.412 15.16 666.23C10.5255 660.328 20.412 659.733 17.8264 654.358C24.1167 649.149 30.9716 650.835 38.6538 653.703C45.2062 656.253 51.3923 662.687 58.8998 660.381C61.1159 659.722 63.1647 660.249 64.9112 661.641Z" fill="#F49522"/>
<path d="M39.5052 713.107C40.8843 714.051 42.2634 714.994 43.6425 715.938C41.7262 717.217 40.065 716.38 38.2706 715.227C38.5685 714.38 39.0741 713.638 39.5052 713.107Z" fill="#F49B2F"/>
<path d="M28.5826 718.356C28.2717 729.632 22.8429 722.18 18.9038 720.2C16.5602 722.004 14.2752 724.334 10.8521 724.353C3.26686 723.024 -2.78831 718.737 -7.53647 712.124C-4.26445 702.834 2.91291 710.171 8.23341 709.615C15.0322 711.791 22.5747 711.855 28.5826 718.356Z" fill="#F39625"/>
<path d="M11.615 721.437C13.6132 719.937 15.7293 719.5 18.1717 720.231C19.7559 728.305 28.2045 727.301 31.9522 732.704C32.6796 734.827 30.8898 736.432 31.9004 738.447C31.1687 739.834 30.437 741.22 29.4221 742.715C19.2355 739.581 15.1342 730.989 11.615 721.437Z" fill="#F59A2C"/>
<path d="M31.6868 738.22C30.2177 735.937 30.8333 734.188 31.7403 732.328C31.9992 733.745 32.335 734.943 32.5939 736.36C32.3631 737.016 32.1322 737.672 31.6868 738.22Z" fill="#F8A94A"/>
<path d="M2.095 750.894C-2.43949 748.63 -7.04793 746.575 -11.5824 744.312C-10.7107 742.54 -10.119 740.873 -11.5303 738.697C-19.907 734.27 -29.0972 732.135 -36.3063 725.103C-38.4523 721.579 -43.6948 719.943 -43.0243 714.638C-40.3085 711.089 -36.6567 712.421 -33.5068 714.484C-17.4033 724.484 -2.24548 736.465 14.36 745.735C15.8028 746.456 16.5957 748.323 17.1825 750.087C18.9902 753.197 15.7348 752.798 14.937 754.362C10.725 753.24 6.79803 748.582 2.095 750.894Z" fill="#EB9630"/>
<path d="M11.7999 722.096C17.6384 728.968 23.6835 735.943 29.4479 743.025C28.3991 743.239 27.2763 743.664 26.2275 743.879C23.3193 743.162 20.438 744.432 17.5456 742.983C11.8238 737.157 3.40686 736.888 -1.73774 730.117C-2.73922 728.135 2.87514 726.013 -2.99957 724.058C-8.46109 722.309 -13.1073 718.254 -17.192 713.988C-19.5072 711.595 -22.5905 709.31 -19.7943 705.53C-15.1277 705.401 -11.2606 706.844 -8.15052 711.116C-1.33268 714.531 3.79614 722.034 11.7999 722.096Z" fill="#F79F37"/>
<path d="M18.2885 741.422C20.8083 741.94 23.6276 741.605 25.7575 743.937C24.2651 744.69 22.6979 745.658 21.4143 746.517C20.3551 746.736 19.2369 746.423 18.1936 745.896C17.107 744.091 16.6464 742.602 18.2885 741.422Z" fill="#FAB96B"/>
<path d="M19.2158 745.055C20.0506 745.477 20.6019 746.006 21.4366 746.428C21.1373 747.282 20.704 747.817 20.4795 748.458C19.6447 748.036 18.8848 747.401 18.05 746.979C17.991 746.447 17.932 745.915 17.873 745.382C18.3652 745.38 18.8574 745.377 19.2158 745.055Z" fill="#F8B15C"/>
<path d="M17.6418 749.636C0.385285 741.821 -15.1187 729.789 -31.1385 719.197C-34.6856 716.957 -38.1695 711.843 -42.4323 716.996C-52.9894 712.738 -62.4412 705.397 -72.4825 699.7C-85.9393 692.071 -99.7645 685.47 -113.221 677.84C-118.747 674.379 -124.42 671.329 -128.446 665.705C-129.178 664.374 -129.425 663.041 -128.704 661.704C-121.242 655.714 -113.742 663.784 -106.364 664.773C-101.512 667.417 -96.4962 668.931 -91.5703 671.369C-84.534 675.336 -78.3661 681.052 -70.6825 683.887C-67.5302 685.206 -64.6725 687.346 -62.5937 690.312C-50.479 702.361 -35.3486 709.366 -21.5129 718.635C-10.8138 725.868 -1.13039 735.261 11.1581 739.407C14.5894 740.621 17.284 743.891 18.8628 747.578C18.4365 748.093 17.9365 748.814 17.6418 749.636Z" fill="#FCA53D"/>
<path d="M65.4056 660.539C63.5006 661.801 61.8493 660.975 60.0657 659.837C49.323 661.354 40.8067 653.155 31.4285 649.448C27.9353 646.962 23.8811 644.688 24.3459 639.259C29.8544 635.368 35.6606 640.242 41.4873 640.942C50.2463 644.339 58.7989 647.634 65.664 655.007C65.4844 656.886 65.5852 658.659 65.4056 660.539Z" fill="#F79622"/>
<path d="M65.7632 654.433C57.2464 650.433 48.9356 646.535 40.3449 642.743C39.8217 638.079 42.7362 638.064 45.9305 637.943C52.5043 641.954 59.2101 646.275 65.9317 649.869C69.4325 651.614 68.7674 653.484 67.9545 655.77C67.1308 655.359 66.381 654.741 65.7632 654.433Z" fill="#EC8B17"/>
<path d="M53.5873 610.393C53.9811 614.807 58.4043 616.78 59.7908 620.452C54.0418 625.004 50.3661 617.454 45.5131 616.009C41.0743 614.771 36.9214 609.957 32.0481 612.717C32.5747 617.445 36.6737 618.264 39.4828 620.667C35.6719 625.944 31.6833 619.973 27.7914 619.258C16.8948 610.065 4.57094 605.611 -8.10854 601.474C-10.328 600.856 -10.5665 602.224 -11.6335 603.176C-19.3632 605.74 -27.3225 602.735 -35.122 602.041C-36.9273 601.63 -38.4354 600.376 -39.1579 598.278C-38.9463 594.912 -36.9295 591.958 -34.5615 592.155C-27.4575 592.748 -34.2756 588.579 -33.3414 587.313C-31.5316 584.254 -29.3437 586.345 -27.2729 587.385C-36.4432 582.283 -46.8177 581.288 -55.3937 574.5C-57.4915 571.463 -56.0959 568.196 -56.447 565.044C-53.8088 562.402 -51.1911 563.964 -48.3662 565.631C-45.3342 567.402 -46.885 564.887 -47.002 563.837C-44.9694 560.146 -40.2492 561.277 -37.7439 558.32C-30.5927 556.704 -24.1888 560.665 -17.8434 564.1C-11.4283 570.794 -1.63895 566.536 2.48244 572.821C5.91284 575.536 4.64335 572.915 4.12337 574.39C3.9748 574.811 3.84198 574.496 3.22072 574.184C1.37272 572.512 -1.11229 571.264 -0.279408 568.211C5.8837 563.867 9.57517 570.681 14.4709 573.388C15.3217 579.27 20.222 578.508 23.6097 579.962C25.4735 580.898 27.4857 581.412 29.2009 582.77C33.7253 586.53 42.2631 588.587 39.5146 596.381C36.5433 604.808 30.1912 595.17 25.3652 595.722C18.1758 592.607 12.159 586.857 4.89529 583.952C12.9874 587.273 19.7424 594.385 28.413 596.757C36.8292 601.232 47.161 600.966 53.5873 610.393Z" fill="#F6941D"/>
<path d="M46.2357 638.535C44.4608 640.115 42.686 641.695 40.6303 643.381C35.3261 643.932 30.604 640.084 25.6863 638.854C18.4321 639.417 13.3865 634.419 8.26673 629.63C4.50387 626.51 10.5069 622.605 6.5374 619.381C7.33725 617.806 8.66718 617.485 10.3364 617.581C18.5609 620.468 22.7121 631.438 32.3139 631.805C36.8609 634.084 42.0752 634.475 46.2357 638.535Z" fill="#F28F19"/>
<path d="M32.7368 631.657C22.3573 634.857 17.4198 624.719 10.4368 618.993C6.36437 613.984 -2.00117 614.239 -3.49775 606.073C6.5108 603.924 14.6019 609.958 22.5446 616.413C24.2414 618.499 25.3022 621.009 25.3133 623.733C25.8391 628.446 30.2128 629.156 32.7368 631.657Z" fill="#F6941E"/>
<path d="M25.4826 622.916C23.7039 621.786 22.2788 620.343 22.4 617.96C22.3311 614.749 24.9489 615.564 26.7591 615.244C30.6701 617.192 33.547 622.046 38.5079 620.363C43.8706 625.722 51.993 625.369 57.8363 634.144C45.9241 630.165 35.6004 626.49 25.4826 622.916Z" fill="#ED8B16"/>
<path d="M31.5073 611.888C29.1909 610.255 26.4482 609.139 24.3266 604.938C33.1444 606.64 40.1987 609.892 47.1634 614.069C50.9169 616.413 54.1387 620.917 59.0134 619.454C60.419 621.605 59.8294 623.251 58.9608 625.002C50.3115 618.779 40.6883 615.951 31.5073 611.888Z" fill="#F18F1A"/>
<path d="M53.6338 608.728C45.0817 604.686 36.7363 600.749 28.1101 596.917C27.5797 595.663 26.6942 594.724 27.2134 593.254C28.3372 592.829 29.4768 591.67 30.304 592.085C32.7853 593.329 35.2305 599.499 37.8537 594.14C40.3285 589.202 34.5656 588.289 32.1742 586.101C27.3173 581.935 21.6443 580.079 15.6162 578.54C10.6962 577.309 11.9999 574.996 14.8994 572.989C24.8498 570.316 33.2915 579.493 42.6012 580.701C46.9546 585.603 50.9688 590.088 57.4846 591.625C62.8181 593.064 66.5513 597.655 67.74 603.936C63.0379 605.533 56.6863 602.843 53.6338 608.728Z" fill="#F3911B"/>
<path d="M14.2399 539.696C8.2602 540.142 3.15682 535.392 -2.6011 535.214C-6.90106 535.029 -5.28442 537.305 -3.1078 539.371C-7.49745 540.12 -11.618 538.065 -15.8125 536.217C-20.5245 535.827 -23.5519 531.377 -27.8203 529.737C-30.4672 526.947 -30.8161 523.833 -30.3992 520.612C-14.4986 523.644 -0.314174 532.19 14.2399 539.696Z" fill="#F3901A"/>
<path d="M43.5266 581C39.0181 583.431 34.5727 582.932 30.2645 579.292C25.7497 575.549 20.2394 575.997 15.6347 573.196C11.0883 570.917 6.46775 568.849 1.92136 566.571C-10.3389 566.846 -19.1194 560.718 -21.7493 550.267C-10.3109 546.124 -1.84742 557.277 8.40004 559.943C10.8957 560.453 13.3013 561.906 14.0538 562.53C17.5085 563.767 16.1093 560.844 16.491 562.517C16.5494 563.04 16.062 563.042 15.442 562.731C8.22487 558.375 -1.48143 559.682 -6.00273 549.764C4.94815 545.625 14.7146 554.468 25.052 556.192C25.9527 556.396 26.2177 557.023 26.6153 557.963C30.3257 566.734 35.5032 572.043 43.7852 575.453C43.6795 577.128 43.4997 579.012 43.5266 581Z" fill="#F7941E"/>
<path d="M-5.94997 550.116C1.38995 556.688 11.5766 556.636 18.3261 564.864C4.05308 564.833 -7.15733 551.465 -21.0771 551.123C-24.6519 553 -28.2689 553.639 -31.6436 549.525C-34.6071 545.615 -41.3138 548.128 -42.7589 541.32C-37.6708 539.951 -32.9304 544.987 -28.1799 543.207C-20.8191 545.648 -13.3845 547.882 -5.94997 550.116Z" fill="#EF8C16"/>
<path d="M32.2496 647.326C40.7331 653.531 50.089 657.961 59.8306 660.618C58.4135 661.876 63.4646 666.12 58.615 665.416C55.151 664.914 51.8508 663.264 48.6245 661.406C39.0782 656.144 29.516 651.611 19.146 655.52C11.9062 656.079 6.72286 651.522 2.33787 645.4C2.87032 633.626 10.6501 637.023 17.5624 638.757C23.089 640.29 26.4269 646.627 32.2496 647.326Z" fill="#F18F19"/>
<path d="M26.2839 701.4C26.4858 704.955 25.9938 708.409 23.849 711.035C20.1412 711.892 17.2645 709.711 14.3137 707.739C2.11773 695.462 -14.4578 689.38 -25.3511 674.795C-22.0046 668.083 -17.6705 673.708 -13.9517 675.571C-8.50588 678.052 -4.24609 683.887 2.10491 683.121C7.82035 682.776 12.0534 686.624 16.2864 690.471C20.2545 693.692 25.0805 695.863 26.2839 701.4Z" fill="#F9A138"/>
<path d="M14.0741 691.861C10.6596 689.176 8.61897 683.987 3.53493 684.638C-4.02262 684.053 -9.59895 678.571 -15.0431 673.4C-15.6518 666.229 -10.7205 669.426 -8.02509 670.036C-0.837348 671.662 6.11269 674.641 13.0046 677.101C21.3078 681.737 31.1643 681.997 37.6342 691.114C36.9104 692.47 36.1865 693.825 35.4627 695.181C28.1488 699.379 21.3248 690.576 14.0741 691.861Z" fill="#F79520"/>
<path d="M37.7982 690.127C29.2076 686.335 20.4534 683.684 12.38 678.437C9.25966 678.35 7.83398 676.905 8.53058 673.583C10.1671 671.708 12.5958 671.695 15.1566 671.993C26.1335 674.529 36.2977 679.35 45.5011 686.873C47.0007 688.109 49.8255 689.028 49.5723 691.103C49.2452 693.387 46.6263 692.571 44.6991 691.855C42.4921 691.244 40.0053 690.738 37.7982 690.127Z" fill="#ED8B15"/>
<path d="M45.6977 686.589C34.8347 684.355 25.6314 676.069 14.9747 673.937C14.4189 670.71 15.4392 668.517 18.3743 667.773C27.6406 673.141 41.5175 670.984 45.6977 686.589Z" fill="#F79620"/>
<path d="M18.4604 668.416C17.2298 670.523 16.2804 672.523 15.0498 674.63C13.1713 674.43 11.574 674.124 9.69552 673.924C1.18955 673.865 -6.45239 669.285 -14.3914 665.548C-17.4801 663.254 -19.237 660.639 -17.4125 656.849C-12.9243 652.414 -7.27776 655.744 -2.05631 656.136C3.29331 660.307 7.26382 667.006 14.8092 666.336C15.2231 666.544 15.9183 666.645 16.3322 666.853C17.0858 667.479 17.9137 667.894 18.4604 668.416Z" fill="#F49B31"/>
<path d="M2.26731 644.504C7.9258 648.606 13.4509 652.391 19.184 656.281C20.6241 657.756 23.4613 659.437 20.0704 660.727C17.2447 661.802 16.9893 663.923 16.8673 666.361C10.2076 666.504 5.96193 661.864 2.01466 656.375C-0.241552 653.738 -2.34854 650.676 -2.83473 647.181C-2.14763 644.528 -1.38597 641.662 2.26731 644.504Z" fill="#F99721"/>
<path d="M15.1108 705.793C17.8445 707.642 20.784 709.595 23.5177 711.444C25.7659 713.296 28.5893 714.214 28.7163 717.941C22.0986 716.111 15.2012 714.386 8.58358 712.557C2.84147 705.545 -7.96062 707.983 -12.6106 698.584C-8.30502 691.935 -2.79527 696.877 2.01237 699.026C6.1287 701.076 10.2873 704.368 15.1108 705.793Z" fill="#EA8D1D"/>
<path d="M13.7103 691.805C21.0105 685.603 27.9057 694.968 35.1381 695.139C36.5096 696.072 37.881 697.005 41.9954 699.804C35.1018 700.049 30.2623 698.612 26.3923 700.618C22.1455 697.506 18.0312 694.707 13.7103 691.805Z" fill="#F08F19"/>
<path d="M-12.7095 698.544C-6.43561 704.905 4.62442 702.54 8.43886 713.107C3.14716 712.926 -2.12419 708.551 -7.66999 710.468C-11.9861 710.282 -15.8412 708.101 -19.4738 705.29C-22.5491 705.725 -24.6756 704.164 -26.357 701.343C-27.1954 698.202 -26.0241 695.575 -24.3065 693.469C-23.241 692.52 -22.0428 691.885 -20.7862 691.773C-16.6927 692.59 -13.9457 694.462 -12.7095 698.544Z" fill="#EC8B18"/>
<path d="M18.7418 747.384C-2.15127 736.763 -21.0839 722.007 -41.2391 709.32C-48.5496 704.715 -55.1381 698.767 -63.392 696.127C-67.5189 694.807 -64.4885 692.419 -63.0022 690.968C-61.8849 690.55 -60.6357 690.44 -59.3286 690.846C-44.1861 695.204 -33.6284 709.693 -18.9865 714.776C-12.7196 719.592 -4.74507 722.336 -1.11327 730.466C6.26034 732.182 13.6181 734.62 18.9417 741.4C19.2633 742.533 19.5848 743.666 19.9064 744.799C19.4637 746.039 19.0369 746.557 18.7418 747.384Z" fill="#FDA842"/>
<path d="M-1.02461 730.692C-8.10541 725.898 -15.112 720.893 -22.1928 716.099C-27.3364 712.03 -28.6592 705.42 -31.6112 699.973C-29.2711 698.175 -27.4666 698.585 -26.1391 701.729C-24.0106 703.294 -21.8078 704.647 -19.8863 706.108C-14.5292 716.478 -3.98321 719.048 4.51509 726.04C2.66327 727.836 0.959962 729.211 -1.02461 730.692Z" fill="#F49A30"/>
<path d="M2.94505 644.164C0.655722 643.757 -0.557523 645.125 -1.43156 646.909C-2.40661 646.914 -3.51418 646.606 -4.39932 645.669C-6.36053 642.957 -7.68589 639.823 -9.85378 637.008C-15.2656 629.604 -21.9066 624.3 -30.2955 622.565C-31.329 622.047 -32.2882 621.319 -33.1734 620.382C-34.2494 618.608 -34.838 616.831 -34.4515 615.049C-34.0807 614 -33.2966 613.159 -32.0991 612.524C-26.3498 610.714 -20.4884 613.404 -14.6696 614.839C-7.0648 617.416 0.894959 619.677 6.8685 626.868C13.1118 631.232 19.5617 635.7 25.805 640.063C26.3305 644.772 30.4217 645.587 33.2254 647.98C27.1527 648.641 22.1069 643.643 16.6431 641.892C10.6334 639.621 6.31975 639.434 2.94505 644.164Z" fill="#F7951F"/>
<path d="M-32.0448 549.916C-28.4587 551.466 -24.7938 549.355 -21.43 551.533C-15.9939 560.916 -6.72431 563.586 1.81996 567.619C1.53457 571.176 5.3431 572.097 7.27184 576.27C1.20664 573.479 -3.42352 568.693 -9.4082 571.862C-13.2797 573.869 -15.3993 568.861 -17.6245 565.526C-20.1415 559.579 -28.0911 563.49 -30.3116 556.705C-30.7517 554.511 -31.3982 552.214 -32.0448 549.916Z" fill="#F3911B"/>
<path d="M-2.81671 607.522C1.16635 610.01 5.28181 612.811 9.33899 615.09C12.0243 616.435 11.4315 618.111 10.7645 619.996C9.71593 620.211 8.66737 620.425 7.61879 620.64C-1.03475 621.731 -8.25986 614.661 -16.3631 612.822C-22.4118 609.299 -31.2451 612.274 -34.9381 602.779C-27.6249 599.29 -19.9978 603.85 -12.2761 604.018C-8.92382 603.477 -5.06847 602.202 -2.81671 607.522Z" fill="#FA9721"/>
<path d="M-2.66389 606.761C-5.82093 605.436 -9.05177 604.318 -12.2088 602.993C-12.0877 600.621 -13.7902 599.289 -15.7403 596.617C-0.482203 602.005 14.4859 604.817 27.0617 615.685C25.5175 616.621 24.2526 617.453 22.7084 618.389C15.3875 611.104 6.51726 608.158 -2.66389 606.761Z" fill="#F18E18"/>
<path d="M27.1564 594.119C27.4782 595.255 27.8001 596.391 28.0481 597.733C17.6834 596.236 10.7415 587.173 1.98534 581.842C11.6009 582.723 19.165 588.681 27.1564 594.119Z" fill="#F08D17"/>
<path d="M-16.0024 609.998C-7.86954 612.338 -0.0322145 615.509 7.21424 620.339C8.71317 621.575 10.2121 622.81 11.711 624.045C10.2387 624.778 8.63436 625.2 7.162 625.933C-1.19245 624.215 -8.14346 618.554 -16.0547 615.592C-20.3033 613.231 -18.5355 611.669 -16.0024 609.998Z" fill="#EC8A13"/>
<path d="M-15.0432 672.311C-8.82557 676.63 -2.40202 681.051 3.81565 685.37C0.454097 690.049 -2.71825 686.025 -6.21761 684.282C-12.5988 681.104 -17.2228 673.669 -24.9337 674.227C-25.4931 674.437 -25.9787 674.44 -26.5381 674.65C-40.0657 668.401 -54.5961 663.607 -64.2135 649.776C-60.1763 645.922 -54.3969 648.068 -49.5836 646.8C-42.8173 648.215 -38.4996 653.787 -33.8124 658.32C-30.2708 661.306 -26.5074 663.669 -22.1689 665.097C-18.8015 666.53 -16.0675 668.38 -15.0432 672.311Z" fill="#FEA941"/>
<path d="M-12.3233 697.979C-15.0649 696.115 -18.0128 694.148 -20.7543 692.284C-21.6918 687.385 -25.2432 684.377 -28.0856 680.74C-31.2667 676.687 -29.8329 674.697 -25.4512 674.674C-11.4047 684.408 3.14433 693.41 15.4607 705.971C5.55966 707.171 -2.34819 696.57 -12.3233 697.979Z" fill="#F19A33"/>
<path d="M-15.0625 671.717C-17.7953 669.869 -20.7339 667.919 -23.4667 666.071C-26.363 665.362 -30.2299 664.657 -28.9588 660.41C-27.9251 657.508 -24.7492 658.112 -21.7949 659.338C-18.8406 660.564 -17.4053 664.695 -13.8602 664.263C-5.73059 666.6 2.10361 669.767 9.34716 674.591C9.22601 676.971 10.6505 678.412 12.4284 679.541C3.01697 678.762 -5.57722 672.289 -15.0625 671.717Z" fill="#EF8E1A"/>
<path d="M-15.0316 656.442C-17.7644 654.594 -20.703 652.644 -23.362 650.589C-31.6501 645.977 -42.6072 646.137 -47.6355 635.094C-47.1186 633.643 -46.5437 632.709 -45.0719 631.978C-38.4091 631.633 -33.6818 637.401 -28.0527 639.958C-19.8808 643.537 -11.9885 647.22 -4.18572 651.835C-2.55548 653.378 -1.20482 655.026 -0.766788 657.196C-5.77289 661.049 -10.5897 656.212 -15.0316 656.442Z" fill="#EF972E"/>
<path d="M-1.62094 656.926C-2.99708 655.986 -4.37317 655.047 -5.95653 654.002C-3.46099 648.305 -0.314621 654.603 2.76651 654.166C6.99629 658.774 11.1518 663.594 16.4649 666.513C6.55261 669.724 4.06607 668.474 -1.62094 656.926Z" fill="#FBA33A"/>
<path d="M3.25249 654.332C0.57107 656.419 -2.52792 652.186 -5.41522 654.17C-13.3284 651.205 -20.2811 645.541 -28.6376 643.822C-33.6004 635.971 -43.1499 634.881 -48.8938 627.863C-49.0682 626.309 -48.6988 625.271 -47.6378 624.332C-45.6056 623.389 -43.795 623.069 -41.7943 623.577C-28.6917 630.349 -14.8503 635.045 -3.85879 646.388C-3.10915 647.006 -2.49148 647.314 -1.74184 647.932C-0.0524284 649.996 1.56308 652.268 3.25249 654.332Z" fill="#FEAA41"/>
</svg>
