<svg width="1283" height="194" viewBox="0 0 1283 194" fill="none" xmlns="http://www.w3.org/2000/svg">
<g opacity="0.1">
<path d="M0 190.464H37.0397V114.682H102.86V83.3594H37.0397V34.6068H114.122V3.28384H0V190.464Z" fill="white"/>
<path d="M217.043 194C266.096 194 299.882 156.867 299.882 96.2422C299.882 35.6172 266.096 0 217.043 0C167.991 0 134.205 35.3646 134.205 96.2422C134.205 156.867 167.991 194 217.043 194ZM217.043 161.667C189.514 161.667 171.995 136.154 171.995 96.2422C171.995 56.0781 189.514 32.0807 217.043 32.0807C244.573 32.0807 262.092 56.0781 262.092 96.2422C262.092 136.154 244.573 161.667 217.043 161.667Z" fill="white"/>
<path d="M409.633 194C458.686 194 492.472 156.867 492.472 96.2422C492.472 35.6172 458.686 0 409.633 0C360.58 0 326.794 35.3646 326.794 96.2422C326.794 156.867 360.58 194 409.633 194ZM409.633 161.667C382.103 161.667 364.585 136.154 364.585 96.2422C364.585 56.0781 382.103 32.0807 409.633 32.0807C437.163 32.0807 454.681 56.0781 454.681 96.2422C454.681 136.154 437.163 161.667 409.633 161.667Z" fill="white"/>
<path d="M528.643 190.464H581.45C636.009 190.464 671.046 159.141 671.046 96.2422C671.046 33.0911 636.009 3.28384 579.448 3.28384H528.643V190.464ZM565.683 160.404V33.3437H577.196C611.733 33.3437 633.256 50.5208 633.256 96.2422C633.256 141.711 611.733 160.404 577.196 160.404H565.683Z" fill="white"/>
<path d="M707.302 190.464H744.342V114.682H810.162V83.3594H744.342V34.6068H821.425V3.28384H707.302V190.464Z" fill="white"/>
<path d="M853.699 190.464H966.07V159.141H890.739V3.28384H853.699V190.464Z" fill="white"/>
<path d="M998.386 190.464H1114.76V159.141H1035.43V109.125H1100.5V77.8021H1035.43V34.6068H1112.01V3.28384H998.386V190.464Z" fill="white"/>
<path d="M1133.09 190.464H1172.38L1192.15 149.036C1196.66 139.438 1201.16 129.586 1205.67 118.219H1206.67C1212.17 129.586 1216.43 139.438 1221.18 149.036L1241.96 190.464H1283L1230.94 95.737L1279.75 3.28384H1240.7L1223.19 41.9323C1219.18 50.7734 1215.43 59.8672 1210.92 71.487H1209.67C1204.17 59.8672 1200.41 50.7734 1195.91 41.9323L1177.39 3.28384H1136.34L1185.15 93.9687L1133.09 190.464Z" fill="white"/>
</g>
</svg>
