<svg width="72" height="71" viewBox="0 0 72 71" fill="none" xmlns="http://www.w3.org/2000/svg">
<g opacity="0.3">
<path opacity="0.3" d="M69.4349 5.34193C68.0209 5.34193 66.8704 4.19836 66.8704 2.79256C66.8704 1.38675 68.0209 0.243164 69.4349 0.243164C70.8475 0.243164 71.9999 1.38675 71.9999 2.79256C71.9999 4.19836 70.8475 5.34193 69.4349 5.34193Z" fill="#C8C8C8"/>
<path opacity="0.3" d="M69.4349 70.5613C68.0209 70.5613 66.8704 69.4178 66.8704 68.0121C66.8704 66.6064 68.0209 65.4629 69.4349 65.4629C70.8475 65.4629 71.9999 66.6064 71.9999 68.0121C71.9999 69.4178 70.8475 70.5613 69.4349 70.5613Z" fill="#C8C8C8"/>
<path opacity="0.3" d="M2.56511 70.5613C1.15255 70.5613 0 69.4178 0 68.0121C0 66.6064 1.15255 65.4629 2.56511 65.4629C3.97909 65.4629 5.12965 66.6064 5.12965 68.0121C5.12965 69.4178 3.97909 70.5613 2.56511 70.5613Z" fill="#C8C8C8"/>
<path opacity="0.3" d="M2.56511 5.34193C1.15255 5.34193 0 4.19836 0 2.79256C0 1.38675 1.15255 0.243164 2.56511 0.243164C3.97909 0.243164 5.12965 1.38675 5.12965 2.79256C5.12965 4.19836 3.97909 5.34193 2.56511 5.34193Z" fill="#C8C8C8"/>
<path opacity="0.3" d="M68.0883 67.2192H3.94493V4.72744H68.0883V67.2192ZM1.25366 2.05469V69.8941H70.7796V2.05469H1.25366Z" fill="#C8C8C8"/>
</g>
<path d="M2.56511 54.2562C1.15255 54.2562 0 53.1126 0 51.7065C0 50.3008 1.15255 49.1572 2.56511 49.1572C3.97909 49.1572 5.12965 50.3008 5.12965 51.7065C5.12965 53.1126 3.97909 54.2562 2.56511 54.2562Z" fill="white"/>
<path d="M14.8831 52.5397H12.1895V14.7354H35.6975V17.4104H14.8831V34.1168H35.5864V36.8403H14.8831V52.5397Z" fill="white"/>
<path d="M36.0536 32.8516C34.6396 32.8516 33.489 33.9951 33.489 35.401C33.489 36.8068 34.6396 37.9503 36.0536 37.9503C37.468 37.9503 38.6186 36.8068 38.6186 35.401C38.6186 33.9951 37.468 32.8516 36.0536 32.8516Z" fill="white"/>
<path d="M13.6151 18.0216C12.2006 18.0216 11.05 16.878 11.05 15.4722C11.05 14.0664 12.2006 12.9229 13.6151 12.9229C15.0295 12.9229 16.1801 14.0664 16.1801 15.4722C16.1801 16.878 15.0295 18.0216 13.6151 18.0216Z" fill="white"/>
<path d="M13.6151 37.9503C12.2006 37.9503 11.05 36.8068 11.05 35.401C11.05 33.9951 12.2006 32.8516 13.6151 32.8516C15.0295 32.8516 16.1801 33.9951 16.1801 35.401C16.1801 36.8068 15.0295 37.9503 13.6151 37.9503Z" fill="white"/>
<path d="M13.6151 54.2562C12.2006 54.2562 11.05 53.1126 11.05 51.7065C11.05 50.3008 12.2006 49.1572 13.6151 49.1572C15.0295 49.1572 16.1801 50.3008 16.1801 51.7065C16.1801 53.1126 15.0295 54.2562 13.6151 54.2562Z" fill="white"/>
<path d="M58.3817 32.8516C56.9672 32.8516 55.8167 33.9951 55.8167 35.4009C55.8167 36.8067 56.9672 37.9525 58.3817 37.9525C59.7961 37.9525 60.9467 36.8067 60.9467 35.4009C60.9467 33.9951 59.7961 32.8516 58.3817 32.8516Z" fill="white"/>
<path d="M36.057 70.5604C34.6425 70.5604 33.4919 69.4168 33.4919 68.0111C33.4919 66.6055 34.6425 65.4619 36.057 65.4619C37.4714 65.4619 38.622 66.6055 38.622 68.0111C38.622 69.4168 37.4714 70.5604 36.057 70.5604Z" fill="white"/>
<path d="M58.3851 70.5604C56.9706 70.5604 55.8201 69.4168 55.8201 68.0111C55.8201 66.6055 56.9706 65.4619 58.3851 65.4619C59.7972 65.4619 60.9501 66.6055 60.9501 68.0111C60.9501 69.4168 59.7972 70.5604 58.3851 70.5604Z" fill="white"/>
<path d="M1.83423 50.9678H14.2397V53.6426H1.83423V50.9678Z" fill="white"/>
<path d="M37.5166 13.8075V4.95853C38.2462 4.50902 38.736 3.70697 38.736 2.79254C38.736 1.38675 37.5854 0.243164 36.171 0.243164C34.7565 0.243164 33.606 1.38675 33.606 2.79254C33.606 3.70697 34.0939 4.50902 34.8253 4.95853V13.8075C34.0939 14.257 33.606 15.0591 33.606 15.9735C33.606 17.3793 34.7565 18.5251 36.171 18.5251C37.5854 18.5251 38.736 17.3793 38.736 15.9735C38.736 15.0591 38.2462 14.257 37.5166 13.8075Z" fill="white"/>
<path d="M69.4221 32.8516C68.524 32.8516 67.7347 33.3121 67.2762 34.0084H57.7566V36.6812H67.2074C67.6531 37.4392 68.4775 37.9503 69.4221 37.9503C70.8342 37.9503 71.9871 36.8068 71.9871 35.401C71.9871 33.9951 70.8342 32.8516 69.4221 32.8516Z" fill="white"/>
<path d="M49.8301 51.5709C49.8301 51.2492 49.7679 50.9431 49.6569 50.6588L59.5177 36.2153L57.2256 34.6685L47.4222 49.0282C47.369 49.0259 47.3182 49.0216 47.2651 49.0216C47.183 49.0216 47.1032 49.0259 47.0235 49.0325L37.1469 34.6641L34.8591 36.2175L44.842 50.7405C44.7509 51.0003 44.6977 51.2804 44.6977 51.5709C44.6977 51.9587 44.7888 52.3247 44.9459 52.6549L35.0101 67.211L37.3022 68.7556L47.2295 54.215L57.2275 68.7598L59.5154 67.2068L49.5548 52.7125C49.7299 52.3686 49.8301 51.9809 49.8301 51.5709Z" fill="white"/>
</svg>
