<svg width="345" height="858" viewBox="0 0 345 858" fill="none" xmlns="http://www.w3.org/2000/svg">
<g opacity="0.8">
<path d="M248.578 479.33C247.909 484.692 247.641 489.802 249.046 494.327C243.117 516.177 241.016 518.206 225.627 520.138C223.909 519.103 222.757 517.476 222.503 514.578C223.65 505.386 219.375 498.199 222.998 487.918C228.612 484.381 227.556 481.988 224.686 479.326C221.212 471.634 223.206 463.556 230.832 454.752C232.959 451.53 235.32 448.396 237.682 445.261C239.312 443.058 241.413 441.029 243.653 439.853C250.647 442.033 242.594 452.282 245.107 456.815C246.366 464.492 248.993 471.07 248.578 479.33Z" fill="#F8AE55"/>
<path d="M57.4842 233.003C58.2303 232.058 58.9764 231.112 59.5539 230.512C71.021 230.239 79.9342 236.34 91.7385 235.379C93.2056 234.697 94.913 234.103 96.38 233.422C97.9188 233.172 99.2889 233.267 100.562 234.139C106.254 239.875 109.181 246.629 97.5128 256.573C84.7398 265.301 74.8402 260.057 63.6134 260.418C57.7955 260.726 56.0705 254.411 57.9286 246.564C59.4711 242.256 58.3198 239.399 56.9999 236.886C56.8564 236.022 56.8816 234.813 57.4842 233.003Z" fill="#F89C2E"/>
<path d="M170.585 331C177.495 343.819 188.095 351.406 200.126 356.637C205.536 359.031 211.018 361.862 212.495 369.399C211.791 372.021 210.213 373.5 208.005 373.926C183.579 361.273 157.21 352.024 139.944 327.593C150.792 318.811 158.677 319.642 170.585 331Z" fill="#FB9F30"/>
<path d="M115.892 692.384C109.919 694.698 104.674 693.189 99.7424 692.203C88.8402 689.442 76.8492 688.328 70.8356 676.723C69.4848 671.321 70.1648 665.845 75.8735 660.571C92.7486 661.018 107.421 665.976 116.455 680.73C117.686 684.043 119.981 686.928 115.892 692.384Z" fill="#EC9835"/>
<path d="M226.534 516.974C239.435 519.362 243.973 505.471 250.26 494.224C258.05 504.301 243.484 517.269 243.089 528.305C233.52 531.545 233.523 542.329 228.81 549.766C225.316 555.259 223.334 552.528 221.162 551.323C219.826 540.445 217.228 529.897 226.534 516.974Z" fill="#FACE99"/>
<path d="M-22.6543 766.154C-26.9748 764.574 -30.6217 761.618 -35.3759 761.501C-42.1471 761.458 -40.9643 754.996 -41.4152 749.559C-35.6929 741.919 -29.2757 735.749 -21.8811 736.832C-14.415 738.346 -6.44356 738.828 -2.4174 746.79C-1.41484 752.834 -5.23412 754.276 -9.12501 755.287C-12.1274 756.216 -15.3446 755.85 -16.4307 761.536C-18.4014 763.249 -20.612 764.874 -22.6543 766.154Z" fill="#FCC687"/>
<path d="M202.774 593.592C200.77 605.684 192.519 613.467 184.677 616.991C179.315 619.424 175.081 624.68 170.051 626.433C167.043 618.909 168.498 610.224 174.791 601.317C182.704 598.22 189.163 588.974 196.839 585.79C200.473 586.328 203.208 588.139 202.774 593.592Z" fill="#FCE0BE"/>
<path d="M211.874 372.181C212.38 371.148 213.126 370.202 213.632 369.169C216.108 370.48 218.174 372.048 220.649 373.359C223.049 378.298 219.627 387.604 225.876 389.89C226.69 393.436 225.413 396.624 222.837 400.149C221.513 401.695 219.878 402.722 218.41 403.403C212.254 404.401 207.978 400.401 202.425 399.588C194.084 396.944 193.854 384.678 187.343 379.454C186.31 378.67 188.814 374.713 190.956 372.654C197.765 367.428 201.561 371.252 206.536 372.665C208.581 371.383 209.13 376.05 211.874 372.181Z" fill="#F79E32"/>
<path d="M169.768 330.821C159.933 328.855 150.532 325.418 139.754 325.959C133.528 333.461 127.621 333.338 121.473 333.127C116.965 331.887 114.605 328.579 115.55 321.999C122.815 311.211 132.216 314.648 139.816 307.242C144.23 305.189 147.604 306.423 150.062 308.951C154.035 316.514 163.1 316.569 167.242 323.787C169.314 325.359 170.735 327.101 169.768 330.821Z" fill="#FBD09D"/>
<path d="M141.982 274.442C145.888 273.426 149.793 272.411 153.699 271.395C161.048 276.118 170.133 279.032 169.52 293.063C167.999 296.172 166.046 296.68 164.19 296.409C160.648 295.521 159.108 291.7 155.903 290.121C153.252 289.152 150.335 289.307 147.009 289.72C144.574 290.052 141.97 290.729 139.197 291.751C137.075 292.605 135.05 292.679 133.363 292.062C130.4 290.572 129.004 287.618 129.586 282.943C129.949 281.039 130.625 279.657 131.952 278.106C135.328 275.268 138.461 276.413 141.982 274.442Z" fill="#F9B769"/>
<path d="M248.031 479.656C244.29 474.273 241.512 468.048 241.692 459.719C248.113 435.712 248.113 435.712 256.352 429.568C255.641 433.303 253.969 437.881 254.62 440.52C258.137 452.616 254.315 465.592 248.031 479.656Z" fill="#FCE1C0"/>
<path d="M64.8043 726.678C66.6062 729.369 66.6996 732.654 65.3249 736.621C57.8378 743.228 52.7159 740.949 48.0282 737.203C45.006 727.159 35.6739 725.372 30.0028 718.423C26.9267 714.86 20.5773 713.351 25.3006 703.701C26.6251 702.154 28.0213 701.039 29.7298 700.445C35.1424 700.392 41.883 694.731 46.7393 698.132C47.1952 699.517 47.0731 701.504 46.8793 703.059C44.3705 711.08 47.6153 714.298 52.0157 716.314C56.9689 718.938 61.6816 721.473 64.8043 726.678Z" fill="#FCB056"/>
<path d="M89.3114 693.492C90.51 702.074 97.2814 703.328 102.219 707.169C107.639 711.186 104.647 714.979 99.2216 719.103C87.8942 719.034 81.5138 710.593 74.2886 703.88C72.3642 699.104 67.8113 696.218 73.1682 687.589C80.4966 685.382 86.6422 685.593 89.3114 693.492Z" fill="#FBB665"/>
<path d="M175.824 600.5C172.382 609.263 171.73 617.448 169.801 625.965C165.307 628.322 160.857 632.299 156.605 630.733C157.283 621.353 150.702 613.713 159.845 601.835C162.52 599.21 165.476 598.293 168.362 596.948C171.317 596.031 174.107 595.454 175.639 598.025C175.779 598.879 175.684 599.646 175.824 600.5Z" fill="#F7AD52"/>
<path d="M49.8186 735.718C55.1065 736.01 60.5642 735.952 65.852 736.244C67.7676 738.18 69.9257 740.204 68.3718 744.571C67.085 747.801 64.4651 748.487 62.7674 747.865C53.721 744.14 41.7859 746.349 36.0406 736.429C37.3288 729.086 29.5663 730.355 30.5146 723.71C40.6546 721.666 46.3287 727.035 49.8186 735.718Z" fill="#FDD19D"/>
<path d="M162.091 600.815C158.303 606.266 156.441 611.217 158.978 615.771C161.277 620.238 160.533 625.196 156.508 630.56C154.915 630.378 153.227 630.965 151.821 633.266C150.37 633.941 149.253 633.933 148.398 632.814C147.474 631.267 146.549 629.72 145.624 628.173C141.328 623.778 131.627 625.85 134.046 613.457C138.855 608.783 144.627 611.306 148.916 604.831C154.174 601.53 159.059 593.263 164.665 596.126C164.639 597.324 164.376 598.435 163.638 599.371C162.733 600.649 162.328 600.903 162.091 600.815Z" fill="#F49A2D"/>
<path d="M57.3926 701.944C62.731 705.522 68.0694 709.099 73.1673 712.589C70.1554 717.584 67.3123 722.234 64.3004 727.229C55.3253 727.605 49.7965 721.519 42.8462 717.759C38.6135 715.398 39.4606 709.612 43.388 703.326C52.5819 700.185 52.0652 713.408 59.4283 712.849C57.0481 710.759 52.3811 709.866 57.3926 701.944Z" fill="#FCC27D"/>
<path d="M223.436 548.992C225.322 549.688 226.876 551.063 229.687 549.293C225.091 560.425 225.796 575.516 210.572 579.923C204.977 582.269 201.938 579.945 201.194 574.059C204.286 559.166 218.203 560.29 223.436 548.992Z" fill="#F9BA6E"/>
<path d="M-2.42428 751.499C-8.00366 743.765 -18.4537 744.825 -25.9619 740.453C-26.0087 738.809 -25.5741 737.341 -24.4893 735.704C-23.1639 734.155 -22.176 733.296 -20.538 732.269C-15.4333 731.695 -9.86906 728.442 -4.3549 727.611C-1.22591 728.755 0.168145 731.705 1.56216 734.655C3.65317 739.08 8.32324 739.974 10.4143 744.399C8.4854 747.76 6.55656 751.122 4.6277 754.484C0.291934 756.966 -1.94623 755.741 -2.42428 751.499Z" fill="#FCC17B"/>
<path d="M115.729 692.675C116.687 688.998 115.284 687.275 113.477 685.806C115.16 674.338 104.806 672.553 105.512 661.935C113.696 649.227 118.089 656.882 123.562 658.89C125.299 659.93 126.225 661.479 126.007 664.219C121.783 671.129 122.942 676.791 122.981 682.445C123.329 688.616 121.182 691.857 115.729 692.675Z" fill="#F8A441"/>
<path d="M10.499 745.002C4.73308 745.748 -0.62262 746.236 -0.447852 737.739C3.87672 728.313 8.99407 723.661 15.3116 727.601C10.0694 738.322 11.0783 744.398 20.8499 741.856C25.41 740.67 28.7144 741.47 31.7525 743.396C32.6673 746.177 31.1453 749.289 29.6234 752.402L29.8645 752.49C22.6045 751.058 15.7548 749.37 10.499 745.002Z" fill="#FDE3C5"/>
<path d="M135.211 240.434C129.738 245.807 125.822 234.541 119.596 244.965C108.846 250.046 103.791 242.869 98.1289 237.52C97.5001 236.47 96.8712 235.42 96.4844 234.459C113.917 224.448 124.225 233.137 135.211 240.434Z" fill="#FCE6CC"/>
<path d="M88.7499 693.778C83.4175 691.825 76.3143 692.922 72.3405 688.18C66.4013 688.059 64.3667 684.027 65.5818 676.256C67.595 673.295 69.7286 672.433 71.91 673.232C81.3134 679.14 90.547 685.398 99.9505 691.306C95.9735 694.78 93.0666 689.607 88.7499 693.778Z" fill="#FCD4A6"/>
<path d="M-34.8601 193.749C-34.399 191.052 -33.6961 188.442 -33.235 185.745C-23.5064 182.752 -18.9616 190.966 -11.9458 193.533C-10.6431 201.38 -4.66749 203.157 -0.192961 206.841C-9.65888 216.891 -12.9693 207.9 -18.8726 206.559C-23.9757 201.826 -34.5272 205.336 -34.8601 193.749Z" fill="#FCE3C6"/>
<path d="M222.933 398.255C224.28 395.504 225.459 393.097 224.621 390.763C220.756 390.566 217.182 388.042 221.316 383.066C226.94 376.203 230.224 381.054 232.789 385.641C240.199 393.623 247.201 401.861 247.378 416.523C246.608 418.674 245.383 419.443 243.678 420.035C241.421 420.021 240.078 418.718 238.903 417.072C236.608 407.312 231.093 401.24 222.933 398.255Z" fill="#FBD4A6"/>
<path d="M204.147 570.2C203.04 577.059 208.173 576.922 211.011 579.173C206.518 583.177 210.183 591.784 202.446 593.792C199.44 591.883 196.435 589.975 193.262 588.408C192.576 582.91 187.378 578.584 193.069 570.984C197.111 565.604 201.766 565.292 204.147 570.2Z" fill="#F8BB71"/>
<path d="M91.3562 235.599C77.3964 241.983 68.0695 236.516 58.9125 230.701C60.1256 227.04 60.7816 222.765 65.3849 224.45C69.7459 226.047 72.724 231.652 79.2193 228.283C87.3628 223.875 86.4134 234.611 91.3562 235.599Z" fill="#FAC483"/>
<path d="M247.045 418.714C247.606 418.124 248.099 417.109 248.661 416.519C253.727 417.999 256.148 422.092 255.761 429.134C246.168 437.551 248.644 450.047 241.152 459.244C234.174 455.458 245.358 446.033 242.962 440.753C242.718 433.876 242.638 426.66 247.045 418.714Z" fill="#FAC485"/>
<path d="M232.127 385.66C230.292 385.39 228.791 384.436 227.027 384.596C225.43 384.413 224.219 381.147 222.475 384.136C219.99 388.063 222.849 389.111 223.848 391.09C208.801 394.845 220.143 380.862 220.605 374.177C228.975 372.005 231.494 377.767 232.127 385.66Z" fill="#FACB92"/>
<path d="M149.949 632.241C150.893 632.589 151.601 632.85 152.545 633.198C153.393 634.312 156.295 635.783 153.316 637.893C146.153 642.873 140.239 648.714 137.508 657.733C135.097 659.251 133.279 658.982 131.793 658.033C130.779 657.258 130.167 656.231 129.72 654.863C129.676 653.242 130.103 651.796 130.697 650.009C132.426 647.037 134.933 644.753 137.344 643.235C139.117 641.884 140.725 640.872 142.192 639.007C143.659 637.141 144.961 635.616 146.664 633.837C147.634 632.992 148.839 632.233 149.949 632.241Z" fill="#FCCD96"/>
<path d="M166.313 294.709C167.613 294.371 168.913 294.033 170.141 293.263C175.051 294.245 178.442 298.33 184.124 297.155C184.339 298.454 184.314 299.664 183.47 301.389C182.555 302.68 181.326 303.451 180.267 303.877C175.644 304.627 171.819 302.008 166.328 305.693L166.425 304.915C162.862 305.239 162.599 302.297 163.084 298.408C163.447 296.508 164.603 295.304 166.313 294.709Z" fill="#F8B360"/>
<path d="M130.709 652.803C131.258 653.408 132.212 653.758 132.761 654.362C131.562 657.96 138.463 657.663 133.37 663.466C131.054 663.021 128.835 661.804 125.895 664.36C124.63 663.493 123.127 662.538 121.863 661.671C122.01 658.496 124.067 656.02 125.646 653.37C126.555 652.088 127.535 651.237 128.993 650.56C129.947 650.909 130.496 651.514 130.709 652.803Z" fill="#FDA842"/>
<path d="M166.213 305.549C172.1 298.741 176.1 301.017 180.172 303.728C176.266 304.744 172.36 305.759 168.454 306.775L167.418 305.989L166.213 305.549Z" fill="#F9BD75"/>
<path d="M133.315 663.902C133.056 660.981 132.965 657.718 132.706 654.797C134.209 655.752 135.951 656.794 137.455 657.749C137.785 661.099 137.876 664.362 133.315 663.902Z" fill="#F8B15C"/>
<path d="M180.175 304.009C181.082 302.73 181.584 301.705 182.491 300.426C183.707 299.663 185.161 298.987 186.518 299.082C187.612 300.29 187.658 301.918 186.345 303.452C183.792 306.948 182.08 304.708 180.175 304.009Z" fill="#F9BD75"/>
<path d="M29.9346 752.318C30.9637 753.099 31.5853 754.136 32.6145 754.918C31.7995 755.429 31.0558 756.37 30.8164 756.283C29.3798 755.757 29.3337 754.122 29.9346 752.318Z" fill="#FCCE97"/>
<path d="M186.604 298.778C185.146 299.456 183.855 299.79 182.565 300.125C183.068 299.098 183.81 298.159 184.313 297.132C184.861 297.736 185.649 298.429 186.604 298.778Z" fill="#F9C07C"/>
<path d="M203.434 570.4C193.742 572.789 193.742 572.789 196.154 580.869C197.408 584.527 193.927 586.029 192.615 588.734C188.739 601.265 182.408 604.103 174.779 601.671L175.436 600.318C172.021 591.468 176.942 581.321 182.002 572.024C185.421 566.109 191.873 561.32 189.763 553.752C189.322 552.391 190.098 549.087 191.593 548.844C208.385 544.3 201.392 526.938 209.043 517.405C209.353 513.928 210.06 510.2 212.867 507.25C214.456 506.244 215.881 505.575 217.376 505.332C222.092 504.688 225.591 505.986 226.491 511.509C226.535 513.121 226.345 514.647 226.389 516.26C225.295 527.029 223.803 538.05 222.709 548.818C221.553 555.174 222.868 563.245 213.392 562.921C209.634 562.724 206.197 565.838 203.434 570.4Z" fill="#F49C32"/>
<path d="M224.871 512.078C221.933 509.374 217.811 509.089 213.592 509.583C206.15 501.568 195.015 499.94 186.487 493.564C181.933 490.678 175.956 490.121 171.064 487.926C167.474 485.392 163.716 483.203 165.24 476.022C173.37 466.369 179.514 470.651 185.056 472.678C190.527 474.271 196.504 474.827 198.576 476.399C194.72 474.989 187.297 473.904 181.225 470.055C178.215 466.918 173.564 464.811 177.62 456.519C191.991 450.37 201.242 457.01 210.831 462.959C214.199 472.336 223.356 475.684 224.577 487.127C221.388 496.55 229.218 501.449 224.871 512.078Z" fill="#F79622"/>
<path d="M223.635 487.247C218.261 481.653 210.677 478.865 209.792 468.09C209.94 464.929 208.876 462.528 207.646 460.468C205.827 456.182 202.727 452.228 205.75 444.9C212.027 434.347 219.547 432.691 227.183 433.087C229.636 441.224 233.614 430.227 236.887 429.823C245.778 431.083 238.79 441.374 238.662 447.356C236.356 450.929 234.453 454.249 232.147 457.822C228.375 459.248 222.257 458.606 222.091 458.947C219.919 467.393 222.424 473.136 225.736 478.373C230.213 481.226 227.126 484.109 223.635 487.247Z" fill="#F59A2C"/>
<path d="M238.155 447.875C234.828 443.841 240.755 433.986 235.417 431.217C232.519 425.736 231.3 419.669 237.577 411.95C239.799 411.966 241.523 413.002 241.778 415.905C243.266 416.854 244.754 417.804 246.241 418.753C246.088 425.919 248.322 432.761 242.351 440.994C240.952 443.288 239.553 445.581 238.155 447.875Z" fill="#F6A23D"/>
<path d="M225.932 478.723C213.994 476.756 218.843 462.833 219.837 449.911C223.828 453.792 227.105 457.411 232.291 457.704C221.6 464.651 226.086 471.532 225.932 478.723Z" fill="#F7A039"/>
<path d="M-16.0455 201.19C-10.3433 202.459 -7.29809 209.825 0.451708 206.853C17.4841 218.541 39.8792 219.717 56.5703 232.113L56.5458 233.352C49.0876 242.26 44.2146 236.301 38.3172 236.626C19.724 233.521 4.54344 223.347 -12.5141 217.061C-16.9003 215.445 -21.7009 214.092 -20.3107 205.863C-19.2869 203.742 -17.9464 202.155 -16.0455 201.19Z" fill="#F89C2E"/>
<path d="M64.6503 242.972C54.9037 253.023 61.9006 258.068 65.5944 256.945C77.089 253.317 85.4217 260.917 97.3059 254.128C103.065 251.699 106.783 253.476 109.139 258.057C107.801 263.76 114.289 261.599 113.705 266.34C112.659 269.672 110.982 271.947 108.017 273.337C77.7643 272.56 51.1104 263.193 23.0949 256.63C20.1792 255.56 17.4338 254.14 15.4419 251.757C12.9886 247.967 12.2607 243.57 17.438 237.624C34.0103 237.098 51.1178 234.29 64.6503 242.972Z" fill="#FA9A27"/>
<path d="M64.1518 242.684C53.2595 236.202 36.284 248.169 25.4891 240.896C23.3983 239.301 20.3831 239.021 17.7085 238.039C0.612845 243.757 -8.8925 233.234 -20.1737 225.782C-17.1066 211.19 -10.834 215.975 -6.4574 217.582C8.52009 223.91 22.3783 233.135 40.5914 232.791C47.0115 230.185 50.2197 237.154 56.7373 233.757C59.971 235.358 65.0288 235.56 64.1518 242.684Z" fill="#F0901C"/>
<path d="M108.211 262.548C104.395 259.935 100.651 257.755 96.8354 255.142C107.506 246.067 98.6244 242.818 98.3418 237.037C105.303 239.583 112.673 241.873 119.635 244.419L118.818 244.932C119.842 253.823 116.57 259.927 108.211 262.548Z" fill="#F69F36"/>
<path d="M124.664 329.571C129.926 328.182 135.116 326.35 140.378 324.961C163.788 340.653 187.368 355.992 211.022 371.774C212.069 372.576 213.75 374.443 212.337 375.586C209.51 377.872 208.268 374.503 206.32 373.785C194.115 370.538 182.421 366.231 171.24 360.865C153.457 354.316 135.844 347.413 116.086 345.543C96.8645 345.534 81.9319 335.459 63.0513 334.744C61.4191 334.558 60.0305 334.463 58.5688 333.924C52.9904 330.622 46.0718 328.906 45.1961 319.434C48.7791 307.86 54.7717 310.899 59.7659 310.659C70.6559 310.095 80.6439 313.774 92.8747 307.465C97.0406 307.752 98.0389 311.031 97.9407 315.985C95.0886 327.828 103.64 325.57 108.196 326.832C113.068 328.627 117.915 331.66 124.664 329.571Z" fill="#FC9D27"/>
<path d="M70.7388 673.696C69.2743 674.376 67.7382 674.625 66.2737 675.305C54.6544 679.971 47.315 676.476 44.4951 664.906C52.6674 651.684 41.6329 647.647 43.3707 637.745C60.8186 635.616 75.1147 641.656 90.8542 644.172C93.3961 645.912 93.4888 649.188 91.3005 653.657C86.0613 661.468 80.4261 657.38 75.0227 661.483C73.8192 665.096 72.2789 669.396 70.7388 673.696Z" fill="#EE9A35"/>
<path d="M75.8254 661.45C75.2731 656.758 76.9406 654.51 81.0694 654.795C83.8219 654.985 86.7437 654.829 89.4963 655.019C97.0074 652.459 104.011 650.938 105.598 660.499C109.505 667.642 118.679 670.996 112.947 685.637C106.245 668.491 86.6362 671.934 75.8254 661.45Z" fill="#FCA53D"/>
<path d="M190.95 372.577C190.61 373.275 190.27 373.973 190.101 374.322C198.516 376.994 196.692 390.718 203.19 395.566C202.825 397.489 201.733 399.145 200.156 400.623C185.483 401.417 181.094 396.931 180.76 381.182C180.688 380.744 180.858 380.395 179.475 380.3C166.936 380.23 155.903 374.133 141.446 380.352C130.749 381.779 121 380.676 111.857 377.738C107.76 375.003 100.8 372.865 104.465 364.749C108.567 355.149 116.716 354.844 123.241 354.355C126.83 354.025 129.473 356.227 133.063 355.897C138.835 356.366 144.607 356.836 150.549 356.956C163.695 355.192 173.904 361.81 185.933 362.926C189.983 363.999 193.038 365.94 190.95 372.577Z" fill="#F89620"/>
<path d="M202.102 399.963C203.017 398.674 203.522 397.641 204.437 396.352C212.586 392.433 215.006 400.217 220.699 401.894C229.207 400.135 235.453 402.419 236.693 412.613C236.158 418.911 235.624 425.209 234.849 431.419C231.938 435.63 229.191 443.555 225.81 435.419C219.357 423.724 201.861 427.066 198.488 410.816C198.323 407.103 198.807 403.222 202.102 399.963Z" fill="#F69621"/>
<path d="M190.669 373.4C182.806 361.79 166.833 367.537 155.902 362.269C153.711 361.463 151.179 361.362 149.061 360.998C146.017 361.954 143.753 360.705 144.971 357.002C146.018 353.651 149.33 351.549 151.862 351.65C159.215 351.864 165.716 353.841 172.387 355.465C185.729 358.713 196.708 365.659 207.59 373.399C200.139 378.13 196.853 370.694 190.669 373.4Z" fill="#EB8913"/>
<path d="M236.342 412.763C230.822 409.522 225.47 405.936 220.118 402.349C221.036 401.054 221.953 399.759 223.04 398.119C239.397 390.243 238.349 405.754 241.14 415.74C239.621 414.777 238.102 413.814 236.342 412.763Z" fill="#F8A849"/>
<path d="M163.927 296.802C164.768 299.143 165.609 301.484 166.04 304.081C159.945 309.58 153.996 311.879 147.832 312.878C145.788 310.097 143.237 308.352 138.733 311.178C133.362 312.875 127.486 315.607 123.854 311.432C121.45 306.486 114.927 305.321 117.462 296.081C124.43 283.581 129.719 293.648 135.861 289.794C137.33 289.111 138.968 288.083 140.678 287.488C143.857 286.21 145.492 289.248 148.574 288.748C151.318 288.938 154.569 288.093 157.217 289.061C160.008 290.895 162.462 293.419 163.927 296.802Z" fill="#F19423"/>
<path d="M125.336 306.397C128.902 310.145 134.932 308.275 139.271 309.862C132.03 319.438 124.075 316.529 116.549 320.297C104.218 333.309 99.7627 325.568 95.4765 317.482C94.2491 314.181 93.8419 310.366 90.7081 309.22C90.661 307.573 91.2652 305.757 92.3515 304.117C94.427 301.616 96.5495 300.762 98.575 300.688C99.9494 300.783 101.155 301.223 102.36 301.664C110.606 302.234 117.162 306.261 125.336 306.397Z" fill="#F9B86B"/>
<path d="M95.7393 317.145C102.105 319.884 107.258 326.278 116.896 319.969C118.104 324.51 119.894 328.443 123.936 329.512C108.971 337.97 100.551 328.332 89.2231 325.826C91.8875 322.703 93.7286 320.098 95.7393 317.145Z" fill="#FB9F30"/>
<path d="M108.841 262.832C113.861 257.78 117.681 252.289 119.919 245.408C124.657 257.677 132.613 266.261 141.145 274.245C138.478 278.537 135.55 279.897 132.769 278.069C122.402 280.76 115.712 277.097 113.852 265.881C111.934 265.179 107.516 268.425 108.841 262.832Z" fill="#F9BA6E"/>
<path d="M135.495 289.012C132.742 292.899 129.941 295.137 127.143 293.299C123.863 291.284 120.605 292.132 117.585 297.145C113.529 301.371 110.054 300.917 106.846 299.336C101.059 293.142 90.8773 291.866 93.2037 277.22C100.349 272.492 106.333 273.048 111.277 276.895C114.044 288.102 125.707 276.461 130.964 280.83C132.531 283.442 133.928 286.4 135.495 289.012Z" fill="#F89E33"/>
<path d="M130.627 281.206C121.666 285.634 112.704 290.062 107.646 281.318C107.865 278.559 108.732 275.631 109.84 272.792C111.259 270.472 112.678 268.152 114.097 265.832C120.384 269.754 126.912 273.764 133.031 278.03C132.286 278.974 131.54 279.918 130.627 281.206Z" fill="#F59C31"/>
<path d="M163.689 297.431C160.663 295.512 157.396 293.505 154.2 291.931C154.107 288.649 155.768 286.415 158.461 284.964C160.814 288.26 163.335 291.212 165.927 294.596C165.181 295.541 164.435 296.486 163.689 297.431Z" fill="#F9BD75"/>
<path d="M158.258 284.835C156.845 287.144 155.433 289.453 154.021 291.762C151.775 291.747 149.697 291.39 147.451 291.375C146.831 290.34 146.618 289.05 147.217 287.251C151.043 284.614 154.554 285.497 158.258 284.835Z" fill="#FBD8AE"/>
<path d="M147.165 287.064C147.382 288.37 147.43 290.024 147.405 291.242C145.157 290.01 142.667 288.691 140.25 287.807C143.153 284.778 145.159 285.921 147.165 287.064Z" fill="#FDECD7"/>
<path d="M48.5098 735.855C42.1931 731.915 35.7073 728.321 29.3906 724.381C26.3528 722.455 23.5561 720.618 20.5184 718.692C18.9745 718.943 17.5997 718.848 16.394 718.407C13.9355 715.878 11.308 713.694 8.51131 711.856C-0.480039 704.086 -14.2999 702.701 -16.2176 685.696C-9.21591 676.028 -1.8319 671.391 6.31976 672.741C10.0089 674.497 15.2448 671.928 19.4412 672.647C23.1553 673.19 25.9519 675.027 29.1588 676.607C30.6056 677.136 31.6423 677.923 33.0891 678.452C41.1438 680.581 50.357 681.504 52.6407 692.529C51.166 697.289 49.6193 701.614 45.1346 699.16C40.0707 697.308 33.8646 707.675 29.0917 703.484C29.2887 697.85 25.6715 696.528 21.284 693.293C24.707 696.175 27.4316 697.579 26.6083 702.169C24.9588 715.424 34.9204 715.398 39.9815 721.324C44.0309 725.25 54.0425 722.796 48.5098 735.855Z" fill="#F8A13B"/>
<path d="M18.8549 715.027C19.6403 715.719 20.4967 716.839 21.2822 717.53C19.133 720.773 16.9837 724.016 14.8344 727.258C8.99597 727.132 4.38835 733.101 -0.741055 737.267C-2.28652 734.684 -3.83192 732.102 -5.44829 729.09C-7.68284 725.046 -6.15181 720.77 -1.97517 716.256C6.23078 710.397 13.1893 710.531 18.8549 715.027Z" fill="#FCC07A"/>
<path d="M45.7139 700.046C48.6133 699.893 50.6765 697.41 52.6685 694.496C58.7112 690.232 63.2871 690.692 66.1567 695.79C66.2996 696.652 66.2028 697.426 66.3456 698.288C63.421 699.646 60.4963 701.004 57.5002 701.931C55.8609 711.046 65.8071 708.614 66.2773 716.882C53.3349 720.24 49.6085 709.972 43.722 702.96C44.2977 702.361 44.9701 700.988 45.7139 700.046Z" fill="#FBBD74"/>
<path d="M26.9646 702.448C21.1079 698.666 15.2512 694.884 9.39448 691.101C24.914 687.354 29.7053 691.566 29.0457 704.03C28.6589 703.068 27.6907 702.714 26.9646 702.448Z" fill="#E99129"/>
<path d="M28.2762 684.372C27.4798 683.672 26.7555 683.408 25.9591 682.708C27.1963 673.771 19.8093 670.254 22.6892 660.285C25.1532 658.736 26.338 656.312 25.228 655.09C23.4186 652.387 21.1264 649.507 27.2865 645.636C30.7884 644.876 33.444 645.847 36.1718 647.252C40.5646 650.492 46.2866 652.176 46.5228 660.427C49.7034 671.387 59.9427 670.232 67.4019 674.184C65.876 681.383 72.275 681.682 72.3197 687.413C70.5773 693.308 76.807 693.953 74.8232 699.759C70.3779 703.032 68.5934 699.114 65.5271 698.401L65.9628 696.927C53.7474 691.644 44.3122 681.254 28.2762 684.372Z" fill="#F7A23E"/>
<path d="M210.565 515.154C210.322 519.079 217.656 521.779 207.611 526.915C203.512 529.02 202.035 534.901 204.515 537.822C206.453 540.141 211.472 539.579 206.964 545.951C203.927 550.454 200.327 551.538 197.015 550.319C195.595 549.797 193.939 549.187 192.047 548.49C190.71 555.226 194.163 557.3 195.882 562.35C178.567 569.227 178.541 585.279 174.422 599.422C172.127 598.979 169.998 598.195 167.248 600.395C164.524 601.401 162.868 600.791 162.779 597.546C157.191 598.701 153.079 608.832 147.235 607.082C146.762 606.908 146.052 606.647 145.745 606.133C143.239 604.407 141.468 601.747 141.877 597.481C143.022 592.281 145.043 587.002 148.483 582.245C152.633 577.75 157.134 575.391 161.488 576.191C162.435 576.539 163.285 577.655 164.896 576.642C163.24 576.033 161.917 574.743 161.565 572.606C162.019 569.962 163.183 567.58 165.223 565.118C168.12 559.76 173.011 565.174 175.46 558.446C171.816 543.052 156.375 547.808 147.532 541.34C146.516 540.565 145.902 539.536 145.218 538.079C141.158 530.963 154.042 526.872 152.444 519.859C162.189 510.196 170.45 510.426 179.395 512.112C186.991 513.704 192.873 521.089 203.251 515.272C206.307 513.586 208.769 513.689 210.565 515.154Z" fill="#F49522"/>
<path d="M164.251 597.652C165.766 598.612 167.28 599.572 168.795 600.532C165.834 603.106 163.91 602.403 161.914 601.267C162.589 599.888 163.504 598.598 164.251 597.652Z" fill="#F49B2F"/>
<path d="M148.582 606.195C144.423 623.404 139.683 613.935 135.106 612.261C131.392 615.789 127.581 620.096 123.026 621.281C113.386 621.828 106.762 617.37 102.648 608.944C110.082 593.747 117.184 602.451 124.44 599.811C132.753 600.815 142.756 598.365 148.582 606.195Z" fill="#F39625"/>
<path d="M126.311 616.518C129.428 613.612 132.352 612.254 135.322 612.532C134.759 624.062 146.19 619.747 149.345 626.568C149.605 629.496 146.727 632.49 147.395 635.162C145.979 637.477 144.563 639.792 142.739 642.362C130.38 641.075 127.805 629.611 126.311 616.518Z" fill="#F59A2C"/>
<path d="M147.686 635.321C146.573 632.514 147.883 629.81 149.59 626.854C149.47 628.804 149.513 630.416 149.393 632.366C148.902 633.38 148.411 634.394 147.686 635.321Z" fill="#F8A94A"/>
<path d="M-24.843 736.954C-26.4005 734.358 -27.958 731.761 -29.5156 729.164C-42.7409 729.596 -51.711 723.072 -57.3392 710.878C-47.6753 695.766 -37.2445 705.662 -27.3952 697.103C-21.275 697.315 -16.7415 700.19 -14.0348 705.639C-14.6952 717.965 -21.9143 712.486 -25.7572 715.134C-25.3318 721.776 -3.74712 714.672 -22.6796 733.692C-23.1847 734.723 -23.9297 735.667 -24.843 736.954Z" fill="#F49F3B"/>
<path d="M-22.3196 733.911C-18.8587 730.311 -13.2125 726.294 -19.7644 723.492C-24.8762 721.216 -30.1564 719.285 -36.3966 717.003C-26.8056 705.507 -20.8597 714.17 -13.5083 709.56C-8.27449 709.852 -4.2911 712.12 -2.06339 717.395C-4.80426 721.259 -5.21662 725.569 -6.34904 729.615C-11.7552 733.72 -17.4266 738.945 -22.3196 733.911Z" fill="#FCA847"/>
<path d="M-107.002 171.239C-100.512 182.847 -87.4792 182.643 -76.3995 185.903C-57.1931 192.587 -39.5246 202.469 -17.999 203.732C-15.4869 217.635 -0.769528 210.94 5.96554 218.453C14.7016 228.38 29.9064 226.05 40.5221 232.068C19.9232 237.844 7.40479 224.426 -8.97077 219.626C-12.8023 218.628 -15.7064 216.299 -20.1001 223.045C-24.8106 225.07 -26.543 221.499 -29.3738 219.615C-37.1101 217.173 -44.6755 214.376 -52.9244 213C-62.4667 210.727 -71.2523 207.478 -81.1363 205.916C-85.6509 202.154 -91.6058 200.789 -95.6077 195.961C-99.8046 188.549 -107.98 187.619 -114.472 184.381C-118.206 182.582 -124.429 182.373 -118.497 172.429C-113.665 168.356 -110.053 168.018 -107.002 171.239Z" fill="#F29320"/>
<path d="M104.791 661.069C99.4556 659.114 93.9503 657.509 88.6149 655.554C90.3866 652.502 91.7458 649.71 90.5826 646.816C80.8093 642.825 69.1671 642.673 61.8451 634.233C60.149 629.499 53.6489 628.763 56.3442 620.291C61.1975 613.843 65.6601 614.656 69.2006 616.775C87.4852 626.763 103.828 640.152 123.035 648.833C124.733 649.455 125.168 652.082 125.361 654.62C126.742 658.828 122.498 659.329 120.896 662.033C115.608 661.741 111.899 655.858 104.791 661.069Z" fill="#EB9630"/>
<path d="M126.123 615.94C131.634 624.506 137.387 633.16 142.729 642.073C141.253 642.761 139.608 643.797 138.132 644.485C134.479 644.376 130.195 647.312 126.809 646.074C121.104 639.074 109.926 641.535 105.31 632.887C104.634 630.184 112.861 625.007 105.653 624.007C98.9281 623.184 94.0681 618.541 90.0308 613.38C87.7341 610.493 84.3727 608.036 89.3839 601.272C95.6746 599.48 100.367 600.378 103.098 605.88C111.08 608.8 115.429 618.578 126.123 615.94Z" fill="#F79F37"/>
<path d="M129.829 643.124C132.963 643.059 136.77 641.623 138.8 644.387C136.597 646.007 134.226 647.968 132.262 649.675C130.801 650.353 129.438 650.258 128.242 649.82C127.407 647.493 127.29 645.429 129.829 643.124Z" fill="#FAB96B"/>
<path d="M130.061 647.916C131.018 648.266 131.567 648.872 132.524 649.222C131.852 650.593 131.109 651.533 130.606 652.562C129.649 652.211 128.861 651.519 127.904 651.168C128.001 650.395 128.097 649.622 128.194 648.849C128.84 648.682 129.486 648.514 130.061 647.916Z" fill="#F8B15C"/>
<path d="M124.677 655.114C103.943 648.723 87.0353 635.005 68.9332 623.759C64.8889 621.437 61.9173 614.517 54.3625 624.216C41.4979 621.141 31.1925 612.768 19.5221 607.22C3.88045 599.793 -12.6142 594.132 -28.2559 586.705C-34.5661 583.132 -41.2175 580.266 -44.7494 572.723C-45.2852 570.862 -45.1631 568.826 -43.7252 566.443C-31.5406 554.288 -24.1349 564.506 -14.4616 563.493C-8.78476 566.001 -2.49855 566.652 3.34889 568.806C11.5352 572.654 17.9423 579.592 27.3959 581.41C31.2212 582.403 34.364 584.81 36.1665 588.802C48.469 603.737 66.5962 609.583 82.1887 619.488C94.2242 627.251 104.139 638.81 119.392 641.1C123.631 641.83 126.165 646.092 127.041 651.408C126.286 652.378 125.36 653.701 124.677 655.114Z" fill="#FCA53D"/>
<path d="M209.782 516.043C206.802 518.643 204.865 517.935 202.855 516.789C187.935 522.81 179.27 513.078 167.938 510.571C164.089 507.933 159.416 505.812 161.866 497.278C170.563 489.389 176.712 494.92 184.292 494.003C194.898 496.244 205.261 498.397 211.989 507.42C211.116 510.381 210.655 513.083 209.782 516.043Z" fill="#F79622"/>
<path d="M211.787 507.974C201.664 504.675 191.783 501.464 181.489 498.515C182.366 491.417 186.299 490.387 190.646 489.095C198.147 493.081 205.72 497.507 213.562 500.794C217.689 502.307 216.158 505.455 214.287 509.303C213.316 508.947 212.515 508.241 211.787 507.974Z" fill="#EC8B17"/>
<path d="M205.807 444.967C204.862 451.554 210.097 453.06 210.721 458.182C201.546 467.061 199.164 456.811 193.18 456.254C187.679 455.874 183.75 449.952 176.339 455.806C175.465 462.827 180.653 462.685 183.595 465.392C176.76 474.719 173.435 466.979 168.489 467.209C157.035 456.904 142.101 454.298 126.587 452.297C123.837 452.107 123.063 454.271 121.324 456.082C110.172 462.607 100.57 460.728 90.411 462.315C88.1429 462.301 86.5514 460.903 86.288 457.952C87.691 452.756 91.3621 447.574 94.4509 447.072C103.717 445.566 96.0231 441.53 97.6895 439.284C101.119 434.013 103.338 436.456 105.75 437.338C95.2329 432.677 81.7434 434.677 72.5795 427.249C70.7967 423.335 73.7442 417.888 74.3265 413.207C78.7213 408.289 81.6881 409.781 84.8961 411.362C88.3454 413.031 87.1172 409.727 87.3113 408.167C91.2486 401.858 97.1601 401.981 101.483 396.629C111.548 391.745 118.76 395.605 126.069 398.685C132.385 406.704 146.845 396.902 150.242 405.077C153.907 408.048 153.089 404.486 151.905 406.908C151.567 407.6 151.495 407.166 150.771 406.901C148.866 404.981 145.972 403.923 148.098 398.991C157.756 390.288 160.404 399.413 166.024 401.875C165.198 410.545 171.98 407.723 176.009 408.788C178.18 409.582 180.689 409.684 182.522 411.17C187.297 415.362 197.986 415.6 191.727 428.401C184.962 442.239 179.71 429.716 173.097 432.192C164.557 429.885 158.457 423.169 149.748 421.208C159.422 423.522 166.052 432.063 176.813 432.735C186.534 436.697 200.387 432.79 205.807 444.967Z" fill="#F6941D"/>
<path d="M190.273 488.589C187.369 491.618 184.466 494.646 181.151 497.934C173.871 500.589 168.844 496.296 162.678 496.086C152.786 499.422 147.711 493.475 142.466 487.875C138.478 484.371 147.817 476.333 143.587 472.741C145.184 470.053 147.071 469.106 149.272 468.684C159.306 470.309 161.184 485.722 173.905 483.011C179.224 484.957 186.068 483.779 190.273 488.589Z" fill="#F28F19"/>
<path d="M173.289 483.212C158.348 491.646 155.141 477.802 147.725 471.411C143.958 465.128 132.693 468.366 133.425 456.371C147.52 449.672 156.314 456.158 164.769 463.338C166.338 465.955 166.916 469.437 166.02 473.605C165.146 480.643 170.753 480.241 173.289 483.212Z" fill="#F6941E"/>
<path d="M166.511 474.014C164.496 472.862 163.063 471.099 164.036 467.33C165.033 462.333 168.288 462.701 170.838 461.574C175.453 463.267 177.686 469.861 184.95 465.512C190.365 472.036 201.442 468.673 206.345 480.372C191.626 478.274 178.947 476.1 166.511 474.014Z" fill="#ED8B16"/>
<path d="M177.022 456.524C174.44 454.742 171.103 453.929 169.667 447.996C181.042 447.612 189.494 450.308 197.507 454.506C201.794 456.915 204.618 462.943 211.731 458.912C212.9 461.836 211.536 464.659 209.757 467.745C200.161 460.886 188.08 459.764 177.022 456.524Z" fill="#F18F1A"/>
<path d="M205.569 446.472C195.492 443.196 185.657 440.008 175.411 437.079C175.122 435.338 174.253 434.203 175.439 431.775C177.083 430.741 178.993 428.579 179.96 428.932C182.859 429.993 184.063 438.608 189.361 429.509C194.321 421.105 186.925 421.67 184.461 419.134C179.364 414.409 172.404 413.498 164.863 413.193C158.701 412.983 161.216 408.998 165.762 404.938C179.954 397.457 188.165 408.635 200.201 407.314C204.379 413.338 208.243 418.839 216.436 418.974C223.082 419.361 226.535 425.12 226.022 434.333C219.204 438.379 211.617 436.422 205.569 446.472Z" fill="#F3911B"/>
<path d="M109.622 271.781C110.546 274.606 109.426 277.51 107.406 280.496C105.68 272.818 95.9208 282.905 93.5131 276.633C72.6836 284.723 59.1088 273.104 42.7586 269.581C36.5786 268.138 30.4232 265.461 25.1926 261.467C23.9278 259.345 23.0038 256.519 25.8513 253.008C37.945 248.751 45.3889 256.459 54.391 259.768C71.8357 265.765 93.5647 261.735 109.622 271.781Z" fill="#ED8C18"/>
<path d="M-23.9895 214.641C-22.4158 217.269 -20.8422 219.897 -19.196 222.962C-6.84166 227.485 5.58517 232.444 17.9395 236.966C15.0786 241.665 15.0044 245.331 18.0563 247.269C13.7649 254.316 9.64687 252.809 6.83722 250.96C-5.10336 242.074 -20.5839 239.28 -33.2034 231.788C-34.3652 228.901 -33.3219 225.589 -31.6244 222.106C-29.6848 218.712 -27.1156 216.37 -23.9895 214.641Z" fill="#F89621"/>
<path d="M-32.7639 228.526C-18.1819 230.985 -4.28185 234.853 6.64726 244.267C9.7873 246.667 12.4889 250.566 18.5269 246.977C20.8637 248.667 23.371 250.004 25.4643 251.604C25.5127 253.282 25.5612 254.959 25.6096 256.637C22.4681 262.536 19.3035 261.372 15.871 261.354C2.53139 253.958 -14.1201 252.812 -26.8508 243.565C-31.7678 240.096 -38.5355 239.267 -37.0973 228.592C-34.9303 226.484 -33.5426 226.579 -32.7639 228.526Z" fill="#EF8E1A"/>
<path d="M92.4631 303.817C91.785 305.206 91.107 306.596 90.4289 307.985C88.4649 316.681 85.0539 316.661 79.5385 316.281C69.0886 314.914 57.7912 315.284 46.8328 314.96C25.3954 322.672 10.4493 314.749 -2.70442 302.569C-5.19331 297.156 -3.81235 293.159 3.05919 290.76C7.14821 289.391 10.8734 289.935 14.5262 290.043C20.1139 290.859 25.8712 291.328 32.4037 289.624C51.6125 287.646 71.1852 283.754 85.573 295.157C88.4506 297.437 92.4177 298.07 92.4631 303.817Z" fill="#FC9C27"/>
<path d="M62.3802 328.389C63.3525 328.746 63.9115 329.364 64.7136 330.072C79.7603 336.836 96.8501 339.39 111.654 346.065C116.004 353.036 112.089 356.973 104.941 359.31C96.7233 362.081 89.479 361.075 82.4777 360.158C61.158 356.879 42.2465 347.456 21.2673 343.474C16.5512 342.57 12.8567 339.56 11.6669 333.749C18.5992 317.69 22.9955 334.6 29.0017 328.124C23.5801 329.854 20.104 328.164 20.3244 321.217C31.0959 313.183 37.5126 318.846 44.5375 322.665C50.5418 324.456 54.1625 331.16 62.3802 328.389Z" fill="#FC9A23"/>
<path d="M61.5899 328.349C54.2906 338.087 51.1541 331.553 47.2871 328.89C39.1395 323.827 31.0648 319.204 19.7536 321.259C14.3044 324.225 9.82881 323.409 5.11009 322.503C-1.99172 318.238 -10.4563 316.784 -16.4632 310.852C-17.5555 300.1 -29.5718 300.654 -29.91 288.937C-23.9488 280.777 -20.2767 285.024 -15.7283 286.281C-9.89095 288.425 -6.99769 294.87 -1.57387 297.277C12.167 308.535 29.0716 312.676 47.3389 314.005C48.1151 324.226 57.1152 323.393 61.5899 328.349Z" fill="#EE8B15"/>
<path d="M171.592 355.603C163.389 358.36 158.125 352.727 150.432 354.436C144.705 355.63 146.112 358.616 148.343 361.08C142.179 363.761 137.326 361.983 132.304 360.554C126.091 361.571 123.521 355.689 118.329 354.61C115.709 351.18 116.293 346.454 117.945 341.297C138.328 340.533 154.535 348.941 171.592 355.603Z" fill="#F3901A"/>
<path d="M117.803 340.217C120.868 342.171 120.965 345.519 117.923 350.613C113.787 353.235 112.766 347.062 108.63 349.684C99.5089 344.262 87.467 346.049 77.5914 341.592C71.9239 339.096 68.0811 335.199 64.1654 330.862C81.1705 325.929 91.7259 337.261 106.565 338.572C110.481 338.769 113.96 340.461 117.803 340.217Z" fill="#E7850E"/>
<path d="M62.4273 627.943C71.6821 634.227 81.1071 640.161 90.3619 646.446C72.6987 648.634 57.6371 643.109 41.6273 640.125C39.732 641.081 38.0069 641.686 36.3791 641.502C33.8524 641.401 31.8362 640.248 29.82 639.096C26.7593 637.147 23.2855 635.46 20.395 633.162C16.3872 629.628 8.41867 628.355 12.5271 618.718C16.0277 610.921 22.9999 613.066 28.5637 612.218C42.0715 613.871 50.086 625.066 62.4273 627.943Z" fill="#FCA740"/>
<path d="M40.1799 638.025C41.1392 638.376 41.6904 638.983 42.6498 639.334C45.6709 641.249 49.1001 642.909 51.7845 645.512C59.2153 652.283 54.6753 657.512 45.5785 661.073C40.807 658.111 36.4438 654.894 31.6723 651.933C31.0537 646.843 40.3862 647.421 37.7774 641.198C37.9709 639.648 38.7156 638.705 40.1799 638.025Z" fill="#E68F29"/>
<path d="M109.392 347.735C113.851 344.444 115.909 347.248 118.645 348.66C123.464 351.655 127.871 354.908 132.69 357.903C123.897 358.377 115.76 354.578 105.341 363.072C106.937 368.579 111.563 369.041 114.517 371.764C113.983 374.03 112.578 375.156 110.93 376.194C108.459 377.751 106.716 375.472 104.414 376.681C106.764 377.13 108.192 378.884 109.451 380.986C110.345 385.005 112.306 388.594 107.483 393.803C101.766 394.993 96.0488 396.182 91.7142 393.365C81.7155 381.09 64.2477 388.235 50.2961 386.41C39.8324 385.042 29.0293 384.37 20.093 379.868C18.4949 378.463 17.4784 376.45 16.5344 374.874C9.34478 364.448 -6.45243 373.435 -15.097 366.578C-16.2832 364.913 -17.0575 362.989 -17.8318 361.065C-18.8465 354.95 -28.3432 358.038 -26.2801 348.537C-16.8028 334.365 -10.0233 340.949 -2.66037 342.824C15.8433 348.776 36.2138 350.898 52.3415 361.724C39.3623 352.051 21.1468 351.948 10.4462 338.185C9.98662 336.786 10.1086 334.78 10.4728 332.862C11.0544 332.254 12.0479 331.387 12.6295 330.78C41.4731 344.208 72.0138 354.156 105.901 355.482C110.382 355.071 113.435 352.907 109.392 347.735Z" fill="#F7951E"/>
<path d="M199.141 407.866C192.294 413.135 186.514 413.885 181.969 409.768C177.183 405.562 169.66 408.129 164.438 405.401C159.118 403.455 153.629 401.856 148.309 399.911C131.813 404.515 122.118 398.105 122.102 382.96C138.795 372.699 146.382 386.931 159.199 387.528C162.367 387.459 165.099 388.867 165.897 389.568C170.105 390.289 169.212 386.28 169.163 388.717C169.065 389.5 168.412 389.67 167.687 389.405C159.491 385.179 146.065 390.498 143.34 376.817C159.379 366.726 169.483 376.969 182.737 376.088C183.874 376.095 184.018 376.966 184.235 378.273C186.26 390.47 191.408 396.854 201.347 399.262C200.644 401.869 199.772 404.823 199.141 407.866Z" fill="#F7941E"/>
<path d="M143.076 375.745C150.758 383.53 164.546 379.907 170.866 390.5C151.582 395.414 140.985 378.286 122.285 382.588C116.813 386.783 111.706 389.044 108.546 383.747C105.873 378.629 95.9502 384.913 96.3172 374.707C103.661 370.785 108.353 377.058 115.381 372.607C124.499 373.887 133.788 374.816 143.076 375.745Z" fill="#EF8C16"/>
<path d="M108.87 295.937C111.864 296.215 115.1 296.582 118.094 296.86C120.458 300.174 122.823 303.488 125.357 306.456C115.114 311.692 107.993 307.047 100.34 304.657C101.502 299.367 105.029 297.39 108.87 295.937Z" fill="#F3982A"/>
<path d="M108.29 295.52C105.369 298.59 102.449 301.661 99.6988 304.379C98.896 303.67 97.9228 303.312 97.12 302.603C86.0026 290.643 69.4572 288.706 55.0295 282.989C51.964 281.033 48.0466 280.837 44.8107 279.233C39.7751 273.653 32.9627 271.149 25.8094 269.348C21.5029 268.18 14.7141 268.585 19.3393 257.854C21.3586 259.011 23.305 259.726 26.2984 257.097C48.2931 264.352 70.0199 272.752 93.816 275.697C95.1522 286.548 104.69 287.567 108.29 295.52Z" fill="#F79623"/>
<path d="M57.4011 277.013C67.8264 280.831 78.4215 284.3 88.2646 288.727C92.9437 290.852 102.425 288.981 97.3525 302.332C95.6307 302.934 93.9815 303.974 92.2596 304.577C74.6598 293.199 53.2009 291.505 30.2611 294.613C30.8463 285.784 31.0162 285.436 37.2487 283.197C43.8936 280.698 50.3192 280.996 57.4011 277.013Z" fill="#EA8915"/>
<path d="M16.2295 674.98C12.6306 675.313 7.86343 681.008 4.58142 677.735C-11.6373 676.329 -25.6906 668.686 -43.6369 672.024C-44.4884 673.779 -45.4127 675.095 -46.653 675.88C-48.1365 676.576 -49.5225 676.481 -50.9085 676.386C-57.7166 673.886 -64.5974 670.945 -71.7461 669.147C-80.5722 665.493 -85.2137 652.619 -98.808 658.796C-100.364 659.052 -101.993 658.867 -103.209 658.421C-110.211 653.367 -119.841 653.141 -125.578 646.07C-122.123 636.583 -131.606 637.237 -130.729 630.114C-123.359 620.824 -118.813 626.216 -113.61 627.3C-104.175 629.11 -95.0816 631.622 -83.5546 626.754C-75.4078 623.541 -69.8647 628.059 -62.9346 628.535C-56.0537 631.476 -48.3941 632.22 -41.9266 635.423C-32.8337 642.071 -22.3786 645.91 -11.9234 649.75C-3.68101 654.018 3.53962 660.392 12.2928 663.606C15.94 664.946 20.5597 666.642 16.2295 674.98Z" fill="#FDA63F"/>
<path d="M-2.5049 717.737C-8.88557 719.102 -12.7419 716.455 -14.0738 709.796C-19.4582 706.177 -24.8424 702.559 -30.6392 699.201C-43.3047 705.258 -50.0224 699.094 -55.3806 690.137C-57.417 686.099 -59.5259 681.624 -55.7394 675.605C-51.3704 668.977 -49.3355 677.129 -45.2105 674.525C-33.0069 671.179 -26.4112 679.356 -19.6209 685.958C-10.0418 695.639 0.216975 703.923 13.1701 707.846C15.4984 709.521 18.9916 709.978 18.0678 715.4C11.2993 715.8 4.60346 716.639 -2.5049 717.737Z" fill="#E48F2C"/>
<path d="M-43.5752 671.487C-45.1009 670.518 -46.4569 669.202 -49.0238 667.442C-42.4332 663.29 -36.9829 663.233 -32.938 664.303C-22.0145 667.071 -13.055 674.453 0.681202 670.865C3.29763 670.182 5.42783 673.423 4.60222 678.044C-1.59584 670.852 -9.18354 684.075 -16.1117 684.821C-29.1939 688.238 -35.924 679.211 -43.5752 671.487Z" fill="#FEA942"/>
<path d="M16.1775 676.096C16.0867 664.601 5.1485 671.243 0.699699 666.341C-3.82145 661.002 -10.8358 658.436 -16.6883 654.658C-5.82037 643.488 -2.89939 655.609 3.99509 656.084C6.26913 656.097 6.94092 666.986 11.9791 654.911C18.5615 650.769 21.5115 653.486 22.5967 660.023C22.762 667.862 35.753 668.111 25.561 681.985C22.3443 680.399 19.2247 678.029 16.1775 676.096Z" fill="#EF9832"/>
<path d="M-43.1434 671.021C-34.4369 676.703 -26.4118 683.791 -15.1503 684.202C-9.12079 697.18 3.47794 700.152 13.2056 707.865C6.7592 711.706 3.84149 706.495 0.0475378 704.273C-15.274 694.505 -30.182 684.476 -45.5036 674.708C-44.579 673.392 -43.6544 672.076 -43.1434 671.021Z" fill="#F39C36"/>
<path d="M28.6253 683.949C37.2655 672.621 41.3273 681.988 46.1206 683.335C54.1743 685.052 64.2236 685.016 66.4356 697.018C61.7152 696.111 56.9949 695.205 52.1042 694.651C45.0244 689.148 37.6769 684.79 28.6253 683.949Z" fill="#ED9834"/>
<path d="M22.2687 660.546C18.6409 659.219 16.4663 654.331 10.7071 657.954C-2.16295 659.795 -8.0108 647.833 -19.1134 646.637C-21.9888 640.264 -16.4467 635.333 -12.3557 629.872C2.42865 621.773 6.65372 637.644 18.023 637.71C21.6509 639.037 24.6978 640.97 24.09 646.887C22.8041 654.193 30.0619 652.755 30.9301 657.984C27.542 660.838 25.3426 657.168 22.2687 660.546Z" fill="#FDA841"/>
<path d="M23.8349 647.771C20.7937 645.842 17.9216 643.568 14.6389 641.551C15.9732 631.833 16.8916 630.536 22.372 632.131C28.0938 633.816 32.8722 638.012 37.7477 641.428C37.2872 644.117 46.5134 640.959 38.8301 647.947C36.6797 650.019 33.6608 650.956 31.1247 652.07C28.5662 650.318 26.0798 649 23.8349 647.771Z" fill="#DE8720"/>
<path d="M170.7 504.909C180.003 511.6 191.077 515.244 203.267 516.011C200.94 518.444 206.294 523.279 200.017 523.855C195.533 524.267 191.656 522.847 187.949 521.079C176.899 516.213 165.583 512.48 150.335 522.091C140.421 525.442 134.995 520.17 131.169 512.2C135.854 493.794 145.159 496.38 153.859 496.691C160.766 497.166 163.114 505.827 170.7 504.909Z" fill="#F18F19"/>
<path d="M148.995 582.839C148.073 588.232 146.256 593.708 142.503 598.475C137.253 601.057 134.133 598.688 130.844 596.666C118.635 581.967 98.4855 578.28 88.7944 559.589C95.5255 548.134 99.4409 555.297 103.795 556.89C110.253 558.843 113.998 566.353 122.757 563.008C130.524 560.528 134.9 564.994 139.277 569.46C143.508 573.055 149.241 574.742 148.995 582.839Z" fill="#F9A138"/>
<path d="M134.74 574.51C131.054 571.516 130.062 564.162 123.004 566.922C113.035 568.616 107.387 562.024 101.811 555.87C103.415 544.943 108.968 548.211 112.388 548.23C121.507 548.28 129.849 550.514 138.289 551.96C147.891 556.3 161.062 553.311 166.684 565.24C165.253 567.594 163.821 569.948 162.389 572.302C151.132 581.337 144.928 570.018 134.74 574.51Z" fill="#F79520"/>
<path d="M166.638 565.656C156.344 562.706 145.443 561.595 136.34 556.197C132.164 557.139 130.732 555.377 132.797 549.952C135.639 546.46 138.917 545.601 142.267 545.181C156.204 545.344 168.269 549.356 178.124 557.914C179.726 559.326 183.222 559.783 182.177 563.11C180.962 566.786 177.709 566.417 175.354 565.966C172.586 565.776 169.406 565.846 166.638 565.656Z" fill="#ED8B15"/>
<path d="M177.824 558.228C163.986 558.5 154.417 548.838 140.821 549.198C141.163 544.396 143.273 540.652 147.466 538.491C158.103 543.617 177.47 535.515 177.824 558.228Z" fill="#F79620"/>
<path d="M146.878 537.757C144.534 541.39 142.6 544.764 140.256 548.397C137.817 548.729 135.789 548.804 133.35 549.137C122.025 551.934 113.36 547.542 104.018 544.534C100.663 542.083 99.1929 538.688 102.891 532.285C110.357 523.995 116.777 527.159 123.611 525.984C129.354 530.533 132.415 539.407 142.703 535.822C143.185 535.999 144.079 535.917 144.562 536.094C145.358 536.793 146.323 537.146 146.878 537.757Z" fill="#F49B31"/>
<path d="M132.207 508.831C138.327 513.097 144.375 516.932 150.663 520.855C152.078 522.589 155.27 524.162 150.368 527.237C146.283 529.799 145.247 533.07 144.283 536.774C135.444 539.219 131.367 533.671 127.963 526.748C125.853 523.542 124.08 519.649 124.589 514.562C126.371 510.346 128.32 505.787 132.207 508.831Z" fill="#F99721"/>
<path d="M134.113 592.248C137.173 594.196 140.476 596.233 143.537 598.181C145.941 600.301 149.439 600.759 148.345 606.547C140.037 605.976 131.315 605.666 123.007 605.094C117.641 596.11 102.237 603.666 99.1554 590.568C107.224 578.671 112.98 584.496 118.737 586.195C123.595 587.977 128.088 591.689 134.113 592.248Z" fill="#EA8D1D"/>
<path d="M135.244 574.507C147.11 562.461 153.203 574.522 162.838 572.312C164.362 573.279 165.886 574.247 170.459 577.149C161.14 579.884 155.137 579.327 149.278 583.738C144.632 580.4 140.059 577.497 135.244 574.507Z" fill="#F08F19"/>
<path d="M99.3774 589.306C105.632 596.905 121.198 589.521 122.76 604.395C115.751 605.918 110.172 601.017 102.122 605.838C96.4189 607.021 91.998 604.996 88.0851 601.93C83.8311 603.644 81.5123 601.979 80.2096 598.233C80.1397 593.713 82.583 589.294 85.5816 585.487C87.3225 583.672 89.1357 582.291 90.8517 581.693C96.0472 581.55 99.0908 583.48 99.3774 589.306Z" fill="#EC8B18"/>
<path d="M61.8238 628.259C48.0696 628.191 37.0473 622.453 26.7081 615.299C7.27207 612.716 -10.2857 606.235 -26.6483 597.275C-29.0132 592.646 -38.5482 590.378 -24.9391 581.212C-9.186 587.861 7.17706 592.648 21.9057 601.423C33.3179 608.139 48.2914 608.658 54.874 623.608C58.4102 622.826 60.922 624.17 61.8238 628.259Z" fill="#EE972F"/>
<path d="M127.181 651.598C102.54 642.131 81.9636 625.46 59.0265 612.477C50.7079 607.765 43.825 600.68 33.5595 599.393C28.4268 598.75 33.3417 593.93 35.8478 591.124C37.5022 590.075 39.2296 589.468 40.8594 589.652C59.8579 591.25 69.1953 610.416 87.2692 613.33C94.1038 618.74 103.956 620.289 106.094 631.842C115.484 631.979 124.606 633.26 129.494 642.096C129.542 643.77 129.59 645.444 129.639 647.118C128.617 649.227 127.862 650.192 127.181 651.598Z" fill="#FDA842"/>
<path d="M105.394 632.759C97.5518 627.852 89.8788 622.598 82.0366 617.69C76.5357 613.231 76.9765 603.599 74.857 596.295C78.5768 592.759 80.8459 592.772 81.5673 597.117C83.8836 598.78 86.3691 600.096 88.4441 601.671C92.1283 615.668 105.333 616.007 114.332 623.786C111.264 627.152 108.534 629.827 105.394 632.759Z" fill="#F49A30"/>
<path d="M24.8494 585.541C13.0145 588.174 8.03486 577.342 -0.747742 573.719C3.73342 565.12 7.36065 570.542 10.8699 569.778C5.20993 564.431 -5.46477 569.946 -11.9478 565.116C-12.5765 564.067 -13.0356 562.671 -13.0832 561.015C-12.9612 559.012 -6.81322 556.346 -11.8942 554.488C-14.0717 553.691 -13.7554 550.121 -10.366 547.265C-3.80651 544.341 0.184638 547.849 4.44256 550.225C11.6039 553.665 17.1667 559.795 25.5874 561.238C30.0397 562.048 33.5718 564.159 36.9343 566.618C40.0301 570.208 46.4903 572.162 41.1861 581.279C35.3732 591.439 30.8774 580.784 24.8494 585.541Z" fill="#F69F38"/>
<path d="M25.3422 586.075C24.8865 584.689 21.0149 584.492 24.6246 581.75C27.4162 579.522 30.0356 581.698 32.5114 583.01C34.5064 584.145 38.4498 584.775 40.5705 579.864C42.5225 575.297 38.4105 575.012 36.5123 573.099C39.2358 566.378 41.7332 570.54 44.331 569.866C41.9987 569.419 40.0754 568.716 38.1522 568.013C34.3057 566.606 29.6409 565.713 32.1491 557.694C48.8198 552.01 55.4472 563.37 61.9058 575.074C61.2277 580.512 57.9265 587.835 65.598 587.797C68.2676 587.555 69.5629 591.278 68.9098 595.507C55.1707 603.887 47.8939 592.696 36.5661 593.835C35.6044 593.483 35.0518 592.875 34.2588 592.178C31.3991 589.914 28.3706 587.994 25.3422 586.075Z" fill="#F19A32"/>
<path d="M-16.8913 567.885C-15.4634 565.544 -14.0356 563.203 -12.6078 560.863C-5.91338 566.992 8.91428 556.464 12.2198 569.534C7.45281 576.379 3.70904 568.875 -0.93601 573.72C-6.08499 571.428 -12.759 572.259 -16.8913 567.885Z" fill="#F09A32"/>
<path d="M131.204 509.229C128.278 509.386 126.197 511.897 124.43 514.932C123.124 515.272 121.746 515.177 120.876 514.041C119.161 510.551 118.438 506.196 116.481 502.617C111.723 493.105 104.617 487.233 93.9778 487.432C92.769 486.99 91.7297 486.201 90.8598 485.065C90.0148 482.71 89.8227 480.186 90.9366 477.321C91.7839 475.585 93.1147 474.027 94.9289 472.645C103.225 467.908 110.164 470.037 117.466 470.253C126.775 471.613 136.664 472.367 142.245 481.362C149.134 485.927 156.265 490.58 163.154 495.145C162.279 502.188 167.478 502.044 170.427 504.759C162.083 507.843 157.008 501.896 150.287 501.074C143.009 499.639 137.302 500.824 131.204 509.229Z" fill="#F7951F"/>
<path d="M73.587 412.184C78.1136 414.677 75.1923 417.75 71.614 420.996C67.5489 424.063 64.1172 424.045 60.1987 423.848C51.7783 419.923 40.6547 424.541 30.9437 423.873C28.8263 423.509 26.9523 423.235 25.0054 422.519C23.0584 421.803 21.3548 421.177 19.4079 420.461C11.8143 420.157 4.29361 420.294 0.863379 411.983C-1.2287 406.238 -7.82496 409.203 -12.376 407.945C-17.9735 405.886 -23.0598 402.772 -27.9756 399.306C-35.5438 393.62 -44.2076 389.605 -51.1916 383.305C-54.3793 379.23 -57.7374 375.508 -50.5561 367.781C-47.8053 365.06 -45.2495 363.927 -42.8158 364.822C-41.9399 365.973 -40.8205 367.214 -40.3583 368.628C-36.9764 375.262 -31.4035 378.555 -24.808 379.737C-12.1766 381.478 -1.83373 387.355 8.33867 393.583C18.2677 399.722 29.4872 402.603 42.5815 401.612C53.3144 404.315 67.5534 399.183 73.587 412.184Z" fill="#FC9A24"/>
<path d="M87.25 455.756C88.7778 456.727 90.3056 457.698 92.0759 458.758C91.9786 459.545 91.7114 460.681 91.8567 461.556C90.5699 464.787 88.6529 466.964 85.8631 467.999C76.7659 470.836 70.5819 466.514 63.7184 463.589C57.1699 461.19 50.2817 459.489 42.3493 461.108C34.1757 458.525 26.5845 455.333 22.4397 446.822C21.8355 440.43 26.008 439.491 29.2829 438.634C34.3529 437.612 38.6459 438.773 43.6186 438.538C46.7962 438.468 49.9738 438.398 52.9815 438.677C65.5947 439.185 75.392 446.064 85.7962 451.11C86.839 451.903 87.1295 453.655 87.25 455.756Z" fill="#FC9923"/>
<path d="M109.166 383.28C113.448 384.437 119.063 379.941 122.836 382.14C126.966 394.705 138.482 395.642 148.569 398.923C146.993 404.487 151.784 404.602 152.966 410.357C145.782 408.138 141.188 402.364 132.112 409.278C126.255 413.686 125.097 406.712 123.237 402.347C121.862 394.066 109.906 402.792 109.209 393.122C109.356 389.9 109.261 386.59 109.166 383.28Z" fill="#F3911B"/>
<path d="M133.585 456.682C138.084 459.147 142.656 462.048 147.324 464.166C150.469 465.316 149.113 468.096 147.587 471.223C146.111 471.911 144.634 472.6 143.158 473.288C131.203 477.923 123.9 469.518 113.664 469.459C106.746 466.109 93.9181 473.701 92.1584 460.363C103.123 452.5 111.808 456.905 122.092 454.525C126.763 452.549 132.354 449.271 133.585 456.682Z" fill="#FA9721"/>
<path d="M73.3718 413.341C63.3562 409.261 51.884 408.76 40.9216 407.212C37.6469 408.068 34.9793 407.091 34.641 403.677C34.1574 399.388 37.6993 397.395 40.5136 395.136C49.4648 391.423 56.0605 395.484 63.7004 396.227C71.7033 399.158 81.9876 397.99 87.1021 406.855C88.6297 407.826 90.1574 408.797 91.6851 409.767C83.5805 419.959 79.9952 407.953 73.3718 413.341Z" fill="#EA8811"/>
<path d="M86.6153 407.756C77.2573 407.616 69.3553 403.9 61.1862 401.32C59.5635 397.027 53.1869 398.39 53.4804 391.923C61.3393 381.652 66.5733 388.5 73.095 388.012C78.9621 387.695 83.4458 391.391 88.706 392.907C92.4146 394.676 97.7243 393.744 98.328 400.129C95.8513 409.905 89.8901 402.791 86.6153 407.756Z" fill="#F99620"/>
<path d="M133.28 457.446C129.46 456.457 125.471 455.819 121.652 454.83C122.626 451.047 120.777 449.539 119.05 446.006C137.855 449.188 157.146 448.408 170.451 461.165C168.042 463.179 166.047 464.93 163.638 466.944C156.22 458.007 145.224 456.451 133.28 457.446Z" fill="#F18E18"/>
<path d="M62.7073 420.692C65.7182 420.971 68.9719 421.34 71.9827 421.619C83.6848 427.558 100.222 424.14 108.522 437.077C104.442 441.352 102.307 433.974 97.6435 438.86C87.2257 442.048 80.356 434.995 70.303 436.256C65.9327 434.654 60.542 435.151 57.6051 431.188C54.5227 426.348 56.3935 422.499 62.7073 420.692Z" fill="#F08E17"/>
<path d="M72.6525 432.236C83.1209 429.968 91.0585 432.87 97.8868 438.618C98.8956 440.613 106.427 439.709 97.808 446.311C93.956 448.967 90.56 453.009 86.8516 456.53C86.0582 455.833 85.5053 455.225 84.5432 454.873C84.3096 446.659 76.6809 448.34 73.6293 443.567C71.7552 440.443 68.0754 438.691 72.6525 432.236Z" fill="#FC9923"/>
<path d="M98.0297 400.755C94.2213 399.771 90.243 399.137 86.4346 398.153C84.5463 386.764 91.2408 390.04 95.5836 388.751C99.0028 392.883 105.408 390.293 109.677 392.68C112.489 398.647 124.306 390.222 123.744 401.947C114.865 401.986 108.487 395.124 98.0297 400.755Z" fill="#EF8D16"/>
<path d="M175.609 430.952C175.657 432.623 175.706 434.293 175.584 436.315C162.094 437.561 155.801 425.748 145.788 420.42C158.477 418.466 166.666 425.191 175.609 430.952Z" fill="#F08D17"/>
<path d="M115.671 464.651C125.848 465.496 135.345 467.741 143.482 472.788C145.084 474.201 146.687 475.614 148.29 477.028C146.055 478.683 143.747 479.9 141.512 481.556C130.823 481.761 123.368 475.313 113.701 473.418C108.77 471.197 111.686 468.141 115.671 464.651Z" fill="#EC8A13"/>
<path d="M-39.6119 228.523C-38.1243 227.82 -36.6366 227.117 -35.149 226.414C-34.4429 236.273 -26.1514 235.16 -21.3234 239.445C-9.88724 249.091 7.76889 246.427 18.6928 257.135C17.814 264.322 22.4231 263.102 26.1786 263.654C34.4211 265.026 43.0782 266.135 46.9058 275.476C36.1987 286.965 29.8835 279.21 23.641 276.071C10.1804 269.434 -4.84151 267.228 -19.0827 262.807C-27.862 263.74 -34.4946 259.623 -41.6395 256.569C-60.6346 239.96 -87.8255 240.358 -110.162 231.279C-116.259 229.029 -123.453 228.461 -125.915 220.458C-123.402 209.283 -118.159 213.305 -114.891 213.676C-104.771 215.325 -94.1387 215.91 -85.5553 220.747C-81.9951 222.896 -79.922 221.574 -78.507 216.254C-62.1432 212.696 -51.9508 223.134 -39.6119 228.523Z" fill="#F89621"/>
<path d="M-38.2623 252.797C-29.1641 248.222 -26.2874 260.141 -17.2869 256.366C-7.28778 264.233 6.54145 264.746 17.9068 269.777C21.6383 271.572 28.4433 271.162 27.4668 279.152C26.1972 289.54 17.661 286.388 13.6114 292.409C8.02542 297.445 3.63627 287.474 -2.53569 297.304C-10.8045 301.349 -13.267 293.342 -18.8034 291.715C-28.4836 267.681 -48.7277 268.558 -72.5827 278.123C-79.4853 279.332 -84.2655 276.732 -86.9233 270.323C-82.4827 256.931 -78.386 265.124 -73.0689 265.417C-88.1898 255.659 -108.068 258.758 -121.458 248.387C-128.115 237.16 -140.067 241.098 -152.091 244.592C-159.092 246.601 -166.36 249.763 -169.14 241.221C-171.579 240.32 -162.139 235.037 -169.407 234.024C-185.09 231.991 -199.895 226.943 -210.21 214.366C-210.6 209.211 -214.453 205.283 -209.964 197.754C-195.549 193.473 -190.551 209.933 -177.258 208.577C-144.771 213.891 -115.894 227.893 -85.0412 237.196C-69.1636 241.805 -51.139 241.362 -38.2623 252.797Z" fill="#F89620"/>
<path d="M13.4086 293.566C11.8823 292.596 10.5258 291.279 7.64305 288.992C14.4537 286.148 20.3165 289.936 26.0394 280.536C16.5916 272.972 4.49991 271.419 -6.50057 268.213C-11.7585 266.698 -15.3682 264.145 -17.4499 258.456C-3.66218 260.63 10.1981 263.241 22.3606 269.336C29.8469 273.308 38.0123 275.887 47.536 275.678C50.5408 275.957 53.7879 276.325 56.7926 276.604C50.4154 286.175 43.3394 286.048 36.4085 286.795C33.0641 287.213 28.6782 286.839 29.6687 294.181C23.1729 297.551 17.9875 296.474 13.4086 293.566Z" fill="#EE8D18"/>
<path d="M8.83712 318.196C13.4879 317.437 17.3874 317.634 20.4136 320.793C23.4646 322.73 26.5155 324.667 29.8811 327.129C21.6419 336.419 18.3772 324.969 11.5203 330.253C7.66852 331.715 4.25346 331.696 1.27495 330.195C-3.05935 327.378 -7.80558 324.821 -6.32417 315.929C1.16197 311.695 2.61136 320.43 8.83712 318.196Z" fill="#FEA52E"/>
<path d="M8.38863 317.477C2.32395 322.307 0.352631 314.52 -5.07838 316.259C-3.30143 321.483 1.10639 321.859 4.07703 324.614C-7.93089 336.395 -12.9214 324.173 -21.4206 323.953C-27.46 323.392 -31.7696 318.067 -38.9298 320.417C-41.4625 320.315 -44.0683 319.772 -46.2599 318.965C-54.8314 314.149 -62.8183 308.717 -71.0488 303.195C-81.9825 297.925 -89.7007 287.191 -102.754 285.71C-111.399 284.605 -120.726 284.911 -122.697 272.97C-116.777 258.948 -111.25 264.721 -105.722 266.34C-86.2889 271.83 -69.1704 282.7 -48.5438 285.723C-40.9948 288.501 -32.7637 289.869 -26.2379 294.763C-21.9766 298.408 -15.6206 299.502 -14.7939 307.283C-5.97818 308.035 1.54628 312.051 8.38863 317.477Z" fill="#FCA12B"/>
<path d="M-51.8574 592.789C-41.3026 587.564 -39.1661 603.241 -28.6112 598.016C-13.3645 599.065 -1.01298 606.083 8.80876 617.137C16.0778 625.184 24.1984 631.476 34.7515 634.524C36.2832 635.5 37.6447 636.828 39.1765 637.804C38.4224 638.768 37.7412 640.173 36.9872 641.137C28.7427 645.142 26.2884 637.208 20.7688 635.595C17.1215 634.255 14.0334 633.535 13.9587 641.368C7.44091 644.766 5.25345 639.825 1.80104 636.903C-2.38083 633.712 -6.87871 629.992 -13.7125 632.86C-31.9508 634.436 -42.2824 620.3 -57.5528 616.346C-61.6618 613.596 -65.698 611.287 -68.8826 607.221C-70.7058 604.483 -71.7022 601.221 -70.3881 596.74C-60.9989 584.467 -58.7886 596.449 -53.0012 596.919C-52.1015 596.836 -51.9075 599.39 -50.6426 597.372C-50.5451 596.58 -51.8091 594.461 -51.8574 592.789Z" fill="#E69029"/>
<path d="M34.417 634.65C27.9737 638.486 25.0576 633.281 21.2656 631.062C4.42055 620.33 -12.2542 609.248 -28.8561 598.605C-31.0193 596.571 -34.52 596.112 -35.4186 592.062C-30.8718 589.183 -28.8798 595.702 -24.1382 591.242C-8.77627 602.669 12.958 601.553 27.2256 614.646C22.8736 615.942 18.3513 617.589 11.6167 619.665C20.3187 625.34 27.4894 630.039 34.417 634.65Z" fill="#FBA43D"/>
<path d="M-41.7529 314.37C-40.2292 315.337 -38.4637 316.392 -36.9401 317.359C-22.5177 311.172 -19.0424 328 -7.09065 327.46C-3.26799 327.22 0.43269 328.984 3.64959 330.57C5.94647 333.457 7.00912 337.121 3.74049 342.066C1.05281 346.405 -2.04419 346.909 -4.51061 344.37C-12.2056 347.286 -17.8847 334.974 -27.2791 349.55C-38.894 353.489 -40.6533 340.155 -48.7327 338.018C-50.399 332.086 -55.0673 329.969 -59.3964 327.157C-63.9675 324.257 -64.0377 319.728 -56.7045 314.632C-50.6304 311.532 -46.9794 315.733 -41.7529 314.37Z" fill="#F49C34"/>
<path d="M-3.89855 345.038C3.04637 344.286 5.64561 340.705 2.928 333.936C6.81516 327.116 8.56279 329.406 9.87291 333.185C25.6768 345.988 46.6558 348.733 64.7916 359.093C57.8935 365.633 53.183 364.731 49.371 363.745C32.0833 359.88 18.5618 347.089 -1.64193 350.4C-3.85174 350.827 -4.36071 347.754 -3.89855 345.038Z" fill="#ED8A13"/>
<path d="M95.2739 387.956C91.805 390.386 86.9306 389.835 86.1275 397.353C75.7732 393.971 65.9286 389.543 53.6808 391.225C40.704 396.751 32.291 389.969 22.834 386.505C19.6817 385.35 16.4088 382.096 20.9465 375.123C39.3523 378.986 57.3457 383.11 78.1794 379.639C85.5281 378.63 91.323 381.986 95.2739 387.956Z" fill="#F3911B"/>
<path d="M-13.9554 361.456C-5.06402 361.857 3.48954 362.949 12.4779 362.571C17.1771 362.254 19.3921 364.692 20.7625 368.857C19.4329 374.477 17.1396 379.745 12.8473 383.876C-3.75922 388.796 -15.6823 382.402 -27.3394 374.883C-26.3195 364.671 -20.6068 362.282 -13.9554 361.456Z" fill="#FBA33B"/>
<path d="M12.0525 383.947C14.9101 379.26 17.9372 374.225 21.0367 369.626C21.0843 371.281 21.1318 372.937 21.1794 374.592C23.3257 388.891 37.8472 381.918 44.7162 387.707C47.1106 389.812 50.5224 389.832 53.8369 390.635C56.7876 393.352 61.9899 393.208 61.1152 400.259C54.3166 399 47.3484 398.089 40.3078 396.741C28.0152 397.977 15.7226 399.213 12.0525 383.947Z" fill="#FB9923"/>
<path d="M9.23115 332.993C7.21046 331.834 5.26274 331.118 2.26749 333.752C-14.192 335.169 -22.8088 320.374 -37.3928 317.914C-31.0852 309.026 -27.9208 314.341 -24.3664 316.48C-15.7967 321.293 -6.54501 324.697 4.24113 324.929C6.57826 326.62 9.08596 327.957 11.1796 329.558C10.6681 330.615 9.9861 332.025 9.23115 332.993Z" fill="#FC9A23"/>
<path d="M-19.5782 642.975C-7.35486 643.743 1.29433 651.873 10.7217 657.811C12.9568 660.283 14.3655 663.278 8.38709 664.388C3.30789 665.415 0.951852 660.834 -2.76578 659.057C-7.21238 657.012 -9.85961 650.671 -16.9566 654.675C-27.1867 652.16 -36.8089 647.804 -44.9239 641.522C-43.6833 636.608 -40.3778 634.517 -36.9995 632.865C-34.4476 631.737 -31.9931 631.398 -29.879 631.761C-24.4358 632.932 -20.1595 635.328 -19.5782 642.975Z" fill="#EB952E"/>
<path d="M101.675 552.354C108.596 556.955 115.76 561.645 122.682 566.246C116.558 574.726 113.645 569.533 109.516 568.018C101.987 565.257 98.2739 555.231 87.6827 558.773C86.8567 559.295 86.2008 559.467 85.3748 559.989C69.248 554.899 51.2745 552.433 42.9969 534.133C49.7514 526.709 56.8193 528.064 63.7428 524.415C72.3899 524.286 76.3228 531.504 81.1063 536.971C84.8702 540.414 89.1445 542.807 94.5123 543.538C98.5683 544.613 101.628 546.561 101.675 552.354Z" fill="#FEA941"/>
<path d="M98.7591 589.886C95.7086 587.949 92.416 585.924 89.3655 583.988C89.7562 576.749 86.0041 573.326 83.4149 568.687C80.5112 563.524 83.1041 559.962 88.9896 558.425C104.557 568.633 121.045 577.538 133.34 592.7C119.655 597.944 112.614 584.294 98.7591 589.886Z" fill="#F19A33"/>
<path d="M101.632 552.944C98.5703 550.994 95.2658 548.955 92.2043 547.006C88.5348 546.898 83.553 547.135 86.714 540.035C89.0967 535.127 93.1794 534.973 96.7515 535.871C100.324 536.768 100.857 542.746 105.791 540.84C115.973 541.685 125.474 543.932 133.614 548.984C132.641 552.758 134.074 554.523 136.091 555.676C123.648 557.718 114.245 550.551 101.632 552.944Z" fill="#EF8E1A"/>
<path d="M105.354 540.27C99.437 544.227 97.3645 538.573 93.2367 538.288C91.3781 538.016 88.6984 538.26 87.8274 541.206C86.8594 544.933 90.2632 544.953 91.6863 546.698C84.6348 550.648 82.4181 544.125 77.8326 542.449C77.4077 527.603 63.3322 530.21 58.5827 520.721C63.3205 511.027 67.6869 515.48 71.6455 516.112C80.456 517.293 88.1542 521.331 97.5693 520.693C101.6 521.759 104.882 523.775 105.168 529.592C102.147 534.608 102.314 538.342 105.354 540.27Z" fill="#F89928"/>
<path d="M104.914 530.79C101.853 528.841 98.5482 526.802 95.6569 524.502C86.0345 520.145 71.1853 524.196 68.1514 508.627C69.3428 506.173 70.4367 504.509 72.6729 502.852C81.7867 500.001 86.2077 507.405 92.9388 509.462C102.756 512.238 112.16 515.276 121.126 519.805C122.802 521.659 124.066 523.775 123.919 527.025C115.849 534.802 110.99 528.889 104.914 530.79Z" fill="#EF972E"/>
<path d="M123.464 527.975C121.945 527.013 120.427 526.05 118.667 524.999C123.883 515.497 125.974 524.004 130.219 522.296C134.314 527.868 138.241 533.785 144.339 536.422C130.083 544.656 127.19 543.598 123.464 527.975Z" fill="#FBA33A"/>
<path d="M129.549 522.188C125.225 526.376 122.482 520.834 117.916 524.933C108.251 523.038 100.797 516.593 90.1122 516.799C86.084 506.25 73.577 507.849 68.2128 498.872C68.5049 496.505 69.3553 494.755 71.1044 492.922C74.1648 490.745 76.715 489.619 79.2406 489.72C94.6109 495.769 111.682 498.318 122.655 512.238C123.456 512.944 124.184 513.211 124.985 513.917C126.563 516.558 127.971 519.548 129.549 522.188Z" fill="#FEAA41"/>
<path d="M88.5408 557.477C77.9525 568.672 88.7506 566.919 91.0629 568.579C96.2414 572.508 98.1908 576.071 89.1481 582.944C88.2314 584.237 87.7245 585.274 86.8077 586.567C74.198 593.765 65.2335 592.93 61.5318 580.176C52.4765 571.98 46.6064 558.433 31.3496 560.591C29.5661 560.754 28.5304 559.968 28.8213 557.631C39.3408 541.933 43.5712 556.509 51.3811 554.478C59.6228 555.048 65.5961 559.675 71.2315 564.993C73.0869 565.264 73.8378 560.245 72.7271 563.097C72.2202 564.133 71.8103 564.39 71.0875 564.126C62.489 557.318 52.4669 552.839 44.4473 545.429C41.0273 542.55 36.0396 541.133 37.2504 533.433C40.8925 529.471 43.2298 529.918 44.1185 533.908C59.0062 541.794 73.6531 549.592 88.5408 557.477Z" fill="#F69F38"/>
<path d="M62.1519 579.723C68.3317 586.884 77.9948 586.333 87.4886 586.129C85.1431 589.764 83.0392 593.488 80.6938 597.123C78.6895 595.982 76.7574 595.275 73.9538 597.518C71.1752 598.544 69.4845 597.926 69.3898 594.623C64.5122 591.206 59.804 587.442 52.7253 588.53C55.6036 582.639 59.7342 582.924 62.1519 579.723Z" fill="#E28A22"/>
<path d="M69.8499 594.065C71.3767 595.035 72.9035 596.005 74.4303 596.975C82.6957 598.769 79.3702 610.286 81.8402 616.941C73.7909 620.567 69.527 614.076 66.1832 610.387C58.1387 601.69 46.795 599.18 37.3919 593.272C49.7808 588.36 57.461 598.977 69.8499 594.065Z" fill="#FCA53D"/>
<path d="M0.192958 554.51C-4.43048 552.81 -6.83858 546.536 -13.9453 550.556C-27.1117 555.25 -31.6599 541.556 -42.6838 541.235C-50.3977 538.813 -58.0141 535.599 -66.9209 535.641C-75.024 532.247 -84.1496 530.965 -92.7639 528.628C-95.4161 526.409 -96.9974 523.755 -94.6846 518.387C-91.8121 513.64 -88.5021 511.54 -84.5595 510.502C-60.6624 512.655 -38.567 519.12 -18.4436 530.248C-10.3651 534.876 1.92465 533.176 4.93989 545.892C5.10954 549.685 3.50298 552.41 0.192958 554.51Z" fill="#E68E26"/>
<path d="M0.741309 555.126C2.16192 552.803 3.5825 550.479 5.0031 548.156C15.349 539.757 20.0553 546.351 25.124 551.047C27.7893 554.865 25.2602 560.031 23.861 565.204C12.8229 568.071 8.67271 558.026 0.741309 555.126Z" fill="#EE9730"/>
<path d="M24.3074 565.479C19.8062 563.013 22.7125 559.979 26.2724 556.774C27.7493 556.085 28.7173 556.439 28.765 558.096C29.733 558.45 30.2895 559.063 31.088 559.765C36.4601 563.37 42.0742 567.063 48.1724 570.934C42.5543 575.434 40.5001 568.536 36.0197 573.043C32.1722 570.406 28.3246 567.769 24.3074 565.479Z" fill="#E79029"/>
<path d="M22.6796 442.572C30.6016 447.577 38.353 452.936 46.275 457.942C63.6803 459.359 79.3056 463.871 90.8344 476.874C90.883 478.559 90.9315 480.244 90.8094 482.283C84.7382 491.297 80.9116 486.135 76.0118 485.578C62.3121 483.027 49.4657 478.706 38.4969 470.494C28.5032 462.641 16.9002 457.528 4.17544 455.336C0.177625 454.696 -3.5764 454.145 -7.40352 453.15C-20.2984 447.145 -35.6805 446.89 -48.9168 441.592C-51.6712 440.16 -53.8406 438.11 -54.4982 434.116C-44.5983 413.595 -35.1167 422.509 -25.3657 421.937C-23.2449 422.303 -20.8803 422.758 -18.9302 423.477C-14.055 425.275 -8.74072 425.567 -4.20684 428.073C4.27577 433.702 16.489 432.788 22.6796 442.572Z" fill="#FDA942"/>
<path d="M79.9096 480.251C83.5518 481.586 85.7359 486.511 91.5164 482.858C92.0748 483.475 93.046 483.831 93.6043 484.448C102.977 488.709 110.915 495.331 119.437 501.342C122.982 503.467 123.636 507.417 122.056 513.023C105.691 507.847 89.6652 501.97 75.3407 492.594C73.885 487.938 74.1291 483.904 79.9096 480.251Z" fill="#ED952D"/>
<path d="M90.449 477.805C75.6858 471.535 60.9226 465.265 45.9157 458.905C50.3021 452.202 53.201 454.517 56.8553 455.863C66.8438 459.543 77.4169 462.605 87.5759 465.931C90.743 467.098 92.7405 469.497 92.3987 474.363C91.8869 475.422 91.375 476.482 90.449 477.805Z" fill="#F6941D"/>
<path d="M92.8027 474.601C90.2524 472.855 86.9552 472.056 88.0432 466.355C89.4654 464.028 90.8876 461.702 92.4786 459.03C97.6476 467.02 109.716 458.013 115.488 464.19C113.728 467.206 112.378 469.966 113.531 472.827C106.405 473.475 99.5193 474.21 92.8027 474.601Z" fill="#EE8B15"/>
<path d="M119.404 501.242C107.204 501.695 98.5401 496.067 93.6557 484.445C108.545 479.648 115.441 488.318 119.404 501.242Z" fill="#FAA239"/>
<path d="M12.1219 382.904C19.6486 391.083 32.3659 389.113 40.4044 396.232C31.9984 403.533 37.8695 404.448 40.5247 406.673C17.8183 413.283 5.37153 397.47 -10.9257 390.22C-17.5761 387.355 -25.3722 388.642 -31.0237 384.897C-36.5045 380.799 -45.0068 380.579 -45.7849 370.311C-40.3525 372.728 -36.3339 380.446 -27.1726 372.176C-13.9932 375.782 -1.05744 379.298 12.1219 382.904Z" fill="#F5941E"/>
<path d="M-7.21925 404.516C-3.24477 403.935 3.93822 396.796 4.51029 404.329C5.19792 418.006 14.8105 414.604 22.9033 414.308C19.3757 428.479 12.1959 431.55 2.82727 430.973C-5.16857 430.491 -8.07651 422.511 -14.2398 419.444C-17.6108 418.212 -20.1624 416.465 -21.1223 412.046C-17.332 400.819 -11.8943 407.689 -7.21925 404.516Z" fill="#FAA138"/>
<path d="M72.1283 431.817C70.7949 437.469 74.5197 438.013 76.9133 440.116C69.724 450.173 67.1404 441.452 62.3511 441.337C56.9086 441.393 51.9023 439.971 46.557 439.243C42.4728 432.429 34.6368 430.381 32.8759 421.142C43.3991 418.853 54.4556 414.303 62.7732 420.619C58.8768 424.514 55.6335 428.239 61.8739 428.885C65.5263 428.993 69.4205 429.19 72.1283 431.817Z" fill="#F5921C"/>
<path d="M-11.2374 416.702C-8.03603 414.216 -6.85885 415.866 -5.5381 418.38C1.61839 431.56 9.5572 430.401 22.8973 414.152C24.4118 415.112 25.9264 416.072 27.6814 417.12C26.9565 420.918 22.6964 423.829 22.5241 428.235C17.2735 436.066 12.1987 435.429 6.71479 435.049C1.4713 434.757 -2.49453 431.275 -8.67832 433.483C-12.235 429.745 -18.4188 431.953 -22.4816 429.249C-20.0949 423.215 -14.489 421.608 -11.2374 416.702Z" fill="#F59B30"/>
<path d="M23.8137 424.746C22.44 420.57 26.6658 420.075 28.2611 417.393C29.7817 418.357 31.3022 419.321 32.8228 420.285C37.6731 424.916 46.946 423.408 46.9632 434.435C46.5749 437.558 49.9794 437.579 49.4219 441.048C46.6196 443.289 44.5191 442.929 42.6849 441.442C36.8939 435.243 22.2579 441.321 23.8137 424.746Z" fill="#EE8C15"/>
<path d="M23.9049 424.187C26.7841 434.682 41.883 428.305 42.9195 441.41C35.1879 445.559 29.9567 438.718 22.0553 443.214C10.4967 443.498 1.92139 437.075 -8.18181 433.787C-2.87301 428.752 0.591462 430.43 4.87997 431.59C10.7919 432.933 17.3582 434.105 23.9049 424.187Z" fill="#F6951F"/>
<path d="M49.8531 441.923C48.0062 440.418 46.4023 439.003 47.3755 435.228C57.4622 436.864 67.4761 438.06 77.5628 439.696C80.5757 444.108 90.9064 441.702 84.8509 454.768C71.5801 453.203 62.2974 444.011 49.8531 441.923Z" fill="#EB8811"/>
<path d="M42.9374 534.131C40.9266 532.984 38.9885 532.275 36.1767 534.529C21.8065 537.068 13.7175 526.718 2.74262 522.29C-0.164693 521.226 -2.70775 518.242 -0.233823 512.58C2.33736 506.132 6.91752 504.935 10.8187 505.132C20.4867 505.798 28.4324 511.169 38.1004 511.835C39.7238 512.019 41.1773 512.551 42.631 513.083C48.9779 517.049 56.7555 518.664 60.9203 525.936C55.4154 536.646 49.1179 530.236 42.9374 534.131Z" fill="#FEAC46"/>
<path d="M61.1586 526.26C53.2888 525.43 46.4371 522.513 40.1915 517.767C47.6303 507.778 52.5204 511.208 57.4105 514.637C58.1121 516.124 58.8137 517.611 58.6917 519.617C64.3081 523.312 69.9245 527.008 75.7831 530.792C79.3177 532.905 81.3748 535.708 77.6669 542.142C73.505 534.878 68.0829 529.614 61.1586 526.26Z" fill="#F79F37"/>
<path d="M58.4187 520.194C57.4492 519.839 56.8918 519.224 56.3345 518.609C56.8735 504.017 63.3452 505.976 69.9141 507.149C75.3159 517.754 89.0375 515.384 95.7005 523.986C83.3591 530.559 76.9631 520.822 67.0487 520.068C64.1154 520.226 62.2984 517.507 58.4187 520.194Z" fill="#EA8A17"/>
<path d="M69.2586 507.037C64.324 510.141 58.1829 508.713 55.7111 518.444C51.3119 515.199 46.3073 513.778 39.486 517.828C38.519 517.474 37.9631 516.862 36.9961 516.508C30.2991 514.468 23.0936 513.468 18.4053 508.481C14.9008 505.154 10.8405 501.214 15.4882 492.279C24.7044 486.241 30.3599 491.582 37.1541 492.84C44.19 494.186 50.7175 496.574 58.5284 495.749C63.5331 497.171 68.8768 497.898 71.195 503.655C70.8561 504.349 69.9365 505.649 69.2586 507.037Z" fill="#ED962F"/>
<path d="M71.3822 504.143C67.1087 501.752 60.8669 503.999 57.4439 499.857C62.2546 491.725 65.8242 492.621 69.0771 497.113C75.5359 500.306 80.2211 506.56 87.9433 507.742C91.683 508.289 90.9534 512.145 90.2237 516.001C84.1051 512.108 77.7436 508.126 71.3822 504.143Z" fill="#FAA33B"/>
<path d="M68.3655 496.716C64.6109 497.393 61.2205 496.152 56.7624 499.443C40.2416 504.061 29.6374 493.617 15.1053 492.4C3.6031 486.14 -13.9625 498.169 -24.7611 489.295C-25.9702 484.75 -24.3934 479.175 -23.4706 473.77C-19.1327 468.384 -19.4667 456.777 -9.97245 457.79C-6.87194 457.284 -3.94115 457.127 -1.34973 457.665C5.35859 459.71 11.5578 462.799 18.8725 463.015C38.6828 468.625 56.4815 477.19 69.8928 493.584C70.2074 494.109 69.2864 495.413 68.3655 496.716Z" fill="#FEAA42"/>
<path d="M70.3712 494.084C56.7494 484.937 39.4772 482.732 28.3134 469.104C26.319 466.715 20.7232 468.8 16.6361 468.955C15.9326 459.171 3.86538 462.192 4.74341 450.918C16.6885 449.923 26.1511 454.642 34.8593 460.327C48.2378 469.384 61.1052 479.497 79.1564 479.503C77.7689 483.549 76.211 487.946 74.8235 491.992C73.3394 492.69 71.8553 493.387 70.3712 494.084Z" fill="#EE9731"/>
<path d="M-22.903 485.55C-15.5994 486.991 -8.87841 489.043 0.708872 482.264C10.1262 475.835 9.41756 490.807 16.3332 491.283C17.323 506.877 29.6738 508.521 37.4366 515.482C29.0159 516.925 21.8822 515.134 15.7685 511.247C11.7411 508.948 7.61641 507.437 -0.320454 513.173C10.1346 524.002 25.7616 524.789 35.5861 534.564C49.8999 543.926 63.6312 553.897 76.4879 566.841C62.1686 573.944 60.6457 556.508 49.9192 559.164C43.5615 559.304 40.0687 554.731 35.8233 551.117C40.1701 541.595 42.0851 547.648 45.1666 548.366C24.6403 540.021 6.29918 528.36 -15.4169 522.461C-28.131 518.625 -39.0727 511.734 -51.4468 507.2C-57.9252 505.238 -64.4036 503.275 -70.3721 500.265C-72.5311 498.239 -74.7627 495.775 -72.723 491.582C-69.7607 486.081 -65.0041 484.531 -61.0973 484.727C-50.9301 485.571 -41.6129 488.162 -31.713 490.143C-31.2758 488.657 -28.8755 494.888 -29.8926 488.752C-29.8679 487.526 -30.2559 486.561 -30.2312 485.335C-26.1531 481.066 -23.8722 481.078 -22.903 485.55Z" fill="#F79F37"/>
<path d="M37.2152 548.947C42.0558 551.968 46.4826 555.251 51.3232 558.272C45.1189 562.205 42.444 557.08 38.8926 554.947C35.5845 552.903 32.0814 552.444 28.4554 558.153C27.4824 557.795 26.923 557.175 25.9499 556.818C19.4066 553.171 14.3965 546.36 4.88406 548.249C-2.4128 541.426 -12.2651 539.876 -20.8519 536.307C-21.1189 533.31 -24.427 531.266 -22.5776 528.632C-17.7837 521.696 -12.6024 524.014 -7.68808 523.335C8.26938 530.027 27.9503 530.218 37.2152 548.947Z" fill="#FDA841"/>
<path d="M-41.8661 445.13C-44.435 443.368 -47.7557 442.563 -46.6625 436.8C-32.4826 439.939 -16.6044 439.591 -4.82672 448.834C-8.73276 456.853 -11.0577 451.071 -14.0635 450.792C-15.8574 450.957 -14.3074 454.811 -14.5004 452.275C-9.87045 452.738 -5.3131 452.764 -4.70959 459.147C-7.52248 461.404 -9.70394 460.605 -11.7155 459.458C-23.3266 458.082 -38.382 462.018 -41.8661 445.13Z" fill="#E9922B"/>
<path d="M-4.45585 460.058C-8.5518 457.325 -12.4053 454.682 -16.986 451.772C-11.3601 447.258 -9.30208 454.175 -4.64567 449.306C-0.183799 446.01 1.87575 448.818 4.61461 450.232C8.39405 456.546 21.4138 452.685 16.4624 468.128C8.4141 467.646 1.55451 464.723 -4.45585 460.058Z" fill="#E38B23"/>
<path d="M21.1195 477.182C28.1798 479.78 35.1671 481.936 42.0569 484.886C44.9784 485.961 47.4614 488.535 49.5305 491.372C40.4987 485.143 23.7947 494.772 21.1195 477.182Z" fill="#FEB24A"/>
<path d="M-12.1799 527.459C-15.2511 525.493 -18.3955 523.083 -21.4667 521.117C-18.6136 513.418 -15.3722 519.197 -12.3004 516.996C10.0036 523.137 30.6009 532.816 48.5647 547.358C43.8837 552.3 41.4958 544.751 37.2292 549.429C22.3851 538.538 5.83414 531.184 -12.1799 527.459Z" fill="#E68F27"/>
</g>
</svg>
