<svg width="185" height="351" viewBox="0 0 185 351" fill="none" xmlns="http://www.w3.org/2000/svg">
<g opacity="0.6">
<path d="M54.6354 81.5061C61.756 68.4724 76.4708 63.9025 76.4708 63.9025C79.7646 62.3437 83.0744 65.2411 80.774 68.302C80.774 68.302 79.8522 68.6065 78.2751 69.2747L78.2419 69.3016C73.7051 71.2317 64.2484 76.2511 58.922 85.9191C56.9263 87.528 53.0285 84.0902 54.6354 81.5061Z" fill="#707070"/>
<path d="M50.3382 77.1125C57.4886 64.1101 72.173 59.5097 72.173 59.5097C74.7047 58.2362 77.9602 61.8078 76.506 63.9397C76.506 63.9397 61.7917 68.5095 54.6713 81.5425C51.8726 82.2086 48.8208 79.2405 50.3382 77.1125Z" fill="#9E9E9E"/>
<path d="M46.0263 72.7034C53.1765 59.7012 67.8607 55.1009 67.8607 55.1009C70.7305 54.021 73.3788 57.9449 72.1937 59.5308C72.1937 59.5308 57.5096 64.1312 50.3593 77.1333C48.3246 77.7593 44.4789 74.8007 46.0263 72.7034Z" fill="#707070"/>
<path d="M71.1492 90.7545C71.1492 90.7545 69.5504 77.638 78.2387 69.237L78.272 69.2102C79.8158 68.5407 80.7681 68.2386 80.7681 68.2386L119.526 73.691C115.104 75.0928 110.165 76.9384 104.965 79.4595L71.1492 90.7545Z" fill="#DEDEDE"/>
<path d="M61.445 120.497L58.8836 85.8541C64.189 76.2078 73.6547 71.1793 78.1877 69.2508C69.4969 77.6541 71.0962 90.7742 71.0962 90.7742L104.907 79.4609C89.9419 86.6761 72.9985 99.13 61.445 120.497Z" fill="#A6A6A6"/>
<path d="M159.689 147.649C162.775 144.313 178.019 127.813 178.871 126.47C178.871 126.47 173.977 105.424 164.526 89.9391C169.307 94.3421 173.649 98.9627 176.452 103.375C186.276 118.969 201.555 149.662 201.555 149.662L226.666 147.464C233.711 146.296 239.437 151.058 242.882 155.035C241.356 153.476 231.375 145.637 197.483 162.269C197.483 162.269 188.343 139.915 186.602 139.378C186.585 139.391 166.244 141.462 159.689 147.649Z" fill="#E07800"/>
<path d="M235.364 308.006L243.284 300.09L227.891 264.73L214.11 237.175L207.592 252.985L200.099 271.194L196.073 281.029L185.61 284.405L142.576 242.562L189.094 297.975L194.882 283.875L192.4 289.951L189.094 297.975L191.687 301.08L193.867 303.643L196.965 307.325L198.537 309.175L201.058 312.147L235.364 308.006Z" fill="#A6A6A6"/>
<path d="M192.352 289.929L200.053 271.166L207.549 252.951L232.33 299.25L223.757 299.405L222.566 296.973L208.674 269.058L218.472 287.691L192.352 289.929Z" fill="#848484"/>
<path d="M189.149 298.03L182.572 290.215C181.403 288.807 180.172 287.367 178.943 285.899C178.01 284.793 177.062 283.672 176.117 282.493C169.361 274.495 161.927 265.622 154.686 256.976C153.309 255.326 151.931 253.705 150.584 252.085L142.677 242.637C130.684 228.285 120.948 216.513 118.475 213.288C110.957 203.389 110.73 187.668 110.73 187.668C108.678 186.48 106.555 185.158 104.426 183.678C106.373 181.425 108.396 179.22 110.384 177.071C113.351 173.86 116.39 170.753 119.423 167.762L137.163 171.988C136.398 174.6 133.689 203.291 133.689 203.291C141.24 223.71 179.222 265.452 179.222 265.452L200.177 271.267L196.154 281.096L192.5 289.999L189.149 298.03Z" fill="#D27100"/>
<path d="M179.425 265.376L200.395 271.195L207.889 252.985L214.407 237.174L235.578 232.249L235.608 232.279L237.34 231.867L239.136 231.458L256.632 227.417L260.21 226.556L275.814 222.946L277.547 222.534L279.326 222.138L294.065 218.706L295.781 218.307L297.61 217.872L308.562 215.359L312.107 214.525L317.208 213.34L289.349 207.878L246.354 160.01C246.354 160.01 245.147 157.866 242.981 155.318L242.727 155.058C241.202 153.499 231.236 145.645 197.339 162.279C197.339 162.279 188.199 139.923 186.457 139.386C186.457 139.386 166.099 141.441 159.543 147.629C162.629 144.293 177.875 127.791 178.71 126.461C178.71 126.461 178.681 126.431 178.669 126.358C178.672 126.301 178.647 126.184 178.622 126.068C178.427 125.323 177.962 123.482 177.236 120.95L177.253 120.937L177.223 120.907C177.053 120.278 176.866 119.663 176.651 118.988C176.63 118.814 176.56 118.652 176.521 118.491C178.811 117.192 180.966 116.029 183.053 114.948L183.087 114.921C182.957 114.698 182.829 114.445 182.714 114.237C182.556 113.954 182.411 113.715 182.27 113.419C182.228 113.316 182.14 113.196 182.081 113.134C181.864 112.762 181.648 112.389 181.447 112.032C181.45 111.974 181.435 111.959 181.405 111.929C181.003 111.214 180.63 110.53 180.195 109.842C180.198 109.784 180.153 109.739 180.108 109.693C180.097 109.62 180.067 109.59 180.055 109.517C179.781 109.054 179.475 108.59 179.217 108.114C179.101 107.935 178.986 107.726 178.87 107.547C178.828 107.443 178.77 107.354 178.728 107.25C177.887 105.905 177.077 104.562 176.339 103.352C175.903 102.664 175.451 101.989 174.951 101.326C174.687 100.965 174.454 100.606 174.171 100.287C173.922 99.9407 173.641 99.5928 173.345 99.2297C172.782 98.5628 172.205 97.8518 171.579 97.181C171.283 96.8179 170.955 96.4529 170.611 96.1012C170.282 95.7648 169.968 95.4438 169.658 95.0654C168.032 93.3128 166.248 91.5794 164.429 89.9013L164.399 89.8707C162.802 88.4507 161.189 87.044 159.572 85.6947C153.483 80.6221 147.31 76.1916 142.985 73.2252C85.0767 81.8708 83.1023 146.002 83.1023 146.002L83.1771 146.079L94.1327 154.064L109.128 165.028L116.577 166.789L119.637 167.521L119.667 167.552L137.42 171.78C136.654 174.394 133.943 203.105 133.943 203.105C141.416 223.606 179.425 265.376 179.425 265.376ZM235.482 161.391L276.514 209.831C267.286 208.464 256.633 216.287 256.633 216.287C244.234 202.519 205.665 173.096 205.665 173.096C215.709 165.956 235.482 161.391 235.482 161.391Z" fill="#FFAC1C"/>
<path d="M159.689 147.649C162.775 144.313 178.019 127.813 178.871 126.47C178.871 126.47 173.977 105.424 164.526 89.9391C169.307 94.3421 173.649 98.9627 176.452 103.375C186.276 118.969 201.555 149.662 201.555 149.662L226.666 147.464C233.711 146.296 239.437 151.058 242.882 155.035C241.356 153.476 231.375 145.637 197.483 162.269C197.483 162.269 188.343 139.915 186.602 139.378C186.585 139.391 166.244 141.462 159.689 147.649Z" fill="#A6A6A6"/>
<path d="M189.149 298.03L182.572 290.215C181.403 288.807 180.172 287.367 178.943 285.899C178.01 284.793 177.062 283.672 176.117 282.493C169.361 274.495 161.927 265.622 154.686 256.976C153.309 255.326 151.931 253.705 150.584 252.085L142.677 242.637C130.684 228.285 120.948 216.513 118.475 213.288C110.957 203.389 110.73 187.668 110.73 187.668C108.678 186.48 106.555 185.158 104.426 183.678C106.373 181.425 108.396 179.22 110.384 177.071C113.351 173.86 116.39 170.753 119.423 167.762L137.163 171.988C136.398 174.6 133.689 203.291 133.689 203.291C141.24 223.71 179.222 265.452 179.222 265.452L200.177 271.267L196.154 281.096L192.5 289.999L189.149 298.03Z" fill="#A6A6A6"/>
<path d="M179.425 265.376L200.395 271.195L207.889 252.985L214.407 237.174L235.578 232.249L235.608 232.279L237.34 231.867L239.136 231.458L256.632 227.417L260.21 226.556L275.814 222.946L277.547 222.534L279.326 222.138L294.065 218.706L295.781 218.307L297.61 217.872L308.562 215.359L312.107 214.525L317.208 213.34L289.349 207.878L246.354 160.01C246.354 160.01 245.147 157.866 242.981 155.318L242.727 155.058C241.202 153.499 231.236 145.645 197.339 162.279C197.339 162.279 188.199 139.923 186.457 139.386C186.457 139.386 166.099 141.441 159.543 147.629C162.629 144.293 177.875 127.791 178.71 126.461C178.71 126.461 178.681 126.431 178.669 126.358C178.672 126.301 178.647 126.184 178.622 126.068C178.427 125.323 177.962 123.482 177.236 120.95L177.253 120.937L177.223 120.907C177.053 120.278 176.866 119.663 176.651 118.988C176.63 118.814 176.56 118.652 176.521 118.491C178.811 117.192 180.966 116.029 183.053 114.948L183.087 114.921C182.957 114.698 182.829 114.445 182.714 114.237C182.556 113.954 182.411 113.715 182.27 113.419C182.228 113.316 182.14 113.196 182.081 113.134C181.864 112.762 181.648 112.389 181.447 112.032C181.45 111.974 181.435 111.959 181.405 111.929C181.003 111.214 180.63 110.53 180.195 109.842C180.198 109.784 180.153 109.739 180.108 109.693C180.097 109.62 180.067 109.59 180.055 109.517C179.781 109.054 179.475 108.59 179.217 108.114C179.101 107.935 178.986 107.726 178.87 107.547C178.828 107.443 178.77 107.354 178.728 107.25C177.887 105.905 177.077 104.562 176.339 103.352C175.903 102.664 175.451 101.989 174.951 101.326C174.687 100.965 174.454 100.606 174.171 100.287C173.922 99.9407 173.641 99.5928 173.345 99.2297C172.782 98.5628 172.205 97.8518 171.579 97.181C171.283 96.8179 170.955 96.4529 170.611 96.1012C170.282 95.7648 169.968 95.4438 169.658 95.0654C168.032 93.3128 166.248 91.5794 164.429 89.9013L164.399 89.8707C162.802 88.4507 161.189 87.044 159.572 85.6947C153.483 80.6221 147.31 76.1916 142.985 73.2252C85.0767 81.8708 83.1023 146.002 83.1023 146.002L83.1771 146.079L94.1327 154.064L109.128 165.028L116.577 166.789L119.637 167.521L119.667 167.552L137.42 171.78C136.654 174.394 133.943 203.105 133.943 203.105C141.416 223.606 179.425 265.376 179.425 265.376ZM235.482 161.391L276.514 209.831C267.286 208.464 256.633 216.287 256.633 216.287C244.234 202.519 205.665 173.096 205.665 173.096C215.709 165.956 235.482 161.391 235.482 161.391Z" fill="#DEDEDE"/>
<path d="M54.3254 136.55C56.3099 130.65 58.644 125.29 61.3311 120.412L61.3344 120.355C72.8858 98.9911 89.8262 86.5394 104.803 79.3408C109.987 76.8329 114.943 74.9736 119.366 73.5717L119.429 73.5756C129.94 70.196 137.394 69.5833 137.394 69.5833C137.394 69.5833 139.644 70.9732 143.122 73.3738C85.1214 82.0333 83.1439 146.267 83.1439 146.267L83.2188 146.344L94.1919 154.342C90.6774 158.161 87.1349 162.195 83.5144 166.483C85.1553 168.009 86.7962 169.534 88.4869 171.02C85.9042 168.774 83.3747 166.431 80.9067 164.121C66.0988 150.258 54.3254 136.55 54.3254 136.55Z" fill="#E07800"/>
<path d="M83.1719 146.308L83.097 146.231C83.097 146.231 85.074 82.0147 143.059 73.3576C147.39 76.328 153.603 80.7663 159.668 85.8436C161.287 87.1947 162.902 88.6033 164.501 90.0252L164.531 90.0558C166.368 91.7514 168.156 93.4585 169.767 95.2267C170.078 95.6056 170.408 95.9424 170.722 96.2639C171.066 96.616 171.378 96.9949 171.69 97.3452C172.301 98.0302 172.895 98.7287 173.459 99.3966C173.741 99.7449 174.054 100.095 174.287 100.455C174.553 100.788 174.803 101.134 175.067 101.496C175.583 102.175 176.036 102.851 176.457 103.524C177.196 104.736 178.024 106.067 178.85 107.428C178.891 107.531 178.949 107.621 178.991 107.725C179.108 107.904 179.223 108.113 179.339 108.293C179.642 108.815 179.962 109.324 180.248 109.86C180.293 109.906 180.353 109.967 180.335 110.009C180.771 110.698 181.144 111.383 181.547 112.099C181.577 112.13 181.592 112.145 181.589 112.202C181.805 112.575 182.006 112.933 182.223 113.306C182.554 113.888 182.884 114.499 183.229 115.124C183.46 115.513 183.677 115.886 183.89 116.316C183.976 116.466 184.076 116.659 184.163 116.808L184.193 116.839C182.025 118.176 179.741 119.606 177.42 121.121L177.387 121.148C164.933 129.189 150.661 139.654 136.1 152.434C134.633 153.698 133.213 154.98 131.743 156.302C131.527 156.476 131.311 156.65 131.109 156.868C127.766 159.919 124.433 163.071 121.11 166.325C120.74 166.706 120.388 167.044 120.034 167.412C119.901 167.519 119.765 167.683 119.647 167.806L119.617 167.775L116.553 167.042L109.094 165.278L94.0788 154.3L83.1719 146.308Z" fill="#FFAC1C"/>
<path d="M83.3248 166.468C86.9398 162.213 90.4952 158.17 93.991 154.339L108.995 165.309L116.447 167.071L119.509 167.804L119.539 167.834C116.502 170.83 113.474 173.955 110.489 177.155C108.498 179.307 106.473 181.515 104.523 183.77C104.096 183.485 103.669 183.2 103.242 182.915C102.268 182.223 101.279 181.515 100.278 180.735C99.655 180.28 99.0467 179.84 98.44 179.372C97.5442 178.698 96.6349 177.981 95.7423 177.251C94.1666 176.004 92.5642 174.669 90.9949 173.308C90.0874 172.562 89.1648 171.801 88.2771 170.984C86.6031 169.516 84.964 167.992 83.3248 166.468Z" fill="#F5D773"/>
<path d="M94.0477 154.275C123.347 122.24 149.531 105.078 167.89 96.0609C168.511 95.7526 169.133 95.4157 169.768 95.1227C170.079 95.502 170.409 95.8392 170.724 96.161C171.069 96.5135 171.38 96.8928 171.694 97.2434C172.305 97.9292 172.9 98.6285 173.464 99.297C173.746 99.6457 174.059 99.9962 174.292 100.356C174.559 100.69 174.809 101.036 175.074 101.398C175.59 102.079 176.043 102.755 176.465 103.429C177.205 104.642 178.033 105.975 178.86 107.337C178.902 107.44 178.96 107.53 179.002 107.634C179.118 107.814 179.233 108.023 179.35 108.203C179.653 108.726 179.973 109.235 180.26 109.771C180.305 109.817 180.365 109.879 180.347 109.921C180.783 110.61 181.157 111.296 181.56 112.013C181.59 112.043 181.605 112.059 181.602 112.116C181.819 112.49 182.02 112.848 182.237 113.221C182.312 113.298 182.384 113.432 182.427 113.507C182.569 113.804 182.714 114.043 182.872 114.327C183.002 114.551 183.147 114.79 183.245 115.012C183.302 115.131 183.39 115.252 183.462 115.386C183.604 115.683 183.749 115.922 183.89 116.219C183.977 116.369 184.077 116.562 184.164 116.712C181.994 118.05 179.707 119.482 177.384 120.999C164.934 129.035 150.598 139.551 136.051 152.374C134.582 153.64 133.161 154.923 131.69 156.246C131.474 156.421 131.257 156.595 131.055 156.813C127.693 159.852 124.372 163.023 121.045 166.28C120.675 166.662 120.322 167 119.968 167.368C119.835 167.475 119.669 167.609 119.566 167.747L116.498 167.013L109.032 165.248L94.0477 154.275Z" fill="#FFEEB5"/>
<path d="M153.414 162.985L141.303 172.748L137.703 203.969L146.002 200.729L153.414 162.985Z" fill="#FCFCFC"/>
</g>
</svg>
