<svg width="754" height="133" viewBox="0 0 754 133" fill="none" xmlns="http://www.w3.org/2000/svg">
<path d="M694.907 63.6231V22.4809C694.907 21.8983 695.458 21.4233 696.143 21.4233H738.56C739.244 21.4233 739.795 21.8983 739.795 22.4809V70.2976C739.795 70.8802 739.244 71.3551 738.56 71.3551H696.151C695.466 71.3551 694.915 70.8802 694.915 70.2976V67.8596" stroke="#D6A443" stroke-width="2" stroke-miterlimit="10" stroke-linecap="round"/>
<path d="M718.035 82C717.492 82 717.005 81.696 716.847 81.2464C716.839 81.2148 715.651 77.9789 712.944 77.162C711.48 76.7187 709.741 77.0733 707.766 78.2068C704.39 80.1509 700.612 80.6069 697.401 79.4543C695.426 78.7451 693.852 77.4723 693.113 76.0538C690.39 76.3451 688.084 75.6042 686.541 73.9134C683.645 70.7471 684.094 64.8896 687.683 58.9877C689.359 56.2267 689.752 53.7824 688.855 51.718C687.541 48.691 683.819 47.3992 683.779 47.3866C683.307 47.2282 682.992 46.8356 683 46.3987C683 45.9617 683.315 45.5755 683.787 45.4171C683.819 45.4045 687.541 44.1127 688.863 41.0857C689.76 39.0213 689.367 36.5706 687.69 33.816C685.951 30.96 685.046 28.0471 685.07 25.3811C685.093 22.9621 685.888 20.7647 687.321 19.1943C688.839 17.5351 690.972 16.6803 693.191 16.8006C693.986 15.3694 695.615 14.1346 697.653 13.4633C699.51 12.8554 703.288 12.2158 707.766 14.7932C709.741 15.933 711.488 16.2813 712.952 15.838C715.627 15.0211 716.831 11.7852 716.847 11.7536C717.005 11.304 717.485 11 718.035 11C718.578 11 719.066 11.304 719.224 11.7536C719.232 11.7852 720.42 15.0211 723.127 15.838C724.591 16.2813 726.33 15.9267 728.305 14.7932C732.767 12.2222 736.537 12.8491 738.386 13.4507C740.448 14.1219 742.093 15.3694 742.887 16.8196C744.745 16.8006 746.563 17.4908 747.995 18.77C750.615 21.1193 751.52 24.9695 750.411 29.073C750.261 29.6429 749.592 29.9975 748.923 29.8645C748.255 29.7315 747.837 29.1679 747.995 28.598C749.356 23.5447 746.964 20.9167 746.201 20.2328C745.067 19.2133 743.667 18.77 742.266 18.9853C741.628 19.0803 741.007 18.7446 740.849 18.2064C740.574 17.2755 739.425 16.0533 737.497 15.4264C736.096 14.9705 733.216 14.5082 729.682 16.5473C727.015 18.0861 724.528 18.5167 722.277 17.8328C720.262 17.2185 718.893 15.819 718.035 14.5842C717.178 15.8127 715.808 17.2185 713.794 17.8328C711.543 18.5167 709.056 18.0861 706.388 16.5473C702.839 14.5019 699.951 14.9705 698.55 15.4328C696.622 16.066 695.489 17.2882 695.222 18.2191C695.056 18.7826 694.395 19.1309 693.734 18.9916C692.082 18.656 690.46 19.2006 689.288 20.4861C687.376 22.5758 686.392 27.0592 689.902 32.8218C691.924 36.1464 692.357 39.1733 691.184 41.8329C690.201 44.062 688.304 45.5248 686.809 46.386C688.304 47.2472 690.209 48.7164 691.184 50.9391C692.357 53.5924 691.924 56.6257 689.902 59.9502C686.809 65.0416 686.25 70.1202 688.509 72.5962C689.949 74.173 692.121 74.1224 693.687 73.7994C694.018 73.7298 694.364 73.7804 694.647 73.9387C694.93 74.097 695.127 74.3503 695.19 74.6353C695.395 75.5598 696.449 76.801 698.369 77.4849C699.794 77.9979 702.737 78.5361 706.388 76.4337C709.056 74.9013 711.543 74.4643 713.794 75.1482C715.808 75.7625 717.178 77.162 718.035 78.3968C718.893 77.1683 720.262 75.7625 722.277 75.1482C724.52 74.4643 727.015 74.8949 729.682 76.4337C733.326 78.5298 736.253 77.9979 737.678 77.4913C739.598 76.8137 740.668 75.5725 740.873 74.648C740.999 74.097 741.605 73.7234 742.258 73.7994C744.627 74.0717 746.484 73.4891 747.617 72.1023C749.71 69.5566 749.136 64.9022 746.122 59.9376C744.099 56.613 743.667 53.5861 744.839 50.9264C745.823 48.6974 747.719 47.2346 749.215 46.3734C747.719 45.5121 745.815 44.043 744.839 41.8203C743.674 39.167 744.099 36.1337 746.122 32.8091C746.437 32.2899 747.184 32.0872 747.79 32.3595C748.396 32.6318 748.632 33.2651 748.317 33.7843C746.641 36.5453 746.248 38.9897 747.145 41.054C748.467 44.081 752.189 45.3728 752.221 45.3855C752.693 45.5438 753.008 45.9364 753 46.3734C753 46.8103 752.685 47.1966 752.213 47.3549C752.181 47.3676 748.459 48.6594 747.137 51.6863C746.24 53.7507 746.633 56.2014 748.31 58.956C751.804 64.7059 752.299 70.0696 749.632 73.3118C748.129 75.1356 745.783 76.0538 742.958 75.9651C742.234 77.4153 740.629 78.7198 738.614 79.4353C736.733 80.1003 732.885 80.8285 728.282 78.1752C726.306 77.0353 724.559 76.687 723.096 77.1303C720.42 77.9472 719.216 81.1831 719.208 81.2148C719.058 81.696 718.578 82 718.035 82Z" stroke="#D6A443" stroke-width="2" stroke-miterlimit="10" stroke-linecap="round"/>
<path d="M78.1669 56.6062C77.4468 56.1729 76.5249 56.4205 76.106 57.1587L58.8369 87.4176C57.5894 89.6354 54.8221 90.4 52.7296 89.1587L49.3655 86.9192C48.6666 86.4532 47.7339 86.6576 47.282 87.3757C46.8284 88.0923 47.0288 89.0519 47.7263 89.5162L51.1566 91.7975C52.3392 92.5001 53.6333 92.8329 54.9107 92.8329C57.5155 92.8329 60.0494 91.4478 61.4398 88.9745L78.7028 58.7232C79.1235 57.9866 78.8841 57.0379 78.1669 56.6062Z" fill="#D6A443"/>
<path d="M82.725 0H58.621C53.9599 0 50.4875 1.52441 47.0105 5.09648C46.4215 5.70171 46.4215 6.67983 47.0105 7.28488C47.5996 7.89011 48.5517 7.89011 49.1407 7.28488C52.0753 4.26998 54.7343 3.09525 58.621 3.09525H82.725C85.2168 3.09525 87.2445 5.17846 87.2445 7.7383V32.5014C87.2445 36.496 86.1011 39.226 83.165 42.2409L38.4248 88.2692C36.7164 90.0212 33.7396 90.0226 32.0343 88.2692L4.33714 59.8149C3.48302 58.9374 3.01289 57.7719 3.01289 56.5306C3.01289 55.291 3.48285 54.1255 4.33555 53.2495L44.7732 11.7654C45.3953 11.9279 46.019 12.0904 46.6653 12.2684C52.7939 13.9553 57.6297 15.6981 61.2348 17.2535C60.5252 18.603 60.1275 20.1151 60.1275 21.6675C60.1275 26.7888 64.1814 30.9536 69.1665 30.9536C74.1516 30.9536 78.2055 26.7888 78.2055 21.6675C78.2055 16.5461 74.1516 12.3814 69.1665 12.3814C68.3334 12.3814 67.6601 13.0747 67.6601 13.929C67.6601 14.7832 68.3334 15.4766 69.1665 15.4766C72.4899 15.4766 75.1925 18.2532 75.1925 21.6673C75.1925 25.0816 72.4898 27.858 69.1665 27.858C65.8432 27.858 63.1405 25.0814 63.1405 21.6673C63.1405 20.5529 63.4373 19.4649 63.9842 18.5178C66.5936 19.8008 68.225 20.8827 68.8699 21.573C68.5941 21.6535 68.1678 21.7433 67.5247 21.8004C66.6961 21.8762 66.083 22.6269 66.1568 23.4781C66.2262 24.2828 66.8829 24.8911 67.6558 24.8911C67.6994 24.8911 67.7446 24.888 67.7898 24.8849C68.7163 24.7999 71.535 24.5445 72.0773 22.4689C73.5612 16.775 51.8179 10.4821 47.4444 9.27794C40.754 7.43614 34.3289 6.17635 29.3498 5.73072C23.2319 5.18136 20.252 5.89631 19.6916 8.04753C19.4235 9.07989 18.7079 11.8207 30.9226 16.7687C31.6955 17.0828 32.5722 16.6929 32.8766 15.8974C33.181 15.1019 32.8012 14.2027 32.0269 13.89C26.1259 11.4988 23.6808 9.74678 22.8975 8.92192C24.7551 8.36167 31.108 8.52417 41.3387 10.9137L2.20697 51.0596C0.783323 52.5222 0 54.4645 0 56.5306C0 58.5984 0.783323 60.5421 2.20697 62.0033L29.904 90.4574C31.3246 91.9183 33.2168 92.7232 35.228 92.7232C37.2408 92.7232 39.1314 91.9185 40.555 90.4559L85.2966 44.4293C88.775 40.8572 90.2574 37.2899 90.2574 32.5014V7.73848C90.2576 3.47141 86.8786 0 82.725 0Z" fill="#D6A443"/>
<path d="M49.2724 40.6934C48.6835 40.0882 47.7312 40.0882 47.1423 40.6934L46.3288 41.5292C45.1371 40.7183 43.715 40.24 42.1814 40.24C38.0281 40.24 34.6489 43.7114 34.6489 47.9784C34.6489 50.2845 35.5754 52.1077 36.3829 53.4402C37.1362 54.6829 37.6619 56.4534 37.6619 57.2645C37.6619 59.8243 35.6341 61.9075 33.1424 61.9075C30.6507 61.9075 28.6229 59.8243 28.6229 57.2645C28.6229 56.325 28.8955 55.4196 29.4108 54.6459C29.8808 53.9416 29.7046 52.9775 29.0191 52.4947C28.3322 52.0133 27.3951 52.1929 26.9251 52.8971C26.0648 54.1879 25.6099 55.6984 25.6099 57.2647C25.6099 58.8402 26.0754 60.3011 26.8647 61.5254L26.0512 62.3611C25.4621 62.9662 25.4621 63.9445 26.0512 64.5495C26.345 64.8513 26.7307 65.0029 27.1163 65.0029C27.502 65.0029 27.8876 64.8513 28.1814 64.5495L28.9949 63.7138C30.1866 64.5247 31.6086 65.0029 33.1422 65.0029C37.2956 65.0029 40.6748 61.5316 40.6748 57.2645C40.6748 55.7571 39.9457 53.4603 38.9408 51.8028C38.0445 50.3248 37.6617 49.1811 37.6617 47.9784C37.6617 45.4186 39.6895 43.3354 42.1812 43.3354C43.3895 43.3354 44.4816 43.8307 45.2921 44.6277C45.3177 44.6556 45.3267 44.6926 45.3523 44.7205C45.3795 44.7468 45.4155 44.7561 45.4427 44.7824C46.2186 45.615 46.7006 46.7372 46.7006 47.9783C46.7006 49.2194 46.229 50.3879 45.3733 51.267C44.7842 51.8706 44.7842 52.8504 45.3717 53.4554C45.9577 54.0606 46.9129 54.059 47.5019 53.457C48.9271 51.9928 49.7134 50.0475 49.7134 47.9783C49.7134 46.4027 49.2479 44.9418 48.4586 43.7176L49.2721 42.8818C49.8616 42.2768 49.8616 41.2985 49.2724 40.6934Z" fill="#D6A443"/>
<path d="M199.863 125.286C203.405 125.286 205.561 123.174 205.561 120.578C205.561 118.202 204.175 117.014 202.261 116.2L200.039 115.254C198.719 114.726 197.421 114.198 197.421 112.79C197.421 111.514 198.499 110.722 200.149 110.722C201.579 110.722 202.701 111.272 203.713 112.174L205.055 110.546C203.823 109.292 202.041 108.5 200.149 108.5C197.069 108.5 194.825 110.414 194.825 112.966C194.825 115.32 196.563 116.552 198.125 117.212L200.369 118.18C201.865 118.84 202.965 119.302 202.965 120.776C202.965 122.14 201.865 123.064 199.907 123.064C198.345 123.064 196.761 122.316 195.595 121.15L194.099 122.91C195.573 124.406 197.641 125.286 199.863 125.286ZM208.408 125H210.938V112.9H208.408V125ZM209.662 110.634C210.586 110.634 211.246 110.04 211.246 109.116C211.246 108.214 210.586 107.62 209.662 107.62C208.738 107.62 208.1 108.214 208.1 109.116C208.1 110.04 208.738 110.634 209.662 110.634ZM213.625 125H222.975V122.976H216.815L222.777 114.242V112.9H214.285V114.924H219.609L213.625 123.636V125ZM230.311 125.286C231.895 125.286 233.281 124.758 234.403 124.01L233.523 122.404C232.643 122.976 231.719 123.306 230.641 123.306C228.551 123.306 227.099 121.92 226.901 119.61H234.755C234.821 119.302 234.887 118.818 234.887 118.312C234.887 114.902 233.149 112.592 229.937 112.592C227.121 112.592 224.415 115.034 224.415 118.95C224.415 122.954 227.033 125.286 230.311 125.286ZM226.879 117.85C227.121 115.738 228.463 114.572 229.981 114.572C231.741 114.572 232.687 115.782 232.687 117.85H226.879Z" fill="#404040"/>
<path d="M20.134 125H22.686V118.862H25.128C28.648 118.862 31.222 117.234 31.222 113.692C31.222 110.04 28.648 108.786 25.04 108.786H20.134V125ZM22.686 116.816V110.854H24.798C27.372 110.854 28.714 111.558 28.714 113.692C28.714 115.826 27.482 116.816 24.886 116.816H22.686ZM34.1581 125H36.6881V117.454C37.4361 115.54 38.6241 114.858 39.6141 114.858C40.0981 114.858 40.4061 114.924 40.8241 115.056L41.2861 112.856C40.9121 112.68 40.5161 112.592 39.9221 112.592C38.6241 112.592 37.3481 113.516 36.4901 115.078H36.4241L36.2261 112.9H34.1581V125ZM43.1601 125H45.6901V112.9H43.1601V125ZM44.4141 110.634C45.3381 110.634 45.9981 110.04 45.9981 109.116C45.9981 108.214 45.3381 107.62 44.4141 107.62C43.4901 107.62 42.8521 108.214 42.8521 109.116C42.8521 110.04 43.4901 110.634 44.4141 110.634ZM54.4045 125.286C55.7905 125.286 57.2205 124.78 58.3425 123.79L57.2865 122.118C56.5605 122.734 55.6585 123.218 54.6465 123.218C52.6445 123.218 51.2365 121.524 51.2365 118.95C51.2365 116.398 52.6885 114.682 54.7345 114.682C55.5485 114.682 56.2305 115.034 56.8905 115.628L58.1445 113.978C57.2645 113.208 56.1425 112.592 54.6025 112.592C51.4125 112.592 48.6185 114.924 48.6185 118.95C48.6185 122.976 51.1265 125.286 54.4045 125.286ZM65.2997 125.286C66.8837 125.286 68.2697 124.758 69.3917 124.01L68.5117 122.404C67.6317 122.976 66.7077 123.306 65.6297 123.306C63.5397 123.306 62.0877 121.92 61.8897 119.61H69.7437C69.8097 119.302 69.8757 118.818 69.8757 118.312C69.8757 114.902 68.1377 112.592 64.9257 112.592C62.1097 112.592 59.4037 115.034 59.4037 118.95C59.4037 122.954 62.0217 125.286 65.2997 125.286ZM61.8677 117.85C62.1097 115.738 63.4517 114.572 64.9697 114.572C66.7297 114.572 67.6757 115.782 67.6757 117.85H61.8677Z" fill="#404040"/>
<path d="M686.134 125H688.686V118.026H694.67V115.892H688.686V110.942H695.726V108.786H686.134V125ZM697.881 125H700.411V117.454C701.159 115.54 702.347 114.858 703.337 114.858C703.821 114.858 704.129 114.924 704.547 115.056L705.009 112.856C704.635 112.68 704.239 112.592 703.645 112.592C702.347 112.592 701.071 113.516 700.213 115.078H700.147L699.949 112.9H697.881V125ZM709.12 125.286C710.572 125.286 711.87 124.56 712.97 123.614H713.058L713.256 125H715.324V117.718C715.324 114.506 713.938 112.592 710.924 112.592C708.988 112.592 707.294 113.384 706.04 114.176L706.986 115.892C708.02 115.232 709.208 114.66 710.484 114.66C712.266 114.66 712.772 115.892 712.794 117.3C707.756 117.85 705.556 119.192 705.556 121.788C705.556 123.922 707.03 125.286 709.12 125.286ZM709.89 123.284C708.812 123.284 707.998 122.8 707.998 121.612C707.998 120.248 709.208 119.324 712.794 118.906V121.876C711.804 122.778 710.946 123.284 709.89 123.284ZM718.914 125H721.444V116.42C722.434 115.32 723.336 114.77 724.15 114.77C725.536 114.77 726.174 115.606 726.174 117.696V125H728.704V116.42C729.716 115.32 730.596 114.77 731.432 114.77C732.796 114.77 733.456 115.606 733.456 117.696V125H735.986V117.388C735.986 114.308 734.798 112.592 732.268 112.592C730.75 112.592 729.518 113.538 728.33 114.814C727.802 113.428 726.79 112.592 724.986 112.592C723.49 112.592 722.28 113.494 721.246 114.594H721.18L720.982 112.9H718.914V125ZM744.684 125.286C746.268 125.286 747.654 124.758 748.776 124.01L747.896 122.404C747.016 122.976 746.092 123.306 745.014 123.306C742.924 123.306 741.472 121.92 741.274 119.61H749.128C749.194 119.302 749.26 118.818 749.26 118.312C749.26 114.902 747.522 112.592 744.31 112.592C741.494 112.592 738.788 115.034 738.788 118.95C738.788 122.954 741.406 125.286 744.684 125.286ZM741.252 117.85C741.494 115.738 742.836 114.572 744.354 114.572C746.114 114.572 747.06 115.782 747.06 117.85H741.252Z" fill="#404040"/>
<g clip-path="url(#clip0)">
<path d="M370.275 57.7896C371.604 57.7896 372.683 56.6601 372.683 55.2666C372.683 53.8732 371.604 52.7437 370.275 52.7437C368.945 52.7437 367.867 53.8732 367.867 55.2666C367.867 56.6601 368.945 57.7896 370.275 57.7896Z" fill="#D6A443"/>
<path d="M396.913 57.7896C398.243 57.7896 399.321 56.6601 399.321 55.2666C399.321 53.8732 398.243 52.7437 396.913 52.7437C395.583 52.7437 394.505 53.8732 394.505 55.2666C394.505 56.6601 395.583 57.7896 396.913 57.7896Z" fill="#D6A443"/>
<path d="M370.274 47.1763C368.959 47.1763 367.723 47.7129 366.792 48.6875C366.29 49.2139 366.29 50.0673 366.792 50.5938C367.295 51.1204 368.109 51.1202 368.612 50.5938C369.056 50.1284 369.646 49.8722 370.274 49.8722C370.902 49.8722 371.493 50.1284 371.937 50.5938C372.188 50.857 372.517 50.9888 372.847 50.9886C373.176 50.9886 373.505 50.857 373.756 50.5938C374.259 50.0675 374.259 49.214 373.756 48.6875C372.826 47.7131 371.59 47.1763 370.274 47.1763Z" fill="#D6A443"/>
<path d="M393.431 48.6874C392.929 49.2138 392.929 50.0672 393.431 50.5937C393.933 51.1203 394.748 51.1201 395.25 50.5937C396.167 49.633 397.659 49.6332 398.576 50.5937C398.827 50.8569 399.156 50.9885 399.485 50.9885C399.815 50.9885 400.144 50.8569 400.395 50.5937C400.898 50.0674 400.898 49.2139 400.395 48.6874C398.475 46.6759 395.351 46.6757 393.431 48.6874Z" fill="#D6A443"/>
<path d="M386.069 65.9793C385.407 66.6726 384.527 67.0546 383.592 67.0546C382.656 67.0546 381.776 66.6728 381.115 65.9793C380.613 65.4529 379.798 65.4529 379.296 65.9793C378.794 66.5056 378.794 67.3591 379.296 67.8856C380.444 69.0883 381.969 69.7505 383.592 69.7505C385.215 69.7505 386.74 69.0881 387.887 67.8856C388.39 67.3592 388.39 66.5058 387.887 65.9793C387.385 65.4529 386.571 65.4529 386.069 65.9793Z" fill="#D6A443"/>
<path d="M413.947 53.9667C413.947 50.3051 411.421 47.252 408.099 46.6153V24.0654C408.099 21.14 406.71 18.4279 404.384 16.8106C402.199 15.2916 399.486 14.9469 397.034 15.8525L388.957 12.9801C382.751 10.7726 376.219 10.5462 370.066 12.325C362.011 14.6537 357.393 19.5781 356.681 26.5779C356.05 27.4497 355.549 28.4288 355.208 29.4853L354.581 31.4282C354.245 32.4713 354.616 33.5675 355.504 34.1559C356.392 34.7443 357.496 34.6253 358.252 33.8595C358.51 33.5979 358.792 33.3775 359.088 33.1932V46.6155C355.767 47.2522 353.241 50.3051 353.241 53.9668C353.241 57.7749 355.973 60.9249 359.491 61.3829C360.374 66.4943 362.696 71.2092 366.245 74.9823C370.88 79.9084 377.041 82.6211 383.594 82.6211C383.595 82.6211 383.595 82.6211 383.596 82.6211C390.141 82.6204 396.294 79.9495 400.922 75.1004C404.537 71.3125 406.883 66.5496 407.737 61.3775C411.235 60.9003 413.947 57.7599 413.947 53.9667ZM402.962 19.0571C404.592 20.1902 405.526 22.0157 405.526 24.0654V41.7047C401.533 41.0545 398.468 37.4279 398.468 33.0646L398.361 18.2439C399.932 17.8101 401.57 18.0898 402.962 19.0571ZM357.395 31.1234L357.646 30.3481C358.3 28.317 359.755 26.6679 361.636 25.8241C363.517 24.9803 365.659 25.0153 367.514 25.9207C371.41 27.8218 376.119 26.794 378.966 23.4214L379.285 23.0438C379.756 22.4863 379.706 21.6344 379.174 21.1412C378.641 20.648 377.828 20.7001 377.358 21.2576L377.039 21.6352C374.941 24.1205 371.471 24.8777 368.6 23.4768C366.083 22.2484 363.175 22.2007 360.623 23.3459C360.391 23.4502 360.165 23.5666 359.942 23.6885C361.438 19.5114 365.057 16.5698 370.751 14.9236C376.405 13.2889 382.414 13.4997 388.131 15.5327L395.788 18.2564L395.889 25.2214C392.479 30.0792 387.506 33.3677 381.839 34.4985C376.036 35.6562 370.117 34.4311 365.17 31.0487C362.753 29.3963 359.706 29.4669 357.395 31.1234ZM355.814 53.9667C355.814 51.7993 357.198 49.9655 359.088 49.382V56.6882C359.088 57.3193 359.11 57.947 359.152 58.5706C357.229 58.009 355.814 56.1584 355.814 53.9667ZM399.102 73.1937C394.961 77.5338 389.454 79.9242 383.596 79.9249C383.595 79.9249 383.595 79.9249 383.594 79.9249C377.735 79.9249 372.224 77.497 368.077 73.0894C363.94 68.6914 361.661 62.8666 361.661 56.688V32.5576C362.39 32.6145 363.113 32.8616 363.764 33.3066C369.27 37.0719 375.86 38.4358 382.32 37.1468C387.564 36.1005 392.274 33.3957 395.895 29.4066V33.0644C395.895 38.9164 400.11 43.7531 405.526 44.4225V56.9429C405.526 63.0818 403.245 68.8532 399.102 73.1937ZM408.049 58.5662C408.081 58.028 408.099 57.487 408.099 56.9431V49.382C409.99 49.9655 411.374 51.7993 411.374 53.9667C411.374 56.1529 409.965 57.9997 408.049 58.5662Z" fill="#D6A443"/>
</g>
<path d="M565.118 70.4029C562.568 70.4029 560.463 68.3582 560.194 65.7406L565.157 62.5428C565.545 62.293 565.781 61.848 565.781 61.3687C565.781 58.6146 563.659 56.374 561.049 56.374H556.674C554.065 56.374 551.942 58.6146 551.942 61.3687C551.942 61.8482 552.178 62.2932 552.566 62.5428L557.529 65.7406C557.261 68.3582 555.155 70.4029 552.605 70.4029C551.885 70.4029 551.302 71.0189 551.302 71.7786C551.302 72.5384 551.885 73.1544 552.605 73.1544C555.204 73.1544 557.5 71.7629 558.862 69.649C560.223 71.7629 562.519 73.1544 565.118 73.1544C565.838 73.1544 566.421 72.5384 566.421 71.7786C566.421 71.0189 565.838 70.4029 565.118 70.4029ZM556.674 59.1253H561.049C561.989 59.1253 562.788 59.7717 563.068 60.6654L558.862 63.3758L554.656 60.6656C554.936 59.7719 555.734 59.1253 556.674 59.1253Z" fill="#D6A443"/>
<path d="M549.689 42.8295C549.22 42.2763 548.435 42.0674 547.855 42.3417L542.143 45.0422C541.506 45.3429 541.344 46.1158 541.782 46.7674C542.219 47.4191 543.091 47.7031 543.728 47.4019L548.425 45.181L550 47.0366C550.515 47.6442 551.4 47.827 551.976 47.4448C552.552 47.0626 552.6 46.2601 552.085 45.6524L549.689 42.8295Z" fill="#D6A443"/>
<path d="M575.4 45.5131L570.417 42.5365C569.872 42.211 569.066 42.3473 568.535 42.8549L566.114 45.1678C565.531 45.7254 565.486 46.5281 566.014 46.9607C566.542 47.3932 567.444 47.2919 568.027 46.7343L569.519 45.309L573.55 47.7163C574.149 48.0738 575.048 47.8705 575.559 47.2621C576.07 46.6538 575.999 45.8705 575.4 45.5131Z" fill="#D6A443"/>
<path d="M586.965 34.2017C583.078 26.0079 576.376 20.231 567.555 17.459C566.193 13.7025 562.718 11.1399 558.862 11.1399C555.006 11.1399 551.531 13.7025 550.169 17.459C541.348 20.231 534.646 26.0079 530.759 34.2015C521.331 54.0798 518.456 61.9638 518.456 67.9455C518.456 73.5377 522.766 78.0874 528.065 78.0874C533.363 78.0874 537.673 73.5379 537.673 67.9455V60.083C539.233 61.2133 540.362 64.4854 541.977 69.4878L542.09 69.8406C544.714 77.9628 550.827 82.6211 558.862 82.6211C566.897 82.6211 573.01 77.9628 575.634 69.8406L575.748 69.4878C577.363 64.4854 578.492 61.2133 580.051 60.083V67.9455C580.051 73.5377 584.361 78.0874 589.66 78.0874C594.958 78.0874 599.268 73.5377 599.268 67.9455C599.268 61.9638 596.393 54.0798 586.965 34.2017ZM589.659 75.3357C585.799 75.3357 582.658 72.0205 582.658 67.9454V41.3527C582.658 40.5929 582.074 39.9769 581.354 39.9769C580.634 39.9769 580.051 40.5929 580.051 41.3527V57.0742C578.596 57.4966 577.363 58.6579 576.309 60.5979C575.212 62.617 574.316 65.3898 573.28 68.6004L573.166 68.9528C570.098 78.4513 562.887 79.8696 558.862 79.8696C554.836 79.8696 547.626 78.4513 544.557 68.9526L544.444 68.6004C543.407 65.3898 542.512 62.617 541.415 60.5979C540.36 58.6579 539.127 57.4964 537.673 57.0742V41.3527C537.673 40.5929 537.089 39.9769 536.37 39.9769C535.65 39.9769 535.066 40.5929 535.066 41.3527V67.9455C535.066 72.0205 531.925 75.3359 528.064 75.3359C524.203 75.3359 521.063 72.0205 521.063 67.9455C521.063 62.5289 523.985 54.6288 533.09 35.4334C536.787 27.6392 542.992 22.4155 551.533 19.9075C551.967 19.7802 552.308 19.4254 552.435 18.9692C553.265 15.9796 555.908 13.8914 558.862 13.8914C561.816 13.8914 564.459 15.9794 565.289 18.9692C565.416 19.4252 565.757 19.78 566.191 19.9075C574.732 22.4155 580.937 27.6392 584.634 35.4334C593.739 54.6288 596.661 62.5289 596.661 67.9455C596.661 72.0205 593.52 75.3357 589.659 75.3357Z" fill="#D6A443"/>
<path d="M221.255 69.0646H230.944M260.274 54.2727H249.847C249.126 54.2727 248.542 54.8251 248.542 55.5074V56.7421H246.695L242.032 49.0172V41.9503C242.032 41.2679 241.448 40.7156 240.726 40.7156H236.818C234.224 40.7156 232.91 42.3727 232.91 45.6462V55.5074H210.099C210.099 55.5074 210.099 55.5074 210.09 55.5074C207.573 55.5074 205.529 57.4407 205.529 59.8207C205.529 62.2007 207.573 64.134 210.09 64.134H220.336C220.053 64.6945 219.881 65.3199 219.881 65.9779C219.881 67.1882 220.414 68.2767 221.264 69.0565C220.414 69.8444 219.881 70.9329 219.881 72.1351C219.881 73.3373 220.414 74.4339 221.264 75.2137C220.414 76.0016 219.881 77.0901 219.881 78.2923C219.881 80.6723 221.925 82.6055 224.442 82.6055C224.45 82.6055 224.45 82.6055 224.459 82.6055H228.324C228.333 82.6055 228.341 82.6055 228.341 82.6055C228.358 82.6055 228.367 82.6055 228.375 82.6055H242.023H242.032C242.221 82.6055 242.401 82.5568 242.573 82.4837C242.581 82.4756 242.598 82.4837 242.607 82.4756L247.546 80.1362H248.542V81.3709C248.542 82.0532 249.126 82.6055 249.847 82.6055H260.274V54.2727Z" stroke="#D6A443" stroke-width="3" stroke-miterlimit="10" stroke-linecap="round"/>
<path d="M179.466 39.4889H189.893C190.614 39.4889 191.198 38.9366 191.198 38.2542V37.0196H193.045L197.708 44.7445V51.8114C197.708 52.4937 198.292 53.0461 199.014 53.0461H202.922C205.516 53.0461 206.83 51.389 206.83 48.1155V38.2542H229.642C229.642 38.2542 229.642 38.2542 229.65 38.2542C232.167 38.2542 234.211 36.321 234.211 33.941C234.211 31.5609 232.167 29.6277 229.65 29.6277H219.404C219.687 29.0672 219.859 28.4417 219.859 27.7838C219.859 26.5735 219.326 25.485 218.476 24.7052C219.326 23.9173 219.859 22.8288 219.859 21.6266C219.859 20.4244 219.326 19.3278 218.476 18.548C219.326 17.7601 219.859 16.6716 219.859 15.4694C219.859 13.0894 217.815 11.1561 215.298 11.1561C215.29 11.1561 215.29 11.1561 215.281 11.1561H197.717C197.7 11.1561 197.691 11.1643 197.674 11.1643C197.588 11.1643 197.511 11.1886 197.434 11.213C197.348 11.2292 197.253 11.2455 197.176 11.278C197.159 11.2861 197.15 11.278 197.142 11.2861L192.203 13.6255H191.207V12.3746C191.207 11.6923 190.623 11.1399 189.901 11.1399H179.466V39.4889Z" stroke="#D6A443" stroke-width="3" stroke-miterlimit="10"/>
<path d="M260.277 54.272V82.621" stroke="#D6A443" stroke-width="3" stroke-miterlimit="10"/>
<path d="M221.257 75.2302H230.945" stroke="#D6A443" stroke-width="3" stroke-miterlimit="10" stroke-linecap="round"/>
<path d="M220.337 64.1333H230.941" stroke="#D6A443" stroke-width="3" stroke-miterlimit="10" stroke-linecap="round"/>
<path d="M407.001 125H416.241V122.91H413.073V109.248H411.159C410.235 109.82 409.157 110.216 407.639 110.48V112.086H410.543V122.91H407.001V125ZM431.046 125.286C433.136 125.286 434.786 124.45 436.084 122.954L434.72 121.348C433.752 122.404 432.63 123.064 431.134 123.064C428.274 123.064 426.47 120.71 426.47 116.86C426.47 113.054 428.406 110.722 431.2 110.722C432.52 110.722 433.532 111.316 434.368 112.174L435.754 110.546C434.764 109.468 433.18 108.5 431.156 108.5C427.064 108.5 423.852 111.668 423.852 116.948C423.852 122.25 426.976 125.286 431.046 125.286ZM438.734 125H441.264V116.42C442.32 115.342 443.09 114.77 444.212 114.77C445.642 114.77 446.258 115.606 446.258 117.696V125H448.788V117.388C448.788 114.308 447.644 112.592 445.07 112.592C443.42 112.592 442.21 113.494 441.154 114.506L441.264 112.108V107.466H438.734V125ZM455.258 125.286C456.71 125.286 458.008 124.56 459.108 123.614H459.196L459.394 125H461.462V117.718C461.462 114.506 460.076 112.592 457.062 112.592C455.126 112.592 453.432 113.384 452.178 114.176L453.124 115.892C454.158 115.232 455.346 114.66 456.622 114.66C458.404 114.66 458.91 115.892 458.932 117.3C453.894 117.85 451.694 119.192 451.694 121.788C451.694 123.922 453.168 125.286 455.258 125.286ZM456.028 123.284C454.95 123.284 454.136 122.8 454.136 121.612C454.136 120.248 455.346 119.324 458.932 118.906V121.876C457.942 122.778 457.084 123.284 456.028 123.284ZM465.053 125H467.583V117.454C468.331 115.54 469.519 114.858 470.509 114.858C470.993 114.858 471.301 114.924 471.719 115.056L472.181 112.856C471.807 112.68 471.411 112.592 470.817 112.592C469.519 112.592 468.243 113.516 467.385 115.078H467.319L467.121 112.9H465.053V125ZM476.292 125.286C477.744 125.286 479.042 124.56 480.142 123.614H480.23L480.428 125H482.496V117.718C482.496 114.506 481.11 112.592 478.096 112.592C476.16 112.592 474.466 113.384 473.212 114.176L474.158 115.892C475.192 115.232 476.38 114.66 477.656 114.66C479.438 114.66 479.944 115.892 479.966 117.3C474.928 117.85 472.728 119.192 472.728 121.788C472.728 123.922 474.202 125.286 476.292 125.286ZM477.062 123.284C475.984 123.284 475.17 122.8 475.17 121.612C475.17 120.248 476.38 119.324 479.966 118.906V121.876C478.976 122.778 478.118 123.284 477.062 123.284ZM491.014 125.286C492.4 125.286 493.83 124.78 494.952 123.79L493.896 122.118C493.17 122.734 492.268 123.218 491.256 123.218C489.254 123.218 487.846 121.524 487.846 118.95C487.846 116.398 489.298 114.682 491.344 114.682C492.158 114.682 492.84 115.034 493.5 115.628L494.754 113.978C493.874 113.208 492.752 112.592 491.212 112.592C488.022 112.592 485.228 114.924 485.228 118.95C485.228 122.976 487.736 125.286 491.014 125.286ZM501.285 125.286C502.165 125.286 502.979 125.066 503.661 124.846L503.199 122.976C502.847 123.13 502.319 123.262 501.901 123.262C500.647 123.262 500.141 122.514 500.141 121.062V114.924H503.287V112.9H500.141V109.556H498.029L497.743 112.9L495.851 113.032V114.924H497.611V121.04C497.611 123.592 498.557 125.286 501.285 125.286ZM510.61 125.286C512.194 125.286 513.58 124.758 514.702 124.01L513.822 122.404C512.942 122.976 512.018 123.306 510.94 123.306C508.85 123.306 507.398 121.92 507.2 119.61H515.054C515.12 119.302 515.186 118.818 515.186 118.312C515.186 114.902 513.448 112.592 510.236 112.592C507.42 112.592 504.714 115.034 504.714 118.95C504.714 122.954 507.332 125.286 510.61 125.286ZM507.178 117.85C507.42 115.738 508.762 114.572 510.28 114.572C512.04 114.572 512.986 115.782 512.986 117.85H507.178ZM518.012 125H520.542V117.454C521.29 115.54 522.478 114.858 523.468 114.858C523.952 114.858 524.26 114.924 524.678 115.056L525.14 112.856C524.766 112.68 524.37 112.592 523.776 112.592C522.478 112.592 521.202 113.516 520.344 115.078H520.278L520.08 112.9H518.012V125Z" fill="#404040"/>
<path d="M463.81 63.286C466.736 63.286 469.354 60.998 469.354 57.038C469.354 53.056 466.736 50.746 463.81 50.746C460.884 50.746 458.266 53.056 458.266 57.038C458.266 60.998 460.884 63.286 463.81 63.286ZM463.81 61.614C461.742 61.614 460.356 59.788 460.356 57.038C460.356 54.288 461.742 52.418 463.81 52.418C465.878 52.418 467.286 54.288 467.286 57.038C467.286 59.788 465.878 61.614 463.81 61.614ZM472.51 63H474.512V55.322C475.304 53.276 476.536 52.572 477.526 52.572C478.01 52.572 478.296 52.616 478.692 52.77L479.066 51.01C478.692 50.812 478.318 50.746 477.79 50.746C476.448 50.746 475.238 51.714 474.402 53.232H474.336L474.16 51.054H472.51V63Z" fill="#404040"/>
<line x1="121.743" y1="46.3447" x2="147.981" y2="46.3447" stroke="#404040" stroke-width="2"/>
<line x1="121.743" y1="59.3413" x2="147.981" y2="59.3413" stroke="#404040" stroke-width="2"/>
<line x1="291.763" y1="52.6042" x2="318" y2="52.6042" stroke="#404040" stroke-width="2"/>
<line x1="303.882" y1="65.2083" x2="303.882" y2="42.0001" stroke="#404040" stroke-width="2"/>
<line x1="631" y1="52.6042" x2="657.238" y2="52.6042" stroke="#404040" stroke-width="2"/>
<line x1="643.119" y1="65.2083" x2="643.119" y2="42.0001" stroke="#404040" stroke-width="2"/>
<defs>
<clipPath id="clip0">
<rect width="68.2178" height="71.4812" fill="white" transform="translate(349.485 11.1399)"/>
</clipPath>
</defs>
</svg>
