<svg width="372" height="410" viewBox="0 0 372 410" fill="none" xmlns="http://www.w3.org/2000/svg">
<g opacity="0.8">
<path d="M130.758 224.368C134.075 209.378 140.975 201.091 151.685 198.792C157.258 196.501 160.131 190.125 163.004 183.75C166.216 176.302 170.455 172.822 176.39 177.497C179.845 183.704 180.607 193.011 186.867 195.76C188.104 198.159 188.39 200.858 187.727 203.856C187.161 205.643 186.113 207.153 184.937 208.167C169.816 210.89 157.501 223.671 144.431 234.329C143.383 235.84 141.965 236.715 140.419 237.094C136.475 236.942 133.564 234.426 131.105 230.48C130.351 228.357 130.079 226.512 130.758 224.368Z" fill="#F8AF5A"/>
<path d="M272.879 159.746C278.142 164.64 288.172 154.831 290.743 168.875C295.542 167.596 299.381 170.122 303.344 173.11C313.268 181.379 323.532 189.443 335.421 192.494C343.022 199.474 352.62 202.831 357.56 214.641C357.374 216.904 356.492 218.779 355.378 220.526C350.178 224.736 345.502 220.564 340.982 218.449C320.455 208.236 301.892 192.806 282.247 180.717C277.138 177.881 272.37 174.84 269.815 167.508C269.164 163.598 270.031 160.925 272.879 159.746Z" fill="#F89C2C"/>
<path d="M327.668 141.804C343.264 144.148 358.231 150.191 373.073 155.758C384.291 153.596 390.571 166.884 399.814 170.902C401.222 171.699 402.175 173.05 403.019 174.744C402.009 189.174 394.737 185.056 391.298 181.081C379.198 166.931 362.143 173.491 349.385 161.4C339.927 151.989 342.7 170.184 339.318 175.567C334.448 182.135 332.371 176.499 329.965 171.892C327.373 163.532 322.826 156.091 324.835 145.47C325.383 143.753 326.291 142.646 327.668 141.804Z" fill="#F8AE54"/>
<path d="M379.352 141.666C380.176 135.568 377.389 136.442 374.462 136.004C368.245 134.512 363.937 128.773 361.803 120.579C360.814 117.553 360.814 117.553 367.568 116.478C374.543 114.709 380.991 122.489 388.127 116.707C388.835 117.111 389.653 117.167 390.472 117.223C393.605 116.137 395.177 119.085 397.426 120.778C396.648 129.363 396.908 137.31 402.256 142.41C403.12 144.955 403.401 147.578 402.045 150.088C400.659 150.94 399.147 151.309 398.092 151.118C394.612 152.418 392.323 142.083 388.145 149.962C383.485 150.588 380.402 148.01 379.352 141.666Z" fill="#F8A94A"/>
<path d="M273.591 162.095C272.7 164.015 271.699 166.277 270.574 168.065C268.104 172.324 264.762 173.263 261.17 173.254C259.078 172.879 257.204 171.821 255.331 170.763C245.496 165.207 233.282 168.808 225.402 156.279C224.903 154.381 225.217 152.539 226.232 151.093C243.194 147.347 259.136 151.102 273.591 162.095Z" fill="#F9BC73"/>
<path d="M113.061 435.339C109.615 430.813 102.615 429.348 106.03 418.564C113.529 407.574 101.785 402.962 103.189 393.998C103.758 392.2 104.57 390.542 105.511 389.383C108.593 386.903 111.819 385.78 115.175 385.156C118.059 385.111 120.375 386.864 121.992 389.915C122.622 391.551 122.896 393.407 123.169 395.262C123.458 397.977 123.39 400.911 123.678 403.625C121.25 415.824 121.479 428.698 117.237 440.282C114.952 440.246 113.593 438.192 113.061 435.339Z" fill="#F9B768"/>
<path d="M98.004 333.026C93.386 318.431 99.0237 308.854 106.732 300.034C111.286 297.519 114.939 298.756 118.035 302.662C119.725 309.178 114.254 314.583 116.189 321.239C118.943 339.889 104.576 335.08 100.505 344.274C94.0782 343.583 99.2731 336.313 98.004 333.026Z" fill="#F7AB4F"/>
<path d="M225.892 153.084C225.557 154.139 225.112 155.547 224.777 156.602C227.358 162.653 232.466 165.164 235.158 170.863C236.378 173.224 236.66 175.88 236.007 178.831C235.449 180.589 234.654 182.212 233.383 183.562C230.015 186.204 226.714 185.975 223.621 184.203C222.431 183.522 221.241 182.84 220.163 181.807C218.974 181.125 217.895 180.091 216.817 179.058C213.947 176.582 211.077 174.106 209.24 170.144C208.117 166.591 207.93 162.744 210.584 159.692C214.814 152.556 219.423 146.884 225.892 153.084Z" fill="#F7AD53"/>
<path d="M210.918 161.747C210.612 164.503 210.417 166.904 210.111 169.66C210.38 171.49 210.298 173.537 209.976 175.446C209.416 177.218 208.376 178.716 207.336 180.213C203.738 184.43 199.744 186.326 195.226 185.408C191.059 184.273 187.693 181.503 185.239 176.745C182.485 155.061 193.945 159.963 201.725 157.727C205.719 155.832 208.255 158.544 210.918 161.747Z" fill="#FAC687"/>
<path d="M306.258 151.097C311.542 158.243 320.574 158.866 323.706 170.146C316.568 170.605 308.74 165.306 303.216 177.416C299.287 173.933 295.248 170.799 291.319 167.316C295.164 159.611 298.283 150.666 306.258 151.097Z" fill="#F9BA6E"/>
<path d="M118.764 302.132C114.959 302.474 111.139 301.965 107.867 298.824C106.385 289.128 112.912 281.082 111.431 271.386C112.265 271.444 112.634 272.077 113.002 272.71C117.627 271.574 121.237 273.647 123.944 278.571C123.952 285.736 123.366 292.981 124.209 300.204C122.584 302.641 120.93 303.375 118.764 302.132Z" fill="#FAC788"/>
<path d="M388.748 116.386C388.676 125.41 384.7 125.612 380.124 125.059C375.186 123.886 371.83 119.497 368.14 116.153C375.683 99.4453 382.064 109.271 388.748 116.386Z" fill="#FAC381"/>
<path d="M327.493 146.243C320.867 140.836 310.852 147.817 305.298 137.293C316.982 125.944 320.611 126.782 328.847 143.741C328.39 144.3 328.06 145.339 327.493 146.243Z" fill="#FBD7AB"/>
<path d="M106.457 393.162C104.899 391.851 103.23 390.893 101.433 389.446C99.2713 387.372 96.8709 385.161 94.7091 383.087C94.2539 377.404 96.0723 373.442 99.7022 371.771C101.118 371.749 102.423 372.08 103.504 373.117C104.585 374.154 105.204 375.76 105.822 377.366C105.949 377.856 106.315 378.482 106.568 379.462C107.202 381.911 107.836 384.359 108.119 387.024C108.134 387.867 108.149 388.71 107.926 389.416C107.478 390.828 106.793 392.103 106.457 393.162Z" fill="#FCE4C6"/>
<path d="M94.4321 362.448C91.4421 359.493 90.9074 355.873 92.9392 351.235C93.985 350.591 95.1571 350.433 96.3441 351.112C98.8442 352.958 101.122 355.504 103.051 358.266C104.743 360.892 105.737 363.947 105.686 367.646C105.464 368.348 105.13 369.4 104.908 370.101C103.751 371.096 102.579 371.254 101.392 370.575C97.7343 369.724 95.679 366.476 94.4321 362.448Z" fill="#FCE8CE"/>
<path d="M354.874 115.618C354.859 114.767 354.731 114.273 354.604 113.778C354.957 113.56 355.551 113.48 355.792 113.618C356.032 113.756 356.047 114.607 355.822 115.32C355.581 115.182 355.228 115.4 354.874 115.618Z" fill="#F7A544"/>
<path d="M142.107 230.227C142.421 228.372 142.266 226.25 143.05 224.661C146.738 216.585 158.903 227.148 158.696 209.541C166.593 209.14 174.303 204.974 182.12 206.561C186.398 205.328 189.342 207.405 191.751 212.026C197.256 226.944 207.467 232.331 217.787 237.373C235.845 245.991 249.636 262.764 261.748 283.058C251.634 295.622 248.578 274.772 241.447 278.861C242.996 280.96 247.289 280.549 249.904 283.659C253.347 287.646 256.322 291.367 251.445 297.955C247.227 302.477 242.51 305.088 237.167 305.311C232.029 304.023 226.497 306.578 221.14 305.979C210.974 303.058 203.116 292.906 193.405 289.43C190.227 287.22 187.503 284.454 184.998 280.999C181.164 274.757 176.061 269.014 176.914 258.517C171.285 243.121 162.878 234.69 149.684 237.78C148.29 237.802 146.895 237.824 145.721 237.158C143.717 235.614 142.512 233.304 142.107 230.227Z" fill="#F6941E"/>
<path d="M192.281 211.65C189.244 209.171 185.976 206.562 182.939 204.083C183.605 202.873 183.93 201.868 184.596 200.658C187.183 197.749 190.266 196.697 193.379 197.243C208.221 209.845 223.93 219.768 239.313 230.695C243.744 233.949 247.942 237.075 252.915 238.655C265.323 244.371 278.29 249.211 290.157 256.602C297.809 260.068 306.345 261.653 310.699 272.769C313.503 281.048 322.039 282.634 323.279 293.203C321.158 302.299 316.417 300.848 312.126 298.857C307.944 296.53 304.411 292.194 299.795 291.208C297.827 290.509 295.968 289.475 294.218 288.106C286.827 274.51 276.728 287.073 267.96 285.358C267.124 283.707 266.628 281.851 266.24 279.659C252.468 262.909 238.478 246.829 220.941 237.471C210.252 231.525 199.005 226.456 192.281 211.65Z" fill="#FA9822"/>
<path d="M192.585 198.864C190.384 198.832 188.417 198.932 186.325 198.558C186.061 196.794 185.906 194.689 185.407 192.793C185.316 187.898 177.791 188.089 180.792 181.308C183.136 176.577 186.569 180.534 189.597 181.436C191.923 181.942 194.045 183.948 196.34 182.822C199.432 180.936 202.634 178.708 205.835 176.479C206.413 176.402 206.756 176.192 207.443 175.773C207.912 176.038 208.38 176.302 208.848 176.566C210.268 178.175 211.922 179.916 213.795 180.974C214.731 181.503 215.543 181.557 216.589 181.744C217.525 182.273 218.93 183.066 220.194 182.57C221.116 182.283 222.037 181.996 222.958 181.709C225.986 182.611 228.78 183.382 231.574 184.152C233.073 183.788 234.243 184.449 235.195 185.793C238.919 199.197 252.972 195.024 256.368 209.453C248.365 227.536 242.942 209.944 235.277 208.845C234.417 212.395 238.925 218.17 233.538 221.182C221.486 220.834 212.171 211.941 203.074 202.365C199.767 198.883 197.365 194.298 192.585 198.864Z" fill="#F89824"/>
<path d="M196.831 184.651C192.206 188.628 187.795 184.862 182.858 184.521C183.978 188.059 184.86 191.461 185.743 194.864C179.145 193.572 175.527 188.19 176.867 177.782C177.437 176.866 178.008 175.951 178.579 175.036C180.603 176.608 182.612 177.343 185.035 175.005C188.972 178.499 192.783 181.508 196.831 184.651Z" fill="#F6A33F"/>
<path d="M139.816 241.398C136.734 238.024 131.393 238.247 132.057 230.089C135.124 232.641 138.192 235.194 141.259 237.746C141.29 239.389 140.85 240.765 139.816 241.398Z" fill="#F39B33"/>
<path d="M139.569 241.089C140.019 239.667 140.597 238.738 141.047 237.315C141.737 236.03 142.075 234.963 142.765 233.679C144.333 234.999 145.902 236.32 147.357 237.996C147.98 239.615 147.418 241.393 146.487 242.54C144.852 244.122 143.073 244.362 141.407 244.246C140.094 243.912 139.246 243.005 138.864 241.525L139.569 241.089Z" fill="#F89F36"/>
<path d="M132.657 447.351C132.476 450.64 132.165 453.431 131.984 456.721C131.287 458.017 130.946 459.094 130.248 460.391C121.45 458.312 122.161 444.299 116.764 437.809C113.899 425.137 119.688 413.188 119.831 400.969C128.356 401.195 126.372 411.084 127.464 418.498C127.29 429.002 128.784 438.767 132.657 447.351Z" fill="#F6A94C"/>
<path d="M256.492 167.511C258.119 168.417 259.638 169.659 261.498 170.695C272.502 174.843 280.655 186.112 290.419 191.549C287.707 188.06 280.624 190.449 283.057 179.533C298.912 184.8 311.838 199.122 326.826 207.072C335.893 212.121 344.634 218.176 354.336 220.412C360.164 230.386 353.763 232.364 348.881 235.582C343.829 235.935 338.73 233.888 333.615 236.977C325.727 239.313 319.232 236.488 312.211 230.204C297.921 216.705 283.615 202.406 266.784 194.22C259.577 190.207 252.711 185.988 247.828 177.332C245.983 165.222 252.849 169.441 256.492 167.511Z" fill="#FC9A24"/>
<path d="M337.539 174.245C338.217 166.919 333.387 156.879 339.931 152.877C345.677 149.64 352.481 153.495 357.015 160.122C358.454 162.56 358.544 167.48 361.425 166.272C375.231 159.486 384.504 171.232 394.749 179.066C397.69 181.138 400.21 179.32 402.481 176.548C414.316 169.863 420.095 187.339 430.329 188.268C434.787 190.794 440.483 191.181 440.884 200.336C433.898 211.797 425.855 210.08 418.097 204.873C411.167 200.541 405.694 193.382 398.231 191.589C388.716 191.879 382.653 177.893 372.165 182.096C366.526 191.074 361.171 196.561 357.973 180.547C357.068 175.571 353.673 174.053 351.217 173.067C356.97 182.819 359.997 195.896 365.421 206.679C363.46 213.684 360.3 212.299 357.124 210.094C348.787 204.964 340.998 198.117 333.773 190.371C332.195 186.637 331.9 183.223 335.578 181.25C338.553 178.877 339.447 176.949 337.539 174.245Z" fill="#F59726"/>
<path d="M338.022 178.209C340.506 180.829 343.883 181.525 345.24 185.937C343.422 194.221 334.472 180.654 334.37 193.958C321.534 196.008 312.739 184.553 302.738 176.87C304.783 155.757 304.783 155.757 322.784 169.587C325.348 170.227 328.146 171.001 330.709 171.641C333.084 174.605 332.876 182.18 338.022 178.209Z" fill="#F59E36"/>
<path d="M355.609 213.016C358.204 211.986 361.039 211.093 363.633 210.063C371.545 207.465 377.754 209.35 379.292 222.413C377.576 239.487 368.787 239.481 360.125 239.968C355.723 239.54 351.096 239.824 348.381 234.065C348.126 233.079 347.871 232.092 347.616 231.106C351.111 227.233 356.54 225.31 354.132 216.788C354.582 215.366 355.272 214.082 355.609 213.016Z" fill="#FCA132"/>
<path d="M283.959 179.044C283.521 186.404 289.637 186.235 291.875 194.698C281.297 184.754 267.945 186.865 261.975 170.301C264.232 167.566 266.862 166.24 269.772 167.474C274.688 171.035 279.386 175.274 283.959 179.044Z" fill="#F89927"/>
<path d="M184.989 281.455C188.051 283.997 191.348 286.672 194.301 289.556C194.675 290.983 194.346 292.011 194.017 293.039C193.454 293.935 193 294.488 193 294.488C182.555 300.318 178.483 287.085 171.685 283.239C173.512 287.915 181.171 288.201 178.226 298.274C173.535 301.691 169.879 298.409 166.004 295.812C162.941 293.27 160.098 290.042 157.709 286.262C154.556 278.811 148.711 276.314 143.868 271.55C139.494 267.051 135.119 262.553 135.297 253.343C135.735 251.972 136.298 251.076 136.971 249.838C137.769 249.075 138.223 248.522 139.02 247.758C140.631 247.05 142.022 247.028 143.647 247.138C145.164 247.591 146.68 248.044 148.086 248.839C160.914 258.93 175.854 264.144 184.989 281.455Z" fill="#F69622"/>
<path d="M135.375 254.95C141.246 263.611 146.66 272.831 155.805 275.581C159.088 276.632 159.163 280.767 158.657 284.98C158.076 285.058 157.384 285.483 156.802 285.561C147.282 281.369 137.571 279.524 127.274 283.892C125.986 283.568 125.028 282.204 124.762 280.416C121.088 277.097 117.303 274.124 113.863 270.939C120.015 262.983 126.151 254.2 135.375 254.95Z" fill="#F69F36"/>
<path d="M138.687 242.081C139.648 242.633 140.609 243.185 141.811 243.875C141.826 244.725 142.194 245.357 142.209 246.206C141.421 248.698 140.377 250.201 138.74 251.785L138.116 250.165C132.477 247.348 136.472 244.595 138.687 242.081Z" fill="#FBD5A9"/>
<path d="M257.601 168.898C255.509 174.562 251.3 172.189 248.57 174.676C242.751 179.044 238.466 172.603 233.476 171.803C228.675 168.694 225.792 163.044 224.735 156.008C235.273 162.753 247.281 161.471 257.601 168.898Z" fill="#F89C2C"/>
<path d="M120.035 393.853C120.467 392.521 121.132 391.318 121.456 390.319C121.301 388.268 121.61 386.475 122.383 384.938C123.387 383.53 124.748 382.712 126.124 382.688C131.32 384.385 135.991 388.543 141.203 391.035C152.865 400.634 164.511 409.439 177.379 416.169C194.392 429.516 212.595 439.2 230.381 451.011C233.18 453.346 235.531 456.219 236.646 460.372C237.033 462.551 236.384 464.549 235.039 466.162C217.272 466.935 202.671 453.744 186.263 447.804C177.448 442.924 169.189 437.173 160.265 432.626C152.006 426.875 144.072 420.125 136.137 413.376C129.626 408.985 125.109 400.984 120.035 393.853Z" fill="#FDAD4C"/>
<path d="M119.948 395.368C126.362 400.677 132.665 406.335 138.843 411.509C139.974 415.86 140.633 419.942 136.104 421.885C132.256 422.57 128.628 422.557 125.414 419.487C123.669 413.55 126.548 404.489 120.748 400.765C120.481 398.966 120.215 397.167 119.948 395.368Z" fill="#E8922A"/>
<path d="M124.296 387.647C123.721 388.571 123.273 389.986 122.586 391.263C120.421 389.185 117.905 387.324 115.501 385.109C115.486 384.264 115.471 383.42 115.456 382.575C115.68 381.868 116.143 381.298 116.367 380.591C116.829 380.02 117.18 379.804 117.882 379.371C118.935 378.721 120.114 378.562 121.294 378.403C122.361 378.598 123.205 379.5 124.049 380.402C124.684 382.855 123.9 385.331 124.296 387.647Z" fill="#F7AF57"/>
<path d="M115.567 385.864C113.399 390.921 110.676 391.459 107.54 388.818C109.167 380.089 111.635 378.565 115.567 385.864Z" fill="#F8A84A"/>
<path d="M99.5689 342.291C102.954 336.03 103.687 324.981 112.378 328.293C113.903 328.751 111.816 323.059 112.574 319.805C116.937 309.596 121.556 313.454 126.411 317.447C133.597 334.234 146.31 340.655 157.339 350.62C159.3 355.832 159.044 361.009 156.335 366.019C153.487 369.72 150.688 369.764 147.734 367.672C138.231 358.166 127.734 351.779 116.009 348.377C114.153 348.959 112.062 349.406 110.081 349.506C107.864 349.472 105.065 349.516 102.598 348.521C100.712 347.447 99.3933 345.467 98.7665 343.063L99.5689 342.291Z" fill="#F4931F"/>
<path d="M126.361 320.195C122.517 316.325 118.465 314.002 113.722 319.198C107.196 310.457 118.137 308.814 117.667 302.295C118.956 301.784 120.371 301.762 121.659 301.251C125.808 302.38 129.383 304.43 132.177 308.948C133.362 315.877 132.022 320.108 126.361 320.195Z" fill="#F7A138"/>
<path d="M232.417 172.207C238.611 164.931 242.15 175.26 247.101 175.243C254.009 181.092 261.149 187.071 268.056 192.919C279.434 197.687 288.172 208.934 298.68 216.397C303.46 225.432 297.468 225.265 294.131 225.388C285.376 225.267 277.786 219.833 270.413 213.724C269.575 212.062 268.395 210.608 267.449 209.283C257.189 196.789 243.483 190.72 233.674 177.681C233.177 175.813 232.913 174.075 232.417 172.207Z" fill="#F18F19"/>
<path d="M233.754 178.455C248.47 183.884 261.076 193.29 270.829 209.826C256.61 206.259 244.159 198.922 234.437 183.989L232.917 182.745L231.863 181.761C232.529 180.547 233.088 179.669 233.754 178.455Z" fill="#F79622"/>
<path d="M207.88 172.285C208.561 171.022 208.894 169.973 209.574 168.71C212.669 171.305 215.89 174.386 218.985 176.981C219.282 180.455 218.268 182.766 215.707 183.78C213.227 182.776 210.954 180.237 208.57 178.048L208.681 177.698C208.303 176.243 208.384 174.225 207.88 172.285Z" fill="#F8AC52"/>
<path d="M215.63 183.633C216.657 181.286 217.683 178.938 218.949 176.727C219.556 177.495 220.515 178.046 221.122 178.814C221.632 180.785 221.902 182.618 222.172 184.451C219.594 186.329 217.676 185.227 215.63 183.633Z" fill="#F7A33E"/>
<path d="M221.901 184.166C221.63 182.326 221.359 180.485 220.848 178.506C221.698 179.416 222.66 179.968 223.51 180.878C223.172 181.947 222.593 182.879 221.901 184.166Z" fill="#F8AD55"/>
<path d="M207.982 172.57C208.253 174.416 208.525 176.262 208.797 178.107C207.831 177.553 207.22 176.78 206.368 175.868C206.949 174.934 207.529 174 207.982 172.57Z" fill="#FAC280"/>
<path d="M131.92 308.437C128.59 305.708 123.914 306.337 122.277 300.036C122.691 296.97 121.603 295.11 120.404 293.599C114.172 285.909 119.528 284.018 123.827 281.934C124.774 282.476 125.61 283.367 126.321 283.773C130.413 283.222 134.061 284.069 137.85 286.234C141.417 289.099 143.371 293.518 143.95 299.627C144.135 303.448 143.611 306.863 141.917 310.436C141 311.562 139.609 312.418 138.44 312.576C135.739 312.27 133.386 311.751 131.92 308.437Z" fill="#F6A33F"/>
<path d="M115.741 385.842C112.371 383.068 109.779 384.097 107.614 389.146C105.569 387.553 103.989 385.387 104.633 381.562C106.348 377.932 108.19 374.795 111.629 374.671C114.73 375.613 116.902 377.699 117.457 382.212C116.767 383.494 116.43 384.559 115.741 385.842Z" fill="#F9BC71"/>
<path d="M110.491 376.138C109.243 379.189 107.867 381.748 105.138 381.437L104.899 381.3C104.63 379.471 104.361 377.642 104.331 375.951C103.374 375.402 102.529 374.498 101.684 373.595C102.259 372.67 102.708 371.253 102.566 369.916L103.635 370.111C107.291 369.279 109.459 371.36 110.491 376.138Z" fill="#FCDBB5"/>
<path d="M104.213 376.081C104.244 377.805 104.519 379.668 104.794 381.531C104.519 379.668 104.244 377.805 104.213 376.081Z" fill="#FCE9D2"/>
<path d="M104.704 365.949C103.033 364.171 101.821 361.831 102.345 358.423C103.623 357.917 104.901 357.411 106.054 356.422L106.29 356.557C108.5 355.759 110.377 356.007 112.158 357.436C114.539 359.619 116.113 362.579 115.494 367.168C112.303 371.937 109.545 368.302 106.596 367.03C105.887 366.625 105.414 366.355 104.704 365.949Z" fill="#F8B35F"/>
<path d="M110.487 375.529C108.364 373.522 106.242 371.515 103.775 369.718C104.104 368.692 104.198 367.534 104.292 366.375L105.792 366.011C110.475 368.656 116.284 369.515 119.419 376.132C120.043 378.504 119.495 380.214 117.667 381.605C115.201 379.807 112.844 377.668 110.487 375.529Z" fill="#F8B35F"/>
<path d="M234.541 298.838C238.974 300.534 242.333 294.359 246.267 294.159C248.453 293.375 249.983 294.642 251.527 296.725C253.381 303.019 256.282 309.499 261.888 305.804C276.879 296.108 286.38 308.736 294.743 316.284C291.311 312.328 290.922 310.09 292.05 302.252C299.355 302.745 305.129 308.023 311.778 310.566C319.314 317.243 327.477 320.238 336.625 320.157C337.796 320.818 338.857 321.82 339.465 323.374C340.225 333.085 335.26 333.914 330.545 335.691C328.702 336.265 327.562 337.236 329.28 336.188C329.529 337.136 330.013 338.216 330.84 339.086C331.557 340.298 331.931 341.72 332.196 343.484C331.648 345.193 330.867 346.769 329.727 347.74C315.408 356.201 304.204 345.436 292.5 338.827C284.774 334.465 278.05 327.843 268.838 330.713C260.596 329.692 251.822 331.195 244.519 324.65C240.603 319.614 235.219 316.574 231.866 310.645C228.762 305.664 227.157 300.318 234.541 298.838Z" fill="#FDAA48"/>
<path d="M192.107 212.841C214.963 233.948 241.45 246.356 264.089 268.136C268.899 272.808 273.802 276.341 268.231 285.943C264.568 287.076 262.458 285.103 261.217 280.437C254.778 274.855 248.571 269.402 243.234 261.257C236.003 250.465 226.538 243.193 215.878 239.624C206.381 236.704 199.414 227.649 191.004 221.363C186.799 218.22 190.089 215.687 192.107 212.841Z" fill="#F08E18"/>
<path d="M185.718 279.992C173.554 266.314 156.96 262.999 144.344 249.87C144.08 248.114 143.597 247.039 143.115 245.964C143.099 245.151 143.084 244.339 142.96 243.867C143.397 242.506 144.067 241.277 145.22 241.122C145.891 239.893 146.218 238.872 146.889 237.642C147.824 238.168 148.415 238.903 149.241 239.77C161.941 238.884 169.899 250.194 178.745 259.594C177.651 269.022 184.88 272.288 185.718 279.992Z" fill="#ED9020"/>
<path d="M179.241 258.819C166.857 258.683 159.766 244.616 149.584 238.471C151.598 234.774 153.566 228.634 157.09 231.426C165.774 237.935 174.241 245.125 182.254 252.866C183.205 254.207 180.599 257.168 179.241 258.819Z" fill="#EE8D18"/>
<path d="M259.978 281.574C262.456 283.39 264.588 285.417 267.065 287.233C265.94 302.092 261.261 307.183 252.152 299.152C250.615 297.871 249.189 296.244 247.417 294.83C249.349 292.257 252.567 290.007 248.538 286.086C244.509 282.165 239.474 280.527 236.686 274.456C245.804 270.257 251.41 284.047 259.978 281.574Z" fill="#FC9A25"/>
<path d="M234.575 302.16C232.634 304.754 229.512 306.673 233.448 310.975C238.093 315.682 245.122 316.403 246.358 326.567C241.958 328.991 237.61 327.744 233.276 327.327C232.094 326.653 230.913 325.978 229.842 324.956C226.489 320.575 222.457 317.452 219.562 312.51C218.461 309.826 218.18 307.198 220.121 304.604C224.963 300.787 229.709 298.149 234.575 302.16Z" fill="#F69F39"/>
<path d="M220.864 306.267C221.129 308.029 221.393 309.791 221.548 311.895C211.9 322.174 207.21 306.626 200.002 304.978C198.722 304.659 197.318 303.867 196.258 302.865C192.857 300.543 190.939 297.042 191.988 291.182C192.659 289.949 192.988 288.924 193.659 287.691C203.566 291.265 212.051 299.278 220.864 306.267Z" fill="#F7951F"/>
<path d="M340.381 320.335C339.446 319.809 338.854 319.074 338.029 318.208C328.994 317.139 320.722 313.689 312.233 310.919C304.802 309.147 297.902 304.862 291.891 298.668C289.928 298.768 288.308 298.659 286.439 297.607C282.342 294.9 280.521 290.261 282.129 283.535C285.031 271.916 289.871 283.475 293.409 281.049C294.935 282.309 296.461 283.57 297.988 284.83C308.704 289.255 316.925 302.315 328.985 298.26C328.129 295.77 321.803 297.431 321.323 290.333C316.589 284.456 308.722 284.045 306.67 273.251C312.452 267.269 317.155 271.522 321.843 274.964C324.428 277.222 326.905 279.82 328.929 282.967C338.053 294.93 349.532 302.996 359.998 312.5C364 316.359 369.016 318.78 370.431 326.404C368.557 337.397 362.528 336.414 357.403 334.333C350.768 331.803 344.35 328.593 340.381 320.335Z" fill="#FEB152"/>
<path d="M233.659 218.988C233.943 209.514 227.06 206.043 224.586 197.426C232.873 195.666 236.967 204.392 242.807 207.677C246.778 209.911 250.249 216.28 254.831 208.02C262.309 206.205 266.511 214.591 272.024 218.896C272.973 220.234 273.58 221.779 273.969 224.005C272.689 229.708 269.637 227.188 267.426 226.345C270.12 228.262 273.36 228.479 275.508 232.096C277.357 244.376 290.504 242.941 290.779 257.546C278.195 252.072 265.721 246.258 253.246 240.444C247.315 232.291 237.019 231.716 233.659 218.988Z" fill="#F6951F"/>
<path d="M293.369 284.294C290.869 288.643 286.376 279.884 284.299 288.189C281.445 298.94 290.767 296.014 291.819 302.393C292.694 311.973 301.285 313.994 301.968 325.941C296.492 321.16 291.807 314.768 286.627 313.458C279.569 311.9 273.535 295.657 263.757 312.356C261.147 317.055 253.287 310.087 249.328 304.935C246.456 301.643 250.17 299.638 251.42 297.463C258.494 299.855 263.332 295.191 266.326 285.759C267.732 285.737 270.085 286.257 270.418 285.209C278.729 265.196 286.109 278.081 293.369 284.294Z" fill="#FDAE4E"/>
<path d="M233.703 221.044C239.809 228.334 249.806 229.546 253.024 241.511C234.85 232.648 216.429 222.865 200.972 206.492C198.159 203.371 195.578 200.378 192.024 200.374C193.102 191.174 196.039 194.756 199.3 197.34C210.258 206.527 221 216.379 233.703 221.044Z" fill="#F08F19"/>
<path d="M289.765 256.523C286.628 249.186 280.927 246.393 275.677 243.055C271.949 240.968 272.586 238.136 273.892 234.084C289.132 235.44 300.579 249.422 314.622 254.494C319.531 258.039 323.321 263.349 324.966 271.047C324.919 274.608 324.281 277.44 321.656 278.76C317.664 274.931 313.454 271.777 308.281 272.468C305.502 259.752 294.751 264.097 289.765 256.523Z" fill="#F4911B"/>
<path d="M321.489 290.862C325.345 294.191 329.311 297.185 333.756 301.236C315.93 300.41 315.93 300.41 298.287 285.468C304.095 282.773 306.976 289.114 311.282 291.902C314.891 294.304 318.175 297.709 321.489 290.862Z" fill="#FDAE4E"/>
<path d="M274.171 222.705C267.861 217.602 261.891 212.293 255.58 207.19C251.146 203.925 247.27 199.782 242.075 198.869C236.416 197.696 232.881 193.347 233.857 184.379C244.789 196.418 258.883 199.518 270.248 210.213C269.892 215.564 278.73 214.545 274.171 222.705Z" fill="#F18F19"/>
<path d="M208.368 178.406C211.865 177.935 214.352 179.765 215.482 184.106C211.211 187.011 209.071 184.969 208.368 178.406Z" fill="#F7A33E"/>
<path d="M145.742 241.862C145.404 242.929 144.827 243.858 144.377 245.281C142.966 246.152 142.006 245.6 141.256 243.488L141.608 243.271C143.146 242.893 144.444 242.378 145.742 241.862Z" fill="#F39B33"/>
<path d="M334.034 232.127C339.077 223.287 342.693 230.967 346.67 233.21L346.56 233.551C348.739 244.853 356.195 247.446 362.417 252.164C377.668 263.184 395.824 268.59 405.064 292.335C400.161 302.462 394.063 298.217 388.136 296.889C380.665 293.481 374.069 287.343 368.035 280.314C361.223 268.816 351.304 264.43 343.727 255.321C340.002 247.983 331.158 245.412 334.034 232.127Z" fill="#F7A74C"/>
<path d="M335.212 234.537C336.314 243.944 344.399 244.482 346.061 253.005C346.355 256.366 345.142 259.281 343.105 261.335C333.728 265.665 327.246 258.435 320.328 252.559C315.916 238.898 304.054 233.844 300.201 219.299C289.179 209.923 278.282 201.016 267.494 191.77C272.859 188.786 276.076 194.186 279.713 197.424C292.398 209.331 306.732 216.969 318.094 232.129C322.477 238.183 329.631 232.206 335.212 234.537Z" fill="#F7951F"/>
<path d="M378.623 219.193C376.483 209.672 368.713 212.477 364.588 207.401C360.153 204.134 356.849 199.913 354.756 192.797C352.771 185.345 350.988 176.419 344.381 173.925C342.288 172.757 341.667 170.428 342.769 167.87C343.203 166.526 345.141 165.624 346.289 165.471C352.043 165.507 361.75 179.645 362.029 188.129C365.922 187.127 368.62 183.873 370.838 179.557C384.61 177.72 392.394 193.561 403.452 200.124C420.216 210.266 438.763 217.437 451.015 238.149C448.44 247.817 447.199 249.108 440.748 242.735C431.133 233.407 420.433 227.44 409.732 221.472C406.243 219.526 402.97 216.909 400.458 223.835C392.549 231.322 386.842 221.794 380.034 220.774C379.677 220.178 379.32 219.583 378.623 219.193Z" fill="#F59420"/>
<path d="M451.961 240.709C435.712 219.897 414.856 209.911 395.097 197.385C386.958 192.086 379.67 183.324 371.19 178.231C370.2 174.533 367.893 168.139 373.695 171.355C381.478 176.063 388.163 183.31 396.811 185.349C404.998 198.938 417.484 203.498 428.733 209.339C441.141 215.824 448.339 231.618 462.139 232.971C459.99 240.438 456.184 239.509 454.406 242.458C453.153 242.944 452.224 242.429 451.961 240.709Z" fill="#F08F1A"/>
<path d="M388.939 291.169C393.506 288.114 398.381 295.28 402.997 288.635C405.819 284.999 408.827 285.085 409.995 285.743C395.693 275.279 380.847 260.489 364.785 248.631C360.797 245.582 356.918 242.192 355.97 234.826C362.859 232.274 371.6 235.991 374.692 222.057C376.874 221.276 378.291 222.878 379.833 224.952C379.219 241.486 388.661 245.597 396.513 251.224C407.294 258.903 418.964 264.67 426.408 279.311C434.194 293.742 446.783 299.224 457.128 308.264C470.418 314.14 483.491 320.697 496.251 329.087C497.544 330.217 498.494 331.556 499.335 333.235C504.535 345.407 515.085 346.927 522.406 355.068C527.484 360.741 535.151 362.646 536.517 373.865C532.588 380.093 528.709 376.703 524.969 374.597C508.719 365.045 491.471 357.744 475.657 346.83C465.547 337.922 454.22 331.946 443.345 325.421C441.241 324.236 438.172 320.901 437.733 328.289C442.108 339.594 451.614 340.928 457.766 348.411C461.551 352.954 467.831 354.882 465.941 365.072C459.192 368.907 454.457 363.026 449.409 358.978C433.441 345.967 418.252 331.386 401.395 320.287C398.531 309.431 388.045 305.134 388.939 291.169Z" fill="#FDAA46"/>
<path d="M357.616 237.024C380.044 255.811 402.472 274.597 426.062 294.03C417.281 297.442 411.487 289.087 404.146 289.746C388.905 274.164 372.672 260.796 354.349 252.191C350.167 249.866 340.565 246.503 346.727 232.551C350.011 235.956 353.821 236.889 357.616 237.024Z" fill="#FEB459"/>
<path d="M166.61 290.942C170.11 292.908 172.645 298.734 177.547 295.483C185.235 292.994 190.352 301.071 197.073 302.444C205.895 304.996 211.836 313.937 219.552 319.07C221.027 329.907 214.29 327.725 210.415 330.353C195.167 329.796 183.734 317.371 171.756 306.642C168.785 302.171 163.091 300.175 166.61 290.942Z" fill="#F7951F"/>
<path d="M166.932 292.786C166.957 300.612 171.873 300.95 174.864 304.712C176.859 311.606 174.933 315.03 169.781 314.557C165.684 314.275 161.763 310.805 157.269 314.408C152.177 317.258 146.818 318.312 146.874 308.477C146.975 301.134 141.772 304.332 140.989 299.774C141.009 294.441 138.491 290.948 137.014 286.816C143.816 275.074 150.536 284.664 157.438 284.902C160.524 287.485 163.846 290.203 166.932 292.786Z" fill="#F3921E"/>
<path d="M197.79 301.786C190.348 303.583 184.069 300.083 178.333 294.905C174.503 287.223 166.658 286.021 162.999 275.264C174.565 278.54 180.937 292.79 192.317 292.396C194.1 295.371 195.775 298.682 197.79 301.786Z" fill="#F2901B"/>
<path d="M141.065 243.67C142.044 244.23 143.023 244.79 144.361 245.129L143.772 246.073C144.162 247.578 143.933 248.301 143.459 248.883C142.985 249.466 142.626 249.688 142.381 249.547C141.059 250.072 139.736 250.596 138.544 251.621C139.46 248.73 140.263 246.2 141.065 243.67Z" fill="#F9BB71"/>
<path d="M142.31 249.342C142.649 248.27 143.343 246.978 143.683 245.905C145.132 246.737 145.403 248.583 144.611 251.086C143.759 250.174 143.034 249.758 142.31 249.342Z" fill="#FAC585"/>
<path d="M158.149 285.112C151.305 285.701 144.461 286.29 137.852 287.013C132.917 290.31 130.258 284.738 126.846 282.397C138.254 270.986 148.571 276.023 158.149 285.112Z" fill="#F69622"/>
<path d="M176.075 419.086C161.749 413.035 149.512 401.337 137.181 390.79C137.759 384.695 141.171 381.799 144.225 378.3C147.512 374.933 151.142 371.357 154.537 373.667C171.493 384.408 192.315 385.687 204.19 408.818C205.153 416.983 214.574 420.276 209.82 431.646C202.031 435.291 197.253 426.985 191.196 424.381C186.415 422.093 182.056 417.635 176.075 419.086Z" fill="#FAA644"/>
<path d="M225.727 442.569C225.03 448.114 230.345 449.49 229.648 455.035C211.487 443.346 192.443 433.538 175.15 419.166C182.789 409.969 188.584 418.337 194.736 421.365C199.617 424.082 202.639 431.697 209.364 428.715C217.499 427.309 223.217 431.678 225.727 442.569Z" fill="#EA9735"/>
<path d="M145.275 384.711C142.997 387.498 140.484 390.152 138.206 392.939C133.294 391.779 129.499 387.988 126.034 383.161C124.762 383.663 124.056 383.261 124.026 381.611C122.96 380.597 122.128 379.716 121.187 379.181C120.261 379.471 119.555 379.069 119.179 377.631C114.678 373.439 110.177 369.247 105.786 364.71C109.225 361.767 111.278 365.791 113.631 367.129C120.24 365.58 127.145 367.464 133.568 362.135C137.303 362.626 140.142 365.057 142.305 368.736C144.373 373.585 149.33 377.22 145.275 384.711Z" fill="#F49828"/>
<path d="M123.496 382.367C124.223 382.784 124.95 383.201 125.45 384.336C125.109 385.412 124.769 386.489 124.186 387.426C123.913 385.573 123.64 383.721 123.496 382.367Z" fill="#F9BE78"/>
<path d="M118.844 378.584C119.562 378.996 120.279 379.407 120.884 380.173C119.592 380.686 118.65 380.983 117.358 381.496C117.694 380.434 118.269 379.509 118.844 378.584Z" fill="#FAC280"/>
<path d="M144.959 381.537C145.766 375.636 140.104 374.461 140.911 368.559C141.392 363.667 142.354 359.837 146.341 363.65C148.326 365.155 150.421 366.324 152.794 364.076C166.663 367.053 179.244 374.868 192.694 379.993C194.091 380.772 195.487 381.551 196.774 382.667C202.591 391.868 211.977 395.121 216.786 405.745C217.437 409.681 216.568 412.372 214.66 414.88C210.921 417.954 207.446 416.808 204.716 412.506C192.446 390.969 171.828 390.181 156.377 376.794C151.351 372.798 148.992 381.803 144.959 381.537Z" fill="#F09C3B"/>
<path d="M193.744 382.379C179.306 379.487 165.2 375.55 153.388 362.636C155.536 358.514 155.225 354.221 155.497 349.851C157.112 342.132 161.558 342.201 165.626 340.82C167.029 340.798 168.322 341.125 169.725 341.103C174.784 342.756 179.606 344.274 184.665 345.927C193.129 348.289 192.54 354.536 187.424 362.725C182.716 374.027 194.635 373.424 193.744 382.379Z" fill="#FEAC4A"/>
<path d="M166.406 344.367C163.297 346.273 160.078 348.525 156.859 350.776C143.616 346.105 131.709 338.111 125.54 319.093C128.524 316.707 130.096 313.519 130.241 308.703C132.454 308.737 134.321 308.982 136.534 309.016C137.751 318.28 142.693 321.089 147.87 324.032C155.401 328.313 163.842 331.48 166.406 344.367Z" fill="#F69724"/>
<path d="M147.152 365.128C144.49 364.834 143.151 367.286 141.703 370.078C138.653 367.564 135.37 364.918 132.32 362.403C123.105 363.636 116.772 358.476 113.772 346.375C114.333 345.488 115.454 343.715 115.687 343.846C127.094 348.652 139.716 350.535 147.152 365.128Z" fill="#ED8D1A"/>
<path d="M113.489 347.093C119.776 352.724 125.937 357.874 132.224 363.505C131.371 367.937 132.671 375.235 126.444 372.917C122.214 371.327 117.668 371.606 114.085 367.106C114.482 363.233 112.816 361.465 110.914 359.561C110.729 355.767 108.797 352.207 109.65 347.775C111.05 347.753 112.325 347.25 113.489 347.093Z" fill="#F69F37"/>
<path d="M110.059 348.269C112.351 351.651 113.946 355.464 111.329 360.179C109.779 358.877 108.228 357.576 106.678 356.274C107.189 352.011 105.275 350.087 103.473 347.813C105.898 345.473 107.811 347.397 110.059 348.269Z" fill="#FBD3A4"/>
<path d="M300.052 220.182C308.685 225.028 313.738 235.866 320.799 243.03C322.914 245.018 322.057 248.538 320.967 251.927C319.598 252.759 317.871 252.99 316.362 252.543C301.306 243.691 283.618 242.165 273.419 221.636C274.463 215.821 268.785 214.634 269.595 208.688C279.612 213.51 287.901 224.564 300.052 220.182Z" fill="#ED8A14"/>
<path d="M166.437 342.448C158.596 336.844 151.845 327.848 142.339 325.712C136.068 323.792 133.3 317.834 136.804 307.792C137.738 308.316 138.329 309.048 139.262 309.572C144.538 307.731 145.282 316.556 149.343 317.635C152.828 318.792 156.22 321.097 158.276 313.844C170.878 320.921 186.765 318.633 195.085 337.317C196.049 339.46 197.355 341.395 197.977 343.746C196.434 353.689 192.265 346.944 189.387 347.329C182.462 347.444 176.022 342.626 168.895 344.229C167.961 343.704 167.37 342.972 166.437 342.448Z" fill="#F59522"/>
<path d="M157.018 315.014C155.059 316.78 161.743 323.894 153.886 323.115C146.849 322.392 143.794 315.291 139.602 310.011C140.015 306.951 140.191 303.755 140.605 300.694C148.07 299.189 147.139 299.481 149.1 310.904C150.277 317.757 153.942 313.257 156.329 309.263C159.389 310.187 158.961 312.415 157.018 315.014Z" fill="#F69724"/>
<path d="M106.297 356.589C105.383 358.583 104.086 359.098 102.534 358.627C103.943 357.757 105 357.104 106.297 356.589Z" fill="#FCE8CE"/>
<path d="M232.029 325.256C236.698 320.185 240.689 322.447 244.476 326.219C252.208 329.79 261.183 325.129 268.271 331.585C270.903 329.421 273.8 329.033 276.163 331.185C288.901 341.656 303.631 346.758 316.918 355.51C318.334 369.312 314.15 375.47 304.255 374.329C303.441 374.273 302.282 374.429 301.687 373.686C297.212 370.336 291.543 371.59 288.461 368.218C293.061 372.045 300.483 371.378 305.709 377.59C313.899 399.701 299.157 387.688 295.287 391.993C293.079 391.96 290.982 391.583 288.994 390.863C272.419 380.247 256.819 365.715 237.184 365.552C230.266 362.036 228.127 353.105 225.658 345.205C225.507 336.995 228.298 330.859 232.029 325.256Z" fill="#FDAB4A"/>
<path d="M304.327 378.229C294.517 369.805 281.472 368.916 272.547 351.624C284.557 353.148 291.275 364.298 300.714 365.176C307.362 366.1 314.775 370.717 317.64 355.639C320.231 350.999 323.822 350.187 327.428 350.198C331.85 350.264 327.603 347.038 328.623 345.58C329.298 344.333 329.629 343.299 330.304 342.052C347.18 336.154 350.943 357.441 359.292 368.702C357.888 380.942 352.31 374.922 348.234 374.644C346.118 373.442 343.767 372.107 342.796 369.926C339.274 361.814 337.074 368.713 334.563 371.362C326.58 373.755 317.832 372.453 310.254 377.928C308.168 378.373 306.177 377.65 304.327 378.229Z" fill="#FDA740"/>
<path d="M359.006 368.439C353.814 363.094 347.623 360.006 345.335 349.048C343.67 340.456 334.605 344.608 330.334 338.977C329.398 338.45 328.572 337.581 327.87 337.185C339.122 326.209 348.664 335.216 358.801 338.919C369.091 350.763 382.238 354.552 394.621 360.73C396.383 362.126 397.926 364.205 398.673 367.043C392.817 381.867 385.693 372.21 379.86 369.726C372.047 366.529 378.205 374.029 377.081 375.812C376.425 377.859 375.645 379.433 374.396 380.743C366.331 382.64 361.388 378.241 359.006 368.439Z" fill="#FEAE47"/>
<path d="M358.742 342.034C349.188 336.996 339.207 334.179 328.608 335.937C325.318 334.882 319.757 337.46 320.094 330.261C320.446 323.891 325.404 326.718 328.096 327.022C332.537 327.09 336.38 326.407 339.078 320.554C344.558 319.983 348.712 323.584 352.866 327.185C357.964 331.324 363.409 335.25 368.976 326.516C370.222 324.352 369.704 321.593 370.95 319.429C372.101 318.442 373.141 317.803 374.542 317.781C377.124 318.432 379.249 319.644 381.278 322.033C385.839 328.74 384.512 332.912 378.133 335.433C376.399 336.498 374.541 337.081 372.808 338.146C368.317 341.745 363.389 340.577 358.742 342.034Z" fill="#FEAD4D"/>
<path d="M329.006 345.44C330.521 346.67 331.805 347.771 335.886 351.204C328.468 352.986 323.214 354.003 318.191 355.148C301.96 346.177 285.622 337.538 269.391 328.566C273.36 320.564 277.705 325.711 281.863 327.225C289.947 330.125 296.858 337.474 305.189 341.295C313.165 344.527 320.754 345.584 329.006 345.44Z" fill="#F5A13E"/>
<path d="M311.552 312.379C320.854 310.814 329.317 313.556 337.158 319.933C327.11 324.664 319.067 319.767 311.552 312.379Z" fill="#FEAD4D"/>
<path d="M233.173 327.643C234.98 336.198 229.51 340.995 227.622 347.848C218.428 349.256 212.413 343.299 209.479 331.175C209.687 329.624 210.023 328.563 210.008 327.719C212.023 321.357 216.672 323.607 219.702 321.168C224.277 319.198 227.747 321.607 230.77 325.429C231.613 326.331 232.569 326.879 233.173 327.643Z" fill="#FEB04C"/>
<path d="M231.24 324.619C227.448 324.485 223.533 323.889 220.484 320.621C212.776 313.982 204.96 307.676 197.252 301.036C202.59 298.089 205.346 303.951 209.184 306.474C213.131 308.664 215.778 314.86 221.117 311.912C224.754 315.9 230.728 316.062 231.24 324.619Z" fill="#F4911B"/>
<path d="M373.462 317.6C372.793 318.824 372.466 319.841 371.906 320.726C355.575 311.56 341.36 298.382 327.349 283.718C325 281.6 322.652 279.482 320.304 277.364C321.191 275.461 322.42 273.351 323.416 271.11C324.101 270.694 325.019 270.409 325.594 270.333C328.83 270.548 331.521 272.458 333.651 275.254C343.169 284.196 352.577 293.477 362.437 302.211C367.01 305.978 372.376 308.989 373.462 317.6Z" fill="#FEA738"/>
<path d="M327.01 284.591C341.73 296.737 356.451 308.884 371.404 321.161C372.489 323.742 372.055 325.082 369.979 324.718C358.527 315.182 346.844 305.516 335.501 295.644C331.891 293.239 327.382 291.917 327.01 284.591Z" fill="#FEB85B"/>
<path d="M273.116 223.027C286.346 236.991 303.604 240.254 318.147 251.025C318.441 254.321 317.453 256.517 315.183 257.614C300.427 253.382 287.075 244.835 274.588 233.631C270.739 230.331 266.891 227.031 262.348 223.347C266.75 219.903 269.641 226.983 273.116 223.027Z" fill="#FC9923"/>
<path d="M314.092 256.28C315.084 254.059 316.077 251.838 317.069 249.617C317.767 250.005 318.589 250.86 319.286 251.249C327.55 250.307 332.714 261.507 341.086 260.229C351.707 262.186 360.033 270.394 368.127 278.472C375.027 284.3 382.159 290.257 389.059 296.085C391.012 301.929 394.423 305.812 398.393 308.818C401.773 311.098 402.765 314.822 400.563 319.936C397.261 321.662 394.361 320.442 391.679 318.55C382.81 312.022 374.825 303.607 365.631 298.086C364.576 297.102 363.413 296.454 362.018 295.676C352.699 289.689 343.707 282.695 335.039 274.693C331.752 271.276 328.806 267.652 324.124 269.402L324.015 269.738C319.364 267.145 317.844 259.957 314.092 256.28Z" fill="#FDB358"/>
<path d="M369.062 276.84C359.409 272.626 349.958 266.929 341.953 258.447C342.949 256.209 343.944 253.972 344.94 251.734C352.726 260.892 364.293 262.584 369.062 276.84Z" fill="#F69C30"/>
<path d="M381.457 225.346C392.205 232.181 403.841 237.113 413.5 247.337C411.305 253.308 407.805 251.343 405.114 249.433C398.55 244.147 392.001 239.67 385.11 235.401C394.552 240.302 402.453 249.14 412.456 253.154C425.477 258.063 436.723 266.778 445.54 281.333C445.724 291.041 440.606 288.968 436.919 289.299C432.143 287.018 427.819 284.19 426.296 276.932C412.001 265.705 398.064 255.079 384.112 243.645C379.306 239.746 373.442 234.853 381.457 225.346Z" fill="#FEB85E"/>
<path d="M156.678 313.056C156.414 311.303 156.15 309.55 155.886 307.796C160.325 304.276 163.625 307.736 167.362 309.838C170.99 312.279 173.84 310.271 173.951 303.915C184.692 315.973 197.537 323.197 210.491 330.08L210.725 330.212C211.035 334.398 210.068 338.267 207.7 341.348C204.631 344.035 201.577 347.533 198.262 343.261C194.028 339.275 189.59 336.78 186.587 330.678C184.175 325.31 179.801 320.042 175.346 322.752C166.079 327.569 162.095 318.509 156.678 313.056Z" fill="#F2901B"/>
<path d="M203.287 412.013C206.051 412.755 209.047 413.625 211.811 414.367C226.356 414.176 237.386 427.291 250.76 431.536C257.062 437.355 264.32 439.401 271.162 443.564C276.753 448.209 283.979 448.675 289.587 454.11C292.614 456.561 295.873 459.139 297.11 463.729C299.94 473.497 297.023 476.579 290.105 474.329C269.116 461.587 247.587 450.502 225.842 440.079C220.483 435.561 215.123 431.044 209.531 426.398C207.939 421.221 200.604 421.087 203.287 412.013Z" fill="#FDAA48"/>
<path d="M216.519 405.56C209.051 397.663 199.231 394.532 194.351 382.002C204.859 365.595 214.391 378.323 224.212 381.455C229.675 387.808 234.431 374.645 240.554 378.932C245.737 382.686 251.689 384.029 254.519 392.549C257.462 394.626 246.478 397.748 254.529 399.469C258.148 400.302 260.887 403.89 260.538 410.199C251.963 417.942 244.416 412.034 236.694 409.28C226.404 405.882 218.217 396.763 209.995 392.098C212.685 399.318 224.124 395.64 225.07 409.192C220.743 414.058 218.363 411.081 216.519 405.56Z" fill="#FDAD4B"/>
<path d="M225.063 388.758C215.887 381.155 206.413 376.21 195.185 382.785C194.249 382.256 193.656 381.518 192.829 380.647C189.536 377.981 186.463 374.631 183.06 372.306C175.444 367.602 181.379 362.881 183.614 358.492C190.889 357.354 197.648 359.556 204.422 362.573C209.682 365.14 214.707 367.574 219.748 370.824C221.588 376.302 233.047 375.911 225.063 388.758Z" fill="#FEB352"/>
<path d="M215.605 406.854C218.292 408.756 220.776 412.138 224.07 409.599C234.213 409.697 241.745 417.897 249.262 425.291C250.939 428.62 253.3 431.534 250.394 436.283C237.363 429.788 224.114 423.967 212.28 413.758C213.383 411.188 214.377 408.956 215.605 406.854Z" fill="#E38F2D"/>
<path d="M204.031 364.718C196.959 365.173 190.625 361.586 184.635 357.787C186.217 355.439 188.877 354.917 189.709 349.711C182.592 347.707 174.816 347.764 168.122 343.567C178.218 337.118 187.458 347.219 197.27 344.259C199.805 343.261 202.34 342.264 204.875 341.266C209.238 344.954 215.432 347.246 214.801 357.027C214.293 367.285 206.336 357.506 204.031 364.718Z" fill="#FCA843"/>
<path d="M302.4 380.106C303.661 379.613 304.922 379.119 306.184 378.625C318.982 377.4 328.741 386.494 338.827 394.57C342.703 397.952 347.451 398.616 350.999 403.017C357.908 414.118 369.616 416.289 375.294 429.504C376.117 436.382 372.77 436.505 369.422 436.628C364.346 436.982 359.895 433.678 355.037 433.353C340.247 433.057 328.013 421.368 314.08 417.545C312.212 416.495 310.11 415.314 308.57 413.245C303.092 404.552 295.466 398.26 293.041 386.072C296 383.725 299.284 386.374 302.149 385.178C307.428 383.334 303.007 381.65 302.4 380.106Z" fill="#FDA73F"/>
<path d="M236.509 365.958C243.006 356.035 248.723 365.619 254.052 367.009C267.384 370.886 279.519 378.48 289.679 391.35C293.112 396.065 302.016 397.462 298.611 406.324C294.989 415.862 287.733 410.203 282.497 407.669C275.986 404.821 270.58 399.399 264.396 395.537C255.338 386.077 245.846 377.968 235.575 371.418C234.612 369.283 234.924 367.463 236.509 365.958Z" fill="#F29F3D"/>
<path d="M237.737 367.711C237.403 368.763 236.721 370.03 236.276 371.433C230.246 382.487 225.287 368.044 219.597 371.832C213.261 372.35 208.705 367.255 203.577 363.076C202.012 360.937 198.717 360.709 199.117 356.793C199.532 353.716 202.003 353.887 203.888 354.136C206.484 354.794 208.54 358.043 212.502 356.166C211.892 348.358 203.197 348.353 204.442 339.12C206.14 335.533 207.838 331.946 209.3 328.224C212.662 338.852 220.594 342.149 226.812 348.195C233.557 350.813 232.483 363.046 237.737 367.711Z" fill="#F5A13E"/>
<path d="M266.517 391.516C275.901 397.627 284.299 406.819 296.717 407.774C296.55 398.789 288.333 399.4 289.228 391.419C290.493 390.922 291.759 390.425 293.024 389.927C300.44 396.139 306.168 405.033 310.989 415.032C307.329 423.874 301.398 416.481 296.944 420.026C294.413 421.02 291.633 421.066 289.181 420.084C283.091 416.643 277.345 412.991 270.504 412.762C266.537 411.329 262.242 410.922 260.167 405.304C255.109 401.233 250.394 396.952 244.742 392.142C247.088 387.406 251.27 394.215 253.865 390.428C258.443 387.358 262.033 393.427 266.517 391.516Z" fill="#EE9A37"/>
<path d="M228.226 203.171C237.353 203.894 243.647 213.416 252.556 214.816C255.681 215.369 258.65 219.831 256.441 224.984C255.009 228.576 251.185 227.63 248.946 225.176C241.672 218.7 233.168 214.331 228.226 203.171Z" fill="#E69231"/>
<path d="M339.55 399.611C330.023 388.464 317.393 386.184 307.204 377.115C315.288 366.584 324.038 367.065 333.069 370.159C340.171 369.702 339.504 377.911 340.316 384.098C331.436 389.268 345.053 394.563 339.55 399.611Z" fill="#F69E36"/>
<path d="M339.175 383.53C334.467 380.852 337.551 371.17 332.844 368.493C338.302 354.851 341.608 363.675 345.324 369.464C350.168 379.571 362.152 372.499 365.533 385.45C365.984 391.016 370.722 395.344 366.651 402.014C356.023 400.463 345.491 397.741 339.175 383.53Z" fill="#FBA23B"/>
<path d="M364.512 384.176C360.514 380.332 356.19 377.505 351.119 377.859C346.389 378.005 344.944 374.793 345.863 368.507C350.002 367.629 354.014 372.282 358.231 369.448C363.473 371.99 366.753 380.633 373.739 377.753C379.137 376.382 383.337 378.739 385.435 385.919C377.53 395.085 374.061 394.738 364.512 384.176Z" fill="#F49C34"/>
<path d="M397.392 366.286C417.13 379.508 436.636 392.603 456.497 406.285C453.117 409.111 448.808 405.564 447.097 411.655C446.186 411.934 445.383 411.883 444.812 411.959C444.117 411.576 443.422 411.193 442.727 410.81C425.49 396.621 404.907 392.701 387.131 380.169C383.3 377.667 377.928 378.223 375.964 371.67C372.921 368.43 368.319 367.457 366.695 360.7C377.825 355.893 386.093 374.126 397.392 366.286Z" fill="#FEB54D"/>
<path d="M375.296 372.566C396.734 378.915 416.261 392.815 437.284 401.281C440.404 402.611 444.111 404.656 444.238 410.984C422.354 411.039 403.245 400.891 385.293 385.513C381.446 382.217 377.492 379.254 373.645 375.958C374.308 374.76 374.972 373.561 375.296 372.566Z" fill="#FEA941"/>
<path d="M395.509 358.525C394.837 359.758 394.509 360.782 393.838 362.015C380.36 359.248 368.1 353.541 357.918 341.35C361.01 333.424 367.592 338.748 371.198 333.529C381.243 338.389 390.835 343.8 395.509 358.525Z" fill="#FCA641"/>
<path d="M385.227 317.528C392.15 324.929 400.791 326.178 408.566 330.104C415.643 333.642 423.154 335.842 426.361 347.1C415.258 349.22 407.172 335.251 396.085 338.17C387.598 338.981 387.968 322.605 379.807 322.412C377.468 320.323 375.021 318.568 372.915 316.608C359.41 307.524 348.677 293.268 335.188 284.982C332.864 283.691 331.749 279.517 329.968 276.553C333.498 269.04 336.379 275.379 338.826 277.133C347.096 282.914 354.267 291.242 363.187 295.015C371.241 301.465 380.734 305.161 385.227 317.528Z" fill="#F9A23B"/>
<path d="M378.759 322.916C388.145 318.576 388.56 334.429 395.298 336.612C404.543 336.998 411.715 343.831 419.666 349.098C421.921 352.368 422.34 356.208 421.032 360.279C418.463 364.843 415.958 360.633 413.313 361.149C412.379 360.625 411.554 359.761 410.963 359.028C398.017 352.157 384.51 346.172 375.878 329.307C374.774 325.884 386.211 332.308 378.759 322.916Z" fill="#FDA73F"/>
<path d="M375.576 330.724C387.274 340.431 398.972 350.139 410.561 360.183C405.1 363.488 401.144 355.322 395.884 357.152C387.227 349.936 377.902 343.936 371.806 332.193C372.721 331.91 373.978 331.42 375.576 330.724Z" fill="#EF9933"/>
<path d="M364.494 294.552C357.546 297.395 353.938 289.088 348.83 286.254C342.794 282.904 338.938 273.672 331.061 276C328.724 273.915 326.278 272.164 324.173 270.207C326.06 266.92 328.552 265.15 331.462 267.159C342.436 276.401 353.519 285.31 364.494 294.552Z" fill="#F9AA4F"/>
<path d="M385.539 317.074C377.692 310.683 369.612 304.161 363.77 294.105C376.001 294.573 383.178 308.17 393.326 314.254C390.808 315.237 388.057 316.09 385.539 317.074Z" fill="#F9AA4F"/>
<path d="M304.874 458.89C304.222 448.72 298.303 449.846 293.391 448.686C296.26 433.577 305.434 444.918 310.571 439.265C312.599 435.518 309.479 430.478 312.448 427.267C316.013 424.802 319.308 426.676 322.368 428.416C336.034 437.002 353.444 433.836 364.026 452.102C366.625 460.52 362.779 460.375 358.588 460.442C356.61 460.542 352.689 456.271 354.001 464.367C354.267 466.151 354.062 467.668 353.04 469.128C343.556 472.718 335.92 462.66 327.066 462.526C331.663 465.548 337.928 464.21 340.637 472.283C341.168 475.852 339.566 477.39 337.603 478.316C334.698 478.706 332.345 477.368 330.322 474.993C322.4 468.447 314.353 461.421 304.874 458.89Z" fill="#F9A13A"/>
<path d="M261.168 433.384C256.638 431.251 253.737 424.071 247.809 427.117C239.974 420.757 232.372 414.526 224.645 407.829C218.33 402.715 212.248 397.731 206.042 392.28C224.506 394.645 240.021 411.251 259.541 408.645C263.575 408.911 267.268 409.384 270.448 413.146C273.427 412.426 275.553 415.201 277.663 417.174C281.185 420.729 282.798 426.793 281.06 432.177C278.794 440.047 274.465 436.439 270.524 435.033C267.514 434.147 264.597 432.121 261.168 433.384Z" fill="#FDAD4B"/>
<path d="M266.991 393.316C262.348 398.327 258.378 396.094 254.377 392.24C248.742 387.466 243.324 382.013 236.146 381.185C228.033 379.832 237.654 387.649 233.963 387.981C230.958 387.895 227.937 386.999 224.807 386.442C228.205 376.719 220.466 376.78 218.521 371.674C224.145 363.605 229.327 374.943 234.919 371.268C247.766 372.476 256.108 385.992 266.991 393.316Z" fill="#FDAD4B"/>
<path d="M353.36 426.612C360.956 423.627 366.716 434.163 374.406 430.018C375.093 429.598 375.671 429.52 376.125 428.968C386.967 432.267 398.092 432.086 409.217 431.906C414.482 434.478 420.686 431.515 425.199 437.302C427.304 444.559 434.382 444.921 435.69 452.94C432.169 463.082 426.22 454.865 421.531 458.28C424.422 457.893 426.984 458.532 428.216 462.464C428.572 469.136 422.869 467.934 421.789 472.176C421.022 474.574 419.896 476.363 418.177 477.413C417.02 477.568 415.739 477.249 414.568 476.586C407.259 470.027 405.534 452.067 392.985 456.699C383.329 454.88 375.537 447.238 366.195 443.574C361.369 439.632 355.167 436.531 353.36 426.612Z" fill="#FCA43C"/>
<path d="M353.426 430.134C358.805 434.714 364.184 439.295 369.904 443.669C368.757 449.763 376.275 451.971 372.849 459.171C368.865 461.308 366.292 459.082 365.16 454.096C352.899 438.553 335.445 439.918 321.013 431.086C320.517 429.226 324.826 426.082 320.207 425.093C317.199 424.21 314.843 421.313 314.626 416.044C323.353 415.361 330.36 420.849 337.692 425.329C342.807 428.179 347.907 430.228 353.426 430.134Z" fill="#E99128"/>
<path d="M338.653 384.302C348.322 389.323 357.011 397.39 367.536 398.897C370.848 397.159 373.646 398.728 376.117 401.312C378.48 404.234 380.158 407.572 378.291 412.517C366.536 419.107 358.516 409.818 349.734 402.897C346.127 401.274 342.412 399.99 338.805 398.367C338.868 395.606 338.138 393.599 336.49 391.877C328.749 385.14 337.424 386.409 338.653 384.302Z" fill="#ED942D"/>
<path d="M349.107 402.82C358.552 406.136 367.872 408.977 377.317 412.293C378.582 411.796 380.191 411.09 381.471 411.409C385.999 411.947 392.385 412.728 392.178 420.283C391.658 429.679 385.226 426.45 380.948 426.86C378.98 426.96 377.387 428.483 375.793 430.006C367.039 420.216 354.83 417.761 349.107 402.82Z" fill="#FCA43C"/>
<path d="M314.795 417.381C319.51 421.664 324.116 426.288 330.724 426.385C328.439 434.39 323.583 428.816 321.098 432.262C318.287 430.673 316.023 427.373 312.476 429.814C304.055 431.926 298.746 426.904 296.112 416.118C300.554 405.694 305.656 418.279 310.204 413.574C311.734 414.843 313.264 416.112 314.795 417.381Z" fill="#DD851D"/>
<path d="M260.428 432.148C266.795 420.035 271.593 438.54 278.049 431.455C279.977 420.948 274.024 416.71 269.926 411.046C278.075 406.589 283.835 413.205 289.804 418.281C283.065 422.716 290.146 424.282 290.317 427.283C291.12 432.719 294.379 437.487 291.552 443.747C286.891 446.055 284.745 437.777 280.195 439.733C279.624 440.65 279.179 442.054 278.607 442.971C273.67 436.412 265.825 438.141 260.428 432.148Z" fill="#FDAA48"/>
<path d="M374.586 401.89C372.241 399.781 369.787 398.009 367.442 395.9C364.165 393.269 360.422 390.377 363.514 383.342C370.146 386.656 377.291 386.67 384.437 386.684C404.193 395.35 423.95 404.016 443.707 412.681C443.302 415.643 441.935 416.471 439.854 416.103C440.46 417.638 441.485 417.016 442.417 417.537C445.445 419.232 447.791 421.342 447.774 426.512C446.438 428.952 444.823 428.845 442.865 428.945C441.949 429.229 443.704 430.609 444.061 431.207C447.587 434.774 453.644 438.164 450.893 444.992C447.925 452.495 441.977 448.767 437.317 446.16C434.289 444.465 431.384 443.238 428.915 440.661C427.844 432.89 423.775 431.011 419.053 431.157C413.29 431.12 408.833 427.032 404.049 423.956C399.343 418.932 394.094 415.596 390.476 407.196C388.054 401.06 380.878 399.434 374.586 401.89Z" fill="#FBA33B"/>
<path d="M373.84 403.151C382.022 388.836 393.147 401.389 393.57 405.346C394.379 417.782 402.756 414.313 405.562 420.458C405.082 426.377 409.456 428.464 409.435 433.82C397.551 437.761 386.065 437.801 375.363 429.206C377.197 426.952 370.743 419.959 378.247 420.12C382.117 420.268 385.841 425.287 390.554 420.137C387.718 412.322 380.067 417.032 376.913 411.1C377.422 406.85 375.513 404.933 373.84 403.151Z" fill="#FBA23B"/>
</g>
</svg>
