<svg width="145" height="1185" viewBox="0 0 145 1185" fill="none" xmlns="http://www.w3.org/2000/svg">
<g opacity="0.6">
<path d="M74.6175 702.532C75.2582 709.491 76.2453 716.268 78.7946 722.915C78.1419 750.015 76.5015 751.923 61.2923 748.476C59.2857 746.407 57.7105 743.763 56.7366 739.759C55.6381 727.829 49.5071 716.468 50.6635 704.044C55.513 701.487 53.8463 697.849 50.2644 693.135C44.8262 681.409 44.8651 671.312 50.466 662.451C51.8384 658.947 53.4723 655.654 55.1061 652.36C56.2237 650.033 57.8642 648.125 59.8576 647.422C67.5244 653.108 61.845 663.748 65.525 670.842C68.7018 681.676 73.0027 691.569 74.6175 702.532Z" fill="#F8AE55"/>
<path d="M-13.9707 490.114C-4.99785 507.074 6.16091 519.301 18.0981 529.321C23.474 533.873 29.0096 538.95 31.9625 548.051C31.8953 550.808 30.7973 551.967 28.9056 551.71C4.23243 529.047 -21.4513 509.617 -42.2321 475.916C-34.3813 469.539 -27.1188 473.141 -13.9707 490.114Z" fill="#FB9F30"/>
<path d="M55.5498 744.8C69.8218 753.311 71.0846 735.997 74.874 723.038C85.6942 740.08 73.5756 752.063 75.9723 767.115C66.6657 767.712 69.4196 782.578 66.3251 790.923C64.0262 797.082 61.2302 792.515 58.6226 789.975C54.4333 774.44 48.9906 758.848 55.5498 744.8Z" fill="#FACE99"/>
<path d="M44.6831 850.322C45.6192 865.735 39.1835 872.939 32.1173 874.596C27.2919 875.762 24.2981 881.147 19.6414 881.532C14.7568 870.279 14.1001 859.214 18.2821 849.743C25.5237 848.685 29.7901 838.823 36.7718 837.556C40.5778 839.695 43.7864 843.188 44.6831 850.322Z" fill="#FCE0BE"/>
<path d="M27.8453 552.364C28.0832 551.275 28.5651 550.38 28.803 549.29C31.4067 551.789 33.6872 554.457 36.2909 556.955C39.6443 563.887 38.5576 574.104 44.8993 579.152C46.46 583.804 45.99 587.266 44.3858 590.678C43.5013 592.105 42.2084 592.781 40.9948 593.093C35.482 592.115 30.5918 585.665 25.2317 582.678C16.8593 576.44 13.8728 561.276 6.62287 552.521C5.48263 551.187 6.92235 547.219 8.45324 545.453C13.619 541.467 18.0213 547.528 22.9789 551.048C24.5951 550.203 26.1617 556.139 27.8453 552.364Z" fill="#F79E32"/>
<path d="M76.4075 700.279C71.1402 691.415 66.6665 681.782 64.7535 670.457C65.4094 640.178 65.4094 640.178 72.4716 635.072C72.6713 639.898 72.0774 645.492 73.4241 649.366C80.1511 667.327 79.4296 683.553 76.4075 700.279Z" fill="#FCE1C0"/>
<path d="M20.3772 853.791C19.053 864.136 20.3916 874.795 20.5282 885.401C16.5859 886.797 13.0833 890.371 8.42976 886.632C6.82604 874.39 -1.64784 861.648 4.64608 849.364C6.69463 846.903 9.44138 846.829 12.0136 846.158C14.7603 846.083 17.423 846.397 19.5883 850.419C19.9374 851.612 20.0281 852.598 20.3772 853.791Z" fill="#F7AD52"/>
<path d="M8.10323 852.424C5.69128 858.097 5.04604 863.847 8.61168 870.747C11.924 877.444 12.3742 883.628 9.70893 889.096C8.10683 888.255 6.59351 888.38 5.76426 890.848C4.50422 891.177 3.4087 890.743 2.30674 888.961C1.03375 886.593 -0.239235 884.225 -1.51222 881.857C-6.76224 874.497 -15.7665 873.52 -16.3442 858.276C-12.7481 854.005 -6.49783 859.483 -3.83906 852.666C0.523501 850.355 3.34037 841.426 9.50839 847.285C9.76816 848.838 9.77464 850.187 9.2745 851.128C8.69208 852.45 8.35653 852.628 8.10323 852.424Z" fill="#F49A2D"/>
<path d="M57.0794 791.357C59.1618 793.028 61.075 795.481 63.4891 794.206C61.5636 807.344 65.983 827.868 51.6347 827.824C46.5396 828.782 42.889 824.476 40.6891 816.286C40.1676 797.514 54.5488 804.467 57.0794 791.357Z" fill="#F9BA6E"/>
<path d="M41.2308 584.752C41.8682 581.824 42.426 579.262 41.1087 576.062C37.4382 574.421 33.5105 569.997 36.2561 565.315C39.97 558.828 44.1549 566.035 47.6045 572.655C56.3727 585.239 64.8162 597.994 68.3203 616.257C68.0873 618.648 67.1129 619.159 65.6483 619.279C63.5281 618.446 61.9718 616.344 60.4951 613.877C56.1205 600.934 49.5643 591.404 41.2308 584.752Z" fill="#FBD4A6"/>
<path d="M42.2167 816.35C42.754 824.714 47.6535 826.447 50.9055 830.382C47.5229 833.833 53.0536 846.209 46.0883 845.9C42.7552 842.341 39.4222 838.781 36.008 835.597C34.0665 828.309 28.0618 820.84 31.7561 813.233C34.3833 807.852 38.7835 809.185 42.2167 816.35Z" fill="#F8BB71"/>
<path d="M63.1479 618.004C63.5944 617.417 63.8584 616.214 64.3049 615.627C70.0733 619.728 73.6973 626.365 75.0888 635.938C67.0389 643.676 72.8724 661.946 67.257 671.613C58.8651 663.55 68.349 655.067 64.448 646.799C62.4275 637.197 60.4949 627.195 63.1479 618.004Z" fill="#FAC485"/>
<path d="M49.5454 572.989C47.7078 571.954 46.0331 570.164 44.3649 569.709C42.7781 568.876 40.8399 564.215 39.8555 567.412C38.3758 571.54 41.3863 573.961 42.8164 576.884C29.1508 576.088 36.8322 562.322 35.7089 553.884C43.2911 554.22 47.0798 562.585 49.5454 572.989Z" fill="#FACB92"/>
<path d="M0.191755 891.667C1.2291 892.5 2.00713 893.125 3.04448 893.958C4.17266 895.78 7.4598 898.877 4.97041 900.538C-1.03916 904.404 -5.577 909.91 -6.12734 920.906C-8.1889 921.995 -10.0885 920.927 -11.8196 919.079C-13.0321 917.648 -13.9009 916.035 -14.6855 914.032C-15.1265 911.848 -15.0488 910.08 -14.8869 907.923C-13.8692 904.622 -11.8985 902.545 -9.8369 901.456C-8.37828 900.34 -7.00395 899.613 -5.97975 897.691C-4.95554 895.768 -4.0156 894.236 -2.73206 892.522C-1.96063 891.769 -0.929849 891.224 0.191755 891.667Z" fill="#FCCD96"/>
<path d="M-6.58486 452.574C-6.00655 451.261 -5.76144 450.125 -5.18312 448.812C-4.18348 448.283 -2.93226 447.956 -1.593 448.589C-0.247326 450.561 0.180403 452.683 -0.731124 454.172C-2.38437 457.731 -4.57276 454.193 -6.58486 452.574Z" fill="#F9BD75"/>
<path d="M44.5065 815.286C34.7725 814.651 34.7725 814.651 39.4233 826.816C41.7014 832.39 38.3707 833.053 37.6645 836.265C36.7455 852.034 30.7147 853.388 21.9452 846.917L22.2982 845.311C16.3792 831.671 19.0272 819.627 22.0413 808.815C24.1727 802.018 29.8308 798.013 25.6343 786.678C24.8139 784.615 24.7944 780.357 26.3274 780.628C43.0891 781.17 31.1627 754.29 36.8832 744.207C36.3211 739.52 36.1186 734.646 38.3578 731.705C39.796 730.958 41.146 730.613 42.679 730.884C47.5492 731.911 51.6185 735.132 53.9979 743.143C54.4587 745.393 54.6482 747.428 55.109 749.678C56.7069 764.141 57.9452 778.79 59.5431 793.252C59.9415 801.58 63.419 813.288 53.2177 808.984C49.1548 807.182 46.2848 810.095 44.5065 815.286Z" fill="#F49C32"/>
<path d="M59.8523 740.502C56.5379 736.199 52.6724 734.401 48.8913 733.51C40.2365 721.2 29.602 715.306 20.3116 704.594C15.4667 699.5 9.8287 696.72 4.82633 692.341C0.949256 688.013 -3.00654 684.043 -3.20434 675.903C2.13984 667.106 8.76292 674.447 14.3279 678.851C19.7297 682.704 25.3677 685.485 27.6298 688.115C23.7585 685.052 16.6688 681.123 10.2089 674.331C6.73125 669.478 1.97082 665.291 3.86039 656.702C15.7432 654.339 25.7594 665.626 35.9331 676.197C41.1333 688.715 50.3277 695.99 54.0089 710.248C53.1716 720.51 61.4884 729.192 59.8523 740.502Z" fill="#F79622"/>
<path d="M56.4722 706.301C49.8115 696.877 41.6378 690.3 38.1756 675.774C37.5622 671.668 35.9337 668.1 34.2221 664.917C31.3929 658.576 27.376 652.183 28.6075 643.692C32.2842 632.202 39.3271 632.903 46.9769 636.349C51.3583 648.002 52.6531 635.047 55.7947 635.769C64.894 640.833 60.4511 651.707 61.7609 659.534C60.3373 663.355 59.2521 666.997 57.8286 670.819C54.4382 671.251 48.2314 668.063 48.1485 668.447C48.0282 678.736 51.8857 687.258 56.42 695.422C61.535 700.893 59.1728 703.507 56.4722 706.301Z" fill="#F59A2C"/>
<path d="M63.258 655.782C58.9375 649.117 62.4881 638.29 56.4566 632.53C52.2135 624.104 49.5137 615.55 53.9364 607.703C56.1706 608.587 58.1532 610.637 59.1156 614.602C60.8399 616.444 62.5641 618.286 64.2883 620.128C65.8775 629.613 69.785 639.594 65.7951 648.244C64.9493 650.757 64.1037 653.269 63.258 655.782Z" fill="#F6A23D"/>
<path d="M55.1842 695.543C43.0693 688.474 44.5014 672.207 42.4092 655.784C47.2226 662.337 51.2782 668.281 56.407 670.621C47.6219 675.611 53.6295 686.252 55.1842 695.543Z" fill="#F7A039"/>
<path d="M-54.8131 480.928C-50.4564 481.123 -46.2571 480.814 -41.9003 481.009C-17.9268 505.588 6.12337 529.839 30.331 554.593C31.4246 555.801 33.3012 558.368 32.2929 559.151C30.2765 560.716 28.472 556.662 26.5997 555.254C15.1369 547.789 3.90368 539.34 -7.09994 529.909C-24.1838 517.061 -41.1912 503.885 -59.0361 495.472C-76.017 489.249 -91.3229 473.501 -108.151 466.623C-109.631 465.894 -110.878 465.342 -112.282 464.286C-117.903 458.903 -124.375 454.806 -127.138 444.254C-126.403 432.865 -120.471 438.096 -116.11 439.45C-106.609 442.358 -97.0143 449.575 -87.5354 446.688C-83.7954 448.345 -82.2249 452.223 -81.2712 457.563C-81.3038 469.48 -74.224 469.796 -69.935 472.637C-65.2545 476.157 -60.3356 481.012 -54.8131 480.928Z" fill="#FC9D27"/>
<path d="M10.3475 553.535C10.1927 554.22 10.0379 554.904 9.96045 555.247C18.107 561.145 19.4324 576.251 26.3252 583.995C26.4128 586.074 25.7884 587.603 24.6894 588.765C11.6619 584.725 6.74522 578.106 3.04143 559.954C2.8815 559.428 2.95888 559.085 1.69483 558.51C-9.5991 554.201 -20.8412 543.496 -32.5017 545.743C-41.8145 543.771 -50.8227 539.218 -59.6813 532.77C-63.9583 528.255 -70.6809 523.459 -69.1379 515.399C-67.5226 505.786 -60.2582 508.185 -54.4951 509.826C-51.3376 510.658 -48.4845 514.072 -45.327 514.904C-40.0334 517.389 -34.7399 519.873 -29.3689 522.015C-17.9253 524.428 -7.31271 535.452 3.749 540.788C7.62367 543.382 10.7915 546.636 10.3475 553.535Z" fill="#F89620"/>
<path d="M20.7755 584.544C21.3377 583.282 21.5761 582.189 22.1383 580.927C28.8653 579.019 32.8906 589.495 38.5906 593.61C46.1422 594.497 52.4958 599.56 55.9649 612.586C56.8929 620.167 57.821 627.747 58.5046 635.133C56.7385 639.284 55.9679 648.077 50.965 636.821C42.2846 620.07 26.6928 617.906 19.858 596.64C18.8625 591.999 18.4352 587.382 20.7755 584.544Z" fill="#F69621"/>
<path d="M10.9854 548.528C1.57515 533.276 -11.3565 534.364 -22.1465 525.049C-24.2567 523.455 -26.5201 522.521 -28.4725 521.433C-30.9659 521.489 -33.2339 519.387 -32.9363 515.734C-32.7154 512.411 -30.2265 511.19 -27.963 512.124C-21.407 514.75 -15.2342 519.026 -8.9848 522.972C3.51402 530.863 14.7007 542.029 25.9686 554.031C20.3685 556.78 15.8911 547.581 10.9854 548.528Z" fill="#EB8913"/>
<path d="M56.4714 608.047C50.669 602.207 44.9452 596.01 39.2214 589.813C39.7773 588.577 40.3333 587.342 40.9678 585.749C54.2677 582.019 56.7573 600.317 61.5492 613.314C59.9371 611.622 58.325 609.93 56.4714 608.047Z" fill="#F8A849"/>
<path d="M41.7292 752.483C42.4365 757.593 50.4052 764.002 41.6277 766.933C38.0486 768.142 37.9978 775.368 41.179 780.197C43.6726 784.019 48.5436 785.211 45.5882 791.917C43.6481 796.715 40.3195 796.763 36.7207 793.868C35.1784 792.628 33.379 791.181 31.3226 789.527C31.619 797.94 35.5649 802.022 38.5021 809.379C22.8939 811.813 26.7512 833.081 26.0652 850.24C23.6682 848.767 21.3548 846.906 19.1445 848.762C16.6705 849.043 14.8711 847.596 13.9967 843.259C8.70175 842.634 7.05138 854.477 0.798577 849.902C0.284469 849.489 -0.486684 848.868 -0.917291 848.068C-3.83494 844.813 -6.24505 840.604 -6.86885 835.107C-6.9851 828.656 -6.24665 822.437 -3.96591 817.46C-0.913999 813.102 3.00569 811.713 7.54261 814.453C8.57083 815.28 9.68912 817.088 11.0513 816.367C9.25197 814.92 7.61953 812.699 6.75177 809.73C6.56512 806.401 7.14963 803.692 8.5888 801.217C10.1819 795.232 16.3708 804.296 17.1862 796.323C9.8266 774.51 -4.42597 774.855 -14.8113 762.869C-16.0131 761.449 -16.8743 759.848 -17.909 757.653C-23.6805 746.654 -11.8183 746.203 -15.1093 736.29C-7.72675 727.24 0.569433 730.734 9.90034 736.421C17.8625 741.462 25.5168 753.522 34.4613 749.816C37.1022 748.761 39.5827 749.848 41.7292 752.483Z" fill="#F49522"/>
<path d="M9.89623 845.52C11.5217 847.237 13.1471 848.955 14.7726 850.673C12.5986 852.77 10.6505 851.221 8.53798 849.116C8.85478 847.667 9.41511 846.413 9.89623 845.52Z" fill="#F49B2F"/>
<path d="M-2.71904 859.477C-2.71108 878.841 -9.20521 865.703 -13.8061 862.06C-16.4467 865.019 -19.0026 868.887 -22.9443 868.712C-31.7232 865.969 -38.8361 858.233 -44.5191 846.579C-41.0523 830.808 -32.5481 843.854 -26.4386 843.221C-18.5379 847.372 -9.8492 847.939 -2.71904 859.477Z" fill="#F39625"/>
<path d="M-23.5658 863.583C-21.2829 861.07 -18.8272 860.433 -15.952 861.867C-13.8356 876.149 -4.0066 874.905 0.546952 884.628C1.46631 888.403 -0.569863 891.113 0.676506 894.715C-0.131767 897.106 -0.940064 899.497 -2.07535 902.06C-14.07 895.928 -19.1418 880.581 -23.5658 863.583Z" fill="#F59A2C"/>
<path d="M-0.152013 893.369C-2.07779 889.01 -1.36624 885.786 -0.292547 882.374C0.0825705 885.036 0.546625 887.295 0.921743 889.957C0.654933 891.166 0.388064 892.375 -0.152013 893.369Z" fill="#F8A94A"/>
<path d="M-22.8651 867.536C-15.9783 879.487 -8.85224 891.626 -2.04332 903.927C-3.23406 904.227 -4.50271 904.876 -5.69344 905.176C-9.03726 903.792 -12.2869 905.765 -15.6361 903.145C-22.3562 892.965 -31.9763 892.008 -38.0675 880.268C-39.2745 876.862 -32.9312 873.616 -39.7022 869.962C-45.9947 866.682 -51.4299 859.559 -56.2308 852.111C-58.9511 847.932 -62.545 843.89 -59.4729 837.675C-54.1481 837.736 -49.6861 840.405 -45.998 847.803C-38.1034 853.977 -32.0068 866.952 -22.8651 867.536Z" fill="#F79F37"/>
<path d="M43.8577 745.433C41.7275 747.439 39.8198 745.953 37.7513 743.935C25.5597 745.843 15.5955 731.567 4.79229 724.783C0.733115 720.4 -3.95848 716.338 -3.60169 707.25C2.55063 701.046 9.32121 709.577 15.9823 711.099C26.0701 717.326 35.9195 723.368 43.9761 736.158C43.8312 739.304 44.0026 742.288 43.8577 745.433Z" fill="#F79622"/>
<path d="M44.4242 732.701C34.6487 725.582 25.1098 718.644 15.2571 711.864C14.5176 704.119 17.8193 704.266 21.4348 704.256C29.0092 711.278 36.7429 718.821 44.4717 725.163C48.493 728.256 47.7982 731.31 46.9491 735.042C46.0029 734.314 45.1339 733.247 44.4242 732.701Z" fill="#EC8B17"/>
<path d="M33.7513 657.809C34.3462 665.377 39.4897 669.018 41.2007 675.378C34.7454 682.813 30.2801 669.685 24.66 666.921C19.5223 664.538 14.5974 656.059 9.08985 660.483C9.84745 668.597 14.5813 670.244 17.885 674.521C13.6789 683.312 8.90536 672.865 4.41268 671.408C-8.39854 655.036 -22.6957 646.679 -37.391 638.843C-39.9598 637.651 -40.1896 639.976 -41.3842 641.539C-50.1785 645.457 -59.4164 639.839 -68.3961 638.182C-70.4826 637.371 -72.2551 635.138 -73.1527 631.506C-73.0184 625.766 -70.7976 620.837 -68.0717 621.318C-59.8941 622.759 -67.8589 615.222 -66.827 613.113C-64.8474 607.994 -62.2672 611.7 -59.8553 613.603C-70.5517 604.328 -82.4984 602.001 -92.5668 589.882C-95.0741 584.563 -93.5768 579.063 -94.0819 573.654C-91.1375 569.296 -88.0807 572.125 -84.7826 575.145C-81.2433 578.355 -83.1056 573.962 -83.2739 572.159C-81.0588 565.973 -75.6014 568.191 -72.8197 563.287C-64.6591 560.956 -57.1766 568.113 -49.7784 574.367C-42.1947 586.197 -31.0898 579.508 -26.1535 590.501C-22.1262 595.349 -23.6688 590.791 -24.2184 593.281C-24.3754 593.992 -24.5381 593.446 -25.2616 592.875C-27.438 589.906 -30.3322 587.622 -29.4743 582.453C-22.5367 575.399 -18.0771 587.269 -12.3672 592.192C-11.2 602.299 -5.5969 601.292 -1.65942 603.981C0.511254 605.693 2.83885 606.695 4.85252 609.119C10.17 615.819 20.0416 619.85 17.137 633.008C13.9968 647.234 6.39047 630.376 0.865895 631.028C-7.49143 625.269 -14.5871 615.077 -23.0229 609.674C-13.6223 615.839 -5.63479 628.404 4.39949 632.98C14.2096 641.138 26.0665 641.306 33.7513 657.809Z" fill="#F6941D"/>
<path d="M22.5822 707.764C20.6042 710.33 18.6262 712.897 16.3306 715.626C10.2858 716.241 4.76526 709.448 -0.894907 707.072C-9.16825 707.589 -15.0953 698.83 -21.1004 690.423C-25.5012 684.918 -18.7649 678.67 -23.4053 672.977C-22.5415 670.361 -21.0317 669.898 -19.1208 670.16C-9.62788 675.537 -4.53184 694.346 6.45454 695.543C11.7246 699.671 17.6969 700.644 22.5822 707.764Z" fill="#F28F19"/>
<path d="M8.15672 694.565C-3.61703 699.369 -9.59208 681.877 -17.766 671.745C-22.5866 663.006 -32.1505 662.936 -34.125 648.996C-22.7419 645.951 -13.2902 656.672 -3.99478 668.096C-1.98622 671.737 -0.691899 676.057 -0.591707 680.679C0.161146 688.704 5.18847 690.171 8.15672 694.565Z" fill="#F6941E"/>
<path d="M-0.645367 676.299C-2.69424 674.33 -4.3527 671.866 -4.2903 667.944C-4.46903 662.644 -1.48019 664.143 0.558874 663.722C5.04705 667.166 8.45578 675.34 14.0185 672.857C20.257 682.011 29.4401 681.909 36.3297 696.725C22.7208 689.461 10.9196 682.789 -0.645367 676.299Z" fill="#ED8B16"/>
<path d="M6.998 655.619C4.34122 652.846 1.22052 650.881 -1.29642 643.968C8.67817 647.234 16.7163 652.902 24.6822 660.059C28.9781 664.067 32.7424 671.534 38.1825 669.455C39.8305 673.012 39.2178 675.639 38.2945 678.417C28.3698 667.855 17.4542 662.722 6.998 655.619Z" fill="#F18F1A"/>
<path d="M34.1028 647.744C24.187 640.375 14.5111 633.195 4.51715 626.178C3.86995 624.018 2.82651 622.373 3.37351 619.91C4.64585 619.256 5.91269 617.359 6.87246 618.112C9.75177 620.372 12.7478 630.985 15.5775 622.052C18.2509 613.823 11.6272 611.93 8.82053 608.075C3.12901 600.716 -3.42209 597.227 -10.3694 594.254C-16.0389 591.87 -14.6213 588.025 -11.3678 584.795C-0.0675132 580.858 9.88691 596.932 20.5786 599.539C25.7176 608.116 30.4549 615.965 37.9602 618.963C44.1096 621.724 48.5287 629.736 50.0907 640.463C44.7614 642.89 37.4068 637.944 34.1028 647.744Z" fill="#F3911B"/>
<path d="M23.9101 599.835C18.8365 603.675 13.7411 602.564 8.70186 596.152C3.42321 589.552 -2.85859 589.98 -8.2098 584.968C-13.4776 580.844 -18.8233 577.07 -24.0911 572.946C-38.0912 572.676 -48.3202 561.79 -51.6598 543.961C-38.7226 537.642 -28.6949 557.006 -16.9005 562.128C-14.0327 563.14 -11.2374 565.739 -10.3576 566.839C-6.37055 569.138 -8.06294 564.113 -7.57316 566.963C-7.48971 567.851 -8.04662 567.826 -8.76495 567.264C-17.1509 559.465 -28.1997 561.094 -33.6834 544.055C-21.3032 537.711 -9.86067 553.248 2.00628 556.782C3.04205 557.182 3.36494 558.257 3.84928 559.87C8.36974 574.922 14.4557 584.209 24.028 590.47C23.9609 593.295 23.8158 596.471 23.9101 599.835Z" fill="#F7941E"/>
<path d="M4.94929 724.788C14.7957 735.669 25.5781 743.632 36.743 748.655C35.171 750.673 41.051 758.07 35.5125 756.605C31.5564 755.558 27.7503 752.604 24.0217 749.306C12.9962 739.939 1.97596 731.791 -9.69545 737.709C-17.9126 738.213 -23.9529 730.287 -29.1349 719.788C-28.9027 700.134 -19.9458 706.276 -12.0285 709.588C-5.69358 712.48 -1.69586 723.274 4.94929 724.788Z" fill="#F18F19"/>
<path d="M-3.83248 827.681C-3.48821 833.696 -3.93957 839.499 -6.30486 843.804C-10.5115 845.029 -13.8664 841.174 -17.2991 837.668C-31.6188 816.21 -50.7416 804.948 -63.6475 779.671C-60.0406 768.539 -54.9115 778.295 -50.6052 781.663C-44.3071 786.178 -39.256 796.284 -32.028 795.371C-25.5123 795.132 -20.5554 801.881 -15.5985 808.631C-10.9642 814.307 -5.38377 818.261 -3.83248 827.681Z" fill="#F9A138"/>
<path d="M-17.2072 807.254C-21.1697 802.58 -23.6512 793.82 -29.4043 794.601C-38.0054 793.18 -44.5115 783.722 -50.8576 774.791C-51.7755 762.815 -46.0742 768.431 -42.9939 769.606C-34.7798 772.74 -26.7929 778.113 -18.8884 782.616C-9.3123 790.827 1.88939 791.846 9.52515 807.408C8.74595 809.622 7.96679 811.836 7.18759 814.05C-0.985623 820.604 -9.01354 805.543 -17.2072 807.254Z" fill="#F79520"/>
<path d="M10.0409 802.397C0.188413 795.617 -9.81348 790.716 -19.1256 781.561C-22.6637 781.232 -24.3244 778.759 -23.6397 773.306C-21.8444 770.301 -19.0931 770.424 -16.1824 771.068C-3.66574 775.911 8.00185 784.485 18.6659 797.47C20.4039 799.604 23.6332 801.29 23.4116 804.708C23.1127 808.464 20.1199 806.96 17.9139 805.662C15.3941 804.521 12.5606 803.538 10.0409 802.397Z" fill="#ED8B15"/>
<path d="M19.4633 795.736C7.03566 791.353 -3.69603 776.951 -15.8858 772.752C-16.6203 767.324 -15.5292 763.717 -12.2142 762.647C-1.5034 772.175 14.2133 769.395 19.4633 795.736Z" fill="#F79620"/>
<path d="M-17.924 836.102C-14.7725 839.312 -11.3848 842.702 -8.23323 845.911C-5.631 849.095 -2.40722 850.774 -2.14669 856.922C-9.69283 853.517 -17.5522 850.268 -25.0983 846.862C-31.8161 834.971 -43.9637 838.349 -49.5204 822.588C-44.8566 811.886 -38.4666 820.354 -32.9587 824.18C-28.2363 827.8 -23.427 833.47 -17.924 836.102Z" fill="#EA8D1D"/>
<path d="M-18.6347 806.98C-10.5056 796.971 -2.34172 813.155 5.91347 813.875C7.50761 815.528 9.10171 817.181 13.8841 822.14C6.0288 822.141 0.4627 819.433 -3.88766 822.579C-8.83109 817.085 -13.6134 812.126 -18.6347 806.98Z" fill="#F08F19"/>
<path d="M-27.1121 719.493C-29.7421 718.668 -31.0851 720.909 -32.027 723.877C-33.1414 723.827 -34.4173 723.239 -35.4591 721.6C-37.7878 716.894 -39.4032 711.511 -41.9715 706.617C-48.3949 693.762 -56.1559 684.388 -65.8008 680.949C-66.9987 680.011 -68.1185 678.722 -69.1603 677.082C-70.4471 674.015 -71.1768 670.973 -70.7921 667.981C-70.4019 666.228 -69.5326 664.851 -68.1841 663.849C-61.6702 661.129 -54.8839 666.034 -48.1866 668.811C-39.4112 673.627 -30.2401 677.93 -23.1815 690.459C-15.9051 698.218 -8.38914 706.165 -1.11279 713.924C-0.361245 721.923 4.34142 723.549 7.62296 727.767C0.702499 728.521 -5.22536 719.76 -11.527 716.47C-18.4693 712.266 -23.4061 711.692 -27.1121 719.493Z" fill="#F7951F"/>
<path d="M-32.1041 649.964C-35.7073 647.617 -39.3873 645.602 -42.9905 643.255C-42.9277 639.391 -44.8899 637.117 -47.1733 632.643C-29.7906 642.332 -12.8152 647.799 1.71166 666.272C-0.00146967 667.709 -1.40268 668.992 -3.11581 670.429C-11.6024 658.11 -21.7019 652.783 -32.1041 649.964Z" fill="#F18E18"/>
<path d="M3.05574 625.112C3.45503 626.996 3.85431 628.88 4.17662 631.099C-7.5858 628.029 -15.7159 612.741 -25.7801 603.471C-14.8836 605.485 -6.14727 615.712 3.05574 625.112Z" fill="#F08D17"/>
</g>
<g opacity="0.6">
<path d="M49.72 317.83C43.8663 331.479 29.6506 337.423 29.6506 337.423C26.5193 339.287 22.9498 336.716 24.9499 333.451C24.9499 333.451 25.8387 333.06 27.3454 332.246L27.376 332.216C31.7094 329.864 40.6481 323.972 45.0346 313.842C46.8688 312.052 51.0748 315.105 49.72 317.83Z" fill="#707070"/>
<path d="M54.4137 321.796C48.5273 335.418 34.3449 341.389 34.3449 341.389C31.9451 342.896 28.3659 339.649 29.6116 337.389C29.6116 337.389 43.8268 331.446 49.6804 317.797C52.4034 316.868 55.7227 319.534 54.4137 321.796Z" fill="#9E9E9E"/>
<path d="M59.124 325.777C53.2378 339.398 39.0555 345.369 39.0555 345.369C36.301 346.716 33.2928 343.061 34.3223 341.37C34.3223 341.37 48.5046 335.399 54.3908 321.778C56.3571 320.962 60.4657 323.543 59.124 325.777Z" fill="#707070"/>
<path d="M32.4043 310.187C32.4043 310.187 35.2386 323.093 27.3852 332.28L27.3547 332.31C25.8812 333.122 24.9618 333.513 24.9618 333.513L-14.1387 331.757C-9.86881 329.943 -5.12671 327.638 -0.189434 324.635L32.4043 310.187Z" fill="#DEDEDE"/>
<path d="M39.2463 279.659L45.0784 313.903C40.7107 324.009 31.764 329.912 27.4341 332.261C35.2897 323.072 32.4546 310.163 32.4546 310.163L-0.131816 324.628C14.0819 316.028 29.7693 302.025 39.2463 279.659Z" fill="#A6A6A6"/>
<path d="M-104.703 115.024L-97.415 122.181C-96.1177 123.471 -94.7562 124.788 -93.3936 126.134C-92.3596 127.146 -91.3094 128.172 -90.257 129.256C-82.7735 136.578 -74.5326 144.707 -66.505 152.628C-64.9781 154.14 -63.4523 155.623 -61.958 157.108L-53.1914 165.764C-39.893 178.916 -29.0857 189.712 -26.3181 192.689C-17.8965 201.831 -16.1804 217.459 -16.1804 217.459C-14.0256 218.448 -11.7869 219.563 -9.52652 220.834C-11.2513 223.261 -13.0566 225.648 -14.8325 227.977C-17.4812 231.454 -20.2126 234.834 -22.9483 238.1L-41.0095 235.574C-40.4949 232.901 -40.5162 204.082 -40.5162 204.082C-49.9679 184.47 -91.7339 146.515 -91.7339 146.515L-113.146 142.711L-110.072 132.545L-107.278 123.336L-104.703 115.024Z" fill="#D27100"/>
<path d="M-91.9284 146.61L-113.355 142.804L-119.09 161.642L-124.082 177.999L-144.69 184.908L-144.723 184.88L-146.409 185.455L-148.158 186.032L-165.192 191.712L-168.672 192.909L-183.864 197.981L-185.55 198.555L-187.284 199.117L-201.632 203.931L-203.302 204.491L-205.082 205.097L-215.746 208.636L-219.196 209.802L-224.161 211.466L-195.91 214.263L-148.574 257.843C-148.574 257.843 -147.169 259.863 -144.772 262.194L-144.494 262.428C-142.828 263.836 -132.162 270.71 -99.9945 250.94C-99.9945 250.94 -88.7772 272.329 -86.9923 272.699C-86.9923 272.699 -66.9205 268.724 -60.9801 261.943C-63.7363 265.556 -77.3504 283.429 -78.0561 284.832C-78.0561 284.832 -78.0234 284.859 -78.0049 284.93C-78.0027 284.988 -77.9667 285.101 -77.9308 285.215C-77.6661 285.938 -77.0289 287.726 -76.0661 290.178L-76.0813 290.193L-76.0486 290.221C-75.8199 290.83 -75.5759 291.425 -75.2982 292.076C-75.2601 292.247 -75.1751 292.402 -75.1217 292.559C-77.2779 294.069 -79.3133 295.431 -81.2887 296.705L-81.3192 296.734C-81.1689 296.945 -81.0175 297.184 -80.8836 297.38C-80.6995 297.647 -80.5329 297.871 -80.3641 298.152C-80.3129 298.251 -80.2138 298.363 -80.1484 298.418C-79.8979 298.768 -79.6474 299.119 -79.4133 299.456C-79.4111 299.513 -79.3947 299.527 -79.3621 299.554C-78.8937 300.228 -78.4581 300.874 -77.9593 301.517C-77.9571 301.574 -77.9081 301.616 -77.8591 301.657C-77.8406 301.728 -77.8079 301.756 -77.7894 301.827C-77.4724 302.262 -77.1239 302.695 -76.8222 303.144C-76.6893 303.312 -76.5554 303.509 -76.4225 303.676C-76.3713 303.775 -76.3049 303.859 -76.2537 303.958C-75.2887 305.217 -74.3554 306.478 -73.5058 307.612C-73.007 308.256 -72.493 308.885 -71.9321 309.498C-71.6348 309.832 -71.369 310.168 -71.0575 310.459C-70.7765 310.779 -70.464 311.099 -70.1351 311.432C-69.511 312.043 -68.8695 312.696 -68.1823 313.305C-67.8534 313.638 -67.4929 313.97 -67.1172 314.288C-66.7578 314.592 -66.4147 314.882 -66.0695 315.229C-64.2855 316.819 -62.3448 318.376 -60.3746 319.874L-60.3419 319.902C-58.6179 321.164 -56.8787 322.412 -55.1416 323.602C-48.5995 328.075 -42.0345 331.9 -37.4474 334.444C19.3811 320.351 15.2707 256.321 15.2707 256.321L15.189 256.252L3.52611 249.34L-12.4408 239.847L-20.0228 238.799L-23.1385 238.36L-23.1712 238.332L-41.245 235.804C-40.73 233.13 -40.7513 204.291 -40.7513 204.291C-50.1334 184.591 -91.9284 146.61 -91.9284 146.61ZM-137.882 255.438L-183.318 211.104C-174.002 211.589 -164.138 202.793 -164.138 202.793C-150.491 215.324 -109.307 240.96 -109.307 240.96C-118.63 249.02 -137.882 255.438 -137.882 255.438Z" fill="#FFAC1C"/>
<path d="M-104.703 115.024L-97.415 122.181C-96.1177 123.471 -94.7562 124.788 -93.3936 126.134C-92.3596 127.146 -91.3094 128.172 -90.257 129.256C-82.7735 136.578 -74.5326 144.707 -66.505 152.628C-64.9781 154.14 -63.4523 155.623 -61.958 157.108L-53.1914 165.764C-39.893 178.916 -29.0857 189.712 -26.3181 192.689C-17.8965 201.831 -16.1804 217.459 -16.1804 217.459C-14.0256 218.448 -11.7869 219.563 -9.52652 220.834C-11.2513 223.261 -13.0566 225.648 -14.8325 227.977C-17.4812 231.454 -20.2126 234.834 -22.9483 238.1L-41.0095 235.574C-40.4949 232.901 -40.5162 204.082 -40.5162 204.082C-49.9679 184.47 -91.7339 146.515 -91.7339 146.515L-113.146 142.711L-110.072 132.545L-107.278 123.336L-104.703 115.024Z" fill="#A6A6A6"/>
<path d="M-91.9284 146.61L-113.355 142.804L-119.09 161.642L-124.082 177.999L-144.69 184.908L-144.723 184.88L-146.409 185.455L-148.158 186.032L-165.192 191.712L-168.672 192.909L-183.864 197.981L-185.55 198.555L-187.284 199.117L-201.632 203.931L-203.302 204.491L-205.082 205.097L-215.746 208.636L-219.196 209.802L-224.161 211.466L-195.91 214.263L-148.574 257.843C-148.574 257.843 -147.169 259.863 -144.772 262.194L-144.494 262.428C-142.828 263.836 -132.162 270.71 -99.9945 250.94C-99.9945 250.94 -88.7772 272.329 -86.9923 272.699C-86.9923 272.699 -66.9205 268.724 -60.9801 261.943C-63.7363 265.556 -77.3504 283.429 -78.0561 284.832C-78.0561 284.832 -78.0234 284.859 -78.0049 284.93C-78.0027 284.988 -77.9667 285.101 -77.9308 285.215C-77.6661 285.938 -77.0289 287.726 -76.0661 290.178L-76.0813 290.193L-76.0486 290.221C-75.8199 290.83 -75.5759 291.425 -75.2982 292.076C-75.2601 292.247 -75.1751 292.402 -75.1217 292.559C-77.2779 294.069 -79.3133 295.431 -81.2887 296.705L-81.3192 296.734C-81.1689 296.945 -81.0175 297.184 -80.8836 297.38C-80.6995 297.647 -80.5329 297.871 -80.3641 298.152C-80.3129 298.251 -80.2138 298.363 -80.1484 298.418C-79.8979 298.768 -79.6474 299.119 -79.4133 299.456C-79.4111 299.513 -79.3947 299.527 -79.3621 299.554C-78.8937 300.228 -78.4581 300.874 -77.9593 301.517C-77.9571 301.574 -77.9081 301.616 -77.8591 301.657C-77.8406 301.728 -77.8079 301.756 -77.7894 301.827C-77.4724 302.262 -77.1239 302.695 -76.8222 303.144C-76.6893 303.312 -76.5554 303.509 -76.4225 303.676C-76.3713 303.775 -76.3049 303.859 -76.2537 303.958C-75.2887 305.217 -74.3554 306.478 -73.5058 307.612C-73.007 308.256 -72.493 308.885 -71.9321 309.498C-71.6348 309.832 -71.369 310.168 -71.0575 310.459C-70.7765 310.779 -70.464 311.099 -70.1351 311.432C-69.511 312.043 -68.8695 312.696 -68.1823 313.305C-67.8534 313.638 -67.4929 313.97 -67.1172 314.288C-66.7578 314.592 -66.4147 314.882 -66.0695 315.229C-64.2855 316.819 -62.3448 318.376 -60.3746 319.874L-60.3419 319.902C-58.6179 321.164 -56.8787 322.412 -55.1416 323.602C-48.5995 328.075 -42.0345 331.9 -37.4474 334.444C19.3811 320.351 15.2707 256.321 15.2707 256.321L15.189 256.252L3.52611 249.34L-12.4408 239.847L-20.0228 238.799L-23.1385 238.36L-23.1712 238.332L-41.245 235.804C-40.73 233.13 -40.7513 204.291 -40.7513 204.291C-50.1334 184.591 -91.9284 146.61 -91.9284 146.61ZM-137.882 255.438L-183.318 211.104C-174.002 211.589 -164.138 202.793 -164.138 202.793C-150.491 215.324 -109.307 240.96 -109.307 240.96C-118.63 249.02 -137.882 255.438 -137.882 255.438Z" fill="#DEDEDE"/>
<path d="M44.8136 263.004C43.3971 269.065 41.5812 274.622 39.3684 279.733L39.3705 279.79C29.8952 302.152 14.2106 316.153 -0.016958 324.738C-4.93945 327.726 -9.69726 330.046 -13.9675 331.861L-14.0308 331.863C-24.1748 336.223 -31.5363 337.539 -31.5363 337.539C-31.5363 337.539 -33.9088 336.369 -37.5979 334.309C19.3211 320.193 15.2042 256.061 15.2042 256.061L15.1224 255.992L3.44089 249.069C6.57772 244.934 9.72217 240.583 12.9201 235.971C11.142 234.608 9.36398 233.244 7.54013 231.926C10.3239 233.916 13.064 236.009 15.7398 238.076C31.7945 250.473 44.8136 263.004 44.8136 263.004Z" fill="#E07800"/>
<path d="M15.1721 256.023L15.2539 256.092C15.2539 256.092 19.3697 320.207 -37.534 334.319C-42.1272 331.772 -48.7325 327.942 -55.2516 323.462C-56.991 322.271 -58.7326 321.022 -60.4589 319.758L-60.4916 319.73C-62.4807 318.216 -64.423 316.686 -66.194 315.078C-66.5397 314.731 -66.8996 314.427 -67.2431 314.136C-67.6193 313.818 -67.965 313.471 -68.3096 313.152C-68.9825 312.527 -69.6401 311.888 -70.265 311.277C-70.5779 310.957 -70.9226 310.638 -71.1886 310.302C-71.4853 309.996 -71.7666 309.674 -72.0644 309.34C-72.6423 308.712 -73.1571 308.083 -73.6402 307.452C-74.4909 306.316 -75.4407 305.069 -76.3917 303.792C-76.443 303.694 -76.5095 303.61 -76.5607 303.511C-76.6938 303.343 -76.8279 303.146 -76.961 302.978C-77.3121 302.486 -77.6786 302.01 -78.0145 301.504C-78.0635 301.462 -78.129 301.407 -78.1148 301.363C-78.6143 300.719 -79.0505 300.072 -79.5194 299.398C-79.5522 299.37 -79.5685 299.357 -79.5707 299.299C-79.8215 298.948 -80.056 298.611 -80.3068 298.26C-80.6918 297.712 -81.0779 297.136 -81.4803 296.546C-81.7475 296.181 -81.9983 295.83 -82.2513 295.422C-82.3517 295.281 -82.4694 295.098 -82.5698 294.958L-82.6025 294.93C-80.571 293.394 -78.4327 291.753 -76.266 290.025L-76.2355 289.995C-64.5995 280.811 -51.3835 269.041 -38.0979 254.939C-36.7578 253.541 -35.4657 252.131 -34.1277 250.676C-33.9293 250.482 -33.7308 250.288 -33.5498 250.052C-30.5108 246.698 -27.4915 243.244 -24.4918 239.69C-24.1592 239.276 -23.8408 238.905 -23.5235 238.506C-23.4014 238.387 -23.2814 238.21 -23.1757 238.077L-23.1429 238.105L-20.0231 238.545L-12.4311 239.594L3.55698 249.1L15.1721 256.023Z" fill="#FFAC1C"/>
<path d="M13.1097 235.968C9.91407 240.547 6.75769 244.908 3.64053 249.053L-12.3349 239.554L-19.9209 238.506L-23.0384 238.066L-23.0711 238.039C-20.3319 234.769 -17.6135 231.371 -14.9453 227.903C-13.1671 225.572 -11.3596 223.182 -9.63266 220.752C-9.18045 220.995 -8.72825 221.238 -8.27604 221.482C-7.24087 222.078 -6.18934 222.689 -5.1193 223.371C-4.4557 223.765 -3.80844 224.145 -3.1601 224.554C-2.20446 225.14 -1.2314 225.767 -0.273587 226.41C1.41321 227.502 3.13486 228.679 4.82602 229.886C5.80018 230.542 6.79069 231.212 7.75177 231.941C9.55735 233.245 11.3335 234.606 13.1097 235.968Z" fill="#F5D773"/>
<path d="M3.59099 249.122C-22.5414 283.789 -46.9815 303.354 -64.4042 314.07C-64.9925 314.436 -65.5798 314.83 -66.1845 315.182C-66.5306 314.834 -66.8908 314.53 -67.2347 314.239C-67.6113 313.921 -67.9574 313.573 -68.3024 313.253C-68.9759 312.629 -69.6342 311.989 -70.2597 311.377C-70.573 311.056 -70.918 310.737 -71.1844 310.401C-71.4813 310.094 -71.763 309.773 -72.061 309.437C-72.6396 308.809 -73.1549 308.179 -73.6385 307.548C-74.49 306.411 -75.4409 305.162 -76.3928 303.884C-76.4442 303.785 -76.5108 303.701 -76.5621 303.602C-76.6953 303.434 -76.8295 303.237 -76.9627 303.069C-77.3142 302.577 -77.6811 302.1 -78.0173 301.593C-78.0664 301.552 -78.1319 301.497 -78.1177 301.453C-78.6177 300.808 -79.0544 300.16 -79.5238 299.485C-79.5566 299.458 -79.573 299.444 -79.5752 299.386C-79.8263 299.035 -80.061 298.698 -80.3121 298.346C-80.3939 298.277 -80.478 298.15 -80.5282 298.08C-80.6974 297.798 -80.8645 297.573 -81.049 297.306C-81.1996 297.095 -81.3666 296.871 -81.4856 296.659C-81.5533 296.546 -81.6527 296.434 -81.7367 296.307C-81.9059 296.025 -82.073 295.801 -82.2422 295.519C-82.3426 295.378 -82.4605 295.195 -82.561 295.054C-80.5274 293.516 -78.3868 291.874 -76.2179 290.144C-64.5851 280.965 -51.3095 269.138 -38.0428 254.994C-36.7013 253.594 -35.4078 252.183 -34.0685 250.726C-33.8699 250.532 -33.6712 250.338 -33.49 250.101C-30.4315 246.758 -27.4254 243.286 -24.4225 239.728C-24.0896 239.314 -23.7709 238.943 -23.4533 238.544C-23.331 238.424 -23.1782 238.275 -23.0887 238.128L-19.9655 238.568L-12.3657 239.619L3.59099 249.122Z" fill="#FFEEB5"/>
</g>
</svg>
