<svg width="49" height="38" viewBox="0 0 49 38" fill="none" xmlns="http://www.w3.org/2000/svg">
<path d="M44.1953 3.30196C46.9835 6.26339 48.4805 9.58485 48.4805 14.969C48.4805 24.4435 41.8294 32.9353 32.1574 37.1338L29.74 33.4036C38.7678 28.5202 40.5328 22.1831 41.2366 18.1876C39.7829 18.9402 37.8799 19.2028 36.0148 19.0295C31.1314 18.5774 27.2821 14.5684 27.2821 9.58486C27.2821 7.07208 28.2803 4.66222 30.0571 2.88542C31.8339 1.10862 34.2438 0.110425 36.7565 0.110425C38.1461 0.122567 39.5195 0.410992 40.7965 0.958913C42.0736 1.50683 43.229 2.3033 44.1953 3.30196ZM17.1255 3.30196C19.9137 6.26339 21.4107 9.58486 21.4107 14.969C21.4107 24.4435 14.7596 32.9353 5.08758 37.1338L2.67025 33.4036C11.698 28.5202 13.463 22.1831 14.1668 18.1876C12.7131 18.9402 10.8101 19.2028 8.94502 19.0295C4.06163 18.5774 0.212309 14.5684 0.212308 9.58486C0.212308 7.07208 1.2105 4.66222 2.9873 2.88542C4.7641 1.10862 7.17396 0.110428 9.68674 0.110427C11.0763 0.122569 12.4497 0.410995 13.7267 0.958915C15.0038 1.50683 16.1592 2.3033 17.1255 3.30196Z" fill="white"/>
</svg>
