<svg width="49" height="38" viewBox="0 0 49 38" fill="none" xmlns="http://www.w3.org/2000/svg">
<path d="M4.30761 33.8318C1.51942 30.8704 0.0224609 27.5489 0.0224609 22.1648C0.0224609 12.6903 6.67351 4.19853 16.3455 0L18.7629 3.73022C9.73511 8.61361 7.97015 14.9506 7.26634 18.9462C8.71999 18.1936 10.623 17.931 12.4881 18.1043C17.3715 18.5563 21.2208 22.5654 21.2208 27.5489C21.2208 30.0617 20.2226 32.4716 18.4458 34.2484C16.669 36.0252 14.2592 37.0234 11.7464 37.0234C10.3568 37.0112 8.98347 36.7228 7.70639 36.1749C6.42931 35.627 5.27397 34.8305 4.30761 33.8318ZM31.3774 33.8318C28.5892 30.8704 27.0923 27.5489 27.0923 22.1648C27.0923 12.6903 33.7433 4.19853 43.4154 0L45.8327 3.73022C36.8049 8.61361 35.04 14.9506 34.3361 18.9462C35.7898 18.1936 37.6928 17.931 39.5579 18.1043C44.4413 18.5563 48.2906 22.5654 48.2906 27.5489C48.2906 30.0617 47.2924 32.4716 45.5156 34.2484C43.7388 36.0252 41.329 37.0234 38.8162 37.0234C37.4266 37.0112 36.0533 36.7228 34.7762 36.1749C33.4991 35.627 32.3438 34.8305 31.3774 33.8318Z" fill="white"/>
</svg>
