<svg width="252" height="219" viewBox="0 0 252 219" fill="none" xmlns="http://www.w3.org/2000/svg">
<g clip-path="url(#clip0_143_136)">
<path fill-rule="evenodd" clip-rule="evenodd" d="M58.6381 94.934C58.9795 86.5944 59.4725 80.5016 62.9999 70.753C65.0481 64.127 64.8205 58.7577 64.7826 54.9116C64.7826 53.9596 64.6688 53.4265 64.555 52.5506C63.8723 46.1912 60.0415 42.8401 57.5382 43.7921C56.2486 44.3253 55.6796 51.1416 55.2245 53.9215C53.2143 63.8605 50.9385 68.9252 48.9662 78.9022C52.8729 85.7186 56.2865 91.8876 58.6381 94.934ZM47.3353 76.0081C49.7627 62.9465 53.5556 49.428 55.1107 36.8996C56.4762 25.8182 50.5592 19.4969 46.9181 20.8678C45.363 21.5151 44.6803 30.464 44.1492 33.32C42.4045 42.1928 39.5978 51.0274 37.1324 59.9001C37.6255 60.4713 36.6393 59.1004 38.5358 61.728C40.3564 64.4317 44.3389 70.753 47.3353 76.0081ZM35.2739 57.6534C37.3979 47.6002 40.4322 35.9095 41.8735 26.5037C43.77 14.5845 38.7633 7.99662 33.6429 8.94863C31.8982 9.55791 30.8741 19.1922 30.1914 22.2767C28.2191 30.921 25.3365 40.8219 22.6815 49.428C24.9193 49.8088 29.8121 51.4082 35.2739 57.6534Z" fill="#DCC29D"/>
<path fill-rule="evenodd" clip-rule="evenodd" d="M105.328 218.999C138.327 175.816 122.624 141.544 85.1123 115.725C73.8853 108.033 62.8859 104.834 56.7793 97.142C47.1833 85.0325 36.639 60.2422 28.0292 54.8348C15.6264 46.9902 17.0298 59.8614 17.0298 59.8614C17.0298 59.8614 26.7017 90.3637 28.2567 93.6386C29.8498 96.9135 37.6631 108.604 40.5078 110.28C37.3597 109.632 30.9876 102.169 25.7914 94.1718C24.1983 91.7727 23.4777 88.3074 22.3778 84.9182C17.5608 70.105 12.9334 62.1843 13.9955 55.406C15.0954 48.7038 21.2778 49.3131 21.2778 49.3131C21.2778 49.3131 23.1743 41.4305 27.9912 20.4863C31.0635 7.27242 24.6914 -1.0291 20.1779 0.151393C18.1297 0.608357 16.2333 11.347 15.2092 14.7362C10.8094 29.359 -1.02441 48.8181 0.0755309 59.8614C1.51683 73.9511 3.37535 107.119 15.9678 124.674C50.9383 173.341 91.7877 157.195 105.328 218.999Z" fill="#DCC29D"/>
<path fill-rule="evenodd" clip-rule="evenodd" d="M193.323 94.934C193.02 86.5944 192.489 80.5016 188.961 70.753C186.875 64.127 187.103 58.7577 187.179 54.9116C187.179 53.9596 187.292 53.4265 187.406 52.5506C188.089 46.1912 191.92 42.8401 194.423 43.7921C195.713 44.3253 196.282 51.1416 196.737 53.9215C198.747 63.8605 200.985 68.9252 202.995 78.9022C199.088 85.7186 195.675 91.8876 193.323 94.934ZM204.664 76.0081C202.236 62.9465 198.444 49.428 196.888 36.8996C195.485 25.8182 201.44 19.4969 205.043 20.8678C206.674 21.5151 207.319 30.464 207.85 33.32C209.595 42.1928 212.401 51.0274 214.829 59.9001C214.374 60.4713 215.36 59.1004 213.463 61.728C211.643 64.4317 207.66 70.753 204.664 76.0081ZM216.687 57.6534C214.563 47.6002 211.529 35.9095 210.088 26.5037C208.191 14.5845 213.198 7.99662 218.318 8.94863C220.063 9.51983 221.125 19.1922 221.808 22.2387C223.742 30.8829 226.663 40.7838 229.356 49.3899C227.004 49.8088 222.149 51.4082 216.687 57.6534Z" fill="#DCC29D"/>
<path fill-rule="evenodd" clip-rule="evenodd" d="M146.672 219C113.636 175.816 129.376 141.544 166.888 115.726C178.115 108.033 189.076 104.835 195.183 97.1425C204.779 85.033 215.323 60.2427 223.933 54.8352C236.336 46.9907 234.97 59.8619 234.97 59.8619C234.97 59.8619 225.26 90.3642 223.743 93.6391C222.15 96.914 214.337 108.605 211.492 110.28C214.678 109.633 221.012 102.169 226.247 94.1722C227.84 91.7732 228.522 88.3079 229.66 84.9187C234.477 70.1055 239.105 62.1848 238.043 55.4065C236.943 48.7043 230.722 49.3136 230.722 49.3136C230.722 49.3136 228.902 41.431 224.047 20.4868C220.974 7.27291 227.347 -1.02861 231.86 0.151882C233.87 0.685006 235.805 11.3856 236.829 14.7747C241.229 29.3976 253.062 48.8566 251.962 59.8999C250.483 73.9897 248.625 107.158 236.07 124.713C201.062 173.341 160.212 157.195 146.672 219Z" fill="#DCC29D"/>
</g>
<defs>
<clipPath id="clip0_143_136">
<rect width="252" height="219" fill="white"/>
</clipPath>
</defs>
</svg>
