<svg width="112" height="314" viewBox="0 0 112 314" fill="none" xmlns="http://www.w3.org/2000/svg">
<path d="M65.1085 256.52C57.271 266.419 45.1244 268.019 45.1244 268.019C42.3085 268.829 40.2871 265.88 42.611 263.651C42.611 263.651 43.3751 263.536 44.6941 263.223L44.7245 263.205C48.5638 262.272 56.7471 259.488 62.595 252.152C64.4366 251.093 66.8125 254.588 65.1085 256.52Z" fill="#707070"/>
<path d="M67.6308 260.904C59.7758 270.772 47.6467 272.403 47.6467 272.403C45.4686 273.089 43.6111 269.579 45.1157 268.004C45.1157 268.004 57.2623 266.404 65.0998 256.505C67.3733 256.372 69.1834 259.342 67.6308 260.904Z" fill="#9E9E9E"/>
<path d="M70.1618 265.303C62.3068 275.171 50.1777 276.802 50.1777 276.802C47.7833 277.288 46.4479 273.559 47.6467 272.403C47.6467 272.403 59.7758 270.772 67.6307 260.904C69.3094 260.688 71.7319 263.771 70.1618 265.303Z" fill="#707070"/>
<path d="M54.0759 246.114C54.0759 246.114 52.9293 257.43 44.7157 263.19L44.6853 263.207C43.3663 263.521 42.6021 263.636 42.6021 263.636L13.744 253.094C17.4038 252.588 21.5419 251.788 26.0029 250.456L54.0759 246.114Z" fill="#DEDEDE"/>
<path d="M66.9167 222.518L62.6101 252.144C56.7623 259.48 48.5789 262.264 44.7396 263.196C52.9533 257.437 54.0999 246.121 54.0999 246.121L26.0269 250.463C38.8335 246.7 54.1345 238.787 66.9167 222.518Z" fill="#A6A6A6"/>
<path d="M59.8033 182.587C68.662 196.574 75.234 209.932 75.234 209.932C72.6365 214.608 69.8676 218.774 66.9144 222.479L66.9014 222.527C54.1432 238.802 38.8334 246.7 25.9964 250.481C21.5506 251.803 17.3973 252.612 13.7375 253.118L13.6895 253.105C4.98321 254.346 -0.866736 253.721 -0.866736 253.721C-0.866736 253.721 -2.34801 252.203 -4.59036 249.644C41.6392 251.224 54.8052 197.315 54.8052 197.315L54.7615 197.239C58.1351 194.265 61.0844 191.433 63.6075 188.847C62.4252 186.792 61.1535 184.687 59.8033 182.587Z" fill="#E07800"/>
<path d="M0.403804 52.5632L4.04442 60.1929C9.29357 71.111 15.8162 84.6999 21.8198 97.3517L26.2056 106.558C32.8775 120.548 38.2437 131.986 39.5751 135.11C43.5786 144.637 40.8981 157.971 40.8981 157.971C42.532 159.543 44.2014 161.317 45.8712 163.233C41.5099 167.343 37.1456 171.131 32.8173 174.594L17.6489 167.175C18.7229 165.098 26.0176 141.229 26.0176 141.229C23.8998 122.796 2.17023 81.6523 2.17023 81.6523L-12.9547 73.4994L-8.06401 65.8028L-3.61119 58.824L0.403804 52.5632Z" fill="#E07800"/>
<path d="M2.17026 81.6523L-12.9546 73.4994L-22.0314 87.758L-29.929 100.123L-47.1503 101.037L-47.1678 101.006L-48.5942 101.098L-50.0533 101.167L-64.2803 101.898L-67.181 102.068L-79.8705 102.725L-81.2969 102.816L-82.7255 102.868L-94.7072 103.523L-96.1031 103.597L-97.5927 103.684L-106.495 104.126L-109.389 104.272L-113.538 104.492L-93.0441 113.384L-68.5765 160.448C-68.5765 160.448 -68.0195 162.438 -66.8271 164.932L-66.6783 165.191C-65.785 166.743 -59.5095 174.903 -30.3479 166.045C-30.3479 166.045 -27.3576 186.346 -26.1118 187.068C-26.1118 187.068 -10.038 188.455 -3.84319 184.222C-6.84403 186.577 -21.583 198.177 -22.4839 199.182C-22.4839 199.182 -22.4865 201.959 -22.2667 206.249C-21.8502 212.959 -20.8084 223.36 -18.0526 232.269L-18.0351 232.299C-17.0616 233.745 -16.0728 235.181 -15.0711 236.57C-11.2961 241.793 -7.32454 246.477 -4.52713 249.648C41.7024 251.228 54.8685 197.319 54.8685 197.319L54.8247 197.243L38.266 177.233L32.8413 174.6L17.6729 167.182C18.7469 165.105 26.0416 141.236 26.0416 141.236C23.8998 122.796 2.17026 81.6523 2.17026 81.6523ZM-59.9412 160.95L-82.7759 113.695C-75.9225 116.276 -66.2712 111.289 -66.2712 111.289C-59.2086 124.831 -34.805 155.623 -34.805 155.623C-43.8631 160.126 -59.9412 160.95 -59.9412 160.95Z" fill="#FFAC1C"/>
<path d="M-37.0289 27.6474L-125.729 57.2515L-133.259 90.3935L-123.595 88.8443L-112.334 87.0442L-100.38 85.1091L-86.1181 82.8186L-71.9502 80.5415L-55.4289 77.8827L-35.5549 74.7129L-41.0074 42.457L-33.4616 36.9806L-6.24377 38.722L-37.0289 27.6474ZM-106.121 80.6939L-124.159 82.4425L-119.986 62.0913L-96.198 53.0835L-106.121 80.6939Z" fill="#FFAC1C"/>
<path d="M-3.87594 184.2C-6.87678 186.555 -21.6158 198.156 -22.5166 199.16C-22.5166 199.16 -22.5635 217.705 -18.0854 232.247C-20.9738 227.791 -23.4835 223.218 -24.8442 219.057C-29.5819 204.381 -35.8023 176.071 -35.8023 176.071L-55.5697 174.075C-61.2003 173.972 -64.7674 169.075 -66.7023 165.184C-65.809 166.737 -59.5335 174.897 -30.3719 166.038C-30.3719 166.038 -27.3816 186.34 -26.1358 187.061C-26.1206 187.053 -10.0555 188.424 -3.87594 184.2Z" fill="#E07800"/>
<path d="M-33.4615 36.9803L-41.0073 42.4567L-35.5548 74.7126L-29.929 100.122L-22.0314 87.7579L-12.9459 73.5145L-8.05522 65.8178L0.627126 64.5699L26.2209 106.549L0.403836 52.563L-6.62001 63.5941L-3.6024 58.8391L0.403836 52.563L-1.03184 49.5398L-2.24815 47.0387L-3.96868 43.4501L-4.84531 41.6449L-6.25013 38.7458L-33.4615 36.9803Z" fill="#D27100"/>
<path d="M-3.60254 58.8395L-12.946 73.5149L-22.0315 87.7583L-32.7346 44.8282L-26.0967 46.0128L-25.6195 48.2504L-19.9754 73.9738L-24.1479 56.723L-3.60254 58.8395Z" fill="#A75A00"/>
<path d="M63.6468 188.844C61.1236 191.43 58.1743 194.262 54.8007 197.237L38.242 177.226L32.8173 174.594C37.1456 171.131 41.5187 167.359 45.8712 163.233C46.4963 163.968 47.1302 164.717 47.7599 165.53C48.173 166.001 48.5469 166.475 48.9143 166.973C49.4827 167.679 50.0534 168.424 50.6089 169.178C51.5972 170.473 52.5749 171.856 53.5527 173.238C54.1409 174.014 54.6899 174.792 55.226 175.618C56.8076 177.909 58.3306 180.274 59.8122 182.602C61.1535 184.687 62.4253 186.792 63.6468 188.844Z" fill="#F5D773"/>
<path d="M38.242 177.226L54.8007 197.236C37.6808 212.375 10.6062 230.811 -15.1038 236.548C-16.1055 235.16 -17.0943 233.723 -18.0679 232.277L-18.0854 232.247C-20.9738 227.791 -23.4835 223.218 -24.8442 219.057C-25.5874 216.709 -26.3969 214.035 -27.1875 211.147C-27.4626 210.211 -27.7335 209.212 -27.9956 208.229C-26.2048 207.644 -24.301 206.974 -22.2994 206.227C-7.527 200.705 12.2449 191.091 32.7933 174.587L38.242 177.226Z" fill="#FFEEB5"/>
<path d="M2.05225 173.131L13.1477 166.747L21.5801 140.946L14.6016 142.409L2.05225 173.131Z" fill="#FFE17D"/>
</svg>
