<svg width="72" height="72" viewBox="0 0 72 72" fill="none" xmlns="http://www.w3.org/2000/svg">
<path d="M60.9533 11.2513C74.6217 24.9196 74.6217 47.0804 60.9533 60.7487C47.285 74.4171 25.1242 74.4171 11.4558 60.7487C-2.21251 47.0804 -2.21251 24.9196 11.4558 11.2513C25.1242 -2.41709 47.285 -2.41709 60.9533 11.2513Z" stroke="#110E10"/>
<path d="M21.4431 28.085C21.2354 28.0824 21.037 27.998 20.891 27.8501C20.745 27.7022 20.6631 27.5028 20.6632 27.295V20.795C20.6618 20.6917 20.681 20.5892 20.7196 20.4934C20.7582 20.3976 20.8155 20.3105 20.888 20.237C20.9606 20.1635 21.047 20.1051 21.1423 20.0653C21.2376 20.0255 21.3399 20.005 21.4431 20.005H27.9531C28.0637 19.9925 28.1756 20.0035 28.2816 20.0372C28.3876 20.071 28.4852 20.1267 28.5682 20.2008C28.6511 20.275 28.7175 20.3657 28.763 20.4673C28.8084 20.5688 28.8319 20.6788 28.8319 20.79C28.8319 20.9012 28.8084 21.0112 28.763 21.1127C28.7175 21.2143 28.6511 21.3051 28.5682 21.3792C28.4852 21.4533 28.3876 21.509 28.2816 21.5428C28.1756 21.5765 28.0637 21.5875 27.9531 21.575H22.2331V27.295C22.2331 27.5045 22.1499 27.7055 22.0018 27.8536C21.8536 28.0018 21.6527 28.085 21.4431 28.085Z" fill="#110E10"/>
<path d="M27.9532 52.9649H21.4432C21.2363 52.9649 21.0379 52.8827 20.8917 52.7364C20.7454 52.5902 20.6632 52.3918 20.6632 52.1849V45.6849C20.6507 45.5744 20.6617 45.4624 20.6954 45.3565C20.7292 45.2505 20.7849 45.1528 20.859 45.0699C20.9332 44.9869 21.0239 44.9205 21.1255 44.8751C21.227 44.8297 21.337 44.8062 21.4482 44.8062C21.5594 44.8062 21.6694 44.8297 21.7709 44.8751C21.8725 44.9205 21.9633 44.9869 22.0374 45.0699C22.1115 45.1528 22.1672 45.2505 22.201 45.3565C22.2347 45.4624 22.2457 45.5744 22.2332 45.6849V51.3649H27.9532C28.1619 51.3675 28.3614 51.4516 28.509 51.5992C28.6565 51.7467 28.7406 51.9462 28.7432 52.1549C28.7459 52.2603 28.7274 52.3652 28.6889 52.4634C28.6504 52.5615 28.5926 52.651 28.519 52.7265C28.4454 52.802 28.3574 52.862 28.2602 52.9029C28.163 52.9439 28.0586 52.9649 27.9532 52.9649Z" fill="#110E10"/>
<path d="M52.8431 28.0849C52.6344 28.0823 52.4349 27.9982 52.2874 27.8506C52.1398 27.703 52.0557 27.5036 52.0531 27.2949V21.5749H46.3331C46.1402 21.5531 45.962 21.461 45.8327 21.3162C45.7033 21.1714 45.6318 20.984 45.6318 20.7899C45.6318 20.5957 45.7033 20.4084 45.8327 20.2636C45.962 20.1188 46.1402 20.0267 46.3331 20.0049H52.8431C52.9464 20.0049 53.0486 20.0254 53.1439 20.0652C53.2392 20.105 53.3256 20.1634 53.3982 20.2369C53.4708 20.3104 53.528 20.3975 53.5666 20.4933C53.6052 20.5891 53.6244 20.6916 53.6231 20.7949V27.2949C53.6231 27.5027 53.5413 27.7021 53.3953 27.85C53.2493 27.9979 53.0509 28.0823 52.8431 28.0849Z" fill="#110E10"/>
<path d="M52.8427 52.965H46.3327C46.1259 52.965 45.9275 52.8828 45.7812 52.7366C45.6349 52.5903 45.5527 52.3919 45.5527 52.185C45.5527 51.9772 45.6346 51.7778 45.7806 51.6299C45.9266 51.482 46.1249 51.3976 46.3327 51.395H52.0827V45.685C52.0827 45.4755 52.166 45.2746 52.3141 45.1264C52.4623 44.9783 52.6632 44.895 52.8727 44.895C52.976 44.895 53.0783 44.9155 53.1736 44.9553C53.2688 44.9952 53.3553 45.0535 53.4278 45.127C53.5004 45.2005 53.5576 45.2877 53.5963 45.3835C53.6349 45.4792 53.6541 45.5818 53.6527 45.685V52.185C53.6528 52.29 53.6317 52.394 53.5906 52.4906C53.5496 52.5873 53.4894 52.6746 53.4138 52.7475C53.3381 52.8203 53.2486 52.8771 53.1505 52.9145C53.0523 52.9519 52.9477 52.9691 52.8427 52.965Z" fill="#110E10"/>
<path d="M37.1433 46.7546C27.4133 46.7546 20.4833 37.3446 20.1433 36.9446C20.05 36.8094 20 36.6489 20 36.4846C20 36.3203 20.05 36.1599 20.1433 36.0246C20.4333 35.6246 27.3633 26.2246 37.1433 26.2246C46.9233 26.2246 53.8033 35.6246 54.0933 36.0246C54.1908 36.1582 54.2434 36.3192 54.2434 36.4846C54.2434 36.65 54.1908 36.8111 54.0933 36.9446C53.8033 37.3646 46.8733 46.7546 37.1433 46.7546ZM21.8233 36.4846C23.3333 38.3446 29.3933 45.1846 37.1433 45.1846C44.8933 45.1846 50.9633 38.3446 52.4633 36.4846C50.9533 34.6346 44.8933 27.7946 37.1433 27.7946C29.3933 27.7946 23.3333 34.6246 21.8233 36.4846Z" fill="#110E10"/>
<path d="M37.133 41.825C36.0768 41.825 35.0444 41.5118 34.1662 40.9251C33.2881 40.3383 32.6036 39.5043 32.1995 38.5285C31.7953 37.5528 31.6895 36.4791 31.8956 35.4432C32.1016 34.4074 32.6102 33.4559 33.357 32.7091C34.1038 31.9623 35.0553 31.4537 36.0912 31.2476C37.1271 31.0416 38.2007 31.1473 39.1765 31.5515C40.1523 31.9557 40.9863 32.6401 41.573 33.5183C42.1598 34.3964 42.473 35.4289 42.473 36.485C42.4703 37.9005 41.9069 39.2572 40.906 40.2581C39.9051 41.2589 38.5484 41.8224 37.133 41.825ZM37.133 32.715C36.3845 32.713 35.6523 32.9333 35.0292 33.3479C34.406 33.7625 33.92 34.3527 33.6326 35.0439C33.3453 35.735 33.2696 36.4958 33.4151 37.23C33.5607 37.9642 33.9209 38.6386 34.4501 39.1679C34.9794 39.6971 35.6538 40.0573 36.388 40.2029C37.1222 40.3484 37.883 40.2727 38.5741 39.9853C39.2652 39.698 39.8555 39.212 40.2701 38.5888C40.6847 37.9657 40.905 37.2335 40.903 36.485C40.903 35.9899 40.8055 35.4997 40.616 35.0423C40.4265 34.5849 40.1488 34.1693 39.7988 33.8192C39.4487 33.4691 39.0331 33.1915 38.5757 33.002C38.1183 32.8125 37.6281 32.715 37.133 32.715Z" fill="#110E10"/>
</svg>
