<svg width="72" height="72" viewBox="0 0 72 72" fill="none" xmlns="http://www.w3.org/2000/svg">
<path d="M60.9533 11.2513C74.6217 24.9196 74.6217 47.0804 60.9533 60.7487C47.285 74.4171 25.1242 74.4171 11.4558 60.7487C-2.21251 47.0804 -2.21251 24.9196 11.4558 11.2513C25.1242 -2.41709 47.285 -2.41709 60.9533 11.2513Z" stroke="#110E10"/>
<path d="M50.0406 37.279C49.9373 37.2803 49.8348 37.2611 49.739 37.2225C49.6432 37.1839 49.556 37.1267 49.4825 37.0541C49.409 36.9815 49.3507 36.8951 49.3109 36.7998C49.271 36.7045 49.2505 36.6023 49.2506 36.499C49.2498 35.7989 49.193 35.1 49.0806 34.409C48.6557 31.881 47.4884 29.5366 45.7273 27.674C43.9662 25.8114 41.6907 24.5147 39.1906 23.949C39.0889 23.9277 38.9925 23.8863 38.907 23.8273C38.8215 23.7683 38.7487 23.6927 38.6928 23.6052C38.6369 23.5176 38.5991 23.4198 38.5815 23.3174C38.564 23.215 38.567 23.1102 38.5906 23.009C38.6118 22.9086 38.6529 22.8135 38.7114 22.7292C38.77 22.6449 38.8447 22.5732 38.9314 22.5182C39.018 22.4633 39.1148 22.4262 39.2159 22.4091C39.3171 22.3921 39.4207 22.3954 39.5206 22.419C42.3238 23.0513 44.8763 24.5018 46.8542 26.5865C48.8321 28.6712 50.1464 31.2963 50.6306 34.129C50.7596 34.9023 50.8231 35.685 50.8206 36.469C50.8246 36.5739 50.8074 36.6786 50.77 36.7767C50.7326 36.8748 50.6758 36.9644 50.603 37.04C50.5301 37.1157 50.4428 37.1758 50.3461 37.2169C50.2495 37.2579 50.1456 37.2791 50.0406 37.279Z" fill="#110E10"/>
<path d="M33.4494 50.5989H33.2794C30.4711 49.9614 27.9159 48.5028 25.9392 46.4085C23.9625 44.3143 22.6537 41.6793 22.1794 38.8389C22.0504 38.0656 21.9868 37.2828 21.9894 36.4989C21.9769 36.3883 21.9879 36.2764 22.0216 36.1704C22.0554 36.0644 22.1111 35.9668 22.1852 35.8838C22.2593 35.8009 22.3501 35.7345 22.4516 35.689C22.5532 35.6436 22.6631 35.6201 22.7744 35.6201C22.8856 35.6201 22.9956 35.6436 23.0971 35.689C23.1986 35.7345 23.2894 35.8009 23.3635 35.8838C23.4376 35.9668 23.4934 36.0644 23.5271 36.1704C23.5609 36.2764 23.5719 36.3883 23.5594 36.4989C23.5549 37.1992 23.6118 37.8985 23.7294 38.5889C24.1555 41.1163 25.3232 43.46 27.0841 45.3225C28.845 47.1849 31.1198 48.4819 33.6194 49.0489C33.8202 49.077 34.0022 49.1823 34.1267 49.3424C34.2512 49.5025 34.3085 49.7047 34.2864 49.9063C34.2643 50.1079 34.1645 50.293 34.0083 50.4223C33.852 50.5516 33.6515 50.6149 33.4494 50.5989Z" fill="#110E10"/>
<path d="M23.09 34.329C23.0337 34.3384 22.9762 34.3384 22.9199 34.329C22.7181 34.2835 22.5421 34.1606 22.4299 33.9867C22.3177 33.8127 22.2782 33.6017 22.32 33.399C22.9545 30.5897 24.409 28.0321 26.4991 26.0506C28.5893 24.069 31.2208 22.7529 34.0599 22.269C34.8351 22.1617 35.6175 22.1149 36.3999 22.129C36.5105 22.1165 36.6224 22.1275 36.7284 22.1613C36.8344 22.195 36.932 22.2508 37.015 22.3249C37.0979 22.399 37.1643 22.4898 37.2098 22.5913C37.2552 22.6928 37.2787 22.8028 37.2787 22.914C37.2787 23.0253 37.2552 23.1352 37.2098 23.2368C37.1643 23.3383 37.0979 23.4291 37.015 23.5032C36.932 23.5773 36.8344 23.633 36.7284 23.6668C36.6224 23.7005 36.5105 23.7115 36.3999 23.699C35.6999 23.6998 35.001 23.7566 34.3099 23.869C31.783 24.2977 29.4405 25.4676 27.5799 27.2303C25.7193 28.993 24.4245 31.2689 23.86 33.769C23.81 33.9334 23.7077 34.077 23.5688 34.1781C23.4298 34.2791 23.2617 34.3321 23.09 34.329Z" fill="#110E10"/>
<path d="M36.4001 50.909C36.1932 50.909 35.9949 50.8269 35.8486 50.6806C35.7023 50.5343 35.6201 50.3359 35.6201 50.129C35.6201 49.9212 35.702 49.7218 35.848 49.5739C35.994 49.4261 36.1923 49.3417 36.4001 49.339C37.0999 49.3416 37.7988 49.2881 38.4901 49.179C41.0183 48.7509 43.3624 47.5814 45.2247 45.8187C47.087 44.0561 48.3837 41.7799 48.9501 39.279C48.9979 39.0764 49.1228 38.9003 49.2983 38.7883C49.4739 38.6762 49.6862 38.637 49.8901 38.679C49.9909 38.7014 50.0862 38.7436 50.1706 38.8031C50.2549 38.8627 50.3266 38.9383 50.3815 39.0258C50.4364 39.1132 50.4733 39.2107 50.4903 39.3125C50.5072 39.4144 50.5038 39.5185 50.4801 39.619C49.8458 42.4264 48.3909 44.9818 46.3004 46.9601C44.2098 48.9384 41.5782 50.2504 38.7401 50.729C37.966 50.8501 37.1836 50.9102 36.4001 50.909Z" fill="#110E10"/>
<path d="M56.0207 37.279H47.7507C47.5438 37.279 47.3454 37.1968 47.1992 37.0505C47.0529 36.9043 46.9707 36.7059 46.9707 36.499C46.9707 36.2912 47.0525 36.0917 47.1985 35.9439C47.3445 35.796 47.5429 35.7116 47.7507 35.709H56.0207C56.2302 35.709 56.4312 35.7922 56.5793 35.9404C56.7275 36.0885 56.8107 36.2895 56.8107 36.499C56.8107 36.6023 56.7902 36.7045 56.7504 36.7998C56.7106 36.8951 56.6522 36.9815 56.5787 37.0541C56.5052 37.1267 56.4181 37.1839 56.3223 37.2225C56.2265 37.2611 56.124 37.2803 56.0207 37.279Z" fill="#110E10"/>
<path d="M25.06 37.279H16.78C16.5731 37.279 16.3747 37.1968 16.2285 37.0505C16.0822 36.9043 16 36.7059 16 36.499C16 36.2912 16.0818 36.0917 16.2278 35.9439C16.3738 35.796 16.5722 35.7116 16.78 35.709H25.06C25.2678 35.7116 25.4662 35.796 25.6122 35.9439C25.7582 36.0917 25.84 36.2912 25.84 36.499C25.84 36.6014 25.8198 36.7028 25.7806 36.7975C25.7414 36.8921 25.684 36.9781 25.6115 37.0505C25.5391 37.123 25.4531 37.1804 25.3585 37.2196C25.2639 37.2588 25.1624 37.279 25.06 37.279Z" fill="#110E10"/>
<path d="M36.4002 25.9387C36.297 25.9388 36.1947 25.9182 36.0994 25.8784C36.0041 25.8386 35.9177 25.7803 35.8451 25.7068C35.7726 25.6333 35.7153 25.5461 35.6767 25.4503C35.6381 25.3545 35.6189 25.252 35.6202 25.1487V16.8787C35.6077 16.7682 35.6187 16.6563 35.6525 16.5503C35.6862 16.4443 35.742 16.3466 35.8161 16.2637C35.8902 16.1807 35.981 16.1144 36.0825 16.0689C36.184 16.0235 36.294 16 36.4052 16C36.5165 16 36.6264 16.0235 36.728 16.0689C36.8295 16.1144 36.9203 16.1807 36.9944 16.2637C37.0685 16.3466 37.1242 16.4443 37.158 16.5503C37.1917 16.6563 37.2027 16.7682 37.1902 16.8787V25.1287C37.1929 25.2342 37.1744 25.339 37.1359 25.4372C37.0974 25.5354 37.0397 25.6248 36.966 25.7003C36.8924 25.7758 36.8044 25.8358 36.7072 25.8768C36.6101 25.9177 36.5057 25.9388 36.4002 25.9387Z" fill="#110E10"/>
<path d="M36.4002 56.899C36.1934 56.899 35.995 56.8168 35.8487 56.6705C35.7024 56.5242 35.6202 56.3258 35.6202 56.119V47.849C35.6077 47.7384 35.6187 47.6265 35.6525 47.5205C35.6862 47.4145 35.742 47.3169 35.8161 47.2339C35.8902 47.151 35.981 47.0846 36.0825 47.0391C36.184 46.9937 36.294 46.9702 36.4052 46.9702C36.5165 46.9702 36.6264 46.9937 36.728 47.0391C36.8295 47.0846 36.9203 47.151 36.9944 47.2339C37.0685 47.3169 37.1242 47.4145 37.158 47.5205C37.1917 47.6265 37.2027 47.7384 37.1902 47.849V56.129C37.1889 56.2314 37.1675 56.3326 37.1271 56.4267C37.0866 56.5208 37.0281 56.6061 36.9547 56.6776C36.8814 56.7491 36.7946 56.8054 36.6995 56.8434C36.6044 56.8814 36.5027 56.9003 36.4002 56.899Z" fill="#110E10"/>
<path d="M53.0097 32.6992C52.8439 32.6916 52.6846 32.6327 52.5538 32.5306C52.423 32.4284 52.3272 32.2882 52.2797 32.1292C51.5198 29.3842 50.0607 26.8834 48.045 24.8712C46.0293 22.859 43.5259 21.4042 40.7797 20.6492C40.6766 20.6217 40.5802 20.5736 40.4963 20.5079C40.4123 20.4421 40.3425 20.36 40.2911 20.2666C40.2398 20.1732 40.2078 20.0703 40.1972 19.9642C40.1867 19.8581 40.1977 19.7509 40.2297 19.6492C40.257 19.5463 40.3051 19.4501 40.371 19.3664C40.4369 19.2828 40.5192 19.2136 40.6129 19.163C40.7066 19.1124 40.8097 19.0815 40.9157 19.0723C41.0218 19.063 41.1286 19.0756 41.2297 19.1092C44.2317 19.9443 46.9655 21.5445 49.1636 23.7531C51.3617 25.9618 52.9488 28.7032 53.7697 31.7092C53.8031 31.8109 53.8153 31.9184 53.8054 32.025C53.7955 32.1316 53.7638 32.235 53.7122 32.3288C53.6606 32.4226 53.5902 32.5048 53.5055 32.5702C53.4208 32.6357 53.3235 32.683 53.2197 32.7092C53.1495 32.7156 53.0789 32.7122 53.0097 32.6992Z" fill="#110E10"/>
<path d="M31.82 53.8891C31.7504 53.8988 31.6797 53.8988 31.61 53.8891C28.6025 53.0585 25.8624 51.4603 23.6588 49.2514C21.4551 47.0425 19.8635 44.2987 19.04 41.2891C18.9857 41.0889 19.0131 40.8752 19.1162 40.6952C19.2194 40.5152 19.3898 40.3835 19.59 40.3291C19.7903 40.2747 20.0039 40.3021 20.1839 40.4053C20.364 40.5084 20.4957 40.6789 20.55 40.8791C21.3123 43.6185 22.7699 46.1143 24.7814 48.124C26.7929 50.1338 29.29 51.5893 32.03 52.3491C32.2206 52.392 32.3881 52.5048 32.4994 52.6652C32.6108 52.8256 32.658 53.022 32.6316 53.2154C32.6052 53.4089 32.5072 53.5855 32.3569 53.7102C32.2067 53.835 32.0151 53.8988 31.82 53.8891Z" fill="#110E10"/>
<path d="M19.8001 32.6991C19.7304 32.7088 19.6597 32.7088 19.5901 32.6991C19.4855 32.6742 19.3872 32.6277 19.3017 32.5626C19.2161 32.4975 19.1452 32.4152 19.0934 32.321C19.0415 32.2268 19.01 32.1228 19.0009 32.0157C18.9917 31.9086 19.005 31.8007 19.0401 31.6991C19.8734 28.6977 21.4688 25.963 23.6714 23.7604C25.8739 21.5579 28.6087 19.9624 31.6101 19.1291C31.7118 19.0971 31.8189 19.0861 31.9251 19.0967C32.0312 19.1072 32.134 19.1392 32.2275 19.1906C32.3209 19.242 32.403 19.3117 32.4687 19.3957C32.5345 19.4796 32.5826 19.576 32.6101 19.6791C32.6406 19.7808 32.6505 19.8877 32.6393 19.9933C32.6281 20.099 32.5959 20.2013 32.5447 20.2944C32.4935 20.3875 32.4243 20.4694 32.3411 20.5355C32.2579 20.6015 32.1623 20.6503 32.0601 20.6791C29.3164 21.4317 26.8143 22.8819 24.7973 24.8884C22.7803 26.8949 21.3171 29.3894 20.5501 32.1291C20.5043 32.2929 20.4062 32.4372 20.2708 32.5401C20.1354 32.643 19.9701 32.6988 19.8001 32.6991Z" fill="#110E10"/>
<path d="M40.9906 53.8891C40.7955 53.8988 40.604 53.835 40.4537 53.7102C40.3034 53.5855 40.2054 53.4089 40.179 53.2154C40.1526 53.022 40.1998 52.8256 40.3112 52.6652C40.4226 52.5048 40.5901 52.392 40.7806 52.3491C43.5248 51.5932 46.0264 50.1393 48.0418 48.1292C50.0571 46.1191 51.5175 43.6213 52.2806 40.8791C52.335 40.6789 52.4667 40.5084 52.6467 40.4053C52.8267 40.3021 53.0404 40.2747 53.2406 40.3291C53.4408 40.3835 53.6113 40.5152 53.7144 40.6952C53.8176 40.8752 53.845 41.0889 53.7906 41.2891C52.9608 44.2955 51.3642 47.0347 49.1571 49.2383C46.9501 51.4418 44.2083 53.0341 41.2006 53.8591C41.1323 53.8789 41.0617 53.889 40.9906 53.8891Z" fill="#110E10"/>
<path d="M36.4001 44.6191C36.2746 44.6189 36.151 44.588 36.0401 44.5291L32.3901 42.6191C31.6146 42.2243 30.9676 41.6168 30.5248 40.8677C30.0821 40.1186 29.8619 39.2588 29.8901 38.3891L30.1701 30.8691C30.1761 30.7084 30.2311 30.5533 30.3275 30.4247C30.424 30.296 30.5575 30.1999 30.7101 30.1491L36.1701 28.4191C36.3228 28.3694 36.4874 28.3694 36.6401 28.4191L42.0901 30.1291C42.2453 30.1769 42.3818 30.272 42.4804 30.401C42.579 30.5301 42.6348 30.6867 42.6401 30.8491L42.9201 38.3691C42.9449 39.2394 42.7223 40.0989 42.2779 40.8477C41.8336 41.5965 41.1859 42.2038 40.4101 42.5991L36.7701 44.5291C36.6557 44.5881 36.5288 44.6189 36.4001 44.6191ZM31.7101 31.4791L31.4601 38.4791C31.4419 39.0527 31.5886 39.6195 31.8828 40.1123C32.1771 40.605 32.6065 41.003 33.1201 41.2591L36.4001 42.9791L39.6801 41.2291C40.1956 40.9744 40.627 40.577 40.9231 40.0842C41.2192 39.5913 41.3674 39.0238 41.3501 38.4491L41.0901 31.4491L36.4001 29.9591L31.7101 31.4791Z" fill="#110E10"/>
</svg>
