<svg width="72" height="72" viewBox="0 0 72 72" fill="none" xmlns="http://www.w3.org/2000/svg">
<path d="M60.9533 11.2513C74.6217 24.9196 74.6217 47.0804 60.9533 60.7487C47.285 74.4171 25.1242 74.4171 11.4558 60.7487C-2.21251 47.0804 -2.21251 24.9196 11.4558 11.2513C25.1242 -2.41709 47.285 -2.41709 60.9533 11.2513Z" stroke="#110E10"/>
<path fill-rule="evenodd" clip-rule="evenodd" d="M30.0778 26.7427C29.0364 28.9281 28.8395 31.6101 28.9963 33.4134C29.0441 33.9636 28.6369 34.4484 28.0867 34.4962C27.5365 34.5441 27.0517 34.1368 27.0038 33.5866C26.8273 31.5566 27.0304 28.4886 28.2723 25.8823C28.8992 24.5668 29.8061 23.3379 31.0926 22.4383C32.3877 21.5327 34.0122 21 36.0001 21C40.0487 21 42.5197 23.1972 43.8997 25.8512C45.2499 28.4477 45.5874 31.5106 45.499 33.5434C45.475 34.0952 45.0082 34.5231 44.4565 34.4991C43.9047 34.4751 43.4769 34.0083 43.5009 33.4566C43.5792 31.6561 43.2667 28.969 42.1253 26.7738C41.0137 24.6361 39.1514 23 36.0001 23C34.388 23 33.1708 23.4256 32.2387 24.0773C31.2982 24.735 30.5926 25.6624 30.0778 26.7427Z" fill="black"/>
<path fill-rule="evenodd" clip-rule="evenodd" d="M44 34.5H28C26.3431 34.5 25 35.8431 25 37.5V46.5C25 48.1569 26.3431 49.5 28 49.5H44C45.6569 49.5 47 48.1569 47 46.5V37.5C47 35.8431 45.6569 34.5 44 34.5ZM28 32.5C25.2386 32.5 23 34.7386 23 37.5V46.5C23 49.2614 25.2386 51.5 28 51.5H44C46.7614 51.5 49 49.2614 49 46.5V37.5C49 34.7386 46.7614 32.5 44 32.5H28Z" fill="black"/>
<path fill-rule="evenodd" clip-rule="evenodd" d="M36 39.5C36.5523 39.5 37 39.9477 37 40.5V44.5C37 45.0523 36.5523 45.5 36 45.5C35.4477 45.5 35 45.0523 35 44.5V40.5C35 39.9477 35.4477 39.5 36 39.5Z" fill="black"/>
</svg>
