<svg width="20" height="20" viewBox="0 0 20 20" fill="none" xmlns="http://www.w3.org/2000/svg">
<circle cx="10" cy="10" r="10" fill="#0075FF"/>
<path d="M9.2125 8.0829H10.775V15H9.2125V8.0829ZM10 6.943C9.71667 6.943 9.47917 6.85233 9.2875 6.67098C9.09583 6.481 9 6.24784 9 5.9715C9 5.69516 9.09583 5.46632 9.2875 5.28497C9.47917 5.09499 9.71667 5 10 5C10.2833 5 10.5208 5.09067 10.7125 5.27202C10.9042 5.44473 11 5.66494 11 5.93264C11 6.21762 10.9042 6.45941 10.7125 6.65803C10.5292 6.84801 10.2917 6.943 10 6.943Z" fill="white"/>
</svg>
