<svg width="373" height="563" viewBox="0 0 373 563" fill="none" xmlns="http://www.w3.org/2000/svg">
<g opacity="0.8">
<path d="M131.631 254.08C134.643 237.334 141.458 228.303 152.288 226.193C157.898 223.861 160.665 216.805 163.433 209.748C166.519 201.498 170.744 197.766 176.889 203.302C180.549 210.453 181.548 220.978 187.976 224.358C189.291 227.118 189.648 230.173 189.045 233.522C188.513 235.511 187.484 237.165 186.312 238.256C171.008 240.645 158.797 254.497 145.769 265.923C144.74 267.577 143.319 268.5 141.757 268.859C137.744 268.509 134.725 265.543 132.131 260.985C131.313 258.559 130.993 256.466 131.631 254.08Z" fill="#F8AF5A"/>
<path d="M136.094 545.851C134.332 542.057 132.571 538.263 130.809 534.469C128.911 530.147 125.187 526.377 127.822 519.775C128.903 517.854 129.884 516.305 131.473 515.597C134.653 514.181 138.442 513.605 141.082 516.222C155.031 530.678 170.736 539.708 186.441 548.737C192.466 552.267 192.943 558.726 185.841 563.263C175.963 564.655 168.648 554.57 163.097 551.352C158.358 548.23 158.565 553.632 159.037 550.871C159.138 550.499 159.375 550.655 159.612 550.811C165.264 553.657 171.321 555.014 174.339 564.463C174.442 567.164 173.699 568.869 172.245 570.105C161.993 570.812 153.563 561.747 144.255 556.932C141.175 554.903 138.703 550.641 136.094 545.851Z" fill="#F4A13E"/>
<path d="M273.433 181.806C278.778 187.36 288.512 177.121 291.397 192.515C296.134 191.332 300.008 194.247 304.016 197.671C314.069 207.1 324.456 216.321 336.339 220.157C344.056 228.083 353.67 232.152 358.855 245.219C358.724 247.673 357.892 249.676 356.826 251.529C351.758 255.884 347.014 251.141 342.474 248.643C321.839 236.638 303.035 219.042 283.233 205.034C278.091 201.726 273.282 198.21 270.571 190.119C269.833 185.837 270.631 182.965 273.433 181.806Z" fill="#F89C2C"/>
<path d="M328.028 161.114C343.672 164.39 358.775 171.723 373.741 178.526C384.903 176.632 391.494 191.584 400.828 196.429C402.253 197.371 403.238 198.905 404.122 200.813C403.453 216.706 396.087 211.838 392.556 207.296C380.128 191.135 363.235 197.629 350.198 183.714C340.521 172.903 343.723 193.12 340.469 198.917C335.757 205.956 333.548 199.64 331.034 194.446C328.246 185.098 323.525 176.68 325.282 165.038C325.79 163.167 326.672 161.983 328.028 161.114Z" fill="#F8AE54"/>
<path d="M380.612 161.067C381.294 154.328 378.518 155.176 375.571 154.559C369.299 152.626 364.841 146.057 362.507 136.857C361.443 133.45 361.443 133.45 368.193 132.555C375.148 130.898 381.801 139.829 388.822 133.721C389.542 134.201 390.365 134.299 391.187 134.398C394.305 133.33 395.952 136.675 398.248 138.656C397.67 148.162 398.12 157.005 403.606 162.91C404.532 165.776 404.877 168.703 403.576 171.432C402.205 172.317 400.698 172.661 399.635 172.402C396.175 173.692 393.634 162.106 389.629 170.676C384.968 171.166 381.814 168.164 380.612 161.067Z" fill="#F8A94A"/>
<path d="M274.605 185.778C273.76 187.855 272.814 190.304 271.733 192.225C269.367 196.811 266.052 197.699 262.465 197.531C260.367 197.027 258.472 195.778 256.576 194.529C246.624 187.972 234.513 191.405 226.35 177.248C225.807 175.135 226.076 173.118 227.057 171.569C243.905 168.185 259.912 173.026 274.605 185.778Z" fill="#F9BC73"/>
<path d="M114.679 495.356C111.053 490.086 103.876 488.114 107.101 476.079C114.487 463.996 102.394 458.254 103.61 448.186C104.147 446.18 104.936 444.343 105.868 443.075C108.952 440.411 112.217 439.287 115.625 438.733C118.567 438.813 120.972 440.898 122.696 444.419C123.378 446.296 123.702 448.406 124.025 450.516C124.385 453.597 124.387 456.91 124.747 459.991C122.563 473.669 123.107 488.23 119.058 501.131C116.726 500.987 115.29 498.605 114.679 495.356Z" fill="#F9B768"/>
<path d="M149.375 595.028C145.056 593.046 146.191 582.429 141.32 581.442C139.834 579.537 138.589 577.793 137.103 575.888C133.851 564.608 137.822 560.44 143.728 557.568C153.816 559.317 162.351 566.853 171.197 573.232C171.509 575.261 171.234 577.352 170.474 579.119C165.02 587.755 158.347 573.274 152.858 580.976C150.165 584.634 153.277 592.18 149.375 595.028Z" fill="#FAAA4D"/>
<path d="M99.0563 378.696C93.9739 361.953 99.5159 351.356 107.197 341.713C111.8 339.069 115.571 340.636 118.836 345.201C120.724 352.659 115.252 358.536 117.395 366.164C120.666 387.418 105.837 381.321 101.89 391.553C95.2912 390.48 100.436 382.478 99.0563 378.696Z" fill="#F7AB4F"/>
<path d="M226.564 174.9C226.252 176.065 225.836 177.618 225.524 178.784C228.27 185.665 233.479 188.701 236.328 195.194C237.614 197.889 237.962 200.872 237.373 204.142C236.853 206.084 236.09 207.863 234.841 209.316C231.509 212.121 228.176 211.718 225.016 209.598C223.8 208.783 222.585 207.967 221.473 206.764C220.258 205.948 219.146 204.745 218.035 203.541C215.083 200.644 212.131 197.748 210.185 193.235C208.968 189.212 208.688 184.901 211.291 181.607C215.385 173.815 219.896 167.677 226.564 174.9Z" fill="#F7AD53"/>
<path d="M211.873 185.075C211.628 188.154 211.489 190.841 211.245 193.921C211.561 195.987 211.527 198.28 211.247 200.409C210.722 202.373 209.706 204.008 208.69 205.642C205.151 210.214 201.156 212.163 196.563 210.931C192.321 209.47 188.849 206.211 186.253 200.759C182.949 176.297 194.66 182.313 202.476 180.151C206.472 178.202 209.102 181.36 211.873 185.075Z" fill="#FAC687"/>
<path d="M306.886 172.513C312.366 180.71 321.46 181.805 324.875 194.513C317.711 194.707 309.718 188.455 304.454 201.703C300.422 197.648 296.287 193.976 292.256 189.921C295.937 181.506 298.861 171.678 306.886 172.513Z" fill="#F9BA6E"/>
<path d="M120.121 343.933C116.267 344.147 112.378 343.403 108.983 339.72C107.247 328.739 113.678 319.976 111.942 308.996C112.79 309.099 113.179 309.827 113.568 310.556C118.234 309.486 121.947 311.981 124.813 317.645C124.992 325.71 124.571 333.839 125.599 342.007C124.009 344.677 122.348 345.43 120.121 343.933Z" fill="#FAC788"/>
<path d="M389.799 133.208C389.941 143.253 385.951 143.301 381.341 142.482C376.353 140.958 372.877 135.921 369.091 132.034C376.272 113.765 382.916 124.989 389.799 133.208Z" fill="#FAC381"/>
<path d="M328.707 166.933C321.938 160.641 312.068 167.943 306.253 156.021C317.693 143.948 321.349 145.038 330.004 164.217C329.56 164.817 329.253 165.955 328.707 166.933Z" fill="#FBD7AB"/>
<path d="M107.777 447.529C106.173 445.991 104.464 444.844 102.616 443.142C100.384 440.722 97.9083 438.139 95.6763 435.719C95.0812 429.333 96.8226 424.977 100.447 423.266C101.877 423.305 103.201 423.734 104.317 424.944C105.433 426.154 106.096 427.981 106.759 429.807C106.899 430.362 107.283 431.08 107.562 432.188C108.26 434.959 108.959 437.731 109.308 440.728C109.344 441.673 109.379 442.618 109.17 443.398C108.752 444.96 108.09 446.357 107.777 447.529Z" fill="#FCE4C6"/>
<path d="M95.4379 412.384C92.3577 408.953 91.7333 404.886 93.6684 399.799C94.706 399.126 95.8821 399.002 97.0932 399.813C99.654 401.985 102.008 404.93 104.015 408.099C105.781 411.106 106.855 414.562 106.891 418.69C106.684 419.463 106.373 420.623 106.166 421.396C105.024 422.455 103.848 422.58 102.637 421.768C98.9353 420.656 96.7889 416.938 95.4379 412.384Z" fill="#FCE8CE"/>
<path d="M355.894 131.879C355.859 130.92 355.717 130.357 355.575 129.795C355.929 129.565 356.53 129.502 356.777 129.668C357.025 129.834 357.06 130.793 356.849 131.585C356.601 131.419 356.248 131.649 355.894 131.879Z" fill="#F7A544"/>
<path d="M142.485 260.392C142.756 258.353 142.55 256 143.297 254.277C146.795 245.506 159.216 257.727 158.592 238.241C166.482 238.146 174.098 233.878 181.955 235.979C186.205 234.803 189.199 237.23 191.719 242.448C197.578 259.193 207.92 265.602 218.365 271.635C236.633 281.965 250.826 301.127 263.422 324.11C253.601 337.563 250.051 314.364 243.014 318.572C244.613 320.963 248.898 320.697 251.587 324.253C255.127 328.816 258.19 333.063 253.467 340.135C249.354 344.951 244.697 347.631 239.357 347.642C234.187 345.99 228.713 348.573 223.339 347.674C213.1 343.995 205 332.418 195.203 328.144C191.971 325.559 189.18 322.38 186.593 318.448C182.61 311.373 177.369 304.796 177.975 293.221C171.979 275.942 163.369 266.245 150.244 269.081C148.849 269.044 147.455 269.007 146.264 268.219C144.223 266.422 142.963 263.813 142.485 260.392Z" fill="#F6941E"/>
<path d="M192.669 240.502C189.592 237.668 186.282 234.684 183.206 231.85C183.839 230.56 184.139 229.48 184.773 228.19C187.275 225.133 190.315 224.121 193.422 224.851C208.47 239.227 224.316 250.722 239.863 263.297C244.344 267.036 248.59 270.624 253.57 272.562C266.038 279.33 279.039 285.167 291.008 293.736C298.695 297.845 307.217 299.944 311.805 312.246C314.787 321.388 323.308 323.487 324.789 335.058C322.894 344.876 318.148 343.09 313.836 340.733C309.624 338.016 306.012 333.138 301.4 331.863C299.428 331.015 297.556 329.808 295.784 328.24C288.119 313.105 278.376 326.355 269.621 324.105C268.75 322.27 268.214 320.226 267.777 317.821C253.695 298.971 239.412 280.841 221.762 269.882C210.998 262.939 199.7 256.927 192.669 240.502Z" fill="#FA9822"/>
<path d="M193.691 225.35C191.492 225.218 189.531 225.242 187.434 224.738C187.128 222.783 186.924 220.456 186.381 218.345C186.175 212.948 178.667 212.828 181.503 205.488C183.732 200.379 187.252 204.889 190.296 206.017C192.63 206.676 194.796 208.979 197.061 207.84C200.103 205.898 203.247 203.583 206.391 201.269C206.965 201.209 207.303 200.993 207.98 200.561C208.453 200.873 208.927 201.185 209.401 201.497C210.856 203.332 212.548 205.323 214.443 206.57C215.39 207.194 216.202 207.29 217.25 207.542C218.198 208.166 219.619 209.101 220.87 208.61C221.783 208.334 222.695 208.058 223.608 207.783C226.653 208.91 229.46 209.882 232.268 210.854C233.756 210.518 234.94 211.298 235.921 212.821C239.956 227.753 253.886 223.772 257.617 239.819C250.054 259.392 244.225 239.77 236.547 238.222C235.772 242.096 240.409 248.657 235.102 251.739C223.062 250.826 213.552 240.619 204.245 229.668C200.86 225.686 198.354 220.529 193.691 225.35Z" fill="#F89824"/>
<path d="M197.884 210.932C193.325 215.164 188.796 210.765 183.82 210.164C185.031 214.162 186 217.999 186.969 221.835C180.299 220.1 176.53 213.933 177.631 202.377C178.184 201.381 178.736 200.385 179.288 199.389C181.363 201.233 183.402 202.144 185.785 199.642C189.83 203.717 193.736 207.243 197.884 210.932Z" fill="#F6A33F"/>
<path d="M140.946 274.931C137.783 271.065 132.447 271.076 132.918 262.086C136.046 265.043 139.175 268 142.303 270.958C142.372 272.775 141.965 274.277 140.946 274.931Z" fill="#F39B33"/>
<path d="M140.544 274.402C140.967 272.822 141.53 271.804 141.952 270.224C142.621 268.811 142.938 267.626 143.606 266.213C145.227 267.768 146.848 269.323 148.364 271.274C149.034 273.121 148.506 275.095 147.591 276.343C145.971 278.049 144.174 278.239 142.483 278.033C141.145 277.599 140.263 276.541 139.84 274.86L140.544 274.402Z" fill="#F89F36"/>
<path d="M168.207 570.81C168.846 569.487 169.149 568.379 169.789 567.056C170.193 565.578 170.732 564.625 171.135 563.147C181.656 561.336 189.355 575.97 199.91 575.052C210.296 572.716 220.346 573.645 229.257 583.846C237.527 595.369 246.369 603.782 258.644 602.686C266.096 601.911 274.092 606.284 279.327 616.688C275.32 626.257 282.238 632.537 282.21 640.796C276.113 649.864 270.88 642.512 265.549 638.579C263.896 637.495 262.884 638.139 264.538 639.223C265.01 639.533 264.978 641.69 264.81 643.322C260.901 646.421 257.092 649.15 258.919 657.754C257.908 658.397 256.525 658.362 255.243 657.956C241.646 648.602 232.426 630.357 221.388 615.712C217.978 610.862 214.569 606.012 209.914 604.701C207.788 603.307 205.763 601.543 202.051 597.801C206.135 602.222 208.531 604.665 209.175 609.444C208.907 611.446 208.166 613.138 207.054 614.151C195.552 611.398 185.967 601.627 175.676 594.441C169.4 589.889 170.809 578.616 168.207 570.81Z" fill="#FCA946"/>
<path d="M230.357 585.175C221.695 579.584 212.668 576.307 203.112 579.918C198.091 571.149 187.03 574.213 185.612 558.416C187.114 555.984 191.356 553.62 185.872 550.505C179.352 547.146 173.097 541.832 166.445 540.94C152.772 538.491 145.465 515.065 130.827 517.096C129.186 513.06 128.815 509.419 132.121 506.451C139.241 507.646 146.795 508.271 152.985 514.817C157.004 524.215 164.059 526.643 169.945 531.294C171.952 533.015 170.576 527.024 172.247 525.977C174.251 524.719 176.089 525.056 178.296 526.055C194.183 538.437 208.503 554.485 225.924 562.329C229.504 566.341 231.014 572.844 233.492 577.845C234.128 579.531 234.565 581.939 234.867 583.835C233.5 586.779 232.332 589.002 230.357 585.175Z" fill="#F79D32"/>
<path d="M184.847 560.894C188.794 571.47 200.17 568.211 202.319 582.284C191.274 582.371 182.39 573.696 173.506 565.02C168.062 559.827 162.618 554.633 157.074 549.799C167.019 550.696 176.165 554.464 184.847 560.894Z" fill="#EA942E"/>
<path d="M134.202 509.361C134.096 513.067 133.847 516.206 133.741 519.913C133.061 521.346 132.74 522.547 132.06 523.98C123.041 521.236 123.429 505.44 117.772 497.867C114.546 483.425 120.159 470.19 120.011 456.395C128.707 457.034 126.922 468.115 128.213 476.537C128.289 488.394 130.047 499.49 134.202 509.361Z" fill="#F6A94C"/>
<path d="M256.831 190.837C258.47 191.896 260.009 193.316 261.883 194.527C272.921 199.529 281.291 212.173 291.127 218.527C288.348 214.604 281.362 216.901 283.525 205.103C299.412 211.536 312.6 227.718 327.688 237.039C336.821 242.94 345.654 249.923 355.353 252.784C361.381 263.915 355.064 265.792 350.285 269.09C345.27 269.255 340.153 266.8 335.14 269.947C327.352 272.152 320.829 268.789 313.701 261.63C299.176 246.287 284.617 230.071 267.691 220.413C260.431 215.723 253.506 210.823 248.448 201.171C246.33 187.884 253.255 192.784 256.831 190.837Z" fill="#FC9A24"/>
<path d="M338.108 197.124C338.613 189.06 333.548 177.754 339.995 173.62C345.663 170.297 352.557 174.856 357.246 182.378C358.741 185.135 358.948 190.575 361.799 189.367C375.442 182.478 384.99 195.864 395.417 204.971C398.406 207.389 400.883 205.492 403.088 202.53C414.762 195.665 420.952 215.229 431.205 216.706C435.722 219.693 441.426 220.372 442.043 230.504C435.329 242.859 427.248 240.608 419.368 234.513C412.338 229.421 406.698 221.271 399.194 218.96C389.688 218.861 383.297 203.142 372.911 207.323C367.485 216.995 362.261 222.821 358.685 204.987C357.664 199.449 354.234 197.623 351.755 196.425C357.736 207.453 361.072 222.035 366.748 234.187C364.954 241.84 361.762 240.171 358.535 237.595C350.078 231.56 342.13 223.651 334.724 214.775C333.058 210.579 332.682 206.795 336.314 204.777C339.232 202.287 340.079 200.195 338.108 197.124Z" fill="#F59726"/>
<path d="M338.968 203.797C341.512 206.798 344.902 207.714 346.363 212.644C344.741 221.706 335.479 206.339 335.691 221.018C322.914 222.715 313.856 209.686 303.682 200.766C305.227 177.555 305.227 177.555 323.54 193.611C326.116 194.431 328.93 195.407 331.507 196.227C333.949 199.602 333.92 207.954 338.968 203.797Z" fill="#F59E36"/>
<path d="M356.204 242.437C358.808 241.395 361.659 240.519 364.263 239.477C372.216 236.912 378.552 239.309 380.423 254.06C379.093 273.175 370.188 272.774 361.424 272.933C356.954 272.255 352.273 272.367 349.385 265.772C349.103 264.652 348.821 263.532 348.539 262.412C351.986 258.214 357.441 256.297 354.798 246.61C355.22 245.032 355.888 243.62 356.204 242.437Z" fill="#FCA132"/>
<path d="M284.927 204.316C284.664 212.373 290.754 212.455 293.183 221.838C282.409 210.466 269.154 212.197 262.815 193.763C265 190.86 267.589 189.521 270.518 191.002C275.5 195.124 280.281 199.981 284.927 204.316Z" fill="#F89927"/>
<path d="M186.092 321.264C189.212 324.204 192.568 327.3 195.587 330.613C195.994 332.203 195.69 333.324 195.386 334.444C194.844 335.408 194.404 335.998 194.404 335.998C184.105 341.971 179.725 327.19 172.843 322.647C174.777 327.887 182.437 328.539 179.732 339.525C175.126 343.09 171.396 339.307 167.463 336.271C164.343 333.331 161.427 329.644 158.95 325.367C155.624 317.006 149.725 313.994 144.774 308.524C140.298 303.367 135.821 298.211 135.781 288.056C136.187 286.562 136.728 285.598 137.372 284.261C138.15 283.454 138.591 282.864 139.37 282.057C140.962 281.347 142.351 281.383 143.978 281.576C145.503 282.142 147.029 282.709 148.453 283.649C161.507 295.348 176.557 301.759 186.092 321.264Z" fill="#F69622"/>
<path d="M135.938 290.755C142.027 300.625 147.671 311.095 156.901 314.551C160.217 315.863 160.39 320.454 159.982 325.106C159.401 325.167 158.718 325.608 158.137 325.669C148.496 320.596 138.721 318.119 128.504 322.51C127.205 322.094 126.213 320.538 125.904 318.543C122.143 314.697 118.279 311.23 114.757 307.544C120.734 298.988 126.676 289.514 135.938 290.755Z" fill="#F69F36"/>
<path d="M139.574 275.788C140.561 276.452 141.549 277.116 142.784 277.945C142.82 278.902 143.208 279.629 143.243 280.586C142.504 283.352 141.482 284.997 139.86 286.705L139.189 284.855C133.403 281.433 137.388 278.515 139.574 275.788Z" fill="#FBD5A9"/>
<path d="M258.605 193.211C256.651 199.351 252.395 196.555 249.73 199.171C244.028 203.723 239.601 196.448 234.604 195.349C229.74 191.717 226.731 185.374 225.511 177.586C236.184 185.47 248.134 184.586 258.605 193.211Z" fill="#F89C2C"/>
<path d="M120.661 447.505C121.059 446.077 121.691 444.798 121.989 443.727C121.787 441.493 122.052 439.559 122.783 437.923C123.748 436.437 125.08 435.607 126.446 435.641C131.645 437.71 136.381 442.428 141.614 445.361C153.419 456.292 165.19 466.36 178.124 474.227C195.331 489.461 213.633 500.768 231.571 514.367C234.405 517.025 236.807 520.247 238.011 524.806C238.447 527.19 237.849 529.332 236.552 531.025C218.928 531.095 204.12 516.135 187.688 508.973C178.82 503.29 170.485 496.686 161.517 491.361C153.182 484.757 145.145 477.082 137.108 469.407C130.539 464.356 125.866 455.47 120.661 447.505Z" fill="#FDAD4C"/>
<path d="M120.543 450.047C127.11 456.24 133.575 462.817 139.901 468.849C141.141 473.743 141.899 478.315 137.397 480.277C133.548 480.868 129.905 480.693 126.604 477.133C124.711 470.448 127.387 460.491 121.474 456.089C121.163 454.075 120.853 452.061 120.543 450.047Z" fill="#E8922A"/>
<path d="M125.428 441.384C124.87 442.394 124.451 443.96 123.787 445.361C121.55 442.935 118.963 440.735 116.481 438.144C116.446 437.196 116.41 436.249 116.375 435.302C116.584 434.519 117.038 433.9 117.248 433.117C117.702 432.498 118.051 432.271 118.75 431.817C119.798 431.136 120.986 431.01 122.174 430.885C123.258 431.151 124.132 432.2 125.006 433.249C125.706 436.028 124.973 438.769 125.428 441.384Z" fill="#F7AF57"/>
<path d="M116.607 439.416C114.531 445.005 111.784 445.486 108.543 442.377C109.984 432.637 112.448 431.034 116.607 439.416Z" fill="#F8A84A"/>
<path d="M169.623 597.283C163.184 591.327 156.846 585.004 150.642 579.203C152.528 577.396 146.02 569.658 153.197 570.882C158.52 571.761 162.703 578.846 168.327 575.576C170.888 576.385 174.054 574.982 176.145 578.524C179.485 584.622 174.296 584.266 173.49 587.214C171.978 592.741 176.257 593.371 178.279 595.13C187.886 602.726 198.536 607.528 207.336 618.071C211.547 616.918 214.614 618.926 216.909 624.775C217.722 630.956 214.792 632.514 212.098 634.226C194.611 631.029 181.193 617.027 169.623 597.283Z" fill="#FEAD4B"/>
<path d="M100.49 388.269C103.735 381.469 104.208 369.238 112.998 373.298C114.538 373.875 112.312 367.464 112.994 363.886C117.126 352.747 121.848 357.234 126.809 361.881C134.41 380.832 147.306 388.522 158.597 400.071C160.686 405.943 160.553 411.678 157.956 417.119C155.188 421.101 152.384 421.026 149.373 418.574C139.622 407.601 128.948 400.047 117.113 395.752C115.267 396.315 113.181 396.719 111.198 396.743C108.975 396.607 106.171 396.532 103.674 395.318C101.758 394.043 100.389 391.787 99.7035 389.09L100.49 388.269Z" fill="#F4931F"/>
<path d="M127.575 364.592C123.605 360.088 119.461 357.306 114.797 362.911C108.004 352.834 119.006 351.483 118.376 344.164C119.664 343.649 121.092 343.688 122.38 343.173C126.593 344.622 130.249 347.077 133.176 352.26C134.537 360.07 133.285 364.747 127.575 364.592Z" fill="#F7A138"/>
<path d="M232.949 195.982C238.942 188.297 242.705 199.744 247.633 199.942C254.643 206.638 261.889 213.486 268.9 220.181C280.334 225.89 289.294 238.567 299.926 247.185C304.895 257.271 298.929 256.827 295.611 256.816C286.896 256.303 279.215 250.03 271.734 243.03C270.861 241.177 269.653 239.535 268.68 238.045C258.177 223.938 244.395 216.705 234.328 202.022C233.79 199.958 233.487 198.046 232.949 195.982Z" fill="#F18F19"/>
<path d="M234.473 203.325C249.235 209.89 261.993 220.705 272.081 239.178C257.856 234.666 245.301 226.116 235.281 209.394L233.741 207.971L232.669 206.851C233.304 205.555 233.838 204.621 234.473 203.325Z" fill="#F79622"/>
<path d="M208.749 196.208C209.403 194.831 209.713 193.676 210.368 192.299C213.541 195.33 216.853 198.907 220.026 201.938C220.407 205.823 219.443 208.355 216.892 209.372C214.374 208.141 212.028 205.21 209.579 202.664L209.682 202.279C209.268 200.64 209.301 198.394 208.749 196.208Z" fill="#F8AC52"/>
<path d="M216.627 209.047C217.61 206.455 218.593 203.863 219.822 201.437C220.455 202.327 221.44 202.988 222.073 203.878C222.636 206.116 222.953 208.188 223.27 210.259C220.705 212.253 218.736 210.93 216.627 209.047Z" fill="#F7A33E"/>
<path d="M222.97 209.843C222.651 207.759 222.332 205.675 221.766 203.424C222.65 204.486 223.64 205.152 224.524 206.213C224.206 207.402 223.641 208.424 222.97 209.843Z" fill="#F8AD55"/>
<path d="M208.915 196.693C209.236 198.785 209.556 200.878 209.877 202.971C208.882 202.302 208.242 201.403 207.354 200.337C207.922 199.311 208.49 198.284 208.915 196.693Z" fill="#FAC280"/>
<path d="M133.226 350.947C129.813 347.758 125.128 348.251 123.333 341.156C123.676 337.758 122.538 335.637 121.297 333.9C114.85 325.053 120.19 323.184 124.461 321.053C125.426 321.698 126.288 322.728 127.012 323.212C131.112 322.78 134.799 323.886 138.659 326.468C142.313 329.819 144.382 334.83 145.109 341.664C145.386 345.931 144.94 349.713 143.322 353.619C142.427 354.834 141.049 355.726 139.878 355.85C137.156 355.389 134.778 354.706 133.226 350.947Z" fill="#F6A33F"/>
<path d="M116.881 439.384C113.402 436.117 110.803 437.157 108.732 442.732C106.624 440.851 104.971 438.347 105.532 434.079C107.182 430.078 108.972 426.637 112.45 426.652C115.612 427.849 117.862 430.289 118.531 435.384C117.864 436.794 117.548 437.975 116.881 439.384Z" fill="#F9BC71"/>
<path d="M111.557 428.385C110.368 431.752 109.038 434.562 106.271 434.091L106.025 433.927C105.709 431.863 105.394 429.798 105.323 427.899C104.342 427.24 103.466 426.188 102.59 425.137C103.15 424.124 103.57 422.554 103.394 421.048L104.48 421.314C108.157 420.544 110.4 422.977 111.557 428.385Z" fill="#FCDBB5"/>
<path d="M105.141 428.113C105.214 430.066 105.54 432.188 105.867 434.31C105.54 432.188 105.214 430.066 105.141 428.113Z" fill="#FCE9D2"/>
<path d="M105.775 416.3C104.055 414.246 102.782 411.587 103.227 407.816C104.499 407.309 105.771 406.803 106.905 405.752L107.146 405.913C109.346 405.123 111.238 405.483 113.061 407.153C115.504 409.689 117.156 413.054 116.642 418.136C113.55 423.303 110.694 419.134 107.702 417.587C106.979 417.104 106.498 416.782 105.775 416.3Z" fill="#F8B35F"/>
<path d="M111.538 427.361C109.371 425.056 107.204 422.75 104.699 420.661C105.002 419.545 105.069 418.272 105.136 416.999L106.625 416.663C111.363 419.785 117.184 420.986 120.471 428.418C121.149 431.06 120.643 432.92 118.85 434.373C116.345 432.284 113.941 429.822 111.538 427.361Z" fill="#F8B35F"/>
<path d="M235.158 338.825C239.623 340.888 242.831 334.233 246.754 334.185C248.918 333.418 250.474 334.881 252.065 337.244C254.065 344.259 257.113 351.526 262.623 347.702C277.361 337.678 287.143 352.009 295.671 360.692C292.151 356.182 291.709 353.7 292.651 345.114C299.956 345.978 305.844 352.046 312.541 355.141C320.223 362.828 328.443 366.486 337.574 366.799C338.758 367.579 339.84 368.73 340.484 370.469C341.472 381.201 336.535 381.897 331.87 383.647C330.044 384.198 328.929 385.218 330.619 384.138C330.89 385.194 331.398 386.405 332.244 387.4C332.989 388.768 333.396 390.35 333.701 392.305C333.195 394.164 332.452 395.867 331.337 396.886C317.241 405.579 305.803 393.226 293.962 385.43C286.147 380.285 279.277 372.694 270.149 375.451C261.896 373.964 253.172 375.234 245.728 367.702C241.7 361.982 236.253 358.396 232.765 351.716C229.549 346.092 227.821 340.132 235.158 338.825Z" fill="#FDAA48"/>
<path d="M192.424 242.496C215.659 266.555 242.304 281.268 265.339 306.054C270.235 311.37 275.196 315.444 269.878 325.693C266.261 326.772 264.116 324.524 262.771 319.371C256.233 312.99 249.93 306.762 244.428 297.629C236.981 285.521 227.393 277.162 216.703 272.797C207.186 269.193 200.042 258.995 191.527 251.76C187.27 248.142 190.483 245.518 192.424 242.496Z" fill="#F08E18"/>
<path d="M187.204 318.837C174.751 303.269 158.124 298.898 145.233 283.913C144.929 281.971 144.422 280.768 143.915 279.565C143.881 278.672 143.847 277.778 143.711 277.254C144.115 275.777 144.755 274.455 145.901 274.336C146.541 273.013 146.843 271.906 147.483 270.583C148.428 271.203 149.035 272.037 149.879 273.025C162.523 272.608 170.725 285.389 179.769 296.11C178.9 306.425 186.186 310.332 187.204 318.837Z" fill="#ED9020"/>
<path d="M180.532 294.829C168.171 294.135 160.765 278.341 150.459 271.132C152.382 267.15 154.201 260.479 157.783 263.707C166.602 271.252 175.22 279.537 183.398 288.409C184.379 289.927 181.848 293.071 180.532 294.829Z" fill="#EE8D18"/>
<path d="M260.849 321.23C263.372 323.351 265.555 325.691 268.079 327.812C267.303 344.223 262.739 349.655 253.429 340.356C251.86 338.869 250.394 337.005 248.586 335.359C250.459 332.594 253.628 330.244 249.501 325.722C245.375 321.201 240.295 319.164 237.36 312.316C246.39 308.067 252.329 323.591 260.849 321.23Z" fill="#FC9A25"/>
<path d="M235.291 344.402C233.404 347.201 230.315 349.198 234.368 354.158C239.143 359.6 246.216 360.714 247.698 372.075C243.339 374.576 238.943 372.995 234.583 372.339C233.381 371.537 232.179 370.735 231.08 369.55C227.61 364.528 223.488 360.875 220.464 355.249C219.296 352.214 218.951 349.279 220.838 346.48C225.608 342.449 230.311 339.725 235.291 344.402Z" fill="#F69F39"/>
<path d="M221.92 349.228C222.225 351.18 222.531 353.132 222.735 355.455C213.348 366.351 208.301 349.024 201.067 346.892C199.782 346.485 198.362 345.55 197.28 344.401C193.831 341.694 191.835 337.755 192.743 331.348C193.384 330.019 193.688 328.905 194.329 327.576C204.301 331.948 212.959 341.145 221.92 349.228Z" fill="#F7951F"/>
<path d="M341.832 364.462C340.888 363.843 340.281 363.01 339.437 362.022C330.402 360.451 322.073 356.297 313.542 352.881C306.091 350.608 299.11 345.597 292.97 338.526C291.015 338.55 289.397 338.36 287.508 337.122C283.36 333.967 281.435 328.789 282.879 321.468C285.499 308.827 290.598 321.742 294.068 319.23C295.62 320.682 297.172 322.135 298.723 323.587C309.514 328.919 318.019 343.632 329.949 339.703C329.037 336.93 322.768 338.477 322.122 330.657C317.263 323.991 309.409 323.193 307.108 311.242C312.733 304.921 317.523 309.801 322.279 313.789C324.91 316.384 327.44 319.348 329.532 322.895C338.913 336.441 350.549 345.809 361.209 356.712C365.291 361.128 370.349 364.009 371.94 372.449C370.33 384.448 364.295 383.103 359.136 380.591C352.46 377.52 345.985 373.711 341.832 364.462Z" fill="#FEB152"/>
<path d="M234.582 248.624C234.642 238.228 227.697 234.113 225.028 224.537C233.249 222.966 237.536 232.732 243.436 236.598C247.448 239.226 251.059 246.375 255.433 237.501C262.846 235.836 267.234 245.233 272.831 250.204C273.809 251.715 274.451 253.44 274.891 255.902C273.75 262.112 270.647 259.209 268.422 258.186C271.154 260.411 274.389 260.791 276.616 264.859C278.749 278.432 291.823 277.432 292.441 293.49C279.766 286.925 267.191 279.99 254.617 273.056C248.511 263.838 238.232 262.756 234.582 248.624Z" fill="#F6951F"/>
<path d="M294.081 324.678C291.671 329.413 286.947 319.453 285.056 328.616C282.443 340.47 291.744 337.623 292.953 344.778C294.06 355.493 302.743 358.127 303.714 371.47C298.096 365.899 293.235 358.568 287.997 356.878C280.865 354.828 274.414 336.46 264.982 354.634C262.47 359.754 254.404 351.639 250.302 345.722C247.337 341.926 251.023 339.857 252.228 337.489C259.395 340.469 264.147 335.487 266.933 325.109C268.346 325.147 270.723 325.831 271.033 324.677C278.912 302.745 286.636 317.432 294.081 324.678Z" fill="#FDAE4E"/>
<path d="M234.699 252.079C240.931 260.25 250.882 261.997 254.356 275.112C236.11 264.714 217.598 253.308 201.872 234.882C199.007 231.375 196.375 228.018 192.847 227.86C193.702 217.929 196.701 221.94 199.998 224.885C211.09 235.322 221.983 246.47 234.699 252.079Z" fill="#F08F19"/>
<path d="M290.818 291.731C287.523 283.563 281.781 280.257 276.476 276.374C272.715 273.927 273.283 270.854 274.487 266.476C289.692 268.626 301.417 284.431 315.517 290.595C320.487 294.69 324.385 300.669 326.204 309.167C326.241 313.063 325.673 316.135 323.09 317.466C319.026 313.1 314.761 309.464 309.626 309.995C306.561 295.953 295.96 300.24 290.818 291.731Z" fill="#F4911B"/>
<path d="M322.397 331.553C326.308 335.347 330.319 338.78 334.832 343.386C317.096 341.712 317.096 341.712 299.212 324.67C304.921 321.986 307.933 329.019 312.278 332.243C315.921 335.015 319.264 338.867 322.397 331.553Z" fill="#FDAE4E"/>
<path d="M275.509 253.685C269.113 247.841 263.052 241.787 256.656 235.943C252.17 232.187 248.217 227.497 243.03 226.274C237.375 224.747 233.757 219.848 234.518 210.103C245.671 223.717 259.76 227.714 271.314 239.881C271.085 245.704 279.851 244.977 275.509 253.685Z" fill="#F18F19"/>
<path d="M209.27 203.258C212.768 202.89 215.307 205.034 216.544 209.912C212.327 212.951 210.131 210.586 209.27 203.258Z" fill="#F7A33E"/>
<path d="M146.741 275.6C146.425 276.785 145.862 277.803 145.44 279.382C144.031 280.298 143.045 279.635 142.234 277.227L142.586 276.998C144.136 276.643 145.438 276.122 146.741 275.6Z" fill="#F39B33"/>
<path d="M228.535 580.598C229.777 580.115 231.019 579.631 232.26 579.148C245.761 584.494 259.592 583.596 273.093 588.942C281.825 592.475 289.719 598.046 297.446 605.232C298.857 606.151 299.832 607.647 301.042 609.296C307.667 623.516 303.138 627.889 294.108 628.468C290.448 628.669 287.056 626.891 283.83 623.498C282.015 621.024 280.771 618.491 280.399 614.803C271.462 605.968 262.695 601.552 251.181 603.098C242.621 603.983 233.448 594.995 228.535 580.598Z" fill="#FDAE4C"/>
<path d="M228.437 564.17C208.596 558.171 192.617 540.243 175.939 524.833C175.001 521.26 171.527 519.869 172.357 514.892C173.09 513.244 174.191 512.257 175.66 511.931C180.703 512.637 184.015 518.587 188.025 522.019C199.018 529.102 209.877 535.674 220.97 542.398C224.578 544.298 227.753 546.768 230.962 550.108C233.27 553.715 237.38 556.787 235.015 563.32C233.583 567.486 230.845 567.418 228.437 564.17Z" fill="#EE9936"/>
<path d="M124.81 477.571C128.089 474.83 131.542 476.68 135.062 477.232C136.978 481.64 138.996 485.668 140.912 490.075C146.419 500.004 155.954 502.321 159.72 515.567C159.312 520.218 158.083 521.637 155.518 518.588C148.442 513.432 139.491 517.321 133.061 507.673C121.714 503.703 126.388 488.466 124.81 477.571Z" fill="#F49420"/>
<path d="M274.205 592.2C260.387 588.364 245.115 595.058 233.122 578.289L232.035 577.128L230.948 575.967C230.434 568.557 233.828 566.381 237.121 567.676C245.1 570.301 253.11 567.643 260.749 570.485C262.753 571.368 264.654 572.626 266.455 574.258C267.541 575.419 268.527 576.954 269.512 578.49C271.653 582.999 273.998 586.76 274.205 592.2Z" fill="#F39F3D"/>
<path d="M262.065 574.968C251.875 580.285 241.437 569.749 231.316 576.905C227.689 573.593 226.455 568.737 227.033 562.399C229.256 562.535 232.198 563.149 232.504 558.87C232.537 556.651 229.423 554.578 227.815 552.162C236.979 547.507 253.985 558.83 262.065 574.968Z" fill="#FBA746"/>
<path d="M159.006 515.365C151.828 505.811 141.002 503.506 136.628 488.78C153.811 485.181 164.544 500.148 174.062 519.578C175.992 521.727 177.685 523.719 177.383 527.907C176.132 528.399 174.88 528.891 173.392 529.227C166.356 529.419 161.786 524.654 159.006 515.365Z" fill="#E8922A"/>
<path d="M158.015 516.158C162.677 520.53 167.575 525.058 172.473 529.586C172.879 531.163 173.623 532.525 174.265 534.257C167.583 537.291 156.876 528.51 154.032 517.472C155.281 516.982 156.53 516.492 158.015 516.158Z" fill="#FBA237"/>
<path d="M334.328 264.087C339.152 254.577 342.941 263.19 346.962 265.834L346.861 266.205C349.302 278.741 356.803 281.923 363.124 287.391C378.603 300.191 396.849 306.938 406.629 333.483C401.975 344.417 395.79 339.476 389.843 337.753C382.308 333.674 375.581 326.628 369.394 318.624C362.325 305.669 352.323 300.405 344.547 290.045C340.656 281.803 331.77 278.585 334.328 264.087Z" fill="#F7A74C"/>
<path d="M336.246 268.181C337.564 278.539 345.63 279.483 347.486 288.896C347.858 292.593 346.718 295.735 344.737 297.896C335.5 302.233 328.873 294.025 321.845 287.282C317.128 272.118 305.194 266.061 301.015 249.951C289.817 239.194 278.753 228.955 267.79 218.351C273.063 215.315 276.395 221.373 280.094 225.081C293.009 238.685 307.465 247.683 319.139 264.795C323.647 271.621 330.632 265.383 336.246 268.181Z" fill="#F7951F"/>
<path d="M379.947 248.527C377.595 238.04 369.933 240.764 365.711 235.043C361.223 231.284 357.839 226.532 355.589 218.672C353.44 210.451 351.457 200.629 344.828 197.618C342.718 196.253 342.047 193.683 343.082 190.938C343.482 189.49 345.389 188.59 346.527 188.473C352.25 188.762 362.237 204.619 362.714 213.893C366.562 212.969 369.169 209.534 371.273 204.92C384.927 203.513 393.042 221.146 404.193 228.791C421.104 240.593 439.72 249.228 452.391 272.372C450.057 282.815 448.854 284.17 442.288 276.931C432.506 266.33 421.723 259.35 410.941 252.37C407.425 250.094 404.109 247.093 401.773 254.546C394.082 262.374 388.182 251.724 381.387 250.314C381.018 249.648 380.65 248.983 379.947 248.527Z" fill="#F59420"/>
<path d="M453.485 274.129C436.858 250.8 415.909 239.039 395.99 224.565C387.782 218.453 380.337 208.611 371.796 202.707C370.725 198.644 368.285 191.593 374.123 195.341C381.963 200.796 388.773 208.964 397.411 211.556C405.861 226.683 418.369 232.181 429.678 239.019C442.155 246.607 449.674 264.09 463.413 266.159C461.453 274.182 457.651 273.007 455.954 276.136C454.721 276.61 453.787 276.011 453.485 274.129Z" fill="#F08F1A"/>
<path d="M389.665 329.783C394.148 326.624 399.179 334.716 403.626 327.613C406.355 323.74 409.356 323.967 410.537 324.741C396.027 312.609 380.872 295.699 364.574 281.958C360.524 278.431 356.576 274.534 355.457 266.394C362.268 263.891 371.073 268.36 373.828 253.177C375.986 252.414 377.437 254.238 379.024 256.586C378.8 274.736 388.314 279.67 396.278 286.2C407.211 295.114 418.986 301.967 426.755 318.389C434.86 334.596 447.545 341.175 458.075 351.567C471.469 358.61 484.661 366.391 497.584 376.175C498.901 377.474 499.88 378.988 500.758 380.871C506.231 394.481 516.788 396.614 524.282 405.885C529.48 412.344 537.171 414.775 538.799 427.17C535.026 433.844 531.078 429.947 527.299 427.468C510.867 416.254 493.492 407.471 477.464 394.779C467.17 384.542 455.732 377.475 444.733 369.824C442.607 368.43 439.468 364.629 439.204 372.732C443.833 385.353 453.345 387.236 459.657 395.733C463.539 400.893 469.848 403.288 468.203 414.407C461.562 418.328 456.701 411.655 451.571 406.983C435.339 391.979 419.847 375.283 402.773 362.341C399.662 350.281 389.103 345.097 389.665 329.783Z" fill="#FDAA46"/>
<path d="M358.11 270.15C380.84 291.588 403.571 313.025 427.471 335.216C418.825 338.552 412.871 329.2 405.591 329.598C390.077 311.964 373.631 296.698 355.219 286.529C351.009 283.815 341.386 279.734 347.183 264.805C350.527 268.657 354.335 269.839 358.11 270.15Z" fill="#FEB459"/>
<path d="M167.218 331.006C170.753 333.316 173.415 339.819 178.224 336.466C185.825 334.072 191.114 343.158 197.844 344.958C206.695 348.144 212.825 358.213 220.635 364.183C222.36 376.136 215.595 373.448 211.796 376.161C196.588 374.883 184.903 360.752 172.715 348.456C169.65 343.421 163.929 340.982 167.218 331.006Z" fill="#F7951F"/>
<path d="M167.768 334.116C167.978 342.821 172.921 343.415 176.012 347.732C178.178 355.489 176.327 359.211 171.143 358.457C167.024 357.962 163.007 353.928 158.581 357.735C153.537 360.68 148.183 361.614 148.006 350.678C147.933 342.515 142.786 345.842 141.892 340.737C141.786 334.806 139.175 330.81 137.594 326.149C144.144 313.391 151.117 324.355 158.05 324.926C161.21 327.936 164.609 331.106 167.768 334.116Z" fill="#F3921E"/>
<path d="M198.957 343.885C191.598 345.521 185.272 341.429 179.446 335.529C175.457 326.98 167.628 325.326 163.737 313.429C175.315 317.507 181.986 333.335 193.294 333.4C195.137 336.724 196.88 340.409 198.957 343.885Z" fill="#F2901B"/>
<path d="M141.934 277.524C142.95 278.203 143.967 278.882 145.346 279.326L144.766 280.37C145.202 282.092 144.984 282.901 144.513 283.54C144.042 284.179 143.679 284.413 143.425 284.244C142.083 284.778 140.74 285.312 139.544 286.42C140.413 283.185 141.174 280.355 141.934 277.524Z" fill="#F9BB71"/>
<path d="M143.303 283.895C143.622 282.701 144.297 281.276 144.616 280.082C146.109 281.085 146.429 283.178 145.684 285.964C144.795 284.898 144.049 284.396 143.303 283.895Z" fill="#FAC585"/>
<path d="M159.183 325.306C152.352 325.656 145.522 326.005 138.929 326.513C134.071 329.941 131.28 323.663 127.812 320.924C138.952 308.81 149.389 314.835 159.183 325.306Z" fill="#F69622"/>
<path d="M177.484 476.335C163.059 469.059 150.584 455.673 138.042 443.547C138.475 436.878 141.808 433.846 144.77 430.136C147.968 426.581 151.503 422.812 154.942 425.499C172.1 438.041 192.889 440.358 205.273 466.287C206.425 475.299 215.895 479.328 211.423 491.61C203.744 495.272 198.784 485.94 192.684 482.813C187.864 480.091 183.413 475.003 177.484 476.335Z" fill="#FAA644"/>
<path d="M236.811 522.144C234.431 519.747 232.286 517.502 229.806 515.467C230.27 509.781 219.152 508.99 226.913 499.909C234.813 497.332 241.449 503.343 247.816 508.324C261.956 519.199 278.434 522.609 291.173 538.562C294.428 545.802 292.288 549.546 287.702 552.134C276.018 554.396 267.3 541.904 256.815 536.819C251.689 534.353 246.429 531.371 241.203 529.267C238.993 528.262 237.517 525.595 236.811 522.144Z" fill="#E59230"/>
<path d="M185.228 525.928C183.011 518.922 179.188 514.729 174.695 510.958C173.356 511.802 172.417 511.193 171.645 508.979C175.315 491.662 181.429 510.616 186.183 506.421C203.007 512.624 218.829 522.461 234.751 531.933C237.032 534.698 238.843 537.157 238.345 541.973C237.609 543.637 236.404 544.996 235.165 545.477C230.174 546.521 225.716 543.629 221.558 539.647C209.759 533.277 198.593 522.608 185.228 525.928Z" fill="#F29F3D"/>
<path d="M226.859 504.141C226.297 510.156 231.612 511.887 231.05 517.902C212.722 504.369 193.56 492.849 176.031 476.43C183.408 466.736 189.366 476.11 195.553 479.679C200.469 482.852 203.652 491.285 210.267 488.327C218.321 487.149 224.108 492.16 226.859 504.141Z" fill="#EA9735"/>
<path d="M236.735 536.661C234.947 535.056 233.126 532.557 233.426 528.405C234.065 527.085 234.368 525.979 234.771 524.503C236.322 525.955 238.11 527.561 239.661 529.012C253.586 538.136 267.375 546.736 279.854 560.131C284.205 565.591 290.543 568.874 289.608 580.438C285.907 588.885 281.391 588.1 276.366 583.068C269.719 571.754 261.389 564.557 252.859 558.098C246.452 553.031 239.507 548.915 236.735 536.661Z" fill="#EE9B39"/>
<path d="M173.822 511.948C174.668 512.944 175.378 513.412 176.225 514.407C175.583 515.739 175.279 516.854 174.638 518.185C162.456 507.533 151.488 492.42 137.213 487.405C135.452 483.615 134.841 479.705 135.48 475.303C139.302 475.627 137.371 470.41 138.418 467.591C147.284 476.06 155.913 484.372 164.779 492.841C166.239 500.817 173.004 502.641 173.822 511.948Z" fill="#F09C3A"/>
<path d="M146.601 438.391C144.386 441.379 141.931 444.208 139.716 447.196C134.77 445.694 130.879 441.325 127.295 435.823C126.033 436.322 125.317 435.846 125.248 434.016C124.156 432.845 123.302 431.832 122.347 431.197C121.426 431.478 120.71 431.002 120.3 429.391C115.693 424.547 111.086 419.702 106.581 414.479C109.956 411.37 112.107 415.921 114.495 417.508C121.077 416.083 128.036 418.476 134.343 412.854C138.095 413.563 140.996 416.382 143.249 420.555C145.435 426.021 150.485 430.268 146.601 438.391Z" fill="#F49828"/>
<path d="M173.234 510.659C169.781 504.881 160.687 505.468 164.194 491.563C172.513 494.848 180.024 501.106 187.23 508.479C182.873 515.251 177.217 500.135 173.234 510.659Z" fill="#F6A240"/>
<path d="M124.424 435.261C125.175 435.765 125.926 436.268 126.462 437.572C126.141 438.772 125.82 439.972 125.248 441.004C124.926 438.901 124.603 436.797 124.424 435.261Z" fill="#F9BE78"/>
<path d="M119.791 430.976C120.526 431.47 121.261 431.964 121.891 432.85C120.597 433.368 119.652 433.658 118.357 434.176C118.672 433 119.231 431.988 119.791 430.976Z" fill="#FAC280"/>
<path d="M146.017 433.047C146.681 426.636 141.021 425.106 141.685 418.695C142.049 413.372 142.916 409.231 146.971 413.57C148.982 415.3 151.093 416.668 153.401 414.316C167.268 418.171 179.966 427.256 193.467 433.439C194.874 434.351 196.281 435.263 197.588 436.538C203.591 446.841 213.004 450.803 218.037 462.616C218.777 466.944 217.976 469.846 216.137 472.502C212.49 475.697 209.006 474.294 206.189 469.476C193.477 445.418 172.949 443.659 157.264 428.364C152.17 423.78 150.036 433.513 146.017 433.047Z" fill="#F09C3B"/>
<path d="M195.346 435.484C180.781 431.625 166.525 426.619 154.359 411.727C156.418 407.235 156.004 402.446 156.173 397.595C157.612 389.079 162.077 389.352 166.129 387.997C167.538 388.034 168.843 388.455 170.251 388.492C175.37 390.556 180.248 392.46 185.367 394.523C193.92 397.527 193.477 404.451 188.535 413.336C184.076 425.702 196.028 425.56 195.346 435.484Z" fill="#FEAC4A"/>
<path d="M167.767 392.523C164.698 394.498 161.528 396.851 158.357 399.204C144.984 393.442 132.871 384.057 126.243 362.708C129.175 360.196 130.674 356.732 130.705 351.402C132.922 351.537 134.798 351.891 137.015 352.026C138.453 362.346 143.469 365.678 148.723 369.169C156.366 374.246 164.894 378.128 167.767 392.523Z" fill="#F69724"/>
<path d="M148.283 416.084C145.624 415.646 144.347 418.279 142.969 421.279C139.87 418.386 136.536 415.338 133.437 412.445C124.283 413.395 117.85 407.454 114.575 394.042C115.113 393.093 116.189 391.195 116.424 391.349C127.906 397.124 140.529 399.743 148.283 416.084Z" fill="#ED8D1A"/>
<path d="M114.139 395.236C120.577 401.767 126.877 407.759 133.315 414.291C132.564 419.175 134.04 427.337 127.741 424.487C123.462 422.534 118.91 422.642 115.211 417.486C115.517 413.203 113.805 411.165 111.853 408.968C111.577 404.746 109.555 400.707 110.306 395.823C111.709 395.86 112.975 395.358 114.139 395.236Z" fill="#F69F37"/>
<path d="M110.967 396.669C113.355 400.547 115.051 404.874 112.529 410.021C110.938 408.499 109.346 406.977 107.755 405.456C108.168 400.719 106.196 398.486 104.328 395.867C106.713 393.363 108.685 395.596 110.967 396.669Z" fill="#FBD3A4"/>
<path d="M300.799 251.429C309.514 257.121 314.804 269.23 322.007 277.396C324.161 279.668 323.391 283.492 322.385 287.162C321.04 288.014 319.325 288.192 317.811 287.636C302.601 277.269 284.943 274.821 274.297 251.858C275.201 245.526 269.515 243.976 270.183 237.489C280.277 243.217 288.796 255.703 300.799 251.429Z" fill="#ED8A14"/>
<path d="M167.762 389.302C159.817 382.81 152.879 372.645 143.356 369.886C137.062 367.505 134.164 360.847 137.419 349.982C138.362 350.598 138.968 351.427 139.91 352.043C145.124 350.253 146.073 359.969 150.145 361.331C153.645 362.752 157.079 365.429 158.957 357.562C171.681 365.878 187.459 364.063 196.189 384.927C197.2 387.32 198.547 389.5 199.222 392.106C197.918 402.947 193.606 395.365 190.746 395.662C183.849 395.485 177.318 389.917 170.254 391.363C169.311 390.747 168.705 389.918 167.762 389.302Z" fill="#F59522"/>
<path d="M158.134 358.94C156.209 360.819 163.092 369.038 155.18 367.821C148.093 366.704 144.856 358.661 140.519 352.596C140.862 349.206 140.963 345.656 141.306 342.266C148.77 340.921 147.841 341.205 150.083 354.011C151.428 361.695 155.003 356.847 157.306 352.506C160.402 353.67 160.025 356.132 158.134 358.94Z" fill="#F69724"/>
<path d="M107.297 406.044C106.419 408.244 105.117 408.764 103.534 408.165C104.941 407.251 105.996 406.564 107.297 406.044Z" fill="#FCE8CE"/>
<path d="M232.301 369.604C236.851 364.204 240.896 366.881 244.771 371.218C252.589 375.507 261.454 370.75 268.695 378.199C271.276 375.923 274.164 375.621 276.578 378.104C289.564 390.242 304.415 396.531 317.91 406.792C319.652 422.113 315.612 428.736 305.69 427.038C304.875 426.941 303.719 427.062 303.107 426.214C298.552 422.313 292.913 423.45 289.751 419.586C294.442 424.02 301.849 423.61 307.221 430.708C315.934 455.513 300.908 441.582 297.139 446.171C294.931 446.037 292.824 445.528 290.819 444.643C273.993 432.178 258.048 415.425 238.409 414.378C231.407 410.187 229.057 400.219 226.402 391.378C226.057 382.295 228.703 375.634 232.301 369.604Z" fill="#FDAB4A"/>
<path d="M305.815 429.353C295.797 419.594 282.719 418.033 273.378 398.494C285.434 400.712 292.422 413.353 301.89 414.743C308.566 416.058 316.095 421.498 318.606 404.931C321.089 399.908 324.664 399.167 328.274 399.339C332.701 399.608 328.374 395.847 329.361 394.279C330.007 392.929 330.313 391.797 330.959 390.447C347.711 384.662 351.981 408.396 360.604 421.232C359.488 434.722 353.763 427.811 349.676 427.323C347.53 425.899 345.145 424.317 344.122 421.859C340.405 412.723 338.366 420.264 335.915 423.086C327.982 425.382 319.195 423.555 311.74 429.282C309.663 429.683 307.653 428.794 305.815 429.353Z" fill="#FDA740"/>
<path d="M360.239 418.973C354.932 412.862 348.682 409.191 346.14 397.029C344.276 387.499 335.329 391.672 330.934 385.286C329.988 384.664 329.143 383.672 328.433 383.205C339.402 371.618 349.136 381.951 359.339 386.471C369.886 399.96 383.095 404.708 395.596 412.05C397.387 413.665 398.976 416.021 399.789 419.178C394.295 435.237 386.958 424.295 381.079 421.305C373.207 417.443 379.529 425.969 378.45 427.882C377.843 430.106 377.101 431.804 375.886 433.191C367.883 434.925 362.847 429.867 360.239 418.973Z" fill="#FEAE47"/>
<path d="M360.085 389.327C350.379 383.304 340.298 379.73 329.704 381.214C326.378 379.896 320.859 382.515 321.027 374.527C321.229 367.462 326.271 370.825 328.979 371.282C333.437 371.554 337.276 370.965 339.845 364.579C345.33 364.187 349.583 368.374 353.837 372.561C359.05 377.388 364.607 381.994 369.985 372.531C371.184 370.181 370.6 367.092 371.798 364.741C372.929 363.696 373.958 363.031 375.363 363.069C377.969 363.907 380.13 365.348 382.223 368.094C386.958 375.752 385.726 380.33 379.384 382.85C377.67 383.957 375.819 384.522 374.106 385.629C369.685 389.43 364.713 387.914 360.085 389.327Z" fill="#FEAD4D"/>
<path d="M329.965 394.063C331.498 395.462 332.797 396.713 336.929 400.614C329.608 402.227 324.416 403.103 319.457 404.128C303.135 393.692 286.714 383.611 270.392 373.174C274.144 364.664 278.578 370.436 282.74 372.258C290.833 375.754 297.865 384.028 306.225 388.534C314.218 392.386 321.776 393.862 329.965 394.063Z" fill="#F5A13E"/>
<path d="M312.51 355.304C321.732 353.997 330.219 357.367 338.174 364.684C328.284 369.422 320.164 363.714 312.51 355.304Z" fill="#FEAD4D"/>
<path d="M234.171 373.66C236.2 383.33 230.788 388.464 229.045 396.061C219.79 397.228 213.57 390.282 210.317 376.559C210.491 374.83 210.805 373.657 210.769 372.71C212.653 365.668 217.404 368.398 220.407 365.799C224.981 363.796 228.545 366.651 231.69 371.071C232.563 372.119 233.542 372.776 234.171 373.66Z" fill="#FEB04C"/>
<path d="M232.41 369.729C228.64 369.419 224.737 368.601 221.631 364.914C213.818 357.358 205.906 350.16 198.093 342.603C203.327 339.629 206.202 346.125 210.074 349.036C214.046 351.589 216.821 358.443 222.055 355.468C225.762 359.964 231.7 360.399 232.41 369.729Z" fill="#F4911B"/>
<path d="M374.911 361.791C374.273 363.104 373.971 364.205 373.434 365.152C356.947 354.385 342.476 339.311 328.171 322.615C325.781 320.19 323.392 317.764 321.002 315.338C321.841 313.291 323.017 311.031 323.956 308.616C324.629 308.19 325.536 307.918 326.108 307.859C329.337 308.237 332.062 310.449 334.251 313.609C343.943 323.832 353.536 334.422 363.565 344.432C368.209 348.762 373.626 352.3 374.911 361.791Z" fill="#FEA738"/>
<path d="M327.66 324.067C342.579 337.948 357.497 351.829 372.65 365.861C373.789 368.721 373.389 370.164 371.317 369.676C359.709 358.783 347.868 347.739 336.361 336.485C332.716 333.707 328.202 332.069 327.66 324.067Z" fill="#FEB85B"/>
<path d="M273.862 254.181C287.32 269.894 304.525 274.179 319.21 286.487C319.58 290.074 318.651 292.413 316.423 293.503C301.679 288.277 288.227 278.432 275.571 265.743C271.675 261.999 267.778 258.254 263.183 254.063C267.471 250.519 270.506 258.321 273.862 254.181Z" fill="#FC9923"/>
<path d="M314.682 291.218C315.616 288.838 316.551 286.457 317.485 284.076C318.188 284.531 319.026 285.499 319.729 285.954C327.925 285.285 333.323 297.733 341.619 296.703C352.227 299.301 360.7 308.621 368.938 317.788C375.936 324.448 383.169 331.26 390.167 337.919C392.247 344.383 395.731 348.769 399.749 352.221C403.163 354.857 404.238 358.964 402.168 364.449C398.925 366.188 396.013 364.731 393.301 362.55C384.328 355.039 376.189 345.51 366.916 339.084C365.845 337.964 364.673 337.206 363.267 336.297C353.86 329.358 344.752 321.334 335.945 312.224C332.596 308.352 329.581 304.269 324.966 305.975L324.866 306.336C320.179 303.305 318.499 295.394 314.682 291.218Z" fill="#FDB358"/>
<path d="M222.195 535.74C225.927 541.055 231.315 539.469 235.544 543.008C247.129 548.73 256.358 560.907 266.715 570.034C268.48 571.58 268.25 574.365 266.988 576.911C265.456 575.514 263.925 574.117 262.393 572.719C250.808 566.997 241.212 554.167 228.832 551.288C225.769 548.494 222.472 545.551 219.408 542.757C216.813 543.194 214.249 541.557 215.11 537.499C216.369 532.019 219.967 536.83 222.195 535.74Z" fill="#FEAC4A"/>
<path d="M222.892 537.584C223.869 542.099 212.345 534.592 219.976 545.165C207.382 542.562 197.43 528.323 184.87 526.604C186.646 522.159 189.598 518.48 192.891 520.625C202.533 526.907 214.42 526.032 222.892 537.584Z" fill="#FBA746"/>
<path d="M266.973 576.394C259.176 558.435 245.587 553.466 235.279 541.608C235.915 540.303 236.216 539.21 236.853 537.905C247.797 548.458 258.841 558.646 269.785 569.199C273.008 572.584 277.538 574.24 278.181 581.963C275.396 581.012 272.377 579.908 269.592 578.956C268.417 578.192 267.812 577.37 266.973 576.394Z" fill="#F7A442"/>
<path d="M370.306 315.28C360.592 310.241 351.046 303.585 342.874 293.941C343.813 291.533 344.751 289.124 345.69 286.716C353.661 297.091 365.22 299.45 370.306 315.28Z" fill="#F69C30"/>
<path d="M381.781 256.72C392.652 264.688 404.362 270.607 414.227 282.246C412.18 288.7 408.646 286.391 405.92 284.177C399.255 278.092 392.625 272.894 385.658 267.91C395.182 273.699 403.262 283.74 413.323 288.581C426.412 294.536 437.823 304.588 446.951 320.939C447.363 331.597 442.214 329.099 438.548 329.301C433.736 326.59 429.361 323.298 427.673 315.27C413.166 302.329 399.029 290.064 384.858 276.91C379.977 272.422 374.019 266.799 381.781 256.72Z" fill="#FEB85E"/>
<path d="M157.544 355.639C157.24 353.702 156.935 351.764 156.631 349.827C160.973 346.155 164.345 350.1 168.12 352.572C171.793 355.412 174.588 353.332 174.549 346.356C185.541 360.07 198.516 368.566 211.592 376.694L211.828 376.849C212.236 381.46 211.363 385.667 209.075 388.948C206.079 391.764 203.117 395.473 199.711 390.636C195.396 386.072 190.914 383.137 187.776 376.304C185.245 370.302 180.76 364.325 176.383 367.106C167.258 371.991 163.073 361.866 157.544 355.639Z" fill="#F2901B"/>
<path d="M203.942 468.591C206.702 469.514 209.695 470.585 212.455 471.508C226.881 471.93 238.132 486.611 251.5 491.785C257.889 498.36 265.138 500.89 272.024 505.693C277.68 510.965 284.861 511.782 290.551 517.911C293.612 520.696 296.906 523.629 298.241 528.654C301.278 539.354 298.456 542.566 291.539 539.831C270.416 525.124 248.797 512.189 226.978 499.962C221.555 494.837 216.131 489.713 210.475 484.44C208.773 478.765 201.493 478.302 203.942 468.591Z" fill="#FDAA48"/>
<path d="M289.033 538.401C291.117 537.049 294.867 535.898 294.936 534.569C295.072 525.491 289.792 523.783 286.073 519.455C292.182 508.425 298.299 519.864 304.1 519.629C313.098 525.666 323.067 529.145 329.706 541.85C332.107 552.171 325.265 553.081 322.975 558.421C320.232 561.165 318.112 558.368 315.784 556.348C311.824 555.066 309.078 548.181 304.042 549.846C307.101 555.565 311.928 554.678 315.472 557.514C316.688 558.329 317.8 559.534 318.461 561.352C319.643 564.437 321.172 567.297 323.153 569.542C333.856 583.14 333.544 584.306 320.94 596.021C318.057 595.003 314.827 594.211 311.944 593.194C310.899 587.451 310.724 582.749 304.925 586.193C299.924 588.798 296.412 577.273 290.751 578.06C289.882 577.019 289.153 576.529 288.284 575.488C287.55 565.369 281.125 564.726 277.615 559.621C278.897 552.688 282.821 549.819 286.119 546.073C286.986 543.904 290.911 544.245 289.033 538.401Z" fill="#F9A23B"/>
<path d="M286.83 551.396C287.541 560.848 283.02 562.196 278.633 564.06C268.71 555.911 260.089 543.042 248.294 539.673C244.474 538.479 242.761 532.659 240.747 527.927C252.333 523.027 260.419 536.834 270.205 541.469C275.567 544.091 281.098 548.107 286.83 551.396Z" fill="#FCAD4B"/>
<path d="M217.789 460.763C210.132 451.698 200.234 447.801 195.057 433.726C205.181 416.04 215.017 430.54 224.916 434.438C230.531 441.706 234.978 427.355 241.204 432.367C246.478 436.749 252.464 438.497 255.496 448.046C258.49 450.473 247.576 453.443 255.671 455.702C259.31 456.782 262.135 460.872 261.935 467.836C253.54 476.023 245.85 469.154 238.061 465.767C227.686 461.554 219.28 451.106 210.945 445.583C213.806 453.689 225.163 450.125 226.43 465.157C222.216 470.349 219.765 466.951 217.789 460.763Z" fill="#FDAD4B"/>
<path d="M226.363 442.97C217.023 434.19 207.448 428.324 196.394 435.076C195.446 434.452 194.837 433.612 193.991 432.617C190.641 429.534 187.493 425.708 184.042 422.997C176.327 417.479 182.141 412.538 184.269 407.801C191.505 406.866 198.305 409.589 205.139 413.212C210.45 416.271 215.525 419.174 220.634 422.976C222.6 429.093 234.031 429.166 226.363 442.97Z" fill="#FEB352"/>
<path d="M216.38 462.896C219.099 465.095 221.652 468.905 224.871 466.27C234.971 466.82 242.662 476.122 250.318 484.542C252.066 488.258 254.484 491.551 251.704 496.622C238.579 488.944 225.253 481.996 213.232 470.307C214.27 467.543 215.208 465.143 216.38 462.896Z" fill="#E38F2D"/>
<path d="M205.415 415.167C198.357 415.359 191.94 411.117 185.863 406.657C187.388 404.133 190.035 403.674 190.744 397.96C183.582 395.433 175.81 395.153 169.02 390.223C178.96 383.543 188.435 395.108 198.173 392.27C200.684 391.28 203.194 390.29 205.705 389.3C210.153 393.566 216.399 396.37 215.999 407.147C215.734 418.456 207.549 407.302 205.415 415.167Z" fill="#FCA843"/>
<path d="M302.821 432.426C304.066 431.94 305.312 431.453 306.558 430.966C319.286 430.181 329.228 440.594 339.472 449.903C343.415 453.786 348.163 454.723 351.804 459.711C358.952 472.202 370.673 475.099 376.644 489.858C377.627 497.446 374.293 497.435 370.959 497.423C365.908 497.59 361.393 493.766 356.543 493.197C341.793 492.224 329.323 478.854 315.345 474.046C313.458 472.811 311.336 471.422 309.751 469.083C304.087 459.299 296.336 452.056 293.632 438.566C296.526 436.12 299.862 439.172 302.69 437.984C307.909 436.19 303.462 434.148 302.821 432.426Z" fill="#FDA73F"/>
<path d="M237.173 416.094C243.408 405.512 249.326 416.256 254.665 418.01C268.031 422.838 280.292 431.684 290.711 446.22C294.24 451.533 303.138 453.452 299.957 463.008C296.574 473.294 289.216 466.78 283.943 463.777C277.394 460.373 271.883 454.201 265.635 449.702C256.394 438.947 246.751 429.653 236.372 422.032C235.362 419.652 235.629 417.673 237.173 416.094Z" fill="#F29F3D"/>
<path d="M239.162 419.087C238.851 420.247 238.194 421.631 237.78 423.178C231.971 435.253 226.636 418.904 220.997 422.881C214.63 423.177 209.922 417.285 204.66 412.391C203.033 409.932 199.711 409.53 200.02 405.176C200.365 401.757 202.856 402.058 204.76 402.421C207.39 403.271 209.537 406.991 213.481 405.072C212.681 396.325 203.927 395.933 204.96 385.677C206.585 381.748 208.21 377.819 209.592 373.727C213.231 385.745 221.295 389.78 227.699 396.808C234.552 400.031 233.762 413.643 239.162 419.087Z" fill="#F5A13E"/>
<path d="M267.325 445.426C276.841 452.576 285.445 463.079 297.868 464.679C297.49 454.766 289.299 455.077 290.004 446.318C291.256 445.825 292.508 445.333 293.76 444.84C301.313 452.015 307.243 462.072 312.293 473.308C308.847 482.896 302.749 474.484 298.385 478.197C295.881 479.182 293.105 479.109 290.634 477.919C284.471 473.857 278.646 469.579 271.808 469.025C267.813 467.271 263.514 466.633 261.31 460.349C256.162 455.638 251.353 450.711 245.595 445.159C247.826 440.04 252.163 447.731 254.665 443.67C259.165 440.486 262.893 447.336 267.325 445.426Z" fill="#EE9A37"/>
<path d="M229 231.367C238.107 232.558 244.6 243.269 253.506 245.193C256.632 245.936 259.694 250.955 257.615 256.506C256.273 260.38 252.442 259.176 250.155 256.389C242.757 248.974 234.184 243.814 229 231.367Z" fill="#E69231"/>
<path d="M341.067 454.856C331.257 442.07 318.548 438.982 308.124 428.471C315.975 417.147 324.754 418.068 333.877 421.9C340.982 421.707 340.508 430.783 341.468 437.682C332.692 443.024 346.462 449.5 341.067 454.856Z" fill="#F69E36"/>
<path d="M340.178 436.044C335.4 432.868 338.26 422.271 333.481 419.095C338.626 404.214 342.146 414.141 346.005 420.723C351.096 432.141 362.933 424.832 366.626 439.337C367.209 445.528 372.057 450.535 368.137 457.749C357.455 455.56 346.841 452.077 340.178 436.044Z" fill="#FBA23B"/>
<path d="M365.645 437.062C361.572 432.671 357.198 429.381 352.153 429.547C347.444 429.5 345.928 425.914 346.696 419.059C350.799 418.278 354.906 423.557 359.041 420.632C364.323 423.65 367.795 433.274 374.687 430.42C380.034 429.152 384.274 431.922 386.533 439.888C378.873 449.596 375.408 449.064 365.645 437.062Z" fill="#F49C34"/>
<path d="M398.085 417.338C417.977 432.51 437.636 447.533 457.662 463.207C454.375 466.122 450.016 462.095 448.462 468.617C447.564 468.88 446.767 468.789 446.202 468.847C445.503 468.402 444.805 467.957 444.106 467.513C426.672 451.402 406.16 446.269 388.229 431.93C384.371 429.055 379.053 429.425 376.951 422.244C373.856 418.603 369.268 417.351 367.499 409.964C378.428 405.239 387.059 425.341 398.085 417.338Z" fill="#FEB54D"/>
<path d="M376.06 423.799C397.482 431.605 417.184 447.509 438.243 457.591C441.37 459.166 445.096 461.542 445.37 468.404C423.656 467.518 404.458 455.696 386.284 438.258C382.39 434.522 378.396 431.14 374.502 427.403C375.132 426.133 375.762 424.863 376.06 423.799Z" fill="#FEA941"/>
<path d="M396.745 408.509C396.104 409.837 395.801 410.949 395.16 412.278C381.644 408.639 369.274 401.818 358.826 387.95C361.725 379.359 368.419 385.509 371.895 379.922C382.034 385.713 391.734 392.092 396.745 408.509Z" fill="#FCA641"/>
<path d="M386.282 361.64C393.335 370 401.952 371.735 409.77 376.348C416.887 380.509 424.403 383.232 427.854 395.631C416.87 397.458 408.507 381.894 397.557 384.591C389.142 385.106 389.125 367.287 381.011 366.723C378.637 364.346 376.164 362.329 374.025 360.103C360.391 349.623 349.39 333.632 335.79 324.022C333.451 322.515 332.245 317.922 330.405 314.617C333.737 306.587 336.749 313.616 339.222 315.633C347.576 322.287 354.898 331.668 363.851 336.165C372.006 343.538 381.527 347.977 386.282 361.64Z" fill="#F9A23B"/>
<path d="M379.376 367.527C388.627 363.175 389.414 380.59 396.18 383.281C405.402 384.11 412.71 391.921 420.758 398.05C423.083 401.737 423.591 405.969 422.383 410.379C419.93 415.276 417.335 410.546 414.71 410.996C413.767 410.38 412.925 409.396 412.319 408.566C399.256 400.459 385.655 393.3 376.655 374.415C375.475 370.61 387.023 378.16 379.376 367.527Z" fill="#FDA73F"/>
<path d="M376.276 376.583C388.141 387.698 400.007 398.812 411.772 410.29C406.417 413.662 402.289 404.57 397.1 406.339C388.318 398.079 378.901 391.118 372.559 378.024C373.464 377.754 374.702 377.274 376.276 376.583Z" fill="#EF9933"/>
<path d="M365.692 335.561C358.856 338.352 355.077 329.159 349.936 325.854C343.86 321.948 339.814 311.737 332.043 313.927C329.672 311.557 327.201 309.546 325.064 307.327C326.862 303.833 329.295 302.015 332.233 304.327C343.353 314.858 354.572 325.03 365.692 335.561Z" fill="#F9AA4F"/>
<path d="M386.76 360.89C378.795 353.548 370.596 346.052 364.543 334.783C376.733 335.829 384.2 351.035 394.447 358.142C391.963 359.109 389.244 359.923 386.76 360.89Z" fill="#F9AA4F"/>
<path d="M318.784 592.424C321.152 587.827 323.622 582.857 325.99 578.26C322.158 571.772 311.964 574.286 315.409 558.521C333.326 555.382 347.291 569.874 361.56 583.248C366.712 587.966 371.458 594.177 375.866 600.605C376.849 602.133 377.731 604.035 378.274 606.153C379.091 612.412 376.348 613.242 373.57 613.169C369.742 612.844 366.827 609.16 363.506 606.97C355.406 600.746 355.305 601.119 352.975 612.781C343.827 609.386 334.983 604.871 327.255 596.253C324.205 595.121 321.123 596.168 318.784 592.424Z" fill="#FEA73F"/>
<path d="M306.133 525.739C300.546 523.819 295.494 517.917 289 519.304C284.015 512.146 276.377 513.652 270.854 507.442C271.858 500.733 275.661 501.052 278.588 499.499C280.169 498.8 281.548 498.835 282.827 499.238C287.607 501.063 291.682 505.46 296.16 508.387C301.008 511.99 308.915 511.526 306.133 525.739Z" fill="#EC9835"/>
<path d="M279.329 506.11C276.836 507.085 274.242 508.43 271.513 509.251C265.172 502.922 256.781 503.077 251.046 494.536C251.346 490.384 249.761 488.04 247.737 486.279C253.358 476.917 257.712 485.422 262.769 488.301C268.065 494.38 276.894 493.642 279.329 506.11Z" fill="#E69330"/>
<path d="M306.015 520.975C305.122 509.674 299.221 510.661 294.273 509.158C296.789 492.539 306.245 505.514 311.257 499.475C313.199 495.412 309.955 489.688 312.853 486.26C316.365 483.686 319.71 485.908 322.815 487.972C336.705 498.093 354.067 495.353 365.097 516.065C367.899 525.511 364.044 525.181 359.848 525.069C357.869 525.093 353.841 520.186 355.347 529.217C355.655 531.206 355.486 532.878 354.497 534.451C345.084 538.011 337.197 526.526 328.328 525.986C333.003 529.538 339.245 528.332 342.15 537.4C342.766 541.378 341.197 543.013 339.253 543.952C336.354 544.256 333.965 542.669 331.883 539.947C323.794 532.342 315.568 524.199 306.015 520.975Z" fill="#F9A13A"/>
<path d="M376.464 603.741C358.607 582.361 339.114 565.898 316.85 557.462C315.912 556.855 315.309 556.037 314.471 555.068C314.303 553.678 314.503 552.954 315.038 552.019C315.472 551.447 315.807 551.236 316.041 551.388C318.051 553.116 319.926 554.33 322.233 551.981C325.707 544.411 329.695 549.981 332.742 551.954C344.932 559.845 357.753 563.45 369.743 572.066C374.531 574.739 378.785 578.346 382.738 583.04C385.988 587.279 388.57 591.939 385.999 599.24C383.428 606.542 379.778 603.752 376.464 603.741Z" fill="#F9A138"/>
<path d="M368.79 574.345C352.71 569.482 337.999 558.663 322.721 550.898C320.568 539.665 327.673 545.982 329.578 542.084C331.787 540.094 333.764 540.948 335.674 543.042C345.563 553.301 358.857 551.225 367.844 564.749C369.219 567.78 369.791 570.717 368.79 574.345Z" fill="#FEA63F"/>
<path d="M316.713 554.382C316.058 555.761 315.748 556.917 315.093 558.295C309.163 566.592 304.052 555.903 298.739 555.528C295.082 555.352 297.01 547.102 300.459 544.868C307.702 540.175 313.12 543.346 316.713 554.382Z" fill="#F49D36"/>
<path d="M262.604 493.03C258.047 490.503 254.992 482.532 249.167 485.601C241.223 478.311 233.513 471.173 225.669 463.519C219.266 457.657 213.098 451.946 206.796 445.72C225.221 449.109 241.046 467.927 260.404 465.931C264.424 466.398 268.109 467.075 271.361 471.324C274.308 470.667 276.488 473.792 278.633 476.039C282.221 480.076 283.968 486.772 282.366 492.579C280.296 501.078 275.905 496.947 271.951 495.24C268.936 494.14 265.986 491.8 262.604 493.03Z" fill="#FDAD4B"/>
<path d="M268.117 448.468C263.606 453.769 259.596 451.143 255.517 446.734C249.786 441.244 244.257 435.017 237.081 433.793C228.961 431.952 238.737 440.96 235.065 441.162C232.067 440.936 229.035 439.819 225.901 439.071C229.06 428.541 221.346 428.268 219.287 422.576C224.704 413.959 230.137 426.64 235.625 422.848C248.46 424.737 257.095 439.948 268.117 448.468Z" fill="#FDAD4B"/>
<path d="M354.048 484.315C361.565 481.357 367.567 493.231 375.15 488.998C375.827 488.565 376.403 488.505 376.842 487.915C387.75 492.031 398.858 492.321 409.966 492.612C415.285 495.68 421.413 492.685 426.057 499.266C428.331 507.363 435.41 508.074 436.905 516.976C433.627 528.007 427.492 518.683 422.888 522.243C425.767 521.943 428.341 522.761 429.664 527.152C430.177 534.527 424.453 532.95 423.474 537.581C422.764 540.192 421.681 542.116 419.989 543.199C418.837 543.319 417.55 542.91 416.365 542.128C408.909 534.572 406.763 514.686 394.337 519.244C384.65 516.812 376.686 508.041 367.268 503.589C362.355 499.029 356.087 495.335 354.048 484.315Z" fill="#FCA43C"/>
<path d="M354.244 490.232C359.7 495.463 365.156 500.693 370.947 505.714C369.949 512.311 377.476 515.047 374.239 522.752C370.328 524.91 367.718 522.37 366.475 516.881C353.918 499.393 336.595 500.123 322.038 489.861C321.501 487.81 325.712 484.568 321.096 483.288C318.085 482.194 315.674 478.932 315.334 473.174C323.996 472.809 331.091 479.1 338.487 484.306C343.64 487.637 348.759 490.094 354.244 490.232Z" fill="#E99128"/>
<path d="M339.373 437.315C349.122 443.241 357.966 452.46 368.484 454.572C371.741 452.812 374.565 454.653 377.087 457.593C379.509 460.898 381.259 464.629 379.516 469.966C367.963 476.675 359.757 466.144 350.847 458.176C347.217 456.24 343.486 454.671 339.856 452.735C339.854 449.713 339.079 447.481 337.398 445.522C329.529 437.801 338.199 439.571 339.373 437.315Z" fill="#ED942D"/>
<path d="M349.861 458.024C359.369 462.093 368.742 465.634 378.25 469.703C379.502 469.211 381.091 468.504 382.377 468.912C386.91 469.704 393.305 470.845 393.276 479.161C392.979 489.494 386.481 485.653 382.219 485.917C380.257 485.941 378.702 487.549 377.147 489.157C368.175 477.983 355.927 474.742 349.861 458.024Z" fill="#FCA43C"/>
<path d="M315.626 475.426C320.437 480.355 325.146 485.656 331.747 486.054C329.654 494.78 324.673 488.421 322.272 492.111C319.427 490.235 317.089 486.497 313.604 489.032C305.243 490.991 299.823 485.22 296.938 473.211C301.128 461.913 306.52 476.013 310.952 471.025C312.51 472.492 314.068 473.959 315.626 475.426Z" fill="#DD851D"/>
<path d="M261.415 490.923C267.538 477.677 272.81 498.56 279.143 490.934C280.835 479.284 274.739 474.285 270.477 467.776C278.577 463.161 284.536 470.807 290.667 476.743C283.986 481.396 291.155 483.461 291.398 486.821C292.336 492.928 295.731 498.4 293.033 505.266C288.395 507.636 286.036 498.294 281.501 500.277C280.948 501.275 280.533 502.823 279.979 503.822C274.852 496.276 266.992 497.857 261.415 490.923Z" fill="#FDAA48"/>
<path d="M289.594 484.335C287.899 482.338 286.204 480.34 284.747 478.499C286.541 477.043 288.471 476.117 290.265 474.661C292.23 474.637 294.33 475.143 296.532 475.275C302.056 480.679 307.681 485.71 313.205 491.113C316.459 494.579 320.627 497.768 317.584 505.878C306.947 502.82 295.262 502.59 289.594 484.335Z" fill="#FDAD4B"/>
<path d="M375.516 456.404C373.132 453.994 370.648 451.948 368.264 449.537C364.94 446.515 361.146 443.187 364.058 435.623C370.738 439.538 377.852 439.866 384.965 440.193C404.836 450.539 424.707 460.885 444.578 471.231C444.245 474.454 442.904 475.302 440.823 474.808C441.462 476.513 442.468 475.878 443.408 476.489C446.463 478.476 448.847 480.887 448.952 486.545C447.679 489.157 446.069 488.969 444.123 488.993C443.217 489.264 444.997 490.851 445.366 491.521C448.96 495.579 455.069 499.553 452.492 506.905C449.714 514.987 443.704 510.648 439.005 507.591C435.95 505.604 433.03 504.134 430.511 501.206C429.262 492.655 425.167 490.421 420.47 490.375C414.732 490.082 410.199 485.414 405.365 481.839C400.562 476.136 395.258 472.255 391.459 462.905C388.903 456.083 381.722 453.992 375.516 456.404Z" fill="#FBA33B"/>
<path d="M288.821 485.868C296.767 496.861 308.373 497.467 316.624 507.337C312.42 512.506 307.6 510.645 303.256 509.098C299.862 508.179 297.045 507.2 295.046 512.502C290.123 507.923 285.201 503.345 280.515 498.923C281.77 498.428 283.466 497.341 284.417 497.97C291.478 503.962 290.865 500.024 287.772 491.798C287.5 490.735 288.551 487.897 288.821 485.868Z" fill="#FBA744"/>
<path d="M364.474 516.467C367.188 518.651 369.735 522.437 373.047 519.456C381.345 515.432 387.612 523.763 394.611 527.442C399.912 540.272 408.218 545.224 417.625 546.191C423.85 544.669 428.373 549.307 432.496 555.395C434.071 557.697 435.447 560.723 436.587 563.598C438.465 567.805 439.709 573.309 437.704 577.564C435.165 582.754 431.013 581.774 427.53 580.373C423.579 578.668 419.927 575.876 415.776 574.896C408.342 571.79 401.008 568.321 394.34 561.44C381.974 546.169 365.702 542.038 353.771 526.195C352.23 524.769 350.689 523.344 349.248 521.556C346.869 519.161 345.025 515.831 347.364 511.366C349.169 507.836 351.279 509.202 353.389 510.569C357.04 513.361 359.79 519.414 364.474 516.467Z" fill="#FCA63E"/>
<path d="M353.15 529.94C369.617 533.772 382.927 548.121 396.639 560.998C392.674 571.42 389.064 561.248 385.866 561.759C388.833 567.171 396.946 565.971 396.854 578.493C385.646 582.874 377.221 573.023 368.529 565.167C362.16 557.963 354.281 556.278 347.241 552.54C342.66 549.976 337.441 548.73 336.154 539.211C337.4 538.725 338.645 538.238 339.89 537.751C346.481 526.878 351.071 541.596 356.861 539.744C358.344 542.45 359.283 536.99 358.106 539.257C358.006 539.625 357.635 538.948 356.927 538.486C354.67 536.575 353.523 533.655 353.15 529.94Z" fill="#F9A23B"/>
<path d="M354.026 531.297C357.14 535.015 361.522 536.145 363.502 542.966C354.618 558.105 348.743 533.421 341.088 539.127C334.16 534.22 327.465 529.466 317.826 522.38C332.509 521.219 342.886 529.634 354.026 531.297Z" fill="#EB932B"/>
<path d="M366.236 560.548C376.073 560.94 384.38 571.861 394.318 571.892C406.124 567.161 415.401 576.575 425.177 584.18C440.349 601.249 458.089 608.034 475.928 614.457C484.43 618.679 492.932 622.9 501.6 625.522C509.537 632.79 516.819 620.439 524.685 622.969C531.912 623.806 537.571 628.321 542.129 636.815C545.518 647.539 534.172 643.611 535.317 652.456C530.235 656.847 526.918 650.861 522.231 647.828C528.392 653.521 534.72 657.615 540.512 662.643C544.665 666.609 549.718 667.319 553.77 671.647C557.019 675.883 559.734 681.052 556.695 688.044C554.157 693.226 550.242 692.399 546.561 691.724C542.411 690.745 538.361 689.405 534.446 688.578C529.259 687.354 524.272 685.407 519.551 681.5C505.987 667.605 489.989 661.52 475.225 651.967C457.952 642.497 441.345 629.62 422.571 625.577C417.384 624.354 412.597 621.683 410.883 612.896C406.962 606.094 399.068 608.664 396.582 597.672C400.595 595.149 403.815 604.484 408.86 596.231C400.321 588.147 391.216 583.109 381.745 580.393C376.889 575.972 372.368 571.341 367.513 566.919C366.841 564.352 366.539 562.45 366.236 560.548Z" fill="#FDA73F"/>
<path d="M374.36 458.49C382.245 442.899 393.728 457.384 394.246 461.813C395.355 475.709 403.694 472.215 406.661 479.19C406.319 485.765 410.766 488.286 410.872 494.254C399.018 498.118 387.473 497.653 376.509 487.597C378.3 485.166 371.645 477.086 379.193 477.599C383.087 477.936 386.95 483.695 391.565 478.164C388.529 469.329 380.949 474.237 377.638 467.486C378.049 462.772 376.084 460.55 374.36 458.49Z" fill="#FBA23B"/>
<path d="M396.893 518.405C401.395 522.2 399.215 525.088 396.464 528.036C388.84 526.517 381.685 522.287 374.63 517.691C373.518 512.658 362.036 515.089 370.522 503.382C379.858 504.724 386.886 517.488 396.893 518.405Z" fill="#E28921"/>
</g>
</svg>
