<svg width="234" height="1737" viewBox="0 0 234 1737" fill="none" xmlns="http://www.w3.org/2000/svg">
<g opacity="0.6">
<path d="M163.32 508.796C164.081 500.913 165.19 493.218 167.882 485.586C167.65 455.053 166.015 452.987 150.526 457.67C148.457 460.108 146.817 463.173 145.765 467.74C144.461 481.254 138.059 494.389 139.035 508.342C143.916 510.973 142.167 515.164 138.457 520.667C132.752 534.178 132.632 545.566 138.175 555.267C139.512 559.147 141.118 562.777 142.724 566.407C143.821 568.973 145.456 571.039 147.467 571.729C155.338 564.914 149.743 553.21 153.59 545.016C156.986 532.63 161.507 521.246 163.32 508.796Z" fill="#F8AE55"/>
<path d="M-38.451 926.657C-37.983 927.626 -37.5151 928.596 -37.1208 929.167C-26.4305 924.43 -16.572 912.048 -5.73441 908.11C-4.52544 908.395 -3.06944 908.452 -1.86046 908.737C-0.478144 908.394 0.830518 907.653 2.23887 905.884C8.98602 895.443 13.3888 884.831 4.88285 876.333C-4.95784 870.002 -15.5313 881.642 -25.9746 886.151C-31.3566 888.319 -34.5244 897.79 -34.7066 907.773C-34.3167 913.022 -36.0978 917.472 -37.9526 921.522C-38.2993 922.777 -38.5723 924.432 -38.451 926.657Z" fill="#F89C2E"/>
<path d="M74.2834 750.593C83.4662 731.552 94.7483 717.585 106.77 705.999C112.184 700.737 117.766 694.893 120.842 684.769C120.818 681.751 119.745 680.537 117.861 680.915C92.9827 707.003 67.1504 729.6 45.9702 767.587C53.675 774.177 60.9501 769.862 74.2834 750.593Z" fill="#FB9F30"/>
<path d="M67.6168 208.749C62.713 208.266 57.5654 212.489 52.829 215.89C42.2199 224.171 31.0077 230.758 22.7617 248.553C20.2458 256.216 19.5663 263.11 23.5262 267.588C39.0391 259.789 53.6121 247.014 65.3634 223.797C67.2741 218.924 70.0543 214.16 67.6168 208.749Z" fill="#EC9835"/>
<path d="M143.661 461.757C158.38 451.367 159.394 470.914 163.059 485.396C174.388 465.523 162.196 452.583 164.886 435.405C155.385 435.218 158.437 418.233 155.408 408.941C153.157 402.085 150.227 407.406 147.522 410.419C142.993 428.238 137.183 446.187 143.661 461.757Z" fill="#FACE99"/>
<path d="M133.224 340.394C134.417 322.978 128.009 315.198 120.875 313.699C116.003 312.637 113.055 306.726 108.342 306.535C103.214 319.469 102.373 331.971 106.461 342.425C113.782 343.24 117.95 354.129 125.005 355.192C128.896 352.583 132.202 348.48 133.224 340.394Z" fill="#FCE0BE"/>
<path d="M116.139 679.703C116.36 680.9 116.827 681.869 117.048 683.065C119.69 680.158 122.011 677.081 124.653 674.174C128.113 666.309 127.186 655.026 133.604 649.098C135.237 643.854 134.821 640.036 133.271 636.333C132.409 634.794 131.128 634.111 129.919 633.826C124.393 635.195 119.405 642.604 114 646.196C105.534 653.549 102.311 670.532 94.9278 680.62C93.7672 682.159 95.1443 686.489 96.6469 688.369C101.748 692.528 106.243 685.575 111.254 681.414C112.856 682.268 114.515 675.601 116.139 679.703Z" fill="#F79E32"/>
<path d="M77.1057 748.151C67.534 755.092 58.0098 763.822 48.1718 767.8C44.2236 760.426 38.7305 763.17 32.9932 766.139C28.5245 769.776 25.5431 775.258 24.8292 783.699C28.9453 795.043 38.4696 786.313 43.7117 792.96C47.2986 793.795 50.7175 790.661 53.6005 786.186C59.1003 774.274 67.4985 770.241 73.0712 758.72C75.3674 755.699 77.1023 752.735 77.1057 748.151Z" fill="#FBD09D"/>
<path d="M42.8892 845.092C46.2602 844.752 49.6312 844.413 53.0022 844.074C60.9478 834.492 70.0645 826.589 72.8874 807.94C72.2306 804.413 70.545 804.583 68.7611 805.76C65.2662 808.507 62.917 814.333 59.568 817.863C56.8793 820.33 54.2162 821.396 51.2356 822.295C49.0612 822.912 46.8138 823.139 44.4935 822.973C42.7351 822.75 40.8781 823.536 39.1671 825.105C36.0626 828.412 34.0563 833.005 33.4655 839.053C33.3416 841.461 33.6335 843.028 34.4873 844.539C36.9281 846.889 40.1056 843.974 42.8892 845.092Z" fill="#F9B769"/>
<path d="M165.528 511.918C160.017 522.223 155.303 533.354 153.172 546.266C153.359 580.486 153.359 580.486 160.476 585.892C160.757 580.422 160.241 574.125 161.675 569.673C168.819 549 168.342 530.682 165.528 511.918Z" fill="#FCE1C0"/>
<path d="M25.0224 164.207C27.3649 159.719 28.2552 155.175 27.9396 150.347C22.554 144.612 17.2076 150.01 11.9087 157.225C6.62729 172.336 -2.5356 178.927 -9.5373 190.971C-13.2845 197.22 -19.5905 202.107 -17.5329 213.239C-16.6728 214.772 -15.6397 215.681 -14.1875 215.737C-9.1392 213.406 -4.22042 218.176 1.15193 211.358C1.91691 209.256 2.28848 206.587 2.48725 204.542C2.10238 194.659 5.92316 188.807 10.5305 184.092C15.8035 178.296 20.83 172.728 25.0224 164.207Z" fill="#FCB056"/>
<path d="M40.4455 211.986C43.6322 199.874 50.2106 195.215 55.7156 187.865C61.7098 180.067 59.8551 176.256 55.8247 173.064C45.3109 178.119 37.3564 192.31 29.0369 204.54C26.0983 211.831 21.181 217.722 24.058 227.026C30.3152 226.796 36.0614 223.82 40.4455 211.986Z" fill="#FBB665"/>
<path d="M108.772 336.775C107.596 325.198 109.119 313.128 109.425 301.18C105.457 299.815 101.968 295.973 97.1982 300.426C95.3811 314.291 86.6017 329.079 92.7784 342.58C94.8132 345.244 97.5924 345.184 100.186 345.806C102.965 345.746 105.665 345.254 107.921 340.613C108.293 339.251 108.4 338.137 108.772 336.775Z" fill="#F7AD52"/>
<path d="M10.5709 156.136C15.3925 153.573 20.2858 151.38 25.1075 148.817C27.2796 145.573 29.6904 142.116 29.3084 137.237C28.9026 133.684 26.7066 133.904 25.0358 135.395C16.037 143.862 5.82071 146.021 -1.6504 160.955C-2.19935 169.71 -8.88285 171.325 -9.57502 179.338C-0.934205 177.716 5.4151 168.568 10.5709 156.136Z" fill="#FDD19D"/>
<path d="M96.5073 338.266C94.1661 332.031 93.6065 325.617 97.3082 317.694C100.752 310.013 101.303 303.055 98.7029 297.061C97.0753 298.088 95.5523 298.026 94.7555 295.302C93.491 294.998 92.3802 295.542 91.2417 297.598C89.9216 300.319 88.6015 303.041 87.2815 305.762C81.8752 314.288 72.7863 315.852 71.964 332.975C75.5206 337.578 81.9051 331.11 84.477 338.616C88.8367 340.981 91.5346 350.847 97.8423 343.956C98.1285 342.201 98.1563 340.689 97.6671 339.659C97.1011 338.207 96.7657 338.025 96.5073 338.266Z" fill="#F49A2D"/>
<path d="M12.3269 204.463C18.1872 197.2 24.0474 189.938 29.6615 182.903C28.0677 177.401 26.5474 172.297 24.9536 166.796C16.6617 170.259 10.0112 181.039 2.6005 189.266C-1.92968 194.372 -2.55131 201.916 -0.417611 208.778C7.40364 209.002 10.1497 191.135 16.8912 188.636C14.1576 192.551 9.57985 195.843 12.3269 204.463Z" fill="#FCC27D"/>
<path d="M145.367 407.939C147.505 405.947 149.483 403.082 151.91 404.393C150.166 389.685 154.972 366.321 140.425 367.12C135.275 366.306 131.505 371.351 129.145 380.696C128.319 401.882 143.009 393.294 145.367 407.939Z" fill="#F9BA6E"/>
<path d="M68.2797 211.36C68.2734 216.289 66.4483 219.472 64.29 222.475C62.9871 238.461 52.3331 245.962 50.2874 261.166C55.0649 275.896 61.3659 262.62 67.2723 257.097C69.2502 254.755 70.5618 252.052 71.0541 248.146C68.6791 240.029 71.281 231.197 72.7792 222.905C74.7146 213.711 73.4369 209.984 68.2797 211.36Z" fill="#F8A441"/>
<path d="M-23.1114 152.345C-28.2519 153.855 -33.0759 155.531 -34.9591 166.837C-33.2371 177.582 -29.6349 181.587 -22.858 173.561C-25.115 161.48 -22.7221 152.902 -14.3182 152.057C-10.3964 151.662 -7.15506 149.153 -3.88849 145.251C-2.3755 141.128 -3.03079 137.621 -3.68604 134.114L-3.44235 133.891C-10.4851 138.966 -17.2113 144.208 -23.1114 152.345Z" fill="#FDE3C5"/>
<path d="M35.1881 893.166C31.4855 888.52 25.2753 904.774 22.0797 893.902C13.5178 891.867 7.2368 903.304 0.83618 912.631C0.0179235 914.256 -0.800347 915.882 -1.37802 917.291C12.0893 922.887 23.4946 907.269 35.1881 893.166Z" fill="#FCE6CC"/>
<path d="M42.2768 214.237C37.0134 218.951 30.8652 220.519 26.1757 228.22C20.793 230.853 18.0175 236.841 17.2989 246.237C18.423 249.169 20.1453 249.377 22.2985 247.449C32.1556 235.994 41.9409 224.166 51.798 212.711C49.0232 209.945 45.195 217.75 42.2768 214.237Z" fill="#FCD4A6"/>
<path d="M129.636 643.716C130.228 646.938 130.746 649.758 129.378 653.382C125.68 655.395 121.68 660.515 124.354 665.579C127.969 672.598 132.269 664.371 135.824 656.835C144.795 642.395 153.443 627.782 157.234 607.3C157.039 604.654 156.072 604.136 154.608 604.078C152.474 605.113 150.883 607.53 149.367 610.349C144.788 624.962 138.079 635.893 129.636 643.716Z" fill="#FBD4A6"/>
<path d="M130.554 379.627C131.225 370.253 136.174 368.062 139.503 363.496C136.159 359.814 141.909 345.697 134.907 346.403C131.503 350.554 128.099 354.704 124.62 358.439C122.555 366.685 116.406 375.342 119.997 383.652C122.552 389.529 126.993 387.812 130.554 379.627Z" fill="#F8BB71"/>
<path d="M151.179 605.525C151.626 606.167 151.877 607.516 152.324 608.159C158.289 603.207 162.101 595.495 163.677 584.572C155.569 576.226 161.827 555.213 156.238 544.552C147.527 554.13 157.091 563.247 152.969 572.822C150.749 583.81 148.613 595.247 151.179 605.525Z" fill="#FAC485"/>
<path d="M138.176 656.371C136.312 657.624 134.6 659.713 132.915 660.309C131.307 661.323 129.284 666.639 128.345 663.113C126.922 658.571 129.987 655.706 131.471 652.361C117.717 653.961 125.225 668.965 123.962 678.464C131.592 677.695 135.533 668.139 138.176 656.371Z" fill="#FACB92"/>
<path d="M88.5338 293.837C89.5977 292.845 90.3958 292.1 91.4598 291.107C92.6314 288.997 96.0102 285.336 93.5148 283.596C87.4885 279.554 82.979 273.589 82.5956 261.232C80.5246 260.112 78.5834 261.415 76.8006 263.586C75.5498 265.262 74.6441 267.124 73.8176 269.421C73.3363 271.904 73.3871 273.891 73.5169 276.313C74.4955 279.978 76.459 282.215 78.53 283.334C79.9899 284.515 81.3705 285.262 82.3776 287.374C83.3846 289.486 84.3125 291.163 85.5855 293.027C86.3551 293.835 87.3906 294.395 88.5338 293.837Z" fill="#FCCD96"/>
<path d="M67.4816 809.964C68.6111 809.85 69.7407 809.736 70.6978 810.245C75.5132 806.737 79.6688 799.667 84.6784 798.76C85.1957 796.894 85.4671 795.254 85.1005 793.275C84.5615 791.918 83.6044 791.41 82.7206 791.297C78.5948 792.317 74.3917 797.578 70.1708 794.979L70.0717 795.997C66.8297 797.13 65.8686 801.257 65.3732 806.346C65.2483 808.778 66.033 809.908 67.4816 809.964Z" fill="#F8B360"/>
<path d="M73.7671 267.822C74.4527 266.697 75.4675 265.75 76.1531 264.624C75.9053 260.002 82.5225 257.222 79.0583 251.233C76.6996 252.95 74.2382 255.733 72.0364 253.42C70.5898 255.256 68.8894 257.329 67.4428 259.164C66.7784 263.668 68.1436 266.277 69.0014 269.359C69.5571 270.782 70.291 271.553 71.5323 271.85C72.5471 270.903 73.2326 269.778 73.7671 267.822Z" fill="#FDA842"/>
<path d="M69.5155 794.674C73.3201 801.275 77.5729 796.457 81.997 791.024C78.6267 791.363 75.2565 791.702 71.8863 792.041L70.7373 793.553L69.5155 794.674Z" fill="#F9BD75"/>
<path d="M78.5412 251.847C77.5482 256.17 76.6307 260.907 75.6377 265.229C77.3371 263.158 79.29 260.85 80.9893 258.778C82.1604 253.805 83.0779 249.068 78.5412 251.847Z" fill="#F8B15C"/>
<path d="M81.9128 793.813C82.474 795.253 82.7027 796.512 83.2639 797.952C84.2614 798.492 85.5151 798.793 86.8725 798.015C88.2574 795.738 88.7212 793.34 87.8275 791.721C86.2201 787.822 83.9626 791.897 81.9128 793.813Z" fill="#F9BD75"/>
<path d="M87.2447 798.783C86.0052 798.487 84.8409 798.604 83.6768 798.721C83.903 799.964 84.3826 800.97 84.6089 802.212C85.2934 801.089 86.2314 799.729 87.2447 798.783Z" fill="#F9C07C"/>
<path d="M133.368 381.084C123.396 382.315 123.396 382.315 128.35 368.278C130.771 361.838 127.373 361.262 126.701 357.658C126.013 339.827 119.863 338.609 110.785 346.406L111.121 348.208C104.845 363.984 107.363 377.5 110.274 389.6C112.347 397.194 118.073 401.438 113.597 414.509C112.724 416.892 112.636 421.72 114.21 421.332C131.371 419.837 118.736 450.94 124.429 462.071C123.779 467.415 123.494 472.951 125.738 476.168C127.198 476.939 128.574 477.26 130.147 476.872C135.148 475.452 139.364 471.586 141.927 462.379C142.434 459.803 142.661 457.486 143.168 454.91C145.035 438.43 146.536 421.756 148.403 405.275C148.944 395.812 152.69 382.355 142.182 387.771C137.995 390.028 135.104 386.876 133.368 381.084Z" fill="#F49C32"/>
<path d="M149.007 466.115C145.633 471.046 141.747 473.234 137.96 474.414C129.131 488.479 118.426 495.545 108.988 507.874C104.074 513.759 98.4038 517.124 93.3434 522.225C89.4068 527.213 85.3972 531.809 85.0728 540.826C90.2688 550.286 96.9928 541.823 102.615 536.665C108.066 532.124 113.736 528.759 116.034 525.733C112.123 529.32 104.987 534.031 98.434 541.878C94.8878 547.425 90.0718 552.302 91.8235 561.709C103.645 563.714 113.817 550.712 124.134 538.494C129.519 524.376 138.808 515.855 142.704 499.891C142.029 488.579 150.464 478.546 149.007 466.115Z" fill="#F79622"/>
<path d="M145.758 505.138C138.885 516.07 130.53 523.884 126.805 540.38C126.121 545.024 124.421 549.117 122.643 552.782C119.686 560.051 115.53 567.441 116.639 576.915C120.17 589.631 127.291 588.477 135.068 584.208C139.675 570.89 140.778 585.375 143.961 584.401C153.227 578.238 148.913 566.255 150.359 557.395C148.982 553.177 147.944 549.142 146.567 544.924C143.151 544.615 136.835 548.519 136.758 548.091C136.798 536.541 140.827 526.767 145.534 517.361C150.784 510.949 148.44 508.136 145.758 505.138Z" fill="#F59A2C"/>
<path d="M152.193 562.571C147.715 570.298 151.137 582.301 144.942 589.099C140.514 598.805 137.646 608.575 141.998 617.177C144.273 616.066 146.312 613.655 147.349 609.141C149.123 606.978 150.897 604.815 152.672 602.652C154.43 591.891 158.543 580.452 154.641 570.923C153.825 568.139 153.009 565.355 152.193 562.571Z" fill="#F6A23D"/>
<path d="M144.044 517.298C131.731 525.849 132.917 544.005 130.552 562.52C135.503 554.925 139.681 548.054 144.883 545.164C136.114 540.028 142.332 527.791 144.044 517.298Z" fill="#F7A039"/>
<path d="M-29.7999 902.856C-36.1829 894.402 -28.7857 885.312 -25.7498 885.194C-16.3336 884.994 -7.15862 872.201 1.87931 875.75C6.45721 876.406 10.1798 872.693 13.3322 866.069C13.4487 859.563 18.7379 859.591 19.3053 853.967C19.1381 850.273 18.1649 848.144 15.8403 847.634C-11.3131 860.927 -37.2302 883.374 -63.7174 902.909C-66.5629 905.42 -69.337 908.295 -71.6601 912.053C-74.718 917.74 -76.3765 923.472 -73.1253 928.714C-58.4692 922.609 -43.8597 919.106 -29.7999 902.856Z" fill="#FA9A27"/>
<path d="M14.7065 869.831C10.4638 875.172 6.39528 879.881 2.15258 885.222C9.975 893.033 0.798034 901.532 -0.895221 909.687C6.29757 903.025 13.8122 896.536 21.005 889.875L20.3611 889.53C23.5211 876.723 21.9423 869.717 14.7065 869.831Z" fill="#F69F36"/>
<path d="M33.5297 761.054C37.8535 760.623 42.0133 760.747 46.3371 760.316C70.4939 732.404 94.7214 704.844 119.113 676.729C120.216 675.362 122.117 672.478 121.129 671.679C119.154 670.08 117.301 674.575 115.423 676.199C103.939 684.887 92.6673 694.632 81.6083 705.433C64.4663 720.253 47.3951 735.426 29.5671 745.465C12.6298 753.08 -2.79384 770.962 -19.5894 779.282C-21.0692 780.148 -22.3141 780.811 -23.723 782.029C-29.3811 788.161 -35.8629 792.938 -38.7663 804.542C-38.2143 816.88 -32.2506 810.897 -27.9045 809.206C-18.4369 805.568 -8.80916 797.245 0.546749 799.904C4.28158 797.915 5.89916 793.623 6.92777 787.773C7.08025 774.827 14.1065 774.126 18.4041 770.824C23.1005 766.764 28.0541 761.241 33.5297 761.054Z" fill="#FC9D27"/>
<path d="M25.6626 247.373C24.4454 247.085 23.0535 247.431 21.8362 247.142C11.9976 245.871 4.18677 254.06 -1.34784 271.479C3.10933 286.247 -8.33206 296.858 -9.1409 309.894C6.84165 304.994 21.8656 290.115 37.3821 279.505C40.2185 275.929 41.1179 271.314 40.1544 266.065C37.1319 257.528 30.7869 265.775 26.6904 262.486C26.4467 257.987 26.0546 252.68 25.6626 247.373Z" fill="#EE9A35"/>
<path d="M25.0671 269.772C23.4371 276.242 24.4308 278.506 28.2913 276.345C30.8649 274.904 33.511 273.85 36.0847 272.409C42.3708 272.565 48.4392 271.561 52.185 258.179C57.4827 247.006 66.7108 238.59 64.949 221.624C54.6913 247.286 37.505 251.181 25.0671 269.772Z" fill="#FCA53D"/>
<path d="M98.8375 677.697C98.6942 676.954 98.5509 676.21 98.4793 675.839C106.67 668.958 108.223 652.327 115.196 643.485C115.315 641.201 114.718 639.556 113.644 638.339C100.629 643.43 95.6379 650.937 91.6735 671.029C91.5063 671.614 91.5779 671.986 90.3123 672.681C79.0168 677.979 67.6734 690.289 56.1154 688.417C46.8259 691.052 37.7991 696.502 28.8916 704.022C24.5692 709.19 17.811 714.791 19.2198 723.55C20.6764 734.009 27.936 731.009 33.6912 728.917C36.8434 727.844 39.733 723.956 42.8852 722.883C48.1867 719.89 53.4882 716.897 58.8613 714.275C70.2761 711.048 80.9986 698.422 92.0791 692.009C95.9717 688.967 99.1717 685.238 98.8375 677.697Z" fill="#F89620"/>
<path d="M108.874 643.791C109.417 645.164 109.638 646.365 110.181 647.738C116.878 649.511 121.067 637.669 126.831 632.807C134.396 631.433 140.829 625.483 144.501 610.839C145.548 602.373 146.594 593.907 147.393 585.67C145.692 581.151 145.059 571.427 139.88 584.183C130.938 603.233 115.313 606.437 108.146 630.406C107.078 635.611 106.579 640.759 108.874 643.791Z" fill="#F69621"/>
<path d="M99.5965 684.478C90.0245 701.547 77.2123 701.015 66.3636 711.694C64.2455 713.535 61.9855 714.666 60.0317 715.947C57.5589 716.013 55.2764 718.413 55.515 722.373C55.6826 725.977 58.1328 727.181 60.3928 726.05C66.9375 722.863 73.1276 717.899 79.3886 713.291C91.9105 704.075 103.182 691.362 114.546 677.735C109.033 675.026 104.449 685.261 99.5965 684.478Z" fill="#EB8913"/>
<path d="M145.136 616.902C139.257 623.657 133.45 630.802 127.644 637.947C128.179 639.285 128.714 640.622 129.322 642.351C142.532 645.794 145.301 625.435 150.284 610.817C148.649 612.771 147.015 614.725 145.136 616.902Z" fill="#F8A849"/>
<path d="M66.7619 799.855C68.1146 796.296 69.4672 792.737 70.501 789.008C66.1618 784.21 61.1808 783.704 55.683 785.063C53.1025 789.753 50.3022 793.256 46.7948 791.394C42.206 791.453 37.3974 790.326 32.9988 797.615C29.5568 805.411 23.1975 809.877 23.3105 821.343C26.7586 835.292 34.1338 819.247 38.9166 821.786C40.1188 822.067 41.3942 822.745 42.842 822.8C45.4918 823.138 47.7535 818.279 50.5024 817.6C53.1047 816.13 55.9269 815.845 58.6282 813.359C61.6742 809.629 64.5735 805.109 66.7619 799.855Z" fill="#F19423"/>
<path d="M32.1329 793.729C36.3338 787.133 41.4571 787.016 45.8514 782.989C41.4671 773.274 33.411 780.656 27.362 778.875C19.1004 766.762 13.1144 779.113 7.20129 791.855C5.27039 796.829 3.97352 802.137 0.799907 805.045C0.359161 807.28 0.4796 809.458 1.08826 811.189C2.40388 813.646 4.16025 813.867 6.01493 813.083C7.30846 812.356 8.52902 811.237 9.74964 810.119C17.5108 805.754 24.543 797.479 32.1329 793.729Z" fill="#F9B86B"/>
<path d="M6.38792 788.851C12.8094 782.615 18.9917 772.161 26.2516 776.253C28.4174 769.865 30.9677 764.018 34.8877 760.925C23.3001 756.303 13.3894 772.338 2.51933 780.37C4.20153 783.286 5.25874 785.879 6.38792 788.851Z" fill="#FB9F30"/>
<path d="M12.4264 873.094C15.9284 877.889 18.1855 883.84 18.5992 892.448C26.1314 873.155 35.7987 857.559 45.8633 842.541C44.4009 837.746 41.964 837.167 38.8757 840.979C29.7215 841.902 22.4748 850.045 17.9304 866.567C15.9385 868.415 12.5584 865.872 12.4264 873.094Z" fill="#F9BA6E"/>
<path d="M40.9552 817.834C39.3519 813.835 37.3091 812.06 34.2894 815.731C30.7828 819.847 27.9844 820.129 26.4064 814.741C23.6837 810.854 20.373 812.97 17.0372 816.475C10.2169 827.264 0.528527 833.388 -0.846322 851.949C4.60206 855.165 10.2494 851.824 15.729 844.538C20.9711 828.361 28.921 838.853 34.8149 830.733C36.8859 826.563 38.8842 822.004 40.9552 817.834Z" fill="#F89E33"/>
<path d="M35.9065 833.83C28.5481 831.704 21.1895 829.579 14.2604 843.997C13.7857 847.731 13.8811 851.407 14.2246 854.854C14.9902 857.439 15.7559 860.024 16.5216 862.609C23.4198 854.338 30.5659 845.836 37.3901 837.162C36.9202 836.186 36.4504 835.209 35.9065 833.83Z" fill="#F59C31"/>
<path d="M67.4532 805.663C64.1403 809.661 60.5803 813.888 57.1938 817.486C56.3004 822.056 57.3105 824.397 59.4828 825.196C62.5009 819.599 65.5927 814.401 68.8579 808.575C68.3897 807.605 67.9214 806.634 67.4532 805.663Z" fill="#F9BD75"/>
<path d="M60.2302 823.679C59.4496 821.018 58.669 818.358 57.8884 815.698C55.7125 816.76 53.6119 818.236 51.436 819.298C50.5741 821.07 50.0408 823.02 50.1644 825.325C53.1963 827.338 56.8157 824.444 60.2302 823.679Z" fill="#FBD8AE"/>
<path d="M50.4059 823.488C50.9139 821.683 51.3495 819.495 51.6159 817.909C49.2721 820.483 46.6868 823.277 44.2707 825.468C46.2016 828.198 48.3037 825.843 50.4059 823.488Z" fill="#FDECD7"/>
<path d="M15.016 156.486C8.23589 164.52 1.38295 172.163 -5.39716 180.197C-8.6653 184.102 -11.6896 187.784 -14.9577 191.689C-16.3226 192.025 -17.6147 192.751 -18.8339 193.867C-21.7126 198.329 -24.664 202.401 -27.6883 206.083C-37.8601 220.418 -50.9516 228.292 -56.8166 251.93C-52.6808 261.846 -46.9805 264.85 -39.1301 259.49C-35.3014 255.529 -31.0864 256.694 -27.0393 253.903C-23.4798 251.558 -20.4555 247.876 -17.1145 244.361C-15.6514 243.022 -14.505 241.516 -13.042 240.176C-5.0933 233.814 3.6344 228.565 8.3973 212.786C8.18197 207.046 7.79561 201.919 3.06441 207.163C-2.05631 211.85 -5.28952 200.651 -10.7048 208.349C-11.8797 215.819 -15.5373 219.167 -20.3667 225.415C-16.5127 220.06 -13.6594 216.991 -13.3142 211.194C-11.6453 194.137 -2.45525 189.836 3.64402 179.685C8.32772 172.657 16.9794 171.588 15.016 156.486Z" fill="#F8A13B"/>
<path d="M1.93446 214.717C4.66024 213.612 6.00709 216.174 7.17831 219.375C11.8739 222.636 16.3512 219.903 20.3601 211.408C20.7114 210.128 20.8126 209.081 21.1639 207.801C18.715 207.218 16.2661 206.635 13.6414 206.691C14.3549 194.587 23.2296 193.486 25.7425 181.615C14.2431 182.774 8.1261 198.949 0.763229 211.516C1.16251 212.098 1.46065 213.727 1.93446 214.717Z" fill="#FBBD74"/>
<path d="M-13.0668 246.66C-13.9654 247.932 -14.6937 248.596 -15.5923 249.868C-16.5938 261.195 -24.2178 269.052 -23.9579 281.039C-22.0657 282.031 -21.5578 284.737 -22.8693 286.839C-25.1771 291.206 -27.9705 296.017 -23.2401 298.496C-20.2067 297.994 -17.536 295.559 -14.6952 292.516C-9.88699 286.321 -4.23037 281.617 -2.04001 270.565C3.50184 254.645 12.6274 251.759 20.4216 243.294C20.7422 234.399 26.6891 231.241 28.101 223.615C27.911 216.544 33.7853 212.999 33.3526 206.15C30.0539 203.724 27.4782 209.694 24.4922 211.964L24.5397 213.732C12.0601 226.015 0.91175 243.877 -13.0668 246.66Z" fill="#F7A23E"/>
<path d="M129.98 450.358C130.776 444.574 138.933 436.951 130.106 434.111C126.506 432.938 126.569 424.814 129.861 419.218C132.443 414.789 137.386 413.194 134.504 405.806C132.619 400.512 129.254 400.631 125.57 404.074C123.991 405.549 122.149 407.271 120.044 409.238C120.477 399.761 124.531 394.965 127.616 386.537C111.875 384.613 116.111 360.493 115.689 341.23C113.242 343.012 110.874 345.225 108.669 343.254C106.172 343.067 104.33 344.788 103.377 349.71C98.0145 350.689 96.5332 337.457 90.1395 342.927C89.6132 343.419 88.8238 344.157 88.3758 345.079C85.3747 348.892 82.8717 353.751 82.1541 359.966C81.9347 367.228 82.583 374.183 84.8101 379.662C87.8266 384.404 91.7674 385.762 96.3974 382.443C97.4499 381.46 98.609 379.368 99.9748 380.108C98.1328 381.829 96.4474 384.413 95.5232 387.796C95.2819 391.55 95.83 394.566 97.2459 397.276C98.7618 403.924 105.162 393.407 105.86 402.331C98.0752 427.247 83.6717 427.602 72.9831 441.622C71.7457 443.282 70.8497 445.128 69.7689 447.65C63.7604 460.321 75.7455 460.21 72.2618 471.531C79.5823 481.323 88.0248 476.962 97.5479 470.079C105.677 463.995 113.606 450.033 122.59 453.735C125.243 454.784 127.768 453.432 129.98 450.358Z" fill="#F49522"/>
<path d="M98.3384 346.732C99.9895 344.743 101.641 342.755 103.292 340.766C101.152 338.552 99.1812 340.37 97.0374 342.813C97.3313 344.403 97.8716 345.766 98.3384 346.732Z" fill="#F49B2F"/>
<path d="M85.8068 329.927C86.1168 308.493 79.43 323.367 74.781 327.635C72.1916 324.495 69.7009 320.345 65.7639 320.741C56.9588 324.228 49.7387 333.155 43.8846 346.345C47.0988 363.624 55.7905 348.748 61.8785 349.136C69.829 344.135 78.5101 343.062 85.8068 329.927Z" fill="#F39625"/>
<path d="M64.6526 326.434C66.9009 329.115 69.3516 329.698 72.2552 327.952C74.5997 311.933 84.4293 312.811 89.1444 301.745C90.1248 297.492 88.1269 294.579 89.4323 290.501C88.6598 287.879 87.8873 285.257 86.7898 282.461C74.6745 289.912 69.3519 307.269 64.6526 326.434Z" fill="#F59A2C"/>
<path d="M88.4365 292.345C86.3926 297.392 87.0703 301.013 88.1163 304.828C88.5434 301.788 89.0553 299.2 89.4825 296.16C89.2284 294.802 88.9742 293.444 88.4365 292.345Z" fill="#F8A94A"/>
<path d="M54.7427 262.704C49.4901 267.394 44.1658 271.713 38.9131 276.403C39.7965 279.532 40.3695 282.503 38.6504 286.65C28.933 295.762 18.4277 300.79 9.88019 314.516C7.25384 321.215 1.23715 324.846 1.69074 334.453C4.55579 340.601 8.75789 337.719 12.4348 333.566C31.2011 313.326 49.0125 289.586 68.3041 270.619C69.9754 269.127 70.9782 265.619 71.7422 262.325C73.9627 256.425 70.2619 257.553 69.4501 254.795C64.6272 257.36 59.9237 266.349 54.7427 262.704Z" fill="#EB9630"/>
<path d="M65.5084 321.055C72.5517 307.545 79.8361 293.816 86.8073 279.925C85.6263 279.656 84.3732 279.005 83.1922 278.736C79.8412 280.43 76.6362 278.424 73.2606 281.479C66.4108 293.03 56.8171 294.575 50.5693 307.812C49.3145 311.624 55.58 314.875 48.7812 319.243C42.4646 323.175 36.9419 331.295 32.0456 339.74C29.2719 344.481 25.6306 349.114 28.5928 355.8C33.8956 355.462 38.3801 352.296 42.1675 343.962C50.1244 336.761 56.3968 322.164 65.5084 321.055Z" fill="#F79F37"/>
<path d="M72.0163 284.013C75.0084 282.667 78.3 282.962 80.9443 278.097C79.237 276.807 77.4548 275.105 75.9991 273.58C74.768 273.286 73.4353 274.047 72.1774 275.219C70.791 278.912 70.1592 281.901 72.0163 284.013Z" fill="#FAB96B"/>
<path d="M73.0914 275.923C74.0981 274.985 74.7783 273.871 75.785 272.933C75.4852 271.291 75.0087 270.293 74.7838 269.062C73.7771 269.999 72.8453 271.348 71.8386 272.286C71.7368 273.341 71.635 274.397 71.5332 275.453C72.1115 275.395 72.6898 275.336 73.0914 275.923Z" fill="#F8B15C"/>
<path d="M73.8775 266.091C54.1853 281.856 36.2147 304.798 17.7484 325.28C13.6655 329.631 9.49352 339.009 5.02231 330.492C-6.99573 339.219 -17.9517 353.217 -29.474 364.403C-44.9155 379.386 -60.7109 392.611 -76.1523 407.594C-82.5114 414.322 -89.0121 420.348 -93.8174 430.685C-94.7077 433.104 -95.0577 435.469 -94.3274 437.727C-86.3317 447.326 -77.5143 432.286 -69.2251 429.668C-63.6632 424.453 -57.982 421.198 -52.3493 416.334C-44.2765 408.539 -37.0758 397.783 -28.3435 391.894C-24.7522 389.206 -21.4442 385.112 -18.9596 379.666C-4.77042 357.101 12.504 343.011 28.4594 325.109C40.8012 311.152 52.1294 293.532 66.0736 284.793C69.9704 282.254 73.1591 276.2 75.1258 269.551C74.6786 268.699 74.1607 267.496 73.8775 266.091Z" fill="#FCA53D"/>
<path d="M132.56 460.14C130.471 458.043 128.549 459.774 126.46 462.098C114.358 460.621 104.22 476.822 93.3644 484.83C89.2569 489.855 84.5251 494.559 84.7388 504.531C90.7645 511.038 97.6346 501.316 104.287 499.303C114.422 491.943 124.317 484.8 132.533 470.329C132.438 466.879 132.655 463.59 132.56 460.14Z" fill="#F79622"/>
<path d="M133.067 475.019C123.244 483.306 113.658 491.383 103.763 499.303C102.908 507.816 106.191 507.487 109.783 507.315C117.418 499.246 125.22 490.6 132.997 483.266C137.041 479.678 136.398 476.371 135.612 472.33C134.661 473.174 133.781 474.386 133.067 475.019Z" fill="#EC8B17"/>
<path d="M122.607 558.197C123.318 549.803 128.504 545.517 130.31 538.4C123.988 530.516 119.33 545.251 113.682 548.593C108.521 551.489 103.477 561.111 98.0533 556.505C98.9353 547.499 103.682 545.437 107.044 540.542C102.986 531.042 98.0623 542.832 93.559 544.671C80.5271 563.419 66.1382 573.386 51.3604 582.797C48.7798 584.246 48.5869 581.689 47.4199 580.023C38.7103 576.143 29.4098 582.825 20.4285 585.115C18.3349 586.118 16.5324 588.677 15.5806 592.735C15.6251 599.072 17.7631 604.405 20.4891 603.734C28.6671 601.723 20.6063 610.46 21.6025 612.737C23.497 618.293 26.128 614.065 28.5631 611.839C17.751 622.635 5.80013 625.818 -4.42998 639.727C-7.01352 645.733 -5.60596 651.733 -6.19399 657.737C-3.32549 662.402 -0.232795 659.119 3.10349 655.613C6.68327 651.885 4.75755 656.834 4.56154 658.835C6.67428 665.558 12.1516 662.828 14.8493 668.104C22.9516 670.262 30.5254 661.971 38.0013 654.68C45.7489 641.22 56.7196 648.043 61.814 635.642C65.906 630.079 64.2965 635.194 63.7872 632.471C63.6417 631.693 63.471 632.305 62.7405 632.973C60.5237 636.366 57.6017 639.038 58.3766 644.706C65.1856 652.145 69.8182 638.8 75.5895 633.068C76.9111 621.839 82.4834 622.666 86.4522 619.493C88.6437 617.489 90.9806 616.263 93.0267 613.482C98.4342 605.805 108.342 600.846 105.65 586.453C102.74 570.894 94.8918 589.913 89.3923 589.475C80.9677 596.267 73.7323 607.892 65.235 614.295C74.7064 607.002 82.8683 592.707 92.9468 587.136C102.858 577.619 114.685 576.827 122.607 558.197Z" fill="#F6941D"/>
<path d="M111.156 502.549C109.226 499.822 107.295 497.096 105.052 494.206C99.0407 493.836 93.4367 501.602 87.7624 504.509C79.5304 504.362 73.4909 514.314 67.3792 523.883C62.9104 530.173 69.5222 536.713 64.812 543.221C65.6316 546.059 67.128 546.493 69.0353 546.107C78.5737 539.697 83.942 518.716 94.9027 516.836C100.216 512.019 106.179 510.641 111.156 502.549Z" fill="#F28F19"/>
<path d="M96.948 518.165C85.2929 513.47 79.0678 533.061 70.7665 544.648C65.8279 554.529 56.2985 555.096 54.1143 570.566C65.4075 573.341 74.9909 561.039 84.4296 547.968C86.4874 543.851 87.8441 539.022 88.0159 533.921C88.8909 525.035 93.9224 523.161 96.948 518.165Z" fill="#F6941E"/>
<path d="M87.8822 539.795C85.8163 542.052 84.1306 544.83 84.1317 549.116C83.8719 554.92 86.8642 553.13 88.8831 553.487C93.395 549.494 96.908 540.383 102.395 542.816C108.734 532.49 117.855 532.136 124.929 515.587C111.297 524.219 99.4711 532.112 87.8822 539.795Z" fill="#ED8B16"/>
<path d="M95.5332 563.099C92.8551 566.247 89.7294 568.54 87.1258 576.181C97.0697 572.129 105.13 565.563 113.142 557.382C117.465 552.809 121.314 544.503 126.678 546.489C128.367 542.539 127.801 539.715 126.928 536.741C116.92 548.722 106.014 554.852 95.5332 563.099Z" fill="#F18F1A"/>
<path d="M123.026 571.891C113.032 580.521 103.28 588.933 93.2139 597.18C92.5355 599.595 91.4703 601.462 91.9769 604.149C93.2344 604.805 94.467 606.832 95.4349 605.952C98.3387 603.314 101.489 591.459 104.169 601.164C106.704 610.1 100.076 612.526 97.2194 616.92C91.4344 625.324 84.8533 629.505 77.8855 633.139C72.2 636.057 73.5524 640.223 76.7435 643.618C87.9405 647.382 98.1083 629.151 108.801 625.73C114.054 616.011 118.896 607.116 126.421 603.426C132.59 600.069 137.118 591.009 138.841 579.102C133.569 576.698 126.165 582.527 123.026 571.891Z" fill="#F3911B"/>
<path d="M15.2191 846.452C16.6803 842.654 16.3479 839.583 15.2367 836.773C11.9616 846.778 5.60656 838.465 2.04734 847.038C-14.5721 845.593 -29.243 865.136 -44.5329 875.976C-50.3374 880.208 -56.4006 885.926 -61.9437 892.871C-63.547 895.952 -65.0082 899.75 -63.2831 902.865C-53.5336 903.169 -45.1848 890.832 -36.4553 883.204C-19.6331 868.924 -1.29362 865.083 15.2191 846.452Z" fill="#ED8C18"/>
<path d="M3.98828 797.169C3.6996 795.646 3.41092 794.123 3.12224 792.6C3.39139 782.096 0.281257 783.573 -4.83006 786.414C-14.6672 792.64 -24.8652 796.962 -34.9189 802.046C-52.6115 801.106 -68.0933 817.794 -82.9501 839.269C-86.4966 847.386 -86.185 852.011 -80.4963 852.215C-77.0975 852.262 -73.5774 849.969 -70.2261 848.274C-64.9458 844.834 -59.5934 841.774 -54.0491 841.217C-37.0289 835.628 -20.1301 832.379 -4.33341 811.392C-1.17408 807.194 2.58733 804.683 3.98828 797.169Z" fill="#FC9C27"/>
<path d="M-23.114 772.069C-22.1672 771.236 -21.5283 770.249 -20.6527 769.054C-5.71745 754.643 10.072 744.576 24.7706 730.373C30.236 720.046 27.6537 716.798 21.8287 716.826C15.1513 716.756 8.47559 720.93 2.03664 724.895C-17.6824 737.57 -36.6647 756.815 -56.2414 770.214C-60.6444 773.238 -64.6203 778.433 -67.0086 786.054C-64.5152 802.967 -56.7343 780.413 -52.8724 785.932C-57.3003 786.006 -60.7796 789.491 -62.1731 797.934C-54.4278 803.434 -47.4229 793.876 -40.2988 786.336C-34.5468 781.701 -29.7915 771.998 -23.114 772.069Z" fill="#FC9A23"/>
<path d="M79.8054 708.56C73.0835 708.48 67.0535 717.75 60.5462 718.778C55.6836 719.642 57.6378 715.302 60.2119 711.277C55.3015 710.45 50.5345 714.695 45.6959 718.571C40.3566 719.859 36.6864 728.327 31.7763 731.833C28.6302 737.235 28.0586 742.943 28.345 748.754C46.4603 741.288 62.954 724 79.8054 708.56Z" fill="#F3901A"/>
<path d="M29.631 743.127C32.7946 739.515 33.6427 735.402 32.1043 730.429C29.0323 728.905 26.7216 736.826 23.6496 735.302C14.3238 745.572 4.0487 748.246 -5.72645 757.645C-11.3224 762.965 -15.6185 769.253 -20.0796 776.108C-6.11814 775.262 5.82557 757.224 19.2872 749.653C22.8061 747.837 26.277 744.377 29.631 743.127Z" fill="#E7850E"/>
<path d="M9.76164 314.695C19.4648 303.128 29.2393 291.926 38.9425 280.359C23.6838 284.86 8.97349 297.858 -5.99872 308.093C-7.47025 307.682 -8.87048 307.637 -10.3654 308.53C-12.6433 309.687 -14.7074 311.939 -16.7715 314.19C-19.9506 317.854 -23.4382 321.363 -26.546 325.392C-30.9347 331.408 -38.3379 336.239 -36.8872 346.504C-35.5557 354.736 -28.841 349.231 -24.0711 348.01C-11.6375 340.446 -1.91223 323.299 9.76164 314.695Z" fill="#FCA740"/>
<path d="M-10.3268 307.105C-9.33117 306.181 -8.65858 305.084 -7.66294 304.16C-4.32653 300.118 -0.667029 296.25 2.52104 291.4C11.238 278.582 8.23466 273.326 0.502079 272.458C-4.75145 278.751 -9.68184 285.218 -14.9354 291.511C-16.7833 298.903 -7.80121 293.881 -11.8152 303.755C-12.0164 305.834 -11.545 306.816 -10.3268 307.105Z" fill="#E68F29"/>
<path d="M22.1413 722.165C25.4034 724.522 27.9233 720.051 30.7308 717.086C35.7939 711.209 40.5451 705.173 45.6083 699.296C37.7629 702.384 29.5086 710.689 22.073 704.15C24.8095 696.398 29.1043 693.858 32.4159 689.116C32.4644 686.427 31.457 685.569 30.2097 684.928C28.3386 683.965 26.2267 687.628 24.4276 687.042C26.659 685.476 28.3629 682.62 29.9949 679.389C31.7473 673.845 34.3633 668.406 31.2216 663.736C26.3274 664.611 21.4333 665.485 16.85 670.93C4.92283 690.915 -9.20696 689.074 -22.2593 697.285C-32.0485 703.444 -41.9816 708.85 -51.1238 718.395C-52.8996 720.874 -54.2916 723.889 -55.5156 726.313C-64.4673 742.741 -76.6533 737.828 -86.0839 750.278C-87.5479 752.917 -88.7 755.717 -89.8521 758.516C-92.2048 766.805 -100.074 766.827 -100.436 778.176C-95.1849 792.412 -87.5058 781.097 -80.4036 775.591C-62.2638 760.159 -43.3333 748.865 -26.2001 728.165C-40.214 746.059 -56.7208 753.851 -69.6321 776.044C-70.3762 778.036 -70.7366 780.565 -70.857 782.878C-70.4733 783.414 -69.7777 784.111 -69.3939 784.648C-40.1439 755.255 -10.175 729.625 20.7995 713.672C24.7582 712.316 27.013 713.816 22.1413 722.165Z" fill="#F7951E"/>
<path d="M112.778 625.462C107.785 621.491 102.693 622.974 97.5745 630.295C92.2149 637.833 85.9656 637.683 80.5584 643.477C75.2481 648.288 69.8656 652.718 64.5553 657.53C50.6086 658.541 40.2523 671.055 36.6489 690.863C49.4345 697.163 59.7223 675.322 71.5479 669.079C74.4197 667.818 77.2439 664.812 78.1372 663.555C82.1437 660.819 80.38 666.441 80.9121 663.277C81.0091 662.294 80.4541 662.35 79.7299 663.006C71.2571 672.025 60.2791 670.794 54.5527 689.843C66.7833 696.199 78.4206 678.501 90.2937 674.002C91.3314 673.509 91.6697 672.308 92.1771 670.507C96.9133 653.697 103.119 643.156 112.749 635.771C112.726 632.662 112.631 629.171 112.778 625.462Z" fill="#F7941E"/>
<path d="M55.2064 685.116C63.8131 672.475 75.2408 671.333 83.2783 655.803C67.2606 657.589 53.9276 682.851 38.2887 685.151C34.3833 682.228 30.3606 681.526 26.3418 689.29C22.7961 696.64 15.4121 692.96 13.4067 705.31C19.0389 707.14 24.6421 697.56 29.8724 700.166C38.2696 694.909 46.738 690.013 55.2064 685.116Z" fill="#EF8C16"/>
<path d="M16.0511 817.681C18.8666 816.02 21.9249 814.137 24.7405 812.476C27.7038 807.058 30.667 801.641 33.7029 796.61C25.5518 794.082 17.9034 803.318 10.3052 809.792C10.1073 816.31 12.8727 817.41 16.0511 817.681Z" fill="#F3982A"/>
<path d="M18.0782 814.074C16.1883 811.524 14.2982 808.974 12.4793 806.783C11.6066 807.965 10.663 808.79 9.79031 809.972C-2.77948 828.938 -17.8812 837.932 -31.9655 850.658C-35.1264 854.26 -38.6425 856.072 -41.8744 859.316C-47.605 868.104 -54.2108 873.876 -60.9587 878.932C-65.0404 882.078 -70.964 884.313 -69.3047 895.467C-67.2525 893.254 -65.3651 891.605 -63.3102 893.591C-42.171 875.96 -21.0088 857.049 0.746942 843.922C4.39727 830.229 13.0808 825.163 18.0782 814.074Z" fill="#F79623"/>
<path d="M-33.3095 853.425C-23.0322 844.234 -12.6832 835.414 -2.78821 825.692C1.92026 821.044 10.0223 819.473 8.56518 804.625C7.1551 804.576 5.91237 803.942 4.50228 803.893C-13.9972 825.676 -33.7149 836.763 -53.6475 842.368C-55.1777 853.34 -55.106 853.712 -50.0154 853.961C-44.6141 854.369 -38.7586 851.314 -33.3095 853.425Z" fill="#EA8915"/>
<path d="M-14.1499 242.628C-9.0688 252.889 -3.34129 239.906 1.21189 236.348C8.73795 231.033 17.6338 227.042 22.3212 211.607C17.9329 214.601 13.5445 217.594 9.08521 220.23C1.56176 229.742 -5.93888 237.975 -14.1499 242.628Z" fill="#ED9834"/>
<path d="M93.257 483.522C103.22 471.076 114.068 461.784 125.251 455.702C123.719 453.567 129.683 445.146 124.151 447.036C120.2 448.387 116.368 451.823 112.608 455.635C101.496 466.479 90.4085 475.986 78.8916 470.081C70.7263 469.946 64.5952 478.956 59.2778 490.745C59.2031 512.312 68.2075 505.113 76.1339 501.075C82.4798 497.576 86.6239 485.523 93.257 483.522Z" fill="#F18F19"/>
<path d="M84.8433 366.205C85.2797 359.565 84.9206 353.199 82.6324 348.579C78.4628 347.445 75.0624 351.861 71.5898 355.896C56.9974 380.253 37.7812 393.628 24.5371 422.118C27.9553 434.191 33.2144 423.187 37.5546 419.259C43.8961 413.966 49.0827 402.582 56.2656 403.218C62.7497 403.149 67.7904 395.465 72.8312 387.781C77.534 381.295 83.152 376.657 84.8433 366.205Z" fill="#F9A138"/>
<path d="M71.5174 390.704C67.5052 396.03 64.902 405.761 59.1943 405.197C50.6208 407.192 44.0054 417.894 37.5572 428.01C36.4585 441.188 42.2141 434.74 45.2948 433.295C53.5101 429.441 61.5344 423.145 69.4631 417.804C79.1114 408.315 90.2642 406.629 98.0976 389.176C97.3573 386.788 96.617 384.401 95.8768 382.013C87.8527 375.241 79.6371 392.163 71.5174 390.704Z" fill="#F79520"/>
<path d="M98.6933 395.87C88.7986 403.789 78.7846 409.661 69.3899 420.152C65.8693 420.691 64.1808 423.482 64.7765 429.415C66.5136 432.612 69.2493 432.338 72.1513 431.485C84.6631 425.551 96.3891 415.576 107.187 400.825C108.947 398.401 112.181 396.392 112.014 392.664C111.776 388.568 108.779 390.366 106.567 391.898C104.045 393.274 101.215 394.494 98.6933 395.87Z" fill="#ED8B15"/>
<path d="M108.141 403.169C95.7112 408.614 84.813 424.973 72.6231 430.203C71.8081 436.2 72.8373 440.104 76.1179 441.111C86.9196 430.105 102.509 432.358 108.141 403.169Z" fill="#F79620"/>
<path d="M77.1875 435.277C75.903 431.463 74.9341 427.814 73.6497 423.999C71.4885 424.611 69.6428 425.388 67.4817 426C57.7454 427.175 48.7324 436.757 39.429 444.791C35.7601 449.497 33.5963 454.644 35.4615 461.555C40.3368 469.346 46.9932 462.368 52.9908 460.976C59.3569 452.449 64.2933 439.334 72.8876 439.653C73.3734 439.21 74.1748 438.932 74.6606 438.489C75.5597 437.215 76.5314 436.329 77.1875 435.277Z" fill="#F49B31"/>
<path d="M58.3029 487.475C65.1257 478.803 71.7745 470.763 78.6713 462.494C80.4336 459.45 83.832 455.832 79.9686 453.764C76.7492 452.041 76.5798 447.964 76.5846 443.254C68.8532 443.828 63.64 453.361 58.7226 464.503C55.942 469.901 53.3092 476.103 52.5341 482.937C53.1733 487.991 53.8862 493.447 58.3029 487.475Z" fill="#F99721"/>
<path d="M70.4954 356.982C73.6756 353.314 77.0931 349.436 80.2733 345.768C82.9075 342.155 86.1357 340.157 86.49 333.422C78.9416 337.527 71.0846 341.477 63.5363 345.582C56.679 358.923 44.6655 355.845 38.9014 373.356C43.3678 384.819 49.8463 375.238 55.3766 370.777C60.1235 366.58 64.9885 360.138 70.4954 356.982Z" fill="#EA8D1D"/>
<path d="M69.81 391.081C77.746 401.678 86.1242 383.456 94.3527 382.244C95.9653 380.344 97.5778 378.444 102.415 372.745C94.5962 373.143 89.0135 376.407 84.732 373.168C79.7258 379.464 74.8882 385.164 69.81 391.081Z" fill="#F08F19"/>
<path d="M38.5195 370.437C46.053 357.734 58.54 360.788 63.5119 340.509C57.4607 341.509 51.1877 350.364 44.9691 347.464C40.0313 348.352 35.5031 352.919 31.1921 358.64C27.7072 358.207 25.1885 361.397 23.1042 366.894C21.9637 372.884 23.1472 377.661 24.9847 381.393C26.1456 383.039 27.4762 384.08 28.9041 384.132C33.6246 382.091 36.8698 378.24 38.5195 370.437Z" fill="#EC8B18"/>
<path d="M11.6683 317.05C-0.407935 322.499 -11.3534 333.499 -22.0162 345.887C-39.6358 356.489 -56.478 370.908 -72.8255 387.755C-75.9322 394.081 -84.7992 400.45 -74.9109 405.836C-59.6135 391.926 -44.1967 379.95 -29.3234 363.957C-17.8175 351.663 -4.5718 345.212 4.53614 325.193C7.46262 324.724 9.96515 322.174 11.6683 317.05Z" fill="#EE972F"/>
<path d="M74.62 271.067C50.6058 292.509 28.5565 321.079 5.25309 346.113C-3.19941 355.197 -10.9183 366.589 -20.3176 372.289C-25.0173 375.139 -21.755 379.024 -20.1708 381.429C-18.9419 382.039 -17.548 382.083 -16.0602 381.202C1.15678 371.608 13.8043 344.526 30.5008 333.703C37.7956 324.368 46.8878 318.516 51.4153 303.598C59.7762 299.65 68.16 294.417 74.5078 281.698C74.9319 279.642 75.356 277.585 75.7801 275.528C75.3536 273.374 74.9043 272.503 74.62 271.067Z" fill="#FDA842"/>
<path d="M52.4742 304.453C44.0861 314.379 35.7706 324.694 27.3824 334.621C21.2548 342.938 19.352 355.569 15.6525 366.21C18.2259 369.308 20.3159 368.308 22.0204 362.212C24.5491 358.996 27.1505 356.168 29.4361 353.173C36.1785 332.946 48.403 326.781 58.543 312.531C56.5285 309.377 54.6592 306.998 52.4742 304.453Z" fill="#F49A30"/>
<path d="M-27.1109 397.119C-27.8768 399.225 -31.5505 401.218 -28.8417 403.38C-26.7734 405.201 -23.7877 401.045 -21.1482 398.142C-19.0019 395.694 -15.1551 393.076 -14.3719 398.88C-13.6623 404.286 -17.5826 406.507 -19.8284 409.979C-18.924 418.003 -15.5661 411.173 -13.2987 410.945C-15.5921 412.596 -17.5653 414.417 -19.5384 416.239C-23.4847 419.882 -28.0716 423.184 -27.6864 433.087C-13.4676 433.481 -4.48011 414.926 4.43373 395.973C5.13039 388.802 3.83222 380.209 11.0066 376.849C13.4471 375.995 15.5717 370.303 15.9957 364.783C5.18228 359.379 -4.37192 377.991 -14.7007 381.466C-15.6873 382.377 -16.3537 383.458 -17.2667 384.767C-20.4991 389.15 -23.805 393.135 -27.1109 397.119Z" fill="#F19A32"/>
<path d="M61.647 490.431C59.0147 491.474 57.712 489.073 56.82 485.851C55.7093 485.963 54.4294 486.676 53.3662 488.535C50.9736 493.84 49.2809 499.853 46.6467 505.376C40.0489 519.868 32.173 530.592 22.5133 534.873C21.3056 535.968 20.1702 537.446 19.107 539.305C17.7776 542.75 17.0034 546.139 17.34 549.416C17.7014 551.328 18.5458 552.801 19.8733 553.836C26.3188 556.5 33.1542 550.749 39.8679 547.348C48.6832 541.594 57.8845 536.385 65.1099 522.22C72.4779 513.3 80.0875 504.16 87.4555 495.24C88.3285 486.387 93.0377 484.356 96.3717 479.542C89.4907 479.064 83.4502 489.02 77.1226 492.966C70.1426 497.952 65.2167 498.837 61.647 490.431Z" fill="#F7951F"/>
<path d="M-1.85798 635.548C2.71369 630.725 0.825338 628.184 -1.60534 625.698C-4.50739 623.622 -7.54851 625.017 -11.061 626.824C-19.4037 634.934 -28.2006 633.811 -36.9465 638.506C-38.9029 639.793 -40.6237 640.874 -42.5092 642.518C-44.3946 644.162 -46.0444 645.6 -47.9299 647.244C-54.7193 650.651 -61.344 653.496 -66.2649 664.904C-69.4196 672.679 -74.5848 671.739 -78.898 675.081C-84.3188 679.807 -89.5266 685.603 -94.6633 691.756C-102.651 701.651 -111.229 709.968 -118.839 720.371C-122.585 726.567 -126.401 732.406 -121.798 738.861C-119.981 741.045 -117.976 741.39 -115.619 739.335C-114.583 737.594 -113.311 735.648 -112.581 733.756C-108.083 724.391 -102.404 718.184 -96.2988 714.117C-84.7247 706.957 -74.2383 695.721 -63.8228 684.128C-53.643 672.741 -43.06 664.77 -31.6961 660.725C-21.5844 653.165 -10.1466 653.66 -1.85798 635.548Z" fill="#FC9A24"/>
<path d="M14.9982 571.278C16.5974 569.415 18.1966 567.553 20.0345 565.478C20.13 564.522 20.1539 563.196 20.4881 562.028C20.0823 558.475 18.8649 556.516 16.5974 556.365C9.0785 556.551 2.51441 564.585 -4.33606 571.135C-10.7808 576.887 -17.3686 581.897 -24.1236 583.141C-32.0721 589.801 -39.6387 596.99 -45.3434 609.476C-47.3723 617.812 -43.8395 617.269 -41.0946 616.994C-36.7742 616.183 -32.6448 612.932 -28.229 611.166C-25.3886 609.935 -22.5482 608.705 -19.7793 607.104C-8.32205 601.228 2.08494 588.459 12.6113 577.758C13.7331 576.322 14.4015 573.985 14.9982 571.278Z" fill="#FC9923"/>
<path d="M24.373 686.075C28.5432 682.748 32.5903 686.22 36.544 681.751C43.274 663.627 53.9756 657.512 63.9312 648.951C63.8132 642.371 68.1998 640.185 70.6367 632.186C63.5738 638.13 58.0278 647.605 51.4028 642.454C47.1146 639.2 44.4121 648.778 41.6867 655.256C38.4774 666.629 29.6599 660.341 26.7393 673.236C26.1113 677.37 25.2422 681.723 24.373 686.075Z" fill="#F3911B"/>
<path d="M55.6194 563.306C60.2938 558.189 65.1371 552.474 69.8837 547.738C73.0158 544.906 72.4389 541.865 71.7898 538.445C70.6097 538.176 69.4296 537.907 68.2495 537.638C58.4709 536.683 49.8431 550.718 40.5203 555.139C33.4364 562.435 23.5628 558.004 18.8114 576.103C26.9264 581.678 35.8657 572.26 44.6575 570.99C48.4388 571.579 52.7495 573.47 55.6194 563.306Z" fill="#FA9721"/>
<path d="M-1.40936 644.384C-11.3663 653.711 -21.8008 659.111 -32.0204 665.625C-34.7663 665.9 -37.3928 668.245 -38.4912 672.71C-39.9239 678.343 -37.2018 679.395 -35.1961 681.087C-28.009 682.071 -21.1323 674.188 -14.0885 670.075C-6.20889 663.038 2.76902 660.245 9.43092 646.894C11.0307 645.03 12.6305 643.166 14.2303 641.302C9.31164 631.762 3.29445 648.456 -1.40936 644.384Z" fill="#EA8811"/>
<path d="M10.285 650.975C1.81853 655.056 -6.16991 663.083 -14.1343 669.776C-16.5981 675.918 -22.027 676.842 -23.2713 684.953C-18.5846 694.752 -12.2701 683.85 -6.50626 681.751C-1.29251 679.707 3.61074 673.131 8.70508 669.007C12.4601 665.208 17.0281 664.18 19.0616 655.799C19.1103 644.385 12.0782 655.929 10.285 650.975Z" fill="#F99620"/>
<path d="M56.4441 569.53C52.8315 572.27 49.1478 574.652 45.5352 577.392C45.5376 581.602 43.5547 584.18 41.219 589.172C58.622 577.732 75.5551 570.915 90.2598 550.044C88.5818 548.564 87.2109 547.237 85.5329 545.757C76.9188 559.614 66.8122 565.932 56.4441 569.53Z" fill="#F18E18"/>
<path d="M-12.5649 636.689C-9.80667 635.104 -6.81068 633.307 -4.05247 631.722C7.78783 619.5 21.794 616.975 32.2061 597.413C29.542 593.752 25.9292 603.841 22.8846 599.656C14.2999 599.954 6.52595 611.582 -2.17716 614.137C-6.45691 617.933 -11.1651 619.526 -14.7072 625.68C-18.582 632.989 -17.7965 637.026 -12.5649 636.689Z" fill="#F08E17"/>
<path d="M-3.0039 617.229C6.22105 615.694 14.3445 608.203 22.1266 597.31C23.556 594.133 30.3711 592.031 23.9315 586.816C20.9817 584.888 18.7963 580.862 16.1919 577.687C15.2807 578.992 14.6156 580.07 13.631 580.978C11.4072 592.323 4.69141 593.403 0.675176 601.289C-1.8382 606.395 -5.70339 610.423 -3.0039 617.229Z" fill="#FC9923"/>
<path d="M18.8396 662.042C15.1891 664.864 11.467 667.315 7.81649 670.136C3.47438 685.306 10.2504 678.393 13.8532 678.221C17.8854 671.583 23.0392 672.2 27.4293 667.416C31.3421 658.711 40.0033 664.456 42.2219 649.876C34.2528 653.508 26.9281 664.821 18.8396 662.042Z" fill="#EF8D16"/>
<path d="M91.5937 597.091C92.0194 595.014 92.4452 592.936 92.7997 590.497C81.0721 594.444 72.7617 611.551 62.6243 622.183C73.4756 619.433 82.3094 607.822 91.5937 597.091Z" fill="#F08D17"/>
<path d="M40.0615 559.6C49.3454 554.387 58.3439 547.712 66.7717 538.114C68.5284 535.703 70.2851 533.292 72.0418 530.881C70.4267 529.739 68.6455 529.172 67.0303 528.03C57.5324 532.147 49.3899 543.206 40.3201 549.516C35.4056 554.291 37.3061 556.895 40.0615 559.6Z" fill="#EC8A13"/>
<path d="M15.0713 671.35C12.5155 669.712 8.00098 672.438 9.02831 663.239C-1.07571 671.832 -10.9647 681.54 -21.5941 684.5C-31.9845 682.888 -41.1332 694.986 -50.4489 703.31C-53.5542 706.085 -57.2567 711.572 -54.7966 718.527C-37.3356 705.975 -20.185 693.265 -2.2465 689.004C4.13112 687.228 10.1266 680.563 15.0713 671.35Z" fill="#F3911B"/>
<path d="M38.4591 425.235C45.7017 416.681 53.1817 407.917 60.4243 399.363C56.9069 391.327 53.1083 398.977 49.0711 402.55C41.7093 409.065 36.0833 423.05 27.4372 422.983C26.8195 422.672 26.2732 422.727 25.6555 422.416C10.0767 435.346 -6.54791 445.771 -18.1567 471.911C-13.832 478.376 -7.20604 473.798 -1.86118 475.5C5.83398 472.12 11.0095 461.536 16.5418 452.78C20.6972 446.959 25.0666 442.234 30.0302 439.128C33.9012 436.13 37.0832 432.457 38.4591 425.235Z" fill="#FEA941"/>
<path d="M40.4484 375.134C37.2301 378.915 33.7716 382.913 30.5533 386.695C29.2065 395.861 25.0033 401.854 21.5681 408.924C17.7245 416.804 19.2363 420.303 24.2066 419.804C40.7064 400.087 57.7341 381.662 72.4344 356.937C61.2699 355.944 51.6848 376.504 40.4484 375.134Z" fill="#F19A33"/>
<path d="M38.4467 430.005C35.2708 433.659 31.8578 437.522 28.6818 441.176C25.3866 442.803 21.0008 444.539 22.189 452.02C23.1866 457.11 26.79 455.638 30.1797 453.074C33.5694 450.511 35.4163 442.912 39.3761 443.257C48.6451 438.067 57.629 431.423 66.0429 421.869C66.0414 417.607 67.7239 414.843 69.786 412.598C59.1646 415.143 49.1394 427.823 38.4467 430.005Z" fill="#EF8E1A"/>
<path d="M41.5746 441.09C37.0822 438.383 33.8217 446.805 29.9578 448.97C28.1838 450.135 25.7783 450.969 25.6833 447.425C25.6861 442.884 28.8208 441.385 30.5473 438.447C25.01 436.24 21.4088 445.881 16.7906 450.096C12.843 470.037 0.525029 472.657 -6.11589 487.342C-4.08199 498.193 0.9999 490.377 4.79111 487.825C13.1754 482.441 21.2216 473.736 29.726 470.512C33.6876 467.35 37.1883 463.247 38.845 455.381C37.2693 450.012 38.317 444.971 41.5746 441.09Z" fill="#F89928"/>
<path d="M39.8983 461.361C36.7224 465.015 33.3094 468.878 30.2047 472.895C20.6288 482.194 8.32339 483.239 2.04717 503.699C2.54597 506.244 3.13924 507.853 4.75195 508.989C12.2207 508.798 17.8601 497.855 24.3312 492.574C33.718 485.148 42.7966 477.567 51.8271 468.323C53.7466 465.351 55.3579 462.224 55.973 458.27C50.5648 451.953 44.8775 461.233 39.8983 461.361Z" fill="#EF972E"/>
<path d="M54.0083 461.769C52.3723 463.726 50.7364 465.683 48.8563 467.863C51.3859 478.363 55.3714 466.013 58.8842 466.456C64.0141 457.178 69.0712 447.509 75.3456 441.302C64.1511 436.453 61.2216 439.138 54.0083 461.769Z" fill="#FBA33A"/>
<path d="M61.1777 465.286C58.277 461.84 54.5469 469.873 51.4085 466.637C42.3296 472.964 34.1787 484.055 24.6715 488.183C18.6369 502.985 7.82212 506.123 0.955315 519.514C0.670665 522.345 1.0276 524.177 2.1689 525.745C4.40361 527.202 6.42415 527.561 8.70585 526.398C23.8446 512.552 39.6972 502.372 52.7187 480.518C53.5979 479.309 54.3109 478.677 55.1902 477.468C57.2098 473.529 59.1581 469.224 61.1777 465.286Z" fill="#FEAA41"/>
<path d="M26.5088 414.084C19.4031 403.603 28.9877 401.239 31.5326 397.984C37.2832 390.408 39.9522 384.742 33.2336 379.42C32.6969 378.074 32.4777 376.897 31.941 375.551C21.9947 371.353 13.4836 376.408 6.96648 395.257C-3.41017 410.296 -12.1289 431.166 -25.7482 434.936C-27.3621 435.498 -28.5122 437.013 -28.8079 440.042C-22.8558 456.637 -15.4077 435.095 -8.66012 434.416C-0.882939 430.035 5.77321 421.168 12.2832 411.517C14.0687 410.337 13.5504 416.787 13.2107 413.423C12.9916 412.245 12.6739 412.077 11.94 412.751C2.32282 425.714 -8.05026 436.154 -17.2768 449.678C-21.1434 455.065 -26.1091 459.164 -26.8501 469.035C-24.4328 472.79 -22.1581 471.162 -20.3691 465.384C-4.6616 448.209 10.8013 431.259 26.5088 414.084Z" fill="#F69F38"/>
<path d="M3.86616 392.677C11.239 380.548 19.9641 377.119 28.6167 373.304C27.3345 369.506 26.2948 365.487 25.0126 361.689C22.9032 364.061 20.9638 365.826 18.9293 364.067C16.6274 363.906 14.9303 365.451 14.0556 369.858C8.76963 376.476 3.55616 383.48 -2.67211 385.087C-1.4399 391.639 2.41403 389.485 3.86616 392.677Z" fill="#E28A22"/>
<path d="M12.639 365.32C14.2422 363.446 15.8454 361.572 17.4486 359.698C25.3208 353.959 25.011 340.664 28.7922 331.147C22.3802 329.887 17.0199 339.942 13.1433 346.042C3.85874 360.489 -6.95643 368.427 -16.8149 379.885C-6.79017 380.974 2.6142 364.231 12.639 365.32Z" fill="#FCA53D"/>
<path d="M-46.0183 605.466C-37.9384 596.473 -29.9292 587.131 -21.8492 578.138C-6.24164 569.641 8.49506 558.205 21.5342 538.394C21.9541 536.394 22.374 534.394 22.7231 532.046C19.4077 523.832 14.8905 531.402 10.4615 533.979C-2.1448 542.355 -14.3974 552.475 -25.872 566.435C-36.4094 579.588 -47.747 590.152 -59.4162 597.722C-63.0717 600.045 -66.4929 602.165 -70.0776 604.836C-82.7501 616.957 -96.32 623.293 -109.134 634.715C-111.874 637.48 -114.239 640.742 -115.711 645.695C-111.608 665.934 -101.283 651.734 -92.8451 648.579C-90.9002 647.317 -88.7211 645.854 -86.8469 644.243C-82.1616 640.217 -77.4276 637.787 -72.8837 633.062C-64.1717 623.116 -53.6473 619.398 -46.0183 605.466Z" fill="#FDA942"/>
<path d="M8.7096 541.697C12.275 538.537 15.3642 531.499 19.6915 533.682C20.3332 532.683 21.2839 531.841 21.9256 530.842C31.2906 521.681 39.9182 510.163 48.9262 499.169C52.5865 495.064 54.0832 489.868 53.963 483.525C38.1324 496.698 22.4445 510.604 7.47062 528.177C5.09454 534.583 4.38235 539.514 8.7096 541.697Z" fill="#ED952D"/>
<path d="M20.953 543.2C6.53832 556.483 -7.87635 569.766 -22.5258 583.252C-20.1703 589.478 -17.0958 585.582 -13.5741 582.539C-3.94811 574.22 6.05423 566.403 15.751 558.436C18.8032 555.798 21.1025 552.159 21.8961 546.516C21.6836 545.46 21.4711 544.404 20.953 543.2Z" fill="#F6941D"/>
<path d="M22.1529 551.029C19.3512 554.535 16.0841 557.08 15.7096 564.372C16.4684 566.916 17.2272 569.459 18.0594 572.398C24.8217 559.223 33.8745 566.171 40.7576 555.201C39.8522 551.867 39.2657 548.702 41.037 544.292C34.5541 546.556 28.3168 548.595 22.1529 551.029Z" fill="#EE8B15"/>
<path d="M49.6198 501.418C38.6533 505.991 29.4644 516.942 22.2935 534.056C34.6774 533.97 42.9776 519.829 49.6198 501.418Z" fill="#FAA239"/>
<path d="M-1.08692 613.066C-0.963657 606.257 2.55796 603.961 5.23613 600.197C1.06834 590.129 -3.34953 602.612 -7.73918 604.801C-12.6835 607.045 -17.5803 611.032 -22.6214 614.257C-27.9548 624.891 -35.5772 630.9 -39.3682 643.709C-30.3248 642.218 -21.3308 643.451 -12.2592 631.665C-14.8863 628.239 -16.9587 624.758 -11.1217 621.259C-7.76912 619.563 -4.17535 617.648 -1.08692 613.066Z" fill="#F5921C"/>
<path d="M-20.4531 609.052C-22.4424 611.655 -24.1949 614.049 -24.1933 618.303C-14.8364 612.189 -5.64519 606.646 3.71166 600.532C7.40539 593.875 16.0532 592.64 13.6549 579.01C1.4789 586.33 -8.89331 601.423 -20.4531 609.052Z" fill="#EB8811"/>
<path d="M-15.2886 465.452C-17.3735 467.763 -19.2906 469.484 -21.3029 467.775C-33.6906 470.547 -43.421 487.192 -54.3723 497.463C-57.2479 500.045 -60.2436 504.932 -59.3341 511.146C-58.5206 518.327 -54.663 517.94 -51.0927 516.053C-42.2028 511.148 -33.7673 500.938 -24.8774 496.034C-23.3678 495.118 -21.9301 493.827 -20.4923 492.537C-13.8302 484.798 -6.42573 479.469 -0.961147 468.411C-3.42723 457.001 -10.6168 467.85 -15.2886 465.452Z" fill="#FEAC46"/>
<path d="M-1.30387 474.637C-8.6295 479.025 -15.5234 485.676 -22.2977 494.429C-17.9054 504.177 -12.6686 497.692 -7.43171 491.208C-6.44656 488.994 -5.46137 486.781 -5.10052 484.245C0.856937 477.112 6.81433 469.978 13.012 462.628C16.7113 458.412 19.2341 453.93 17.3866 447.195C11.9084 458.317 5.7583 467.393 -1.30387 474.637Z" fill="#F79F37"/>
<path d="M-4.30087 488.987C-5.25786 489.844 -5.90392 490.861 -6.54993 491.877C-9.47022 510.249 -3.1781 505.051 3.01827 500.814C10.364 485.043 22.1821 482.336 30.1975 468.591C20.6048 465.366 12.5654 480.445 3.45037 485.546C0.842706 486.569 -1.43032 490.793 -4.30087 488.987Z" fill="#EA8A17"/>
<path d="M4.67804 496.024C0.912692 494.065 -5.02823 498.556 -4.97488 486.867C-9.7577 492.995 -14.6603 496.992 -19.9223 494.6C-20.8883 495.476 -21.5406 496.515 -22.5067 497.391C-29.0999 502.921 -35.91 507.305 -41.3698 515.837C-45.3559 521.69 -49.9942 528.582 -47.8739 538.3C-40.8985 542.272 -34.4725 532.864 -27.9763 528.317C-21.2385 523.552 -14.7176 517.639 -7.78776 515.385C-2.88514 511.388 2.16204 508.155 5.64222 499.627C5.4977 498.862 4.96709 497.553 4.67804 496.024Z" fill="#ED962F"/>
<path d="M5.45046 507.379C1.07778 512.113 -3.98533 511.873 -8.00108 518.439C-5.57481 526.603 -2.17622 524.021 1.76814 517.088C8.27973 510.458 13.9112 500.741 21.0888 496.099C24.5587 493.884 24.7955 489.376 25.0322 484.869C18.6634 492.232 12.0569 499.805 5.45046 507.379Z" fill="#FAA33B"/>
<path d="M3.68904 509.902C0.449358 510.61 -2.91083 513.633 -6.17384 511.275C-20.0441 512.283 -32.0942 530.183 -45.5339 537.863C-57.415 550.758 -70.4913 542.669 -82.3491 558.632C-84.5102 564.988 -84.3916 571.5 -84.825 578.066C-82.1625 583.171 -85.1893 598.248 -76.3574 592.949C-73.6697 592.296 -71.0539 591.266 -68.5818 589.483C-62.0296 584.029 -55.6931 577.446 -49.0213 574.091C-29.7727 558.537 -11.6513 540.028 4.33621 513.29C4.74433 512.482 4.21669 511.192 3.68904 509.902Z" fill="#FEAA42"/>
<path d="M5.86475 522.221C-8.29744 538.822 -24.117 548.454 -37.1193 569.513C-39.4319 573.221 -43.9198 572.937 -47.5091 574.394C-50.3601 586.572 -60.3742 587.755 -62.1615 601.108C-51.7946 597.51 -42.3286 587.965 -33.3119 577.55C-19.3858 561.155 -5.67282 543.683 10.3371 536.412C10.0275 532.051 9.64684 527.332 9.33726 522.972C8.17975 522.722 7.02227 522.471 5.86475 522.221Z" fill="#EE9731"/>
<path d="M-84.8311 551.514C-77.9428 546.68 -71.436 541.319 -64.404 545.889C-57.4435 550.089 -54.6083 531.533 -48.292 528.075C-43.7884 508.033 -32.3237 500.857 -23.7436 488.884C-30.9658 490.549 -37.7826 495.753 -44.1702 503.174C-48.3173 507.734 -52.3692 511.342 -58.1616 507.401C-46.2687 489.445 -32.0629 481.994 -20.9803 465.626C-5.96485 447.922 8.6692 429.691 23.2077 408.079C12.0045 405.057 6.59537 427.638 -2.4146 428.729C-8.08741 431.181 -12.2821 438.382 -16.9297 444.687C-15.2366 454.878 -12.1147 446.466 -9.183 444.288C-29.5377 463.281 -48.7002 485.544 -69.5557 501.95C-81.8544 512.035 -93.2709 525.234 -105.427 536.059C-111.695 541.208 -117.964 546.357 -124.018 552.614C-126.425 556.058 -128.999 560.083 -128.14 564.518C-126.757 570.219 -122.848 570.204 -119.297 568.341C-109.977 563.075 -101.016 555.961 -91.6722 549.374C-91.6244 551.065 -88.0258 542.227 -90.3612 550.373C-90.6232 551.906 -91.1952 553.282 -91.4573 554.815C-88.7874 558.504 -86.7376 557.545 -84.8311 551.514Z" fill="#F79F37"/>
</g>
</svg>
