<svg width="65" height="65" viewBox="0 0 65 65" fill="none" xmlns="http://www.w3.org/2000/svg">
<circle cx="32.5" cy="32.5" r="32.5" fill="#FF5000"/>
<path d="M32.9973 29.6652C31.1611 29.6652 29.6626 31.1638 29.6626 33C29.6626 34.8362 31.1611 36.3348 32.9973 36.3348C34.8335 36.3348 36.332 34.8362 36.332 33C36.332 31.1638 34.8335 29.6652 32.9973 29.6652ZM42.9989 33C42.9989 31.6191 43.0114 30.2506 42.9338 28.8722C42.8563 27.2711 42.4911 25.8502 41.3203 24.6794C40.147 23.5061 38.7286 23.1433 37.1275 23.0658C35.7466 22.9882 34.3782 23.0007 32.9998 23.0007C31.6189 23.0007 30.2505 22.9882 28.8721 23.0658C27.271 23.1433 25.8501 23.5086 24.6793 24.6794C23.5061 25.8527 23.1433 27.2711 23.0658 28.8722C22.9882 30.2531 23.0007 31.6216 23.0007 33C23.0007 34.3784 22.9882 35.7494 23.0658 37.1278C23.1433 38.7289 23.5086 40.1498 24.6793 41.3206C25.8526 42.4939 27.271 42.8567 28.8721 42.9342C30.253 43.0118 31.6214 42.9993 32.9998 42.9993C34.3807 42.9993 35.7491 43.0118 37.1275 42.9342C38.7286 42.8567 40.1495 42.4914 41.3203 41.3206C42.4936 40.1473 42.8563 38.7289 42.9338 37.1278C43.0139 35.7494 42.9989 34.3809 42.9989 33ZM32.9973 38.131C30.1579 38.131 27.8664 35.8394 27.8664 33C27.8664 30.1606 30.1579 27.869 32.9973 27.869C35.8367 27.869 38.1282 30.1606 38.1282 33C38.1282 35.8394 35.8367 38.131 32.9973 38.131ZM38.3383 28.8572C37.6754 28.8572 37.14 28.3218 37.14 27.6589C37.14 26.9959 37.6754 26.4606 38.3383 26.4606C39.0013 26.4606 39.5366 26.9959 39.5366 27.6589C39.5368 27.8163 39.5059 27.9722 39.4458 28.1177C39.3856 28.2632 39.2974 28.3954 39.1861 28.5067C39.0748 28.618 38.9426 28.7062 38.7971 28.7664C38.6516 28.8265 38.4957 28.8574 38.3383 28.8572Z" fill="white"/>
</svg>
