<svg width="47" height="47" viewBox="0 0 47 47" fill="none" xmlns="http://www.w3.org/2000/svg">
<path d="M23.5006 17.3811C20.1316 17.3811 17.3823 20.1304 17.3823 23.4993C17.3823 26.8683 20.1316 29.6176 23.5006 29.6176C26.8695 29.6176 29.6188 26.8683 29.6188 23.4993C29.6188 20.1304 26.8695 17.3811 23.5006 17.3811ZM41.8508 23.4993C41.8508 20.9657 41.8737 18.4551 41.7314 15.9261C41.5892 12.9886 40.919 10.3815 38.771 8.23349C36.6184 6.08086 34.0159 5.41533 31.0784 5.27304C28.5448 5.13076 26.0342 5.15371 23.5052 5.15371C20.9716 5.15371 18.4609 5.13076 15.9319 5.27304C12.9944 5.41533 10.3874 6.08545 8.23935 8.23349C6.08672 10.3861 5.42119 12.9886 5.2789 15.9261C5.13662 18.4597 5.15957 20.9703 5.15957 23.4993C5.15957 26.0283 5.13662 28.5436 5.2789 31.0726C5.42119 34.0101 6.09131 36.6171 8.23935 38.7651C10.392 40.9178 12.9944 41.5833 15.9319 41.7256C18.4655 41.8679 20.9762 41.8449 23.5052 41.8449C26.0388 41.8449 28.5494 41.8679 31.0784 41.7256C34.0159 41.5833 36.623 40.9132 38.771 38.7651C40.9236 36.6125 41.5892 34.0101 41.7314 31.0726C41.8783 28.5436 41.8508 26.0329 41.8508 23.4993ZM23.5006 32.9131C18.2911 32.9131 14.0868 28.7088 14.0868 23.4993C14.0868 18.2898 18.2911 14.0855 23.5006 14.0855C28.7101 14.0855 32.9144 18.2898 32.9144 23.4993C32.9144 28.7088 28.7101 32.9131 23.5006 32.9131ZM33.2999 15.8985C32.0836 15.8985 31.1014 14.9163 31.1014 13.7C31.1014 12.4837 32.0836 11.5015 33.2999 11.5015C34.5162 11.5015 35.4984 12.4837 35.4984 13.7C35.4988 13.9888 35.4422 14.2749 35.3318 14.5418C35.2215 14.8087 35.0595 15.0512 34.8553 15.2554C34.6511 15.4596 34.4086 15.6216 34.1417 15.7319C33.8748 15.8423 33.5887 15.8989 33.2999 15.8985Z" fill="white"/>
</svg>
