<svg width="346" height="200" viewBox="0 0 346 200" fill="none" xmlns="http://www.w3.org/2000/svg">
<path fill-rule="evenodd" clip-rule="evenodd" d="M72.9343 32.2776C66.0153 34.4248 59.4801 36.8167 53.3828 39.4298C35.0633 47.2811 20.8132 57.0715 11.9151 68.1409C16.1873 80.4912 24.6097 93.539 36.5589 106.504C59.8434 131.769 96.2729 156.419 140.34 174.413C144.025 175.918 147.704 177.352 151.373 178.716C157.642 179.252 164.019 179.634 170.485 179.851C218.058 181.449 261.383 173.851 292.962 160.316C308.734 153.557 321.49 145.36 330.411 136.148C326.623 122.739 317.752 108.397 304.625 94.1534C304.01 93.4865 303.387 92.82 302.754 92.154C302.688 91.1091 302.609 90.0661 302.518 89.0253C303.742 90.2806 304.935 91.5384 306.096 92.7979C318.923 106.715 327.908 120.938 332 134.451C339.997 125.616 344.515 115.894 344.86 105.642C345.59 83.897 327.428 63.2705 296.75 47.607C294.529 46.4731 292.244 45.3662 289.898 44.2878C289.66 43.8101 289.419 43.334 289.175 42.8593C324.682 58.9097 346.674 81.4299 345.859 105.675C345.499 116.396 340.712 126.48 332.329 135.574C332.065 135.86 331.798 136.145 331.528 136.429C331.631 136.807 331.73 137.185 331.825 137.562C334.352 147.557 334.06 157.062 330.554 165.647C314.579 204.768 237.596 210.815 154.679 180.989C153.504 180.567 152.329 180.137 151.153 179.7C149.901 179.593 148.654 179.479 147.412 179.359C63.122 171.235 -0.893245 135.126 0.48623 94.0708C0.785233 85.172 4.13401 76.7113 10.0584 68.892C10.2984 68.5752 10.5427 68.2594 10.7911 67.9447C10.663 67.5648 10.5387 67.1855 10.4183 66.8068C6.80895 55.4535 6.69309 44.6523 10.6303 35.0103C20.8193 10.0579 55.8286 -1.43938 101.367 1.24532C100.969 1.55427 100.572 1.86576 100.178 2.17976C92.8831 1.78601 85.8676 1.76058 79.1911 2.10008C44.79 3.84943 19.781 15.2458 11.5561 35.3884C7.79865 44.5901 7.8204 54.94 11.1781 65.8834C20.4223 54.8601 34.7252 45.25 52.5949 37.5915C59.4386 34.6585 66.8216 32.0037 74.6694 29.6585C74.0798 30.5248 73.5014 31.3979 72.9343 32.2776ZM35.0883 107.86C23.4635 95.2465 14.9937 82.3822 10.4627 70.0234C4.89176 77.5565 1.76973 85.6503 1.48567 94.1043C0.755031 115.849 18.9174 136.476 49.5957 152.139C74.3731 164.79 107.095 174.075 143.906 177.999C142.466 177.431 141.026 176.854 139.584 176.265C95.3075 158.185 58.6128 133.384 35.0883 107.86ZM293.75 162.155C309.124 155.566 321.857 147.533 331.001 138.398C333.322 148.003 332.968 157.09 329.628 165.269C321.403 185.412 296.394 196.808 261.993 198.558C232.39 200.063 196.12 194.394 158.424 181.255C162.385 181.515 166.385 181.714 170.418 181.85C218.217 183.456 261.845 175.828 293.75 162.155Z" fill="white"/>
</svg>
