<svg width="77" height="100" viewBox="0 0 77 100" fill="none" xmlns="http://www.w3.org/2000/svg">
<path fill-rule="evenodd" clip-rule="evenodd" d="M55.209 24.393C52.743 22.5256 50.165 19.6904 45.7924 17.7729C48.9924 17.7957 54.0319 20.1947 55.209 24.393Z" fill="#2C2C2C"/>
<path fill-rule="evenodd" clip-rule="evenodd" d="M52.3684 24.9973C52.8876 25.2744 53.2724 25.4516 53.7021 25.5743C54.5077 25.806 55.1746 25.8696 55.8683 26.1468C56.4232 26.3649 56.8708 26.692 57.2646 27.0873C57.6227 27.4463 57.8868 27.7734 58.0926 28.1232C58.5044 28.8275 58.8579 29.9225 58.8535 30.7449C58.5268 30.3496 58.2358 30.0497 57.9226 29.7771C57.4437 29.3637 56.9693 29.0683 56.4546 28.8139C56.0786 28.6276 55.7474 28.4549 55.4386 28.2641C54.078 27.4463 53.2859 26.2513 52.3684 24.9973Z" fill="#2C2C2C"/>
<path fill-rule="evenodd" clip-rule="evenodd" d="M58.8577 30.7677C58.8622 29.5727 57.9178 27.5326 57.3763 26.7602C56.9914 26.2104 56.7094 25.5925 56.4498 24.9518C55.9844 23.8159 55.586 22.5165 55.4607 21.5305C56.0515 21.9576 56.6378 22.3756 57.3047 22.9708C58.6966 24.3112 59.4753 25.747 59.2918 27.7189C59.2202 28.4686 59.1978 30.0997 58.8577 30.7677Z" fill="#2C2C2C"/>
<path fill-rule="evenodd" clip-rule="evenodd" d="M56.3915 30.9722C56.848 31.3447 57.1926 31.5946 57.5909 31.8036C58.3339 32.1899 58.9784 32.3898 59.6049 32.7942C60.1062 33.1213 60.4821 33.5302 60.791 33.9937C61.0729 34.4162 61.2698 34.7888 61.3996 35.1705C61.6682 35.9429 61.8069 37.0878 61.6413 37.8921C61.3996 37.4422 61.1714 37.0878 60.9163 36.7607C60.5269 36.2564 60.1196 35.8793 59.6631 35.5249C59.3319 35.2659 59.041 35.0296 58.7725 34.7842C57.5999 33.7165 57.0539 32.3852 56.3915 30.9722Z" fill="#2C2C2C"/>
<path fill-rule="evenodd" clip-rule="evenodd" d="M61.6506 37.9238C61.8834 36.7516 61.3508 34.5616 60.9659 33.7028C60.6929 33.0894 60.5362 32.4261 60.402 31.7445C60.1648 30.5405 60.026 29.1865 60.0887 28.196C60.5855 28.7321 61.0822 29.2546 61.6193 29.9725C62.7293 31.5628 63.2126 33.1303 62.6576 35.025C62.4518 35.7384 62.1116 37.3286 61.6506 37.9238Z" fill="#2C2C2C"/>
<path fill-rule="evenodd" clip-rule="evenodd" d="M58.8123 36.9606C59.1838 37.5058 59.4658 37.8829 59.8283 38.2282C60.4996 38.878 61.1217 39.296 61.6633 39.9275C62.0974 40.4364 62.3704 40.9907 62.5539 41.586C62.7195 42.1266 62.8135 42.5855 62.8359 43.0354C62.8806 43.9395 62.6703 45.2072 62.2451 46.0114C62.1287 45.4526 61.9945 45.0027 61.8244 44.5711C61.5648 43.9123 61.2515 43.3761 60.8756 42.8536C60.6026 42.472 60.3654 42.1266 60.155 41.7813C59.2465 40.2638 59.0764 38.6735 58.8123 36.9606Z" fill="#2C2C2C"/>
<path fill-rule="evenodd" clip-rule="evenodd" d="M62.2455 46.0478C62.8586 44.8755 62.975 42.3765 62.8362 41.3315C62.7378 40.5909 62.7781 39.8321 62.8497 39.0643C62.9705 37.7057 63.248 36.22 63.6239 35.184C63.982 35.9155 64.3445 36.6289 64.6936 37.5694C65.3783 39.6186 65.4097 41.4406 64.2237 43.2807C63.7761 43.9759 62.9168 45.5616 62.2455 46.0478Z" fill="#2C2C2C"/>
<path fill-rule="evenodd" clip-rule="evenodd" d="M59.9413 44.0032C60.1964 44.6302 60.4023 45.0664 60.6932 45.4935C61.2303 46.2886 61.7674 46.8429 62.1702 47.5926C62.4969 48.1969 62.6535 48.8103 62.7117 49.4419C62.7654 50.0189 62.7609 50.496 62.6893 50.9549C62.5461 51.8727 62.0672 53.0949 61.472 53.8083C61.472 53.2221 61.4317 52.7451 61.3556 52.2771C61.2348 51.5592 61.0334 50.9549 60.7648 50.3506C60.5724 49.9099 60.4068 49.5146 60.2725 49.1238C59.6773 47.4063 59.8429 45.7752 59.9413 44.0032Z" fill="#2C2C2C"/>
<path fill-rule="evenodd" clip-rule="evenodd" d="M61.4668 53.84C62.3261 52.7996 62.9661 50.3188 63.0466 49.2465C63.1003 48.4831 63.3017 47.738 63.5345 46.9838C63.9417 45.6479 64.528 44.2212 65.1233 43.2671C65.3336 44.0759 65.544 44.871 65.6962 45.8887C65.9513 48.0879 65.5977 49.9189 64.0268 51.5046C63.4315 52.0999 62.241 53.5038 61.4668 53.84Z" fill="#2C2C2C"/>
<path fill-rule="evenodd" clip-rule="evenodd" d="M59.8138 50.7323C59.8765 51.4593 59.9526 51.9772 60.1137 52.5134C60.4135 53.5084 60.7895 54.2536 60.973 55.1578C61.1162 55.8847 61.0849 56.5708 60.9461 57.2433C60.8208 57.8566 60.6642 58.3474 60.4449 58.7972C60.0063 59.6923 59.1246 60.7963 58.2877 61.337C58.4711 60.7327 58.583 60.2284 58.6502 59.7195C58.7531 58.9426 58.7352 58.2519 58.6502 57.5431C58.592 57.0252 58.5472 56.5663 58.5293 56.1165C58.4667 54.1491 59.1514 52.5225 59.8138 50.7323Z" fill="#2C2C2C"/>
<path fill-rule="evenodd" clip-rule="evenodd" d="M58.27 61.3597C59.4873 60.5691 60.933 58.2247 61.3537 57.1478C61.6535 56.3754 62.0966 55.6757 62.5755 54.9714C63.4214 53.731 64.4731 52.4543 65.3906 51.6637C65.3503 52.5679 65.319 53.4539 65.1489 54.5489C64.7148 56.8979 63.7705 58.6654 61.649 59.7876C60.8434 60.2102 59.1741 61.2689 58.27 61.3597Z" fill="#2C2C2C"/>
<path fill-rule="evenodd" clip-rule="evenodd" d="M57.5371 57.4386C57.3581 58.2383 57.2641 58.8199 57.2551 59.4423C57.2372 60.6055 57.3894 61.5324 57.2775 62.5638C57.188 63.3907 56.9195 64.1086 56.5435 64.7765C56.2034 65.3853 55.8722 65.8533 55.4828 66.2577C54.7086 67.0619 53.4017 67.9298 52.3276 68.2115C52.7304 67.6344 53.0213 67.1301 53.263 66.6121C53.6344 65.817 53.8493 65.0764 54.0014 64.2949C54.1133 63.7224 54.2207 63.2135 54.355 62.7319C54.9413 60.6146 56.2258 59.1197 57.5371 57.4386Z" fill="#2C2C2C"/>
<path fill-rule="evenodd" clip-rule="evenodd" d="M52.296 68.2342C53.8625 67.8162 56.1942 65.8215 57.0043 64.8128C57.5861 64.0995 58.2933 63.4997 59.0407 62.9182C60.361 61.8868 61.9185 60.8917 63.1582 60.3692C62.8091 61.3143 62.4734 62.2548 61.9274 63.3634C60.6698 65.7125 59.0675 67.2755 56.427 67.7298C55.4334 67.9025 53.2941 68.4477 52.296 68.2342Z" fill="#2C2C2C"/>
<path fill-rule="evenodd" clip-rule="evenodd" d="M53.6914 62.9776C53.1629 63.7899 52.8172 64.3916 52.5554 65.0786C52.0664 66.3572 51.8639 67.4403 51.3157 68.5334C50.8761 69.4109 50.2735 70.0978 49.5672 70.6845C48.9251 71.221 48.3472 71.6071 47.7348 71.8979C46.5099 72.4746 44.6379 72.9158 43.2698 72.7955C43.9711 72.3191 44.5095 71.8779 45.0034 71.4065C45.7591 70.6795 46.3074 69.9474 46.7963 69.1401C47.1569 68.5534 47.4878 68.037 47.8434 67.5556C49.3894 65.4496 51.4885 64.3064 53.6914 62.9776Z" fill="#2C2C2C"/>
<path fill-rule="evenodd" clip-rule="evenodd" d="M43.2703 72.6369C45.0739 72.7823 48.265 71.6282 49.4868 70.9194C50.3595 70.4151 51.3263 70.0743 52.3288 69.7608C54.0966 69.2065 56.1017 68.7748 57.6055 68.7021C56.8894 69.5245 56.1957 70.3378 55.211 71.2511C53.0225 73.1503 50.7623 74.1318 47.813 73.6274C46.6985 73.4411 44.2459 73.2139 43.2703 72.6369Z" fill="#2C2C2C"/>
<path fill-rule="evenodd" clip-rule="evenodd" d="M19.832 23.9975C22.2981 22.1301 24.876 19.2949 29.2486 17.3775C26.0486 17.4002 21.0091 19.7992 19.832 23.9975Z" fill="#2C2C2C"/>
<path fill-rule="evenodd" clip-rule="evenodd" d="M22.6726 24.6019C22.1535 24.879 21.7686 25.0562 21.3389 25.1789C20.5333 25.4106 19.8665 25.4742 19.1727 25.7514C18.6178 25.9695 18.1702 26.2966 17.7764 26.6919C17.4183 27.0509 17.1543 27.378 16.9484 27.7279C16.5366 28.4321 16.1831 29.5271 16.1875 30.3495C16.5143 29.9542 16.8052 29.6543 17.1185 29.3817C17.5973 28.9683 18.0718 28.6729 18.5864 28.4185C18.9624 28.2322 19.2936 28.0595 19.6024 27.8687C20.963 27.0509 21.7551 25.8559 22.6726 24.6019Z" fill="#2C2C2C"/>
<path fill-rule="evenodd" clip-rule="evenodd" d="M16.1833 30.3723C16.1789 29.1773 17.1232 27.1372 17.6647 26.3648C18.0496 25.815 18.3316 25.1971 18.5912 24.5565C19.0566 23.4206 19.455 22.1211 19.5803 21.1351C18.9895 21.5622 18.4032 21.9802 17.7364 22.5755C16.3445 23.9158 15.5657 25.3516 15.7492 27.3235C15.8208 28.0732 15.8432 29.7044 16.1833 30.3723Z" fill="#2C2C2C"/>
<path fill-rule="evenodd" clip-rule="evenodd" d="M18.6495 30.5768C18.193 30.9494 17.8484 31.1993 17.4501 31.4083C16.7072 31.7945 16.0627 31.9944 15.4361 32.3988C14.9348 32.7259 14.5589 33.1348 14.2501 33.5983C13.9681 34.0208 13.7712 34.3934 13.6414 34.7751C13.3729 35.5475 13.2341 36.6925 13.3997 37.4967C13.6414 37.0469 13.8696 36.6925 14.1247 36.3653C14.5141 35.861 14.9214 35.4839 15.3779 35.1295C15.7091 34.8705 16 34.6342 16.2685 34.3889C17.4411 33.3211 17.9872 31.9898 18.6495 30.5768Z" fill="#2C2C2C"/>
<path fill-rule="evenodd" clip-rule="evenodd" d="M13.3904 37.5285C13.1576 36.3562 13.6902 34.1662 14.0751 33.3075C14.3481 32.6941 14.5048 32.0307 14.6391 31.3492C14.8763 30.1451 15.015 28.7911 14.9523 27.8006C14.4556 28.3367 13.9588 28.8593 13.4217 29.5772C12.3118 31.1674 11.8284 32.735 12.3834 34.6297C12.5892 35.343 12.9294 36.9333 13.3904 37.5285Z" fill="#2C2C2C"/>
<path fill-rule="evenodd" clip-rule="evenodd" d="M16.2287 36.5652C15.8572 37.1104 15.5752 37.4875 15.2127 37.8329C14.5414 38.4826 13.9193 38.9006 13.3777 39.5322C12.9436 40.041 12.6706 40.5954 12.4871 41.1906C12.3215 41.7313 12.2275 42.1902 12.2051 42.64C12.1604 43.5442 12.3707 44.8118 12.7959 45.616C12.9123 45.0572 13.0465 44.6074 13.2166 44.1757C13.4762 43.5169 13.7895 42.9807 14.1654 42.4582C14.4384 42.0766 14.6756 41.7313 14.886 41.3859C15.7945 39.8684 15.9646 38.2781 16.2287 36.5652Z" fill="#2C2C2C"/>
<path fill-rule="evenodd" clip-rule="evenodd" d="M12.7956 45.6525C12.1824 44.4802 12.066 41.9812 12.2048 40.9362C12.3033 40.1956 12.263 39.4368 12.1914 38.6689C12.0705 37.3104 11.793 35.8246 11.4171 34.7887C11.059 35.5202 10.6965 36.2336 10.3474 37.1741C9.66267 39.2233 9.63134 41.0452 10.8174 42.8854C11.2649 43.5806 12.1242 45.1663 12.7956 45.6525Z" fill="#2C2C2C"/>
<path fill-rule="evenodd" clip-rule="evenodd" d="M15.1016 43.6078C14.8465 44.2349 14.6407 44.6711 14.3497 45.0982C13.8127 45.8933 13.2756 46.4476 12.8728 47.1973C12.5461 47.8016 12.3894 48.415 12.3313 49.0465C12.2776 49.6236 12.282 50.1007 12.3536 50.5596C12.4969 51.4774 12.9757 52.6996 13.571 53.413C13.571 52.8268 13.6113 52.3498 13.6874 51.8818C13.8082 51.1639 14.0096 50.5596 14.2781 49.9553C14.4706 49.5145 14.6362 49.1192 14.7705 48.7285C15.3657 47.011 15.2001 45.3799 15.1016 43.6078Z" fill="#2C2C2C"/>
<path fill-rule="evenodd" clip-rule="evenodd" d="M13.5743 53.4447C12.715 52.4042 12.0749 49.9234 11.9944 48.8511C11.9407 48.0878 11.7393 47.3426 11.5065 46.5884C11.0993 45.2526 10.513 43.8259 9.91772 42.8717C9.70737 43.6805 9.49702 44.4756 9.34485 45.4934C9.08974 47.6925 9.44331 49.5235 11.0142 51.1093C11.6095 51.7045 12.8 53.1084 13.5743 53.4447Z" fill="#2C2C2C"/>
<path fill-rule="evenodd" clip-rule="evenodd" d="M15.2253 50.3369C15.1626 51.0639 15.0865 51.5819 14.9254 52.118C14.6255 53.1131 14.2496 53.8582 14.0661 54.7624C13.9229 55.4894 13.9542 56.1754 14.0929 56.8479C14.2183 57.4613 14.3749 57.952 14.5942 58.4018C15.0328 59.2969 15.9145 60.401 16.7514 60.9417C16.5679 60.3374 16.456 59.833 16.3889 59.3242C16.286 58.5472 16.3039 57.8566 16.3889 57.1478C16.4471 56.6298 16.4918 56.1709 16.5097 55.7211C16.5724 53.7537 15.8876 52.1271 15.2253 50.3369Z" fill="#2C2C2C"/>
<path fill-rule="evenodd" clip-rule="evenodd" d="M16.7691 60.9644C15.5517 60.1738 14.1061 57.8293 13.6854 56.7525C13.3855 55.9801 12.9425 55.2804 12.4636 54.5761C11.6177 53.3357 10.5659 52.059 9.64844 51.2684C9.68872 52.1725 9.72005 53.0586 9.89012 54.1536C10.3242 56.5026 11.2686 58.2701 13.39 59.3923C14.1956 59.8149 15.865 60.8735 16.7691 60.9644Z" fill="#2C2C2C"/>
<path fill-rule="evenodd" clip-rule="evenodd" d="M17.5039 57.0432C17.6829 57.8429 17.7769 58.4245 17.7859 59.0469C17.8038 60.2101 17.6516 61.137 17.7635 62.1684C17.853 62.9953 18.1215 63.7132 18.4975 64.3811C18.8376 64.99 19.1688 65.458 19.5582 65.8623C20.3325 66.6666 21.6393 67.5344 22.7135 67.8161C22.3107 67.2391 22.0198 66.7347 21.7781 66.2167C21.4066 65.4216 21.1918 64.681 21.0396 63.8995C20.9277 63.327 20.8203 62.8181 20.686 62.3365C20.0997 60.2192 18.8152 58.7243 17.5039 57.0432Z" fill="#2C2C2C"/>
<path fill-rule="evenodd" clip-rule="evenodd" d="M22.745 67.8388C21.1786 67.4208 18.8468 65.4261 18.0367 64.4174C17.4549 63.7041 16.7477 63.1044 16.0003 62.5228C14.68 61.4914 13.1225 60.4963 11.8828 59.9738C12.2319 60.9189 12.5676 61.8594 13.1136 62.968C14.3712 65.3171 15.9735 66.8801 18.6141 67.3344C19.6076 67.5071 21.747 68.0523 22.745 67.8388Z" fill="#2C2C2C"/>
<path fill-rule="evenodd" clip-rule="evenodd" d="M22.1895 62.9656C22.7183 63.7784 23.0642 64.3805 23.3262 65.0679C23.8154 66.3473 24.0181 67.4311 24.5667 68.5249C25.0065 69.4029 25.6095 70.0903 26.3162 70.6773C26.9587 71.2142 27.5369 71.6005 28.1498 71.8915C29.3754 72.4685 31.2485 72.91 32.6175 72.7896C31.9157 72.313 31.377 71.8714 30.8828 71.3998C30.1267 70.6723 29.5781 69.9398 29.0888 69.132C28.728 68.5449 28.3969 68.0281 28.041 67.5465C26.4941 65.4392 24.3937 64.2952 22.1895 62.9656Z" fill="#2C2C2C"/>
<path fill-rule="evenodd" clip-rule="evenodd" d="M31.7727 72.2414C29.9691 72.3868 26.778 71.2328 25.5562 70.524C24.6834 70.0196 23.7167 69.6789 22.7142 69.3654C20.9463 68.811 18.9413 68.3794 17.4375 68.3067C18.1536 69.1291 18.8473 69.9424 19.8319 70.8556C22.0205 72.7548 24.2806 73.7363 27.23 73.2319C28.3444 73.0456 30.7971 72.8185 31.7727 72.2414Z" fill="#2C2C2C"/>
<path d="M11.4741 88.9394C10.8424 88.9394 10.2353 88.8381 9.65296 88.6357C9.07063 88.4333 8.56246 88.1437 8.12845 87.767C7.69445 87.3846 7.38405 86.9319 7.19727 86.409L8.80418 85.7933C8.89757 86.0632 9.07612 86.305 9.33982 86.5186C9.60901 86.7267 9.92765 86.8898 10.2957 87.0078C10.6693 87.1259 11.0621 87.185 11.4741 87.185C11.9136 87.185 12.3257 87.1119 12.7102 86.9657C13.1003 86.8195 13.4134 86.617 13.6496 86.3584C13.8914 86.0997 14.0122 85.7961 14.0122 85.4475C14.0122 85.0876 13.8859 84.7924 13.6332 84.5618C13.3859 84.3313 13.0673 84.1485 12.6773 84.0136C12.2927 83.8786 11.8917 83.7774 11.4741 83.7099C10.6666 83.575 9.94138 83.3782 9.29861 83.1195C8.66134 82.8609 8.15592 82.4982 7.78235 82.0315C7.41427 81.5647 7.23023 80.9575 7.23023 80.2096C7.23023 79.5067 7.42526 78.8938 7.81531 78.3709C8.21086 77.8479 8.73001 77.4431 9.37278 77.1563C10.021 76.8639 10.7215 76.7177 11.4741 76.7177C12.0949 76.7177 12.6937 76.8189 13.2706 77.0213C13.8529 77.2181 14.3638 77.5077 14.8033 77.8901C15.2483 78.2668 15.567 78.7251 15.7592 79.2649L14.1358 79.8638C14.0424 79.5883 13.8639 79.3493 13.6002 79.1468C13.3365 78.9388 13.0179 78.7757 12.6443 78.6576C12.2762 78.5396 11.8862 78.4805 11.4741 78.4805C11.0346 78.4749 10.6226 78.548 10.238 78.6998C9.85897 78.846 9.54858 79.0484 9.30685 79.3071C9.06513 79.5658 8.94427 79.8666 8.94427 80.2096C8.94427 80.6313 9.05689 80.9518 9.28213 81.1711C9.50738 81.3904 9.80953 81.5535 10.1886 81.6603C10.5732 81.7616 11.0017 81.8543 11.4741 81.9387C12.2323 82.0624 12.9327 82.2676 13.5755 82.5544C14.2237 82.8412 14.7429 83.2235 15.1329 83.7015C15.5285 84.1738 15.7263 84.7558 15.7263 85.4475C15.7263 86.1447 15.5285 86.7576 15.1329 87.2862C14.7429 87.8091 14.2237 88.2168 13.5755 88.5092C12.9327 88.796 12.2323 88.9394 11.4741 88.9394Z" fill="#2C2C2C"/>
<path d="M21.8529 82.0399H20.1224L20.1141 88.7201H18.4001L18.4083 82.0399H17.0981V80.2855H18.4083L18.4001 77.6371H20.1141L20.1224 80.2855H21.8529V82.0399Z" fill="#2C2C2C"/>
<path d="M29.5886 80.2855H31.3026V88.7201H29.5804L29.5144 87.497C29.2727 87.93 28.9458 88.2786 28.5338 88.5429C28.1273 88.8072 27.6438 88.9394 27.0835 88.9394C26.4737 88.9394 25.9023 88.8241 25.3694 88.5935C24.842 88.3574 24.3751 88.0312 23.9685 87.6151C23.5675 87.199 23.2516 86.7211 23.0209 86.1813C22.7956 85.6358 22.683 85.051 22.683 84.4269C22.683 83.8252 22.7929 83.2601 23.0126 82.7315C23.2324 82.1973 23.5373 81.7306 23.9273 81.3314C24.3174 80.9322 24.7679 80.6201 25.2788 80.3952C25.7952 80.1646 26.3473 80.0493 26.9351 80.0493C27.534 80.0493 28.0613 80.1899 28.5173 80.4711C28.9788 80.7466 29.3579 81.1008 29.6545 81.5338L29.5886 80.2855ZM27.1247 87.244C27.6191 87.244 28.0449 87.1175 28.402 86.8645C28.7645 86.6114 29.0365 86.2712 29.2178 85.8439C29.4046 85.4165 29.4842 84.9442 29.4568 84.4269C29.4238 83.932 29.2947 83.4822 29.0694 83.0773C28.8497 82.6725 28.5558 82.352 28.1877 82.1158C27.8196 81.874 27.4021 81.7531 26.9351 81.7531C26.4462 81.7531 26.004 81.8796 25.6084 82.1327C25.2183 82.3857 24.9162 82.7259 24.7019 83.1533C24.4877 83.5806 24.3943 84.0558 24.4218 84.5787C24.4547 85.0679 24.5976 85.5149 24.8503 85.9198C25.1085 86.3246 25.4354 86.648 25.8309 86.8898C26.2319 87.1259 26.6632 87.244 27.1247 87.244Z" fill="#2C2C2C"/>
<path d="M38.145 82.0483C38.0022 81.9584 37.8456 81.8881 37.6753 81.8375C37.5105 81.7812 37.3292 81.7531 37.1314 81.7531C36.7029 81.7531 36.3294 81.8684 36.0107 82.0989C35.6921 82.3295 35.4421 82.6416 35.2608 83.0352C35.085 83.4288 34.9971 83.8646 34.9971 84.3425V88.7201H33.2748V80.2855H34.9889V81.4242C35.2746 81.0024 35.6207 80.6707 36.0272 80.4289C36.4392 80.1815 36.898 80.0578 37.4034 80.0578C37.5902 80.0578 37.766 80.0662 37.9308 80.0831C38.1011 80.1 38.2632 80.1337 38.417 80.1843L38.145 82.0483Z" fill="#2C2C2C"/>
<path d="M51.2303 84.3088V88.7201H49.5163V84.3425C49.5163 83.8646 49.4174 83.4288 49.2196 83.0352C49.0273 82.6416 48.7691 82.3295 48.445 82.0989C48.1209 81.8684 47.761 81.7531 47.3655 81.7531C46.937 81.7531 46.5716 81.8684 46.2695 82.0989C45.9673 82.3295 45.7338 82.6416 45.569 83.0352C45.4097 83.4288 45.3301 83.8646 45.3301 84.3425V88.7201H43.6078V76.0682H45.3218V81.2724C45.5525 80.8169 45.8547 80.502 46.2283 80.3277C46.6073 80.1477 47.0413 80.0578 47.5303 80.0578C48.2719 80.0578 48.9174 80.2518 49.4668 80.6398C50.0162 81.0278 50.4447 81.5451 50.7524 82.1917C51.06 82.8327 51.2193 83.5384 51.2303 84.3088Z" fill="#2C2C2C"/>
<path d="M59.1549 80.2855H60.869V88.7201H59.1467L59.0808 87.497C58.839 87.93 58.5122 88.2786 58.1001 88.5429C57.6936 88.8072 57.2101 88.9394 56.6498 88.9394C56.04 88.9394 55.4686 88.8241 54.9357 88.5935C54.4083 88.3574 53.9414 88.0312 53.5348 87.6151C53.1338 87.199 52.8179 86.7211 52.5872 86.1813C52.3619 85.6358 52.2493 85.051 52.2493 84.4269C52.2493 83.8252 52.3592 83.2601 52.5789 82.7315C52.7987 82.1973 53.1036 81.7306 53.4936 81.3314C53.8837 80.9322 54.3342 80.6201 54.8451 80.3952C55.3615 80.1646 55.9136 80.0493 56.5014 80.0493C57.1003 80.0493 57.6277 80.1899 58.0836 80.4711C58.5451 80.7466 58.9242 81.1008 59.2208 81.5338L59.1549 80.2855ZM56.691 87.244C57.1854 87.244 57.6112 87.1175 57.9683 86.8645C58.3309 86.6114 58.6028 86.2712 58.7841 85.8439C58.9709 85.4165 59.0505 84.9442 59.0231 84.4269C58.9901 83.932 58.861 83.4822 58.6358 83.0773C58.416 82.6725 58.1221 82.352 57.754 82.1158C57.3859 81.874 56.9684 81.7531 56.5014 81.7531C56.0125 81.7531 55.5703 81.8796 55.1747 82.1327C54.7847 82.3857 54.4825 82.7259 54.2683 83.1533C54.054 83.5806 53.9606 84.0558 53.9881 84.5787C54.021 85.0679 54.1639 85.5149 54.4166 85.9198C54.6748 86.3246 55.0017 86.648 55.3972 86.8898C55.7983 87.1259 56.2295 87.244 56.691 87.244Z" fill="#2C2C2C"/>
<path d="M62.8412 80.2855H64.5552V88.7201H62.8412V80.2855ZM63.7064 78.8938C63.4482 78.8938 63.2312 78.8067 63.0554 78.6323C62.8796 78.458 62.7917 78.2387 62.7917 77.9744C62.7917 77.7158 62.8796 77.4993 63.0554 77.325C63.2312 77.145 63.4482 77.0551 63.7064 77.0551C63.9591 77.0551 64.1734 77.145 64.3492 77.325C64.525 77.4993 64.6129 77.7158 64.6129 77.9744C64.6129 78.2387 64.525 78.458 64.3492 78.6323C64.1734 78.8067 63.9591 78.8938 63.7064 78.8938Z" fill="#2C2C2C"/>
<path d="M71.9926 82.0483C71.8497 81.9584 71.6932 81.8881 71.5229 81.8375C71.3581 81.7812 71.1768 81.7531 70.979 81.7531C70.5505 81.7531 70.1769 81.8684 69.8583 82.0989C69.5396 82.3295 69.2897 82.6416 69.1084 83.0352C68.9326 83.4288 68.8447 83.8646 68.8447 84.3425V88.7201H67.1224V80.2855H68.8364V81.4242C69.1221 81.0024 69.4682 80.6707 69.8748 80.4289C70.2868 80.1815 70.7455 80.0578 71.2509 80.0578C71.4377 80.0578 71.6135 80.0662 71.7783 80.0831C71.9486 80.1 72.1107 80.1337 72.2645 80.1843L71.9926 82.0483Z" fill="#2C2C2C"/>
<path fill-rule="evenodd" clip-rule="evenodd" d="M36.5067 20.9484C34.9733 21.0561 33.3559 21.304 32.2156 21.606C30.8333 21.9721 29.4237 22.9005 28.7842 23.8661C28.7168 23.9678 28.5456 24.2016 28.4037 24.3856C27.4667 25.6006 26.8085 26.9416 26.4066 28.4551C26.1639 29.3688 25.9795 30.9888 26.0193 31.8587C26.0714 32.9962 26.3425 33.9074 27.1698 35.7256C27.5899 36.6488 27.6144 36.703 27.682 36.8559C28.4774 38.6569 28.6665 40.0366 28.3124 41.4569C28.1699 42.0286 27.5581 43.0797 26.6017 44.3964C25.1033 46.4591 24.5656 47.4379 24.2798 48.6233C24.157 49.1323 24.1212 49.4948 24.1174 50.2643C24.1135 51.066 24.1604 51.3786 24.3759 51.9878C24.6955 52.8915 25.1865 53.638 26.484 55.1926C27.6918 56.6397 28.1247 57.2808 28.4656 58.1278C28.7704 58.8852 28.8556 59.5614 28.7787 60.612C28.71 61.5499 28.5651 62.1475 28.212 62.9502C27.9444 63.5583 27.6733 64.0308 26.8667 65.2952C25.7328 67.0725 25.3152 68.0116 25.1859 69.075C25.1226 69.5959 25.1538 70.4218 25.2511 70.7984L25.2821 70.9184L26.4115 71.2937C27.0327 71.5001 27.5724 71.678 27.6107 71.6891L27.6805 71.7091L27.6033 71.3824C27.3774 70.426 27.3911 69.4789 27.6449 68.5023C27.8864 67.5734 28.2533 66.7982 29.2497 65.1116C30.1777 63.5409 30.5242 62.8648 30.7974 62.0916C31.2242 60.8834 31.3044 59.4618 31.0048 58.4146C30.7036 57.3621 30.2131 56.5814 28.6307 54.6359C27.4464 53.1799 26.9781 52.4069 26.6583 51.3802C26.4679 50.769 26.4261 50.4457 26.4455 49.7348C26.4603 49.194 26.4746 49.0701 26.5637 48.7091C26.8655 47.4875 27.4329 46.4589 28.9243 44.4299C29.6177 43.4866 29.8046 43.1906 30.0002 42.7261C30.3218 41.9626 30.4249 41.4856 30.4485 40.6514C30.4852 39.3574 30.2455 38.4251 29.2843 36.123C28.5097 34.268 28.2737 33.6211 28.0864 32.8403C27.8822 31.9885 27.8706 31.8712 27.8707 30.6649C27.8707 29.47 27.8926 29.2231 28.0729 28.3876C28.2627 27.5079 28.7339 26.3544 29.1962 25.6379C29.6236 24.9756 30.2106 24.3306 30.7879 23.8887C31.1388 23.6202 31.57 23.3403 31.5944 23.3653C31.6017 23.3727 31.4952 23.538 31.3577 23.7324C30.2125 25.3522 29.8193 26.0288 29.5245 26.8862C29.1823 27.8819 29.0607 28.6154 29.063 29.6696C29.0669 31.4235 29.472 32.9248 30.747 35.9112C31.6918 38.124 31.9839 38.89 32.1115 39.4896C32.1744 39.7852 32.1866 39.9446 32.1875 40.4827C32.1885 41.033 32.1778 41.1733 32.1122 41.4732C31.8827 42.5221 31.5337 43.2276 30.334 45.0677C29.3708 46.5451 29.1397 46.9466 28.8173 47.7027C28.4431 48.5806 28.2674 49.5527 28.3453 50.3146C28.4078 50.9259 28.5495 51.4048 28.8496 52.0195C29.1965 52.7302 29.5397 53.221 30.6204 54.5516C31.4322 55.551 31.9417 56.3041 32.2451 56.9528C32.4361 57.3615 32.7725 58.3854 32.8451 58.7797C33.0758 60.0319 32.9127 61.2376 32.3222 62.6448C32.1643 63.021 31.7348 63.9066 31.5348 64.2682C30.0649 66.9254 29.6151 68.0701 29.4966 69.4556C29.4507 69.9921 29.489 70.5997 29.6024 71.1339C29.6398 71.3102 29.6851 71.5666 29.7032 71.7038C29.8018 72.454 30.1221 72.6505 31.3316 72.7024C31.7928 72.7222 32.2122 72.7655 32.344 72.8068C32.3875 72.8205 32.3671 72.7525 32.2545 72.5093C32.0678 72.1058 31.8681 71.4889 31.7712 71.0158C31.7052 70.6941 31.6951 70.5481 31.6954 69.9193C31.6957 69.3004 31.7071 69.1321 31.7733 68.7727C31.9171 67.9922 32.1707 67.1983 32.5563 66.3218C32.7377 65.9096 32.8631 65.6517 33.8749 63.6103C34.989 61.3626 35.3244 60.1938 35.208 58.965C35.1148 57.9812 34.7837 57.1092 34.0998 56.0465C33.7807 55.5507 33.5146 55.1891 32.6698 54.103C31.1582 52.1599 30.6824 51.3217 30.5073 50.2935C30.3661 49.465 30.5205 48.6029 30.9786 47.6612C31.2616 47.0797 31.5361 46.6437 32.5141 45.223C33.13 44.3282 33.5222 43.5969 33.7523 42.9137C33.9133 42.436 34.0148 42.2373 34.1909 42.0552C34.4428 41.7948 34.7701 41.7047 35.1911 41.7797C35.3149 41.8018 35.6764 41.9086 35.9944 42.0171C36.879 42.319 36.8933 42.3217 37.6509 42.3297C38.4003 42.3375 38.4801 42.3231 39.4623 42.0008C40.4154 41.6881 40.8911 41.6677 41.3812 41.9182C41.6444 42.0527 41.7453 42.1606 41.7947 42.3601C41.9886 43.1437 42.4951 43.9899 43.7347 45.6016C44.7222 46.8855 45.1859 47.7565 45.3741 48.6811C45.6198 49.8883 45.2507 51.2926 44.3124 52.7203C43.9912 53.2092 43.7119 53.5875 42.9358 54.5853C42.2562 55.4591 42.0231 55.7662 41.8991 55.9514C41.1198 57.1147 40.8157 57.7663 40.6447 58.6392C40.5691 59.0247 40.5533 59.7581 40.6124 60.1352C40.7273 60.8686 40.8766 61.2514 41.5551 62.5516C41.8735 63.1617 42.264 63.9114 42.4229 64.2176C43.5869 66.4603 44.1451 68.1668 44.2216 69.7169C44.268 70.6565 44.0572 71.8194 43.6957 72.618C43.6501 72.7187 43.6165 72.8049 43.621 72.8095C43.6255 72.8142 44.1549 72.6979 44.7972 72.5513C45.616 72.3643 45.977 72.268 46.0048 72.2292C46.0266 72.1987 46.0976 72.0038 46.1626 71.7961C46.6049 70.3834 46.5501 68.9277 45.9958 67.3625C45.6775 66.4636 45.2727 65.6266 44.3116 63.8798C43.3162 62.0707 43.0514 61.4334 42.9523 60.6085C42.7519 58.9417 43.3266 57.3179 44.8749 55.1757C44.9487 55.0737 45.3273 54.5692 45.7162 54.0547C46.9953 52.3629 47.1758 52.0845 47.3956 51.4645C47.5742 50.9607 47.6339 50.6454 47.6543 50.0981C47.7124 48.5351 47.2055 47.2944 45.4932 44.8089C44.3028 43.0809 44.1634 42.8452 43.956 42.2085C43.6718 41.3361 43.6193 40.5802 43.7764 39.6224C43.9409 38.6195 44.2428 37.822 45.2833 35.6413C45.7122 34.7423 45.8268 34.4769 46.0844 33.7857C46.6673 32.2215 46.8406 31.3435 46.84 29.9564C46.8394 28.5016 46.5996 27.3142 46.0398 25.9942C45.6499 25.0747 45.0569 24.1488 44.4264 23.4751C44.172 23.2032 44.139 23.1483 44.2049 23.1066C44.2478 23.0795 44.5914 23.3066 44.9461 23.5965C46.0513 24.4999 46.8333 25.5347 47.4246 26.8764C47.9024 27.9605 48.1063 28.9326 48.1028 30.1082C48.1007 30.7835 48.0443 31.3399 47.9082 32.0299C47.7125 33.0212 47.5114 33.6826 46.7735 35.7617C45.8741 38.2959 45.6578 39.0444 45.4855 40.2201C45.4139 40.7086 45.5233 41.5128 45.7499 42.1651C46.0339 42.9823 46.4116 43.6013 47.4511 44.953C48.396 46.1818 48.7054 46.6483 49.0475 47.3598C49.4669 48.2325 49.6159 48.8401 49.6153 49.6764C49.6151 50.0774 49.5985 50.282 49.5443 50.5536C49.2937 51.81 48.6685 52.9576 47.1927 54.8703C46.2833 56.0489 46.1558 56.2186 45.8302 56.6839C45.3305 57.398 45.0286 58.0721 44.8569 58.8572C44.7899 59.1632 44.7806 59.2927 44.7829 59.8822C44.7852 60.4824 44.795 60.5998 44.8717 60.945C45.1043 61.9926 45.4718 62.7996 46.5468 64.6239C47.6532 66.5013 48.0106 67.2091 48.3012 68.0984C48.6482 69.16 48.7151 70.2873 48.4888 71.2593C48.4553 71.4036 48.4329 71.5268 48.4391 71.5332C48.4573 71.5518 50.651 70.797 50.7081 70.7525C50.8484 70.6431 50.8646 69.3082 50.7333 68.6774C50.5423 67.7598 50.1353 66.8047 49.4511 65.6683C49.2147 65.2755 49.0975 65.0901 48.4495 64.0826C47.8306 63.1205 47.6897 62.8714 47.5209 62.4417C46.9472 60.9806 47.017 59.5518 47.7424 57.9095C48.1299 57.0322 48.6438 56.2217 49.8951 54.5142C51.2322 52.6895 51.2993 52.5876 51.4709 52.121C51.9093 50.929 51.9253 49.6476 51.5182 48.3422C51.1617 47.1988 50.6124 46.179 49.2477 44.1265C48.5099 43.0168 48.016 42.2305 47.8697 41.9326C47.7644 41.7182 47.5982 41.1939 47.5278 40.8539C47.458 40.5169 47.4753 39.6091 47.5604 39.1398C47.7429 38.1342 48.0324 37.3298 48.8319 35.6076C49.3322 34.5299 49.5193 33.9369 49.6727 32.9422C50.1105 30.1048 49.4523 27.0595 47.901 24.7439C47.7829 24.5676 47.61 24.3323 47.5167 24.2209C47.4235 24.1096 47.2789 23.9198 47.1954 23.7992C47.0325 23.564 46.5382 23.0529 46.168 22.7371C45.5233 22.1871 44.642 21.7074 43.9727 21.5423C42.9286 21.2847 41.5829 21.0739 40.2809 20.9639C39.5722 20.9041 37.2728 20.8946 36.5067 20.9484ZM38.5462 22.3819C39.919 22.4451 40.4429 22.5361 41.3192 22.8634C42.2204 23.1999 42.8153 23.5607 43.3567 24.0989C43.7096 24.4497 44.0811 25.0099 44.15 25.2952C44.1628 25.348 44.2326 25.5261 44.3052 25.691C44.3777 25.856 44.4457 26.0651 44.4562 26.1556C44.476 26.3267 44.4216 26.5657 44.3629 26.5657C44.3447 26.5657 44.216 26.5365 44.0771 26.5008C43.6223 26.3839 43.3062 26.3494 42.6871 26.3488C41.7369 26.348 41.0193 26.4802 40.0007 26.844C39.6135 26.9822 39.6001 26.9904 39.3654 27.2339C38.6754 27.9494 38.4502 29.2396 38.7335 30.8535C38.8479 31.5054 38.8464 31.5015 39.0669 31.6789L39.2636 31.837L39.3939 31.7769C39.5573 31.7015 39.7173 31.5235 39.9637 31.1431C40.0721 30.9757 40.2163 30.8008 40.2929 30.7436C40.4513 30.6255 40.4833 30.6263 41.0555 30.7632C41.6693 30.91 42.0992 30.9618 42.5388 30.9419C42.9729 30.9222 43.2312 30.8632 43.5098 30.7201C43.6645 30.6406 43.7124 30.6306 43.8222 30.6548C44.1808 30.7337 44.3768 31.0865 44.4649 31.812C44.4852 31.979 44.5089 32.1722 44.5176 32.2412C44.5447 32.4554 44.2351 33.8163 43.9667 34.6629C43.419 36.3902 42.6043 37.8309 41.6048 38.8397C40.8416 39.6099 39.847 40.2435 39.0642 40.4579C38.7821 40.5352 38.6844 40.5446 38.1548 40.5462C37.3913 40.5485 36.922 40.4656 35.9516 40.1571C35.5809 40.0392 35.4838 39.9916 35.1682 39.7733C34.6171 39.3921 34.3702 39.185 33.89 38.7008C32.6472 37.4481 31.807 35.9339 31.3831 34.1831C31.1885 33.3793 31.0983 32.4285 31.1464 31.6879C31.1709 31.3109 31.185 31.2414 31.265 31.1018C31.5413 30.6191 31.8885 30.4707 32.2637 30.675C32.6451 30.8828 32.7338 30.921 32.9138 30.9554C33.1827 31.0067 33.5476 30.975 34.1169 30.8511C34.7089 30.7221 35.0671 30.6915 35.3066 30.7493C35.5084 30.798 35.8297 30.9532 35.8947 31.0333C35.9567 31.1098 36.0287 31.0997 36.1953 30.9913C36.5126 30.7851 36.697 30.4653 36.7492 30.0311C36.7863 29.7228 36.758 29.3385 36.6419 28.5731C36.5969 28.2763 36.5496 27.9149 36.5369 27.7702C36.515 27.5206 36.5063 27.4985 36.3694 27.3426C36.1983 27.1479 35.8504 26.8791 35.608 26.7545C35.3408 26.6171 34.8898 26.4729 34.5275 26.4089C34.1593 26.3439 32.9754 26.3333 32.3205 26.3892C31.9707 26.419 31.9543 26.4174 31.8554 26.343C31.6123 26.1601 31.592 25.8898 31.7919 25.4951C32.2867 24.5181 32.636 24.0878 33.3715 23.5495C34.2904 22.8767 35.6131 22.4648 37.1165 22.3832C37.7743 22.3475 37.7997 22.3475 38.5462 22.3819ZM33.4916 27.8311C34.1339 27.9694 34.6945 28.2937 35.0063 28.7072C35.1174 28.8547 35.1388 28.9083 35.1388 29.0402C35.1388 29.2372 35.1358 29.2373 34.5619 29.0785C33.5643 28.8024 33.1286 28.7437 32.7805 28.8386C32.5097 28.9124 32.3645 28.9985 32.1629 29.2048C31.99 29.3817 31.9592 29.3997 31.8308 29.3997C31.6926 29.3997 31.61 29.3453 31.5296 29.2013C31.487 29.1249 31.4524 28.421 31.4852 28.2992C31.5249 28.1521 31.657 27.9948 31.8055 27.9179C31.9134 27.862 32.1926 27.8012 32.5018 27.7662C32.6945 27.7444 33.2615 27.7816 33.4916 27.8311ZM43.3565 27.8853C43.7918 27.9542 44.0939 28.1055 44.2776 28.3469C44.3541 28.4474 44.3681 28.4979 44.3674 28.6714C44.3662 28.9848 44.3214 29.132 44.1894 29.2561L44.073 29.3656L43.8992 29.2943C43.1203 28.9748 42.4847 28.8172 41.962 28.8139C41.5224 28.8111 41.3168 28.8616 40.9506 29.0623L40.7138 29.192L40.6622 29.0368C40.5601 28.7303 40.6118 28.4983 40.8165 28.3441C40.9755 28.2244 41.2208 28.1465 41.8466 28.0172C41.9554 27.9947 42.0963 27.9491 42.1597 27.9157C42.2517 27.8674 42.3608 27.8544 42.6973 27.8514C42.9295 27.8494 43.2262 27.8646 43.3565 27.8853ZM37.4571 33.0934C37.1457 33.1513 36.8435 33.2567 36.6303 33.3818L36.4573 33.4834V33.7485C36.4573 33.9504 36.4698 34.0243 36.51 34.0584C36.5652 34.1053 37.2617 34.1374 38.2372 34.138C38.6909 34.1382 38.7252 34.1335 38.9129 34.0444C39.1332 33.9397 39.2308 33.8574 39.3311 33.6912L39.399 33.5788L39.3043 33.4775C39.1743 33.3385 38.7953 33.154 38.5174 33.0942C38.2382 33.0342 37.7778 33.0339 37.4571 33.0934ZM35.0863 35.8137C35.1231 36.1023 35.1342 36.1231 35.3277 36.2655C35.4286 36.3397 35.6906 36.5944 35.91 36.8315C36.7119 37.698 37.025 37.868 37.8191 37.868C38.403 37.868 38.734 37.7626 39.218 37.4225C39.6092 37.1476 40.0522 36.6613 40.523 35.9897C40.635 35.83 40.64 35.8134 40.5826 35.7948C40.4093 35.7385 39.3364 35.7144 37.7935 35.7323C36.179 35.751 35.6117 35.7337 35.1751 35.6527L35.0631 35.6319L35.0863 35.8137Z" fill="#2C2C2C"/>
<path d="M29.5201 9.42936C29.2974 9.42936 29.0977 9.634 29.0977 9.90879C29.0977 9.95264 29.1034 9.99649 29.1119 10.0403C30.0595 13.3115 30.6132 17.5094 30.6161 18.0795C30.6218 18.9506 32.0261 19.1611 32.8681 19.2722C32.8852 19.1465 32.8909 19.0822 32.8909 19.0822C32.8909 19.1114 32.888 19.1728 32.888 19.2751C34.0211 19.4271 35.1257 19.5265 36.3958 19.5265C37.469 19.5265 38.6621 19.4564 40.0892 19.2868C40.3004 19.2605 40.4203 19.0734 40.4203 18.898C40.4203 18.7314 40.3147 18.5765 40.0778 18.5765C39.387 18.6408 38.3852 18.6875 37.2978 18.6875C35.2941 18.6875 33.0051 18.5268 31.852 18.0093C32.8709 17.7024 34.3865 17.5971 35.8707 17.5971C40.6743 17.5971 43.4229 18.6759 43.44 18.6846C43.4999 18.7139 43.5627 18.7255 43.6227 18.7255C44.3676 18.7255 43.5998 18.4771 45.7662 9.95264C45.7861 9.8854 45.7947 9.82401 45.7947 9.76847C45.7947 9.52291 45.6263 9.37382 45.4065 9.37382C44.85 9.37382 44.8585 9.97018 44.1507 10.6542C43.6255 11.16 42.8463 11.3997 41.9787 11.8879C41.2794 11.1103 38.1398 8.68099 37.88 7.68706C37.8087 7.41811 37.6488 7.3158 37.4804 7.3158C37.2464 7.3158 36.9981 7.51458 36.9496 7.74553C36.687 8.78915 33.6729 11.119 32.9166 11.9434C31.2925 11.043 30.9415 11.3061 29.8569 9.61353C29.757 9.48491 29.6342 9.42936 29.5201 9.42936ZM41.6076 13.2735C41.659 13.4226 41.6932 13.6214 41.6932 13.8144C41.6932 14.4809 41.3108 14.4663 41.2936 14.4663C41.1538 14.4663 41.0368 14.361 41.0368 14.1739C41.0396 13.9664 41.1852 13.6536 41.6076 13.2735ZM33.1392 13.2209C33.6301 13.6477 33.8156 14.0453 33.8156 14.285C33.8156 14.4283 33.7471 14.516 33.6387 14.516C33.3019 14.516 33.0736 14.1038 33.0736 13.6477C33.0707 13.5074 33.0907 13.3642 33.1392 13.2209ZM32.4199 12.724C32.243 13.1274 32.1659 13.5016 32.1659 13.8377C32.1659 14.8054 32.8053 15.4427 33.5188 15.4427C34.2181 15.4427 34.6833 14.9194 34.6833 14.2324C34.6833 13.677 34.3808 13.0163 33.6587 12.4345C34.0811 12.0165 36.627 9.8854 37.3634 8.89732C38.0399 9.87079 40.5373 11.9727 41.0824 12.5018C40.3603 13.1303 40.0692 13.791 40.0692 14.3318C40.0692 15.0071 40.5259 15.4953 41.1738 15.4953C42.0158 15.4953 42.6637 14.7323 42.6637 13.7003C42.6637 13.3876 42.6037 13.0484 42.4696 12.6976C43.0747 12.3761 43.8053 12.0984 44.359 11.6862C43.9081 13.5863 43.557 15.6268 43.3258 17.6381C41.9415 16.9628 38.8761 16.6032 36.1161 16.6032C34.0297 16.6032 32.1174 16.8108 31.2497 17.2463C31.0214 15.0977 30.7331 13.2765 30.3564 11.5839C30.9586 12.0633 31.7121 12.3264 32.4199 12.724Z" fill="#2C2C2C"/>
</svg>
