<svg width="170" height="44" viewBox="0 0 170 44" fill="none" xmlns="http://www.w3.org/2000/svg">
<path fill-rule="evenodd" clip-rule="evenodd" d="M67.7866 16.1379L35.1416 32.8995C34.9694 32.977 34.8145 33.0459 34.6595 33.1061V33.132C33.8503 33.3988 33.3251 33.4333 32.5159 33.132V25.2806H30.5358V2.20009H32.5159V0.220042C33.1702 -0.0382254 33.9708 -0.089879 34.6337 0.176998C34.7542 0.211433 34.8833 0.254478 35.0125 0.306131C46.6259 4.69668 58.2479 9.09584 69.87 13.4864C70.1885 13.7533 70.2057 14.0201 70.2057 14.287V29.5592L71.2216 30.1274V36.5755C70.3865 37.247 69.8269 37.3675 69.1727 37.402C68.4495 37.4364 67.6317 37.3073 66.8052 36.5755L66.8138 30.1447L67.8038 29.5679L67.7866 16.1379ZM32.6794 4.4212H34.5045V23.0595H32.6794V4.4212Z" fill="#FFC536"/>
<path fill-rule="evenodd" clip-rule="evenodd" d="M57.9896 23.7827C50.3363 27.7084 42.6743 31.6254 35.021 35.5511C33.9018 36.0074 33.2562 35.9557 32.2059 35.5339L10.0121 23.7827V34.5353C14.2907 39.9675 23.9671 43.1872 33.6608 43.3164C43.6385 43.4541 53.6421 40.3291 57.8777 34.5353L57.9896 23.7827Z" fill="#FFC536"/>
<path fill-rule="evenodd" clip-rule="evenodd" d="M17.6827 6.5304H15.7027V22.2331H17.6827V25.5819L19.9038 26.7183V22.2331H21.8839V6.5304H19.9038V4.93774L17.6827 5.78142V6.5304ZM17.9238 8.7515H19.7489V20.012H17.9238V8.7515Z" fill="#FFC536"/>
<path fill-rule="evenodd" clip-rule="evenodd" d="M24.9055 21.3119H22.9254V28.2679L29.1067 31.4618V21.3119H27.1266V2.21729L24.9055 3.06096V21.3119ZM25.1465 23.4469H26.9716V29.3182H25.1465V23.4469Z" fill="#FFC536"/>
<path fill-rule="evenodd" clip-rule="evenodd" d="M24.9055 21.3119H22.9254V28.2679L29.1067 31.4618V21.3119H27.1266V2.21729L24.9055 3.06096V21.3119ZM25.1465 23.4469H26.9716V29.3182H25.1465V23.4469Z" fill="#FFC536"/>
<path fill-rule="evenodd" clip-rule="evenodd" d="M6.18981 19.6675V12.5221H4.20976V10.8606L1.98005 11.6871V12.5221H0V16.4736L6.18981 19.6675ZM2.2211 14.6571H4.04619V18.557L2.2211 17.6186V14.6571Z" fill="#FFC536"/>
<path fill-rule="evenodd" clip-rule="evenodd" d="M9.83149 17.7047H7.85144V20.5198L14.0413 23.731V17.7047H12.0526V7.89917L9.83149 8.74284V17.7047Z" fill="#FFC536"/>
<path d="M81 14.1246H83.3483V22.0131H85.1374V14.1246H87.5467V12.3862H81V14.1246Z" fill="#FFC536"/>
<path d="M95.9739 21.4541C96.7262 21.0169 97.3361 20.4172 97.7732 19.6751C98.2205 18.9228 98.4442 18.0994 98.4442 17.215C98.4442 16.3509 98.2205 15.5173 97.7732 14.7651C97.326 14.0128 96.716 13.4029 95.9739 12.9556C95.2217 12.5083 94.3983 12.2847 93.524 12.2847C92.6396 12.2847 91.806 12.5083 91.0538 12.9556C90.3015 13.4029 89.6916 14.0128 89.2545 14.7549C88.8173 15.5072 88.5937 16.3306 88.5937 17.215C88.5937 18.1096 88.8173 18.9431 89.2545 19.6852C89.6916 20.4273 90.2913 21.0271 91.0436 21.4642C91.7959 21.9013 92.6193 22.1148 93.5138 22.1148C94.3983 22.1148 95.2217 21.8912 95.9739 21.4541ZM93.5138 14.023C94.073 14.023 94.5914 14.1653 95.059 14.4499C95.5266 14.7346 95.9028 15.1209 96.1874 15.6088C96.472 16.0968 96.6042 16.6356 96.6042 17.215C96.6042 17.7944 96.4619 18.3332 96.1976 18.811C95.9231 19.2989 95.5571 19.6751 95.0895 19.9597C94.6321 20.2342 94.1136 20.3765 93.5545 20.3765C92.9852 20.3765 92.4566 20.2342 91.989 19.9495C91.5112 19.6649 91.1351 19.2786 90.8606 18.8008C90.5862 18.323 90.4438 17.7843 90.4438 17.215C90.4438 16.6356 90.5862 16.0968 90.8505 15.6088C91.1249 15.1209 91.5011 14.7346 91.9585 14.4499C92.4261 14.1653 92.9446 14.023 93.5138 14.023Z" fill="#FFC536"/>
<path d="M101.972 18.7704H103.161C103.934 18.7704 104.574 18.6179 105.072 18.3028C105.57 17.9978 105.936 17.5912 106.16 17.0931C106.384 16.6051 106.495 16.0765 106.495 15.5276C106.495 14.5517 106.18 13.7689 105.55 13.2098C104.93 12.6609 104.056 12.3762 102.968 12.3762H100.172V22.0031H101.972V18.7704ZM103.161 17.0321H101.972V14.1247H103.202C103.751 14.1247 104.137 14.2772 104.351 14.5618C104.584 14.8668 104.696 15.1921 104.696 15.5581C104.696 15.7715 104.645 15.9952 104.544 16.2188C104.452 16.4425 104.29 16.6356 104.056 16.7983C103.842 16.9507 103.537 17.0321 103.161 17.0321Z" fill="#FFC536"/>
<path d="M113.845 22.0131H115.634V14.1246H118.044V12.3862H111.507V14.1246H113.845V22.0131Z" fill="#FFC536"/>
<path d="M121.48 18.7702H122.74L124.844 22.0131H126.938L124.611 18.323C125.088 18.0485 125.444 17.6724 125.678 17.2047C125.932 16.6965 126.064 16.1373 126.064 15.5376C126.064 14.5515 125.729 13.7789 125.068 13.2198C124.417 12.6709 123.543 12.3862 122.466 12.3862H119.69V22.0131H121.49V18.7702H121.48ZM124.214 15.5884C124.214 15.9645 124.092 16.3 123.848 16.605C123.614 16.8998 123.218 17.0421 122.669 17.0421H121.49V14.1246H122.72C123.086 14.1246 123.381 14.2059 123.604 14.3584C123.828 14.521 123.99 14.704 124.072 14.9175C124.163 15.1411 124.214 15.3648 124.214 15.5884Z" fill="#FFC536"/>
<path d="M133.139 19.8275L133.993 22.0233H136.047L131.828 12.0915L131.798 12H131.503L127.243 22.0131H129.053L129.947 19.8174H133.139V19.8275ZM132.519 18.2417H130.598L131.574 15.8528L132.519 18.2417Z" fill="#FFC536"/>
<path d="M142.939 21.4438C143.671 21.0575 144.261 20.5086 144.698 19.797C145.135 19.0854 145.358 18.262 145.358 17.3267C145.358 16.483 145.175 15.6901 144.82 14.9378C144.454 14.1855 143.874 13.5654 143.091 13.0978C142.309 12.62 141.302 12.3862 140.113 12.3862H137.307V22.0131H140.56C141.404 22.0131 142.207 21.8199 142.939 21.4438ZM139.096 20.2748V14.1144H140.509C140.997 14.1144 141.475 14.2262 141.933 14.4499C142.39 14.6633 142.766 15.009 143.061 15.4766C143.356 15.9442 143.508 16.5338 143.508 17.2352C143.508 17.8757 143.366 18.4348 143.102 18.8922C142.837 19.3497 142.451 19.6953 141.973 19.9291C141.485 20.1629 140.916 20.2849 140.276 20.2849H139.096V20.2748Z" fill="#FFC536"/>
<path d="M153.755 20.2748H148.886V18.0485H153.064V16.3H148.886V14.1246H153.572V12.3862H147.077V22.0131H153.755V20.2748Z" fill="#FFC536"/>
<path d="M161.542 17.1947C161.796 16.6864 161.929 16.1273 161.929 15.5276C161.929 14.5415 161.593 13.7689 160.932 13.2098C160.282 12.6609 159.408 12.3762 158.33 12.3762H155.555V22.0031H157.354V18.7704H158.615L160.719 22.0132H162.813L160.485 18.3129C160.953 18.0486 161.308 17.6725 161.542 17.1947ZM160.078 15.5886C160.078 15.9647 159.956 16.3002 159.712 16.6051C159.479 16.8999 159.082 17.0422 158.533 17.0422H157.354V14.1247H158.584C158.95 14.1247 159.245 14.206 159.469 14.3585C159.692 14.5212 159.855 14.7041 159.936 14.9176C160.038 15.1413 160.078 15.3649 160.078 15.5886Z" fill="#FFC536"/>
<path d="M168.77 16.9609C168.435 16.7474 168.028 16.5543 167.56 16.3916C166.971 16.168 166.503 15.9342 166.178 15.7105C165.883 15.5072 165.741 15.2531 165.741 14.9583C165.741 14.6431 165.852 14.4093 166.086 14.2365C166.33 14.0535 166.666 13.962 167.093 13.962C167.692 13.962 168.384 14.1653 169.166 14.572L169.309 14.6431L170 13.2403L169.888 13.1691C169.482 12.9048 169.024 12.7015 168.546 12.5592C168.069 12.4169 167.509 12.3457 166.879 12.3457C166.005 12.3864 165.283 12.6507 164.744 13.1386C164.195 13.6266 163.921 14.2873 163.921 15.0904C163.921 15.6394 164.053 16.107 164.328 16.4831C164.592 16.8491 164.907 17.1337 165.283 17.337C165.639 17.5302 166.086 17.7335 166.625 17.9266C167.082 18.0994 167.469 18.3028 167.743 18.5366C167.997 18.75 168.119 19.0042 168.119 19.3193C168.119 19.7158 167.977 20.0106 167.672 20.1936C167.093 20.5595 166.33 20.6002 165.415 20.2647C164.999 20.1122 164.633 19.9191 164.338 19.6853L164.195 19.5836L163.372 21.017L163.484 21.0983C163.921 21.4134 164.429 21.6676 164.988 21.8404C165.547 22.0234 166.127 22.1149 166.696 22.1149C167.357 22.1149 167.947 21.9929 168.435 21.7387C168.933 21.4846 169.309 21.1491 169.573 20.7222C169.837 20.2952 169.97 19.8174 169.97 19.299C169.97 18.7297 169.858 18.2418 169.624 17.8656C169.4 17.4895 169.116 17.1845 168.77 16.9609Z" fill="#FFC536"/>
<path d="M85.5542 27.3704H85.2594L81 37.3835H82.8095L83.7041 35.1877H86.8961L87.75 37.3835H89.8034L85.5847 27.4619L85.5542 27.3704ZM86.2861 33.6121H84.3648L85.3407 31.2231L86.2861 33.6121Z" fill="#FFC536"/>
<path d="M97.3972 35.0556C97.1634 35.2589 96.8686 35.4216 96.5229 35.5537C96.1773 35.6859 95.7809 35.7469 95.3539 35.7469C94.7541 35.7469 94.2153 35.6045 93.7579 35.3402C93.3004 35.0658 92.9446 34.6896 92.7007 34.2119C92.4567 33.7239 92.3245 33.175 92.3245 32.5549C92.3245 31.9754 92.4567 31.4366 92.7312 30.9589C93.0056 30.4811 93.3614 30.0948 93.8087 29.8101C94.8456 29.1595 96.1265 29.2714 97.2854 30.0948L97.4378 30.2066L98.1494 28.5191L98.0376 28.4479C97.6717 28.2243 97.2447 28.0312 96.7669 27.8787C96.2891 27.7262 95.7605 27.655 95.2014 27.655C94.2865 27.655 93.4631 27.8685 92.7515 28.2955C92.0297 28.7224 91.4706 29.3222 91.064 30.0744C90.6675 30.8267 90.4642 31.6908 90.4642 32.6463C90.4642 33.5206 90.6675 34.3338 91.064 35.0658C91.4605 35.7977 92.0399 36.3975 92.782 36.8244C93.5241 37.2615 94.3983 37.475 95.3844 37.475C95.974 37.475 96.5229 37.3835 97.0211 37.2005C97.5192 37.0176 97.9055 36.8244 98.1901 36.6211L98.2918 36.5499L97.5293 34.9234L97.3972 35.0556Z" fill="#FFC536"/>
<path d="M103.496 27.3704H103.202L98.9422 37.3835H100.752L101.646 35.1877H104.838L105.692 37.3835H107.746L103.527 27.4619L103.496 27.3704ZM104.218 33.6121H102.297L103.273 31.2231L104.218 33.6121Z" fill="#FFC536"/>
<path d="M114.78 28.4682C113.998 27.9904 112.991 27.7566 111.802 27.7566H108.996V37.3834H112.249C113.103 37.3834 113.906 37.1903 114.638 36.804C115.37 36.4177 115.96 35.8688 116.397 35.1572C116.834 34.4456 117.057 33.6222 117.057 32.6869C117.057 31.8432 116.875 31.0503 116.519 30.298C116.143 29.5661 115.563 28.946 114.78 28.4682ZM115.207 32.5954C115.207 33.2359 115.065 33.795 114.801 34.2524C114.536 34.7099 114.15 35.0555 113.672 35.2893C113.184 35.5231 112.615 35.6451 111.975 35.6451H110.795V29.4847H112.208C112.696 29.4847 113.174 29.5966 113.632 29.8202C114.089 30.0337 114.465 30.3793 114.76 30.8469C115.055 31.3044 115.207 31.894 115.207 32.5954Z" fill="#FFC536"/>
<path d="M120.585 33.4188H124.763V31.6805H120.585V29.4949H125.271V27.7566H118.775V37.3936H125.454V35.6451H120.585V33.4188Z" fill="#FFC536"/>
<path d="M136.718 27.4211L132.062 33.8966L127.538 27.4923L127.477 27.4211H127.243V37.3936H129.002V32.5345L131.909 36.5702L131.991 36.6312H132.143L135.183 32.321V37.3936H136.972V27.5736L136.941 27.4211H136.718Z" fill="#FFC536"/>
<path d="M142.675 32.1786L140.357 27.7566H138.171L141.729 34.2524V37.3936H143.519V34.2524L147.117 27.7566H144.932L142.675 32.1786Z" fill="#FFC536"/>
</svg>
