<svg width="77" height="100" viewBox="0 0 77 100" fill="none" xmlns="http://www.w3.org/2000/svg">
<path fill-rule="evenodd" clip-rule="evenodd" d="M55.2101 24.393C52.7441 22.5256 50.1662 19.6904 45.7936 17.773C48.9936 17.7957 54.0331 20.1947 55.2101 24.393Z" fill="white"/>
<path fill-rule="evenodd" clip-rule="evenodd" d="M52.3683 24.9973C52.8874 25.2745 53.2723 25.4517 53.702 25.5744C54.5076 25.8061 55.1744 25.8697 55.8682 26.1468C56.4231 26.3649 56.8707 26.6921 57.2645 27.0874C57.6226 27.4463 57.8866 27.7735 58.0925 28.1233C58.5043 28.8276 58.8578 29.9226 58.8534 30.745C58.5266 30.3497 58.2357 30.0498 57.9224 29.7772C57.4435 29.3637 56.9691 29.0684 56.4545 28.8139C56.0785 28.6276 55.7473 28.455 55.4385 28.2642C54.0779 27.4463 53.2858 26.2513 52.3683 24.9973Z" fill="white"/>
<path fill-rule="evenodd" clip-rule="evenodd" d="M58.8579 30.7677C58.8624 29.5728 57.9181 27.5327 57.3765 26.7603C56.9916 26.2105 56.7097 25.5926 56.4501 24.9519C55.9846 23.816 55.5863 22.5165 55.461 21.5306C56.0517 21.9577 56.638 22.3757 57.3049 22.9709C58.6968 24.3113 59.4755 25.747 59.292 27.719C59.2204 28.4687 59.1981 30.0998 58.8579 30.7677Z" fill="white"/>
<path fill-rule="evenodd" clip-rule="evenodd" d="M56.3923 30.9722C56.8488 31.3448 57.1934 31.5947 57.5917 31.8037C58.3347 32.1899 58.9791 32.3898 59.6057 32.7942C60.107 33.1213 60.4829 33.5302 60.7917 33.9937C61.0737 34.4162 61.2706 34.7888 61.4004 35.1705C61.669 35.9429 61.8077 37.0879 61.6421 37.8921C61.4004 37.4423 61.1722 37.0879 60.9171 36.7607C60.5277 36.2564 60.1204 35.8793 59.6639 35.5249C59.3327 35.2659 59.0418 35.0296 58.7733 34.7843C57.6007 33.7165 57.0547 32.3853 56.3923 30.9722Z" fill="white"/>
<path fill-rule="evenodd" clip-rule="evenodd" d="M61.6507 37.9239C61.8834 36.7517 61.3508 34.5616 60.9659 33.7029C60.6929 33.0895 60.5363 32.4261 60.402 31.7446C60.1648 30.5405 60.0261 29.1866 60.0887 28.196C60.5855 28.7322 61.0823 29.2547 61.6194 29.9726C62.7293 31.5629 63.2127 33.1304 62.6577 35.0251C62.4518 35.7384 62.1117 37.3287 61.6507 37.9239Z" fill="white"/>
<path fill-rule="evenodd" clip-rule="evenodd" d="M58.8131 36.9607C59.1846 37.5059 59.4666 37.883 59.8291 38.2283C60.5004 38.8781 61.1225 39.2961 61.6641 39.9276C62.0982 40.4365 62.3712 40.9908 62.5547 41.586C62.7203 42.1267 62.8143 42.5856 62.8367 43.0354C62.8814 43.9396 62.6711 45.2073 62.2459 46.0115C62.1295 45.4526 61.9953 45.0028 61.8252 44.5712C61.5656 43.9124 61.2523 43.3762 60.8764 42.8537C60.6034 42.472 60.3662 42.1267 60.1558 41.7814C59.2473 40.2639 59.0772 38.6736 58.8131 36.9607Z" fill="white"/>
<path fill-rule="evenodd" clip-rule="evenodd" d="M62.2459 46.0479C62.8591 44.8756 62.9755 42.3766 62.8367 41.3316C62.7383 40.591 62.7785 39.8322 62.8501 39.0644C62.971 37.7058 63.2485 36.2201 63.6244 35.1841C63.9825 35.9156 64.345 36.629 64.6941 37.5695C65.3788 39.6187 65.4102 41.4407 64.2241 43.2808C63.7766 43.976 62.9173 45.5617 62.2459 46.0479Z" fill="white"/>
<path fill-rule="evenodd" clip-rule="evenodd" d="M59.941 44.0033C60.1961 44.6303 60.402 45.0665 60.6929 45.4936C61.23 46.2887 61.7671 46.843 62.1699 47.5927C62.4966 48.197 62.6532 48.8104 62.7114 49.442C62.7651 50.019 62.7606 50.4961 62.689 50.955C62.5458 51.8728 62.0669 53.095 61.4717 53.8084C61.4717 53.2223 61.4314 52.7452 61.3553 52.2772C61.2345 51.5593 61.0331 50.955 60.7645 50.3507C60.5721 49.91 60.4065 49.5147 60.2722 49.1239C59.677 47.4065 59.8426 45.7753 59.941 44.0033Z" fill="white"/>
<path fill-rule="evenodd" clip-rule="evenodd" d="M61.4671 53.8401C62.3264 52.7997 62.9664 50.3188 63.0469 49.2466C63.1006 48.4832 63.302 47.7381 63.5348 46.9838C63.942 45.648 64.5283 44.2213 65.1236 43.2672C65.3339 44.0759 65.5443 44.8711 65.6965 45.8888C65.9516 48.0879 65.598 49.919 64.0271 51.5047C63.4318 52.0999 62.2413 53.5039 61.4671 53.8401Z" fill="white"/>
<path fill-rule="evenodd" clip-rule="evenodd" d="M59.8155 50.7324C59.8781 51.4593 59.9542 51.9773 60.1153 52.5134C60.4152 53.5085 60.7911 54.2536 60.9746 55.1578C61.1178 55.8848 61.0865 56.5709 60.9478 57.2433C60.8225 57.8567 60.6658 58.3474 60.4465 58.7972C60.0079 59.6923 59.1262 60.7964 58.2893 61.3371C58.4728 60.7328 58.5847 60.2285 58.6518 59.7196C58.7548 58.9426 58.7369 58.252 58.6518 57.5432C58.5936 57.0252 58.5489 56.5663 58.531 56.1165C58.4683 54.1491 59.1531 52.5225 59.8155 50.7324Z" fill="white"/>
<path fill-rule="evenodd" clip-rule="evenodd" d="M58.2713 61.3598C59.4886 60.5692 60.9342 58.2247 61.3549 57.1479C61.6548 56.3755 62.0979 55.6758 62.5768 54.9715C63.4227 53.7311 64.4744 52.4544 65.3919 51.6638C65.3516 52.568 65.3203 53.454 65.1502 54.549C64.7161 56.898 63.7717 58.6655 61.6503 59.7877C60.8447 60.2103 59.1753 61.269 58.2713 61.3598Z" fill="white"/>
<path fill-rule="evenodd" clip-rule="evenodd" d="M57.5377 57.4387C57.3587 58.2384 57.2647 58.8199 57.2558 59.4424C57.2379 60.6056 57.39 61.5325 57.2781 62.5639C57.1886 63.3908 56.9201 64.1087 56.5441 64.7766C56.204 65.3854 55.8728 65.8534 55.4834 66.2578C54.7092 67.062 53.4023 67.9299 52.3282 68.2116C52.731 67.6345 53.0219 67.1302 53.2636 66.6122C53.635 65.8171 53.8499 65.0765 54.002 64.295C54.1139 63.7225 54.2213 63.2136 54.3556 62.732C54.9419 60.6147 56.2264 59.1198 57.5377 57.4387Z" fill="white"/>
<path fill-rule="evenodd" clip-rule="evenodd" d="M52.2966 68.2343C53.8631 67.8162 56.1948 65.8216 57.0049 64.8129C57.5867 64.0996 58.2939 63.4998 59.0413 62.9183C60.3616 61.8869 61.9191 60.8918 63.1588 60.3693C62.8097 61.3144 62.4741 62.2549 61.928 63.3635C60.6704 65.7126 59.0682 67.2756 56.4276 67.7299C55.434 67.9026 53.2947 68.4478 52.2966 68.2343Z" fill="white"/>
<path fill-rule="evenodd" clip-rule="evenodd" d="M53.6913 62.9777C53.1629 63.79 52.8171 64.3917 52.5553 65.0786C52.0664 66.3573 51.8639 67.4403 51.3156 68.5334C50.876 69.4109 50.2734 70.0979 49.5671 70.6845C48.9251 71.2211 48.3472 71.6072 47.7347 71.898C46.5098 72.4746 44.6379 72.9159 43.2697 72.7955C43.9711 72.3192 44.5094 71.8779 45.0034 71.4066C45.7591 70.6795 46.3073 69.9475 46.7963 69.1402C47.1568 68.5535 47.4878 68.037 47.8434 67.5557C49.3893 65.4497 51.4885 64.3064 53.6913 62.9777Z" fill="white"/>
<path fill-rule="evenodd" clip-rule="evenodd" d="M43.2697 72.637C45.0733 72.7824 48.2644 71.6283 49.4862 70.9195C50.3589 70.4151 51.3257 70.0744 52.3282 69.7609C54.096 69.2066 56.1011 68.7749 57.6049 68.7022C56.8888 69.5246 56.1951 70.3379 55.2104 71.2512C53.0219 73.1504 50.7617 74.1318 47.8123 73.6275C46.6979 73.4412 44.2453 73.214 43.2697 72.637Z" fill="white"/>
<path fill-rule="evenodd" clip-rule="evenodd" d="M19.8302 23.9976C22.2962 22.1301 24.8742 19.2949 29.2468 17.3775C26.0468 17.4003 21.0073 19.7993 19.8302 23.9976Z" fill="white"/>
<path fill-rule="evenodd" clip-rule="evenodd" d="M22.6717 24.6019C22.1525 24.8791 21.7676 25.0563 21.3379 25.1789C20.5323 25.4107 19.8655 25.4743 19.1718 25.7514C18.6168 25.9695 18.1692 26.2967 17.7754 26.692C17.4173 27.0509 17.1533 27.378 16.9474 27.7279C16.5357 28.4321 16.1821 29.5272 16.1866 30.3495C16.5133 29.9543 16.8042 29.6544 17.1175 29.3818C17.5964 28.9683 18.0708 28.673 18.5855 28.4185C18.9614 28.2322 19.2926 28.0596 19.6014 27.8687C20.962 27.0509 21.7542 25.8559 22.6717 24.6019Z" fill="white"/>
<path fill-rule="evenodd" clip-rule="evenodd" d="M16.1825 30.3723C16.178 29.1773 17.1224 27.1372 17.6639 26.3648C18.0488 25.815 18.3308 25.1971 18.5903 24.5565C19.0558 23.4206 19.4541 22.1211 19.5794 21.1351C18.9887 21.5622 18.4024 21.9802 17.7355 22.5755C16.3436 23.9158 15.5649 25.3516 15.7484 27.3235C15.82 28.0732 15.8423 29.7044 16.1825 30.3723Z" fill="white"/>
<path fill-rule="evenodd" clip-rule="evenodd" d="M18.6486 30.5768C18.1921 30.9493 17.8474 31.1992 17.4491 31.4082C16.7062 31.7944 16.0617 31.9944 15.4351 32.3987C14.9339 32.7259 14.5579 33.1348 14.2491 33.5983C13.9671 34.0208 13.7702 34.3934 13.6404 34.775C13.3719 35.5475 13.2331 36.6925 13.3987 37.4967C13.6404 37.0469 13.8687 36.6925 14.1238 36.3653C14.5131 35.861 14.9204 35.4839 15.3769 35.1294C15.7081 34.8705 15.999 34.6342 16.2676 34.3888C17.4402 33.3211 17.9862 31.9898 18.6486 30.5768Z" fill="white"/>
<path fill-rule="evenodd" clip-rule="evenodd" d="M13.3897 37.5285C13.157 36.3562 13.6896 34.1662 14.0745 33.3075C14.3475 32.6941 14.5041 32.0307 14.6384 31.3492C14.8756 30.1451 15.0143 28.7911 14.9517 27.8006C14.4549 28.3367 13.9581 28.8593 13.421 29.5772C12.3111 31.1674 11.8277 32.735 12.3827 34.6297C12.5886 35.343 12.9287 36.9333 13.3897 37.5285Z" fill="white"/>
<path fill-rule="evenodd" clip-rule="evenodd" d="M16.2271 36.5652C15.8556 37.1104 15.5736 37.4875 15.2111 37.8328C14.5398 38.4826 13.9177 38.9006 13.3761 39.5321C12.942 40.041 12.669 40.5953 12.4855 41.1905C12.3199 41.7312 12.2259 42.1901 12.2035 42.6399C12.1588 43.5441 12.3691 44.8118 12.7943 45.616C12.9107 45.0571 13.045 44.6073 13.215 44.1757C13.4746 43.5169 13.7879 42.9807 14.1638 42.4582C14.4369 42.0765 14.6741 41.7312 14.8844 41.3859C15.7929 39.8684 15.963 38.2781 16.2271 36.5652Z" fill="white"/>
<path fill-rule="evenodd" clip-rule="evenodd" d="M12.7945 45.6525C12.1813 44.4802 12.0649 41.9812 12.2037 40.9362C12.3022 40.1956 12.2619 39.4368 12.1903 38.6689C12.0694 37.3104 11.7919 35.8246 11.416 34.7887C11.0579 35.5202 10.6954 36.2336 10.3463 37.1741C9.66157 39.2233 9.63024 41.0452 10.8163 42.8854C11.2638 43.5806 12.1231 45.1663 12.7945 45.6525Z" fill="white"/>
<path fill-rule="evenodd" clip-rule="evenodd" d="M15.0998 43.6078C14.8446 44.2349 14.6388 44.6711 14.3479 45.0982C13.8108 45.8933 13.2737 46.4476 12.8709 47.1973C12.5442 47.8016 12.3876 48.415 12.3294 49.0465C12.2757 49.6236 12.2801 50.1007 12.3518 50.5596C12.495 51.4774 12.9739 52.6996 13.5691 53.413C13.5691 52.8268 13.6094 52.3498 13.6855 51.8818C13.8063 51.1639 14.0077 50.5596 14.2762 49.9553C14.4687 49.5145 14.6343 49.1192 14.7686 48.7285C15.3638 47.011 15.1982 45.3799 15.0998 43.6078Z" fill="white"/>
<path fill-rule="evenodd" clip-rule="evenodd" d="M13.5733 53.4447C12.714 52.4042 12.074 49.9234 11.9935 48.8511C11.9398 48.0878 11.7384 47.3426 11.5056 46.5884C11.0984 45.2526 10.5121 43.8259 9.91681 42.8717C9.70646 43.6805 9.4961 44.4756 9.34394 45.4934C9.08883 47.6925 9.4424 49.5236 11.0133 51.1093C11.6086 51.7045 12.7991 53.1085 13.5733 53.4447Z" fill="white"/>
<path fill-rule="evenodd" clip-rule="evenodd" d="M15.2249 50.3369C15.1623 51.0639 15.0862 51.5818 14.9251 52.118C14.6252 53.113 14.2493 53.8582 14.0658 54.7624C13.9226 55.4893 13.9539 56.1754 14.0926 56.8479C14.2179 57.4613 14.3746 57.952 14.5939 58.4018C15.0325 59.2969 15.9142 60.401 16.7511 60.9417C16.5676 60.3374 16.4557 59.833 16.3886 59.3241C16.2857 58.5472 16.3036 57.8566 16.3886 57.1477C16.4468 56.6298 16.4915 56.1709 16.5094 55.7211C16.5721 53.7537 15.8873 52.1271 15.2249 50.3369Z" fill="white"/>
<path fill-rule="evenodd" clip-rule="evenodd" d="M16.7692 60.9644C15.5518 60.1738 14.1062 57.8293 13.6855 56.7525C13.3857 55.9801 12.9426 55.2803 12.4637 54.5761C11.6178 53.3357 10.566 52.0589 9.64856 51.2683C9.68884 52.1725 9.72017 53.0585 9.89024 54.1535C10.3244 56.5026 11.2687 58.27 13.3901 59.3923C14.1957 59.8149 15.8651 60.8735 16.7692 60.9644Z" fill="white"/>
<path fill-rule="evenodd" clip-rule="evenodd" d="M17.5029 57.0432C17.6819 57.8429 17.7759 58.4244 17.7848 59.0469C17.8027 60.2101 17.6506 61.137 17.7625 62.1684C17.852 62.9953 18.1205 63.7132 18.4964 64.3811C18.8366 64.9899 19.1678 65.4579 19.5572 65.8623C20.3314 66.6665 21.6383 67.5344 22.7124 67.8161C22.3096 67.239 22.0187 66.7347 21.777 66.2167C21.4056 65.4216 21.1907 64.681 21.0386 63.8995C20.9267 63.327 20.8193 62.8181 20.685 62.3365C20.0987 60.2192 18.8142 58.7243 17.5029 57.0432Z" fill="white"/>
<path fill-rule="evenodd" clip-rule="evenodd" d="M22.7436 67.8387C21.1772 67.4207 18.8454 65.4261 18.0353 64.4174C17.4535 63.7041 16.7463 63.1043 15.9989 62.5227C14.6786 61.4913 13.1211 60.4963 11.8814 59.9738C12.2305 60.9189 12.5662 61.8594 13.1122 62.968C14.3698 65.317 15.9721 66.88 18.6127 67.3344C19.6062 67.5071 21.7455 68.0523 22.7436 67.8387Z" fill="white"/>
<path fill-rule="evenodd" clip-rule="evenodd" d="M22.1884 62.9656C22.7172 63.7784 23.0631 64.3805 23.3251 65.0679C23.8143 66.3473 24.017 67.4311 24.5656 68.5249C25.0054 69.4029 25.6084 70.0903 26.3151 70.6773C26.9576 71.2142 27.5358 71.6005 28.1487 71.8915C29.3743 72.4685 31.2474 72.91 32.6164 72.7896C31.9146 72.313 31.3759 71.8714 30.8817 71.3998C30.1256 70.6723 29.577 69.9398 29.0877 69.132C28.7269 68.5449 28.3958 68.0281 28.0399 67.5465C26.493 65.4392 24.3926 64.2952 22.1884 62.9656Z" fill="white"/>
<path fill-rule="evenodd" clip-rule="evenodd" d="M31.7711 72.2414C29.9674 72.3868 26.7764 71.2327 25.5545 70.5239C24.6818 70.0196 23.7151 69.6788 22.7125 69.3653C20.9447 68.811 18.9396 68.3794 17.4359 68.3067C18.1519 69.1291 18.8457 69.9424 19.8303 70.8556C22.0188 72.7548 24.279 73.7362 27.2284 73.2319C28.3428 73.0456 30.7954 72.8184 31.7711 72.2414Z" fill="white"/>
<path d="M11.4735 88.9394C10.8417 88.9394 10.2346 88.8381 9.65229 88.6357C9.06995 88.4333 8.56178 88.1437 8.12778 87.767C7.69378 87.3846 7.38338 86.9319 7.19659 86.409L8.80351 85.7933C8.8969 86.0632 9.07545 86.305 9.33915 86.5186C9.60834 86.7267 9.92697 86.8898 10.2951 87.0078C10.6686 87.1259 11.0614 87.185 11.4735 87.185C11.913 87.185 12.325 87.1119 12.7095 86.9657C13.0996 86.8195 13.4127 86.617 13.649 86.3584C13.8907 86.0997 14.0116 85.7961 14.0116 85.4475C14.0116 85.0876 13.8852 84.7924 13.6325 84.5618C13.3853 84.3313 13.0666 84.1485 12.6766 84.0136C12.292 83.8786 11.891 83.7774 11.4735 83.7099C10.6659 83.575 9.94071 83.3782 9.29794 83.1195C8.66067 82.8609 8.15525 82.4982 7.78168 82.0315C7.4136 81.5647 7.22956 80.9575 7.22956 80.2096C7.22956 79.5067 7.42458 78.8938 7.81464 78.3709C8.21019 77.8479 8.72934 77.4431 9.37211 77.1563C10.0204 76.8639 10.7208 76.7177 11.4735 76.7177C12.0942 76.7177 12.6931 76.8189 13.2699 77.0213C13.8522 77.2181 14.3632 77.5077 14.8027 77.8901C15.2476 78.2668 15.5663 78.7251 15.7586 79.2649L14.1352 79.8638C14.0418 79.5883 13.8632 79.3493 13.5995 79.1468C13.3358 78.9388 13.0172 78.7757 12.6436 78.6576C12.2755 78.5396 11.8855 78.4805 11.4735 78.4805C11.034 78.4749 10.6219 78.548 10.2374 78.6998C9.8583 78.846 9.54791 79.0484 9.30618 79.3071C9.06446 79.5658 8.9436 79.8666 8.9436 80.2096C8.9436 80.6313 9.05622 80.9518 9.28146 81.1711C9.5067 81.3904 9.80886 81.5535 10.1879 81.6603C10.5725 81.7616 11.001 81.8543 11.4735 81.9387C12.2316 82.0624 12.932 82.2676 13.5748 82.5544C14.2231 82.8412 14.7422 83.2235 15.1323 83.7015C15.5278 84.1738 15.7256 84.7558 15.7256 85.4475C15.7256 86.1447 15.5278 86.7576 15.1323 87.2862C14.7422 87.8091 14.2231 88.2168 13.5748 88.5092C12.932 88.796 12.2316 88.9394 11.4735 88.9394Z" fill="white"/>
<path d="M21.8522 82.0399H20.1217L20.1135 88.7201H18.3994L18.4076 82.0399H17.0974V80.2855H18.4076L18.3994 77.6371H20.1135L20.1217 80.2855H21.8522V82.0399Z" fill="white"/>
<path d="M29.5879 80.2855H31.302V88.7201H29.5797L29.5138 87.497C29.272 87.93 28.9452 88.2786 28.5331 88.5429C28.1266 88.8072 27.6432 88.9394 27.0828 88.9394C26.473 88.9394 25.9016 88.8241 25.3688 88.5935C24.8414 88.3574 24.3744 88.0312 23.9679 87.6151C23.5668 87.199 23.2509 86.7211 23.0202 86.1813C22.7949 85.6358 22.6823 85.051 22.6823 84.4269C22.6823 83.8252 22.7922 83.2601 23.0119 82.7315C23.2317 82.1973 23.5366 81.7306 23.9267 81.3314C24.3167 80.9322 24.7672 80.6201 25.2781 80.3952C25.7945 80.1646 26.3466 80.0493 26.9345 80.0493C27.5333 80.0493 28.0607 80.1899 28.5167 80.4711C28.9781 80.7466 29.3572 81.1008 29.6539 81.5338L29.5879 80.2855ZM27.124 87.244C27.6184 87.244 28.0442 87.1175 28.4013 86.8645C28.7639 86.6114 29.0358 86.2712 29.2171 85.8439C29.4039 85.4165 29.4836 84.9442 29.4561 84.4269C29.4231 83.932 29.294 83.4822 29.0688 83.0773C28.849 82.6725 28.5551 82.352 28.187 82.1158C27.819 81.874 27.4014 81.7531 26.9345 81.7531C26.4455 81.7531 26.0033 81.8796 25.6077 82.1327C25.2177 82.3857 24.9155 82.7259 24.7013 83.1533C24.487 83.5806 24.3936 84.0558 24.4211 84.5787C24.4541 85.0679 24.5969 85.5149 24.8496 85.9198C25.1078 86.3246 25.4347 86.648 25.8302 86.8898C26.2313 87.1259 26.6625 87.244 27.124 87.244Z" fill="white"/>
<path d="M38.1444 82.0483C38.0015 81.9584 37.845 81.8881 37.6747 81.8375C37.5098 81.7812 37.3285 81.7531 37.1308 81.7531C36.7023 81.7531 36.3287 81.8684 36.0101 82.0989C35.6914 82.3295 35.4415 82.6416 35.2602 83.0352C35.0844 83.4288 34.9965 83.8646 34.9965 84.3425V88.7201H33.2742V80.2855H34.9882V81.4242C35.2739 81.0024 35.62 80.6707 36.0265 80.4289C36.4386 80.1815 36.8973 80.0578 37.4027 80.0578C37.5895 80.0578 37.7653 80.0662 37.9301 80.0831C38.1004 80.1 38.2625 80.1337 38.4163 80.1843L38.1444 82.0483Z" fill="white"/>
<path d="M51.2296 84.3088V88.7201H49.5156V84.3425C49.5156 83.8646 49.4167 83.4288 49.2189 83.0352C49.0267 82.6416 48.7685 82.3295 48.4443 82.0989C48.1202 81.8684 47.7604 81.7531 47.3648 81.7531C46.9363 81.7531 46.571 81.8684 46.2688 82.0989C45.9667 82.3295 45.7332 82.6416 45.5684 83.0352C45.409 83.4288 45.3294 83.8646 45.3294 84.3425V88.7201H43.6071V76.0682H45.3211V81.2724C45.5519 80.8169 45.854 80.502 46.2276 80.3277C46.6067 80.1477 47.0407 80.0578 47.5296 80.0578C48.2713 80.0578 48.9168 80.2518 49.4662 80.6398C50.0155 81.0278 50.444 81.5451 50.7517 82.1917C51.0593 82.8327 51.2186 83.5384 51.2296 84.3088Z" fill="white"/>
<path d="M59.1542 80.2855H60.8683V88.7201H59.146L59.0801 87.497C58.8384 87.93 58.5115 88.2786 58.0995 88.5429C57.6929 88.8072 57.2095 88.9394 56.6491 88.9394C56.0393 88.9394 55.468 88.8241 54.9351 88.5935C54.4077 88.3574 53.9407 88.0312 53.5342 87.6151C53.1331 87.199 52.8172 86.7211 52.5865 86.1813C52.3613 85.6358 52.2486 85.051 52.2486 84.4269C52.2486 83.8252 52.3585 83.2601 52.5783 82.7315C52.798 82.1973 53.1029 81.7306 53.493 81.3314C53.883 80.9322 54.3335 80.6201 54.8444 80.3952C55.3608 80.1646 55.913 80.0493 56.5008 80.0493C57.0996 80.0493 57.627 80.1899 58.083 80.4711C58.5444 80.7466 58.9235 81.1008 59.2202 81.5338L59.1542 80.2855ZM56.6903 87.244C57.1847 87.244 57.6105 87.1175 57.9676 86.8645C58.3302 86.6114 58.6021 86.2712 58.7834 85.8439C58.9702 85.4165 59.0499 84.9442 59.0224 84.4269C58.9894 83.932 58.8603 83.4822 58.6351 83.0773C58.4153 82.6725 58.1214 82.352 57.7533 82.1158C57.3853 81.874 56.9677 81.7531 56.5008 81.7531C56.0118 81.7531 55.5696 81.8796 55.174 82.1327C54.784 82.3857 54.4818 82.7259 54.2676 83.1533C54.0533 83.5806 53.9599 84.0558 53.9874 84.5787C54.0204 85.0679 54.1632 85.5149 54.4159 85.9198C54.6741 86.3246 55.001 86.648 55.3965 86.8898C55.7976 87.1259 56.2288 87.244 56.6903 87.244Z" fill="white"/>
<path d="M62.8405 80.2855H64.5545V88.7201H62.8405V80.2855ZM63.7057 78.8938C63.4475 78.8938 63.2305 78.8067 63.0547 78.6323C62.8789 78.458 62.791 78.2387 62.791 77.9744C62.791 77.7158 62.8789 77.4993 63.0547 77.325C63.2305 77.145 63.4475 77.0551 63.7057 77.0551C63.9585 77.0551 64.1727 77.145 64.3485 77.325C64.5243 77.4993 64.6122 77.7158 64.6122 77.9744C64.6122 78.2387 64.5243 78.458 64.3485 78.6323C64.1727 78.8067 63.9585 78.8938 63.7057 78.8938Z" fill="white"/>
<path d="M71.9919 82.0483C71.8491 81.9584 71.6925 81.8881 71.5222 81.8375C71.3574 81.7812 71.1761 81.7531 70.9783 81.7531C70.5498 81.7531 70.1762 81.8684 69.8576 82.0989C69.539 82.3295 69.289 82.6416 69.1077 83.0352C68.9319 83.4288 68.844 83.8646 68.844 84.3425V88.7201H67.1217V80.2855H68.8358V81.4242C69.1214 81.0024 69.4676 80.6707 69.8741 80.4289C70.2861 80.1815 70.7448 80.0578 71.2503 80.0578C71.437 80.0578 71.6128 80.0662 71.7777 80.0831C71.948 80.1 72.11 80.1337 72.2639 80.1843L71.9919 82.0483Z" fill="white"/>
<path fill-rule="evenodd" clip-rule="evenodd" d="M36.5065 20.9484C34.9731 21.0561 33.3557 21.304 32.2154 21.606C30.8331 21.9721 29.4235 22.9005 28.784 23.866C28.7166 23.9678 28.5454 24.2015 28.4035 24.3855C27.4665 25.6006 26.8084 26.9416 26.4064 28.455C26.1637 29.3688 25.9794 30.9888 26.0191 31.8586C26.0712 32.9961 26.3423 33.9074 27.1696 35.7256C27.5897 36.6487 27.6143 36.703 27.6818 36.8558C28.4773 38.6569 28.6663 40.0366 28.3122 41.4568C28.1697 42.0285 27.5579 43.0797 26.6015 44.3963C25.1031 46.459 24.5654 47.4379 24.2796 48.6233C24.1568 49.1323 24.121 49.4947 24.1172 50.2643C24.1133 51.0659 24.1602 51.3786 24.3757 51.9878C24.6953 52.8915 25.1864 53.638 26.4839 55.1926C27.6917 56.6397 28.1245 57.2808 28.4654 58.1278C28.7703 58.8852 28.8555 59.5613 28.7785 60.6119C28.7098 61.5499 28.565 62.1475 28.2118 62.9502C27.9442 63.5582 27.6731 64.0307 26.8665 65.2951C25.7326 67.0725 25.315 68.0115 25.1857 69.075C25.1224 69.5959 25.1537 70.4218 25.2509 70.7984L25.2819 70.9183L26.4113 71.2936C27.0325 71.5001 27.5722 71.678 27.6105 71.689L27.6803 71.7091L27.6032 71.3824C27.3773 70.4259 27.3909 69.4789 27.6448 68.5023C27.8862 67.5733 28.2531 66.7981 29.2496 65.1116C30.1775 63.5409 30.524 62.8648 30.7972 62.0915C31.224 60.8834 31.3042 59.4618 31.0046 58.4146C30.7034 57.3621 30.2129 56.5814 28.6306 54.6359C27.4463 53.1798 26.9779 52.4068 26.6581 51.3801C26.4677 50.769 26.4259 50.4456 26.4453 49.7347C26.4601 49.194 26.4744 49.0701 26.5636 48.7091C26.8654 47.4874 27.4327 46.4589 28.9242 44.4298C29.6175 43.4866 29.8044 43.1906 30 42.7261C30.3216 41.9626 30.4247 41.4856 30.4484 40.6514C30.485 39.3574 30.2453 38.4251 29.2841 36.123C28.5095 34.268 28.2735 33.6211 28.0863 32.8403C27.882 31.9885 27.8704 31.8712 27.8705 30.6649C27.8705 29.4699 27.8925 29.2231 28.0727 28.3876C28.2625 27.5078 28.7337 26.3544 29.196 25.6379C29.6234 24.9756 30.2104 24.3305 30.7877 23.8887C31.1386 23.6202 31.5698 23.3403 31.5942 23.3652C31.6015 23.3727 31.4951 23.538 31.3576 23.7324C30.2124 25.3522 29.8191 26.0288 29.5244 26.8862C29.1821 27.8818 29.0606 28.6153 29.0629 29.6696C29.0667 31.4235 29.4718 32.9248 30.7468 35.9112C31.6916 38.124 31.9837 38.89 32.1113 39.4895C32.1742 39.7851 32.1864 39.9446 32.1873 40.4827C32.1883 41.0329 32.1776 41.1732 32.112 41.4732C31.8825 42.5221 31.5336 43.2275 30.3338 45.0677C29.3706 46.545 29.1395 46.9466 28.8172 47.7027C28.4429 48.5806 28.2672 49.5527 28.3451 50.3146C28.4077 50.9259 28.5493 51.4047 28.8494 52.0194C29.1963 52.7301 29.5396 53.2209 30.6203 54.5515C31.4321 55.551 31.9416 56.3041 32.2449 56.9528C32.4359 57.3614 32.7723 58.3853 32.8449 58.7796C33.0757 60.0318 32.9125 61.2376 32.322 62.6448C32.1642 63.021 31.7346 63.9066 31.5346 64.2681C30.0647 66.9253 29.6149 68.0701 29.4964 69.4556C29.4505 69.9921 29.4888 70.5997 29.6022 71.1339C29.6396 71.3101 29.685 71.5666 29.703 71.7037C29.8016 72.454 30.1219 72.6504 31.3314 72.7024C31.7926 72.7222 32.212 72.7655 32.3438 72.8068C32.3873 72.8205 32.3669 72.7525 32.2543 72.5092C32.0676 72.1058 31.8679 71.4888 31.771 71.0158C31.705 70.6941 31.6949 70.548 31.6952 69.9193C31.6955 69.3003 31.7069 69.1321 31.7731 68.7727C31.9169 67.9921 32.1705 67.1983 32.5561 66.3218C32.7375 65.9096 32.8629 65.6516 33.8747 63.6102C34.9888 61.3626 35.3242 60.1938 35.2078 58.965C35.1146 57.9812 34.7835 57.1092 34.0996 56.0464C33.7805 55.5506 33.5145 55.1891 32.6696 54.103C31.158 52.1598 30.6823 51.3217 30.5071 50.2934C30.3659 49.4649 30.5203 48.6029 30.9785 47.6611C31.2614 47.0796 31.5359 46.6437 32.514 45.2229C33.1299 44.3282 33.522 43.5969 33.7521 42.9137C33.9131 42.436 34.0146 42.2372 34.1907 42.0552C34.4426 41.7948 34.7699 41.7046 35.1909 41.7797C35.3147 41.8017 35.6762 41.9086 35.9942 42.0171C36.8788 42.319 36.8931 42.3217 37.6507 42.3296C38.4001 42.3375 38.4799 42.323 39.4621 42.0008C40.4152 41.6881 40.8909 41.6676 41.381 41.9182C41.6442 42.0527 41.7451 42.1605 41.7945 42.3601C41.9884 43.1436 42.4949 43.9899 43.7346 45.6016C44.7221 46.8855 45.1857 47.7564 45.3739 48.6811C45.6196 49.8882 45.2505 51.2926 44.3123 52.7203C43.991 53.2091 43.7117 53.5875 42.9357 54.5853C42.256 55.4591 42.0229 55.7662 41.8989 55.9513C41.1196 57.1146 40.8155 57.7663 40.6445 58.6392C40.569 59.0247 40.5531 59.7581 40.6122 60.1352C40.7271 60.8685 40.8765 61.2514 41.5549 62.5515C41.8733 63.1617 42.2639 63.9114 42.4227 64.2175C43.5868 66.4603 44.1449 68.1668 44.2215 69.7169C44.2678 70.6565 44.057 71.8193 43.6955 72.618C43.6499 72.7187 43.6163 72.8049 43.6208 72.8095C43.6254 72.8141 44.1547 72.6979 44.797 72.5512C45.6159 72.3643 45.9769 72.268 46.0046 72.2291C46.0264 72.1987 46.0974 72.0038 46.1624 71.796C46.6047 70.3834 46.5499 68.9276 45.9956 67.3624C45.6773 66.4636 45.2725 65.6266 44.3114 63.8798C43.316 62.0706 43.0512 61.4334 42.9521 60.6084C42.7517 58.9417 43.3264 57.3179 44.8747 55.1757C44.9485 55.0736 45.3271 54.5692 45.716 54.0547C46.9951 52.3628 47.1756 52.0845 47.3954 51.4645C47.5741 50.9606 47.6337 50.6453 47.6541 50.0981C47.7122 48.5351 47.2053 47.2944 45.493 44.8089C44.3026 43.0809 44.1632 42.8451 43.9558 42.2084C43.6716 41.3361 43.6191 40.5801 43.7762 39.6224C43.9407 38.6194 44.2426 37.8219 45.2831 35.6413C45.712 34.7423 45.8266 34.4769 46.0842 33.7857C46.6672 32.2214 46.8404 31.3434 46.8398 29.9564C46.8393 28.5016 46.5995 27.3142 46.0397 25.9941C45.6497 25.0746 45.0567 24.1487 44.4262 23.4751C44.1718 23.2032 44.1388 23.1483 44.2047 23.1066C44.2476 23.0794 44.5913 23.3066 44.9459 23.5965C46.0512 24.4999 46.8331 25.5347 47.4244 26.8763C47.9022 27.9605 48.1062 28.9326 48.1026 30.1082C48.1005 30.7834 48.0442 31.3398 47.908 32.0299C47.7123 33.0212 47.5112 33.6826 46.7733 35.7617C45.8739 38.2959 45.6576 39.0444 45.4854 40.2201C45.4138 40.7086 45.5231 41.5128 45.7498 42.1651C46.0338 42.9822 46.4114 43.6012 47.4509 44.953C48.3958 46.1818 48.7053 46.6483 49.0473 47.3598C49.4667 48.2324 49.6157 48.84 49.6151 49.6764C49.6149 50.0773 49.5983 50.2819 49.5441 50.5536C49.2935 51.81 48.6683 52.9576 47.1925 54.8702C46.2831 56.0488 46.1556 56.2186 45.83 56.6838C45.3303 57.398 45.0284 58.0721 44.8567 58.8572C44.7898 59.1631 44.7804 59.2927 44.7827 59.8822C44.785 60.4823 44.7949 60.5998 44.8715 60.9449C45.1042 61.9925 45.4716 62.7996 46.5466 64.6238C47.653 66.5013 48.0104 67.2091 48.301 68.0983C48.648 69.16 48.7149 70.2873 48.4887 71.2592C48.4551 71.4035 48.4327 71.5268 48.439 71.5332C48.4571 71.5518 50.6509 70.797 50.7079 70.7524C50.8482 70.643 50.8645 69.3082 50.7331 68.6774C50.5421 67.7597 50.1351 66.8046 49.451 65.6683C49.2145 65.2755 49.0973 65.09 48.4493 64.0826C47.8304 63.1205 47.6895 62.8714 47.5208 62.4417C46.947 60.9806 47.0169 59.5518 47.7422 57.9095C48.1297 57.0322 48.6436 56.2216 49.8949 54.5142C51.232 52.6895 51.2992 52.5876 51.4708 52.121C51.9091 50.929 51.9251 49.6476 51.5181 48.3422C51.1615 47.1987 50.6123 46.1789 49.2476 44.1264C48.5098 43.0167 48.0158 42.2305 47.8695 41.9326C47.7642 41.7181 47.598 41.1939 47.5276 40.8538C47.4579 40.5169 47.4751 39.6091 47.5602 39.1398C47.7427 38.1342 48.0322 37.3298 48.8317 35.6075C49.332 34.5299 49.5191 33.9369 49.6725 32.9422C50.1103 30.1048 49.4521 27.0595 47.9008 24.7438C47.7827 24.5676 47.6098 24.3322 47.5166 24.2209C47.4233 24.1096 47.2787 23.9198 47.1952 23.7992C47.0323 23.5639 46.538 23.0529 46.1678 22.7371C45.5231 22.1871 44.6418 21.7074 43.9725 21.5423C42.9284 21.2847 41.5827 21.0739 40.2807 20.9639C39.572 20.904 37.2726 20.8946 36.5065 20.9484ZM38.5461 22.3819C39.9188 22.4451 40.4427 22.5361 41.319 22.8634C42.2202 23.1999 42.8151 23.5606 43.3565 24.0989C43.7094 24.4497 44.0809 25.0099 44.1499 25.2952C44.1626 25.3479 44.2324 25.5261 44.305 25.691C44.3776 25.856 44.4455 26.065 44.456 26.1556C44.4758 26.3267 44.4214 26.5657 44.3627 26.5657C44.3445 26.5657 44.2158 26.5365 44.0769 26.5007C43.6222 26.3839 43.306 26.3493 42.687 26.3488C41.7367 26.3479 41.0192 26.4802 40.0005 26.8439C39.6133 26.9822 39.5999 26.9904 39.3652 27.2339C38.6752 27.9494 38.45 29.2396 38.7333 30.8534C38.8478 31.5054 38.8462 31.5015 39.0667 31.6788L39.2634 31.837L39.3937 31.7769C39.5571 31.7014 39.7171 31.5235 39.9635 31.1431C40.072 30.9757 40.2161 30.8008 40.2927 30.7436C40.4511 30.6255 40.4832 30.6263 41.0553 30.7632C41.6691 30.91 42.099 30.9618 42.5386 30.9419C42.9727 30.9222 43.231 30.8632 43.5096 30.72C43.6643 30.6406 43.7122 30.6306 43.822 30.6548C44.1806 30.7337 44.3766 31.0864 44.4647 31.812C44.485 31.979 44.5087 32.1721 44.5175 32.2412C44.5445 32.4554 44.2349 33.8163 43.9665 34.6629C43.4188 36.3902 42.6041 37.8309 41.6046 38.8397C40.8415 39.6099 39.8468 40.2434 39.064 40.4578C38.7819 40.5351 38.6842 40.5446 38.1546 40.5462C37.3911 40.5485 36.9218 40.4656 35.9515 40.157C35.5807 40.0391 35.4836 39.9916 35.168 39.7733C34.6169 39.3921 34.3701 39.1849 33.8898 38.7008C32.647 37.448 31.8068 35.9339 31.3829 34.1831C31.1883 33.3793 31.0981 32.4285 31.1462 31.6879C31.1707 31.3109 31.1848 31.2414 31.2648 31.1017C31.5411 30.619 31.8884 30.4707 32.2635 30.6749C32.6449 30.8827 32.7336 30.921 32.9136 30.9553C33.1825 31.0067 33.5475 30.975 34.1167 30.851C34.7087 30.7221 35.067 30.6914 35.3065 30.7492C35.5082 30.798 35.8295 30.9531 35.8945 31.0332C35.9565 31.1097 36.0285 31.0997 36.1952 30.9913C36.5124 30.785 36.6968 30.4653 36.749 30.0311C36.7861 29.7227 36.7578 29.3385 36.6418 28.5731C36.5967 28.2762 36.5495 27.9149 36.5367 27.7701C36.5148 27.5206 36.5062 27.4985 36.3692 27.3426C36.1982 27.1478 35.8502 26.8791 35.6079 26.7545C35.3406 26.6171 34.8896 26.4728 34.5274 26.4089C34.1591 26.3438 32.9752 26.3333 32.3203 26.3891C31.9705 26.419 31.9541 26.4174 31.8552 26.343C31.6121 26.1601 31.5919 25.8898 31.7917 25.4951C32.2865 24.5181 32.6358 24.0878 33.3713 23.5494C34.2902 22.8767 35.6129 22.4648 37.1163 22.3832C37.7741 22.3475 37.7995 22.3475 38.5461 22.3819ZM33.4914 27.8311C34.1338 27.9694 34.6943 28.2936 35.0061 28.7072C35.1172 28.8547 35.1386 28.9083 35.1386 29.0401C35.1386 29.2371 35.1356 29.2373 34.5617 29.0784C33.5642 28.8023 33.1284 28.7437 32.7804 28.8385C32.5095 28.9124 32.3643 28.9984 32.1627 29.2047C31.9898 29.3817 31.9591 29.3997 31.8306 29.3997C31.6925 29.3997 31.6098 29.3453 31.5294 29.2012C31.4868 29.1248 31.4522 28.421 31.4851 28.2992C31.5248 28.152 31.6569 27.9947 31.8053 27.9179C31.9132 27.862 32.1924 27.8012 32.5016 27.7662C32.6943 27.7444 33.2613 27.7816 33.4914 27.8311ZM43.3564 27.8853C43.7917 27.9542 44.0937 28.1055 44.2774 28.3468C44.3539 28.4474 44.3679 28.4979 44.3672 28.6713C44.3661 28.9848 44.3212 29.132 44.1892 29.2561L44.0728 29.3656L43.899 29.2943C43.1201 28.9748 42.4845 28.8171 41.9618 28.8138C41.5223 28.8111 41.3166 28.8616 40.9504 29.0623L40.7137 29.192L40.662 29.0368C40.56 28.7303 40.6116 28.4982 40.8163 28.3441C40.9754 28.2243 41.2207 28.1465 41.8464 28.0172C41.9552 27.9947 42.0961 27.9491 42.1596 27.9157C42.2515 27.8673 42.3606 27.8543 42.6971 27.8514C42.9293 27.8494 43.226 27.8646 43.3564 27.8853ZM37.457 33.0934C37.1456 33.1512 36.8433 33.2567 36.6301 33.3818L36.4571 33.4834V33.7485C36.4571 33.9503 36.4697 34.0243 36.5098 34.0584C36.565 34.1053 37.2615 34.1374 38.237 34.1379C38.6907 34.1382 38.725 34.1334 38.9127 34.0443C39.1331 33.9397 39.2306 33.8573 39.3309 33.6912L39.3988 33.5787L39.3041 33.4775C39.1741 33.3385 38.7952 33.1539 38.5172 33.0942C38.238 33.0342 37.7776 33.0338 37.457 33.0934ZM35.0861 35.8137C35.1229 36.1023 35.134 36.1231 35.3275 36.2654C35.4284 36.3397 35.6905 36.5944 35.9099 36.8315C36.7117 37.698 37.0248 37.868 37.8189 37.868C38.4028 37.868 38.7338 37.7626 39.2178 37.4225C39.609 37.1476 40.052 36.6613 40.5228 35.9897C40.6348 35.83 40.6399 35.8134 40.5824 35.7947C40.4092 35.7384 39.3362 35.7144 37.7933 35.7323C36.1788 35.751 35.6116 35.7337 35.1749 35.6527L35.0629 35.6319L35.0861 35.8137Z" fill="white"/>
<path d="M29.5191 9.42936C29.2965 9.42936 29.0967 9.634 29.0967 9.90879C29.0967 9.95264 29.1024 9.99649 29.111 10.0403C30.0585 13.3115 30.6123 17.5094 30.6151 18.0795C30.6208 18.9506 32.0251 19.1611 32.8671 19.2722C32.8842 19.1465 32.8899 19.0822 32.8899 19.0822C32.8899 19.1114 32.8871 19.1728 32.8871 19.2751C34.0202 19.4271 35.1247 19.5265 36.3949 19.5265C37.468 19.5265 38.6611 19.4564 40.0882 19.2868C40.2994 19.2605 40.4193 19.0734 40.4193 18.898C40.4193 18.7314 40.3137 18.5765 40.0768 18.5765C39.3861 18.6408 38.3842 18.6875 37.2968 18.6875C35.2931 18.6875 33.0041 18.5268 31.851 18.0093C32.8699 17.7024 34.3855 17.5971 35.8697 17.5971C40.6733 17.5971 43.4219 18.6759 43.439 18.6846C43.499 18.7139 43.5618 18.7255 43.6217 18.7255C44.3666 18.7255 43.5989 18.4771 45.7652 9.95264C45.7852 9.8854 45.7937 9.82401 45.7937 9.76847C45.7937 9.52291 45.6253 9.37382 45.4056 9.37382C44.849 9.37382 44.8576 9.97018 44.1497 10.6542C43.6245 11.16 42.8454 11.3997 41.9777 11.8879C41.2784 11.1103 38.1388 8.68099 37.879 7.68706C37.8077 7.41811 37.6479 7.3158 37.4795 7.3158C37.2454 7.3158 36.9971 7.51458 36.9486 7.74553C36.686 8.78915 33.672 11.119 32.9156 11.9434C31.2916 11.043 30.9405 11.3061 29.8559 9.61353C29.756 9.48491 29.6333 9.42936 29.5191 9.42936ZM41.6066 13.2735C41.658 13.4226 41.6923 13.6214 41.6923 13.8144C41.6923 14.4809 41.3098 14.4663 41.2927 14.4663C41.1528 14.4663 41.0358 14.361 41.0358 14.1739C41.0386 13.9664 41.1842 13.6536 41.6066 13.2735ZM33.1382 13.2209C33.6291 13.6477 33.8147 14.0453 33.8147 14.285C33.8147 14.4283 33.7462 14.516 33.6377 14.516C33.3009 14.516 33.0726 14.1038 33.0726 13.6477C33.0697 13.5074 33.0897 13.3642 33.1382 13.2209ZM32.419 12.724C32.242 13.1274 32.1649 13.5016 32.1649 13.8377C32.1649 14.8054 32.8043 15.4427 33.5178 15.4427C34.2171 15.4427 34.6823 14.9194 34.6823 14.2324C34.6823 13.677 34.3798 13.0163 33.6577 12.4345C34.0801 12.0165 36.6261 9.8854 37.3624 8.89732C38.0389 9.87079 40.5363 11.9727 41.0815 12.5018C40.3593 13.1303 40.0682 13.791 40.0682 14.3318C40.0682 15.0071 40.5249 15.4953 41.1728 15.4953C42.0148 15.4953 42.6627 14.7323 42.6627 13.7003C42.6627 13.3876 42.6027 13.0484 42.4686 12.6976C43.0737 12.3761 43.8044 12.0984 44.3581 11.6862C43.9071 13.5863 43.556 15.6268 43.3249 17.6381C41.9406 16.9628 38.8752 16.6032 36.1152 16.6032C34.0287 16.6032 32.1164 16.8108 31.2487 17.2463C31.0204 15.0977 30.7321 13.2765 30.3554 11.5839C30.9576 12.0633 31.7111 12.3264 32.419 12.724Z" fill="white"/>
</svg>
