<svg width="312" height="1210" viewBox="0 0 312 1210" fill="none" xmlns="http://www.w3.org/2000/svg">
<g opacity="0.8">
<path d="M130.07 977.547C120.646 969.677 117.77 960.989 121.022 951.05C121.916 945.51 118.581 940.911 115.246 936.312C111.284 931.063 110.694 926.267 116.843 922.754C122.969 921.879 130.121 924.35 135.013 919.913C137.336 919.66 139.439 920.32 141.324 921.894C142.37 922.977 142.99 924.382 143.189 925.729C138.214 939.587 141.879 954.419 143.647 969.184C144.268 970.588 144.254 972.095 143.819 973.546C141.891 976.872 138.712 978.52 134.696 979.301C132.798 979.234 131.325 978.847 130.07 977.547Z" fill="#F8AF5A"/>
<path d="M319.369 1055.48C316.073 1055.79 312.777 1056.09 309.482 1056.4C305.775 1056.65 301.636 1058.69 298.398 1054.2C297.594 1052.61 296.993 1051.24 297.218 1049.6C297.669 1046.33 298.945 1042.8 301.843 1041.33C317.57 1033.79 330.456 1022.91 343.342 1012.03C348.33 1007.87 352.836 1009.58 352.743 1017.34C349.342 1026.51 339.429 1029.64 334.856 1033.48C330.704 1036.63 334.388 1038.22 332.758 1036.9C332.555 1036.69 332.763 1036.53 332.97 1036.37C337.339 1032.32 340.895 1027.43 348.503 1027.88C350.345 1028.67 351.153 1029.89 351.339 1031.58C347.319 1040.85 337.596 1045.31 330.315 1051.93C327.616 1053.98 323.698 1054.76 319.369 1055.48Z" fill="#F4A13E"/>
<path d="M151.691 835.075C157.83 832.191 155.17 820.089 166.914 822.705C168.204 818.094 171.898 815.631 175.998 813.22C186.854 807.453 197.716 801.32 205.578 792.044C214.378 787.85 221.396 780.67 232.573 780.457C234.184 781.399 235.179 782.814 235.967 784.385C236.689 790.358 231.367 792.979 227.661 796.176C210.376 810.484 190.097 821.284 171.819 834.178C167.296 837.637 162.779 840.73 156.079 840.417C152.84 839.633 151.241 837.957 151.691 835.075Z" fill="#F89C2C"/>
<path d="M210.896 691.291C210.317 688.821 210.157 685.669 212.21 684.831C223.286 681.115 230.147 672.246 240.005 668.002C248.631 664.336 255.636 659.721 262.048 653.741C266.557 652.485 270.946 645.136 275.916 654.808C261.164 673.333 243 687.547 217.995 694.609C215.137 694.605 212.702 693.552 210.896 691.291Z" fill="#FBDBB4"/>
<path d="M165.546 782.533C174.557 769.833 186.022 758.939 197.075 747.991C200.7 737.542 213.494 736.641 220.786 730.011C222.034 729.064 223.481 728.7 225.133 728.548C235.375 734.347 228.928 739.236 224.373 740.857C208.226 746.501 205.145 763.504 190.22 770.422C178.823 775.398 193.625 779.206 196.044 783.971C198.651 790.428 193.498 790.302 188.956 790.813C181.54 790.203 173.895 791.601 166.947 786.237C165.928 785.176 165.529 784.012 165.546 782.533Z" fill="#F8AE54"/>
<path d="M190.395 738.858C186.273 736.076 185.623 738.78 183.938 741.159C179.945 746.022 173.701 747.794 166.655 746.855C163.958 746.681 163.958 746.681 166.304 740.483C168.24 733.859 176.986 730.932 176.031 722.806C176.659 722.332 177.081 721.644 177.503 720.956C178.157 717.881 181.066 717.525 183.363 716.157C189.345 719.744 195.338 722.217 201.594 719.33C203.876 719.448 205.944 720.096 207.169 722.12C207.154 723.606 206.724 725.037 206.093 725.882C205.435 729.329 196.734 727.797 200.613 734.081C198.91 738.318 195.571 740.105 190.395 738.858Z" fill="#F8A94A"/>
<path d="M274.297 653.4C269.414 651.658 265.691 654.859 261.001 654.063C275.036 644.097 286.254 630.815 303.918 624.64C306.593 623.33 307.807 624.225 307.768 627.169C303.592 633.628 299.416 640.087 294.227 645.862C292.565 647.857 290.499 649.43 288.227 651.162C284.308 653.784 280.388 656.406 274.297 653.4Z" fill="#FBD09D"/>
<path d="M152.95 835.153C153.962 836.581 155.177 838.221 155.981 839.807C157.996 843.402 157.134 846.618 155.451 849.726C154.196 851.411 152.535 852.672 150.874 853.933C142.154 860.553 139.132 872.363 126.139 874.906C124.496 874.689 123.272 873.788 122.671 872.414C127.8 856.441 138.031 843.916 152.95 835.153Z" fill="#F9BC73"/>
<path d="M274.998 1060C270.116 1061.43 265.831 1066.91 259.539 1060.39C254.973 1050.3 246.216 1058.79 240.326 1054.59C239.277 1053.5 238.442 1052.25 238.029 1051.06C237.637 1047.6 238.301 1044.47 239.387 1041.39C240.68 1038.92 243.021 1037.53 245.989 1037.17C247.471 1037.18 248.949 1037.56 250.428 1037.95C252.539 1038.61 254.646 1039.65 256.758 1040.32C264.535 1046.47 274.025 1050.59 280.52 1058.09C279.444 1060.03 277.322 1060.5 274.998 1060Z" fill="#F9B768"/>
<path d="M193.031 1039.99C180.297 1039.04 175.912 1031.04 173.029 1021.53C173.286 1016.81 175.86 1014.11 180.12 1012.78C185.635 1013.52 187.061 1019.99 192.79 1020.56C207.62 1024.45 197.537 1035.08 202.36 1041.62C198.912 1046.86 196.004 1040 193.031 1039.99Z" fill="#F7AB4F"/>
<path d="M123.453 872.972C124.074 873.616 124.902 874.475 125.524 875.119C131.168 874.941 135.381 871.392 140.819 870.999C143.12 870.746 145.204 871.4 147.071 872.959C148.106 874.033 148.931 875.266 149.335 876.816C149.718 880.608 148.02 883.373 145.284 885.437C144.231 886.231 143.179 887.025 141.92 887.604C140.867 888.398 139.608 888.977 138.349 889.557C135.198 891.191 132.048 892.826 128.284 893.069C125.151 892.836 122.235 891.697 121.221 888.382C117.933 882.33 115.897 876.447 123.453 872.972Z" fill="#F7AD53"/>
<path d="M122.225 888.599C124.104 889.79 125.774 890.765 127.653 891.956C129.119 892.341 130.582 893.101 131.833 894.02C132.873 895.098 133.49 896.495 134.108 897.892C135.537 902.402 135.081 906.471 132.32 910.043C129.562 913.239 125.976 915.198 121.353 915.703C104.184 910.768 113.074 902.575 115.029 895.141C115.486 891.072 118.646 889.807 122.225 888.599Z" fill="#FAC687"/>
<path d="M306.878 626.055C305.642 625.519 304.197 625.142 302.961 624.606C301.737 622.958 299.702 619.717 301.36 619.566C313.169 618.35 317.826 608.572 327.179 604.802C329.234 606.189 331.292 607.205 333.347 608.592C332.566 623.526 318.494 623.513 306.878 626.055Z" fill="#FBD3A4"/>
<path d="M161.372 803.722C169.094 801.585 173.747 794.005 183.519 795.125C180.544 801.438 173.002 806.395 179.368 815.262C174.976 817.471 170.789 819.894 166.396 822.103C162.499 816.176 157.351 810.455 161.372 803.722Z" fill="#F9BA6E"/>
<path d="M180.275 1012.49C178.771 1015.87 176.637 1018.97 172.83 1020.72C165.054 1018.73 162.179 1010.43 154.404 1008.45C154.831 1007.75 155.464 1007.65 156.097 1007.55C157.399 1003.2 160.579 1000.8 165.43 1000.14C170.674 1002.54 175.703 1005.47 181.375 1007.18C182.409 1009.39 182.183 1011.05 180.275 1012.49Z" fill="#FAC788"/>
<path d="M176.073 722.42C182.698 725.541 180.999 729.04 178.466 732.801C175.308 736.664 170.511 738.073 166.331 740.123C157.507 727.952 167.72 725.776 176.073 722.42Z" fill="#FAC381"/>
<path d="M168.062 784.4C160.977 788.288 161.483 799.317 151.111 800.538C148.151 786.582 150.459 783.731 166.84 782.379C167.041 782.964 167.656 783.603 168.062 784.4Z" fill="#FBD7AB"/>
<path d="M196.124 709.492C195.953 705.551 200.126 704.99 202.452 701.384C197.874 700.771 192.819 706.438 189.55 699.658C198.92 700.352 204.395 694.368 211.51 691.215C212.964 691.597 214.629 691.819 216.084 692.201C215.973 703.752 210.075 710.426 196.124 709.492Z" fill="#FBD09E"/>
<path d="M240.895 1051.98C239.211 1052.88 237.735 1053.99 235.841 1055.05C233.318 1056.21 230.583 1057.53 228.06 1058.69C223.676 1057.16 221.609 1054.26 222.061 1050.58C222.7 1049.35 223.547 1048.34 224.809 1047.76C226.07 1047.18 227.536 1047.19 229.002 1047.2C229.42 1047.26 230.049 1047.15 230.886 1047.27C232.977 1047.55 235.069 1047.83 237.157 1048.48C237.783 1048.75 238.409 1049.02 238.823 1049.45C239.653 1050.32 240.272 1051.34 240.895 1051.98Z" fill="#FCE4C6"/>
<path d="M212.726 1052.33C209.164 1053.91 206.251 1053.14 203.778 1049.82C203.789 1048.71 204.216 1047.64 205.267 1046.85C207.785 1045.32 210.716 1044.22 213.644 1043.49C216.361 1042.92 219.072 1043.1 221.772 1044.39C222.185 1044.82 222.805 1045.46 223.218 1045.89C223.414 1047.22 222.987 1048.29 221.936 1049.08C219.614 1051.95 216.27 1052.62 212.726 1052.33Z" fill="#FCE8CE"/>
<path d="M159.196 751.202C158.566 750.929 158.146 750.872 157.725 750.816C157.728 750.44 157.944 749.904 158.156 749.744C158.368 749.584 158.997 749.857 159.415 750.29C159.203 750.45 159.199 750.826 159.196 751.202Z" fill="#F7A544"/>
<path d="M140.232 969.521C139.003 968.617 137.357 968.028 136.545 966.808C132.274 960.865 145.775 953.94 132.622 948.118C136.004 941.15 136.507 933.059 141.326 926.837C142.404 922.716 145.316 920.877 149.865 920.367C163.492 920.689 172.244 913.691 180.792 906.48C195.596 893.794 214.459 887.579 235.151 884.016C239.756 897.049 222.871 892.587 222.58 900.15C224.859 899.525 226.554 895.671 230.078 894.469C234.64 892.848 238.785 891.543 241.398 898.008C242.786 903.198 242.524 908.169 240.2 912.867C236.851 916.873 236.169 922.531 233.228 926.962C226.326 934.761 215.137 938.099 208.035 945.316C204.915 947.313 201.594 948.727 197.866 949.717C191.45 950.906 184.814 953.364 177.427 949.048C163.388 948.672 153.219 953.072 149.363 965.54C148.73 966.754 148.097 967.968 147.056 968.757C144.977 969.965 142.703 970.219 140.232 969.521Z" fill="#F6941E"/>
<path d="M150.513 920.431C147.232 922.213 143.745 924.153 140.464 925.935C139.868 924.939 139.267 924.309 138.672 923.313C137.703 920.063 138.359 917.022 140.227 914.506C156.628 905.962 171.427 895.74 186.827 886.147C191.343 883.421 195.653 880.852 199.167 877.078C209.266 868.271 218.97 858.678 230.07 850.92C236.254 845.468 241.442 838.6 251.816 838.654C259.336 839.074 264.524 832.206 273.03 834.776C278.855 839.757 275.546 843.374 272.043 846.415C268.339 849.245 263.433 850.818 260.531 854.487C259.085 855.955 257.439 857.213 255.592 858.262C241.937 859.991 246.624 873.098 241.231 880.122C239.601 880.28 237.977 880.07 236.152 879.65C217.141 885.835 198.531 892.439 183.299 904.443C173.834 911.678 164.764 919.698 150.513 920.431Z" fill="#FA9822"/>
<path d="M141.405 916.683C140.354 918.579 139.51 920.317 138.256 922.001C136.821 921.628 135.182 921.042 133.54 920.826C129.857 919.231 126.487 925.815 122.844 920.896C120.42 917.248 124.964 915.627 127.048 913.313C128.51 911.471 130.992 910.318 131.226 907.945C131.266 904.622 131.103 901.086 130.94 897.551C131.152 897.024 131.156 896.655 131.165 895.916C131.58 895.601 131.996 895.286 132.411 894.971C134.27 894.291 136.337 893.453 137.997 892.192C138.828 891.562 139.247 890.878 139.874 890.035C140.704 889.405 141.95 888.459 142.171 887.194C142.387 886.298 142.604 885.402 142.82 884.505C144.905 882.191 146.782 880.034 148.659 877.877C149.087 876.454 150.125 875.666 151.569 875.301C163.276 876.658 166.73 863.058 179.047 865.05C188.761 878.165 173.146 876.848 168.752 883.112C170.99 885.072 177.39 883.14 177.115 888.837C171.232 899.159 160.271 904.188 148.904 908.794C144.77 910.469 140.239 910.982 141.405 916.683Z" fill="#F89824"/>
<path d="M132.182 908.039C132.966 913.371 128.146 915.899 125.604 920.038C128.73 920.27 131.645 920.66 134.561 921.051C130.549 926.3 124.907 927.598 117.862 922.922C117.453 922.12 117.043 921.319 116.634 920.517C118.73 919.305 120.204 917.822 119.606 914.942C124.006 912.731 127.989 910.464 132.182 908.039Z" fill="#F6A33F"/>
<path d="M146.119 975.001C142.18 976.518 139.857 981.215 134.115 977.86C137.438 976.076 140.76 974.291 144.083 972.507C145.316 973.041 146.132 973.891 146.119 975.001Z" fill="#F39B33"/>
<path d="M145.912 975.07C145.078 974.206 144.665 973.398 143.831 972.533C143.209 971.509 142.584 970.861 141.962 969.837C143.652 968.936 145.343 968.034 147.242 967.349C148.715 967.359 149.757 968.44 150.167 969.623C150.57 971.558 149.925 973.165 149.072 974.555C148.221 975.569 147.166 975.991 145.905 975.822L145.912 975.07Z" fill="#F89F36"/>
<path d="M388.712 985.851C381.096 991.67 374.889 998.59 373.118 1008.29C364.955 1009.81 362.149 1020.66 350.812 1016.62C349.826 1014.47 350.097 1009.91 345.563 1013.74C340.406 1018.4 334.042 1022.18 330.499 1027.79C322.802 1039.11 303.692 1037.75 298.605 1051.43C295.144 1051.54 292.512 1050.64 291.959 1046.71C295.913 1040.79 299.673 1034.28 306.844 1030.98C314.991 1030.56 319.752 1025.11 325.505 1021.44C327.558 1020.24 322.889 1019.45 322.916 1017.61C322.948 1015.41 323.988 1013.89 325.64 1012.27C341.051 1002.31 358.254 994.968 371.265 982.124C375.566 980.289 380.642 981.129 385.127 980.606C386.551 980.606 388.377 981.026 389.796 981.394C391.188 983.596 392.179 985.379 388.712 985.851Z" fill="#F79D32"/>
<path d="M293.218 1046.96C295.534 1048.22 297.427 1049.42 299.742 1050.68C300.367 1051.71 300.996 1052.36 301.621 1053.39C296.06 1060.21 286.166 1054.91 278.951 1057.35C268.391 1055.55 262.337 1046.6 253.491 1042.39C257.575 1035.18 263.876 1040.19 269.785 1041.74C277.367 1045.4 285.176 1047.4 293.218 1046.96Z" fill="#F6A94C"/>
<path d="M149.326 851.364C150.767 850.263 152.409 849.372 154.056 848.114C162.318 839.987 174.581 836.792 183.228 830.186C179.343 831.338 177.816 838.314 170.776 832.437C182.149 820.482 198.935 814.194 211.912 803.918C219.942 797.784 228.573 792.28 234.793 784.625C244.996 783.002 243.479 789.243 243.604 794.593C241.502 799.103 237.58 802.826 237.499 808.333C235.554 815.99 230.396 820.656 222.399 824.587C205.591 832.344 188.176 839.838 174.159 851.635C167.777 856.51 161.399 861.019 152.627 862.274C142.689 859.701 149.066 855.193 149.326 851.364Z" fill="#FC9A24"/>
<path d="M194.527 784.803C189.406 781.717 179.703 782.472 179.783 775.442C180.058 769.365 186.092 764.791 193.124 763.127C195.604 762.714 199.298 764.314 199.744 761.409C201.144 747.144 214.184 743.126 224.774 736.93C227.683 735.092 227.508 732.29 226.51 729.379C227.065 716.855 242.73 717.815 248.19 709.274C252.143 706.277 255.086 701.479 262.067 704.255C267.317 714.212 262.294 720.588 254.812 725.527C248.367 730.047 240.502 732.341 235.692 738.189C231.472 746.523 218.265 747 216.496 757.511C220.531 765.455 222.107 771.962 208.73 769.267C204.615 768.352 201.906 770.773 200.03 772.562C209.949 770.91 221.066 772.751 231.597 771.735C235.882 775.822 233.382 778.085 230.265 780.081C222.571 785.548 213.858 789.953 204.741 793.564C201.233 793.656 198.562 792.747 198.812 788.889C198.438 785.505 197.423 784.074 194.527 784.803Z" fill="#F59726"/>
<path d="M196.432 785.311C199.537 784.055 201.629 781.369 205.54 781.7C210.845 786.103 196.593 789.22 206.428 793.851C201.964 805.665 189.354 809.368 178.982 815.404C164.253 806.424 164.253 806.424 182.922 795.56C184.593 793.559 186.472 791.401 188.144 789.4C191.452 788.356 196.983 791.123 196.432 785.311Z" fill="#F59E36"/>
<path d="M231.116 781.431C231.559 778.858 232.214 776.126 232.658 773.553C234.408 765.891 238.655 761.197 248.931 764.271C260.641 771.485 256.58 779.025 252.938 786.62C250.592 790.253 248.664 794.319 243.194 794.712C242.354 794.599 241.514 794.486 240.673 794.373C239.45 790.072 240.548 784.767 233.196 783.967C232.363 783.103 231.741 782.079 231.116 781.431Z" fill="#FCA132"/>
<path d="M170.827 831.867C176.114 834.772 178.846 829.411 186.206 830.373C173.843 836.136 169.177 848.44 154.029 847.934C153.043 845.038 153.283 842.302 155.563 840.202C160.518 837.16 165.877 834.54 170.827 831.867Z" fill="#F89927"/>
<path d="M196.456 709.972C205.808 706.766 211.373 700.327 215.747 692.637C234.359 691.711 242.492 676.801 256.56 669.614C263.901 665.784 269.268 659.137 275.219 653.847C279.078 652.689 283.528 652.524 286.01 649.174C295.159 658.039 286.831 660.46 281.501 664.913C257.084 686.544 226.324 700.767 201.112 721.564C195.043 721.89 192.127 727.017 186.449 728.126C183.078 724.213 187.589 720.389 184.61 717.26C188.494 714.639 192.373 712.384 196.456 709.972Z" fill="#F89A29"/>
<path d="M248.641 712.312C241.606 718.4 231.345 721.116 225.52 728.468C224.084 728.833 223.262 729.095 222.234 729.514C217.531 729.453 214.353 737.703 208.323 729.911C211.053 724.552 217.414 722.986 221.354 718.891C230.184 716.172 235.453 704.509 248.641 712.312Z" fill="#F5A543"/>
<path d="M197.147 948.982C200.464 947.198 203.989 945.257 207.509 943.685C208.743 943.848 209.354 944.484 209.964 945.12C210.367 945.914 210.566 946.496 210.566 946.496C210.026 957.531 198.295 956.538 192.268 961.11C196.594 961.126 200.378 954.591 206.488 960.581C206.839 965.811 202.695 967.855 198.959 970.324C195.642 972.107 191.918 973.467 187.995 974.244C180.989 974.43 176.408 978.638 170.61 981.205C165.228 983.456 159.846 985.708 153.086 982.409C152.272 981.561 151.869 980.767 151.263 979.762C151.068 978.81 150.869 978.229 150.674 977.277C150.899 975.641 151.531 974.429 152.371 973.059C153.415 971.901 154.458 970.743 155.705 969.797C169.184 962.135 180.026 950.979 197.147 948.982Z" fill="#F69622"/>
<path d="M153.825 982.674C162.964 980.545 172.304 979.001 178.593 972.033C180.899 969.553 183.993 970.894 186.874 972.763C186.661 973.293 186.653 974.035 186.441 974.564C178.91 981.366 173.027 989.13 171.468 999.514C170.629 1000.52 169.174 1000.88 167.728 1000.5C163.562 1002.55 159.602 1004.81 155.645 1006.7C152.621 998.679 148.978 990.39 153.825 982.674Z" fill="#F69F36"/>
<path d="M146.098 976.02C146.945 975.381 147.793 974.742 148.852 973.944C149.481 974.217 150.113 974.113 150.742 974.386C152.202 975.9 152.821 977.3 153.224 979.236L151.751 979.226C147.087 983.116 146.915 978.764 146.098 976.02Z" fill="#FBD5A9"/>
<path d="M201.327 722.728C201.034 714.967 207.003 710.406 212.946 707.68C240.387 696.15 259.021 674.654 284.458 661.026C288.97 658.667 289.436 654.682 286.857 650.119C289.322 648.599 291.787 647.078 294.046 645.715C323.264 624.117 354.681 605.193 381.895 581.497C381.906 580.763 382.523 580.291 383.541 580.239C384.787 578.561 385.627 576.831 387.274 575.573C390.34 574.682 394.24 572.428 395.995 577.62C397.555 582.235 399.31 587.427 394.18 590.257C388.438 593.192 384.906 598.069 381.174 602.735C374.593 607.4 368.813 612.905 362.438 617.414C338.604 632.721 317.175 650.545 290.286 666.009C295.188 664.804 296.434 663.126 298.281 662.077C302.16 661.292 306.027 661.24 309.234 664.597C309.326 672.148 299.749 672.933 297.62 679.278C303.779 675.661 308.134 670.155 316.471 670.682C318.903 671.364 320.506 673.042 321.292 674.983C322.25 678.968 322.391 683.216 322.332 687.254C321.443 692.288 317.559 693.441 312.684 692.81C296.152 696.005 279.285 694.376 262 693.428C254.882 693.059 250.538 697.83 245.397 701.395C233.475 709.416 223.145 719.849 208.222 724.355C207.198 724.774 206.386 724.669 205.779 724.407C204.159 723.83 202.74 723.462 201.327 722.728Z" fill="#F2921F"/>
<path d="M205.804 727.37C203.513 728.737 201.017 729.891 198.726 731.257C195.278 724.672 203.316 727.782 204.792 725.194C205.824 725.516 206.233 725.942 206.229 726.313C206.225 726.684 206.013 727.212 205.804 727.37Z" fill="#FDEDDA"/>
<path d="M205.697 727.46C205.704 726.71 205.292 725.904 204.668 725.258C205.094 724.565 205.939 723.928 206.78 723.665L206.784 723.291C209.073 725.287 209.479 726.842 206.12 727.141L205.697 727.46Z" fill="#FDEDDA"/>
<path d="M379.316 580.438C365.996 592.117 359.025 610.097 338.358 614.797C335.321 615.327 332.854 617.944 330.591 620.404C320.308 631.553 307.255 639.419 292.028 644.627C296.38 638.036 298.341 629.677 307.073 626.573C314.858 619.87 327.989 619.158 333.21 609.014C345.674 600.158 359.724 592.968 370.008 581.82C373.044 581.29 376.279 580.968 379.316 580.438Z" fill="#F89A29"/>
<path d="M150.275 851.048C153.515 854.8 149.783 857.636 150.36 860.853C150.895 867.391 144.099 868.9 141.173 872.95C136.617 876.047 131.064 876.611 125.332 875.118C135.275 868.294 139.927 857.449 150.275 851.048Z" fill="#F89C2C"/>
<path d="M248.658 1040.4C247.86 1039.57 247.268 1038.57 246.669 1037.95C245.056 1037.37 243.853 1036.48 243.061 1035.28C242.474 1033.92 242.497 1032.45 243.124 1031.25C246.837 1027.32 252.151 1024.7 256.468 1021.03C269.149 1014.21 281.227 1007.14 292.318 998.281C310.325 988.11 326.138 975.638 343.353 964.264C346.421 962.638 349.683 961.589 353.326 962.056C355.144 962.474 356.341 963.729 356.923 965.456C349.171 981.166 332.413 989.294 320.254 1001.5C312.453 1007.48 304.259 1012.66 296.658 1018.85C288.464 1024.04 279.671 1028.6 270.879 1033.16C264.526 1037.3 256.396 1038.46 248.658 1040.4Z" fill="#FDAD4C"/>
<path d="M249.315 1040.74C256.212 1037 263.316 1033.48 270.004 1029.91C273.741 1030.4 277.059 1031.22 276.39 1035.79C275.108 1039.34 273.414 1042.47 269.654 1044.2C264.462 1043.69 259.112 1038.14 253.669 1041.88C252.218 1041.5 250.766 1041.12 249.315 1040.74Z" fill="#E8922A"/>
<path d="M245.567 1034.85C245.979 1035.65 246.81 1036.51 247.429 1037.54C244.903 1038.7 242.374 1040.23 239.636 1041.55C239.01 1041.28 238.383 1041.01 237.757 1040.74C237.342 1040.31 237.137 1039.72 236.722 1039.29C236.517 1038.7 236.521 1038.32 236.528 1037.57C236.538 1036.45 236.967 1035.38 237.395 1034.31C238.032 1033.46 239.084 1033.04 240.136 1032.62C242.23 1032.9 243.684 1034.41 245.567 1034.85Z" fill="#F7AF57"/>
<path d="M239.989 1041.66C242.692 1045.22 241.828 1047.74 238.447 1049.54C232.807 1045.21 232.83 1042.58 239.989 1041.66Z" fill="#F8A84A"/>
<path d="M201.123 1041.78C198.066 1036.73 190.235 1032.34 196.727 1025.95C197.776 1024.79 192.595 1024.66 190.541 1022.9C185.02 1015.66 190.022 1012.98 195.234 1010.14C210.992 1009.64 221.655 1000.84 234.156 994.693C238.922 994.77 242.633 996.751 245.078 1000.79C246.49 1004.51 245.221 1006.95 242.3 1008.79C230.848 1013.77 221.241 1020.67 213.271 1029.64C212.838 1031.44 212.196 1033.4 211.348 1035.15C210.292 1037.05 209.023 1039.48 207.139 1041.28C205.468 1042.54 203.39 1043.01 201.32 1042.73L201.123 1041.78Z" fill="#F4931F"/>
<path d="M197.198 1011.65C192.576 1013.65 188.993 1016.35 190.614 1022.19C181.172 1024.85 185.03 1014.88 180.024 1013.09C180.245 1011.81 180.884 1010.58 181.105 1009.3C183.855 1006.11 187.016 1003.73 191.628 1002.85C197.266 1004.17 199.754 1006.75 197.198 1011.65Z" fill="#F7A138"/>
<path d="M141.037 873.584C138.494 865.703 147.875 866.186 150.18 861.882C157.787 857.899 165.6 853.758 173.207 849.775C182.098 841.539 194.599 837.824 205.099 831.271C214.094 830.23 211.165 835.374 209.695 838.313C205.508 845.871 197.89 850.59 189.871 854.888C188.236 855.043 186.596 855.567 185.162 855.933C171.016 860.539 160.062 870.348 145.719 874.377C144.09 874.165 142.666 873.796 141.037 873.584Z" fill="#F18F19"/>
<path d="M146.089 874.483C157.045 863.575 169.992 855.869 186.943 853.098C177.614 864.216 166.288 872.5 150.552 875.797L148.91 876.688L147.679 877.264C147.082 876.267 146.686 875.48 146.089 874.483Z" fill="#F79622"/>
<path d="M128.926 894.726C128.311 893.711 127.693 893.069 127.078 892.054C130.427 890.264 134.193 888.53 137.543 886.74C140.241 887.66 141.475 889.317 141.034 891.869C139.142 893.668 136.215 894.768 133.495 896.083L133.289 895.869C132.041 895.702 130.59 894.948 128.926 894.726Z" fill="#F8AC52"/>
<path d="M141.025 891.82C139.779 890.149 138.533 888.478 137.499 886.648C138.342 886.385 139.188 885.747 140.031 885.485C141.71 885.71 143.178 886.096 144.645 886.481C144.83 889.325 143.138 890.601 141.025 891.82Z" fill="#F7A33E"/>
<path d="M144.361 886.628C142.89 886.242 141.419 885.856 139.736 885.629C140.793 885.206 141.641 884.567 142.698 884.144C143.324 884.793 143.738 885.602 144.361 886.628Z" fill="#F8AD55"/>
<path d="M129.083 894.727C130.556 895.114 132.03 895.5 133.503 895.887C132.654 896.528 131.807 896.791 130.749 897.215C130.334 896.405 129.919 895.594 129.083 894.727Z" fill="#FAC280"/>
<path d="M205.504 728.271C207.167 727.379 207.388 726.11 206.166 724.464C218.453 715.892 230.539 706.736 243.643 699.014C250.924 694.601 256.407 684.57 269.756 692.09C273.454 694.064 274.937 690.737 277.43 689.583C280.756 687.799 284.707 685.54 288.605 688.097C292.295 690.812 286.064 693.696 288.916 697.413C296.205 692.258 302.902 684.614 315.01 692.34C312.652 700.003 314.389 711.177 298.94 706.717C286.138 705.762 277.795 712.816 269.463 718.76C260.298 725.335 249.708 730.051 241.156 737.264C238.443 739.687 234.071 742.631 229.588 736.843C232.763 730.03 240.023 727.469 246.667 724.64C256.425 720.555 260.629 714.065 259.088 703.844C243.353 706.581 232.501 716.27 220.431 723.944C218.715 729.652 212.524 728.831 207.96 730.451C206.935 729.759 206.322 729.121 205.504 728.271Z" fill="#F69520"/>
<path d="M191.42 1003.28C187.862 1005.23 186.156 1009.47 180.75 1008.75C178.681 1007.35 176.805 1007.66 175.134 1008.19C166.571 1010.96 167.663 1005.7 168.123 1001.28C168.961 1000.65 170.006 1000.23 170.636 999.753C172.129 996.038 174.447 993.178 177.803 990.644C181.57 988.537 185.736 988.348 190.509 989.919C193.413 991.053 195.687 992.662 197.535 995.333C197.94 996.505 197.926 997.995 197.499 999.057C196.02 1001.28 194.545 1003.14 191.42 1003.28Z" fill="#F6A33F"/>
<path d="M240.031 1041.57C236.442 1043.53 235.999 1046.1 238.699 1049.66C236.587 1050.87 234.27 1051.5 231.765 1049.66C229.898 1046.97 228.451 1044.33 229.948 1041.34C232.07 1038.99 234.602 1037.83 238.164 1038.87C238.786 1039.9 239.41 1040.54 240.031 1041.57Z" fill="#F9BC71"/>
<path d="M230.362 1042.9C232.021 1045 233.262 1047.05 231.773 1049.29L231.562 1049.45C230.097 1049.06 228.631 1048.68 227.377 1048.13C226.532 1048.77 225.479 1049.19 224.426 1049.61C224.014 1048.81 223.182 1047.94 222.136 1047.62L222.773 1046.76C223.853 1043.34 226.381 1042.18 230.362 1042.9Z" fill="#FCDBB5"/>
<path d="M227.399 1048.22C228.668 1048.77 230.15 1049.16 231.632 1049.55C230.15 1049.16 228.668 1048.77 227.399 1048.22Z" fill="#FCE9D2"/>
<path d="M220.329 1044.73C218.241 1045.57 215.951 1045.82 213.679 1044.22C213.9 1042.94 214.12 1041.67 213.926 1040.34L214.135 1040.18C214.572 1038 215.627 1036.47 217.509 1035.41C220.226 1034.1 223.141 1033.74 226.24 1035.83C228.276 1040.2 224.313 1041.35 222.005 1043.46C221.376 1043.94 220.957 1044.26 220.329 1044.73Z" fill="#F8B35F"/>
<path d="M230.09 1042.79C227.608 1043.94 225.125 1045.1 222.638 1046.62C222.028 1045.98 221.211 1045.51 220.394 1045.03L220.822 1043.6C224.975 1040.45 228.323 1035.71 234.707 1035.26C236.761 1035.53 237.777 1036.59 237.958 1038.65C235.471 1040.17 232.781 1041.48 230.09 1042.79Z" fill="#F8B35F"/>
<path d="M235.393 912.497C238.723 909.237 235.698 904.215 237.385 900.739C237.823 898.577 239.479 897.685 241.749 897.06C247.295 897.605 253.468 897.309 253.336 891.188C253.121 874.886 266.948 870.974 276.464 866.309C271.92 867.93 270.075 867.502 264.771 863.845C268.547 857.684 275.167 854.487 280.162 849.597C288.645 845.351 294.682 839.304 298.891 831.351C299.929 830.563 301.17 829.987 302.61 829.991C310.187 832.654 308.487 837.238 307.608 841.931C307.175 843.723 307.364 845.042 307.387 843.196C308.208 843.304 309.237 843.255 310.27 842.836C311.507 842.629 312.739 842.791 314.174 843.165C315.19 844.224 315.998 845.44 316.187 846.759C315.798 862.057 302.563 868.082 292.185 875.962C285.335 881.162 277.271 884.724 275.107 893.686C270.501 900.476 267.524 908.591 259.248 912.679C253.675 914.35 248.901 917.974 242.926 918.852C237.773 919.838 233.047 919.4 235.393 912.497Z" fill="#FDAA48"/>
<path d="M150.994 920.754C177.485 908.177 199.167 889.453 226.06 877.297C231.808 874.73 236.746 871.689 241.323 879.832C240.456 883.401 237.992 884.554 233.92 884.025C226.729 887.694 219.744 891.205 211.151 893.035C199.692 895.597 189.82 901.311 182.16 909.337C175.53 916.576 165.494 919.507 156.854 924.644C152.534 927.213 152.179 923.485 150.994 920.754Z" fill="#F08E18"/>
<path d="M196.716 948.316C180.843 954.174 170.622 967.423 154.948 973.862C153.516 973.49 152.489 973.54 151.463 973.59C150.851 973.325 150.239 973.06 149.829 973.006C149.019 972.161 148.416 971.159 148.839 970.106C148.237 969.104 147.629 968.47 147.026 967.467C147.855 966.837 148.679 966.576 149.71 966.157C154.982 954.845 167.126 951.821 178.261 947.372C184.775 951.551 190.585 946.403 196.716 948.316Z" fill="#ED9020"/>
<path d="M178.064 946.964C172.18 957.649 158.399 958.979 149.071 965.7C147.259 962.69 143.608 958.883 147.332 956.785C156.231 951.486 165.536 946.611 175.039 942.316C176.482 941.951 177.469 945.222 178.064 946.964Z" fill="#EE8D18"/>
<path d="M234.055 884.894C236.553 883.37 239.048 882.217 241.546 880.692C252.03 886.724 253.622 892.503 243.431 897.646C241.767 898.538 239.898 899.218 238.025 900.269C237.018 897.722 236.85 894.174 232.069 896.323C227.289 898.472 223.732 902.269 217.937 902.613C219.071 893.298 231.897 893.145 234.055 884.894Z" fill="#FC9A25"/>
<path d="M236.879 913.119C237.892 915.674 237.859 919.02 242.865 917.082C248.499 914.669 252.297 908.846 260.376 911.228C260.122 915.848 257.18 919.178 254.859 922.778C253.812 923.569 252.765 924.36 251.513 924.938C246.72 926.346 242.54 928.767 237.545 929.59C235.052 929.629 232.981 928.981 231.967 926.425C231.399 920.951 231.656 915.959 236.879 913.119Z" fill="#F69F39"/>
<path d="M233.006 926.296C234.44 926.67 235.875 927.043 237.512 927.629C240.657 939.505 226.899 938.249 222.308 943.931C221.474 944.93 220.229 945.876 218.988 946.452C215.673 948.604 212.173 949.068 208.303 946.155C207.698 945.151 207.089 944.517 206.485 943.513C213.769 936.152 223.692 931.541 233.006 926.296Z" fill="#F7951F"/>
<path d="M302.022 829.16C301.194 829.79 300.37 830.051 299.339 830.47C294.322 837.937 287.887 843.925 281.857 850.336C277.065 856.171 270.649 860.684 263.225 863.773C262.382 865.509 261.544 866.876 259.887 868.136C255.957 870.76 251.649 870.749 247.388 867.051C240.086 860.554 250.961 860.318 250.805 856.42C252.457 855.528 254.109 854.637 255.762 853.746C264.065 845.971 277.638 843.32 280.249 831.475C277.994 831.364 276.276 837.417 270.763 835.401C264.173 837.491 260.191 844.171 251.189 842.251C249.432 835.189 254.799 832.569 259.553 829.684C262.444 828.216 265.537 826.96 268.827 826.284C282.004 822.472 293.377 815.285 305.349 809.469C310.094 807.321 314.241 803.802 320.583 805.188C327.899 810.579 324.35 815.469 320.405 819.199C315.42 824.085 310.03 828.548 302.022 829.16Z" fill="#FEB152"/>
<path d="M176.078 887.815C169.149 884.322 163.346 889.1 155.769 888.291C158.329 880.503 166.744 879.945 171.921 876.008C175.442 873.33 181.81 872.504 177.795 865.7C179.936 858.595 188.149 857.826 193.933 854.522C195.373 854.157 196.809 854.16 198.649 854.586C202.302 857.65 198.998 859.432 197.336 861.061C200.024 859.382 201.699 856.648 205.399 856.025C215.414 858.631 220.488 846.741 231.501 851.508C221.543 860.542 211.381 869.364 201.22 878.187C192.372 880.535 187.134 889.265 176.078 887.815Z" fill="#F6951F"/>
<path d="M252.232 857.062C254.279 860.692 245.735 861.6 250.894 866.205C257.497 872.308 259.666 863.276 264.858 864.53C272.329 867.02 277.807 860.295 286.933 863.752C280.866 866.856 273.978 868.732 270.608 872.756C266.182 878.316 251.404 878.019 259.178 892.108C261.431 895.952 252.644 900.37 247.007 902.04C243.247 903.402 243.492 899.519 242.469 897.705C247.517 892.414 246.324 886.661 240.759 880.883C241.395 879.663 242.871 877.81 242.252 877.168C231.354 863.22 244.281 861.219 252.232 857.062Z" fill="#FDAE4E"/>
<path d="M177.007 888.19C185.356 885.406 190.958 877.134 201.467 878.48C186.274 891.211 170.273 903.839 150.706 911.607C147.038 912.972 143.576 914.18 141.906 917.268C135.492 913.145 139.564 911.831 143.038 909.891C155.089 903.546 167.539 897.618 177.007 888.19Z" fill="#F08F19"/>
<path d="M230.742 851.841C223.792 852.041 219.038 856.029 214.088 859.437C210.784 861.955 208.966 860.429 206.548 857.902C214.691 845.143 230.495 840.016 240.854 829.573C245.8 826.531 251.541 825.068 258.063 826.286C260.702 827.552 262.52 829.078 262.278 831.811C257.549 833.959 253.223 836.528 251.32 841.255C240.517 839.295 238.735 850.118 230.742 851.841Z" fill="#F4911B"/>
<path d="M271.049 835.417C275.352 833.215 279.455 830.804 284.576 828.34C275.604 843.541 275.604 843.541 256.133 853.711C256.833 847.735 262.938 847.42 267.047 844.642C270.538 842.336 274.63 840.658 271.049 835.417Z" fill="#FDAE4E"/>
<path d="M198.055 854.438C191.278 858.159 184.506 861.513 177.73 865.235C173.208 867.961 168.29 869.899 165.174 874.095C161.645 878.606 156.733 880.177 150.474 876.238C164.609 870.894 173.531 859.723 186.863 853.539C190.703 855.693 194.078 847.667 198.055 854.438Z" fill="#F18F19"/>
<path d="M133.592 896.256C134.87 893.077 137.377 891.551 141.11 892.049C141.27 896.722 138.767 897.877 133.592 896.256Z" fill="#F7A33E"/>
<path d="M149.322 969.976C149.947 970.624 150.361 971.432 151.195 972.296C151.181 973.799 150.334 974.438 148.442 974.371L148.445 973.996C148.879 972.549 149.101 971.263 149.322 969.976Z" fill="#F39B33"/>
<path d="M269.445 1044.85C269.07 1041.08 271.789 1038.66 273.684 1035.75C277.416 1035.5 280.943 1035.04 284.675 1034.8C293.601 1033.2 299.275 1025.59 309.623 1026.59C312.504 1028.46 312.903 1030 309.782 1031.26C303.311 1035.79 301.973 1044.9 292.83 1047.4C285.281 1056.06 277.295 1047.01 269.445 1044.85Z" fill="#F49420"/>
<path d="M309.938 1027.11C300.437 1030.3 294.16 1039.09 282.446 1038.1C287.579 1021.76 302.239 1017.22 319.338 1015.22C321.613 1014.22 323.68 1013.38 326.335 1015.03C326.114 1016.29 325.893 1017.56 325.464 1018.98C322.509 1025.25 317.337 1027.71 309.938 1027.11Z" fill="#E8922A"/>
<path d="M309.967 1027.54C314.929 1024.86 320.099 1022.03 325.268 1019.2C326.499 1019.36 327.733 1019.15 329.171 1019.16C328.264 1026.06 317.709 1032.62 309.096 1031.49C309.317 1030.22 309.538 1028.96 309.967 1027.54Z" fill="#FBA237"/>
<path d="M234.694 805.789C230.47 798.394 237.873 797.889 241.399 795.211L241.602 795.422C251.03 797.402 256.441 791.829 262.857 788.052C278.179 778.607 290.678 764.724 312.663 764.843C317.912 772.557 311.906 776.388 308.15 781.069C302.126 786.377 294.478 789.992 286.43 792.815C274.693 794.784 266.798 801.878 256.481 805.327C249.281 806.044 243.239 812.828 234.694 805.789Z" fill="#F7A74C"/>
<path d="M236.12 805.636C243.659 807.911 247.841 801.082 254.982 802.567C257.629 803.466 259.238 805.52 259.819 807.993C258.668 817.615 250.238 820.755 242.616 824.738C230.353 823.875 221.033 832.43 208.371 830.777C196.216 837.119 184.47 843.514 172.522 849.698C172.803 844.019 178.339 843.082 182.457 841.038C197.279 834.123 209.685 824.311 226.317 819.66C232.887 817.936 231.77 809.678 236.12 805.636Z" fill="#F7951F"/>
<path d="M247.155 764.419C239.024 762.997 237.486 770.71 231.754 772.543C227.231 775.269 222.524 776.683 216.216 776.049C209.707 775.205 202.188 773.678 197.227 778.556C195.373 779.971 193.339 779.708 191.939 777.87C191.136 777.03 191.368 775.036 191.791 773.987C194.512 769.003 209.643 765.444 216.126 768.125C217.198 764.4 216.026 760.935 213.833 757.523C218.905 744.932 234.412 743.63 244.503 736.289C259.946 725.226 274 711.591 295.244 708.089C301.277 713.656 301.663 715.178 293.87 718.584C282.384 723.719 272.906 730.955 263.428 738.191C260.337 740.55 256.845 742.489 260.855 747.058C262.757 756.505 252.951 758.178 248.999 763.738C248.386 763.842 247.773 763.947 247.155 764.419Z" fill="#F59420"/>
<path d="M298.129 708.485C274.882 715.411 257.604 730.085 238.934 742.926C231.14 748.168 221.143 751.473 213.343 757.081C210.102 756.664 204.219 756.458 209.354 752.528C216.538 747.391 225.114 744.087 230.7 737.276C244.743 734.858 254.021 725.584 263.681 717.827C274.368 709.285 289.604 708.49 297.09 696.965C301.689 701.413 299.207 704.399 300.588 706.964C300.366 708.221 299.544 708.85 298.129 708.485Z" fill="#F08F1A"/>
<path d="M220.753 723.323C232.285 713.417 242.616 702.253 259.728 699.682C259.934 699.525 260.739 699.996 260.734 700.363C261.317 702.092 259.889 702.459 258.861 703.245C253.554 704.766 252.259 709.745 248.152 712.523C236.381 711.372 229.951 719.915 220.753 723.323Z" fill="#EF9222"/>
<path d="M305.4 778.359C305.258 773.353 312.873 771.582 310.079 765.305C308.689 761.613 310.157 759.036 311.193 758.248C296.718 767.061 278.766 774.863 262.43 784.725C258.295 787.138 253.958 789.339 248.028 787.637C249.346 780.791 256.197 774.487 247.261 767.035C247.698 764.876 249.554 764.196 251.819 763.57C263.849 769.766 271.322 762.989 279.181 758.11C289.937 751.395 299.684 743.255 314.067 741.818C328.455 740.012 338.419 730.976 349.985 725.106C360.57 715.598 371.561 706.512 383.771 698.326C385.217 697.592 386.658 697.227 388.302 697.073C399.798 696.735 405.858 688.111 415.342 684.553C421.94 682.095 426.94 676.102 435.936 678.76C438.74 684.299 434.403 686.501 431.088 689.021C416.382 699.835 402.886 712.286 387.37 722.255C376.011 727.968 366.269 735.739 356.328 742.931C354.463 744.349 350.545 745.866 355.844 748.778C366.309 748.858 371.742 741.075 380.191 738.305C385.343 736.58 389.713 731.797 396.421 736.926C396.125 744.09 389.532 746.18 384.159 749.169C367.008 758.555 349.052 766.726 332.909 777.536C323.485 776.299 315.386 783.917 305.4 778.359Z" fill="#FDAA46"/>
<path d="M249.499 787.201C274.096 774.2 298.693 761.2 324.319 747.414C322.764 756.22 313.784 758.369 310.838 764.974C292.012 772.837 274.381 782.325 259.342 795.273C255.64 798.103 248.618 805.284 241.043 795.116C245.135 793.438 247.62 790.45 249.499 787.201Z" fill="#FEB459"/>
<path d="M195.797 967.678C198.9 965.317 204.432 965.118 204.297 959.75C206.034 952.229 214.452 950.563 218.618 945.204C224.645 938.428 234.093 936.343 241.53 931.412C250.304 933.851 245.527 938.945 245.676 943.208C238.133 956.243 223.519 961.895 209.916 968.602C205.192 969.645 201.04 973.899 195.797 967.678Z" fill="#F7951F"/>
<path d="M196.711 967.863C202.501 970.497 205.036 966.367 209.204 965.062C215.222 965.679 216.855 968.503 214.112 972.79C212 976.232 207.615 978.439 208.187 983.541C207.926 988.904 206.214 993.888 198.977 990.502C193.601 987.924 193.546 993.501 189.815 992.631C185.886 990.804 182.137 991.792 178.399 991.666C172.889 981.81 183.094 979.262 186.477 973.385C189.818 971.597 193.369 969.651 196.711 967.863Z" fill="#F3921E"/>
<path d="M218.538 944.7C216.399 951.782 210.837 956.029 204.272 959.226C196.726 959.904 192.151 966.302 182.381 965.773C190.251 956.858 203.908 956.235 208.942 946.217C212.006 945.694 215.269 945.381 218.538 944.7Z" fill="#F2901B"/>
<path d="M148.467 974.504C149.323 973.858 150.179 973.212 151.038 972.186L151.455 973.002C152.728 973.173 153.149 973.609 153.356 974.208C153.563 974.806 153.559 975.186 153.345 975.347C153.12 976.648 152.895 977.949 153.095 979.307C151.412 977.561 149.94 976.032 148.467 974.504Z" fill="#F9BB71"/>
<path d="M153.234 975.344C152.607 974.693 151.983 973.666 151.356 973.015C152.63 972.054 154.104 972.441 155.568 973.959C154.509 974.383 153.872 974.863 153.234 975.344Z" fill="#FAC585"/>
<path d="M186.782 973.056C184.03 979.178 181.278 985.301 178.734 991.266C178.88 996.661 173.508 997.062 170.181 999.216C167.033 985.454 175.577 978.245 186.782 973.056Z" fill="#F69622"/>
<path d="M315.953 672.393C309.857 675.648 303.563 678.695 299.237 684.186C297.795 686.016 294.773 686.183 292.39 684.418C289.408 682.395 291.055 680.408 291.897 678.319C294.834 671.738 302.122 669.366 308.021 665.903C313.112 651.545 327.504 645.862 339.131 637.269C357.677 624.427 374.058 608.933 393.789 597.339C406.166 591.767 414.798 581.881 424.411 573.399C434.846 563.924 446.842 557.206 459.436 550.748C463.458 550.89 466.454 552.183 468.198 555.879C469.158 558.378 468.915 560.726 468.065 563.18C456.944 577.142 438.721 583.256 425.237 594.359C402.793 611.282 379.559 627.373 359.484 646.791C359.056 648.201 358.029 649.351 357.404 650.553C342.018 655.562 333.3 670.194 315.953 672.393Z" fill="#FA9924"/>
<path d="M297.725 709.236C298.544 708.607 299.356 708.344 300.373 707.924C309.483 706.702 307.437 696.364 314.556 693.422C318.388 693.727 320.838 692.206 322.097 689.435C331.207 676.303 346.469 669.634 358.159 659.212C362.053 655.86 366.94 653.551 367.443 647.751C368.72 643.883 370.599 640.274 376.05 640.418C384.496 642.593 392.371 642.68 397.934 636.242C399.968 635.401 401.996 634.927 404.402 635.966C406.392 637.685 407.57 639.667 407.328 642.018C404.506 653.569 390.752 654.75 383.949 662.862C379.85 666.371 374.957 669.046 371.856 673.232C355.273 686.329 337.5 698.175 320.725 710.698C304.167 722.333 287.02 732.976 271.256 745.444C267.585 747.542 263.722 749.065 258.699 747.51C248.442 744.922 249.714 741.419 256.244 737.486C269.106 729.412 279.196 718.054 295.424 713.89C297.254 713.207 297.489 711.221 297.725 709.236Z" fill="#FB9923"/>
<path d="M367.856 646.393C373.506 649.698 374.058 653.631 368.934 656.095C351.095 665.005 339.866 681.207 320.825 688.859C318.03 685.187 315.234 681.516 320.57 678.528C329.443 670.297 336.513 660.177 349.79 656.929C354.08 655.829 356.35 653.732 356.009 649.274C357.032 648.855 357.65 648.383 358.674 647.964C360.369 643.402 363.62 643.822 367.856 646.393Z" fill="#F69520"/>
<path d="M299.196 663.449C294.316 666.126 289.436 668.802 284.359 671.271C305.703 648.719 332.975 632.405 358.469 614.22C362.796 619.89 357.718 622.359 355.242 625.705C348.294 631.414 341.543 637.331 334.2 642.624C321.417 648.144 314.93 661.778 299.196 663.449Z" fill="#F99925"/>
<path d="M299.367 663.709C312.637 657.519 321.534 645.998 335.595 641.011C337.266 637.922 339.323 635.984 342.488 640.794C329.212 647.349 319.723 657.877 308.041 666.105C305.222 665.01 302.397 664.281 299.367 663.709Z" fill="#E88712"/>
<path d="M294.242 1001.03C283.038 1011.38 268.601 1017.98 254.978 1025.05C250.705 1022.46 250.14 1018.51 248.959 1014.66C247.985 1010.66 247.015 1006.29 250.323 1004.13C266.252 993.115 276.934 975.499 299.725 973.132C306.261 975.097 313.117 968.057 319.371 976.076C318.449 984.079 310.026 985.375 305.254 989.734C301.315 993.094 295.955 995.346 294.242 1001.03Z" fill="#FAA644"/>
<path d="M330.448 1008.03C324.741 1007.66 320.225 1009.65 315.698 1012.37C315.678 1013.84 314.853 1014.47 313.017 1014.42C302.945 1005.38 318.436 1006.28 317.699 1000.67C329.305 987.813 342.92 977.062 356.335 966.101C359.207 965.001 361.666 964.215 364.697 966.266C365.496 967.475 365.883 968.998 365.661 970.258C364.166 975.034 360.247 978.024 355.726 980.382C346.224 988.722 334.099 995.063 330.448 1008.03Z" fill="#F29F3D"/>
<path d="M335.232 965.67C339.061 968.188 342.582 964.046 346.412 966.564C329.143 978.306 312.871 991.465 294 1001.53C290.685 991.722 299.671 989.574 304.822 985.275C309.145 981.973 316.268 981.974 317.183 975.105C319.94 967.554 325.893 964.095 335.232 965.67Z" fill="#EA9735"/>
<path d="M314.442 1013.62C315.476 1013.2 316.099 1012.73 317.132 1012.31C317.737 1013.32 318.346 1013.95 318.951 1014.96C306.524 1022.2 291.658 1026.9 282.066 1037.84C278.771 1038.14 275.901 1037.4 273.251 1035.38C275.141 1032.12 270.822 1032.1 269.405 1030.25C278.926 1025.22 288.24 1020.34 297.762 1015.31C303.711 1016.65 307.889 1011.28 314.442 1013.62Z" fill="#F09C3A"/>
<path d="M253.438 1016.02C254.441 1018.94 255.236 1022.01 256.239 1024.93C253.094 1028.78 248.52 1030.78 243.333 1032.13C243.112 1033.4 242.486 1033.87 241.25 1033.34C240.003 1033.91 238.963 1034.33 238.129 1034.96C237.912 1035.86 237.287 1036.34 236.047 1036.17C230.847 1038.64 225.648 1041.1 220.243 1043.36C219.665 1039.38 223.601 1038.98 225.687 1037.4C227.617 1031.16 232.226 1025.83 231.27 1018.46C233.373 1015.4 236.494 1013.77 240.225 1013.15C244.779 1013.01 249.778 1009.97 253.438 1016.02Z" fill="#F49828"/>
<path d="M313.998 1013.66C308.638 1014.81 305.043 1023.03 297.321 1015.35C303.154 1009.09 310.612 1004.53 318.68 1000.6C321.28 1006.67 308.736 1006.68 313.998 1013.66Z" fill="#F6A240"/>
<path d="M241.431 1033.76C242.069 1033.28 242.708 1032.79 243.766 1032.75C244.394 1033.4 245.023 1034.05 245.439 1034.86C243.962 1034.48 242.485 1034.09 241.431 1033.76Z" fill="#F9BE78"/>
<path d="M236.372 1036.53C237.005 1036.05 237.639 1035.58 238.48 1035.31C238.259 1036.6 238.041 1037.51 237.82 1038.79C237.196 1038.14 236.784 1037.34 236.372 1036.53Z" fill="#FAC280"/>
<path d="M251.93 1015.57C247.891 1012.84 244.361 1017.35 240.322 1014.62C236.885 1012.52 234.469 1010.36 239.189 1008.21C241.245 1007.01 243.101 1005.59 242.529 1002.76C251.25 991.74 262.989 983.508 273.121 973.595C274.358 972.651 275.595 971.707 277.033 970.973C286.643 969.091 293.471 962.063 303.674 961.546C306.925 962.336 308.532 964.017 309.516 966.538C310.066 970.842 307.582 973.465 303.083 974.354C281.22 977.591 270.978 995.22 253.726 1004.02C248.382 1007.01 254.018 1012.16 251.93 1015.57Z" fill="#F09C3B"/>
<path d="M275.48 974.119C266.637 985.6 257.177 996.441 242.156 1002.26C240.11 999.004 236.797 997.817 233.697 996.1C228.749 992.088 230.865 988.274 231.736 984.294C232.372 983.075 233.213 982.07 233.849 980.852C237.42 977.046 240.781 973.398 244.352 969.592C250.028 963.088 254.366 965.715 258.035 972.908C264.191 980.805 269.283 970.313 275.48 974.119Z" fill="#FEAC4A"/>
<path d="M234.207 985.131C234.171 988.468 234.34 992.018 234.509 995.567C224.885 1005.43 213.423 1013 196.467 1011.86C196.09 1008.47 194.461 1006.03 190.962 1004.26C192.017 1002.36 193.068 1000.83 194.123 998.929C201.55 1001.03 205.931 997.712 210.52 994.238C217.196 989.184 223.471 982.963 234.207 985.131Z" fill="#F69724"/>
<path d="M240.091 1008.07C238.628 1010.28 239.832 1012.28 241.237 1014.5C237.936 1016.28 234.428 1018.22 231.127 1020C227.74 1028.41 220.931 1032.14 210.503 1030.59C210.103 1029.8 209.305 1028.22 209.511 1028.06C218.428 1019.81 225.732 1009.51 240.091 1008.07Z" fill="#ED8D1A"/>
<path d="M210.74 1030.87C217.827 1027.35 224.501 1023.78 231.588 1020.26C234.468 1022.5 240.468 1023.86 235.858 1028.45C232.715 1031.57 230.808 1035.59 225.814 1037.15C223.135 1035.5 221.053 1036.33 218.761 1037.33C215.87 1036.2 212.339 1036.66 209.459 1034.42C210.094 1033.2 210.314 1031.93 210.74 1030.87Z" fill="#F69F37"/>
<path d="M209.797 1034.3C213.351 1033.47 216.897 1033.39 219.155 1037.24C217.478 1038.13 215.801 1039.03 214.124 1039.92C211.221 1038.04 208.917 1039.04 206.407 1039.82C205.808 1036.94 208.112 1035.94 209.797 1034.3Z" fill="#FBD3A4"/>
<path d="M208.72 831.026C216.372 825.201 226.822 824.538 235.469 820.873C237.941 819.72 240.167 821.671 242.187 823.78C242.168 825.253 241.533 826.83 240.494 827.986C226.85 838.007 217.442 852.825 197.355 854.626C193.503 851.725 189.963 856.243 185.904 853.499C194.186 846.465 206.31 843.07 208.72 831.026Z" fill="#ED8A14"/>
<path d="M233.364 984.745C225.518 989.622 215.652 992.39 209.615 999.903C205.251 1004.68 199.513 1005.04 193.658 998.554C194.486 997.924 195.308 997.663 196.136 997.033C197.228 991.826 204.16 994.208 206.863 991.056C209.355 988.43 212.66 986.28 208.21 982.008C219.38 973.507 225.1 958.942 242.928 958.137C244.977 958.037 247.031 957.567 249.076 957.835C255.772 962.585 248.792 963.886 247.734 966.515C244.583 972.56 237.978 976.492 235.842 983.224C235.014 983.853 234.192 984.115 233.364 984.745Z" fill="#F59522"/>
<path d="M208.297 983.698C208.69 985.987 217.043 982.631 212.819 989.147C209.018 994.974 202.359 995.202 196.517 997.03C194.451 995.636 192.175 994.401 190.109 993.007C192.465 986.055 192.248 986.958 201.587 989.137C207.19 990.444 205.572 985.757 203.734 982.344C205.837 980.016 207.282 981.141 208.297 983.698Z" fill="#F69724"/>
<path d="M214.071 1040.24C215.109 1041.7 214.887 1042.98 213.826 1044.16C213.839 1042.65 213.849 1041.53 214.071 1040.24Z" fill="#FCE8CE"/>
<path d="M253.232 922.673C251.646 916.904 255.185 914.221 259.747 912.231C266.001 906.757 266.725 897.402 274.818 893.469C274.44 890.454 275.501 887.814 278.199 886.503C291.904 879.051 302.554 868.044 315.24 859.53C326.139 863.011 328.758 868.732 323.3 876.905C322.879 877.591 322.454 878.647 321.626 878.908C317.055 881.639 315.344 886.972 311.405 888.489C316.389 885.813 319.353 879.163 326.397 876.759C346.618 877.212 330.835 885.872 332.226 890.689C331.172 892.588 329.915 894.275 328.454 895.75C312.854 906.473 294.802 915.018 285.53 931.953C279.698 936.74 272.075 935.546 265.064 934.989C258.902 932.32 255.651 927.812 253.232 922.673Z" fill="#FDAB4A"/>
<path d="M327.277 878.671C316.467 884.286 309.732 895.266 292.761 897.096C299.484 887.228 310.875 885.214 315.922 877.35C319.702 871.915 326.577 867.076 316.738 859.463C314.506 855.642 315.576 852.259 317.264 849.144C319.373 845.342 315.003 847.916 314.398 846.538C313.789 845.529 313.176 844.891 312.567 843.883C316.056 827.278 333.583 831.273 345.816 827.886C354.233 833.27 347.174 836.044 345.069 839.475C343.193 840.896 341.109 842.474 339.041 842.571C331.389 842.855 335.477 847.107 336.27 850.181C334.326 857.9 329.287 865.023 329.815 873.442C329.173 875.397 327.71 876.873 327.277 878.671Z" fill="#FDA740"/>
<path d="M346.524 828.513C340.122 831.183 334.933 835.491 325.709 833.724C318.536 832.226 317.395 841.502 311.209 843.276C310.38 843.907 309.347 844.325 308.725 844.798C305.809 831.292 316.967 826.105 324.456 818.588C338.076 813.725 347.035 803.629 357.413 795.013C359.275 793.964 361.543 793.338 364.005 793.662C372.304 803.809 361.79 806.678 357.219 810.882C351.191 816.559 359.649 813.789 360.451 815.373C361.668 816.642 362.475 817.857 362.867 819.388C360.513 827.026 354.932 829.804 346.524 828.513Z" fill="#FEAE47"/>
<path d="M326.828 820.284C318.665 826.824 311.944 834.486 308.316 844.236C306.008 846.719 305.327 852.396 300.165 849.661C295.623 847.195 300.016 843.874 301.492 841.652C303.606 837.84 304.888 834.29 301.818 829.973C303.944 825.047 308.535 822.682 313.126 820.318C318.554 817.32 323.986 813.951 320.12 806.18C319.101 804.369 316.822 803.879 315.803 802.069C315.608 800.74 315.62 799.626 316.255 798.408C317.936 796.399 319.819 794.976 322.527 794.035C329.603 792.373 332.068 794.934 330.965 801.299C330.946 803.157 330.513 804.96 330.494 806.818C331.065 811.918 327.912 815.777 326.828 820.284Z" fill="#FEAD4D"/>
<path d="M314.457 846.314C316.092 845.423 317.522 844.688 322.018 842.329C319.878 849.394 318.178 854.314 316.683 859.077C302.324 870.081 288.163 881.294 273.804 892.299C269.649 886.078 275.557 884.083 278.645 880.992C284.618 874.968 293.386 871.505 300.167 865.584C306.339 859.77 310.694 853.538 314.457 846.314Z" fill="#F5A13E"/>
<path d="M282.303 850.975C285.485 842.364 291.495 835.962 299.931 831.349C298.767 841.697 291.343 846.994 282.303 850.975Z" fill="#FEAD4D"/>
<path d="M254.629 922.532C261.743 923.862 262.734 930.181 266.89 934.114C263.671 942.492 256.517 945.656 246.261 944.091C245.219 943.389 244.596 942.743 243.97 942.471C240.232 938.595 244.034 935.356 243.646 931.93C244.316 927.333 247.689 925.162 251.893 923.851C252.944 923.43 253.788 922.794 254.629 922.532Z" fill="#FEB04C"/>
<path d="M251.676 923.451C249.798 926.7 247.515 929.896 243.633 931.417C235.036 935.821 226.639 940.434 218.042 944.838C218.332 939.181 224.024 938.811 227.717 936.348C231.211 933.675 237.103 933.515 237.393 927.858C242.091 926.075 245.013 920.94 251.676 923.451Z" fill="#F4911B"/>
<path d="M315.969 799.924C316.57 800.925 317.176 801.557 317.575 802.347C303.1 813.367 286.62 821.173 269.126 828.293C266.448 829.603 263.769 830.913 261.09 832.223C260.086 830.801 259.086 829.01 257.879 827.377C257.889 826.64 258.105 825.746 258.317 825.22C259.99 822.488 262.674 820.81 265.756 819.921C276.879 814.735 288.204 809.76 299.331 804.205C304.28 801.532 309.036 797.911 315.969 799.924Z" fill="#FEA738"/>
<path d="M269.414 828.64C285.414 820.043 301.414 811.447 317.62 802.693C320.063 802.641 320.865 803.481 319.619 805.158C307.107 811.815 294.389 818.629 281.677 825.077C278.183 827.383 275.08 830.843 269.414 828.64Z" fill="#FEB85B"/>
<path d="M197.883 855.056C214.595 848.39 225.148 834.515 240.074 825.603C242.692 826.488 243.88 828.108 243.639 830.462C233.533 841.825 220.839 850.473 206.551 857.45C202.263 859.652 197.975 861.855 193.072 864.53C192.546 859.509 199.229 859.448 197.883 855.056Z" fill="#FC9923"/>
<path d="M242.717 830.776C241.519 829.148 240.32 827.521 239.121 825.894C239.739 825.422 240.764 825.003 241.382 824.531C244.546 817.03 255.352 816.406 258.316 808.695C264.755 800.146 274.801 795.744 284.641 791.5C292.237 787.516 300.038 783.376 307.633 779.392C312.925 779.71 317.431 778.086 321.54 775.675C324.831 773.525 328.084 773.947 330.883 777.621C330.629 781.084 328.358 783.181 325.685 784.859C316.643 790.31 306.602 794.345 298.161 800.427C296.931 801.003 295.901 801.79 294.665 802.733C285.817 808.762 276.368 814.162 266.317 818.931C262.218 820.607 258.125 821.917 257.242 826.586L257.443 826.796C253.323 829.942 247.228 828.784 242.717 830.776Z" fill="#FDB358"/>
<path d="M284.108 790.606C276.447 797.533 267.773 803.776 257.697 807.807C256.491 806.175 255.286 804.543 254.08 802.911C264.56 799.301 271.232 789.847 284.108 790.606Z" fill="#F69C30"/>
<path d="M260.02 748.077C263.316 746.295 266.819 744.356 270.318 742.784C277.865 744.322 279.843 734.072 288.188 737.189C290.589 741.189 288.311 743.289 286.028 745.756C274.106 750.1 267.601 762.341 252.871 762.631C251.021 763.311 249.166 764.36 247.316 765.04C246.617 756.099 258.49 755.436 260.02 748.077Z" fill="#F29320"/>
<path d="M252.728 763.06C262.853 756.083 271.972 747.683 284.117 742.814C287.546 746.767 284.443 749.129 281.76 750.807C274.747 754.686 268.345 758.83 261.938 763.342C270.009 756.834 280.297 753.014 287.969 745.716C297.719 736.107 309.478 729.343 324.461 726.691C331.79 729.863 327.851 733.59 326.374 736.902C322.44 740.262 318.308 743.042 312.181 741.872C297.121 750.417 282.678 758.859 267.623 767.037C262.467 769.868 256.075 773.275 252.728 763.06Z" fill="#FEB85E"/>
<path d="M348.273 720.005C349.247 724.385 343.286 724.525 342.623 728.32C346.717 729.598 349.446 724.966 353.73 727.563C343.8 732.911 333.87 738.26 323.529 743.554C319.804 745.652 315.872 747.908 311.412 742.885C315.755 740.683 319.894 738.27 324.237 736.068C330.289 728.546 333.504 717.693 348.273 720.005Z" fill="#F7A23E"/>
<path d="M207.326 983.497C205.895 983.125 204.465 982.753 203.035 982.381C202.484 977.325 206.606 975.649 209.919 973.13C213.433 970.821 213.269 967.662 208.583 965.386C222.59 960.207 233.977 951.546 245.161 942.674L245.368 942.516C248.633 943.682 251.066 945.847 252.256 948.957C252.825 952.539 254.006 956.385 249.273 957.796C244.323 960.101 240.389 963.093 234.437 963.605C229.309 963.856 223.338 965.843 223.277 970.634C222.538 980.321 213.922 980.669 207.326 983.497Z" fill="#F2901B"/>
<path d="M319.499 709.216C320.917 709.582 322.334 709.949 323.752 710.316C325.564 711.469 326.354 713.041 325.515 714.771C313.992 723.944 304.459 735.946 286.754 737.154C280.834 738.779 277.282 745.121 269.388 742.816C285.23 730.341 301.467 718.652 319.499 709.216Z" fill="#ED8C18"/>
<path d="M302.434 975.01C304.289 972.864 306.35 970.56 308.206 968.414C314.889 955.699 329.94 950.654 339.413 940.496C346.752 937.033 351.699 931.431 358.044 926.924C364.166 923.672 367.908 917.549 374.632 914.558C377.898 912.774 381.368 910.834 385.405 911.35C394.087 912.275 395.038 915.88 390.097 921.116C370.653 934.951 352.203 949.83 334.15 965.126C328.233 968.221 322.316 971.315 316.195 974.567C311.549 974.158 308.006 980.489 302.434 975.01Z" fill="#FDAA48"/>
<path d="M304.253 962.151C294.918 965.92 288.02 973.349 276.455 973.3C269.184 958.617 283.064 954.708 289.962 947.279C297.219 944.718 289.673 936.116 295.705 932.28C300.903 929.076 304.673 924.384 312.309 924.839C315.221 923 312.419 933.568 317.446 927.188C319.749 924.342 323.686 923.195 328.202 925.647C329.949 935.705 322.051 940.221 316.411 945.962C309.097 953.707 298.52 957.683 291.231 963.206C297.838 963.34 300.44 952.19 310.93 955.99C312.522 961.392 309.206 962.436 304.253 962.151Z" fill="#FDAD4B"/>
<path d="M295.435 949.174C285.498 954.523 277.398 961.039 277.049 973.014C276.218 973.644 275.393 973.905 274.359 974.324C270.839 976.265 266.913 977.782 263.597 979.934C256.544 984.924 255.802 978.168 253.581 974.732C256.13 968.04 260.921 962.938 266.327 958.101C270.691 954.422 274.846 950.901 279.616 947.645C284.549 947.925 289.606 937.865 295.435 949.174Z" fill="#FEB352"/>
<path d="M304.555 962.877C307.233 961.199 310.924 960.206 310.567 956.474C315.386 947.706 325.038 943.988 334.081 940.007C337.354 939.696 340.637 938.65 342.827 942.804C331.875 951.88 321.327 961.376 308.16 968.137C306.755 966.296 305.552 964.665 304.555 962.877Z" fill="#E38F2D"/>
<path d="M267.76 959.637C264.801 965.914 259.185 970.173 253.573 974.061C252.566 971.891 253.42 969.41 249.943 966.913C245.137 972.39 241.554 979.141 235.318 983.503C235.237 972.563 247.043 968.012 249.42 958.509C249.861 955.974 250.303 953.439 250.744 950.904C255.516 948.386 260.105 943.806 267.072 947.691C274.451 951.63 263.481 955.181 267.76 959.637Z" fill="#FCA843"/>
<path d="M285.009 931.999C280.635 922.951 290.469 921.285 294 917.137C303.133 906.901 314.482 898.982 328.85 894.588C333.978 893.23 339.187 885.984 344.215 891.984C349.647 898.405 342.025 902.756 337.683 906.429C332.51 911.099 325.93 913.928 320.152 917.966C308.848 922.574 298.349 928.025 288.652 934.686C286.607 934.788 285.392 933.892 285.009 931.999Z" fill="#F29F3D"/>
<path d="M286.152 931.697C286.772 932.34 287.388 933.356 288.215 934.214C293.556 943.148 280.624 942.536 280.775 948.72C278.218 954.354 272.355 956.557 266.901 959.562C264.6 960.187 262.905 962.948 260.208 961.28C258.134 959.881 259.406 957.811 260.464 956.271C262.152 954.256 265.497 953.584 265.952 949.536C259.921 947.42 255.886 954.911 249.665 950.716C247.813 948.04 245.96 945.364 243.897 942.846C253.28 943.543 259.385 937.824 266.72 934.51C271.774 929.584 280.281 934.646 286.152 931.697Z" fill="#F5A13E"/>
<path d="M318.219 914.543C327.14 908.503 337.892 904.37 344.396 893.942C337.639 891.016 334.259 898.341 328.743 894.839C328.964 893.573 329.185 892.307 329.406 891.041C337.483 886.74 346.768 884.819 356.45 884.06C361.316 890.252 353.052 892.863 353.61 897.932C353.168 900.464 351.904 902.887 350.031 904.676C344.631 908.774 339.236 912.503 335.874 918.35C332.957 921.296 330.651 924.877 325.507 924.754C320.12 927.744 314.738 930.365 308.525 933.616C306.099 929.966 313.112 928.67 311.507 925.128C311.361 920.114 317.548 919.079 318.219 914.543Z" fill="#EE9A37"/>
<path d="M264.815 920.252C269.623 912.583 279.676 910.392 284.887 903.144C286.761 900.623 291.48 899.58 294.295 903.266C296.308 905.741 293.813 908.734 290.934 909.833C282.697 913.921 275.459 919.798 264.815 920.252Z" fill="#E69231"/>
<path d="M321.821 789.641C330.615 786.181 335.601 779.105 342.189 773.706C348.159 768.779 353.329 763.013 363.275 764.113C359.662 774.491 345.397 776.693 342.39 787.333C339.022 794.986 326.913 789.012 322.944 796.035C320.282 797.346 317.819 798.866 315.362 800.019C302.22 808.616 286.498 813.02 273.963 821.878C271.906 823.451 268.253 822.98 265.196 823.504C261.215 817.844 267.319 817.529 269.782 816.009C277.992 810.819 287.599 807.464 294.608 801.017C303.219 796.246 310.44 789.275 321.821 789.641Z" fill="#F9A23B"/>
<path d="M294.789 800.09C293.666 807.11 285.741 807.375 281.219 810.834C275.875 814.923 267.139 815.083 265.194 822.732C262.533 824.043 260.072 825.563 257.617 826.717C256.035 823.941 255.875 821.165 258.746 819.33C270.827 812.986 282.708 806.434 294.789 800.09Z" fill="#F9AA4F"/>
<path d="M321.712 789.387C313.268 794 304.617 798.77 294.373 800.383C300.443 789.931 313.957 788.376 323.248 781.662C322.805 784.184 322.155 786.865 321.712 789.387Z" fill="#F9AA4F"/>
<path d="M287.354 737.594C301.032 730.723 311.343 719.202 325.81 713.533C337.889 705.356 349.377 696.187 365.208 693.811C367.832 694.33 370.86 694.901 369.992 698.459C357.039 710.559 344.292 722.502 325.578 727.811C301.932 737.625 284.234 755.171 260.172 765.666C264.21 753.893 278.805 752.826 283.622 742.986C285.667 741.78 287.512 740.366 287.354 737.594Z" fill="#FEBC5F"/>
<path d="M346.084 932.831C342.367 936.031 335.637 936.077 335.141 942.272C326.714 946.884 318.493 951.339 309.864 955.742C303.081 959.463 296.505 963.028 289.521 966.539C299.934 951.323 319.622 943.57 326.809 925.727C328.897 922.316 330.98 919.273 335.284 917.807C336.139 914.973 339.211 914.083 341.675 912.93C345.984 911.096 351.277 911.784 354.492 915.146C359.321 919.823 354.594 922.339 351.698 925.276C349.625 927.584 346.744 929.419 346.084 932.831Z" fill="#FDAD4B"/>
<path d="M319.161 914.641C320.728 920.384 317.209 923.061 312.466 925.209C306.274 928.459 299.677 931.286 295.706 937.227C290.906 943.797 301.23 938.135 299.752 941.449C298.284 944.026 296.204 946.337 294.327 948.86C288.667 942.581 285.095 949.312 280.381 949.248C276.993 941.605 287.867 940.999 287.74 934.891C294.643 924.166 308.617 921.566 319.161 914.641Z" fill="#FDAD4B"/>
</g>
</svg>
