<svg width="51" height="49" viewBox="0 0 51 49" fill="none" xmlns="http://www.w3.org/2000/svg">
<g opacity="0.3">
<path opacity="0.3" d="M48.3842 3.55291C47.3989 3.55291 46.5972 2.75603 46.5972 1.77643C46.5972 0.796827 47.3989 -6.10352e-05 48.3842 -6.10352e-05C49.3685 -6.10352e-05 50.1716 0.796827 50.1716 1.77643C50.1716 2.75603 49.3685 3.55291 48.3842 3.55291Z" fill="#C8C8C8"/>
<path opacity="0.3" d="M48.3842 49C47.3989 49 46.5972 48.2031 46.5972 47.2236C46.5972 46.2441 47.3989 45.4472 48.3842 45.4472C49.3685 45.4472 50.1716 46.2441 50.1716 47.2236C50.1716 48.2031 49.3685 49 48.3842 49Z" fill="#C8C8C8"/>
<path opacity="0.3" d="M1.78744 49C0.803128 49 0 48.2031 0 47.2236C0 46.2441 0.803128 45.4472 1.78744 45.4472C2.77275 45.4472 3.57449 46.2441 3.57449 47.2236C3.57449 48.2031 2.77275 49 1.78744 49Z" fill="#C8C8C8"/>
<path opacity="0.3" d="M1.78744 3.55297C0.803128 3.55297 0 2.75609 0 1.77649C0 0.796888 0.803128 0 1.78744 0C2.77275 0 3.57449 0.796888 3.57449 1.77649C3.57449 2.75609 2.77275 3.55297 1.78744 3.55297Z" fill="#C8C8C8"/>
<path opacity="0.3" d="M47.4459 46.6706H2.74889V3.1245H47.4459V46.6706ZM0.873535 1.26205V48.5345H49.3212V1.26205H0.873535Z" fill="#C8C8C8"/>
</g>
<path d="M1.78744 37.6376C0.803128 37.6376 0 36.8407 0 35.8609C0 34.8814 0.803128 34.0845 1.78744 34.0845C2.77275 34.0845 3.57449 34.8814 3.57449 35.8609C3.57449 36.8407 2.77275 37.6376 1.78744 37.6376Z" fill="#0F659B"/>
<path d="M10.3712 36.4419H8.49414V10.0988H24.8752V11.9628H10.3712V23.6043H24.7978V25.5021H10.3712V36.4419Z" fill="#0F659B"/>
<path d="M25.1232 22.7227C24.1379 22.7227 23.3362 23.5196 23.3362 24.4992C23.3362 25.4788 24.1379 26.2757 25.1232 26.2757C26.1089 26.2757 26.9106 25.4788 26.9106 24.4992C26.9106 23.5196 26.1089 22.7227 25.1232 22.7227Z" fill="#0F659B"/>
<path d="M9.48733 12.3887C8.50169 12.3887 7.69995 11.5918 7.69995 10.6122C7.69995 9.63261 8.50169 8.83572 9.48733 8.83572C10.473 8.83572 11.2747 9.63261 11.2747 10.6122C11.2747 11.5918 10.473 12.3887 9.48733 12.3887Z" fill="#0F659B"/>
<path d="M9.48733 26.2757C8.50169 26.2757 7.69995 25.4788 7.69995 24.4992C7.69995 23.5196 8.50169 22.7227 9.48733 22.7227C10.473 22.7227 11.2747 23.5196 11.2747 24.4992C11.2747 25.4788 10.473 26.2757 9.48733 26.2757Z" fill="#0F659B"/>
<path d="M9.48733 37.6376C8.50169 37.6376 7.69995 36.8407 7.69995 35.8609C7.69995 34.8814 8.50169 34.0845 9.48733 34.0845C10.473 34.0845 11.2747 34.8814 11.2747 35.8609C11.2747 36.8407 10.473 37.6376 9.48733 37.6376Z" fill="#0F659B"/>
<path d="M40.6822 22.7227C39.6965 22.7227 38.8948 23.5196 38.8948 24.4992C38.8948 25.4788 39.6965 26.2772 40.6822 26.2772C41.6678 26.2772 42.4695 25.4788 42.4695 24.4992C42.4695 23.5196 41.6678 22.7227 40.6822 22.7227Z" fill="#0F659B"/>
<path d="M25.1255 48.9991C24.1399 48.9991 23.3381 48.2022 23.3381 47.2227C23.3381 46.2432 24.1399 45.4463 25.1255 45.4463C26.1112 45.4463 26.9129 46.2432 26.9129 47.2227C26.9129 48.2022 26.1112 48.9991 25.1255 48.9991Z" fill="#0F659B"/>
<path d="M40.6846 48.9991C39.699 48.9991 38.8972 48.2022 38.8972 47.2227C38.8972 46.2432 39.699 45.4463 40.6846 45.4463C41.6686 45.4463 42.472 46.2432 42.472 47.2227C42.472 48.2022 41.6686 48.9991 40.6846 48.9991Z" fill="#0F659B"/>
<path d="M1.27808 35.3466H9.92259V37.2105H1.27808V35.3466Z" fill="#0F659B"/>
<path d="M26.1425 9.45204V3.28581C26.6509 2.97257 26.9922 2.41368 26.9922 1.77648C26.9922 0.796881 26.1905 0 25.2049 0C24.2192 0 23.4175 0.796881 23.4175 1.77648C23.4175 2.41368 23.7575 2.97257 24.2672 3.28581V9.45204C23.7575 9.76525 23.4175 10.3242 23.4175 10.9613C23.4175 11.9409 24.2192 12.7394 25.2049 12.7394C26.1905 12.7394 26.9922 11.9409 26.9922 10.9613C26.9922 10.3242 26.6509 9.76525 26.1425 9.45204Z" fill="#0F659B"/>
<path d="M48.3754 22.7227C47.7497 22.7227 47.1996 23.0436 46.8801 23.5288H40.2466V25.3913H46.8322C47.1427 25.9195 47.7172 26.2757 48.3754 26.2757C49.3594 26.2757 50.1628 25.4788 50.1628 24.4992C50.1628 23.5196 49.3594 22.7227 48.3754 22.7227Z" fill="#0F659B"/>
<path d="M34.723 35.7669C34.723 35.5428 34.6797 35.3295 34.6023 35.1313L41.4736 25.0667L39.8764 23.9888L33.0451 33.9951C33.008 33.9935 32.9726 33.9905 32.9356 33.9905C32.8784 33.9905 32.8228 33.9935 32.7673 33.9981L25.885 23.9857L24.2908 25.0682L31.2471 35.1883C31.1836 35.3693 31.1466 35.5645 31.1466 35.7669C31.1466 36.0371 31.2101 36.2922 31.3196 36.5223L24.3959 46.6654L25.9931 47.7417L32.9108 37.6094L39.8777 47.7447L41.472 46.6625L34.5311 36.5624C34.6532 36.3228 34.723 36.0526 34.723 35.7669Z" fill="#0F659B"/>
</svg>
