<svg width="55" height="67" viewBox="0 0 55 67" fill="none" xmlns="http://www.w3.org/2000/svg">
<path d="M14.8761 9.3314C9.54048 12.7808 7.59018 20.184 10.5202 25.866L19.1623 42.6251C22.0924 48.3071 28.7936 50.1171 34.1292 46.6677C39.4648 43.2182 41.4152 35.8151 38.4851 30.1331L29.843 13.374C26.913 7.69198 20.2118 5.88197 14.8761 9.3314Z" stroke="#3EC9FE" stroke-miterlimit="10"/>
<path d="M18.9808 24.5542L12.3532 28.7854" stroke="#3EC9FE" stroke-miterlimit="10" stroke-linecap="round"/>
<path d="M31.1927 16.7578L24.5651 20.989" stroke="#3EC9FE" stroke-miterlimit="10" stroke-linecap="round"/>
<path d="M21.7106 29.7827L15.0831 34.0139" stroke="#3EC9FE" stroke-miterlimit="10" stroke-linecap="round"/>
<path d="M33.9227 21.9863L27.295 26.2175" stroke="#3EC9FE" stroke-miterlimit="10" stroke-linecap="round"/>
<path d="M24.6213 35.3574L17.9937 39.5886" stroke="#3EC9FE" stroke-miterlimit="10" stroke-linecap="round"/>
<path d="M36.8332 27.561L30.2056 31.7922" stroke="#3EC9FE" stroke-miterlimit="10" stroke-linecap="round"/>
<path d="M43.4781 27.0207C47.9076 35.6057 44.9601 46.7905 36.893 52.0029C28.8269 57.2146 18.6972 54.4792 14.2678 45.8943" stroke="#3EC9FE" stroke-miterlimit="10" stroke-linecap="round"/>
<path d="M36.7855 52.2241L39.4017 57.235" stroke="#3EC9FE" stroke-miterlimit="10" stroke-linecap="round"/>
</svg>
