<svg width="113" height="114" viewBox="0 0 113 114" fill="none" xmlns="http://www.w3.org/2000/svg">
<path d="M43.4114 78.9101C47.7879 75.0701 50.7976 69.0031 50.721 64.1671C50.6803 61.4011 49.66 59.1158 47.7649 57.5603L47.6698 57.4734L47.7473 57.3675C48.2352 56.6933 48.821 56.0658 49.5165 55.4555C50.8648 54.2726 52.4705 53.3182 54.0226 52.4107C54.9565 51.8563 55.9212 51.2938 56.8082 50.6859C57.6739 50.0968 58.5568 49.3979 59.6255 48.4792L60.6087 47.6355L59.8346 48.6743C58.9402 49.8566 58.3714 51.1508 58.1413 52.5075C56.9149 59.5278 60.521 66.6812 66.513 69.1289C69.5284 70.3641 72.1456 68.9007 73.8042 67.4454C76.0728 65.455 77.608 62.6504 78.2819 60.6772C81.4458 51.4836 74.073 46.4045 70.7691 44.6462L70.7397 44.6342L70.7209 44.6129C70.6941 44.5607 70.6364 44.5166 70.5681 44.4819L70.4998 44.4472L70.485 44.3655C70.4795 44.2946 70.454 44.2223 70.4084 44.1487C70.0824 43.5829 69.8915 42.9552 69.7194 42.349C69.6213 41.9997 69.5231 41.6504 69.3942 41.3092L69.1968 40.782L69.627 41.1428C70.2288 41.656 70.8612 42.0098 71.5938 42.2189L71.6327 42.2416C72.9164 43.122 75.5347 44.8759 78.5655 46.6466L78.6821 46.7147L78.6139 46.8313C78.5458 46.9479 78.5285 47.0577 78.5501 47.1902C80.61 60.3951 84.2095 73.4986 96.5126 79.988C96.7176 80.0921 96.9868 80.1399 97.1794 79.9709C97.6007 79.5445 97.9925 79.1061 98.3882 78.6074L98.4203 78.5793C98.4631 78.5417 98.4966 78.4934 98.5407 78.4358C104.118 71.1946 99.5973 62.4586 95.6037 54.7555C94.7179 53.0337 93.8752 51.4257 93.1517 49.8456L93.1343 49.8041L93.1476 49.7545C93.6486 47.649 91.8209 45.3717 89.892 44.641C89.8331 44.617 89.7741 44.593 89.7246 44.5796C89.6656 44.5556 89.6161 44.5423 89.5571 44.5183L89.4486 44.481L89.4552 44.3806C89.4644 44.24 89.4228 44.1061 89.3396 43.9898C87.772 41.9009 85.5767 40.1543 83.4485 38.4626C80.0176 35.7178 76.4715 32.8848 75.3846 28.5378L75.3671 28.4963L75.3804 28.4467C75.6367 27.7675 75.893 27.0883 76.1506 26.389C76.212 26.2216 76.2011 26.0797 76.1287 25.9539L76.1126 25.8923C76.1017 25.7504 76.0478 25.4948 75.7638 25.3654L75.0779 25.0585C74.9306 24.9985 74.6856 25.043 74.5572 25.1557C73.835 25.8651 73.6222 27.1119 73.4321 28.3198C73.2992 29.118 73.1635 29.9564 72.8778 30.6236C71.8202 33.066 70.5642 35.3038 69.1124 37.297L69.079 37.3452L68.9772 37.3588C67.7499 37.773 66.3921 37.7149 64.8625 37.2018L64.8142 37.1684C64.719 37.0815 64.6105 37.0441 64.49 37.0363L64.4003 37.0204C61.4104 35.8575 58.4723 33.1347 56.333 31.1497C55.943 30.7915 55.5824 30.4453 55.2393 30.1405C51.7825 27.0209 48.3696 24.7715 44.498 23.0569C40.7738 21.4024 31.946 18.9819 28.479 22.0238C28.2008 22.2679 27.9601 22.5548 27.7489 22.8537C27.2891 23.56 27.1721 24.2685 27.3979 24.979C28.2405 27.6662 33.5265 29.8057 35.7864 30.7194L36.1199 30.8621C36.9946 31.2115 37.9711 31.5474 39.1779 31.9084L39.8999 32.1269L39.1394 32.1883C36.1887 32.4298 33.6418 33.4339 31.7585 35.0863C30.56 36.1378 29.6377 37.4393 29.0235 38.9625C27.9167 41.6942 30.6473 45.5834 31.2132 46.3364C33.6231 49.5795 37.9942 51.3669 41.2221 52.2831C44.9737 53.3645 50.1887 53.1998 53.3668 50.4114C54.1052 49.7636 54.6894 49.0049 55.1289 48.146L55.1757 48.0482L55.315 48.0774C55.6859 48.1117 56.1077 48.1391 56.5108 48.1452L57.195 48.1696L56.9074 48.403C53.7826 50.9932 50.9131 53.2268 47.3903 54.3489C47.1119 54.4417 46.9248 54.6816 46.9384 54.9347C46.948 55.0966 47.0285 55.2532 47.1625 55.3627L47.2872 55.4616L46.4206 56.3734C46.3872 56.4216 46.3765 56.431 46.3645 56.4605L46.2869 56.5664L46.1798 56.509C42.2512 54.1251 37.1737 55.1157 32.5831 59.1434C31.5987 60.0071 30.6986 60.9671 29.9058 61.9846C24.1089 69.4939 23.9554 75.6864 29.4974 80.3841C33.3654 83.6919 38.5746 83.1537 43.4114 78.9101ZM97.344 77.6116L97.3669 77.724L97.2639 77.7576C93.396 79.2203 86.9935 70.2609 85.2196 67.0088C82.069 61.2163 80.8334 54.5198 79.7449 47.5807L79.703 47.2956L79.9562 47.4331C82.593 48.9058 84.9026 49.9841 86.8261 50.6439L86.8757 50.6572L86.9025 50.7094C92.6655 60.0406 96.0927 68.8465 97.344 77.6116ZM99.7177 73.8631C99.7043 73.9126 99.7004 73.9729 99.687 74.0224C99.6724 74.0921 99.6671 74.1724 99.6418 74.2515C99.3845 75.2533 99.0387 76.0679 98.6056 76.6751L98.3957 76.9539L98.3377 76.6072C98.1017 75.1294 97.8067 73.6277 97.4582 72.1728L97.3721 71.7941L97.6897 72.0265C98.4884 72.6131 99.0714 73.1049 99.5514 73.6304C99.5795 73.6625 99.609 73.6744 99.6478 73.6971L99.7456 73.7439L99.7177 73.8631ZM100.059 70.4966C100.064 71.3441 100.013 72.1274 99.9013 72.9068L99.8628 73.1867L99.6644 72.9822C99.0116 72.3244 98.2651 71.7111 97.4544 71.154C97.4061 71.1206 97.3659 71.1179 97.3164 71.1046L97.216 71.0981L97.1824 70.995C96.9645 70.1639 96.7158 69.3409 96.4753 68.5487L96.3758 68.2194L97.0778 68.5879C98.0626 69.1059 99.0755 69.656 99.9774 70.3602C99.968 70.3495 99.9774 70.3602 100.007 70.3722L100.064 70.4162L100.059 70.4966ZM99.3978 65.9655C99.7313 67.1874 99.9389 68.3305 100.019 69.4148L100.04 69.7187L99.789 69.541C99.0171 69.0067 98.1597 68.5474 97.3411 68.1109C97.0195 67.9387 96.7073 67.7771 96.3965 67.5955C96.3576 67.5728 96.3081 67.5595 96.2572 67.5663L96.1568 67.5597L96.1232 67.4567C95.7779 66.4156 95.395 65.3317 94.9465 64.1729L94.8256 63.8624L95.1297 63.9932C96.6528 64.6067 97.8237 65.2074 98.8368 65.9088C98.9721 65.9983 99.0765 65.9446 99.1501 65.8989L99.3213 65.7487L99.3978 65.9655ZM97.7309 61.3891C98.2934 62.6562 98.7755 63.9179 99.1505 65.1224L99.2768 65.5038L98.9485 65.2807C97.8176 64.5313 96.5381 63.8933 94.786 63.2346C94.7659 63.2333 94.7458 63.2319 94.7164 63.2199L94.6254 63.2241L94.5704 63.1398C94.1796 62.1764 93.75 61.1903 93.3097 60.2136L93.1781 59.9126L93.4942 60.0139C93.8988 60.1512 94.3046 60.2683 94.7091 60.4056C95.5891 60.6747 96.4879 60.9652 97.372 61.3254C97.4403 61.3601 97.5113 61.3546 97.5635 61.3277L97.6986 61.2659L97.7309 61.3891ZM95.7634 57.3982C96.3471 58.4952 96.837 59.4852 97.2705 60.4111L97.4208 60.7335L97.086 60.6108C96.3479 60.3308 95.5871 60.0896 94.8558 59.8605C94.3521 59.6966 93.8378 59.542 93.3355 59.358C93.247 59.322 93.1748 59.3476 93.1012 59.3932L92.9634 59.4952L92.8829 59.3387C92.3433 58.184 91.8896 57.2569 91.4401 56.4208L91.2966 56.1492L91.6046 56.2197C92.826 56.511 94.1158 56.8371 95.3737 57.3426C95.4326 57.3666 95.4929 57.3705 95.5652 57.345L95.6896 57.2926L95.7634 57.3982ZM93.7962 53.7099C94.129 54.3267 94.4604 54.9635 94.8026 55.5909L95.4038 56.7293L95.0488 56.6053C93.8379 56.1533 92.5669 55.8487 91.3843 55.58C91.3146 55.5654 91.2436 55.5709 91.17 55.6165L91.0443 55.689L90.9718 55.5633C90.3881 54.4663 89.8367 53.4924 89.3027 52.56L89.0934 52.2136L89.4672 52.359C89.7431 52.4576 90.0284 52.567 90.303 52.6857C91.3653 53.0978 92.4664 53.5326 93.6274 53.6687C93.6274 53.6687 93.6275 53.6687 93.6582 53.6606L93.7386 53.6658L93.7962 53.7099ZM89.2424 51.3257L89.2718 51.3377L89.2226 51.627C89.1128 51.6097 89.0324 51.6045 88.9521 51.5993C88.9025 51.5859 88.8517 51.5927 88.8021 51.5794L88.7325 51.5648L88.5031 51.217L88.8138 51.2473C88.9531 51.2766 89.0924 51.3058 89.2223 51.3244C89.2223 51.3244 89.2223 51.3244 89.2424 51.3257ZM92.4636 51.1119C92.7038 51.6015 92.9615 52.1327 93.293 52.7695L93.4272 53.0304L93.1379 52.9813C92.2125 52.7899 91.3271 52.4498 90.451 52.1205C90.1362 51.9991 89.8308 51.8884 89.516 51.7671L89.4062 51.7499L89.378 51.7178C89.3311 51.6643 89.2722 51.6403 89.2226 51.627L89.2812 51.3484C90.607 51.586 91.6125 51.48 92.2748 51.0693L92.4112 50.9874L92.4636 51.1119ZM91.5412 47.7942C91.5926 48.2413 91.3923 48.6821 90.9964 49.0295C90.1831 49.743 88.7266 49.9608 87.3792 49.5907C85.2589 49.0088 83.3188 47.8336 81.4456 46.7131C81.0866 46.4981 80.7181 46.2724 80.3684 46.0681C79.3487 45.4672 78.3171 44.8957 77.3243 44.347C76.4481 43.8663 75.5531 43.3643 74.6782 42.8636L74.2119 42.5911L74.8974 42.5954C74.9577 42.5994 75.0286 42.5939 75.0889 42.5978C79.0723 42.6051 85.3489 43.4778 89.8761 45.9612C91.1636 46.63 91.4912 47.327 91.5412 47.7942ZM78.6014 41.7878L78.5918 41.6258C78.352 40.3595 78.0653 39.0398 77.7947 37.7817L77.547 36.636L77.9682 37.2887C78.5731 38.2157 79.2088 39.1345 79.8258 40.0319C80.2496 40.6445 80.6734 41.257 81.0772 41.8683L81.2703 42.1532L80.9315 42.0908C80.8618 42.0762 80.8123 42.0628 80.7426 42.0482C80.673 42.0336 80.594 42.0083 80.5243 41.9937C80.0462 41.902 79.4651 41.844 78.7112 41.805L78.6014 41.7878ZM86.3385 42.3824C86.746 42.7821 87.1053 43.1484 87.4244 43.5121L87.7917 43.9091L87.2881 43.7453C85.7571 43.2522 84.2623 42.8221 82.852 42.4882L82.7623 42.4722L82.7488 42.3705C82.7433 42.2995 82.7178 42.2273 82.6615 42.1631L82.3584 41.7097L82.7146 41.8136C83.8236 42.1278 84.9045 42.41 86.0654 42.3949C86.1055 42.3975 86.1564 42.3907 86.1885 42.3625L86.2715 42.3276L86.3385 42.3824ZM85.3975 41.5042L85.7313 41.7982L85.2907 41.7494C84.3091 41.6451 83.3381 41.3801 82.4072 41.1178L82.0509 41.0139C82.0308 41.0126 82.0108 41.0113 81.9813 40.9993L81.9103 41.0048L81.854 40.9406C81.5509 40.4872 81.2277 40.0325 80.9138 39.5884C80.1118 38.4369 79.3017 37.2545 78.5438 36.0454L77.9603 35.0997L78.7672 35.8683C79.916 36.9617 81.2093 38.0041 82.4342 39.0117C83.4206 39.8122 84.4352 40.6448 85.3975 41.5042ZM69.5832 39.1935C71.4925 36.8368 73.0305 34.1433 74.5513 30.4804L74.6835 30.1562L74.8137 30.4773C75.0313 31.0059 75.2715 31.4955 75.5344 31.9463L75.5519 31.9878L75.5493 32.028C75.548 32.0481 75.5467 32.0682 75.5453 32.0882C75.5333 32.1177 75.5427 32.1284 75.5414 32.1485C75.5697 32.3319 75.598 32.5152 75.6264 32.6986C75.6493 32.8111 75.6708 32.9436 75.6937 33.056C75.7005 33.1069 75.6979 33.1471 75.7153 33.1885L75.7234 33.2193C75.9998 34.851 76.3471 36.4772 76.6864 38.0726C76.9341 39.2183 77.1791 40.4042 77.4148 41.5794L77.4538 41.7534L77.2731 41.7416C75.3409 41.6763 73.3485 41.607 71.6968 40.9549C70.8861 40.3978 70.2133 39.89 69.6102 39.3969L69.495 39.3088L69.5832 39.1935ZM75.9094 50.3969L76.0475 50.5975L75.7637 50.6194C75.287 50.6589 74.7903 50.6972 74.3015 50.6149C74.102 50.5817 73.9884 50.7761 74.0462 50.9715C74.0717 51.0437 74.1241 51.1682 74.2942 51.1893C74.7629 51.2703 75.2194 51.2294 75.7054 51.2005C75.8982 51.1828 76.0803 51.1745 76.2825 51.1675L76.3735 51.1633L76.4191 51.2369C76.6352 51.6342 76.8285 52.0704 76.9803 52.5241L77.0582 52.7208L76.8466 52.7171C76.6056 52.7014 76.3526 52.7152 76.0888 52.7383C75.4113 52.7648 74.7232 52.8007 74.1176 52.499C73.9515 52.4176 73.815 52.4994 73.7615 52.5464C73.6759 52.6215 73.6291 52.7193 73.644 52.801C73.6494 52.8719 73.6963 52.9254 73.7646 52.9601C74.4385 53.2965 75.1442 53.3021 75.902 53.2808C76.3063 53.2668 76.7295 53.2742 77.1392 53.3312L77.229 53.3471L77.2532 53.4395C77.3917 53.9427 77.4981 54.474 77.5562 54.972L77.5778 55.1045L77.4453 55.1261C75.9887 55.3439 74.3939 55.2098 73.1937 54.7484C72.9874 54.6644 72.8015 54.8842 72.8486 55.089C72.8648 55.1506 72.909 55.2442 73.0269 55.2922C74.2968 55.7683 75.9613 55.917 77.4995 55.6844L77.6521 55.664L77.6616 55.826C77.6834 56.1098 77.6931 56.4231 77.6882 56.8061L77.6884 56.9574L77.5465 56.9683C77.5063 56.9657 77.4862 56.9644 77.4755 56.9738C76.2602 57.3585 75.1204 57.0524 74.0101 56.7582C73.5936 56.6504 73.1676 56.5318 72.7391 56.4535C72.5395 56.4203 72.4366 56.6052 72.4944 56.8006C72.52 56.8729 72.5723 56.9973 72.7317 57.0279C73.1803 57.1075 73.6263 57.2273 74.063 57.3365C75.2135 57.6333 76.305 57.9061 77.4883 57.5495L77.6837 57.4916L77.6694 57.8638C77.6628 57.9642 77.6669 58.0553 77.6603 58.1557C77.6312 58.4463 77.6008 58.7569 77.549 59.0864L77.4812 59.5056L77.4718 59.4949L77.4305 59.6636C77.3133 60.2208 77.1358 60.774 76.9276 61.3353L76.8435 61.5417L76.6826 61.3799C76.6169 61.305 76.5379 61.2797 76.4469 61.2838C75.088 61.3971 73.5241 61.4062 72.1012 60.6479C71.9257 60.5557 71.7986 60.6483 71.7558 60.6859C71.6809 60.7516 71.6342 60.8494 71.6383 60.9404C71.6437 61.0114 71.6907 61.0649 71.7684 61.1103C73.3372 61.9487 75.031 61.9581 76.481 61.8408L76.7139 61.8257L76.6191 62.0414C76.3841 62.5505 76.1409 63.0289 75.8696 63.4751L75.7788 63.6306L75.6461 63.5009C75.5897 63.4367 75.5201 63.4221 75.4278 63.4464C73.9568 63.8851 72.4834 63.4361 71.5041 62.9891C71.3085 62.8957 71.144 63.0968 71.1711 63.3003C71.1765 63.3712 71.2195 63.4849 71.3467 63.5437C72.6194 64.1308 73.9787 64.3202 75.154 64.0841L75.5221 64.0072L75.3002 64.3155C75.0903 64.5943 74.8591 64.8919 74.609 65.1681L74.5662 65.2057L74.5059 65.2017C74.3546 65.202 74.202 65.2223 74.0293 65.2413C72.8739 65.3274 71.4146 65.4341 70.5567 64.6722C70.3276 64.4758 70.0212 64.6878 70.0201 64.8592C70.0161 64.9194 70.0429 64.9716 70.1006 65.0157C71.0441 65.8537 72.3952 65.861 73.5988 65.8083L73.9938 65.7836L73.5871 66.1403C73.4052 66.2999 73.2032 66.4583 73.0119 66.6072L72.9798 66.6353L72.9397 66.6327C71.3424 66.6901 69.9535 66.3374 68.6926 65.5695C68.5278 65.468 68.4007 65.5605 68.3579 65.5981C68.283 65.6638 68.2363 65.7616 68.2404 65.8526C68.2458 65.9236 68.282 65.9865 68.3691 66.0426C69.3781 66.6529 70.4738 67.0167 71.7057 67.1474L72.1664 67.1976L71.7489 67.4124C70.7145 67.9603 69.625 68.2726 68.5419 68.3331C63.7635 68.6069 60.0936 61.8124 59.2754 58.2897C58.4034 54.5114 59.8657 50.048 62.8298 47.4473C64.8415 45.6823 67.3378 44.9876 69.8583 45.4644L69.8877 45.4763C72.6811 46.8685 74.6539 48.4695 75.9094 50.3969ZM68.0511 41.1814C68.3489 41.7151 68.5317 42.312 68.6958 42.8875C68.8114 43.2782 68.927 43.669 69.0734 44.0517L69.1606 44.2591L68.9397 44.2447C66.9272 44.1741 64.7815 44.7505 62.911 45.8995L62.7447 45.6667C63.2489 45.2054 63.7639 44.7347 64.2775 44.284C64.7483 43.8709 65.1751 43.5154 65.5804 43.1788C66.379 42.5349 67.0878 41.875 67.8114 41.1456L67.9411 41.0128L68.0511 41.1814ZM29.2972 23.2369C31.2628 22.1748 35.8967 21.9522 35.9369 21.9548C43.7097 22.1584 49.6001 27.0805 55.2894 31.8381C55.9394 32.3847 56.5989 32.9421 57.2502 33.4686L58.1978 34.2464L57.0938 33.7004C52.7357 31.5609 48.5515 29.231 44.6406 27.0399C40.7886 24.8728 36.7551 24.3983 32.4712 23.8975C31.4401 23.7799 30.3795 23.6503 29.3403 23.5019L28.9105 23.4437L29.2972 23.2369ZM46.5904 31.9171C47.2219 31.5145 47.8654 31.0824 48.5908 30.7867C48.6216 30.7787 48.643 30.7598 48.6751 30.7317L48.75 30.666L49.4306 31.0532C49.917 31.3269 50.4033 31.6006 50.8803 31.8637L51.1335 32.0012L50.8739 32.1154C50.6143 32.2296 50.3747 32.3451 50.1245 32.47C49.7083 32.6648 49.3015 32.8703 48.8866 33.045L48.8451 33.0624L48.7956 33.0491C48.004 32.816 47.1709 32.6004 46.3165 32.4036L45.9883 32.3318L46.5904 31.9171ZM45.1967 32.0987L45.1446 32.1255L45.095 32.1122C45.0749 32.1109 45.0454 32.0989 45.0253 32.0976L44.9758 32.0843C43.8093 31.8772 42.5571 31.594 41.1293 31.2186L40.832 31.1387L41.0755 30.9629C41.933 30.343 42.9005 29.8917 43.836 29.4685C44.283 29.2657 44.7513 29.044 45.1996 28.8211L45.2625 28.7848L45.3308 28.8195C45.9659 29.1332 46.542 29.4229 47.1248 29.7634C47.2802 29.8542 47.4263 29.9343 47.5723 30.0144C47.6889 30.0825 47.8255 30.1519 47.9421 30.22L48.1752 30.3562L47.9357 30.4718C47.3937 30.739 46.8679 31.0679 46.3528 31.3873C45.9835 31.6356 45.5942 31.8825 45.1967 32.0987ZM50.1145 33.0846C50.5936 32.8535 51.1035 32.6145 51.612 32.3954C51.6227 32.3861 51.6227 32.3861 51.6441 32.3673L51.719 32.3016L51.8181 32.3282C52.3929 32.6379 52.969 32.9276 53.545 33.2172L53.8572 33.3787L53.1987 33.5779C52.7663 33.7111 52.3554 33.8255 51.9606 34.0015L51.9085 34.0284L51.8589 34.0151C51.2374 33.8032 50.6252 33.6019 50.0131 33.4007L49.6769 33.2981L50.1145 33.0846ZM53.3747 34.1239C53.6116 34.0485 53.8579 33.9839 54.0854 33.8979C54.1577 33.8723 54.2005 33.8348 54.2246 33.7758L54.2846 33.6284L54.4213 33.6979C56.0129 34.4974 57.6165 35.2675 59.3594 36.0668L59.2713 36.3334C57.2449 35.8585 55.2223 35.1721 53.1408 34.4617L52.7162 34.3231L53.3747 34.1239ZM31.0944 27.0553L31.0073 26.9992C30.2837 26.4983 29.6029 25.9597 28.9944 25.3956C28.7759 25.1898 28.6377 24.9892 28.5223 24.7497L28.4069 24.5102L30.3139 24.8059C31.0625 24.9252 31.791 25.0432 32.5102 25.1506L32.7499 25.1864L32.5961 25.3781C32.4972 25.5027 32.3983 25.6274 32.2993 25.7521C31.9584 26.1837 31.6161 26.6354 31.1599 26.9789L31.0944 27.0553ZM33.2703 28.3266L33.1819 28.2906C32.7237 28.049 32.2562 27.7966 31.7617 27.4921L31.5969 27.3906L31.736 27.2686C32.0678 26.9775 32.3218 26.6411 32.6079 26.2765C32.8165 26.0177 33.0263 25.7389 33.2644 25.4922C33.2858 25.4734 33.3085 25.4346 33.3205 25.4051L33.3673 25.3073L33.4771 25.3245C34.3047 25.4692 34.9837 25.5739 35.6105 25.7055L35.9091 25.7653L35.5774 26.0564C35.1815 26.4037 34.8231 26.7939 34.4553 27.1733C34.1076 27.5541 33.7399 27.9336 33.3439 28.281L33.2797 28.3373L33.2703 28.3266ZM36.6636 29.7982L36.6047 29.7742C35.7782 29.4581 34.9342 29.1006 34.0152 28.6575L33.829 28.5748L33.9801 28.4232C34.2596 28.1591 34.5311 27.8641 34.7812 27.5879C35.1395 27.1977 35.5086 26.7982 35.9153 26.4414C36.1293 26.2536 36.3313 26.0953 36.532 25.9571L36.6069 25.8914L36.6765 25.906C37.9702 26.1718 39.0417 26.4433 40.0409 26.7404L40.3182 26.8189L40.0948 26.996C39.66 27.3207 39.2614 27.7082 38.8736 28.0864C38.6261 28.3224 38.3787 28.5584 38.1219 28.7838C37.619 29.225 37.1748 29.539 36.7359 29.7726L36.6636 29.7982ZM37.6388 30.1542L37.3829 30.0568L37.605 29.8999C38.0492 29.5859 38.5534 29.1245 39.0376 28.6618C39.285 28.4258 39.5432 28.1804 39.8 27.9551C40.1959 27.6077 40.5357 27.3475 40.893 27.1287L40.9786 27.0536L41.0576 27.0789C42.2229 27.4573 43.3053 27.8707 44.3529 28.3524L44.6369 28.4819L44.3558 28.6149C44.1056 28.7398 43.846 28.854 43.5864 28.9682C42.3793 29.535 41.2458 30.0563 40.2426 30.8986L40.1891 30.9456L40.1194 30.9309C39.3064 30.7166 38.5068 30.4528 37.6388 30.1542ZM54.6459 46.1277L54.6179 46.2469L54.4974 46.2391C53.129 46.1903 52.1213 45.5599 50.9568 44.7075C50.8121 44.6073 50.697 44.6704 50.6435 44.7173C50.5686 44.783 50.5219 44.8808 50.5354 44.9826C50.5395 45.0736 50.5757 45.1365 50.6628 45.1926C51.771 45.9808 52.8738 46.6981 54.2892 46.8003L54.47 46.8122L54.3979 46.989C54.2511 47.3828 54.064 47.7741 53.8168 48.1614L53.7607 48.2485L53.6616 48.2219C52.0504 47.8749 50.8716 47.3947 49.9081 46.7067C49.7633 46.6065 49.6482 46.6696 49.5947 46.7165C49.5198 46.7822 49.4731 46.8801 49.4866 46.9818C49.4907 47.0728 49.5269 47.1357 49.614 47.1918C50.5293 47.8464 51.6974 48.336 53.1868 48.6952L53.4158 48.7404L53.2633 48.912C52.8822 49.341 52.4636 49.7273 51.9993 50.04L51.9472 50.0668L51.8775 50.0522C50.048 49.6507 48.6119 48.9419 47.5757 47.9768C47.3572 47.771 47.0509 47.983 47.0484 48.1745C47.0445 48.2347 47.0713 48.2869 47.1383 48.3417C48.098 49.2413 49.3534 49.9382 50.8777 50.3804L51.2434 50.495L50.8901 50.6535C50.3186 50.9088 49.7097 51.1213 49.0551 51.2602L48.9935 51.2763L48.9453 51.243C48.9064 51.2203 48.8675 51.1975 48.8274 51.1949C47.7306 51.0025 46.8835 50.2313 46.0846 49.4934C45.9318 49.3624 45.7803 49.2114 45.6275 49.0804C45.3983 48.8839 45.092 49.0959 45.0908 49.2673C45.0869 49.3276 45.1244 49.3703 45.1713 49.4238C45.3053 49.5334 45.438 49.6631 45.5721 49.7727C46.1725 50.306 46.8012 50.8714 47.4925 51.2492L47.8811 51.4762L47.4339 51.5278C46.8756 51.5822 46.2785 51.6139 45.6532 51.6135L45.6131 51.6109L45.5742 51.5882C44.2544 50.7963 43.3765 50.0331 42.6899 49.121C42.643 49.0676 42.5853 49.0235 42.5251 49.0195C42.4648 49.0156 42.3926 49.0412 42.3284 49.0975C42.2428 49.1726 42.1412 49.3375 42.2807 49.518C42.7446 50.1332 43.3318 50.716 44.0916 51.2799L44.4856 51.5778L43.9942 51.5357C43.6125 51.5109 43.2322 51.4659 42.8733 51.4022L42.8238 51.3889C41.9141 50.9565 41.2464 50.2171 40.5775 49.4978C40.4273 49.3267 40.2665 49.165 40.1056 49.0032C39.9541 48.8521 39.7681 48.9207 39.6932 48.9864C39.629 49.0427 39.5942 49.1111 39.5997 49.182C39.5957 49.2423 39.632 49.3052 39.6789 49.3586C39.821 49.499 39.9618 49.6595 40.1132 49.8105C40.4243 50.1434 40.7353 50.4763 41.0677 50.7904L41.4671 51.1594L40.9408 51.0343C40.5336 50.9372 40.1774 50.8333 39.8318 50.7201L39.7433 50.684L39.7392 50.593C39.7244 50.5113 39.6882 50.4485 39.6212 50.3937C38.8118 49.8165 38.1199 48.9848 37.6207 47.9841C37.5858 47.9011 37.5188 47.8463 37.4384 47.8411C37.3487 47.8252 37.2456 47.8588 37.1707 47.9245C37.1172 47.9715 37.0397 48.0774 37.1095 48.2433C37.3766 48.7851 37.7159 49.3014 38.1088 49.7707L38.5204 50.2615L37.943 49.9919C37.4246 49.7464 36.8873 49.4794 36.3634 49.1629C35.6195 48.5093 35.2222 47.6463 34.853 46.8155C34.8181 46.7325 34.7605 46.6884 34.6815 46.6631C34.5918 46.6472 34.4887 46.6808 34.4138 46.7465C34.371 46.7841 34.2627 46.8981 34.3419 47.0747C34.3942 47.1991 34.4667 47.3249 34.5191 47.4493L34.8653 48.1677L34.3681 47.7521C32.2358 45.9693 30.7777 43.7463 30.1496 41.3252C29.6439 39.3458 30.2002 37.6272 31.8161 36.2095C34.5875 33.7779 39.6318 32.9869 42.1479 33.2213C47.1012 33.6649 53.4724 37.5593 54.6979 42.4096L54.7369 42.5835L54.5642 42.6025C54.2402 42.6218 53.9 42.5795 53.5344 42.4649C53.4058 42.4263 53.3322 42.4719 53.2787 42.5188C53.1931 42.5939 53.1544 42.7225 53.1773 42.835C53.1921 42.9166 53.2484 42.9808 53.3569 43.0181C53.8217 43.1593 54.2529 43.1975 54.7389 43.1686L54.8808 43.1577L54.9024 43.2902C54.947 43.6865 54.9716 44.0814 54.9547 44.4938L54.9561 44.625L54.8249 44.6265C54.0363 44.6559 53.1432 44.5876 52.4382 43.9567C52.209 43.7603 51.9026 43.9723 51.9015 44.1437C51.8975 44.2039 51.9244 44.2561 51.982 44.3002C52.687 44.9311 53.5268 45.1976 54.7185 45.1743L54.8898 45.1754L54.8686 45.3454C54.866 45.3856 54.854 45.4151 54.8513 45.4553C54.8474 45.5155 54.8448 45.5557 54.8314 45.6053C54.8395 45.636 54.8382 45.6561 54.8369 45.6762C54.8235 45.7258 54.8222 45.7458 54.8008 45.7646C54.7848 45.8543 54.7595 45.9334 54.7449 46.003C54.6619 46.038 54.6485 46.0875 54.6459 46.1277ZM55.7609 46.9668L55.5908 46.9457L55.6415 46.7876C55.7082 46.5398 55.7748 46.292 55.8214 46.0429L55.8507 45.9036C55.852 45.8835 55.8533 45.8634 55.8546 45.8433C55.8667 45.8139 55.8479 45.7925 55.8599 45.763C56.6235 41.4962 54.5837 37.5309 50.2799 34.8704L49.4465 34.3522L50.4671 34.6304C50.9225 34.761 51.3886 34.8821 51.8333 35.022C52.7628 35.3044 53.7299 35.6296 54.6569 35.9522C57.7551 37.0011 60.9417 38.0861 64.1245 38.1522L64.174 38.1655C65.3836 38.6376 66.5005 38.8313 67.585 38.7507L67.9197 38.7221L67.7111 38.9808C66.6388 40.2624 65.3883 41.492 64.0332 42.6241L63.969 42.6805L63.8418 42.6218L63.3167 42.4767C63.1091 42.4127 62.7825 42.4721 62.6569 42.6959C61.922 44.06 60.7504 45.1637 59.9371 45.8772C59.4877 46.2716 59.0088 46.6539 58.6142 46.9812L58.5821 47.0093L58.5312 47.0161C57.5499 47.0631 56.6434 47.0444 55.7609 46.9668ZM26.4323 73.2861C26.1248 69.0503 28.7416 63.7443 32.9256 60.0734C37.3343 56.2053 42.1159 55.2661 45.7177 57.5581C45.7472 57.5701 45.7672 57.5714 45.7873 57.5727L45.8168 57.5847L45.845 57.6168C45.9375 57.7438 46.0728 57.8333 46.2121 57.8625L46.2617 57.8759C48.5851 59.3585 49.6842 61.5177 49.5522 64.3028L49.5456 64.4032L49.4426 64.4369C48.3838 64.7411 47.3538 64.4521 46.4551 64.1616C46.3265 64.123 46.2529 64.1686 46.1994 64.2156C46.1138 64.2907 46.0751 64.4193 46.0886 64.521C46.1128 64.6133 46.1692 64.6775 46.2683 64.7042C47.1376 64.9827 48.1689 65.2515 49.2813 65.0517L49.4754 65.0139L49.4529 65.204C49.3931 65.654 49.3146 66.0825 49.2067 66.4991L49.18 66.5982L49.0689 66.6011C47.4862 66.5888 46.3104 66.371 45.2628 65.8893C45.0672 65.7959 44.9027 65.9969 44.9297 66.2004C44.9351 66.2714 44.9781 66.3851 45.1054 66.4438C46.1035 66.9122 47.2887 67.1407 48.8298 67.1705L49.0213 67.1728L48.9693 67.351C48.7652 68.0033 48.5196 68.6732 48.2352 69.3203L48.1884 69.4181L48.088 69.4115C46.5239 69.2693 45.2338 68.6407 44.1633 68.0465C43.9985 67.945 43.8714 68.0376 43.8179 68.0846C43.743 68.1503 43.6962 68.2481 43.7003 68.3391C43.7058 68.4101 43.7527 68.4636 43.8304 68.509C45.2989 69.3409 46.5111 69.7728 47.7512 69.9342L47.9413 69.9567L47.8492 70.1323C47.6381 70.5824 47.3856 71.0501 47.077 71.6048L47.0208 71.692L46.9217 71.6653C45.5114 71.3314 44.2134 70.8233 42.958 70.1264C42.7932 70.0249 42.6661 70.1174 42.6126 70.1644C42.5377 70.2301 42.4909 70.3279 42.495 70.4189C42.5005 70.4899 42.5474 70.5434 42.6251 70.5888C43.8899 71.2964 45.1772 71.814 46.5367 72.1546L46.7255 72.1972L46.6239 72.362C46.3059 72.9061 45.9584 73.4382 45.6336 73.9314L45.5775 74.0185L45.4783 73.9918C43.7198 73.5848 42.3788 72.963 41.2691 72.0436C41.1445 71.9447 41.0508 71.989 40.9866 72.0453C40.9117 72.111 40.8649 72.2089 40.8677 72.32C40.8638 72.3802 40.888 72.4726 40.9738 72.5488C42.0447 73.4455 43.3361 74.054 45.013 74.4759L45.2112 74.5291L45.0895 74.6927C44.7232 75.2033 44.4144 75.6068 44.1283 75.9715L44.0628 76.0479L43.965 76.0012C42.5222 75.3929 41.181 74.6197 39.8731 73.647C39.7284 73.5468 39.624 73.6005 39.5705 73.6475C39.4956 73.7132 39.4582 73.8217 39.4624 73.9127C39.4665 74.0038 39.5027 74.0667 39.5791 74.1321C40.8 75.0487 42.0822 75.7979 43.4942 76.4143L43.671 76.4863L43.5399 76.6391C43.1468 77.0976 42.7456 77.5253 42.3484 77.8928L42.2735 77.9585L42.1864 77.9024C41.0583 77.2642 39.9915 76.4585 38.8133 75.353C38.5948 75.1472 38.2885 75.3592 38.286 75.5507C38.282 75.6109 38.3089 75.6631 38.3759 75.7179C39.5434 76.8327 40.59 77.6371 41.678 78.2727L41.8428 78.3742L41.693 78.5057C41.3399 78.8155 40.968 79.1039 40.5452 79.3991L40.461 79.4542L40.3457 79.366L40.0925 79.2285C38.8572 78.5328 37.5723 77.8238 36.7782 76.5518C36.7138 76.4568 36.6254 76.4208 36.5651 76.4169C36.4647 76.4103 36.3522 76.4333 36.2773 76.499C36.2131 76.5553 36.157 76.6424 36.2388 76.7788C37.0799 78.1044 38.3099 78.8804 39.7101 79.6776L39.9244 79.7924L39.7144 79.9199C39.1792 80.2381 38.6077 80.4933 38.0295 80.6977L37.9572 80.7232L37.8808 80.6577L37.8621 80.6364L37.7656 80.5696C36.7445 79.8374 35.7046 79.0839 35.0124 77.9496C34.9574 77.8653 34.8997 77.8212 34.81 77.8053C34.7203 77.7894 34.5971 77.8217 34.5222 77.8874C34.458 77.9438 34.4019 78.0309 34.4837 78.1673C35.1666 79.2909 36.1637 80.082 37.0294 80.7233L37.2893 80.9117L36.9828 80.9724C36.533 81.0642 36.0551 81.1238 35.5905 81.1339L35.4994 81.1381L35.4645 81.0551C35.4471 81.0136 35.4283 80.9922 35.4189 80.9815C34.9389 80.4561 34.5754 79.8475 34.2212 79.2495L34.0026 78.8924C33.9476 78.8081 33.8899 78.764 33.8002 78.7481C33.7105 78.7322 33.5873 78.7645 33.5124 78.8302C33.4482 78.8865 33.3921 78.9736 33.4739 79.1101C33.5464 79.2358 33.6282 79.3723 33.7007 79.498C33.973 79.9595 34.2547 80.4317 34.5699 80.8556L34.7643 81.1205L34.4336 81.0888C32.9726 80.913 31.4763 80.3516 30.0064 79.3885C27.8785 77.9994 26.6161 75.8698 26.4323 73.2861Z" fill="white"/>
</svg>
