<svg width="155" height="675" viewBox="0 0 155 675" fill="none" xmlns="http://www.w3.org/2000/svg">
<g opacity="0.6">
<path d="M98.8104 525.254C92.4748 549.224 77.6246 556.984 77.6246 556.984C74.3426 559.722 70.6938 554.136 72.831 548.539C72.831 548.539 73.7598 548.019 75.3374 546.854L75.3697 546.806C79.9072 543.44 89.2873 534.563 94.033 516.785C95.9692 513.885 100.268 520.512 98.8104 525.254Z" fill="#707070"/>
<path d="M103.76 533.964C97.3898 557.879 82.57 565.7 82.57 565.7C80.0526 567.946 76.4062 561.102 77.742 557.195C77.742 557.195 92.5952 549.433 98.9321 525.458C101.773 524.361 105.162 530.068 103.76 533.964Z" fill="#9E9E9E"/>
<path d="M108.728 542.704C102.358 566.622 87.5368 574.443 87.5368 574.443C84.6545 576.31 81.6078 568.838 82.7084 565.937C82.7084 565.937 97.5293 558.116 103.9 534.198C105.955 533.136 110.163 538.867 108.728 542.704Z" fill="#707070"/>
<path d="M80.7813 505.928C80.7813 505.928 83.4855 530.713 75.1008 546.071L75.0683 546.12C73.5133 547.299 72.5453 547.817 72.5453 547.817L31.7419 535.49C36.2376 533.085 41.2361 529.872 46.4524 525.401L80.7813 505.928Z" fill="#DEDEDE"/>
<path d="M88.2595 451.019L93.6608 516.261C88.9077 534.109 79.4647 543.057 74.9046 546.441C83.2753 531.109 80.5756 506.367 80.5756 506.367L46.3206 525.836C61.3075 513.069 77.9375 490.563 88.2595 451.019Z" fill="#A6A6A6"/>
<path d="M-17.4691 389.689C-20.452 395.873 -35.1866 426.467 -35.9763 428.978C-35.9763 428.978 -29.1364 469.309 -17.9417 499.298C-23.3302 490.659 -28.2731 481.629 -31.5784 473.078C-43.1753 442.862 -61.7258 383.607 -61.7258 383.607L-87.998 386.442C-95.3244 388.286 -101.737 378.912 -105.683 371.156C-103.952 374.207 -92.8112 389.668 -58.4461 359.824C-58.4461 359.824 -47.0299 402.873 -45.1525 403.989C-45.1361 403.965 -23.8779 401.115 -17.4691 389.689Z" fill="#E07800"/>
<path d="M-63.1732 103.163L-55.5908 118.451C-54.2414 121.204 -52.8244 124.021 -51.4068 126.894C-50.331 129.057 -49.2382 131.251 -48.1442 133.553C-40.3575 149.201 -31.7839 166.556 -23.4323 183.467C-21.8438 186.694 -20.256 189.867 -18.7016 193.034L-9.58129 211.514C4.25326 239.585 15.494 262.604 18.3684 268.901C27.1132 288.22 28.6179 318.272 28.6179 318.272C30.8826 320.653 33.2337 323.293 35.6046 326.237C33.7271 330.436 31.765 334.541 29.8352 338.541C26.957 344.517 23.9931 350.288 21.0268 355.841L1.92869 346.81C2.5281 341.86 3.08581 287.183 3.08581 287.183C-6.5403 247.757 -50.0575 165.949 -50.0575 165.949L-72.6826 153.707L-69.219 135.143L-66.0711 118.328L-63.1732 103.163Z" fill="#D27100"/>
<path d="M-48.6102 165.037L-71.1448 152.842L-77.574 187.082L-83.1688 216.809L-105.054 225.042L-105.088 224.983L-106.879 225.674L-108.736 226.355L-126.825 233.104L-130.522 234.55L-146.655 240.58L-148.445 241.271L-150.286 241.927L-165.523 247.666L-167.297 248.333L-169.187 249.063L-180.512 253.254L-184.176 254.651L-189.448 256.632L-159.693 268.517L-110.614 361.889C-110.614 361.889 -109.172 366.033 -106.689 370.996L-106.401 371.504C-104.671 374.552 -93.5541 390.028 -59.2127 360.204C-59.2127 360.204 -47.8044 403.224 -45.9283 404.34C-45.9283 404.34 -24.6679 401.522 -18.2635 390.103C-21.2443 396.283 -35.9688 426.858 -36.7415 429.342C-36.7415 429.342 -36.7076 429.402 -36.6894 429.541C-36.6883 429.65 -36.6526 429.873 -36.617 430.096C-36.3522 431.524 -35.7156 435.05 -34.7487 439.906L-34.7651 439.93L-34.7312 439.99C-34.502 441.195 -34.2565 442.376 -33.9764 443.67C-33.9396 444.002 -33.8531 444.315 -33.7999 444.623C-36.1055 446.971 -38.2806 449.068 -40.3907 451.012L-40.4235 451.061C-40.2691 451.494 -40.1141 451.98 -39.9767 452.383C-39.7878 452.929 -39.6165 453.392 -39.4439 453.963C-39.3919 454.161 -39.2896 454.395 -39.2217 454.515C-38.9644 455.235 -38.7071 455.956 -38.4667 456.646C-38.4656 456.755 -38.4486 456.785 -38.4147 456.845C-37.934 458.226 -37.4872 459.547 -36.9737 460.88C-36.9726 460.989 -36.9217 461.078 -36.8708 461.168C-36.8527 461.307 -36.8188 461.366 -36.8007 461.505C-36.4749 462.4 -36.1158 463.3 -35.8065 464.219C-35.6696 464.567 -35.5322 464.969 -35.3954 465.317C-35.3433 465.516 -35.2749 465.69 -35.2228 465.888C-34.2298 468.493 -33.2701 471.092 -32.3964 473.433C-31.883 474.765 -31.3531 476.073 -30.7735 477.361C-30.4664 478.062 -30.1927 478.758 -29.8699 479.381C-29.5798 480.052 -29.2564 480.729 -28.916 481.435C-28.2697 482.735 -27.6058 484.118 -26.8928 485.428C-26.5524 486.134 -26.1787 486.846 -25.7886 487.534C-25.4154 488.191 -25.0592 488.819 -24.7019 489.556C-22.8512 492.977 -20.8345 496.37 -18.7855 499.66L-18.7515 499.72C-16.9576 502.507 -15.1472 505.27 -13.338 507.924C-6.52413 517.9 0.326842 526.66 5.11647 532.536C65.367 519.198 62.3127 397.302 62.3127 397.302L62.2279 397.152L50.0591 381.373L33.4003 359.711L25.4205 355.96L22.1414 354.403L22.1075 354.343L3.08582 345.346C3.68282 340.414 4.23835 285.941 4.23835 285.941C-5.26727 246.54 -48.6102 165.037 -48.6102 165.037ZM-99.2834 359.845L-146.341 265.493C-136.521 268.587 -125.935 254.278 -125.935 254.278C-111.785 281.135 -68.8402 339.179 -68.8402 339.179C-78.8395 352.223 -99.2834 359.845 -99.2834 359.845Z" fill="#FFAC1C"/>
<path d="M-17.4691 389.689C-20.452 395.873 -35.1866 426.467 -35.9763 428.978C-35.9763 428.978 -29.1364 469.309 -17.9417 499.298C-23.3302 490.659 -28.2731 481.629 -31.5784 473.078C-43.1753 442.862 -61.7258 383.607 -61.7258 383.607L-87.998 386.442C-95.3244 388.286 -101.737 378.912 -105.683 371.156C-103.952 374.207 -92.8112 389.668 -58.4461 359.824C-58.4461 359.824 -47.0299 402.873 -45.1525 403.989C-45.1361 403.965 -23.8779 401.115 -17.4691 389.689Z" fill="#A6A6A6"/>
<path d="M-63.1732 103.163L-55.5908 118.451C-54.2414 121.204 -52.8244 124.021 -51.4068 126.894C-50.331 129.057 -49.2382 131.251 -48.1442 133.553C-40.3575 149.201 -31.7839 166.556 -23.4323 183.467C-21.8438 186.694 -20.256 189.867 -18.7016 193.034L-9.58129 211.514C4.25326 239.585 15.494 262.604 18.3684 268.901C27.1132 288.22 28.6179 318.272 28.6179 318.272C30.8826 320.653 33.2337 323.293 35.6046 326.237C33.7271 330.436 31.765 334.541 29.8352 338.541C26.957 344.517 23.9931 350.288 21.0268 355.841L1.92869 346.81C2.5281 341.86 3.08581 287.183 3.08581 287.183C-6.5403 247.757 -50.0575 165.949 -50.0575 165.949L-72.6826 153.707L-69.219 135.143L-66.0711 118.328L-63.1732 103.163Z" fill="#A6A6A6"/>
<path d="M-48.6102 165.037L-71.1448 152.842L-77.574 187.082L-83.1688 216.809L-105.054 225.042L-105.088 224.983L-106.879 225.674L-108.736 226.355L-126.825 233.104L-130.522 234.55L-146.655 240.58L-148.445 241.271L-150.286 241.927L-165.523 247.666L-167.297 248.333L-169.187 249.063L-180.512 253.254L-184.176 254.651L-189.448 256.632L-159.693 268.517L-110.614 361.889C-110.614 361.889 -109.172 366.033 -106.689 370.996L-106.401 371.504C-104.671 374.552 -93.5541 390.028 -59.2127 360.204C-59.2127 360.204 -47.8044 403.224 -45.9283 404.34C-45.9283 404.34 -24.6679 401.522 -18.2635 390.103C-21.2443 396.283 -35.9688 426.858 -36.7415 429.342C-36.7415 429.342 -36.7076 429.402 -36.6894 429.541C-36.6883 429.65 -36.6526 429.873 -36.617 430.096C-36.3522 431.524 -35.7156 435.05 -34.7487 439.906L-34.7651 439.93L-34.7312 439.99C-34.502 441.195 -34.2565 442.376 -33.9764 443.67C-33.9396 444.002 -33.8531 444.315 -33.7999 444.623C-36.1055 446.971 -38.2806 449.068 -40.3907 451.012L-40.4235 451.061C-40.2691 451.494 -40.1141 451.98 -39.9767 452.383C-39.7878 452.929 -39.6165 453.392 -39.4439 453.963C-39.3919 454.161 -39.2896 454.395 -39.2217 454.515C-38.9644 455.235 -38.7071 455.956 -38.4667 456.646C-38.4656 456.755 -38.4486 456.785 -38.4147 456.845C-37.934 458.226 -37.4872 459.547 -36.9737 460.88C-36.9726 460.989 -36.9217 461.078 -36.8708 461.168C-36.8527 461.307 -36.8188 461.366 -36.8007 461.505C-36.4749 462.4 -36.1158 463.3 -35.8065 464.219C-35.6696 464.567 -35.5322 464.969 -35.3954 465.317C-35.3433 465.516 -35.2749 465.69 -35.2228 465.888C-34.2298 468.493 -33.2701 471.092 -32.3964 473.433C-31.883 474.765 -31.3531 476.073 -30.7735 477.361C-30.4664 478.062 -30.1927 478.758 -29.8699 479.381C-29.5798 480.052 -29.2564 480.729 -28.916 481.435C-28.2697 482.735 -27.6058 484.118 -26.8928 485.428C-26.5524 486.134 -26.1787 486.846 -25.7886 487.534C-25.4154 488.191 -25.0592 488.819 -24.7019 489.556C-22.8512 492.977 -20.8345 496.37 -18.7855 499.66L-18.7515 499.72C-16.9576 502.507 -15.1472 505.27 -13.338 507.924C-6.52413 517.9 0.326842 526.66 5.11647 532.536C65.367 519.198 62.3127 397.302 62.3127 397.302L62.2279 397.152L50.0591 381.373L33.4003 359.711L25.4205 355.96L22.1414 354.403L22.1075 354.343L3.08582 345.346C3.68282 340.414 4.23835 285.941 4.23835 285.941C-5.26727 246.54 -48.6102 165.037 -48.6102 165.037ZM-99.2834 359.845L-146.341 265.493C-136.521 268.587 -125.935 254.278 -125.935 254.278C-111.785 281.135 -68.8402 339.179 -68.8402 339.179C-78.8395 352.223 -99.2834 359.845 -99.2834 359.845Z" fill="#DEDEDE"/>
<path d="M93.658 419.568C92.0593 430.565 90.054 440.527 87.643 449.564L87.6442 449.671C77.3113 489.259 60.6636 511.791 45.6439 524.542C40.447 528.986 35.4352 532.221 30.9422 534.624L30.8761 534.614C20.2023 540.415 12.4928 541.172 12.4928 541.172C12.4928 541.172 10.0398 538.437 6.23027 533.735C65.9175 520.52 62.8917 399.752 62.8917 399.752L62.8077 399.604L50.7527 383.971C54.1086 376.97 57.4768 369.568 60.9059 361.691C59.0771 358.733 57.2484 355.775 55.3709 352.89C58.2369 357.252 61.0554 361.796 63.8072 366.275C80.3181 393.148 93.658 419.568 93.658 419.568Z" fill="#E07800"/>
<path d="M62.7301 398.865L62.8142 399.013C62.8142 399.013 65.8449 519.981 6.06103 533.218C1.3085 527.387 -5.5225 518.689 -12.2505 508.793C-14.0457 506.16 -15.8421 503.418 -17.6221 500.652L-17.6558 500.593C-19.7057 497.298 -21.7063 493.984 -23.5264 490.565C-23.8809 489.834 -24.2512 489.181 -24.6047 488.558C-24.9918 487.876 -25.3464 487.145 -25.7004 486.468C-26.3916 485.144 -27.0666 483.796 -27.7078 482.506C-28.0288 481.835 -28.3828 481.158 -28.6544 480.467C-28.9585 479.825 -29.2463 479.159 -29.551 478.463C-30.1429 477.155 -30.6687 475.857 -31.1614 474.565C-32.0283 472.242 -32.9968 469.686 -33.9659 467.077C-34.0175 466.88 -34.0854 466.708 -34.137 466.511C-34.2728 466.165 -34.4092 465.766 -34.545 465.421C-34.9024 464.42 -35.2762 463.443 -35.6173 462.417C-35.6678 462.328 -35.7352 462.21 -35.7195 462.131C-36.229 460.809 -36.6723 459.498 -37.1493 458.127C-37.1829 458.068 -37.1998 458.038 -37.2009 457.93C-37.4562 457.215 -37.6947 456.53 -37.95 455.815C-38.3417 454.7 -38.734 453.532 -39.143 452.334C-39.4152 451.589 -39.6705 450.874 -39.927 450.051C-40.0291 449.765 -40.1486 449.395 -40.2508 449.109L-40.2844 449.05C-38.1296 446.645 -35.861 444.069 -33.561 441.336L-33.5285 441.287C-21.1785 426.79 -7.12496 407.819 7.04771 384.499C8.47682 382.193 9.85599 379.852 11.2839 377.438C11.4953 377.121 11.7067 376.805 11.9007 376.404C15.1451 370.83 18.371 365.063 21.5783 359.105C21.9343 358.407 22.2746 357.788 22.6143 357.114C22.7444 356.919 22.8734 356.616 22.9866 356.392L23.0203 356.451L26.274 357.997L34.192 361.719L50.7218 383.216L62.7301 398.865Z" fill="#FFAC1C"/>
<path d="M59.9511 361.27C56.4999 369.142 53.0942 376.616 49.734 383.69L33.1271 362.093L25.1721 358.354L21.9032 356.801L21.8694 356.741C24.8146 351.226 27.7406 345.464 30.6152 339.558C32.5313 335.584 34.4795 331.508 36.3437 327.336C36.8143 327.899 37.2849 328.462 37.7555 329.025C38.8319 330.39 39.9253 331.784 41.0367 333.316C41.7266 334.213 42.3995 335.079 43.073 336C44.0661 337.324 45.0766 338.732 46.0708 340.164C47.8225 342.612 49.6092 345.228 51.3632 347.893C52.3743 349.355 53.4023 350.847 54.3983 352.443C56.2706 355.316 58.1109 358.293 59.9511 361.27Z" fill="#F5D773"/>
<path d="M50.0642 382.915C22.2538 441.309 -3.50221 472.037 -21.7992 487.939C-22.4172 488.483 -23.0346 489.081 -23.6693 489.595C-24.0216 488.869 -24.3896 488.221 -24.7408 487.602C-25.1255 486.925 -25.4779 486.198 -25.8297 485.526C-26.5166 484.21 -27.1873 482.871 -27.8246 481.59C-28.1435 480.923 -28.4953 480.25 -28.7652 479.564C-29.0674 478.926 -29.3534 478.264 -29.6562 477.573C-30.2444 476.273 -30.7669 474.984 -31.2564 473.7C-32.118 471.392 -33.0804 468.854 -34.0434 466.262C-34.0947 466.066 -34.1622 465.895 -34.2135 465.699C-34.3484 465.356 -34.484 464.959 -34.6189 464.616C-34.9741 463.622 -35.3455 462.651 -35.6845 461.633C-35.7347 461.544 -35.8016 461.426 -35.786 461.348C-36.2923 460.035 -36.7329 458.732 -37.2069 457.37C-37.2403 457.312 -37.257 457.282 -37.2582 457.175C-37.5119 456.464 -37.7489 455.784 -38.0026 455.073C-38.0862 454.926 -38.171 454.671 -38.2218 454.529C-38.3919 453.966 -38.5608 453.51 -38.7471 452.972C-38.8993 452.545 -39.0683 452.09 -39.1876 451.669C-39.2556 451.443 -39.3566 451.213 -39.4413 450.958C-39.6114 450.395 -39.7804 449.94 -39.9505 449.377C-40.052 449.093 -40.1707 448.725 -40.2722 448.441C-38.1309 446.052 -35.8765 443.493 -33.5909 440.778C-21.3344 426.399 -7.32046 407.48 6.72999 384.254C8.15014 381.963 9.52069 379.637 10.9397 377.239C11.1497 376.925 11.3598 376.61 11.5526 376.212C14.7934 370.704 17.9823 364.946 21.1696 359.027C21.5234 358.333 21.8615 357.718 22.1991 357.049C22.3284 356.855 22.49 356.613 22.5858 356.36L25.8191 357.896L33.6875 361.594L50.0642 382.915Z" fill="#FFEEB5"/>
<path d="M-13.5036 362.238L-1.66453 344.5L-0.38721 285.91L-8.77407 291.569L-13.5036 362.238Z" fill="#FCFCFC"/>
</g>
</svg>
