<svg width="181" height="1722" viewBox="0 0 181 1722" fill="none" xmlns="http://www.w3.org/2000/svg">
<g opacity="0.6">
<path d="M110.777 1190.33C111.512 1197.98 112.592 1205.44 115.239 1212.82C114.937 1242.47 113.314 1244.49 97.9899 1240.08C95.9471 1237.74 94.3302 1234.78 93.2996 1230.35C92.0407 1217.24 85.7335 1204.55 86.7333 1191C91.5718 1188.4 89.85 1184.34 86.1903 1179.04C80.5743 1165.97 80.4818 1154.92 85.993 1145.45C87.3261 1141.67 88.9245 1138.13 90.5229 1134.59C91.6153 1132.09 93.2385 1130.07 95.2319 1129.38C103.008 1135.92 97.4411 1147.34 101.23 1155.26C104.563 1167.25 109.012 1178.26 110.777 1190.33Z" fill="#F8AE55"/>
<path d="M22.4919 956.018C31.5696 974.516 42.7453 988.042 54.6615 999.239C60.0284 1004.32 65.5598 1009.98 68.5922 1019.83C68.5611 1022.77 67.4917 1023.97 65.6204 1023.62C40.9656 998.386 15.3543 976.571 -5.59788 939.695C2.07323 933.193 9.29106 937.337 22.4919 956.018Z" fill="#FB9F30"/>
<path d="M15.7847 1481.19C10.913 1481.71 5.81055 1477.64 1.11439 1474.37C-9.40275 1466.39 -20.523 1460.07 -28.6702 1442.8C-31.1507 1435.35 -31.8091 1428.64 -27.8654 1424.24C-12.4766 1431.7 1.96683 1444.02 13.5826 1466.54C15.4686 1471.28 18.2186 1475.89 15.7847 1481.19Z" fill="#EC9835"/>
<path d="M91.3693 1236.11C105.9 1246.05 106.949 1227.08 110.608 1213C121.763 1232.17 109.676 1244.83 112.295 1261.47C102.9 1261.74 105.877 1278.19 102.86 1287.23C100.618 1293.9 97.7333 1288.77 95.0655 1285.87C90.6295 1268.63 84.9263 1251.27 91.3693 1236.11Z" fill="#FACE99"/>
<path d="M80.9372 1353.49C82.0772 1370.39 75.7132 1378 68.6446 1379.53C63.8178 1380.6 60.884 1386.37 56.2164 1386.6C51.1687 1374.09 50.3658 1361.95 54.4388 1351.77C61.6912 1350.91 65.8438 1340.3 72.8329 1339.2C76.6797 1341.7 79.9446 1345.65 80.9372 1353.49Z" fill="#FCE0BE"/>
<path d="M64.024 1024.71C64.246 1023.54 64.7125 1022.59 64.9346 1021.43C67.5498 1024.23 69.8466 1027.21 72.4618 1030.01C75.8777 1037.64 74.9311 1048.63 81.2876 1054.35C82.8957 1059.44 82.474 1063.16 80.9263 1066.78C80.0673 1068.29 78.7933 1068.96 77.5934 1069.25C72.1116 1067.97 67.1772 1060.8 61.8211 1057.35C53.4349 1050.27 50.2769 1033.77 42.9718 1024.01C41.8234 1022.53 43.2007 1018.3 44.6967 1016.45C49.7703 1012.35 54.2157 1019.08 59.1793 1023.09C60.7717 1022.24 62.4023 1028.72 64.024 1024.71Z" fill="#F79E32"/>
<path d="M25.2135 958.313C15.7262 951.639 6.29032 943.222 -3.46849 939.437C-7.4063 946.658 -12.8539 944.035 -18.5435 941.197C-22.9718 937.694 -25.919 932.381 -26.6077 924.163C-22.4937 913.073 -13.0577 921.49 -7.83686 914.966C-4.2734 914.119 -0.886168 917.141 1.96575 921.474C7.39811 933.028 15.7272 936.88 21.2329 948.053C23.5056 950.975 25.2212 953.847 25.2135 958.313Z" fill="#FBD09D"/>
<path d="M-8.66964 864.499C-5.32342 864.798 -1.97718 865.097 1.36904 865.396C9.23521 874.658 18.2682 882.273 21.0266 900.415C20.366 903.857 18.6929 903.707 16.9244 902.577C13.4609 899.933 11.1423 894.279 7.82558 890.871C5.1619 888.493 2.52019 887.479 -0.437076 886.631C-2.59449 886.049 -4.82535 885.85 -7.12956 886.033C-8.87607 886.266 -10.718 885.518 -12.413 884.005C-15.4876 880.812 -17.4686 876.356 -18.0408 870.469C-18.1581 868.125 -17.8645 866.595 -17.0132 865.115C-14.5841 862.803 -11.4362 865.613 -8.66964 864.499Z" fill="#F9B769"/>
<path d="M112.897 1187.4C107.47 1177.46 102.833 1166.7 100.756 1154.19C101.021 1120.99 101.021 1120.99 108.075 1115.67C108.34 1120.98 107.814 1127.09 109.223 1131.4C116.241 1151.39 115.725 1169.17 112.897 1187.4Z" fill="#FCE1C0"/>
<path d="M-11.1045 1478.06C-7.96938 1489.83 -1.44901 1494.3 3.99924 1501.41C9.93211 1508.95 8.08154 1512.68 4.0722 1515.83C-6.35464 1511 -14.2185 1497.25 -22.4496 1485.42C-25.3498 1478.34 -30.218 1472.65 -27.3393 1463.56C-21.1272 1463.72 -15.4291 1466.57 -11.1045 1478.06Z" fill="#FBB665"/>
<path d="M56.6962 1357.06C55.5033 1368.31 56.9838 1380.02 57.2586 1391.62C53.3247 1392.98 49.8598 1396.74 45.146 1392.46C43.3791 1379.02 34.7183 1364.74 40.8682 1351.57C42.8899 1348.96 45.6425 1348.99 48.2124 1348.37C50.965 1348.4 53.6385 1348.85 55.8615 1353.34C56.227 1354.66 56.3307 1355.74 56.6962 1357.06Z" fill="#F7AD52"/>
<path d="M44.5222 1355.6C42.1868 1361.68 41.6168 1367.92 45.2674 1375.59C48.6623 1383.02 49.192 1389.78 46.601 1395.62C44.99 1394.64 43.4802 1394.72 42.684 1397.37C41.4298 1397.68 40.33 1397.16 39.2064 1395.17C37.9043 1392.54 36.6022 1389.91 35.3001 1387.28C29.9614 1379.04 20.9558 1377.6 20.1812 1360.97C23.7176 1356.46 30.0309 1362.69 32.598 1355.37C36.9252 1353.03 39.6228 1343.42 45.859 1350.06C46.1385 1351.76 46.1625 1353.23 45.6752 1354.23C45.1106 1355.65 44.7778 1355.83 44.5222 1355.6Z" fill="#F49A2D"/>
<path d="M93.0317 1288.11C95.1436 1290.03 97.096 1292.79 99.5026 1291.49C97.7409 1305.79 102.444 1328.43 88.0413 1327.79C82.9395 1328.63 79.219 1323.77 76.9043 1314.71C76.1364 1294.15 90.6622 1302.35 93.0317 1288.11Z" fill="#F9BA6E"/>
<path d="M16.4187 1478.74C16.4241 1473.95 14.6222 1470.87 12.4894 1467.97C11.2356 1452.44 0.690556 1445.25 -1.30163 1430.49C3.46992 1416.13 9.68553 1428.97 15.5282 1434.29C17.4837 1436.55 18.7777 1439.16 19.2565 1442.95C16.8826 1450.86 19.4413 1459.43 20.907 1467.47C22.8041 1476.39 21.5285 1480.03 16.4187 1478.74Z" fill="#F8A441"/>
<path d="M-9.33892 1475.94C-14.5566 1471.39 -20.6609 1469.91 -25.3013 1462.44C-30.6426 1459.92 -33.3856 1454.11 -34.0768 1444.95C-32.953 1442.08 -31.2414 1441.86 -29.1069 1443.72C-19.3417 1454.8 -9.64868 1466.25 0.116498 1477.34C-2.64681 1480.06 -6.43129 1472.48 -9.33892 1475.94Z" fill="#FCD4A6"/>
<path d="M77.3998 1059.74C77.9951 1056.6 78.5159 1053.85 77.1667 1050.33C73.5011 1048.41 69.5443 1043.46 72.2101 1038.5C75.8141 1031.64 80.0622 1039.61 83.5726 1046.91C92.4407 1060.88 100.988 1075.03 104.703 1094.93C104.502 1097.51 103.541 1098.02 102.089 1098.09C99.9729 1097.1 98.4005 1094.76 96.9025 1092.03C92.3923 1077.85 85.7599 1067.27 77.3998 1059.74Z" fill="#FBD4A6"/>
<path d="M78.3224 1315.57C78.9658 1324.68 83.8687 1326.77 87.159 1331.18C83.8341 1334.79 89.5033 1348.46 82.5609 1347.84C79.1947 1343.84 75.8286 1339.83 72.3864 1336.23C70.3582 1328.23 64.2802 1319.87 67.862 1311.76C70.4095 1306.02 74.8099 1307.65 78.3224 1315.57Z" fill="#F8BB71"/>
<path d="M98.8446 1096.69C99.2883 1096.06 99.5394 1094.75 99.9832 1094.12C105.869 1098.87 109.62 1106.31 111.152 1116.89C103.115 1125.07 109.252 1145.39 103.702 1155.78C95.1115 1146.57 104.589 1137.64 100.536 1128.39C98.3678 1117.75 96.2829 1106.68 98.8446 1096.69Z" fill="#FAC485"/>
<path d="M85.8369 1047.34C83.9914 1046.14 82.2986 1044.13 80.6294 1043.56C79.0366 1042.59 77.0439 1037.44 76.1038 1040.88C74.6819 1045.31 77.7147 1048.07 79.1784 1051.3C65.5434 1049.88 73.0237 1035.22 71.7946 1026C79.3586 1026.67 83.2441 1035.93 85.8369 1047.34Z" fill="#FACB92"/>
<path d="M36.6195 1398.7C37.6709 1399.65 38.4594 1400.37 39.5108 1401.32C40.6662 1403.36 44.0037 1406.88 41.5283 1408.6C35.5505 1412.58 31.0703 1418.41 30.6614 1430.41C28.6077 1431.52 26.6883 1430.27 24.9278 1428.18C23.693 1426.57 22.8005 1424.77 21.9874 1422.54C21.5167 1420.14 21.5716 1418.21 21.706 1415.85C22.6838 1412.29 24.6336 1410.09 26.6873 1408.99C28.1359 1407.83 29.505 1407.09 30.5074 1405.03C31.5097 1402.97 32.4326 1401.33 33.6978 1399.51C34.4618 1398.72 35.4887 1398.17 36.6195 1398.7Z" fill="#FCCD96"/>
<path d="M15.7239 898.551C16.8449 898.651 17.966 898.752 18.9174 898.248C23.6895 901.62 27.7981 908.467 32.7692 909.304C33.2782 911.116 33.5438 912.711 33.1751 914.642C32.6368 915.968 31.6854 916.472 30.8077 916.59C26.7143 915.635 22.5543 910.55 18.3578 913.12L18.2618 912.13C15.0461 911.057 14.1018 907.046 13.6221 902.094C13.5039 899.727 14.2856 898.619 15.7239 898.551Z" fill="#F8B360"/>
<path d="M21.9558 1423.97C22.633 1425.05 23.6373 1425.97 24.3146 1427.05C24.0579 1431.55 30.6143 1434.19 27.1643 1440.05C24.8289 1438.4 22.3943 1435.72 20.2051 1437.99C18.7747 1436.22 17.0931 1434.22 15.6627 1432.44C15.0144 1428.07 16.3746 1425.52 17.2327 1422.52C17.7872 1421.13 18.517 1420.37 19.7488 1420.07C20.753 1420.98 21.4302 1422.07 21.9558 1423.97Z" fill="#FDA842"/>
<path d="M17.7195 913.402C21.5129 906.936 25.724 911.59 30.1037 916.842C26.7582 916.543 23.4127 916.244 20.0672 915.945L18.93 914.482L17.7195 913.402Z" fill="#F9BD75"/>
<path d="M26.6625 1439.49C25.6879 1435.29 24.7891 1430.69 23.8145 1426.5C25.495 1428.5 27.4265 1430.73 29.1071 1432.72C30.2568 1437.55 31.1555 1442.15 26.6625 1439.49Z" fill="#F8B15C"/>
<path d="M30.0231 914.221C30.5829 912.817 30.8127 911.59 31.3726 910.186C32.3628 909.651 33.6066 909.346 34.9507 910.09C36.3184 912.291 36.7725 914.617 35.8826 916.2C34.2796 920.006 32.051 916.065 30.0231 914.221Z" fill="#F9BD75"/>
<path d="M35.312 909.354C34.0818 909.655 32.9274 909.551 31.773 909.448C32.0003 908.237 32.4784 907.255 32.7057 906.044C33.3821 907.13 34.3091 908.444 35.312 909.354Z" fill="#F9C07C"/>
<path d="M81.0248 1314.2C71.1698 1313.1 71.1698 1313.1 76.034 1326.67C78.4115 1332.89 75.051 1333.48 74.3788 1336.99C73.6559 1354.29 67.5731 1355.52 58.6172 1348.05L58.9533 1346.29C52.7869 1331.05 55.3076 1317.92 58.2148 1306.16C60.2817 1298.77 65.9528 1294.6 61.5591 1281.97C60.7022 1279.66 60.6266 1274.98 62.1809 1275.34C79.1436 1276.63 66.7267 1246.59 72.3812 1235.74C71.7512 1230.56 71.4824 1225.19 73.7089 1222.05C75.154 1221.29 76.515 1220.97 78.0693 1221.33C83.0094 1222.66 87.1681 1226.37 89.6799 1235.28C90.1756 1237.77 90.394 1240.02 90.8897 1242.51C92.6957 1258.48 94.1404 1274.63 95.9464 1290.6C96.4587 1299.78 100.13 1312.79 89.7542 1307.64C85.6206 1305.49 82.7557 1308.57 81.0248 1314.2Z" fill="#F49C32"/>
<path d="M96.4979 1231.79C93.1589 1227.01 89.3062 1224.92 85.5487 1223.8C76.8161 1210.18 66.2044 1203.4 56.8626 1191.48C51.9972 1185.79 46.3758 1182.56 41.3636 1177.64C37.4668 1172.82 33.4967 1168.38 33.1962 1159.59C38.3778 1150.33 45.0338 1158.51 50.6038 1163.49C56.005 1167.86 61.6264 1171.08 63.9013 1174.01C60.0266 1170.55 52.9521 1166.03 46.4649 1158.45C42.9571 1153.07 38.1871 1148.37 39.9488 1139.19C51.691 1137.12 61.7593 1149.7 71.9745 1161.5C77.2872 1175.21 86.4898 1183.42 90.32 1198.94C89.6224 1209.97 97.9735 1219.66 96.4979 1231.79Z" fill="#F79622"/>
<path d="M93.2499 1193.99C86.4652 1183.43 78.2039 1175.92 74.5523 1159.92C73.8855 1155.42 72.2102 1151.46 70.4569 1147.91C67.5446 1140.88 63.4437 1133.74 64.5653 1124.52C68.0939 1112.14 75.1478 1113.19 82.8444 1117.27C87.3782 1130.16 88.5052 1116.08 91.657 1117C100.825 1122.9 96.5215 1134.58 97.9332 1143.17C96.5589 1147.29 95.5206 1151.21 94.1463 1155.33C90.7606 1155.66 84.5108 1151.92 84.4328 1152.34C84.446 1163.56 88.4151 1173.02 93.0566 1182.12C98.244 1188.3 95.9151 1191.05 93.2499 1193.99Z" fill="#F59A2C"/>
<path d="M99.6951 1138.32C95.2779 1130.86 98.696 1119.17 92.5755 1112.62C88.2129 1103.24 85.3956 1093.78 89.7266 1085.38C91.9776 1086.44 93.9914 1088.76 95.0077 1093.14C96.7599 1095.22 98.5121 1097.31 100.264 1099.39C101.981 1109.82 106.027 1120.89 102.14 1130.19C101.325 1132.9 100.51 1135.61 99.6951 1138.32Z" fill="#F6A23D"/>
<path d="M91.6208 1182.19C79.4351 1173.99 80.6541 1156.33 78.3528 1138.36C83.2429 1145.7 87.3684 1152.34 92.5188 1155.1C83.8134 1160.17 89.9484 1172.01 91.6208 1182.19Z" fill="#F7A039"/>
<path d="M-17.9679 945.882C-13.6712 946.264 -9.53625 946.105 -5.23964 946.487C18.7029 973.547 42.7167 1000.26 66.8921 1027.52C67.9854 1028.84 69.8678 1031.64 68.884 1032.44C66.9165 1034.02 65.0862 1029.64 63.2229 1028.07C51.8296 1019.68 40.6501 1010.26 29.6843 999.805C12.6821 985.477 -4.24886 970.804 -21.9446 961.155C-38.7608 953.866 -54.0476 936.53 -70.7213 928.552C-72.19 927.719 -73.4258 927.082 -74.8232 925.905C-80.4321 919.963 -86.8631 915.353 -89.7206 904.038C-89.1418 891.975 -83.2288 897.768 -78.9131 899.381C-69.5116 902.85 -59.9624 910.898 -50.6566 908.213C-46.9492 910.123 -45.3518 914.303 -44.3437 920.011C-44.2238 932.663 -37.2418 933.284 -32.9782 936.472C-28.32 940.397 -23.4099 945.75 -17.9679 945.882Z" fill="#FC9D27"/>
<path d="M-26.3695 1422.21C-27.9727 1415.92 -26.9804 1413.7 -23.1519 1415.77C-20.5996 1417.15 -17.9742 1418.15 -15.4219 1419.53C-9.17889 1419.32 -3.15491 1420.25 0.532837 1433.25C5.76717 1444.09 14.9112 1452.21 13.121 1468.76C2.99578 1443.85 -14.0622 1440.21 -26.3695 1422.21Z" fill="#FCA53D"/>
<path d="M46.8204 1026.54C46.6763 1027.26 46.5321 1027.99 46.4601 1028.35C54.5815 1034.99 56.0838 1051.21 62.9905 1059.77C63.1037 1062 62.5066 1063.61 61.436 1064.81C48.5177 1059.96 43.577 1052.68 39.6867 1033.11C39.522 1032.54 39.5941 1032.18 38.3383 1031.51C27.1287 1026.44 15.8884 1014.54 4.4007 1016.47C-4.8223 1013.98 -13.7775 1008.75 -22.6092 1001.49C-26.8912 996.49 -33.5921 991.086 -32.1713 982.526C-30.699 972.307 -23.4935 975.168 -17.7806 977.156C-14.6514 978.174 -11.7899 981.941 -8.66072 982.959C-3.40078 985.831 1.85918 988.703 7.19119 991.212C18.5244 994.256 29.147 1006.48 40.1403 1012.63C44.0003 1015.57 47.1707 1019.18 46.8204 1026.54Z" fill="#F89620"/>
<path d="M56.8468 1059.64C57.3885 1058.29 57.611 1057.12 58.1527 1055.78C64.804 1053.99 68.9335 1065.48 74.6431 1070.16C82.1487 1071.43 88.5192 1077.16 92.1296 1091.39C93.1481 1099.62 94.1666 1107.85 94.9401 1115.86C93.2409 1120.28 92.5893 1129.75 87.4796 1117.38C78.6496 1098.92 63.1485 1095.94 56.092 1072.67C55.0443 1067.62 54.5609 1062.61 56.8468 1059.64Z" fill="#F69621"/>
<path d="M47.5532 1020.15C38.0812 1003.56 25.3459 1004.2 14.5894 993.863C12.4886 992.084 10.2452 991 8.30651 989.765C5.84897 989.724 3.58618 987.399 3.83294 983.528C4.00835 980.005 6.4465 978.806 8.68997 979.89C15.187 982.945 21.3272 987.738 27.5388 992.184C39.9619 1001.07 51.1332 1013.39 62.3952 1026.61C56.9092 1029.3 52.3776 1019.34 47.5532 1020.15Z" fill="#EB8913"/>
<path d="M92.7382 1085.67C86.9163 1079.14 81.1677 1072.23 75.4191 1065.33C75.9539 1064.02 76.4886 1062.71 77.0966 1061.02C90.2213 1057.54 92.9221 1077.35 97.8351 1091.55C96.2167 1089.66 94.5983 1087.77 92.7382 1085.67Z" fill="#F8A849"/>
<path d="M14.9823 908.165C16.3166 911.619 17.651 915.073 18.6684 918.694C14.3491 923.408 9.40307 923.947 3.94834 922.674C1.39769 918.131 -1.37401 914.745 -4.86048 916.591C-9.41586 916.576 -14.1923 917.718 -18.5417 910.66C-21.9402 903.098 -28.2428 898.808 -28.1033 887.64C-24.6469 874.022 -17.3634 889.581 -12.6091 887.063C-11.415 886.778 -10.1472 886.106 -8.7098 886.039C-6.07831 885.686 -3.84462 890.397 -1.11726 891.033C1.46272 892.441 4.26381 892.691 6.93967 895.088C9.95466 898.692 12.8222 903.068 14.9823 908.165Z" fill="#F19423"/>
<path d="M15.6487 902.705C12.37 898.843 8.84642 894.761 5.49358 891.289C4.6177 886.848 5.62594 884.559 7.78402 883.761C10.7664 889.183 13.8228 894.214 17.0499 899.856C16.5828 900.806 16.1158 901.756 15.6487 902.705Z" fill="#F9BD75"/>
<path d="M8.50385 885.185C7.72326 887.78 6.9427 890.375 6.1621 892.97C4.00642 891.957 1.92642 890.541 -0.229269 889.528C-1.07994 887.812 -1.60431 885.921 -1.47622 883.678C1.53578 881.692 5.11888 884.473 8.50385 885.185Z" fill="#FBD8AE"/>
<path d="M-1.24413 885.404C-0.743937 887.159 -0.316498 889.288 -0.055743 890.832C-2.37744 888.344 -4.93851 885.644 -7.33291 883.53C-5.40863 880.851 -3.32638 883.128 -1.24413 885.404Z" fill="#FDECD7"/>
<path d="M77.7669 1246.68C78.5416 1252.29 86.6051 1259.62 77.853 1262.46C74.2845 1263.63 74.3274 1271.52 77.576 1276.93C80.1228 1281.21 85.0163 1282.71 82.1438 1289.91C80.2632 1295.07 76.9304 1294.99 73.2889 1291.68C71.7282 1290.26 69.9075 1288.6 67.8266 1286.71C68.2327 1295.91 72.2373 1300.54 75.2744 1308.69C59.6753 1310.71 63.8145 1334.1 63.3504 1352.81C60.9308 1351.1 58.5899 1348.98 56.4004 1350.91C53.9266 1351.12 52.1057 1349.46 51.1738 1344.69C45.8631 1343.79 44.3642 1356.66 38.043 1351.4C37.5228 1350.93 36.7424 1350.22 36.3008 1349.33C33.3367 1345.65 30.8684 1340.96 30.1723 1334.92C29.9721 1327.87 30.6308 1321.11 32.8502 1315.77C35.8499 1311.13 39.7572 1309.78 44.3362 1312.96C45.3767 1313.91 46.52 1315.93 47.8749 1315.19C46.0541 1313.54 44.3905 1311.05 43.4829 1307.77C43.2527 1304.12 43.8029 1301.19 45.212 1298.54C46.7296 1292.07 53.0452 1302.23 53.7582 1293.55C46.1046 1269.42 31.836 1269.21 21.28 1255.69C20.0581 1254.09 19.1749 1252.31 18.1101 1249.87C12.1875 1237.62 24.0608 1237.61 20.6363 1226.65C27.9119 1217.07 36.2654 1221.23 45.6836 1227.82C53.7227 1233.66 61.5447 1247.15 70.4539 1243.47C73.085 1242.42 75.5831 1243.71 77.7669 1246.68Z" fill="#F49522"/>
<path d="M46.3328 1347.5C47.967 1349.42 49.6012 1351.35 51.2354 1353.27C49.1063 1355.44 47.1541 1353.69 45.0319 1351.33C45.3275 1349.78 45.8671 1348.45 46.3328 1347.5Z" fill="#F49B2F"/>
<path d="M33.8819 1363.63C34.1386 1384.5 27.535 1370.08 22.9293 1365.96C20.3509 1369.04 17.8681 1373.11 13.9602 1372.76C5.22619 1369.45 -1.92101 1360.82 -7.70182 1348.02C-4.46937 1331.16 4.12473 1345.57 10.1703 1345.14C18.0521 1349.93 26.6687 1350.9 33.8819 1363.63Z" fill="#F39625"/>
<path d="M12.9402 1367.22C15.1773 1364.59 17.6103 1364 20.4871 1365.67C22.7752 1381.24 32.5302 1380.29 37.1823 1391.02C38.1449 1395.14 36.1557 1398 37.4411 1401.95C36.6685 1404.51 35.8957 1407.07 34.8002 1409.8C22.7972 1402.66 17.5574 1385.82 12.9402 1367.22Z" fill="#F59A2C"/>
<path d="M36.4813 1400.22C34.4734 1395.35 35.1518 1391.83 36.1946 1388.12C36.6095 1391.06 37.1093 1393.57 37.5242 1396.51C37.2698 1397.83 37.0154 1399.15 36.4813 1400.22Z" fill="#F8A94A"/>
<path d="M2.99941 1429C-2.20797 1424.47 -7.4874 1420.3 -12.6948 1415.77C-11.8096 1412.71 -11.2331 1409.81 -12.9311 1405.78C-22.5637 1396.98 -32.9889 1392.17 -41.448 1378.85C-44.0412 1372.34 -50.0103 1368.85 -49.5364 1359.47C-46.6751 1353.45 -42.5071 1356.22 -38.864 1360.24C-20.2679 1379.82 -2.62898 1402.82 16.4921 1421.15C18.149 1422.59 19.1369 1426 19.888 1429.21C22.0799 1434.95 18.4058 1433.88 17.5926 1436.58C12.8071 1434.12 8.15568 1425.39 2.99941 1429Z" fill="#EB9630"/>
<path d="M13.7634 1372.28C20.7269 1385.39 27.9293 1398.71 34.8202 1412.19C33.6466 1412.46 32.4004 1413.11 31.2267 1413.38C27.9023 1411.76 24.7141 1413.74 21.3685 1410.8C14.5925 1399.6 5.06708 1398.18 -1.10692 1385.33C-2.34415 1381.62 3.88706 1378.4 -2.85553 1374.2C-9.12017 1370.42 -14.5863 1362.56 -19.4293 1354.37C-22.1729 1349.77 -25.7787 1345.29 -22.8204 1338.74C-17.554 1339.02 -13.1073 1342.07 -9.36537 1350.16C-1.47934 1357.11 4.71584 1371.28 13.7634 1372.28Z" fill="#F79F37"/>
<path d="M20.2156 1408.31C23.1807 1409.59 26.4469 1409.27 29.0587 1413.98C27.3618 1415.25 25.5897 1416.92 24.1419 1418.42C22.92 1418.72 21.5996 1417.99 20.3545 1416.86C18.9879 1413.28 18.3682 1410.38 20.2156 1408.31Z" fill="#FAB96B"/>
<path d="M21.2745 1416.13C22.271 1417.03 22.9431 1418.11 23.9396 1419.01C23.6383 1420.61 23.1632 1421.59 22.9372 1422.79C21.9407 1421.88 21.0196 1420.58 20.0231 1419.68C19.9246 1418.65 19.8261 1417.63 19.7276 1416.6C20.3012 1416.65 20.8748 1416.7 21.2745 1416.13Z" fill="#F8B15C"/>
<path d="M21.9512 1425.67C2.41629 1410.44 -15.3899 1388.18 -33.6946 1368.32C-37.7423 1364.11 -41.8662 1354.98 -46.3313 1363.35C-58.2555 1354.93 -69.1111 1341.34 -80.5367 1330.52C-95.8484 1316.01 -111.516 1303.23 -126.828 1288.73C-133.132 1282.21 -139.579 1276.38 -144.33 1266.32C-145.209 1263.96 -145.551 1261.65 -144.82 1259.44C-136.849 1249.98 -128.121 1264.6 -119.889 1267.09C-114.373 1272.13 -108.734 1275.26 -103.147 1279.97C-95.1421 1287.51 -88.011 1297.96 -79.3458 1303.63C-75.7828 1306.23 -72.5047 1310.2 -70.0484 1315.5C-55.9999 1337.43 -38.8641 1351.04 -23.0488 1368.39C-10.8155 1381.92 0.401417 1399.04 14.2401 1407.46C18.1071 1409.9 21.2619 1415.79 23.2004 1422.27C22.7539 1423.11 22.2362 1424.29 21.9512 1425.67Z" fill="#FCA53D"/>
<path d="M80.2511 1237.51C78.1712 1239.58 76.2667 1237.91 74.1964 1235.66C62.1709 1237.21 52.1396 1221.5 41.3749 1213.79C37.3068 1208.93 32.6177 1204.39 32.8539 1194.66C38.8553 1188.26 45.6565 1197.68 52.2597 1199.58C62.3101 1206.66 72.1225 1213.54 80.2492 1227.58C80.1464 1230.94 80.3539 1234.15 80.2511 1237.51Z" fill="#F79622"/>
<path d="M80.7644 1223.16C71.0234 1215.16 61.5183 1207.37 51.7055 1199.73C50.8765 1191.43 54.1377 1191.72 57.7065 1191.85C65.2734 1199.66 73.0042 1208.03 80.7148 1215.11C84.724 1218.58 84.0772 1221.81 83.2867 1225.76C82.3433 1224.95 81.4719 1223.77 80.7644 1223.16Z" fill="#EC8B17"/>
<path d="M70.3472 1142.2C71.0335 1150.37 76.1732 1154.5 77.9491 1161.42C71.6525 1169.16 67.0625 1154.84 61.462 1151.64C56.344 1148.86 51.3586 1139.53 45.9617 1144.07C46.8161 1152.84 51.5247 1154.81 54.851 1159.54C50.7989 1168.84 45.938 1157.4 41.4707 1155.65C28.5748 1137.5 14.3105 1127.92 -0.341351 1118.88C-2.90034 1117.5 -3.09806 1119.99 -4.26088 1121.62C-12.9187 1125.49 -22.1382 1119.06 -31.0511 1116.91C-33.1276 1115.95 -34.9114 1113.48 -35.8468 1109.53C-35.7875 1103.36 -33.6518 1098.14 -30.9464 1098.77C-22.8304 1100.65 -30.814 1092.21 -29.8193 1089.99C-27.9247 1084.55 -25.3222 1088.65 -22.9096 1090.8C-33.6202 1080.38 -45.4797 1077.38 -55.605 1063.93C-58.1561 1058.1 -56.744 1052.24 -57.3136 1046.39C-54.454 1041.82 -51.3908 1044.99 -48.0863 1048.38C-44.5405 1051.98 -46.4409 1047.17 -46.6307 1045.22C-44.5167 1038.65 -39.0843 1041.26 -36.3928 1036.09C-28.3421 1033.92 -20.8411 1041.93 -13.4351 1048.96C-5.7739 1062.01 5.13636 1055.26 10.1654 1067.29C14.2155 1072.68 12.6294 1067.71 12.1173 1070.36C11.9709 1071.12 11.8028 1070.53 11.079 1069.89C8.88586 1066.6 5.99069 1064.02 6.77379 1058.49C13.5529 1051.18 18.1212 1064.14 23.8383 1069.67C25.1238 1080.6 30.6591 1079.75 34.5925 1082.8C36.7639 1084.73 39.0815 1085.91 41.1066 1088.6C46.4579 1096.03 56.2846 1100.77 53.5773 1114.82C50.6505 1130.01 42.9023 1111.55 37.4403 1112.02C29.0909 1105.48 21.934 1094.22 13.5115 1088.06C22.899 1095.08 30.9696 1108.94 40.9643 1114.27C50.783 1123.45 62.5258 1124.12 70.3472 1142.2Z" fill="#F6941D"/>
<path d="M59.0312 1196.34C57.1077 1199.01 55.1841 1201.69 52.9486 1204.53C46.9775 1204.94 41.4301 1197.42 35.8012 1194.64C27.6246 1194.86 21.6499 1185.21 15.6025 1175.94C11.1791 1169.85 17.7618 1163.41 13.0991 1157.11C13.9199 1154.33 15.4073 1153.9 17.3007 1154.26C26.7591 1160.42 32.0407 1180.82 42.9227 1182.56C48.1882 1187.2 54.1079 1188.49 59.0312 1196.34Z" fill="#F28F19"/>
<path d="M44.894 1181.31C33.3073 1185.99 27.1715 1166.95 18.9547 1155.73C14.0735 1146.14 4.61051 1145.68 2.47825 1130.62C13.701 1127.81 23.1896 1139.71 32.5325 1152.37C34.5664 1156.36 35.9023 1161.06 36.0607 1166.03C36.9084 1174.68 41.901 1176.46 44.894 1181.31Z" fill="#F6941E"/>
<path d="M35.9419 1160.49C33.8946 1158.31 32.2263 1155.61 32.2378 1151.42C31.9936 1145.76 34.9626 1147.48 36.9697 1147.11C41.4433 1150.97 44.9121 1159.83 50.3705 1157.41C56.6445 1167.43 65.7065 1167.69 72.6956 1183.78C59.1714 1175.48 47.439 1167.88 35.9419 1160.49Z" fill="#ED8B16"/>
<path d="M43.5333 1137.87C40.8792 1134.81 37.778 1132.6 35.2088 1125.16C45.0825 1129.03 53.078 1135.37 61.0214 1143.29C65.307 1147.72 69.1127 1155.8 74.4485 1153.81C76.1184 1157.66 75.548 1160.42 74.6733 1163.34C64.7558 1151.72 53.9307 1145.83 43.5333 1137.87Z" fill="#F18F1A"/>
<path d="M70.7521 1129.32C60.8473 1121 51.1823 1112.89 41.2047 1104.94C40.5366 1102.59 39.4832 1100.78 39.9928 1098.16C41.2432 1097.51 42.4723 1095.52 43.4315 1096.37C46.3091 1098.91 49.4095 1110.44 52.0945 1100.96C54.6339 1092.22 48.0564 1089.92 45.2301 1085.66C39.5048 1077.52 32.9786 1073.51 26.0671 1070.03C20.4274 1067.24 21.7805 1063.16 24.958 1059.82C36.0876 1056.05 46.1422 1073.73 56.7536 1076.96C61.948 1086.39 66.7355 1095.02 74.1995 1098.54C80.3188 1101.76 84.7937 1110.55 86.4766 1122.14C81.2351 1124.53 73.8954 1118.92 70.7521 1129.32Z" fill="#F3911B"/>
<path d="M27.9291 996.658C21.2501 996.798 15.2812 987.807 8.81819 986.863C3.9889 986.065 5.92009 990.282 8.46791 994.187C3.58705 995.039 -1.1391 990.94 -5.93723 987.202C-11.2391 985.994 -14.8654 977.763 -19.7355 974.387C-22.8483 969.144 -23.4024 963.578 -23.1038 957.904C-5.12286 965.024 11.2232 981.745 27.9291 996.658Z" fill="#F3901A"/>
<path d="M60.5908 1077.24C55.6221 1081.15 50.5683 1079.75 45.5022 1072.66C40.1969 1065.36 33.9895 1065.57 28.6327 1059.97C23.3699 1055.33 18.0344 1051.06 12.7715 1046.42C-1.07847 1045.56 -11.3348 1033.45 -14.8662 1014.17C-2.15203 1007.91 8.01387 1029.11 19.7445 1035.09C22.5939 1036.29 25.3918 1039.2 26.276 1040.41C30.2489 1043.05 28.5106 1037.58 29.0316 1040.66C29.1255 1041.62 28.5744 1041.57 27.8567 1040.94C19.4628 1032.22 8.55603 1033.52 2.91408 1015C15.0772 1008.69 26.5933 1025.84 38.3754 1030.12C39.4049 1030.59 39.7381 1031.76 40.2378 1033.51C44.9016 1049.85 51.0398 1060.07 60.5874 1067.18C60.5572 1070.22 60.4544 1073.62 60.5908 1077.24Z" fill="#F7941E"/>
<path d="M3.54002 1019.43C12.0625 1031.7 23.4163 1032.71 31.3661 1047.8C15.4524 1046.21 2.26371 1021.66 -13.2723 1019.56C-17.1605 1022.45 -21.1599 1023.17 -25.1348 1015.62C-28.6406 1008.48 -35.9876 1012.14 -37.9505 1000.1C-32.3489 998.257 -26.8039 1007.56 -21.5998 1004.97C-13.2676 1010.03 -4.86377 1014.73 3.54002 1019.43Z" fill="#EF8C16"/>
<path d="M41.3126 1214.84C51.1803 1226.89 61.9352 1235.85 73.0306 1241.68C71.5033 1243.78 77.4074 1251.94 71.9166 1250.15C67.9946 1248.86 64.1962 1245.55 60.4701 1241.86C49.457 1231.39 38.4646 1222.21 27.0089 1228.08C18.8967 1228.29 12.8274 1219.55 7.57319 1208.1C7.55092 1187.06 16.479 1194 24.3438 1197.87C30.6398 1201.22 34.7278 1212.94 41.3126 1214.84Z" fill="#F18F19"/>
<path d="M32.9006 1328.49C33.3181 1334.96 32.9462 1341.17 30.6623 1345.7C26.5181 1346.84 23.1511 1342.57 19.7116 1338.66C5.27592 1315.05 -13.7789 1302.18 -26.8654 1274.53C-23.4412 1262.72 -18.244 1273.4 -13.9424 1277.19C-7.65636 1282.29 -2.53193 1293.35 4.60409 1292.66C11.0444 1292.67 16.0328 1300.11 21.0211 1307.56C25.6767 1313.84 31.2458 1318.31 32.9006 1328.49Z" fill="#F9A138"/>
<path d="M19.6679 1304.96C15.6946 1299.8 13.1316 1290.33 7.45953 1290.94C-1.05365 1289.07 -7.60039 1278.69 -13.9824 1268.87C-15.0423 1256.02 -9.33952 1262.26 -6.28221 1263.65C1.87062 1267.33 9.82773 1273.4 17.6923 1278.54C27.2552 1287.71 38.3317 1289.25 46.0723 1306.21C45.3311 1308.55 44.5899 1310.88 43.8486 1313.22C35.8601 1319.9 27.7386 1303.47 19.6679 1304.96Z" fill="#F79520"/>
<path d="M46.6499 1299.89C36.8374 1292.26 26.9013 1286.62 17.5918 1276.46C14.095 1275.97 12.424 1273.26 13.0302 1267.46C14.764 1264.33 17.4815 1264.57 20.3631 1265.37C32.7808 1271.05 44.4081 1280.68 55.1011 1294.98C56.844 1297.33 60.0534 1299.26 59.8783 1302.9C59.6314 1306.9 56.6578 1305.17 54.4635 1303.7C51.9615 1302.38 49.1518 1301.21 46.6499 1299.89Z" fill="#ED8B15"/>
<path d="M56.0215 1292.77C43.6866 1287.58 32.8991 1271.72 20.8016 1266.73C20.0064 1260.88 21.0383 1257.07 24.2998 1256.05C35.0043 1266.69 50.4971 1264.35 56.0215 1292.77Z" fill="#F79620"/>
<path d="M25.3249 1261.53C24.0402 1265.26 23.0693 1268.83 21.7846 1272.56C19.6399 1271.98 17.8089 1271.24 15.6642 1270.67C5.9982 1269.61 -2.92932 1260.36 -12.149 1252.61C-15.7812 1248.06 -17.9177 1243.06 -16.0488 1236.31C-11.1887 1228.67 -4.59516 1235.41 1.35751 1236.71C7.65901 1244.96 12.5298 1257.7 21.0653 1257.31C21.5467 1257.74 22.3418 1258 22.8232 1258.43C23.713 1259.66 24.6758 1260.52 25.3249 1261.53Z" fill="#F49B31"/>
<path d="M6.64401 1211.07C13.3949 1219.45 19.9745 1227.22 26.7997 1235.2C28.5416 1238.15 31.9058 1241.64 28.0666 1243.69C24.8673 1245.4 24.6895 1249.37 24.683 1253.95C17.0111 1253.46 11.8599 1244.23 7.00597 1233.43C4.25908 1228.2 1.66089 1222.19 0.907914 1215.54C1.55424 1210.62 2.27484 1205.3 6.64401 1211.07Z" fill="#F99721"/>
<path d="M18.7048 1337.49C21.8561 1341.04 25.2427 1344.8 28.3939 1348.35C31.0027 1351.85 34.2057 1353.77 34.5414 1360.34C27.0507 1356.41 19.2528 1352.62 11.7621 1348.68C4.98039 1335.72 -6.96477 1338.84 -12.6501 1321.79C-8.18414 1310.56 -1.76973 1319.86 3.71484 1324.16C8.42164 1328.21 13.2403 1334.46 18.7048 1337.49Z" fill="#EA8D1D"/>
<path d="M18.0204 1304.61C25.9289 1294.2 34.2074 1311.9 42.378 1313C43.9752 1314.84 45.5724 1316.68 50.364 1322.19C42.5979 1321.88 37.0604 1318.74 32.7997 1321.94C27.8421 1315.85 23.0505 1310.33 18.0204 1304.61Z" fill="#F08F19"/>
<path d="M-13.0179 1324.51C-5.56643 1336.82 6.84235 1333.73 11.7316 1353.45C5.72428 1352.53 -0.484587 1343.96 -6.66756 1346.84C-11.5694 1346.02 -16.0556 1341.61 -20.3234 1336.08C-23.7855 1336.53 -26.2794 1333.45 -28.3362 1328.11C-29.4546 1322.28 -28.2677 1317.61 -26.4339 1313.96C-25.277 1312.34 -23.953 1311.31 -22.5347 1311.25C-17.8514 1313.19 -14.6377 1316.92 -13.0179 1324.51Z" fill="#EC8B18"/>
<path d="M22.7112 1420.84C-1.1024 1400.12 -22.946 1372.41 -46.0445 1348.17C-54.4226 1339.38 -62.0661 1328.32 -71.3935 1322.84C-76.0572 1320.1 -72.8056 1316.27 -71.2253 1313.91C-70.0026 1313.3 -68.6172 1313.25 -67.1407 1314.09C-50.0535 1323.31 -37.55 1349.65 -20.983 1360.06C-13.756 1369.12 -4.73424 1374.75 -0.270965 1389.28C8.02865 1393.06 16.3478 1398.09 22.6255 1410.46C23.042 1412.46 23.4585 1414.47 23.8749 1416.47C23.4459 1418.58 22.9972 1419.44 22.7112 1420.84Z" fill="#FDA842"/>
<path d="M0.74186 1388.5C-7.56416 1378.9 -15.7972 1368.93 -24.1032 1359.33C-30.1683 1351.28 -32.0277 1338.99 -35.676 1328.66C-33.1131 1325.61 -31.04 1326.57 -29.362 1332.49C-26.8585 1335.6 -24.282 1338.34 -22.0194 1341.23C-15.3723 1360.88 -3.24759 1366.78 6.78786 1380.57C4.77975 1383.66 2.91777 1386 0.74186 1388.5Z" fill="#F49A30"/>
<path d="M9.86588 1208.29C7.25401 1207.3 5.95433 1209.65 5.06071 1212.8C3.95781 1212.7 2.68823 1212.02 1.63673 1210.22C-0.726965 1205.07 -2.39378 1199.22 -4.99686 1193.86C-11.5152 1179.79 -19.312 1169.41 -28.8959 1165.33C-30.0928 1164.27 -31.217 1162.84 -32.2685 1161.04C-33.5807 1157.69 -34.3414 1154.39 -33.9993 1151.19C-33.6358 1149.33 -32.7935 1147.88 -31.4725 1146.86C-25.0644 1144.21 -18.2891 1149.75 -11.6291 1153C-2.88734 1158.53 6.2391 1163.53 13.3816 1177.27C20.6782 1185.9 28.2143 1194.74 35.511 1203.37C36.3569 1211.99 41.0292 1213.93 44.3291 1218.59C37.4936 1219.12 31.518 1209.47 25.2427 1205.68C18.322 1200.88 13.4316 1200.07 9.86588 1208.29Z" fill="#F7951F"/>
<path d="M-27.0329 1018.65C-22.8988 1021.86 -18.8705 1018.44 -14.9541 1022.76C-8.31289 1040.37 2.30213 1046.23 12.1702 1054.49C12.0372 1060.9 16.3891 1062.99 18.7903 1070.77C11.7892 1065.04 6.30327 1055.85 -0.289527 1060.94C-4.5567 1064.15 -7.21806 1054.84 -9.90964 1048.54C-13.07 1037.48 -21.8433 1043.7 -24.7133 1031.15C-25.3272 1027.12 -26.18 1022.89 -27.0329 1018.65Z" fill="#F3911B"/>
<path d="M3.9429 1137.49C8.57374 1142.44 13.3707 1147.97 18.0741 1152.54C21.1785 1155.27 20.5981 1158.24 19.9451 1161.59C18.7723 1161.86 17.5995 1162.13 16.4266 1162.41C6.71142 1163.43 -1.82479 1149.82 -11.0744 1145.6C-18.0932 1138.55 -27.9113 1142.96 -32.5873 1125.35C-24.5134 1119.84 -15.6567 1128.94 -6.92697 1130.1C-3.16965 1129.49 1.11673 1127.61 3.9429 1137.49Z" fill="#FA9721"/>
<path d="M4.73848 1131.63C1.15484 1128.99 -2.50031 1126.7 -6.08395 1124.05C-6.07133 1119.94 -8.03564 1117.44 -10.3448 1112.59C6.92281 1123.6 23.7347 1130.11 38.2978 1150.36C36.6266 1151.82 35.261 1153.13 33.5898 1154.59C25.0625 1141.13 15.0337 1135.05 4.73848 1131.63Z" fill="#F18E18"/>
<path d="M39.6232 1104.8C40.0412 1106.82 40.4593 1108.85 40.8056 1111.23C29.1611 1107.48 20.9442 1090.85 10.896 1080.56C21.6727 1083.15 30.423 1094.41 39.6232 1104.8Z" fill="#F08D17"/>
<path d="M-11.491 1141.21C-2.2784 1146.21 6.64703 1152.65 14.9984 1161.94C16.7381 1164.28 18.4779 1166.62 20.2176 1168.95C18.6099 1170.08 16.8386 1170.65 15.2309 1171.78C5.80305 1167.85 -2.26122 1157.13 -11.2585 1151.05C-16.1303 1146.44 -14.2355 1143.88 -11.491 1141.21Z" fill="#EC8A13"/>
<path d="M-13.117 1271.37C-5.941 1279.66 1.47054 1288.14 8.64658 1296.43C5.13196 1304.31 1.3759 1296.87 -2.62704 1293.42C-9.92653 1287.13 -15.4831 1273.53 -24.0747 1273.67C-24.6892 1273.98 -25.2319 1273.93 -25.8464 1274.24C-41.2954 1261.76 -57.7895 1251.74 -69.2616 1226.32C-64.9487 1219.97 -58.3757 1224.38 -53.0605 1222.67C-45.4223 1225.9 -40.3051 1236.18 -34.829 1244.68C-30.714 1250.33 -26.3836 1254.9 -21.4589 1257.89C-17.6197 1260.78 -14.4668 1264.33 -13.117 1271.37Z" fill="#FEA941"/>
<path d="M-11.1581 1320.09C-14.346 1316.43 -17.7719 1312.56 -20.9598 1308.91C-22.2757 1299.98 -26.4367 1294.17 -29.8321 1287.31C-33.6313 1279.66 -32.121 1276.23 -27.1849 1276.67C-10.8418 1295.75 6.02889 1313.56 20.5724 1337.54C9.47935 1338.62 0.00724838 1318.65 -11.1581 1320.09Z" fill="#F19A33"/>
<path d="M-13.1297 1266.88C-16.2769 1263.34 -19.6591 1259.6 -22.8062 1256.06C-26.0768 1254.5 -30.4308 1252.85 -29.232 1245.53C-28.2284 1240.55 -24.6511 1241.96 -21.2889 1244.43C-17.9267 1246.9 -16.1098 1254.3 -12.1741 1253.93C-2.97587 1258.91 5.93553 1265.32 14.2735 1274.57C14.2617 1278.73 15.9269 1281.42 17.9706 1283.59C7.42202 1281.2 -2.50947 1268.91 -13.1297 1266.88Z" fill="#EF8E1A"/>
<path d="M-11.7073 1236.45C-14.8544 1232.91 -18.2366 1229.17 -21.3121 1225.27C-30.8053 1216.28 -43.0309 1215.37 -49.2182 1195.45C-48.7163 1192.96 -48.1229 1191.39 -46.5176 1190.26C-39.0961 1190.38 -33.5187 1201.01 -27.101 1206.11C-17.7911 1213.28 -8.78797 1220.59 0.163468 1229.54C2.06375 1232.42 3.65732 1235.46 4.25898 1239.32C-1.13057 1245.53 -6.75967 1236.52 -11.7073 1236.45Z" fill="#EF972E"/>
<path d="M2.34569 1236.04C0.725956 1234.15 -0.893714 1232.26 -2.75531 1230.15C-0.218489 1219.9 3.70929 1231.89 7.19827 1231.43C12.2698 1240.42 17.268 1249.79 23.4832 1255.78C12.3563 1260.61 9.45392 1258.02 2.34569 1236.04Z" fill="#FBA33A"/>
<path d="M9.40994 1232.53C6.51933 1235.92 2.83226 1228.11 -0.293993 1231.3C-9.29998 1225.21 -17.3723 1214.46 -26.8092 1210.51C-32.7697 1196.12 -43.5082 1193.16 -50.2991 1180.15C-50.575 1177.39 -50.2159 1175.59 -49.0781 1174.05C-46.8541 1172.61 -44.8455 1172.24 -42.5811 1173.35C-27.5719 1186.73 -11.8446 1196.52 1.04146 1217.74C1.9122 1218.91 2.61913 1219.52 3.48987 1220.69C5.48718 1224.52 7.41264 1228.7 9.40994 1232.53Z" fill="#FEAA41"/>
<path d="M-42.5864 1158.55C-39.0513 1161.6 -35.9987 1168.44 -31.6937 1166.27C-31.0585 1167.24 -30.1158 1168.06 -29.4806 1169.02C-20.1973 1177.88 -11.6523 1189.05 -2.7281 1199.7C0.899048 1203.67 2.37361 1208.73 2.23888 1214.92C-13.4594 1202.21 -29.0139 1188.78 -43.8502 1171.76C-46.1957 1165.53 -46.8915 1160.72 -42.5864 1158.55Z" fill="#ED952D"/>
<path d="M-2.05622 1197.56C-12.9386 1193.21 -22.04 1182.61 -29.122 1165.99C-16.8209 1165.96 -8.60994 1179.67 -2.05622 1197.56Z" fill="#FAA239"/>
</g>
</svg>
