<svg width="286" height="912" viewBox="0 0 286 912" fill="none" xmlns="http://www.w3.org/2000/svg">
<g opacity="0.6">
<path d="M240.277 345.144C241.514 340.358 243.08 335.786 246.19 331.684C247.871 312.285 246.402 310.533 230.962 309.293C228.786 310.275 226.991 311.771 225.676 314.377C223.557 322.581 216.475 329.161 216.557 338.263C221.166 341.254 219.193 343.433 215.222 345.911C208.798 352.919 207.968 360.097 212.783 367.746C213.848 370.566 215.191 373.301 216.535 376.036C217.447 377.959 218.917 379.711 220.841 380.694C228.964 378.515 224.224 369.584 228.498 365.44C232.593 358.518 237.727 352.536 240.277 345.144Z" fill="#F8AE55"/>
<path d="M-21.5422 564.614C-21.1196 565.408 -20.697 566.202 -20.3244 566.704C-8.86318 566.583 2.24466 561.028 13.8057 561.492C15.0467 562.035 16.5606 562.496 17.8016 563.039C19.2654 563.207 20.6793 563.082 22.2662 562.289C30.0006 557.151 35.3028 551.218 27.0078 542.982C17.1758 535.832 5.37256 540.676 -5.81582 540.714C-11.5714 540.628 -15.5097 546.144 -16.3705 552.872C-16.3167 556.55 -18.4723 559.057 -20.6777 561.271C-21.1234 562.023 -21.5192 563.068 -21.5422 564.614Z" fill="#F89C2E"/>
<path d="M118.703 477.384C129.885 466.445 142.948 459.777 156.631 455.039C162.797 452.875 169.183 450.341 173.198 443.987C173.388 441.812 172.328 440.62 170.286 440.329C141.819 451.649 112.581 460.178 87.2144 481.148C94.9799 488.178 103.067 487.248 118.703 477.384Z" fill="#FB9F30"/>
<path d="M173.638 149.89C168.477 148.106 162.731 149.548 157.478 150.535C145.665 153.212 133.331 154.523 123.358 164.566C120.16 169.196 118.96 173.828 122.842 178.134C139.815 177.241 156.14 172.583 170.203 159.773C172.566 156.921 175.842 154.401 173.638 149.89Z" fill="#EC9835"/>
<path d="M228.042 311.695C242.667 309.124 242.428 321.542 245.019 331.513C257.006 322.151 246.218 310.887 249.83 300.92C240.815 298.294 244.759 288.542 242.453 281.966C240.736 277.109 237.625 279.643 234.869 280.802C229.47 290.682 222.844 300.305 228.042 311.695Z" fill="#FACE99"/>
<path d="M59.511 79.9512C46.2801 77.8646 32.4164 82.0922 19.6017 77.4301C14.3593 76.8863 11.7461 81.6619 8.23986 84.5675C6.0206 88.3049 4.39497 92.1673 5.41547 96.4471C15.0679 102.686 25.2256 100.2 35.7774 96.6765C41.6473 87.541 53.691 89.3775 59.511 79.9512Z" fill="#FEE9D0"/>
<path d="M59.4866 80.9704C54.5707 82.4763 49.8547 85.1545 45.012 85.4044C38.1577 85.6539 37.0953 91.2217 34.7407 95.9518C37.8516 102.4 42.1782 107.55 50.025 106.38C58.095 104.833 66.3149 104.165 73.1624 97.1338C76.2863 91.8596 72.9324 90.7284 69.3553 89.9739C66.6476 89.2615 63.2703 89.6793 64.1595 84.7814C62.7673 83.3576 61.1019 82.0175 59.4866 80.9704Z" fill="#FCC687"/>
<path d="M228.818 240.379C231.084 229.626 225.269 222.927 218.345 220.025C213.619 218.02 211.09 213.454 206.466 212.046C200.609 218.873 198.997 226.596 202.363 234.362C209.514 236.88 212.93 244.945 219.803 247.547C223.795 246.95 227.305 245.243 228.818 240.379Z" fill="#FCE0BE"/>
<path d="M171.507 441.056C171.656 441.934 172.079 442.728 172.229 443.605C175.179 442.394 177.807 440.975 180.757 439.764C184.894 435.42 184.687 427.481 191.778 425.311C193.834 422.22 193.657 419.504 192.289 416.537C191.494 415.241 190.203 414.405 188.963 413.861C183.108 413.191 177.407 416.782 171.53 417.657C162.206 420.203 157.704 430.814 149.325 435.533C148.011 436.243 149.156 439.586 150.597 441.299C155.637 445.605 160.792 442.18 166.297 440.803C167.911 441.849 170.089 437.796 171.507 441.056Z" fill="#F79E32"/>
<path d="M119.533 477.125C108.997 479.114 98.3895 482.351 87.7766 482.22C84.1308 475.979 78.1693 476.266 71.9358 476.637C66.99 477.84 63.4815 480.748 62.154 486.362C65.7051 495.389 76.313 492.152 81.3687 498.269C85.0819 499.893 88.8898 498.731 92.2261 496.487C98.8213 489.879 107.924 489.552 114.57 483.235C117.19 481.823 119.216 480.285 119.533 477.125Z" fill="#FBD09D"/>
<path d="M74.007 528.512C77.5711 529.264 81.1353 530.015 84.6995 530.766C93.6998 526.486 103.816 523.705 108.054 511.684C107.605 509.063 105.823 508.688 103.868 508.978C100.01 509.849 97.1444 513.175 93.3855 514.629C90.3929 515.542 87.5226 515.499 84.3303 515.247C82.0041 515.038 79.628 514.537 77.2019 513.745C75.3699 513.079 73.3657 513.077 71.4613 513.659C67.9745 515.029 65.5535 517.607 64.5201 521.6C64.2256 523.223 64.4252 524.388 65.2189 525.678C67.6225 528.009 71.1591 526.93 74.007 528.512Z" fill="#F9B769"/>
<path d="M240.729 345.648C234.803 350.622 229.591 356.325 226.749 363.831C224.812 385.278 224.812 385.278 231.308 390.557C231.916 387.211 231.809 383.136 233.461 380.734C241.595 369.713 242.269 358.131 240.729 345.648Z" fill="#FCE1C0"/>
<path d="M133.629 117.44C136.378 115.062 137.615 112.223 137.611 108.841C132.373 103.37 126.425 105.497 120.405 108.876C113.87 117.641 103.856 119.474 95.7318 125.65C91.397 128.821 84.4817 130.321 85.8798 138.504C86.6747 139.799 87.6923 140.718 89.2052 141.178C94.6346 141.055 99.4498 145.733 105.52 142.646C106.461 141.435 107.029 139.724 107.374 138.388C107.639 131.541 112.024 128.662 117.154 126.785C123.051 124.366 128.676 122.031 133.629 117.44Z" fill="#FCB056"/>
<path d="M146.445 148.142C150.617 140.737 157.841 139.451 164.122 136C170.948 132.383 169.26 129.22 165.246 125.846C153.863 126.256 144.544 133.7 134.975 139.687C131.392 143.846 125.828 146.465 128.214 153.708C134.799 155.377 141.035 155.006 146.445 148.142Z" fill="#FBB665"/>
<path d="M203.992 233.877C203.558 226.163 205.824 218.875 206.879 211.331C203.043 209.371 199.837 205.962 194.843 207.496C192.174 215.85 182.566 222.882 187.82 233.196C189.663 235.454 192.414 236.179 194.937 237.287C197.688 238.011 200.387 238.437 202.909 236.093C203.362 235.326 203.539 234.644 203.992 233.877Z" fill="#F7AD52"/>
<path d="M120.656 109.468C125.992 109.066 131.378 108.952 136.714 108.55C139.267 106.871 142.09 105.11 142.031 101.497C141.852 98.8277 139.489 98.3311 137.597 98.9028C127.375 102.294 116.304 100.798 107.252 109.282C106.039 115.398 98.7815 114.565 97.4687 120.106C106.818 121.517 114.258 116.848 120.656 109.468Z" fill="#FDD19D"/>
<path d="M190.67 233.165C188.711 228.46 188.559 224.136 192.795 220.024C196.756 215.996 197.756 211.63 195.522 207.01C193.816 207.222 192.286 206.756 191.658 204.763C190.404 204.212 189.25 204.255 187.972 205.272C186.467 206.671 184.963 208.071 183.459 209.47C177.467 213.497 168.212 211.972 166.286 222.867C169.574 226.851 176.42 224.434 178.529 230.03C182.769 232.784 184.855 239.948 191.65 237.234C192.051 236.175 192.176 235.2 191.749 234.394C191.272 233.292 190.946 233.08 190.67 233.165Z" fill="#F49A2D"/>
<path d="M117.556 139.684C124.17 136.432 130.784 133.179 137.126 130.01C135.832 125.795 134.588 121.871 133.294 117.655C124.395 117.61 116.717 123.032 108.418 126.492C103.339 128.66 102.18 133.626 103.947 138.927C112.105 141.351 116.181 129.96 123.394 130.213C120.273 132.09 115.267 133.006 117.556 139.684Z" fill="#FCC27D"/>
<path d="M235.081 281.687C237.305 281.004 239.428 279.723 241.729 281.217C240.939 271.399 247.123 257.867 232.788 254.409C227.781 252.488 223.764 254.665 220.86 259.958C218.721 273.191 233.684 271.74 235.081 281.687Z" fill="#F9BA6E"/>
<path d="M74.8774 94.3564C66.5877 101.189 56.4552 100.601 47.394 104.598C46.7765 106.016 46.7039 107.266 47.2259 108.642C48.0203 109.935 48.7149 110.644 50.0041 111.478C54.9341 111.814 59.3964 114.443 64.6488 114.988C68.1897 113.905 70.6141 111.322 73.0383 108.738C76.6747 104.863 81.6774 103.948 85.3138 100.073C84.5422 97.2377 83.7706 94.4024 82.999 91.5672C79.5035 89.5644 76.8296 90.6887 74.8774 94.3564Z" fill="#FCC17B"/>
<path d="M173.703 150.301C173.38 153.518 171.327 155.084 168.949 156.438C166.6 166.511 155.332 168.417 152.282 177.771C156.17 188.732 163.403 181.832 169.738 179.885C171.891 178.911 173.393 177.514 174.143 175.102C172.261 169.135 175.464 164.098 177.515 159.104C180.066 153.644 179.013 150.851 173.703 150.301Z" fill="#F8A441"/>
<path d="M85.0303 100.93C79.5157 100.469 74.3228 100.216 71.565 107.485C72.6407 115.422 76.1578 119.247 83.8419 115.679C82.2947 106.662 85.4019 101.429 94.3061 103.305C98.4615 104.18 102.046 103.393 105.752 101.651C107.627 99.2423 107.178 96.6244 106.729 94.0065L107 93.9236C99.2388 95.3723 91.799 97.029 85.0303 100.93Z" fill="#FDE3C5"/>
<path d="M58.4261 558.072C54.8182 553.694 47.0768 563.34 44.4452 554.713C35.4903 550.741 28.0122 556.962 20.5554 561.657C19.5716 562.563 18.5879 563.47 17.875 564.294C31.7923 572.233 45.0093 564.575 58.4261 558.072Z" fill="#FCE6CC"/>
<path d="M146.869 148.551C140.919 150.351 134.248 149.642 128.697 153.746C122.767 154.025 119.38 157.474 117.945 163.969C118.935 166.397 120.758 167.057 123.192 166.321C134.523 161.074 145.805 155.54 157.136 150.294C154.372 147.493 149.733 151.927 146.869 148.551Z" fill="#FCD4A6"/>
<path d="M190.125 419.016C190.525 421.361 190.874 423.413 189.212 425.465C185.238 425.757 180.744 428.06 183.183 432.248C186.467 438.028 191.481 433.716 195.675 429.654C205.951 422.496 215.905 415.127 221.208 402.397C221.182 400.555 220.212 399.926 218.697 399.465C216.411 399.549 214.599 400.721 212.837 402.186C207.107 410.728 199.412 416.17 190.125 419.016Z" fill="#FBD4A6"/>
<path d="M222.52 262.194C223.815 256.203 229.01 256.161 232.705 254.093C229.531 250.718 236.319 243.038 229.125 241.52C225.38 243.292 221.635 245.064 217.84 246.541C215.195 251.394 208.354 255.36 211.48 261.857C213.706 266.456 218.352 266.583 222.52 262.194Z" fill="#F8BB71"/>
<path d="M14.0714 561.842C2.38951 556.885 -8.72637 561.768 -19.7923 566.94C-19.8339 569.986 -20.6374 573.566 -15.4958 572.009C-10.6249 570.534 -5.76218 565.724 -0.462462 568.367C6.11951 571.834 8.82989 562.822 14.0714 561.842Z" fill="#FAC483"/>
<path d="M219.036 400.427C219.42 400.943 219.575 401.846 219.959 402.362C225.911 400.861 229.995 397.08 232.158 390.718C224.992 383.404 232.209 372.015 227.572 363.929C218.735 367.579 227.231 375.753 222.74 380.609C219.963 386.841 217.237 393.375 219.036 400.427Z" fill="#FAC485"/>
<path d="M196.297 429.671C194.322 429.967 192.446 430.855 190.695 430.771C188.995 430.982 186.595 433.899 185.869 431.32C184.716 427.939 188.017 426.925 189.742 425.149C175.659 422.319 182.319 434.279 180.421 440.154C188.226 441.802 192.85 436.645 196.297 429.671Z" fill="#FACB92"/>
<path d="M187.845 204.762C188.956 204.42 189.789 204.164 190.9 203.823C192.187 202.799 195.747 201.392 193.397 199.6C187.713 195.378 183.644 190.345 184.043 182.369C182.073 181.089 180.078 181.388 178.185 182.283C176.847 183.009 175.838 183.947 174.879 185.184C174.248 186.634 174.174 187.914 174.149 189.492C174.883 192.094 176.677 194.056 178.648 195.335C180.012 196.487 181.326 197.34 182.185 198.961C183.045 200.582 183.854 201.904 184.991 203.439C185.699 204.164 186.684 204.804 187.845 204.762Z" fill="#FCCD96"/>
<path d="M104.063 510.831C105.252 511.082 106.442 511.333 107.409 511.959C112.685 510.96 117.512 507.334 122.815 508.171C123.483 507.045 123.878 506.003 123.628 504.543C123.156 503.459 122.189 502.833 121.272 502.499C116.886 501.996 112.132 504.371 107.891 501.366L107.718 502.034C104.25 501.865 102.964 504.408 102.102 507.744C101.806 509.371 102.551 510.372 104.063 510.831Z" fill="#F8B360"/>
<path d="M175.123 186.132C175.896 185.584 176.995 185.246 177.769 184.698C177.816 181.576 184.758 181.618 181.609 176.683C179.087 177.147 176.391 178.286 174.292 176.135C172.695 176.937 170.823 177.823 169.225 178.624C168.253 181.408 169.478 183.517 170.153 185.795C170.629 186.891 171.328 187.608 172.577 188.157C173.675 187.819 174.449 187.271 175.123 186.132Z" fill="#FDA842"/>
<path d="M107.528 501.353C111.074 507.013 115.871 504.936 120.89 502.484C117.327 501.734 113.763 500.983 110.199 500.232L108.888 500.938L107.528 501.353Z" fill="#F9BD75"/>
<path d="M181.416 176.522C180.12 179.094 178.873 181.962 177.576 184.535C179.448 183.649 181.595 182.679 183.467 181.793C184.988 178.841 186.234 175.973 181.416 176.522Z" fill="#F8B15C"/>
<path d="M120.788 502.899C121.265 503.998 121.415 504.886 121.891 505.986C122.868 506.62 124.12 507.17 125.546 507.043C127.098 505.943 127.723 504.505 126.921 503.194C125.543 500.192 122.991 502.222 120.788 502.899Z" fill="#F9BD75"/>
<path d="M105.934 94.0903C107.253 93.3761 108.248 92.4517 109.567 91.7374C108.919 91.3171 108.495 90.5187 108.222 90.6027C106.579 91.1068 105.958 92.5355 105.934 94.0903Z" fill="#FCCE97"/>
<path d="M125.664 507.4C124.415 506.852 123.217 506.6 122.019 506.347C122.169 507.232 122.594 508.032 122.744 508.917C123.518 508.369 124.566 507.737 125.664 507.4Z" fill="#F9C07C"/>
<path d="M223.169 262.501C213.678 260.645 213.678 260.645 219.217 253.25C221.898 249.897 218.725 248.647 218.312 246.238C218.756 235.011 213.023 232.642 203.973 235.088L204.179 236.293C197.285 244.418 198.833 253.452 200.84 261.713C202.331 266.961 207.478 271.094 202.449 278.016C201.479 279.263 201.1 282.231 202.609 282.404C218.906 285.984 205.067 301.934 209.76 310.325C208.818 313.465 208.209 316.819 210.131 319.401C211.462 320.263 212.742 320.823 214.251 320.996C219.06 321.429 223.278 320.141 226.264 315.11C226.901 313.648 227.257 312.272 227.894 310.81C230.668 301.09 233.109 291.155 235.883 281.435C236.974 275.715 241.337 268.362 231.082 268.958C226.99 269.256 224.454 266.545 223.169 262.501Z" fill="#F49C32"/>
<path d="M228.169 315.788C224.287 318.199 220.057 318.571 215.998 318.277C205.765 325.385 194.038 327.125 183.283 332.86C177.72 335.478 171.534 336.14 165.871 338.175C161.396 340.461 156.87 342.455 155.914 348.57C160.727 356.603 168.367 352.738 174.624 350.828C180.66 349.293 186.845 348.631 189.465 347.218C185.112 348.547 177.295 349.707 169.877 353.197C165.773 355.982 160.382 357.934 161.58 364.925C173.86 369.758 185.432 363.774 197.103 358.373C203.722 350.222 214.061 347.067 219.243 337.209C219.305 329.221 228.85 324.775 228.169 315.788Z" fill="#F79622"/>
<path d="M219.678 338.389C212.113 343.531 203.265 346.252 198.493 355.855C197.515 358.66 195.555 360.827 193.544 362.697C190.127 366.564 185.503 370.176 186.01 376.592C188.73 385.77 195.921 387.001 203.966 386.405C209.417 379.096 209.599 388.742 212.842 388.996C222.495 387.593 218.946 378.67 220.954 373.359C219.846 370.257 219.065 367.368 217.957 364.266C214.563 363.119 208.001 363.885 207.951 363.587C208.726 356.151 213.374 350.967 218.677 346.208C224.332 343.53 222.168 341.066 219.678 338.389Z" fill="#F59A2C"/>
<path d="M221.27 374.157C216.354 377.864 218.982 386.471 212.426 389.114C207.435 394.1 203.983 399.554 207.745 406.244C210.065 406.159 212.234 405.178 213.544 402.579C215.435 401.684 217.326 400.789 219.217 399.894C221.635 393.502 226.423 387.323 223.165 380.165C222.533 378.162 221.902 376.159 221.27 374.157Z" fill="#F6A23D"/>
<path d="M218.268 345.914C205.286 348.033 205.318 360.19 201.74 371.585C207.227 368.027 211.887 364.722 217.325 364.298C208.801 358.496 215.865 352.268 218.268 345.914Z" fill="#F7A039"/>
<path d="M-25.0236 109.116C-21.4258 103.435 -15.0224 105.764 -10.7537 102.323C-6.62327 104.733 -2.62054 104.736 1.59824 101.006C2.31337 100.176 2.9786 99.0567 3.64382 97.937C4.03739 96.9 4.431 95.8631 4.77466 94.5357C5.31796 94.3701 5.81128 93.9141 6.35458 93.7486C9.09319 91.3858 9.95236 88.0673 10.4899 84.541C-0.48165 83.9098 -9.51245 91.2464 -19.2641 96.0515C-20.1453 100.905 -28.123 102.724 -25.0236 109.116Z" fill="#FCB868"/>
<path d="M-10.7826 554.228C-17.0206 546.165 -8.41769 541.769 -5.14968 542.593C4.97419 545.27 15.755 538.713 25.2001 544.004C30.0673 545.853 34.334 544.268 38.2003 540.393C38.7985 535.695 44.4751 537.301 45.4933 533.38C45.5825 530.642 44.6925 528.801 42.2339 527.734C12.1148 529.266 -17.3428 537.828 -47.2007 544.1C-50.4382 545.075 -53.6257 546.335 -56.3932 548.372C-60.0898 551.593 -62.2873 555.266 -59.1781 560.054C-42.9991 560.005 -27.0594 561.836 -10.7826 554.228Z" fill="#FA9A27"/>
<path d="M38.8689 538.765C34.1033 541.15 29.5609 543.158 24.7953 545.543C32.4019 553.079 22.2979 556.174 19.9935 561.197C27.9129 558.771 36.1552 556.555 44.0745 554.129L43.4284 553.71C47.5678 545.967 46.3954 540.776 38.8689 538.765Z" fill="#F69F36"/>
<path d="M73.5953 477.638C78.3009 478.625 82.7877 479.975 87.4933 480.961C115.693 467.46 143.942 454.243 172.411 440.661C173.705 439.976 175.976 438.401 174.968 437.507C172.953 435.717 170.614 438.508 168.462 439.15C155.399 442.154 142.487 446.009 129.725 450.717C110.088 456.58 90.5005 462.727 70.4796 464.82C51.603 465.375 33.5937 474.04 14.8175 475.163C13.1533 475.361 11.7581 475.478 10.1441 475.96C3.56952 478.82 -3.79398 480.421 -7.80091 488.193C-8.12808 497.556 -1.23441 494.9 3.58963 494.954C14.0949 495.105 25.1242 491.812 35.0373 496.624C39.2229 496.271 41.2926 493.56 42.8424 489.511C43.9766 479.906 51.6232 481.509 56.5155 480.347C61.8956 478.741 67.6631 476.122 73.5953 477.638Z" fill="#FC9D27"/>
<path d="M124.042 166.198C122.799 165.653 121.333 165.485 120.09 164.94C109.972 161.25 101.327 164.517 94.4282 174.657C98.0669 185.888 85.4962 189.741 83.7896 198.289C100.689 199.592 117.259 193.896 134.055 191.217C137.235 189.626 138.475 186.776 137.825 182.963C135.259 176.341 128.13 180.069 124.102 176.674C124.148 173.573 124.095 169.885 124.042 166.198Z" fill="#EE9A35"/>
<path d="M123.55 178.178C121.383 182.199 122.275 184.066 126.499 183.696C129.315 183.45 132.18 183.494 134.996 183.247C141.62 185.202 148.094 186.286 152.971 178.078C159.334 171.862 169.654 168.719 168.966 156.401C156.368 171.238 137.96 168.9 123.55 178.178Z" fill="#FCA53D"/>
<path d="M49.0417 105.984C48.8417 104.809 48.4181 104.011 47.9445 102.92C41.7258 103.591 41.3201 94.4408 35.6486 94.9437C25.7234 95.8238 15.4275 99.6 5.74659 95.1497C4.50228 94.6039 3.73159 95.1494 3.06088 96.2826L3.11088 96.5764C1.50452 109.126 9.06747 109.589 17.0512 107.449C26.4028 104.89 33.6686 106.989 40.1667 113.034C45.3175 114.546 47.1296 109.971 49.0417 105.984Z" fill="#F2A549"/>
<path d="M152 439.1C151.9 438.525 151.8 437.949 151.75 437.662C160.992 435.171 163.838 423.717 171.919 419.459C172.21 417.857 171.69 416.501 170.629 415.309C156.362 415.08 150.494 418.973 144.823 432.188C144.603 432.558 144.653 432.845 143.251 432.966C130.806 433.398 117.809 438.839 105.596 434.056C95.484 433.177 85.4517 434.393 75.3989 437.128C70.4123 439.544 62.7926 441.544 63.6718 448.24C64.4806 456.168 72.4501 456.181 78.7475 456.396C82.1916 456.566 85.5561 454.641 89.0002 454.811C94.8774 454.245 100.755 453.68 106.682 453.402C119.106 454.49 131.463 448.636 143.758 447.342C148.133 446.322 151.818 444.603 152 439.1Z" fill="#F89620"/>
<path d="M169.322 416.66C169.795 417.748 169.945 418.626 170.418 419.713C177.271 422.852 182.426 416.037 188.753 414.408C196.72 415.665 203.816 413.492 208.621 404.627C210.278 399.191 211.936 393.755 213.32 388.402C211.852 384.847 211.844 378.072 205.598 385.221C195.012 395.548 178.53 393.201 169.462 407.376C168.001 410.596 167.136 413.941 169.322 416.66Z" fill="#F69621"/>
<path d="M152.013 440.186C140.414 449.945 126.627 445.685 114.126 450.323C111.703 451.048 109.18 451.204 106.976 451.564C104.303 450.866 101.661 451.956 101.624 454.962C101.537 457.683 104.092 459.315 106.615 459.159C113.915 458.772 120.964 456.962 128.063 455.437C142.262 452.387 155.37 446.369 168.648 439.702C162.899 436.031 157.191 442.231 152.013 440.186Z" fill="#EB8913"/>
<path d="M208.458 405.849C201.81 408.795 195.212 412.032 188.614 415.27C189.085 416.351 189.557 417.432 190.078 418.804C203.739 425.048 208.047 411.792 214.29 403.151C212.437 404.022 210.583 404.894 208.458 405.849Z" fill="#F8A849"/>
<path d="M103.182 507.385C104.839 505.343 106.496 503.301 107.831 501.05C103.614 496.504 98.4338 494.708 92.5866 494.038C89.5676 496.497 86.3987 498.08 82.8533 495.785C78.0457 494.49 73.0884 492.32 67.9901 496.028C63.8586 500.362 56.899 501.568 56.2404 509.447C58.9046 519.997 67.7123 511.162 72.547 514.291C73.7863 514.834 75.0756 515.668 76.5873 516.128C79.3384 517.13 82.0351 514.463 84.9587 514.798C87.7825 514.549 90.756 515.176 93.7523 514.26C97.1936 512.594 100.535 510.344 103.182 507.385Z" fill="#F19423"/>
<path d="M67.7339 498.108C72.6018 494.785 77.9964 496.202 82.8918 494.708C78.9467 486.722 69.9718 489.461 63.7338 486.463C55.8762 475.688 48.7377 482.461 41.6492 489.525C39.2789 492.393 37.5523 495.676 34.0167 496.755C33.4005 498.168 33.3781 499.707 33.8996 501.079C35.1148 503.159 36.9463 503.826 38.9499 503.827C40.3597 503.703 41.7195 503.288 43.0793 502.873C51.5379 502.131 59.4974 498.477 67.7339 498.108Z" fill="#F9B86B"/>
<path d="M41.5144 489.043C48.7782 486.536 56.0844 480.976 63.5131 486.018C66.2643 482.144 69.3862 478.765 73.7702 477.739C61.7789 471.041 50.1174 479.442 37.9989 481.902C39.5818 484.462 40.5232 486.608 41.5144 489.043Z" fill="#FB9F30"/>
<path d="M38.1831 539.169C41.4929 543.403 43.436 548.056 43.2924 553.967C52.3799 543.154 63.4339 535.442 74.8612 528.234C73.6647 524.587 71.1781 523.497 67.7246 525.173C58.1778 523.159 50.1275 526.553 44.3202 536.361C42.1334 537.031 38.8001 534.348 38.1831 539.169Z" fill="#F9BA6E"/>
<path d="M73.2443 513.991C71.83 510.751 69.8 508.922 66.3667 510.581C62.3899 512.405 59.4226 511.78 58.1304 507.585C55.5292 504.094 51.8962 504.59 48.1412 506.041C40.2152 511.517 29.5881 512.921 26.8645 525.377C32.3831 529.202 38.5618 528.542 44.835 525.1C51.4688 515.429 59.1227 525.027 65.8895 521.129C68.3578 518.846 70.7761 516.273 73.2443 513.991Z" fill="#F89E33"/>
<path d="M66.0866 521.644C58.5831 518.084 51.0795 514.524 42.9169 522.266C42.1743 524.651 42.0278 527.163 42.1545 529.591C42.7773 531.559 43.4002 533.526 44.0231 535.494C51.7429 531.896 59.7357 528.214 67.4055 524.323C66.9825 523.528 66.5596 522.732 66.0866 521.644Z" fill="#F59C31"/>
<path d="M103.198 508.286C99.4784 510.041 95.4858 511.878 91.716 513.34C90.4785 516.182 91.3738 518.063 93.5833 519.235C97.1034 516.31 100.673 513.678 104.466 510.669C104.044 509.875 103.621 509.08 103.198 508.286Z" fill="#F9BD75"/>
<path d="M93.822 519.039C93.1968 517.058 92.5716 515.076 91.9463 513.095C89.6504 513.18 87.4045 513.559 85.1085 513.643C84.1109 514.571 83.4379 515.709 83.414 517.268C86.3852 519.46 90.2779 518.575 93.822 519.039Z" fill="#FBD8AE"/>
<path d="M83.5276 517.003C84.1914 515.888 84.8053 514.482 85.198 513.449C82.5357 514.562 79.6023 515.759 76.8902 516.583C78.7455 519.066 81.1365 518.035 83.5276 517.003Z" fill="#FDECD7"/>
<path d="M121.825 109.68C114.14 113.248 106.405 116.526 98.7195 120.095C95.0129 121.838 91.5782 123.498 87.8715 125.24C86.4123 125.073 85.0029 125.197 83.6434 125.612C80.3085 127.853 76.9237 129.804 73.489 131.464C61.8031 138.396 47.4876 140.007 39.6961 154.63C43.3685 162.695 49.1609 166.439 57.7891 165.032C62.0894 163.415 66.4448 165.454 70.8949 164.709C74.8011 164.13 78.2358 162.47 81.9924 161.018C83.6237 160.52 84.9333 159.815 86.5646 159.317C95.3649 157.245 104.909 156.171 111.002 146.659C111.169 142.628 111.113 138.971 105.775 141.211C100.066 142.953 97.431 134.265 91.2052 138.001C89.4569 142.821 85.3786 144.065 79.8686 146.97C84.291 144.396 87.5038 143.11 88.2643 139.204C91.1894 127.902 101.155 127.618 108.268 122.387C113.679 118.9 122.856 120.693 121.825 109.68Z" fill="#F8A13B"/>
<path d="M84.2851 126.613C85.3355 125.978 86.6108 124.964 87.6612 124.33C86.6089 121.539 85.5565 118.749 84.5041 115.959C78.475 116.256 75.8702 111.141 72.0905 107.632C69.59 109.957 67.0896 112.283 64.3642 114.989C60.6386 118.625 60.6907 122.345 63.3698 126.192C69.7021 131.095 76.8821 130.756 84.2851 126.613Z" fill="#FCC07A"/>
<path d="M105.469 142.25C108.355 142.293 109.577 144.393 110.574 146.87C115.206 150.398 120.009 149.853 124.708 145.318C125.156 144.562 125.329 143.89 125.777 143.134C123.287 142.042 120.798 140.95 118.084 140.236C119.621 132.341 128.855 134.148 132.234 126.926C120.286 124.405 112.902 133.474 104.471 139.773C104.845 140.277 105.045 141.452 105.469 142.25Z" fill="#FBBD74"/>
<path d="M88.8907 139.182C81.7769 142.555 74.663 145.929 67.5492 149.303C81.6997 152.002 87.901 148.297 91.4996 137.782C90.7868 138.606 89.7034 138.935 88.8907 139.182Z" fill="#E99129"/>
<path d="M84.539 157.216C83.5026 157.837 82.6878 158.085 81.6514 158.707C79.8121 166.294 71.2215 169.521 70.6681 177.939C72.5971 179.184 72.9464 181.217 71.4168 182.294C68.6791 184.655 65.3981 187.182 70.2204 190.296C73.4573 190.838 76.4446 189.928 79.6536 188.645C85.157 185.747 91.4532 184.135 94.5286 177.088C101.478 167.639 111.31 168.311 120.123 164.71C121.075 158.615 127.571 158.165 129.588 153.273C129.876 148.297 136.322 147.556 136.338 142.663C133.023 140.006 129.892 143.404 126.583 144.106L126.511 145.35C112.489 150.231 99.4873 159.385 84.539 157.216Z" fill="#F7A23E"/>
<path d="M212.856 309.658C214.013 306.168 222.6 303.528 214.009 299.273C210.507 297.528 211.083 292.336 214.708 289.654C217.553 287.526 222.566 287.866 220.17 282.333C218.631 278.417 215.281 277.566 211.403 278.758C209.74 279.269 207.801 279.865 205.585 280.547C206.615 274.588 210.946 272.63 214.545 268.075C199.026 262.501 204.761 248.2 205.559 235.729C203.016 236.198 200.523 236.964 198.456 235.092C195.988 234.283 194.048 234.879 192.791 237.773C187.4 236.923 186.765 228.027 180.067 229.773C179.513 229.943 178.682 230.199 178.178 230.667C174.955 232.284 172.161 234.711 171.055 238.499C170.377 243.095 170.581 247.735 172.448 251.863C175.145 255.736 178.975 257.693 183.785 256.842C184.893 256.501 186.177 255.479 187.487 256.331C185.548 256.927 183.71 258.118 182.578 260.034C182.1 262.375 182.454 264.46 183.69 266.588C184.775 271.27 191.8 266.29 191.929 272.206C182.618 286.039 168.284 282.294 156.777 288.339C155.443 289.063 154.436 289.999 153.202 291.319C146.431 297.789 158.346 301.022 154.169 307.322C160.823 315.621 169.487 315.152 179.384 313.363C187.846 311.703 196.608 304.935 205.3 309.786C207.87 311.19 210.464 311.02 212.856 309.658Z" fill="#F49522"/>
<path d="M191.772 236.891C193.631 236.015 195.489 235.138 197.348 234.262C195.262 232.131 193.082 232.799 190.678 233.842C190.878 235.011 191.35 236.097 191.772 236.891Z" fill="#F49B2F"/>
<path d="M179.513 227.438C181.299 212.787 173.267 221.065 168.097 222.644C165.593 219.729 163.261 216.148 159.102 215.271C149.622 215.099 141.436 219.132 134.392 226.496C136.589 239.318 146.725 231.623 153.089 233.666C161.775 232.547 170.96 234.343 179.513 227.438Z" fill="#F39625"/>
<path d="M159.442 219.244C161.584 221.681 164.074 222.773 167.185 222.437C170.662 212.398 180.746 215.802 186.341 209.753C187.634 207.191 185.765 204.67 187.381 202.318C186.757 200.343 186.133 198.369 185.185 196.185C172.193 197.696 165.556 207.777 159.442 219.244Z" fill="#F59A2C"/>
<path d="M187.062 202.556C184.836 205.137 185.251 207.549 185.998 210.176C186.585 208.411 187.223 206.947 187.81 205.183C187.654 204.278 187.499 203.374 187.062 202.556Z" fill="#F8A94A"/>
<path d="M49.4846 107.052C47.0022 109.356 44.5199 111.659 42.0376 113.963C28.8198 114.002 17.4711 119.948 7.51841 130.712C12.0029 143.533 26.0072 134.612 32.9708 141.736C39.2315 141.36 44.8192 138.722 49.4607 133.905C53.1027 123.224 43.8898 128.207 40.9311 126.028C43.6834 120.247 63.0185 125.739 50.5308 109.817C50.3808 108.938 49.9577 108.142 49.4846 107.052Z" fill="#F49F3B"/>
<path d="M50.1225 110.13C52.3609 113.145 56.6611 116.454 49.0633 119.09C43.1043 121.224 37.0953 123.065 29.9938 125.241C35.6665 134.915 44.6999 127.213 50.5157 130.983C55.9051 130.565 60.7216 128.473 64.8153 123.826C63.3963 120.559 64.4855 116.833 64.7553 113.358C60.7282 109.965 56.8242 105.609 50.1225 110.13Z" fill="#FCA847"/>
<path d="M153.529 178.868C147.582 180.665 141.585 182.175 135.638 183.972C136.358 186.479 136.758 188.779 134.624 191.24C123.591 194.877 112.008 195.351 101.894 202.644C98.6092 206.663 91.9214 207.474 91.7193 214.496C94.3408 219.757 99.0364 218.943 103.262 217.061C124.759 208.143 145.486 196.431 167.453 188.582C169.345 188.01 170.667 185.795 171.719 183.661C174.513 180.093 170.478 179.799 169.808 177.58C164.472 177.982 158.804 183.024 153.529 178.868Z" fill="#EB9630"/>
<path d="M159.812 218.454C168.23 211.026 176.918 203.517 185.286 195.8C184.052 195.262 182.768 194.434 181.534 193.896C177.86 194.098 174.6 191.739 170.805 192.892C162.73 198.998 152.444 197.251 144.89 204.72C143.292 207.032 149.712 211.171 142.193 212.237C135.217 213.138 128.789 217.221 123.004 221.718C119.73 224.234 115.542 226.419 118.217 232C123.867 233.328 128.846 232.425 133.447 227.679C142.392 224.962 150.068 216.542 159.812 218.454Z" fill="#F79F37"/>
<path d="M171.376 195.115C174.541 195.073 177.906 196.209 180.944 193.728C179.273 192.381 177.553 190.741 176.156 189.31C174.91 188.763 173.49 188.889 172.119 189.31C170.451 191.371 169.605 193.18 171.376 195.115Z" fill="#FAB96B"/>
<path d="M173.2 190.658C174.297 190.322 175.069 189.775 176.165 189.439C175.965 188.261 175.54 187.462 175.39 186.578C174.294 186.915 173.248 187.546 172.152 187.882C171.978 188.555 171.804 189.228 171.63 189.901C172.228 190.027 172.826 190.153 173.2 190.658Z" fill="#F8B15C"/>
<path d="M172.215 184.332C149.741 190.143 128.59 201.833 107.087 211.536C102.346 213.548 97.132 219.287 92.9364 211.577C79.2876 214.455 66.3918 221.59 53.0944 226.455C35.2749 232.968 17.2044 238.062 -0.615116 244.575C-7.9954 247.674 -15.4761 250.205 -21.4471 256.469C-22.5911 258.005 -23.147 259.665 -22.5266 261.571C-14.6015 271.156 -3.93981 262.597 5.21911 263.149C11.6239 260.939 18.0108 260.228 24.4659 258.302C33.7791 254.925 42.3715 249.074 52.2548 247.32C56.3394 246.399 60.2233 244.344 63.3181 241.03C80.3524 228.478 100.087 223.186 118.681 214.649C133.072 207.964 146.642 198.237 162.375 195.932C166.778 195.216 170.68 191.661 173.305 187.293C172.886 186.521 172.416 185.467 172.215 184.332Z" fill="#FCA53D"/>
<path d="M-19.2147 124.674C-30.1573 130.389 -40.6899 125.413 -51.3024 126.5C-54.7833 129.361 -58.2641 132.223 -61.7949 134.797C-63.5754 139.26 -68.0464 139.702 -71.0371 142.114C-75.0081 145.425 -76.1285 148.783 -70.8872 151.128C-46.5214 147.403 -23.0057 138.801 -0.0102065 128.847C3.54066 124.756 8.44184 120.258 4.10084 114.924C0.179932 110.37 -5.07132 112.859 -9.26233 116.539C-12.3731 119.893 -16.6941 121.196 -19.2147 124.674Z" fill="#ED9A3A"/>
<path d="M-73.3816 147.787C-76.4373 148.1 -79.7616 148.493 -82.8172 148.806C-98.6691 158.284 -116.197 159.924 -132.703 165.725C-136.315 172.457 -149.207 166.763 -148.069 179.525C-139.255 181.37 -130.272 177.806 -121.273 177.512C-90.11 168.244 -58.4268 160.311 -27.3641 150.478C-19.237 146.87 -10.6905 144.031 -3.60351 137.755C-1.05056 134.614 0.3272 131.226 -2.0388 127.464C-25.7804 133.929 -48.8859 145.564 -73.3816 147.787Z" fill="#FDAC48"/>
<path d="M213.264 311.101C211.19 308.995 209.024 309.652 206.637 310.68C193.866 306.046 181.938 314.523 169.824 316.98C165.099 319.324 159.734 321.255 159.258 328.386C165.209 334.783 173.204 329.929 180.423 330.474C191.725 328.263 202.756 326.134 212.517 318.314C212.66 315.84 213.122 313.574 213.264 311.101Z" fill="#F79622"/>
<path d="M212.525 319.06C201.404 322.111 190.552 325.081 179.381 327.846C177.851 333.741 181.391 334.485 185.252 335.434C194.013 331.887 202.994 327.971 211.856 324.998C216.446 323.613 215.996 321.032 215.446 317.877C214.366 318.203 213.336 318.815 212.525 319.06Z" fill="#EC8B17"/>
<path d="M189.373 372.891C190.699 367.286 196.457 365.836 198.847 361.436C192.73 354.122 186.811 362.964 180.632 363.624C174.997 364.118 169.023 369.304 163.626 364.525C165.174 358.546 170.315 358.508 174.193 356.102C170.571 348.333 164.575 355.057 159.705 355.011C144.69 364.178 128.849 366.866 112.636 369.055C109.818 369.302 109.79 367.475 108.676 365.979C99.7679 360.74 89.5121 362.643 79.8943 361.597C77.6201 361.679 75.5456 362.923 74.2643 365.455C73.8759 369.857 75.7616 374.178 78.6791 374.512C87.4317 375.515 78.3406 379.205 79.2336 381.074C80.8475 385.477 83.9093 383.32 86.6272 382.491C74.4966 386.802 61.6894 385.505 49.9581 392.141C46.8242 395.544 47.8946 400.113 46.8629 404.099C49.5639 408.171 53.0472 406.803 56.8023 405.352C60.8292 403.819 58.4608 406.682 58.1168 408.011C59.8805 413.287 65.8376 413 68.3168 417.446C76.7032 421.314 85.2507 417.79 93.6262 414.931C102.712 407.878 113.799 415.818 120.017 408.721C124.71 406.067 122.663 409.138 122.314 407.103C122.214 406.522 121.992 406.895 121.176 407.144C118.608 408.845 115.347 409.839 115.774 413.992C122.435 421.14 128.232 413.254 134.705 410.975C136.868 403.584 142.681 405.789 147.079 404.754C149.525 404.009 152.071 403.844 154.418 402.517C160.641 398.784 171.418 398.252 169.571 387.495C167.575 375.865 158.001 386.739 152.238 384.824C142.898 387.06 134.478 392.992 125.087 394.937C135.565 392.661 145.144 385.151 156.143 384.246C167.236 380.558 179.75 383.474 189.373 372.891Z" fill="#F6941D"/>
<path d="M185.765 334.754C183.91 332.271 182.055 329.788 179.878 327.098C173.534 325.065 167.054 328.862 160.838 329.228C152.125 326.696 145.031 331.899 137.887 336.812C132.713 339.908 139.264 346.449 133.818 349.627C134.489 351.86 136.044 352.606 138.093 352.898C148.647 351.214 155.799 338.072 167.545 339.986C173.511 338.173 179.927 338.965 185.765 334.754Z" fill="#F28F19"/>
<path d="M168.055 340.262C156.047 333.544 148.098 345.416 138.508 351.078C132.596 356.536 122.472 354.126 119.085 364.305C130.844 369.574 141.84 363.789 152.736 357.425C155.2 355.151 156.971 352.172 157.508 348.654C159.051 342.695 164.506 342.866 168.055 340.262Z" fill="#F6941E"/>
<path d="M157.539 349.739C155.159 350.757 153.15 352.267 152.841 355.376C152.142 359.506 155.481 359.103 157.62 359.967C162.748 358.422 167.176 352.867 172.885 356.274C180.432 350.684 190.24 353.158 199.025 343.275C183.78 345.454 170.524 347.638 157.539 349.739Z" fill="#ED8B16"/>
<path d="M162.764 365.462C159.635 366.995 156.087 367.756 152.704 372.655C163.749 372.644 172.947 370.195 182.214 366.53C187.226 364.434 192.005 359.418 197.651 362.516C199.771 360.088 199.37 357.816 198.649 355.34C186.943 361.229 174.703 362.494 162.764 365.462Z" fill="#F18F1A"/>
<path d="M189.09 374.994C177.915 378.088 167.012 381.099 155.787 383.903C154.902 385.392 153.645 386.385 153.994 388.413C155.279 389.242 156.443 391.024 157.528 390.694C160.784 389.703 164.941 382.339 167.103 389.916C169.165 396.914 161.982 396.659 158.655 398.891C151.949 403.065 144.695 404.052 137.069 404.541C130.85 404.908 131.992 408.221 135.133 411.535C146.72 417.466 158.745 407.708 170.298 408.465C176.532 403.214 182.273 398.417 190.492 398.053C197.253 397.521 202.673 392.517 205.324 384.696C199.913 381.462 191.673 383.358 189.09 374.994Z" fill="#F3911B"/>
<path d="M-2.78118 127.805C-3.20133 130.404 -3.39818 132.626 -3.81833 135.225C-2.9218 137.111 -1.30524 138.16 0.75803 138.453C2.17467 138.328 3.31797 138.286 4.63466 137.574C6.49801 136.694 7.93813 135.017 8.73158 132.922C18.0421 121.731 31.4385 121.021 42.2187 113.394C39.0996 100.147 30.2499 98.8455 19.5665 103.664C11.5664 107.352 5.97327 106.596 3.82721 97.3734C0.30356 103.702 -5.66294 102.444 -10.5329 104.245C-15.7966 110.49 -13.8738 120.09 -20.0074 126.293C-13.1007 122.941 -5.92063 119.505 1.25943 116.069C3.72568 122.106 -0.771011 124.41 -2.78118 127.805Z" fill="#F8A544"/>
<path d="M3.26965 95.5312C4.09114 95.2792 5.13638 94.6491 5.95787 94.3971C4.18841 92.4641 3.417 93.0102 3.26965 95.5312Z" fill="#FBBD74"/>
<path d="M42.6622 528.306C44.5167 525.95 44.3852 523.588 43.3954 521.184C39.1288 527.565 32.8955 519.531 28.4285 524.771C10.6301 518.704 -6.61745 528.676 -23.8899 532.053C-30.4555 533.421 -37.4096 535.806 -43.8939 539.251C-45.8486 541.037 -47.7031 543.393 -46.0743 546.206C-35.5932 549.366 -25.6883 542.795 -15.7207 539.807C3.45629 534.358 23.4976 537.052 42.6622 528.306Z" fill="#ED8C18"/>
<path d="M35.7969 498.342C35.5972 497.185 35.3975 496.028 35.1978 494.87C36.2181 487.559 32.8153 487.679 27.1941 488.168C16.3227 489.644 5.20161 489.672 -5.81964 490.28C-24.5235 484.392 -42.1149 491.561 -59.3782 502.284C-63.7084 506.948 -63.7013 510.294 -57.6807 512.119C-54.0783 513.156 -50.1834 512.582 -46.5097 512.379C-40.6673 511.518 -34.7751 510.947 -28.8543 512.193C-10.4072 513.287 7.74747 515.993 25.9738 505.891C29.6191 503.871 33.7851 503.215 35.7969 498.342Z" fill="#FC9C27"/>
<path d="M12.0987 476.806C13.1773 476.482 13.9362 475.953 14.9647 475.343C32.0724 469.299 49.7808 466.685 66.6187 460.722C73.2485 454.819 70.7101 451.671 64.4465 449.943C57.2739 447.887 49.793 448.932 42.5817 449.896C20.4587 453.235 -1.35249 461.595 -23.3754 465.505C-28.3293 466.392 -32.9827 468.994 -36.107 473.844C-34.6629 486.948 -24.6506 472.808 -20.9027 477.999C-25.6677 476.724 -29.6625 478.225 -31.7776 483.975C-23.8539 490.318 -15.6256 485.438 -7.41653 482.069C-0.894784 480.41 4.92605 474.749 12.0987 476.806Z" fill="#FC9A23"/>
<path d="M12.8496 476.792C8.92134 468.961 3.64395 474.449 -1.0565 476.76C-10.777 481.178 -20.2781 485.23 -30.731 483.862C-35.105 481.57 -39.7865 482.374 -44.7374 483.259C-53.1605 486.987 -61.9845 488.433 -69.8877 493.508C-74.564 502.42 -86.214 502.311 -90.4706 511.998C-87.3318 518.565 -82.2927 514.95 -77.3919 513.78C-70.9242 511.84 -65.9163 506.433 -59.7682 504.287C-42.4641 494.59 -24.4275 490.68 -5.99021 489.053C-1.80278 480.588 6.78268 481.015 12.8496 476.792Z" fill="#EE8B15"/>
<path d="M128.036 454.322C120.852 452.259 113.736 457.128 106.701 455.927C101.438 455.097 103.84 452.558 106.882 450.43C101.689 448.37 96.285 450.002 90.831 451.346C85.0271 450.68 80.4932 455.677 74.9893 456.734C71.2362 459.681 70.215 463.617 70.1044 467.882C90.0182 467.917 108.902 460.402 128.036 454.322Z" fill="#F3901A"/>
<path d="M70.6647 467.264C74.3369 465.562 75.5529 462.795 74.2625 458.678C71.0669 456.634 67.9959 461.759 64.8003 459.715C54.003 464.455 42.7425 463.329 31.5255 467.294C25.1086 469.519 20.0199 472.848 14.712 476.542C29.8071 480.121 43.995 470.46 59.0468 468.948C62.9695 468.672 66.9613 467.174 70.6647 467.264Z" fill="#E7850E"/>
<path d="M101.049 206.24C112.302 200.743 123.605 195.532 134.858 190.035C118.156 188.734 101.426 193.77 84.6153 196.721C83.066 195.982 81.5666 195.529 79.8976 195.731C77.3689 195.889 74.9903 196.906 72.6118 197.924C68.9341 199.633 64.9365 201.138 61.3088 203.134C56.1622 206.19 47.8667 207.482 48.6781 215.375C49.5091 221.754 57.1148 219.766 62.3222 220.308C76.2146 218.537 87.8964 208.993 101.049 206.24Z" fill="#FCA740"/>
<path d="M81.5764 197.433C82.6697 197.097 83.4397 196.553 84.533 196.218C88.2596 194.458 92.3095 192.908 95.9361 190.561C105.823 184.443 103.06 180.042 95.1035 177.232C89.2402 179.955 83.7004 182.888 77.8371 185.612C75.4304 190.054 85.0733 189.26 80.2566 194.75C79.9099 196.091 80.3331 196.887 81.5764 197.433Z" fill="#E68F29"/>
<path d="M64.819 457.85C68.1255 460.491 71.1242 458.064 74.3228 456.792C80.1285 454.122 85.6135 451.245 91.4192 448.576C82.8484 448.44 73.4736 451.888 66.0196 445.04C69.4808 440.348 74.2327 439.819 78.0935 437.435C78.3352 435.54 77.3233 434.632 76.0407 433.807C74.1168 432.568 71.6095 434.542 69.7355 433.592C72.2218 433.142 74.2376 431.621 76.2035 429.811C78.461 426.395 81.6305 423.309 78.6157 419.062C73.3434 418.231 68.0712 417.4 62.8069 419.906C48.6962 430.556 33.7833 425.057 19.3069 427.015C8.44966 428.483 -2.50755 429.375 -12.9153 433.439C-14.981 434.672 -16.6762 436.4 -18.1506 437.758C-28.8419 446.765 -41.4684 439.662 -52.3885 445.703C-54.1336 447.143 -55.558 448.789 -56.9825 450.435C-60.0731 455.621 -68.4521 453.303 -69.6398 461.252C-65.0556 472.917 -56.0804 467.161 -48.13 465.359C-27.7271 459.784 -6.77472 457.382 12.9289 447.769C-3.25554 456.316 -21.3799 456.951 -36.6943 468.877C-37.6273 470.07 -38.1897 471.758 -38.4813 473.364C-38.1107 473.859 -37.4194 474.561 -37.0488 475.055C-3.83081 462.865 29.8867 453.559 63.9908 451.422C68.3012 451.634 70.5957 453.367 64.819 457.85Z" fill="#F7951E"/>
<path d="M171.529 408.279C166.513 404.015 161.012 403.555 155.075 407.186C148.867 410.9 142.253 408.95 136.116 411.424C130.151 413.236 124.136 414.759 118.17 416.572C103.315 413.166 91.4627 418.899 86.26 431.75C99.3741 439.949 111.805 427.644 124.777 426.748C127.909 426.71 131.113 425.432 132.148 424.813C136.586 424.074 134.324 427.503 135.109 425.436C135.28 424.775 134.688 424.651 133.875 424.898C124.263 428.732 112.711 424.627 105.311 436.318C117.833 444.392 131.405 435.395 144.306 435.74C145.44 435.7 145.883 434.956 146.546 433.841C152.741 423.43 160.055 417.857 170.779 415.512C170.972 413.321 171.115 410.841 171.529 408.279Z" fill="#F7941E"/>
<path d="M105.465 435.882C115.647 429.216 128.022 431.813 137.804 422.862C120.446 419.357 104.255 433.84 87.267 430.825C83.2807 427.512 79.0057 425.79 74.1146 430.265C69.7628 434.579 62.0907 429.667 59.0292 438.103C64.9526 441.134 71.6808 435.807 77.1151 439.285C86.5316 437.96 95.9982 436.921 105.465 435.882Z" fill="#EF8C16"/>
<path d="M48.2204 508.249C51.3075 507.919 54.6662 507.508 57.7532 507.179C61.2557 504.279 64.7582 501.379 68.3106 498.77C59.8801 494.616 51.1679 498.797 42.6993 501.07C42.0403 505.548 44.8837 507.126 48.2204 508.249Z" fill="#F3982A"/>
<path d="M48.8801 507.747C47.032 505.301 45.1839 502.854 43.3859 500.692C42.3585 501.3 41.2809 501.623 40.2535 502.231C25.3116 512.412 8.37777 514.487 -7.7355 519.618C-11.4067 521.318 -15.3286 521.594 -19.0499 523.01C-25.8724 527.755 -33.4153 530.016 -41.0584 531.708C-45.6882 532.795 -52.235 532.657 -51.2704 541.37C-48.896 540.358 -46.7409 539.712 -44.6735 541.793C-20.5976 535.176 3.59739 527.623 28.0053 524.507C32.9484 515.524 42.6777 514.408 48.8801 507.747Z" fill="#F79623"/>
<path d="M-8.15449 523.569C3.47312 520.053 15.1508 516.825 26.408 512.815C31.7662 510.892 40.5282 512.18 40.0312 501.125C38.5292 500.671 37.2477 499.847 35.7457 499.393C14.4422 509.468 -7.39931 511.53 -29.0793 509.606C-31.4952 516.998 -31.4452 517.286 -26.0282 518.979C-20.2907 520.879 -13.8214 520.437 -8.15449 523.569Z" fill="#EA8915"/>
<path d="M71.2028 161.58C67.7675 161.409 64.9791 156.835 60.6466 159.639C44.1904 161.274 27.7766 168.008 11.2085 165.768C10.9581 164.34 10.4882 163.279 9.5292 162.665C8.30063 162.132 6.90266 162.251 5.50467 162.37C-2.04365 164.637 -9.81143 167.271 -17.4599 168.967C-27.3844 172.248 -36.2764 183.035 -47.6031 178.32C-49.0511 178.154 -50.7187 178.354 -52.0666 178.759C-60.6624 183.144 -70.2289 183.612 -78.2546 189.63C-78.0308 197.379 -87.1583 197.114 -88.6831 202.983C-84.535 210.456 -78.2462 205.861 -72.7543 204.813C-62.849 203.041 -53.0439 200.697 -43.3155 204.39C-36.3639 206.811 -29.3856 202.912 -22.3957 202.316C-14.6279 199.682 -6.82909 198.843 0.619065 196.005C11.8105 190.239 23.4025 186.758 34.9945 183.276C44.5493 179.505 53.8036 174.02 63.5086 171.105C67.5523 169.891 72.6743 168.353 71.2028 161.58Z" fill="#FDA63F"/>
<path d="M65.2082 125.102C59.3528 124.148 54.6377 126.48 51.0631 132.098C44.5061 135.289 37.9492 138.479 31.0719 141.464C20.5829 136.768 11.8433 142.13 3.50369 149.792C0.119705 153.234 -3.48452 157.046 -1.77394 161.974C0.30689 167.396 5.08291 160.508 8.28554 162.566C19.2355 165.006 28.536 157.961 37.4958 152.229C50.2598 143.836 63.2238 136.592 77.3782 132.921C80.2513 131.448 83.8648 130.962 84.7867 126.448C78.2204 126.314 71.8744 125.811 65.2082 125.102Z" fill="#E48F2C"/>
<path d="M9.83999 166.414C7.99505 167.277 6.19999 168.428 3.05149 169.989C8.18184 173.292 13.5749 173.175 17.9561 172.151C29.746 169.49 41.1573 162.997 53.5755 165.609C55.9409 166.106 59.1603 163.309 59.9144 159.438C51.31 165.688 48.2792 154.767 41.6535 154.346C29.8266 151.859 20.0686 159.672 9.83999 166.414Z" fill="#FEA942"/>
<path d="M70.8999 162.991C66.8765 172.737 58.2597 167.439 52.1535 171.729C45.8263 176.39 37.9653 178.777 30.8463 182.157C37.8438 191.295 44.8988 180.933 51.9251 180.322C54.1934 180.242 58.5878 170.992 59.4721 181.074C64.608 184.385 68.4742 181.993 71.7913 176.419C74.6376 169.771 87.6558 169.166 82.2561 157.716C78.5111 159.158 74.5949 161.26 70.8999 162.991Z" fill="#EF9832"/>
<path d="M9.58332 165.782C20.0628 160.835 30.3418 154.747 41.5727 154.08C51.8587 143.183 65.2646 140.362 77.4301 133.707C72.3667 130.721 67.7471 135.111 63.2658 137.057C44.9018 145.571 26.8573 154.29 8.49327 162.805C8.96315 163.865 9.43304 164.926 9.58332 165.782Z" fill="#F39C36"/>
<path d="M84.3626 156.578C89.0798 165.665 96.2092 157.828 101.378 156.579C109.879 154.931 119.758 154.67 125.948 144.713C120.999 145.597 116.049 146.48 111.05 147.078C102.242 151.819 93.5529 155.624 84.3626 156.578Z" fill="#ED9834"/>
<path d="M72.4503 176.939C68.384 178.174 64.5459 182.384 60.0517 179.487C47.8672 178.316 37.9508 188.635 26.4867 189.986C21.4429 195.476 25.2737 199.488 27.4779 203.995C39.4268 210.413 49.065 196.829 60.4078 196.428C64.4741 195.193 68.1694 193.462 69.5892 188.464C70.8093 182.309 77.5436 183.308 80.1975 178.848C77.8006 176.532 74.355 179.709 72.4503 176.939Z" fill="#FDA841"/>
<path d="M69.4429 188.907C65.7406 190.645 62.0882 192.674 58.1143 194.495C56.1032 202.745 56.5745 203.824 62.5991 202.295C68.8954 200.683 75.1139 196.956 81.1605 193.893C81.6259 191.612 89.7571 194.024 84.4855 188.297C83.0498 186.596 80.356 185.889 78.2054 185.016C75.0463 186.589 72.1088 187.789 69.4429 188.907Z" fill="#DE8720"/>
<path d="M170.414 319.957C181.919 314.048 194.144 310.651 206.498 309.64C205.016 307.663 211.972 303.435 205.94 303.138C201.632 302.926 197.303 304.236 193.024 305.835C180.408 310.26 167.912 313.74 156.053 306.11C147.357 303.588 140.181 308.186 133.675 315.007C132.065 330.352 142.176 327.898 150.913 327.376C157.927 326.769 163.2 319.411 170.414 319.957Z" fill="#F18F19"/>
<path d="M173.5 248.723C174.427 244.18 174.491 239.594 172.387 235.666C168.043 233.637 164.126 235.74 160.16 237.553C142.975 250.383 121.653 254.119 105.61 270.256C108.392 279.762 114.741 273.572 119.62 272.09C126.718 270.238 133.017 263.759 140.592 266.329C147.476 268.196 153.361 264.277 159.247 260.359C164.689 257.183 170.974 255.579 173.5 248.723Z" fill="#F9A138"/>
<path d="M156.829 257.979C152.162 260.6 148.686 266.797 142.63 264.692C133.329 263.569 125.498 269.265 117.887 274.592C115.772 283.707 122.381 280.802 125.775 280.684C134.826 280.37 143.847 278.249 152.698 276.784C163.683 272.859 175.717 274.973 185.331 264.802C184.711 262.871 184.091 260.939 183.471 259.008C175.383 251.766 165.398 261.443 156.829 257.979Z" fill="#F79520"/>
<path d="M185.334 266.097C174.163 268.862 163.011 270.111 152.19 274.883C148.379 274.221 146.369 275.733 146.579 280.198C148.21 283.027 151.16 283.647 154.331 283.898C168.162 283.351 181.444 279.648 194.076 272.217C196.136 270.992 199.747 270.507 199.836 267.763C199.876 264.732 196.536 265.135 194.056 265.581C191.255 265.822 188.135 265.857 185.334 266.097Z" fill="#ED8B15"/>
<path d="M194.267 272.619C180.631 272.805 167.852 281.222 154.486 281.326C153.191 285.357 154.011 288.444 157.437 290.137C169.733 285.504 186.193 291.742 194.267 272.619Z" fill="#F79620"/>
<path d="M157.694 289.341C156.602 286.312 155.831 283.491 154.739 280.462C152.417 280.253 150.415 280.251 148.093 280.042C137.738 278.001 127.566 282.016 117.195 284.869C112.999 287.064 110.36 290.007 111.852 295.359C116.459 302.207 123.964 299.31 130.389 300.103C137.695 296.044 143.808 288.376 152.855 291.121C153.399 290.955 154.263 290.998 154.807 290.832C155.843 290.211 156.93 289.88 157.694 289.341Z" fill="#F49B31"/>
<path d="M133.421 316.175C141.09 312.284 148.536 308.769 156.256 305.171C158.291 303.623 162.064 302.159 158.187 299.646C154.957 297.552 155.053 294.748 155.373 291.566C147.3 289.722 141.246 294.66 135.392 300.771C132.141 303.616 128.991 307.048 127.729 311.443C128.056 315.043 128.432 318.936 133.421 316.175Z" fill="#F99721"/>
<path d="M160.731 240.292C164.409 238.582 168.357 236.79 172.035 235.08C175.124 233.245 178.732 232.762 179.601 227.979C171.204 228.698 162.488 229.213 154.092 229.932C145.767 237.563 133.101 231.731 125.646 242.717C129.607 252.376 137.252 247.361 143.509 245.779C148.907 244.154 154.594 240.934 160.731 240.292Z" fill="#EA8D1D"/>
<path d="M156.352 257.971C164.039 267.802 174.219 257.414 183.046 258.993C184.893 258.129 186.739 257.264 192.279 254.671C183.944 252.639 177.784 253.292 173.463 249.737C167.702 252.702 162.163 255.295 156.352 257.971Z" fill="#F08F19"/>
<path d="M125.524 242.755C134.374 236.097 147.369 241.906 154.035 229.2C147.565 228.117 140.316 232.458 133.94 228.601C128.655 227.768 123.549 229.626 118.593 232.355C114.937 231.026 112.051 232.514 109.466 235.742C107.844 239.591 108.764 243.278 110.449 246.426C111.562 247.918 112.897 249.037 114.404 249.494C119.538 249.458 123.238 247.722 125.524 242.755Z" fill="#EC8B18"/>
<path d="M5.83308 152.798C12.4609 143.141 22.0439 142.361 31.4271 140.42C31.4711 137.352 32.0583 134.118 27.5135 134.28C21.5609 134.565 15.4585 133.979 9.40607 133.684C7.55497 134.553 5.70383 135.422 3.58115 136.374C-0.774268 145.95 -12.6853 143.161 -17.4121 152.239C-18.4426 156.219 -16.1922 157.672 -13.6203 159.333C-5.68301 163.943 -1.1339 152.17 5.83308 152.798Z" fill="#FCA742"/>
<path d="M101.508 206.676C88.0081 207.118 75.3125 212.086 62.818 218.186C42.9201 220.829 23.5751 226.584 4.58203 234.32C0.735537 238.145 -9.35639 240.253 0.950401 247.314C18.5828 241.473 36.1978 237.126 53.5285 229.587C66.9296 223.813 81.7728 222.972 93.1614 210.648C96.3683 211.184 99.2736 210.021 101.508 206.676Z" fill="#EE972F"/>
<path d="M173.109 187.514C145.674 196.045 119.83 210.404 92.8966 221.786C83.1269 225.918 73.9774 231.966 63.4373 233.326C58.1673 234.006 61.394 237.843 62.9227 240.087C64.201 240.904 65.6986 241.356 67.3655 241.156C86.6095 239.287 102.221 223.193 120.995 220.264C129.536 215.6 139.757 214.035 145.73 204.436C155.023 204.05 164.435 202.728 172.206 195.292C172.814 193.909 173.422 192.525 174.03 191.142C173.729 189.43 173.31 188.655 173.109 187.514Z" fill="#FDA842"/>
<path d="M145.891 204.155C136.36 208.588 126.88 213.31 117.349 217.742C110.314 221.72 107.437 229.934 102.802 236.237C105.303 239.143 107.576 239.062 109.793 235.33C112.682 233.838 115.62 232.637 118.237 231.228C126.742 219.161 140.059 218.466 151.735 211.546C149.828 208.764 148.02 206.564 145.891 204.155Z" fill="#F49A30"/>
<path d="M1.56639 246.641C-4.31311 240.758 1.83019 239.802 5.22203 237.843C3.97388 230.545 -1.17095 237.34 -5.06206 236.379C-6.15178 236.712 -4.42163 233.418 -4.07215 235.462C-4.09495 237.005 -3.00517 236.672 -1.69294 235.963C0.38667 234.713 3.11097 233.88 3.37908 230.419C-5.57423 223.326 -13.9839 234.498 -22.706 233.785C-29.5168 235.867 -36.3276 237.949 -41.2499 244.369C-40.8603 258.381 -37.9092 260.551 -21.2138 257.598C-13.7854 254.098 -6.13444 250.224 1.56639 246.641Z" fill="#F7A039"/>
<path d="M52.8668 245.068C41.9916 243.197 33.3348 252.518 23.3585 255.85C24.8777 262.994 30.34 258.294 33.5704 258.835C26.1114 263.532 17.3755 259.187 9.27469 263.471C8.29063 264.378 7.35648 265.575 6.74326 266.978C6.17998 268.67 11.3858 270.74 5.69524 272.467C3.25641 273.208 2.35089 276.22 4.74708 278.535C10.2738 280.812 15.4438 277.722 20.4926 275.581C28.7931 272.453 36.4233 267.095 45.2944 265.619C50.0009 264.799 54.2368 262.905 58.4227 260.722C62.7298 257.589 69.8252 255.74 67.6641 248.182C65.3532 239.757 57.2383 248.913 52.8668 245.068Z" fill="#F69F38"/>
<path d="M52.235 245.832C51.294 247.042 47.3265 247.333 50.0074 249.59C52.0431 251.428 55.4383 249.467 58.388 248.256C60.7923 247.213 64.9826 246.546 65.409 250.723C65.7855 254.608 61.5453 254.982 58.9682 256.694C59.3716 262.416 63.3353 258.742 65.7166 259.244C63.2124 259.703 61.0308 260.37 58.8493 261.038C54.4862 262.373 49.4777 263.29 49.2128 270.14C64.023 274.531 74.6503 264.51 85.2276 254.198C86.4374 249.52 85.6613 243.296 93.3736 243.09C95.9777 243.217 98.5778 239.96 99.392 236.326C88.4725 229.514 77.25 239.409 66.2384 238.778C65.1476 239.112 64.3795 239.654 63.3386 240.28C59.6707 242.326 55.9528 244.079 52.235 245.832Z" fill="#F19A32"/>
<path d="M6.08222 259.531C-2.34812 260.264 -11.0994 260.791 -19.5298 261.525C-29.6933 258.829 -39.7712 261.584 -49.4996 266.364C-51.7391 268.261 -53.1156 270.201 -52.6163 273.093C-49.1285 278.424 -44.0218 279.917 -37.9807 280.213C-22.3825 276.39 -5.61456 277.69 8.53576 265.481C8.94941 262.921 8.27897 260.69 6.08222 259.531Z" fill="#E89129"/>
<path d="M5.54673 260.538C6.1674 262.482 6.78803 264.427 7.40869 266.371C16.1805 260.962 27.3485 269.452 35.1219 258.253C32.7175 252.584 26.4149 259.071 23.4465 255.097C17.5298 257.2 11.1639 256.697 5.54673 260.538Z" fill="#F09A32"/>
<path d="M-28.3697 147.985C-28.985 149.395 -29.6003 150.805 -30.1658 152.506C-26.0018 160.103 -21.539 154.463 -16.8988 151.521C-10.4567 147.418 -2.80049 145.391 0.941392 137.22C-0.294966 136.68 -1.53129 136.14 -2.76765 135.599C-11.2111 139.7 -19.9262 143.884 -28.3697 147.985Z" fill="#E38E2A"/>
<path d="M134.215 316.745C131.354 316.701 130.141 314.632 129.42 312.109C128.236 311.859 126.83 311.982 125.574 312.973C122.669 315.989 120.456 319.709 117.28 322.807C109.279 331.028 100.186 336.23 89.6523 336.384C88.2963 336.796 86.9903 337.498 85.7342 338.489C84.0854 340.514 83.0289 342.663 83.157 345.062C83.4066 346.51 84.1987 347.793 85.5331 348.911C92.1768 352.681 99.8203 350.663 107.171 350.257C116.913 348.819 127.025 347.879 135.669 340.072C144.097 335.986 152.797 331.818 161.226 327.733C162.768 321.779 167.9 321.743 171.768 319.349C164.51 316.984 157.416 322.187 150.436 323.09C142.693 324.529 137.412 323.697 134.215 316.745Z" fill="#F7951F"/>
<path d="M49.1489 399.951C54.4348 397.768 52.5869 395.324 50.1504 392.755C47.1752 390.349 43.7932 390.462 39.8725 390.737C30.2777 394.211 20.8765 390.73 11.0999 391.56C8.8953 391.92 6.96004 392.2 4.80559 392.845C2.65113 393.491 0.765996 394.055 -1.38846 394.701C-8.96051 395.17 -16.3134 395.273 -22.4632 402.212C-26.4399 407.001 -31.939 404.751 -36.8367 405.918C-43.0307 407.773 -49.0745 410.483 -55.068 413.477C-64.4122 418.375 -74.2762 421.929 -83.2508 427.316C-87.7474 430.761 -92.2942 433.922 -87.8094 440.074C-86.0117 442.234 -83.8758 443.094 -81.1828 442.287C-79.9365 441.314 -78.4209 440.261 -77.494 439.083C-71.9516 433.526 -65.3694 430.655 -58.4863 429.492C-45.478 427.695 -33.3405 422.56 -21.2532 417.141C-9.43516 411.802 2.56467 409.107 15.116 409.545C26.5772 407.012 38.8721 410.825 49.1489 399.951Z" fill="#FC9A24"/>
<path d="M75.1376 362.033C76.9798 361.174 78.8219 360.315 80.9344 359.374C81.1047 358.717 81.2251 357.773 81.6658 357.035C81.4863 354.366 80.3255 352.598 77.9131 351.814C69.865 349.707 62.2759 353.513 54.4869 356.169C47.1886 358.375 39.7903 360.005 32.4828 358.884C23.5126 361.292 14.9126 364.194 7.92333 371.45C5.15903 376.824 8.97301 377.487 11.926 378.108C16.6008 378.813 21.2461 377.712 26.0912 377.761C29.2146 377.725 32.3379 377.689 35.4113 377.366C48.075 376.565 60.1094 370.508 72.1234 365.97C73.4249 365.274 74.3063 363.798 75.1376 362.033Z" fill="#FC9923"/>
<path d="M73.6837 429.677C78.3416 428.567 82.393 432.207 86.9011 430.229C95.3109 419.456 107.095 418.313 118.258 415.227C118.593 410.56 123.401 410.317 126.546 405.405C118.636 407.503 112.088 412.535 105.418 406.951C101.096 403.393 97.5579 409.338 94.2125 413.093C90.0112 420.153 81.095 413.12 77.0933 421.336C76.1375 424.062 74.9106 426.869 73.6837 429.677Z" fill="#F3911B"/>
<path d="M120.216 362.616C125.536 360.392 131.078 357.797 136.448 355.862C139.971 354.792 139.572 352.479 139.122 349.877C137.888 349.339 136.655 348.801 135.421 348.262C125.108 344.699 114.966 352.038 104.76 352.398C96.7297 355.444 86.5593 349.403 80.2477 360.753C88.4711 367.08 98.6199 363.086 108.041 364.79C112.014 366.323 116.457 368.93 120.216 362.616Z" fill="#FA9721"/>
<path d="M49.0021 401.375C37.698 405.094 26.1643 405.856 14.7806 407.481C11.8274 406.86 8.85369 407.758 7.36117 410.631C5.42793 414.242 8.26083 415.807 10.2827 417.617C17.8907 420.463 25.8009 416.862 33.6202 416.012C42.5413 413.316 52.3325 413.989 60.404 406.404C62.2463 405.545 64.0887 404.685 65.9311 403.826C61.358 395.523 53.7364 405.695 49.0021 401.375Z" fill="#EA8811"/>
<path d="M60.4728 406.846C51.1477 407.243 42.0519 410.6 33.0767 413.012C30.0104 416.666 24.1514 415.712 22.2462 421.136C26.5498 429.529 34.0641 423.62 40.3641 423.835C46.0731 423.926 51.7735 420.687 57.5032 419.257C61.7806 417.66 66.7283 418.284 69.4948 412.903C70.3593 404.764 62.0337 410.918 60.4728 406.846Z" fill="#F99620"/>
<path d="M120.253 363.616C116.161 364.543 112.019 365.185 107.927 366.112C107.62 369.206 105.295 370.504 102.412 373.471C121.994 370.299 140.73 370.384 158.1 359.469C156.402 357.877 155.024 356.489 153.326 354.896C143.03 362.488 131.682 364.091 120.253 363.616Z" fill="#F18E18"/>
<path d="M39.6146 394.728C42.6848 394.406 46.0249 394.002 49.095 393.681C62.6653 388.383 77.8562 390.745 90.4261 379.713C87.8358 376.269 83.2359 382.484 80.2756 378.548C71.055 376.197 61.8849 382.28 52.3745 381.526C47.5143 382.991 42.3541 382.735 38.1141 386.126C33.4341 390.253 33.9843 393.407 39.6146 394.728Z" fill="#F08E17"/>
<path d="M52.5294 384.47C62.2728 386.102 71.2672 383.351 80.1348 378.18C81.843 376.428 89.1063 376.973 82.7294 371.545C79.777 369.374 77.7652 365.992 75.2581 363.07C74.2178 363.695 73.45 364.238 72.3598 364.571C69.27 371.664 62.1793 370.451 57.4501 374.664C54.479 377.418 50.168 379.043 52.5294 384.47Z" fill="#FC9923"/>
<path d="M69.0507 413.926C64.9466 414.863 60.7924 415.513 56.6883 416.45C50.9607 426.046 58.6988 423.104 62.5623 424.054C67.3477 420.491 72.8125 422.47 77.8478 420.344C82.6535 415.262 91.5005 421.968 94.9159 412.163C86.1374 412.394 77.4979 418.332 69.0507 413.926Z" fill="#EF8D16"/>
<path d="M154.101 387.308C154.71 385.92 155.319 384.533 155.877 382.86C142.989 382.22 132.813 392.204 121.146 396.916C133.005 398.166 143.343 392.348 154.101 387.308Z" fill="#F08D17"/>
<path d="M104.646 356.147C114.982 355.144 125.118 352.997 134.854 348.557C136.913 347.334 138.972 346.111 141.031 344.888C139.382 343.576 137.512 342.632 135.863 341.319C125.376 341.462 115.84 347.047 105.654 348.909C100.037 350.902 101.886 353.36 104.646 356.147Z" fill="#EC8A13"/>
<path d="M1.0553 137.405C-9.16895 142.643 -17.3318 154.869 -30.3094 152.416C-34.0053 154.148 -37.9723 155.962 -41.6182 157.984C-35.3333 167.952 -28.7265 166.553 -16.8179 152.885C-10.7319 150.123 -4.42476 146.988 1.7611 144.805C8.21807 142.538 4.1659 138.897 3.9378 135.92C3.17436 136.457 2.13978 137.076 1.0553 137.405Z" fill="#F49F3B"/>
<path d="M-22.3344 236.349C-13.6846 240.365 -6.32195 227.332 2.32783 231.348C17.7052 230.036 32.2311 223.871 45.617 214.44C55.4793 207.57 65.592 202.129 77.0142 199.3C78.8511 198.447 80.638 197.31 82.4749 196.457C82.0551 195.682 81.8547 194.539 81.4349 193.764C74.653 190.69 69.5737 197.325 63.5931 198.821C59.5495 200.035 56.2646 200.721 58.8175 194.243C53.5336 191.621 49.7213 195.772 45.3389 198.291C40.1477 201.052 34.4675 204.261 28.6946 202.086C11.2491 201.313 -3.67319 213.31 -20.0478 217.025C-25.0195 219.419 -29.7716 221.448 -34.2733 224.904C-36.9882 227.222 -39.0639 229.95 -39.2717 233.619C-34.1338 243.499 -27.9379 233.522 -22.0766 232.965C-21.2178 233.007 -20.1704 230.889 -19.6003 232.522C-19.7697 233.174 -21.726 234.964 -22.3344 236.349Z" fill="#E69029"/>
<path d="M76.8618 200.389C71.7963 197.398 67.1736 201.796 62.6897 203.745C42.4774 213.128 22.3151 222.797 2.37241 232.099C-0.44354 233.848 -4.04914 234.329 -6.29503 237.712C-2.77812 239.964 1.37456 234.505 4.55244 238.062C23.536 228.146 44.5917 228.436 63.0552 217.172C59.1993 216.225 55.2932 214.992 49.3495 213.469C59.8351 208.513 68.4833 204.41 76.8618 200.389Z" fill="#FBA43D"/>
<path d="M-47.8349 462.814C-41.2247 463.236 -39.8645 466.146 -44.8343 471.869C-43.2939 477.44 -40.794 475.48 -38.2241 472.291C-18.2843 461.15 3.37615 458.242 24.7962 449.07C20.1857 443.82 15.2257 444.712 11.1256 445.646C-7.26462 449.378 -24.9445 460.441 -43.7951 458.277C-45.8352 457.986 -47.375 460.563 -47.8349 462.814Z" fill="#ED8A13"/>
<path d="M63.096 423.028C60.4833 421.093 55.4668 421.701 57.2209 415.419C45.8156 418.564 34.5603 422.572 22.996 421.526C12.0134 417.278 1.37824 423.217 -9.16601 426.405C-12.6808 427.467 -17.0271 430.295 -14.8962 436.008C4.6496 432.219 23.8751 428.224 43.3389 430.514C50.2775 431.141 57.157 428.153 63.096 423.028Z" fill="#F3911B"/>
<path d="M-20.8276 427.661C-19.5866 431.544 -18.2956 435.717 -16.7836 439.518C-16.1703 438.114 -15.557 436.711 -14.9437 435.308C-7.91901 423.134 4.14815 428.599 12.963 423.488C16.0653 421.633 19.4673 421.513 23.0404 420.733C26.9058 418.342 32.0335 418.307 33.5739 412.362C26.3779 413.634 19.1319 414.617 11.6649 415.971C-0.145448 415.296 -11.9558 414.622 -20.8276 427.661Z" fill="#FB9923"/>
<path d="M25.1047 191.753C37.4251 190.756 48.6946 183.752 59.9945 178.545C63.0316 176.427 65.429 173.898 59.903 173.151C55.2363 172.447 51.3704 176.321 47.104 177.906C42.0284 179.734 37.2836 185.077 31.6269 181.96C20.6859 184.348 9.72526 188.248 -0.395498 193.702C-0.823972 197.746 1.73462 199.386 4.5129 200.658C6.65155 201.521 8.95986 201.73 11.1681 201.367C16.9334 200.235 21.959 198.12 25.1047 191.753Z" fill="#EB952E"/>
<path d="M-11.9338 158.408C-13.1682 161.24 -14.3526 164.365 -15.587 167.197C-18.9543 167.612 -18.977 169.154 -17.4385 171.446C-8.15354 170.451 0.682124 166.831 9.31817 162.044C7.30778 158.668 2.18887 163.915 1.16779 159.623C0.29646 156.206 4.00857 154.458 6.3094 152.834C-0.579481 149.414 -5.44429 159.494 -11.9338 158.408Z" fill="#F39C36"/>
<path d="M4.68076 197.8C2.9762 196.187 1.5926 194.782 -0.111957 193.169C-7.7716 196.712 -16.5011 195.711 -23.8612 200.988C-25.9295 202.224 -27.9977 203.461 -30.6079 204.862C-27.6196 207.302 -23.904 204.044 -21.9498 207.102C-11.9865 208.642 -2.22278 209.024 4.68076 197.8Z" fill="#E69029"/>
<path d="M25.6405 191.87C19.8444 194.528 14.3187 197.105 8.52257 199.763C1.09552 199.587 -4.8616 206.226 -12.1887 206.625C-17.3443 209.694 -26.343 210.295 -20.6097 220.361C-3.85262 215.299 12.6545 208.8 28.5914 200.659C31.2349 196.23 25.4295 195.564 25.6405 191.87Z" fill="#FEA942"/>
<path d="M117.71 276.006C126.097 271.972 134.754 267.857 143.141 263.823C139.951 256.943 135.323 261.353 130.734 262.735C122.367 265.255 115.32 273.71 106.052 271.074C105.413 270.663 104.823 270.539 104.183 270.129C86.5383 274.84 67.9538 277.423 53.6101 292.9C57.7799 298.882 65.2177 297.546 70.8266 300.38C79.3242 300.233 85.6415 294.108 92.209 289.416C97.0872 286.439 102.116 284.322 107.664 283.555C112.033 282.541 115.711 280.83 117.71 276.006Z" fill="#FEA941"/>
<path d="M125.901 243.553C122.21 245.279 118.248 247.087 114.557 248.814C112.478 254.911 107.583 257.913 103.429 261.906C98.7839 266.351 100.146 269.28 105.469 270.399C124.415 261.315 143.832 253.304 161.217 240.137C149.408 236.123 137.759 247.855 125.901 243.553Z" fill="#F19A33"/>
<path d="M117.562 276.759C113.885 278.467 109.939 280.256 106.262 281.965C102.605 282.161 97.769 282.111 98.5002 287.914C99.2009 291.919 103.178 291.927 107.005 291.077C110.831 290.227 113.368 285.248 117.595 286.687C127.927 285.687 138.058 283.542 147.789 279.109C148.098 276.005 150.106 274.497 152.484 273.481C140.892 272.15 129.203 278.376 117.562 276.759Z" fill="#EF8E1A"/>
<path d="M118.294 286.667C113.742 283.469 109.722 288.361 105.498 288.731C103.546 289.02 100.952 288.894 101.096 286.404C101.412 283.251 104.821 283.129 106.845 281.596C101.156 278.438 96.6937 284.077 91.5322 285.65C85.9943 298.342 72.8215 296.547 64.8051 304.798C66.2027 312.931 72.1013 308.994 76.276 308.334C85.4902 307.055 94.5768 303.369 103.769 303.626C108.165 302.592 112.14 300.77 114.43 295.792C113.138 291.601 114.59 288.407 118.294 286.667Z" fill="#F89928"/>
<path d="M114.702 296.466C111.026 298.175 107.079 299.964 103.453 301.958C92.4925 305.858 79.2019 302.929 70.9724 315.945C71.3228 317.947 71.8427 319.297 73.4919 320.607C81.5263 322.708 88.379 316.43 95.7127 314.525C106.334 311.933 116.635 309.135 127.005 305.112C129.283 303.524 131.241 301.73 132.19 299.036C126.842 292.815 120.059 297.867 114.702 296.466Z" fill="#EF972E"/>
<path d="M131.073 299.172C129.219 300.044 127.365 300.916 125.239 301.871C127.181 309.855 132.216 302.499 135.879 303.832C141.907 298.93 147.885 293.736 154.907 291.288C143.468 284.669 140.205 285.665 131.073 299.172Z" fill="#FBA33A"/>
<path d="M136.535 303.72C133.675 300.358 129.095 305.057 125.965 301.776C115.776 303.64 106.238 309.23 95.7483 309.374C88.2097 318.283 76.3905 317.319 68.0618 324.958C67.552 326.922 67.8021 328.355 68.9121 329.831C71.2021 331.555 73.342 332.418 75.8718 332.259C93.1001 326.766 110.828 324.139 126.366 312.215C127.396 311.603 128.206 311.359 129.236 310.747C131.686 308.5 134.085 305.967 136.535 303.72Z" fill="#FEAA41"/>
<path d="M106.297 269.847C99.5522 260.561 109.775 261.733 112.669 260.236C119.222 256.702 122.41 253.583 115.72 247.96C115.248 246.877 115.098 246.003 114.627 244.921C104.471 239.13 95.1918 240.123 87.0653 251.189C75.1469 258.507 64.5713 270.321 50.017 268.939C48.2845 268.855 46.9738 269.562 46.457 271.559C51.5741 284.714 60.8615 272.067 67.9913 273.57C76.4544 272.826 84.0463 268.668 91.5384 263.928C93.4932 263.638 92.5094 267.924 92.3822 265.51C92.2324 264.636 91.9104 264.427 91.094 264.677C80.1143 270.788 68.5131 274.944 57.9053 281.555C53.4789 284.133 47.9866 285.503 46.5358 292.078C48.8174 295.368 51.3164 294.911 53.5883 291.458C71.2487 284.227 88.6369 277.078 106.297 269.847Z" fill="#F69F38"/>
<path d="M86.1171 250.748C94.7481 244.458 104.206 244.632 113.613 244.516C112.521 241.49 111.701 238.382 110.609 235.356C108.216 236.389 106.044 237.05 104.016 235.225C101.594 234.436 99.694 235.014 98.4645 237.831C92.4204 240.892 86.4262 244.243 79.7332 243.532C80.5818 248.464 84.8036 248.095 86.1171 250.748Z" fill="#E28A22"/>
<path d="M98.2174 237.076C100.061 236.215 101.904 235.354 103.748 234.493C112.554 232.738 113.169 223.157 117.879 217.489C111.129 214.682 104.696 220.265 100.126 223.466C89.1945 231.017 77.0929 233.466 65.7613 238.713C76.3779 242.471 87.6008 233.317 98.2174 237.076Z" fill="#FCA53D"/>
<path d="M19.6305 271.619C14.513 273.153 10.047 278.39 4.39682 275.284C-6.99102 271.798 -16.0419 283.208 -26.9974 283.791C-35.3972 286.008 -43.9661 288.876 -52.7167 289.098C-61.8243 292.127 -71.2326 293.447 -80.4905 295.621C-83.8416 297.525 -86.2845 299.757 -85.802 304.111C-84.5616 307.939 -82.0059 309.572 -78.473 310.313C-54.2382 307.85 -30.3354 301.888 -6.81492 292.141C2.68097 288.096 14.2065 289.141 21.4221 278.581C22.8564 275.452 22.1862 273.253 19.6305 271.619Z" fill="#E68E26"/>
<path d="M-27.857 286.994C-15.9407 288.531 -6.61547 278.487 4.1804 275.235C7.04919 273.768 11.0976 272.549 12.6867 270.262C13.786 268.423 9.26758 268.578 7.78773 266.611C-8.23623 270.834 -24.2602 275.057 -40.554 279.361C-43.4729 280.541 -44.0324 282.217 -41.9628 284.308C-32.1753 288.295 -23.5098 279.353 -14.1529 279.249C-19.1611 279.853 -24.8092 280.046 -27.857 286.994Z" fill="#FCA63E"/>
<path d="M18.9165 272.436C19.5388 274.4 20.1612 276.364 20.7835 278.328C28.2826 285.267 35.3206 279.42 42.0629 275.202C46.0776 271.819 45.3285 267.431 45.7204 263.001C35.5974 260.867 27.9177 269.681 18.9165 272.436Z" fill="#EE9730"/>
<path d="M45.2271 263.363C39.9091 265.584 41.763 268.062 44.2085 270.664C45.4419 271.202 46.5254 270.874 47.1383 269.472C48.2219 269.143 48.9847 268.607 50.0183 267.99C56.5909 264.78 63.4344 261.488 70.8197 258.031C66.77 254.395 62.3721 260.29 59.4559 256.614C54.7296 258.96 50.0033 261.306 45.2271 263.363Z" fill="#E79029"/>
<path d="M7.19055 372.882C16.6164 368.582 25.9921 363.999 35.4179 359.7C52.9555 358.054 69.7721 353.939 85.3832 343.025C85.9887 341.651 86.5941 340.278 87.1494 338.621C84.1802 331.453 78.7186 335.764 73.7294 336.356C59.4501 338.82 45.4219 342.701 31.9463 349.699C19.546 356.376 6.47494 360.866 -6.72916 363.011C-10.8617 363.645 -14.7254 364.2 -18.8078 365.118C-33.4414 370.372 -48.61 371.014 -63.3441 375.702C-66.5195 376.946 -69.3256 378.677 -71.2928 381.947C-68.3791 398.378 -56.1296 390.852 -46.7566 391.042C-44.5559 390.684 -42.0865 390.247 -39.936 389.606C-34.5599 388.005 -29.2516 387.616 -23.976 385.448C-13.794 380.625 -2.11984 381.024 7.19055 372.882Z" fill="#FDA942"/>
<path d="M73.8671 341.07C77.9169 339.849 81.7364 335.681 86.2165 338.555C86.9764 338.024 88.0563 337.699 88.8163 337.168C99.5156 333.34 109.595 327.586 120.044 322.324C124.264 320.449 126.243 317.137 126.573 312.511C108.654 317.308 90.8351 322.679 73.5163 330.916C70.5067 334.841 69.387 338.196 73.8671 341.07Z" fill="#ED952D"/>
<path d="M84.8314 343.607C68.2545 349.154 51.6775 354.7 34.8316 360.327C36.9114 365.683 40.5267 363.707 44.5616 362.503C55.5901 359.21 66.988 356.405 78.0668 353.397C81.5636 352.353 84.3218 350.334 85.6024 346.366C85.4518 345.514 85.3012 344.662 84.8314 343.607Z" fill="#F6941D"/>
<path d="M85.7753 347.238C82.6061 348.822 79.0148 349.612 78.1291 354.491C78.751 356.451 79.3728 358.411 80.0446 360.663C88.0133 353.62 97.0162 361.005 104.962 355.504C104.24 352.96 103.841 350.625 105.993 348.124C99.0556 347.787 92.3905 347.367 85.7753 347.238Z" fill="#EE8B15"/>
<path d="M120.202 322.93C108.226 322.915 97.6897 327.936 88.8653 337.909C102.033 341.515 111.848 333.977 120.202 322.93Z" fill="#FAA239"/>
<path d="M-20.5705 426.321C-10.4627 419.417 1.36959 420.667 11.6279 414.615C5.80011 408.882 11.8688 407.967 15.2153 406.071C-4.88389 401.312 -22.3592 414.6 -40.7701 420.994C-48.2521 423.527 -55.4791 422.696 -62.2725 425.92C-69.0158 429.428 -77.4372 429.85 -81.6128 438.271C-75.4759 436.139 -68.9655 429.712 -62.7181 436.216C-48.5792 432.891 -34.7094 429.646 -20.5705 426.321Z" fill="#F5941E"/>
<path d="M-33.7178 407.473C-29.9284 407.85 -25.1907 413.769 -22.0049 407.271C-16.5729 395.483 -8.10022 398.112 -0.0768601 398.116C1.2936 386.034 -4.85105 383.614 -14.4582 384.401C-22.654 385.063 -28.3402 392.018 -35.5921 394.848C-39.4041 396.012 -42.5717 397.594 -45.0676 401.426C-45.1538 410.967 -37.312 404.888 -33.7178 407.473Z" fill="#FAA138"/>
<path d="M53.1574 383.898C53.7641 379.146 57.6594 378.572 60.7629 376.715C57.0465 368.405 51.4885 375.879 46.68 376.121C41.2794 376.24 35.8074 377.597 30.2355 378.376C23.8358 384.279 15.3318 386.253 10.4159 394.141C20.1112 395.764 29.5637 399.287 40.0085 393.678C37.4618 390.493 35.5072 387.433 41.9423 386.696C45.6164 386.493 49.5616 386.208 53.1574 383.898Z" fill="#F5921C"/>
<path d="M-34.0219 396.954C-31.6641 399.001 -29.9055 397.54 -27.7014 395.328C-15.9133 383.725 -8.32554 384.479 -0.548954 398.094C1.30954 397.218 3.16807 396.342 5.2992 395.383C5.89039 392.126 2.61474 389.745 3.9739 385.946C1.41232 379.348 -3.91747 380.055 -9.56986 380.554C-14.9496 380.969 -20.1526 384.099 -25.6093 382.385C-30.4897 385.723 -35.9464 384.009 -40.9766 386.471C-40.673 391.607 -35.5888 392.82 -34.0219 396.954Z" fill="#F59B30"/>
<path d="M2.84747 390.409C0.0375553 394.015 4.0894 394.309 4.7603 396.549C6.61154 395.679 8.46276 394.81 10.314 393.941C16.7545 389.84 25.5013 390.843 29.3139 381.431C30.001 378.777 33.4099 378.656 34.0471 375.711C32.0182 373.885 29.7954 374.256 27.4509 375.581C19.5306 381.05 6.9978 376.311 2.84747 390.409Z" fill="#EE8C15"/>
<path d="M2.94671 389.654C9.37461 380.731 22.1886 385.647 27.6757 374.583C21.4144 371.322 13.8957 377.239 7.58446 373.69C-3.78917 373.797 -14.4843 379.462 -25.629 382.533C-22.0737 386.613 -18.0645 385.096 -13.4143 383.991C-7.09055 382.683 -0.17558 381.499 2.94671 389.654Z" fill="#F6951F"/>
<path d="M33.8012 375.892C31.474 377.194 29.4164 378.415 29.1079 381.517C39.607 379.865 49.8866 378.581 60.3858 376.929C64.84 373.182 74.2215 374.876 72.639 364.215C59.0229 365.901 46.7778 373.797 33.8012 375.892Z" fill="#EB8811"/>
<path d="M-38.4914 215.206C-33.4359 218.177 -29.4171 213.695 -24.8962 212.048C-20.325 210.685 -16.3565 205.919 -11.301 208.889C-4.77955 205.751 1.74186 202.612 8.26328 199.473C7.03706 198.943 5.81088 198.413 4.58466 197.884C-3.73637 203.649 -13.3631 202.041 -21.8348 206.956C-27.2806 209.774 -32.7767 212.308 -38.4914 215.206Z" fill="#F19A34"/>
<path d="M55.1417 291.589C52.7562 292.615 50.5913 293.27 48.568 291.456C35.1709 289.749 23.6221 298.706 11.2241 302.764C7.9768 303.747 4.43806 306.336 4.96676 311.029C5.32476 316.381 9.46293 317.251 13.4013 316.968C23.2223 316.118 32.9351 311.357 42.7561 310.506C44.4297 310.303 46.0533 309.811 47.6769 309.32C55.3247 305.79 63.5928 304.197 70.1999 297.949C68.3806 289.097 59.9502 294.683 55.1417 291.589Z" fill="#FEAC46"/>
<path d="M69.96 299.135C61.8574 300.072 54.0546 302.742 46.2306 306.936C50.216 315.145 56.2443 312.102 62.2726 309.06C63.4767 307.783 64.6809 306.507 65.2435 304.817C72.0842 301.528 78.9249 298.239 86.0364 294.868C90.2691 292.977 93.2689 290.549 91.7784 285.229C85.1663 291.487 77.9837 296.095 69.96 299.135Z" fill="#F79F37"/>
<path d="M65.323 305.582C64.2411 305.91 63.4795 306.443 62.718 306.977C58.2956 319.224 65.3782 317.385 72.2902 316.202C81.2489 307.128 94.0497 308.71 103.579 301.281C93.5741 296.126 83.9245 304.5 73.8373 305.431C70.9825 305.385 68.257 307.725 65.323 305.582Z" fill="#EA8A17"/>
<path d="M72.8342 315.302C68.9809 312.817 62.3724 314.216 63.244 306.029C57.7487 308.918 52.2749 310.277 46.8659 307.046C45.7811 307.375 45.0175 307.912 43.9327 308.242C36.5606 310.178 29.0386 311.245 22.6582 315.622C18.0263 318.553 12.6307 322.021 14.1999 329.466C21.3143 334.312 28.7796 329.606 35.9803 328.331C43.4523 326.974 50.7745 324.749 58.2748 325.212C63.7486 323.853 69.3223 323.073 73.6047 318.115C73.5049 317.536 73.0339 316.46 72.8342 315.302Z" fill="#ED962F"/>
<path d="M73.3675 319.53C68.3381 321.649 62.9283 319.96 58.149 323.512C60.1595 330.147 63.9891 329.295 68.7184 325.456C76.1776 322.605 82.9166 317.256 90.9458 316.043C94.8255 315.477 95.4052 312.285 95.9848 309.094C88.6257 312.518 80.9966 316.024 73.3675 319.53Z" fill="#FAA33B"/>
<path d="M69.4096 324.186C65.9112 323.728 62.121 324.876 58.8143 322.235C43.9793 318.836 29.8885 327.965 15.0405 329.428C1.48316 335.055 -11.8643 325.436 -25.6135 333.247C-28.3627 337.116 -28.6965 341.771 -29.6216 346.302C-27.1481 350.714 -31.4349 360.515 -21.6597 359.374C-18.7527 359.708 -15.8956 359.753 -13.1383 359.221C-5.77875 357.294 1.43097 354.502 8.76956 354.1C30.3568 348.773 50.9531 341.013 69.8592 326.782C70.3507 326.329 69.8802 325.258 69.4096 324.186Z" fill="#FEAA42"/>
<path d="M70.5051 328.566C54.0313 336.51 36.286 338.83 20.7329 350.4C17.9695 352.429 13.1574 350.87 9.18476 350.861C5.21774 358.956 -5.65352 356.812 -8.56169 366.091C2.86734 366.566 13.7641 362.397 24.2412 357.453C40.4456 349.591 56.4997 340.873 74.2762 340.345C74.264 337.046 74.2015 333.462 74.1893 330.163C72.9612 329.631 71.7332 329.099 70.5051 328.566Z" fill="#EE9731"/>
<path d="M-25.9877 333.703C-18.2722 332.281 -10.9269 330.366 -3.73264 335.751C3.41156 340.85 7.77632 328.347 14.7812 327.744C21.0373 314.67 33.8164 312.928 43.8542 306.874C36.0089 305.917 28.3433 307.627 20.9778 311.06C16.2142 313.103 11.6209 314.489 5.70747 309.926C19.7184 300.557 35.4494 299.436 48.4795 290.967C65.8126 282.711 82.7755 273.963 99.8788 262.753C88.1115 257.236 80.7044 271.867 70.988 269.963C64.7437 270.035 59.7396 273.964 54.3155 277.113C55.3951 284.949 59.3385 279.829 62.6309 279.137C39.4939 286.727 17.3973 297.025 -6.08961 302.605C-19.9697 306.19 -33.1296 312.279 -46.9096 316.44C-53.9848 318.273 -61.06 320.107 -67.9851 322.802C-70.8073 324.561 -73.8497 326.689 -73.2497 330.135C-72.1796 334.649 -67.9969 335.805 -64.0641 335.525C-53.7169 334.517 -43.6196 332.073 -33.1521 330.122C-33.2223 331.353 -28.7385 326.069 -31.8213 331.232C-32.2117 332.257 -32.9223 333.076 -33.3128 334.101C-30.7214 337.551 -28.4599 337.473 -25.9877 333.703Z" fill="#F79F37"/>
<path d="M53.5702 277.44C59.3477 274.806 64.8056 271.968 70.5831 269.335C65.7899 266.269 61.4409 270.575 57.23 272.439C53.2885 274.222 49.6855 274.702 48.0254 270.096C46.9476 270.419 46.1894 270.947 45.1116 271.27C37.448 274.469 30.2352 280.235 21.5005 278.952C12.0321 284.794 1.8121 286.359 -7.83785 289.553C-9.1038 292.035 -13.0452 293.817 -12.1055 295.937C-9.70616 301.523 -3.82844 299.459 0.783302 299.878C18.736 293.892 38.1795 293.165 53.5702 277.44Z" fill="#FDA841"/>
<path d="M-13.7803 357.966C-18.7694 360.384 -23.488 362.72 -29.0181 365.302C-24.9729 368.927 -20.5834 363.054 -17.6201 367.005C-14.3158 369.642 -11.3199 367.221 -8.12417 365.951C-2.23237 360.532 9.36551 363.387 9.70116 350.559C1.55758 351.205 -6.23631 353.865 -13.7803 357.966Z" fill="#E38B23"/>
<path d="M15.8429 342.497C23.6496 340.161 31.2372 338.19 38.9937 335.57C42.2241 334.604 45.5231 332.418 48.5027 330.029C37.5475 335.404 24.3356 327.976 15.8429 342.497Z" fill="#FEB24A"/>
<path d="M-1.78835 297.139C-5.45126 298.827 -9.33275 300.878 -12.9957 302.566C-12.7472 308.756 -7.6547 303.958 -5.37114 305.664C18.5355 300.032 41.9399 291.568 64.3721 279.217C61.4179 275.324 56.5766 281.539 53.9414 277.85C35.7775 287.14 17.1114 293.596 -1.78835 297.139Z" fill="#E68F27"/>
</g>
</svg>
