<svg width="571" height="147" viewBox="0 0 571 147" fill="none" xmlns="http://www.w3.org/2000/svg">
<path d="M9.134 137H11.686V130.862H14.128C17.648 130.862 20.222 129.234 20.222 125.692C20.222 122.04 17.648 120.786 14.04 120.786H9.134V137ZM11.686 128.816V122.854H13.798C16.372 122.854 17.714 123.558 17.714 125.692C17.714 127.826 16.482 128.816 13.886 128.816H11.686ZM23.3781 137H25.9301V130.466H28.5481L32.2221 137H35.1041L31.1441 130.136C33.1901 129.498 34.5321 128.002 34.5321 125.494C34.5321 121.996 32.0241 120.786 28.6801 120.786H23.3781V137ZM25.9301 128.42V122.854H28.3721C30.7261 122.854 32.0021 123.536 32.0021 125.494C32.0021 127.452 30.7261 128.42 28.3721 128.42H25.9301ZM37.8156 137H40.3676V120.786H37.8156V137ZM50.9187 137.286C53.0087 137.286 54.6587 136.45 55.9567 134.954L54.5927 133.348C53.6247 134.404 52.5027 135.064 51.0067 135.064C48.1467 135.064 46.3427 132.71 46.3427 128.86C46.3427 125.054 48.2787 122.722 51.0727 122.722C52.3927 122.722 53.4047 123.316 54.2407 124.174L55.6267 122.546C54.6367 121.468 53.0527 120.5 51.0287 120.5C46.9367 120.5 43.7247 123.668 43.7247 128.948C43.7247 134.25 46.8487 137.286 50.9187 137.286ZM58.8274 137H68.6394V134.844H61.3794V129.608H67.3194V127.452H61.3794V122.942H68.3974V120.786H58.8274V137Z" fill="#404040"/>
<path d="M74.4801 60.9764C73.7939 60.5097 72.9155 60.7764 72.5163 61.5716L56.0618 94.1666C54.8732 96.5556 52.2364 97.3793 50.2426 96.0422L47.0372 93.6297C46.3713 93.1278 45.4826 93.348 45.0519 94.1215C44.6198 94.8934 44.8107 95.9271 45.4753 96.4273L48.7438 98.8847C49.8706 99.6416 51.1037 100 52.3209 100C54.8027 100 57.2171 98.508 58.542 95.8437L74.9906 63.2568C75.3915 62.4634 75.1634 61.4414 74.4801 60.9764Z" fill="#D6A443"/>
<path d="M78.8229 0H55.8559C51.4147 0 48.106 1.6421 44.793 5.48995C44.2318 6.14191 44.2318 7.19555 44.793 7.84731C45.3544 8.49927 46.2615 8.49927 46.8227 7.84731C49.619 4.59964 52.1525 3.33422 55.8559 3.33422H78.8229C81.1971 3.33422 83.1292 5.57826 83.1292 8.33574V35.0107C83.1292 39.3137 82.0397 42.2545 79.2421 45.5021L36.6123 95.0841C34.9845 96.9713 32.1481 96.9729 30.5233 95.0841L4.13256 64.4329C3.31873 63.4877 2.87077 62.2322 2.87077 60.8951C2.87077 59.5597 3.31856 58.3043 4.13104 57.3606L42.6612 12.6738C43.254 12.8488 43.8483 13.0239 44.4642 13.2155C50.3036 15.0327 54.9114 16.91 58.3463 18.5855C57.6703 20.0393 57.2913 21.6681 57.2913 23.3403C57.2913 28.857 61.154 33.3434 65.9039 33.3434C70.6538 33.3434 74.5166 28.857 74.5166 23.3403C74.5166 17.8236 70.6538 13.3373 65.9039 13.3373C65.1101 13.3373 64.4685 14.0842 64.4685 15.0044C64.4685 15.9246 65.1101 16.6715 65.9039 16.6715C69.0706 16.6715 71.6456 19.6624 71.6456 23.3401C71.6456 27.018 69.0704 30.0088 65.9039 30.0088C62.7374 30.0088 60.1622 27.0178 60.1622 23.3401C60.1622 22.1398 60.445 20.9677 60.9661 19.9475C63.4524 21.3295 65.0068 22.4949 65.6213 23.2385C65.3586 23.3253 64.9523 23.422 64.3395 23.4835C63.5501 23.5652 62.9659 24.3738 63.0362 25.2907C63.1023 26.1576 63.7281 26.8129 64.4645 26.8129C64.5061 26.8129 64.5491 26.8095 64.5922 26.8062C65.475 26.7146 68.1607 26.4395 68.6775 24.2037C70.0913 18.0702 49.3737 11.2913 45.2065 9.99426C38.8316 8.01025 32.7096 6.6532 27.9654 6.17317C22.136 5.58139 19.2967 6.35154 18.7628 8.66885C18.5073 9.78091 17.8255 12.7334 29.464 18.0633C30.2005 18.4017 31.0358 17.9817 31.3258 17.1248C31.6158 16.2678 31.254 15.2992 30.5162 14.9624C24.8936 12.3866 22.5638 10.4993 21.8174 9.61074C23.5874 9.00724 29.6406 9.18229 39.3887 11.7563L2.10287 55.0017C0.746374 56.5772 0 58.6694 0 60.8951C0 63.1226 0.746374 65.2164 2.10287 66.7903L28.4934 97.4412C29.847 99.0149 31.65 99.882 33.5663 99.882C35.4841 99.882 37.2855 99.0151 38.642 97.4397L81.2731 47.8595C84.5875 44.0117 86 40.1689 86 35.0107V8.33594C86.0002 3.73942 82.7805 0 78.8229 0Z" fill="#D6A443"/>
<path d="M46.9479 43.8352C46.3868 43.1832 45.4794 43.1832 44.9183 43.8352L44.1431 44.7354C43.0077 43.8619 41.6527 43.3467 40.1914 43.3467C36.234 43.3467 33.0142 47.0861 33.0142 51.6826C33.0142 54.1668 33.8969 56.1306 34.6664 57.566C35.3841 58.9047 35.8851 60.8119 35.8851 61.6856C35.8851 64.4431 33.953 66.6871 31.5788 66.6871C29.2046 66.6871 27.2725 64.4431 27.2725 61.6856C27.2725 60.6736 27.5322 59.6983 28.0232 58.8648C28.471 58.1062 28.3031 57.0676 27.6499 56.5476C26.9954 56.029 26.1025 56.2225 25.6547 56.9811C24.835 58.3715 24.4015 59.9986 24.4015 61.6858C24.4015 63.383 24.8451 64.9567 25.5972 66.2755L24.8221 67.1757C24.2607 67.8275 24.2607 68.8813 24.8221 69.5331C25.102 69.8582 25.4695 70.0215 25.8369 70.0215C26.2045 70.0215 26.5718 69.8582 26.8518 69.5331L27.6269 68.6328C28.7623 69.5063 30.1173 70.0215 31.5786 70.0215C35.536 70.0215 38.7559 66.2821 38.7559 61.6856C38.7559 60.0619 38.0611 57.5877 37.1036 55.8022C36.2496 54.2101 35.8849 52.9781 35.8849 51.6826C35.8849 48.9252 37.817 46.6811 40.1912 46.6811C41.3425 46.6811 42.3831 47.2147 43.1554 48.0731C43.1798 48.1032 43.1883 48.1431 43.2127 48.1732C43.2386 48.2015 43.2729 48.2115 43.2988 48.2398C44.0382 49.1367 44.4974 50.3455 44.4974 51.6824C44.4974 53.0193 44.0481 54.2781 43.2327 55.2251C42.6714 55.8753 42.6714 56.9307 43.2312 57.5824C43.7895 58.2344 44.6997 58.2326 45.2609 57.5842C46.6189 56.007 47.3681 53.9114 47.3681 51.6824C47.3681 49.9852 46.9246 48.4115 46.1725 47.0928L46.9476 46.1925C47.5093 45.5407 47.5093 44.4869 46.9479 43.8352Z" fill="#D6A443"/>
<path d="M194.754 137.286C198.296 137.286 200.452 135.174 200.452 132.578C200.452 130.202 199.066 129.014 197.152 128.2L194.93 127.254C193.61 126.726 192.312 126.198 192.312 124.79C192.312 123.514 193.39 122.722 195.04 122.722C196.47 122.722 197.592 123.272 198.604 124.174L199.946 122.546C198.714 121.292 196.932 120.5 195.04 120.5C191.96 120.5 189.716 122.414 189.716 124.966C189.716 127.32 191.454 128.552 193.016 129.212L195.26 130.18C196.756 130.84 197.856 131.302 197.856 132.776C197.856 134.14 196.756 135.064 194.798 135.064C193.236 135.064 191.652 134.316 190.486 133.15L188.99 134.91C190.464 136.406 192.532 137.286 194.754 137.286ZM203.299 137H205.829V124.9H203.299V137ZM204.553 122.634C205.477 122.634 206.137 122.04 206.137 121.116C206.137 120.214 205.477 119.62 204.553 119.62C203.629 119.62 202.991 120.214 202.991 121.116C202.991 122.04 203.629 122.634 204.553 122.634ZM208.515 137H217.865V134.976H211.705L217.667 126.242V124.9H209.175V126.924H214.499L208.515 135.636V137ZM225.202 137.286C226.786 137.286 228.172 136.758 229.294 136.01L228.414 134.404C227.534 134.976 226.61 135.306 225.532 135.306C223.442 135.306 221.99 133.92 221.792 131.61H229.646C229.712 131.302 229.778 130.818 229.778 130.312C229.778 126.902 228.04 124.592 224.828 124.592C222.012 124.592 219.306 127.034 219.306 130.95C219.306 134.954 221.924 137.286 225.202 137.286ZM221.77 129.85C222.012 127.738 223.354 126.572 224.872 126.572C226.632 126.572 227.578 127.782 227.578 129.85H221.77Z" fill="#404040"/>
<g clip-path="url(#clip0)">
<path d="M352.809 62.2515C354.076 62.2515 355.103 61.0347 355.103 59.5337C355.103 58.0327 354.076 56.8159 352.809 56.8159C351.542 56.8159 350.514 58.0327 350.514 59.5337C350.514 61.0347 351.542 62.2515 352.809 62.2515Z" fill="#D6A443"/>
<path d="M378.191 62.2515C379.458 62.2515 380.485 61.0347 380.485 59.5337C380.485 58.0327 379.458 56.8159 378.191 56.8159C376.924 56.8159 375.897 58.0327 375.897 59.5337C375.897 61.0347 376.924 62.2515 378.191 62.2515Z" fill="#D6A443"/>
<path d="M352.809 50.8184C351.556 50.8184 350.377 51.3964 349.491 52.4463C349.012 53.0133 349.012 53.9326 349.491 54.4998C349.97 55.067 350.746 55.0668 351.224 54.4998C351.648 53.9985 352.21 53.7224 352.809 53.7224C353.407 53.7224 353.97 53.9985 354.393 54.4998C354.632 54.7833 354.946 54.9252 355.26 54.925C355.573 54.925 355.887 54.7833 356.127 54.4998C356.605 53.9328 356.605 53.0134 356.127 52.4463C355.24 51.3966 354.062 50.8184 352.809 50.8184Z" fill="#D6A443"/>
<path d="M374.873 52.4464C374.394 53.0135 374.394 53.9328 374.873 54.5C375.352 55.0672 376.128 55.067 376.607 54.5C377.48 53.465 378.902 53.4652 379.775 54.5C380.014 54.7835 380.328 54.9252 380.642 54.9252C380.956 54.9252 381.269 54.7835 381.509 54.5C381.987 53.933 381.987 53.0136 381.509 52.4464C379.68 50.2797 376.703 50.2795 374.873 52.4464Z" fill="#D6A443"/>
<path d="M367.858 71.0732C367.228 71.8201 366.39 72.2316 365.498 72.2316C364.607 72.2316 363.768 71.8203 363.138 71.0732C362.66 70.5062 361.884 70.5062 361.405 71.0732C360.926 71.6402 360.926 72.5595 361.405 73.1267C362.498 74.4223 363.952 75.1356 365.498 75.1356C367.044 75.1356 368.498 74.4221 369.591 73.1267C370.07 72.5597 370.07 71.6404 369.591 71.0732C369.112 70.5062 368.337 70.5062 367.858 71.0732Z" fill="#D6A443"/>
<path d="M394.421 58.1333C394.421 54.1891 392.014 50.9003 388.849 50.2144V25.9234C388.849 22.7722 387.526 19.8508 385.309 18.1085C383.227 16.4723 380.643 16.1009 378.306 17.0765L370.61 13.9823C364.697 11.6044 358.473 11.3605 352.61 13.2766C344.935 15.7851 340.535 21.0897 339.856 28.63C339.255 29.5691 338.777 30.6238 338.453 31.7618L337.856 33.8547C337.536 34.9784 337.889 36.1592 338.735 36.793C339.581 37.4268 340.633 37.2987 341.353 36.4738C341.599 36.1919 341.867 35.9545 342.15 35.7559V50.2145C338.986 50.9004 336.578 54.1891 336.578 58.1335C336.578 62.2356 339.182 65.6288 342.534 66.1221C343.375 71.6281 345.587 76.7071 348.97 80.7714C353.385 86.0778 359.256 89 365.5 89C365.501 89 365.501 89 365.502 89C371.738 88.9993 377.601 86.1221 382.01 80.8987C385.455 76.8183 387.69 71.6877 388.504 66.1163C391.838 65.6023 394.421 62.2194 394.421 58.1333ZM383.954 20.5285C385.507 21.7491 386.398 23.7155 386.398 25.9234V44.9247C382.593 44.2243 379.672 40.3176 379.672 35.6175L379.571 19.6526C381.067 19.1852 382.628 19.4865 383.954 20.5285ZM340.537 33.5264L340.776 32.6913C341.4 30.5033 342.785 28.7269 344.578 27.818C346.37 26.909 348.411 26.9468 350.179 27.922C353.89 29.9698 358.378 28.8627 361.09 25.2297L361.394 24.823C361.843 24.2224 361.795 23.3047 361.288 22.7735C360.781 22.2422 360.006 22.2983 359.558 22.8989L359.254 23.3057C357.255 25.9828 353.949 26.7985 351.213 25.2895C348.815 23.9661 346.045 23.9148 343.613 25.1484C343.391 25.2608 343.176 25.3862 342.964 25.5174C344.389 21.0178 347.837 17.8492 353.262 16.0759C358.65 14.315 364.376 14.542 369.823 16.732L377.119 19.666L377.215 27.1687C373.966 32.4016 369.227 35.944 363.828 37.162C358.299 38.4091 352.658 37.0894 347.945 33.446C345.642 31.666 342.739 31.742 340.537 33.5264ZM339.03 58.1333C339.03 55.7986 340.349 53.8232 342.15 53.1946V61.0649C342.15 61.7448 342.171 62.4209 342.211 63.0926C340.379 62.4877 339.03 60.4943 339.03 58.1333ZM380.277 78.8448C376.33 83.5199 371.083 86.0949 365.502 86.0956C365.501 86.0956 365.501 86.0956 365.5 86.0956C359.918 86.0956 354.667 83.4804 350.715 78.7325C346.773 73.9949 344.602 67.7204 344.602 61.0647V35.0713C345.296 35.1327 345.985 35.3987 346.605 35.8781C351.852 39.9341 358.131 41.4034 364.286 40.0149C369.282 38.8878 373.771 35.9741 377.22 31.6771V35.6173C377.22 41.921 381.237 47.1312 386.398 47.8523V61.3393C386.398 67.9522 384.224 74.1691 380.277 78.8448ZM388.802 63.0879C388.832 62.5082 388.849 61.9254 388.849 61.3395V53.1946C390.651 53.8232 391.97 55.7986 391.97 58.1333C391.97 60.4883 390.627 62.4777 388.802 63.0879Z" fill="#D6A443"/>
</g>
<path d="M538.462 75.8385C536.032 75.8385 534.026 73.636 533.771 70.8163L538.499 67.3716C538.869 67.1025 539.094 66.6232 539.094 66.1068C539.094 63.1402 537.071 60.7266 534.585 60.7266H530.416C527.93 60.7266 525.907 63.1402 525.907 66.1068C525.907 66.6234 526.133 67.1027 526.502 67.3716L531.231 70.8163C530.975 73.636 528.969 75.8385 526.539 75.8385C525.853 75.8385 525.297 76.5021 525.297 77.3205C525.297 78.1389 525.853 78.8025 526.539 78.8025C529.016 78.8025 531.204 77.3035 532.501 75.0264C533.798 77.3035 535.986 78.8025 538.462 78.8025C539.148 78.8025 539.704 78.1389 539.704 77.3205C539.704 76.5021 539.148 75.8385 538.462 75.8385ZM530.416 63.6903H534.585C535.48 63.6903 536.241 64.3866 536.508 65.3493L532.501 68.2689L528.493 65.3495C528.76 64.3868 529.521 63.6903 530.416 63.6903Z" fill="#D6A443"/>
<path d="M523.76 46.136C523.313 45.54 522.564 45.3151 522.012 45.6105L516.57 48.5195C515.962 48.8434 515.809 49.676 516.226 50.3779C516.642 51.0799 517.473 51.3859 518.08 51.0614L522.556 48.6691L524.056 50.6679C524.547 51.3224 525.39 51.5193 525.939 51.1076C526.487 50.6959 526.534 49.8314 526.042 49.1768L523.76 46.136Z" fill="#D6A443"/>
<path d="M548.258 49.0273L543.509 45.8209C542.99 45.4702 542.222 45.617 541.716 46.1639L539.41 48.6554C538.854 49.256 538.811 50.1206 539.314 50.5866C539.818 51.0525 540.676 50.9434 541.232 50.3427L542.654 48.8074L546.495 51.4006C547.065 51.7857 547.922 51.5667 548.409 50.9113C548.896 50.256 548.828 49.4122 548.258 49.0273Z" fill="#D6A443"/>
<path d="M559.277 36.8423C555.574 28.0159 549.188 21.793 540.783 18.807C539.485 14.7604 536.174 12 532.5 12C528.826 12 525.515 14.7604 524.217 18.807C515.812 21.793 509.426 28.0159 505.723 36.8421C496.739 58.2551 494 66.7478 494 73.1914C494 79.2153 498.107 84.1162 503.155 84.1162C508.204 84.1162 512.311 79.2155 512.311 73.1914V64.7218C513.797 65.9394 514.872 69.4641 516.411 74.8528L516.52 75.2327C519.019 83.9821 524.844 89 532.5 89C540.156 89 545.981 83.9821 548.481 75.2327L548.589 74.8528C550.128 69.4641 551.204 65.9394 552.69 64.7218V73.1914C552.69 79.2153 556.797 84.1162 561.845 84.1162C566.893 84.1162 571 79.2153 571 73.1914C571 66.7478 568.261 58.2551 559.277 36.8423ZM561.845 81.1521C558.166 81.1521 555.173 77.581 555.173 73.1912V44.5454C555.173 43.7269 554.617 43.0634 553.931 43.0634C553.245 43.0634 552.689 43.7269 552.689 44.5454V61.4807C551.304 61.9357 550.129 63.1867 549.124 65.2765C548.078 67.4514 547.225 70.4383 546.238 73.8968L546.13 74.2764C543.206 84.5083 536.335 86.0361 532.5 86.0361C528.664 86.0361 521.794 84.5083 518.87 74.2762L518.762 73.8968C517.774 70.4383 516.921 67.4514 515.876 65.2765C514.871 63.1867 513.696 61.9355 512.31 61.4807V44.5454C512.31 43.7269 511.754 43.0634 511.068 43.0634C510.383 43.0634 509.827 43.7269 509.827 44.5454V73.1914C509.827 77.581 506.834 81.1523 503.155 81.1523C499.476 81.1523 496.484 77.581 496.484 73.1914C496.484 67.3566 499.268 58.8465 507.944 38.1692C511.467 29.7731 517.379 24.1462 525.517 21.4445C525.93 21.3073 526.255 20.9252 526.376 20.4338C527.167 17.2134 529.686 14.9639 532.5 14.9639C535.314 14.9639 537.833 17.2132 538.624 20.4338C538.745 20.925 539.07 21.3071 539.483 21.4445C547.621 24.1462 553.534 29.7731 557.056 38.1692C565.732 58.8465 568.516 67.3566 568.516 73.1914C568.516 77.581 565.523 81.1521 561.845 81.1521Z" fill="#D6A443"/>
<path d="M210.818 74.3966H220.049M247.996 58.4628H238.061C237.374 58.4628 236.817 59.0578 236.817 59.7928V61.1228H235.058L230.614 52.8015V45.1889C230.614 44.4539 230.058 43.8589 229.37 43.8589H225.647C223.175 43.8589 221.923 45.6439 221.923 49.1702V59.7928H200.187C200.187 59.7928 200.187 59.7928 200.179 59.7928C197.781 59.7928 195.834 61.8753 195.834 64.4391C195.834 67.0028 197.781 69.0853 200.179 69.0853H209.942C209.672 69.6891 209.509 70.3629 209.509 71.0716C209.509 72.3754 210.016 73.5479 210.826 74.3879C210.016 75.2366 209.509 76.4091 209.509 77.7042C209.509 78.9992 210.016 80.1804 210.826 81.0204C210.016 81.8692 209.509 83.0417 209.509 84.3367C209.509 86.9005 211.456 88.983 213.854 88.983C213.862 88.983 213.862 88.983 213.87 88.983H217.553C217.561 88.983 217.569 88.983 217.569 88.983C217.586 88.983 217.594 88.983 217.602 88.983H230.606H230.614C230.794 88.983 230.966 88.9305 231.13 88.8518C231.138 88.843 231.154 88.8517 231.162 88.843L235.868 86.323H236.817V87.653C236.817 88.388 237.374 88.983 238.061 88.983H247.996V58.4628Z" stroke="#D6A443" stroke-width="3" stroke-miterlimit="10" stroke-linecap="round"/>
<path d="M171 42.5377H180.935C181.622 42.5377 182.179 41.9427 182.179 41.2077V39.8777H183.938L188.382 48.199V55.8116C188.382 56.5466 188.939 57.1416 189.626 57.1416H193.35C195.821 57.1416 197.073 55.3566 197.073 51.8303V41.2077H218.809C218.809 41.2077 218.809 41.2077 218.817 41.2077C221.215 41.2077 223.163 39.1252 223.163 36.5614C223.163 33.9977 221.215 31.9152 218.817 31.9152H209.054C209.324 31.3114 209.488 30.6376 209.488 29.9289C209.488 28.6251 208.98 27.4526 208.17 26.6126C208.98 25.7639 209.488 24.5914 209.488 23.2963C209.488 22.0013 208.98 20.8201 208.17 19.9801C208.98 19.1313 209.488 17.9588 209.488 16.6638C209.488 14.1 207.54 12.0175 205.142 12.0175C205.134 12.0175 205.134 12.0175 205.126 12.0175H188.39C188.374 12.0175 188.366 12.0263 188.349 12.0263C188.268 12.0263 188.194 12.0525 188.12 12.0788C188.038 12.0963 187.948 12.1138 187.875 12.1488C187.858 12.1575 187.85 12.1488 187.842 12.1575L183.136 14.6775H182.187V13.33C182.187 12.595 181.631 12 180.943 12H171V42.5377Z" stroke="#D6A443" stroke-width="3" stroke-miterlimit="10"/>
<path d="M248 58.4624V89.0002" stroke="#D6A443" stroke-width="3" stroke-miterlimit="10"/>
<path d="M210.82 81.0381H220.052" stroke="#D6A443" stroke-width="3" stroke-miterlimit="10" stroke-linecap="round"/>
<path d="M209.943 69.0845H220.047" stroke="#D6A443" stroke-width="3" stroke-miterlimit="10" stroke-linecap="round"/>
<path d="M387.892 137H397.132V134.91H393.964V121.248H392.05C391.126 121.82 390.048 122.216 388.53 122.48V124.086H391.434V134.91H387.892V137ZM411.936 137.286C414.026 137.286 415.676 136.45 416.974 134.954L415.61 133.348C414.642 134.404 413.52 135.064 412.024 135.064C409.164 135.064 407.36 132.71 407.36 128.86C407.36 125.054 409.296 122.722 412.09 122.722C413.41 122.722 414.422 123.316 415.258 124.174L416.644 122.546C415.654 121.468 414.07 120.5 412.046 120.5C407.954 120.5 404.742 123.668 404.742 128.948C404.742 134.25 407.866 137.286 411.936 137.286ZM419.625 137H422.155V128.42C423.211 127.342 423.981 126.77 425.103 126.77C426.533 126.77 427.149 127.606 427.149 129.696V137H429.679V129.388C429.679 126.308 428.535 124.592 425.961 124.592C424.311 124.592 423.101 125.494 422.045 126.506L422.155 124.108V119.466H419.625V137ZM436.149 137.286C437.601 137.286 438.899 136.56 439.999 135.614H440.087L440.285 137H442.353V129.718C442.353 126.506 440.967 124.592 437.953 124.592C436.017 124.592 434.323 125.384 433.069 126.176L434.015 127.892C435.049 127.232 436.237 126.66 437.513 126.66C439.295 126.66 439.801 127.892 439.823 129.3C434.785 129.85 432.585 131.192 432.585 133.788C432.585 135.922 434.059 137.286 436.149 137.286ZM436.919 135.284C435.841 135.284 435.027 134.8 435.027 133.612C435.027 132.248 436.237 131.324 439.823 130.906V133.876C438.833 134.778 437.975 135.284 436.919 135.284ZM445.943 137H448.473V129.454C449.221 127.54 450.409 126.858 451.399 126.858C451.883 126.858 452.191 126.924 452.609 127.056L453.071 124.856C452.697 124.68 452.301 124.592 451.707 124.592C450.409 124.592 449.133 125.516 448.275 127.078H448.209L448.011 124.9H445.943V137ZM457.182 137.286C458.634 137.286 459.932 136.56 461.032 135.614H461.12L461.318 137H463.386V129.718C463.386 126.506 462 124.592 458.986 124.592C457.05 124.592 455.356 125.384 454.102 126.176L455.048 127.892C456.082 127.232 457.27 126.66 458.546 126.66C460.328 126.66 460.834 127.892 460.856 129.3C455.818 129.85 453.618 131.192 453.618 133.788C453.618 135.922 455.092 137.286 457.182 137.286ZM457.952 135.284C456.874 135.284 456.06 134.8 456.06 133.612C456.06 132.248 457.27 131.324 460.856 130.906V133.876C459.866 134.778 459.008 135.284 457.952 135.284ZM471.905 137.286C473.291 137.286 474.721 136.78 475.843 135.79L474.787 134.118C474.061 134.734 473.159 135.218 472.147 135.218C470.145 135.218 468.737 133.524 468.737 130.95C468.737 128.398 470.189 126.682 472.235 126.682C473.049 126.682 473.731 127.034 474.391 127.628L475.645 125.978C474.765 125.208 473.643 124.592 472.103 124.592C468.913 124.592 466.119 126.924 466.119 130.95C466.119 134.976 468.627 137.286 471.905 137.286ZM482.175 137.286C483.055 137.286 483.869 137.066 484.551 136.846L484.089 134.976C483.737 135.13 483.209 135.262 482.791 135.262C481.537 135.262 481.031 134.514 481.031 133.062V126.924H484.177V124.9H481.031V121.556H478.919L478.633 124.9L476.741 125.032V126.924H478.501V133.04C478.501 135.592 479.447 137.286 482.175 137.286ZM491.501 137.286C493.085 137.286 494.471 136.758 495.593 136.01L494.713 134.404C493.833 134.976 492.909 135.306 491.831 135.306C489.741 135.306 488.289 133.92 488.091 131.61H495.945C496.011 131.302 496.077 130.818 496.077 130.312C496.077 126.902 494.339 124.592 491.127 124.592C488.311 124.592 485.605 127.034 485.605 130.95C485.605 134.954 488.223 137.286 491.501 137.286ZM488.069 129.85C488.311 127.738 489.653 126.572 491.171 126.572C492.931 126.572 493.877 127.782 493.877 129.85H488.069ZM498.902 137H501.432V129.454C502.18 127.54 503.368 126.858 504.358 126.858C504.842 126.858 505.15 126.924 505.568 127.056L506.03 124.856C505.656 124.68 505.26 124.592 504.666 124.592C503.368 124.592 502.092 125.516 501.234 127.078H501.168L500.97 124.9H498.902V137Z" fill="#404040"/>
<path d="M441.73 66.286C444.656 66.286 447.274 63.998 447.274 60.038C447.274 56.056 444.656 53.746 441.73 53.746C438.804 53.746 436.186 56.056 436.186 60.038C436.186 63.998 438.804 66.286 441.73 66.286ZM441.73 64.614C439.662 64.614 438.276 62.788 438.276 60.038C438.276 57.288 439.662 55.418 441.73 55.418C443.798 55.418 445.206 57.288 445.206 60.038C445.206 62.788 443.798 64.614 441.73 64.614ZM450.43 66H452.432V58.322C453.224 56.276 454.456 55.572 455.446 55.572C455.93 55.572 456.216 55.616 456.612 55.77L456.986 54.01C456.612 53.812 456.238 53.746 455.71 53.746C454.368 53.746 453.158 54.714 452.322 56.232H452.256L452.08 54.054H450.43V66Z" fill="#404040"/>
<line x1="116" y1="50" x2="141" y2="50" stroke="#404040" stroke-width="2"/>
<line x1="116" y1="64" x2="141" y2="64" stroke="#404040" stroke-width="2"/>
<line x1="278" y1="56.5" x2="303" y2="56.5" stroke="#404040" stroke-width="2"/>
<line x1="289.5" y1="70" x2="289.5" y2="45" stroke="#404040" stroke-width="2"/>
<defs>
<clipPath id="clip0">
<rect width="65" height="77" fill="white" transform="translate(333 12)"/>
</clipPath>
</defs>
</svg>
