<svg width="371" height="553" viewBox="0 0 371 553" fill="none" xmlns="http://www.w3.org/2000/svg">
<g opacity="0.8">
<path d="M111.954 211.023C114.332 197.023 120.624 189.823 131.011 188.764C136.353 187.164 138.8 181.365 141.248 175.567C143.966 168.777 147.925 165.897 154.033 171.006C157.793 177.319 159.09 186.312 165.402 189.613C166.759 192.042 167.2 194.657 166.724 197.457C166.274 199.109 165.333 200.443 164.237 201.288C149.539 202.283 138.191 213.209 125.977 222.021C125.036 223.356 123.694 224.043 122.197 224.241C118.312 223.674 115.304 220.954 112.655 216.914C111.789 214.801 111.414 213.005 111.954 211.023Z" fill="#F8AF5A"/>
<path d="M126.803 458.948C124.974 455.6 123.145 452.251 121.315 448.903C119.338 445.096 115.607 441.636 117.95 436.193C118.937 434.631 119.838 433.379 121.357 432.884C124.394 431.892 128.049 431.657 130.693 434.063C144.678 447.309 160.191 456.053 175.705 464.798C181.659 468.208 182.328 473.739 175.588 477.122C166.055 477.641 158.642 468.563 153.158 465.45C148.464 462.473 148.837 467.086 149.206 464.767C149.292 464.457 149.527 464.606 149.762 464.755C155.332 467.558 161.248 469.122 164.475 477.368C164.661 479.674 163.995 481.075 162.625 482.03C152.709 481.941 144.246 473.657 135.069 468.931C132.018 466.996 129.485 463.201 126.803 458.948Z" fill="#F4A13E"/>
<path d="M246.996 159.927C252.363 165.026 261.483 156.94 264.78 170.273C269.341 169.581 273.195 172.328 277.196 175.52C287.26 184.242 297.641 192.808 309.301 196.88C317.047 204.162 326.512 208.28 331.967 219.78C331.919 221.866 331.175 223.52 330.2 225.03C325.42 228.407 320.663 224.041 316.174 221.604C295.755 209.974 276.933 193.694 257.258 180.41C252.159 177.241 247.378 173.917 244.486 166.831C243.631 163.126 244.313 160.729 246.996 159.927Z" fill="#F89C2C"/>
<path d="M299.288 146.386C314.554 150.228 329.426 157.486 344.149 164.284C354.907 163.425 361.772 176.592 370.973 181.344C372.384 182.241 373.388 183.613 374.305 185.296C374.164 198.774 366.869 194.135 363.302 190.033C350.741 175.443 334.575 179.83 321.496 167.111C311.772 157.26 315.52 174.678 312.552 179.391C308.209 185.063 305.867 179.54 303.265 174.951C300.264 166.809 295.42 159.327 296.752 149.54C297.184 147.981 298.001 147.034 299.288 146.386Z" fill="#F8AE54"/>
<path d="M350.086 150.093C350.532 144.412 347.872 144.944 344.998 144.222C338.864 142.155 334.338 136.27 331.785 128.293C330.646 125.326 330.646 125.326 337.154 125.021C343.836 124.082 350.562 132.122 357.167 127.404C357.879 127.861 358.678 128 359.478 128.14C362.463 127.442 364.164 130.397 366.451 132.236C366.193 140.276 366.91 147.822 372.41 153.212C373.398 155.71 373.824 158.221 372.652 160.454C371.353 161.113 369.904 161.303 368.867 161.012C365.557 161.874 362.728 151.855 359.122 158.869C354.626 158.971 351.476 156.206 350.086 150.093Z" fill="#F8A94A"/>
<path d="M145.712 559.691C135.337 558.222 127.616 548.197 118.797 541.132C113.564 537.078 108.232 530.399 110.602 523.858C113.64 515.912 118.9 525.837 123.241 527.131C132.713 529.856 138.357 540.39 145.248 548.424C147.464 552.391 148.096 556.085 145.712 559.691Z" fill="#FCC079"/>
<path d="M248.11 163.185C247.357 164.897 246.519 166.918 245.532 168.48C243.385 172.224 240.199 172.757 236.717 172.372C234.666 171.801 232.789 170.61 230.911 169.419C221.054 163.168 209.422 165.273 201.056 152.673C200.462 150.838 200.659 149.139 201.559 147.887C217.785 146.141 233.458 151.34 248.11 163.185Z" fill="#F9BC73"/>
<path d="M104.029 414.385C100.364 409.673 93.3801 407.517 96.1088 397.531C102.85 387.783 91.0041 382.1 91.8579 373.645C92.3127 371.981 93.0151 370.476 93.8742 369.464C96.7648 367.413 99.8779 366.68 103.148 366.439C105.988 366.705 108.373 368.635 110.147 371.737C110.865 373.374 111.244 375.185 111.623 376.996C112.068 379.632 112.174 382.441 112.619 385.077C110.946 396.528 111.932 408.911 108.435 419.577C106.182 419.298 104.721 417.181 104.029 414.385Z" fill="#F9B768"/>
<path d="M141.383 501.564C137.141 499.589 137.903 490.647 133.158 489.48C131.66 487.761 130.4 486.196 128.902 484.477C125.397 474.676 129.107 471.404 134.73 469.364C144.546 471.53 153.044 478.508 161.806 484.523C162.172 486.268 161.972 488.026 161.294 489.475C156.29 496.442 149.374 483.691 144.307 489.863C141.817 492.789 145.068 499.408 141.383 501.564Z" fill="#FAAA4D"/>
<path d="M84.7804 314.301C79.3514 299.767 84.3567 291.158 91.454 283.5C95.8063 281.568 99.4902 283.15 102.781 287.239C104.838 293.688 99.7505 298.302 102.057 304.912C105.884 323.147 91.3982 316.982 87.9184 325.39C81.5252 324.037 86.2295 317.6 84.7804 314.301Z" fill="#F7AB4F"/>
<path d="M201.199 150.563C200.935 151.531 200.581 152.822 200.317 153.791C203.19 159.819 208.324 162.749 211.286 168.455C212.615 170.83 213.047 173.386 212.581 176.123C212.139 177.737 211.458 179.196 210.296 180.345C207.162 182.502 203.926 181.935 200.802 179.921C199.601 179.147 198.4 178.373 197.287 177.275C196.085 176.501 194.972 175.404 193.859 174.307C190.912 171.648 187.965 168.989 185.94 165.026C184.635 161.527 184.228 157.848 186.641 155.227C190.353 148.887 194.521 143.98 201.199 150.563Z" fill="#F7AD53"/>
<path d="M187.229 158.078C187.09 160.675 187.041 162.945 186.902 165.542C187.273 167.317 187.313 169.261 187.11 171.049C186.665 172.68 185.735 173.999 184.805 175.317C181.53 178.959 177.731 180.343 173.254 178.987C169.109 177.461 165.651 174.461 162.969 169.659C159.001 148.676 170.508 154.572 177.992 153.265C181.792 151.881 184.433 154.738 187.229 158.078Z" fill="#FAC687"/>
<path d="M144.741 550.529C148.912 549.502 152.937 555.019 156.982 552.436C158.273 551.784 159.713 551.596 161.215 552.186C165.4 554.117 169.151 557.615 171.91 562.694C173.128 565.315 173.465 568.111 172.598 571.245C170.897 572.374 169.284 573.189 167.584 574.317C160.231 567.784 152.792 561.564 144.658 557.852C144.794 555.357 144.606 553.025 144.741 550.529Z" fill="#FCC787"/>
<path d="M279.082 154.403C284.646 161.737 293.481 163.282 297.191 174.308C290.263 173.99 282.328 168.139 277.654 179.039C273.624 175.321 269.505 171.922 265.474 168.205C268.77 161.304 271.288 153.152 279.082 154.403Z" fill="#F9BA6E"/>
<path d="M103.876 286.276C100.162 286.198 96.3834 285.304 92.9882 281.95C90.9638 272.518 96.896 265.518 94.8716 256.086C95.6941 256.231 96.093 256.875 96.4918 257.52C100.964 256.926 104.628 259.293 107.574 264.292C108.003 271.146 107.854 278.013 109.106 285.011C107.655 287.169 106.075 287.696 103.876 286.276Z" fill="#FAC788"/>
<path d="M358.012 127.032C358.468 135.577 354.608 135.348 350.12 134.341C345.243 132.709 341.718 128.194 337.93 124.636C344.301 109.598 351.088 119.584 358.012 127.032Z" fill="#FAC381"/>
<path d="M299.913 151.22C293.157 145.413 283.829 150.955 277.817 140.427C288.513 130.934 292.09 132.108 301.083 148.998C300.672 149.478 300.411 150.424 299.913 151.22Z" fill="#FBD7AB"/>
<path d="M95.6572 373.298C94.0576 371.885 92.3694 370.795 90.5286 369.226C88.2941 367.021 85.8183 364.661 83.5838 362.456C82.806 356.995 84.3514 353.414 87.8015 352.207C89.1845 352.337 90.479 352.79 91.5963 353.893C92.7135 354.995 93.4125 356.591 94.1114 358.186C94.264 358.666 94.6577 359.301 94.9629 360.261C95.7258 362.661 96.4888 365.061 96.922 367.629C96.986 368.433 97.05 369.238 96.8728 369.886C96.5185 371.184 95.923 372.325 95.6572 373.298Z" fill="#FCE4C6"/>
<path d="M82.4913 342.618C79.4024 339.495 78.6693 335.999 80.3799 331.809C81.3623 331.307 82.4962 331.282 83.6936 332.052C86.24 334.07 88.6105 336.73 90.6535 339.557C92.4569 342.23 93.6055 345.238 93.7717 348.746C93.5957 349.389 93.3318 350.353 93.1558 350.996C92.0854 351.819 90.9515 351.844 89.7541 351.074C86.1373 349.879 83.9428 346.576 82.4913 342.618Z" fill="#FCE8CE"/>
<path d="M325.084 123.487C325.02 122.672 324.865 122.185 324.71 121.698C325.044 121.527 325.623 121.514 325.867 121.672C326.111 121.829 326.176 122.645 325.997 123.303C325.752 123.145 325.418 123.316 325.084 123.487Z" fill="#F7A544"/>
<path d="M122.858 217.284C123.056 215.568 122.782 213.552 123.451 212.137C126.561 204.912 138.985 216.146 137.76 199.528C145.402 199.979 152.646 196.862 160.326 199.179C164.407 198.465 167.386 200.732 169.994 205.341C176.205 219.98 186.431 226.13 196.744 231.966C214.775 241.986 229.138 259.243 242.077 279.644C232.989 290.425 228.81 270.451 222.125 273.556C223.751 275.698 227.895 275.761 230.613 278.967C234.188 283.087 237.292 286.907 232.941 292.604C229.11 296.423 224.682 298.389 219.508 298.038C214.446 296.284 209.224 298.112 203.988 296.985C193.949 293.165 185.731 282.77 176.101 278.474C172.887 276.057 170.082 273.164 167.45 269.645C163.364 263.358 158.076 257.409 158.294 247.604C151.934 232.501 143.282 223.672 130.653 225.199C129.301 225.073 127.949 224.948 126.77 224.197C124.734 222.531 123.43 220.227 122.858 217.284Z" fill="#F6941E"/>
<path d="M170.799 203.919C167.721 201.295 164.412 198.527 161.335 195.902C161.908 194.844 162.164 193.942 162.738 192.884C165.069 190.444 167.987 189.784 171.027 190.616C186.096 203.893 201.848 214.764 217.344 226.537C221.813 230.028 226.051 233.375 230.947 235.363C243.267 241.974 256.075 247.827 267.969 255.942C275.564 259.964 283.903 262.327 288.753 273.131C291.941 281.132 300.28 283.495 302.09 293.467C300.567 301.718 295.903 299.875 291.641 297.575C287.465 294.974 283.801 290.569 279.284 289.171C277.342 288.316 275.486 287.16 273.716 285.703C265.788 272.275 256.757 282.926 248.186 280.419C247.282 278.795 246.696 277.014 246.195 274.933C231.918 257.904 217.471 241.477 199.985 230.941C189.313 224.295 178.153 218.406 170.799 203.919Z" fill="#FA9822"/>
<path d="M171.075 191.15C168.94 190.889 167.039 190.778 164.99 190.207C164.631 188.522 164.358 186.528 163.765 184.695C163.392 180.086 156.11 179.478 158.625 173.421C160.622 169.222 164.179 173.298 167.167 174.463C169.451 175.182 171.624 177.288 173.784 176.471C176.671 175.023 179.645 173.264 182.619 171.506C183.174 171.493 183.495 171.332 184.137 171.011C184.606 171.308 185.075 171.605 185.544 171.903C187.014 173.563 188.718 175.372 190.595 176.562C191.533 177.156 192.323 177.293 193.348 177.578C194.286 178.173 195.694 179.065 196.891 178.731C197.767 178.557 198.644 178.384 199.52 178.211C202.507 179.376 205.261 180.392 208.014 181.409C209.445 181.223 210.618 181.967 211.619 183.33C216.007 196.313 229.386 193.863 233.515 207.775C226.809 223.927 220.53 206.831 213.037 204.996C212.409 208.241 217.114 214.139 212.067 216.405C200.365 214.817 190.819 205.487 181.446 195.537C178.037 191.92 175.443 187.36 171.075 191.15Z" fill="#F89824"/>
<path d="M174.573 179.014C170.296 182.3 165.775 178.258 160.941 177.411C162.24 180.889 163.299 184.213 164.359 187.537C157.85 185.613 154.007 180.121 154.706 170.379C155.209 169.571 155.712 168.762 156.215 167.953C158.28 169.66 160.282 170.571 162.508 168.607C166.551 172.341 170.443 175.6 174.573 179.014Z" fill="#F6A33F"/>
<path d="M121.635 229.238C118.446 225.736 113.276 225.385 113.446 217.769C116.571 220.496 119.697 223.222 122.823 225.949C122.948 227.5 122.601 228.75 121.635 229.238Z" fill="#F39B33"/>
<path d="M121.27 228.788C121.628 227.477 122.14 226.65 122.498 225.339C123.099 224.185 123.367 223.201 123.968 222.047C125.584 223.476 127.199 224.905 128.724 226.662C129.43 228.274 128.983 229.914 128.138 230.911C126.627 232.249 124.898 232.288 123.258 232C121.951 231.542 121.067 230.585 120.605 229.129L121.27 228.788Z" fill="#F89F36"/>
<path d="M159.045 482.562C159.624 481.479 159.882 480.555 160.46 479.472C160.804 478.24 161.296 477.465 161.64 476.233C171.785 475.399 179.72 488.38 189.927 488.309C199.924 487.019 209.7 488.488 218.668 497.775C227.057 508.146 235.901 515.906 247.77 515.799C254.972 515.641 262.867 519.904 268.276 529.117C264.697 536.997 271.606 542.811 271.844 549.842C266.22 557.155 260.911 550.541 255.615 546.833C253.977 545.798 253.017 546.278 254.655 547.313C255.123 547.609 255.16 549.443 255.05 550.823C251.358 553.198 247.751 555.266 249.799 562.716C248.838 563.196 247.496 563.073 246.24 562.642C232.754 553.759 223.23 537.6 212.056 524.384C208.595 520.024 205.133 515.664 200.577 514.234C198.471 512.903 196.451 511.265 192.731 507.828C196.833 511.868 199.235 514.11 200.012 518.223C199.816 519.91 199.152 521.302 198.106 522.089C186.863 518.971 177.256 510.003 167.046 503.191C160.814 498.891 161.819 489.385 159.045 482.562Z" fill="#FCA946"/>
<path d="M219.542 498.967C210.955 493.615 202.087 490.214 192.928 492.653C187.772 484.834 177.135 486.706 175.25 473.133C176.629 471.159 180.671 469.427 175.248 466.401C168.811 463.098 162.568 458.144 156.083 456.936C142.733 453.93 134.886 433.453 120.744 434.203C119.021 430.649 118.543 427.518 121.657 425.208C128.606 426.705 135.959 427.745 142.177 433.746C146.381 442.034 153.307 444.579 159.17 448.942C161.174 450.545 159.645 445.341 161.233 444.56C163.138 443.622 164.933 444.032 167.107 445.033C182.927 456.664 197.343 471.316 214.504 479.178C218.108 482.841 219.783 488.49 222.349 492.923C223.022 494.405 223.523 496.489 223.878 498.127C222.645 500.546 221.583 502.364 219.542 498.967Z" fill="#F79D32"/>
<path d="M174.659 475.104C178.832 484.396 189.77 482.378 192.31 494.533C181.59 493.867 172.686 485.866 163.782 477.866C158.329 473.068 152.877 468.27 147.339 463.771C157.022 465.204 166.023 469.034 174.659 475.104Z" fill="#EA942E"/>
<path d="M123.488 427.667C123.504 430.803 123.363 433.447 123.378 436.583C122.768 437.753 122.496 438.749 121.886 439.919C113.098 436.984 112.972 423.616 107.275 416.814C103.705 404.351 108.701 393.506 108.12 381.799C116.53 382.926 115.159 392.202 116.671 399.431C117.12 409.49 119.168 419.017 123.488 427.667Z" fill="#F6A94C"/>
<path d="M231.261 166.371C232.886 167.384 234.426 168.699 236.283 169.858C247.158 174.867 255.689 186.215 265.44 192.296C262.616 188.762 255.91 190.253 257.629 180.333C273.257 186.888 286.578 201.578 301.522 210.543C310.576 216.19 319.374 222.741 328.88 225.832C335.089 235.733 329.018 236.91 324.486 239.403C319.624 239.207 314.578 236.769 309.814 239.117C302.325 240.475 295.886 237.168 288.737 230.582C274.146 216.518 259.493 201.707 242.753 192.331C235.556 187.842 228.676 183.197 223.457 174.624C220.973 163.146 227.853 167.791 231.261 166.371Z" fill="#FC9A24"/>
<path d="M310.355 177.774C310.586 170.947 305.317 160.986 311.434 157.904C316.82 155.458 323.647 159.802 328.432 166.518C329.969 168.965 330.343 173.608 333.068 172.772C346.07 167.831 355.75 179.864 366.147 188.315C369.12 190.575 371.461 189.127 373.503 186.756C384.598 181.702 391.221 198.765 401.206 200.713C405.678 203.56 411.228 204.521 412.149 213.184C406.036 223.243 398.132 220.783 390.301 215.066C383.325 210.26 377.599 202.945 370.253 200.473C361.037 199.748 354.342 185.942 344.41 188.799C339.459 196.662 334.582 201.267 330.548 185.852C329.381 181.072 325.999 179.286 323.558 178.1C329.707 187.886 333.405 200.518 339.294 211.24C337.799 217.631 334.652 215.995 331.443 213.586C323.054 207.881 315.098 200.616 307.638 192.564C305.889 188.882 305.405 185.637 308.859 184.165C311.608 182.243 312.363 180.52 310.355 177.774Z" fill="#F59726"/>
<path d="M311.256 183.21C313.818 185.936 317.133 186.944 318.706 191.238C317.424 198.841 307.955 185.139 308.629 197.645C296.298 198.228 287.102 186.529 276.956 178.252C277.713 158.603 277.713 158.603 295.976 173.502C298.5 174.373 301.258 175.394 303.782 176.265C306.257 179.302 306.496 186.408 311.256 183.21Z" fill="#F59E36"/>
<path d="M329.502 217.397C331.984 216.689 334.71 216.138 337.193 215.429C344.794 213.79 350.991 216.251 353.265 228.894C352.586 245.022 343.971 244.081 335.511 243.625C331.171 242.748 326.653 242.526 323.654 236.736C323.346 235.767 323.038 234.798 322.73 233.828C325.927 230.499 331.136 229.24 328.276 220.843C328.633 219.533 329.234 218.379 329.502 217.397Z" fill="#FCA132"/>
<path d="M258.839 179.764C258.842 186.611 264.752 187.091 267.409 195.248C256.593 184.834 243.791 185.417 237.052 169.285C239.078 166.959 241.547 165.992 244.435 167.451C249.4 171.298 254.193 175.758 258.839 179.764Z" fill="#F89927"/>
<path d="M377.378 141.949C384.522 150.171 392.648 153.086 401.285 154.229C410.835 172.974 427.416 174.833 440.184 186.169C446.915 192.05 455.126 194.67 462.451 198.483C465.258 201.949 467.494 206.455 471.527 207.546C468.249 220.831 462.259 213.319 455.943 209.779C425.95 194.101 399.307 168.661 369.654 151.801C366.519 145.698 360.762 144.937 357.141 139.578C358.901 134.402 364.295 137.374 365.57 132.942C369.639 135.795 373.393 138.801 377.378 141.949Z" fill="#F89A29"/>
<path d="M399.35 199.719C390.785 195.055 383.592 185.511 374.513 182.677C373.519 181.334 372.905 180.59 372.058 179.699C369.885 174.745 361.285 175.083 365.133 165.299C371.034 165.778 375.392 171.745 380.778 174.054C387.296 182.097 399.821 182.431 399.35 199.719Z" fill="#F5A543"/>
<path d="M197.455 578.282C197.247 584.027 195.786 585.3 191.485 581.828C186.093 577.294 181.567 569.638 174.79 570.1C173.762 569.812 172.82 569.213 172.027 569.075C171.431 567.227 171.158 565.216 170.562 563.368C178.051 552.342 184.822 562.895 191.799 567.704C194.452 570.127 196.932 573.174 197.455 578.282Z" fill="#E99533"/>
<path d="M167.107 271.757C170.224 274.47 173.577 277.331 176.608 280.354C177.054 281.735 176.795 282.668 176.536 283.601C176.042 284.384 175.634 284.857 175.634 284.857C165.842 289.246 161.124 276.371 154.308 272.041C156.351 276.632 163.796 277.703 161.525 286.87C157.174 289.593 153.437 286.122 149.528 283.273C146.41 280.561 143.465 277.227 140.928 273.42C137.437 266.08 131.624 263.119 126.65 258.13C122.146 253.44 117.642 248.75 117.279 240.104C117.625 238.861 118.119 238.077 118.7 236.982C119.429 236.348 119.837 235.876 120.566 235.241C122.087 234.744 123.435 234.869 125.018 235.142C126.514 235.727 128.011 236.312 129.421 237.208C142.448 248.045 157.242 254.515 167.107 271.757Z" fill="#F69622"/>
<path d="M117.476 242.297C123.687 251.099 129.488 260.382 138.537 263.943C141.79 265.282 142.104 269.197 141.857 273.125C141.296 273.137 140.649 273.466 140.088 273.478C130.589 268.515 121.042 265.75 111.286 268.793C110.015 268.351 109.005 266.962 108.642 265.245C104.877 261.721 101.024 258.513 97.4957 255.141C103.012 248.271 108.466 240.617 117.476 242.297Z" fill="#F69F36"/>
<path d="M120.391 229.875C121.366 230.504 122.341 231.134 123.56 231.922C123.624 232.736 124.022 233.379 124.087 234.193C123.46 236.49 122.525 237.816 121.013 239.156L120.306 237.541C114.61 234.248 118.366 232.041 120.391 229.875Z" fill="#FBD5A9"/>
<path d="M366.906 153.39C373.427 149.66 380.158 153.855 385.301 158.832C408.147 182.282 435.385 192.173 459.085 212.613C463.239 216.264 466.878 214.99 469.576 210.295C472.043 212.187 474.511 214.079 476.746 215.827C509.069 236.681 540.135 261.002 573.311 278.846C573.946 278.533 574.642 278.967 575.168 280.003C577.195 280.559 579.076 280.668 580.933 281.825C583.144 284.621 586.919 287.682 583.293 291.798C580.07 295.458 576.444 299.574 571.594 295.489C566.365 290.813 560.515 289.292 554.75 287.47C547.64 282.684 540.189 279.103 533.312 274.462C508.928 256.431 483.521 242.012 457.561 220.873C460.909 225.44 462.936 225.995 464.708 227.453C467.213 231.14 469.083 235.139 467.716 239.956C461.281 243.384 456.087 233.77 449.639 234.357C455.649 239.165 462.428 241.265 465.912 250.167C466.474 252.997 465.791 255.406 464.497 257.079C461.53 259.835 457.952 261.856 454.46 263.576C449.722 264.874 446.899 261.343 445.139 255.995C434.594 240.212 428.03 221.951 420.684 203.557C417.641 195.992 411.497 193.58 406.012 189.807C393.503 180.948 379.676 174.81 368.765 161.279C367.922 160.399 367.629 159.508 367.567 158.761C367.298 156.822 366.943 155.184 366.906 153.39Z" fill="#F2921F"/>
<path d="M366.827 161.271C364.549 159.445 362.358 157.305 360.08 155.479C364.145 148.819 365.283 158.803 368.231 159.206C368.443 160.453 368.27 161.082 367.946 161.246C367.623 161.409 367.063 161.422 366.827 161.271Z" fill="#FDEDDA"/>
<path d="M366.531 161.109C367.192 160.771 367.701 159.95 367.968 158.973C368.783 159.116 369.751 159.741 370.388 160.535L370.719 160.366C370.072 163.779 368.901 164.938 367.015 161.422L366.531 161.109Z" fill="#FDEDDA"/>
<path d="M147.354 522.429C147.099 519.228 146.996 516.505 146.741 513.304C150.443 511.134 154.576 511.521 158.709 511.907C164.676 513.855 169.609 518.552 174.364 523.895C178.488 528.451 180.969 533.846 175.424 538.623C173.492 541.554 166.868 539.942 170.413 548.68C168.241 551.455 165.902 550.707 163.436 548.358C158.754 539.646 154.096 529.811 147.354 522.429Z" fill="#EE9B38"/>
<path d="M147.06 523.641C158.329 523.703 160.572 536.134 163.646 547.585C164.14 550.934 163.284 553.034 161.076 553.885C160.116 553.267 159.157 552.649 158.197 552.03C156.729 545.023 151.177 546.75 148.348 542.654C144.798 538.095 139.129 534.064 144.891 526.411C145.484 525.277 146.316 524.298 147.06 523.641Z" fill="#F8AA4B"/>
<path d="M159.07 513.639C156.083 520.429 152.358 516.513 148.695 513.396C145.273 510.433 142.178 507.303 140.597 501.738C142.374 498.336 137.082 491.895 142.242 489.536C150.849 489.019 157.038 495.279 161.929 505.251C162.488 509.399 161.694 512.298 159.07 513.639Z" fill="#F0A145"/>
<path d="M232.865 168.366C231.167 173.462 226.951 170.795 224.451 172.844C219.067 176.335 214.541 169.842 209.66 168.569C204.828 165.15 201.708 159.546 200.275 152.831C210.877 160.264 222.436 160.316 232.865 168.366Z" fill="#F89C2C"/>
<path d="M108.365 374.38C108.706 373.188 109.278 372.138 109.533 371.244C109.265 369.323 109.459 367.689 110.117 366.341C111.005 365.137 112.272 364.518 113.599 364.638C118.714 366.753 123.464 371.099 128.641 373.954C140.455 384.079 152.209 393.465 165.022 401.05C182.22 415.211 200.356 426.092 218.211 438.906C221.049 441.366 223.486 444.278 224.802 448.252C225.301 450.316 224.79 452.105 223.585 453.464C206.475 452.342 191.615 438.576 175.429 431.358C166.635 425.912 158.329 419.714 149.45 414.566C141.143 408.368 133.092 401.276 125.041 394.184C118.5 389.431 113.676 381.53 108.365 374.38Z" fill="#FDAD4C"/>
<path d="M108.316 376.417C114.87 382.123 121.336 388.148 127.652 393.702C129.008 397.944 129.887 401.88 125.592 403.243C121.885 403.486 118.353 403.091 115.044 399.843C112.999 394.034 115.273 385.754 109.409 381.614C109.044 379.882 108.68 378.15 108.316 376.417Z" fill="#E8922A"/>
<path d="M112.606 369.369C112.098 370.189 111.743 371.49 111.146 372.635C108.906 370.424 106.336 368.382 103.855 366.015C103.791 365.209 103.727 364.402 103.662 363.596C103.84 362.945 104.259 362.451 104.437 361.8C104.856 361.306 105.187 361.137 105.848 360.798C106.839 360.291 107.984 360.264 109.128 360.238C110.184 360.537 111.062 361.486 111.94 362.436C112.705 364.842 112.083 367.119 112.606 369.369Z" fill="#F7AF57"/>
<path d="M103.994 367.058C102.166 371.659 99.5282 371.883 96.2989 369.026C97.3816 360.859 99.7115 359.665 103.994 367.058Z" fill="#F8A84A"/>
<path d="M161.209 504.992C154.773 499.486 148.424 493.672 142.222 488.314C143.992 486.902 137.433 479.872 144.433 481.398C149.624 482.505 153.908 488.821 159.257 486.415C161.767 487.276 164.793 486.294 166.934 489.452C170.369 494.871 165.325 494.218 164.637 496.675C163.348 501.282 167.518 502.107 169.536 503.741C179.097 510.858 189.579 515.665 198.452 525.238C202.499 524.539 205.538 526.457 207.951 531.593C208.938 536.913 206.146 538.042 203.588 539.319C186.525 535.419 173.063 522.589 161.209 504.992Z" fill="#FEAD4B"/>
<path d="M86.5842 322.664C89.5109 317.101 89.5793 306.735 98.2223 310.78C99.7314 311.374 97.3714 305.774 97.9182 302.778C101.566 293.587 106.281 297.721 111.234 302.006C119.199 318.63 131.933 326.038 143.236 336.619C145.446 341.751 145.499 346.618 143.158 351.068C140.604 354.267 137.885 354.014 134.892 351.726C125.098 341.739 114.52 334.597 102.922 330.147C101.152 330.501 99.1447 330.704 97.2245 330.59C95.0673 330.324 92.3491 330.072 89.8921 328.871C87.9962 327.657 86.5985 325.647 85.849 323.308L86.5842 322.664Z" fill="#F4931F"/>
<path d="M111.888 304.352C107.906 300.259 103.811 297.618 99.4795 302.062C92.5918 293.048 103.186 292.644 102.345 286.388C103.574 286.038 104.956 286.167 106.185 285.817C110.305 287.332 113.918 289.662 116.912 294.26C118.475 300.982 117.414 304.868 111.888 304.352Z" fill="#F7A138"/>
<path d="M208.225 169.01C213.794 162.861 217.814 172.873 222.601 173.373C229.62 179.553 236.87 185.879 243.889 192.059C255.167 197.695 264.269 209.106 274.863 217.168C280.009 226.102 274.205 225.322 270.984 225.09C262.511 224.067 254.857 218.202 247.373 211.731C246.466 210.092 245.241 208.611 244.249 207.276C233.604 194.541 219.999 187.448 209.758 174.253C209.169 172.457 208.814 170.806 208.225 169.01Z" fill="#F18F19"/>
<path d="M209.915 175.308C224.453 181.9 237.183 191.981 247.567 208.414C233.617 203.611 221.156 195.475 210.894 180.539L209.354 179.222L208.277 178.194C208.852 177.132 209.34 176.371 209.915 175.308Z" fill="#F79622"/>
<path d="M184.652 167.393C185.242 166.267 185.505 165.308 186.095 164.181C189.262 166.971 192.58 170.233 195.748 173.022C196.24 176.349 195.387 178.435 192.951 179.126C190.475 177.911 188.112 175.262 185.661 172.934L185.749 172.614C185.295 171.194 185.256 169.287 184.652 167.393Z" fill="#F8AC52"/>
<path d="M192.735 178.86C193.603 176.727 194.47 174.594 195.581 172.618C196.221 173.416 197.193 174.044 197.833 174.842C198.448 176.778 198.82 178.558 199.192 180.337C196.777 181.856 194.833 180.6 192.735 178.86Z" fill="#F7A33E"/>
<path d="M198.895 179.973C198.521 178.184 198.147 176.395 197.529 174.447C198.416 175.408 199.393 176.039 200.281 176.999C200.012 177.986 199.498 178.815 198.895 179.973Z" fill="#F8AD55"/>
<path d="M184.81 167.795C185.186 169.591 185.561 171.388 185.937 173.184C184.955 172.55 184.31 171.745 183.418 170.781C183.934 169.948 184.45 169.116 184.81 167.795Z" fill="#FAC280"/>
<path d="M364.038 161.271C365.603 162.638 366.808 162.299 367.651 160.255C380.928 169.462 394.615 178.192 407.546 188.653C414.837 194.41 426.136 195.715 425.985 213.325C426.037 218.153 429.625 218.229 431.812 220.361C434.942 223.095 438.78 226.281 438.423 231.587C437.83 236.742 432.364 231.411 430.505 236.127C438.441 241.558 448.252 245.233 447.33 261.613C439.571 262.566 430.722 269.464 427.223 251.001C421.951 236.941 411.866 231.247 402.749 225.063C392.689 218.277 383.558 209.133 373.237 203.288C369.847 201.494 365.214 198.17 368.09 190.783C375.503 191.084 381.18 197.657 386.795 203.451C394.982 211.993 402.606 213.536 410.723 207.278C400.856 191.763 387.294 184.588 374.898 175.206C369.137 175.958 366.898 168.997 363.32 164.87C363.431 163.465 363.691 162.525 364.038 161.271Z" fill="#F69520"/>
<path d="M159.951 551.728C160.791 549.7 161.631 547.672 162.471 545.644C164.414 547.61 166.381 548.494 168.483 546.901C175.282 541.34 181.149 549.093 187.285 551.894C191.344 555.205 194.413 560.083 197.483 564.961C198.164 566.492 198.61 567.873 198.884 569.876C197.007 575.637 193.553 570.149 191.067 571.132C184.831 565.706 178.94 559.035 171.311 562.605C167.574 559.133 163.602 555.511 159.951 551.728Z" fill="#FCA947"/>
<path d="M116.863 293.205C113.459 290.266 108.94 290.368 106.978 284.22C107.202 281.356 106.033 279.477 104.777 277.917C98.2565 269.966 103.365 268.738 107.431 267.216C108.386 267.83 109.252 268.763 109.968 269.223C113.923 269.133 117.526 270.322 121.344 272.776C124.987 275.869 127.149 280.266 128.069 286.121C128.473 289.765 128.161 292.948 126.72 296.157C125.892 297.129 124.587 297.794 123.457 297.82C120.808 297.245 118.485 296.504 116.863 293.205Z" fill="#F6A33F"/>
<path d="M104.236 367.044C100.771 364.037 98.2924 364.744 96.4685 369.335C94.3717 367.596 92.6962 365.36 93.1025 361.776C94.5696 358.493 96.1904 355.693 99.551 355.941C102.644 357.169 104.895 359.392 105.703 363.761C105.103 364.912 104.835 365.893 104.236 367.044Z" fill="#F9BC71"/>
<path d="M98.6845 357.322C97.6416 360.099 96.4454 362.394 93.7563 361.808L93.5141 361.652C93.1433 359.879 92.7725 358.105 92.6439 356.489C91.675 355.863 90.7951 354.912 89.9152 353.96C90.4243 353.138 90.7802 351.834 90.5626 350.544L91.6205 350.843C95.1499 350.438 97.3941 352.654 98.6845 357.322Z" fill="#FCDBB5"/>
<path d="M92.4875 356.655C92.62 358.315 93.0019 360.136 93.3839 361.958C93.0019 360.136 92.62 358.315 92.4875 356.655Z" fill="#FCE9D2"/>
<path d="M92.6531 346.697C90.9226 344.836 89.6054 342.49 89.9166 339.316C91.1318 338.971 92.3471 338.627 93.4117 337.811L93.6499 337.964C95.7548 337.441 97.5971 337.874 99.4151 339.417C101.86 341.737 103.566 344.707 103.231 348.991C100.401 353.172 97.5043 349.437 94.5586 347.921C93.844 347.462 93.3676 347.156 92.6531 346.697Z" fill="#F8B35F"/>
<path d="M98.6431 356.489C96.4687 354.381 94.2943 352.272 91.799 350.325C92.0578 349.395 92.082 348.316 92.1061 347.238L93.5384 347.052C98.2324 350.029 103.913 351.444 107.337 357.991C108.079 360.285 107.648 361.835 105.957 362.951C103.461 361.003 101.052 358.746 98.6431 356.489Z" fill="#F8B35F"/>
<path d="M215.567 290.544C219.962 292.601 222.86 287.152 226.661 287.375C228.735 286.868 230.29 288.219 231.908 290.337C234.071 296.444 237.259 302.836 242.478 299.951C256.447 292.411 266.389 305.27 274.934 313.236C271.377 309.16 270.87 307.017 271.508 299.771C278.618 300.999 284.521 306.562 291.113 309.647C298.806 316.709 306.893 320.377 315.755 321.259C316.928 322.002 318.015 323.055 318.694 324.579C319.995 333.782 315.231 334.041 310.763 335.217C309.011 335.563 307.962 336.356 309.566 335.551C309.863 336.468 310.394 337.533 311.246 338.437C312.012 339.651 312.457 341.026 312.816 342.711C312.385 344.259 311.719 345.659 310.67 346.451C297.281 352.902 285.797 341.615 274.068 334.181C266.327 329.274 259.424 322.349 250.661 324.081C242.613 322.259 234.196 322.752 226.737 315.839C222.649 310.698 217.254 307.278 213.659 301.357C210.361 296.352 208.495 291.162 215.567 290.544Z" fill="#FDAA48"/>
<path d="M170.627 205.512C193.948 227.589 220.278 241.926 243.428 264.609C248.349 269.471 253.295 273.278 248.464 281.661C244.988 282.338 242.834 280.276 241.364 275.792C234.814 269.912 228.497 264.177 222.865 256.019C215.249 245.195 205.676 237.423 195.162 232.982C185.811 229.27 178.55 220.093 170.055 213.351C165.807 209.981 168.841 207.959 170.627 205.512Z" fill="#F08E18"/>
<path d="M168.026 269.844C155.451 255.746 139.187 250.904 126.206 237.274C125.848 235.6 125.318 234.541 124.789 233.482C124.727 232.719 124.665 231.956 124.517 231.5C124.861 230.269 125.439 229.186 126.547 229.162C127.125 228.079 127.383 227.156 127.961 226.073C128.897 226.664 129.513 227.415 130.363 228.314C142.612 228.81 150.975 240.248 160.089 249.987C159.576 258.714 166.767 262.532 168.026 269.844Z" fill="#ED9020"/>
<path d="M160.73 248.987C148.723 247.563 141.036 233.617 130.813 226.784C132.549 223.523 134.1 217.966 137.676 220.956C146.47 227.973 155.09 235.609 163.304 243.713C164.304 245.072 161.95 247.579 160.73 248.987Z" fill="#EE8D18"/>
<path d="M239.722 277.214C242.235 279.188 244.424 281.325 246.936 283.299C246.708 297.203 242.459 301.515 233.143 292.979C231.576 291.608 230.096 289.924 228.293 288.402C230.019 286.177 233.014 284.392 228.872 280.268C224.73 276.145 219.744 274.07 216.683 268.048C225.295 265.044 231.544 278.647 239.722 277.214Z" fill="#FC9A25"/>
<path d="M215.805 295.061C214.067 297.312 211.14 298.8 215.222 303.289C220.018 308.236 226.901 309.66 228.696 319.415C224.556 321.247 220.25 319.607 216.008 318.755C214.819 317.992 213.63 317.229 212.528 316.148C209.009 311.646 204.902 308.263 201.796 303.278C200.568 300.62 200.141 298.102 201.879 295.85C206.369 292.747 210.835 290.749 215.805 295.061Z" fill="#F69F39"/>
<path d="M202.912 298.134C203.271 299.817 203.63 301.499 203.902 303.491C195.148 312.135 189.701 297.043 182.619 294.74C181.361 294.307 179.954 293.416 178.868 292.365C175.437 289.828 173.376 286.339 174.051 280.946C174.631 279.858 174.889 278.93 175.468 277.842C185.277 282.235 193.966 290.649 202.912 298.134Z" fill="#F7951F"/>
<path d="M319.766 319.865C318.83 319.274 318.215 318.523 317.365 317.625C308.552 315.679 300.342 311.58 291.959 308.096C284.66 305.658 277.729 300.92 271.548 294.484C269.653 294.373 268.077 294.102 266.206 292.92C262.082 289.955 260.049 285.415 261.215 279.277C263.352 268.686 268.711 280.029 271.996 278.124C273.547 279.465 275.098 280.806 276.65 282.148C287.285 287.416 296.005 300.52 307.449 297.977C306.476 295.553 300.446 296.449 299.569 289.745C294.643 283.74 287 282.532 284.386 272.198C289.639 267.193 294.441 271.672 299.181 275.389C301.815 277.776 304.364 280.471 306.507 283.633C316.038 295.802 327.623 304.564 338.31 314.568C342.41 318.605 347.408 321.398 349.221 328.694C348.044 338.805 342.148 337.253 337.064 334.767C330.491 331.702 324.089 328.022 319.766 319.865Z" fill="#FEB152"/>
<path d="M211.637 213.85C211.363 204.999 204.495 201.026 201.6 192.69C209.524 191.906 213.994 200.512 219.84 204.202C223.815 206.711 227.546 213.044 231.504 205.779C238.64 204.86 243.196 213.159 248.784 217.771C249.781 219.123 250.459 220.636 250.964 222.763C250.056 227.975 246.954 225.294 244.764 224.273C247.484 226.351 250.634 226.893 252.924 230.508C255.427 242.212 268.075 242.241 269.189 255.96C256.685 249.515 244.268 242.762 231.85 236.009C225.633 227.746 215.629 226.132 211.637 213.85Z" fill="#F6951F"/>
<path d="M272.125 282.537C269.943 286.397 265.055 277.616 263.516 285.273C261.363 295.167 270.274 293.376 271.672 299.537C273.083 308.715 281.571 311.539 282.934 322.941C277.32 317.829 272.382 311.272 267.26 309.483C260.292 307.26 253.465 291.218 244.914 306.022C242.645 310.202 234.581 302.764 230.423 297.459C227.433 294.034 230.935 292.525 232.025 290.595C239.057 293.611 243.498 289.699 245.864 281.07C247.233 281.198 249.555 281.939 249.818 280.98C256.748 262.879 264.689 275.878 272.125 282.537Z" fill="#FDAE4E"/>
<path d="M211.817 216.639C218.132 224.036 227.851 226.194 231.649 237.629C213.595 227.526 195.249 216.542 179.384 199.75C176.488 196.563 173.823 193.519 170.393 193.148C170.902 184.723 173.944 188.35 177.241 191.086C188.349 200.744 199.287 210.996 211.817 216.639Z" fill="#F08F19"/>
<path d="M267.728 254.471C264.268 247.287 258.592 244.082 253.319 240.416C249.592 238.077 250.044 235.496 251.073 231.845C265.894 234.7 277.777 248.961 291.656 255.163C296.61 258.988 300.583 264.346 302.621 271.712C302.782 275.036 302.329 277.616 299.866 278.577C295.782 274.582 291.527 271.196 286.563 271.303C283.138 259.128 272.989 262.069 267.728 254.471Z" fill="#F4911B"/>
<path d="M299.829 290.477C303.748 293.976 307.752 297.176 312.281 301.409C295.01 298.79 295.01 298.79 277.101 283.048C282.556 281.141 285.707 287.343 290.028 290.387C293.654 292.997 297.024 296.508 299.829 290.477Z" fill="#FDAE4E"/>
<path d="M251.402 220.989C245.007 215.575 238.93 210.004 232.534 204.59C228.059 201.085 224.073 196.819 218.999 195.428C213.461 193.746 209.792 189.323 210.217 181.063C221.48 193.424 235.283 197.78 246.887 208.934C246.852 213.885 255.336 213.854 251.402 220.989Z" fill="#F18F19"/>
<path d="M185.403 173.403C188.778 173.327 191.305 175.32 192.658 179.549C188.671 181.848 186.47 179.689 185.403 173.403Z" fill="#F7A33E"/>
<path d="M127.311 230.223C127.043 231.207 126.531 232.033 126.174 233.344C124.843 234.026 123.869 233.397 123.009 231.3L123.342 231.129C124.827 230.932 126.069 230.578 127.311 230.223Z" fill="#F39B33"/>
<path d="M217.846 495.2C219.035 494.872 220.225 494.543 221.414 494.215C234.684 499.68 248.074 499.844 261.344 505.309C269.93 508.907 277.767 514.187 285.495 520.831C286.893 521.709 287.887 523.05 289.114 524.537C295.998 537.103 291.744 540.525 283.001 540.412C279.457 540.337 276.109 538.593 272.871 535.484C271.03 533.254 269.742 531.011 269.263 527.843C260.308 519.711 251.661 515.357 240.539 515.901C232.262 516.08 223.075 507.802 217.846 495.2Z" fill="#FDAE4C"/>
<path d="M206.236 530.898C203.099 528.154 199.726 525.258 196.677 522.199C197.024 520.94 197.522 520.147 198.106 519.039C197.382 515.615 201.127 516.156 200.727 512.568C205.49 510.428 207.931 515.69 211.28 519.681C222.956 533.806 233.142 550.311 246.397 561.742C242.618 566.362 251.714 570.693 247.699 575.162C228.377 570.592 214.225 556.366 206.236 530.898Z" fill="#F09C39"/>
<path d="M247.241 560.961C241.821 550.532 246.007 548.422 252.375 548.436C260.008 548.886 266.553 555.256 273.815 558.042C277.025 560.452 279.975 563.8 282.195 567.784C288.557 578.812 286.466 583.358 276.95 581.708C266.367 577.911 255.486 573.189 247.241 560.961Z" fill="#FCAD4A"/>
<path d="M267.637 528.427C269.202 529.793 270.767 531.16 272.332 532.527C278.21 544.389 290.336 540.691 296.302 552.24C296.112 567.976 287.531 562.872 280.914 562.709C278.853 562.132 277.052 560.614 275.338 558.784C273.35 554.934 269.811 552.677 269.373 547.235C268.088 536.828 258.828 537.191 255.757 528.225C259.34 521.291 264.275 532.552 267.637 528.427Z" fill="#EC9632"/>
<path d="M269.333 549.132C271.959 551.501 275.31 553.247 275.189 558.557C275.631 559.911 275.693 560.668 275.055 560.985C274.417 561.302 274.098 561.461 273.865 561.314C266.588 558.895 259.765 553.888 253.517 547.807C252.056 546.171 250.51 544.84 248.35 542.765C256.519 537.129 262.131 550.349 269.333 549.132Z" fill="#E5912F"/>
<path d="M202.459 513.855C210.244 523.509 198.761 516.239 199.86 520.206C195.221 515.089 189.252 512.764 184.92 504.569C192.588 501.79 196.834 510.294 202.459 513.855Z" fill="#EB9735"/>
<path d="M216.972 481.076C197.518 474.625 181.429 458.254 164.743 443.985C163.717 440.873 160.3 439.453 160.946 435.261C161.604 433.904 162.641 433.136 164.057 432.957C168.975 433.897 172.381 439.197 176.385 442.395C187.284 449.177 198.037 455.514 209.022 461.996C212.586 463.86 215.747 466.18 218.97 469.246C221.326 472.478 225.415 475.376 223.33 480.792C222.074 484.251 219.413 484.009 216.972 481.076Z" fill="#EE9936"/>
<path d="M113.481 400.12C116.57 398.012 119.972 399.817 123.399 400.524C125.395 404.401 127.478 407.961 129.474 411.838C135.124 420.651 144.433 423.265 148.502 434.781C148.255 438.707 147.11 439.831 144.529 437.066C137.511 432.205 128.965 434.907 122.43 426.27C111.314 422.129 115.355 409.489 113.481 400.12Z" fill="#F49420"/>
<path d="M262.416 508.144C248.902 503.949 234.314 508.615 222.156 493.538L221.066 492.477L219.975 491.416C219.241 485.076 222.46 483.454 225.693 484.777C233.51 487.549 241.188 485.827 248.683 488.761C250.652 489.647 252.536 490.846 254.332 492.356C255.423 493.417 256.427 494.79 257.431 496.163C259.65 500.144 262.042 503.501 262.416 508.144Z" fill="#F39F3D"/>
<path d="M250.03 492.629C240.331 496.461 229.887 486.799 220.313 492.2C216.694 489.139 215.345 484.928 215.703 479.579C217.861 479.844 220.729 480.565 220.889 476.948C220.851 475.064 217.769 473.091 216.134 470.929C224.862 467.59 241.691 478.364 250.03 492.629Z" fill="#FBA746"/>
<path d="M147.876 434.637C140.612 426.02 130.042 423.329 125.332 410.499C141.875 408.593 152.759 422.056 162.608 439.238C164.547 441.197 166.252 443.007 166.093 446.552C164.896 446.886 163.698 447.221 162.266 447.407C155.451 447.095 150.868 442.731 147.876 434.637Z" fill="#E8922A"/>
<path d="M147.027 435.234C151.687 439.271 156.582 443.456 161.476 447.641C161.921 449.012 162.685 450.221 163.364 451.74C156.981 453.873 146.317 445.675 143.207 436.084C144.402 435.751 145.598 435.418 147.027 435.234Z" fill="#FBA237"/>
<path d="M309.143 234.217C313.517 226.445 317.466 234.033 321.45 236.555L321.364 236.864C324.131 247.703 331.506 250.918 337.81 255.998C353.228 267.94 371.135 274.914 381.467 298.174C377.304 307.17 371.149 302.546 365.328 300.679C357.891 296.698 351.143 290.245 344.888 283.015C337.62 271.508 327.753 266.352 319.882 257.007C315.846 249.728 307.127 246.389 309.143 234.217Z" fill="#F7A74C"/>
<path d="M310.915 237.604C312.526 246.519 320.381 247.866 322.483 256.012C322.963 259.188 321.958 261.789 320.105 263.498C311.283 266.572 304.591 259.132 297.556 252.913C292.495 239.672 280.723 233.708 276.152 219.698C264.943 209.777 253.882 200.308 242.906 190.534C247.925 188.301 251.351 193.688 255.059 197.097C268.024 209.559 282.337 218.199 294.21 233.567C298.803 239.687 305.379 234.841 310.915 237.604Z" fill="#F7951F"/>
<path d="M352.618 224.376C349.998 215.273 342.65 217.082 338.368 211.919C333.892 208.411 330.455 204.131 328.019 197.276C325.669 190.12 323.428 181.61 316.898 178.596C314.806 177.29 314.072 175.054 314.988 172.782C315.33 171.573 317.152 170.934 318.253 170.91C323.816 171.542 334.019 185.737 334.78 193.678C338.484 193.148 340.905 190.394 342.799 186.6C356.004 186.317 364.446 201.901 375.515 209.171C392.307 220.373 410.651 228.989 423.693 249.579C421.764 258.329 420.639 259.404 414.034 252.789C404.2 243.09 393.511 236.412 382.822 229.735C379.336 227.557 376.021 224.775 373.994 230.975C366.782 237.135 360.714 227.656 354.073 225.996C353.694 225.404 353.315 224.811 352.618 224.376Z" fill="#F59420"/>
<path d="M424.82 251.295C407.925 230.264 387.206 218.819 367.401 205.127C359.235 199.358 351.689 190.457 343.207 184.844C342.036 181.304 339.439 175.121 345.228 178.712C353.016 183.894 359.891 191.324 368.36 194.116C377.052 207.597 389.374 213.129 400.574 219.725C412.933 227.039 420.796 242.468 434.202 245.156C432.558 251.874 428.829 250.616 427.282 253.174C426.1 253.496 425.174 252.921 424.82 251.295Z" fill="#F08F1A"/>
<path d="M365.171 294.159C369.418 291.771 374.556 299.001 378.641 293.251C381.163 290.136 384.082 290.531 385.252 291.27C370.792 279.961 355.554 264.539 339.308 251.739C335.268 248.462 331.314 244.878 329.969 237.87C336.494 236.197 345.176 240.596 347.362 227.851C349.43 227.347 350.896 228.997 352.51 231.104C352.874 246.546 362.258 251.389 370.19 257.487C381.078 265.815 392.717 272.443 400.776 286.952C409.155 301.302 421.667 307.758 432.211 317.317C445.426 324.217 458.468 331.733 471.314 340.936C472.632 342.131 473.63 343.486 474.542 345.149C480.285 357.108 490.592 359.635 498.155 368.036C503.403 373.887 510.94 376.475 512.914 387.141C509.469 392.57 505.516 388.986 501.771 386.62C485.477 375.963 468.347 367.313 452.396 355.425C442.087 346.014 430.768 339.225 419.856 331.968C417.75 330.638 414.584 327.189 414.587 334.073C419.481 345.133 428.765 347.377 435.159 355.038C439.089 359.694 445.283 362.159 444.044 371.518C437.729 374.41 432.801 368.399 427.677 364.075C411.455 350.204 395.898 334.942 378.925 322.77C375.522 312.289 365.116 307.163 365.171 294.159Z" fill="#FDAA46"/>
<path d="M332.377 241.017C355.132 260.835 377.888 280.654 401.803 301.194C393.517 303.46 387.436 295.08 380.382 294.932C364.755 278.843 348.299 264.712 330.099 254.799C325.924 252.2 316.452 248.073 321.599 235.722C324.968 239.233 328.703 240.498 332.377 241.017Z" fill="#FEB459"/>
<path d="M220.221 569.59C221.715 575.484 210.166 569.179 216.198 579.135C215.605 580.27 215.341 581.238 214.748 582.373C208.152 579.64 201.141 577.397 197.471 567.067C194.403 551.435 203.806 559.391 207.834 557.056C213.645 558.525 218.383 560.82 220.221 569.59Z" fill="#E6922F"/>
<path d="M149.309 278.817C152.811 281.023 155.603 286.743 160.159 284.21C167.456 282.682 172.878 290.779 179.463 292.765C188.151 296.075 194.42 305.067 202.187 310.679C204.243 320.979 197.595 318.233 193.997 320.289C179.204 318.178 167.417 305.351 155.2 294.055C152.066 289.559 146.438 287.095 149.309 278.817Z" fill="#F7951F"/>
<path d="M149.858 281.362C150.339 288.774 155.143 289.612 158.273 293.49C160.616 300.228 158.942 303.266 153.9 302.275C149.896 301.576 145.878 297.877 141.714 300.814C136.925 302.976 131.771 303.409 131.252 294.102C130.922 287.161 126.045 289.64 125.016 285.241C124.726 280.194 122.071 276.622 120.392 272.554C126.328 262.153 133.427 271.942 140.158 272.895C143.312 275.667 146.704 278.59 149.858 281.362Z" fill="#F3921E"/>
<path d="M180.413 291.947C173.324 292.849 167.053 288.933 161.208 283.509C157.062 275.949 149.41 274.013 145.251 263.604C156.619 267.86 163.603 281.808 174.58 282.623C176.475 285.582 178.285 288.843 180.413 291.947Z" fill="#F2901B"/>
<path d="M122.75 231.528C123.75 232.172 124.751 232.816 126.094 233.285L125.568 234.131C126.043 235.62 125.859 236.291 125.425 236.801C124.991 237.311 124.649 237.485 124.399 237.324C123.122 237.687 121.846 238.049 120.728 238.908C121.463 236.225 122.106 233.877 122.75 231.528Z" fill="#F9BB71"/>
<path d="M124.284 237.034C124.554 236.043 125.16 234.88 125.431 233.888C126.903 234.839 127.279 236.637 126.648 238.95C125.756 237.985 125.02 237.509 124.284 237.034Z" fill="#FAC585"/>
<path d="M141.161 273.249C134.552 273.086 127.944 272.923 121.571 272.91C116.973 275.498 114.068 269.97 110.62 267.406C121.029 257.851 131.336 263.68 141.161 273.249Z" fill="#F69622"/>
<path d="M422.894 251.209C423.817 251.776 424.424 252.496 425.262 253.358C430.593 262.186 438.47 255.576 444.335 261.609C445.877 265.68 448.33 267.534 451.292 267.62C466.807 271.255 479.689 284.03 494.1 291.498C498.799 294.039 503.072 298.053 508.268 296.041C512.177 295.667 516.147 296.025 518.588 301.689C520.701 311.316 524.332 319.447 532.454 322.356C534.13 324.08 535.49 325.956 535.733 328.882C535.199 331.677 534.058 333.752 531.934 334.529C520.729 336.665 513.249 323.046 503.112 319.592C498.183 316.91 493.594 313.049 488.555 311.688C469.555 300.358 451.064 287.259 432.464 275.482C414.726 263.54 397.559 250.561 379.481 239.798C375.96 236.94 372.84 233.635 371.807 227.795C369.195 216.127 372.788 215.906 379.223 220.901C392.178 230.597 406.637 236.013 417.832 250.874C419.277 252.456 421.086 251.833 422.894 251.209Z" fill="#FB9923"/>
<path d="M159.968 506.258C173.44 518.474 186.74 531.312 201.978 539.162C201.709 544.112 199.2 546.177 196.072 547.482C190.248 548.538 185.026 540.465 179.092 542.915C176.42 541.583 174.478 539.618 173.931 535.613C171.222 532.429 180.619 531.448 174.125 526.957C168.336 522.913 162.978 517.316 157.448 512.34C158.288 510.313 159.128 508.285 159.968 506.258Z" fill="#FBA744"/>
<path d="M173.051 536.914C175.465 539.18 177.73 540.986 180.143 543.253C184.635 545.009 190.203 544.885 188.55 554.821C181.548 555.131 176.112 545.817 169.109 546.127C166.941 539.988 168.276 537.174 173.051 536.914Z" fill="#E4902D"/>
<path d="M164.349 402.904C150.125 395.736 137.597 383.494 125.044 372.321C125.251 366.669 128.387 364.311 131.141 361.35C134.129 358.537 137.437 355.565 140.858 358.085C157.9 369.923 178.138 373.296 190.978 396.216C192.384 403.97 201.698 408.04 197.754 418.2C190.423 420.803 185.315 412.519 179.298 409.446C174.536 406.802 170.056 402.169 164.349 402.904Z" fill="#FAA644"/>
<path d="M223.687 446.149C221.301 443.944 219.147 441.885 216.675 439.983C216.942 435.166 206.127 433.744 213.367 426.521C220.951 424.854 227.584 430.426 233.923 435.102C247.995 445.326 264.096 449.341 276.971 463.802C280.362 470.195 278.406 473.244 274.039 475.142C262.772 476.286 253.911 465.048 243.572 460.007C238.518 457.559 233.318 454.663 228.179 452.518C226.001 451.512 224.483 449.139 223.687 446.149Z" fill="#E59230"/>
<path d="M173.744 445.614C171.368 439.492 167.523 435.66 163.042 432.142C161.769 432.772 160.839 432.19 160.018 430.25C163.024 415.73 169.566 432.303 174.044 429.045C190.57 435.465 206.24 444.916 221.995 454.063C224.297 456.574 226.134 458.793 225.805 462.865C225.144 464.235 224.019 465.313 222.832 465.64C218.022 466.195 213.602 463.429 209.44 459.754C197.785 453.53 186.607 443.682 173.744 445.614Z" fill="#F29F3D"/>
<path d="M213.307 429.977C212.954 435.071 218.17 436.904 217.817 441.998C199.591 429.222 180.621 418.107 163.079 402.923C169.928 395.148 176.012 403.545 182.132 407.005C187.006 410.043 190.367 417.451 196.693 415.371C204.472 414.906 210.25 419.57 213.307 429.977Z" fill="#EA9735"/>
<path d="M224.223 458.433C222.438 456.945 220.592 454.694 220.75 451.178C221.328 450.096 221.586 449.174 221.93 447.945C223.481 449.286 225.265 450.774 226.816 452.114C240.613 460.823 254.262 469.077 266.794 481.326C271.188 486.27 277.44 489.493 276.903 499.28C273.584 506.225 269.179 505.252 264.145 500.628C257.336 490.544 249.027 483.854 240.547 477.777C234.171 473.03 227.304 469.056 224.223 458.433Z" fill="#EE9B39"/>
<path d="M162.067 432.761C162.919 433.665 163.623 434.111 164.475 435.016C163.896 436.106 163.637 437.035 163.057 438.125C150.906 428.236 139.791 414.632 125.79 409.401C123.962 406.055 123.244 402.686 123.724 398.982C127.439 399.515 125.401 394.943 126.325 392.614C135.192 400.421 143.824 408.079 152.69 415.886C154.36 422.774 160.977 424.782 162.067 432.761Z" fill="#F09C3A"/>
<path d="M132.982 368.315C130.931 370.706 128.644 372.947 126.593 375.338C121.753 373.727 117.845 369.749 114.198 364.828C112.992 365.168 112.282 364.715 112.157 363.154C111.062 362.084 110.203 361.165 109.257 360.561C108.374 360.737 107.665 360.284 107.217 358.887C102.599 354.456 97.982 350.026 93.4517 345.281C96.622 342.864 98.8509 346.879 101.215 348.39C107.546 347.622 114.363 350.127 120.294 345.772C123.951 346.628 126.851 349.221 129.167 352.921C131.458 357.717 136.486 361.669 132.982 368.315Z" fill="#F49828"/>
<path d="M161.524 431.693C157.992 426.541 149.193 426.428 152.149 414.827C160.321 418.184 167.802 424.018 175.025 430.78C171.017 436.251 165.049 423.002 161.524 431.693Z" fill="#F6A240"/>
<path d="M111.463 364.126C112.203 364.604 112.944 365.082 113.503 366.224C113.231 367.22 112.959 368.216 112.44 369.052C112.062 367.247 111.685 365.441 111.463 364.126Z" fill="#F9BE78"/>
<path d="M106.806 360.149C107.532 360.618 108.258 361.087 108.895 361.881C107.661 362.233 106.757 362.416 105.522 362.768C105.789 361.791 106.297 360.97 106.806 360.149Z" fill="#FAC280"/>
<path d="M193.949 543.417C195.97 541.107 198.077 538.493 200.331 536.33C202.095 534.932 203.54 533.692 205.304 532.294C214.978 546.589 224.651 560.883 237.925 569.208C240.72 570.961 243.319 574.379 246.59 572.496C255.734 578.946 264.792 585.7 273.936 592.15C278.85 594.159 284.635 595.998 278.376 604.593C270.434 600.686 262.969 593.142 254.489 592.116C247.481 595.591 245.099 582.65 239.033 582.781C232.623 577.33 226.445 572.024 220.034 566.573C215.695 563.494 212.384 556.767 206.822 559.002C201.465 555.643 194.15 555.348 193.949 543.417Z" fill="#FAA845"/>
<path d="M132.352 363.98C132.791 358.558 127.248 356.872 127.687 351.45C127.869 346.935 128.577 343.462 132.652 347.434C134.659 349.045 136.751 350.353 138.916 348.502C152.497 352.722 165.113 361.322 178.413 367.502C179.808 368.375 181.202 369.247 182.512 370.422C188.669 379.612 197.931 383.623 203.195 394.036C204.052 397.776 203.368 400.197 201.668 402.338C198.232 404.818 194.806 403.388 191.917 399.089C178.808 377.719 158.829 374.839 143.116 360.742C138.026 356.491 136.267 364.648 132.352 363.98Z" fill="#F09C3B"/>
<path d="M180.125 369.408C165.903 365.146 151.942 359.929 139.692 346.452C141.542 342.774 140.988 338.676 140.998 334.565C142.12 327.425 146.452 327.96 150.332 327.081C151.696 327.208 152.973 327.654 154.338 327.781C159.359 329.88 164.142 331.827 169.162 333.926C177.539 337.056 177.33 342.911 172.828 350.127C168.904 360.335 180.471 361.021 180.125 369.408Z" fill="#FEAC4A"/>
<path d="M151.851 330.922C148.942 332.394 145.945 334.181 142.949 335.968C129.811 330.166 117.778 321.368 110.677 302.766C113.437 300.828 114.779 297.984 114.639 293.453C116.791 293.717 118.62 294.145 120.772 294.41C122.494 303.283 127.458 306.454 132.659 309.777C140.225 314.61 148.61 318.487 151.851 330.922Z" fill="#F69724"/>
<path d="M133.856 349.518C131.262 348.966 130.108 351.123 128.868 353.586C125.769 350.913 122.438 348.092 119.339 345.419C110.49 345.612 104.06 340.118 100.454 328.471C100.945 327.698 101.928 326.154 102.162 326.301C113.483 331.993 125.812 335.075 133.856 349.518Z" fill="#ED8D1A"/>
<path d="M100.098 329.416C106.54 335.403 112.832 340.922 119.274 346.909C118.703 351.01 120.391 358.048 114.201 355.2C109.995 353.251 105.59 353.036 101.844 348.403C102.004 344.783 100.281 342.935 98.3206 340.935C97.9191 337.327 95.8332 333.758 96.4046 329.657C97.7647 329.783 98.9749 329.441 100.098 329.416Z" fill="#F69F37"/>
<path d="M97.0019 330.373C99.435 333.828 101.213 337.617 98.9366 341.819C97.3487 340.419 95.7608 339.019 94.1729 337.619C94.4221 333.623 92.4433 331.594 90.5525 329.244C92.7805 327.278 94.7593 329.307 97.0019 330.373Z" fill="#FBD3A4"/>
<path d="M275.996 220.88C284.633 226.317 290.152 236.99 297.401 244.433C299.564 246.514 298.939 249.72 298.08 252.779C296.803 253.415 295.145 253.451 293.659 252.875C278.572 243.019 261.364 239.745 250.302 219.464C250.975 214.128 245.411 212.425 245.851 206.943C255.826 212.503 264.489 223.715 275.996 220.88Z" fill="#ED8A14"/>
<path d="M194.258 546.693C197.122 554.442 202.471 558.228 207.41 562.492C205.248 566.29 198.043 556.14 198.746 567.686C194.343 564.504 190.523 560.215 188.107 553.863C187.544 546.844 182.619 545.548 179.658 542.178C185.287 536.895 189.618 543.36 194.258 546.693Z" fill="#ED9936"/>
<path d="M151.776 328.319C143.861 322.253 136.805 313.126 127.479 310.134C121.298 307.682 118.273 301.814 121.083 292.776C122.017 293.364 122.631 294.112 123.565 294.7C128.565 293.526 129.797 301.867 133.791 303.302C137.231 304.748 140.648 307.26 142.218 300.684C154.826 308.625 170.073 308.141 179.209 326.504C180.267 328.611 181.644 330.559 182.382 332.825C181.464 341.974 177.038 335.224 174.274 335.284C167.578 334.669 161.064 329.486 154.258 330.243C153.324 329.655 152.71 328.907 151.776 328.319Z" fill="#F59522"/>
<path d="M141.355 301.76C139.551 303.227 146.475 310.675 138.777 309.107C131.882 307.679 128.493 300.626 124.103 295.181C124.326 292.323 124.312 289.313 124.536 286.456C131.718 285.818 130.828 285.996 133.405 297.029C134.951 303.648 138.257 299.771 140.348 296.237C143.383 297.436 143.096 299.502 141.355 301.76Z" fill="#F69724"/>
<path d="M93.7608 338.066C92.9817 339.873 91.741 340.227 90.1925 339.612C91.5225 338.931 92.5201 338.42 93.7608 338.066Z" fill="#FCE8CE"/>
<path d="M213.971 316.39C218.208 312.103 222.213 314.653 226.107 318.604C233.819 322.78 242.259 319.331 249.514 326.157C251.942 324.395 254.731 324.332 257.149 326.608C270.121 337.81 284.714 344.162 298.119 353.802C300.295 366.953 296.592 372.315 286.922 370.202C286.129 370.064 285.013 370.089 284.393 369.327C279.854 365.701 274.426 366.288 271.238 362.787C275.926 366.875 283.09 367.026 288.523 373.427C297.757 395.117 282.752 382.252 279.246 385.902C277.101 385.64 275.043 385.064 273.072 384.177C256.369 372.437 240.383 357.109 221.318 354.894C214.399 350.856 211.803 342.217 208.948 334.516C208.324 326.766 210.676 321.278 213.971 316.39Z" fill="#FDAB4A"/>
<path d="M287.191 372.425C277.174 363.449 264.454 361.239 254.781 343.991C266.532 346.69 273.706 357.913 282.923 359.733C289.433 361.303 296.901 366.437 298.806 352.516C301.052 348.412 304.492 348.023 307.995 348.412C312.293 348.939 307.981 345.449 308.887 344.182C309.47 343.077 309.73 342.136 310.313 341.031C326.359 337.241 331.253 357.715 340.016 369.214C339.364 380.612 333.597 374.348 329.622 373.657C327.497 372.301 325.136 370.795 324.067 368.636C320.175 360.614 318.439 366.89 316.155 369.125C308.542 370.543 299.97 368.396 292.93 372.764C290.93 372.965 288.955 372.073 287.191 372.425Z" fill="#FDA740"/>
<path d="M339.669 367.511C334.328 361.95 328.15 358.403 325.297 347.877C323.185 339.637 314.643 342.587 310.177 336.854C309.24 336.261 308.388 335.359 307.686 334.914C317.951 325.787 327.72 335.24 337.757 339.776C348.415 351.972 361.375 356.904 373.732 363.998C375.52 365.493 377.136 367.606 378.025 370.349C373.211 383.653 365.748 373.842 359.952 370.901C352.195 367.081 358.597 374.767 357.612 376.323C357.095 378.176 356.43 379.572 355.296 380.671C347.591 381.608 342.547 376.962 339.669 367.511Z" fill="#FEAE47"/>
<path d="M338.405 342.282C328.816 336.507 318.941 332.789 308.731 333.335C305.468 331.99 300.208 333.844 300.116 327.066C300.088 321.075 305.076 324.273 307.713 324.844C312.038 325.377 315.737 325.135 318.02 319.881C323.319 319.918 327.571 323.764 331.822 327.609C337.024 332.064 342.55 336.354 347.457 328.675C348.543 326.758 347.879 324.093 348.965 322.176C350.027 321.363 351.001 320.868 352.364 320.995C354.914 321.884 357.051 323.254 359.165 325.729C363.993 332.557 362.946 336.365 356.886 338.079C355.262 338.904 353.487 339.26 351.863 340.085C347.703 343.017 342.841 341.393 338.405 342.282Z" fill="#FEAD4D"/>
<path d="M309.411 344.015C310.945 345.313 312.247 346.469 316.385 350.077C309.328 350.964 304.314 351.364 299.532 351.908C283.346 341.901 267.075 332.191 250.889 322.184C254.258 315.166 258.749 320.393 262.85 322.229C270.821 325.757 277.917 333.294 286.18 337.703C294.066 341.528 301.453 343.295 309.411 344.015Z" fill="#F5A13E"/>
<path d="M291.108 310.008C300.014 309.514 308.358 312.957 316.311 319.73C306.867 323.104 298.804 317.692 291.108 310.008Z" fill="#FEAD4D"/>
<path d="M215.698 319.766C217.967 328.111 212.898 332.103 211.454 338.434C202.544 338.8 196.312 332.484 192.732 320.616C192.846 319.16 193.112 318.185 193.048 317.379C194.645 311.529 199.324 314.167 202.144 312.164C206.503 310.772 210.038 313.436 213.218 317.4C214.096 318.349 215.062 318.973 215.698 319.766Z" fill="#FEB04C"/>
<path d="M213.82 316.334C210.15 315.817 206.334 314.856 203.2 311.501C195.372 304.527 187.458 297.852 179.629 290.878C184.615 288.691 187.615 294.428 191.468 297.173C195.407 299.618 198.322 305.655 203.308 303.467C207.051 307.553 212.83 308.323 213.82 316.334Z" fill="#F4911B"/>
<path d="M351.756 319.95C351.179 321.027 350.922 321.944 350.431 322.715C334.093 312.432 319.572 298.614 305.16 283.426C302.764 281.198 300.369 278.971 297.973 276.743C298.721 275.055 299.789 273.208 300.623 271.214C301.262 270.896 302.134 270.725 302.686 270.713C305.83 271.253 308.545 273.321 310.769 276.161C320.499 285.523 330.144 295.192 340.193 304.396C344.837 308.398 350.205 311.777 351.756 319.95Z" fill="#FEA738"/>
<path d="M304.747 284.574C319.674 297.418 334.601 310.262 349.761 323.251C350.959 325.768 350.617 326.972 348.59 326.417C336.973 316.344 325.123 306.126 313.592 295.753C309.964 293.138 305.53 291.437 304.747 284.574Z" fill="#FEB85B"/>
<path d="M249.973 221.316C263.549 235.639 280.395 240.451 295.054 251.949C295.529 255.037 294.702 256.973 292.574 257.755C278.087 252.303 264.706 242.992 252.006 231.306C248.101 227.847 244.196 224.387 239.598 220.5C243.648 217.759 246.848 224.627 249.973 221.316Z" fill="#FC9923"/>
<path d="M290.999 255.84C291.83 253.873 292.661 251.905 293.491 249.937C294.188 250.372 295.032 251.254 295.729 251.689C303.662 251.669 309.301 262.65 317.32 262.328C327.699 265.256 336.222 273.775 344.512 282.148C351.519 288.299 358.758 294.594 365.764 300.745C367.991 306.398 371.512 310.373 375.523 313.587C378.922 316.064 380.097 319.64 378.265 324.179C375.172 325.445 372.299 324.007 369.597 321.964C360.647 314.955 352.442 306.28 343.235 300.177C342.159 299.149 340.997 298.424 339.604 297.554C330.25 291.004 321.153 283.548 312.312 275.186C308.937 271.658 305.88 267.973 301.455 269.118L301.37 269.42C296.724 266.519 294.839 259.659 290.999 255.84Z" fill="#FDB358"/>
<path d="M296.57 550.374C287.698 545.468 277.577 543.063 272.559 529.256C276.211 533.041 279.848 533.888 284.067 533.64C294.495 532.944 288.406 527.976 285.014 523.257C286.483 517.966 289.54 519.909 292.621 520.768C304.885 530.394 318.979 536.421 326.511 555.122C327.787 558.496 330.757 560.75 329.633 564.796C328.51 568.842 325.467 569.837 323.029 568.654C313.835 563.909 303.023 563.995 296.57 550.374Z" fill="#FAA33D"/>
<path d="M292.432 521.836C290.419 520.213 288.554 519.041 286.47 520.602C285.623 519.711 284.924 519.272 284.077 518.381C283.278 515.368 284.112 513.38 285.644 511.832C289.005 509.638 292.93 510.31 296.647 509.775C299.959 509.703 303.099 510.241 306.215 511.841C309.332 513.44 312.767 514.88 315.54 517.699C320.953 525.763 328.252 527.12 334.951 530.611C338.3 532.357 342.263 534.847 342.609 540.445C342.845 547.409 338.11 547.664 334.394 548.199C319.487 541.704 307.301 526.514 292.432 521.836Z" fill="#DB831B"/>
<path d="M287.55 514.958C286.709 516.989 285.868 519.02 285.028 521.052C277.351 515.804 269.675 510.556 261.998 505.308C259.434 502.578 255.968 501.107 256.089 495.686C259.22 494.378 262.153 494.777 264.606 498.902C268.197 501.919 271.217 502.007 274.545 498.991C275.832 498.343 277.181 498.468 278.679 499.054C283.533 502.507 286.927 507.231 287.55 514.958Z" fill="#E28E2C"/>
<path d="M298.262 573.51C289.84 572.922 286.464 560.13 279.143 556.573C283.722 551.045 291.975 559.233 295.215 549.549C305.596 555.054 315.742 560.409 327.066 566.512C319.522 540.791 303.01 535.423 289.987 523.467C292.5 521.395 295.757 521.633 297.702 523.605C308.607 534.214 321.415 537.959 332.17 548.106C337.287 550.627 343.071 551.739 347.149 558.004C355.118 568.213 366.798 569.038 374.012 580.969C373.915 585.312 371.662 586.447 369.26 587.121C363.427 588.181 358.272 583.8 352.599 581.291C355.275 582.626 357.542 584.436 358.411 588.292C352.683 598.962 343.478 594.206 335.565 595.777C333.831 595.041 331.39 593.855 331.117 591.846C328.136 575.635 319.589 573.5 310.201 573.399C306.151 573.024 302.163 573.423 298.262 573.51Z" fill="#EC952E"/>
<path d="M210.035 456.54C213.831 461.33 219.012 460.336 223.234 463.642C234.668 469.306 244.024 480.325 254.376 488.815C256.14 490.254 256.007 492.618 254.864 494.708C253.331 493.412 251.798 492.116 250.265 490.82C238.831 485.156 229.098 473.554 216.983 470.266C213.918 467.673 210.621 464.939 207.555 462.346C205.05 462.546 202.507 460.976 203.212 457.568C204.257 452.971 207.907 457.322 210.035 456.54Z" fill="#FEAC4A"/>
<path d="M210.686 458.057C211.779 461.971 200.358 454.798 208.101 464.323C195.798 461.257 185.687 448.451 173.445 446.142C175.026 442.473 177.772 439.536 181.035 441.585C190.592 447.588 202.097 447.642 210.686 458.057Z" fill="#FBA746"/>
<path d="M254.839 494.291C246.697 478.457 233.352 473.307 222.969 462.506C223.545 461.436 223.802 460.524 224.377 459.454C235.335 469.187 246.378 478.615 257.336 488.347C260.572 491.449 265.02 493.165 265.893 499.792C263.16 498.794 260.194 497.649 257.461 496.651C256.297 495.921 255.684 495.179 254.839 494.291Z" fill="#F7A442"/>
<path d="M345.659 280.175C336.074 275.227 326.598 268.912 318.361 260.144C319.195 258.155 320.029 256.165 320.862 254.176C328.928 263.554 340.218 266.342 345.659 280.175Z" fill="#F69C30"/>
<path d="M371.979 231.765C375.072 234.427 378.398 237.236 381.406 240.204C383.655 248.798 393.409 246.312 394.676 256.444C392.371 260.74 389.487 259.286 386.284 257.991C376.906 247.428 363.297 246.055 356.076 230.745C354.615 229.109 352.836 227.631 351.375 225.995C358.735 221.286 364.924 233.434 371.979 231.765Z" fill="#F29320"/>
<path d="M368.561 317.623C370.93 319.779 373.154 321.497 375.524 323.653C394.528 332.225 409.865 350.722 427.047 363.742C431.725 367.32 435.469 374.151 441.677 372.405C443.366 370.312 445.492 369.533 447.971 370.364C454.629 372.724 460.499 378.776 466.308 384.095C477.864 393.998 489.906 403.155 501.293 413.65C505.57 417.677 511.427 420.936 511.064 429.764C503.945 433.734 497.821 428.569 491.526 423.996C485.487 418.535 478.961 413.82 472.242 410.725C459.871 398.928 445.096 396.442 431.875 387.603C427.403 385.197 422.701 382.649 418.994 377.581C417.973 374.515 417.729 371.58 418.81 368.764C415.163 357.815 404.557 360.681 400.169 351.365C393.74 342.531 385.72 338.288 377.615 334.34C371.673 331.377 365.306 329.892 361.526 321.297C360.504 311.617 366.179 319.29 368.561 317.623Z" fill="#FCA43C"/>
<path d="M354.911 231.376C365.711 238.896 377.26 244.727 387.202 255.308C385.423 260.669 381.921 258.464 379.206 256.394C372.546 250.761 365.948 245.886 359.03 241.17C368.454 246.744 376.614 255.842 386.528 260.645C399.416 266.599 410.807 275.931 420.185 290.478C420.926 299.586 415.852 297.111 412.302 297.036C407.547 294.402 403.198 291.304 401.303 284.35C386.816 272.348 372.71 260.946 358.542 248.784C353.664 244.633 347.704 239.44 354.911 231.376Z" fill="#FEB85E"/>
<path d="M140.766 299.066C140.408 297.396 140.051 295.725 139.694 294.055C143.788 291.219 147.184 294.806 150.924 297.166C154.579 299.832 157.222 298.249 156.961 292.304C168.061 304.725 180.918 312.836 193.861 320.64L194.094 320.788C194.637 324.743 193.926 328.268 191.811 330.908C188.996 333.106 186.242 336.065 182.784 331.716C178.452 327.538 174.011 324.736 170.749 318.704C168.102 313.422 163.561 308.028 159.405 310.103C150.71 313.649 146.328 304.743 140.766 299.066Z" fill="#F2901B"/>
<path d="M189.932 398.281C192.642 399.255 195.583 400.37 198.293 401.344C212.317 402.67 223.719 415.967 236.869 421.283C243.286 427.328 250.408 429.975 257.251 434.54C262.915 439.424 269.915 440.602 275.64 446.22C278.703 448.805 281.996 451.531 283.455 455.914C286.75 465.26 284.114 467.816 277.308 465.015C256.318 451.035 234.903 438.535 213.318 426.628C207.885 421.886 202.452 417.145 196.788 412.261C194.952 407.297 187.867 406.415 189.932 398.281Z" fill="#FDAA48"/>
<path d="M275.079 463.741C277.051 462.733 280.642 462.009 280.666 460.885C280.509 453.187 275.349 451.38 271.616 447.454C277.174 438.501 283.453 448.627 289.055 448.819C297.948 454.552 307.7 458.18 314.524 469.416C317.173 478.341 310.585 478.652 308.539 483.031C305.974 485.176 303.835 482.658 301.52 480.785C297.649 479.43 294.775 473.398 289.957 474.471C293.097 479.534 297.738 479.107 301.255 481.754C302.457 482.529 303.57 483.626 304.267 485.215C305.508 487.914 307.078 490.446 309.064 492.486C319.846 504.755 319.582 505.724 307.765 514.819C304.944 513.761 301.795 512.87 298.974 511.812C297.782 506.865 297.463 502.861 291.964 505.394C287.211 507.267 283.448 497.245 277.998 497.53C277.125 496.587 276.404 496.123 275.531 495.18C274.501 486.539 268.266 485.559 264.709 480.987C265.73 475.187 269.433 473.016 272.504 470.058C273.274 468.275 277.081 468.83 275.079 463.741Z" fill="#F9A23B"/>
<path d="M273.241 474.41C274.235 482.518 269.891 483.364 265.694 484.659C255.802 477.043 247.023 465.49 235.469 461.824C231.723 460.55 229.874 455.471 227.767 451.302C238.854 447.902 247.144 460.219 256.789 464.828C262.077 467.425 267.574 471.22 273.241 474.41Z" fill="#FCAD4B"/>
<path d="M202.944 392.65C195.235 384.423 185.519 380.44 180.054 368.118C189.301 353.756 199.294 366.754 209.01 370.737C214.683 377.299 218.535 365.391 224.728 370.075C229.977 374.157 235.834 376.049 239.076 384.376C242.055 386.643 231.573 388.433 239.489 390.9C243.05 392.065 245.918 395.734 245.946 401.644C238.072 408.042 230.402 401.681 222.746 398.274C212.559 393.991 204.08 384.536 195.828 379.276C198.859 386.364 209.75 384.098 211.456 396.971C207.538 401.103 205.056 398.047 202.944 392.65Z" fill="#FDAD4B"/>
<path d="M210.563 378.012C201.227 369.908 191.757 364.27 181.256 369.272C180.317 368.678 179.7 367.922 178.847 367.017C175.501 364.167 172.327 360.698 168.894 358.158C161.239 352.941 166.717 349.126 168.629 345.237C175.615 344.929 182.294 347.705 189.035 351.249C194.283 354.211 199.295 357.024 204.37 360.606C206.471 365.945 217.556 366.778 210.563 378.012Z" fill="#FEB352"/>
<path d="M201.757 394.318C204.466 396.375 207.065 399.795 210.104 397.765C219.921 398.913 227.682 407.359 235.381 415.052C237.196 418.337 239.648 421.307 237.113 425.442C224.132 418.015 210.979 411.196 198.94 400.424C199.859 398.137 200.691 396.154 201.757 394.318Z" fill="#E38F2D"/>
<path d="M189.222 352.94C182.387 352.627 176.033 348.585 170 344.381C171.398 342.335 173.949 342.124 174.454 337.309C167.432 334.676 159.891 333.915 153.152 329.261C162.572 324.248 172.125 334.727 181.472 332.969C183.874 332.296 186.276 331.623 188.678 330.95C193.125 334.879 199.268 337.686 199.223 346.829C199.328 356.434 191.039 346.392 189.222 352.94Z" fill="#FCA843"/>
<path d="M284.636 374.784C285.828 374.453 287.021 374.122 288.213 373.791C300.534 373.979 310.51 383.519 320.744 392.139C324.692 395.712 329.328 396.83 333.019 401.324C340.352 412.446 351.813 415.702 358.078 428.678C359.273 435.208 356.039 434.973 352.806 434.739C347.912 434.541 343.41 430.98 338.688 430.168C324.35 428.347 311.828 416.118 298.116 411.082C296.246 409.903 294.143 408.577 292.531 406.477C286.724 397.761 278.974 391.069 275.92 379.396C278.649 377.507 281.982 380.331 284.687 379.51C289.691 378.333 285.312 376.294 284.636 374.784Z" fill="#FDA73F"/>
<path d="M220.28 356.156C225.99 347.556 232.076 357.111 237.313 358.966C250.435 363.979 262.615 372.343 273.19 385.434C276.784 390.2 285.479 392.433 282.699 400.364C279.747 408.905 272.399 402.858 267.187 399.943C260.723 396.602 255.179 390.97 248.973 386.715C239.662 376.927 230.008 368.357 219.693 361.163C218.638 359.067 218.833 357.398 220.28 356.156Z" fill="#F29F3D"/>
<path d="M222.089 358.666C221.825 359.63 221.234 360.762 220.882 362.047C215.646 371.91 209.965 357.665 204.636 360.662C198.486 360.483 193.744 355.161 188.498 350.649C186.846 348.45 183.619 347.885 183.781 344.208C184.005 341.328 186.425 341.752 188.278 342.189C190.85 343.088 193.045 346.392 196.799 345.028C195.748 337.546 187.266 336.621 187.941 327.981C189.388 324.754 190.835 321.526 192.043 318.145C195.944 328.597 203.874 332.568 210.292 338.97C217.024 342.171 216.692 353.678 222.089 358.666Z" fill="#F5A13E"/>
<path d="M250.557 383.199C260.01 389.927 268.687 399.447 280.781 401.646C280.097 393.182 272.167 392.895 272.571 385.487C273.769 385.152 274.967 384.817 276.165 384.482C283.716 391.098 289.786 400.059 295.041 409.963C292.006 417.892 285.826 410.321 281.714 413.187C279.317 413.856 276.624 413.608 274.19 412.428C268.086 408.555 262.303 404.521 255.657 403.589C251.727 401.826 247.539 400.994 245.202 395.496C240.061 391.14 235.241 386.622 229.482 381.508C231.481 377.301 235.931 384.14 238.227 380.852C242.488 378.445 246.32 384.526 250.557 383.199Z" fill="#EE9A37"/>
<path d="M221.902 328.521C230.775 330.149 237.418 339.714 246.12 341.952C249.176 342.796 252.307 347.279 250.468 351.87C249.291 355.081 245.535 353.797 243.227 351.268C235.812 344.451 227.33 339.478 221.902 328.521Z" fill="#E69231"/>
<path d="M322.279 396.495C312.369 384.962 299.962 381.479 289.531 371.838C296.774 362.74 305.307 364.116 314.265 367.989C321.141 368.305 320.971 375.99 322.12 381.92C313.79 385.87 327.333 392.305 322.279 396.495Z" fill="#F69E36"/>
<path d="M320.882 380.562C316.151 377.539 318.585 368.721 313.855 365.698C318.364 353.392 322.09 362.071 326.038 367.928C331.333 377.98 342.566 372.564 346.606 385.148C347.368 390.451 352.224 395.036 348.656 400.906C338.239 398.323 327.846 394.645 320.882 380.562Z" fill="#FBA23B"/>
<path d="M345.591 383.242C341.499 379.226 337.15 376.128 332.262 375.931C327.692 375.574 326.107 372.416 326.632 366.628C330.587 366.237 334.74 371.012 338.658 368.798C343.879 371.725 347.555 380.159 354.149 378.191C359.295 377.471 363.497 380.116 365.944 387.055C358.823 394.812 355.446 394.125 345.591 383.242Z" fill="#F49C34"/>
<path d="M375.568 365.935C374.042 364.66 372.516 363.385 370.76 361.97C370.493 360.09 370.917 358.631 372.261 357.733C377.843 355.298 382.881 359.402 388.197 361.615C389.578 362.458 390.644 363.452 391.939 364.586C402.342 375.399 414.73 381.24 425.472 390.886C438.466 397.44 452.307 401.075 464.429 411.564C474.723 417.157 485.27 421.875 494.631 430.679C504.452 433.235 512.409 442.213 521.89 445.937C533.698 456.577 548.823 458.59 558.16 474.938C563.331 476.719 549.345 479.18 559.662 483.757C578.917 492.069 598.268 502.846 614.98 519.914C623.566 528.589 636.414 528.182 641.962 543.592C631.875 552.211 622.816 540.5 613.25 537.068C586.729 520.199 559.131 506.109 532.78 488.656C500.628 469.726 469.324 447.877 439.097 423.25C434.265 420.302 428.695 418.965 425.28 412.071C425.631 407.131 427.459 405.498 431.056 408.036C411.305 397.703 392.231 385.035 375.568 365.935Z" fill="#FEA941"/>
<path d="M376.451 368.811C396.261 383.106 415.84 397.259 435.796 411.992C432.697 414.263 428.334 410.53 427.035 415.998C426.172 416.163 425.395 416.032 424.848 416.044C424.155 415.617 423.462 415.19 422.77 414.763C405.317 399.831 385.229 394.072 367.352 380.619C363.511 377.904 358.359 377.864 356.085 371.587C352.962 368.27 348.465 366.893 346.508 360.462C356.97 357.156 366.002 374.911 376.451 368.811Z" fill="#FEB54D"/>
<path d="M355.317 372.782C376.373 380.885 396.02 395.792 416.797 405.816C419.885 407.371 423.581 409.651 424.068 415.531C402.952 413.32 383.926 401.935 365.713 385.82C361.81 382.367 357.822 379.21 353.919 375.757C354.49 374.714 355.061 373.671 355.317 372.782Z" fill="#FEA941"/>
<path d="M374.69 361.186C374.111 362.274 373.853 363.201 373.274 364.288C360.052 360.28 347.84 353.639 337.265 341.128C339.802 334.008 346.489 339.696 349.681 335.173C359.697 340.787 369.307 346.871 374.69 361.186Z" fill="#FCA641"/>
<path d="M362.891 320.687C370.007 328.295 378.428 330.354 386.166 334.815C393.208 338.844 400.592 341.671 404.341 352.483C393.737 353.305 385.118 339.463 374.575 341.03C366.423 340.904 365.833 325.698 357.937 324.672C355.557 322.484 353.092 320.597 350.943 318.553C337.371 308.696 326.177 294.311 312.665 285.198C310.347 283.755 309.027 279.754 307.135 276.811C310.111 270.182 313.261 276.382 315.726 278.269C324.051 284.509 331.46 293.005 340.296 297.443C348.45 304.283 357.835 308.709 362.891 320.687Z" fill="#F9A23B"/>
<path d="M356.524 325.245C365.358 322.159 366.679 337.05 373.329 339.797C382.3 341.124 389.639 348.271 397.642 354.034C400.015 357.331 400.643 360.971 399.612 364.647C397.39 368.654 394.722 364.45 392.19 364.657C391.256 364.069 390.408 363.174 389.793 362.426C376.862 354.639 363.44 347.625 354.105 330.93C352.838 327.608 364.282 334.818 356.524 325.245Z" fill="#FDA73F"/>
<path d="M353.817 332.676C365.689 342.952 377.561 353.227 389.347 363.805C384.258 366.322 379.961 358.29 374.981 359.45C366.194 351.817 356.831 345.248 350.257 333.656C351.125 333.486 352.312 333.16 353.817 332.676Z" fill="#EF9933"/>
<path d="M341.923 297.036C335.376 298.96 331.411 290.86 326.314 287.694C320.29 283.952 316.032 274.965 308.558 276.314C306.18 274.132 303.717 272.25 301.57 270.212C303.203 267.35 305.507 265.962 308.434 268.132C319.569 277.867 330.789 287.302 341.923 297.036Z" fill="#F9AA4F"/>
<path d="M363.293 320.105C355.331 313.311 347.135 306.371 340.901 296.359C352.762 298.071 360.493 311.534 370.663 318.28C368.284 318.937 365.672 319.448 363.293 320.105Z" fill="#F9AA4F"/>
<path d="M305.788 511.819C307.937 508.066 310.172 504.003 312.321 500.25C308.4 494.47 298.598 495.922 301.434 482.736C318.702 481.273 332.702 494.549 346.961 506.892C352.106 511.256 356.905 516.862 361.383 522.629C362.385 523.996 363.3 525.674 363.895 527.514C364.886 532.895 362.254 533.417 359.559 533.168C355.838 532.633 352.894 529.302 349.605 527.213C341.554 521.37 341.468 521.681 339.582 531.449C330.606 527.943 321.889 523.505 314.122 515.649C311.13 514.48 308.176 515.163 305.788 511.819Z" fill="#FEA73F"/>
<path d="M312.514 517.588C322.224 519.372 329.927 529.346 338.971 532.528C343.671 531.502 347.164 534.806 350.632 539.187C353.077 543.283 354.325 547.713 354.056 552.637C353.404 556.955 351.16 558.08 348.001 557.535C344.346 550.853 336.181 554.414 333.623 544.788C335.719 543.205 338.136 541.461 340.874 539.556C332.578 527.751 318.234 534.676 312.514 517.588Z" fill="#DB831C"/>
<path d="M276.578 499.196C284.607 497.581 292.432 509.016 300.345 501.677C301.808 508.643 293.373 506.608 297.425 513.357C294.285 516.61 290.979 516.367 287.333 513.269C283.296 509.542 281.355 502.269 276.578 499.196Z" fill="#E7922D"/>
<path d="M346.939 556.276C348.722 554.841 350.182 553.569 351.965 552.134C359.489 542.978 364.834 556.652 371.497 557.589C373.702 558.625 375.498 560.135 377.443 562.106C383.466 570.341 380.67 574.433 374.491 576.74C364.99 571.062 354.648 567.418 346.939 556.276Z" fill="#DA831B"/>
<path d="M393.029 255.937C405.351 267.039 420.068 272.633 431.734 285.076C444.421 293.958 457.679 301.795 467.168 317.087C467.959 320.021 468.897 323.394 465.443 324.056C448.986 315.991 432.76 308.069 419.403 291.087C399.867 270.99 376.514 260.413 356.199 240.184C368.178 239.196 375.965 253.786 386.655 254.448C388.65 256.029 390.73 257.313 393.029 255.937Z" fill="#FEBC5F"/>
<path d="M397.941 356.149C388.75 352.898 380.988 345.57 373.14 338.544C379.614 330.162 385.336 340.831 391.19 342.355C395.248 343.467 398.977 348.633 402.986 351.844C409.635 356.348 417.176 359.634 423.081 365.803C429.45 372.261 420.43 368.408 420.443 371.255C411.754 370.092 402.894 369.531 397.941 356.149Z" fill="#ED952D"/>
<path d="M291.007 454.102C285.526 452.09 280.437 446.722 274.182 447.467C269.117 441.032 261.757 441.802 256.201 436.139C256.96 430.49 260.659 431.019 263.448 429.892C264.959 429.403 266.298 429.526 267.552 429.955C272.247 431.831 276.34 435.852 280.777 438.647C285.595 442.043 293.251 442.18 291.007 454.102Z" fill="#EC9835"/>
<path d="M264.298 435.478C261.911 436.141 259.438 437.111 256.818 437.627C250.466 431.81 242.332 431.377 236.497 423.715C236.655 420.199 235.042 418.096 233.023 416.46C238.176 408.864 242.67 416.402 247.667 419.194C252.997 424.729 261.537 424.694 264.298 435.478Z" fill="#E69330"/>
<path d="M290.798 450.239C289.574 440.569 283.889 441.01 279.048 439.398C280.956 425.436 290.529 437.107 295.192 432.31C296.944 428.986 293.619 423.9 296.317 421.18C299.638 419.229 302.948 421.344 306.022 423.308C319.799 432.852 336.531 431.694 347.875 450.051C350.891 458.272 347.146 457.731 343.078 457.353C341.162 457.24 337.104 452.795 338.85 460.576C339.212 462.289 339.1 463.699 338.193 464.97C329.188 467.362 321.182 457.063 312.573 456.006C317.215 459.342 323.223 458.738 326.326 466.645C327.049 470.069 325.582 471.353 323.729 472.021C320.93 472.084 318.565 470.573 316.461 468.118C308.383 461.105 300.156 453.626 290.798 450.239Z" fill="#F9A13A"/>
<path d="M362.036 525.455C344.018 506.02 324.57 490.67 302.691 481.979C301.762 481.399 301.15 480.661 300.306 479.778C300.098 478.581 300.269 477.977 300.758 477.216C301.161 476.757 301.479 476.6 301.711 476.745C303.717 478.354 305.576 479.515 307.74 477.667C310.868 471.443 314.918 476.462 317.938 478.349C330.022 485.899 342.582 489.834 354.495 497.988C359.228 500.589 363.472 503.952 367.46 508.221C370.75 512.055 373.405 516.202 371.145 522.257C368.885 528.312 365.252 525.687 362.036 525.455Z" fill="#F9A138"/>
<path d="M353.572 499.908C337.812 494.681 323.188 484.467 308.111 476.818C305.661 467.094 312.759 472.958 314.483 469.763C316.563 468.214 318.508 469.075 320.43 470.989C330.356 480.402 343.19 479.525 352.346 491.662C353.778 494.339 354.428 496.882 353.572 499.908Z" fill="#FEA63F"/>
<path d="M302.343 479.18C301.753 480.307 301.489 481.268 300.899 482.395C295.424 489.043 290.139 479.618 284.986 478.94C281.441 478.543 283.045 471.666 286.312 470C293.172 466.503 298.516 469.563 302.343 479.18Z" fill="#F49D36"/>
<path d="M247.539 423.218C243.035 420.757 239.815 413.754 234.26 415.98C226.317 409.229 218.605 402.624 210.747 395.571C204.346 390.141 198.177 384.857 191.861 379.124C209.85 383.252 225.812 400.363 244.533 399.961C248.449 400.629 252.047 401.454 255.34 405.296C258.179 404.934 260.394 407.745 262.549 409.805C266.16 413.489 268.071 419.316 266.702 424.16C264.967 431.269 260.573 427.452 256.681 425.73C253.719 424.59 250.782 422.396 247.539 423.218Z" fill="#FDAD4B"/>
<path d="M251.318 385.691C247.113 389.902 243.139 387.395 239.042 383.365C233.308 378.303 227.746 372.626 220.747 371.101C212.813 368.986 222.582 377.317 219.028 377.242C216.113 376.848 213.136 375.692 210.073 374.844C212.799 366.087 205.308 365.335 203.129 360.348C208.107 353.373 213.783 364.54 218.984 361.679C231.494 364.152 240.355 377.691 251.318 385.691Z" fill="#FDAD4B"/>
<path d="M336.199 422.657C343.391 420.646 349.589 431.157 356.805 428.065C357.447 427.742 358.003 427.73 358.411 427.258C369.116 431.496 379.893 432.492 390.671 433.487C395.925 436.457 401.769 434.322 406.481 440.236C408.944 447.28 415.829 448.362 417.563 456.04C414.737 465.208 408.492 456.858 404.143 459.578C406.924 459.516 409.445 460.387 410.869 464.213C411.601 470.524 406.002 468.796 405.2 472.672C404.596 474.846 403.608 476.411 402.002 477.218C400.889 477.243 399.629 476.808 398.454 476.062C390.986 469.129 388.27 452.059 376.37 455.101C366.902 452.379 358.902 444.377 349.63 439.953C344.721 435.74 338.528 432.174 336.199 422.657Z" fill="#FCA43C"/>
<path d="M336.503 427.441C341.967 432.269 347.431 437.098 353.212 441.769C352.456 447.33 359.85 450.169 356.956 456.524C353.23 458.102 350.614 455.761 349.231 450.995C336.481 435.234 319.691 434.693 305.232 424.962C304.645 423.176 308.628 420.694 304.106 419.292C301.149 418.156 298.704 415.211 298.189 410.277C306.584 410.548 313.673 416.39 321.019 421.328C326.128 424.516 331.175 426.955 336.503 427.441Z" fill="#E99128"/>
<path d="M320.206 381.559C329.853 387.265 338.729 395.717 349 398.224C352.104 396.943 354.903 398.702 357.444 401.377C359.899 404.357 361.717 407.654 360.197 412.085C349.204 417.025 340.905 407.499 332.006 400.109C328.422 398.215 324.752 396.627 321.169 394.733C321.069 392.157 320.246 390.203 318.552 388.42C310.671 381.311 319.139 383.402 320.206 381.559Z" fill="#ED942D"/>
<path d="M331.138 399.939C340.486 404.044 349.686 407.69 359.034 411.795C360.232 411.46 361.75 410.965 363.01 411.399C367.43 412.379 373.666 413.781 373.904 420.858C373.945 429.634 367.523 425.927 363.4 425.864C361.498 425.752 360.042 427.016 358.586 428.28C349.531 418.164 337.553 414.579 331.138 399.939Z" fill="#FCA43C"/>
<path d="M298.494 412.106C303.315 416.626 308.049 421.455 314.462 422.239C312.711 429.525 307.68 423.777 305.47 426.756C302.652 424.968 300.266 421.628 296.968 423.551C288.926 424.655 283.487 419.378 280.306 408.962C284.008 399.627 289.685 411.993 293.822 408.046C295.379 409.399 296.937 410.753 298.494 412.106Z" fill="#DD851D"/>
<path d="M246.451 421.445C251.954 410.609 257.716 428.7 263.601 422.651C264.868 412.871 258.812 408.214 254.483 402.399C262.172 399.026 268.179 405.922 274.299 411.377C267.983 414.878 274.983 417.116 275.326 419.985C276.426 425.235 279.885 430.111 277.493 435.761C273.081 437.46 270.503 429.367 266.178 430.745C265.675 431.555 265.322 432.842 264.819 433.653C259.619 426.898 252.066 427.71 246.451 421.445Z" fill="#FDAA48"/>
<path d="M273.56 417.856C271.854 416.041 270.147 414.227 268.675 412.562C270.368 411.443 272.209 410.785 273.902 409.667C275.806 409.779 277.858 410.351 279.996 410.613C285.524 415.584 291.138 420.245 296.665 425.216C299.93 428.385 304.072 431.38 301.381 438.078C290.972 434.758 279.637 433.774 273.56 417.856Z" fill="#FDAD4B"/>
<path d="M355.954 400.498C353.563 398.283 351.087 396.372 348.696 394.156C345.374 391.357 341.586 388.265 344.169 382.013C350.777 385.799 357.689 386.557 364.601 387.314C384.214 397.47 403.826 407.625 423.438 417.78C423.219 420.505 421.945 421.137 419.91 420.577C420.585 422.074 421.54 421.6 422.472 422.184C425.5 424.083 427.89 426.299 428.174 431.129C427.023 433.269 425.454 433.001 423.567 432.891C422.697 433.06 424.474 434.533 424.854 435.13C428.471 438.83 434.527 442.628 432.262 448.722C429.826 455.425 423.856 451.322 419.197 448.4C416.17 446.501 413.289 445.052 410.751 442.386C409.266 435.013 405.22 432.833 400.661 432.479C395.085 431.843 390.537 427.559 385.731 424.187C380.888 419.002 375.617 415.337 371.631 407.111C368.933 401.125 361.897 398.858 355.954 400.498Z" fill="#FBA33B"/>
<path d="M360.276 523.829C363.815 521.193 372.6 523.068 365.736 511.088C373.005 508.207 389.909 516.444 393.707 524.183C395.096 527.345 395.677 530.366 393.448 532.333C387.744 537.734 396.777 535.611 395.418 538.517C396.352 540.252 396.719 542 396.758 543.916C396.318 545.523 395.159 546.667 393.937 547.015C386.199 545.435 378.187 548.971 370.483 542.121C369.373 541.028 368.264 539.936 366.914 538.689C363.913 535.244 362.461 531.285 362.823 525.847C361.865 525.23 360.995 524.292 360.276 523.829Z" fill="#FCA43B"/>
<path d="M362.826 529.253C364.739 532.281 366.886 535.457 368.712 538.794C364.018 546.726 357.271 540.274 351.402 540.557C347.442 536.96 343.483 533.363 339.437 530.075C339.371 522.402 329.667 520.62 331.931 511.514C343.104 514.951 351.691 527.656 362.826 529.253Z" fill="#FDAB43"/>
<path d="M350.548 540.405C355.204 530.594 362.638 541.402 368.191 538.571C369.059 539.505 369.776 539.966 370.644 540.901C371.024 545.665 377.308 546.317 375.991 551.119C373.295 559.93 367.016 547.983 363.374 552.043C367.747 551.466 371.092 553.617 372.642 560.263C364.978 563.62 360.557 547.971 352.893 551.328C350.792 547.717 350.06 544.234 350.548 540.405Z" fill="#ED952D"/>
<path d="M445.624 603.219C447.384 612.61 454.313 613.372 458.528 618.907C454.257 626.3 448.935 620.789 444.328 618.608C439.721 616.427 435.309 612.569 430.788 610.082C429.62 609.347 428.306 608.159 427.224 607.118C417.65 594.248 404.541 591.035 393.518 579.413C396.185 583.613 400.055 583.529 401.702 587.447C402.674 589.859 402.687 592.748 400.857 593.397C398.794 593.898 398.389 594.363 399.594 596.922C388.096 595.804 379.015 589.006 373.358 573.921C373.602 570.114 381.365 568.88 374.876 562.634C375.821 559.267 377.798 559.072 380.157 559.477C395.318 566.143 410.97 572.037 425.42 582.216C432.977 586.614 441.724 590.682 445.624 603.219Z" fill="#E28B24"/>
<path d="M380.684 561.95C379.461 562.298 378.238 562.645 376.775 562.839C375.186 561.436 373.596 560.034 372.006 558.632C368.826 555.827 365.647 553.022 361.836 549.432C365.754 544.387 369.78 549.251 373.425 549.327C372.363 545.994 371.301 542.661 370 539.174C377.069 549.404 386.417 536.88 393.486 547.11C390.502 553.892 392.909 569.824 380.684 561.95Z" fill="#F39B33"/>
<path d="M272.917 419.061C280.97 428.95 292.237 430.249 300.549 439.203C296.639 443.318 291.908 441.409 287.649 439.8C284.33 438.79 281.569 437.767 279.8 442.144C274.883 437.916 269.966 433.688 265.284 429.609C266.484 429.273 268.093 428.462 269.035 429.061C276.07 434.636 275.35 431.244 272.09 424.036C271.792 423.113 272.72 420.769 272.917 419.061Z" fill="#FBA744"/>
<path d="M347.472 450.574C350.176 452.619 352.77 456.019 355.887 453.699C363.811 450.825 370.161 458.351 377.073 461.958C382.629 473.257 390.849 478.039 400.01 479.495C406.002 478.615 410.541 482.875 414.738 488.344C416.341 490.413 417.773 493.086 418.972 495.614C420.93 499.328 422.314 504.106 420.505 507.6C418.207 511.856 414.146 510.741 410.722 509.312C406.832 507.593 403.199 504.967 399.138 503.852C391.823 500.703 384.594 497.253 377.902 490.936C365.41 477.082 349.485 472.465 337.397 458.151C335.856 456.832 334.314 455.513 332.858 453.892C330.473 451.689 328.576 448.725 330.703 445.074C332.341 442.185 334.432 443.492 336.524 444.799C340.157 447.425 343.021 452.773 347.472 450.574Z" fill="#FCA63E"/>
<path d="M336.96 461.152C353.055 465.525 366.424 478.644 380.137 490.537C376.624 499.148 372.797 490.24 369.712 490.46C372.762 495.27 380.593 494.794 380.905 505.456C370.174 508.433 361.688 499.474 353.005 492.196C346.597 485.631 338.9 483.665 331.953 480.007C327.427 477.515 322.325 476.102 320.772 467.906C321.965 467.576 323.157 467.245 324.349 466.914C330.394 458.095 335.317 470.942 340.873 469.753C342.399 472.159 343.135 467.571 342.066 469.423C341.98 469.729 341.599 469.128 340.898 468.686C338.647 466.906 337.441 464.342 336.96 461.152Z" fill="#F9A23B"/>
<path d="M337.757 462.281C340.899 465.662 345.189 466.92 347.329 472.871C339.194 485.188 332.697 463.738 325.451 468.091C318.569 463.441 311.919 458.935 302.335 452.244C316.549 452.24 326.891 460.114 337.757 462.281Z" fill="#EB932B"/>
<path d="M350.894 488.382C360.454 489.377 368.868 499.25 378.514 499.944C389.82 496.701 399.126 505.354 408.86 512.498C424.133 528.075 441.568 535.054 459.088 541.731C467.476 545.903 475.864 550.075 484.361 552.894C492.297 559.626 498.968 549.58 506.683 552.266C513.725 553.466 519.362 557.696 524.058 565.248C527.692 574.622 516.554 570.51 517.95 578.132C513.159 581.535 509.747 576.207 505.101 573.305C511.264 578.575 517.536 582.492 523.32 587.169C527.478 590.831 532.405 591.776 536.477 595.74C539.766 599.571 542.567 604.162 539.843 609.922C537.546 614.172 533.72 613.203 530.125 612.38C526.066 611.267 522.093 609.851 518.266 608.883C513.192 607.491 508.29 605.495 503.582 601.845C489.972 589.083 474.248 582.818 459.612 573.678C442.544 564.441 426.012 552.341 407.661 547.633C402.587 546.241 397.855 543.641 395.909 536.031C391.885 529.966 384.306 531.628 381.54 522.085C385.354 520.203 388.78 528.382 393.411 521.681C384.863 514.212 375.864 509.303 366.584 506.351C361.73 502.253 357.193 497.999 352.338 493.902C351.604 491.667 351.249 490.024 350.894 488.382Z" fill="#FDA73F"/>
<path d="M354.985 402.119C362.121 389.406 373.694 402.488 374.337 406.286C375.851 418.166 383.81 415.761 386.903 421.886C386.781 427.449 391.165 429.891 391.457 434.968C380.108 437.451 368.92 436.276 357.99 426.993C359.646 425.049 352.949 417.735 360.269 418.68C364.049 419.229 367.97 424.383 372.261 419.995C369.042 412.284 361.862 415.943 358.443 409.984C358.692 406.007 356.719 403.986 354.985 402.119Z" fill="#FBA23B"/>
<path d="M378.879 454.465C383.369 458.002 381.346 460.317 378.772 462.645C371.327 460.837 364.249 456.751 357.257 452.359C356.016 447.995 344.955 449.295 352.812 439.887C361.913 441.659 369.141 453.011 378.879 454.465Z" fill="#E28921"/>
<path d="M399.284 502.069C403.431 505.701 407.663 509.034 411.492 512.822C415.638 516.454 412.384 518.308 410.689 520.427C401.518 510.503 390.385 507.465 379.703 501.888C375.093 497.968 370.337 493.605 365.264 489.397C369.712 483.351 374.836 492.17 378.834 488.664C385.164 496.118 392.991 496.399 399.284 502.069Z" fill="#E88F26"/>
</g>
</svg>
