<svg width="76" height="54" viewBox="0 0 76 54" fill="none" xmlns="http://www.w3.org/2000/svg">
<path fill-rule="evenodd" clip-rule="evenodd" d="M36.665 15.1492C36.1178 15.5435 35.6425 15.8949 35.1577 16.2332C32.9292 17.7856 30.7077 19.3475 28.4632 20.8762C27.9119 21.2516 27.6649 21.6832 27.6455 22.3593C27.5586 25.4339 27.4263 28.507 27.3075 31.5797C27.2981 31.8138 27.2716 32.0487 27.2478 32.3662L0.514626 17.757L9.92542 0.536377L36.665 15.1492ZM32.5993 15.3626L10.7724 3.43456L3.42507 16.8793L25.2271 28.7938C25.2528 28.4383 25.2803 28.1567 25.2908 27.8748C25.3818 25.6411 25.4893 23.4076 25.5473 21.1732C25.5644 20.5258 25.7993 20.101 26.3319 19.7476C27.4732 18.9901 28.586 18.1891 29.7083 17.4023C30.6472 16.7433 31.5814 16.0807 32.5993 15.3626Z" fill="#AD475C"/>
<path fill-rule="evenodd" clip-rule="evenodd" d="M11.5843 18.5213L11.043 14.3733L10.6213 14.1428L9.00028 17.1091L6.61464 15.8054L11.7152 6.47199L15.4465 8.51105C16.4749 9.0731 17.1665 9.77604 17.5214 10.6205C17.8756 11.4652 17.7803 12.4177 17.2351 13.4776C16.3318 15.1304 15.1641 15.8151 13.7308 15.5344L14.5247 20.1287L11.585 18.5222L11.5843 18.5213ZM11.7309 12.1125L13.1151 12.8689C13.5804 13.1232 14.0069 13.1259 14.3948 12.8754C14.782 12.6251 14.9769 12.2686 14.9784 11.8075C14.9799 11.3464 14.7472 10.9883 14.2813 10.7337L12.8972 9.97727L11.73 12.1131L11.7305 12.1122L11.7309 12.1125ZM25.6276 17.7713C25.4795 18.022 25.2429 18.2533 24.9162 18.4621C24.5955 18.6702 24.2187 18.7751 23.8366 18.7625C24.2495 19.3644 24.4196 19.9604 24.3476 20.5494C24.2773 21.1393 24.0798 21.6363 23.756 22.0403C22.6217 23.5101 21.0752 23.7085 19.1151 22.6373L15.3046 20.5549L20.4057 11.2206L24.1506 13.2672C25.0642 13.7665 25.6642 14.4283 25.9502 15.2523C26.237 16.0758 26.1303 16.9157 25.6276 17.7724L25.6276 17.7713ZM20.7842 16.1695L22.1555 16.9189C22.5164 17.1161 22.8494 17.1178 23.1553 16.9255C23.4598 16.7319 23.613 16.4577 23.6152 16.0983C23.6189 15.7391 23.4348 15.4599 23.065 15.2578L21.6937 14.5084L20.7855 16.1703L20.7842 16.1695ZM18.81 19.7821L20.1813 20.5315C20.6296 20.7764 21.0315 20.7885 21.3882 20.5655C21.7429 20.3442 21.9163 20.0238 21.9049 19.6068C21.8917 19.1878 21.666 18.8596 21.2271 18.6198L19.8558 17.8704L18.8107 19.783L18.81 19.7821Z" fill="#AD475C"/>
<path d="M33.6565 28.635L33.2621 25.6091L32.9544 25.441L31.7718 27.6051L30.032 26.6543L33.7518 19.8475L36.473 21.3345C37.2229 21.7444 37.7274 22.2571 37.9864 22.8728C38.2451 23.4889 38.175 24.1835 37.777 24.9566C37.1184 26.1616 36.2665 26.6616 35.221 26.4565L35.8006 29.8073L33.6563 28.6355L33.6565 28.635ZM33.7625 23.9604L34.7725 24.5123C35.1123 24.698 35.4239 24.6992 35.706 24.5171C35.9893 24.3347 36.1312 24.075 36.1317 23.7381C36.1322 23.4011 35.963 23.1405 35.6236 22.9551L34.6139 22.4033L33.7629 23.9606L33.7625 23.9604ZM41.5104 24.0874L39.0357 28.6157C38.9233 28.8214 38.8962 29.032 38.952 29.2506C39.0074 29.4679 39.1212 29.6436 39.293 29.7803C39.464 29.9155 39.6556 30.0202 39.8651 30.093C40.0758 30.1658 40.2864 30.1673 40.5003 30.0967C40.7136 30.0252 40.8768 29.8884 40.989 29.6831L43.4639 25.1544L45.2037 26.1052L42.7288 30.6339C42.5396 30.9802 42.3049 31.2621 42.024 31.4787C41.7627 31.6869 41.4582 31.8343 41.1328 31.9099C40.8092 31.9812 40.4773 32.0077 40.1465 31.9886C39.8068 31.9726 39.473 31.8939 39.1619 31.7566C38.85 31.6196 38.55 31.4556 38.2628 31.2653C37.9777 31.0768 37.7297 30.8375 37.5311 30.5593C37.3373 30.2927 37.1821 29.9999 37.0703 29.6898C36.9628 29.3906 36.927 29.0639 36.9613 28.712C36.9947 28.3607 37.1071 28.0114 37.2963 27.6652L39.7712 23.1364L41.511 24.0872L41.5104 24.0874ZM42.6906 32.099L44.3343 31.6727C44.3751 31.9037 44.4624 32.1267 44.599 32.3421C44.7356 32.5576 44.8906 32.7352 45.0655 32.8714C45.2408 33.009 45.4191 33.1164 45.6003 33.1943C45.7821 33.2731 45.9549 33.299 46.1197 33.2723C46.2833 33.2459 46.4079 33.1626 46.4915 33.0258C46.5963 32.8493 46.5637 32.6412 46.3964 32.3995C46.2295 32.158 45.9977 31.9273 45.7005 31.7075C45.1577 31.2851 44.7856 30.7807 44.587 30.193C44.3881 29.6057 44.4546 29.0076 44.7876 28.3982C45.1342 27.764 45.6482 27.3977 46.3304 27.2991C47.0125 27.2017 47.6896 27.3374 48.3624 27.7051C49.3181 28.2273 49.8958 29.0133 50.0968 30.0631L48.4984 30.3137C48.4089 29.958 48.223 29.6339 47.9613 29.3769C47.701 29.1222 47.4296 28.9823 47.1473 28.9571C46.8658 28.9324 46.651 29.0465 46.5041 29.299C46.3632 29.6038 46.5492 29.9803 47.0617 30.4274C47.3101 30.6288 47.5205 30.815 47.6935 30.9841C47.8674 31.1548 48.0339 31.3593 48.1929 31.6009C48.3521 31.8421 48.4582 32.0787 48.5114 32.3115C48.5625 32.5437 48.5618 32.8098 48.5061 33.1083C48.4511 33.4066 48.3289 33.7126 48.1419 34.0262C47.902 34.4267 47.5302 34.7311 47.0903 34.8873C46.6455 35.0553 46.1656 35.1088 45.6947 35.0429C45.218 34.9783 44.7641 34.8293 44.3352 34.5949C43.9182 34.367 43.5623 34.0334 43.2681 33.5982C42.9741 33.1627 42.7828 32.6635 42.6922 32.0981L42.6906 32.099ZM55.2426 34.2876C55.1339 34.4703 54.9616 34.6388 54.7235 34.7914C54.4897 34.9434 54.2148 35.0198 53.936 35.0105C54.2371 35.4494 54.3613 35.884 54.3091 36.3135C54.2578 36.7435 54.1137 37.106 53.8774 37.4009C53.0502 38.4726 51.9225 38.6177 50.4929 37.8364L47.7138 36.3177L51.4339 29.5105L54.1649 31.0029C54.8313 31.3671 55.2691 31.8501 55.4775 32.4504C55.6868 33.0512 55.6085 33.6639 55.2421 34.2885L55.2426 34.2876ZM51.7099 33.1195L52.7101 33.6661C52.9732 33.8099 53.2164 33.8109 53.4392 33.6711C53.6612 33.5297 53.773 33.3292 53.7746 33.0675C53.7774 32.8057 53.6428 32.602 53.3733 32.4547L52.3731 31.9081L51.7108 33.12L51.7099 33.1195ZM50.2702 35.7541L51.2703 36.3007C51.5973 36.4794 51.8903 36.4881 52.1506 36.3254C52.4091 36.1639 52.5357 35.9304 52.5271 35.6263C52.5177 35.3206 52.3529 35.0814 52.0328 34.9065L51.0331 34.3601L50.271 35.7546L50.2702 35.7541ZM60.5409 34.4867L59.2534 42.6239L57.4072 41.615L57.7107 40.0078L55.8937 39.0148L54.724 40.1492L52.877 39.1399L58.9728 33.6309L60.5404 34.4876L60.5409 34.4867ZM57.1142 37.695L58.1341 38.2524L58.75 36.0051L58.7016 35.9787L57.1143 37.6957L57.1142 37.695ZM59.7869 41.4418L61.4306 41.0156C61.4714 41.2465 61.5587 41.4696 61.6953 41.685C61.8323 41.9007 61.9869 42.0781 62.1627 42.2148C62.3371 42.3518 62.5159 42.4596 62.697 42.5374C62.8788 42.6162 63.0516 42.6421 63.2165 42.6154C63.38 42.589 63.5046 42.5057 63.5883 42.3689C63.693 42.1924 63.6604 41.9843 63.4931 41.7426C63.3262 41.5011 63.0945 41.2704 62.7972 41.0506C62.2545 40.6282 61.8823 40.1238 61.6837 39.5361C61.4845 38.9486 61.5509 38.3505 61.8839 37.7411C62.2305 37.1069 62.7445 36.7406 63.4267 36.642C64.1088 36.5445 64.7859 36.6803 65.4587 37.0479C66.4144 37.5702 66.9921 38.3562 67.1931 39.406L65.5947 39.6566C65.5049 39.3009 65.319 38.9767 65.0572 38.7196C64.7968 38.4648 64.5255 38.3249 64.2432 38.2997C63.9617 38.275 63.7469 38.3891 63.6 38.6417C63.4591 38.9464 63.6451 39.323 64.1576 39.77C64.4059 39.9714 64.6164 40.1576 64.7894 40.3268C64.9632 40.4975 65.1297 40.702 65.2888 40.9436C65.448 41.1848 65.5541 41.4214 65.6072 41.6541C65.6584 41.8863 65.6577 42.1525 65.602 42.4509C65.5469 42.7492 65.4247 43.0553 65.2378 43.3688C64.9979 43.7693 64.6261 44.0738 64.1862 44.23C63.732 44.3991 63.266 44.4505 62.7902 44.3853C62.3135 44.3207 61.8596 44.1717 61.4306 43.9373C61.0136 43.7094 60.6578 43.3758 60.3636 42.9407C60.07 42.5053 59.8791 42.0064 59.7881 41.4408L59.7869 41.4418ZM69.3904 41.4198L68.812 42.4783L71.5717 43.9865L70.7575 45.4765L67.9977 43.9683L67.4408 44.9874L70.4414 46.6271L69.5531 48.2526L64.8119 45.6615L68.5319 38.8543L73.2723 41.4449L72.3895 43.0604L69.3889 41.4196L69.3904 41.4198Z" fill="black"/>
</svg>
