<svg width="200" height="145" viewBox="0 0 200 145" fill="none" xmlns="http://www.w3.org/2000/svg">
<path d="M199.522 134.822C200.112 134.237 200.117 133.289 199.533 132.704L190.02 123.175C189.436 122.59 188.485 122.59 187.895 123.175C187.305 123.76 187.3 124.708 187.884 125.293L196.34 133.763L187.796 142.233C187.206 142.818 187.201 143.766 187.785 144.351C188.369 144.936 189.32 144.936 189.91 144.351L199.522 134.822ZM0.997346 1.00776C0.997369 31.9058 6.39308 65.6123 34.0251 91.5367C61.6167 117.423 111.074 135.26 198.458 135.26L198.473 132.266C111.391 132.266 62.866 114.471 36.0913 89.3513C9.35697 64.2692 4.00268 31.5942 4.00265 0.992241L0.997346 1.00776Z" fill="#E41A32"/>
</svg>
