<svg width="273" height="98" viewBox="0 0 273 98" fill="none" xmlns="http://www.w3.org/2000/svg">
<path d="M272.213 86.1869C272.703 85.5168 272.556 84.5806 271.886 84.0958L260.967 76.1954C260.297 75.7106 259.357 75.8609 258.868 76.531C258.378 77.2011 258.525 78.1373 259.195 78.6221L268.901 85.6446L261.811 95.3515C261.322 96.0216 261.468 96.9579 262.138 97.4427C262.808 97.9275 263.748 97.7772 264.238 97.1071L272.213 86.1869ZM0.761606 1.98392C31.3359 46.2129 61.2154 73.5608 102.48 86.7288C143.66 99.8699 195.969 98.8168 271.231 86.7878L270.769 83.8304C195.594 95.8454 143.88 96.791 103.408 83.8758C63.02 70.9875 33.6178 44.224 3.23839 0.276824L0.761606 1.98392Z" fill="#E41A32"/>
</svg>
