<svg width="266" height="45" viewBox="0 0 266 45" fill="none" xmlns="http://www.w3.org/2000/svg">
<path d="M2.00275 42.6745C2.08322 43.4973 2.81856 44.1026 3.64518 44.0265L17.1156 42.7867C17.9423 42.7107 18.5471 41.982 18.4666 41.1592C18.3862 40.3363 17.6508 39.731 16.8242 39.8071L4.85047 40.9091L3.68476 28.9904C3.60427 28.1676 2.86893 27.5622 2.04231 27.6383C1.2157 27.7144 0.610843 28.4431 0.691317 29.2659L2.00275 42.6745ZM263.767 0.623495C258.949 3.27405 252.053 5.05431 243.441 6.19592C234.854 7.33417 224.692 7.82234 213.427 7.96511C190.795 8.25191 164.208 7.15218 136.991 7.18325C109.906 7.21417 82.4695 8.37381 58.738 13.2098C35.0356 18.0398 14.7861 26.5841 2.33808 41.5806L4.66084 43.4928C16.4631 29.2742 35.9013 20.9208 59.3552 16.1414C82.7801 11.3679 109.969 10.2065 137.009 10.1756C163.916 10.1449 190.955 11.2427 213.479 10.9573C224.792 10.8139 235.091 10.3235 243.852 9.16214C252.588 8.00412 259.925 6.16368 265.232 3.24385L263.767 0.623495Z" fill="#E41A32"/>
</svg>
