<svg width="213" height="69" viewBox="0 0 213 69" fill="none" xmlns="http://www.w3.org/2000/svg">
<path d="M6.37607 67.6518C6.70146 68.4136 7.58492 68.7722 8.34934 68.4528L20.8062 63.2478C21.5706 62.9284 21.9265 62.0519 21.6011 61.2901C21.2757 60.5283 20.3923 60.1696 19.6279 60.489L8.55507 65.1157L3.84159 54.0808C3.51619 53.319 2.63273 52.9603 1.86832 53.2797C1.1039 53.5991 0.747997 54.4756 1.0734 55.2374L6.37607 67.6518ZM210.36 0.400528C200.279 11.0045 184.588 16.0378 165.905 18.6101C147.228 21.1818 125.955 21.2543 104.838 22.2142C83.8098 23.17 62.9789 25.0073 45.5444 31.1877C28.0486 37.3899 13.8785 48.0025 6.36483 66.507L9.15548 67.6399C16.2709 50.1161 29.6556 40.0016 46.5684 34.006C63.5427 27.9888 83.9745 26.1577 104.991 25.2025C125.919 24.2513 147.474 24.1701 166.334 21.5733C185.189 18.9772 201.746 13.8275 212.551 2.4617L210.36 0.400528Z" fill="#E41A32"/>
</svg>
