<svg width="153" height="128" viewBox="0 0 153 128" fill="none" xmlns="http://www.w3.org/2000/svg">
<path d="M141.029 127.648C141.663 128.179 142.611 128.095 143.147 127.461L151.882 117.129C152.418 116.495 152.339 115.55 151.706 115.02C151.072 114.489 150.124 114.572 149.588 115.206L141.823 124.391L132.646 116.701C132.012 116.17 131.064 116.254 130.528 116.888C129.992 117.522 130.071 118.466 130.704 118.997L141.029 127.648ZM0.786205 1.55529C4.94568 20.6773 15.5529 32.9234 29.1294 41.8089C42.6268 50.6426 59.1311 56.1934 75.077 61.9357C91.1175 67.712 106.609 73.6853 118.546 83.3322C130.399 92.9116 138.787 106.152 140.503 126.632L143.498 126.368C141.713 105.057 132.913 91.0782 120.446 81.0026C108.063 70.9945 92.1016 64.877 76.1114 59.1188C60.0266 53.3265 43.9224 47.8993 30.7884 39.3034C17.7335 30.7594 7.68641 19.1247 3.72356 0.906626L0.786205 1.55529Z" fill="#E41A32"/>
</svg>
