<svg width="251" height="89" viewBox="0 0 251 89" fill="none" xmlns="http://www.w3.org/2000/svg">
<path d="M239.529 88.0243C240.163 88.5556 241.111 88.4726 241.647 87.8387L250.381 77.5098C250.917 76.8759 250.838 75.9314 250.204 75.4C249.571 74.8686 248.623 74.9517 248.087 75.5856L240.323 84.7668L231.148 77.0699C230.514 76.5386 229.566 76.6217 229.03 77.2555C228.495 77.8893 228.574 78.8339 229.207 79.3653L239.529 88.0243ZM0.786687 1.53584C5.04306 21.127 22.327 30.8062 45.0172 35.8354C67.7408 40.872 96.5302 41.3964 124.795 42.1992C153.17 43.0052 181.007 44.0916 202.185 50.142C212.757 53.1623 221.545 57.3876 227.888 63.3297C234.195 69.2385 238.158 76.9098 239.003 87.0078L241.997 86.7454C241.092 75.9226 236.804 67.5627 229.951 61.1427C223.133 54.7558 213.848 50.3543 203.025 47.2624C181.415 41.0884 153.174 40.0085 124.894 39.2052C96.5026 38.3988 68.0586 37.8711 45.6822 32.9115C23.2723 27.9444 7.5895 18.6833 3.72355 0.889133L0.786687 1.53584Z" fill="#E41A32"/>
</svg>
