<svg width="262" height="514" viewBox="0 0 262 514" fill="none" xmlns="http://www.w3.org/2000/svg">
<g clip-path="url(#clip0)">
<path d="M215.874 281.256C215.715 282.183 210.356 246.592 149.897 220.33C149.874 220.429 127.485 210.167 92.3271 213.514C92.3497 213.415 72.0316 214.074 66.5317 212.481C66.5543 212.382 53.7286 192.287 46.7819 181.61C46.8045 181.511 52.397 200.53 53.477 205.623C54.6045 210.623 56.5101 215.409 50.5612 222.417C50.5781 222.343 40.8394 235.575 38.6218 237.988C38.6274 237.963 51.0049 233.045 57.083 226.613C59.6274 223.91 65.8965 216.297 67.9107 216.834C69.9192 217.397 81.1384 220.761 100.61 234.45C182.955 295.015 215.553 283.006 215.874 281.256Z" fill="#DBE5F1"/>
<path d="M99.7438 139.481C99.6817 139.753 93.36 116.502 36.8734 106.65C36.8508 106.749 15.9389 102.582 -16.0952 109.143C-16.0839 109.093 -34.6253 111.902 -39.6979 111.293C-39.6866 111.244 -51.9274 97.6139 -58.5114 90.1461C-58.5001 90.0965 -52.9121 103.878 -51.7692 107.552C-50.615 111.176 -48.7513 114.546 -54.0025 120.436C-53.9912 120.387 -62.5326 131.338 -64.4865 133.394C-64.4808 133.37 -53.3127 128.385 -47.9424 122.886C-45.6978 120.583 -40.1794 114.206 -38.3204 114.395C-36.4614 114.585 -26.135 115.922 -7.92342 123.591C69.3229 157.484 99.5845 140.408 99.7438 139.481Z" fill="#DBE5F1"/>
<path d="M104.454 336.547C104.426 336.67 102.551 322.719 76.2182 314.554C76.2126 314.579 66.4504 311.338 50.9099 314.128C50.9156 314.103 41.9853 314.986 39.6468 314.27C39.6525 314.246 34.7861 304.616 32.2085 299.234C32.2141 299.209 33.9153 308.665 34.2189 311.105C34.5226 313.545 35.1933 315.861 32.3748 319.31C32.3748 319.31 27.7382 325.705 26.6958 326.849C26.6958 326.849 32.1926 324.453 35.0537 321.275C36.2403 319.956 39.2369 316.183 40.0791 316.375C40.9404 316.598 45.6993 318.125 53.844 323.89C88.4192 348.708 104.456 336.651 104.454 336.547Z" fill="#DBE5F1"/>
<path d="M56.6993 59.6242C56.7181 59.5413 53.2924 50.2721 20.7216 44.3169C20.7001 44.4115 8.67766 41.7335 -10.0723 43.9443C-10.0642 43.9088 -20.8829 44.7412 -23.7704 44.1951C-23.7757 44.2187 -30.1461 36.1826 -33.4762 31.3536C-33.4789 31.3654 -31.012 39.5449 -30.5217 41.5983C-30.0395 43.6872 -29.122 45.6139 -32.4082 48.6734C-32.4001 48.6379 -37.8136 54.4238 -39.024 55.5294C-39.0213 55.5176 -32.3727 53.0502 -29.0313 50.2397C-27.6375 49.0389 -24.1673 45.7724 -23.1099 45.9387C-22.0445 46.0696 -16.1927 47.3162 -5.92315 51.6235C37.8419 69.241 56.7387 59.3967 56.6993 59.6242Z" fill="#DBE5F1"/>
<path d="M80.3268 448.998C80.287 449.063 84.0892 430.918 53.6459 414.711C53.6326 414.732 42.4402 408.49 21.2672 408.166C21.2672 408.166 9.48364 407.016 6.84536 405.486C6.85865 405.465 4.93628 392.034 3.99504 384.63C4.00833 384.609 2.03799 396.903 1.35286 400.059C0.667722 403.216 0.480112 406.29 -4.6234 409.895C-4.6234 409.895 -13.323 416.688 -15.1207 417.82C-15.1207 417.82 -7.12359 416.349 -2.08456 413.092C-0.0057604 411.745 5.47179 407.773 6.49098 408.25C7.49688 408.748 12.8684 411.895 20.6827 421.31C53.6775 461.677 80.2604 449.106 80.3268 448.998Z" fill="#DBE5F1"/>
<path d="M29.9287 283.317C29.8142 283.572 30.0242 258.296 -25.3878 242.216C-25.419 242.285 -45.8582 235.893 -80.8859 239.911C-80.865 239.865 -100.786 241.001 -105.731 239.672C-105.71 239.626 -113.785 222.939 -118.004 213.665C-117.993 213.642 -116.819 229.82 -116.815 234.027C-116.8 238.212 -115.984 242.226 -123.201 248.064C-123.191 248.041 -135.279 258.961 -137.848 260.899C-137.848 260.899 -125.015 256.942 -117.826 251.536C-114.838 249.285 -107.178 242.894 -105.319 243.283C-103.471 243.695 -93.4061 246.459 -77.1095 256.868C-8.24239 301.964 29.731 283.757 29.9287 283.317Z" fill="#DBE5F1"/>
</g>
<defs>
<clipPath id="clip0">
<rect width="372" height="442" fill="white" transform="translate(-101.56) rotate(12.8401)"/>
</clipPath>
</defs>
</svg>
