<svg width="1440" height="897" viewBox="0 0 1440 897" fill="none" xmlns="http://www.w3.org/2000/svg">
<g filter="url(#filter0_d)">
<path fill-rule="evenodd" clip-rule="evenodd" d="M1440 103.63L1380 90.4373C1320 76.9805 1200 50.3307 1080 38.9847C960 27.6388 840 31.3328 720 40.8317C683.836 43.6944 647.671 47.0843 611.507 50.4742C527.671 58.3327 443.836 66.1911 360 67.4815C242.309 69.293 124.619 58.4144 63.5305 52.7677L63.5303 52.7677L60 52.4415L6.27583e-06 46.6366L9.53925e-06 17H0V715.655L60 733.757C120 752.221 240 788.788 360 804.356C480 819.924 600 814.855 720 801.821C756.164 797.893 792.329 793.242 828.493 788.591C912.329 777.808 996.164 767.025 1080 765.255C1197.69 762.769 1315.38 777.696 1376.47 785.444L1380 785.891L1440 793.856V103.63Z" fill="#08264C"/>
</g>
<defs>
<filter id="filter0_d" x="-50" y="0" width="1540" height="897" filterUnits="userSpaceOnUse" color-interpolation-filters="sRGB">
<feFlood flood-opacity="0" result="BackgroundImageFix"/>
<feColorMatrix in="SourceAlpha" type="matrix" values="0 0 0 0 0 0 0 0 0 0 0 0 0 0 0 0 0 0 127 0"/>
<feMorphology radius="10" operator="erode" in="SourceAlpha" result="effect1_dropShadow"/>
<feOffset dy="33"/>
<feGaussianBlur stdDeviation="30"/>
<feColorMatrix type="matrix" values="0 0 0 0 0 0 0 0 0 0.0817252 0 0 0 0 0.358333 0 0 0 0.1 0"/>
<feBlend mode="normal" in2="BackgroundImageFix" result="effect1_dropShadow"/>
<feBlend mode="normal" in="SourceGraphic" in2="effect1_dropShadow" result="shape"/>
</filter>
</defs>
</svg>
