<svg width="233" height="676" viewBox="0 0 233 676" fill="none" xmlns="http://www.w3.org/2000/svg">
<g opacity="0.8">
<path d="M136.952 297.324C136.277 302.686 136.004 307.795 137.409 312.32C131.45 334.173 129.344 336.204 113.92 338.145C112.199 337.111 111.046 335.485 110.794 332.587C111.951 323.394 107.672 316.21 111.311 305.927C116.939 302.386 115.883 299.994 113.009 297.334C109.534 289.644 111.538 281.564 119.187 272.756C121.321 269.533 123.69 266.397 126.059 263.261C127.694 261.057 129.801 259.026 132.047 257.849C139.054 260.025 130.976 270.279 133.491 274.811C134.747 282.486 137.374 289.063 136.952 297.324Z" fill="#F8AE55"/>
<path d="M-54.6531 51.0111C-53.9044 50.0651 -53.1556 49.1191 -52.5762 48.5176C-41.0794 48.2376 -32.1481 54.3358 -20.3127 53.3666C-18.8413 52.6838 -17.1291 52.0889 -15.6578 51.4061C-14.1149 51.1557 -12.7413 51.2499 -11.4654 52.1211C-5.76304 57.8554 -2.83413 64.6105 -14.5401 74.5651C-27.3527 83.3039 -37.2736 78.0639 -48.5295 78.4318C-54.3626 78.7441 -56.0872 72.4278 -54.2181 64.5769C-52.6683 60.2662 -53.8204 57.4088 -55.1417 54.8959C-55.2849 54.0312 -55.2587 52.8219 -54.6531 51.0111Z" fill="#F89C2E"/>
<path d="M58.7599 148.994C65.6792 161.818 76.3024 169.403 88.3636 174.631C93.7862 177.022 99.2813 179.852 100.757 187.393C100.048 190.018 98.4655 191.499 96.2511 191.927C71.7662 179.28 45.3311 170.04 28.0364 145.603C38.9212 136.808 46.8271 137.635 58.7599 148.994Z" fill="#FB9F30"/>
<path d="M3.88993 510.379C-2.10097 512.698 -7.35949 511.191 -12.3036 510.208C-23.2331 507.452 -35.2556 506.345 -41.2764 494.737C-42.6267 489.333 -41.9406 483.853 -36.2124 478.574C-19.292 479.01 -4.58363 483.961 4.46318 498.719C5.69509 502.033 7.99415 504.917 3.88993 510.379Z" fill="#EC9835"/>
<path d="M114.863 334.98C127.788 337.359 132.346 323.466 138.654 312.217C146.451 322.288 131.846 335.264 131.442 346.299C121.852 349.545 121.847 360.328 117.118 367.767C113.613 373.262 111.629 370.532 109.454 369.329C108.124 358.452 105.529 347.907 114.863 334.98Z" fill="#FACE99"/>
<path d="M91.0245 411.581C89.0072 423.674 80.7327 431.463 72.8709 434.991C67.4955 437.428 63.2484 442.686 58.2058 444.443C55.1971 436.92 56.6617 428.234 62.9759 419.323C70.9075 416.222 77.3881 406.971 85.0835 403.783C88.7247 404.318 91.4639 406.127 91.0245 411.581Z" fill="#FCE0BE"/>
<path d="M100.161 190.174C100.669 189.14 101.418 188.194 101.926 187.16C104.406 188.47 106.477 190.037 108.957 191.347C111.36 196.286 107.921 205.598 114.185 207.88C114.998 211.428 113.715 214.617 111.13 218.145C109.802 219.693 108.161 220.721 106.689 221.404C100.517 222.405 96.2325 218.406 90.6655 217.597C82.3054 214.957 82.0849 202.686 75.5611 197.465C74.5259 196.682 77.0395 192.721 79.1884 190.66C86.019 185.428 89.8212 189.251 94.8087 190.662C96.8598 189.378 97.4064 194.047 100.161 190.174Z" fill="#F79E32"/>
<path d="M57.9195 148.809C48.0594 146.848 38.6367 143.415 27.8301 143.963C21.5818 151.471 15.6594 151.352 9.49526 151.145C4.97657 149.907 2.61246 146.599 3.56518 140.016C10.8579 129.219 20.2807 132.651 27.9067 125.237C32.3336 123.181 35.7161 124.413 38.1781 126.94C42.1554 134.505 51.2448 134.554 55.3919 141.773C57.4685 143.345 58.8921 145.086 57.9195 148.809Z" fill="#FBD09D"/>
<path d="M30.0747 92.4434C33.9915 91.4248 37.9084 90.4062 41.8252 89.3877C49.1894 94.1082 58.2964 97.0182 57.6709 111.055C56.1435 114.167 54.1851 114.676 52.3245 114.406C48.7731 113.52 47.2322 109.698 44.0202 108.12C41.3632 107.152 38.4386 107.31 35.1027 107.725C32.6612 108.058 30.0499 108.737 27.269 109.762C25.1409 110.617 23.1106 110.692 21.4197 110.076C18.4493 108.587 17.0521 105.632 17.6393 100.956C18.0047 99.0508 18.6835 97.6678 20.0151 96.115C23.403 93.2735 26.5431 94.4174 30.0747 92.4434Z" fill="#F9B769"/>
<path d="M136.391 297.656C132.648 292.276 129.869 286.053 130.056 277.724C136.508 253.715 136.508 253.715 144.768 247.566C144.053 251.301 142.374 255.879 143.024 258.519C146.539 270.611 142.7 283.589 136.391 297.656Z" fill="#FCE1C0"/>
<path d="M-22.7452 511.487C-21.5502 520.072 -14.762 521.323 -9.8142 525.163C-4.38341 529.178 -7.38564 532.975 -12.8289 537.104C-24.186 537.041 -30.5766 528.601 -37.8156 521.889C-39.7414 517.113 -44.304 514.228 -38.9262 505.592C-31.5769 503.38 -25.4153 503.587 -22.7452 511.487Z" fill="#FBB665"/>
<path d="M64.0047 418.493C60.5485 427.258 59.8887 435.444 57.9491 443.963C53.443 446.322 48.9802 450.302 44.7206 448.738C45.4071 439.358 38.8176 431.721 47.9897 419.838C50.6727 417.211 53.6357 416.292 56.5287 414.946C59.4917 414.027 62.288 413.448 63.8212 416.018C63.9612 416.872 63.8647 417.639 64.0047 418.493Z" fill="#F7AD52"/>
<path d="M50.2333 418.807C46.4326 424.261 44.563 429.214 47.102 433.766C49.403 438.232 48.6531 443.192 44.6143 448.559C43.0184 448.377 41.3255 448.966 39.9145 451.268C38.4596 451.943 37.3398 451.936 36.4846 450.818C35.5589 449.271 34.6332 447.725 33.7075 446.178C29.4049 441.785 19.6793 443.863 22.1139 431.467C26.9373 426.79 32.7212 429.309 37.0246 422.831C42.2976 419.527 47.2007 411.255 52.8171 414.116C52.7906 415.314 52.526 416.425 51.7852 417.362C50.8769 418.64 50.4713 418.894 50.2333 418.807Z" fill="#F49A2D"/>
<path d="M111.752 366.987C113.642 367.682 115.199 369.056 118.016 367.285C113.402 378.419 114.097 393.51 98.8374 397.926C93.2285 400.275 90.1847 397.954 89.443 392.068C92.5539 377.173 106.499 378.288 111.752 366.987Z" fill="#F9BA6E"/>
<path d="M3.72359 510.678C4.68624 506.999 3.28216 505.277 1.47179 503.809C3.16753 492.338 -7.20912 490.559 -6.49365 479.939C1.71953 467.224 6.11737 474.877 11.6015 476.883C13.3413 477.922 14.2685 479.47 14.0477 482.21C9.80864 489.124 10.9654 494.786 11.0007 500.442C11.345 506.613 9.19011 509.855 3.72359 510.678Z" fill="#F8A441"/>
<path d="M23.2728 58.4229C17.7806 63.8023 13.8628 52.5313 7.61172 62.9654C-3.17145 68.056 -8.23527 60.8784 -13.9082 55.5291C-14.5379 54.4793 -15.1677 53.4295 -15.5548 52.4681C1.93365 42.4404 12.2625 51.1276 23.2728 58.4229Z" fill="#FCE6CC"/>
<path d="M111.246 216.262C112.598 213.509 113.782 211.1 112.944 208.766C109.069 208.571 105.488 206.049 109.636 201.069C115.28 194.2 118.569 199.05 121.136 203.638C128.559 211.617 135.572 219.854 135.739 234.52C134.965 236.673 133.736 237.442 132.026 238.036C129.764 238.023 128.418 236.721 127.242 235.075C124.948 225.313 119.424 219.242 111.246 216.262Z" fill="#FBD4A6"/>
<path d="M92.4091 388.196C91.2941 395.057 96.4393 394.917 99.2823 397.166C94.7752 401.173 98.4426 409.781 90.6851 411.793C87.6739 409.886 84.6627 407.979 81.4832 406.414C80.8006 400.916 75.5928 396.591 81.3039 388.986C85.3593 383.603 90.0263 383.288 92.4091 388.196Z" fill="#F8BB71"/>
<path d="M135.434 236.715C135.997 236.124 136.491 235.109 137.055 234.519C142.129 235.996 144.552 240.086 144.159 247.128C134.541 255.551 137.012 268.044 129.498 277.244C122.51 273.463 133.722 264.032 131.326 258.754C131.087 251.878 131.012 244.663 135.434 236.715Z" fill="#FAC485"/>
<path d="M120.456 203.655C118.617 203.387 117.114 202.434 115.345 202.594C113.745 202.413 112.533 199.147 110.782 202.137C108.289 206.066 111.154 207.113 112.153 209.092C97.0677 212.857 108.448 198.864 108.916 192.178C117.308 190 119.828 195.762 120.456 203.655Z" fill="#FACB92"/>
<path d="M38.0597 450.235C39.0054 450.583 39.7147 450.843 40.6604 451.191C41.5096 452.305 44.4167 453.774 41.4297 455.886C34.2467 460.87 28.3158 466.715 25.5718 475.736C23.1542 477.255 21.3326 476.987 19.8441 476.039C18.8284 475.265 18.2157 474.238 17.7695 472.87C17.7262 471.25 18.1558 469.803 18.7519 468.016C20.4869 465.043 23.0011 462.757 25.4188 461.238C27.197 459.885 28.8087 458.873 30.2806 457.006C31.7525 455.14 33.0579 453.613 34.7662 451.834C35.7386 450.988 36.9474 450.228 38.0597 450.235Z" fill="#FCCD96"/>
<path d="M54.4694 112.711C55.7732 112.372 57.077 112.033 58.3091 111.262C63.2309 112.241 66.6274 116.326 72.325 115.147C72.5402 116.446 72.5141 117.657 71.6666 119.383C70.7474 120.675 69.5153 121.447 68.4527 121.874C63.8177 122.626 59.9845 120.009 54.4759 123.699L54.5737 122.921C51.0012 123.247 50.7405 120.304 51.2294 116.413C51.5945 114.512 52.7549 113.307 54.4694 112.711Z" fill="#F8B360"/>
<path d="M18.7648 470.801C19.3141 471.406 20.2709 471.755 20.8202 472.36C19.616 475.958 26.5341 475.657 21.4238 481.465C19.1029 481.021 16.8794 479.805 13.93 482.363C12.6631 481.497 11.1571 480.543 9.89026 479.676C10.0404 476.501 12.104 474.023 13.6893 471.371C14.6015 470.089 15.5846 469.236 17.0461 468.558C18.0028 468.908 18.5521 469.512 18.7648 470.801Z" fill="#FDA842"/>
<path d="M54.3638 123.554C60.2715 116.739 64.2803 119.014 68.3609 121.723C64.4438 122.742 60.5269 123.761 56.6098 124.779L55.5716 123.993L54.3638 123.554Z" fill="#F9BD75"/>
<path d="M21.3718 481.904C21.1145 478.982 21.0254 475.719 20.7681 472.797C22.2743 473.751 24.0198 474.792 25.526 475.746C25.8543 479.097 25.9434 482.361 21.3718 481.904Z" fill="#F8B15C"/>
<path d="M68.3648 122.012C69.2749 120.732 69.7786 119.707 70.6887 118.427C71.9081 117.663 73.3661 116.986 74.7269 117.08C75.8226 118.287 75.8667 119.916 74.5502 121.451C71.9877 124.949 70.2734 122.71 68.3648 122.012Z" fill="#F9BD75"/>
<path d="M74.8111 116.777C73.3491 117.455 72.0553 117.791 70.7616 118.127C71.2665 117.099 72.0108 116.159 72.5157 115.132C73.0652 115.736 73.854 116.428 74.8111 116.777Z" fill="#F9C07C"/>
<path d="M91.678 388.4C81.9657 390.795 81.9657 390.795 84.3764 398.872C85.6296 402.529 82.1408 404.032 80.8239 406.739C76.9314 419.27 70.5858 422.112 62.9445 419.685L63.603 418.332C60.1887 409.485 65.1273 399.336 70.2038 390.037C73.6342 384.12 80.102 379.327 77.994 371.761C77.5532 370.401 78.3339 367.097 79.8313 366.853C96.6591 362.299 89.6659 344.943 97.3392 335.406C97.6525 331.93 98.3641 328.201 101.178 325.25C102.772 324.243 104.2 323.574 105.697 323.329C110.423 322.682 113.928 323.979 114.825 329.5C114.868 331.112 114.677 332.638 114.719 334.251C113.615 345.019 112.112 356.04 111.007 366.808C109.844 373.164 111.156 381.234 101.661 380.915C97.8962 380.72 94.4499 383.836 91.678 388.4Z" fill="#F49C32"/>
<path d="M113.158 330.077C110.213 327.374 106.081 327.091 101.851 327.588C94.3954 319.574 83.2323 317.953 74.6866 311.579C70.1233 308.694 64.1305 308.141 59.2277 305.947C55.6306 303.414 51.8637 301.227 53.3973 294.042C61.5566 284.38 67.7129 288.66 73.2684 290.684C78.7521 292.274 84.7449 292.827 86.8209 294.399C82.9562 292.991 75.5141 291.91 69.4297 288.063C66.4135 284.926 61.7523 282.821 65.8251 274.523C80.2386 268.362 89.5089 275 99.1187 280.946C102.488 290.324 111.667 293.668 112.882 305.115C109.677 314.544 117.524 319.441 113.158 330.077Z" fill="#F79622"/>
<path d="M111.919 305.248C106.537 299.657 98.9379 296.873 98.0602 286.098C98.2102 282.936 97.1464 280.536 95.9153 278.477C94.0953 274.191 90.9911 270.239 94.0269 262.909C100.327 252.351 107.865 250.69 115.517 251.082C117.97 259.218 121.965 248.217 125.246 247.811C134.156 249.066 127.144 259.362 127.011 265.345C124.697 268.919 122.788 272.24 120.474 275.815C116.691 277.244 110.561 276.606 110.393 276.947C108.211 285.394 110.716 291.137 114.032 296.372C118.517 299.222 115.42 302.108 111.919 305.248Z" fill="#F59A2C"/>
<path d="M126.492 265.876C123.161 261.844 129.108 251.985 123.761 249.219C120.86 243.739 119.643 237.673 125.941 229.95C128.167 229.965 129.894 231 130.148 233.903C131.638 234.851 133.128 235.8 134.619 236.748C134.459 243.914 136.693 250.755 130.702 258.992C129.299 261.287 127.895 263.581 126.492 265.876Z" fill="#F6A23D"/>
<path d="M114.237 296.723C102.272 294.763 107.143 280.836 108.15 267.911C112.147 271.79 115.429 275.408 120.627 275.697C109.905 282.651 114.396 289.531 114.237 296.723Z" fill="#F7A039"/>
<path d="M-47.472 60.962C-57.254 71.0266 -50.2412 76.0713 -46.5361 74.9459C-35.0062 71.3077 -26.6557 78.9084 -14.7327 72.107C-8.9549 69.6725 -5.22843 71.4485 -2.86946 76.0316C-4.21562 81.7401 2.2929 79.5729 1.70314 84.3178C0.651858 87.6538 -1.03194 89.9318 -4.0063 91.3245C-34.3438 90.5655 -61.066 81.2074 -89.1557 74.6564C-92.0787 73.5875 -94.8308 72.1677 -96.8266 69.7844C-99.2838 65.9922 -100.01 61.5927 -94.8138 55.6386C-78.1941 55.1018 -61.036 52.2815 -47.472 60.962Z" fill="#FA9A27"/>
<path d="M-3.80996 80.5499C-7.63334 77.9392 -11.3852 75.7603 -15.2086 73.1495C-4.50339 64.0645 -13.4055 60.8204 -13.6843 55.0373C-6.70693 57.58 0.680064 59.8661 7.6574 62.4088L6.83794 62.9218C7.85763 71.8156 4.57276 77.9233 -3.80996 80.5499Z" fill="#F69F36"/>
<path d="M12.7073 147.564C17.9861 146.17 23.192 144.333 28.4708 142.94C51.9362 158.633 75.573 173.972 99.2827 189.755C100.333 190.557 102.017 192.425 100.599 193.57C97.7623 195.86 96.5193 192.489 94.5653 191.771C82.3274 188.528 70.6037 184.225 59.394 178.86C41.5641 172.315 23.9055 165.416 4.09216 163.557C-15.1854 163.559 -30.1534 153.484 -49.0882 152.78C-50.7251 152.595 -52.1176 152.5 -53.5831 151.962C-59.1752 148.66 -66.1125 146.947 -66.9833 137.466C-63.3809 125.879 -57.3733 128.917 -52.3644 128.674C-41.4424 128.102 -31.4283 131.778 -19.1571 125.456C-14.9794 125.74 -13.9807 129.022 -14.083 133.981C-16.9526 145.837 -8.37454 143.573 -3.80676 144.833C1.07815 146.626 5.93745 149.659 12.7073 147.564Z" fill="#FC9D27"/>
<path d="M-36.2696 479.461C-36.8198 474.767 -35.1461 472.517 -31.0065 472.8C-28.2467 472.988 -25.317 472.83 -22.5573 473.018C-15.0241 470.452 -8.00084 468.926 -6.41649 478.491C-2.50448 485.635 6.69079 488.986 0.932088 503.637C-5.77417 486.487 -25.4381 489.943 -36.2696 479.461Z" fill="#FCA53D"/>
<path d="M79.1701 190.556C78.8288 191.255 78.4876 191.954 78.3169 192.303C86.7533 194.971 84.9135 208.706 91.426 213.553C91.059 215.478 89.9627 217.135 88.3801 218.616C73.665 219.419 69.2681 214.933 68.9455 199.173C68.8731 198.735 69.0437 198.386 67.6575 198.291C55.0836 198.229 44.0245 192.134 29.522 198.366C18.7948 199.802 9.0191 198.703 -0.146569 195.769C-4.2537 193.035 -11.2314 190.9 -7.54966 182.776C-3.42846 173.166 4.74373 172.857 11.2866 172.363C14.8865 172.031 17.535 174.233 21.1349 173.9C26.9227 174.366 32.7106 174.833 38.6691 174.949C51.8531 173.176 62.0847 179.792 74.1467 180.902C78.2071 181.972 81.2693 183.913 79.1701 190.556Z" fill="#F89620"/>
<path d="M90.3697 217.967C91.2874 216.677 91.7951 215.643 92.7128 214.353C100.886 210.428 103.306 218.214 109.013 219.887C117.544 218.122 123.804 220.404 125.039 230.6C124.498 236.901 123.957 243.201 123.176 249.414C120.253 253.628 117.493 261.557 114.111 253.42C107.65 241.726 90.1064 245.08 86.7375 228.826C86.5752 225.112 87.0637 221.229 90.3697 217.967Z" fill="#F69621"/>
<path d="M78.8822 191.4C71.0062 179.783 54.9827 185.545 44.024 180.28C41.8272 179.474 39.2879 179.375 37.1639 179.011C34.1107 179.97 31.8411 178.722 33.0655 175.015C34.1186 171.66 37.4414 169.553 39.9807 169.653C47.3547 169.863 53.8725 171.838 60.5614 173.459C73.9393 176.702 84.9452 183.648 95.8526 191.388C88.3763 196.128 85.0869 188.687 78.8822 191.4Z" fill="#EB8913"/>
<path d="M124.682 230.765C119.149 227.526 113.786 223.941 108.423 220.356C109.344 219.06 110.264 217.764 111.355 216.122C127.762 208.232 126.699 223.751 129.489 233.74C127.967 232.778 126.445 231.815 124.682 230.765Z" fill="#F8A849"/>
<path d="M52.0709 114.786C52.912 117.128 53.7531 119.469 54.1834 122.068C48.0676 127.572 42.1017 129.875 35.9207 130.879C33.8734 128.098 31.3176 126.353 26.7992 129.184C21.4137 130.885 15.5195 133.621 11.8814 129.447C9.47545 124.501 2.93581 123.339 5.48513 114.094C12.4811 101.584 17.7754 111.653 23.9369 107.793C25.4104 107.109 27.0535 106.079 28.7682 105.483C31.9565 104.203 33.5931 107.241 36.6836 106.739C39.435 106.927 42.6951 106.08 45.3487 107.047C48.1458 108.88 50.6039 111.403 52.0709 114.786Z" fill="#F19423"/>
<path d="M13.3781 124.385C16.9506 128.133 22.9975 126.258 27.3469 127.843C20.0796 137.427 12.1058 134.523 4.55707 138.296C-7.8166 151.321 -12.2776 143.58 -16.5689 135.493C-17.797 132.192 -18.2023 128.375 -21.3435 127.23C-21.3894 125.583 -20.7822 123.765 -19.6918 122.124C-17.6089 119.621 -15.4801 118.765 -13.4491 118.69C-12.0712 118.784 -10.8631 119.224 -9.65495 119.664C-1.38748 120.229 5.18254 124.254 13.3781 124.385Z" fill="#F9B86B"/>
<path d="M-16.2995 135.149C-9.91877 137.885 -4.75635 144.28 4.91278 137.961C6.12079 142.503 7.91214 146.438 11.9646 147.505C-3.04758 155.978 -11.483 146.339 -22.8402 143.838C-20.1661 140.712 -18.318 138.104 -16.2995 135.149Z" fill="#FB9F30"/>
<path d="M-3.16155 80.8428C1.87431 75.7859 5.7084 70.2908 7.95762 63.4072C12.6975 75.6767 20.667 84.2581 29.2148 92.2394C26.5373 96.5343 23.6006 97.8965 20.814 96.0698C10.419 98.7677 3.7154 95.1077 1.85972 83.8896C-0.0631121 83.1886 -4.4945 86.4387 -3.16155 80.8428Z" fill="#F9BA6E"/>
<path d="M23.5565 106.998C20.7927 110.889 17.9829 113.13 15.1791 111.292C11.8917 109.279 8.62434 110.129 5.59279 115.146C1.52206 119.377 -1.9612 118.924 -5.17667 117.345C-10.9742 111.151 -21.1821 109.881 -18.8381 95.2266C-11.6699 90.4919 -5.67067 91.045 -0.716537 94.8904C2.0494 106.101 13.7521 94.4478 19.02 98.8156C20.5887 101.428 21.9877 104.386 23.5565 106.998Z" fill="#F89E33"/>
<path d="M18.6736 99.2007C9.68611 103.636 0.698633 108.071 -4.36569 99.3265C-4.14418 96.5665 -3.27237 93.6377 -2.15997 90.7966C-0.735527 88.475 0.688981 86.1535 2.11343 83.8319C8.41399 87.7513 14.9551 91.7584 21.0865 96.022C20.3386 96.9668 19.5906 97.9117 18.6736 99.2007Z" fill="#F59C31"/>
<path d="M51.8274 115.431C48.7945 113.514 45.5207 111.508 42.3185 109.935C42.2277 106.652 43.8942 104.416 46.5956 102.963C48.9514 106.259 51.4766 109.21 54.0733 112.594C53.3247 113.54 52.5761 114.486 51.8274 115.431Z" fill="#F9BD75"/>
<path d="M46.3866 102.83C44.9689 105.141 43.5512 107.451 42.1336 109.762C39.8824 109.748 37.7995 109.392 35.5484 109.378C34.9278 108.344 34.7149 107.054 35.3173 105.254C39.1545 102.614 42.6732 103.495 46.3866 102.83Z" fill="#FBD8AE"/>
<path d="M35.2633 105.062C35.4797 106.369 35.5259 108.023 35.5001 109.242C33.247 108.011 30.7517 106.692 28.3285 105.809C31.2418 102.777 33.2525 103.92 35.2633 105.062Z" fill="#FDECD7"/>
<path d="M98.8477 333.125C98.6009 337.051 105.949 339.746 95.8774 344.889C91.768 346.997 90.2828 352.879 92.7667 355.798C94.7065 358.116 99.7374 357.551 95.2143 363.926C92.1667 368.431 88.558 369.518 85.2396 368.301C83.8174 367.779 82.1582 367.171 80.262 366.475C78.9171 373.212 82.3758 375.284 84.0954 380.333C66.7363 387.221 66.6974 403.273 62.5588 417.42C60.2586 416.978 58.1253 416.196 55.368 418.398C52.6373 419.405 50.978 418.796 50.891 415.551C45.2893 416.71 41.1604 426.844 35.3048 425.098C34.8307 424.924 34.1196 424.663 33.8125 424.149C31.3019 422.424 29.529 419.766 29.9427 415.499C31.094 410.298 33.1234 405.017 36.575 400.258C40.7376 395.76 45.2509 393.399 49.6143 394.196C50.5624 394.544 51.4138 395.659 53.0295 394.645C51.3703 394.037 50.0448 392.747 49.6941 390.61C50.1513 387.966 51.3195 385.583 53.3658 383.12C56.2731 377.76 61.1709 383.171 63.6308 376.442C59.9909 361.048 44.5112 365.814 35.654 359.352C34.6358 358.577 34.0215 357.548 33.337 356.092C29.2737 348.978 42.1895 344.879 40.5933 337.867C50.3674 328.197 58.6466 328.422 67.6103 330.103C75.2219 331.689 81.1113 339.071 91.5166 333.248C94.5811 331.56 97.0482 331.662 98.8477 333.125Z" fill="#F49522"/>
<path d="M52.3991 415.651C53.9169 416.611 55.4348 417.571 56.9526 418.53C53.9818 421.107 52.0536 420.405 50.0536 419.269C50.7312 417.89 51.6498 416.598 52.3991 415.651Z" fill="#F49B2F"/>
<path d="M36.6821 424.179C32.4996 441.398 27.7544 431.928 23.1663 430.256C19.4399 433.788 15.6158 438.099 11.0474 439.287C1.38192 439.84 -5.25563 435.385 -9.37422 426.958C-1.90891 411.75 5.20521 420.454 12.4819 417.808C20.8161 418.807 30.8471 416.349 36.6821 424.179Z" fill="#F39625"/>
<path d="M14.3613 434.521C17.4888 431.613 20.4213 430.253 23.3986 430.529C22.8244 442.062 34.2881 437.739 37.4452 444.56C37.7038 447.489 34.8162 450.485 35.4835 453.158C34.0622 455.474 32.6409 457.79 30.8108 460.362C18.4213 459.083 15.8494 447.617 14.3613 434.521Z" fill="#F59A2C"/>
<path d="M35.7833 453.322C34.6703 450.516 35.985 447.811 37.6973 444.854C37.5753 446.804 37.6176 448.415 37.4956 450.365C37.0026 451.379 36.5096 452.394 35.7833 453.322Z" fill="#F8A94A"/>
<path d="M-7.24579 479.074C-12.5945 477.122 -18.1139 475.518 -23.4626 473.566C-21.6836 470.51 -20.3184 467.715 -21.4826 464.82C-31.28 460.832 -42.9545 460.687 -50.2903 452.246C-51.9874 447.51 -58.505 446.778 -55.7956 438.298C-50.9238 431.843 -46.4494 432.653 -42.9008 434.772C-24.573 444.755 -8.19494 458.144 11.0585 466.819C12.7604 467.44 13.1952 470.069 13.3869 472.609C14.7685 476.818 10.5115 477.323 8.90313 480.029C3.60118 479.74 -0.113417 473.856 -7.24579 479.074Z" fill="#EB9630"/>
<path d="M14.1681 433.928C19.6877 442.496 25.4496 451.151 30.7989 460.066C29.3183 460.755 27.6675 461.792 26.1869 462.482C22.5242 462.376 18.2269 465.316 14.8325 464.078C9.11687 457.079 -2.09316 459.547 -6.71507 450.898C-7.39076 448.193 0.863351 443.008 -6.36401 442.012C-13.1065 441.193 -17.9761 436.55 -22.0204 431.389C-24.3211 428.502 -27.6896 426.045 -22.6596 419.275C-16.3504 417.478 -11.6456 418.373 -8.91168 423.877C-0.91058 426.793 3.44302 436.574 14.1681 433.928Z" fill="#F79F37"/>
<path d="M17.8815 461.125C21.0239 461.058 24.8406 459.619 26.8741 462.383C24.6641 464.004 22.2856 465.968 20.3154 467.676C18.8509 468.355 17.4838 468.261 16.2853 467.824C15.4503 465.497 15.3344 463.432 17.8815 461.125Z" fill="#FAB96B"/>
<path d="M18.1129 465.916C19.0715 466.265 19.622 466.87 20.5807 467.22C19.9065 468.592 19.1611 469.533 18.6555 470.562C17.6968 470.212 16.9067 469.52 15.948 469.17C16.0455 468.397 16.1429 467.623 16.2404 466.85C16.8882 466.682 17.5361 466.514 18.1129 465.916Z" fill="#F8B15C"/>
<path d="M12.6827 473.114C-8.10677 466.73 -25.053 453.008 -43.1989 441.762C-47.2532 439.44 -50.2281 432.515 -57.8123 442.229C-70.7119 439.159 -81.0408 430.783 -92.7407 425.237C-108.422 417.813 -124.96 412.157 -140.642 404.732C-146.967 401.159 -153.636 398.294 -157.172 390.746C-157.708 388.883 -157.584 386.846 -156.14 384.459C-143.911 372.285 -136.491 382.509 -126.789 381.488C-121.098 383.995 -114.794 384.643 -108.931 386.796C-100.724 390.643 -94.3036 397.583 -84.8239 399.398C-80.9883 400.389 -77.8382 402.796 -76.0336 406.792C-63.707 421.733 -45.5317 427.574 -29.9015 437.479C-17.8371 445.242 -7.90217 456.806 7.39291 459.089C11.6442 459.817 14.1817 464.082 15.0565 469.403C14.2981 470.374 13.3683 471.699 12.6827 473.114Z" fill="#FCA53D"/>
<path d="M98.0443 334.036C95.0543 336.639 93.1125 335.931 91.0985 334.786C76.1327 340.82 67.4515 331.087 56.0901 328.586C52.2324 325.948 47.5483 323.829 50.0114 315.288C58.7387 307.389 64.8998 312.919 72.5015 311.997C83.1347 314.233 93.5252 316.381 100.265 325.406C99.3869 328.369 98.9221 331.072 98.0443 334.036Z" fill="#F79622"/>
<path d="M100.058 325.974C89.9085 322.678 80.0026 319.472 69.6825 316.526C70.5666 309.423 74.512 308.389 78.8716 307.094C86.3907 311.079 93.9823 315.502 101.843 318.787C105.98 320.299 104.443 323.45 102.564 327.302C101.591 326.946 100.788 326.24 100.058 325.974Z" fill="#EC8B17"/>
<path d="M94.0533 262.932C93.1001 269.523 98.3478 271.027 98.9693 276.15C89.763 285.039 87.3829 274.786 81.3838 274.233C75.8684 273.856 71.9336 267.933 64.4978 273.794C63.6166 280.819 68.8182 280.674 71.7658 283.38C64.9056 292.716 61.5783 284.974 56.6184 285.208C45.1418 274.905 30.1701 272.307 14.617 270.314C11.8592 270.126 11.0819 272.291 9.33737 274.104C-1.84934 280.639 -11.4754 278.765 -21.663 280.359C-23.9371 280.347 -25.5318 278.949 -25.7936 275.997C-24.3828 270.798 -20.6979 265.61 -17.6005 265.106C-8.30818 263.594 -16.0199 259.561 -14.3473 257.313C-10.9041 252.038 -8.68195 254.48 -6.26394 255.361C-16.8053 250.704 -30.3321 252.714 -39.5145 245.288C-41.2991 241.373 -38.3395 235.921 -37.752 231.238C-33.3417 226.315 -30.3682 227.806 -27.1529 229.386C-23.6957 231.054 -24.9247 227.749 -24.7288 226.188C-20.7761 219.874 -14.8491 219.993 -10.5107 214.635C-0.415062 209.743 6.81303 213.601 14.139 216.678C20.4658 224.696 34.9718 214.881 38.371 223.057C42.044 226.028 41.2266 222.465 40.0376 224.889C39.6979 225.581 39.626 225.147 38.9006 224.883C36.9921 222.963 34.0905 221.906 36.2267 216.971C45.9167 208.258 48.5645 217.385 54.1979 219.845C53.3627 228.519 60.1651 225.692 64.2037 226.755C66.3799 227.548 68.8958 227.648 70.7323 229.133C75.5163 233.325 86.2336 233.556 79.9488 246.367C73.1546 260.216 67.8988 247.69 61.2663 250.171C52.7053 247.869 46.5943 241.153 37.8635 239.197C47.5615 241.505 54.2021 250.046 64.9912 250.712C74.7352 254.67 88.6277 250.753 94.0533 262.932Z" fill="#F6941D"/>
<path d="M78.4872 306.574C75.5736 309.606 72.66 312.638 69.3339 315.929C62.032 318.59 56.9944 314.298 50.8117 314.091C40.8903 317.435 35.8063 311.488 30.5521 305.889C26.556 302.386 35.926 294.337 31.6875 290.745C33.2914 288.055 35.1838 287.107 37.3908 286.683C47.4511 288.302 49.322 303.723 62.0794 301.003C67.4112 302.946 74.2746 301.763 78.4872 306.574Z" fill="#F28F19"/>
<path d="M61.4471 301.208C46.4588 309.655 43.2544 295.806 35.8231 289.416C32.051 283.132 20.7534 286.379 21.4966 274.377C35.6344 267.666 44.4469 274.15 52.9193 281.328C54.491 283.946 55.0679 287.429 54.1656 291.6C53.2836 298.642 58.9065 298.237 61.4471 301.208Z" fill="#F6941E"/>
<path d="M54.6616 292.026C52.6411 290.874 51.2058 289.111 52.1841 285.339C53.1881 280.337 56.4517 280.704 59.0105 279.574C63.6368 281.265 65.8708 287.863 73.1586 283.506C78.5836 290.032 89.6945 286.659 94.6026 298.365C79.8436 296.274 67.1309 294.106 54.6616 292.026Z" fill="#ED8B16"/>
<path d="M65.2011 274.532C62.6134 272.75 59.2674 271.938 57.8317 266.001C69.24 265.61 77.7142 268.303 85.7471 272.5C90.0442 274.909 92.8723 280.941 100.009 276.901C101.179 279.827 99.8082 282.654 98.0221 285.744C88.4038 278.885 76.2885 277.768 65.2011 274.532Z" fill="#F18F1A"/>
<path d="M93.8102 264.476C83.7091 261.205 73.8503 258.021 63.5791 255.096C63.2907 253.355 62.4198 252.219 63.6105 249.79C65.2598 248.755 67.1772 246.59 68.1461 246.943C71.0527 248.002 72.2528 256.621 77.5723 247.514C82.5516 239.102 75.1353 239.672 72.6669 237.136C67.56 232.412 60.5819 231.505 53.0213 231.205C46.842 230.998 49.3677 227.01 53.9291 222.945C68.1645 215.451 76.3889 226.63 88.4591 225.301C92.6434 231.326 96.5134 236.827 104.728 236.957C111.392 237.34 114.85 243.099 114.328 252.318C107.489 256.371 99.8823 254.417 93.8102 264.476Z" fill="#F3911B"/>
<path d="M-2.38529 89.7584C-1.46078 92.5861 -2.58608 95.4926 -4.61431 98.4832C-6.33934 90.799 -16.1341 100.901 -18.5438 94.6253C-39.4393 102.735 -53.044 91.1141 -69.4384 87.5977C-75.6349 86.1576 -81.8059 83.4823 -87.0483 79.4877C-88.3151 77.3643 -89.2396 74.5366 -86.3812 71.0205C-74.2496 66.7527 -66.7903 74.4632 -57.765 77.7692C-40.2749 83.7611 -18.4805 79.7142 -2.38529 89.7584Z" fill="#ED8C18"/>
<path d="M-49.7465 146.377C-48.7716 146.733 -48.2115 147.352 -47.4077 148.06C-32.3235 154.821 -15.1871 157.365 -0.346533 164.037C4.01038 171.011 0.0812921 174.954 -7.08874 177.297C-15.3319 180.075 -22.5961 179.073 -29.6165 178.16C-50.9943 174.891 -69.9523 165.472 -90.988 161.5C-95.7168 160.598 -99.4194 157.587 -100.608 151.772C-93.6437 135.696 -89.248 152.617 -83.2196 146.132C-88.6581 147.867 -92.1427 146.178 -91.9163 139.225C-81.1079 131.177 -74.6774 136.841 -67.6355 140.659C-61.6155 142.448 -57.9897 149.155 -49.7465 146.377Z" fill="#FC9A23"/>
<path d="M59.7573 173.585C51.5295 176.35 46.2554 170.715 38.5397 172.43C32.7956 173.629 34.2036 176.616 36.4396 179.081C30.2559 181.767 25.3911 179.991 20.3556 178.564C14.1251 179.586 11.5522 173.701 6.34604 172.624C3.72181 169.194 4.3111 164.464 5.97149 159.302C26.4126 158.525 42.6581 166.929 59.7573 173.585Z" fill="#F3901A"/>
<path d="M5.81998 158.202C8.89195 160.156 8.98625 163.507 5.93176 168.608C1.78188 171.234 0.763304 165.057 -3.38658 167.683C-12.5297 162.262 -24.6075 164.058 -34.5079 159.603C-40.1897 157.108 -44.0405 153.211 -47.964 148.872C-30.9063 143.924 -20.3296 155.26 -5.44938 156.563C-1.52182 156.757 1.96518 158.449 5.81998 158.202Z" fill="#E7850E"/>
<path d="M-2.6091 165.693C1.86416 162.397 3.92536 165.202 6.66836 166.613C11.4983 169.607 15.915 172.86 20.745 175.853C11.9273 176.333 3.77069 172.537 -6.6841 181.042C-5.08769 186.552 -0.448933 187.012 2.51109 189.734C1.97396 192.001 0.563819 193.13 -1.08912 194.169C-3.56854 195.729 -5.31465 193.449 -7.62362 194.66C-5.26808 195.109 -3.83713 196.862 -2.57664 198.965C-1.68281 202.986 0.280233 206.576 -4.55971 211.792C-10.2935 212.985 -16.0272 214.179 -20.3716 211.363C-30.3882 199.086 -47.9096 206.246 -61.8981 204.429C-72.3895 203.066 -83.2218 202.4 -92.1792 197.902C-93.7806 196.496 -94.7983 194.483 -95.7437 192.906C-102.945 182.478 -118.793 191.48 -127.456 184.625C-128.644 182.96 -129.419 181.035 -130.194 179.109C-131.206 172.991 -140.732 176.087 -138.655 166.579C-129.141 152.393 -122.348 158.977 -114.966 160.848C-96.4164 166.792 -75.9915 168.904 -59.8279 179.726C-72.8353 170.055 -91.1008 169.963 -101.82 156.198C-102.28 154.799 -102.156 152.791 -101.789 150.872C-101.206 150.263 -100.209 149.395 -99.625 148.787C-70.7125 162.206 -40.0956 172.141 -6.11624 173.447C-1.62219 173.033 1.44096 170.866 -2.6091 165.693Z" fill="#F7951E"/>
<path d="M87.3678 225.853C80.498 231.13 74.7012 231.884 70.1476 227.767C65.3515 223.562 57.8063 226.135 52.5718 223.408C47.2393 221.465 41.7365 219.869 36.404 217.925C19.8593 222.542 10.1433 216.134 10.139 200.981C26.8852 190.705 34.4811 204.939 47.333 205.528C50.5099 205.458 53.2482 206.865 54.0476 207.566C58.2662 208.285 57.3742 204.274 57.3225 206.712C57.2245 207.496 56.5695 207.666 55.8423 207.401C47.627 203.179 34.1611 208.508 31.4388 194.821C47.53 184.716 57.6532 194.957 70.9435 194.068C72.0833 194.074 72.2276 194.946 72.4442 196.253C74.4652 208.456 79.6222 214.84 89.5859 217.243C88.8792 219.852 88.0023 222.809 87.3678 225.853Z" fill="#F7941E"/>
<path d="M31.1694 193.733C38.8673 201.519 52.6973 197.885 59.0268 208.483C39.6845 213.413 29.0698 196.277 10.3133 200.594C4.82247 204.796 -0.300648 207.062 -3.46541 201.763C-6.14265 196.642 -16.0981 202.937 -15.7221 192.722C-8.35388 188.793 -3.65381 195.068 3.39794 190.609C12.5411 191.885 21.8553 192.809 31.1694 193.733Z" fill="#EF8C16"/>
<path d="M-3.1333 113.937C-0.131287 114.213 3.11273 114.578 6.11474 114.855C8.48293 118.169 10.8511 121.483 13.3892 124.451C3.11557 129.696 -4.02068 125.053 -11.6928 122.666C-10.5231 117.373 -6.9852 115.393 -3.1333 113.937Z" fill="#F3982A"/>
<path d="M-3.7311 113.508C-6.66229 116.583 -9.59352 119.658 -12.3536 122.38C-13.1581 121.671 -14.1338 121.314 -14.9384 120.604C-26.0784 108.641 -42.6696 106.712 -57.1343 100.999C-60.207 99.0434 -64.1355 98.8488 -67.3794 97.2457C-72.4251 91.6638 -79.2551 89.1619 -86.4275 87.3643C-90.7455 86.1974 -97.554 86.6073 -92.9072 75.864C-90.883 77.0203 -88.9316 77.7351 -85.9276 75.1019C-63.8755 82.3501 -42.0929 90.7441 -18.2309 93.6772C-16.8993 104.536 -7.33483 105.551 -3.7311 113.508Z" fill="#F79623"/>
<path d="M58.8721 322.899C68.1963 329.589 79.298 333.228 91.5212 333.989C89.1853 336.425 94.5504 341.259 88.2554 341.84C83.759 342.254 79.8723 340.836 76.1561 339.069C65.08 334.206 53.7353 330.478 38.4378 340.105C28.4942 343.464 23.0567 338.192 19.2264 330.219C23.9385 311.798 33.2676 314.38 41.9917 314.686C48.9173 315.157 51.2644 323.823 58.8721 322.899Z" fill="#F18F19"/>
<path d="M37.0896 400.824C36.1609 406.221 34.3345 411.701 30.5685 416.473C25.3013 419.06 22.1752 416.691 18.8788 414.67C6.648 399.97 -13.5534 396.293 -23.2563 377.598C-16.498 366.133 -12.5775 373.297 -8.21333 374.888C-1.7392 376.838 2.01084 384.35 10.7963 380.998C18.586 378.511 22.9708 382.977 27.3556 387.443C31.5959 391.038 37.3427 392.723 37.0896 400.824Z" fill="#F9A138"/>
<path d="M22.7921 392.519C19.0988 389.524 18.11 382.166 11.0295 384.933C1.03181 386.634 -4.6274 380.041 -10.2141 373.885C-8.59653 362.951 -3.03079 366.217 0.398399 366.234C9.5429 366.279 17.9066 368.509 26.3685 369.951C35.9946 374.288 49.2041 371.289 54.8329 383.222C53.3953 385.579 51.9577 387.935 50.5201 390.292C39.2251 399.34 33.0119 388.017 22.7921 392.519Z" fill="#F79520"/>
<path d="M54.7826 383.658C44.4623 380.712 33.5314 379.607 24.4069 374.21C20.218 375.155 18.7834 373.393 20.8588 367.963C23.7113 364.467 26.9991 363.605 30.3595 363.183C44.3349 363.338 56.4314 367.344 66.3073 375.903C67.9128 377.315 71.4183 377.771 70.3678 381.1C69.1464 384.78 65.8843 384.413 63.5231 383.963C60.7476 383.774 57.558 383.846 54.7826 383.658Z" fill="#ED8B15"/>
<path d="M65.9989 376.225C52.1223 376.505 42.5345 366.842 28.9008 367.211C29.2468 362.406 31.3654 358.658 35.5722 356.494C46.2345 361.617 65.6612 353.497 65.9989 376.225Z" fill="#F79620"/>
<path d="M34.9731 355.742C32.6197 359.378 30.6782 362.755 28.3248 366.391C25.8792 366.725 23.8455 366.801 21.3999 367.136C10.042 369.941 1.3574 365.552 -8.00711 362.548C-11.3686 360.098 -12.8405 356.703 -9.12747 350.295C-1.63515 341.996 4.79985 345.157 11.6526 343.978C17.4078 348.525 20.4697 357.402 30.7877 353.809C31.2716 353.985 32.1675 353.903 32.6514 354.079C33.4493 354.778 34.4172 355.131 34.9731 355.742Z" fill="#F49B31"/>
<path d="M20.276 326.829C26.4077 331.093 32.4679 334.925 38.7688 338.845C40.1861 340.579 43.3855 342.151 38.4687 345.23C34.3713 347.795 33.3303 351.068 32.3607 354.773C23.4967 357.225 19.4137 351.678 16.0072 344.754C13.8942 341.549 12.1195 337.655 12.634 332.567C14.4231 328.349 16.3811 323.786 20.276 326.829Z" fill="#F99721"/>
<path d="M22.1786 410.239C25.2461 412.186 28.5572 414.223 31.6247 416.17C34.0343 418.291 37.542 418.747 36.4396 424.54C28.1085 423.974 19.363 423.668 11.0319 423.102C5.65734 414.114 -9.79592 421.685 -12.8761 408.578C-4.77561 396.667 0.992027 402.494 6.76397 404.191C11.6344 405.971 16.1375 409.683 22.1786 410.239Z" fill="#EA8D1D"/>
<path d="M23.3115 392.516C35.219 380.456 41.3198 392.521 50.982 390.303C52.5098 391.27 54.0375 392.237 58.6209 395.138C49.2735 397.881 43.2552 397.327 37.3764 401.744C32.7207 398.406 28.1375 395.505 23.3115 392.516Z" fill="#F08F19"/>
<path d="M-12.6514 407.304C-6.38627 414.903 9.22769 407.506 10.7823 422.386C3.75363 423.915 -1.83677 419.015 -9.91184 423.843C-15.6317 425.03 -20.0629 423.006 -23.9839 419.942C-28.2507 421.659 -30.5744 419.994 -31.8777 416.247C-31.9443 411.725 -29.491 407.302 -26.4813 403.491C-24.7343 401.674 -22.9152 400.292 -21.1941 399.692C-15.9845 399.546 -12.9342 401.475 -12.6514 407.304Z" fill="#EC8B18"/>
<path d="M15.2011 469.598C-9.50268 460.138 -30.1253 443.465 -53.1179 430.486C-61.4566 425.774 -68.3537 418.688 -78.6475 417.406C-83.7944 416.765 -78.8618 411.938 -76.3462 409.128C-74.6863 408.077 -72.9535 407.468 -71.3192 407.652C-52.2676 409.239 -42.9183 428.416 -24.7951 431.322C-17.9451 436.732 -8.06629 438.277 -5.93078 449.837C3.4859 449.969 12.6331 451.246 17.528 460.086C17.5751 461.762 17.6223 463.437 17.6694 465.113C16.6427 467.224 15.8855 468.191 15.2011 469.598Z" fill="#FDA842"/>
<path d="M-6.64099 450.761C-14.5003 445.856 -22.1897 440.604 -30.049 435.699C-35.5611 431.241 -35.1116 421.604 -37.2311 414.298C-33.4986 410.758 -31.2234 410.77 -30.5035 415.116C-28.1823 416.778 -25.6912 418.094 -23.6119 419.668C-19.9287 433.669 -6.68959 434.001 2.32737 441.778C-0.75137 445.148 -3.49026 447.825 -6.64099 450.761Z" fill="#F49A30"/>
<path d="M19.2459 327.235C16.312 327.394 14.2235 329.908 12.4495 332.946C11.1398 333.287 9.75794 333.193 8.8866 332.057C7.16977 328.565 6.4482 324.208 4.48904 320.629C-0.274775 311.114 -7.39534 305.244 -18.0638 305.45C-19.2755 305.008 -20.3169 304.219 -21.1883 303.083C-22.0338 300.728 -22.2244 298.202 -21.1053 295.335C-20.2544 293.598 -18.9188 292.038 -17.0985 290.654C-8.7759 285.909 -1.82017 288.035 5.50179 288.247C14.8346 289.602 24.7501 290.35 30.339 299.346C37.243 303.909 44.3894 308.561 51.2934 313.124C50.4112 320.171 55.6243 320.024 58.5787 322.739C50.2098 325.829 45.126 319.883 38.3868 319.064C31.0907 317.633 25.367 318.822 19.2459 327.235Z" fill="#F7951F"/>
<path d="M-2.82897 201.285C1.46339 202.44 7.09728 197.938 10.8788 200.136C15.0109 212.705 26.5569 213.636 36.6687 216.912C35.0847 222.481 39.8879 222.593 41.0691 228.35C33.8671 226.134 29.2653 220.36 20.1592 227.284C14.2828 231.697 13.1274 224.72 11.2651 220.354C9.89307 212.069 -2.10221 220.808 -2.79322 211.132C-2.6435 207.908 -2.73621 204.597 -2.82897 201.285Z" fill="#F3911B"/>
<path d="M21.6489 274.671C26.1585 277.135 30.7403 280.035 35.4202 282.151C38.5729 283.3 37.2106 286.082 35.6781 289.212C34.1972 289.901 32.7163 290.591 31.2354 291.281C19.2439 295.925 11.9274 287.521 1.66451 287.468C-5.27021 284.12 -18.139 291.724 -19.893 278.38C-8.89208 270.505 -0.18754 274.908 10.127 272.52C14.8122 270.54 20.421 267.257 21.6489 274.671Z" fill="#FA9721"/>
<path d="M21.3359 275.455C17.5066 274.467 13.5062 273.831 9.67684 272.844C10.6564 269.056 8.8037 267.549 7.07499 264.013C25.9305 267.187 45.2778 266.394 58.6104 279.154C56.1931 281.171 54.1909 282.925 51.7736 284.942C44.3414 276.002 33.3157 274.452 21.3359 275.455Z" fill="#F18E18"/>
<path d="M-49.4219 238.695C-46.4028 238.973 -43.1403 239.339 -40.1212 239.617C-28.3908 245.554 -11.8047 242.123 -3.49079 255.065C-7.58619 259.345 -9.72114 251.963 -14.4016 256.855C-24.8512 260.053 -31.7347 252.998 -41.817 254.266C-46.1983 252.665 -51.6046 253.166 -54.5467 249.202C-57.634 244.36 -55.7549 240.508 -49.4219 238.695Z" fill="#F08E17"/>
<path d="M-14.0119 218.762C-17.8301 217.78 -21.819 217.147 -25.6372 216.165C-27.5219 204.769 -20.8114 208.043 -16.4554 206.75C-13.03 210.884 -6.6047 208.288 -2.32584 210.673C0.48937 216.643 12.346 208.205 11.7733 219.939C2.86959 219.983 -3.52063 213.12 -14.0119 218.762Z" fill="#EF8D16"/>
<path d="M63.7843 248.946C63.8314 250.618 63.8784 252.29 63.7545 254.313C50.2252 255.569 43.9241 243.75 33.8871 238.424C46.6128 236.46 54.8202 243.185 63.7843 248.946Z" fill="#F08D17"/>
<path d="M3.68627 282.653C13.8921 283.492 23.4142 285.734 31.5694 290.78C33.1756 292.193 34.7819 293.606 36.3882 295.019C34.1454 296.678 31.8299 297.897 29.5871 299.555C18.8687 299.767 11.397 293.319 1.70389 291.428C-3.23878 289.209 -0.312371 286.148 3.68627 282.653Z" fill="#EC8A13"/>
<path d="M-10.3583 370.348C-3.42111 374.948 3.75957 379.638 10.6967 384.238C4.54956 392.729 1.63208 387.533 -2.50717 386.02C-10.0552 383.261 -13.7714 373.23 -24.3952 376.781C-25.2239 377.304 -25.8818 377.476 -26.7105 377.999C-42.8788 372.916 -60.9012 370.458 -69.1879 352.149C-62.4085 344.716 -55.3218 346.067 -48.3759 342.411C-39.7043 342.277 -35.7659 349.498 -30.9732 354.967C-27.2013 358.41 -22.9168 360.802 -17.5345 361.53C-13.4678 362.604 -10.4009 364.551 -10.3583 370.348Z" fill="#FEA941"/>
<path d="M-13.2863 407.898C-16.3436 405.962 -19.6437 403.938 -22.7011 402.002C-22.3037 394.759 -26.0635 391.335 -28.6561 386.696C-31.5638 381.531 -28.961 377.965 -23.0582 376.424C-7.45628 386.628 9.06998 395.529 21.3875 410.692C7.66066 415.948 0.610944 402.294 -13.2863 407.898Z" fill="#F19A33"/>
<path d="M-10.4013 370.953C-13.4699 369.004 -16.7822 366.966 -19.8509 365.017C-23.5307 364.911 -28.5268 365.152 -25.3514 358.043C-22.958 353.13 -18.8636 352.973 -15.2821 353.87C-11.7006 354.766 -11.1705 360.749 -6.22137 358.837C3.98898 359.677 13.5154 361.92 21.6743 366.971C20.6956 370.748 22.1317 372.514 24.1532 373.667C11.6734 375.718 2.24947 368.551 -10.4013 370.953Z" fill="#EF8E1A"/>
<path d="M-6.67518 358.26C-12.611 362.223 -14.6846 356.567 -18.8232 356.284C-20.6866 356.014 -23.3736 356.26 -24.2492 359.208C-25.2227 362.937 -21.8099 362.955 -20.3843 364.7C-27.4577 368.656 -29.6752 362.132 -34.2717 360.457C-34.6861 345.605 -48.8012 348.221 -53.556 338.73C-48.798 329.029 -44.4234 333.482 -40.4547 334.111C-31.6217 335.287 -23.9061 339.323 -14.4654 338.679C-10.4247 339.743 -7.13576 341.758 -6.85362 347.577C-9.88638 352.598 -9.72222 356.333 -6.67518 358.26Z" fill="#F89928"/>
<path d="M-7.11532 348.795C-10.184 346.846 -13.4963 344.807 -16.394 342.507C-26.0403 338.153 -40.9348 342.216 -43.9651 326.636C-42.7685 324.18 -41.6701 322.514 -39.4264 320.854C-30.2845 317.995 -25.8567 325.403 -19.1082 327.457C-9.26534 330.229 0.162916 333.264 9.15098 337.791C10.8306 339.646 12.0958 341.762 11.9462 345.015C3.84725 352.804 -1.02075 346.889 -7.11532 348.795Z" fill="#EF972E"/>
<path d="M11.4998 345.978C9.97817 345.016 8.45656 344.054 6.69326 343.004C11.9297 333.495 14.0201 342.003 18.2778 340.292C22.3794 345.864 26.3113 351.782 32.424 354.416C18.1233 362.662 15.2237 361.606 11.4998 345.978Z" fill="#FBA33A"/>
<path d="M17.5875 340.18C13.2482 344.373 10.5023 338.829 5.9196 342.934C-3.77081 341.044 -11.2402 334.599 -21.9557 334.811C-25.987 324.256 -38.5304 325.864 -43.9028 316.884C-43.608 314.515 -42.7538 312.763 -40.9985 310.928C-37.9277 308.748 -35.3694 307.618 -32.8368 307.718C-17.4279 313.762 -0.310673 316.302 10.6819 330.226C11.4848 330.933 12.2151 331.2 13.018 331.906C14.5981 334.547 16.0074 337.539 17.5875 340.18Z" fill="#FEAA41"/>
<path d="M-32.1685 298.252C-28.5172 299.586 -26.3308 304.512 -20.5311 300.853C-19.9716 301.471 -18.998 301.826 -18.4386 302.444C-9.04329 306.702 -1.08726 313.324 7.45381 319.335C11.0069 321.459 11.6601 325.412 10.0712 331.023C-6.33641 325.852 -22.4024 319.981 -36.7599 310.607C-38.2161 305.948 -37.9682 301.911 -32.1685 298.252Z" fill="#ED952D"/>
<path d="M-19.2545 292.609C-21.81 290.864 -25.1152 290.067 -24.0199 284.362C-22.5922 282.034 -21.1645 279.706 -19.5672 277.032C-14.391 285.022 -2.28466 276.004 3.49787 282.18C1.73113 285.198 0.375055 287.96 1.52894 290.822C-5.61617 291.474 -12.5201 292.214 -19.2545 292.609Z" fill="#EE8B15"/>
<path d="M7.41673 319.24C-4.81768 319.701 -13.5006 314.075 -18.3893 302.449C-3.45505 297.64 3.45208 306.311 7.41673 319.24Z" fill="#FAA239"/>
</g>
</svg>
