<svg width="180" height="340" viewBox="0 0 180 340" fill="none" xmlns="http://www.w3.org/2000/svg">
<g opacity="0.6">
<path d="M53.3207 85.2611C59.7847 71.8896 74.2542 66.594 74.2542 66.594C77.4665 64.8734 80.9163 67.6027 78.7708 70.7743C78.7708 70.7743 77.8653 71.1241 76.3234 71.8699L76.2915 71.8984C71.8563 74.0517 62.6606 79.5348 57.8213 89.4556C55.9081 91.1616 51.8442 87.9218 53.3207 85.2611Z" fill="#707070"/>
<path d="M48.8108 81.0863C55.3061 67.7446 69.7437 62.4201 69.7437 62.4201C72.209 61.0224 75.638 64.4278 74.2916 66.6293C74.2916 66.6293 59.8225 71.9247 53.3586 85.2955C50.5966 86.0999 47.401 83.2871 48.8108 81.0863Z" fill="#9E9E9E"/>
<path d="M44.2851 76.897C50.7803 63.5555 65.2177 58.2311 65.2177 58.2311C68.0303 57.0099 70.8703 60.7974 69.7655 62.4402C69.7655 62.4402 55.3282 67.7646 48.833 81.1061C46.8318 81.8325 42.8439 79.0686 44.2851 76.897Z" fill="#707070"/>
<path d="M70.2738 93.6772C70.2738 93.6772 68.0251 80.6564 76.2852 71.834L76.317 71.8056C77.8257 71.0602 78.7618 70.7111 78.7618 70.7111L117.743 74.2306C113.396 75.8504 108.554 77.9392 103.487 80.7156L70.2738 93.6772Z" fill="#DEDEDE"/>
<path d="M62.0601 123.866L57.7801 89.3925C62.5996 79.4944 71.8036 74.0017 76.2352 71.8503C67.9728 80.6752 70.2221 93.6996 70.2221 93.6996L103.428 80.7199C88.8409 88.6699 72.5373 101.95 62.0601 123.866Z" fill="#A6A6A6"/>
<path d="M161.532 146.101C164.448 142.616 178.853 125.379 179.637 123.995C179.637 123.995 173.704 103.218 163.495 88.222C168.489 92.3819 173.055 96.781 176.073 101.048C186.661 116.135 203.446 146.03 203.446 146.03L228.417 142.587C235.395 141.071 241.35 145.543 244.989 149.343C243.388 147.862 233.029 140.528 200.005 158.824C200.005 158.824 189.766 136.952 188 136.502C187.984 136.516 167.771 139.595 161.532 146.101Z" fill="#E07800"/>
<path d="M245.083 302.499L252.6 294.199L235.468 259.648L220.335 232.812L214.611 248.926L208.031 267.485L204.5 277.508L194.218 281.399L149.157 241.747L198.372 294.78L203.452 280.41L201.275 286.601L198.372 294.78L201.116 297.752L203.421 300.204L206.697 303.727L208.36 305.497L211.025 308.34L245.083 302.499Z" fill="#A6A6A6"/>
<path d="M198.43 294.832L191.473 287.353C190.235 286.006 188.934 284.629 187.634 283.223C186.647 282.165 185.644 281.092 184.641 279.962C177.496 272.31 169.631 263.817 161.969 255.542C160.512 253.962 159.054 252.411 157.629 250.861L149.262 241.818C136.571 228.079 126.262 216.805 123.632 213.707C115.631 204.194 114.623 188.504 114.623 188.504C112.515 187.419 110.329 186.205 108.128 184.832C109.96 182.485 111.872 180.183 113.751 177.937C116.554 174.582 119.435 171.329 122.316 168.19L140.244 171.529C139.61 174.176 138.33 202.966 138.33 202.966C146.886 222.985 186.896 262.788 186.896 262.788L208.114 267.554L204.585 277.571L201.378 286.645L198.43 294.832Z" fill="#D27100"/>
<path d="M187.094 262.701L208.327 267.471L214.907 248.911L220.632 232.796L241.531 226.825L241.562 226.854L243.273 226.356L245.046 225.859L262.319 220.953L265.85 219.915L281.255 215.534L282.966 215.036L284.723 214.553L299.273 210.392L300.967 209.908L302.772 209.382L313.586 206.329L317.085 205.319L322.12 203.882L294.024 199.812L248.704 154.14C248.704 154.14 247.391 152.058 245.102 149.621L244.835 149.374C243.234 147.893 232.89 140.544 199.862 158.842C199.862 158.842 189.622 136.968 187.856 136.518C187.856 136.518 167.625 139.582 161.385 146.088C164.301 142.603 178.708 125.364 179.476 123.994C179.476 123.994 179.445 123.965 179.43 123.893C179.43 123.836 179.399 123.721 179.369 123.606C179.137 122.871 178.581 121.056 177.73 118.563L177.746 118.549L177.714 118.52C177.513 117.901 177.297 117.295 177.048 116.632C177.018 116.46 176.94 116.301 176.894 116.143C179.116 114.732 181.211 113.463 183.242 112.279L183.274 112.251C183.133 112.034 182.993 111.788 182.868 111.586C182.696 111.311 182.539 111.08 182.383 110.791C182.337 110.69 182.243 110.574 182.18 110.516C181.946 110.155 181.711 109.793 181.492 109.446C181.493 109.389 181.477 109.375 181.446 109.345C181.008 108.652 180.602 107.987 180.133 107.321C180.133 107.264 180.086 107.22 180.039 107.177C180.024 107.105 179.993 107.076 179.977 107.004C179.68 106.556 179.352 106.107 179.071 105.645C178.945 105.471 178.821 105.269 178.695 105.095C178.649 104.994 178.586 104.907 178.539 104.806C177.632 103.504 176.757 102.203 175.959 101.031C175.49 100.366 175.005 99.7144 174.472 99.077C174.19 98.7294 173.94 98.3821 173.642 98.0774C173.376 97.7443 173.078 97.4109 172.764 97.0629C172.169 96.4247 171.557 95.7433 170.898 95.1045C170.585 94.7565 170.24 94.4082 169.879 94.0741C169.533 93.7545 169.204 93.4494 168.874 93.0869C167.164 91.4173 165.296 89.7747 163.395 88.1892L163.364 88.1601C161.698 86.8212 160.017 85.4964 158.336 84.229C152.002 79.4654 145.617 75.3472 141.149 72.5994C83.7423 84.1123 84.9576 148.262 84.9576 148.262L85.0361 148.335L96.375 155.766L111.897 165.971L119.424 167.36L122.517 167.939L122.548 167.968L140.489 171.309C139.854 173.958 138.573 202.768 138.573 202.768C147.056 222.872 187.094 262.701 187.094 262.701ZM237.914 156.059L281.302 202.4C272.018 201.494 261.767 209.836 261.767 209.836C248.699 196.701 208.715 169.232 208.715 169.232C218.392 161.601 237.914 156.059 237.914 156.059Z" fill="#FFAC1C"/>
<path d="M161.532 146.101C164.448 142.616 178.853 125.379 179.637 123.995C179.637 123.995 173.704 103.218 163.495 88.222C168.489 92.3819 173.055 96.781 176.073 101.048C186.661 116.135 203.446 146.03 203.446 146.03L228.417 142.587C235.395 141.071 241.35 145.543 244.989 149.343C243.388 147.862 233.029 140.528 200.005 158.824C200.005 158.824 189.766 136.952 188 136.502C187.984 136.516 167.771 139.595 161.532 146.101Z" fill="#A6A6A6"/>
<path d="M198.43 294.832L191.473 287.353C190.235 286.006 188.934 284.629 187.634 283.223C186.647 282.165 185.644 281.092 184.641 279.962C177.496 272.31 169.631 263.817 161.969 255.542C160.512 253.962 159.054 252.411 157.629 250.861L149.262 241.818C136.571 228.079 126.262 216.805 123.632 213.707C115.631 204.194 114.623 188.504 114.623 188.504C112.515 187.419 110.329 186.205 108.128 184.832C109.96 182.485 111.872 180.183 113.751 177.937C116.554 174.582 119.435 171.329 122.316 168.19L140.244 171.529C139.61 174.176 138.33 202.966 138.33 202.966C146.886 222.985 186.896 262.788 186.896 262.788L208.114 267.554L204.585 277.571L201.378 286.645L198.43 294.832Z" fill="#A6A6A6"/>
<path d="M187.094 262.701L208.327 267.471L214.907 248.911L220.632 232.796L241.531 226.825L241.562 226.854L243.273 226.356L245.046 225.859L262.319 220.953L265.85 219.915L281.255 215.534L282.966 215.036L284.723 214.553L299.273 210.392L300.967 209.908L302.772 209.382L313.586 206.329L317.085 205.319L322.12 203.882L294.024 199.812L248.704 154.14C248.704 154.14 247.391 152.058 245.102 149.621L244.835 149.374C243.234 147.893 232.89 140.544 199.862 158.842C199.862 158.842 189.622 136.968 187.856 136.518C187.856 136.518 167.625 139.582 161.385 146.088C164.301 142.603 178.708 125.364 179.476 123.994C179.476 123.994 179.445 123.965 179.43 123.893C179.43 123.836 179.399 123.721 179.369 123.606C179.137 122.871 178.581 121.056 177.73 118.563L177.746 118.549L177.714 118.52C177.513 117.901 177.297 117.295 177.048 116.632C177.018 116.46 176.94 116.301 176.894 116.143C179.116 114.732 181.211 113.463 183.242 112.279L183.274 112.251C183.133 112.034 182.993 111.788 182.868 111.586C182.696 111.311 182.539 111.08 182.383 110.791C182.337 110.69 182.243 110.574 182.18 110.516C181.946 110.155 181.711 109.793 181.492 109.446C181.493 109.389 181.477 109.375 181.446 109.345C181.008 108.652 180.602 107.987 180.133 107.321C180.133 107.264 180.086 107.22 180.039 107.177C180.024 107.105 179.993 107.076 179.977 107.004C179.68 106.556 179.352 106.107 179.071 105.645C178.945 105.471 178.821 105.269 178.695 105.095C178.649 104.994 178.586 104.907 178.539 104.806C177.632 103.504 176.757 102.203 175.959 101.031C175.49 100.366 175.005 99.7144 174.472 99.077C174.19 98.7294 173.94 98.3821 173.642 98.0774C173.376 97.7443 173.078 97.4109 172.764 97.0629C172.169 96.4247 171.557 95.7433 170.898 95.1045C170.585 94.7565 170.24 94.4082 169.879 94.0741C169.533 93.7545 169.204 93.4494 168.874 93.0869C167.164 91.4173 165.296 89.7747 163.395 88.1892L163.364 88.1601C161.698 86.8212 160.017 85.4964 158.336 84.229C152.002 79.4654 145.617 75.3472 141.149 72.5994C83.7423 84.1123 84.9576 148.262 84.9576 148.262L85.0361 148.335L96.375 155.766L111.897 165.971L119.424 167.36L122.517 167.939L122.548 167.968L140.489 171.309C139.854 173.958 138.573 202.768 138.573 202.768C147.056 222.872 187.094 262.701 187.094 262.701ZM237.914 156.059L281.302 202.4C272.018 201.494 261.767 209.836 261.767 209.836C248.699 196.701 208.715 169.232 208.715 169.232C218.392 161.601 237.914 156.059 237.914 156.059Z" fill="#DEDEDE"/>
<path d="M55.7467 140.252C57.4355 134.261 59.5004 128.791 61.9418 123.786L61.9422 123.729C72.4175 101.817 88.7182 88.5391 103.319 80.605C108.371 77.8426 113.229 75.7393 117.577 74.1193L117.64 74.12C127.971 70.2222 135.384 69.2398 135.384 69.2398C135.384 69.2398 137.701 70.5161 141.294 72.741C83.7953 84.2723 85.0125 148.525 85.0125 148.525L85.0911 148.598L96.4482 156.041C93.1278 160.03 89.7901 164.235 86.3873 168.697C88.102 170.14 89.8166 171.582 91.5791 172.982C88.888 170.867 86.2452 168.653 83.6654 166.468C68.1868 153.358 55.7467 140.252 55.7467 140.252Z" fill="#E07800"/>
<path d="M85.0429 148.564L84.9643 148.491C84.9643 148.491 83.7474 84.2561 141.23 72.7279C145.704 75.4793 152.129 79.6034 158.44 84.373C160.123 85.642 161.807 86.9685 163.474 88.3092L163.506 88.3383C165.424 89.9405 167.296 91.5566 168.992 93.2426C169.322 93.6056 169.668 93.9256 169.998 94.2311C170.359 94.5656 170.689 94.9286 171.019 95.2628C171.663 95.9167 172.291 96.5848 172.887 97.2238C173.186 97.5577 173.516 97.8919 173.766 98.2397C174.049 98.559 174.315 98.8925 174.598 99.2406C175.147 99.8935 175.632 100.546 176.087 101.197C176.885 102.37 177.778 103.66 178.67 104.977C178.717 105.079 178.779 105.165 178.826 105.267C178.951 105.44 179.077 105.643 179.202 105.817C179.531 106.324 179.875 106.816 180.188 107.337C180.235 107.381 180.298 107.439 180.282 107.482C180.752 108.148 181.158 108.814 181.596 109.509C181.628 109.538 181.643 109.552 181.643 109.61C181.878 109.972 182.097 110.319 182.331 110.681C182.691 111.245 183.051 111.839 183.426 112.447C183.677 112.823 183.911 113.185 184.146 113.604C184.24 113.749 184.349 113.937 184.443 114.082L184.474 114.111C182.376 115.554 180.165 117.097 177.923 118.725L177.891 118.753C165.852 127.403 152.118 138.564 138.21 152.052C136.808 153.388 135.453 154.738 134.051 156.132C133.844 156.316 133.637 156.501 133.446 156.729C130.258 159.942 127.086 163.256 123.929 166.671C123.578 167.07 123.243 167.426 122.908 167.81C122.781 167.924 122.653 168.095 122.541 168.223L122.51 168.194L119.413 167.613L111.876 166.223L96.3336 156.004L85.0429 148.564Z" fill="#FFAC1C"/>
<path d="M86.1978 168.691C89.5968 164.262 92.9469 160.048 96.248 156.048L111.778 166.258L119.309 167.648L122.404 168.228L122.435 168.257C119.551 171.399 116.682 174.671 113.86 178.015C111.978 180.264 110.065 182.569 108.23 184.919C107.789 184.656 107.348 184.392 106.908 184.129C105.9 183.486 104.878 182.828 103.839 182.099C103.194 181.675 102.565 181.266 101.936 180.828C101.007 180.201 100.064 179.53 99.1359 178.844C97.5001 177.677 95.8333 176.424 94.1984 175.142C93.2549 174.442 92.2956 173.728 91.3684 172.956C89.6235 171.573 87.9107 170.132 86.1978 168.691Z" fill="#F5D773"/>
<path d="M96.3007 155.981C123.972 122.529 149.27 104.088 167.159 94.169C167.763 93.8303 168.368 93.4628 168.988 93.1387C169.318 93.5021 169.664 93.8224 169.994 94.1282C170.356 94.4631 170.686 94.8265 171.016 95.161C171.661 95.8156 172.29 96.4844 172.887 97.1241C173.185 97.4583 173.516 97.7929 173.767 98.141C174.049 98.4607 174.316 98.7945 174.599 99.143C175.148 99.7965 175.635 100.449 176.089 101.102C176.889 102.276 177.782 103.567 178.675 104.886C178.722 104.987 178.785 105.074 178.832 105.175C178.957 105.349 179.082 105.552 179.208 105.726C179.537 106.233 179.882 106.726 180.195 107.248C180.242 107.292 180.305 107.35 180.289 107.393C180.759 108.06 181.166 108.726 181.605 109.422C181.636 109.451 181.652 109.465 181.651 109.523C181.886 109.885 182.106 110.233 182.341 110.595C182.419 110.668 182.498 110.798 182.545 110.871C182.701 111.16 182.858 111.392 183.03 111.668C183.171 111.885 183.328 112.117 183.437 112.334C183.499 112.45 183.594 112.566 183.672 112.696C183.828 112.986 183.985 113.218 184.141 113.507C184.235 113.652 184.345 113.84 184.439 113.985C182.338 115.43 180.125 116.974 177.88 118.604C165.845 127.249 152.049 138.464 138.157 151.995C136.754 153.333 135.398 154.685 133.994 156.079C133.787 156.264 133.58 156.449 133.388 156.677C130.182 159.879 127.022 163.211 123.862 166.63C123.51 167.029 123.175 167.385 122.84 167.77C122.712 167.884 122.553 168.026 122.457 168.169L119.357 167.588L111.812 166.195L96.3007 155.981Z" fill="#FFEEB5"/>
<path d="M156.026 161.73L144.416 172.083L142.371 203.444L150.5 199.795L156.026 161.73Z" fill="#FCFCFC"/>
</g>
</svg>
