<svg width="1121" height="963" viewBox="0 0 1121 963" fill="none" xmlns="http://www.w3.org/2000/svg">
<g filter="url(#filter0_d_411_305)">
<path fill-rule="evenodd" clip-rule="evenodd" d="M1049.98 -1248.27C891.579 -1261.75 731.581 -1275.12 573.994 -1254.46C416.305 -1233.78 258.654 -1176.09 144.993 -1064.77C84.9847 -1006.13 36.4837 -923.415 54.7861 -841.535C76.4179 -744.958 178.937 -691.134 273.475 -662.085C286.935 -657.949 300.609 -653.971 314.35 -649.974C397.126 -625.896 482.339 -601.109 537.731 -536.749C542.095 -532.645 545.55 -527.67 547.87 -522.147C550.191 -516.623 551.326 -510.674 551.201 -504.684C549.26 -491.914 538.264 -483.372 528.096 -475.671C455.688 -420.19 398.139 -314.341 452.952 -241.359C477.626 -208.582 519.009 -191.544 559.344 -174.937C610.284 -153.964 659.553 -133.679 671.385 -83.2482C679.074 -50.322 665.987 -18.6266 652.738 13.4624C642.232 38.908 631.623 64.601 631.191 91.3513C630.057 155.714 688.48 206.746 749.241 227.886C781.944 239.263 816.198 244.783 850.475 250.307C879.883 255.047 909.309 259.789 937.788 268.236C999.459 286.527 1061.24 330.801 1068.97 394.655C1071.65 416.757 1067.39 438.951 1063.14 461.022C1061.04 471.989 1058.93 482.926 1057.69 493.805C1042.69 616.424 1129.66 733.308 1238.33 792.181C1346.99 851.054 1473.65 864.137 1596.56 876.172L1596.51 875.985C1754.91 889.462 1914.91 902.829 2072.5 882.167C2230.19 861.492 2387.84 803.797 2501.5 692.484C2561.51 633.839 2610.01 551.125 2591.7 469.246C2570.07 372.668 2467.55 318.845 2373.02 289.795C2359.56 285.659 2345.88 281.681 2332.14 277.684C2249.36 253.606 2164.15 228.819 2108.76 164.46C2104.4 160.356 2100.94 155.381 2098.62 149.857C2096.3 144.333 2095.17 138.384 2095.29 132.394C2097.23 119.624 2108.23 111.083 2118.39 103.381C2190.8 47.8999 2248.35 -57.9482 2193.54 -130.931C2168.87 -163.708 2127.48 -180.746 2087.15 -197.352C2036.21 -218.325 1986.94 -238.61 1975.11 -289.041C1967.42 -321.968 1980.5 -353.663 1993.75 -385.752C2004.26 -411.198 2014.87 -436.891 2015.3 -463.641C2016.43 -528.003 1958.01 -579.036 1897.25 -600.175C1864.55 -611.553 1830.29 -617.073 1796.02 -622.597C1766.61 -627.336 1737.18 -632.079 1708.7 -640.525C1647.03 -658.817 1585.25 -703.091 1577.52 -766.944C1574.84 -789.047 1579.1 -811.241 1583.35 -833.312C1585.45 -844.279 1587.56 -855.215 1588.8 -866.095C1603.8 -988.714 1516.83 -1105.6 1408.16 -1164.47C1299.5 -1223.34 1172.84 -1236.43 1049.93 -1248.46L1049.98 -1248.27Z" fill="url(#paint0_linear_411_305)" fill-opacity="0.8" shape-rendering="crispEdges"/>
</g>
<defs>
<filter id="filter0_d_411_305" x="0.869385" y="-1295.13" width="2644.75" height="2257.98" filterUnits="userSpaceOnUse" color-interpolation-filters="sRGB">
<feFlood flood-opacity="0" result="BackgroundImageFix"/>
<feColorMatrix in="SourceAlpha" type="matrix" values="0 0 0 0 0 0 0 0 0 0 0 0 0 0 0 0 0 0 127 0" result="hardAlpha"/>
<feOffset dy="20"/>
<feGaussianBlur stdDeviation="25"/>
<feComposite in2="hardAlpha" operator="out"/>
<feColorMatrix type="matrix" values="0 0 0 0 0 0 0 0 0 0 0 0 0 0 0 0 0 0 1 0"/>
<feBlend mode="normal" in2="BackgroundImageFix" result="effect1_dropShadow_411_305"/>
<feBlend mode="normal" in="SourceGraphic" in2="effect1_dropShadow_411_305" result="shape"/>
</filter>
<linearGradient id="paint0_linear_411_305" x1="-138.739" y1="-734.57" x2="2401.75" y2="-1348.39" gradientUnits="userSpaceOnUse">
<stop stop-color="#E034BC"/>
<stop offset="0.489583" stop-color="#6603AC"/>
<stop offset="1" stop-color="#0D002E"/>
</linearGradient>
</defs>
</svg>
