<svg width="130" height="41" viewBox="0 0 130 41" fill="none" xmlns="http://www.w3.org/2000/svg">
<path d="M12.964 14H14.356V6.332H16.96V5.156H10.372V6.332H12.964V14ZM17.7588 14H19.1388V9.884C19.5468 8.84 20.1948 8.468 20.7348 8.468C20.9988 8.468 21.1668 8.504 21.3948 8.576L21.6468 7.376C21.4428 7.28 21.2268 7.232 20.9028 7.232C20.1948 7.232 19.4988 7.736 19.0308 8.588H18.9948L18.8868 7.4H17.7588V14ZM24.613 14.156C25.513 14.156 26.161 13.7 26.761 13.004H26.797L26.905 14H28.033V7.4H26.653V11.984C26.101 12.68 25.681 12.968 25.069 12.968C24.289 12.968 23.965 12.512 23.965 11.384V7.4H22.585V11.552C22.585 13.232 23.197 14.156 24.613 14.156ZM31.8984 14.156C33.5304 14.156 34.4064 13.256 34.4064 12.152C34.4064 10.904 33.3864 10.496 32.4624 10.148C31.7424 9.884 31.0944 9.668 31.0944 9.104C31.0944 8.648 31.4304 8.288 32.1624 8.288C32.7024 8.288 33.1704 8.528 33.6264 8.864L34.2744 8.012C33.7464 7.592 33.0144 7.232 32.1384 7.232C30.6744 7.232 29.7864 8.06 29.7864 9.164C29.7864 10.28 30.7584 10.748 31.6464 11.084C32.3544 11.36 33.0984 11.624 33.0984 12.224C33.0984 12.728 32.7264 13.112 31.9344 13.112C31.2264 13.112 30.6504 12.812 30.0624 12.356L29.4144 13.244C30.0624 13.772 30.9864 14.156 31.8984 14.156ZM37.8265 14.156C38.3065 14.156 38.7505 14.036 39.1225 13.916L38.8705 12.896C38.6785 12.98 38.3905 13.052 38.1625 13.052C37.4785 13.052 37.2025 12.644 37.2025 11.852V8.504H38.9185V7.4H37.2025V5.576H36.0505L35.8945 7.4L34.8625 7.472V8.504H35.8225V11.84C35.8225 13.232 36.3385 14.156 37.8265 14.156ZM40.4843 14H41.8763V10.652H43.2083C45.1283 10.652 46.5323 9.764 46.5323 7.832C46.5323 5.84 45.1283 5.156 43.1603 5.156H40.4843V14ZM41.8763 9.536V6.284H43.0283C44.4323 6.284 45.1643 6.668 45.1643 7.832C45.1643 8.996 44.4923 9.536 43.0763 9.536H41.8763ZM48.1338 14H49.5138V7.4H48.1338V14ZM48.8178 6.164C49.3218 6.164 49.6818 5.84 49.6818 5.336C49.6818 4.844 49.3218 4.52 48.8178 4.52C48.3138 4.52 47.9658 4.844 47.9658 5.336C47.9658 5.84 48.3138 6.164 48.8178 6.164ZM52.9472 14.156C53.2952 14.156 53.5232 14.108 53.6912 14.048L53.5112 13.004C53.3912 13.028 53.3432 13.028 53.2832 13.028C53.1152 13.028 52.9592 12.896 52.9592 12.524V4.436H51.5792V12.452C51.5792 13.52 51.9512 14.156 52.9472 14.156ZM57.7934 14.156C59.4254 14.156 60.9014 12.896 60.9014 10.7C60.9014 8.504 59.4254 7.232 57.7934 7.232C56.1614 7.232 54.6854 8.504 54.6854 10.7C54.6854 12.896 56.1614 14.156 57.7934 14.156ZM57.7934 13.028C56.7614 13.028 56.1134 12.104 56.1134 10.7C56.1134 9.308 56.7614 8.372 57.7934 8.372C58.8374 8.372 59.4854 9.308 59.4854 10.7C59.4854 12.104 58.8374 13.028 57.7934 13.028ZM64.4632 14.156C64.9432 14.156 65.3872 14.036 65.7592 13.916L65.5072 12.896C65.3152 12.98 65.0272 13.052 64.7992 13.052C64.1152 13.052 63.8392 12.644 63.8392 11.852V8.504H65.5552V7.4H63.8392V5.576H62.6872L62.5312 7.4L61.4992 7.472V8.504H62.4592V11.84C62.4592 13.232 62.9752 14.156 64.4632 14.156ZM69.8163 14H75.1683V12.824H71.2083V9.968H74.4483V8.792H71.2083V6.332H75.0363V5.156H69.8163V14ZM75.5589 14H77.0109L77.7789 12.596C77.9829 12.2 78.1869 11.804 78.3909 11.432H78.4509C78.6909 11.804 78.9189 12.212 79.1349 12.596L79.9989 14H81.4989L79.3749 10.712L81.3549 7.4H79.9149L79.2189 8.72C79.0389 9.092 78.8469 9.464 78.6669 9.836H78.6189C78.4029 9.464 78.1869 9.092 77.9949 8.72L77.2029 7.4H75.7149L77.6949 10.556L75.5589 14ZM85.1461 14.156C85.9021 14.156 86.6821 13.88 87.2941 13.34L86.7181 12.428C86.3221 12.764 85.8301 13.028 85.2781 13.028C84.1861 13.028 83.4181 12.104 83.4181 10.7C83.4181 9.308 84.2101 8.372 85.3261 8.372C85.7701 8.372 86.1421 8.564 86.5021 8.888L87.1861 7.988C86.7061 7.568 86.0941 7.232 85.2541 7.232C83.5141 7.232 81.9901 8.504 81.9901 10.7C81.9901 12.896 83.3581 14.156 85.1461 14.156ZM91.0889 14.156C91.9529 14.156 92.7089 13.868 93.3209 13.46L92.8409 12.584C92.3609 12.896 91.8569 13.076 91.2689 13.076C90.1289 13.076 89.3369 12.32 89.2289 11.06H93.5129C93.5489 10.892 93.5849 10.628 93.5849 10.352C93.5849 8.492 92.6369 7.232 90.8849 7.232C89.3489 7.232 87.8729 8.564 87.8729 10.7C87.8729 12.884 89.3009 14.156 91.0889 14.156ZM89.2169 10.1C89.3489 8.948 90.0809 8.312 90.9089 8.312C91.8689 8.312 92.3849 8.972 92.3849 10.1H89.2169ZM96.494 14.156C96.842 14.156 97.07 14.108 97.238 14.048L97.058 13.004C96.938 13.028 96.89 13.028 96.83 13.028C96.662 13.028 96.506 12.896 96.506 12.524V4.436H95.126V12.452C95.126 13.52 95.498 14.156 96.494 14.156ZM100.068 14.156C100.416 14.156 100.644 14.108 100.812 14.048L100.632 13.004C100.512 13.028 100.464 13.028 100.404 13.028C100.236 13.028 100.08 12.896 100.08 12.524V4.436H98.7003V12.452C98.7003 13.52 99.0723 14.156 100.068 14.156ZM105.022 14.156C105.886 14.156 106.642 13.868 107.254 13.46L106.774 12.584C106.294 12.896 105.79 13.076 105.202 13.076C104.062 13.076 103.27 12.32 103.162 11.06H107.446C107.482 10.892 107.518 10.628 107.518 10.352C107.518 8.492 106.57 7.232 104.818 7.232C103.282 7.232 101.806 8.564 101.806 10.7C101.806 12.884 103.234 14.156 105.022 14.156ZM103.15 10.1C103.282 8.948 104.014 8.312 104.842 8.312C105.802 8.312 106.318 8.972 106.318 10.1H103.15ZM109.06 14H110.44V9.32C111.016 8.732 111.436 8.42 112.048 8.42C112.828 8.42 113.164 8.876 113.164 10.016V14H114.544V9.848C114.544 8.168 113.92 7.232 112.516 7.232C111.616 7.232 110.944 7.724 110.332 8.312H110.296L110.188 7.4H109.06V14ZM118.768 14.156C119.248 14.156 119.692 14.036 120.064 13.916L119.812 12.896C119.62 12.98 119.332 13.052 119.104 13.052C118.42 13.052 118.144 12.644 118.144 11.852V8.504H119.86V7.4H118.144V5.576H116.992L116.836 7.4L115.804 7.472V8.504H116.764V11.84C116.764 13.232 117.28 14.156 118.768 14.156Z" fill="#404040"/>
<path d="M11 19L13.4697 26.6008H21.4616L14.996 31.2984L17.4656 38.8992L11 34.2016L4.53436 38.8992L7.00402 31.2984L0.538379 26.6008H8.53035L11 19Z" fill="#404040"/>
<path d="M38 19L40.4697 26.6008H48.4616L41.996 31.2984L44.4656 38.8992L38 34.2016L31.5344 38.8992L34.004 31.2984L27.5384 26.6008H35.5303L38 19Z" fill="#404040"/>
<path d="M65 19L67.4697 26.6008H75.4616L68.996 31.2984L71.4656 38.8992L65 34.2016L58.5344 38.8992L61.004 31.2984L54.5384 26.6008H62.5303L65 19Z" fill="#404040"/>
<path d="M92 19L94.4697 26.6008H102.462L95.996 31.2984L98.4656 38.8992L92 34.2016L85.5344 38.8992L88.004 31.2984L81.5384 26.6008H89.5303L92 19Z" fill="#404040"/>
<path d="M119 19L121.47 26.6008H129.462L122.996 31.2984L125.466 38.8992L119 34.2016L112.534 38.8992L115.004 31.2984L108.538 26.6008H116.53L119 19Z" fill="#404040"/>
</svg>
