<svg width="49" height="38" viewBox="0 0 49 38" fill="none" xmlns="http://www.w3.org/2000/svg">
<path d="M4.28515 33.8318C1.49696 30.8704 0 27.5489 0 22.1648C0 12.6903 6.65105 4.19853 16.3231 0L18.7404 3.73022C9.71264 8.61361 7.94769 14.9506 7.24388 18.9462C8.69753 18.1936 10.6005 17.931 12.4656 18.1043C17.349 18.5563 21.1984 22.5654 21.1984 27.5489C21.1984 30.0617 20.2002 32.4716 18.4234 34.2484C16.6466 36.0252 14.2367 37.0234 11.7239 37.0234C10.3343 37.0112 8.96101 36.7228 7.68393 36.1749C6.40685 35.627 5.2515 34.8305 4.28515 33.8318ZM31.3549 33.8318C28.5668 30.8704 27.0698 27.5489 27.0698 22.1648C27.0698 12.6903 33.7209 4.19853 43.3929 0L45.8102 3.73022C36.7824 8.61361 35.0175 14.9506 34.3137 18.9462C35.7673 18.1936 37.6703 17.931 39.5354 18.1043C44.4188 18.5563 48.2682 22.5654 48.2682 27.5489C48.2682 30.0617 47.27 32.4716 45.4932 34.2484C43.7164 36.0252 41.3065 37.0234 38.7937 37.0234C37.4041 37.0112 36.0308 36.7228 34.7537 36.1749C33.4766 35.627 32.3213 34.8305 31.3549 33.8318Z" fill="white"/>
</svg>
