<svg width="198" height="59" viewBox="0 0 198 59" fill="none" xmlns="http://www.w3.org/2000/svg">
<mask id="path-1-inside-1" fill="white">
<path fill-rule="evenodd" clip-rule="evenodd" d="M187.005 0.778564C192.528 0.778561 197.005 5.25572 197.005 10.7786V37.7786C197.005 43.3014 192.528 47.7786 187.005 47.7786H28.0226L4.25958 58.6463C1.68512 59.8237 -0.937683 57.1077 0.328842 54.5759L13.0051 29.2361V10.7787C13.0051 5.25581 17.4822 0.778658 23.0051 0.778655L187.005 0.778564Z"/>
</mask>
<path d="M187.005 0.778564L187.005 1.77856L187.005 0.778564ZM28.0226 47.7786L27.6067 46.8691L27.8048 46.7786H28.0226V47.7786ZM4.25958 58.6463L4.67549 59.5557L4.25958 58.6463ZM0.328842 54.5759L-0.565491 54.1285L0.328842 54.5759ZM13.0051 29.2361H14.0051V29.4723L13.8994 29.6835L13.0051 29.2361ZM23.0051 0.778655V-0.221345V0.778655ZM196.005 10.7786C196.005 5.808 191.976 1.77856 187.005 1.77856L187.005 -0.221436C193.08 -0.221439 198.005 4.70343 198.005 10.7786H196.005ZM196.005 37.7786V10.7786H198.005V37.7786H196.005ZM187.005 46.7786C191.976 46.7786 196.005 42.7491 196.005 37.7786H198.005C198.005 43.8537 193.08 48.7786 187.005 48.7786V46.7786ZM28.0226 46.7786H187.005V48.7786H28.0226V46.7786ZM3.84367 57.7369L27.6067 46.8691L28.4385 48.688L4.67549 59.5557L3.84367 57.7369ZM1.22318 55.0233C0.37883 56.7112 2.12737 58.5218 3.84367 57.7369L4.67549 59.5557C1.24287 61.1256 -2.2542 57.5043 -0.565491 54.1285L1.22318 55.0233ZM13.8994 29.6835L1.22318 55.0233L-0.565491 54.1285L12.1107 28.7887L13.8994 29.6835ZM14.0051 10.7787V29.2361H12.0051V10.7787H14.0051ZM23.0051 1.77865C18.0345 1.77866 14.0051 5.80809 14.0051 10.7787H12.0051C12.0051 4.70352 16.9299 -0.221342 23.0051 -0.221345V1.77865ZM187.005 1.77856L23.0051 1.77865V-0.221345L187.005 -0.221436L187.005 1.77856Z" fill="#C1C1C1" mask="url(#path-1-inside-1)"/>
</svg>
