<svg width="309" height="1086" viewBox="0 0 309 1086" fill="none" xmlns="http://www.w3.org/2000/svg">
<g opacity="0.6">
<path d="M-65.8933 571.766C-82.0803 577.791 -95.0173 589.218 -111.541 594.775C-112.957 597.197 -114.418 596.042 -115.99 594.293C-116.716 592.404 -116.654 590.732 -115.973 589.045C-115.123 587.591 -113.711 586.481 -112.299 585.371C-111.564 584.637 -110.604 583.777 -109.869 583.042C-109.135 582.307 -108.174 581.448 -107.271 580.947C-105.859 579.837 -104.111 579.196 -102.531 578.32C-99.8221 576.818 -97.4498 574.849 -95.2457 572.644C-86.2121 566.328 -78.6926 557.903 -68.986 552.523C-55.1545 543.219 -39.4723 536.492 -24.6887 528.953C-21.7542 527.326 -18.9345 526.418 -15.1055 526.916C-2.84723 533.874 -2.57251 536.014 -12.8988 541.41C-25.2568 547.933 -37.6147 554.455 -48.7949 562.616C-52.9241 567.852 -61.9324 566.296 -65.8933 571.766Z" fill="#F8AE57"/>
<path d="M94.5711 136.368C98.7146 138.905 102.915 141.069 107.756 141.858C122.456 154.394 122.764 156.622 113.922 167.931C111.862 168.709 109.68 168.868 107.02 167.92C99.9174 163.57 90.8345 163.719 84.4862 157.249C85.2821 152.026 82.5086 151.823 78.2671 152.761C69.298 152.163 63.7277 147.665 61.3779 139.02C60.0647 136.313 58.9868 133.477 57.9088 130.642C57.1307 128.67 56.8231 126.442 57.3426 124.449C63.9853 120.495 67.2837 129.992 72.8874 130.025C80.3316 132.136 87.7679 132.882 94.5711 136.368Z" fill="#F8AE55"/>
<path d="M93.6663 492.289C73.858 501.26 54.1069 509.87 34.8064 519.546C30.1088 521.812 24.3406 521.712 20.4893 525.154C18.9022 527.346 16.5259 528.001 13.7011 526.275C8.79429 518.142 15.6968 516.3 20.0559 513.564C35.5094 504.698 51.5829 497.134 67.5442 488.974C75.7502 485.427 84.1256 482.115 93.4593 480.573C98.2626 482.849 105.449 480.523 107.076 488.496C103.057 490.387 98.9817 492.639 93.6663 492.289Z" fill="#FCBF78"/>
<path d="M189.979 319.025C187.988 323.769 183.359 326.636 179.36 329.489C170.047 335.585 161.366 342.995 148.03 342.654C142.762 341.552 138.749 339.097 138.163 333.438C149.467 322.598 163.012 314.851 180.867 314.378C184.359 314.792 188.193 314.355 189.979 319.025Z" fill="#EC9835"/>
<path d="M110.395 168.222C121.404 160.149 112.521 151.558 107.14 142.779C121.264 141.276 122.398 156.506 131.68 161.09C127.855 169.034 137.195 173.242 140.368 179.435C142.703 184.018 138.964 184.335 136.415 185.381C126.07 182.066 115.135 179.762 110.395 168.222Z" fill="#FACE99"/>
<path d="M167.388 445.416C160.533 455.828 148.839 462.216 144.057 474.161C141.141 478.087 136.139 476.487 131.89 476.808C127.865 475.673 124.126 474.049 121.758 470.343C123.443 459.423 131.58 454.311 140.696 449.664C150.813 452.137 157.097 442.704 167.388 445.416Z" fill="#FEE9D0"/>
<path d="M166.654 444.719C162.502 446.98 157.652 448.279 154.43 451.375C149.942 455.831 145.358 452.624 140.55 450.881C137.972 444.234 137.071 437.68 142.831 433.202C148.996 428.839 154.636 423.755 163.889 424.085C169.564 425.691 168.25 428.755 166.53 431.704C165.328 434.036 162.909 436.024 166.913 438.875C167.039 440.819 166.934 442.889 166.654 444.719Z" fill="#FCC687"/>
<path d="M161.045 217.964C170.033 224.011 171.086 232.663 168.77 239.387C167.207 243.995 168.826 248.922 166.907 253.04C158.421 252.186 151.975 247.832 148.631 240.084C151.36 233.477 147.838 225.484 150.332 219.004C153.264 216.728 156.673 215.558 161.045 217.964Z" fill="#FCE0BE"/>
<path d="M-16.1388 115.209C-16.6616 114.489 -16.9543 113.644 -17.4771 112.924C-14.7698 111.784 -12.1184 111.009 -9.41105 109.868C-3.75344 110.134 1.69915 115.87 7.6864 112.607C11.1532 113.397 12.9521 115.431 14.1784 118.446C14.5892 119.897 14.3653 121.358 13.9671 122.58C10.7558 127.009 4.6439 128.33 0.3309 131.685C-7.32429 136.191 -17.6191 131.755 -26.208 134.091C-27.5337 134.478 -29.1645 131.348 -29.4634 129.167C-29.3207 122.727 -23.6694 121.656 -19.2381 118.907C-18.9581 117.08 -14.7382 118.464 -16.1388 115.209Z" fill="#F79E32"/>
<path d="M94.4972 135.705C87.2714 136.204 79.9815 135.706 72.9148 132.338C56.6141 118.531 56.6141 118.531 56.9895 110.42C59.7244 112.368 62.5233 115.312 65.2514 115.888C78.1191 118.159 86.6881 125.865 94.4972 135.705Z" fill="#FCE1C0"/>
<path d="M187.637 368.925C191.04 368.743 193.814 369.909 196.189 372.295C196.742 379.691 191.505 382.211 185.341 383.897C175.066 382.135 167.478 387.61 158.024 388.747C153.067 389.442 147.662 393.057 142.786 386.344C142.375 384.895 142.369 383.559 142.998 382.213C146.5 378.631 146.239 372.08 152.229 370.153C153.672 370.371 155.233 371.193 156.389 371.901C161.371 376.549 166.154 375.615 170.701 373.471C176.112 371.191 181.293 369.036 187.637 368.925Z" fill="#FCB056"/>
<path d="M174.103 338.633C181.935 341.034 187.384 337.058 193.762 335.246C200.599 333.183 201.763 336.554 201.61 341.644C194.162 349.048 183.064 350.098 172.834 352.344C167.655 351.833 162.313 353.747 158.72 347.029C161.689 341.403 165.873 337.45 174.103 338.633Z" fill="#FBB665"/>
<path d="M150.002 239.319C155.154 245.049 161.705 248.655 167.674 253.259C166.639 257.233 167.02 261.803 162.799 264.096C155.245 260.012 144.254 261.549 140.306 250.729C139.877 247.891 141.098 245.522 141.906 243.035C143.127 240.666 144.526 238.541 147.761 238.489C148.586 238.723 149.177 239.085 150.002 239.319Z" fill="#F7AD52"/>
<path d="M185.083 383.315C188.722 379.993 192.19 376.434 195.829 373.112C198.616 372.571 201.63 371.904 204.134 374.492C205.899 376.495 204.762 378.441 203.17 379.317C194.355 383.833 188.444 392.369 176.783 392.504C171.719 389.011 167.74 394.503 163.017 391.483C167.905 384.171 175.868 382.435 185.083 383.315Z" fill="#FDD19D"/>
<path d="M142.124 248.819C144.2 253.459 147.145 256.61 152.702 256.645C158.026 256.807 161.727 259.208 163.57 263.975C162.348 264.978 161.713 266.34 162.719 268.169C162.317 269.405 161.562 270.155 160.042 270.302C158.111 270.332 156.181 270.363 154.251 270.393C147.649 271.604 142.898 278.934 134.025 272.556C133.291 267.526 139.298 264.604 136.691 259.234C137.421 254.427 133.695 247.969 139.879 245.289C140.876 245.765 141.64 246.368 141.938 247.224C142.413 248.323 142.357 248.693 142.124 248.819Z" fill="#F49A2D"/>
<path d="M161.881 364.109C168.329 361.932 174.778 359.755 180.996 357.703C183.147 361.549 185.123 365.155 187.274 369.001C181.708 375.047 173.065 376.413 165.411 379.582C160.691 381.486 156.47 378.769 153.853 373.839C157.28 366.617 167.855 371.893 172.215 366.839C168.932 367.626 165.138 370.363 161.881 364.109Z" fill="#FCC27D"/>
<path d="M135.931 184.618C137.81 183.596 140.046 183.064 140.444 180.456C146.851 187.91 160.257 193.268 153.67 205.393C151.871 210.13 147.812 211.311 142.264 209.543C131.612 201.662 142.046 192.572 135.931 184.618Z" fill="#F9BA6E"/>
<path d="M166.919 424.886C156.899 425.671 150.939 432.933 142.427 436.238C141.042 435.657 140.117 434.824 139.478 433.501C139.068 432.053 139.006 431.084 139.23 429.625C142.095 426.057 143.054 421.188 145.975 417.255C148.963 415.625 152.305 415.808 155.648 415.991C160.661 416.265 164.451 413.53 169.464 413.804C170.972 416.324 172.481 418.844 173.99 421.364C173.2 425.137 170.727 426.152 166.919 424.886Z" fill="#FCC17B"/>
<path d="M189.729 318.691C187.263 316.643 184.871 316.927 182.422 317.579C173.86 312.067 165.431 318.339 156.934 313.807C151.671 303.455 161.074 303.429 166.429 300.521C168.468 299.752 170.396 299.721 172.564 300.915C175.577 306.392 181.134 307.778 185.936 309.912C191.381 312.036 192.683 314.716 189.729 318.691Z" fill="#F8A441"/>
<path d="M168.68 413.398C165.536 417.45 162.447 421.137 155.6 417.877C150.695 411.555 150.217 406.483 157.56 403.805C162.928 411.207 168.563 412.796 172.845 405.456C174.843 402.031 177.651 400.164 181.208 398.888C184.082 399.319 185.64 401.467 187.199 403.616L187.428 403.491C181.527 407.715 175.682 411.574 168.68 413.398Z" fill="#FDE3C5"/>
<path d="M174.083 338.054C169.074 340.806 165.377 345.814 158.999 346.671C155.073 350.482 150.517 350.339 145.046 346.729C143.961 344.348 144.643 342.651 146.692 341.525C157.509 337.568 168.498 333.846 179.315 329.889C179.546 333.73 173.509 333.739 174.083 338.054Z" fill="#FCD4A6"/>
<path d="M11.0692 118.173C9.6713 116.25 8.44812 114.567 5.95951 114.244C3.25394 116.724 -1.19219 118.138 -2.60385 113.538C-4.60257 107.244 1.58412 106.896 7.07869 106.924C18.5783 105.025 30.022 103.492 42.3109 108.881C43.59 110.198 43.4221 111.296 42.7929 112.645C41.2968 114.131 39.3323 114.529 37.1932 114.687C27.5814 112.538 18.913 113.902 11.0692 118.173Z" fill="#FBD4A6"/>
<path d="M141.738 206.844C146.766 210.191 150.064 206.71 153.843 205.671C154.219 210.194 163.891 211.019 160.433 216.951C156.83 218.233 153.228 219.515 149.801 221.039C144.725 219.406 137.632 221.233 135.03 214.542C133.196 209.796 136.029 206.568 141.738 206.844Z" fill="#F8BB71"/>
<path d="M42.3276 111.75C42.2062 111.127 41.6685 110.386 41.5471 109.763C46.3479 106.798 51.5762 106.703 57.4112 109.725C58.0459 119.722 70.5956 122.873 73.3645 131.706C65.2382 135.106 64.8352 123.603 58.5948 123.216C52.4647 120.699 46.1553 117.936 42.3276 111.75Z" fill="#FAC485"/>
<path d="M7.46153 106.485C6.01041 107.612 4.20634 108.254 3.1642 109.496C1.94559 110.497 -1.61476 110.063 -0.259068 112.371C1.39351 115.532 4.18362 114.017 6.51707 114.102C-0.352266 125.614 -4.57308 112.685 -9.89815 109.826C-6.1469 103.391 0.388452 103.9 7.46153 106.485Z" fill="#FACB92"/>
<path d="M160.321 270.752C161.26 270.242 161.964 269.859 162.903 269.349C164.433 269.2 167.662 267.787 167.444 270.637C166.837 277.455 167.816 283.752 173.676 289.104C173.336 291.337 171.872 292.475 170.05 293.123C168.699 293.516 167.404 293.537 165.931 293.313C164.514 292.717 163.567 291.866 162.442 290.77C161.074 288.44 160.823 285.845 161.163 283.611C161.212 281.878 161.438 280.389 160.839 278.666C160.24 276.942 159.82 275.464 159.455 273.613C159.391 272.624 159.561 271.507 160.321 270.752Z" fill="#FCCD96"/>
<path d="M165.422 292.481C166.295 292.345 167.223 291.84 168.095 291.704C170.321 293.871 174.658 289.151 176.148 294.757C174.235 296.134 171.738 297.153 171.93 300.087C170.361 300.602 168.56 301.243 166.992 301.758C164.422 300.453 163.71 298.139 162.533 296.077C162.061 294.983 161.997 294.005 162.397 292.774C163.325 292.27 164.198 292.133 165.422 292.481Z" fill="#FDA842"/>
<path d="M176.139 295.003C173.514 294.066 170.713 292.888 168.088 291.951C169.889 291.31 171.921 290.543 173.722 289.902C176.755 290.955 179.556 292.134 176.139 295.003Z" fill="#F8B15C"/>
<path d="M186.638 404.1C187.97 403.712 189.246 403.691 190.578 403.303C190.466 404.037 190.761 404.886 190.529 405.012C189.142 405.767 187.746 405.18 186.638 404.1Z" fill="#FCCE97"/>
<path d="M15.0468 525.738C-9.21208 534.967 -29.3391 550.395 -52.9854 560.917C-43.5 550.42 -30.2701 544.704 -17.8781 537.82C-15.1744 536.319 -11.968 535.518 -8.70376 534.358C-11.7259 531.462 -13.8523 529.376 -16.2041 527.415C-6.14713 514.641 10.3414 509.075 23.3628 499.555C34.941 499.004 40.6017 489.325 50.8971 486.546C55.1724 485.478 59.7251 485.236 64.2722 486.304C66.6296 486.955 68.7039 488.09 70.0446 489.959C61.9744 498.036 50.8877 501.908 40.6967 506.589C32.2504 510.627 25.7052 516.877 16.0858 519.28C13.6652 520.298 14.2145 523.26 15.0468 525.738Z" fill="#FCBA6D"/>
<path d="M25.219 501.876C10.9683 509.756 -0.859823 520.564 -16.6884 526.691C-19.5145 527.597 -21.9455 528.613 -24.7716 529.519C-28.9033 533.445 -32.9749 535.697 -36.5718 527.182C-32.5434 518.718 -21.359 518.441 -15.3577 511.84C-1.05249 504.915 9.98808 492.573 28.4026 492.237C32.1224 496.089 32.1224 496.089 25.219 501.876Z" fill="#E29030"/>
<path d="M141.931 206.184C137.264 213.907 137.264 213.907 145.949 215.376C149.994 215.927 148.876 218.953 150.311 220.93C158.485 228.542 156.545 234.087 149.13 238.479L148.413 237.491C138.362 236.423 132.983 229.01 128.437 221.832C125.684 217.124 126.016 210.733 117.984 209.253C116.497 209.03 114.171 207.194 114.999 206.052C122.735 192.514 102.812 190.626 99.8635 181.54C97.0632 179.964 94.3209 178.011 93.7143 174.892C93.9463 173.385 94.3576 172.126 95.1855 170.984C97.9065 167.428 101.466 165.485 106.882 167.013C108.311 167.613 109.503 168.342 110.932 168.942C119.512 173.918 128.034 179.271 136.614 184.247C141.324 187.541 149.239 189.774 142.368 196.286C139.584 198.841 139.895 202.466 141.931 206.184Z" fill="#F49C32"/>
<path d="M107.603 165.233C103.466 166.157 100.543 168.754 98.1964 171.703C86.7597 173.608 78.1595 180.305 67.3605 183.53C62.0197 185.445 57.6635 189.158 52.6696 191.55C48.247 192.963 43.9978 194.615 39.0953 190.951C36.4728 182.037 43.9969 179.598 49.2765 176.716C54.153 173.72 58.5092 170.007 61.1516 169.232C57.4789 171.237 51.7454 175.702 44.6243 178.254C40.0843 179.064 35.3199 181.331 31.157 175.594C35.4822 163.889 46.9698 160.288 58.1105 156.208C68.0068 157.48 76.7296 152.719 86.9219 156.165C92.5794 161.754 101.71 158.438 107.603 165.233Z" fill="#F79622"/>
<path d="M86.3648 155.037C77.9891 156.525 70.5091 160.587 60.7534 157.044C58.1652 155.729 55.408 155.526 52.8283 155.567C47.9589 155.151 42.5094 155.73 38.3158 150.866C33.573 142.559 37.2313 136.831 42.7117 131.814C51.2817 133.281 44.6125 126.36 46.474 123.989C53.5344 118.454 57.576 127.141 62.575 129.528C64.0592 132.463 65.5997 135.027 67.084 137.961C65.7547 141.064 61.0882 144.959 61.2657 145.203C66.9828 149.919 73.5533 150.432 80.2364 150.203C85.6774 148.268 86.0493 151.467 86.3648 155.037Z" fill="#F59A2C"/>
<path d="M62.2097 128.751C56.5094 129.461 52.1098 121.618 46.1267 124.187C39.4803 124.046 33.4725 122.534 31.1348 115.277C32.6547 113.769 34.7084 112.994 37.3606 113.941C39.1798 113.293 40.999 112.646 42.8182 111.999C48.8343 114.87 56.1924 115.988 59.1769 123.236C60.1878 125.074 61.1988 126.913 62.2097 128.751Z" fill="#F6A23D"/>
<path d="M80.1849 150.69C70.5275 157.969 61.9982 149.38 51.734 143.767C57.6886 142.567 62.9441 141.747 66.6639 138.371C65.3812 148.221 74.2049 147.836 80.1849 150.69Z" fill="#F7A039"/>
<path d="M69.1014 489.888C67.7134 489.304 66.1511 488.481 64.7631 487.898C65.1109 475.988 73.3947 470.134 83.1847 465.469C93.5103 464.196 101.782 468.061 108.461 476.812C105.25 481.241 101.864 485.43 94.1089 480.949C85.5822 484.256 77.3418 487.072 69.1014 489.888Z" fill="#F9B05A"/>
<path d="M93.7046 481.968C99.9636 483.542 102.354 477.574 107.459 477.114C108.362 472.624 110.877 469.917 116.155 469.697C117.188 469.798 118.394 470.138 119.6 470.477C120.577 470.942 121.554 471.407 122.704 472.111C123.162 471.861 123.793 471.849 124.251 471.598C127.636 471.413 130.51 473.172 133.328 475.294C126.871 483.153 116.03 484.084 106.517 487.286C102.548 484.46 96.2507 488.569 93.7046 481.968Z" fill="#FCB868"/>
<path d="M147.316 341.028C146.917 342.252 146.113 343.361 145.714 344.586C141.944 354.023 134.209 357.563 122.738 355.078C117.128 344.703 106.511 350.482 99.4255 345.611C109.141 333.272 123.57 326.09 136.02 316.627C139.14 315.6 141.923 316.771 144.197 319.898C147.239 326.299 140.133 328.488 139.986 333.604C142.196 335.758 144.756 338.393 147.316 341.028Z" fill="#EE9A35"/>
<path d="M138.577 332.928C134.386 331.558 133.634 329.639 136.551 327.045C138.496 325.316 140.267 323.349 142.212 321.62C145.004 315.766 148.314 310.627 157.154 313.117C165.528 313.2 174.231 308.442 182.462 317.59C164.102 315.644 154.167 329.731 138.577 332.928Z" fill="#FCA53D"/>
<path d="M142.497 434.137C143.197 435.1 143.492 435.949 143.961 437.038C139.578 440.768 145.757 447.491 141.835 450.969C134.973 457.056 125.84 461.352 122.879 471.031C122.48 472.256 121.612 472.393 120.393 472.047L120.218 471.806C110.382 464.047 114.815 458.61 121.342 454.723C129.024 450.207 132.119 443.817 131.956 435.166C134.133 430.619 138.49 432.619 142.497 434.137Z" fill="#F2A549"/>
<path d="M-27.03 129.754C-26.6883 130.227 -26.3466 130.7 -26.1757 130.937C-18.6112 126.448 -8.76403 132.6 -0.686117 130.142C0.623118 131.074 1.24981 132.382 1.42148 133.94C-7.39149 143.741 -13.8201 144.962 -26.6824 139.476C-27.0808 139.365 -27.2517 139.128 -28.2184 139.99C-36.3496 148.095 -48.352 153.041 -52.6689 164.666C-58.4108 172.118 -65.5762 178.04 -73.8233 182.904C-78.6585 184.571 -84.858 188.309 -89.0149 182.994C-94.0826 176.858 -89.079 171.464 -85.2697 167.057C-83.2229 164.61 -79.7527 163.694 -77.706 161.247C-73.6116 157.674 -69.5172 154.102 -65.5936 150.293C-58.5441 141.13 -46.6551 136.908 -38.0114 129.512C-34.542 127.275 -31.0152 125.997 -27.03 129.754Z" fill="#F89620"/>
<path d="M-0.358102 133.889C-0.825537 132.803 -1.34894 132.083 -1.81637 130.997C0.287411 124.154 8.32312 125.474 13.4489 122.347C17.5772 116.076 23.5688 112.813 32.8258 115.814C37.6913 118.526 42.5569 121.237 47.192 124.075C48.7687 127.573 53.5288 132.353 44.5713 131.535C30.6494 131.41 21.9318 144.202 6.25869 140.339C3.07535 139.057 0.178401 137.284 -0.358102 133.889Z" fill="#F69621"/>
<path d="M31.8637 115.067C25.6096 117.482 19.1823 119.659 12.7549 121.835C12.2913 120.755 11.8277 119.674 11.1908 118.355C15.3929 104.722 27.4251 111.155 37.4297 113.027C35.6508 113.665 33.8719 114.304 31.8637 115.067Z" fill="#F8A849"/>
<path d="M185.673 382.362C178.329 385.04 171.158 387.956 163.814 390.634C160.257 391.91 156.929 393.061 153.372 394.337C152.571 395.441 151.598 396.306 150.451 396.933C146.777 397.606 143.275 398.518 139.947 399.669C127.721 402.68 117.583 411.218 102.398 406.175C99.0364 398.009 100.047 391.456 106.464 386.617C110.307 384.851 111.612 380.471 114.935 377.989C117.8 375.757 121.128 374.606 124.512 373.091C125.888 372.34 127.208 371.952 128.584 371.201C135.577 366.714 142.335 361.022 152.858 363.61C155.798 366.339 158.335 368.954 153.402 370.982C148.585 373.612 153.038 381.516 146.494 383.09C142.005 380.874 138.565 382.753 133.056 384.429C137.647 383.254 140.573 381.99 143.798 384.229C153.586 390.219 160.055 383.685 168.209 382.566C174.064 381.368 178.576 373.902 185.673 382.362Z" fill="#F8A13B"/>
<path d="M150.153 395.794C151.259 395.531 152.775 395.384 153.882 395.121C155.182 397.799 156.482 400.476 157.783 403.154C153.781 407.02 155.739 412.385 155.829 417.412C152.62 417.463 149.412 417.514 145.794 417.449C140.893 417.404 138.31 414.747 137.29 410.225C137.826 402.489 142.581 397.876 150.153 395.794Z" fill="#FCC07A"/>
<path d="M152.473 370.468C154.26 368.487 153.551 366.182 152.436 363.761C152.869 358.145 156.274 355.284 162.42 355.304C163.233 355.534 163.814 355.891 164.627 356.121C163.829 358.573 163.031 361.025 161.827 363.362C168.345 367.888 172.884 360.374 180.089 363.182C174.346 373.033 163.322 371.63 153.588 372.888C153.469 372.281 152.768 371.317 152.473 370.468Z" fill="#FBBD74"/>
<path d="M144.208 383.821C137.36 386.25 130.513 388.678 123.665 391.107C130.668 379.642 137.174 378.064 146.833 383.045C145.805 382.945 144.892 383.446 144.208 383.821Z" fill="#E99129"/>
<path d="M128.786 374.054C127.697 374.317 127.01 374.692 125.921 374.955C119.428 370.849 111.755 374.379 105.487 368.82C105.824 366.638 104.614 364.969 102.895 365.244C99.5118 365.429 95.6709 365.865 96.514 360.411C98.169 357.842 100.688 356.465 103.609 355.201C109.109 353.525 114.203 350.407 121.094 353.296C132.111 355.261 137.823 348.143 145.898 344.726C150.784 348.379 155.187 344.307 159.896 346.392C163.577 349.705 168.153 345.872 171.604 349.311C171.388 353.423 167.028 353.144 164.453 354.885L163.533 354.056C151.28 360.091 136.663 362.424 128.786 374.054Z" fill="#F7A23E"/>
<path d="M102.286 179.905C105.468 181.583 112.728 177.64 110.315 186.446C109.339 190.042 113.353 193.312 117.52 192.752C120.806 192.329 123.721 188.702 126.104 194.221C127.89 198.02 126.38 200.884 123.102 202.665C121.697 203.429 120.058 204.319 118.185 205.337C123.023 208.841 127.125 207.294 132.592 208.071C126.749 222.488 140.414 228.692 149.686 236.941C147.757 238.33 145.649 239.475 145.666 242.191C144.681 244.429 143.042 245.32 140.215 244.13C137.422 248.373 143.279 255.071 137.836 258.368C137.368 258.622 136.666 259.004 136.02 259.014C132.854 260.052 129.39 260.231 126.03 258.309C122.371 255.527 119.237 252.119 117.508 247.948C116.481 243.396 117.514 239.428 121.139 236.777C122.076 236.268 123.602 236.121 123.828 234.635C122.189 235.526 120.194 235.928 118.135 235.343C116.188 234.016 114.944 232.307 114.225 229.972C111.616 225.939 119.538 224.702 115.459 220.445C99.872 216.988 93.4871 229.314 81.9964 232.83C80.6479 233.222 79.3558 233.243 77.6519 233.146C68.8415 233.163 74.064 222.831 67.0056 221.215C65.3558 210.868 71.1367 205.343 78.6215 199.915C85.1132 195.366 95.385 194.215 97.4422 184.921C98.0715 182.195 99.8234 180.562 102.286 179.905Z" fill="#F49522"/>
<path d="M140.195 245.451C141.98 244.812 143.765 244.174 145.55 243.536C145.737 246.446 143.896 247.45 141.65 248.339C140.954 247.38 140.487 246.295 140.195 245.451Z" fill="#F49B2F"/>
<path d="M139.135 260.388C150.563 269.509 139.688 269.101 135.325 271.482C135.8 275.229 136.852 279.329 134.852 282.757C129.01 289.284 121.024 291.973 111.415 291.542C103.779 281.02 115.567 279.595 118.133 273.854C124.383 268.773 128.899 261.301 139.135 260.388Z" fill="#F39625"/>
<path d="M132.27 279.734C131.904 276.569 132.702 274.116 134.896 272.25C144.143 276.977 148.093 267.764 155.867 268.245C158.482 269.178 159.079 272.217 161.75 272.783C162.746 274.596 163.742 276.409 164.682 278.589C155.446 286.304 144.181 283.684 132.27 279.734Z" fill="#F59A2C"/>
<path d="M161.38 272.836C158.164 272.52 156.728 270.54 155.351 268.183C156.961 269.031 158.392 269.631 160.003 270.479C160.541 271.221 161.079 271.964 161.38 272.836Z" fill="#F8A94A"/>
<path d="M142.021 433.083C138.84 433.137 135.658 433.19 132.476 433.244C124.134 442.149 112.813 445.627 98.9813 444.765C92.7862 432.699 107.869 429.522 107.24 419.796C111.443 415.83 116.814 413.913 123.121 414.172C132.924 419.24 123.624 421.953 123.295 425.488C129.092 427.703 137.393 410.766 140.735 430.427C141.259 431.148 141.553 431.995 142.021 433.083Z" fill="#F49F3B"/>
<path d="M140.256 430.489C139.543 426.851 139.921 421.612 133.288 424.889C128.038 427.411 122.963 430.175 116.966 433.44C113.731 422.788 124.831 422.113 125.838 415.525C129.522 412.177 134.023 410.397 139.867 410.906C141.271 414.168 144.577 416.058 147.191 418.325C147.044 423.438 147.651 429.146 140.256 430.489Z" fill="#FCA847"/>
<path d="M156.951 312.181C151.946 314.932 147.113 317.92 142.108 320.672C140.798 318.418 139.431 316.526 136.359 316.233C126.861 321.124 119.242 328.617 107.751 330.309C102.858 329.695 98.0815 333.643 93.0153 328.829C90.964 323.348 94.4898 320.749 98.4712 319.221C118.265 310.982 139.538 305.234 158.876 295.924C160.468 295.048 162.858 295.717 165.021 296.511C169.288 297.138 166.957 300.072 168.096 302.089C164.457 305.411 157.346 305.686 156.951 312.181Z" fill="#EB9630"/>
<path d="M133.061 280.033C143.58 279.581 154.327 279.004 165.017 278.789C164.62 280.003 164.394 281.454 163.997 282.667C161.544 285.007 161.152 288.872 157.954 290.624C148.581 291.777 143.339 299.959 133.334 299.798C130.703 299.248 131.83 291.992 126.351 296.321C121.329 300.4 114.415 301.865 107.613 302.604C103.783 303.043 99.6127 304.332 97.3703 298.59C99.9896 293.836 103.757 291.109 109.989 291.345C117.526 287.216 128.276 287.965 133.061 280.033Z" fill="#F79F37"/>
<path d="M156.746 288.678C158.767 286.569 160.085 283.495 163.742 283.191C163.637 285.269 163.709 287.588 163.836 289.54C163.437 290.768 162.455 291.638 161.297 292.268C158.798 291.942 156.993 291.239 156.746 288.678Z" fill="#FAB96B"/>
<path d="M161.029 290.587C161.955 290.083 162.825 289.947 163.752 289.443C164.454 290.409 164.75 291.259 165.276 291.983C164.35 292.487 163.248 292.749 162.322 293.253C161.739 292.896 161.156 292.539 160.573 292.182C160.861 291.689 161.148 291.195 161.029 290.587Z" fill="#F8B15C"/>
<path d="M164.864 295.7C146.642 306.788 125.117 312.836 104.767 320.522C100.37 322.306 93.0535 321.782 95.8393 330.055C85.2307 337.247 72.1011 340.929 60.316 346.483C44.5274 353.931 29.5792 362.548 13.7905 369.996C6.96907 372.797 0.483677 376.067 -7.67774 375.684C-9.47809 375.374 -10.9953 374.579 -11.9461 372.815C-13.7051 360.701 -0.97838 359.533 4.39265 352.955C9.97553 350.185 14.4925 346.371 19.9073 343.368C28.14 339.457 37.6597 337.777 45.1097 332.336C48.3259 330.225 52.2143 329.051 56.4919 329.296C76.0355 326.639 92.1694 317.036 109.869 310.493C123.622 305.483 138.999 303.173 150.515 294.168C153.788 291.698 158.743 291.569 163.467 292.876C163.746 293.703 164.192 294.764 164.864 295.7Z" fill="#FCA53D"/>
<path d="M86.4192 467.069C75.5164 470.433 72.3922 481.058 64.9529 487.463C60.7509 487.798 56.5489 488.132 52.5172 488.703C48.2585 486.76 45.1352 489.469 41.5578 489.789C36.7311 490.138 33.6648 488.528 35.312 483.333C53.257 469.495 74.0977 459.67 95.5628 451.15C100.673 451.634 106.92 451.494 107.941 458.188C108.679 464.048 103.625 465.841 98.4007 466.079C94.0851 465.816 90.4508 467.817 86.4192 467.069Z" fill="#ED9A3A"/>
<path d="M36.5335 488.063C42.4821 491.437 46.5162 480.27 53.1603 488.569C42.1384 490.962 36.9039 501.792 24.5634 501.922C24.1552 497.833 30.2114 497.831 29.8032 493.742C29.6234 489.529 30.9313 486.49 36.5335 488.063Z" fill="#E59334"/>
<path d="M36.0979 487.368C33.9559 489.212 31.5888 491.181 29.4468 493.024C12.8099 497.051 0.633335 507.738 -13.8282 514.799C-20.8352 512.492 -24.9367 525.219 -33.2002 515.449C-28.9557 508.192 -20.7985 504.637 -14.9324 498.764C11.1853 484.243 36.6915 468.43 63.1439 454.376C70.793 451.429 78.1652 447.657 87.0374 447.294C90.8528 447.785 94.1022 449.243 95.2614 453.495C75.7827 464.978 53.0666 472.384 36.0979 487.368Z" fill="#FDAC48"/>
<path d="M101.522 178.609C101.698 181.495 99.8735 182.496 97.6494 183.384C92.8753 195.281 79.4114 197.365 70.0632 203.818C65.4434 205.358 60.7107 207.623 55.3959 202.918C54.6402 194.387 63.0826 192.406 67.2398 187.144C75.9038 181.066 84.3398 175.113 95.9793 174.029C97.8081 175.677 99.6933 176.962 101.522 178.609Z" fill="#F79622"/>
<path d="M95.4597 173.502C86.3184 178.866 77.4042 184.104 68.4331 189.704C63.3239 186.581 65.0276 183.664 66.7881 180.386C74.7937 176.967 83.1967 173.659 90.8617 169.768C94.7226 167.642 96.2552 169.766 98.1283 172.362C97.2198 172.863 96.1411 173.127 95.4597 173.502Z" fill="#EC8B17"/>
<path d="M43.0446 151.175C47.821 154.23 52.462 151.361 57.0607 152.847C58.3562 162.137 48.415 159.904 44.0641 163.614C40.1716 167.074 32.766 167.454 32.733 174.47C37.9117 177.639 41.1725 174.191 45.3035 173.267C48.4891 181.191 39.9887 180.503 36.9571 183.826C21.0649 187.51 9.20992 196.32 -2.52815 205.733C-4.47436 207.463 -3.20658 208.769 -2.85578 210.577C-4.7742 220.29 -12.5637 225.879 -17.8784 233.115C-19.3662 234.594 -21.5463 235.119 -24.1333 234.199C-27.4735 231.359 -29.326 227.039 -27.7259 224.832C-22.9258 218.211 -31.2392 221.753 -31.9923 219.832C-34.074 215.637 -30.6308 215.089 -28.3384 213.837C-39.0003 218.995 -46.1444 228.564 -58.191 231.813C-62.5558 231.532 -65.0958 227.588 -68.5483 225.476C-69.713 220.78 -66.5599 219.391 -63.1775 217.876C-59.5658 216.236 -63.0698 215.818 -64.2206 215.113C-66.8215 210.203 -62.873 206.379 -64.44 201.57C-61.8854 193.176 -54.0305 189.884 -46.751 186.24C-36.0751 185.073 -34.6853 171.983 -25.7826 172.784C-20.9639 171.485 -24.4118 170.702 -23.2002 172.373C-22.854 172.85 -23.2563 172.737 -23.944 173.113C-26.7557 173.649 -29.5066 175.152 -32.159 171.936C-32.9961 162.396 -23.8034 164.038 -18.1285 161.271C-11.5698 165.019 -9.46432 159.536 -5.96959 157.294C-3.90644 156.166 -2.18954 154.562 0.219782 153.912C6.76004 152.338 13.9134 145.43 20.3176 154.261C27.2411 163.808 13.5713 162.613 11.2928 167.856C3.84483 172.592 -5.62406 174.1 -12.8989 179.075C-4.7071 173.599 6.60031 172.42 14.1559 165.626C23.7278 160.729 29.5479 150.218 43.0446 151.175Z" fill="#F6941D"/>
<path d="M67.5921 180.509C68.1716 183.513 68.751 186.517 69.2742 189.884C66.7136 195.604 59.9666 197.306 55.7997 201.248C52.0996 208.921 43.9782 210.047 36.0289 211.411C30.597 212.724 30.1173 203.688 24.4567 205.127C23.3075 203.099 23.7613 201.522 24.8445 199.932C32.6681 193.988 46.4099 198.419 52.4518 189.132C57.4798 186.379 60.9578 181.485 67.5921 180.509Z" fill="#F28F19"/>
<path d="M52.5806 188.589C49.7522 201.439 36.4021 198.441 26.388 200.93C18.8298 201.078 14.1573 209.618 4.86771 204.73C8.55823 193.071 19.5435 189.718 30.8736 186.841C34.0228 186.78 37.232 187.682 40.0435 189.8C45.2056 192.958 48.5165 189.152 52.5806 188.589Z" fill="#F6941E"/>
<path d="M39.2981 189.022C37.0856 189.912 34.7599 190.205 32.3787 188.222C29.0335 185.783 31.4167 183.81 32.1551 181.756C36.467 179.38 43.1594 180.305 44.3537 174.045C53.0324 172.887 57.4608 164.516 69.9385 165.547C58.817 174.312 48.9441 181.73 39.2981 189.022Z" fill="#ED8B16"/>
<path d="M31.5271 174.408C28.4814 175.44 25.7147 177.301 20.1404 176.133C27.094 168.677 34.6018 164.188 43.0085 160.512C47.6346 158.603 54.1694 158.912 55.5405 152.912C58.5821 153.191 59.9284 155.065 61.2173 157.299C49.7115 161.055 41.1242 168.434 31.5271 174.408Z" fill="#F18F1A"/>
<path d="M41.3827 149.896C32.1776 155.266 23.2013 160.511 14.1687 166.119C12.5641 165.668 11.0756 165.818 9.86852 164.151C10.0936 162.699 9.57272 160.657 10.4876 160.156C13.2322 158.654 21.0267 161.036 17.057 154.234C13.4321 147.908 9.09368 152.941 5.43058 153.616C-1.72319 155.204 -6.98014 159.411 -12.1209 164.219C-16.2905 168.163 -17.9024 165.056 -18.2581 160.597C-15.1411 148.587 -0.713831 147.339 6.02074 139C13.6356 138.489 20.6205 137.99 26.0463 132.694C30.6733 128.5 37.6019 128.364 44.7701 132.087C43.641 138.023 37.1243 142.254 41.3827 149.896Z" fill="#F3911B"/>
<path d="M94.5497 453.769C92.4577 452.221 90.7715 450.789 88.6795 449.241C87.9168 447.305 88.1965 445.474 89.2879 443.873C90.2673 443.004 91.0159 442.26 92.3452 441.873C94.1362 441.234 96.2212 441.442 98.1942 442.383C111.921 443.979 120.848 435.426 132.994 433.517C140.347 444.962 135.695 451.859 125.586 455.682C117.96 458.49 114.973 462.802 120.108 470.752C113.441 468.673 110.572 473.592 106.242 475.613C98.5387 474.768 92.9972 466.703 84.7765 466.476C91.4789 464.171 98.4121 461.741 105.345 459.311C102.651 453.389 98.2019 454.804 94.5497 453.769Z" fill="#F8A544"/>
<path d="M121.056 472.43C121.75 472.053 122.851 471.79 123.545 471.413C123.791 473.971 122.922 474.108 121.056 472.43Z" fill="#FBBD74"/>
<path d="M104.692 328.335C115.636 324.607 126.41 320.644 137.354 316.916C127.765 329.118 113.7 336.872 101.051 346.151C100.597 347.719 99.9721 349.051 98.7809 350.037C97.0791 351.634 94.8675 352.524 92.6559 353.414C89.1402 354.693 85.5675 356.333 81.8818 357.377C76.4952 358.7 70.3693 363.395 65.328 357.282C61.3631 352.222 67.5451 348.485 70.4391 344.584C80.4224 336.445 94.4827 335.281 104.692 328.335Z" fill="#FCA740"/>
<path d="M98.6367 347.702C99.5602 347.2 100.428 347.063 101.351 346.561C104.933 345.283 108.571 343.639 112.503 342.842C123.025 340.473 124.383 345.443 121.354 352.8C115.75 354.842 110.202 356.519 104.598 358.561C99.9595 357.056 106.585 351.1 99.6933 350.485C98.5319 349.774 98.238 348.927 98.6367 347.702Z" fill="#E68F29"/>
<path d="M6.93168 138.288C6.77526 144.683 3.6389 148.725 -2.6496 150.177C-9.16661 151.753 -11.9556 157.598 -17.5554 160C-22.5824 162.754 -27.4373 165.745 -32.4643 168.498C-39.4131 180.937 -50.9008 184.904 -63.2119 179.36C-60.7298 164.719 -44.2557 164.994 -35.4663 156.86C-33.4693 154.77 -30.5552 153.506 -29.469 153.243C-26.1573 150.765 -29.9917 149.877 -28.0447 150.803C-27.4719 151.153 -27.7568 151.641 -28.4423 152.017C-37.1848 155.808 -41.5638 166.508 -54.4414 163.267C-52.2442 149.114 -37.379 146.285 -29.5068 137.325C-28.7649 136.587 -27.9636 136.812 -26.7616 137.15C-15.543 140.303 -7.02262 139.289 1.37243 133.695C3.03458 135.109 4.86888 136.761 6.93168 138.288Z" fill="#F7941E"/>
<path d="M117.332 379.965C115.292 382.406 116.755 387.516 112.058 388.466C100.558 398.432 85.4983 404.775 76.6533 417.549C77.5003 418.726 77.9514 419.791 77.78 420.872C77.3822 422.078 76.4191 422.939 75.456 423.799C69.1141 427.301 62.3762 430.693 56.373 434.666C47.8231 439.058 34.6425 437.46 30.8357 448.438C30.042 449.534 28.8524 450.52 27.7199 451.145C19.229 453.861 12.8832 459.995 3.60246 461.175C-1.70781 455.56 -7.26187 461.914 -12.3495 458.806C-14.9969 450.734 -7.80992 449.724 -3.61872 446.752C3.85768 441.309 11.6729 436.336 15.1942 427.159C17.8628 420.754 24.9946 418.789 29.8101 414.486C36.548 411.094 42.0431 406.416 48.7238 403.384C59.8185 399.888 69.5579 394.51 79.2974 389.132C87.9595 385.335 97.6381 382.949 105.792 378.447C109.19 376.571 113.493 374.194 117.332 379.965Z" fill="#FDA63F"/>
<path d="M139.217 409.741C136.205 414.37 131.599 415.912 125.399 414.367C119.031 416.548 112.663 418.729 106.237 421.272C102.944 431.671 93.6748 433.795 83.0402 434.029C78.4905 433.888 73.5427 433.637 71.152 429.006C68.6473 423.778 76.4962 425.407 77.0632 421.792C82.2342 412.673 93.0389 411.355 102.706 409.342C116.638 406.634 129.887 402.981 141.372 396.005C144.215 395.102 146.83 393.004 150.584 395.563C146.549 400.094 142.911 404.737 139.217 409.741Z" fill="#E48F2C"/>
<path d="M75.3345 418.026C73.5673 418.664 71.6287 419.066 68.5503 420.093C69.4545 414.298 72.9284 410.736 76.4043 408.497C85.6921 402.407 97.4366 399.274 103.41 389.041C104.548 387.092 108.54 386.888 111.737 389.108C101.93 390.516 107.704 400.262 103.833 405.036C98.1435 414.782 86.5101 415.867 75.3345 418.026Z" fill="#FEA942"/>
<path d="M116.148 379.187C106.763 375.035 105.069 384.593 98.2109 385.695C90.9526 386.684 84.3289 390.313 77.474 392.741C75.4484 381.571 87.1737 384.108 92.0235 379.792C93.5067 378.315 102.776 381.866 96.2417 374.162C97.1435 368.357 101.258 367.431 107.264 369.119C113.73 371.882 122.344 363.512 127.001 375.232C123.631 376.746 119.689 377.91 116.148 379.187Z" fill="#EF9832"/>
<path d="M75.6168 418.645C85.6875 415.052 96.4351 412.4 103.967 405.281C118.102 406.015 128.518 398.946 140.85 395.417C139.766 400.945 133.772 400.97 129.586 402.627C112.046 409.031 94.5646 415.076 77.0255 421.481C76.575 420.416 76.1245 419.35 75.6168 418.645Z" fill="#F39C36"/>
<path d="M129.124 374.622C125.698 365.027 135.695 365.736 139.824 363.125C146.33 358.543 152.727 352.051 163.624 354.89C159.89 357.611 156.156 360.332 152.591 363.288C143.716 365.897 135.575 369.085 129.124 374.622Z" fill="#ED9834"/>
<path d="M107.314 368.305C103.888 370.182 98.5121 369.808 97.7231 374.887C90.8822 383.946 77.3872 383.372 69.2262 390.167C62.1924 389.705 61.78 384.288 59.997 379.622C62.9991 367.023 78.6153 370.086 86.0316 362.704C89.458 360.827 93.0001 359.55 97.4085 362.114C102.505 365.629 106.038 360.374 110.844 361.724C110.966 364.977 106.563 365.065 107.314 368.305Z" fill="#FDA841"/>
<path d="M97.0042 361.905C93.4524 363.181 89.7279 364.219 85.9471 365.621C78.8788 361.163 78.4166 360.084 83.282 357.091C88.3764 353.973 94.9094 352.399 100.868 350.472C102.765 351.765 106.183 344.571 106.895 352.17C107.189 354.34 105.992 356.659 105.253 358.727C102.159 359.753 99.4671 360.892 97.0042 361.905Z" fill="#DE8720"/>
<path d="M68.3411 201.317C79.7333 197.708 89.8123 191.842 98.2938 184.207C98.7524 186.602 106.101 184.883 102.516 189.168C99.9554 192.228 96.3109 194.23 92.4951 195.994C81.4469 201.399 71.1401 207.39 69.047 220.782C65.3519 228.436 57.6043 230.044 48.7147 229.631C36.9084 219.901 44.9941 214.799 50.8568 209.263C55.6954 204.952 64.1874 206.575 68.3411 201.317Z" fill="#F18F19"/>
<path d="M120.383 249.441C124.162 252.017 127.428 255.206 128.866 259.397C127.561 263.763 123.619 264.927 119.849 266.329C100.016 268.896 83.9768 280.671 62.5362 280.137C57.6004 271.556 65.9477 271.629 70.0591 269.377C75.8257 265.886 84.3448 266.197 87.3024 259.266C90.3192 253.299 96.777 252.084 103.235 250.87C108.891 249.43 113.973 246.314 120.383 249.441Z" fill="#F9A138"/>
<path d="M103.387 254.185C98.6085 255.49 92.0639 253.47 89.7345 259.046C84.675 266.124 75.7427 267.399 67.2088 268.786C59.4674 263.789 65.6678 261.372 67.8855 259.161C73.7992 253.267 80.9655 248.666 87.5626 243.718C97.2325 239.063 103.315 229.441 116.516 230.115C117.484 231.896 118.452 233.677 119.421 235.457C119.427 246.028 106.341 245.952 103.387 254.185Z" fill="#F79520"/>
<path d="M115.606 229.206C106.635 234.806 98.7429 241.46 88.58 245.408C86.6492 248.449 84.3215 248.742 81.3131 245.452C80.3485 242.356 81.7682 239.925 83.5853 237.605C92.6703 228.645 103.628 222.281 116.8 218.985C118.958 218.457 121.569 216.359 123.556 218.233C125.713 220.343 123.329 222.316 121.455 223.677C119.524 225.4 117.537 227.483 115.606 229.206Z" fill="#ED8B15"/>
<path d="M116.638 218.571C107.93 227.655 93.9719 230.356 85.4916 239.314C81.8425 237.347 80.1868 234.617 81.1515 231.109C92.1435 226.066 98.109 210.547 116.638 218.571Z" fill="#F79620"/>
<path d="M81.8768 231.485C83.3201 234.358 84.8195 236.868 86.2628 239.741C84.949 241.458 83.6913 242.811 82.3775 244.528C77.2994 252.964 68.0773 257.007 59.5465 262.004C55.3632 263.292 51.6338 263.001 48.8078 258.22C46.8894 250.28 53.6483 247.25 57.1316 242.35C64.5819 240.274 73.8211 241.549 77.5812 233.5C78.0393 233.25 78.5535 232.636 79.0116 232.386C80.1006 232.123 81.0168 231.622 81.8768 231.485Z" fill="#F49B31"/>
<path d="M47.7339 228.975C55.2953 226.535 62.4513 223.98 69.838 221.299C72.207 221.016 75.6104 219.498 74.9389 223.888C74.3793 227.547 76.4124 229.459 78.8509 231.485C75.0694 238.24 67.7879 238.851 59.8077 238.5C55.7616 238.691 51.3663 238.401 47.4813 236.156C45.1548 233.398 42.6535 230.399 47.7339 228.975Z" fill="#F99721"/>
<path d="M118.28 264.016C121.796 262.737 125.539 261.333 129.056 260.053C132.288 259.26 134.898 257.162 138.809 259.948C133.022 265.114 127.178 270.641 121.391 275.807C110.787 276.052 106.924 288.722 94.5075 286.014C90.2039 276.527 98.5403 274.897 103.589 271.785C108.127 269.283 113.968 267.711 118.28 264.016Z" fill="#EA8D1D"/>
<path d="M103.091 254.519C101.012 242.394 114.721 242.838 119.163 235.76C120.932 235.122 122.702 234.483 128.01 232.568C124.197 239.633 119.863 243.335 119.645 248.761C113.937 250.564 108.628 252.479 103.091 254.519Z" fill="#F08F19"/>
<path d="M94.4038 286.065C104.653 284.779 108.742 271.902 121.871 276.355C118.563 281.49 110.95 283.328 109.652 290.356C106.915 294.514 102.395 296.654 97.3587 298.08C95.9935 301.487 93.132 302.388 89.2354 301.86C85.5077 300.242 83.4939 297.022 82.3389 293.664C81.9902 291.86 82.0427 290.169 82.669 288.828C85.9244 285.385 89.4722 284.108 94.4038 286.065Z" fill="#EC8B18"/>
<path d="M82.3927 430.328C93.3532 432.656 99.9296 426.73 107.197 421.758C109.383 423.891 112.027 425.774 109.054 428.731C105.109 432.552 101.682 437.089 98.083 441.387C96.3072 442.025 94.5315 442.663 92.5267 443.426C83.0526 439.62 77.5214 449.634 68.1639 446.429C64.7165 444.32 65.11 441.775 65.5596 438.866C67.3104 430.253 78.4519 435.478 82.3927 430.328Z" fill="#FCA742"/>
<path d="M104.675 327.713C95.8748 336.523 84.3955 341.597 72.2466 345.738C57.8738 357.319 41.6594 366.331 24.2731 373.709C19.1631 373.611 11.333 378.942 12.8473 366.998C28.0453 359.204 42.1811 350.367 58.3836 343.974C70.8733 338.991 80.7999 329.555 96.6319 330.551C98.272 328.007 100.917 326.863 104.675 327.713Z" fill="#EE972F"/>
<path d="M163.185 292.854C139.93 305.377 113.576 312.715 88.63 322.888C79.5792 326.576 69.5707 328.494 61.985 334.657C58.1922 337.739 57.5228 332.853 56.9058 330.238C57.1346 328.798 57.7588 327.467 58.9477 326.482C72.3656 314.797 93.5045 315.596 107.373 304.976C116.026 302.493 123.554 296.69 134.063 299.423C140.178 293.416 147.028 287.988 157.146 287.98C158.502 288.545 159.857 289.11 161.213 289.675C162.228 291.084 162.509 291.915 163.185 292.854Z" fill="#FDA842"/>
<path d="M134.363 299.512C125.251 302.827 115.966 305.905 106.854 309.22C99.6305 311.171 92.044 307.325 84.6953 306.013C84.224 302.275 85.711 300.796 89.7312 301.929C92.5971 301.028 95.2901 299.889 97.927 299.114C111.764 301.874 120.63 293.365 132.841 290.353C133.598 293.603 134.009 296.375 134.363 299.512Z" fill="#F49A30"/>
<path d="M13.7123 367.046C14.1512 375.166 18.6882 371.689 22.1993 370.777C26.5472 376.765 18.5318 375.452 16.7599 378.759C15.8401 379.26 19.245 380.413 18.0275 378.736C16.928 377.664 17.8478 377.162 19.1715 376.775C21.3589 376.251 23.6583 374.997 26.2612 377.255C25.6181 388.306 12.4703 386.113 7.48503 392.51C1.73639 395.645 -4.01224 398.78 -11.6238 397.581C-21.2336 387.441 -20.9033 383.917 -8.32394 374.717C-1.18979 372.164 6.34824 369.725 13.7123 367.046Z" fill="#F7A039"/>
<path d="M47.0842 333.505C41.5594 342.173 29.5589 341.452 20.9399 345.844C16.8707 339.781 23.6123 339.403 25.2641 336.839C17.2682 338.568 14.8295 347.534 6.72085 349.988C5.46385 350.013 4.03496 349.801 2.66246 349.227C1.11806 348.414 2.93635 343.437 -1.85793 346.065C-3.91262 347.191 -6.60122 345.679 -6.72212 342.428C-4.84744 337.088 0.578038 335.773 5.25952 333.871C12.6806 330.467 21.2486 329.088 27.8665 324.134C31.4038 321.532 35.4004 320.005 39.5689 318.716C44.4814 318.014 50.2452 314.523 54.2016 321.311C58.6737 328.812 47.1298 327.841 47.0842 333.505Z" fill="#F69F38"/>
<path d="M46.1448 333.404C44.7012 333.187 42.0009 335.663 42.1004 332.26C42.0879 329.589 45.6034 328.677 48.3101 327.537C50.5563 326.648 53.6612 324.286 50.9918 321.054C48.4966 318.061 45.566 320.663 42.7411 321.198C38.9704 316.892 44.0478 316.803 45.1927 314.84C43.2949 316.209 41.4531 317.213 39.6114 318.217C35.9278 320.224 32.1322 322.962 27.1482 318.313C33.3765 305.21 47.109 305.091 61.0157 305.212C65.0664 307.692 68.9553 312.603 73.9517 307.537C75.501 305.688 79.4273 306.227 82.4948 308.238C80.4167 320.418 66.3981 321.027 59.9146 328.913C58.9937 329.415 58.1288 329.552 57.0337 329.814C53.288 330.851 49.7164 332.127 46.1448 333.404Z" fill="#F19A32"/>
<path d="M7.48749 354.907C1.66874 360.087 -4.2064 365.629 -10.0252 370.808C-14.5217 379.576 -22.7988 384.444 -32.2797 387.648C-35.0227 387.824 -37.2526 387.387 -38.9723 385.011C-40.5285 378.895 -38.3662 374.392 -34.7746 370.102C-22.2744 362.257 -12.6414 350.01 4.84589 349.055C6.90671 350.58 8.05414 352.606 7.48749 354.907Z" fill="#E89129"/>
<path d="M-34.0254 386.955C-25.8479 381.83 -17.6703 376.706 -9.31831 371.821C-8.85087 372.907 -8.32747 373.627 -7.86003 374.713C-8.57459 382.14 -19.5307 386.097 -12.8382 396.193C-15.5083 405.355 -23.1755 408.526 -32.5875 409.296C-37.9336 402.824 -38.5754 401.498 -30.6283 396.499C-21.473 390.507 -36.3597 393.924 -33.196 391.195C-34.0124 389.629 -34.4238 388.177 -34.0254 386.955Z" fill="#FBA33C"/>
<path d="M6.43913 354.571C5.46197 352.78 4.48479 350.99 3.50764 349.2C12.8292 347.086 13.8829 333.554 26.6493 336.197C29.1237 341.817 20.5972 341.504 21.5246 346.31C16.3239 348.826 12.6733 353.482 6.43913 354.571Z" fill="#F09A32"/>
<path d="M-14.3171 501.329C-14.3601 497.755 -15.1372 494.915 -19.9836 496.95C-22.8812 489.399 -16.1828 488.626 -12.2913 486.14C6.26434 474.208 26.4992 464.616 47.2378 455.726C50.9566 454.316 54.6753 452.907 59.176 453.027C61.8198 453.195 64.406 453.723 65.1255 456.922C38.1776 471.22 13.2448 488.325 -14.3171 501.329Z" fill="#DB8521"/>
<path d="M64.2648 456.826C62.8859 456.247 61.507 455.669 59.9552 454.852C57.2319 446.684 64.0053 447.643 68.9934 446.582C75.931 445.121 82.1726 441.376 90.273 444.607C89.8753 445.823 89.4777 447.04 89.0801 448.256C80.8847 451.071 72.4602 454.011 64.2648 456.826Z" fill="#E38E2A"/>
<path d="M47.8356 228.029C46.0667 229.994 46.759 232.272 48.0806 234.538C47.5109 235.514 46.5403 236.378 45.053 236.528C41.1046 236.365 37.0966 235.238 32.9196 235.2C22.1045 234.811 12.7268 237.289 5.99249 244.298C4.84968 244.923 3.53468 245.311 2.04739 245.461C-0.413749 245.148 -2.59003 244.347 -4.19653 242.569C-5.05774 241.38 -5.46178 239.941 -5.40875 238.251C-3.88155 231.104 2.34592 227.362 7.25507 222.681C14.3935 217.111 21.416 210.941 32.3437 210.604C40.5189 207.788 48.9227 204.848 57.0978 202.032C62.2552 205.187 65.5082 201.745 69.6256 200.819C66.7237 207.39 58.6016 208.516 53.5765 212.596C47.6935 216.814 44.9573 220.969 47.8356 228.029Z" fill="#F7951F"/>
<path d="M6.76894 205.148C11.6797 203.12 16.9906 201.206 21.7294 198.941C24.6978 197.314 26.0735 199.214 27.6211 201.353C27.2236 202.566 26.8262 203.779 26.4287 204.992C22.4481 214.473 10.907 216.152 4.23437 222.795C-2.95978 226.073 -5.108 237.205 -17.0605 233.469C-16.3388 223.451 -7.14591 219.409 -2.41834 211.841C-0.997515 208.077 -0.0361223 203.236 6.76894 205.148Z" fill="#FA9721"/>
<path d="M6.08841 204.423C2.86277 206.534 -0.193766 208.88 -3.41941 210.991C-5.78963 209.017 -8.16479 209.673 -12.0645 209.529C2.48194 198.533 14.2055 185.814 32.8085 181.773C32.8608 184.043 32.9703 185.953 33.0226 188.223C21.2067 189.827 12.9425 196.365 6.08841 204.423Z" fill="#F18E18"/>
<path d="M10.7151 164.852C12.0738 165.418 13.4324 165.985 14.9608 166.787C7.30513 175.946 -6.11729 175.784 -16.7697 180.345C-10.1904 171.45 0.403474 168.567 10.7151 164.852Z" fill="#F08D17"/>
<path d="M1.52496 220.231C8.73095 213.953 16.6169 208.618 25.8629 205.17C28.0183 204.641 30.1737 204.112 32.3291 203.583C32.2145 205.623 31.703 207.552 31.5885 209.592C24.8925 216.577 14.9664 219.082 7.2504 224.653C2.31508 227.043 1.74967 224.06 1.52496 220.231Z" fill="#EC8A13"/>
<path d="M90.2143 444.399C80.0993 447.615 66.3667 444.513 59.9287 455.011C56.386 456.288 52.6147 457.689 48.8999 458.728C45.8427 447.455 50.9817 443.976 68.0849 445.564C73.856 443.399 80.0275 441.346 85.4544 438.706C91.1097 435.94 91.122 441.245 93.0717 443.498C92.2142 443.635 91.1282 443.898 90.2143 444.399Z" fill="#F49F3B"/>
<path d="M5.9134 390.459C8.52873 381.783 22.3268 385.998 24.9421 377.321C35.5357 367.855 49.0086 362.388 64.0612 359.992C75.096 358.172 85.2839 355.176 94.4576 349.453C96.2124 348.812 98.1365 348.407 99.8913 347.767C100.173 348.598 100.85 349.538 101.132 350.369C99.0288 357.119 91.1667 355.872 86.3534 358.859C82.9561 360.735 80.4077 362.471 86.5701 365.314C85.0911 370.733 79.7736 370.382 75.2458 371.567C70.0386 373.128 64.209 374.703 62.1077 380.137C51.6796 392.471 33.8561 394.095 20.9444 402.54C16.1331 404.211 11.7176 405.992 6.45522 406.596C3.117 406.796 -0.107079 406.276 -2.81905 403.828C-6.5375 393.39 4.37726 396.238 8.45595 392.671C8.96604 392.061 11.1147 392.847 10.325 391.31C9.75973 390.965 7.27036 391.025 5.9134 390.459Z" fill="#E69029"/>
<path d="M93.5976 348.792C92.5151 354.323 86.5146 354.346 82.3234 356.001C63.011 363.043 43.5291 369.849 24.4432 376.766C21.4421 377.435 18.8355 379.532 15.0438 378.665C15.6714 374.7 22.1235 375.744 21.6198 371.088C40.5345 365.253 53.5727 350.82 73.1084 346.287C71.3494 349.56 69.7599 353.069 67.0929 358.159C77.1738 354.568 85.499 351.617 93.5976 348.792Z" fill="#FBA43D"/>
<path d="M68.4849 445.098C62.5677 450.021 48.9488 445.517 49.5622 458.232C26.2775 467.916 4.60797 480.292 -17.0038 492.309C-18.3545 493.06 -19.0939 495.104 -20.3352 496.447C-35.4308 507.452 -53.0357 514.957 -71.4771 521.295C-75.0356 514.134 -68.5773 513.48 -64.9754 511.477C-52.8766 505.076 -42.0067 497.4 -29.908 490.998L-30.0174 490.406C-30.352 489.94 -30.7444 489.831 -31.3041 489.49C-32.0827 487.964 -31.8514 486.53 -30.8352 485.312C-12.5817 471.245 10.7483 463.821 29.2269 449.629C30.2947 449.361 30.9701 448.986 32.0379 448.719C36.6932 437.643 51.6049 441.755 59.4387 435.114C63.7161 432.735 66.3989 435.16 68.6831 438.786C68.5613 440.813 68.4394 442.839 68.4849 445.098Z" fill="#FCA640"/>
<path d="M18.1067 428.581C17.7439 442.582 4.22388 445.78 -4.49576 452.568C-6.87405 454.539 -11.002 454.52 -11.4043 458.356C-12.2571 461.128 -14.6904 462.143 -17.6313 462.454C-35.1035 461.92 -45.6409 473.656 -59.8424 478.545C-62.8427 480.531 -66.2937 481.451 -70.2523 481.667C-73.5318 481.507 -76.9805 481.112 -79.35 477.821C-79.4532 471.964 -74.4747 470.528 -70.2302 468.511C-58.1191 462.478 -48.208 453.388 -34.5736 449.47C-24.0516 446.943 -16.6882 439.589 -7.6894 434.946C0.0652972 430.334 7.14297 424.781 18.1067 428.581Z" fill="#F9A23B"/>
<path d="M-18.7664 462.083C-15.9329 461.178 -13.2691 460.038 -10.6623 459.259C-6.01874 461.305 -1.98446 448.877 3.15948 460.85C-3.02556 471.174 -14.9828 474.807 -24.959 480.31C-29.0401 482.561 -33.6305 484.106 -36.4665 487.645C-43.4381 491.162 -49.9006 495.385 -57.721 497.724C-61.8566 497.701 -64.4608 495.846 -65.7034 491.923C-65.5818 483.299 -57.9882 481.085 -52.3757 477.002C-40.5882 473.133 -32.7034 462.53 -18.7664 462.083Z" fill="#FDAA43"/>
<path d="M17.2131 427.782C-2.69242 431.836 -15.6301 446.873 -34.3459 452.578C-38.0266 444.395 -27.9897 443.804 -27.3057 438.156C-23.216 426.678 -11.76 423.658 -1.55068 419.348C1.96575 418.069 5.8221 417.261 8.71558 414.678C9.85005 414.052 10.8146 413.191 12.119 412.802C16.543 411.022 20.797 409.007 26.2399 409.959C27.6005 410.527 28.9041 411.456 29.0733 413.009C28.8456 414.452 26.6897 416.3 30.7721 416.685C28.9538 422.957 19.6552 421.495 17.2131 427.782Z" fill="#EC952E"/>
<path d="M-38.4543 486.023C-24.6297 477.667 -10.6384 469.545 2.96151 461.314C11.2765 456.681 18.9248 451.115 28.6817 448.935C20.6549 461.877 5.62057 466.347 -6.689 474.184C-14.2212 479.033 -21.5361 485.064 -31.6264 486.778C-33.9393 489.696 -36.1285 490.59 -38.4543 486.023Z" fill="#F19A34"/>
<path d="M67.1161 389.849C75.5655 382.226 87.58 379.55 98.3492 375.585C101.749 375.027 105.035 375.189 102.085 379.45C99.6456 383.1 94.4895 382.981 90.6917 384.746C86.2135 386.887 79.4714 386.326 78.1061 392.346C69.5451 398.055 59.9086 402.712 49.7069 405.705C46.5929 403.143 47.0488 400.258 47.9012 397.484C48.6396 395.431 49.9444 393.724 51.5886 392.488C56.011 389.39 60.6589 387.485 67.1161 389.849Z" fill="#EB952E"/>
<path d="M67.2716 438.374C64.503 437.211 61.5606 435.81 58.792 434.647C56.382 436.63 55.2836 435.559 54.6391 432.903C61.1797 427.331 69.2839 423.912 78.0831 421.45C79.1927 425.188 72.2824 424.949 74.6586 428.664C76.5136 431.661 80.0781 430.385 82.6674 429.975C80.7393 437.041 70.5896 433.223 67.2716 438.374Z" fill="#F39C36"/>
<path d="M55.1719 432.677C56.5446 433.251 57.9173 433.826 59.29 434.401C56.5047 441.568 48.5615 441.608 42.2784 443.06C37.9375 444.112 34.2843 446.114 30.6875 447.754C28.8416 439.476 34.437 437.073 41.0075 436.458C46.149 435.631 50.3743 433.979 55.1719 432.677Z" fill="#F49F3B"/>
<path d="M50.0196 399.375C50.0815 401.664 50.1998 403.589 50.2617 405.878C42.9524 408.556 38.1657 415.161 29.8247 416.414C27.6541 416.94 25.4836 417.466 22.8564 418.242C23.0201 414.503 27.6486 414.289 26.727 410.813C31.9112 402.995 37.7832 396.127 50.0196 399.375Z" fill="#E69029"/>
<path d="M67.3736 389.398C61.8581 391.44 56.5702 393.357 51.0547 395.399C46.5075 400.542 38.0904 399.886 33.2018 404.557C27.7997 405.876 21.7172 411.533 18.2431 400.562C32.3433 392.808 47.297 386.236 63.0477 381.207C67.8254 382.543 64.6427 386.936 67.3736 389.398Z" fill="#FEA942"/>
<path d="M66.1061 267.896C74.2187 265.073 82.5583 262.125 90.6709 259.302C93.5035 266.308 87.491 266.326 83.6329 268.453C76.5974 272.329 66.218 271.129 62.2435 279.251C62.1297 279.972 61.8458 280.458 61.732 281.18C47.3204 289.781 33.8153 300.518 13.9066 299.297C12.3218 292.262 17.9393 288.178 19.4737 282.39C24.9217 276.752 33.2031 276.801 40.6342 275.672C45.7964 274.475 50.4486 272.57 54.4774 269.361C57.9386 267.125 61.4559 265.845 66.1061 267.896Z" fill="#FEA941"/>
<path d="M94.0809 285.248C90.545 286.525 86.7811 287.927 83.2453 289.204C77.6485 286.311 72.4577 287.501 67.0367 287.493C60.9881 287.498 59.785 284.514 62.3457 280.127C80.6525 273.729 98.501 266.257 118.697 263.793C114.093 274.602 98.5139 274.202 94.0809 285.248Z" fill="#F19A33"/>
<path d="M65.4828 267.473C61.9688 268.752 58.228 270.157 54.714 271.437C52.2755 273.769 49.2696 277.073 45.6476 272.487C43.2709 269.19 45.7663 266.497 48.7711 264.51C51.7758 262.524 56.8735 264.321 58.5202 260.45C65.7216 254.174 73.602 248.84 82.8406 245.39C85.2185 247.371 87.5418 247.077 89.7523 246.187C83.3985 254.958 71.6668 258.466 65.4828 267.473Z" fill="#EF8E1A"/>
<path d="M58.9767 259.982C58.363 265.313 52.3936 264.58 49.4759 267.173C48.0452 268.288 46.5021 270.131 48.3435 271.788C50.7598 273.798 52.9902 271.579 55.3416 271.293C53.9844 277.363 47.2111 276.403 42.8584 278.783C30.4485 273.578 23.4246 283.745 12.5795 283.346C7.73817 276.668 14.2175 275.457 17.308 273.102C24.0035 267.777 32.3113 264.235 37.9131 257.843C41.4057 255.601 45.1878 254.199 50.1284 256.161C52.2638 259.988 55.4236 261.258 58.9767 259.982Z" fill="#F89928"/>
<path d="M49.8259 255.507C46.3119 256.786 42.5711 258.191 38.8874 259.236C29.2511 263.892 22.9519 274.937 8.62063 271.321C7.43231 269.672 6.81021 268.369 6.92539 266.331C10.5012 259.421 19.2268 259.217 25.1793 255.605C33.683 250.256 42.1297 245.268 51.4821 241.097C54.0322 240.678 56.5252 240.62 59.017 241.879C60.0295 249.879 52.2098 250.9 49.8259 255.507Z" fill="#EF972E"/>
<path d="M58.2154 242.545C56.436 243.183 54.6566 243.821 52.6478 244.585C48.2534 237.645 56.5943 239.428 57.961 236.013C65.2009 235.395 72.6142 235.016 78.753 231.998C76.2129 244.392 73.4596 245.896 58.2154 242.545Z" fill="#FBA33A"/>
<path d="M58.4554 235.64C59.0214 239.943 52.8362 239.724 53.1752 244.152C45.4558 249.723 35.5244 252.227 28.826 259.213C17.8176 258.026 11.0619 266.692 0.45024 266.933C-1.25181 265.893 -2.10261 264.714 -2.4425 262.923C-2.21459 260.16 -1.47622 258.106 0.226699 256.508C14.9266 248.74 27.9248 238.613 46.0844 236.521C47.1626 236.257 47.8437 235.882 48.922 235.617C52.0431 235.546 55.3343 235.711 58.4554 235.64Z" fill="#FEAA41"/>
<path d="M63.2613 279.944C65.5486 291.047 71.1554 283.313 74.0281 282.413C80.6358 280.475 84.8352 280.52 84.5811 289.004C85.0456 290.086 85.5661 290.803 86.0306 291.885C83.7153 302.829 77.1795 308.4 64.2849 306.091C51.641 308.986 36.68 307.805 28.4967 318.615C27.4661 319.845 26.1445 320.232 24.4146 319.174C18.3818 306.443 33.1185 309.082 36.5467 303.205C42.3937 298.01 50.0933 295.811 58.14 294.089C59.5737 292.973 55.9403 290.616 57.5581 292.404C58.0786 293.121 58.0225 293.486 57.3337 293.862C46.1287 296.973 35.9088 301.884 24.5864 304.392C19.989 305.566 15.5704 308.312 10.0336 304.657C9.15553 300.797 11.0485 299.43 14.9061 300.329C31.1011 293.492 47.0664 286.781 63.2613 279.944Z" fill="#F69F38"/>
<path d="M63.9972 307.049C73.8506 305.651 79.6771 299.138 85.6762 292.862C87.1175 295.733 88.7876 298.479 90.2289 301.35C87.9964 302.238 86.1654 303.24 86.1732 305.897C85.2054 308.089 83.6033 308.966 80.8489 307.811C74.8942 309.738 68.7669 311.426 65.0565 316.449C62.1217 312.399 65.0369 309.807 63.9972 307.049Z" fill="#E28A22"/>
<path d="M81.2237 308.51C82.9887 307.871 84.7538 307.232 86.5188 306.593C93.292 301.88 100.418 308.219 107.367 309.033C105.095 315.572 97.1219 315.983 91.9967 316.814C79.8101 318.878 70.4756 325.328 59.6578 329.286C63.692 319.463 77.1895 318.333 81.2237 308.51Z" fill="#FCA53D"/>
<path d="M6.84476 390.219C12.1566 389.251 16.2339 384.371 23.794 388.725C16.7159 396.906 2.77021 393.785 -2.44644 403.235C-2.56093 403.955 -2.90161 404.799 -3.18507 405.284C-18.6819 414.51 -31.4752 427.493 -50.5203 431.787C-52.0383 428.359 -52.0382 428.359 -47.0044 425.247C-56.6086 425.962 -60.8143 438.135 -70.2275 428.568C-62.3508 416.663 -49.0671 412.272 -35.0504 408.461C-25.8958 406.681 -19.7825 400.675 -12.1486 396.782C-5.81749 394.594 0.513634 392.407 6.84476 390.219Z" fill="#DF8821"/>
<path d="M7.50595 337.232C3.20878 339.608 -3.28411 338.933 -4.65271 344.941C-9.36234 355.094 -23.081 353.164 -30.3814 360.155C-37.2236 364.268 -44.6298 368.036 -50.2898 373.791C-58.1484 377.81 -64.9936 383.236 -72.3454 387.959C-75.7923 388.881 -78.8985 388.958 -81.6582 385.561C-83.5705 382.024 -83.1123 379.145 -81.4117 376.236C-64.4376 361.597 -45.2105 349.65 -23.5616 340.63C-14.744 337.066 -8.23086 328.541 3.7357 331.112C6.83896 332.349 7.96408 334.353 7.50595 337.232Z" fill="#E68E26"/>
<path d="M-33.1762 358.481C-26.7625 349.345 -13.8322 350.126 -4.7553 345.123C-1.91911 344.219 1.48469 342.343 4.09323 342.882C6.0779 343.436 3.12722 346.38 3.57961 348.766C-9.46887 356.617 -22.5173 364.467 -35.7927 372.442C-38.4589 373.582 -39.9898 372.778 -40.1583 369.906C-36.807 360.482 -25.0676 360.93 -19.1092 354.681C-22.6838 357.64 -26.3722 361.32 -33.1762 358.481Z" fill="#FCA63E"/>
<path d="M6.47913 337.152C5.48925 335.347 4.49935 333.542 3.50948 331.737C3.34669 321.779 11.8867 321.144 19.0946 319.561C23.9995 319.233 26.6141 322.832 29.9757 325.689C25.1089 334.034 14.0789 333.011 6.47913 337.152Z" fill="#EE9730"/>
<path d="M29.4088 325.775C24.5013 327.803 23.9246 324.803 23.6325 321.316C24.03 320.103 24.9427 319.603 26.3144 320.177C27.2272 319.677 28.0836 319.539 29.1681 319.276C35.5602 317.098 42.1804 314.794 49.257 312.241C49.267 317.54 42.3547 316.357 43.1057 320.918C38.4828 322.458 33.8599 323.998 29.4088 325.775Z" fill="#E79029"/>
<path d="M-71.5386 274.254C-62.5861 270.917 -53.4658 267.814 -44.5133 264.478C-32.3263 253.788 -18.8554 245.327 -1.35941 242.477C-0.0124056 243.036 1.33461 243.596 2.84932 244.389C6.02513 251.451 -0.442771 252.1 -3.99663 255.054C-14.7106 262.965 -26.2631 269.706 -39.6604 273.877C-52.1561 277.547 -63.5356 283.212 -73.348 290.621C-76.3934 292.966 -79.2134 295.186 -82.4265 297.297C-95.326 303.479 -105.317 313.276 -117.881 319.925C-120.753 321.193 -123.736 321.869 -127.273 320.892C-137.001 307.335 -124.002 304.366 -118.241 297.899C-116.606 296.664 -114.745 295.304 -112.942 294.302C-108.434 291.799 -104.822 288.486 -99.9793 286.451C-90.1828 282.972 -83.1221 274.803 -71.5386 274.254Z" fill="#FDA942"/>
<path d="M-7.23019 251.652C-3.82455 249.776 1.51 250.134 2.30602 245.08C3.15734 244.941 4.06547 244.441 4.91679 244.301C14.3389 239.771 24.7253 237.017 34.9983 233.666C38.9713 232.137 42.5463 233.134 46.0072 236.173C31.3628 244.899 16.3779 253.153 -0.308732 259.048C-4.96213 258.314 -8.02622 256.705 -7.23019 251.652Z" fill="#ED952D"/>
<path d="M-4.07811 239.255C-7.1851 240.281 -10.0003 242.151 -13.9884 239.311C-14.9757 237.509 -15.9631 235.707 -17.1244 233.665C-7.15807 233.245 -6.68858 221.956 2.17833 220.464C3.51351 222.745 4.90467 224.661 8.01747 224.969C3.89029 229.895 -0.00696372 234.695 -4.07811 239.255Z" fill="#EE8B15"/>
<path d="M34.6728 233.133C27.15 241.236 16.9919 244.816 4.42679 243.748C10.1732 232.309 21.6489 230.99 34.6728 233.133Z" fill="#FAA239"/>
<path d="M18.5562 400.219C23.5245 407.51 28.0463 402.706 32.5827 401.896C35.7111 408.857 28.5807 407.416 25.5987 409.045C20.955 411.915 14.115 411.315 10.8572 416.096C9.93972 416.597 9.07831 416.734 7.98752 416.996C-3.05703 413.691 2.902 409.102 4.78342 405.074C9.25882 403.296 13.9075 401.758 18.5562 400.219Z" fill="#FBA43D"/>
<path d="M5.05274 404.594C6.77573 408.748 2.2401 413.248 8.34721 416.718C7.91474 422.383 3.03858 419.262 -0.00221495 419.556C-6.71888 421.507 -6.63202 416.709 -6.94699 413.147C-7.38283 408.971 -3.82785 406.702 -2.03503 403.352C0.193635 404.178 2.53464 404.264 5.05274 404.594Z" fill="#F49D36"/>
<path d="M-1.34541 403.983C1.56246 409.328 -9.59184 414.135 0.54643 419.805C-7.076 427.299 -20.5109 428.069 -25.0566 438.502L-25.2276 438.265C-32.1814 428.201 -36.7871 435.029 -42.0223 437.906C-48.1114 440.921 -53.8584 444.41 -62.0581 442.303C-65.9374 432.533 -57.6822 432.956 -51.8197 431.388C-38.216 428.211 -30.5969 416.75 -18.3044 411.318C-12.5563 409.152 -7.15019 406.511 -1.34541 403.983Z" fill="#F09932"/>
<path d="M10.6232 416.273C11.7128 410.762 17.3936 411.208 21.3953 409.314C25.2291 407.187 31.0778 407.867 32.1675 402.356C38.477 400.163 44.7866 397.97 51.0962 395.777C50.6978 396.98 50.2995 398.182 49.9012 399.384C40.6121 400.941 35.6886 408.579 26.9033 410.837C21.4958 412.529 16.2562 414.456 10.6232 416.273Z" fill="#F19A34"/>
<path d="M15.7951 299.172C13.5732 300.061 11.7505 301.062 11.7538 303.708C4.52763 313.963 -9.03645 315.453 -19.6885 320.97C-22.4226 322.471 -26.4689 323.037 -29.4374 319.371C-32.9764 315.356 -30.9857 311.947 -28.3098 309.485C-21.5344 303.448 -12.0763 300.241 -5.30091 294.205C-4.10514 293.217 -2.73816 292.467 -1.37111 291.716C5.9215 289.037 12.2429 284.573 20.7928 284.513C25.875 291.983 16.6434 293.742 15.7951 299.172Z" fill="#FEAC46"/>
<path d="M19.8073 283.848C14.0514 288.662 7.26604 292.053 -0.605389 294.383C-3.87207 285.903 2.05972 283.975 7.99153 282.046C9.64661 282.132 11.3017 282.218 12.8439 283.029C19.4599 280.725 26.0758 278.422 32.9198 275.993C36.912 274.466 40.5068 274.15 43.3109 278.908C34.7509 278.964 26.9924 280.57 19.8073 283.848Z" fill="#F79F37"/>
<path d="M12.3554 282.439C11.4447 282.939 10.5905 283.078 9.7363 283.216C-1.65982 277.57 4.08902 274.081 9.26802 270.244C21.2855 270.588 28.2243 260.823 39.4429 259.621C36.7762 270.016 24.8167 270.633 17.8174 276.793C16.0538 278.754 12.6938 278.946 12.3554 282.439Z" fill="#EA8A17"/>
<path d="M10.2465 270.501C9.57061 274.857 4.42983 278.336 10.7363 283.519C5.24772 285.196 0.848934 287.936 -0.280777 293.869C-1.19499 294.37 -2.0529 294.507 -2.96711 295.008C-8.96581 298.625 -14.4478 302.955 -21.5395 304.181C-26.5146 305.245 -32.3476 306.446 -36.5971 300.137C-35.5302 291.914 -27.5243 290.187 -22.0987 286.22C-16.4444 282.127 -10.2735 278.748 -5.88119 273.354C-1.48236 270.613 2.57205 267.397 8.75277 267.998C9.09723 268.473 9.55756 269.55 10.2465 270.501Z" fill="#ED962F"/>
<path d="M7.606 267.17C2.95224 269.074 0.737472 273.92 -4.76707 274.645C-8.1697 268.608 -5.16151 266.621 0.513184 266.132C7.21016 263.102 15.2115 262.321 21.1146 257.75C23.9526 255.528 26.5623 257.386 29.1719 259.245C22.1346 261.803 14.8703 264.486 7.606 267.17Z" fill="#FAA33B"/>
<path d="M1.84602 266.547C-0.0323996 269.234 -3.22428 270.985 -3.44627 275.082C-10.387 287.502 -25.6703 290.588 -36.0389 299.59C-48.5238 304.784 -50.1543 320.584 -64.2957 324.368C-68.7465 323.498 -72.2309 320.442 -75.9997 317.872C-77.5472 313.091 -87.1368 309.078 -80.1861 303.277C-78.5921 301.077 -76.8267 299.115 -74.7183 297.627C-68.734 294.012 -62.2353 291.109 -57.3365 286.434C-40.0113 275.602 -21.5985 267.156 0.302594 264.413C0.930065 264.4 1.38805 265.474 1.84602 266.547Z" fill="#FEAA42"/>
<path d="M-0.547246 262.725C-16.4954 268.255 -29.2878 278.61 -47.2081 280.961C-50.3738 281.397 -52.3036 285.748 -54.7955 288.439C-62.9847 285.411 -68.314 294.269 -76.6698 289.691C-69.816 281.634 -60.0303 277.21 -49.9635 273.617C-34.2416 268.211 -18.0124 263.511 -6.46089 251.871C-4.14813 254.206 -1.66632 256.775 0.646436 259.109C0.248533 260.315 -0.149342 261.52 -0.547246 262.725Z" fill="#EE9731"/>
<path d="M-64.8522 324.297C-58.999 320.086 -53.0319 316.473 -52.2952 307.815C-51.3879 299.393 -39.8483 305.258 -35.0182 300.95C-21.8873 305.941 -12.6246 298.534 -2.05338 296.019C-6.31471 301.995 -12.3386 305.969 -19.3858 308.526C-23.8187 310.304 -27.6831 312.43 -28.1928 319.643C-12.7905 316.781 -2.10746 306.943 12.0445 304.108C28.7533 298.217 45.576 292.923 64.218 289.269C60.697 301.11 45.7473 295.8 40.9749 303.707C36.9974 307.876 31.0863 308.488 25.4597 309.933C20.6269 303.678 26.7088 304.624 29.2661 302.887C9.3754 313.17 -11.7663 320.84 -30.463 332.777C-41.7152 339.628 -54.2752 344.227 -65.8685 350.605C-71.6083 354.093 -77.3481 357.581 -83.5995 360.36C-86.6118 361.027 -90.0219 361.583 -92.0688 358.747C-94.5707 354.842 -92.7528 351.201 -90.082 348.741C-82.8652 342.46 -74.7955 337.36 -66.8397 331.662C-67.7493 330.842 -61.2127 331.538 -66.7832 329.981C-67.7496 329.522 -68.7727 329.425 -69.739 328.966C-70.5358 324.783 -69.0585 323.31 -64.8522 324.297Z" fill="#F79F37"/>
<path d="M24.7575 310.208C30.2437 308.162 35.6727 306.475 41.1589 304.428C40.301 309.829 34.5363 309.73 30.5771 311.262C26.8441 312.668 24.2403 314.764 26.4364 319.134C25.5311 319.634 24.6831 319.774 23.7778 320.275C16.7074 323.197 8.11498 324.005 3.52417 330.811C-6.54052 333.09 -14.0684 338.892 -22.3847 343.16C-24.9264 342.266 -28.6593 343.672 -29.5596 341.542C-31.9796 335.983 -26.8316 333.466 -24.2253 330.055C-8.72422 322.144 4.01626 309.52 24.7575 310.208Z" fill="#FDA841"/>
<path d="M-23.9146 333.723C-27.4056 335.008 -31.2897 336.184 -34.7808 337.468C-38.9792 332.935 -32.4008 332.878 -32.1648 330.132C-13.1684 317.95 7.50527 308.105 30.3017 301.658C31.1821 306.4 23.7651 305.288 24.7032 309.67C6.7449 315.392 -9.53616 323.451 -23.9146 333.723Z" fill="#E68F27"/>
</g>
</svg>
